<svg id="Layer_1" data-name="Layer 1" xmlns="http://www.w3.org/2000/svg" xmlns:xlink="http://www.w3.org/1999/xlink" viewBox="0 0 900 350"><defs><clipPath id="clip-path"><polygon points="2.98 347.82 893.7 347.82 893.7 2 2.98 2 2.98 347.82 2.98 347.82" style="fill:none;clip-rule:evenodd"/></clipPath><clipPath id="clip-path-2"><polygon points="66.76 305.12 871.95 305.12 871.95 19.46 66.76 19.46 66.76 305.12 66.76 305.12" style="fill:none;clip-rule:evenodd"/></clipPath><clipPath id="clip-path-13"><rect x="2.98" y="2" width="890.72" height="345.82" style="fill:none"/></clipPath></defs><title>ground-truth-risk-report</title><polygon points="2.98 2.13 893.7 2.13 893.7 347.96 2.98 347.96 2.98 2.13 2.98 2.13" style="fill:#eaeaea;fill-rule:evenodd"/><polygon points="66.9 19.59 871.13 19.59 871.13 304.44 66.9 304.44 66.9 19.59 66.9 19.59" style="fill:#fff;fill-rule:evenodd"/><path d="M66.9,233.13H871.13M66.9,162H871.13M66.9,90.77H871.13M66.9,19.59H871.13" style="fill:none;stroke:#d9d9d9;stroke-linejoin:round;stroke-width:0.810846652011479px"/><g style="clip-path:url(#clip-path)"><path d="M66.9,19.59V304.44m268-284.85V304.44M603,19.59V304.44M871.13,19.59V304.44" style="fill:none;stroke:#d9d9d9;stroke-linejoin:round;stroke-width:0.810846652011479px"/></g><g style="clip-path:url(#clip-path-2)"><polygon points="149.31 61.09 252.39 61.09 252.39 304.44 149.31 304.44 149.31 61.09 149.31 61.09" style="fill:#5e9fff;fill-rule:evenodd"/><polygon points="149.31 61.09 252.39 61.09 252.39 304.44 149.31 304.44 149.31 61.09 149.31 61.09" style="fill:none;stroke:#7f7f7f;stroke-linejoin:round;stroke-width:0.810846652011479px"/><polygon points="417.48 59.35 520.55 59.35 520.55 304.44 417.48 304.44 417.48 59.35 417.48 59.35" style="fill:#5e9fff;fill-rule:evenodd"/><polygon points="417.48 59.35 520.55 59.35 520.55 304.44 417.48 304.44 417.48 59.35 417.48 59.35" style="fill:none;stroke:#7f7f7f;stroke-linejoin:round;stroke-width:0.810846652011479px"/><polygon points="685.51 57.6 788.59 57.6 788.59 304.44 685.51 304.44 685.51 57.6 685.51 57.6" style="fill:#5e9fff;fill-rule:evenodd"/><polygon points="685.51 57.6 788.59 57.6 788.59 304.44 685.51 304.44 685.51 57.6 685.51 57.6" style="fill:none;stroke:#7f7f7f;stroke-linejoin:round;stroke-width:0.810846652011479px"/></g><g style="clip-path:url(#clip-path)"><line x1="66.9" y1="304.44" x2="871.13" y2="304.44" style="fill:none;stroke:#d9d9d9;stroke-linejoin:round;stroke-width:0.810846652011479px"/></g><g style="clip-path:url(#clip-path)"><path d="M66.9,304.44v3m268-3v3m268-3v3m268.17-3v3" style="fill:none;stroke:#d9d9d9;stroke-linejoin:round;stroke-width:0.810846652011479px"/></g><g style="clip-path:url(#clip-path-2)"><polyline points="200.85 36.65 469.01 36.65 737.05 36.65" style="fill:none;stroke:#06f;stroke-miterlimit:10;stroke-width:1.351px;stroke-dasharray:5,5"/></g><g style="clip-path:url(#clip-path)"><path d="M203.74,36.62a2.86,2.86,0,1,1-2.86-2.82,2.84,2.84,0,0,1,2.86,2.82Z" style="fill:#06f"/><path d="M203.74,36.62a2.86,2.86,0,1,1-2.86-2.82,2.84,2.84,0,0,1,2.86,2.82Z" style="fill:none;stroke:#1c497c;stroke-linejoin:round;stroke-width:0.810846719136796px"/><path d="M471.9,36.62a2.86,2.86,0,1,1-2.85-2.82,2.84,2.84,0,0,1,2.85,2.82Z" style="fill:#06f"/><path d="M471.9,36.62a2.86,2.86,0,1,1-2.85-2.82,2.84,2.84,0,0,1,2.85,2.82Z" style="fill:none;stroke:#1c497c;stroke-linejoin:round;stroke-width:0.810846719136796px"/><path d="M739.94,36.62a2.86,2.86,0,1,1-2.86-2.82,2.84,2.84,0,0,1,2.86,2.82Z" style="fill:#06f"/><path d="M739.94,36.62a2.86,2.86,0,1,1-2.86-2.82,2.84,2.84,0,0,1,2.86,2.82Z" style="fill:none;stroke:#1c497c;stroke-linejoin:round;stroke-width:0.810846719136796px"/></g><g style="clip-path:url(#clip-path-2)"><polyline points="200.85 92.25 469.01 92.25 737.05 92.25" style="fill:none;stroke:#ff25f3;stroke-miterlimit:10;stroke-width:1.351px;stroke-dasharray:5,5"/></g><g style="clip-path:url(#clip-path)"><path d="M203.74,92.22a2.86,2.86,0,1,1-2.86-2.82,2.84,2.84,0,0,1,2.86,2.82Z" style="fill:#ff25f3"/><path d="M203.74,92.22a2.86,2.86,0,1,1-2.86-2.82,2.84,2.84,0,0,1,2.86,2.82Z" style="fill:none;stroke:#d9d9d9;stroke-linejoin:round;stroke-width:0.810846719136796px"/><path d="M471.9,92.22a2.86,2.86,0,1,1-2.85-2.82,2.84,2.84,0,0,1,2.85,2.82Z" style="fill:#ff25f3"/><path d="M471.9,92.22a2.86,2.86,0,1,1-2.85-2.82,2.84,2.84,0,0,1,2.85,2.82Z" style="fill:none;stroke:#d9d9d9;stroke-linejoin:round;stroke-width:0.810846719136796px"/><path d="M739.94,92.22a2.86,2.86,0,1,1-2.86-2.82,2.84,2.84,0,0,1,2.86,2.82Z" style="fill:#ff25f3"/><path d="M739.94,92.22a2.86,2.86,0,1,1-2.86-2.82,2.84,2.84,0,0,1,2.86,2.82Z" style="fill:none;stroke:#d9d9d9;stroke-linejoin:round;stroke-width:0.810846719136796px"/></g><g style="clip-path:url(#clip-path-2)"><polyline points="200.85 55.18 469.01 55.18 737.05 55.18" style="fill:none;stroke:#7f7f7f;stroke-linecap:round;stroke-linejoin:round;stroke-width:1.35141106431069px"/></g><g style="clip-path:url(#clip-path)"><path d="M203.74,55.15a2.86,2.86,0,1,1-2.86-2.82,2.84,2.84,0,0,1,2.86,2.82Z" style="fill:#7f7f7f"/><path d="M203.74,55.15a2.86,2.86,0,1,1-2.86-2.82,2.84,2.84,0,0,1,2.86,2.82Z" style="fill:none;stroke:#7f7f7f;stroke-linejoin:round;stroke-width:0.810846719136796px"/><path d="M471.9,55.15a2.86,2.86,0,1,1-2.85-2.82,2.83,2.83,0,0,1,2.85,2.82Z" style="fill:#7f7f7f"/><path d="M471.9,55.15a2.86,2.86,0,1,1-2.85-2.82,2.83,2.83,0,0,1,2.85,2.82Z" style="fill:none;stroke:#7f7f7f;stroke-linejoin:round;stroke-width:0.810846719136796px"/><path d="M739.94,55.15a2.86,2.86,0,1,1-2.86-2.82,2.84,2.84,0,0,1,2.86,2.82Z" style="fill:#7f7f7f"/><path d="M739.94,55.15a2.86,2.86,0,1,1-2.86-2.82,2.84,2.84,0,0,1,2.86,2.82Z" style="fill:none;stroke:#7f7f7f;stroke-linejoin:round;stroke-width:0.810846719136796px"/></g><g style="clip-path:url(#clip-path-2)"><polyline points="200.85 61.09 469.01 61.09 737.05 61.09" style="fill:none;stroke:#00c1a3;stroke-linecap:round;stroke-linejoin:round;stroke-width:1.35141106431069px"/></g><g style="clip-path:url(#clip-path)"><path d="M203.74,61.06a2.86,2.86,0,1,1-2.86-2.82,2.84,2.84,0,0,1,2.86,2.82Z" style="fill:#00c1a3"/><path d="M203.74,61.06a2.86,2.86,0,1,1-2.86-2.82,2.84,2.84,0,0,1,2.86,2.82Z" style="fill:none;stroke:#d9d9d9;stroke-linejoin:round;stroke-width:0.810846719136796px"/><path d="M471.9,61.06a2.86,2.86,0,1,1-2.85-2.82,2.83,2.83,0,0,1,2.85,2.82Z" style="fill:#00c1a3"/><path d="M471.9,61.06a2.86,2.86,0,1,1-2.85-2.82,2.83,2.83,0,0,1,2.85,2.82Z" style="fill:none;stroke:#d9d9d9;stroke-linejoin:round;stroke-width:0.810846719136796px"/><path d="M739.94,61.06a2.86,2.86,0,1,1-2.86-2.82,2.84,2.84,0,0,1,2.86,2.82Z" style="fill:#00c1a3"/><path d="M739.94,61.06a2.86,2.86,0,1,1-2.86-2.82,2.84,2.84,0,0,1,2.86,2.82Z" style="fill:none;stroke:#d9d9d9;stroke-linejoin:round;stroke-width:0.810846719136796px"/></g><g style="clip-path:url(#clip-path-13)"><text transform="translate(38.22 307.6) scale(1.01 1)" style="font-size:10.072489738464355px;font-family:ArialMT, Arial"><tspan style="letter-spacing:0.0030639954908155197em">2</tspan><tspan x="5.63" y="0" style="letter-spacing:0.0019149971817597em">.</tspan><tspan x="8.45" y="0" style="letter-spacing:-0.008904736895182605em">0</tspan><tspan x="13.96" y="0">0</tspan></text></g><g style="clip-path:url(#clip-path-13)"><text transform="translate(38.22 236.39) scale(1.01 1)" style="font-size:10.072489738464355px;font-family:ArialMT, Arial"><tspan style="letter-spacing:0.0030639954908155197em">3</tspan><tspan x="5.63" y="0" style="letter-spacing:0.0019149971817597em">.</tspan><tspan x="8.45" y="0" style="letter-spacing:-0.008904736895182605em">2</tspan><tspan x="13.96" y="0">0</tspan></text></g><g style="clip-path:url(#clip-path-13)"><text transform="translate(38.22 165.19) scale(1.01 1)" style="font-size:10.072489738464355px;font-family:ArialMT, Arial"><tspan style="letter-spacing:0.0030639954908155197em">4</tspan><tspan x="5.63" y="0" style="letter-spacing:0.0019149971817597em">.</tspan><tspan x="8.45" y="0" style="letter-spacing:-0.008904736895182605em">4</tspan><tspan x="13.96" y="0">0</tspan></text></g><g style="clip-path:url(#clip-path-13)"><text transform="translate(38.22 93.99) scale(1.01 1)" style="font-size:10.072489738464355px;font-family:ArialMT, Arial"><tspan style="letter-spacing:0.0030639954908155197em">5</tspan><tspan x="5.63" y="0" style="letter-spacing:0.0019149971817597em">.</tspan><tspan x="8.45" y="0" style="letter-spacing:-0.008904736895182605em">6</tspan><tspan x="13.96" y="0">0</tspan></text></g><g style="clip-path:url(#clip-path-13)"><text transform="translate(38.22 22.76) scale(1.01 1)" style="font-size:10.072489738464355px;font-family:ArialMT, Arial"><tspan style="letter-spacing:0.0030639954908155197em">6</tspan><tspan x="5.63" y="0" style="letter-spacing:0.0019149971817597em">.</tspan><tspan x="8.45" y="0" style="letter-spacing:-0.008904736895182605em">8</tspan><tspan x="13.96" y="0">0</tspan></text></g><g style="clip-path:url(#clip-path-13)"><text transform="translate(188.8 319.6) scale(1.01 1)" style="font-size:10.072489738464355px;font-family:ArialMT, Arial">Oct</text></g><g style="clip-path:url(#clip-path-13)"><text transform="translate(459.89 319.6) scale(1.01 1)" style="font-size:10.072489738464355px;font-family:ArialMT, Arial">Nov</text></g><g style="clip-path:url(#clip-path-13)"><text transform="translate(727.98 319.6) scale(1.01 1)" style="font-size:10.072489738464355px;font-family:ArialMT, Arial">Des</text></g><g style="clip-path:url(#clip-path-13)"><text transform="translate(24.01 213.29) rotate(-90) scale(0.99 1)" style="font-size:11.286979675292969px;font-family:Arial-BoldMT, Arial;font-weight:700"><tspan style="letter-spacing:0.005081285575777875em">Q</tspan><tspan x="8.84" y="0" style="letter-spacing:0.002978684647869789em">u</tspan><tspan x="15.76" y="0" style="letter-spacing:-0.0009636920919578729em">a</tspan><tspan x="22.03" y="0" style="letter-spacing:0.003066293019865959em">n</tspan><tspan x="28.96" y="0" style="letter-spacing:0.003942376739827662em">t</tspan><tspan x="32.76" y="0" style="letter-spacing:0.00008760837199617026em">i</tspan><tspan x="35.9" y="0" style="letter-spacing:0.003942376739827662em">t</tspan><tspan x="39.7" y="0" style="letter-spacing:-0.012966039055433198em">y</tspan><tspan x="45.83" y="0" style="letter-spacing:0.011038654871517454em"> </tspan><tspan x="49.09" y="0" style="letter-spacing:0.004029985111823833em">(</tspan><tspan x="52.9" y="0" style="letter-spacing:0.02198970137103874em">M</tspan><tspan x="62.55" y="0" style="letter-spacing:0.015068639983341285em">T</tspan><tspan x="69.61" y="0">)</tspan></text></g><g style="clip-path:url(#clip-path-13)"><text transform="translate(413.9 339.54) scale(1.01 1)" style="font-size:11.146889686584473px;font-family:Arial-BoldMT, Arial;font-weight:700"><tspan style="letter-spacing:0.014968124162124612em">T</tspan><tspan x="6.98" y="0" style="letter-spacing:0.0000865209489140151em">i</tspan><tspan x="10.07" y="0" style="letter-spacing:0.001903460876108332em">m</tspan><tspan x="20.01" y="0" style="letter-spacing:-0.000951730438054166em">e</tspan><tspan x="26.2" y="0"> </tspan><tspan x="29.29" y="0" style="letter-spacing:-0.003979963650044694em">P</tspan><tspan x="36.68" y="0" style="letter-spacing:-0.0010382513869681808em">e</tspan><tspan x="42.87" y="0" style="letter-spacing:-0.0030282332119905284em">r</tspan><tspan x="47.17" y="0">i</tspan><tspan x="50.27" y="0" style="letter-spacing:0.0030282332119905284em">o</tspan><tspan x="57.11" y="0">d</tspan></text></g><polygon points="2.98 2.13 893.7 2.13 893.7 347.96 2.98 347.96 2.98 2.13 2.98 2.13" style="fill:none;stroke:#d9d9d9;stroke-linejoin:round;stroke-width:0.810846719136796px"/></svg>