<svg id="Layer_1" data-name="Layer 1" xmlns="http://www.w3.org/2000/svg" xmlns:xlink="http://www.w3.org/1999/xlink" viewBox="0 0 900 350"><defs><clipPath id="clip-path"><polygon points="2 348.08 897.78 348.08 897.78 3 2 3 2 348.08 2 348.08" style="fill:none;clip-rule:evenodd"/></clipPath><clipPath id="clip-path-6"><polygon points="55.9 294.9 886.8 294.9 886.8 17.83 55.9 17.83 55.9 294.9 55.9 294.9" style="fill:none;clip-rule:evenodd"/></clipPath><clipPath id="clip-path-10"><rect x="2" y="3" width="895.78" height="345.08" style="fill:none"/></clipPath></defs><title>ndvi-risk-report</title><polygon points="2.14 3 897.91 3 897.91 348.22 2.14 348.22 2.14 3 2.14 3" style="fill:#eaeaea;fill-rule:evenodd"/><polygon points="55.9 17.83 885.98 17.83 885.98 294.08 55.9 294.08 55.9 17.83 55.9 17.83" style="fill:#fff;fill-rule:evenodd"/><path d="M55.9,225H886M55.9,155.89H886M55.9,86.92H886M55.9,17.83H886" style="fill:none;stroke:#d9d9d9;stroke-linejoin:round;stroke-width:0.819523740023823px"/><g style="clip-path:url(#clip-path)"><path d="M90.6,17.83V294.08M159.73,17.83V294.08M228.86,17.83V294.08M298,17.83V294.08M367.25,17.83V294.08M436.38,17.83V294.08M505.51,17.83V294.08M574.77,17.83V294.08M643.9,17.83V294.08M713,17.83V294.08M782.15,17.83V294.08M851.42,17.83V294.08" style="fill:none;stroke:#f2f2f2;stroke-linejoin:round;stroke-width:0.819523740023823px"/></g><g style="clip-path:url(#clip-path)"><path d="M55.9,17.83V294.08M125.17,17.83V294.08M194.29,17.83V294.08M263.42,17.83V294.08M332.69,17.83V294.08M401.81,17.83V294.08M470.94,17.83V294.08M540.07,17.83V294.08M609.33,17.83V294.08M678.46,17.83V294.08M747.59,17.83V294.08M816.85,17.83V294.08M886,17.83V294.08" style="fill:none;stroke:#d9d9d9;stroke-linejoin:round;stroke-width:0.819523740023823px"/></g><g style="clip-path:url(#clip-path)"><line x1="55.9" y1="294.08" x2="885.98" y2="294.08" style="fill:none;stroke:#d9d9d9;stroke-linejoin:round;stroke-width:1.36587287742516px"/></g><g style="clip-path:url(#clip-path)"><path d="M55.9,294.08v18.36m276.79-18.36v18.36m276.64-18.36v18.36M886,294.08v18.36" style="fill:none;stroke:#d9d9d9;stroke-linejoin:round;stroke-width:1.36587287742516px"/></g><g style="clip-path:url(#clip-path)"><path d="M55.9,312.44v18.37m276.79-18.37v18.37m276.64-18.37v18.37M886,312.44v18.37" style="fill:none;stroke:#d9d9d9;stroke-linejoin:round;stroke-width:1.36587287742516px"/></g><g style="clip-path:url(#clip-path-6)"><polyline points="90.6 169.76 159.73 133.85 228.86 100.66 297.99 84.07 367.25 73.05 436.38 67.61 505.5 78.63 574.77 100.66 643.9 128.27 713.02 142.15 782.15 155.89 851.42 172.48" style="fill:none;stroke:#ff25f3;stroke-linecap:round;stroke-linejoin:round;stroke-width:2.45857115222783px"/></g><g style="clip-path:url(#clip-path)"><polygon points="87.69 166.94 93.45 166.94 93.45 172.65 87.69 172.65 87.69 166.94 87.69 166.94" style="fill:#ff25f3;fill-rule:evenodd"/><polygon points="87.69 166.94 93.45 166.94 93.45 172.65 87.69 172.65 87.69 166.94 87.69 166.94" style="fill:none;stroke:#ff25f3;stroke-linejoin:round;stroke-width:0.819523807867467px"/><polygon points="156.82 131.03 162.58 131.03 162.58 136.74 156.82 136.74 156.82 131.03 156.82 131.03" style="fill:#ff25f3;fill-rule:evenodd"/><polygon points="156.82 131.03 162.58 131.03 162.58 136.74 156.82 136.74 156.82 131.03 156.82 131.03" style="fill:none;stroke:#ff25f3;stroke-linejoin:round;stroke-width:0.819523807867467px"/><polygon points="225.94 97.84 231.7 97.84 231.7 103.55 225.94 103.55 225.94 97.84 225.94 97.84" style="fill:#ff25f3;fill-rule:evenodd"/><polygon points="225.94 97.84 231.7 97.84 231.7 103.55 225.94 103.55 225.94 97.84 225.94 97.84" style="fill:none;stroke:#ff25f3;stroke-linejoin:round;stroke-width:0.819523807867467px"/><polygon points="295.07 81.25 300.83 81.25 300.83 86.96 295.07 86.96 295.07 81.25 295.07 81.25" style="fill:#ff25f3;fill-rule:evenodd"/><polygon points="295.07 81.25 300.83 81.25 300.83 86.96 295.07 86.96 295.07 81.25 295.07 81.25" style="fill:none;stroke:#ff25f3;stroke-linejoin:round;stroke-width:0.819523807867467px"/><polygon points="364.34 70.23 370.1 70.23 370.1 75.94 364.34 75.94 364.34 70.23 364.34 70.23" style="fill:#ff25f3;fill-rule:evenodd"/><polygon points="364.34 70.23 370.1 70.23 370.1 75.94 364.34 75.94 364.34 70.23 364.34 70.23" style="fill:none;stroke:#ff25f3;stroke-linejoin:round;stroke-width:0.819523807867467px"/><polygon points="433.46 64.79 439.22 64.79 439.22 70.5 433.46 70.5 433.46 64.79 433.46 64.79" style="fill:#ff25f3;fill-rule:evenodd"/><polygon points="433.46 64.79 439.22 64.79 439.22 70.5 433.46 70.5 433.46 64.79 433.46 64.79" style="fill:none;stroke:#ff25f3;stroke-linejoin:round;stroke-width:0.819523807867467px"/><polygon points="502.59 75.8 508.35 75.8 508.35 81.52 502.59 81.52 502.59 75.8 502.59 75.8" style="fill:#ff25f3;fill-rule:evenodd"/><polygon points="502.59 75.8 508.35 75.8 508.35 81.52 502.59 81.52 502.59 75.8 502.59 75.8" style="fill:none;stroke:#ff25f3;stroke-linejoin:round;stroke-width:0.819523807867467px"/><polygon points="571.86 97.84 577.62 97.84 577.62 103.55 571.86 103.55 571.86 97.84 571.86 97.84" style="fill:#ff25f3;fill-rule:evenodd"/><polygon points="571.86 97.84 577.62 97.84 577.62 103.55 571.86 103.55 571.86 97.84 571.86 97.84" style="fill:none;stroke:#ff25f3;stroke-linejoin:round;stroke-width:0.819523807867467px"/><polygon points="640.98 125.45 646.74 125.45 646.74 131.16 640.98 131.16 640.98 125.45 640.98 125.45" style="fill:#ff25f3;fill-rule:evenodd"/><polygon points="640.98 125.45 646.74 125.45 646.74 131.16 640.98 131.16 640.98 125.45 640.98 125.45" style="fill:none;stroke:#ff25f3;stroke-linejoin:round;stroke-width:0.819523807867467px"/><polygon points="710.11 139.32 715.87 139.32 715.87 145.04 710.11 145.04 710.11 139.32 710.11 139.32" style="fill:#ff25f3;fill-rule:evenodd"/><polygon points="710.11 139.32 715.87 139.32 715.87 145.04 710.11 145.04 710.11 139.32 710.11 139.32" style="fill:none;stroke:#ff25f3;stroke-linejoin:round;stroke-width:0.819523807867467px"/><polygon points="779.24 153.06 785 153.06 785 158.78 779.24 158.78 779.24 153.06 779.24 153.06" style="fill:#ff25f3;fill-rule:evenodd"/><polygon points="779.24 153.06 785 153.06 785 158.78 779.24 158.78 779.24 153.06 779.24 153.06" style="fill:none;stroke:#ff25f3;stroke-linejoin:round;stroke-width:0.819523807867467px"/><polygon points="848.5 169.66 854.26 169.66 854.26 175.37 848.5 175.37 848.5 169.66 848.5 169.66" style="fill:#ff25f3;fill-rule:evenodd"/><polygon points="848.5 169.66 854.26 169.66 854.26 175.37 848.5 175.37 848.5 169.66 848.5 169.66" style="fill:none;stroke:#ff25f3;stroke-linejoin:round;stroke-width:0.819523807867467px"/></g><g style="clip-path:url(#clip-path-6)"><polyline points="90.6 183.63 159.73 150.44 228.86 117.26 297.99 100.66 367.25 89.64 436.38 78.63 505.5 89.64 574.77 100.66 643.9 133.85 713.02 150.44 782.15 164.18 851.42 183.63" style="fill:none;stroke:#06f;stroke-linecap:round;stroke-linejoin:round;stroke-width:2.45857115222783px"/></g><g style="clip-path:url(#clip-path)"><path d="M93.45,183.67a2.88,2.88,0,1,1-2.88-2.86,2.86,2.86,0,0,1,2.88,2.86Z" style="fill:#06f"/><path d="M93.45,183.67a2.88,2.88,0,1,1-2.88-2.86,2.86,2.86,0,0,1,2.88,2.86Z" style="fill:none;stroke:#06f;stroke-linejoin:round;stroke-width:0.819523807867467px"/><path d="M162.58,150.48a2.88,2.88,0,1,1-2.88-2.86,2.87,2.87,0,0,1,2.88,2.86Z" style="fill:#06f"/><path d="M162.58,150.48a2.88,2.88,0,1,1-2.88-2.86,2.87,2.87,0,0,1,2.88,2.86Z" style="fill:none;stroke:#06f;stroke-linejoin:round;stroke-width:0.819523807867467px"/><path d="M231.7,117.29a2.88,2.88,0,1,1-2.88-2.86,2.87,2.87,0,0,1,2.88,2.86Z" style="fill:#06f"/><path d="M231.7,117.29a2.88,2.88,0,1,1-2.88-2.86,2.87,2.87,0,0,1,2.88,2.86Z" style="fill:none;stroke:#06f;stroke-linejoin:round;stroke-width:0.819523807867467px"/><path d="M300.83,100.7A2.88,2.88,0,1,1,298,97.84a2.87,2.87,0,0,1,2.88,2.86Z" style="fill:#06f"/><path d="M300.83,100.7A2.88,2.88,0,1,1,298,97.84a2.87,2.87,0,0,1,2.88,2.86Z" style="fill:none;stroke:#06f;stroke-linejoin:round;stroke-width:0.819523807867467px"/><path d="M370.1,89.68a2.88,2.88,0,1,1-2.88-2.86,2.86,2.86,0,0,1,2.88,2.86Z" style="fill:#06f"/><path d="M370.1,89.68a2.88,2.88,0,1,1-2.88-2.86,2.86,2.86,0,0,1,2.88,2.86Z" style="fill:none;stroke:#06f;stroke-linejoin:round;stroke-width:0.819523807867467px"/><path d="M439.22,78.66a2.88,2.88,0,1,1-2.88-2.86,2.87,2.87,0,0,1,2.88,2.86Z" style="fill:#06f"/><path d="M439.22,78.66a2.88,2.88,0,1,1-2.88-2.86,2.87,2.87,0,0,1,2.88,2.86Z" style="fill:none;stroke:#06f;stroke-linejoin:round;stroke-width:0.819523807867467px"/><path d="M508.35,89.68a2.88,2.88,0,1,1-2.88-2.86,2.86,2.86,0,0,1,2.88,2.86Z" style="fill:#06f"/><path d="M508.35,89.68a2.88,2.88,0,1,1-2.88-2.86,2.86,2.86,0,0,1,2.88,2.86Z" style="fill:none;stroke:#06f;stroke-linejoin:round;stroke-width:0.819523807867467px"/><path d="M577.62,100.7a2.88,2.88,0,1,1-2.88-2.86,2.87,2.87,0,0,1,2.88,2.86Z" style="fill:#06f"/><path d="M577.62,100.7a2.88,2.88,0,1,1-2.88-2.86,2.87,2.87,0,0,1,2.88,2.86Z" style="fill:none;stroke:#06f;stroke-linejoin:round;stroke-width:0.819523807867467px"/><path d="M646.74,133.88a2.88,2.88,0,1,1-2.88-2.85,2.87,2.87,0,0,1,2.88,2.85Z" style="fill:#06f"/><path d="M646.74,133.88a2.88,2.88,0,1,1-2.88-2.85,2.87,2.87,0,0,1,2.88,2.85Z" style="fill:none;stroke:#06f;stroke-linejoin:round;stroke-width:0.819523807867467px"/><path d="M715.87,150.48a2.88,2.88,0,1,1-2.88-2.86,2.87,2.87,0,0,1,2.88,2.86Z" style="fill:#06f"/><path d="M715.87,150.48a2.88,2.88,0,1,1-2.88-2.86,2.87,2.87,0,0,1,2.88,2.86Z" style="fill:none;stroke:#06f;stroke-linejoin:round;stroke-width:0.819523807867467px"/><path d="M785,164.22a2.88,2.88,0,1,1-2.88-2.86,2.87,2.87,0,0,1,2.88,2.86Z" style="fill:#06f"/><path d="M785,164.22a2.88,2.88,0,1,1-2.88-2.86,2.87,2.87,0,0,1,2.88,2.86Z" style="fill:none;stroke:#06f;stroke-linejoin:round;stroke-width:0.819523807867467px"/><path d="M854.26,183.67a2.88,2.88,0,1,1-2.88-2.86,2.86,2.86,0,0,1,2.88,2.86Z" style="fill:#06f"/><path d="M854.26,183.67a2.88,2.88,0,1,1-2.88-2.86,2.86,2.86,0,0,1,2.88,2.86Z" style="fill:none;stroke:#06f;stroke-linejoin:round;stroke-width:0.819523807867467px"/></g><g style="clip-path:url(#clip-path-10)"><text transform="translate(27.08 297.32) scale(1.01 1)" style="font-size:10.201459884643555px;font-family:ArialMT, Arial;letter-spacing:0.003037860038690389em">0<tspan x="5.7" y="0" style="letter-spacing:0.0019935956503905673em">.</tspan><tspan x="8.56" y="0" style="letter-spacing:-0.009018646989862092em">0</tspan><tspan x="14.14" y="0" style="letter-spacing:0.00009493312620907465em">0</tspan></text></g><g style="clip-path:url(#clip-path-10)"><text transform="translate(27.08 228.27) scale(1.01 1)" style="font-size:10.201459884643555px;font-family:ArialMT, Arial;letter-spacing:0.003037860038690389em">0<tspan x="5.7" y="0" style="letter-spacing:0.0019935956503905673em">.</tspan><tspan x="8.56" y="0" style="letter-spacing:-0.009018646989862092em">2</tspan><tspan x="14.14" y="0" style="letter-spacing:0.00009493312620907465em">5</tspan></text></g><g style="clip-path:url(#clip-path-10)"><text transform="translate(27.08 159.2) scale(1.01 1)" style="font-size:10.201459884643555px;font-family:ArialMT, Arial;letter-spacing:0.003037860038690389em">0<tspan x="5.7" y="0" style="letter-spacing:0.0019935956503905673em">.</tspan><tspan x="8.56" y="0" style="letter-spacing:-0.009018646989862092em">5</tspan><tspan x="14.14" y="0" style="letter-spacing:0.00009493312620907465em">0</tspan></text></g><g style="clip-path:url(#clip-path-10)"><text transform="translate(27.08 90.14) scale(1.01 1)" style="font-size:10.201459884643555px;font-family:ArialMT, Arial;letter-spacing:0.003037860038690389em">0<tspan x="5.7" y="0" style="letter-spacing:0.0019935956503905673em">.</tspan><tspan x="8.56" y="0" style="letter-spacing:-0.009018646989862092em">7</tspan><tspan x="14.14" y="0" style="letter-spacing:0.00009493312620907465em">5</tspan></text></g><g style="clip-path:url(#clip-path-10)"><text transform="translate(27.08 21.09) scale(1.01 1)" style="font-size:10.201459884643555px;font-family:ArialMT, Arial;letter-spacing:0.003037860038690389em">1<tspan x="5.7" y="0" style="letter-spacing:0.0019935956503905673em">.</tspan><tspan x="8.56" y="0" style="letter-spacing:-0.009018646989862092em">0</tspan><tspan x="14.14" y="0" style="letter-spacing:0.00009493312620907465em">0</tspan></text></g><g style="clip-path:url(#clip-path-10)"><text transform="translate(87.68 309.47) scale(1.01 1)" style="font-size:10.201459884643555px;font-family:ArialMT, Arial">1</text></g><g style="clip-path:url(#clip-path-10)"><text transform="translate(156.84 309.47) scale(1.01 1)" style="font-size:10.201459884643555px;font-family:ArialMT, Arial">2</text></g><g style="clip-path:url(#clip-path-10)"><text transform="translate(226.01 309.47) scale(1.01 1)" style="font-size:10.201459884643555px;font-family:ArialMT, Arial">3</text></g><g style="clip-path:url(#clip-path-10)"><text transform="translate(295.17 309.47) scale(1.01 1)" style="font-size:10.201459884643555px;font-family:ArialMT, Arial">4</text></g><g style="clip-path:url(#clip-path-10)"><text transform="translate(364.34 309.47) scale(1.01 1)" style="font-size:10.201459884643555px;font-family:ArialMT, Arial">1</text></g><g style="clip-path:url(#clip-path-10)"><text transform="translate(433.51 309.47) scale(1.01 1)" style="font-size:10.201459884643555px;font-family:ArialMT, Arial">2</text></g><g style="clip-path:url(#clip-path-10)"><text transform="translate(502.68 309.47) scale(1.01 1)" style="font-size:10.201459884643555px;font-family:ArialMT, Arial">3</text></g><g style="clip-path:url(#clip-path-10)"><text transform="translate(571.85 309.47) scale(1.01 1)" style="font-size:10.201459884643555px;font-family:ArialMT, Arial">4</text></g><g style="clip-path:url(#clip-path-10)"><text transform="translate(641.01 309.47) scale(1.01 1)" style="font-size:10.201459884643555px;font-family:ArialMT, Arial">1</text></g><g style="clip-path:url(#clip-path-10)"><text transform="translate(710.17 309.47) scale(1.01 1)" style="font-size:10.201459884643555px;font-family:ArialMT, Arial">2</text></g><g style="clip-path:url(#clip-path-10)"><text transform="translate(779.35 309.47) scale(1.01 1)" style="font-size:10.201459884643555px;font-family:ArialMT, Arial">3</text></g><g style="clip-path:url(#clip-path-10)"><text transform="translate(848.51 309.47) scale(1.01 1)" style="font-size:10.201459884643555px;font-family:ArialMT, Arial">4</text></g><g style="clip-path:url(#clip-path-10)"><text transform="translate(186.29 327.86) scale(1.01 1)" style="font-size:10.201459884643555px;font-family:ArialMT, Arial"><tspan style="letter-spacing:-0.0039871913007811345em">O</tspan><tspan x="7.89" y="0" style="letter-spacing:0.005980786951171702em">c</tspan><tspan x="13.06" y="0">t</tspan></text></g><g style="clip-path:url(#clip-path-10)"><text transform="translate(461.81 327.86) scale(1.01 1)" style="font-size:10.201459884643555px;font-family:ArialMT, Arial"><tspan style="letter-spacing:-0.0019935956503905673em">N</tspan><tspan x="7.35" y="0" style="letter-spacing:0.003037860038690389em">o</tspan><tspan x="13.05" y="0">v</tspan></text></g><g style="clip-path:url(#clip-path-10)"><text transform="translate(738.48 327.86) scale(1.01 1)" style="font-size:10.201459884643555px;font-family:ArialMT, Arial"><tspan style="letter-spacing:-0.0019935956503905673em">D</tspan><tspan x="7.35" y="0" style="letter-spacing:0.003037860038690389em">e</tspan><tspan x="13.05" y="0">c</tspan></text></g><g style="clip-path:url(#clip-path-10)"><text transform="translate(20.75 211.03) rotate(-90) scale(0.99 1)" style="font-size:11.384079933166504px;font-family:Arial-BoldMT, Arial;font-weight:700">ND<tspan x="16.44" y="0" style="letter-spacing:-0.003979052122699524em">V</tspan><tspan x="23.99" y="0">I</tspan><tspan x="27.15" y="0" style="letter-spacing:0.010985643903974772em"> </tspan><tspan x="30.44" y="0"> </tspan><tspan x="33.6" y="0" style="letter-spacing:-0.004065553255801687em">V</tspan><tspan x="41.15" y="0" style="letter-spacing:-0.0009515124641237991em">a</tspan><tspan x="47.47" y="0">l</tspan><tspan x="50.63" y="0" style="letter-spacing:0.002941038525473561em">u</tspan><tspan x="57.62" y="0" style="letter-spacing:0.00008650113310216355em">e</tspan></text></g><g style="clip-path:url(#clip-path-10)"><text transform="translate(436.55 341.54) scale(1.01 1)" style="font-size:11.289609909057617px;font-family:Arial-BoldMT, Arial;font-weight:700"><tspan style="letter-spacing:0.006948422081037877em">W</tspan><tspan x="10.73" y="0" style="letter-spacing:-0.0009436128752026747em">ee</tspan><tspan x="23.27" y="0">k</tspan></text></g><polygon points="2.14 3 897.91 3 897.91 348.22 2.14 348.22 2.14 3 2.14 3" style="fill:none;stroke:#d9d9d9;stroke-linejoin:round;stroke-width:0.819523807867467px"/></svg>