<svg id="Layer_1" data-name="Layer 1" xmlns="http://www.w3.org/2000/svg" xmlns:xlink="http://www.w3.org/1999/xlink" viewBox="0 0 900 350"><defs><clipPath id="clip-path"><polygon points="2 347.69 897.78 347.69 897.78 3 2 3 2 347.69 2 347.69" style="fill:none;clip-rule:evenodd"/></clipPath><clipPath id="clip-path-3"><polygon points="63.95 305.12 876.85 305.12 876.85 24.22 63.95 24.22 63.95 305.12 63.95 305.12" style="fill:none;clip-rule:evenodd"/></clipPath><clipPath id="clip-path-6"><rect x="2" y="3" width="895.78" height="344.7" style="fill:none"/></clipPath></defs><title>price-volatility</title><polygon points="2.14 3 897.91 3 897.91 347.69 2.14 347.69 2.14 3 2.14 3" style="fill:#eaeaea;fill-rule:evenodd"/><polygon points="63.95 24.22 876.03 24.22 876.03 304.31 63.95 304.31 63.95 24.22 63.95 24.22" style="fill:#fff;fill-rule:evenodd"/><path d="M64,243.88H876M64,183.46H876M64,123H876M64,62.48H876" style="fill:none;stroke:#d9d9d9;stroke-linejoin:round;stroke-width:0.815789298194594px"/><g style="clip-path:url(#clip-path)"><path d="M64,24.22V304.3m67.7-280.08V304.3M199.34,24.22V304.3M267,24.22V304.3m67.7-280.08V304.3M402.3,24.22V304.3M470,24.22V304.3m67.7-280.08V304.3M605.38,24.22V304.3m67.7-280.08V304.3m67.7-280.08V304.3M808.34,24.22V304.3M876,24.22V304.3" style="fill:none;stroke:#d9d9d9;stroke-linejoin:round;stroke-width:0.815789298194594px"/></g><g style="clip-path:url(#clip-path)"><line x1="63.95" y1="304.3" x2="876.03" y2="304.3" style="fill:none;stroke:#bfbfbf;stroke-linejoin:round;stroke-width:2.17543817354191px"/></g><g style="clip-path:url(#clip-path-3)"><polyline points="97.87 191.16 165.43 176.43 233.12 172.78 300.82 146.56 368.52 128.04 436.21 110.87 503.91 115.6 571.47 103.7 639.16 87.89 706.86 132.9 774.56 165.21 842.25 184.81" style="fill:none;stroke:#ff25f3;stroke-linecap:round;stroke-linejoin:round;stroke-width:2.44736782704929px"/></g><g style="clip-path:url(#clip-path-3)"><polyline points="97.87 273.75 165.43 260.1 233.12 266.46 300.82 260.24 368.52 201.84 436.21 201.57 503.91 205.63 571.47 231.72 639.16 257.94 706.86 251.05 774.56 242.12 842.25 234.42" style="fill:none;stroke:#2935e8;stroke-linecap:round;stroke-linejoin:round;stroke-width:2.44736782704929px"/></g><g style="clip-path:url(#clip-path-3)"><polyline points="97.87 240.64 165.43 244.83 233.12 242.26 300.82 221.85 368.52 209.82 436.21 177.38 503.91 165.34 571.47 176.56 639.16 218.74 706.86 223.2 774.56 221.98 842.25 227.66" style="fill:none;stroke:#00c1a3;stroke-linecap:round;stroke-linejoin:round;stroke-width:2.44736782704929px"/></g><g style="clip-path:url(#clip-path-6)"><text transform="translate(38.03 307.55) scale(1.01 1)" style="font-size:10.138099670410156px;font-family:ArialMT, Arial"><tspan style="letter-spacing:0.003046694132423694em">5</tspan><tspan x="5.67" y="0" style="letter-spacing:-0.008949664013994602em">0</tspan><tspan x="11.22" y="0">0</tspan></text></g><g style="clip-path:url(#clip-path-6)"><text transform="translate(26.63 247.1) scale(1.01 1)" style="font-size:10.138099670410156px;font-family:ArialMT, Arial;letter-spacing:0.003046694132423694em">1<tspan x="5.67" y="0" style="letter-spacing:-0.008949664013994602em">5</tspan><tspan x="11.22" y="0">50</tspan><tspan x="22.55" y="0" style="letter-spacing:0.00009520919163824044em">0</tspan></text></g><g style="clip-path:url(#clip-path-6)"><text transform="translate(26.63 186.65) scale(1.01 1)" style="font-size:10.138099670410156px;font-family:ArialMT, Arial;letter-spacing:0.003046694132423694em">3<tspan x="5.67" y="0" style="letter-spacing:-0.008949664013994602em">0</tspan><tspan x="11.22" y="0">50</tspan><tspan x="22.55" y="0" style="letter-spacing:0.00009520919163824044em">0</tspan></text></g><g style="clip-path:url(#clip-path-6)"><text transform="translate(26.63 126.21) scale(1.01 1)" style="font-size:10.138099670410156px;font-family:ArialMT, Arial;letter-spacing:0.003046694132423694em">4<tspan x="5.67" y="0" style="letter-spacing:-0.008949664013994602em">5</tspan><tspan x="11.22" y="0">50</tspan><tspan x="22.55" y="0" style="letter-spacing:0.00009520919163824044em">0</tspan></text></g><g style="clip-path:url(#clip-path-6)"><text transform="translate(26.63 65.76) scale(1.01 1)" style="font-size:10.138099670410156px;font-family:ArialMT, Arial;letter-spacing:0.003046694132423694em">6<tspan x="5.67" y="0" style="letter-spacing:-0.008949664013994602em">0</tspan><tspan x="11.22" y="0">50</tspan><tspan x="22.55" y="0" style="letter-spacing:0.00009520919163824044em">0</tspan></text></g><g style="clip-path:url(#clip-path-6)"><text transform="translate(89.54 319.62) scale(1.01 1)" style="font-size:10.138099670410156px;font-family:ArialMT, Arial;letter-spacing:0.005998179073209146em">J<tspan x="5.13" y="0" style="letter-spacing:-0.00904487320563284em">a</tspan><tspan x="10.68" y="0" style="letter-spacing:0.00009520919163824044em">n</tspan></text></g><g style="clip-path:url(#clip-path-6)"><text transform="translate(156.65 319.62) scale(1.01 1)" style="font-size:10.138099670410156px;font-family:ArialMT, Arial"><tspan style="letter-spacing:0.001999393024403049em">F</tspan><tspan x="6.21" y="0" style="letter-spacing:0.003046694132423694em">e</tspan><tspan x="11.88" y="0">b</tspan></text></g><g style="clip-path:url(#clip-path-6)"><text transform="translate(224.32 319.62) scale(1.01 1)" style="font-size:10.138099670410156px;font-family:ArialMT, Arial"><tspan style="letter-spacing:-0.005998179073209146em">M</tspan><tspan x="8.38" y="0" style="letter-spacing:0.003046694132423694em">a</tspan><tspan x="14.05" y="0">r</tspan></text></g><g style="clip-path:url(#clip-path-6)"><text transform="translate(292.85 319.62) scale(1.01 1)" style="font-size:10.138099670410156px;font-family:ArialMT, Arial">A<tspan x="6.76" y="0" style="letter-spacing:0.0029514849407854533em">p</tspan><tspan x="12.43" y="0">r</tspan></text></g><g style="clip-path:url(#clip-path-6)"><text transform="translate(358.81 319.62) scale(1.01 1)" style="font-size:10.138099670410156px;font-family:ArialMT, Arial"><tspan style="letter-spacing:-0.005998179073209146em">M</tspan><tspan x="8.38" y="0" style="letter-spacing:0.003046694132423694em">a</tspan><tspan x="14.05" y="0">y</tspan></text></g><g style="clip-path:url(#clip-path-6)"><text transform="translate(427.91 319.62) scale(1.01 1)" style="font-size:10.138099670410156px;font-family:ArialMT, Arial;letter-spacing:0.005998179073209146em">J<tspan x="5.13" y="0" style="letter-spacing:-0.00904487320563284em">u</tspan><tspan x="10.68" y="0" style="letter-spacing:0.00009520919163824044em">n</tspan></text></g><g style="clip-path:url(#clip-path-6)"><text transform="translate(497.3 319.62) scale(1.01 1)" style="font-size:10.138099670410156px;font-family:ArialMT, Arial;letter-spacing:0.005998179073209146em">J<tspan x="5.13" y="0" style="letter-spacing:-0.00904487320563284em">u</tspan><tspan x="10.68" y="0" style="letter-spacing:0.00009520919163824044em">l</tspan></text></g><g style="clip-path:url(#clip-path-6)"><text transform="translate(562.4 319.62) scale(1.01 1)" style="font-size:10.138099670410156px;font-family:ArialMT, Arial">A<tspan x="6.76" y="0" style="letter-spacing:0.0029514849407854533em">u</tspan><tspan x="12.43" y="0" style="letter-spacing:0.00009520919163824044em">g</tspan></text></g><g style="clip-path:url(#clip-path-6)"><text transform="translate(630.08 319.62) scale(1.01 1)" style="font-size:10.138099670410156px;font-family:ArialMT, Arial">S<tspan x="6.76" y="0" style="letter-spacing:0.0029514849407854533em">e</tspan><tspan x="12.43" y="0" style="letter-spacing:0.00009520919163824044em">p</tspan></text></g><g style="clip-path:url(#clip-path-6)"><text transform="translate(698.9 319.62) scale(1.01 1)" style="font-size:10.138099670410156px;font-family:ArialMT, Arial"><tspan style="letter-spacing:-0.003998786048806098em">O</tspan><tspan x="7.85" y="0" style="letter-spacing:0.005902969881570907em">c</tspan><tspan x="12.97" y="0">t</tspan></text></g><g style="clip-path:url(#clip-path-6)"><text transform="translate(765.42 319.62) scale(1.01 1)" style="font-size:10.138099670410156px;font-family:ArialMT, Arial"><tspan style="letter-spacing:-0.001999393024403049em">N</tspan><tspan x="7.3" y="0" style="letter-spacing:0.003046694132423694em">o</tspan><tspan x="12.97" y="0">v</tspan></text></g><g style="clip-path:url(#clip-path-6)"><text transform="translate(833.11 319.62) scale(1.01 1)" style="font-size:10.138099670410156px;font-family:ArialMT, Arial"><tspan style="letter-spacing:-0.001999393024403049em">D</tspan><tspan x="7.3" y="0" style="letter-spacing:0.003046694132423694em">e</tspan><tspan x="12.97" y="0">c</tspan></text></g><g style="clip-path:url(#clip-path-6)"><text transform="translate(18.89 232.56) rotate(-90) scale(0.99 1)" style="font-size:11.351059913635254px;font-family:Arial-BoldMT, Arial;font-weight:700"><tspan style="letter-spacing:0.022021506183360188em">M</tspan><tspan x="9.71" y="0" style="letter-spacing:-0.0009574567905808779em">a</tspan><tspan x="16.01" y="0" style="letter-spacing:-0.0030464534245755208em">r</tspan><tspan x="20.39" y="0" style="letter-spacing:-0.0009574567905808779em">ke</tspan><tspan x="32.99" y="0" style="letter-spacing:0.003916868688739955em">t</tspan><tspan x="36.82" y="0"> </tspan><tspan x="39.97" y="0" style="letter-spacing:-0.004003910215156399em">P</tspan><tspan x="47.5" y="0" style="letter-spacing:-0.002959411898159077em">r</tspan><tspan x="51.88" y="0">i</tspan><tspan x="55.04" y="0" style="letter-spacing:-0.0010444983169973214em">ce</tspan><tspan x="67.64" y="0" style="letter-spacing:0.02297896297394107em"> </tspan><tspan x="71.05" y="0" style="letter-spacing:0.004003910215156399em">(</tspan><tspan x="74.88" y="0" style="letter-spacing:-0.00008704152641644344em">R</tspan><tspan x="83.08" y="0" style="letter-spacing:-0.0009574567905808779em">s</tspan><tspan x="89.38" y="0">./</tspan><tspan x="95.68" y="0" style="letter-spacing:0.022021506183360188em">M</tspan><tspan x="105.39" y="0" style="letter-spacing:0.014971142543628274em">T</tspan><tspan x="112.49" y="0">)</tspan></text></g><g style="clip-path:url(#clip-path-6)"><text transform="translate(446.65 342.56) scale(1.01 1)" style="font-size:11.219499588012695px;font-family:Arial-BoldMT, Arial;font-weight:700;letter-spacing:0.02202428979115375em">M<tspan x="9.59" y="0" style="letter-spacing:0.003011133369884301em">on</tspan><tspan x="23.37" y="0" style="letter-spacing:0.0039574895718479395em">t</tspan><tspan x="27.15" y="0" style="letter-spacing:0.003011133369884301em">h</tspan><tspan x="34.03" y="0" style="letter-spacing:-0.0009463562019636374em">s</tspan><tspan x="40.26" y="0" style="letter-spacing:0.00008603238199669433em"> </tspan></text></g><g style="clip-path:url(#clip-path)"><line x1="225.88" y1="15.03" x2="247.76" y2="15.03" style="fill:none;stroke:#ff25f3;stroke-linecap:round;stroke-linejoin:round;stroke-width:2.44736782704929px"/></g><g style="clip-path:url(#clip-path-6)"><text transform="translate(250.05 17.83) scale(1.01 1)" style="font-size:9.056699752807617px;font-family:Arial-BoldMT, Arial;font-weight:700"><tspan style="letter-spacing:-0.0009591973573614281em">G</tspan><tspan x="7.04" y="0" style="letter-spacing:-0.0050091417551096805em">U</tspan><tspan x="13.53" y="0" style="letter-spacing:-0.0029841695562355538em">J</tspan><tspan x="18.54" y="0" style="letter-spacing:0.0050091417551096805em"> </tspan><tspan x="21.1" y="0" style="letter-spacing:-0.0040499443977482525em">(</tspan><tspan x="24.08" y="0" style="letter-spacing:-0.0050091417551096805em">R</tspan><tspan x="30.58" y="0" style="letter-spacing:-0.0040499443977482525em">-</tspan><tspan x="33.56" y="0" style="letter-spacing:-0.0029841695562355538em">11</tspan><tspan x="43.58" y="0" style="letter-spacing:0.0050091417551096805em">,</tspan><tspan x="46.14" y="0" style="letter-spacing:-0.009059086152857932em"> </tspan><tspan x="48.57" y="0" style="letter-spacing:0.009059086152857932em">R</tspan><tspan x="55.19" y="0" style="letter-spacing:-0.0040499443977482525em">-</tspan><tspan x="58.17" y="0" style="letter-spacing:-0.0029841695562355538em">13</tspan><tspan x="68.19" y="0">)</tspan></text></g><g style="clip-path:url(#clip-path)"><line x1="447.15" y1="15.03" x2="469.03" y2="15.03" style="fill:none;stroke:#2935e8;stroke-linecap:round;stroke-linejoin:round;stroke-width:2.44736782704929px"/></g><g style="clip-path:url(#clip-path-6)"><text transform="translate(471.36 17.83) scale(1.01 1)" style="font-size:9.056699752807617px;font-family:Arial-BoldMT, Arial;font-weight:700"><tspan style="letter-spacing:0.0020249721988741263em">M</tspan><tspan x="7.56" y="0" style="letter-spacing:-0.010018283510219361em">P</tspan><tspan x="13.51" y="0" style="letter-spacing:0.0050091417551096805em"> </tspan><tspan x="16.07" y="0" style="letter-spacing:-0.0040499443977482525em">(</tspan><tspan x="19.05" y="0" style="letter-spacing:-0.0050091417551096805em">R</tspan><tspan x="25.55" y="0" style="letter-spacing:-0.0040499443977482525em">-</tspan><tspan x="28.53" y="0" style="letter-spacing:-0.0029841695562355538em">14</tspan><tspan x="38.55" y="0" style="letter-spacing:0.0050091417551096805em">,</tspan><tspan x="41.11" y="0" style="letter-spacing:-0.009059086152857932em"> </tspan><tspan x="43.54" y="0" style="letter-spacing:-0.004902564270958409em">R</tspan><tspan x="50.04" y="0" style="letter-spacing:0.009911706026068088em">-</tspan><tspan x="53.15" y="0" style="letter-spacing:-0.0029841695562355538em">15</tspan><tspan x="63.17" y="0">)</tspan></text></g><g style="clip-path:url(#clip-path)"><line x1="663.37" y1="15.03" x2="685.25" y2="15.03" style="fill:none;stroke:#00c1a3;stroke-linecap:round;stroke-linejoin:round;stroke-width:2.44736782704929px"/></g><g style="clip-path:url(#clip-path-6)"><text transform="translate(687.61 17.83) scale(1.01 1)" style="font-size:9.056699752807617px;font-family:Arial-BoldMT, Arial;font-weight:700;letter-spacing:-0.010018283510219361em">P<tspan x="5.95" y="0" style="letter-spacing:0.009059086152857932em">N</tspan><tspan x="12.57" y="0" style="letter-spacing:-0.0050091417551096805em">B</tspan><tspan x="19.07" y="0" style="letter-spacing:-0.009059086152857932em"> </tspan><tspan x="21.5" y="0" style="letter-spacing:-0.0040499443977482525em">(</tspan><tspan x="24.48" y="0" style="letter-spacing:0.009059086152857932em">R</tspan><tspan x="31.1" y="0" style="letter-spacing:-0.0040499443977482525em">-</tspan><tspan x="34.08" y="0" style="letter-spacing:-0.0029841695562355538em">3</tspan><tspan x="39.09" y="0" style="letter-spacing:-0.00010657748415126978em">)</tspan></text></g><polygon points="2.14 3 897.91 3 897.91 347.7 2.14 347.7 2.14 3 2.14 3" style="fill:none;stroke:#d9d9d9;stroke-linejoin:round;stroke-width:0.815789365729085px"/></svg>