<svg id="Layer_1" data-name="Layer 1" xmlns="http://www.w3.org/2000/svg" xmlns:xlink="http://www.w3.org/1999/xlink" viewBox="0 0 900 350"><defs><clipPath id="clip-path"><polygon points="2.86 2.86 898.04 2.86 898.04 345.66 2.86 345.66 2.86 2.86 2.86 2.86" style="fill:none;clip-rule:evenodd"/></clipPath><clipPath id="clip-path-2"><polygon points="2.86 2.86 92.8 2.86 92.8 57.71 2.86 57.71 2.86 2.86 2.86 2.86" style="fill:none;clip-rule:evenodd"/></clipPath><clipPath id="clip-path-4"><polygon points="2.86 2.86 898.04 2.86 898.04 57.71 2.86 57.71 2.86 2.86 2.86 2.86" style="fill:none;clip-rule:evenodd"/></clipPath><clipPath id="clip-path-6"><polygon points="2.86 316.52 897.19 316.52 897.19 344.8 2.86 344.8 2.86 316.52 2.86 316.52" style="fill:none;clip-rule:evenodd"/></clipPath><clipPath id="clip-path-7"><polygon points="401.19 95.41 648.76 95.41 648.76 131.41 401.19 131.41 401.19 95.41 401.19 95.41" style="fill:none;clip-rule:evenodd"/></clipPath><clipPath id="clip-path-8"><polygon points="599.93 242.82 847.5 242.82 847.5 278.81 599.93 278.81 599.93 242.82 599.93 242.82" style="fill:none;clip-rule:evenodd"/></clipPath><clipPath id="clip-path-9"><polygon points="401.19 279.67 648.76 279.67 648.76 315.67 401.19 315.67 401.19 279.67 401.19 279.67" style="fill:none;clip-rule:evenodd"/></clipPath><clipPath id="clip-path-10"><polygon points="599.93 132.26 847.5 132.26 847.5 168.26 599.93 168.26 599.93 132.26 599.93 132.26" style="fill:none;clip-rule:evenodd"/></clipPath><clipPath id="clip-path-11"><polygon points="252.14 169.12 499.71 169.12 499.71 205.11 252.14 205.11 252.14 169.12 252.14 169.12" style="fill:none;clip-rule:evenodd"/></clipPath><clipPath id="clip-path-12"><polygon points="401.19 205.97 648.76 205.97 648.76 241.96 401.19 241.96 401.19 205.97 401.19 205.97" style="fill:none;clip-rule:evenodd"/></clipPath><clipPath id="clip-path-13"><polygon points="2.86 58.56 92.8 58.56 92.8 168.26 2.86 168.26 2.86 58.56 2.86 58.56" style="fill:none;clip-rule:evenodd"/></clipPath><clipPath id="clip-path-14"><polygon points="2.86 169.12 92.8 169.12 92.8 278.81 2.86 278.81 2.86 169.12 2.86 169.12" style="fill:none;clip-rule:evenodd"/></clipPath><clipPath id="clip-path-15"><polygon points="93.66 58.56 201.6 58.56 201.6 168.26 93.66 168.26 93.66 58.56 93.66 58.56" style="fill:none;clip-rule:evenodd"/></clipPath><clipPath id="clip-path-16"><polygon points="93.66 169.12 201.6 169.12 201.6 278.81 93.66 278.81 93.66 169.12 93.66 169.12" style="fill:none;clip-rule:evenodd"/></clipPath><clipPath id="clip-path-17"><polygon points="252.14 58.56 499.71 58.56 499.71 94.56 252.14 94.56 252.14 58.56 252.14 58.56" style="fill:none;clip-rule:evenodd"/></clipPath><clipPath id="clip-path-18"><polygon points="2 2 898.04 2 898.04 345.66 2 345.66 2 2 2 2" style="fill:none;clip-rule:evenodd"/></clipPath></defs><title>seasonal-calendar</title><g style="clip-path:url(#clip-path)"><polyline points="2 2 2 58.56 898.04 58.56 898.04 2 2 2" style="fill:#d9d9d9;fill-rule:evenodd"/><polyline points="897.19 2 897.19 58.56 952.87 58.56 952.87 2 897.19 2" style="fill:#fff;fill-rule:evenodd"/><polyline points="2 57.71 2 95.41 202.45 95.41 202.45 57.71 2 57.71" style="fill:#f2f2f2;fill-rule:evenodd"/><polyline points="201.6 57.71 201.6 95.41 252.14 95.41 252.14 57.71 201.6 57.71" style="fill:#5e9fff;fill-rule:evenodd"/><polyline points="251.28 57.71 251.28 95.41 500.56 95.41 500.56 57.71 251.28 57.71" style="fill:#06f;fill-rule:evenodd"/><polyline points="499.71 57.71 499.71 95.41 550.25 95.41 550.25 57.71 499.71 57.71" style="fill:#0044ab;fill-rule:evenodd"/><polyline points="897.19 57.71 897.19 95.41 952.87 95.41 952.87 57.71 897.19 57.71" style="fill:#fff;fill-rule:evenodd"/><polyline points="2 94.56 2 132.26 202.45 132.26 202.45 94.56 2 94.56" style="fill:#f2f2f2;fill-rule:evenodd"/><polyline points="201.6 94.56 201.6 132.26 351.51 132.26 351.51 94.56 201.6 94.56" style="fill:#fff;fill-rule:evenodd"/><polyline points="350.65 94.56 350.65 132.26 401.19 132.26 401.19 94.56 350.65 94.56" style="fill:#5e9fff;fill-rule:evenodd"/><polyline points="400.34 94.56 400.34 132.26 649.62 132.26 649.62 94.56 400.34 94.56" style="fill:#06f;fill-rule:evenodd"/><polyline points="648.76 94.56 648.76 132.26 699.3 132.26 699.3 94.56 648.76 94.56" style="fill:#0044ab;fill-rule:evenodd"/><polyline points="897.19 94.56 897.19 132.26 952.87 132.26 952.87 94.56 897.19 94.56" style="fill:#fff;fill-rule:evenodd"/><polyline points="2 131.41 2 169.12 202.45 169.12 202.45 131.41 2 131.41" style="fill:#f2f2f2;fill-rule:evenodd"/><polyline points="201.6 131.41 201.6 169.12 550.25 169.12 550.25 131.41 201.6 131.41" style="fill:#fff;fill-rule:evenodd"/><polyline points="549.39 131.41 549.39 169.12 599.93 169.12 599.93 131.41 549.39 131.41" style="fill:#5e9fff;fill-rule:evenodd"/><polyline points="599.08 131.41 599.08 169.12 848.36 169.12 848.36 131.41 599.08 131.41" style="fill:#06f;fill-rule:evenodd"/><polyline points="847.5 131.41 847.5 169.12 898.04 169.12 898.04 131.41 847.5 131.41" style="fill:#0044ab;fill-rule:evenodd"/><polyline points="897.19 131.41 897.19 169.12 952.87 169.12 952.87 131.41 897.19 131.41" style="fill:#fff;fill-rule:evenodd"/><polyline points="2 168.26 2 205.97 202.45 205.97 202.45 168.26 2 168.26" style="fill:#f2f2f2;fill-rule:evenodd"/><polyline points="201.6 168.26 201.6 205.97 252.14 205.97 252.14 168.26 201.6 168.26" style="fill:#5e9fff;fill-rule:evenodd"/><polyline points="251.28 168.26 251.28 205.97 500.56 205.97 500.56 168.26 251.28 168.26" style="fill:#06f;fill-rule:evenodd"/><polyline points="499.71 168.26 499.71 205.97 550.25 205.97 550.25 168.26 499.71 168.26" style="fill:#0044ab;fill-rule:evenodd"/><polyline points="897.19 168.26 897.19 205.97 952.87 205.97 952.87 168.26 897.19 168.26" style="fill:#fff;fill-rule:evenodd"/><polyline points="2 205.11 2 242.82 202.45 242.82 202.45 205.11 2 205.11" style="fill:#f2f2f2;fill-rule:evenodd"/><polyline points="201.6 205.11 201.6 242.82 351.51 242.82 351.51 205.11 201.6 205.11" style="fill:#fff;fill-rule:evenodd"/><polyline points="350.65 205.11 350.65 242.82 401.19 242.82 401.19 205.11 350.65 205.11" style="fill:#5e9fff;fill-rule:evenodd"/><polyline points="400.34 205.11 400.34 242.82 649.62 242.82 649.62 205.11 400.34 205.11" style="fill:#06f;fill-rule:evenodd"/><polyline points="648.76 205.11 648.76 242.82 699.3 242.82 699.3 205.11 648.76 205.11" style="fill:#0044ab;fill-rule:evenodd"/><polyline points="897.19 205.11 897.19 242.82 952.87 242.82 952.87 205.11 897.19 205.11" style="fill:#fff;fill-rule:evenodd"/><polyline points="2 241.96 2 279.67 202.45 279.67 202.45 241.96 2 241.96" style="fill:#f2f2f2;fill-rule:evenodd"/><polyline points="549.39 241.96 549.39 279.67 599.93 279.67 599.93 241.96 549.39 241.96" style="fill:#5e9fff;fill-rule:evenodd"/><polyline points="599.08 241.96 599.08 279.67 848.36 279.67 848.36 241.96 599.08 241.96" style="fill:#06f;fill-rule:evenodd"/><polyline points="847.5 241.96 847.5 279.67 898.04 279.67 898.04 241.96 847.5 241.96" style="fill:#0044ab;fill-rule:evenodd"/><polyline points="897.19 241.96 897.19 279.67 952.87 279.67 952.87 241.96 897.19 241.96" style="fill:#fff;fill-rule:evenodd"/><polyline points="2 278.81 2 316.52 202.45 316.52 202.45 278.81 2 278.81" style="fill:#f2f2f2;fill-rule:evenodd"/><polyline points="201.6 278.81 201.6 316.52 351.51 316.52 351.51 278.81 201.6 278.81" style="fill:#fff;fill-rule:evenodd"/><polyline points="350.65 278.81 350.65 316.52 401.19 316.52 401.19 278.81 350.65 278.81" style="fill:#5e9fff;fill-rule:evenodd"/><polyline points="400.34 278.81 400.34 316.52 649.62 316.52 649.62 278.81 400.34 278.81" style="fill:#06f;fill-rule:evenodd"/><polyline points="648.76 278.81 648.76 316.52 699.3 316.52 699.3 278.81 648.76 278.81" style="fill:#0044ab;fill-rule:evenodd"/><polyline points="897.19 278.81 897.19 316.52 952.87 316.52 952.87 278.81 897.19 278.81" style="fill:#fff;fill-rule:evenodd"/><polyline points="2 315.67 2 367.94 952.87 367.94 952.87 315.67 2 315.67" style="fill:#fff;fill-rule:evenodd"/></g><g style="clip-path:url(#clip-path-2)"><text transform="translate(11.42 26.85)" style="font-size:11.14111042022705px;font-family:Arial-BoldMT, Arial;font-weight:700"><tspan style="letter-spacing:-0.02893825146419716em">A</tspan><tspan x="7.72" y="0" style="letter-spacing:0.0039461251996632495em">g</tspan><tspan x="14.57" y="0" style="letter-spacing:-0.004033816870766878em">r</tspan><tspan x="18.86" y="0" style="letter-spacing:0.004033816870766878em">o</tspan><tspan x="25.71" y="0" style="letter-spacing:-0.024992126264533916em">-</tspan><tspan x="29.15" y="0" style="letter-spacing:-0.017012184194103785em">c</tspan><tspan x="35.15" y="0" style="letter-spacing:0.029025943135300793em">li</tspan><tspan x="41.99" y="0" style="letter-spacing:0.032972068334964036em">m</tspan><tspan x="52.26" y="0" style="letter-spacing:0.05901649465274148em">a</tspan><tspan x="59.12" y="0" style="letter-spacing:-0.024992126264533916em">t</tspan><tspan x="62.55" y="0" style="letter-spacing:0.029025943135300793em">i</tspan><tspan x="65.97" y="0" style="letter-spacing:-0.01692449252300016em">c</tspan><tspan x="71.97" y="0"> </tspan></text><text transform="translate(34.55 41.42)" style="font-size:11.14111042022705px;font-family:Arial-BoldMT, Arial;font-weight:700"><tspan style="letter-spacing:0.03797049358787083em">z</tspan><tspan x="5.99" y="0" style="letter-spacing:0.004033816870766878em">on</tspan><tspan x="19.69" y="0">e</tspan></text></g><g style="clip-path:url(#clip-path)"><text transform="translate(128.78 34.56)" style="font-size:11.14111042022705px;font-family:Arial-BoldMT, Arial;font-weight:700"><tspan style="letter-spacing:-0.02893825146419716em">R</tspan><tspan x="7.72" y="0" style="letter-spacing:0.05901649465274148em">e</tspan><tspan x="14.58" y="0" style="letter-spacing:0.0039461251996632495em">g</tspan><tspan x="21.43" y="0" style="letter-spacing:0.029025943135300793em">i</tspan><tspan x="24.84" y="0" style="letter-spacing:0.0039461251996632495em">o</tspan><tspan x="31.69" y="0">n</tspan></text><text transform="translate(217.02 34.56)" style="font-size:11.14111042022705px;font-family:Arial-BoldMT, Arial;font-weight:700;letter-spacing:-0.017012184194103785em">J<tspan x="6.01" y="0" style="letter-spacing:0.004033816870766878em">u</tspan><tspan x="12.86" y="0" style="letter-spacing:-0.00008769167110362776em">n</tspan></text><text transform="translate(268.41 34.56)" style="font-size:11.14111042022705px;font-family:Arial-BoldMT, Arial;font-weight:700"><tspan style="letter-spacing:-0.017012184194103785em">J</tspan><tspan x="6.01" y="0" style="letter-spacing:0.004033816870766878em">u</tspan><tspan x="12.86" y="0">l</tspan></text></g><g style="clip-path:url(#clip-path-4)"><text transform="translate(315.53 34.56)" style="font-size:11.14111042022705px;font-family:Arial-BoldMT, Arial;font-weight:700"><tspan style="letter-spacing:-0.02893825146419716em">A</tspan><tspan x="7.72" y="0" style="letter-spacing:0.0039461251996632495em">u</tspan><tspan x="14.57" y="0">g</tspan></text><text transform="translate(365.22 34.56)" style="font-size:11.14111042022705px;font-family:Arial-BoldMT, Arial;font-weight:700"><tspan style="letter-spacing:0.024992126264533916em">S</tspan><tspan x="7.71" y="0" style="letter-spacing:0.05901649465274148em">e</tspan><tspan x="14.56" y="0">p</tspan></text><text transform="translate(416.62 34.56)" style="font-size:11.14111042022705px;font-family:Arial-BoldMT, Arial;font-weight:700;letter-spacing:-0.007979942070430127em">O<tspan x="8.58" y="0" style="letter-spacing:-0.017012184194103785em">c</tspan><tspan x="14.58" y="0" style="letter-spacing:0.00008769167110362776em">t</tspan></text><text transform="translate(465.44 34.56)" style="font-size:11.14111042022705px;font-family:Arial-BoldMT, Arial;font-weight:700"><tspan style="letter-spacing:-0.02893825146419716em">N</tspan><tspan x="7.72" y="0" style="letter-spacing:0.0039461251996632495em">o</tspan><tspan x="14.57" y="0">v</tspan></text><text transform="translate(515.13 34.56)" style="font-size:11.14111042022705px;font-family:Arial-BoldMT, Arial;font-weight:700"><tspan style="letter-spacing:-0.02893825146419716em">D</tspan><tspan x="7.72" y="0" style="letter-spacing:0.05901649465274148em">e</tspan><tspan x="14.58" y="0">c</tspan></text><text transform="translate(564.82 34.56)" style="font-size:11.14111042022705px;font-family:Arial-BoldMT, Arial;font-weight:700"><tspan style="letter-spacing:-0.017012184194103785em">J</tspan><tspan x="6.01" y="0" style="letter-spacing:0.05901649465274148em">a</tspan><tspan x="12.86" y="0">n</tspan></text><text transform="translate(614.5 34.56)" style="font-size:11.14111042022705px;font-family:Arial-BoldMT, Arial;font-weight:700"><tspan style="letter-spacing:0.0039461251996632495em">F</tspan><tspan x="6.85" y="0" style="letter-spacing:0.05901649465274148em">e</tspan><tspan x="13.7" y="0">b</tspan></text><text transform="translate(663.33 34.56)" style="font-size:11.14111042022705px;font-family:Arial-BoldMT, Arial;font-weight:700"><tspan style="letter-spacing:0.013066058994440539em">M</tspan><tspan x="9.43" y="0" style="letter-spacing:0.05892880298163785em">a</tspan><tspan x="16.28" y="0">r</tspan></text><text transform="translate(714.73 34.56)" style="font-size:11.14111042022705px;font-family:Arial-BoldMT, Arial;font-weight:700"><tspan style="letter-spacing:-0.02893825146419716em">A</tspan><tspan x="7.72" y="0" style="letter-spacing:0.0039461251996632495em">p</tspan><tspan x="14.57" y="0">r</tspan></text><text transform="translate(762.7 34.56)" style="font-size:11.14111042022705px;font-family:Arial-BoldMT, Arial;font-weight:700;letter-spacing:0.013066058994440539em">M<tspan x="9.43" y="0" style="letter-spacing:0.05892880298163785em">a</tspan><tspan x="16.28" y="0" style="letter-spacing:0.00008769167110362776em">y</tspan></text><text transform="translate(813.24 34.56)" style="font-size:11.14111042022705px;font-family:Arial-BoldMT, Arial;font-weight:700;letter-spacing:-0.017012184194103785em">J<tspan x="6.01" y="0" style="letter-spacing:0.004033816870766878em">u</tspan><tspan x="12.86" y="0" style="letter-spacing:-0.00008769167110362776em">n</tspan></text><text transform="translate(864.63 34.56)" style="font-size:11.14111042022705px;font-family:Arial-BoldMT, Arial;font-weight:700"><tspan style="letter-spacing:-0.017012184194103785em">J</tspan><tspan x="6.01" y="0" style="letter-spacing:0.004033816870766878em">u</tspan><tspan x="12.86" y="0">l</tspan></text></g><g style="clip-path:url(#clip-path)"><text transform="translate(36.27 301.96)" style="font-size:11.14111042022705px;font-family:Arial-BoldMT, Arial;font-weight:700"><tspan style="letter-spacing:0.0039461251996632495em">T</tspan><tspan x="6.85" y="0" style="letter-spacing:-0.007979942070430127em">G</tspan><tspan x="15.43" y="0">P</tspan></text><text transform="translate(103.09 301.96)" style="font-size:11.14111042022705px;font-family:Arial-BoldMT, Arial;font-weight:700"><tspan style="letter-spacing:-0.02893825146419716em">R</tspan><tspan x="7.72" y="0" style="letter-spacing:-0.024992126264533916em">-</tspan><tspan x="11.15" y="0">3</tspan></text></g><g style="clip-path:url(#clip-path-6)"><text transform="translate(4.57 326.8)" style="font-size:9.42708969116211px;font-family:Arial-BoldMT, Arial;font-weight:700"><tspan style="letter-spacing:-0.08498123499608266em">N</tspan><tspan x="6.01" y="0" style="letter-spacing:0.024976192236653563em">o</tspan><tspan x="12" y="0" style="letter-spacing:0.030054339205931677em">t</tspan><tspan x="15.42" y="0" style="letter-spacing:0.08011035933167304em">e</tspan><tspan x="21.42" y="0">:</tspan></text><text transform="translate(28.56 326.8)" style="font-size:9.42708969116211px;font-family:ArialMT, Arial"> </text><text transform="translate(31.12 326.8)" style="font-size:9.42708969116211px;font-family:Arial-BoldMT, Arial;font-weight:700;letter-spacing:-0.049952384473307125em">G<tspan x="6.86" y="0" style="letter-spacing:-0.030054339205931677em">P</tspan><tspan x="12.87" y="0" style="letter-spacing:-0.08487759934364843em">H</tspan><tspan x="18.87" y="0" style="letter-spacing:-0.00010363565243424715em"> </tspan></text><text transform="translate(52.54 326.8)" style="font-size:9.42708969116211px;font-family:ArialMT, Arial"><tspan style="letter-spacing:-0.049952384473307125em">G</tspan><tspan x="6.86" y="0" style="letter-spacing:-0.009949022633687726em">u</tspan><tspan x="12.01" y="0" style="letter-spacing:-0.0400033618396194em">j</tspan><tspan x="13.73" y="0" style="letter-spacing:-0.009949022633687726em">a</tspan><tspan x="18.88" y="0" style="letter-spacing:0.029950703553497427em">r</tspan><tspan x="22.3" y="0" style="letter-spacing:-0.009949022633687726em">a</tspan><tspan x="27.45" y="0" style="letter-spacing:-0.004974511316843863em">t </tspan><tspan x="32.59" y="0" style="letter-spacing:-0.12094280639076642em">P</tspan><tspan x="37.74" y="0" style="letter-spacing:-0.0400033618396194em">l</tspan><tspan x="39.46" y="0" style="letter-spacing:-0.010052658286121974em">a</tspan><tspan x="44.6" y="0" style="letter-spacing:-0.0400033618396194em">i</tspan><tspan x="46.32" y="0" style="letter-spacing:-0.009949022633687726em">n</tspan><tspan x="51.47" y="0" style="letter-spacing:0.04497787315646326em">s</tspan><tspan x="56.61" y="0" style="letter-spacing:-0.004974511316843863em"> </tspan><tspan x="59.18" y="0" style="letter-spacing:-0.010052658286121974em">and</tspan><tspan x="74.62" y="0" style="letter-spacing:-0.004974511316843863em"> </tspan><tspan x="77.2" y="0" style="letter-spacing:-0.08498123499608266em">H</tspan><tspan x="83.2" y="0" style="letter-spacing:-0.0400033618396194em">ill</tspan><tspan x="88.36" y="0">s</tspan></text><text transform="translate(145.91 326.8)" style="font-size:9.42708969116211px;font-family:Arial-BoldMT, Arial;font-weight:700"><tspan style="letter-spacing:-0.004974511316843863em">, </tspan><tspan x="5.14" y="0" style="letter-spacing:0.0050781469692781096em">C</tspan><tspan x="12" y="0" style="letter-spacing:-0.030054339205931677em">P</tspan><tspan x="18" y="0" style="letter-spacing:-0.08498123499608266em">H</tspan><tspan x="24.01" y="0"> </tspan></text><text transform="translate(172.47 326.8)" style="font-size:9.42708969116211px;font-family:ArialMT, Arial;letter-spacing:-0.08498123499608266em">C<tspan x="6.01" y="0" style="letter-spacing:-0.009949022633687726em">en</tspan><tspan x="16.3" y="0" style="letter-spacing:-0.004974511316843863em">t</tspan><tspan x="18.88" y="0" style="letter-spacing:-0.010052658286121974em">a</tspan><tspan x="24.02" y="0" style="letter-spacing:-0.0400033618396194em">l</tspan><tspan x="25.74" y="0" style="letter-spacing:-0.004974511316843863em"> </tspan><tspan x="28.31" y="0" style="letter-spacing:-0.12104644204320066em">P</tspan><tspan x="33.46" y="0" style="letter-spacing:-0.0400033618396194em">l</tspan><tspan x="35.18" y="0" style="letter-spacing:-0.009949022633687726em">a</tspan><tspan x="40.33" y="0" style="letter-spacing:-0.004974511316843863em">t</tspan><tspan x="42.9" y="0" style="letter-spacing:-0.010052658286121974em">eau</tspan><tspan x="58.34" y="0" style="letter-spacing:-0.004974511316843863em"> </tspan><tspan x="60.92" y="0" style="letter-spacing:-0.009949022633687726em">and</tspan><tspan x="76.36" y="0" style="letter-spacing:-0.0050781469692781096em"> </tspan><tspan x="78.93" y="0">H</tspan><tspan x="84.94" y="0" style="letter-spacing:-0.0400033618396194em">ill</tspan><tspan x="90.09" y="0" style="letter-spacing:-0.00010363565243424715em">s</tspan></text><text transform="translate(267.55 326.8)" style="font-size:9.42708969116211px;font-family:Arial-BoldMT, Arial;font-weight:700"><tspan style="letter-spacing:-0.004974511316843863em">, </tspan><tspan x="5.14" y="0" style="letter-spacing:0.025079827889087806em">T</tspan><tspan x="11.14" y="0" style="letter-spacing:-0.05005602012574137em">G</tspan><tspan x="18" y="0" style="letter-spacing:-0.029950703553497427em">P</tspan><tspan x="24" y="0"> </tspan></text><text transform="translate(294.12 326.8)" style="font-size:9.42708969116211px;font-family:ArialMT, Arial"><tspan style="letter-spacing:-0.06497955407627294em">T</tspan><tspan x="5.15" y="0" style="letter-spacing:0.030054339205931677em">r</tspan><tspan x="8.57" y="0" style="letter-spacing:-0.009949022633687726em">an</tspan><tspan x="18.86" y="0" style="letter-spacing:0.04497787315646326em">s</tspan><tspan x="24" y="0" style="letter-spacing:-0.004974511316843863em"> </tspan><tspan x="26.57" y="0" style="letter-spacing:-0.049952384473307125em">G</tspan><tspan x="33.44" y="0" style="letter-spacing:-0.009949022633687726em">ange</tspan><tspan x="54.03" y="0" style="letter-spacing:-0.004974511316843863em">t</tspan><tspan x="56.6" y="0" style="letter-spacing:-0.0400033618396194em">i</tspan><tspan x="58.32" y="0" style="letter-spacing:0.04497787315646326em">c</tspan><tspan x="63.46" y="0" style="letter-spacing:-0.0050781469692781096em"> </tspan><tspan x="66.03" y="0" style="letter-spacing:-0.12094280639076642em">P</tspan><tspan x="71.18" y="0" style="letter-spacing:-0.04010699749205365em">l</tspan><tspan x="72.89" y="0" style="letter-spacing:-0.009949022633687726em">a</tspan><tspan x="78.04" y="0" style="letter-spacing:-0.0400033618396194em">i</tspan><tspan x="79.76" y="0" style="letter-spacing:-0.009949022633687726em">n</tspan><tspan x="84.91" y="0">s</tspan></text><text transform="translate(4.57 339.65)" style="font-size:9.42708969116211px;font-family:ArialMT, Arial"><tspan xml:space="preserve" style="letter-spacing:-0.004974511316843863em">         </tspan><tspan x="23.15" y="0"> </tspan></text><text transform="translate(30.27 339.65)" style="font-size:9.42708969116211px;font-family:Arial-BoldMT, Arial;font-weight:700;letter-spacing:-0.08498123499608266em">K<tspan x="6.01" y="0" style="letter-spacing:0.024976192236653563em">h</tspan><tspan x="12" y="0" style="letter-spacing:-0.009949022633687726em">a</tspan><tspan x="17.15" y="0" style="letter-spacing:0.06508318972870722em">r</tspan><tspan x="21.43" y="0" style="letter-spacing:-0.0050781469692781096em">i</tspan><tspan x="24" y="0" style="letter-spacing:0.00010363565243424715em">f</tspan></text><text transform="translate(57.68 339.65)" style="font-size:9.42708969116211px;font-family:ArialMT, Arial"><tspan style="letter-spacing:-0.004974511316843863em"> </tspan><tspan x="2.57" y="0" style="letter-spacing:-0.10508655156832661em">M</tspan><tspan x="9.43" y="0" style="letter-spacing:0.030054339205931677em">r</tspan><tspan x="12.86" y="0" style="letter-spacing:-0.0400033618396194em">i</tspan><tspan x="14.57" y="0" style="letter-spacing:-0.009949022633687726em">g</tspan><tspan x="19.72" y="0" style="letter-spacing:-0.0050781469692781096em"> </tspan><tspan x="22.29" y="0" style="letter-spacing:-0.029950703553497427em">B</tspan><tspan x="28.3" y="0" style="letter-spacing:-0.009949022633687726em">aha</tspan><tspan x="43.75" y="0" style="letter-spacing:0.030054339205931677em">r</tspan><tspan x="47.17" y="0" style="letter-spacing:-0.004974511316843863em">,</tspan><tspan x="49.74" y="0"> </tspan></text><text transform="translate(109.94 339.65)" style="font-size:9.42708969116211px;font-family:Arial-BoldMT, Arial;font-weight:700"><tspan style="letter-spacing:-0.08498123499608266em">R</tspan><tspan x="6.01" y="0" style="letter-spacing:-0.009949022633687726em">a</tspan><tspan x="11.16" y="0" style="letter-spacing:0.024976192236653563em">b</tspan><tspan x="17.15" y="0">i</tspan></text><text transform="translate(129.64 339.65)" style="font-size:9.42708969116211px;font-family:ArialMT, Arial"><tspan style="letter-spacing:-0.004974511316843863em"> </tspan><tspan x="2.57" y="0" style="letter-spacing:-0.08498123499608266em">H</tspan><tspan x="8.58" y="0" style="letter-spacing:-0.009949022633687726em">a</tspan><tspan x="13.73" y="0" style="letter-spacing:0.04487423750402902em">s</tspan><tspan x="18.86" y="0" style="letter-spacing:-0.004974511316843863em">t</tspan><tspan x="21.44" y="0" style="letter-spacing:-0.009949022633687726em">a</tspan><tspan x="26.59" y="0" style="letter-spacing:-0.004974511316843863em"> </tspan><tspan x="29.16" y="0" style="letter-spacing:-0.030054339205931677em">B</tspan><tspan x="35.16" y="0" style="letter-spacing:-0.009949022633687726em">aha</tspan><tspan x="50.61" y="0" style="letter-spacing:0.029950703553497427em">r</tspan><tspan x="54.03" y="0" style="letter-spacing:-0.004974511316843863em">,</tspan><tspan x="56.6" y="0"> </tspan></text><text transform="translate(188.75 339.65)" style="font-size:9.42708969116211px;font-family:Arial-BoldMT, Arial;font-weight:700"><tspan style="letter-spacing:-0.030054339205931677em">S</tspan><tspan x="6" y="0" style="letter-spacing:0.025079827889087806em">u</tspan><tspan x="12" y="0" style="letter-spacing:0.10995742723273622em">mm</tspan><tspan x="30.84" y="0" style="letter-spacing:0.0800067236792388em">e</tspan><tspan x="36.83" y="0">r</tspan></text><text transform="translate(229.86 339.65)" style="font-size:9.42708969116211px;font-family:ArialMT, Arial"><tspan style="letter-spacing:-0.004974511316843863em"> </tspan><tspan x="2.57" y="0" style="letter-spacing:0.059901407106994854em">A</tspan><tspan x="9.42" y="0" style="letter-spacing:-0.10498291591589236em">m</tspan><tspan x="16.29" y="0" style="letter-spacing:-0.009949022633687726em">b</tspan><tspan x="21.44" y="0" style="letter-spacing:-0.0400033618396194em">i</tspan><tspan x="23.15" y="0" style="letter-spacing:-0.009949022633687726em">a</tspan><tspan x="28.3" y="0" style="letter-spacing:-0.0050781469692781096em"> </tspan><tspan x="30.87" y="0" style="letter-spacing:-0.029950703553497427em">B</tspan><tspan x="36.88" y="0" style="letter-spacing:-0.009949022633687726em">aha</tspan><tspan x="52.33" y="0">r</tspan></text></g><g style="clip-path:url(#clip-path-7)"><text transform="translate(512.56 116.84)" style="font-size:11.14111042022705px;fill:#fff;font-family:Arial-BoldMT, Arial;font-weight:700"><tspan style="letter-spacing:-0.02893825146419716em">R</tspan><tspan x="7.72" y="0" style="letter-spacing:0.05901649465274148em">a</tspan><tspan x="14.58" y="0" style="letter-spacing:0.0039461251996632495em">b</tspan><tspan x="21.43" y="0">i</tspan></text></g><g style="clip-path:url(#clip-path-8)"><text transform="translate(701.01 264.24)" style="font-size:11.14111042022705px;fill:#fff;font-family:Arial-BoldMT, Arial;font-weight:700"><tspan style="letter-spacing:0.024992126264533916em">S</tspan><tspan x="7.71" y="0" style="letter-spacing:0.004033816870766878em">u</tspan><tspan x="14.56" y="0" style="letter-spacing:0.03288437666386041em">mm</tspan><tspan x="35.11" y="0" style="letter-spacing:0.05901649465274148em">e</tspan><tspan x="41.96" y="0">r</tspan></text></g><g style="clip-path:url(#clip-path-9)"><text transform="translate(512.56 301.1)" style="font-size:11.14111042022705px;fill:#fff;font-family:Arial-BoldMT, Arial;font-weight:700"><tspan style="letter-spacing:-0.02893825146419716em">R</tspan><tspan x="7.72" y="0" style="letter-spacing:0.05901649465274148em">a</tspan><tspan x="14.58" y="0" style="letter-spacing:0.0039461251996632495em">b</tspan><tspan x="21.43" y="0">i</tspan></text></g><g style="clip-path:url(#clip-path-10)"><text transform="translate(701.01 153.69)" style="font-size:11.14111042022705px;fill:#fff;font-family:Arial-BoldMT, Arial;font-weight:700"><tspan style="letter-spacing:0.024992126264533916em">S</tspan><tspan x="7.71" y="0" style="letter-spacing:0.004033816870766878em">u</tspan><tspan x="14.56" y="0" style="letter-spacing:0.03288437666386041em">mm</tspan><tspan x="35.11" y="0" style="letter-spacing:0.05901649465274148em">e</tspan><tspan x="41.96" y="0">r</tspan></text></g><g style="clip-path:url(#clip-path-11)"><text transform="translate(360.07 190.54)" style="font-size:11.14111042022705px;fill:#fff;font-family:Arial-BoldMT, Arial;font-weight:700;letter-spacing:-0.02893825146419716em">K<tspan x="7.72" y="0" style="letter-spacing:0.0039461251996632495em">h</tspan><tspan x="14.57" y="0" style="letter-spacing:0.05901649465274148em">a</tspan><tspan x="21.43" y="0" style="letter-spacing:-0.004033816870766878em">r</tspan><tspan x="25.72" y="0" style="letter-spacing:0.029025943135300793em">i</tspan><tspan x="29.14" y="0" style="letter-spacing:0.00008769167110362776em">f</tspan></text></g><g style="clip-path:url(#clip-path-12)"><text transform="translate(512.56 227.39)" style="font-size:11.14111042022705px;fill:#fff;font-family:Arial-BoldMT, Arial;font-weight:700"><tspan style="letter-spacing:-0.02893825146419716em">R</tspan><tspan x="7.72" y="0" style="letter-spacing:0.05901649465274148em">a</tspan><tspan x="14.58" y="0" style="letter-spacing:0.0039461251996632495em">b</tspan><tspan x="21.43" y="0">i</tspan></text></g><g style="clip-path:url(#clip-path-13)"><text transform="translate(36.27 116.84)" style="font-size:11.14111042022705px;font-family:Arial-BoldMT, Arial;font-weight:700"><tspan style="letter-spacing:-0.007979942070430127em">G</tspan><tspan x="8.58" y="0" style="letter-spacing:0.024992126264533916em">P</tspan><tspan x="16.29" y="0">H</tspan></text></g><g style="clip-path:url(#clip-path-14)"><text transform="translate(36.27 227.39)" style="font-size:11.14111042022705px;font-family:Arial-BoldMT, Arial;font-weight:700"><tspan style="letter-spacing:-0.02893825146419716em">C</tspan><tspan x="7.72" y="0" style="letter-spacing:0.024992126264533916em">P</tspan><tspan x="15.43" y="0">H</tspan></text></g><g style="clip-path:url(#clip-path-15)"><text transform="translate(103.09 116.84)" style="font-size:11.14111042022705px;font-family:Arial-BoldMT, Arial;font-weight:700"><tspan style="letter-spacing:-0.02893825146419716em">R</tspan><tspan x="7.72" y="0" style="letter-spacing:-0.024992126264533916em">-</tspan><tspan x="11.15" y="0" style="letter-spacing:-0.017012184194103785em">11</tspan><tspan x="23.17" y="0" style="letter-spacing:0.02893825146419716em">, </tspan><tspan x="30" y="0" style="letter-spacing:-0.02893825146419716em">R</tspan><tspan x="37.73" y="0" style="letter-spacing:-0.024992126264533916em">-</tspan><tspan x="41.16" y="0" style="letter-spacing:-0.01692449252300016em">1</tspan><tspan x="47.17" y="0">3</tspan></text></g><g style="clip-path:url(#clip-path-16)"><text transform="translate(103.09 227.39)" style="font-size:11.14111042022705px;font-family:Arial-BoldMT, Arial;font-weight:700"><tspan style="letter-spacing:-0.02893825146419716em">R</tspan><tspan x="7.72" y="0" style="letter-spacing:-0.024992126264533916em">-</tspan><tspan x="11.15" y="0" style="letter-spacing:-0.017012184194103785em">14</tspan><tspan x="23.17" y="0" style="letter-spacing:0.02893825146419716em">, </tspan><tspan x="30" y="0" style="letter-spacing:-0.02893825146419716em">R</tspan><tspan x="37.73" y="0" style="letter-spacing:-0.024992126264533916em">-</tspan><tspan x="41.16" y="0" style="letter-spacing:-0.01692449252300016em">1</tspan><tspan x="47.17" y="0">5</tspan></text></g><g style="clip-path:url(#clip-path-17)"><text transform="translate(360.07 79.98)" style="font-size:11.14111042022705px;fill:#fff;font-family:Arial-BoldMT, Arial;font-weight:700;letter-spacing:-0.02893825146419716em">K<tspan x="7.72" y="0" style="letter-spacing:0.0039461251996632495em">h</tspan><tspan x="14.57" y="0" style="letter-spacing:0.05901649465274148em">a</tspan><tspan x="21.43" y="0" style="letter-spacing:-0.004033816870766878em">r</tspan><tspan x="25.72" y="0" style="letter-spacing:0.029025943135300793em">i</tspan><tspan x="29.14" y="0" style="letter-spacing:0.00008769167110362776em">f</tspan></text></g><g style="clip-path:url(#clip-path-18)"><polyline points="2.86 2 2.86 2.86 898.04 2.86 898.04 2 2.86 2" style="fill:#bfbfbf;fill-rule:evenodd"/><polyline points="251.28 2.86 251.28 58.56 252.14 58.56 252.14 2.86 251.28 2.86" style="fill:#bfbfbf;fill-rule:evenodd"/><polyline points="499.71 2.86 499.71 58.56 500.56 58.56 500.56 2.86 499.71 2.86" style="fill:#bfbfbf;fill-rule:evenodd"/><polyline points="2.86 57.71 2.86 58.56 898.04 58.56 898.04 57.71 2.86 57.71" style="fill:#bfbfbf;fill-rule:evenodd"/><polyline points="350.65 2.86 350.65 58.56 351.51 58.56 351.51 2.86 350.65 2.86" style="fill:#bfbfbf;fill-rule:evenodd"/><polyline points="400.34 2.86 400.34 58.56 401.19 58.56 401.19 2.86 400.34 2.86" style="fill:#bfbfbf;fill-rule:evenodd"/><polyline points="648.76 2.86 648.76 58.56 649.62 58.56 649.62 2.86 648.76 2.86" style="fill:#bfbfbf;fill-rule:evenodd"/><polyline points="202.45 94.56 202.45 95.41 699.3 95.41 699.3 94.56 202.45 94.56" style="fill:#bfbfbf;fill-rule:evenodd"/><polyline points="698.45 2.86 698.45 58.56 699.3 58.56 699.3 2.86 698.45 2.86" style="fill:#bfbfbf;fill-rule:evenodd"/><polyline points="699.3 94.56 699.3 95.41 897.19 95.41 897.19 94.56 699.3 94.56" style="fill:#d4d4d4;fill-rule:evenodd"/><polyline points="549.39 2.86 549.39 95.41 550.25 95.41 550.25 2.86 549.39 2.86" style="fill:#bfbfbf;fill-rule:evenodd"/><polyline points="599.08 2.86 599.08 58.56 599.93 58.56 599.93 2.86 599.08 2.86" style="fill:#bfbfbf;fill-rule:evenodd"/><polyline points="847.5 2.86 847.5 58.56 848.36 58.56 848.36 2.86 847.5 2.86" style="fill:#bfbfbf;fill-rule:evenodd"/><polyline points="202.45 131.41 202.45 132.26 898.04 132.26 898.04 131.41 202.45 131.41" style="fill:#bfbfbf;fill-rule:evenodd"/><polyline points="897.19 2.86 897.19 132.26 898.04 132.26 898.04 2.86 897.19 2.86" style="fill:#bfbfbf;fill-rule:evenodd"/><polyline points="2.86 168.26 2.86 169.12 898.04 169.12 898.04 168.26 2.86 168.26" style="fill:#bfbfbf;fill-rule:evenodd"/><polyline points="350.65 95.41 350.65 132.26 351.51 132.26 351.51 95.41 350.65 95.41" style="fill:#bfbfbf;fill-rule:evenodd"/><polyline points="202.45 205.11 202.45 205.97 699.3 205.97 699.3 205.11 202.45 205.11" style="fill:#bfbfbf;fill-rule:evenodd"/><polyline points="698.45 95.41 698.45 132.26 699.3 132.26 699.3 95.41 698.45 95.41" style="fill:#bfbfbf;fill-rule:evenodd"/><polyline points="699.3 205.11 699.3 205.97 897.19 205.97 897.19 205.11 699.3 205.11" style="fill:#d4d4d4;fill-rule:evenodd"/><polyline points="549.39 132.26 549.39 205.97 550.25 205.97 550.25 132.26 549.39 132.26" style="fill:#bfbfbf;fill-rule:evenodd"/><polyline points="202.45 241.96 202.45 242.82 898.04 242.82 898.04 241.96 202.45 241.96" style="fill:#bfbfbf;fill-rule:evenodd"/><polyline points="350.65 205.97 350.65 242.82 351.51 242.82 351.51 205.97 350.65 205.97" style="fill:#bfbfbf;fill-rule:evenodd"/><polyline points="698.45 205.97 698.45 242.82 699.3 242.82 699.3 205.97 698.45 205.97" style="fill:#bfbfbf;fill-rule:evenodd"/><polyline points="2.86 278.81 2.86 279.67 898.04 279.67 898.04 278.81 2.86 278.81" style="fill:#bfbfbf;fill-rule:evenodd"/><polyline points="2 2 2 316.52 2.86 316.52 2.86 2 2 2" style="fill:#bfbfbf;fill-rule:evenodd"/><polyline points="2.86 315.67 2.86 316.52 898.04 316.52 898.04 315.67 2.86 315.67" style="fill:#bfbfbf;fill-rule:evenodd"/><polyline points="897.19 169.12 897.19 316.52 898.04 316.52 898.04 169.12 897.19 169.12" style="fill:#bfbfbf;fill-rule:evenodd"/><polyline points="92.8 2.86 92.8 316.52 93.66 316.52 93.66 2.86 92.8 2.86" style="fill:#bfbfbf;fill-rule:evenodd"/><polyline points="201.6 2.86 201.6 316.52 202.45 316.52 202.45 2.86 201.6 2.86" style="fill:#bfbfbf;fill-rule:evenodd"/><polyline points="300.97 2.86 300.97 58.56 301.82 58.56 301.82 2.86 300.97 2.86" style="fill:#bfbfbf;fill-rule:evenodd"/><polyline points="350.65 279.67 350.65 316.52 351.51 316.52 351.51 279.67 350.65 279.67" style="fill:#bfbfbf;fill-rule:evenodd"/><polyline points="450.02 2.86 450.02 58.56 450.88 58.56 450.88 2.86 450.02 2.86" style="fill:#bfbfbf;fill-rule:evenodd"/><polyline points="549.39 242.82 549.39 279.67 550.25 279.67 550.25 242.82 549.39 242.82" style="fill:#bfbfbf;fill-rule:evenodd"/><polyline points="698.45 279.67 698.45 316.52 699.3 316.52 699.3 279.67 698.45 279.67" style="fill:#bfbfbf;fill-rule:evenodd"/><polyline points="748.13 2.86 748.13 58.56 748.99 58.56 748.99 2.86 748.13 2.86" style="fill:#bfbfbf;fill-rule:evenodd"/><polyline points="797.82 2.86 797.82 58.56 798.67 58.56 798.67 2.86 797.82 2.86" style="fill:#bfbfbf;fill-rule:evenodd"/></g></svg>