<svg id="Layer_1" data-name="Layer 1" xmlns="http://www.w3.org/2000/svg" xmlns:xlink="http://www.w3.org/1999/xlink" viewBox="0 0 900 350"><defs><clipPath id="clip-path"><polygon points="2 347.7 897.39 347.7 897.39 2 2 2 2 347.7 2 347.7" style="fill:none;clip-rule:evenodd"/></clipPath><clipPath id="clip-path-2"><polygon points="72.57 306.52 882.01 306.52 882.01 19.53 72.57 19.53 72.57 306.52 72.57 306.52" style="fill:none;clip-rule:evenodd"/></clipPath><clipPath id="clip-path-6"><rect x="2" y="2" width="895.39" height="345.7" style="fill:none"/></clipPath><clipPath id="clip-path-17"><rect x="223.72" y="80.54" width="186.3" height="18.34" style="fill:none"/></clipPath></defs><title>yar</title><polygon points="2 2 897.39 2 897.39 347.69 2 347.69 2 2 2 2" style="fill:#eaeaea;fill-rule:evenodd"/><polygon points="72.7 19.66 881.33 19.66 881.33 305.84 72.7 305.84 72.7 19.66 72.7 19.66" style="fill:#fff;fill-rule:evenodd"/><path d="M72.7,305.84H881.33M72.7,234.23H881.33M72.7,162.75H881.33M72.7,91.14H881.33M72.7,19.67H881.33" style="fill:none;stroke:#d9d9d9;stroke-linejoin:round;stroke-width:0.819512600853192px"/><g style="clip-path:url(#clip-path)"><path d="M72.7,19.67V305.84M234.43,19.67V305.84M396.15,19.67V305.84M557.88,19.67V305.84M719.6,19.67V305.84M881.33,19.67V305.84" style="fill:none;stroke:#d9d9d9;stroke-linejoin:round;stroke-width:0.819512600853192px"/></g><g style="clip-path:url(#clip-path-2)"><path d="M121.17,264.94h64.66v4.35H121.17v-4.35Zm161.72,0h64.66v14.27H282.89V264.94Zm161.73,0h64.66v2.72H444.62v-2.72Zm161.72,0H671v2.85H606.34v-2.85Zm161.73,0h64.66v3.81H768.07v-3.81Z" style="fill:#ff25f3"/></g><g style="clip-path:url(#clip-path-2)"><path d="M121.17,54.45h64.66V264.94H121.17V54.45Zm161.72,68h64.66V264.94H282.89V122.4Zm161.73,6h64.66V264.94H444.62V128.37Zm161.72-5.16H671V264.94H606.34V123.21ZM768.07,74.29h64.66V264.94H768.07V74.29Z" style="fill:#5e9fff"/></g><g style="clip-path:url(#clip-path-2)"><path d="M121.17,50.24h64.66v4.21H121.17V50.24ZM282.89,108h64.66V122.4H282.89V108Zm161.73,17.67h64.66v2.71H444.62v-2.71Zm161.72-5.3H671v2.85H606.34v-2.85ZM768.07,70.49h64.66v3.8H768.07v-3.8Z" style="fill:#0044ab"/></g><g style="clip-path:url(#clip-path)"><line x1="72.7" y1="264.94" x2="881.33" y2="264.94" style="fill:none;stroke:#d9d9d9;stroke-linejoin:round;stroke-width:0.819512600853192px"/></g><g style="clip-path:url(#clip-path-6)"><text transform="translate(145.68 289.11) scale(1.01 1)" style="font-size:10.191499710083008px;font-family:Arial-BoldMT, Arial;font-weight:700">-</text></g><g style="clip-path:url(#clip-path-6)"><text transform="translate(149.12 289.11) scale(1.01 1)" style="font-size:10.191499710083008px;font-family:Arial-BoldMT, Arial;font-weight:700"><tspan style="letter-spacing:0.0030349899021089406em">2</tspan><tspan x="5.7" y="0">%</tspan></text></g><g style="clip-path:url(#clip-path-6)"><text transform="translate(304.27 293.85) scale(1.01 1)" style="font-size:10.191499710083008px;font-family:Arial-BoldMT, Arial;font-weight:700">-</text></g><g style="clip-path:url(#clip-path-6)"><text transform="translate(307.7 293.85) scale(1.01 1)" style="font-size:10.191499710083008px;font-family:Arial-BoldMT, Arial;font-weight:700"><tspan style="letter-spacing:0.0030349899021089406em">10</tspan><tspan x="11.4" y="0">%</tspan></text></g><g style="clip-path:url(#clip-path-6)"><text transform="translate(471.61 289.24) scale(1.01 1)" style="font-size:10.191499710083008px;font-family:Arial-BoldMT, Arial;font-weight:700">-</text></g><g style="clip-path:url(#clip-path-6)"><text transform="translate(475.04 289.24) scale(1.01 1)" style="font-size:10.191499710083008px;font-family:Arial-BoldMT, Arial;font-weight:700"><tspan style="letter-spacing:0.0030349899021089406em">2</tspan><tspan x="5.7" y="0">%</tspan></text></g><g style="clip-path:url(#clip-path-6)"><text transform="translate(632.34 286.86) scale(1.01 1)" style="font-size:10.191499710083008px;font-family:Arial-BoldMT, Arial;font-weight:700">-</text></g><g style="clip-path:url(#clip-path-6)"><text transform="translate(635.77 286.86) scale(1.01 1)" style="font-size:10.191499710083008px;font-family:Arial-BoldMT, Arial;font-weight:700"><tspan style="letter-spacing:0.0030349899021089406em">2</tspan><tspan x="5.7" y="0">%</tspan></text></g><g style="clip-path:url(#clip-path-6)"><text transform="translate(792.56 285.79) scale(1.01 1)" style="font-size:10.191499710083008px;font-family:Arial-BoldMT, Arial;font-weight:700">-</text></g><g style="clip-path:url(#clip-path-6)"><text transform="translate(796 285.79) scale(1.01 1)" style="font-size:10.191499710083008px;font-family:Arial-BoldMT, Arial;font-weight:700"><tspan style="letter-spacing:0.0030349899021089406em">2</tspan><tspan x="5.7" y="0">%</tspan></text></g><g style="clip-path:url(#clip-path-6)"><text transform="translate(143.2 43.61) scale(1.01 1)" style="font-size:10.191499710083008px;font-family:Arial-BoldMT, Arial;font-weight:700"><tspan style="letter-spacing:0.0019917121232589916em">+</tspan><tspan x="5.97" y="0" style="letter-spacing:0.0030349899021089406em">2</tspan><tspan x="11.67" y="0">%</tspan></text></g><g style="clip-path:url(#clip-path-17)"><text transform="translate(303.66 93.38) scale(1.01 1)" style="font-size:10.191499710083008px;font-family:Arial-BoldMT, Arial;font-weight:700"><tspan style="letter-spacing:0.0019917121232589916em">+</tspan><tspan x="5.97" y="0" style="letter-spacing:0.0030349899021089406em">10</tspan><tspan x="17.37" y="0">%</tspan></text></g><g style="clip-path:url(#clip-path-6)"><text transform="translate(467.88 109.34) scale(1.01 1)" style="font-size:10.191499710083008px;font-family:Arial-BoldMT, Arial;font-weight:700"><tspan style="letter-spacing:0.0019917121232589916em">+</tspan><tspan x="5.97" y="0" style="letter-spacing:0.0030349899021089406em">2</tspan><tspan x="11.67" y="0">%</tspan></text></g><g style="clip-path:url(#clip-path-6)"><text transform="translate(624.63 104.87) scale(1.01 1)" style="font-size:10.191499710083008px;font-family:Arial-BoldMT, Arial;font-weight:700"><tspan style="letter-spacing:0.0019917121232589916em">+</tspan><tspan x="5.97" y="0" style="letter-spacing:0.0030349899021089406em">2</tspan><tspan x="11.67" y="0">%</tspan></text></g><g style="clip-path:url(#clip-path-6)"><text transform="translate(787.59 55.13) scale(1.01 1)" style="font-size:10.191499710083008px;font-family:Arial-BoldMT, Arial;font-weight:700"><tspan style="letter-spacing:0.0019917121232589916em">+</tspan><tspan x="5.97" y="0" style="letter-spacing:0.0030349899021089406em">2</tspan><tspan x="11.67" y="0">%</tspan></text></g><g style="clip-path:url(#clip-path-6)"><text transform="translate(40.34 309.02) scale(1.01 1)" style="font-size:10.191499710083008px;font-family:Arial-BoldMT, Arial;font-weight:700">-<tspan x="3.39" y="0" style="letter-spacing:0.0030349899021089406em">2</tspan><tspan x="9.09" y="0" style="letter-spacing:0.0019917121232589916em">.</tspan><tspan x="11.94" y="0" style="letter-spacing:-0.009010126271885917em">0</tspan><tspan x="17.52" y="0">0</tspan></text></g><g style="clip-path:url(#clip-path-6)"><text transform="translate(43.77 237.5) scale(1.01 1)" style="font-size:10.191499710083008px;font-family:Arial-BoldMT, Arial;font-weight:700"><tspan style="letter-spacing:0.0030349899021089406em">1</tspan><tspan x="5.7" y="0" style="letter-spacing:0.0019917121232589916em">.</tspan><tspan x="8.55" y="0" style="letter-spacing:-0.009010126271885917em">5</tspan><tspan x="14.13" y="0">0</tspan></text></g><g style="clip-path:url(#clip-path-6)"><text transform="translate(43.77 165.96) scale(1.01 1)" style="font-size:10.191499710083008px;font-family:Arial-BoldMT, Arial;font-weight:700"><tspan style="letter-spacing:0.0030349899021089406em">5</tspan><tspan x="5.7" y="0" style="letter-spacing:0.0019917121232589916em">.</tspan><tspan x="8.55" y="0" style="letter-spacing:-0.009010126271885917em">0</tspan><tspan x="14.13" y="0">0</tspan></text></g><g style="clip-path:url(#clip-path-6)"><text transform="translate(43.77 94.44) scale(1.01 1)" style="font-size:10.191499710083008px;font-family:Arial-BoldMT, Arial;font-weight:700"><tspan style="letter-spacing:0.0030349899021089406em">8</tspan><tspan x="5.7" y="0" style="letter-spacing:0.0019917121232589916em">.</tspan><tspan x="8.55" y="0" style="letter-spacing:-0.009010126271885917em">5</tspan><tspan x="14.13" y="0">0</tspan></text></g><g style="clip-path:url(#clip-path-6)"><text transform="translate(38.04 22.89) scale(1.01 1)" style="font-size:10.191499710083008px;font-family:Arial-BoldMT, Arial;font-weight:700"><tspan style="letter-spacing:0.0030349899021089406em">1</tspan><tspan x="5.7" y="0" style="letter-spacing:-0.009010126271885917em">2</tspan><tspan x="11.28" y="0" style="letter-spacing:0.0019917121232589916em">.</tspan><tspan x="14.13" y="0" style="letter-spacing:0.0029401464676680356em">0</tspan><tspan x="19.82" y="0">0</tspan></text></g><g style="clip-path:url(#clip-path-6)"><text transform="translate(145.23 321.17) scale(1.01 1)" style="font-size:10.191499710083008px;font-family:Arial-BoldMT, Arial;font-weight:700"><tspan style="letter-spacing:-0.0019917121232589916em">R</tspan><tspan x="7.34" y="0">-3</tspan></text></g><g style="clip-path:url(#clip-path-6)"><text transform="translate(304.08 321.17) scale(1.01 1)" style="font-size:10.191499710083008px;font-family:Arial-BoldMT, Arial;font-weight:700"><tspan style="letter-spacing:-0.0019917121232589916em">R</tspan><tspan x="7.34" y="0">-</tspan><tspan x="10.73" y="0" style="letter-spacing:0.0030349899021089406em">1</tspan><tspan x="16.43" y="0">1</tspan></text></g><g style="clip-path:url(#clip-path-6)"><text transform="translate(465.81 321.17) scale(1.01 1)" style="font-size:10.191499710083008px;font-family:Arial-BoldMT, Arial;font-weight:700"><tspan style="letter-spacing:-0.0019917121232589916em">R</tspan><tspan x="7.34" y="0">-</tspan><tspan x="10.73" y="0" style="letter-spacing:0.0030349899021089406em">1</tspan><tspan x="16.43" y="0">3</tspan></text></g><g style="clip-path:url(#clip-path-6)"><text transform="translate(627.53 321.17) scale(1.01 1)" style="font-size:10.191499710083008px;font-family:Arial-BoldMT, Arial;font-weight:700"><tspan style="letter-spacing:-0.0019917121232589916em">R</tspan><tspan x="7.34" y="0">-</tspan><tspan x="10.73" y="0" style="letter-spacing:0.0030349899021089406em">1</tspan><tspan x="16.43" y="0">4</tspan></text></g><g style="clip-path:url(#clip-path-6)"><text transform="translate(789.26 321.17) scale(1.01 1)" style="font-size:10.191499710083008px;font-family:Arial-BoldMT, Arial;font-weight:700"><tspan style="letter-spacing:-0.0019917121232589916em">R</tspan><tspan x="7.34" y="0">-</tspan><tspan x="10.73" y="0" style="letter-spacing:0.0030349899021089406em">1</tspan><tspan x="16.43" y="0">5</tspan></text></g><g style="clip-path:url(#clip-path-6)"><text transform="translate(17.97 224.74) rotate(-90) scale(0.99 1)" style="font-size:11.394889831542969px;font-family:Arial-BoldMT, Arial;font-weight:700"><tspan style="letter-spacing:0.005021978635779275em">Q</tspan><tspan x="8.92" y="0" style="letter-spacing:0.0029439185106292297em">u</tspan><tspan x="15.91" y="0" style="letter-spacing:-0.0009524442240271037em">a</tspan><tspan x="22.24" y="0" style="letter-spacing:0.0029439185106292297em">n</tspan><tspan x="29.24" y="0" style="letter-spacing:0.00406953441175217em">t</tspan><tspan x="33.08" y="0" style="letter-spacing:-0.00008658583854791852em">i</tspan><tspan x="36.24" y="0" style="letter-spacing:0.00406953441175217em">t</tspan><tspan x="40.08" y="0" style="letter-spacing:-0.013074461620735695em">y</tspan><tspan x="46.27" y="0" style="letter-spacing:0.010996401495585654em"> </tspan><tspan x="49.56" y="0" style="letter-spacing:0.00008658583854791852em">&amp; </tspan><tspan x="60.96" y="0" style="letter-spacing:0.007100038760929318em">Y</tspan><tspan x="68.64" y="0" style="letter-spacing:-0.0010390300625750225em">a</tspan><tspan x="74.96" y="0" style="letter-spacing:0.00008658583854791852em">R</tspan><tspan x="83.19" y="0" style="letter-spacing:0.010909815657037735em"> </tspan><tspan x="86.48" y="0" style="letter-spacing:0.00406953441175217em">(</tspan><tspan x="90.32" y="0" style="letter-spacing:0.021906217152623385em">M</tspan><tspan x="100.07" y="0" style="letter-spacing:0.014979350068789905em">T</tspan><tspan x="107.2" y="0">)</tspan></text></g><g style="clip-path:url(#clip-path-6)"><text transform="translate(429.09 339.1) scale(1.01 1)" style="font-size:11.278590202331543px;font-family:Arial-BoldMT, Arial;font-weight:700">R<tspan x="8.14" y="0" style="letter-spacing:-0.000942721119390196em">e</tspan><tspan x="14.41" y="0" style="letter-spacing:0.0030852691180042776em">g</tspan><tspan x="21.33" y="0">i</tspan><tspan x="24.46" y="0" style="letter-spacing:0.0029995671980597148em">on</tspan><tspan x="38.31" y="0">s</tspan></text></g><polygon points="2 2 897.39 2 897.39 347.7 2 347.7 2 2 2 2" style="fill:none;stroke:#d9d9d9;stroke-linejoin:round;stroke-width:0.819512668695914px"/></svg>