<svg id="Layer_1" data-name="Layer 1" xmlns="http://www.w3.org/2000/svg" xmlns:xlink="http://www.w3.org/1999/xlink" viewBox="0 0 900 350"><defs><clipPath id="clip-path"><polygon points="0 351.65 900 351.65 900 0 0 0 0 351.65 0 351.65" style="fill:none;clip-rule:evenodd"/></clipPath><clipPath id="clip-path-2"><polygon points="57.9 304.97 875.63 304.97 875.63 17.8 57.9 17.8 57.9 304.97 57.9 304.97" style="fill:none;clip-rule:evenodd"/></clipPath><clipPath id="clip-path-13"><rect width="900" height="351.65" style="fill:none"/></clipPath></defs><title>ground-truth-risk-report</title><polygon points="0.14 0.14 900 0.14 900 351.65 0.14 351.65 0.14 0.14 0.14 0.14" style="fill:#eaeaea;fill-rule:evenodd"/><polygon points="57.9 17.8 874.81 17.8 874.81 304.15 57.9 304.15 57.9 17.8 57.9 17.8" style="fill:#fff;fill-rule:evenodd"/><path d="M57.9,232.56H874.81M57.9,161H874.81M57.9,89.38H874.81M57.9,17.79H874.81" style="fill:none;stroke:#d9d9d9;stroke-linejoin:round;stroke-width:0.821292750470288px"/><g style="clip-path:url(#clip-path)"><path d="M57.9,17.79V304.15M330.16,17.79V304.15M602.56,17.79V304.15M874.81,17.79V304.15" style="fill:none;stroke:#d9d9d9;stroke-linejoin:round;stroke-width:0.821292750470288px"/></g><g style="clip-path:url(#clip-path-2)"><polygon points="141.67 75.15 246.39 75.15 246.39 304.15 141.67 304.15 141.67 75.15 141.67 75.15" style="fill:#5e9fff;fill-rule:evenodd"/><polygon points="141.67 75.15 246.39 75.15 246.39 304.15 141.67 304.15 141.67 75.15 141.67 75.15" style="fill:none;stroke:#7f7f7f;stroke-linejoin:round;stroke-width:0.821292750470288px"/><polygon points="413.93 74.05 518.78 74.05 518.78 304.15 413.93 304.15 413.93 74.05 413.93 74.05" style="fill:#5e9fff;fill-rule:evenodd"/><polygon points="413.93 74.05 518.78 74.05 518.78 304.15 413.93 304.15 413.93 74.05 413.93 74.05" style="fill:none;stroke:#7f7f7f;stroke-linejoin:round;stroke-width:0.821292750470288px"/><polygon points="686.33 72.96 791.04 72.96 791.04 304.15 686.33 304.15 686.33 72.96 686.33 72.96" style="fill:#5e9fff;fill-rule:evenodd"/><polygon points="686.33 72.96 791.04 72.96 791.04 304.15 686.33 304.15 686.33 72.96 686.33 72.96" style="fill:none;stroke:#7f7f7f;stroke-linejoin:round;stroke-width:0.821292750470288px"/></g><g style="clip-path:url(#clip-path)"><line x1="57.9" y1="304.15" x2="874.81" y2="304.15" style="fill:none;stroke:#d9d9d9;stroke-linejoin:round;stroke-width:0.821292750470288px"/></g><g style="clip-path:url(#clip-path)"><path d="M57.9,304.15v3.15m272.26-3.15v3.15m272.4-3.15v3.15m272.25-3.15v3.15" style="fill:none;stroke:#d9d9d9;stroke-linejoin:round;stroke-width:0.821292750470288px"/></g><g style="clip-path:url(#clip-path-2)"><polyline points="194.1 49.41 466.36 49.41 738.62 49.41" style="fill:none;stroke:#06f;stroke-miterlimit:10;stroke-width:1.369px;stroke-dasharray:5,5"/></g><g style="clip-path:url(#clip-path)"><path d="M196.9,49.38A2.87,2.87,0,1,1,194,46.51a2.86,2.86,0,0,1,2.87,2.87Z" style="fill:#06f"/><path d="M196.9,49.38A2.87,2.87,0,1,1,194,46.51a2.86,2.86,0,0,1,2.87,2.87Z" style="fill:none;stroke:#2935e8;stroke-linejoin:round;stroke-width:0.821292818460378px"/><path d="M469.16,49.38a2.88,2.88,0,1,1-2.87-2.87,2.86,2.86,0,0,1,2.87,2.87Z" style="fill:#06f"/><path d="M469.16,49.38a2.88,2.88,0,1,1-2.87-2.87,2.86,2.86,0,0,1,2.87,2.87Z" style="fill:none;stroke:#2935e8;stroke-linejoin:round;stroke-width:0.821292818460378px"/><path d="M741.42,49.38a2.88,2.88,0,1,1-2.87-2.87,2.86,2.86,0,0,1,2.87,2.87Z" style="fill:#06f"/><path d="M741.42,49.38a2.88,2.88,0,1,1-2.87-2.87,2.86,2.86,0,0,1,2.87,2.87Z" style="fill:none;stroke:#2935e8;stroke-linejoin:round;stroke-width:0.821292818460378px"/></g><g style="clip-path:url(#clip-path-2)"><polyline points="194.1 115.8 466.36 115.8 738.62 115.8" style="fill:none;stroke:#ff25f3;stroke-miterlimit:10;stroke-width:1.369px;stroke-dasharray:5,5"/></g><g style="clip-path:url(#clip-path)"><path d="M196.9,115.77a2.87,2.87,0,1,1-2.87-2.88,2.86,2.86,0,0,1,2.87,2.88Z" style="fill:#ff25f3"/><path d="M196.9,115.77a2.87,2.87,0,1,1-2.87-2.88,2.86,2.86,0,0,1,2.87,2.88Z" style="fill:none;stroke:#d9d9d9;stroke-linejoin:round;stroke-width:0.821292818460378px"/><path d="M469.16,115.77a2.88,2.88,0,1,1-2.87-2.88,2.86,2.86,0,0,1,2.87,2.88Z" style="fill:#ff25f3"/><path d="M469.16,115.77a2.88,2.88,0,1,1-2.87-2.88,2.86,2.86,0,0,1,2.87,2.88Z" style="fill:none;stroke:#d9d9d9;stroke-linejoin:round;stroke-width:0.821292818460378px"/><path d="M741.42,115.77a2.88,2.88,0,1,1-2.87-2.88,2.86,2.86,0,0,1,2.87,2.88Z" style="fill:#ff25f3"/><path d="M741.42,115.77a2.88,2.88,0,1,1-2.87-2.88,2.86,2.86,0,0,1,2.87,2.88Z" style="fill:none;stroke:#d9d9d9;stroke-linejoin:round;stroke-width:0.821292818460378px"/></g><g style="clip-path:url(#clip-path-2)"><polyline points="194.1 71.59 466.36 71.59 738.62 71.59" style="fill:none;stroke:#7f7f7f;stroke-linecap:round;stroke-linejoin:round;stroke-width:1.36882122812045px"/></g><g style="clip-path:url(#clip-path)"><path d="M196.9,71.56A2.87,2.87,0,1,1,194,68.68a2.87,2.87,0,0,1,2.87,2.88Z" style="fill:#7f7f7f"/><path d="M196.9,71.56A2.87,2.87,0,1,1,194,68.68a2.87,2.87,0,0,1,2.87,2.88Z" style="fill:none;stroke:#7f7f7f;stroke-linejoin:round;stroke-width:0.821292818460378px"/><path d="M469.16,71.56a2.88,2.88,0,1,1-2.87-2.88,2.87,2.87,0,0,1,2.87,2.88Z" style="fill:#7f7f7f"/><path d="M469.16,71.56a2.88,2.88,0,1,1-2.87-2.88,2.87,2.87,0,0,1,2.87,2.88Z" style="fill:none;stroke:#7f7f7f;stroke-linejoin:round;stroke-width:0.821292818460378px"/><path d="M741.42,71.56a2.88,2.88,0,1,1-2.87-2.88,2.87,2.87,0,0,1,2.87,2.88Z" style="fill:#7f7f7f"/><path d="M741.42,71.56a2.88,2.88,0,1,1-2.87-2.88,2.87,2.87,0,0,1,2.87,2.88Z" style="fill:none;stroke:#7f7f7f;stroke-linejoin:round;stroke-width:0.821292818460378px"/></g><g style="clip-path:url(#clip-path-2)"><polyline points="194.1 75.15 466.36 75.15 738.62 75.15" style="fill:none;stroke:#00c1a3;stroke-linecap:round;stroke-linejoin:round;stroke-width:1.36882122812045px"/></g><g style="clip-path:url(#clip-path)"><path d="M196.9,75.11A2.87,2.87,0,1,1,194,72.24a2.87,2.87,0,0,1,2.87,2.87Z" style="fill:#00c1a3"/><path d="M196.9,75.11A2.87,2.87,0,1,1,194,72.24a2.87,2.87,0,0,1,2.87,2.87Z" style="fill:none;stroke:#d9d9d9;stroke-linejoin:round;stroke-width:0.821292818460378px"/><path d="M469.16,75.11a2.88,2.88,0,1,1-2.87-2.87,2.87,2.87,0,0,1,2.87,2.87Z" style="fill:#00c1a3"/><path d="M469.16,75.11a2.88,2.88,0,1,1-2.87-2.87,2.87,2.87,0,0,1,2.87,2.87Z" style="fill:none;stroke:#d9d9d9;stroke-linejoin:round;stroke-width:0.821292818460378px"/><path d="M741.42,75.11a2.88,2.88,0,1,1-2.87-2.87,2.87,2.87,0,0,1,2.87,2.87Z" style="fill:#00c1a3"/><path d="M741.42,75.11a2.88,2.88,0,1,1-2.87-2.87,2.87,2.87,0,0,1,2.87,2.87Z" style="fill:none;stroke:#d9d9d9;stroke-linejoin:round;stroke-width:0.821292818460378px"/></g><g style="clip-path:url(#clip-path-13)"><text transform="translate(29.11 307.49)" style="font-size:10.266160011291504px;font-family:ArialMT, Arial;letter-spacing:0.0029488569695682683em">1<tspan x="5.74" y="0" style="letter-spacing:0.0019976127858365687em">.</tspan><tspan x="8.61" y="0" style="letter-spacing:-0.009036819745451143em">0</tspan><tspan x="14.23" y="0" style="letter-spacing:-0.00009512441837316994em">0</tspan></text></g><g style="clip-path:url(#clip-path-13)"><text transform="translate(29.11 235.89)" style="font-size:10.266160011291504px;font-family:ArialMT, Arial;letter-spacing:0.0029488569695682683em">3<tspan x="5.74" y="0" style="letter-spacing:0.0019976127858365687em">.</tspan><tspan x="8.61" y="0" style="letter-spacing:-0.009036819745451143em">0</tspan><tspan x="14.23" y="0" style="letter-spacing:-0.00009512441837316994em">0</tspan></text></g><g style="clip-path:url(#clip-path-13)"><text transform="translate(29.11 164.31)" style="font-size:10.266160011291504px;font-family:ArialMT, Arial;letter-spacing:0.0029488569695682683em">5<tspan x="5.74" y="0" style="letter-spacing:0.0019976127858365687em">.</tspan><tspan x="8.61" y="0" style="letter-spacing:-0.009036819745451143em">0</tspan><tspan x="14.23" y="0" style="letter-spacing:-0.00009512441837316994em">0</tspan></text></g><g style="clip-path:url(#clip-path-13)"><text transform="translate(29.11 92.72)" style="font-size:10.266160011291504px;font-family:ArialMT, Arial;letter-spacing:0.0029488569695682683em">7<tspan x="5.74" y="0" style="letter-spacing:0.0019976127858365687em">.</tspan><tspan x="8.61" y="0" style="letter-spacing:-0.009036819745451143em">0</tspan><tspan x="14.23" y="0" style="letter-spacing:-0.00009512441837316994em">0</tspan></text></g><g style="clip-path:url(#clip-path-13)"><text transform="translate(29.11 21.13)" style="font-size:10.266160011291504px;font-family:ArialMT, Arial;letter-spacing:0.0029488569695682683em">9<tspan x="5.74" y="0" style="letter-spacing:0.0019976127858365687em">.</tspan><tspan x="8.61" y="0" style="letter-spacing:-0.009036819745451143em">0</tspan><tspan x="14.23" y="0" style="letter-spacing:-0.00009512441837316994em">0</tspan></text></g><g style="clip-path:url(#clip-path-13)"><text transform="translate(181.81 319.71)" style="font-size:10.266160011291504px;font-family:ArialMT, Arial">Jan</text></g><g style="clip-path:url(#clip-path-13)"><text transform="translate(453.1 319.71)" style="font-size:10.266160011291504px;font-family:ArialMT, Arial">Feb</text></g><g style="clip-path:url(#clip-path-13)"><text transform="translate(729.39 319.71)" style="font-size:10.266160011291504px;font-family:ArialMT, Arial">Mar</text></g><g style="clip-path:url(#clip-path-13)"><text transform="translate(18.99 211.81) rotate(-90)" style="font-size:11.361220359802246px;font-family:Arial-BoldMT, Arial;font-weight:700"><tspan style="letter-spacing:0.004985434945034891em">Q</tspan><tspan x="8.89" y="0" style="letter-spacing:0.0030944078969182085em">u</tspan><tspan x="15.87" y="0" style="letter-spacing:-0.0010314692989727362em">a</tspan><tspan x="22.17" y="0" style="letter-spacing:0.0030944078969182085em">n</tspan><tspan x="29.15" y="0" style="letter-spacing:0.003953965646062155em">t</tspan><tspan x="32.98" y="0" style="letter-spacing:0.00008595577491439468em">i</tspan><tspan x="36.13" y="0" style="letter-spacing:0.003953965646062155em">t</tspan><tspan x="39.96" y="0" style="letter-spacing:-0.012979322012073597em">y</tspan><tspan x="46.13" y="0" style="letter-spacing:0.011088294963956911em"> </tspan><tspan x="49.42" y="0" style="letter-spacing:0.003953965646062155em">(</tspan><tspan x="53.24" y="0" style="letter-spacing:0.02200467837808504em">M</tspan><tspan x="62.96" y="0" style="letter-spacing:0.015042260610019068em">T</tspan><tspan x="70.07" y="0">)</tspan></text></g><g style="clip-path:url(#clip-path-13)"><text transform="translate(419.66 342.25)" style="font-size:11.361220359802246px;font-family:Arial-BoldMT, Arial;font-weight:700"><tspan style="letter-spacing:0.015042260610019068em">T</tspan><tspan x="7.11" y="0">i</tspan><tspan x="10.27" y="0" style="letter-spacing:0.0020629385979454725em">m</tspan><tspan x="20.39" y="0" style="letter-spacing:-0.0010314692989727362em">e</tspan><tspan x="26.7" y="0" style="letter-spacing:0.00008595577491439468em"> </tspan><tspan x="29.86" y="0" style="letter-spacing:-0.00403992142097655em">P</tspan><tspan x="37.39" y="0" style="letter-spacing:-0.0010314692989727362em">e</tspan><tspan x="43.69" y="0" style="letter-spacing:-0.002922496347089419em">r</tspan><tspan x="48.08" y="0">i</tspan><tspan x="51.24" y="0" style="letter-spacing:0.0030944078969182085em">o</tspan><tspan x="58.21" y="0">d</tspan></text></g><polygon points="0.14 0.14 900 0.14 900 351.65 0.14 351.65 0.14 0.14 0.14 0.14" style="fill:none;stroke:#d9d9d9;stroke-linejoin:round;stroke-width:0.821292818460378px"/></svg>