<svg id="Layer_1" data-name="Layer 1" xmlns="http://www.w3.org/2000/svg" xmlns:xlink="http://www.w3.org/1999/xlink" viewBox="0 0 900 350"><defs><clipPath id="clip-path"><polygon points="0 350.05 900 350.05 900 0 0 0 0 350.05 0 350.05" style="fill:none;clip-rule:evenodd"/></clipPath><clipPath id="clip-path-6"><polygon points="56.7 296.77 888.8 296.77 888.8 15.03 56.7 15.03 56.7 296.77 56.7 296.77" style="fill:none;clip-rule:evenodd"/></clipPath><clipPath id="clip-path-10"><rect width="900" height="350.05" style="fill:none"/></clipPath></defs><title>ndvi-risk-report</title><polygon points="0 0 900 0 900 350.19 0 350.19 0 0 0 0" style="fill:#eaeaea;fill-rule:evenodd"/><polygon points="56.7 15.03 888.11 15.03 888.11 295.95 56.7 295.95 56.7 15.03 56.7 15.03" style="fill:#fff;fill-rule:evenodd"/><path d="M56.7,225.72H888.11M56.7,155.49H888.11M56.7,85.26H888.11M56.7,15H888.11" style="fill:none;stroke:#d9d9d9;stroke-linejoin:round;stroke-width:0.819796546353428px"/><g style="clip-path:url(#clip-path)"><path d="M91.41,15V296M160.68,15V296M230,15V296M299.23,15V296M368.5,15V296M437.77,15V296M507,15V296M576.32,15V296M645.59,15V296M714.86,15V296M784.14,15V296M853.41,15V296" style="fill:none;stroke:#f2f2f2;stroke-linejoin:round;stroke-width:0.819796546353428px"/></g><g style="clip-path:url(#clip-path)"><path d="M56.7,15V296M126,15V296M195.25,15V296M264.52,15V296M333.79,15V296M403.07,15V296M472.34,15V296M541.61,15V296M611,15V296M680.29,15V296M749.57,15V296M818.84,15V296M888.11,15V296" style="fill:none;stroke:#d9d9d9;stroke-linejoin:round;stroke-width:0.819796546353428px"/></g><g style="clip-path:url(#clip-path)"><line x1="56.7" y1="295.95" x2="888.11" y2="295.95" style="fill:none;stroke:#d9d9d9;stroke-linejoin:round;stroke-width:1.36632755463364px"/></g><g style="clip-path:url(#clip-path)"><path d="M56.7,296v18.44M333.79,296v18.44M611,296v18.44M888.11,296v18.44" style="fill:none;stroke:#d9d9d9;stroke-linejoin:round;stroke-width:1.36632755463364px"/></g><g style="clip-path:url(#clip-path)"><path d="M56.7,314.39V333m277.09-18.58V333M611,314.39V333m277.09-18.58V333" style="fill:none;stroke:#d9d9d9;stroke-linejoin:round;stroke-width:1.36632755463364px"/></g><g style="clip-path:url(#clip-path-6)"><polyline points="91.41 169.56 160.68 133.08 229.95 99.33 299.23 82.53 368.5 71.19 437.77 65.58 507.04 76.79 576.32 99.33 645.59 127.48 714.86 141.41 784.13 155.49 853.41 172.29" style="fill:none;stroke:#ff25f3;stroke-linecap:round;stroke-linejoin:round;stroke-width:2.45938957119406px"/></g><g style="clip-path:url(#clip-path)"><polygon points="88.54 166.73 94.28 166.73 94.28 172.47 88.54 172.47 88.54 166.73 88.54 166.73" style="fill:#ff25f3;fill-rule:evenodd"/><polygon points="157.81 130.25 163.55 130.25 163.55 135.98 157.81 135.98 157.81 130.25 157.81 130.25" style="fill:#ff25f3;fill-rule:evenodd"/><polygon points="227.08 96.5 232.82 96.5 232.82 102.24 227.08 102.24 227.08 96.5 227.08 96.5" style="fill:#ff25f3;fill-rule:evenodd"/><polygon points="296.36 79.69 302.1 79.69 302.1 85.43 296.36 85.43 296.36 79.69 296.36 79.69" style="fill:#ff25f3;fill-rule:evenodd"/><polygon points="365.63 68.35 371.37 68.35 371.37 74.09 365.63 74.09 365.63 68.35 365.63 68.35" style="fill:#ff25f3;fill-rule:evenodd"/><polygon points="434.9 62.75 440.64 62.75 440.64 68.49 434.9 68.49 434.9 62.75 434.9 62.75" style="fill:#ff25f3;fill-rule:evenodd"/><polygon points="504.18 73.95 509.91 73.95 509.91 79.69 504.18 79.69 504.18 73.95 504.18 73.95" style="fill:#ff25f3;fill-rule:evenodd"/><polygon points="573.45 96.5 579.19 96.5 579.19 102.24 573.45 102.24 573.45 96.5 573.45 96.5" style="fill:#ff25f3;fill-rule:evenodd"/><polygon points="642.72 124.64 648.46 124.64 648.46 130.38 642.72 130.38 642.72 124.64 642.72 124.64" style="fill:#ff25f3;fill-rule:evenodd"/><polygon points="711.99 138.58 717.73 138.58 717.73 144.32 711.99 144.32 711.99 138.58 711.99 138.58" style="fill:#ff25f3;fill-rule:evenodd"/><polygon points="781.27 152.65 787 152.65 787 158.39 781.27 158.39 781.27 152.65 781.27 152.65" style="fill:#ff25f3;fill-rule:evenodd"/><polygon points="850.54 169.46 856.28 169.46 856.28 175.2 850.54 175.2 850.54 169.46 850.54 169.46" style="fill:#ff25f3;fill-rule:evenodd"/></g><g style="clip-path:url(#clip-path-6)"><polyline points="91.41 183.63 160.68 149.89 229.95 116.14 299.23 99.33 368.5 88.13 437.77 76.79 507.04 88.13 576.32 99.33 645.59 133.08 714.86 149.89 784.13 163.96 853.41 183.63" style="fill:none;stroke:#06f;stroke-linecap:round;stroke-linejoin:round;stroke-width:2.45938957119406px"/></g><g style="clip-path:url(#clip-path)"><path d="M94.28,183.67a2.87,2.87,0,1,1-2.87-2.87,2.88,2.88,0,0,1,2.87,2.87Z" style="fill:#06f"/><path d="M94.28,183.67a2.87,2.87,0,1,1-2.87-2.87,2.88,2.88,0,0,1,2.87,2.87Z" style="fill:none;stroke:#6b77e8;stroke-linejoin:round;stroke-width:0.819796614219656px"/><path d="M163.55,149.92a2.87,2.87,0,1,1-2.87-2.87,2.88,2.88,0,0,1,2.87,2.87Z" style="fill:#06f"/><path d="M163.55,149.92a2.87,2.87,0,1,1-2.87-2.87,2.88,2.88,0,0,1,2.87,2.87Z" style="fill:none;stroke:#6b77e8;stroke-linejoin:round;stroke-width:0.819796614219656px"/><path d="M232.82,116.17A2.87,2.87,0,1,1,230,113.3a2.86,2.86,0,0,1,2.87,2.87Z" style="fill:#06f"/><path d="M232.82,116.17A2.87,2.87,0,1,1,230,113.3a2.86,2.86,0,0,1,2.87,2.87Z" style="fill:none;stroke:#6b77e8;stroke-linejoin:round;stroke-width:0.819796614219656px"/><path d="M302.1,99.37a2.87,2.87,0,1,1-2.87-2.87,2.88,2.88,0,0,1,2.87,2.87Z" style="fill:#06f"/><path d="M302.1,99.37a2.87,2.87,0,1,1-2.87-2.87,2.88,2.88,0,0,1,2.87,2.87Z" style="fill:none;stroke:#6b77e8;stroke-linejoin:round;stroke-width:0.819796614219656px"/><path d="M371.37,88.16a2.87,2.87,0,1,1-2.87-2.87,2.87,2.87,0,0,1,2.87,2.87Z" style="fill:#06f"/><path d="M371.37,88.16a2.87,2.87,0,1,1-2.87-2.87,2.87,2.87,0,0,1,2.87,2.87Z" style="fill:none;stroke:#6b77e8;stroke-linejoin:round;stroke-width:0.819796614219656px"/><path d="M440.64,76.82A2.87,2.87,0,1,1,437.77,74a2.86,2.86,0,0,1,2.87,2.87Z" style="fill:#06f"/><path d="M440.64,76.82A2.87,2.87,0,1,1,437.77,74a2.86,2.86,0,0,1,2.87,2.87Z" style="fill:none;stroke:#6b77e8;stroke-linejoin:round;stroke-width:0.819796614219656px"/><path d="M509.91,88.16A2.87,2.87,0,1,1,507,85.29a2.86,2.86,0,0,1,2.87,2.87Z" style="fill:#06f"/><path d="M509.91,88.16A2.87,2.87,0,1,1,507,85.29a2.86,2.86,0,0,1,2.87,2.87Z" style="fill:none;stroke:#6b77e8;stroke-linejoin:round;stroke-width:0.819796614219656px"/><path d="M579.19,99.37a2.87,2.87,0,1,1-2.87-2.87,2.88,2.88,0,0,1,2.87,2.87Z" style="fill:#06f"/><path d="M579.19,99.37a2.87,2.87,0,1,1-2.87-2.87,2.88,2.88,0,0,1,2.87,2.87Z" style="fill:none;stroke:#6b77e8;stroke-linejoin:round;stroke-width:0.819796614219656px"/><path d="M648.46,133.11a2.87,2.87,0,1,1-2.87-2.86,2.87,2.87,0,0,1,2.87,2.86Z" style="fill:#06f"/><path d="M648.46,133.11a2.87,2.87,0,1,1-2.87-2.86,2.87,2.87,0,0,1,2.87,2.86Z" style="fill:none;stroke:#6b77e8;stroke-linejoin:round;stroke-width:0.819796614219656px"/><path d="M717.73,149.92a2.87,2.87,0,1,1-2.87-2.87,2.87,2.87,0,0,1,2.87,2.87Z" style="fill:#06f"/><path d="M717.73,149.92a2.87,2.87,0,1,1-2.87-2.87,2.87,2.87,0,0,1,2.87,2.87Z" style="fill:none;stroke:#6b77e8;stroke-linejoin:round;stroke-width:0.819796614219656px"/><path d="M787,164a2.87,2.87,0,1,1-2.86-2.87A2.86,2.86,0,0,1,787,164Z" style="fill:#06f"/><path d="M787,164a2.87,2.87,0,1,1-2.86-2.87A2.86,2.86,0,0,1,787,164Z" style="fill:none;stroke:#6b77e8;stroke-linejoin:round;stroke-width:0.819796614219656px"/><path d="M856.28,183.67a2.87,2.87,0,1,1-2.87-2.87,2.88,2.88,0,0,1,2.87,2.87Z" style="fill:#06f"/><path d="M856.28,183.67a2.87,2.87,0,1,1-2.87-2.87,2.88,2.88,0,0,1,2.87,2.87Z" style="fill:none;stroke:#6b77e8;stroke-linejoin:round;stroke-width:0.819796614219656px"/></g><g style="clip-path:url(#clip-path-10)"><text transform="translate(27.99 299.22)" style="font-size:10.24746036529541px;font-family:ArialMT, Arial"><tspan style="letter-spacing:0.0029542380668800263em">0</tspan><tspan x="5.73" y="0" style="letter-spacing:0.0020965560474632446em">.</tspan><tspan x="8.6" y="0" style="letter-spacing:-0.00905331020495492em">0</tspan><tspan x="14.2" y="0">0</tspan></text></g><g style="clip-path:url(#clip-path-10)"><text transform="translate(27.99 228.99)" style="font-size:10.24746036529541px;font-family:ArialMT, Arial"><tspan style="letter-spacing:0.0029542380668800263em">0</tspan><tspan x="5.73" y="0" style="letter-spacing:0.0020965560474632446em">.</tspan><tspan x="8.6" y="0" style="letter-spacing:-0.00905331020495492em">2</tspan><tspan x="14.2" y="0">5</tspan></text></g><g style="clip-path:url(#clip-path-10)"><text transform="translate(27.99 158.76)" style="font-size:10.24746036529541px;font-family:ArialMT, Arial"><tspan style="letter-spacing:0.0029542380668800263em">0</tspan><tspan x="5.73" y="0" style="letter-spacing:0.0020965560474632446em">.</tspan><tspan x="8.6" y="0" style="letter-spacing:-0.00905331020495492em">5</tspan><tspan x="14.2" y="0">0</tspan></text></g><g style="clip-path:url(#clip-path-10)"><text transform="translate(27.99 88.55)" style="font-size:10.24746036529541px;font-family:ArialMT, Arial"><tspan style="letter-spacing:0.0029542380668800263em">0</tspan><tspan x="5.73" y="0" style="letter-spacing:0.0020965560474632446em">.</tspan><tspan x="8.6" y="0" style="letter-spacing:-0.00905331020495492em">7</tspan><tspan x="14.2" y="0">5</tspan></text></g><g style="clip-path:url(#clip-path-10)"><text transform="translate(27.99 18.31)" style="font-size:10.24746036529541px;font-family:ArialMT, Arial"><tspan style="letter-spacing:0.0029542380668800263em">1</tspan><tspan x="5.73" y="0" style="letter-spacing:0.0020965560474632446em">.</tspan><tspan x="8.6" y="0" style="letter-spacing:-0.00905331020495492em">0</tspan><tspan x="14.2" y="0">0</tspan></text></g><g style="clip-path:url(#clip-path-10)"><text transform="translate(88.53 311.42)" style="font-size:10.24746036529541px;font-family:ArialMT, Arial">1</text></g><g style="clip-path:url(#clip-path-10)"><text transform="translate(157.81 311.42)" style="font-size:10.24746036529541px;font-family:ArialMT, Arial">2</text></g><g style="clip-path:url(#clip-path-10)"><text transform="translate(227.08 311.42)" style="font-size:10.24746036529541px;font-family:ArialMT, Arial">3</text></g><g style="clip-path:url(#clip-path-10)"><text transform="translate(296.36 311.42)" style="font-size:10.24746036529541px;font-family:ArialMT, Arial">4</text></g><g style="clip-path:url(#clip-path-10)"><text transform="translate(365.64 311.42)" style="font-size:10.24746036529541px;font-family:ArialMT, Arial">1</text></g><g style="clip-path:url(#clip-path-10)"><text transform="translate(434.91 311.42)" style="font-size:10.24746036529541px;font-family:ArialMT, Arial">2</text></g><g style="clip-path:url(#clip-path-10)"><text transform="translate(504.18 311.42)" style="font-size:10.24746036529541px;font-family:ArialMT, Arial">3</text></g><g style="clip-path:url(#clip-path-10)"><text transform="translate(573.47 311.42)" style="font-size:10.24746036529541px;font-family:ArialMT, Arial">4</text></g><g style="clip-path:url(#clip-path-10)"><text transform="translate(642.74 311.42)" style="font-size:10.24746036529541px;font-family:ArialMT, Arial">1</text></g><g style="clip-path:url(#clip-path-10)"><text transform="translate(712.01 311.42)" style="font-size:10.24746036529541px;font-family:ArialMT, Arial">2</text></g><g style="clip-path:url(#clip-path-10)"><text transform="translate(781.29 311.42)" style="font-size:10.24746036529541px;font-family:ArialMT, Arial">3</text></g><g style="clip-path:url(#clip-path-10)"><text transform="translate(850.57 311.42)" style="font-size:10.24746036529541px;font-family:ArialMT, Arial">4</text></g><g style="clip-path:url(#clip-path-10)"><text transform="translate(187.04 329.9)" style="font-size:10.24746036529541px;font-family:ArialMT, Arial"><tspan style="letter-spacing:0.0060037741359174725em">J</tspan><tspan x="5.19" y="0" style="letter-spacing:-0.00905331020495492em">a</tspan><tspan x="10.79" y="0">n</tspan></text></g><g style="clip-path:url(#clip-path-10)"><text transform="translate(463.57 329.9)" style="font-size:10.24746036529541px;font-family:ArialMT, Arial"><tspan style="letter-spacing:0.0020012580453058243em">F</tspan><tspan x="6.28" y="0" style="letter-spacing:0.0029542380668800263em">e</tspan><tspan x="12.01" y="0">b</tspan></text></g><g style="clip-path:url(#clip-path-10)"><text transform="translate(740.68 329.9)" style="font-size:10.24746036529541px;font-family:ArialMT, Arial"><tspan style="letter-spacing:-0.0060037741359174725em">M</tspan><tspan x="8.47" y="0" style="letter-spacing:0.0030495360690374466em">a</tspan><tspan x="14.21" y="0">r</tspan></text></g><g style="clip-path:url(#clip-path-10)"><text transform="translate(18.67 207.52) rotate(-90)" style="font-size:11.340519905090332px;font-family:Arial-BoldMT, Arial;font-weight:700">ND<tspan x="16.38" y="0" style="letter-spacing:-0.00404729570461738em">V</tspan><tspan x="23.9" y="0">I</tspan><tspan x="27.05" y="0" style="letter-spacing:0.011022422344489887em"> </tspan><tspan x="30.32" y="0" style="letter-spacing:0.00008611267456632724em"> </tspan><tspan x="33.48" y="0" style="letter-spacing:-0.00404729570461738em">V</tspan><tspan x="40.99" y="0" style="letter-spacing:-0.001033352094795927em">a</tspan><tspan x="47.29" y="0" style="letter-spacing:0.00008611267456632724em">l</tspan><tspan x="50.44" y="0" style="letter-spacing:0.003013943609821453em">u</tspan><tspan x="57.4" y="0" style="letter-spacing:0.00008611267456632724em">e</tspan></text></g><g style="clip-path:url(#clip-path-10)"><text transform="translate(434.95 345.24)" style="font-size:11.340519905090332px;font-family:Arial-BoldMT, Arial;font-weight:700"><tspan style="letter-spacing:0.0069751266398725064em">W</tspan><tspan x="10.78" y="0" style="letter-spacing:-0.0009472394202295996em">ee</tspan><tspan x="23.38" y="0">k</tspan></text></g><polygon points="0 0 900 0 900 350.19 0 350.19 0 0 0 0" style="fill:none;stroke:#d9d9d9;stroke-linejoin:round;stroke-width:0.819796614219656px"/></svg>