<svg id="Layer_1" data-name="Layer 1" xmlns="http://www.w3.org/2000/svg" xmlns:xlink="http://www.w3.org/1999/xlink" viewBox="0 0 900 350"><defs><clipPath id="clip-path"><polygon points="0 348.68 899.86 348.68 899.86 0 0 0 0 348.68 0 348.68" style="fill:none;clip-rule:evenodd"/></clipPath><clipPath id="clip-path-3"><polygon points="77.26 314.22 886.74 314.22 886.74 21.33 77.26 21.33 77.26 314.22 77.26 314.22" style="fill:none;clip-rule:evenodd"/></clipPath><clipPath id="clip-path-5"><rect width="899.86" height="348.68" style="fill:none"/></clipPath></defs><title>price-volatility</title><polygon points="0 0 900 0 900 348.68 0 348.68 0 0 0 0" style="fill:#eaeaea;fill-rule:evenodd"/><polygon points="77.26 21.47 885.92 21.47 885.92 313.4 77.26 313.4 77.26 21.47 77.26 21.47" style="fill:#fff;fill-rule:evenodd"/><path d="M77.26,240.38H885.92M77.26,167.5H885.92m-808.66-73H885.92m-808.66-73H885.92" style="fill:none;stroke:#d9d9d9;stroke-linejoin:round;stroke-width:0.82041927742002px"/><g style="clip-path:url(#clip-path)"><path d="M77.26,21.47V313.4M144.67,21.47V313.4M212.08,21.47V313.4M279.49,21.47V313.4M346.76,21.47V313.4M414.18,21.47V313.4M481.59,21.47V313.4M549,21.47V313.4M616.41,21.47V313.4M683.68,21.47V313.4M751.09,21.47V313.4M818.5,21.47V313.4M885.92,21.47V313.4" style="fill:none;stroke:#d9d9d9;stroke-linejoin:round;stroke-width:0.82041927742002px"/></g><g style="clip-path:url(#clip-path)"><line x1="77.26" y1="313.4" x2="885.92" y2="313.4" style="fill:none;stroke:#d9d9d9;stroke-linejoin:round;stroke-width:0.82041927742002px"/></g><g style="clip-path:url(#clip-path-3)"><polyline points="110.89 204.42 178.3 221.38 245.72 236.55 313.13 246.26 380.54 222.33 447.95 192.12 515.22 168.32 582.63 138.1 650.05 78.35 717.46 110.76 784.87 163.81 852.28 209.62" style="fill:none;stroke:#2935e8;stroke-linecap:round;stroke-linejoin:round;stroke-width:2.46125776434228px"/></g><g style="clip-path:url(#clip-path-3)"><polyline points="110.89 163.4 178.3 172.15 245.72 171.74 313.13 128.81 380.54 89.43 447.95 118.82 515.22 144.39 582.63 141.8 650.05 161.76 717.46 170.37 784.87 160.66 852.28 174.34" style="fill:none;stroke:#ff25f3;stroke-linecap:round;stroke-linejoin:round;stroke-width:2.46125776434228px"/></g><g style="clip-path:url(#clip-path-5)"><text transform="translate(31.37 316.69)" style="font-size:10.255240440368652px;font-family:ArialMT, Arial"><tspan style="letter-spacing:0.00199973980320083em"> </tspan><tspan x="2.87" y="0" style="letter-spacing:0.002951996852344082em">1</tspan><tspan x="8.6" y="0" style="letter-spacing:-0.008951216261946572em">5</tspan><tspan x="14.21" y="0" style="letter-spacing:0.00199973980320083em">,</tspan><tspan x="17.08" y="0" style="letter-spacing:0.0030472225572584074em">00</tspan><tspan x="28.55" y="0">0</tspan></text></g><g style="clip-path:url(#clip-path-5)"><text transform="translate(31.37 243.7)" style="font-size:10.255240440368652px;font-family:ArialMT, Arial"><tspan style="letter-spacing:0.00199973980320083em"> </tspan><tspan x="2.87" y="0" style="letter-spacing:0.002951996852344082em">3</tspan><tspan x="8.6" y="0" style="letter-spacing:-0.008951216261946572em">0</tspan><tspan x="14.21" y="0" style="letter-spacing:0.00199973980320083em">,</tspan><tspan x="17.08" y="0" style="letter-spacing:0.0030472225572584074em">00</tspan><tspan x="28.55" y="0">0</tspan></text></g><g style="clip-path:url(#clip-path-5)"><text transform="translate(31.37 170.71)" style="font-size:10.255240440368652px;font-family:ArialMT, Arial"><tspan style="letter-spacing:0.00199973980320083em"> </tspan><tspan x="2.87" y="0" style="letter-spacing:0.002951996852344082em">4</tspan><tspan x="8.6" y="0" style="letter-spacing:-0.008951216261946572em">5</tspan><tspan x="14.21" y="0" style="letter-spacing:0.00199973980320083em">,</tspan><tspan x="17.08" y="0" style="letter-spacing:0.0030472225572584074em">00</tspan><tspan x="28.55" y="0">0</tspan></text></g><g style="clip-path:url(#clip-path-5)"><text transform="translate(31.37 97.71)" style="font-size:10.255240440368652px;font-family:ArialMT, Arial"><tspan style="letter-spacing:0.00199973980320083em"> </tspan><tspan x="2.87" y="0" style="letter-spacing:0.002951996852344082em">6</tspan><tspan x="8.6" y="0" style="letter-spacing:-0.008951216261946572em">0</tspan><tspan x="14.21" y="0" style="letter-spacing:0.00199973980320083em">,</tspan><tspan x="17.08" y="0" style="letter-spacing:0.0030472225572584074em">00</tspan><tspan x="28.55" y="0">0</tspan></text></g><g style="clip-path:url(#clip-path-5)"><text transform="translate(31.37 24.72)" style="font-size:10.255240440368652px;font-family:ArialMT, Arial"><tspan style="letter-spacing:0.00199973980320083em"> </tspan><tspan x="2.87" y="0" style="letter-spacing:0.002951996852344082em">7</tspan><tspan x="8.6" y="0" style="letter-spacing:-0.008951216261946572em">5</tspan><tspan x="14.21" y="0" style="letter-spacing:0.00199973980320083em">,</tspan><tspan x="17.08" y="0" style="letter-spacing:0.0030472225572584074em">00</tspan><tspan x="28.55" y="0">0</tspan></text></g><g style="clip-path:url(#clip-path-5)"><text transform="translate(102.69 328.91)" style="font-size:10.255240440368652px;font-family:ArialMT, Arial"><tspan style="letter-spacing:0.005999219409602489em">J</tspan><tspan x="5.19" y="0" style="letter-spacing:-0.008951216261946572em">a</tspan><tspan x="10.8" y="0">n</tspan></text></g><g style="clip-path:url(#clip-path-5)"><text transform="translate(169.51 328.91)" style="font-size:10.255240440368652px;font-family:ArialMT, Arial;letter-spacing:0.00199973980320083em">F<tspan x="6.29" y="0" style="letter-spacing:0.002951996852344082em">e</tspan><tspan x="12.02" y="0" style="letter-spacing:0.00009522570491432523em">b</tspan></text></g><g style="clip-path:url(#clip-path-5)"><text transform="translate(236.9 328.91)" style="font-size:10.255240440368652px;font-family:ArialMT, Arial"><tspan style="letter-spacing:-0.005999219409602489em">M</tspan><tspan x="8.48" y="0" style="letter-spacing:0.0030472225572584074em">a</tspan><tspan x="14.22" y="0">r</tspan></text></g><g style="clip-path:url(#clip-path-5)"><text transform="translate(305.13 328.91)" style="font-size:10.255240440368652px;font-family:ArialMT, Arial">A<tspan x="6.84" y="0" style="letter-spacing:0.0030472225572584074em">p</tspan><tspan x="12.57" y="0">r</tspan></text></g><g style="clip-path:url(#clip-path-5)"><text transform="translate(370.81 328.91)" style="font-size:10.255240440368652px;font-family:ArialMT, Arial;letter-spacing:-0.005999219409602489em">M<tspan x="8.48" y="0" style="letter-spacing:0.0030472225572584074em">a</tspan><tspan x="14.22" y="0" style="letter-spacing:-0.00009522570491432523em">y</tspan></text></g><g style="clip-path:url(#clip-path-5)"><text transform="translate(439.62 328.91)" style="font-size:10.255240440368652px;font-family:ArialMT, Arial"><tspan style="letter-spacing:0.005999219409602489em">J</tspan><tspan x="5.19" y="0" style="letter-spacing:-0.008951216261946572em">u</tspan><tspan x="10.8" y="0">n</tspan></text></g><g style="clip-path:url(#clip-path-5)"><text transform="translate(508.72 328.91)" style="font-size:10.255240440368652px;font-family:ArialMT, Arial"><tspan style="letter-spacing:0.005999219409602489em">J</tspan><tspan x="5.19" y="0" style="letter-spacing:-0.008951216261946572em">u</tspan><tspan x="10.8" y="0">l</tspan></text></g><g style="clip-path:url(#clip-path-5)"><text transform="translate(573.54 328.91)" style="font-size:10.255240440368652px;font-family:ArialMT, Arial">A<tspan x="6.84" y="0" style="letter-spacing:0.0030472225572584074em">u</tspan><tspan x="12.57" y="0" style="letter-spacing:0.00009522570491432523em">g</tspan></text></g><g style="clip-path:url(#clip-path-5)"><text transform="translate(640.93 328.91)" style="font-size:10.255240440368652px;font-family:ArialMT, Arial">S<tspan x="6.84" y="0" style="letter-spacing:0.0030472225572584074em">e</tspan><tspan x="12.57" y="0" style="letter-spacing:0.00009522570491432523em">p</tspan></text></g><g style="clip-path:url(#clip-path-5)"><text transform="translate(709.47 328.91)" style="font-size:10.255240440368652px;font-family:ArialMT, Arial"><tspan style="letter-spacing:-0.00399947960640166em">O</tspan><tspan x="7.94" y="0" style="letter-spacing:0.005999219409602489em">c</tspan><tspan x="13.13" y="0">t</tspan></text></g><g style="clip-path:url(#clip-path-5)"><text transform="translate(775.71 328.91)" style="font-size:10.255240440368652px;font-family:ArialMT, Arial;letter-spacing:-0.00199973980320083em">N<tspan x="7.39" y="0" style="letter-spacing:0.0030472225572584074em">o</tspan><tspan x="13.12" y="0" style="letter-spacing:-0.00009522570491432523em">v</tspan></text></g><g style="clip-path:url(#clip-path-5)"><text transform="translate(843.1 328.91)" style="font-size:10.255240440368652px;font-family:ArialMT, Arial;letter-spacing:-0.00199973980320083em">D<tspan x="7.39" y="0" style="letter-spacing:0.0030472225572584074em">e</tspan><tspan x="13.12" y="0" style="letter-spacing:-0.00009522570491432523em">c</tspan></text></g><g style="clip-path:url(#clip-path-5)"><text transform="translate(21.68 237.82) rotate(-90)" style="font-size:11.349129676818848px;font-family:Arial-BoldMT, Arial;font-weight:700"><tspan style="letter-spacing:0.021942073497375095em">M</tspan><tspan x="9.7" y="0" style="letter-spacing:-0.0009465208175338276em">a</tspan><tspan x="16" y="0" style="letter-spacing:-0.0030116571466985423em">r</tspan><tspan x="20.39" y="0" style="letter-spacing:-0.0009465208175338276em">ke</tspan><tspan x="32.99" y="0" style="letter-spacing:0.0040442253112809em">t</tspan><tspan x="36.81" y="0"> </tspan><tspan x="39.97" y="0" style="letter-spacing:-0.0039581779642323695em">P</tspan><tspan x="47.49" y="0" style="letter-spacing:-0.003097704493747072em">r</tspan><tspan x="51.87" y="0">i</tspan><tspan x="55.03" y="0" style="letter-spacing:-0.0009465208175338276em">ce</tspan><tspan x="67.63" y="0" style="letter-spacing:0.02297464166195745em"> </tspan><tspan x="71.04" y="0" style="letter-spacing:0.0039581779642323695em">(</tspan><tspan x="74.87" y="0">R</tspan><tspan x="83.06" y="0" style="letter-spacing:-0.0009465208175338276em">s</tspan><tspan x="89.36" y="0">./</tspan><tspan x="95.67" y="0" style="letter-spacing:0.022028120844423623em">M</tspan><tspan x="105.37" y="0" style="letter-spacing:0.014972238386444181em">T</tspan><tspan x="112.47" y="0">)</tspan></text></g><g style="clip-path:url(#clip-path-5)"><text transform="translate(429.3 343.41)" style="font-size:11.349129676818848px;font-family:Arial-BoldMT, Arial;font-weight:700"><tspan style="letter-spacing:0.021942073497375095em">M</tspan><tspan x="9.7" y="0" style="letter-spacing:0.0030116571466985423em">on</tspan><tspan x="23.64" y="0" style="letter-spacing:0.0039581779642323695em">t</tspan><tspan x="27.46" y="0" style="letter-spacing:0.0030116571466985423em">h</tspan><tspan x="34.43" y="0" style="letter-spacing:-0.0009465208175338276em">s</tspan><tspan x="40.73" y="0"> </tspan></text></g><g style="clip-path:url(#clip-path)"><line x1="377.53" y1="12.31" x2="399.41" y2="12.31" style="fill:none;stroke:#2935e8;stroke-linecap:round;stroke-linejoin:round;stroke-width:2.46125776434228px"/></g><g style="clip-path:url(#clip-path-5)"><text transform="translate(401.74 15.11)" style="font-size:9.16135025024414px;font-family:Arial-BoldMT, Arial;font-weight:700"><tspan style="letter-spacing:0.0019187264453219175em">M</tspan><tspan x="7.65" y="0" style="letter-spacing:-0.005010007940562785em">AH</tspan><tspan x="20.79" y="0" style="letter-spacing:-0.008954056744835615em"> </tspan><tspan x="23.25" y="0" style="letter-spacing:0.01002001588112557em">(</tspan><tspan x="26.4" y="0" style="letter-spacing:-0.005010007940562785em">R</tspan><tspan x="32.97" y="0" style="letter-spacing:-0.004050644717901826em">-</tspan><tspan x="35.98" y="0" style="letter-spacing:-0.0028780896679828764em">6</tspan><tspan x="41.05" y="0">)</tspan></text></g><g style="clip-path:url(#clip-path)"><line x1="486.1" y1="12.31" x2="507.98" y2="12.31" style="fill:none;stroke:#ff25f3;stroke-linecap:round;stroke-linejoin:round;stroke-width:2.46125776434228px"/></g><g style="clip-path:url(#clip-path-5)"><text transform="translate(510.33 15.11)" style="font-size:9.16135025024414px;font-family:Arial-BoldMT, Arial;font-weight:700"><tspan style="letter-spacing:-0.0009593632226609588em">G</tspan><tspan x="7.12" y="0" style="letter-spacing:-0.005010007940562785em">U</tspan><tspan x="13.69" y="0" style="letter-spacing:-0.002984685581611872em">J</tspan><tspan x="18.75" y="0" style="letter-spacing:0.005010007940562785em"> </tspan><tspan x="21.35" y="0" style="letter-spacing:-0.003944048804272831em">(</tspan><tspan x="24.36" y="0" style="letter-spacing:-0.005116603854191781em">R</tspan><tspan x="30.93" y="0" style="letter-spacing:-0.003944048804272831em">-</tspan><tspan x="33.94" y="0" style="letter-spacing:-0.002984685581611872em">2</tspan><tspan x="39.01" y="0">)</tspan></text></g><polygon points="0 0 900 0 900 348.68 0 348.68 0 0 0 0" style="fill:none;stroke:#d9d9d9;stroke-linejoin:round;stroke-width:0.8204193453378px"/></svg>