<svg id="Layer_1" data-name="Layer 1" xmlns="http://www.w3.org/2000/svg" xmlns:xlink="http://www.w3.org/1999/xlink" viewBox="0 0 900 350"><defs><clipPath id="clip-path"><polygon points="2.84 2.84 887.08 2.84 887.08 350.3 2.84 350.3 2.84 2.84 2.84 2.84" style="fill:none;clip-rule:evenodd"/></clipPath><clipPath id="clip-path-2"><polygon points="2.84 2.84 101.18 2.84 101.18 53.2 2.84 53.2 2.84 2.84 2.84 2.84" style="fill:none;clip-rule:evenodd"/></clipPath><clipPath id="clip-path-4"><polygon points="2.84 2.84 887.08 2.84 887.08 53.2 2.84 53.2 2.84 2.84 2.84 2.84" style="fill:none;clip-rule:evenodd"/></clipPath><clipPath id="clip-path-5"><polygon points="2.84 54.04 101.18 54.04 101.18 184.13 2.84 184.13 2.84 54.04 2.84 54.04" style="fill:none;clip-rule:evenodd"/></clipPath><clipPath id="clip-path-6"><polygon points="2.84 184.97 101.18 184.97 101.18 315.05 2.84 315.05 2.84 184.97 2.84 184.97" style="fill:none;clip-rule:evenodd"/></clipPath><clipPath id="clip-path-7"><polygon points="102.02 54.04 180.19 54.04 180.19 184.13 102.02 184.13 102.02 54.04 102.02 54.04" style="fill:none;clip-rule:evenodd"/></clipPath><clipPath id="clip-path-8"><polygon points="102.02 184.97 180.19 184.97 180.19 315.05 102.02 315.05 102.02 184.97 102.02 184.97" style="fill:none;clip-rule:evenodd"/></clipPath><clipPath id="clip-path-9"><polygon points="275.17 54.04 556.75 54.04 556.75 96.84 275.17 96.84 275.17 54.04 275.17 54.04" style="fill:none;clip-rule:evenodd"/></clipPath><clipPath id="clip-path-10"><polygon points="416.38 97.68 650.89 97.68 650.89 140.48 416.38 140.48 416.38 97.68 416.38 97.68" style="fill:none;clip-rule:evenodd"/></clipPath><clipPath id="clip-path-11"><polygon points="604.66 141.32 792.1 141.32 792.1 184.13 604.66 184.13 604.66 141.32 604.66 141.32" style="fill:none;clip-rule:evenodd"/></clipPath><clipPath id="clip-path-12"><polygon points="275.17 184.97 556.75 184.97 556.75 227.77 275.17 227.77 275.17 184.97 275.17 184.97" style="fill:none;clip-rule:evenodd"/></clipPath><clipPath id="clip-path-13"><polygon points="416.38 228.61 650.89 228.61 650.89 271.41 416.38 271.41 416.38 228.61 416.38 228.61" style="fill:none;clip-rule:evenodd"/></clipPath><clipPath id="clip-path-14"><polygon points="2.84 315.89 886.24 315.89 886.24 349.46 2.84 349.46 2.84 315.89 2.84 315.89" style="fill:none;clip-rule:evenodd"/></clipPath><clipPath id="clip-path-15"><polygon points="604.66 272.25 792.1 272.25 792.1 315.05 604.66 315.05 604.66 272.25 604.66 272.25" style="fill:none;clip-rule:evenodd"/></clipPath><clipPath id="clip-path-16"><polygon points="2 2 887.08 2 887.08 350.3 2 350.3 2 2 2 2" style="fill:none;clip-rule:evenodd"/></clipPath></defs><title>seasonal-calendar</title><g style="clip-path:url(#clip-path)"><polyline points="2 2 2 54.04 887.08 54.04 887.08 2 2 2" style="fill:#d9d9d9;fill-rule:evenodd"/><polyline points="886.24 2 886.24 54.04 905.57 54.04 905.57 2 886.24 2" style="fill:#fff;fill-rule:evenodd"/><polyline points="2 53.2 2 97.68 181.03 97.68 181.03 53.2 2 53.2" style="fill:#f2f2f2;fill-rule:evenodd"/><polyline points="180.19 53.2 180.19 97.68 228.1 97.68 228.1 53.2 180.19 53.2" style="fill:#fff;fill-rule:evenodd"/><polyline points="227.26 53.2 227.26 97.68 275.17 97.68 275.17 53.2 227.26 53.2" style="fill:#5e9fff;fill-rule:evenodd"/><polyline points="274.33 53.2 274.33 97.68 557.59 97.68 557.59 53.2 274.33 53.2" style="fill:#06f;fill-rule:evenodd"/><polyline points="556.75 53.2 556.75 97.68 604.66 97.68 604.66 53.2 556.75 53.2" style="fill:#0044ab;fill-rule:evenodd"/><polyline points="603.82 53.2 603.82 97.68 905.57 97.68 905.57 53.2 603.82 53.2" style="fill:#fff;fill-rule:evenodd"/><polyline points="2 96.84 2 141.32 181.03 141.32 181.03 96.84 2 96.84" style="fill:#f2f2f2;fill-rule:evenodd"/><polyline points="180.19 96.84 180.19 141.32 369.31 141.32 369.31 96.84 180.19 96.84" style="fill:#fff;fill-rule:evenodd"/><polyline points="368.47 96.84 368.47 141.32 416.38 141.32 416.38 96.84 368.47 96.84" style="fill:#5e9fff;fill-rule:evenodd"/><polyline points="415.54 96.84 415.54 141.32 651.73 141.32 651.73 96.84 415.54 96.84" style="fill:#06f;fill-rule:evenodd"/><polyline points="650.89 96.84 650.89 141.32 698.8 141.32 698.8 96.84 650.89 96.84" style="fill:#0044ab;fill-rule:evenodd"/><polyline points="697.96 96.84 697.96 141.32 905.57 141.32 905.57 96.84 697.96 96.84" style="fill:#fff;fill-rule:evenodd"/><polyline points="2 140.48 2 184.97 181.03 184.97 181.03 140.48 2 140.48" style="fill:#f2f2f2;fill-rule:evenodd"/><polyline points="180.19 140.48 180.19 184.97 557.59 184.97 557.59 140.48 180.19 140.48" style="fill:#fff;fill-rule:evenodd"/><polyline points="556.75 140.48 556.75 184.97 604.66 184.97 604.66 140.48 556.75 140.48" style="fill:#5e9fff;fill-rule:evenodd"/><polyline points="603.82 140.48 603.82 184.97 792.94 184.97 792.94 140.48 603.82 140.48" style="fill:#06f;fill-rule:evenodd"/><polyline points="792.1 140.48 792.1 184.97 840.01 184.97 840.01 140.48 792.1 140.48" style="fill:#0044ab;fill-rule:evenodd"/><polyline points="839.17 140.48 839.17 184.97 905.57 184.97 905.57 140.48 839.17 140.48" style="fill:#fff;fill-rule:evenodd"/><polyline points="2 184.13 2 228.61 181.03 228.61 181.03 184.13 2 184.13" style="fill:#f2f2f2;fill-rule:evenodd"/><polyline points="180.19 184.13 180.19 228.61 228.1 228.61 228.1 184.13 180.19 184.13" style="fill:#fff;fill-rule:evenodd"/><polyline points="227.26 184.13 227.26 228.61 275.17 228.61 275.17 184.13 227.26 184.13" style="fill:#5e9fff;fill-rule:evenodd"/><polyline points="274.33 184.13 274.33 228.61 557.59 228.61 557.59 184.13 274.33 184.13" style="fill:#06f;fill-rule:evenodd"/><polyline points="556.75 184.13 556.75 228.61 604.66 228.61 604.66 184.13 556.75 184.13" style="fill:#0044ab;fill-rule:evenodd"/><polyline points="603.82 184.13 603.82 228.61 905.57 228.61 905.57 184.13 603.82 184.13" style="fill:#fff;fill-rule:evenodd"/><polyline points="2 227.77 2 272.25 181.03 272.25 181.03 227.77 2 227.77" style="fill:#f2f2f2;fill-rule:evenodd"/><polyline points="180.19 227.77 180.19 272.25 369.31 272.25 369.31 227.77 180.19 227.77" style="fill:#fff;fill-rule:evenodd"/><polyline points="368.47 227.77 368.47 272.25 416.38 272.25 416.38 227.77 368.47 227.77" style="fill:#5e9fff;fill-rule:evenodd"/><polyline points="415.54 227.77 415.54 272.25 651.73 272.25 651.73 227.77 415.54 227.77" style="fill:#06f;fill-rule:evenodd"/><polyline points="650.89 227.77 650.89 272.25 698.8 272.25 698.8 227.77 650.89 227.77" style="fill:#0044ab;fill-rule:evenodd"/><polyline points="697.96 227.77 697.96 272.25 905.57 272.25 905.57 227.77 697.96 227.77" style="fill:#fff;fill-rule:evenodd"/><polyline points="2 271.41 2 315.89 181.03 315.89 181.03 271.41 2 271.41" style="fill:#f2f2f2;fill-rule:evenodd"/><polyline points="180.19 271.41 180.19 315.89 557.59 315.89 557.59 271.41 180.19 271.41" style="fill:#fff;fill-rule:evenodd"/><polyline points="556.75 271.41 556.75 315.89 604.66 315.89 604.66 271.41 556.75 271.41" style="fill:#5e9fff;fill-rule:evenodd"/><polyline points="603.82 271.41 603.82 315.89 792.94 315.89 792.94 271.41 603.82 271.41" style="fill:#06f;fill-rule:evenodd"/><polyline points="792.1 271.41 792.1 315.89 840.01 315.89 840.01 271.41 792.1 271.41" style="fill:#0044ab;fill-rule:evenodd"/><polyline points="839.17 271.41 839.17 315.89 905.57 315.89 905.57 271.41 839.17 271.41" style="fill:#fff;fill-rule:evenodd"/><polyline points="2 315.05 2 366.25 905.57 366.25 905.57 315.05 2 315.05" style="fill:#fff;fill-rule:evenodd"/></g><g style="clip-path:url(#clip-path-2)"><text transform="translate(16.3 24.66)" style="font-size:10.91073989868164px;font-family:Arial-BoldMT, Arial;font-weight:700"><tspan style="letter-spacing:-0.028956667373145232em">A</tspan><tspan x="7.56" y="0" style="letter-spacing:0.003932386927217254em">g</tspan><tspan x="14.27" y="0" style="letter-spacing:-0.003932386927217254em">r</tspan><tspan x="18.47" y="0" style="letter-spacing:0.004021759357381282em">o</tspan><tspan x="25.18" y="0" style="letter-spacing:-0.025024280445927978em">-</tspan><tspan x="28.54" y="0" style="letter-spacing:-0.016980761731165417em">c</tspan><tspan x="34.43" y="0" style="letter-spacing:0.028956667373145232em">li</tspan><tspan x="41.12" y="0" style="letter-spacing:0.03297842673052651em">m</tspan><tspan x="51.18" y="0" style="letter-spacing:0.058985803908258805em">a</tspan><tspan x="57.89" y="0" style="letter-spacing:-0.025024280445927978em">t</tspan><tspan x="61.25" y="0" style="letter-spacing:0.02904603980330926em">i</tspan><tspan x="64.6" y="0" style="letter-spacing:-0.017070134161329437em">c</tspan><tspan x="70.48" y="0"> </tspan></text><text transform="translate(38.99 38.93)" style="font-size:10.91073989868164px;font-family:Arial-BoldMT, Arial;font-weight:700"><tspan style="letter-spacing:0.03798328281971211em">z</tspan><tspan x="5.87" y="0" style="letter-spacing:0.003932386927217254em">on</tspan><tspan x="19.29" y="0">e</tspan></text></g><g style="clip-path:url(#clip-path)"><text transform="translate(122.2 32.22)" style="font-size:10.91073989868164px;font-family:Arial-BoldMT, Arial;font-weight:700"><tspan style="letter-spacing:-0.028956667373145232em">R</tspan><tspan x="7.56" y="0" style="letter-spacing:0.058985803908258805em">e</tspan><tspan x="14.27" y="0" style="letter-spacing:0.003932386927217254em">g</tspan><tspan x="20.98" y="0" style="letter-spacing:0.02904603980330926em">i</tspan><tspan x="24.33" y="0" style="letter-spacing:0.003932386927217254em">o</tspan><tspan x="31.04" y="0">n</tspan></text><text transform="translate(193.64 32.22)" style="font-size:10.91073989868164px;font-family:Arial-BoldMT, Arial;font-weight:700"><tspan style="letter-spacing:0.012959002373784133em">M</tspan><tspan x="9.23" y="0" style="letter-spacing:0.058985803908258805em">a</tspan><tspan x="15.94" y="0">y</tspan></text><text transform="translate(241.56 32.22)" style="font-size:10.91073989868164px;font-family:Arial-BoldMT, Arial;font-weight:700"><tspan style="letter-spacing:-0.016980761731165417em">J</tspan><tspan x="5.88" y="0" style="letter-spacing:0.003932386927217254em">u</tspan><tspan x="12.59" y="0">n</tspan></text><text transform="translate(290.3 32.22)" style="font-size:10.91073989868164px;font-family:Arial-BoldMT, Arial;font-weight:700"><tspan style="letter-spacing:-0.016980761731165417em">J</tspan><tspan x="5.88" y="0" style="letter-spacing:0.003932386927217254em">u</tspan><tspan x="12.59" y="0">l</tspan></text><text transform="translate(334.85 32.22)" style="font-size:10.91073989868164px;font-family:Arial-BoldMT, Arial;font-weight:700"><tspan style="letter-spacing:-0.028956667373145232em">A</tspan><tspan x="7.56" y="0" style="letter-spacing:0.003932386927217254em">u</tspan><tspan x="14.27" y="0">g</tspan></text><text transform="translate(381.93 32.22)" style="font-size:10.91073989868164px;font-family:Arial-BoldMT, Arial;font-weight:700"><tspan style="letter-spacing:0.025024280445927978em">S</tspan><tspan x="7.55" y="0" style="letter-spacing:0.058985803908258805em">e</tspan><tspan x="14.26" y="0">p</tspan></text><text transform="translate(430.68 32.22)" style="font-size:10.91073989868164px;font-family:Arial-BoldMT, Arial;font-weight:700"><tspan style="letter-spacing:-0.007954146284598536em">O</tspan><tspan x="8.4" y="0" style="letter-spacing:-0.017070134161329437em">c</tspan><tspan x="14.28" y="0">t</tspan></text><text transform="translate(476.9 32.22)" style="font-size:10.91073989868164px;font-family:Arial-BoldMT, Arial;font-weight:700"><tspan style="letter-spacing:-0.028956667373145232em">N</tspan><tspan x="7.56" y="0" style="letter-spacing:0.003932386927217254em">o</tspan><tspan x="14.27" y="0">v</tspan></text></g><g style="clip-path:url(#clip-path-4)"><text transform="translate(523.14 32.22)" style="font-size:10.91073989868164px;font-family:Arial-BoldMT, Arial;font-weight:700"><tspan style="letter-spacing:-0.028956667373145232em">D</tspan><tspan x="7.56" y="0" style="letter-spacing:0.058985803908258805em">e</tspan><tspan x="14.27" y="0">c</tspan></text><text transform="translate(571.04 32.22)" style="font-size:10.91073989868164px;font-family:Arial-BoldMT, Arial;font-weight:700;letter-spacing:-0.016980761731165417em">J<tspan x="5.88" y="0" style="letter-spacing:0.058985803908258805em">a</tspan><tspan x="12.59" y="0" style="letter-spacing:-0.00008937243016402849em">n</tspan></text><text transform="translate(618.12 32.22)" style="font-size:10.91073989868164px;font-family:Arial-BoldMT, Arial;font-weight:700;letter-spacing:0.004021759357381282em">F<tspan x="6.71" y="0" style="letter-spacing:0.058985803908258805em">e</tspan><tspan x="13.42" y="0" style="letter-spacing:-0.00008937243016402849em">b</tspan></text><text transform="translate(665.18 32.22)" style="font-size:10.91073989868164px;font-family:Arial-BoldMT, Arial;font-weight:700"><tspan style="letter-spacing:0.012959002373784133em">M</tspan><tspan x="9.23" y="0" style="letter-spacing:0.058985803908258805em">a</tspan><tspan x="15.94" y="0">r</tspan></text><text transform="translate(713.09 32.22)" style="font-size:10.91073989868164px;font-family:Arial-BoldMT, Arial;font-weight:700;letter-spacing:-0.028956667373145232em">A<tspan x="7.56" y="0" style="letter-spacing:0.003932386927217254em">p</tspan><tspan x="14.27" y="0" style="letter-spacing:0.00008937243016402849em">r</tspan></text><text transform="translate(758.48 32.22)" style="font-size:10.91073989868164px;font-family:Arial-BoldMT, Arial;font-weight:700"><tspan style="letter-spacing:0.012959002373784133em">M</tspan><tspan x="9.23" y="0" style="letter-spacing:0.058985803908258805em">a</tspan><tspan x="15.94" y="0">y</tspan></text><text transform="translate(806.39 32.22)" style="font-size:10.91073989868164px;font-family:Arial-BoldMT, Arial;font-weight:700"><tspan style="letter-spacing:-0.016980761731165417em">J</tspan><tspan x="5.88" y="0" style="letter-spacing:0.003932386927217254em">u</tspan><tspan x="12.59" y="0">n</tspan></text><text transform="translate(852.62 32.22)" style="font-size:10.91073989868164px;font-family:Arial-BoldMT, Arial;font-weight:700"><tspan style="letter-spacing:-0.016980761731165417em">J</tspan><tspan x="5.88" y="0" style="letter-spacing:0.003932386927217254em">u</tspan><tspan x="12.59" y="0" style="letter-spacing:0.028956667373145232em">l</tspan><tspan x="15.94" y="0">y</tspan></text></g><g style="clip-path:url(#clip-path-5)"><text transform="translate(38.99 122.86)" style="font-size:10.91073989868164px;font-family:Arial-BoldMT, Arial;font-weight:700;letter-spacing:0.055947141282681835em">W<tspan x="10.91" y="0" style="letter-spacing:0.025024280445927978em">P</tspan><tspan x="18.46" y="0" style="letter-spacing:0.00008937243016402849em">H</tspan></text></g><g style="clip-path:url(#clip-path-6)"><text transform="translate(40.67 253.79)" style="font-size:10.91073989868164px;font-family:Arial-BoldMT, Arial;font-weight:700"><tspan style="letter-spacing:-0.007954146284598536em">G</tspan><tspan x="8.4" y="0" style="letter-spacing:0.025024280445927978em">P</tspan><tspan x="15.95" y="0">H</tspan></text></g><g style="clip-path:url(#clip-path-7)"><text transform="translate(133.13 122.86)" style="font-size:10.91073989868164px;font-family:Arial-BoldMT, Arial;font-weight:700"><tspan style="letter-spacing:-0.028956667373145232em">R</tspan><tspan x="7.56" y="0" style="letter-spacing:-0.025024280445927978em">-</tspan><tspan x="10.92" y="0">6</tspan></text></g><g style="clip-path:url(#clip-path-8)"><text transform="translate(133.13 253.79)" style="font-size:10.91073989868164px;font-family:Arial-BoldMT, Arial;font-weight:700"><tspan style="letter-spacing:-0.028956667373145232em">R</tspan><tspan x="7.56" y="0" style="letter-spacing:-0.025024280445927978em">-</tspan><tspan x="10.92" y="0">2</tspan></text></g><g style="clip-path:url(#clip-path-9)"><text transform="translate(400.41 79.22)" style="font-size:10.91073989868164px;fill:#fff;font-family:Arial-BoldMT, Arial;font-weight:700"><tspan style="letter-spacing:-0.028956667373145232em">K</tspan><tspan x="7.56" y="0" style="letter-spacing:0.003932386927217254em">h</tspan><tspan x="14.27" y="0" style="letter-spacing:0.058985803908258805em">a</tspan><tspan x="20.98" y="0" style="letter-spacing:-0.003932386927217254em">r</tspan><tspan x="25.19" y="0" style="letter-spacing:0.028956667373145232em">i</tspan><tspan x="28.53" y="0">f</tspan></text></g><g style="clip-path:url(#clip-path-10)"><text transform="translate(521.45 122.86)" style="font-size:10.91073989868164px;fill:#fff;font-family:Arial-BoldMT, Arial;font-weight:700"><tspan style="letter-spacing:-0.028956667373145232em">R</tspan><tspan x="7.56" y="0" style="letter-spacing:0.058985803908258805em">a</tspan><tspan x="14.27" y="0" style="letter-spacing:0.003932386927217254em">b</tspan><tspan x="20.98" y="0">i</tspan></text></g><g style="clip-path:url(#clip-path-11)"><text transform="translate(676.11 166.5)" style="font-size:10.91073989868164px;fill:#fff;font-family:Arial-BoldMT, Arial;font-weight:700"><tspan style="letter-spacing:0.025024280445927978em">S</tspan><tspan x="7.55" y="0" style="letter-spacing:0.003932386927217254em">u</tspan><tspan x="14.26" y="0" style="letter-spacing:0.03297842673052651em">mm</tspan><tspan x="34.38" y="0" style="letter-spacing:0.058985803908258805em">e</tspan><tspan x="41.09" y="0">r</tspan></text></g><g style="clip-path:url(#clip-path-12)"><text transform="translate(400.41 210.15)" style="font-size:10.91073989868164px;fill:#fff;font-family:Arial-BoldMT, Arial;font-weight:700"><tspan style="letter-spacing:-0.028956667373145232em">K</tspan><tspan x="7.56" y="0" style="letter-spacing:0.003932386927217254em">h</tspan><tspan x="14.27" y="0" style="letter-spacing:0.058985803908258805em">a</tspan><tspan x="20.98" y="0" style="letter-spacing:-0.003932386927217254em">r</tspan><tspan x="25.19" y="0" style="letter-spacing:0.028956667373145232em">i</tspan><tspan x="28.53" y="0">f</tspan></text></g><g style="clip-path:url(#clip-path-13)"><text transform="translate(521.45 253.79)" style="font-size:10.91073989868164px;fill:#fff;font-family:Arial-BoldMT, Arial;font-weight:700"><tspan style="letter-spacing:-0.028956667373145232em">R</tspan><tspan x="7.56" y="0" style="letter-spacing:0.058985803908258805em">a</tspan><tspan x="14.27" y="0" style="letter-spacing:0.003932386927217254em">b</tspan><tspan x="20.98" y="0">i</tspan></text></g><g style="clip-path:url(#clip-path-14)"><text transform="translate(4.52 332.68)" style="font-size:10.91073989868164px;font-family:Arial-BoldMT, Arial;font-weight:700"><tspan style="letter-spacing:-0.028956667373145232em">N</tspan><tspan x="7.56" y="0" style="letter-spacing:0.003932386927217254em">o</tspan><tspan x="14.27" y="0" style="letter-spacing:-0.024934908015763948em">t</tspan><tspan x="17.63" y="0" style="letter-spacing:0.058985803908258805em">e</tspan><tspan x="24.34" y="0">:</tspan></text><text transform="translate(32.26 332.68)" style="font-size:10.91073989868164px;font-family:ArialMT, Arial"> </text><text transform="translate(35.62 332.68)" style="font-size:10.91073989868164px;font-family:Arial-BoldMT, Arial;font-weight:700;letter-spacing:0.055947141282681835em">W<tspan x="10.91" y="0" style="letter-spacing:0.025024280445927978em">P</tspan><tspan x="18.46" y="0" style="letter-spacing:0.00008937243016402849em">H</tspan></text><text transform="translate(61.68 332.68)" style="font-size:10.91073989868164px;font-family:ArialMT, Arial"><tspan style="letter-spacing:0.028956667373145232em"> </tspan><tspan x="3.35" y="0" style="letter-spacing:0.05603651371284587em">W</tspan><tspan x="14.26" y="0" style="letter-spacing:-0.017070134161329437em">e</tspan><tspan x="20.14" y="0" style="letter-spacing:0.03798328281971211em">s</tspan><tspan x="26.01" y="0" style="letter-spacing:0.028956667373145232em">t</tspan><tspan x="29.36" y="0" style="letter-spacing:-0.016980761731165417em">e</tspan><tspan x="35.24" y="0" style="letter-spacing:-0.025024280445927978em">r</tspan><tspan x="38.6" y="0" style="letter-spacing:-0.016980761731165417em">n</tspan><tspan x="44.48" y="0" style="letter-spacing:0.028956667373145232em"> </tspan><tspan x="47.83" y="0" style="letter-spacing:0.025024280445927978em">P</tspan><tspan x="55.38" y="0" style="letter-spacing:0.007954146284598536em">l</tspan><tspan x="57.89" y="0" style="letter-spacing:-0.016980761731165417em">a</tspan><tspan x="63.77" y="0" style="letter-spacing:0.028956667373145232em">t</tspan><tspan x="67.12" y="0" style="letter-spacing:-0.016980761731165417em">eau</tspan><tspan x="84.77" y="0" style="letter-spacing:0.028956667373145232em"> </tspan><tspan x="88.12" y="0" style="letter-spacing:0.025024280445927978em">&amp;</tspan><tspan x="95.67" y="0" style="letter-spacing:0.028956667373145232em"> </tspan><tspan x="99.02" y="0" style="letter-spacing:-0.028956667373145232em">H</tspan><tspan x="106.58" y="0" style="letter-spacing:0.007954146284598536em">ill</tspan><tspan x="114.11" y="0" style="letter-spacing:0.03798328281971211em">s</tspan><tspan x="119.98" y="0" style="letter-spacing:0.028956667373145232em">,</tspan><tspan x="123.33" y="0"> </tspan></text><text transform="translate(188.6 332.68)" style="font-size:10.91073989868164px;font-family:Arial-BoldMT, Arial;font-weight:700"><tspan style="letter-spacing:-0.007954146284598536em">G</tspan><tspan x="8.4" y="0" style="letter-spacing:0.025024280445927978em">P</tspan><tspan x="15.95" y="0">H</tspan></text><text transform="translate(212.14 332.68)" style="font-size:10.91073989868164px;font-family:ArialMT, Arial;letter-spacing:0.028956667373145232em"> <tspan x="3.35" y="0" style="letter-spacing:-0.007954146284598536em">G</tspan><tspan x="11.75" y="0" style="letter-spacing:-0.016980761731165417em">u</tspan><tspan x="17.63" y="0" style="letter-spacing:0.007954146284598536em">j</tspan><tspan x="20.14" y="0" style="letter-spacing:-0.016980761731165417em">a</tspan><tspan x="26.02" y="0" style="letter-spacing:-0.025024280445927978em">r</tspan><tspan x="29.38" y="0" style="letter-spacing:-0.016980761731165417em">a</tspan><tspan x="35.27" y="0">t </tspan><tspan x="41.96" y="0" style="letter-spacing:0.025024280445927978em">P</tspan><tspan x="49.51" y="0" style="letter-spacing:0.007954146284598536em">l</tspan><tspan x="52.02" y="0" style="letter-spacing:-0.016980761731165417em">a</tspan><tspan x="57.91" y="0" style="letter-spacing:0.007954146284598536em">i</tspan><tspan x="60.42" y="0" style="letter-spacing:-0.016980761731165417em">n</tspan><tspan x="66.3" y="0" style="letter-spacing:0.037893910389548084em">s</tspan><tspan x="72.17" y="0" style="letter-spacing:0.02904603980330926em"> </tspan><tspan x="75.52" y="0" style="letter-spacing:-0.017070134161329437em">and</tspan><tspan x="93.17" y="0"> </tspan><tspan x="96.51" y="0" style="letter-spacing:-0.028956667373145232em">H</tspan><tspan x="104.08" y="0" style="letter-spacing:0.007954146284598536em">ill</tspan><tspan x="111.61" y="0" style="letter-spacing:0.03798328281971211em">s</tspan><tspan x="117.48" y="0"> </tspan><tspan x="120.83" y="0" style="letter-spacing:-0.00008937243016402849em"> </tspan></text><text transform="translate(336.53 332.68)" style="font-size:10.91073989868164px;font-family:Arial-BoldMT, Arial;font-weight:700"><tspan style="letter-spacing:-0.028956667373145232em">K</tspan><tspan x="7.56" y="0" style="letter-spacing:0.003932386927217254em">h</tspan><tspan x="14.27" y="0" style="letter-spacing:0.058985803908258805em">a</tspan><tspan x="20.98" y="0" style="letter-spacing:-0.003932386927217254em">r</tspan><tspan x="25.19" y="0" style="letter-spacing:0.028956667373145232em">i</tspan><tspan x="28.53" y="0">f</tspan></text><text transform="translate(368.48 332.68)" style="font-size:10.91073989868164px;font-family:ArialMT, Arial"><tspan style="letter-spacing:0.028956667373145232em"> </tspan><tspan x="3.35" y="0" style="letter-spacing:0.012959002373784133em">M</tspan><tspan x="12.58" y="0" style="letter-spacing:-0.024934908015763948em">r</tspan><tspan x="15.94" y="0" style="letter-spacing:0.007954146284598536em">i</tspan><tspan x="18.45" y="0" style="letter-spacing:-0.016980761731165417em">g</tspan><tspan x="24.33" y="0" style="letter-spacing:0.028956667373145232em"> </tspan><tspan x="27.68" y="0" style="letter-spacing:0.025024280445927978em">B</tspan><tspan x="35.23" y="0" style="letter-spacing:-0.017070134161329437em">aha</tspan><tspan x="52.88" y="0" style="letter-spacing:-0.025024280445927978em">r</tspan><tspan x="56.24" y="0" style="letter-spacing:0.028956667373145232em">,</tspan><tspan x="59.59" y="0"> </tspan></text><text transform="translate(431.51 332.68)" style="font-size:10.91073989868164px;font-family:Arial-BoldMT, Arial;font-weight:700"><tspan style="letter-spacing:-0.028956667373145232em">R</tspan><tspan x="7.56" y="0" style="letter-spacing:0.058985803908258805em">a</tspan><tspan x="14.27" y="0" style="letter-spacing:0.003932386927217254em">b</tspan><tspan x="20.98" y="0">i</tspan></text><text transform="translate(455.89 332.68)" style="font-size:10.91073989868164px;font-family:ArialMT, Arial;letter-spacing:0.028956667373145232em"> <tspan x="3.35" y="0" style="letter-spacing:-0.028956667373145232em">H</tspan><tspan x="10.91" y="0" style="letter-spacing:-0.016980761731165417em">a</tspan><tspan x="16.79" y="0" style="letter-spacing:0.03798328281971211em">s</tspan><tspan x="22.66" y="0">t</tspan><tspan x="26.01" y="0" style="letter-spacing:-0.017070134161329437em">a</tspan><tspan x="31.89" y="0" style="letter-spacing:0.02904603980330926em"> </tspan><tspan x="35.24" y="0" style="letter-spacing:0.024934908015763948em">B</tspan><tspan x="42.79" y="0" style="letter-spacing:-0.016980761731165417em">aha</tspan><tspan x="60.44" y="0" style="letter-spacing:-0.024934908015763948em">r</tspan><tspan x="63.8" y="0">,</tspan><tspan x="67.15" y="0" style="letter-spacing:-0.00008937243016402849em"> </tspan></text><text transform="translate(526.49 332.68)" style="font-size:10.91073989868164px;font-family:Arial-BoldMT, Arial;font-weight:700"><tspan style="letter-spacing:0.025024280445927978em">S</tspan><tspan x="7.55" y="0" style="letter-spacing:0.003932386927217254em">u</tspan><tspan x="14.26" y="0" style="letter-spacing:0.03297842673052651em">mm</tspan><tspan x="34.38" y="0" style="letter-spacing:0.058985803908258805em">e</tspan><tspan x="41.09" y="0" style="letter-spacing:-0.004021759357381282em">r</tspan><tspan x="45.3" y="0"> </tspan></text><text transform="translate(575.24 332.68)" style="font-size:10.91073989868164px;font-family:ArialMT, Arial;letter-spacing:0.025024280445927978em">A<tspan x="7.55" y="0" style="letter-spacing:0.012959002373784133em">m</tspan><tspan x="16.78" y="0" style="letter-spacing:-0.016980761731165417em">b</tspan><tspan x="22.66" y="0" style="letter-spacing:0.007954146284598536em">i</tspan><tspan x="25.17" y="0" style="letter-spacing:-0.016980761731165417em">a</tspan><tspan x="31.06" y="0" style="letter-spacing:0.028956667373145232em"> </tspan><tspan x="34.41" y="0">B</tspan><tspan x="41.96" y="0" style="letter-spacing:-0.017070134161329437em">aha</tspan><tspan x="59.6" y="0" style="letter-spacing:0.00008937243016402849em">r</tspan></text></g><g style="clip-path:url(#clip-path-15)"><text transform="translate(676.11 297.43)" style="font-size:10.91073989868164px;fill:#fff;font-family:Arial-BoldMT, Arial;font-weight:700"><tspan style="letter-spacing:0.025024280445927978em">S</tspan><tspan x="7.55" y="0" style="letter-spacing:0.003932386927217254em">u</tspan><tspan x="14.26" y="0" style="letter-spacing:0.03297842673052651em">mm</tspan><tspan x="34.38" y="0" style="letter-spacing:0.058985803908258805em">e</tspan><tspan x="41.09" y="0">r</tspan></text></g><g style="clip-path:url(#clip-path-16)"><polyline points="2.84 2 2.84 2.84 887.08 2.84 887.08 2 2.84 2" style="fill:#bfbfbf;fill-rule:evenodd"/><polyline points="227.26 2.84 227.26 54.04 228.1 54.04 228.1 2.84 227.26 2.84" style="fill:#bfbfbf;fill-rule:evenodd"/><polyline points="274.33 2.84 274.33 54.04 275.17 54.04 275.17 2.84 274.33 2.84" style="fill:#bfbfbf;fill-rule:evenodd"/><polyline points="556.75 2.84 556.75 54.04 557.59 54.04 557.59 2.84 556.75 2.84" style="fill:#bfbfbf;fill-rule:evenodd"/><polyline points="603.82 2.84 603.82 54.04 604.66 54.04 604.66 2.84 603.82 2.84" style="fill:#bfbfbf;fill-rule:evenodd"/><polyline points="2.84 53.2 2.84 54.04 887.08 54.04 887.08 53.2 2.84 53.2" style="fill:#bfbfbf;fill-rule:evenodd"/><polyline points="368.47 2.84 368.47 54.04 369.31 54.04 369.31 2.84 368.47 2.84" style="fill:#bfbfbf;fill-rule:evenodd"/><polyline points="415.54 2.84 415.54 54.04 416.38 54.04 416.38 2.84 415.54 2.84" style="fill:#bfbfbf;fill-rule:evenodd"/><polyline points="650.89 2.84 650.89 54.04 651.73 54.04 651.73 2.84 650.89 2.84" style="fill:#bfbfbf;fill-rule:evenodd"/><polyline points="697.96 2.84 697.96 54.04 698.8 54.04 698.8 2.84 697.96 2.84" style="fill:#bfbfbf;fill-rule:evenodd"/><polyline points="181.03 96.84 181.03 97.68 887.08 97.68 887.08 96.84 181.03 96.84" style="fill:#bfbfbf;fill-rule:evenodd"/><polyline points="792.1 2.84 792.1 54.04 792.94 54.04 792.94 2.84 792.1 2.84" style="fill:#bfbfbf;fill-rule:evenodd"/><polyline points="839.17 2.84 839.17 54.04 840.01 54.04 840.01 2.84 839.17 2.84" style="fill:#bfbfbf;fill-rule:evenodd"/><polyline points="181.03 140.48 181.03 141.32 887.08 141.32 887.08 140.48 181.03 140.48" style="fill:#bfbfbf;fill-rule:evenodd"/><polyline points="2.84 184.13 2.84 184.97 887.08 184.97 887.08 184.13 2.84 184.13" style="fill:#bfbfbf;fill-rule:evenodd"/><polyline points="181.03 227.77 181.03 228.61 887.08 228.61 887.08 227.77 181.03 227.77" style="fill:#bfbfbf;fill-rule:evenodd"/><polyline points="603.82 184.97 603.82 228.61 604.66 228.61 604.66 184.97 603.82 184.97" style="fill:#bfbfbf;fill-rule:evenodd"/><polyline points="181.03 271.41 181.03 272.25 887.08 272.25 887.08 271.41 181.03 271.41" style="fill:#bfbfbf;fill-rule:evenodd"/><polyline points="2 2 2 315.89 2.84 315.89 2.84 2 2 2" style="fill:#bfbfbf;fill-rule:evenodd"/><polyline points="2.84 315.05 2.84 315.89 887.08 315.89 887.08 315.05 2.84 315.05" style="fill:#bfbfbf;fill-rule:evenodd"/><polyline points="886.24 2.84 886.24 315.89 887.08 315.89 887.08 2.84 886.24 2.84" style="fill:#bfbfbf;fill-rule:evenodd"/><polyline points="2 315.89 2 350.3 2.84 350.3 2.84 315.89 2 315.89" style="fill:#fff;fill-rule:evenodd"/><polyline points="101.18 2.84 101.18 315.89 102.02 315.89 102.02 2.84 101.18 2.84" style="fill:#bfbfbf;fill-rule:evenodd"/><polyline points="180.19 2.84 180.19 315.89 181.03 315.89 181.03 2.84 180.19 2.84" style="fill:#bfbfbf;fill-rule:evenodd"/><polyline points="321.4 2.84 321.4 54.04 322.24 54.04 322.24 2.84 321.4 2.84" style="fill:#bfbfbf;fill-rule:evenodd"/><polyline points="462.61 2.84 462.61 54.04 463.45 54.04 463.45 2.84 462.61 2.84" style="fill:#bfbfbf;fill-rule:evenodd"/><polyline points="509.68 2.84 509.68 54.04 510.52 54.04 510.52 2.84 509.68 2.84" style="fill:#bfbfbf;fill-rule:evenodd"/><polyline points="745.03 2.84 745.03 54.04 745.87 54.04 745.87 2.84 745.03 2.84" style="fill:#bfbfbf;fill-rule:evenodd"/><polyline points="2.84 349.46 2.84 350.3 887.08 350.3 887.08 349.46 2.84 349.46" style="fill:#fff;fill-rule:evenodd"/><polyline points="886.24 315.89 886.24 350.3 887.08 350.3 887.08 315.89 886.24 315.89" style="fill:#fff;fill-rule:evenodd"/></g></svg>