<svg id="Layer_1" data-name="Layer 1" xmlns="http://www.w3.org/2000/svg" xmlns:xlink="http://www.w3.org/1999/xlink" viewBox="0 0 900 350"><defs><clipPath id="clip-path"><polygon points="0 351.28 899.86 351.28 899.86 0 0 0 0 351.28 0 351.28" style="fill:none;clip-rule:evenodd"/></clipPath><clipPath id="clip-path-2"><polygon points="65.63 310.94 887.28 310.94 887.28 17.91 65.63 17.91 65.63 310.94 65.63 310.94" style="fill:none;clip-rule:evenodd"/></clipPath><clipPath id="clip-path-6"><rect width="899.86" height="351.28" style="fill:none"/></clipPath><clipPath id="clip-path-10"><rect x="187.47" y="42.25" width="165.04" height="17.09" style="fill:none"/></clipPath><clipPath id="clip-path-11"><rect x="620.65" y="44.71" width="129.49" height="17.09" style="fill:none"/></clipPath></defs><title>yar</title><polygon points="0.14 0.14 900 0.14 900 351.28 0.14 351.28 0.14 0.14 0.14 0.14" style="fill:#eaeaea;fill-rule:evenodd"/><polygon points="65.63 18.05 886.46 18.05 886.46 310.12 65.63 310.12 65.63 18.05 65.63 18.05" style="fill:#fff;fill-rule:evenodd"/><path d="M65.63,310.12H886.46m-820.83-146H886.46m-820.83-73H886.46m-820.83-73H886.46" style="fill:none;stroke:#d9d9d9;stroke-linejoin:round;stroke-width:0.820419262220554px"/><g style="clip-path:url(#clip-path)"><path d="M65.63,18.05V310.12M476.12,18.05V310.12M886.46,18.05V310.12" style="fill:none;stroke:#d9d9d9;stroke-linejoin:round;stroke-width:0.820419262220554px"/></g><g style="clip-path:url(#clip-path-2)"><path d="M234,237.1h73.83v25.71H234V237.1Zm410.48,0h73.84v3.15H644.44V237.1Z" style="fill:#ff25f3"/></g><g style="clip-path:url(#clip-path-2)"><path d="M234,80.81h73.83V237.1H234V80.81Zm410.48-1.37h73.84V237.1H644.44V79.44Z" style="fill:#5e9fff"/></g><g style="clip-path:url(#clip-path-2)"><path d="M234,55.1h73.83V80.81H234V55.1ZM644.44,76.3h73.84v3.14H644.44V76.3Z" style="fill:#0044ab"/></g><g style="clip-path:url(#clip-path)"><line x1="65.63" y1="237.1" x2="886.46" y2="237.1" style="fill:none;stroke:#d9d9d9;stroke-linejoin:round;stroke-width:0.820419262220554px"/></g><g style="clip-path:url(#clip-path-6)"><text transform="translate(263.56 274.68)" style="font-size:9.16135025024414px;font-family:Arial-BoldMT, Arial;font-weight:700">-</text></g><g style="clip-path:url(#clip-path-6)"><text transform="translate(266.57 274.68)" style="font-size:9.16135025024414px;font-family:Arial-BoldMT, Arial;font-weight:700;letter-spacing:-0.002984685581611872em">16<tspan x="10.13" y="0" style="letter-spacing:0.00010659591362899542em">%</tspan></text></g><g style="clip-path:url(#clip-path-6)"><text transform="translate(681.71 258.73)" style="font-size:9.16135025024414px;font-family:Arial-BoldMT, Arial;font-weight:700">-</text></g><g style="clip-path:url(#clip-path-6)"><text transform="translate(684.71 258.73)" style="font-size:9.16135025024414px;font-family:Arial-BoldMT, Arial;font-weight:700;letter-spacing:-0.002984685581611872em">2<tspan x="5.07" y="0" style="letter-spacing:0.00010659591362899542em">%</tspan></text></g><g style="clip-path:url(#clip-path-10)"><text transform="translate(258.21 54.19)" style="font-size:9.16135025024414px;font-family:Arial-BoldMT, Arial;font-weight:700"><tspan style="letter-spacing:-0.0009593632226609588em">+</tspan><tspan x="5.34" y="0" style="letter-spacing:-0.002984685581611872em">16</tspan><tspan x="15.48" y="0">%</tspan></text></g><g style="clip-path:url(#clip-path-11)"><text transform="translate(676.17 56.66)" style="font-size:9.16135025024414px;font-family:Arial-BoldMT, Arial;font-weight:700;letter-spacing:-0.0009593632226609588em">+<tspan x="5.34" y="0" style="letter-spacing:-0.002984685581611872em">2</tspan><tspan x="10.41" y="0" style="letter-spacing:0.00010659591362899542em">%</tspan></text></g><g style="clip-path:url(#clip-path-6)"><text transform="translate(33.49 313.39)" style="font-size:10.255240440368652px;font-family:Arial-BoldMT, Arial;font-weight:700">-<tspan x="3.42" y="0" style="letter-spacing:0.0030472225572584074em">3</tspan><tspan x="9.15" y="0" style="letter-spacing:0.0019045140982865045em">.</tspan><tspan x="12.02" y="0" style="letter-spacing:-0.008951216261946572em">0</tspan><tspan x="17.63" y="0" style="letter-spacing:0.00009522570491432523em">0</tspan></text></g><g style="clip-path:url(#clip-path-6)"><text transform="translate(36.9 240.37)" style="font-size:10.255240440368652px;font-family:Arial-BoldMT, Arial;font-weight:700;letter-spacing:0.0030472225572584074em">0<tspan x="5.73" y="0" style="letter-spacing:0.0019045140982865045em">.</tspan><tspan x="8.6" y="0" style="letter-spacing:-0.008951216261946572em">0</tspan><tspan x="14.21" y="0" style="letter-spacing:0.00009522570491432523em">0</tspan></text></g><g style="clip-path:url(#clip-path-6)"><text transform="translate(36.9 167.32)" style="font-size:10.255240440368652px;font-family:Arial-BoldMT, Arial;font-weight:700;letter-spacing:0.0030472225572584074em">3<tspan x="5.73" y="0" style="letter-spacing:0.0019045140982865045em">.</tspan><tspan x="8.6" y="0" style="letter-spacing:-0.008951216261946572em">0</tspan><tspan x="14.21" y="0" style="letter-spacing:0.00009522570491432523em">0</tspan></text></g><g style="clip-path:url(#clip-path-6)"><text transform="translate(36.9 94.29)" style="font-size:10.255240440368652px;font-family:Arial-BoldMT, Arial;font-weight:700;letter-spacing:0.0030472225572584074em">6<tspan x="5.73" y="0" style="letter-spacing:0.0019045140982865045em">.</tspan><tspan x="8.6" y="0" style="letter-spacing:-0.008951216261946572em">0</tspan><tspan x="14.21" y="0" style="letter-spacing:0.00009522570491432523em">0</tspan></text></g><g style="clip-path:url(#clip-path-6)"><text transform="translate(36.9 21.26)" style="font-size:10.255240440368652px;font-family:Arial-BoldMT, Arial;font-weight:700;letter-spacing:0.0030472225572584074em">9<tspan x="5.73" y="0" style="letter-spacing:0.0019045140982865045em">.</tspan><tspan x="8.6" y="0" style="letter-spacing:-0.008951216261946572em">0</tspan><tspan x="14.21" y="0" style="letter-spacing:0.00009522570491432523em">0</tspan></text></g><g style="clip-path:url(#clip-path-6)"><text transform="translate(262.62 325.62)" style="font-size:10.255240440368652px;font-family:Arial-BoldMT, Arial;font-weight:700"><tspan style="letter-spacing:-0.00199973980320083em">R</tspan><tspan x="7.39" y="0">-2</tspan></text></g><g style="clip-path:url(#clip-path-6)"><text transform="translate(673.04 325.62)" style="font-size:10.255240440368652px;font-family:Arial-BoldMT, Arial;font-weight:700"><tspan style="letter-spacing:-0.00199973980320083em">R</tspan><tspan x="7.39" y="0">-6</tspan></text></g><g style="clip-path:url(#clip-path-6)"><text transform="translate(19.54 227) rotate(-90)" style="font-size:11.349129676818848px;font-family:Arial-BoldMT, Arial;font-weight:700"><tspan style="letter-spacing:0.004990746128814728em">Q</tspan><tspan x="8.88" y="0" style="letter-spacing:0.0029256097996500125em">u</tspan><tspan x="15.85" y="0" style="letter-spacing:-0.0009465208175338276em">a</tspan><tspan x="22.15" y="0" style="letter-spacing:0.0030116571466985423em">n</tspan><tspan x="29.12" y="0" style="letter-spacing:0.0039581779642323695em">t</tspan><tspan x="32.94" y="0">i</tspan><tspan x="36.1" y="0" style="letter-spacing:0.0040442253112809em">t</tspan><tspan x="39.92" y="0" style="letter-spacing:-0.012993149404327997em">y</tspan><tspan x="46.08" y="0" style="letter-spacing:0.011014060422211812em"> </tspan><tspan x="49.36" y="0" style="letter-spacing:-0.00008604734704852978em">&amp; </tspan><tspan x="60.71" y="0" style="letter-spacing:0.007055882457979442em">Y</tspan><tspan x="68.36" y="0" style="letter-spacing:-0.0009465208175338276em">a</tspan><tspan x="74.66" y="0" style="letter-spacing:-0.00008604734704852978em">R</tspan><tspan x="82.86" y="0" style="letter-spacing:0.011014060422211812em"> </tspan><tspan x="86.14" y="0" style="letter-spacing:0.0040442253112809em">(</tspan><tspan x="89.96" y="0" style="letter-spacing:0.021942073497375095em">M</tspan><tspan x="99.66" y="0" style="letter-spacing:0.014972238386444181em">T</tspan><tspan x="106.77" y="0">)</tspan></text></g><g style="clip-path:url(#clip-path-6)"><text transform="translate(424.21 342.01)" style="font-size:11.349129676818848px;font-family:Arial-BoldMT, Arial;font-weight:700">R<tspan x="8.2" y="0" style="letter-spacing:-0.0010325681645823573em">e</tspan><tspan x="14.5" y="0" style="letter-spacing:0.0030116571466985423em">g</tspan><tspan x="21.46" y="0">i</tspan><tspan x="24.62" y="0" style="letter-spacing:0.0030116571466985423em">on</tspan><tspan x="38.55" y="0" style="letter-spacing:0.00008604734704852978em">s</tspan></text></g><polygon points="0.14 0.14 900 0.14 900 351.28 0.14 351.28 0.14 0.14 0.14 0.14" style="fill:none;stroke:#d9d9d9;stroke-linejoin:round;stroke-width:0.820419330138333px"/></svg>