<?xml version="1.0" encoding="utf-8"?>
<!-- Generator: Adobe Illustrator 23.0.1, SVG Export Plug-In . SVG Version: 6.00 Build 0)  -->
<svg version="1.1" id="Layer_1" xmlns="http://www.w3.org/2000/svg" xmlns:xlink="http://www.w3.org/1999/xlink" x="0px" y="0px"
	 viewBox="0 0 88 48.5" style="enable-background:new 0 0 88 48.5;" xml:space="preserve">
<style type="text/css">
	.st0{fill:none;stroke:#0066FF;stroke-width:0.75;stroke-linejoin:round;stroke-miterlimit:10;}
	.st1{fill:none;stroke:#00C1A3;stroke-width:0.75;stroke-miterlimit:10;}
	
		.st2{fill-rule:evenodd;clip-rule:evenodd;fill:none;stroke:#FF25F3;stroke-width:0.75;stroke-linecap:round;stroke-linejoin:round;stroke-miterlimit:10;}
	.st3{fill:none;stroke:#0066FF;stroke-width:0.75;stroke-miterlimit:10;}
	.st4{fill-rule:evenodd;clip-rule:evenodd;fill:none;stroke:#0066FF;stroke-width:0.75;stroke-miterlimit:10;}
	.st5{fill-rule:evenodd;clip-rule:evenodd;fill:none;stroke:#00C1A3;stroke-width:0.75;stroke-miterlimit:10;}
	.st6{fill:none;stroke:#FF25F3;stroke-width:0.75;stroke-linecap:round;stroke-linejoin:round;stroke-miterlimit:10;}
	.st7{fill:#FFFFFF;stroke:#FF25F3;stroke-width:0.75;stroke-linecap:round;stroke-linejoin:round;stroke-miterlimit:10;}
	.st8{fill-rule:evenodd;clip-rule:evenodd;fill:#FFFFFF;stroke:#0066FF;stroke-width:0.75;stroke-miterlimit:10;}
	
		.st9{fill-rule:evenodd;clip-rule:evenodd;fill:#FFFFFF;stroke:#FF25F3;stroke-width:0.75;stroke-linecap:round;stroke-linejoin:round;stroke-miterlimit:10;}
	.st10{fill-rule:evenodd;clip-rule:evenodd;fill:#FFFFFF;stroke:#00C1A3;stroke-width:0.75;stroke-miterlimit:10;}
	.st11{fill:#FFFFFF;stroke:#00C1A3;stroke-width:0.75;stroke-miterlimit:10;}
	.st12{fill:#FFFFFF;stroke:#0066FF;stroke-width:0.75;stroke-miterlimit:10;}
	.st13{fill:none;stroke:#0066FF;stroke-width:0.75;stroke-linecap:round;stroke-linejoin:round;stroke-miterlimit:10;}
	.st14{fill:#FFFFFF;stroke:#00C1A3;stroke-width:0.75;stroke-linecap:round;stroke-linejoin:round;stroke-miterlimit:10;}
	
		.st15{fill-rule:evenodd;clip-rule:evenodd;fill:#FFFFFF;stroke:#0066FF;stroke-width:0.75;stroke-linecap:round;stroke-linejoin:round;stroke-miterlimit:10;}
	
		.st16{fill-rule:evenodd;clip-rule:evenodd;fill:none;stroke:#0066FF;stroke-width:0.75;stroke-linecap:round;stroke-linejoin:round;stroke-miterlimit:10;}
	.st17{fill:#FFFFFF;stroke:#0066FF;stroke-width:0.75;stroke-linejoin:round;stroke-miterlimit:10;}
</style>
<g>
	<path class="st3" d="M41.2,14.6h41.1c2.5,0,4.5,2,4.5,4.5v0c0,2.5-2,4.5-4.5,4.5H41.2"/>
	<path class="st3" d="M38.3,30.7H25.1c-1.8,0-3.3-1.5-3.3-3.3V12.3c0-1.8,1.5-3.3,3.3-3.3h13.2c1.8,0,3.3,1.5,3.3,3.3v15.1
		C41.6,29.2,40.1,30.7,38.3,30.7z"/>
	<path class="st6" d="M40.2,38.2H23.2c-2.1,0-3.7-1.7-3.7-3.7v0c0-2.1,1.7-3.7,3.7-3.7h16.9c2.1,0,3.7,1.7,3.7,3.7v0
		C43.9,36.5,42.2,38.2,40.2,38.2z"/>
	<path class="st3" d="M40.2,9H23.2c-2.1,0-3.7-1.7-3.7-3.7v0c0-2.1,1.7-3.7,3.7-3.7h16.9c2.1,0,3.7,1.7,3.7,3.7v0
		C43.9,7.3,42.2,9,40.2,9z"/>
	<path class="st3" d="M51.8,47.2H12.9c-2,0-3.6-1.6-3.6-3.6v0c0-2,1.6-3.6,3.6-3.6h38.9c2,0,3.6,1.6,3.6,3.6v0
		C55.4,45.6,53.8,47.2,51.8,47.2z"/>
	<line class="st1" x1="7.4" y1="22.9" x2="16.7" y2="34.9"/>
	<line class="st3" x1="56.5" y1="26.6" x2="47.1" y2="35.1"/>
	<line class="st3" x1="49.1" y1="38.2" x2="61.8" y2="34.4"/>
	<line class="st3" x1="14.8" y1="37.2" x2="0.8" y2="34.8"/>
</g>
</svg>
