<?xml version="1.0" encoding="utf-8"?>
<!-- Generator: Adobe Illustrator 23.0.1, SVG Export Plug-In . SVG Version: 6.00 Build 0)  -->
<svg version="1.1" id="Layer_1" xmlns="http://www.w3.org/2000/svg" xmlns:xlink="http://www.w3.org/1999/xlink" x="0px" y="0px"
	 viewBox="0 0 67.9 44.9" style="enable-background:new 0 0 67.9 44.9;" xml:space="preserve">
<style type="text/css">
	.st0{fill:none;stroke:#0066FF;stroke-width:0.75;stroke-linejoin:round;stroke-miterlimit:10;}
	.st1{fill:none;stroke:#00C1A3;stroke-width:0.75;stroke-miterlimit:10;}
	
		.st2{fill-rule:evenodd;clip-rule:evenodd;fill:none;stroke:#FF25F3;stroke-width:0.75;stroke-linecap:round;stroke-linejoin:round;stroke-miterlimit:10;}
	.st3{fill:none;stroke:#0066FF;stroke-width:0.75;stroke-miterlimit:10;}
	.st4{fill-rule:evenodd;clip-rule:evenodd;fill:none;stroke:#0066FF;stroke-width:0.75;stroke-miterlimit:10;}
	.st5{fill-rule:evenodd;clip-rule:evenodd;fill:none;stroke:#00C1A3;stroke-width:0.75;stroke-miterlimit:10;}
	.st6{fill:none;stroke:#FF25F3;stroke-width:0.75;stroke-linecap:round;stroke-linejoin:round;stroke-miterlimit:10;}
	.st7{fill:#FFFFFF;stroke:#FF25F3;stroke-width:0.75;stroke-linecap:round;stroke-linejoin:round;stroke-miterlimit:10;}
	.st8{fill-rule:evenodd;clip-rule:evenodd;fill:#FFFFFF;stroke:#0066FF;stroke-width:0.75;stroke-miterlimit:10;}
	
		.st9{fill-rule:evenodd;clip-rule:evenodd;fill:#FFFFFF;stroke:#FF25F3;stroke-width:0.75;stroke-linecap:round;stroke-linejoin:round;stroke-miterlimit:10;}
	.st10{fill-rule:evenodd;clip-rule:evenodd;fill:#FFFFFF;stroke:#00C1A3;stroke-width:0.75;stroke-miterlimit:10;}
	.st11{fill:#FFFFFF;stroke:#00C1A3;stroke-width:0.75;stroke-miterlimit:10;}
	.st12{fill:#FFFFFF;stroke:#0066FF;stroke-width:0.75;stroke-miterlimit:10;}
	.st13{fill:none;stroke:#0066FF;stroke-width:0.75;stroke-linecap:round;stroke-linejoin:round;stroke-miterlimit:10;}
	.st14{fill:#FFFFFF;stroke:#00C1A3;stroke-width:0.75;stroke-linecap:round;stroke-linejoin:round;stroke-miterlimit:10;}
	
		.st15{fill-rule:evenodd;clip-rule:evenodd;fill:#FFFFFF;stroke:#0066FF;stroke-width:0.75;stroke-linecap:round;stroke-linejoin:round;stroke-miterlimit:10;}
	
		.st16{fill-rule:evenodd;clip-rule:evenodd;fill:none;stroke:#0066FF;stroke-width:0.75;stroke-linecap:round;stroke-linejoin:round;stroke-miterlimit:10;}
	.st17{fill:#FFFFFF;stroke:#0066FF;stroke-width:0.75;stroke-linejoin:round;stroke-miterlimit:10;}
</style>
<line class="st0" x1="359.6" y1="401.5" x2="359.6" y2="430.3"/>
<line class="st0" x1="372.7" y1="401.6" x2="372.7" y2="441.6"/>
<line class="st0" x1="385.8" y1="417.3" x2="385.8" y2="441.6"/>
<line class="st0" x1="398.9" y1="395.9" x2="398.9" y2="429.8"/>
<g>
	<rect x="-248.7" y="64.8" class="st1" width="19.6" height="26.1"/>
</g>
<polyline class="st2" points="-245.2,79.1 -240.4,84 -232.3,72.9 "/>
<g>
	<path class="st3" d="M-256.9,92.9c1.3,0.7,2.8,1.8,4,2.5c1.9,1.1,3.6,2.4,5.6,3.5c2.5,1.4,5.3-0.9,3.9-3.7c-0.5-0.9-9.5-6.4-11-7.3
		c-1.7-1-3.9-2.8-6.4-2.9c-2.7-0.1-11,5.5-11,5.5c0,2.9,0,9,0,11.2l5-3.7c0.7-0.5,1.3-1,2.6-0.8c1.6,0.3,7.5,4.2,9,5.2
		c4.4,2.9,5.7,2.4,11.3,1.1c4-0.9,7.8-1.8,11.8-2.7c1.9-0.4,4.3-0.6,5.1-2c1.1-2-0.4-4.1-2.4-4.1c-0.8,0-13.6,2.8-14,3"/>
</g>
<g>
	<line class="st4" x1="-95.2" y1="186.9" x2="-104.8" y2="181.4"/>
	<line class="st4" x1="-90.1" y1="207.1" x2="-90.1" y2="196.9"/>
	<line class="st4" x1="-104.8" y1="221.8" x2="-95.7" y2="216.4"/>
	<line class="st4" x1="-124.9" y1="216.5" x2="-116.1" y2="221.7"/>
	<line class="st4" x1="-130.6" y1="195.6" x2="-130.6" y2="207.4"/>
	<line class="st4" x1="-115.8" y1="181.2" x2="-125.2" y2="186.7"/>
	<line class="st3" x1="-125.2" y1="193" x2="-115.8" y2="198.4"/>
	<line class="st3" x1="-104.9" y1="198.4" x2="-95.5" y2="193"/>
	<line class="st3" x1="-110.3" y1="195.2" x2="-110.3" y2="184.4"/>
	<line class="st3" x1="-115.8" y1="204.7" x2="-125.2" y2="210"/>
	<line class="st3" x1="-110.3" y1="207.9" x2="-110.3" y2="218.6"/>
	<line class="st3" x1="-104.9" y1="204.7" x2="-95.5" y2="210"/>
	<g>
		<polygon class="st4" points="-136.1,186.7 -136.1,193 -130.6,196.2 -125.2,193 -125.2,186.7 -130.6,183.5 		"/>
		<line class="st3" x1="-136.1" y1="186.7" x2="-130.6" y2="189.8"/>
		<line class="st3" x1="-125.2" y1="186.7" x2="-130.6" y2="189.8"/>
		<line class="st3" x1="-130.6" y1="196.2" x2="-130.6" y2="189.8"/>
	</g>
	<g>
		<polygon class="st4" points="-136,210.1 -136,216.4 -130.5,219.6 -125,216.4 -125,210.1 -130.5,206.9 		"/>
		<line class="st3" x1="-136" y1="210.1" x2="-130.5" y2="213.2"/>
		<line class="st3" x1="-125" y1="210.1" x2="-130.5" y2="213.2"/>
		<line class="st3" x1="-130.5" y1="219.6" x2="-130.5" y2="213.2"/>
	</g>
	<g>
		<polygon class="st4" points="-115.8,221.4 -115.8,227.7 -110.3,230.9 -104.9,227.7 -104.9,221.4 -110.3,218.2 		"/>
		<line class="st3" x1="-110.3" y1="224.5" x2="-115.8" y2="221.4"/>
		<line class="st3" x1="-104.9" y1="221.4" x2="-110.3" y2="224.5"/>
		<line class="st3" x1="-110.3" y1="230.9" x2="-110.3" y2="224.5"/>
	</g>
	<g>
		<polygon class="st5" points="-95.6,210.1 -95.6,216.4 -90.1,219.6 -84.6,216.4 -84.6,210.1 -90.1,206.9 		"/>
		<line class="st1" x1="-95.6" y1="210.1" x2="-90.1" y2="213.2"/>
		<line class="st1" x1="-84.6" y1="210.1" x2="-90.1" y2="213.2"/>
		<line class="st1" x1="-90.1" y1="219.6" x2="-90.1" y2="213.2"/>
	</g>
	<g>
		<polygon class="st4" points="-95.6,187.1 -95.6,193.5 -90.1,196.6 -84.6,193.5 -84.6,187.1 -90.1,184 		"/>
		<line class="st3" x1="-95.6" y1="187.1" x2="-90.1" y2="190.2"/>
		<line class="st3" x1="-84.6" y1="187.1" x2="-90.1" y2="190.2"/>
		<line class="st3" x1="-90.1" y1="196.6" x2="-90.1" y2="190.2"/>
	</g>
	<g>
		<polygon class="st2" points="-115.8,175.6 -115.8,181.9 -110.3,185.1 -104.9,181.9 -104.9,175.6 -110.3,172.4 		"/>
		<line class="st6" x1="-115.8" y1="175.6" x2="-110.3" y2="178.7"/>
		<line class="st6" x1="-104.9" y1="175.6" x2="-110.3" y2="178.7"/>
		<line class="st6" x1="-110.3" y1="185.1" x2="-110.3" y2="178.7"/>
	</g>
	<g>
		<polygon class="st4" points="-115.8,198.1 -115.8,204.4 -110.3,207.6 -104.9,204.4 -104.9,198.1 -110.3,194.9 		"/>
		<line class="st3" x1="-115.8" y1="198.1" x2="-110.3" y2="201.2"/>
		<line class="st3" x1="-104.9" y1="198.1" x2="-110.3" y2="201.2"/>
		<line class="st3" x1="-110.3" y1="207.6" x2="-110.3" y2="201.2"/>
	</g>
</g>
<image style="overflow:visible;" width="450" height="468" xlink:href="../../download/56975661.jpg"  transform="matrix(1 0 0 1 787.2609 212.2402)">
</image>
<g>
	<circle class="st3" cx="9.7" cy="198.6" r="11.7"/>
	<circle class="st3" cx="-1.3" cy="178.7" r="5.1"/>
	<circle class="st3" cx="29" cy="189.8" r="2.6"/>
	<circle class="st3" cx="27.4" cy="217.5" r="6"/>
	<circle class="st1" cx="-11.3" cy="209" r="4.9"/>
	<line class="st3" x1="1.5" y1="183" x2="4.4" y2="188.2"/>
	<line class="st3" x1="26.7" y1="191.2" x2="20.6" y2="194.3"/>
	<line class="st3" x1="23.7" y1="212.9" x2="18.5" y2="206.4"/>
	<line class="st3" x1="-6.5" y1="207.4" x2="-0.6" y2="204.2"/>
	<circle class="st3" cx="2.7" cy="225.2" r="7.1"/>
	<line class="st3" x1="15.3" y1="188.3" x2="20.6" y2="178.7"/>
	<line class="st3" x1="6.9" y1="210" x2="3.8" y2="218.2"/>
	<circle class="st3" cx="39.1" cy="201.7" r="5.7"/>
	<circle class="st3" cx="-19.3" cy="191.2" r="6.6"/>
	<line class="st3" x1="-12.7" y1="192.8" x2="-1.3" y2="194.7"/>
	<line class="st3" x1="21.5" y1="200" x2="33.4" y2="201.7"/>
	<circle class="st6" cx="22.8" cy="174.4" r="4.9"/>
</g>
<g>
	<path class="st3" d="M123.7,167.8c-2,0.2-3.9,0.7-5.7,1.5c-9.6,4.5-13,10.3-13,18c0,7.7,5.8,13.6,5.8,13.6l0.2,25.8l20.9-0.1
		l0.2-9.7c0,0,8.3,0.6,12.2-2.7c1.8-1.5,1.9-6.1,2-9.9"/>
	<path class="st3" d="M146.4,202.5c0-0.6,0.1-1.6,0.1-2.4c1,0.1,2.4,0.1,3-0.1c1.1-0.4,0.9-1.4,0.9-1.4l-3.6-7.1
		c0.1-4.7,0-9.3-0.5-11.3c-1.8-6.7-9-11.2-16.4-12.3"/>
	<path class="st1" d="M135.7,198.8c-1.5,3.5-5,6-9,6c-5.4,0-9.8-4.4-9.8-9.8c0-4.4,2.9-8.1,6.9-9.3"/>
	<path class="st1" d="M129.6,185.6c4,1.2,6.9,5,6.9,9.3c0,0.8-0.1,1.5-0.2,2.2"/>
	<path class="st6" d="M150.7,204.7c0.5-0.6,1.3-0.9,2.1-0.9c1.6,0,2.9,1.3,2.9,2.9s-1.3,2.9-2.9,2.9s-2.9-1.3-2.9-2.9
		c0-0.2,0-0.4,0.1-0.7"/>
	<path class="st3" d="M126.7,197.5L126.7,197.5c-1.6,0-2.9-1.3-2.9-2.9v-28.1c0-1.6,1.3-2.9,2.9-2.9h0c1.6,0,2.9,1.3,2.9,2.9v28.1
		C129.6,196.2,128.3,197.5,126.7,197.5z"/>
	
		<rect x="128.4" y="200.2" transform="matrix(0.8894 0.4571 -0.4571 0.8894 107.4546 -42.4332)" class="st3" width="26.1" height="1.4"/>
</g>
<g>
	<path class="st3" d="M354.3,188.1h41.1c2.5,0,4.5,2,4.5,4.5v0c0,2.5-2,4.5-4.5,4.5h-41.1"/>
	<path class="st3" d="M351.4,204.1h-13.2c-1.8,0-3.3-1.5-3.3-3.3v-15.1c0-1.8,1.5-3.3,3.3-3.3h13.2c1.8,0,3.3,1.5,3.3,3.3v15.1
		C354.6,202.6,353.2,204.1,351.4,204.1z"/>
	<path class="st6" d="M353.2,211.6h-16.9c-2.1,0-3.7-1.7-3.7-3.7l0,0c0-2.1,1.7-3.7,3.7-3.7h16.9c2.1,0,3.7,1.7,3.7,3.7l0,0
		C357,209.9,355.3,211.6,353.2,211.6z"/>
	<path class="st3" d="M353.2,182.4h-16.9c-2.1,0-3.7-1.7-3.7-3.7l0,0c0-2.1,1.7-3.7,3.7-3.7h16.9c2.1,0,3.7,1.7,3.7,3.7l0,0
		C357,180.8,355.3,182.4,353.2,182.4z"/>
	<path class="st3" d="M364.9,220.7H326c-2,0-3.6-1.6-3.6-3.6v0c0-2,1.6-3.6,3.6-3.6h38.9c2,0,3.6,1.6,3.6,3.6v0
		C368.4,219.1,366.8,220.7,364.9,220.7z"/>
	<line class="st1" x1="320.4" y1="196.3" x2="329.7" y2="208.3"/>
	<line class="st3" x1="369.6" y1="200.1" x2="360.2" y2="208.6"/>
	<line class="st3" x1="362.1" y1="211.6" x2="374.8" y2="207.9"/>
	<line class="st3" x1="327.8" y1="210.7" x2="313.9" y2="208.2"/>
</g>
<g>
	<polyline class="st1" points="471.9,224.4 471.9,230.4 468.1,230.4 468.1,224.4 	"/>
	<polyline class="st1" points="468.1,206.4 468.1,198.3 471.9,198.3 471.9,206.4 	"/>
	<rect x="449.4" y="173" class="st3" width="41.1" height="25.3"/>
	<path class="st3" d="M473.1,211.5h-6.9c-1.4,0-2.5-1.1-2.5-2.5l0,0c0-1.4,1.1-2.5,2.5-2.5h6.9c1.4,0,2.5,1.1,2.5,2.5l0,0
		C475.6,210.3,474.4,211.5,473.1,211.5z"/>
	<path class="st3" d="M474,215.8c-0.5,0.4-1.1,0.7-1.7,0.7h-6.9c-1.4,0-2.5-1.1-2.5-2.5v0c0-1.4,1.1-2.5,2.5-2.5h6.9
		c0.9,0,1.6,0.4,2.1,1.1"/>
	<path class="st3" d="M472.6,220.7h-6.9c-1.2,0-2.1-0.9-2.1-2.1v0c0-1.2,0.9-2.1,2.1-2.1h6.9c1.2,0,2.1,0.9,2.1,2.1v0
		C474.7,219.8,473.7,220.7,472.6,220.7z"/>
	<path class="st3" d="M473.8,224.4h-7.6c-1,0-1.8-0.8-1.8-1.8v-0.2c0-1,0.8-1.8,1.8-1.8h7.6c1,0,1.8,0.8,1.8,1.8v0.2
		C475.5,223.6,474.7,224.4,473.8,224.4z"/>
	<path class="st3" d="M480.3,211.2l-1.8,4.3c-0.5,1.2-2,1.8-3.2,1.3l0,0c-1.2-0.5-1.8-2-1.3-3.2l1.8-4.3c0.5-1.2,2-1.8,3.2-1.3l0,0
		C480.2,208.5,480.8,209.9,480.3,211.2z"/>
	<path class="st3" d="M480.3,211.2c0,0-0.2,5.1-1.5,7.4c-1.3,2.3-3.3,3.8-3.3,3.8"/>
	<text transform="matrix(1 0 0 1 459.3484 191.4451)" class="st6" style="font-family:'Impact'; font-size:15.8858px;">BID</text>
</g>
<g>
	<path class="st7" d="M-81.9,285.6c-0.3,0-0.6,0-0.9,0c-2.5-6.3-8.5-10.8-15.5-10.8c-9.1,0-16.5,7.6-16.7,17
		c-1.1-0.5-2.4-0.9-3.7-0.9c-4.9,0-8.9,4.1-8.9,9.3c0,5.1,4,9.3,8.9,9.3c0.1,0,0.3,0,0.4,0c0.1,0,0.3,0,0.4,0h35c0.2,0,0.3,0,0.5,0
		c0.2,0,0.3,0,0.5,0c6.4,0,11.5-5.4,11.5-12C-70.4,291-75.5,285.6-81.9,285.6z"/>
	<polyline class="st3" points="-97.9,296.6 -97.9,319.4 -117.1,319.4 -117.1,329.6 	"/>
	<polyline class="st3" points="-83.9,299.5 -83.9,315.2 -75.1,315.2 -75.1,326.6 	"/>
	<polyline class="st1" points="-111.7,302.5 -111.7,314.1 -124.2,314.1 -124.2,325.8 	"/>
	<polyline class="st3" points="-92.8,304.4 -92.8,320.9 -87.3,320.9 -87.3,329.6 	"/>
	<line class="st3" x1="-103.6" y1="319.4" x2="-103.6" y2="324.5"/>
	<circle class="st3" cx="-124.2" cy="327.9" r="2.1"/>
	<circle class="st3" cx="-117.1" cy="331.7" r="2.1"/>
	<circle class="st3" cx="-103.6" cy="326.6" r="2.1"/>
	<circle class="st3" cx="-87.3" cy="331.7" r="2.1"/>
	<circle class="st3" cx="-75.1" cy="328.7" r="2.1"/>
</g>
<g>
	<path class="st3" d="M223.3,207.3v2c0,2.1-1.9,3.8-4.3,3.8h-4c-7.8,0-14.1,5.5-14.1,12.3v5.3H215h35.2h14.1v-5.3
		c0-6.8-6.4-12.3-14.1-12.3h-4c-2.4,0-4.3-1.7-4.3-3.8v-3.9"/>
	<path class="st3" d="M215.6,182.2c0.2-9.5,5.9-16.8,16.8-16.8c11.7,0,17.4,8,16.9,18.1"/>
	<path class="st3" d="M246,197.7c-3,8-7.6,13.7-14.1,13.7c-6.8,0-11.2-6.3-13.9-14.9"/>
	<path class="st3" d="M212.1,182.1c0.3-11,9.4-19.9,20.5-19.9c11.3,0,20.5,9.2,20.5,20.5c0,0.2,0,0.5,0,0.7"/>
	<path class="st3" d="M255.3,185.2c0.1-0.8,0.1-1.6,0.1-2.5c0-12.6-10.2-22.8-22.8-22.8c-12.6,0-22.8,10.2-22.8,22.8
		c0,0.3,0,0.4,0,0.7"/>
	<path class="st3" d="M215.5,198.8l-2.2,0.2c-1.6,0.1-2.9-1-3.1-2.6l-1-11.4c-0.1-1.6,1-2.9,2.6-3.1l2.2-0.2c1.6-0.1,2.9,1,3.1,2.6
		l1,11.4C218.3,197.3,217.1,198.7,215.5,198.8z"/>
	<path class="st1" d="M250.4,200.4l-2.2-0.3c-1.5-0.2-2.6-1.7-2.4-3.2l1.7-11.3c0.2-1.5,1.7-2.6,3.2-2.4l2.2,0.3
		c1.5,0.2,2.6,1.7,2.4,3.2l-1.7,11.3C253.4,199.5,251.9,200.6,250.4,200.4z"/>
	<circle class="st6" cx="232" cy="202.3" r="3.1"/>
	<path class="st3" d="M210.2,195.2c0,0-0.8,5,4.6,6.4c5.3,1.4,14.5,0.6,14.5,0.6"/>
</g>
<path class="st8" d="M65.8,321.7l-25.3,17.9c-4.4,3.1-10.3,3.1-14.8,0L1,322c-3.3-2.3-2.7-7.4,1-8.9l28.3-11.4
	c3.5-1.4,7.4-1.3,10.9,0.3L65,312.9C68.5,314.6,69,319.4,65.8,321.7z"/>
<path class="st8" d="M65.8,313.4l-25.3,17.9c-4.4,3.1-10.3,3.1-14.8,0L1,313.7c-3.3-2.3-2.7-7.4,1-8.9l28.3-11.4
	c3.5-1.4,7.4-1.3,10.9,0.3L65,304.7C68.5,306.3,69,311.1,65.8,313.4z"/>
<path class="st9" d="M65.8,305.1L40.5,323c-4.4,3.1-10.3,3.1-14.8,0L1,305.5c-3.3-2.3-2.7-7.4,1-8.9l28.3-11.4
	c3.5-1.4,7.4-1.3,10.9,0.3L65,296.4C68.5,298,69,302.9,65.8,305.1z"/>
<path class="st8" d="M65.8,296.9l-25.3,17.9c-4.4,3.1-10.3,3.1-14.8,0L1,297.2c-3.3-2.3-2.7-7.4,1-8.9l28.3-11.4
	c3.5-1.4,7.4-1.3,10.9,0.3L65,288.1C68.5,289.7,69,294.6,65.8,296.9z"/>
<path class="st8" d="M13.4,283.7c0,0,1.3-0.5,4.2,1c8,4.3,31.9,18.5,31.9,18.5c1.3,0.9,2.5,1.1,2.8,3.8v23.8l6-3.8L58,302.4
	c-0.1-2.7-2.7-3.5-4-4.3c0,0-21.4-12.5-29.6-16.9c-2.2-1.1-3.5-0.5-3.5-0.5L13.4,283.7z"/>
<path class="st10" d="M45.9,281.3L15,298c0,0-4.3,1.2-4.3,6.1c0,4.9,1.4,25.8,1.4,25.8l5.6,4.5l0.1-25.2c0,0-0.8-5.6,3.2-7.4
	s30.8-17.6,30.8-17.6s2.8-0.9,3.8-0.3c-2.4-1.3-6-2.8-6-2.8S47,280.6,45.9,281.3z"/>
<circle class="st11" cx="244.3" cy="308.8" r="15"/>
<path class="st3" d="M271.8,335.1L271.8,335.1c-0.9,0.9-2.3,0.9-3.2,0l-12.3-12.3c-0.9-0.9-0.9-2.3,0-3.2l0,0c0.9-0.9,2.3-0.9,3.2,0
	l12.3,12.3C272.7,332.8,272.7,334.3,271.8,335.1z"/>
<polyline class="st3" points="215,315.2 222.1,309.2 229.3,311 "/>
<polyline class="st3" points="257.5,301.5 263.2,295.6 270.3,296.4 275.7,295.5 "/>
<polyline class="st3" points="229.4,307.5 245,309.7 255.8,299.1 "/>
<circle class="st7" cx="244.9" cy="309.5" r="2.4"/>
<circle class="st12" cx="222.1" cy="309.2" r="1.2"/>
<circle class="st12" cx="263.4" cy="295.9" r="1.2"/>
<circle class="st12" cx="271.1" cy="296.3" r="1.2"/>
<g>
	<path class="st11" d="M333.4,328.8c3.9,4.2,9.5,6.8,15.8,6.8s11.8-2.6,15.8-6.8H333.4z"/>
	<polyline class="st3" points="333.4,328.8 349.2,298 365,328.8 	"/>
</g>
<polygon class="st3" points="369.9,294.1 349.2,296.6 349.2,298 369.9,298 390.6,298 390.6,296.6 "/>
<line class="st7" x1="369.9" y1="298" x2="369.9" y2="285.9"/>
<g>
	<path class="st3" d="M374.9,329.3c3.9,4.2,9.5,6.8,15.8,6.8s11.8-2.6,15.8-6.8H374.9z"/>
	<polyline class="st3" points="374.9,329.3 390.6,298.5 406.4,329.3 	"/>
</g>
<g>
	<path class="st4" d="M29.4,39l5.4,4.4c1.5,1.2,3.6,0.9,4.8-0.6c1.2-1.5,0.9-2.5-0.6-3.6l-5-4.6l0.2-0.2l2.6,2.2l6.9,5.9
		c1.2,1,3-0.4,4-1.6c1-1.2,0.8-3-0.5-4L38,29l0.5-0.6l10,8.5c1.5,1.2,3.6,0.9,4.8-0.6c1.2-1.5,0.9-3.6-0.6-4.8L43,23.3l0.4-0.4
		l9.2,7.8c1.5,1.2,3.6,0.9,4.8-0.6l0.7-0.8c1.2-1.5,0.9-3.6-0.6-4.8l-1-0.8"/>
	<path class="st4" d="M33,3.2c-1.6-0.9-3-1.7-3.7-1.7c-2-0.1-7.9,3.5-9.1,3.4c-1.2-0.1-9.6-4.1-9.6-4.1L1.3,13.1c0,0,3.2,3.3,6.9,7"
		/>
	<path class="st4" d="M56.3,23.6l10.6-11.2L56.1,0.9c0,0-6.1,4.4-7.2,4.3C45.2,4.9,42,2.5,38.5,1.6c-3.5-0.9-11,5.5-11.6,8.6
		c-0.3,1.3,1,4.3,3.6,4.5c3.5,0.3,4.7-4,6.8-4.3c1.1-0.1,2.9,0.4,4.2,1.5C47.8,16.9,56.3,23.6,56.3,23.6z"/>
	<path class="st4" d="M9.5,36.7L7.8,35c-1-1-1-2.7,0-3.7l10.9-10.9c1-1,2.7-1,3.7,0l1.7,1.7c1,1,1,2.7,0,3.7L13.2,36.7
		C12.2,37.7,10.5,37.7,9.5,36.7z"/>
	<path class="st4" d="M15.9,40.7l-2-2c-0.7-0.7-0.7-2,0-2.7l9.3-9.3c0.7-0.7,2-0.7,2.7,0l2,2c0.7,0.7,0.7,2,0,2.7l-9.3,9.3
		C17.8,41.4,16.6,41.4,15.9,40.7z"/>
	<path class="st5" d="M5.9,30.5l-2.6-2.6c-0.7-0.7-0.7-2,0-2.7l9.3-9.3c0.7-0.7,2-0.7,2.7,0l2.6,2.6c0.7,0.7,0.7,2,0,2.7l-9.3,9.3
		C7.9,31.2,6.6,31.2,5.9,30.5z"/>
	<path class="st2" d="M21.9,43.5l-1.7-1.7c-0.7-0.7-0.7-2,0-2.7l7-7c0.7-0.7,2-0.7,2.7,0l1.7,1.7c0.7,0.7,0.7,2,0,2.7l-7,7
		C23.9,44.2,22.6,44.2,21.9,43.5z"/>
</g>
<g>
	<polyline class="st11" points="586.2,285.5 607.5,293.7 607.5,333.2 	"/>
	<polyline class="st3" points="586.2,285.5 573.9,280.8 573.9,328.8 607.5,341.7 607.5,333.2 	"/>
	<polyline class="st3" points="586.2,285.5 586.2,277 619.8,289.9 619.8,338 607.5,333.2 	"/>
	<polyline class="st7" points="586.2,285.5 586.2,325 607.5,333.2 	"/>
</g>
<path class="st12" d="M-74.8,451h-43.8c-4.9,0-9-4-9-9v-43.8c0-4.9,4.1-9,9-9h43.8c5,0,9,4.1,9,9V442C-65.8,446.9-69.9,451-74.8,451
	z"/>
<path class="st12" d="M-76.6,446.3h-40.2c-3.4,0-6.2-2.8-6.2-6.2v-40.2c0-3.4,2.8-6.2,6.2-6.2h40.2c3.4,0,6.2,2.8,6.2,6.2v40.2
	C-70.4,443.6-73.2,446.3-76.6,446.3z"/>
<g>
	<rect x="-118" y="451" class="st12" width="7.7" height="5.1"/>
	<polygon class="st12" points="-75.4,456.1 -77.9,456.1 -83,456.1 -83,451 -75.4,451 	"/>
</g>
<g>
	<circle class="st11" cx="-102.2" cy="420.1" r="9.2"/>
	<rect x="-103" y="405.5" class="st12" width="1.6" height="5.4"/>
	<rect x="-103" y="429.2" class="st12" width="1.6" height="5.4"/>
	
		<rect x="-91.1" y="417.3" transform="matrix(-1.836970e-16 1 -1 -1.836970e-16 329.7601 510.3507)" class="st12" width="1.6" height="5.4"/>
	
		<rect x="-114.7" y="417.3" transform="matrix(-1.836970e-16 1 -1 -1.836970e-16 306.0862 534.0246)" class="st12" width="1.6" height="5.4"/>
	<circle class="st12" cx="-102.2" cy="420.1" r="6.8"/>
</g>
<path class="st7" d="M-76.5,417.7c0-1.4-1.1-2.5-2.5-2.5s-2.5,1.1-2.5,2.5c0,1.1,0.7,2.1,1.8,2.4v4.9h1.6v-4.9
	C-77.3,419.8-76.5,418.8-76.5,417.7z"/>
<circle class="st12" cx="470" cy="312.2" r="18.3"/>
<circle class="st12" cx="506.6" cy="312.2" r="18.3"/>
<line class="st11" x1="466.9" y1="307.1" x2="513.7" y2="307.1"/>
<line class="st7" x1="466.9" y1="318.3" x2="513.7" y2="318.3"/>
<g>
	<line class="st7" x1="160.4" y1="293.9" x2="141.5" y2="303.1"/>
	<polyline class="st13" points="141.5,303.1 108.8,287.2 141.8,273.1 174.2,287.2 160.4,293.9 	"/>
	<polyline class="st13" points="174.2,329 141.5,351.1 108.8,329 	"/>
	<line class="st13" x1="108.8" y1="287.2" x2="108.8" y2="329"/>
	<line class="st13" x1="141.5" y1="303.1" x2="141.5" y2="351.1"/>
	<line class="st13" x1="174.2" y1="287.2" x2="174.2" y2="329"/>
	<line class="st13" x1="155.3" y1="279" x2="124.2" y2="295.2"/>
	<line class="st14" x1="124.2" y1="316.8" x2="124.2" y2="295.2"/>
	<line class="st13" x1="124.2" y1="339.4" x2="124.2" y2="316.8"/>
	<line class="st13" x1="160.2" y1="338.4" x2="160.2" y2="294.2"/>
	<line class="st13" x1="128.6" y1="278.8" x2="160.4" y2="293.9"/>
	<line class="st13" x1="108.8" y1="307.2" x2="141.2" y2="326.7"/>
	<line class="st13" x1="173.9" y1="308.3" x2="141.7" y2="326.8"/>
</g>
<rect x="-3.9" y="426.9" class="st10" width="8.9" height="16.1"/>
<rect x="7.5" y="420.7" class="st15" width="8.9" height="22.3"/>
<rect x="19" y="409.9" class="st15" width="8.9" height="33.1"/>
<rect x="30.5" y="405.1" class="st15" width="8.9" height="37.9"/>
<path class="st15" d="M-5.7,411.8c4.6-0.3,12.9-1.5,21.9-6.5c9.1-5.1,14.5-11.7,17.2-15.4"/>
<line class="st13" x1="-9.1" y1="447.6" x2="44.9" y2="447.6"/>
<polyline class="st6" points="27.2,389.5 33.7,389.5 33.7,396 "/>
<rect x="111.8" y="426.9" transform="matrix(-1 -4.461688e-11 4.461688e-11 -1 232.4167 869.9516)" class="st15" width="8.9" height="16.1"/>
<rect x="100.3" y="420.7" transform="matrix(-1 -4.502633e-11 4.502633e-11 -1 209.4964 863.723)" class="st10" width="8.9" height="22.3"/>
<rect x="88.8" y="409.9" transform="matrix(-1 -4.502633e-11 4.502633e-11 -1 186.5761 852.9288)" class="st15" width="8.9" height="33.1"/>
<rect x="77.4" y="405.1" transform="matrix(-1 -4.502633e-11 4.502633e-11 -1 163.6558 848.0708)" class="st15" width="8.9" height="37.9"/>
<path class="st15" d="M119.3,411.6c-4.6-0.3-9.7-1.4-18.7-6.4c-9.1-5.1-14.5-11.7-17.2-15.4"/>
<line class="st13" x1="125.9" y1="447.6" x2="71.9" y2="447.6"/>
<rect x="585.4" y="405.8" transform="matrix(-1 -9.967151e-11 9.967151e-11 -1 1179.7863 847.4414)" class="st8" width="8.9" height="35.9"/>
<rect x="574" y="419.4" transform="matrix(-1 -4.502633e-11 4.502633e-11 -1 1156.866 861.0294)" class="st8" width="8.9" height="22.3"/>
<rect x="562.5" y="414.6" transform="matrix(-1 -3.683954e-11 3.683954e-11 -1 1133.9457 856.2458)" class="st8" width="8.9" height="27.1"/>
<rect x="551.1" y="428.3" transform="matrix(-1 -1.596380e-11 1.596380e-11 -1 1111.0254 869.9414)" class="st8" width="8.9" height="13.4"/>
<line class="st3" x1="599.6" y1="446.2" x2="545.6" y2="446.2"/>
<polyline class="st6" points="113.6,415 119.3,411.6 115.9,406 "/>
<polyline class="st16" points="211.6,450.4 163.7,450.4 163.7,402.5 "/>
<path class="st10" d="M166.4,446.6c6.7,1,10-31.8,17.3-32.6c8.3-0.9,8.5,31.8,19.5,32.6"/>
<path class="st2" d="M171.9,446.6c7.2,0.6,10.8-18.1,18.7-18.5c9-0.5,9.2,18.1,21.1,18.5"/>
<g>
	<line class="st0" x1="254.9" y1="427.6" x2="254.9" y2="446.6"/>
	<line class="st0" x1="260.6" y1="424.4" x2="260.6" y2="446.6"/>
	<line class="st0" x1="266.4" y1="421.3" x2="266.4" y2="446.6"/>
	<line class="st0" x1="272.1" y1="418.1" x2="272.1" y2="446.6"/>
	<line class="st0" x1="277.8" y1="415" x2="277.8" y2="446.6"/>
	<line class="st6" x1="283.6" y1="422.6" x2="283.6" y2="446.6"/>
	<line class="st0" x1="289.3" y1="418.3" x2="289.3" y2="446.6"/>
	<line class="st0" x1="295.1" y1="413.9" x2="295.1" y2="446.6"/>
	<line class="st11" x1="300.8" y1="409.6" x2="300.8" y2="446.6"/>
	<line class="st0" x1="306.6" y1="405.2" x2="306.6" y2="446.6"/>
</g>
<polyline class="st0" points="254.9,420.5 278.8,407.4 284.6,415.1 307.1,398 "/>
<line class="st13" x1="251.3" y1="450.4" x2="310.2" y2="450.4"/>
<rect x="355.9" y="405.2" class="st11" width="7.4" height="21.5"/>
<rect x="369" y="405.3" class="st17" width="7.4" height="31.9"/>
<rect x="382.1" y="421.5" class="st7" width="7.4" height="15.8"/>
<rect x="395.2" y="400.2" class="st17" width="7.4" height="24.6"/>
<line class="st0" x1="350.9" y1="447.7" x2="406" y2="447.7"/>
<polyline class="st0" points="446.6,412.5 472.2,429.8 504.5,401.5 "/>
<polyline class="st1" points="453.7,434.4 476.7,412.5 498.5,429.8 "/>
<line class="st0" x1="443.5" y1="446.6" x2="505.8" y2="446.6"/>
<circle class="st17" cx="447.5" cy="412.9" r="2.7"/>
<circle class="st17" cx="454.1" cy="434.4" r="2.7"/>
<circle class="st17" cx="472" cy="429.8" r="2.7"/>
<circle class="st7" cx="476.8" cy="412.9" r="2.7"/>
<circle class="st17" cx="498.5" cy="429.8" r="2.7"/>
<circle class="st17" cx="504.5" cy="401.5" r="2.7"/>
<polyline class="st15" points="554.5,414.2 566.1,404.2 578.4,411.1 588.2,397.2 "/>
<circle class="st11" cx="554.5" cy="414.2" r="2.7"/>
<circle class="st17" cx="566.2" cy="404.2" r="2.7"/>
<circle class="st17" cx="578.4" cy="411" r="2.7"/>
<circle class="st7" cx="588.2" cy="397.2" r="2.7"/>
</svg>
