<?xml version="1.0" encoding="utf-8"?>
<!-- Generator: Adobe Illustrator 23.0.1, SVG Export Plug-In . SVG Version: 6.00 Build 0)  -->
<svg version="1.1" id="Layer_1" xmlns="http://www.w3.org/2000/svg" xmlns:xlink="http://www.w3.org/1999/xlink" x="0px" y="0px"
	 viewBox="0 0 52.5 63.8" style="enable-background:new 0 0 52.5 63.8;" xml:space="preserve">
<style type="text/css">
	.st0{fill:none;stroke:#0066FF;stroke-width:0.75;stroke-linejoin:round;stroke-miterlimit:10;}
	.st1{fill:#FFFFFF;stroke:#0066FF;stroke-width:0.75;stroke-miterlimit:10;}
	.st2{fill:#FFFFFF;stroke:#00C1A3;stroke-width:0.75;stroke-miterlimit:10;}
	.st3{fill:none;stroke:#00C1A3;stroke-width:0.75;stroke-miterlimit:10;}
	
		.st4{fill-rule:evenodd;clip-rule:evenodd;fill:none;stroke:#FF25F3;stroke-width:0.75;stroke-linecap:round;stroke-linejoin:round;stroke-miterlimit:10;}
	.st5{fill:none;stroke:#0066FF;stroke-width:0.75;stroke-miterlimit:10;}
	.st6{fill-rule:evenodd;clip-rule:evenodd;fill:none;stroke:#0066FF;stroke-width:0.75;stroke-miterlimit:10;}
	.st7{fill-rule:evenodd;clip-rule:evenodd;fill:none;stroke:#00C1A3;stroke-width:0.75;stroke-miterlimit:10;}
	.st8{fill:none;stroke:#FF25F3;stroke-width:0.75;stroke-linecap:round;stroke-linejoin:round;stroke-miterlimit:10;}
	.st9{fill:#FFFFFF;stroke:#FF25F3;stroke-width:0.75;stroke-linecap:round;stroke-linejoin:round;stroke-miterlimit:10;}
	.st10{fill-rule:evenodd;clip-rule:evenodd;fill:#FFFFFF;stroke:#0066FF;stroke-width:0.75;stroke-miterlimit:10;}
	
		.st11{fill-rule:evenodd;clip-rule:evenodd;fill:#FFFFFF;stroke:#FF25F3;stroke-width:0.75;stroke-linecap:round;stroke-linejoin:round;stroke-miterlimit:10;}
	.st12{fill-rule:evenodd;clip-rule:evenodd;fill:#FFFFFF;stroke:#00C1A3;stroke-width:0.75;stroke-miterlimit:10;}
	.st13{fill:none;stroke:#0066FF;stroke-width:0.75;stroke-linecap:round;stroke-linejoin:round;stroke-miterlimit:10;}
	.st14{fill:#FFFFFF;stroke:#00C1A3;stroke-width:0.75;stroke-linecap:round;stroke-linejoin:round;stroke-miterlimit:10;}
	
		.st15{fill-rule:evenodd;clip-rule:evenodd;fill:#FFFFFF;stroke:#0066FF;stroke-width:0.75;stroke-linecap:round;stroke-linejoin:round;stroke-miterlimit:10;}
	
		.st16{fill-rule:evenodd;clip-rule:evenodd;fill:none;stroke:#0066FF;stroke-width:0.75;stroke-linecap:round;stroke-linejoin:round;stroke-miterlimit:10;}
	.st17{fill:#FFFFFF;stroke:#0066FF;stroke-width:0.75;stroke-linejoin:round;stroke-miterlimit:10;}
</style>
<g>
	<path class="st5" d="M19.7,4.7c-2,0.2-3.9,0.7-5.7,1.5c-9.6,4.5-13,10.3-13,18c0,7.7,5.8,13.6,5.8,13.6L7,63.5l20.9-0.1l0.2-9.7
		c0,0,8.3,0.6,12.2-2.7c1.8-1.5,1.9-6.1,2-9.9"/>
	<path class="st5" d="M42.4,39.4c0-0.6,0.1-1.6,0.1-2.4c1,0.1,2.4,0.1,3-0.1c1.1-0.4,0.9-1.4,0.9-1.4l-3.6-7.1
		c0.1-4.7,0-9.3-0.5-11.3c-1.8-6.7-9-11.2-16.4-12.3"/>
	<path class="st3" d="M31.7,35.7c-1.5,3.5-5,6-9,6c-5.4,0-9.8-4.4-9.8-9.8c0-4.4,2.9-8.1,6.9-9.3"/>
	<path class="st3" d="M25.6,22.5c4,1.2,6.9,5,6.9,9.3c0,0.8-0.1,1.5-0.2,2.2"/>
	<path class="st8" d="M46.8,41.6c0.5-0.6,1.3-0.9,2.1-0.9c1.6,0,2.9,1.3,2.9,2.9s-1.3,2.9-2.9,2.9S46,45.2,46,43.6
		c0-0.2,0-0.4,0.1-0.7"/>
	<path class="st5" d="M22.8,34.4L22.8,34.4c-1.6,0-2.9-1.3-2.9-2.9V3.4c0-1.6,1.3-2.9,2.9-2.9h0c1.6,0,2.9,1.3,2.9,2.9v28.1
		C25.7,33.1,24.4,34.4,22.8,34.4z"/>
	<rect x="24.4" y="37" transform="matrix(0.8894 0.4571 -0.4571 0.8894 21.3963 -12.945)" class="st5" width="26.1" height="1.4"/>
</g>
</svg>
