<?xml version="1.0" encoding="utf-8"?>
<!-- Generator: Adobe Illustrator 23.0.1, SVG Export Plug-In . SVG Version: 6.00 Build 0)  -->
<svg version="1.1" id="Layer_1" xmlns="http://www.w3.org/2000/svg" xmlns:xlink="http://www.w3.org/1999/xlink" x="0px" y="0px"
	 viewBox="0 0 64.8 72.4" style="enable-background:new 0 0 64.8 72.4;" xml:space="preserve">
<style type="text/css">
	.st0{fill:none;stroke:#0066FF;stroke-width:0.75;stroke-linejoin:round;stroke-miterlimit:10;}
	.st1{fill:#FFFFFF;stroke:#00C1A3;stroke-width:0.75;stroke-miterlimit:10;}
	.st2{fill:#FFFFFF;stroke:#0066FF;stroke-width:0.75;stroke-miterlimit:10;}
	.st3{fill:none;stroke:#00C1A3;stroke-width:0.75;stroke-miterlimit:10;}
	
		.st4{fill-rule:evenodd;clip-rule:evenodd;fill:none;stroke:#FF25F3;stroke-width:0.75;stroke-linecap:round;stroke-linejoin:round;stroke-miterlimit:10;}
	.st5{fill:none;stroke:#0066FF;stroke-width:0.75;stroke-miterlimit:10;}
	.st6{fill-rule:evenodd;clip-rule:evenodd;fill:none;stroke:#0066FF;stroke-width:0.75;stroke-miterlimit:10;}
	.st7{fill-rule:evenodd;clip-rule:evenodd;fill:none;stroke:#00C1A3;stroke-width:0.75;stroke-miterlimit:10;}
	.st8{fill:none;stroke:#FF25F3;stroke-width:0.75;stroke-linecap:round;stroke-linejoin:round;stroke-miterlimit:10;}
	.st9{fill:#FFFFFF;stroke:#FF25F3;stroke-width:0.75;stroke-linecap:round;stroke-linejoin:round;stroke-miterlimit:10;}
	.st10{fill-rule:evenodd;clip-rule:evenodd;fill:#FFFFFF;stroke:#0066FF;stroke-width:0.75;stroke-miterlimit:10;}
	
		.st11{fill-rule:evenodd;clip-rule:evenodd;fill:#FFFFFF;stroke:#FF25F3;stroke-width:0.75;stroke-linecap:round;stroke-linejoin:round;stroke-miterlimit:10;}
	.st12{fill-rule:evenodd;clip-rule:evenodd;fill:#FFFFFF;stroke:#00C1A3;stroke-width:0.75;stroke-miterlimit:10;}
	.st13{fill:none;stroke:#0066FF;stroke-width:0.75;stroke-linecap:round;stroke-linejoin:round;stroke-miterlimit:10;}
	.st14{fill:#FFFFFF;stroke:#00C1A3;stroke-width:0.75;stroke-linecap:round;stroke-linejoin:round;stroke-miterlimit:10;}
	
		.st15{fill-rule:evenodd;clip-rule:evenodd;fill:#FFFFFF;stroke:#0066FF;stroke-width:0.75;stroke-linecap:round;stroke-linejoin:round;stroke-miterlimit:10;}
	
		.st16{fill-rule:evenodd;clip-rule:evenodd;fill:none;stroke:#0066FF;stroke-width:0.75;stroke-linecap:round;stroke-linejoin:round;stroke-miterlimit:10;}
	.st17{fill:#FFFFFF;stroke:#0066FF;stroke-width:0.75;stroke-linejoin:round;stroke-miterlimit:10;}
</style>
<g>
	<path class="st5" d="M23.1,48.2v2c0,2.1-1.9,3.8-4.3,3.8h-4C7,54,0.7,59.5,0.7,66.2v5.3h14.1H50h14.1v-5.3C64.1,59.5,57.8,54,50,54
		h-4c-2.4,0-4.3-1.7-4.3-3.8v-3.9"/>
	<path class="st5" d="M15.4,23.2c0.2-9.5,5.9-16.8,16.8-16.8c11.7,0,17.4,8,16.9,18.1"/>
	<path class="st5" d="M45.7,38.6c-3,8-7.6,13.7-14.1,13.7c-6.8,0-11.2-6.3-13.9-14.9"/>
	<path class="st5" d="M11.9,23c0.3-11,9.4-19.9,20.5-19.9c11.3,0,20.5,9.2,20.5,20.5c0,0.2,0,0.5,0,0.7"/>
	<path class="st5" d="M55.1,26.1c0.1-0.8,0.1-1.6,0.1-2.5C55.2,11,45,0.8,32.4,0.8C19.8,0.8,9.5,11,9.5,23.6c0,0.3,0,0.4,0,0.7"/>
	<path class="st5" d="M15.3,39.8L13.2,40c-1.6,0.1-2.9-1-3.1-2.6L9.1,26c-0.1-1.6,1-2.9,2.6-3.1l2.2-0.2c1.6-0.1,2.9,1,3.1,2.6
		l1,11.4C18.1,38.3,16.9,39.6,15.3,39.8z"/>
	<path class="st3" d="M50.2,41.3L48,41c-1.5-0.2-2.6-1.7-2.4-3.2l1.7-11.3c0.2-1.5,1.7-2.6,3.2-2.4l2.2,0.3c1.5,0.2,2.6,1.7,2.4,3.2
		l-1.7,11.3C53.2,40.5,51.7,41.6,50.2,41.3z"/>
	<circle class="st8" cx="31.8" cy="43.2" r="3.1"/>
	<path class="st5" d="M10,36.2c0,0-0.8,5,4.6,6.4c5.3,1.4,14.5,0.6,14.5,0.6"/>
</g>
</svg>
