<?xml version="1.0" encoding="utf-8"?>
<!-- Generator: Adobe Illustrator 23.0.1, SVG Export Plug-In . SVG Version: 6.00 Build 0)  -->
<svg version="1.1" id="Layer_1" xmlns="http://www.w3.org/2000/svg" xmlns:xlink="http://www.w3.org/1999/xlink" x="0px" y="0px"
	 viewBox="0 0 91.6 50.8" style="enable-background:new 0 0 91.6 50.8;" xml:space="preserve">
<style type="text/css">
	.st0{fill-rule:evenodd;clip-rule:evenodd;fill:none;stroke:#00C1A3;stroke-width:0.75;stroke-miterlimit:10;}
	.st1{fill:#FFFFFF;stroke:#0066FF;stroke-width:0.75;stroke-linecap:round;stroke-linejoin:round;stroke-miterlimit:10;}
	.st2{fill:none;stroke:#0066FF;stroke-width:0.75;stroke-linecap:round;stroke-linejoin:round;stroke-miterlimit:10;}
	.st3{fill:#FFFFFF;stroke:#0066FF;stroke-width:0.75;stroke-miterlimit:10;}
	.st4{fill:none;stroke:#0066FF;stroke-width:0.75;stroke-miterlimit:10;}
	.st5{fill:none;stroke:#00C1A3;stroke-width:0.75;stroke-miterlimit:10;}
	.st6{fill:none;stroke:#FF25F3;stroke-width:0.75;stroke-miterlimit:10;}
	.st7{fill:none;stroke:#FF25F3;stroke-width:0.75;stroke-linecap:round;stroke-linejoin:round;stroke-miterlimit:10;}
	.st8{fill-rule:evenodd;clip-rule:evenodd;fill:none;stroke:#0066FF;stroke-width:0.75;stroke-miterlimit:10;}
	.st9{clip-path:url(#SVGID_2_);fill-rule:evenodd;clip-rule:evenodd;fill:#FFFFFF;}
	.st10{fill-rule:evenodd;clip-rule:evenodd;fill:#FCFDFF;}
	.st11{fill-rule:evenodd;clip-rule:evenodd;fill:#FFFFFF;}
	.st12{fill-rule:evenodd;clip-rule:evenodd;fill:#3D6A9D;}
	.st13{fill:#FFFFFF;}
	.st14{fill:#0066FF;}
	.st15{fill-rule:evenodd;clip-rule:evenodd;fill:#FFFFFF;stroke:#0066FF;stroke-width:0.75;stroke-miterlimit:10;}
	.st16{fill-rule:evenodd;clip-rule:evenodd;fill:#FFFFFF;stroke:#44E0A0;stroke-width:0.75;stroke-miterlimit:10;}
	.st17{fill-rule:evenodd;clip-rule:evenodd;fill:#FFFFFF;stroke:#FF25F3;stroke-width:0.75;stroke-miterlimit:10;}
	.st18{fill:none;stroke:#FFFFFF;stroke-width:2.8774;stroke-miterlimit:10;}
	
		.st19{fill-rule:evenodd;clip-rule:evenodd;fill:none;stroke:#FF25F3;stroke-width:0.75;stroke-linecap:round;stroke-linejoin:round;stroke-miterlimit:10;}
	.st20{fill-rule:evenodd;clip-rule:evenodd;fill:#FFFFFF;stroke:#FFFFFF;stroke-width:0.7194;stroke-miterlimit:10;}
	.st21{fill:none;stroke:#FFFFFF;stroke-width:0.7194;stroke-miterlimit:10;}
	.st22{fill:none;stroke:#44E0A0;stroke-width:0.75;stroke-linecap:round;stroke-linejoin:round;stroke-miterlimit:10;}
	.st23{fill-rule:evenodd;clip-rule:evenodd;fill:#FFFFFF;stroke:#00C1A3;stroke-width:0.75;stroke-miterlimit:10;}
	.st24{fill:none;stroke:#0066FF;stroke-width:0.75;stroke-linecap:round;stroke-miterlimit:10;}
	.st25{fill:#FFFFFF;stroke:#00C1A3;stroke-width:0.75;stroke-miterlimit:10;}
	.st26{clip-path:url(#SVGID_4_);}
	
		.st27{fill-rule:evenodd;clip-rule:evenodd;fill:none;stroke:#0066FF;stroke-width:0.75;stroke-linecap:round;stroke-miterlimit:10;}
	.st28{fill:#FFFFFF;stroke:#FF25F3;stroke-width:0.75;stroke-miterlimit:10;}
	.st29{fill:#FFFFFF;stroke:#FF25F3;stroke-width:0.75;stroke-linecap:round;stroke-linejoin:round;stroke-miterlimit:10;}
	.st30{fill:none;stroke:#00FA9B;stroke-width:0.75;stroke-miterlimit:10;}
	.st31{fill:#87D73F;}
	.st32{fill:#3DED98;}
</style>
<g>
	<path class="st1" d="M82.2,8.7c0,3.2-5.1,7.8-11.3,7.8c-6.3,0-11.3-4.6-11.3-7.8c0-3.2,1.7-4.7,7.8-3.1c2.4,0.6,6,0.9,8.3,0.4
		C80,4.8,82.2,6.7,82.2,8.7z"/>
</g>
<g>
	<path class="st1" d="M51.9,4.8c0,3.2-5.1,7.8-11.3,7.8c-6.3,0-11.3-4.6-11.3-7.8c0-3.2,1.7-4.7,7.8-3.1c2.4,0.6,6,0.9,8.3,0.4
		C49.7,0.9,51.9,2.8,51.9,4.8z"/>
	<path class="st1" d="M45,3.6c0,0.9-2,1.8-4.4,1.8c-2.4,0-4.2-1.4-4.2-2.3s1.8,0.2,4.2,0.2C43,3.2,45,2.7,45,3.6z"/>
</g>
<g>
	<path class="st1" d="M66.2,10.9c-0.5,3.1-6.1,6.9-12.4,6c-6.2-0.9-10.6-6.2-10.1-9.3c0.5-3.1,2.4-4.4,8.2-2
		c2.3,0.9,5.8,1.8,8.2,1.6C64.6,6.7,66.5,8.9,66.2,10.9z"/>
	<path class="st1" d="M59.5,8.7c-0.1,0.9-2.2,1.5-4.6,1.2c-2.4-0.3-3.9-2-3.8-2.9s1.7,0.4,4.1,0.8C57.6,8.1,59.7,7.8,59.5,8.7z"/>
</g>
<g>
	<path class="st1" d="M75.4,16.2c0.4,3.2-4,8.3-10.3,9.2c-6.2,0.8-11.8-3.1-12.2-6.3c-0.4-3.2,1.1-4.9,7.3-4.1
		c2.4,0.3,6.1,0.2,8.3-0.7C72.7,12.6,75.2,14.2,75.4,16.2z"/>
	<path class="st1" d="M68.4,15.9c0.1,0.9-1.7,2-4.1,2.4c-2.4,0.3-4.3-0.9-4.4-1.8c-0.1-0.9,1.8-0.1,4.2-0.4
		C66.4,15.8,68.3,15,68.4,15.9z"/>
</g>
<g>
	<path class="st1" d="M2,35.3c-2-2.5-0.9-9.2,4-13.1c4.9-3.9,11.7-3.5,13.7-1c2,2.5,1.6,4.8-4.1,7.3c-2.2,1-5.3,3-6.8,4.9
		C6.1,37,3.2,36.8,2,35.3z"/>
	<path class="st1" d="M8.2,31.9c-0.6-0.7,0.4-2.7,2.3-4.2s4.1-1.5,4.7-0.8c0.6,0.7-1.5,1-3.4,2.5C9.9,31,8.7,32.6,8.2,31.9z"/>
</g>
<g>
	<path class="st1" d="M42.4,10.4c0.6,3.1-3.4,8.6-9.5,9.9c-6.1,1.3-12-2.2-12.7-5.3c-0.6-3.1,0.7-5,7-4.7c2.4,0.1,6.1-0.3,8.2-1.3
		C39.5,7,42,8.5,42.4,10.4z"/>
	<path class="st1" d="M35.4,10.6c0.2,0.9-1.6,2.2-3.9,2.7s-4.4-0.6-4.5-1.4c-0.2-0.9,1.8-0.2,4.1-0.7C33.4,10.7,35.2,9.7,35.4,10.6z
		"/>
</g>
<g>
	<path class="st29" d="M49.6,20.4c0,3.2-5.1,7.8-11.3,7.8c-6.3,0-11.3-4.6-11.3-7.8c0-3.2,1.7-4.7,7.8-3.1c2.4,0.6,6,0.9,8.3,0.4
		C47.4,16.5,49.6,18.4,49.6,20.4z"/>
</g>
<g>
	<path class="st1" d="M73.2,23.8c0.6,3.1-3.5,8.6-9.6,9.8c-6.1,1.2-12-2.3-12.6-5.4c-0.6-3.1,0.8-5,7-4.6c2.4,0.1,6.1-0.2,8.3-1.3
		C70.3,20.4,72.9,21.9,73.2,23.8z"/>
</g>
<g>
	<path class="st1" d="M90.7,33.1c0.6,3.1-3.5,8.6-9.6,9.8c-6.1,1.2-12-2.3-12.6-5.4c-0.6-3.1,0.8-5,7-4.6c2.4,0.1,6.1-0.2,8.3-1.3
		C87.8,29.7,90.4,31.2,90.7,33.1z"/>
</g>
<g>
	<path class="st1" d="M38,40c0.6,3.1-3.5,8.6-9.6,9.8c-6.1,1.2-12-2.3-12.6-5.4c-0.6-3.1,0.8-5,7-4.6c2.4,0.1,6.1-0.2,8.3-1.3
		C35.1,36.6,37.7,38.1,38,40z"/>
</g>
<g>
	<path class="st1" d="M40.6,27.3c0,3.2-5.1,7.8-11.3,7.8c-6.3,0-11.3-4.6-11.3-7.8c0-3.2,1.7-4.7,7.8-3.1c2.4,0.6,6,0.9,8.3,0.4
		C38.4,23.4,40.6,25.4,40.6,27.3z"/>
	<path class="st1" d="M33.6,26.1c0,0.9-2,1.8-4.4,1.8s-4.2-1.4-4.2-2.3c0-0.9,1.8,0.2,4.2,0.2S33.6,25.2,33.6,26.1z"/>
</g>
<g>
	<path class="st25" d="M43.7,30.9c1.9-2.5,8.8-3,13.7,0.8c5,3.8,6.2,10.6,4.2,13.1c-1.9,2.5-4.2,2.7-8.1-2.3
		c-1.5-1.9-4.2-4.4-6.4-5.4C43.1,35.4,42.5,32.5,43.7,30.9z"/>
	<path class="st25" d="M48.5,36.1c0.6-0.7,2.7-0.2,4.6,1.3s2.4,3.7,1.9,4.4c-0.6,0.7-1.3-1.2-3.2-2.7S47.9,36.8,48.5,36.1z"/>
</g>
</svg>
