<?xml version="1.0" encoding="utf-8"?>
<!-- Generator: Adobe Illustrator 23.0.1, SVG Export Plug-In . SVG Version: 6.00 Build 0)  -->
<svg version="1.1" id="Layer_1" xmlns="http://www.w3.org/2000/svg" xmlns:xlink="http://www.w3.org/1999/xlink" x="0px" y="0px"
	 viewBox="0 0 88 56" style="enable-background:new 0 0 88 56;" xml:space="preserve">
<style type="text/css">
	.st0{fill:none;stroke:#0066FF;stroke-width:0.75;stroke-miterlimit:10;}
	.st1{fill:none;stroke:#00C1A3;stroke-width:0.75;stroke-miterlimit:10;}
	.st2{fill:none;stroke:#0066FF;stroke-width:0.75;stroke-linejoin:round;stroke-miterlimit:10;}
	.st3{fill:none;stroke:#FF25F3;stroke-width:0.75;stroke-linecap:round;stroke-linejoin:round;stroke-miterlimit:10;}
	.st4{fill-rule:evenodd;clip-rule:evenodd;fill:none;stroke:#0066FF;stroke-width:0.75;stroke-miterlimit:10;}
	.st5{fill-rule:evenodd;clip-rule:evenodd;fill:none;stroke:#00C1A3;stroke-width:0.75;stroke-miterlimit:10;}
	
		.st6{fill-rule:evenodd;clip-rule:evenodd;fill:none;stroke:#FF25F3;stroke-width:0.75;stroke-linecap:round;stroke-linejoin:round;stroke-miterlimit:10;}
	.st7{fill:none;stroke:#0066FF;stroke-width:0.75;stroke-linecap:round;stroke-miterlimit:10;}
	.st8{clip-path:url(#SVGID_2_);}
	.st9{clip-path:url(#SVGID_4_);}
	.st10{fill:#8E7700;}
	.st11{fill:none;stroke:#0066FF;stroke-width:0.5928;stroke-miterlimit:10;}
	.st12{fill:none;stroke:#0066FF;stroke-width:0.6148;stroke-miterlimit:10;}
</style>
<g>
	<path class="st7" d="M29.5,19.3c0,0,1.1-0.3,1.8-0.3c0.8,0,1.8,0.3,1.8,0.3"/>
	<path class="st7" d="M21.1,19c0,0,1.1-0.3,1.8-0.3c0.8,0,1.8,0.3,1.8,0.3"/>
	<path class="st7" d="M23.6,27.1c0,0,1.5,0.7,3,0.7c1.6,0,3-0.7,3-0.7"/>
	<path class="st0" d="M36.5,18.5c1.3-1.3,2.5-1.2,2.7-1.1c0.8,0.5,0.7,2.5,0.1,4.4c-0.6,1.9-0.7,2.9-2.8,2.7c-0.2-0.1,0.1,0.1,0,0
		c0,0.2-0.4,3.7-2,6c-1.8,2.6-4.9,4-7,4c-7.9,0-9.8-7.8-9.8-7.8s-0.6-2.2-0.8-2.2c-0.9,0.2-2-1.2-2.5-3.2s-0.3-4.2,0.6-4.4
		c0.5-0.1,2,0,2.5,0.8l1.5-4.1"/>
	<path class="st0" d="M15.5,16.5c0,0-1-2.5-1-4.6C14.5,6,20.1,1.2,27,1.2S39.6,6,39.6,11.9c0,2.6-0.1,3.6-1.1,5.6"/>
	<path class="st0" d="M16.7,14.4c0,0,4.6-1.6,8-2.6S36,9.1,36,9.1l1.8-2.8"/>
</g>
<path class="st1" d="M82.1,13.5H65.7h-13c-1.7,0-3.1,1-3.1,2.3v6.6l-6.9,2l6.9,3.6v4.3c0,1.3,1.4,2.3,3.1,2.3h29.4
	c1.7,0,3.1-1,3.1-2.3V15.9C85.2,14.6,83.8,13.5,82.1,13.5z"/>
<line class="st0" x1="57.2" y1="18.6" x2="79.3" y2="18.6"/>
<line class="st3" x1="57.2" y1="24.1" x2="79.3" y2="24.1"/>
<line class="st0" x1="57.2" y1="29.5" x2="79.3" y2="29.5"/>
<path class="st0" d="M18.4,37.5h-8.1c-4.9,0-8.8,4-8.8,8.8v8.2h51v-8.2c0-4.9-4-8.8-8.8-8.8h-8.5"/>
<polygon class="st11" points="28.2,43 25.8,43 24,38.5 30,38.5 "/>
<polygon class="st12" points="28.2,43 25.8,43 24,54 30,54 "/>
<polygon class="st0" points="18.5,36.5 19.5,41.5 23.5,38.5 25.5,38.5 20.5,32.5 "/>
<polygon class="st0" points="35.5,36.5 34.5,41.5 30.5,38.5 28.5,38.5 33.5,32.5 "/>
<line class="st0" x1="36.5" y1="18.5" x2="33.5" y2="9.5"/>
<line class="st0" x1="10.5" y1="49.5" x2="10.5" y2="54.5"/>
<line class="st0" x1="43.5" y1="49.5" x2="43.5" y2="54.5"/>
</svg>
