<?xml version="1.0" encoding="utf-8"?>
<!-- Generator: Adobe Illustrator 23.0.1, SVG Export Plug-In . SVG Version: 6.00 Build 0)  -->
<svg version="1.1" id="Layer_1" xmlns="http://www.w3.org/2000/svg" xmlns:xlink="http://www.w3.org/1999/xlink" x="0px" y="0px"
	 viewBox="0 0 80.6 71.6" style="enable-background:new 0 0 80.6 71.6;" xml:space="preserve">
<style type="text/css">
	.st0{fill:#FF25F3;}
	.st1{fill:#2935E8;}
	.st2{fill:#00C1A3;}
	.st3{fill:none;stroke:#0066FF;stroke-width:0.75;stroke-linejoin:round;stroke-miterlimit:10;}
	.st4{fill:#FFFFFF;stroke:#00C1A3;stroke-width:0.75;stroke-miterlimit:10;}
	.st5{fill:#FFFFFF;stroke:#0066FF;stroke-width:0.75;stroke-miterlimit:10;}
	.st6{fill:none;stroke:#00C1A3;stroke-width:0.75;stroke-miterlimit:10;}
	
		.st7{fill-rule:evenodd;clip-rule:evenodd;fill:none;stroke:#FF25F3;stroke-width:0.75;stroke-linecap:round;stroke-linejoin:round;stroke-miterlimit:10;}
	.st8{fill:none;stroke:#0066FF;stroke-width:0.75;stroke-miterlimit:10;}
	.st9{fill-rule:evenodd;clip-rule:evenodd;fill:none;stroke:#0066FF;stroke-width:0.75;stroke-miterlimit:10;}
	.st10{fill-rule:evenodd;clip-rule:evenodd;fill:none;stroke:#00C1A3;stroke-width:0.75;stroke-miterlimit:10;}
	.st11{fill:none;stroke:#FF25F3;stroke-width:0.75;stroke-linecap:round;stroke-linejoin:round;stroke-miterlimit:10;}
	.st12{fill:#FFFFFF;stroke:#FF25F3;stroke-width:0.75;stroke-linecap:round;stroke-linejoin:round;stroke-miterlimit:10;}
	.st13{fill-rule:evenodd;clip-rule:evenodd;fill:#FFFFFF;stroke:#0066FF;stroke-width:0.75;stroke-miterlimit:10;}
	
		.st14{fill-rule:evenodd;clip-rule:evenodd;fill:#FFFFFF;stroke:#FF25F3;stroke-width:0.75;stroke-linecap:round;stroke-linejoin:round;stroke-miterlimit:10;}
	.st15{fill-rule:evenodd;clip-rule:evenodd;fill:#FFFFFF;stroke:#00C1A3;stroke-width:0.75;stroke-miterlimit:10;}
	.st16{fill:none;stroke:#0066FF;stroke-width:0.75;stroke-linecap:round;stroke-linejoin:round;stroke-miterlimit:10;}
	.st17{fill:#FFFFFF;stroke:#00C1A3;stroke-width:0.75;stroke-linecap:round;stroke-linejoin:round;stroke-miterlimit:10;}
	
		.st18{fill-rule:evenodd;clip-rule:evenodd;fill:#FFFFFF;stroke:#0066FF;stroke-width:0.75;stroke-linecap:round;stroke-linejoin:round;stroke-miterlimit:10;}
	
		.st19{fill-rule:evenodd;clip-rule:evenodd;fill:none;stroke:#0066FF;stroke-width:0.75;stroke-linecap:round;stroke-linejoin:round;stroke-miterlimit:10;}
	.st20{fill:#FFFFFF;stroke:#0066FF;stroke-width:0.75;stroke-linejoin:round;stroke-miterlimit:10;}
	.st21{fill:none;stroke:#FF25F3;stroke-width:0.75;stroke-linecap:round;stroke-miterlimit:10;}
	.st22{fill:none;stroke:#00C1A3;stroke-width:0.75;stroke-miterlimit:10;stroke-dasharray:1.9953,1.9953;}
	.st23{fill:none;stroke:#FF25F3;stroke-width:0.75;stroke-linecap:round;stroke-miterlimit:10;stroke-dasharray:1.9953,1.9953;}
	.st24{fill:#FFFFFF;stroke:#000000;stroke-miterlimit:10;}
	.st25{fill:#0066FF;}
	.st26{fill:none;stroke:#FF25F3;stroke-width:0.75;stroke-linejoin:round;stroke-miterlimit:10;}
	.st27{fill:none;stroke:#FF25F3;stroke-width:0.75;stroke-miterlimit:10;}
	.st28{fill:none;stroke:#0066FF;stroke-width:0.75;stroke-linecap:round;stroke-miterlimit:10;}
	.st29{fill:none;stroke:#FFFFFF;stroke-width:0.75;stroke-miterlimit:10;}
	.st30{fill:none;stroke:#0000FF;stroke-width:2;stroke-miterlimit:10;}
	.st31{fill:none;stroke:#00C1A3;stroke-width:2;stroke-miterlimit:10;}
	.st32{fill:none;stroke:#FF25F3;stroke-width:2;stroke-linecap:round;stroke-linejoin:round;stroke-miterlimit:10;}
	.st33{fill:none;stroke:#FF25F3;stroke-width:0.75;stroke-linejoin:round;}
	.st34{fill:none;stroke:#FF25F3;stroke-width:0.75;stroke-linejoin:round;stroke-dasharray:1.916,1.916;}
	.st35{fill:none;stroke:#FF25F3;stroke-width:0.75;stroke-miterlimit:10;stroke-dasharray:1.916,1.916;}
	.st36{fill:none;}
	.st37{fill-rule:evenodd;clip-rule:evenodd;fill:none;stroke:#FF25F3;stroke-width:0.75;stroke-miterlimit:10;}
	.st38{clip-path:url(#SVGID_2_);fill:#2935E8;}
	.st39{clip-path:url(#SVGID_4_);fill:#00C1A3;}
	.st40{clip-path:url(#SVGID_6_);fill:#FF25F3;}
	.st41{fill:#FFFFFF;}
	.st42{fill:none;stroke:#FF25F3;stroke-width:0.75;stroke-linecap:round;stroke-linejoin:round;}
	.st43{fill:none;stroke:#FF25F3;stroke-width:0.75;stroke-linecap:round;stroke-linejoin:round;stroke-dasharray:5.1058,5.1058;}
	.st44{fill:none;stroke:#FF25F3;stroke-width:0.75;stroke-miterlimit:10;stroke-dasharray:7.3935,7.3935;}
	.st45{fill:none;stroke:#00C1A3;stroke-width:0.75;stroke-miterlimit:10;stroke-dasharray:8.7323,8.7323;}
	.st46{fill:none;stroke:#0000FF;stroke-miterlimit:10;}
</style>
<g>
	<path class="st8" d="M65.7,62.8H15.2c-1.8,0-3.3-1.5-3.3-3.3V23.7c0-1.8,1.5-3.3,3.3-3.3h50.5c1.8,0,3.3,1.5,3.3,3.3v35.7
		C69.1,61.3,67.6,62.8,65.7,62.8z"/>
	<path class="st8" d="M73.5,69h-66c-0.9,0-1.6-0.7-1.6-1.6V67c0-0.9,0.7-1.6,1.6-1.6h66c0.9,0,1.6,0.7,1.6,1.6v0.4
		C75.1,68.3,74.4,69,73.5,69z"/>
	<g>
		<g>
			<path class="st6" d="M11.6,16.1c0,1.7-2.2,3-4.8,3S2,17.8,2,16.1"/>
			<path class="st6" d="M21.2,16.1c0,1.7-2.2,3-4.8,3s-4.8-1.3-4.8-3"/>
			<path class="st6" d="M30.9,16.1c0,1.7-2.2,3-4.8,3s-4.8-1.3-4.8-3"/>
			<path class="st6" d="M40.5,16.1c0,1.7-2.2,3-4.8,3c-2.7,0-4.8-1.3-4.8-3"/>
			<path class="st6" d="M50.1,16.1c0,1.7-2.2,3-4.8,3c-2.7,0-4.8-1.3-4.8-3"/>
			<path class="st6" d="M59.7,16.1c0,1.7-2.2,3-4.8,3c-2.7,0-4.8-1.3-4.8-3"/>
			<path class="st6" d="M69.3,16.1c0,1.7-2.2,3-4.8,3s-4.8-1.3-4.8-3"/>
			<path class="st6" d="M78.9,16.1c0,1.7-2.2,3-4.8,3s-4.8-1.3-4.8-3"/>
			<line class="st6" x1="2" y1="16.1" x2="2" y2="12.9"/>
			<line class="st6" x1="11.6" y1="16.1" x2="11.6" y2="12.9"/>
			<line class="st6" x1="21.2" y1="16.1" x2="21.2" y2="12.9"/>
			<line class="st6" x1="30.9" y1="16.1" x2="30.9" y2="12.9"/>
			<line class="st6" x1="40.5" y1="16.1" x2="40.5" y2="12.9"/>
			<line class="st6" x1="50.1" y1="16.1" x2="50.1" y2="12.9"/>
			<line class="st6" x1="59.7" y1="16.1" x2="59.7" y2="12.9"/>
			<line class="st6" x1="69.3" y1="16.1" x2="69.3" y2="12.9"/>
			<line class="st6" x1="78.9" y1="16.1" x2="78.9" y2="12.9"/>
			<line class="st6" x1="2" y1="12.9" x2="78.9" y2="12.9"/>
		</g>
		<line class="st6" x1="14.5" y1="2.4" x2="66.5" y2="2.4"/>
		<line class="st6" x1="14.5" y1="2.4" x2="2" y2="12.9"/>
		<line class="st6" x1="66.5" y1="2.4" x2="78.9" y2="12.9"/>
		<line class="st6" x1="40.5" y1="13.4" x2="42.1" y2="2.4"/>
		<line class="st6" x1="50.1" y1="12.9" x2="48.7" y2="2.4"/>
		<line class="st6" x1="59.7" y1="12.9" x2="55.9" y2="2.4"/>
		<line class="st6" x1="69.3" y1="12.9" x2="61" y2="2.4"/>
		<line class="st6" x1="30.9" y1="12.9" x2="35.7" y2="2.4"/>
		<line class="st6" x1="21.2" y1="12.9" x2="28.2" y2="2.4"/>
		<line class="st6" x1="11.6" y1="12.9" x2="21.2" y2="2"/>
	</g>
	<rect x="14.5" y="24" class="st11" width="52" height="35.2"/>
</g>
</svg>
