<?xml version="1.0" encoding="utf-8"?>
<!-- Generator: Adobe Illustrator 23.0.1, SVG Export Plug-In . SVG Version: 6.00 Build 0)  -->
<svg version="1.1" id="Layer_1" xmlns="http://www.w3.org/2000/svg" xmlns:xlink="http://www.w3.org/1999/xlink" x="0px" y="0px"
	 viewBox="0 0 55.6 52.6" style="enable-background:new 0 0 55.6 52.6;" xml:space="preserve">
<style type="text/css">
	.st0{fill:none;stroke:#0066FF;stroke-width:0.75;stroke-miterlimit:10;}
	.st1{fill:none;stroke:#00C1A3;stroke-width:0.75;stroke-miterlimit:10;}
	.st2{fill-rule:evenodd;clip-rule:evenodd;fill:none;stroke:#FF25F3;stroke-width:0.75;stroke-miterlimit:10;}
</style>
<g>
	<polygon class="st0" points="27.9,51.2 41.3,38.9 41.3,1.3 27.9,13.5 	"/>
	<polyline class="st0" points="27.9,52 46.1,40.1 46.1,2.5 41.3,5.6 	"/>
	<polyline class="st1" points="27.9,51.6 51.6,43.1 51.6,5.4 46.1,7.4 	"/>
	<polyline class="st0" points="27.9,52 54.8,48.2 54.8,10.6 51.6,11 	"/>
</g>
<g>
	<polygon class="st2" points="27.8,51.2 14.4,38.9 14.4,1.3 27.8,13.5 	"/>
	<polyline class="st0" points="27.8,52 9.5,40.1 9.5,2.5 14.4,5.6 	"/>
	<polyline class="st0" points="27.8,51.6 4.1,43.1 4.1,5.4 9.5,7.4 	"/>
	<polyline class="st0" points="27.8,52 0.9,48.2 0.9,10.6 4.1,11 	"/>
</g>
</svg>
