<?xml version="1.0" encoding="utf-8"?>
<!-- Generator: Adobe Illustrator 23.0.1, SVG Export Plug-In . SVG Version: 6.00 Build 0)  -->
<svg version="1.1" id="Layer_1" xmlns="http://www.w3.org/2000/svg" xmlns:xlink="http://www.w3.org/1999/xlink" x="0px" y="0px"
	 viewBox="0 0 65.6 61" style="enable-background:new 0 0 65.6 61;" xml:space="preserve">
<style type="text/css">
	.st0{fill-rule:evenodd;clip-rule:evenodd;fill:none;stroke:#00C1A3;stroke-width:0.75;stroke-miterlimit:10;}
	.st1{fill:#FFFFFF;stroke:#0066FF;stroke-width:0.75;stroke-linecap:round;stroke-linejoin:round;stroke-miterlimit:10;}
	.st2{fill:none;stroke:#0066FF;stroke-width:0.75;stroke-linecap:round;stroke-linejoin:round;stroke-miterlimit:10;}
	.st3{fill:#FFFFFF;stroke:#0066FF;stroke-width:0.75;stroke-miterlimit:10;}
	.st4{fill:none;stroke:#0066FF;stroke-width:0.75;stroke-miterlimit:10;}
	.st5{fill:none;stroke:#00C1A3;stroke-width:0.75;stroke-miterlimit:10;}
	.st6{fill:none;stroke:#FF25F3;stroke-width:0.75;stroke-miterlimit:10;}
	.st7{fill:none;stroke:#FF25F3;stroke-width:0.75;stroke-linecap:round;stroke-linejoin:round;stroke-miterlimit:10;}
	.st8{fill-rule:evenodd;clip-rule:evenodd;fill:none;stroke:#0066FF;stroke-width:0.75;stroke-miterlimit:10;}
	.st9{clip-path:url(#SVGID_2_);fill-rule:evenodd;clip-rule:evenodd;fill:#FFFFFF;}
	.st10{fill-rule:evenodd;clip-rule:evenodd;fill:#FCFDFF;}
	.st11{fill-rule:evenodd;clip-rule:evenodd;fill:#FFFFFF;}
	.st12{fill-rule:evenodd;clip-rule:evenodd;fill:#3D6A9D;}
	.st13{fill:#FFFFFF;}
	.st14{fill:#0066FF;}
	.st15{fill-rule:evenodd;clip-rule:evenodd;fill:#FFFFFF;stroke:#0066FF;stroke-width:0.75;stroke-miterlimit:10;}
	.st16{fill-rule:evenodd;clip-rule:evenodd;fill:#FFFFFF;stroke:#44E0A0;stroke-width:0.75;stroke-miterlimit:10;}
	.st17{fill-rule:evenodd;clip-rule:evenodd;fill:#FFFFFF;stroke:#FF25F3;stroke-width:0.75;stroke-miterlimit:10;}
	.st18{fill:none;stroke:#FFFFFF;stroke-width:2.8774;stroke-miterlimit:10;}
	
		.st19{fill-rule:evenodd;clip-rule:evenodd;fill:none;stroke:#FF25F3;stroke-width:0.75;stroke-linecap:round;stroke-linejoin:round;stroke-miterlimit:10;}
	.st20{fill-rule:evenodd;clip-rule:evenodd;fill:#FFFFFF;stroke:#FFFFFF;stroke-width:0.7194;stroke-miterlimit:10;}
	.st21{fill:none;stroke:#FFFFFF;stroke-width:0.7194;stroke-miterlimit:10;}
	.st22{fill:none;stroke:#44E0A0;stroke-width:0.75;stroke-linecap:round;stroke-linejoin:round;stroke-miterlimit:10;}
	.st23{fill-rule:evenodd;clip-rule:evenodd;fill:#FFFFFF;stroke:#00C1A3;stroke-width:0.75;stroke-miterlimit:10;}
	.st24{fill:none;stroke:#0066FF;stroke-width:0.75;stroke-linecap:round;stroke-miterlimit:10;}
	.st25{fill:#FFFFFF;stroke:#00C1A3;stroke-width:0.75;stroke-miterlimit:10;}
	.st26{clip-path:url(#SVGID_4_);}
	
		.st27{fill-rule:evenodd;clip-rule:evenodd;fill:none;stroke:#0066FF;stroke-width:0.75;stroke-linecap:round;stroke-miterlimit:10;}
	.st28{fill:#FFFFFF;stroke:#FF25F3;stroke-width:0.75;stroke-miterlimit:10;}
	.st29{fill:#FFFFFF;stroke:#FF25F3;stroke-width:0.75;stroke-linecap:round;stroke-linejoin:round;stroke-miterlimit:10;}
	.st30{fill:none;stroke:#00FA9B;stroke-width:0.75;stroke-miterlimit:10;}
	.st31{fill:#87D73F;}
	.st32{fill:#3DED98;}
</style>
<path class="st17" d="M26.4,12.9c-2.1,0.2-3.6,1.7-4,3.6c-0.2,0.9-0.1,6.3-0.1,7.6c0,2.6,0,5.2,0,7.7c0,1.4,0,2.2,1,2.8
	c1.3,0.9,3.2,0.3,3.6-1.4c0.1-0.6,0-12.5,0-13.5c0-0.5,0-1.3,0-1.9c0-0.7,0.9-0.7,1,0c0.1,1.1,0,2.7,0,3.8v30.8c0,1-0.2,2.7,0.3,3.5
	c1.1,2,4.2,1.3,4.3-1.1c0-1.3,0-2.6,0-3.9c0-5.1,0-10.4,0-15.4c0-0.8,0.7-0.8,0.9-0.4c0.1,0.3,0,15.6,0,17.3c0,1.1-0.1,2.7,0.3,3.5
	c1.1,1.9,4.2,1.3,4.3-1.2c0.1-2.5,0-5.1,0-7.7c0-9.6,0-19.3,0-28.9c0-0.3,0-0.7,0.2-0.9c0.2-0.2,0.6-0.1,0.7,0
	c0.2,0.3,0.1,3.1,0.1,3.7c0,1.3,0,2.6,0,3.8c0,2.5-0.1,5.2,0,7.7c0.1,2.4,3.2,3,4.3,1.1c0.5-0.8,0.3-2.5,0.3-3.6V18.9
	c0-1.3,0-2.3-0.5-3.4c-0.4-0.8-1.1-1.6-1.9-2c-1.1-0.6-1.9-0.6-3.3-0.6C36.3,12.9,27.3,12.9,26.4,12.9L26.4,12.9z"/>
<path class="st17" d="M32.5,0.8c-2.7,0.1-4.9,2.6-4.7,5.5c0.2,2.7,2.6,4.9,5.5,4.7c2.7-0.2,4.9-2.6,4.6-5.5
	C37.7,2.7,35.5,0.6,32.5,0.8L32.5,0.8z"/>
<g>
	<path class="st8" d="M9.9,57.3h0.7c0.2-2.7-0.5-1.8,0.8-3.3c0.6-0.7,1.7-2,2-2.9c0-0.2,0.1-0.3,0-0.5c-1,0-2.5,1.4-3.2,2.6
		c-0.7-1.1-2.2-2.6-3.2-2.6c-0.1,0.9,1.5,2.8,2,3.4C10.4,55.5,9.8,54.4,9.9,57.3L9.9,57.3z"/>
	<path class="st8" d="M10.3,48.2c0.9-1.1,3.3-3.5,3.2-4.7c-1.1-0.1-2.5,1.4-3.2,2.5c-0.7-1.1-2.2-2.7-3.2-2.5
		C7,44.7,9.3,47.2,10.3,48.2L10.3,48.2z"/>
	<path class="st8" d="M10.3,44.6c1.2-1.4,2.9-3.1,3.3-4.7c-0.2,0,0,0-0.2,0c-0.2,0-0.4,0.1-0.6,0.2c-0.3,0.2-0.6,0.4-0.8,0.6
		c-0.8,0.6-1,1-1.6,1.7c-0.6-0.9-2.4-2.7-3.3-2.5C7.1,41.2,9.3,43.5,10.3,44.6L10.3,44.6z"/>
	<path class="st8" d="M10.3,51.8c0.9-1,3.3-3.6,3.2-4.7c-0.9-0.1-2.6,1.6-3.2,2.5c-0.6-0.9-2.3-2.7-3.2-2.5
		C7,48.2,9.4,50.8,10.3,51.8L10.3,51.8z"/>
	<path class="st8" d="M10.3,41c1-1.1,3.3-3.6,2.1-4.8c-0.8,1-1.4,1.7-2.1,2.7c-0.7-1-1.3-1.7-2.2-2.7C7.1,37.4,9.3,40,10.3,41
		L10.3,41z"/>
	<path class="st8" d="M10.3,37.5c1-1.2,1-2.3,0-3.6C9.3,35.1,9.3,36.2,10.3,37.5L10.3,37.5z"/>
</g>
<g>
	<path class="st8" d="M17.5,57.3h0.7c0.2-2.7-0.5-1.8,0.8-3.3c0.6-0.7,1.7-2,2-3c0-0.1,0.1-0.3,0-0.5c-1,0-2.5,1.4-3.2,2.6
		c-0.7-1.1-2.2-2.7-3.2-2.6c-0.1,0.9,1.5,2.8,2,3.3C17.9,55.5,17.3,54.4,17.5,57.3L17.5,57.3z"/>
	<path class="st8" d="M17.8,48.2c0.9-1.1,3.3-3.5,3.2-4.8c-1.1,0-2.5,1.4-3.2,2.6c-0.7-1.1-2.2-2.7-3.2-2.6
		C14.5,44.7,16.9,47.2,17.8,48.2L17.8,48.2z"/>
	<path class="st8" d="M17.8,44.6c1.2-1.4,2.9-3.1,3.3-4.7c-0.2,0,0,0-0.2,0c-0.2,0-0.4,0.1-0.6,0.2c-0.3,0.1-0.6,0.4-0.8,0.5
		c-0.8,0.7-1,1-1.6,1.7c-0.6-0.9-2.4-2.7-3.2-2.5C14.6,41.2,16.8,43.5,17.8,44.6L17.8,44.6z"/>
	<path class="st8" d="M17.8,51.8c0.9-1,3.3-3.6,3.2-4.7c-0.9-0.1-2.6,1.6-3.2,2.5c-0.6-0.9-2.3-2.7-3.2-2.5
		C14.5,48.2,17,50.8,17.8,51.8L17.8,51.8z"/>
	<path class="st8" d="M17.8,41c1-1.1,3.3-3.6,2.1-4.8c-0.8,1-1.4,1.6-2.1,2.7c-0.7-1-1.3-1.7-2.2-2.7C14.6,37.4,16.9,40,17.8,41
		L17.8,41z"/>
	<path class="st8" d="M17.8,37.5c1-1.3,1-2.4,0-3.6C16.8,35.1,16.8,36.2,17.8,37.5L17.8,37.5z"/>
</g>
<g>
	<path class="st8" d="M25,57.3h0.7c0.2-2.7-0.4-1.8,0.8-3.3c0.6-0.7,1.7-2,2-3c0-0.1,0.1-0.3,0-0.5c-1,0-2.5,1.4-3.2,2.5
		c-0.7-1.1-2.2-2.6-3.2-2.5c-0.1,0.9,1.5,2.8,2,3.3C25.4,55.5,24.9,54.4,25,57.3L25,57.3z"/>
	<path class="st8" d="M25.4,48.2c0.9-1,3.3-3.5,3.2-4.7c-1.1,0-2.5,1.4-3.2,2.5c-0.7-1.1-2.2-2.6-3.2-2.5
		C22.1,44.7,24.4,47.2,25.4,48.2L25.4,48.2z"/>
	<path class="st8" d="M25.4,44.6c1.2-1.4,2.9-3.1,3.3-4.7c-0.2,0,0,0-0.2,0c-0.2,0-0.4,0.1-0.6,0.2c-0.3,0.2-0.6,0.4-0.9,0.6
		c-0.8,0.6-1,1-1.6,1.7c-0.6-0.9-2.4-2.7-3.2-2.5C22.1,41.2,24.4,43.5,25.4,44.6L25.4,44.6z"/>
	<path class="st8" d="M25.4,51.8c0.9-1,3.3-3.6,3.2-4.8c-0.9-0.1-2.6,1.6-3.2,2.6c-0.6-0.9-2.3-2.7-3.2-2.6
		C22,48.2,24.5,50.8,25.4,51.8L25.4,51.8z"/>
	<path class="st8" d="M25.4,41c1-1.1,3.3-3.6,2.1-4.8c-0.8,1-1.4,1.6-2.1,2.7c-0.7-1-1.3-1.7-2.2-2.7C22.1,37.4,24.4,40,25.4,41
		L25.4,41z"/>
	<path class="st8" d="M25.4,37.5c1-1.3,1-2.4,0-3.6C24.3,35.1,24.4,36.2,25.4,37.5L25.4,37.5z"/>
</g>
<g>
	<path class="st8" d="M32.6,57.3l0.6,0c0.2-2.7-0.4-1.7,0.8-3.3c0.6-0.7,1.7-2,2-2.9c0-0.1,0.1-0.3,0.1-0.5c-1.1,0-2.5,1.4-3.2,2.6
		c-0.8-1.1-2.2-2.6-3.3-2.6c-0.1,0.9,1.5,2.8,2,3.4C32.9,55.5,32.4,54.4,32.6,57.3L32.6,57.3z"/>
	<path class="st8" d="M32.9,48.2c0.9-1,3.3-3.5,3.2-4.7c-1.1-0.1-2.5,1.4-3.2,2.5c-0.7-1.1-2.2-2.7-3.2-2.5
		C29.6,44.7,31.9,47.1,32.9,48.2L32.9,48.2z"/>
	<path class="st8" d="M32.9,44.6c1.2-1.4,2.9-3.1,3.3-4.7c-0.2,0,0,0-0.2,0c-0.3,0-0.4,0.1-0.6,0.2c-0.3,0.2-0.6,0.4-0.9,0.6
		c-0.8,0.6-1,1-1.6,1.7c-0.6-0.9-2.4-2.8-3.2-2.5C29.7,41.2,31.9,43.5,32.9,44.6L32.9,44.6z"/>
	<path class="st8" d="M32.9,51.8c0.9-1,3.3-3.6,3.2-4.8c-0.9-0.1-2.6,1.6-3.2,2.6c-0.6-1-2.3-2.7-3.2-2.6
		C29.5,48.2,32,50.8,32.9,51.8L32.9,51.8z"/>
	<path class="st8" d="M32.9,41c1-1.1,3.3-3.6,2.1-4.7c-0.8,0.9-1.4,1.6-2.1,2.7c-0.7-1-1.3-1.7-2.2-2.7C29.6,37.4,31.9,40,32.9,41
		L32.9,41z"/>
	<path class="st8" d="M32.9,37.4c1-1.2,1-2.3,0-3.6C31.8,35.1,31.9,36.2,32.9,37.4L32.9,37.4z"/>
</g>
<g>
	<path class="st8" d="M40.1,57.3h0.7c0.2-2.7-0.5-1.8,0.8-3.3c0.6-0.7,1.7-2,1.9-2.9c0-0.2,0.1-0.3,0.1-0.5c-1.1,0-2.5,1.4-3.2,2.6
		c-0.8-1.1-2.2-2.6-3.3-2.6c-0.1,0.9,1.5,2.8,2,3.4C40.5,55.5,39.9,54.4,40.1,57.3L40.1,57.3z"/>
	<path class="st8" d="M40.4,48.2c0.9-1.1,3.3-3.5,3.2-4.7c-1.1-0.1-2.5,1.4-3.2,2.5c-0.7-1.1-2.2-2.7-3.2-2.5
		C37.2,44.7,39.5,47.2,40.4,48.2L40.4,48.2z"/>
	<path class="st8" d="M40.4,44.6c1.2-1.4,2.9-3.1,3.3-4.7c-0.2,0,0,0-0.2,0c-0.3,0-0.4,0.1-0.6,0.2c-0.3,0.2-0.6,0.4-0.9,0.6
		c-0.8,0.6-1,1-1.6,1.7c-0.6-0.9-2.4-2.7-3.2-2.5C37.2,41.2,39.4,43.5,40.4,44.6L40.4,44.6z"/>
	<path class="st8" d="M40.4,51.8c0.9-1,3.3-3.6,3.2-4.7c-0.9-0.1-2.6,1.6-3.2,2.6c-0.7-1-2.3-2.7-3.3-2.6
		C37.1,48.2,39.5,50.8,40.4,51.8L40.4,51.8z"/>
	<path class="st8" d="M40.4,41c1-1.1,3.3-3.6,2.2-4.8c-0.8,1-1.5,1.7-2.2,2.7c-0.7-1-1.3-1.7-2.2-2.7C37.2,37.4,39.4,40,40.4,41
		L40.4,41z"/>
	<path class="st8" d="M40.4,37.5c1-1.2,1.1-2.3,0-3.6C39.4,35.1,39.4,36.2,40.4,37.5L40.4,37.5z"/>
</g>
<g>
	<path class="st8" d="M47.6,57.3h0.7c0.2-2.7-0.5-1.8,0.8-3.3c0.6-0.7,1.7-2,2-3c0-0.1,0-0.3,0-0.5c-1.1,0-2.5,1.4-3.2,2.6
		c-0.8-1.1-2.2-2.7-3.2-2.6c-0.1,0.9,1.5,2.8,1.9,3.3C48,55.5,47.5,54.4,47.6,57.3L47.6,57.3z"/>
	<path class="st8" d="M47.9,48.2c0.9-1.1,3.3-3.5,3.2-4.8c-1.1,0-2.5,1.4-3.2,2.6c-0.7-1.1-2.2-2.7-3.2-2.6
		C44.7,44.7,47,47.2,47.9,48.2L47.9,48.2z"/>
	<path class="st8" d="M47.9,44.6c1.3-1.4,2.9-3.1,3.3-4.7c-0.2,0,0,0-0.2,0c-0.3,0-0.4,0.1-0.6,0.2c-0.3,0.1-0.6,0.4-0.9,0.5
		c-0.8,0.7-1,1-1.6,1.7c-0.6-0.9-2.4-2.7-3.2-2.5C44.7,41.2,47,43.5,47.9,44.6L47.9,44.6z"/>
	<path class="st8" d="M47.9,51.8c0.9-1,3.3-3.6,3.2-4.7c-0.9-0.1-2.6,1.6-3.2,2.5c-0.7-0.9-2.3-2.7-3.3-2.5
		C44.6,48.2,47.1,50.8,47.9,51.8L47.9,51.8z"/>
	<path class="st8" d="M47.9,41c1-1.1,3.3-3.6,2.2-4.8c-0.8,1-1.5,1.6-2.2,2.7c-0.7-1-1.3-1.7-2.2-2.7C44.7,37.4,47,40,47.9,41
		L47.9,41z"/>
	<path class="st8" d="M47.9,37.5c1-1.3,1.1-2.4,0-3.6C46.9,35.1,47,36.2,47.9,37.5L47.9,37.5z"/>
</g>
<g>
	<path class="st8" d="M55.1,57.3h0.7c0.2-2.7-0.5-1.8,0.8-3.3c0.6-0.7,1.7-2,2-3c0-0.1,0-0.3,0-0.5c-1,0-2.5,1.4-3.2,2.5
		c-0.8-1.1-2.2-2.6-3.2-2.5c-0.1,0.9,1.5,2.8,2,3.3C55.5,55.5,55,54.4,55.1,57.3L55.1,57.3z"/>
	<path class="st8" d="M55.5,48.2c0.9-1,3.3-3.5,3.2-4.7c-1.1,0-2.5,1.4-3.2,2.6c-0.7-1.1-2.2-2.7-3.3-2.6
		C52.2,44.7,54.5,47.2,55.5,48.2L55.5,48.2z"/>
	<path class="st8" d="M55.5,44.6c1.3-1.4,2.9-3.1,3.3-4.7c-0.2,0,0,0-0.2,0c-0.3,0-0.4,0.1-0.6,0.2c-0.3,0.2-0.6,0.4-0.9,0.6
		c-0.8,0.6-1,1-1.6,1.7c-0.6-0.9-2.4-2.7-3.2-2.5C52.2,41.2,54.5,43.5,55.5,44.6L55.5,44.6z"/>
	<path class="st8" d="M55.5,51.8c0.9-1,3.3-3.6,3.2-4.8c-0.9-0.1-2.6,1.6-3.2,2.6c-0.7-0.9-2.3-2.7-3.3-2.6
		C52.1,48.2,54.6,50.8,55.5,51.8L55.5,51.8z"/>
	<path class="st8" d="M55.5,41c1-1.1,3.3-3.6,2.2-4.8c-0.8,1-1.5,1.6-2.2,2.7c-0.7-1-1.3-1.7-2.1-2.7C52.2,37.4,54.5,40,55.5,41
		L55.5,41z"/>
	<path class="st8" d="M55.5,37.5c1-1.3,1.1-2.4,0-3.6C54.4,35.1,54.5,36.2,55.5,37.5L55.5,37.5z"/>
</g>
<rect x="0.8" y="57.5" class="st8" width="64.2" height="2.7"/>
</svg>
