<?xml version="1.0" encoding="utf-8"?>
<!-- Generator: Adobe Illustrator 23.0.1, SVG Export Plug-In . SVG Version: 6.00 Build 0)  -->
<svg version="1.1" id="Layer_1" xmlns="http://www.w3.org/2000/svg" xmlns:xlink="http://www.w3.org/1999/xlink" x="0px" y="0px"
	 viewBox="0 0 70.8 55.6" style="enable-background:new 0 0 70.8 55.6;" xml:space="preserve">
<style type="text/css">
	.st0{fill:#FF25F3;}
	.st1{fill:#2935E8;}
	.st2{fill:#00C1A3;}
	.st3{fill:none;stroke:#0066FF;stroke-width:0.75;stroke-linejoin:round;stroke-miterlimit:10;}
	.st4{fill:#FFFFFF;stroke:#00C1A3;stroke-width:0.75;stroke-miterlimit:10;}
	.st5{fill:#FFFFFF;stroke:#0066FF;stroke-width:0.75;stroke-miterlimit:10;}
	.st6{fill:none;stroke:#00C1A3;stroke-width:0.75;stroke-miterlimit:10;}
	
		.st7{fill-rule:evenodd;clip-rule:evenodd;fill:none;stroke:#FF25F3;stroke-width:0.75;stroke-linecap:round;stroke-linejoin:round;stroke-miterlimit:10;}
	.st8{fill:none;stroke:#0066FF;stroke-width:0.75;stroke-miterlimit:10;}
	.st9{fill-rule:evenodd;clip-rule:evenodd;fill:none;stroke:#0066FF;stroke-width:0.75;stroke-miterlimit:10;}
	.st10{fill-rule:evenodd;clip-rule:evenodd;fill:none;stroke:#00C1A3;stroke-width:0.75;stroke-miterlimit:10;}
	.st11{fill:none;stroke:#FF25F3;stroke-width:0.75;stroke-linecap:round;stroke-linejoin:round;stroke-miterlimit:10;}
	.st12{fill:#FFFFFF;stroke:#FF25F3;stroke-width:0.75;stroke-linecap:round;stroke-linejoin:round;stroke-miterlimit:10;}
	.st13{fill-rule:evenodd;clip-rule:evenodd;fill:#FFFFFF;stroke:#0066FF;stroke-width:0.75;stroke-miterlimit:10;}
	
		.st14{fill-rule:evenodd;clip-rule:evenodd;fill:#FFFFFF;stroke:#FF25F3;stroke-width:0.75;stroke-linecap:round;stroke-linejoin:round;stroke-miterlimit:10;}
	.st15{fill-rule:evenodd;clip-rule:evenodd;fill:#FFFFFF;stroke:#00C1A3;stroke-width:0.75;stroke-miterlimit:10;}
	.st16{fill:none;stroke:#0066FF;stroke-width:0.75;stroke-linecap:round;stroke-linejoin:round;stroke-miterlimit:10;}
	.st17{fill:#FFFFFF;stroke:#00C1A3;stroke-width:0.75;stroke-linecap:round;stroke-linejoin:round;stroke-miterlimit:10;}
	
		.st18{fill-rule:evenodd;clip-rule:evenodd;fill:#FFFFFF;stroke:#0066FF;stroke-width:0.75;stroke-linecap:round;stroke-linejoin:round;stroke-miterlimit:10;}
	
		.st19{fill-rule:evenodd;clip-rule:evenodd;fill:none;stroke:#0066FF;stroke-width:0.75;stroke-linecap:round;stroke-linejoin:round;stroke-miterlimit:10;}
	.st20{fill:#FFFFFF;stroke:#0066FF;stroke-width:0.75;stroke-linejoin:round;stroke-miterlimit:10;}
	.st21{fill:none;stroke:#FF25F3;stroke-width:0.75;stroke-linecap:round;stroke-miterlimit:10;}
	.st22{fill:none;stroke:#00C1A3;stroke-width:0.75;stroke-miterlimit:10;stroke-dasharray:1.9953,1.9953;}
	.st23{fill:none;stroke:#FF25F3;stroke-width:0.75;stroke-linecap:round;stroke-miterlimit:10;stroke-dasharray:1.9953,1.9953;}
	.st24{fill:#FFFFFF;stroke:#000000;stroke-miterlimit:10;}
	.st25{fill:#0066FF;}
	.st26{fill:none;stroke:#FF25F3;stroke-width:0.75;stroke-linejoin:round;stroke-miterlimit:10;}
	.st27{fill:none;stroke:#FF25F3;stroke-width:0.75;stroke-miterlimit:10;}
	.st28{fill:none;stroke:#0066FF;stroke-width:0.75;stroke-linecap:round;stroke-miterlimit:10;}
	.st29{fill:none;stroke:#FFFFFF;stroke-width:0.75;stroke-miterlimit:10;}
	.st30{fill:none;stroke:#0000FF;stroke-width:2;stroke-miterlimit:10;}
	.st31{fill:none;stroke:#00C1A3;stroke-width:2;stroke-miterlimit:10;}
	.st32{fill:none;stroke:#FF25F3;stroke-width:2;stroke-linecap:round;stroke-linejoin:round;stroke-miterlimit:10;}
	.st33{fill:none;stroke:#FF25F3;stroke-width:0.75;stroke-linejoin:round;}
	.st34{fill:none;stroke:#FF25F3;stroke-width:0.75;stroke-linejoin:round;stroke-dasharray:1.916,1.916;}
	.st35{fill:none;stroke:#FF25F3;stroke-width:0.75;stroke-miterlimit:10;stroke-dasharray:1.916,1.916;}
	.st36{fill:none;}
	.st37{fill-rule:evenodd;clip-rule:evenodd;fill:none;stroke:#FF25F3;stroke-width:0.75;stroke-miterlimit:10;}
	.st38{clip-path:url(#SVGID_2_);fill:#2935E8;}
	.st39{clip-path:url(#SVGID_4_);fill:#00C1A3;}
	.st40{clip-path:url(#SVGID_6_);fill:#FF25F3;}
	.st41{fill:#FFFFFF;}
	.st42{fill:none;stroke:#FF25F3;stroke-width:0.75;stroke-linecap:round;stroke-linejoin:round;}
	.st43{fill:none;stroke:#FF25F3;stroke-width:0.75;stroke-linecap:round;stroke-linejoin:round;stroke-dasharray:5.1058,5.1058;}
	.st44{fill:none;stroke:#FF25F3;stroke-width:0.75;stroke-miterlimit:10;stroke-dasharray:7.3935,7.3935;}
	.st45{fill:none;stroke:#00C1A3;stroke-width:0.75;stroke-miterlimit:10;stroke-dasharray:8.7323,8.7323;}
</style>
<g>
	<rect x="1.9" y="33.3" class="st8" width="35.9" height="6.4"/>
	<polygon class="st8" points="37.7,33.3 23.2,33.3 23.3,18.1 34.4,18.1 37.7,25.9 	"/>
	<polygon class="st8" points="23.2,33.3 1.9,33.3 6.1,25.6 23.2,25.6 	"/>
	<polygon class="st8" points="35.3,25.6 25.8,25.6 25.8,20.7 33.2,20.7 	"/>
	<polyline class="st8" points="22.1,25.6 9.7,13.2 3.9,18.6 5.2,19.8 9.1,16.4 18.2,25.7 	"/>
	<line class="st8" x1="22.5" y1="47.2" x2="14" y2="47.2"/>
	<polyline class="st8" points="4.3,47.2 1.9,39.7 37.7,39.7 34.8,44.3 	"/>
	<polygon class="st8" points="46.3,48.9 41.8,46.4 40.4,41.5 42.9,37 47.8,35.6 52.3,38.1 53.7,43 51.2,47.5 	"/>
	<circle class="st8" cx="47.2" cy="42.1" r="1.4"/>
	<line class="st8" x1="37.7" y1="37.7" x2="41.7" y2="39.2"/>
	<line class="st8" x1="40.7" y1="41" x2="37.7" y2="39.7"/>
	<circle class="st8" cx="28.8" cy="46.1" r="6.4"/>
	<circle class="st8" cx="28.8" cy="46.1" r="3.1"/>
	<circle class="st8" cx="9.2" cy="47.7" r="4.6"/>
	<circle class="st8" cx="9.2" cy="47.7" r="2.3"/>
	<g>
		<path class="st6" d="M62.5,4.8h0.8c2.4,0,4.3,1.9,4.3,4.3v18.2c0,2.4-1.9,4.3-4.3,4.3H45c-2.4,0-4.3-1.9-4.3-4.3V9.1
			c0-2.4,1.9-4.3,4.3-4.3h1.5"/>
		<line class="st6" x1="57.6" y1="4.8" x2="60.7" y2="4.8"/>
		<line class="st6" x1="53" y1="4.8" x2="56.1" y2="4.8"/>
		<line class="st6" x1="48.2" y1="4.8" x2="51.3" y2="4.8"/>
		<rect x="46.7" y="2.4" class="st8" width="1.2" height="5.4"/>
		<rect x="51.5" y="2.4" class="st8" width="1.2" height="5.4"/>
		<rect x="56.2" y="2.4" class="st8" width="1.2" height="5.4"/>
		<rect x="61" y="2.4" class="st8" width="1.2" height="5.4"/>
		<g>
			<rect x="45.6" y="10.9" class="st8" width="7" height="7"/>
			<rect x="55.6" y="10.9" class="st8" width="7" height="7"/>
			<rect x="45.6" y="20.9" class="st8" width="7" height="7"/>
			<rect x="55.6" y="20.9" class="st11" width="7" height="7"/>
		</g>
	</g>
</g>
</svg>
