<?xml version="1.0" encoding="utf-8"?>
<!-- Generator: Adobe Illustrator 23.0.1, SVG Export Plug-In . SVG Version: 6.00 Build 0)  -->
<svg version="1.1" id="Layer_1" xmlns="http://www.w3.org/2000/svg" xmlns:xlink="http://www.w3.org/1999/xlink" x="0px" y="0px"
	 viewBox="0 0 60 49" style="enable-background:new 0 0 60 49;" xml:space="preserve">
<style type="text/css">
	.st0{fill:none;stroke:#0066FF;stroke-width:0.75;stroke-miterlimit:10;}
	.st1{fill:none;stroke:#FF25F3;stroke-width:0.75;stroke-linecap:round;stroke-linejoin:round;stroke-miterlimit:10;}
	.st2{fill:none;stroke:#00C1A3;stroke-width:0.75;stroke-miterlimit:10;}
	.st3{fill-rule:evenodd;clip-rule:evenodd;fill:none;stroke:#0066FF;stroke-width:0.75;stroke-miterlimit:10;}
	.st4{fill:none;stroke:#FF25F3;stroke-width:0.75;stroke-linejoin:round;stroke-miterlimit:10;}
	.st5{fill:none;stroke:#FF25F3;stroke-width:0.75;stroke-miterlimit:10;}
	
		.st6{fill-rule:evenodd;clip-rule:evenodd;fill:none;stroke:#FF25F3;stroke-width:0.75;stroke-linejoin:round;stroke-miterlimit:10;}
	.st7{fill-rule:evenodd;clip-rule:evenodd;fill:none;stroke:#00C1A3;stroke-width:0.75;stroke-miterlimit:10;}
	
		.st8{fill-rule:evenodd;clip-rule:evenodd;fill:none;stroke:#FF25F3;stroke-width:0.75;stroke-linecap:round;stroke-linejoin:round;stroke-miterlimit:10;}
</style>
<g>
	<path class="st3" d="M49.5,17.4v13.1h-0.9V17.1c0-0.9-0.8-2-1.9-2c-0.7,0-1.5,0.4-1.9,0.8c-0.5,0.6-0.5,1.1-0.5,2.2
		c0,2.5,0.1,5.4-0.5,7.7c-0.2,0.8-0.4,1.4-0.6,2.2c-1,3.8-1.4,6.6,0.5,10.3c0.6,1.3,1.3,2.6,1.9,3.9c0.1,0.2,0,0.5,0.4,0.5h10.2
		c0.5,0,0-0.9-0.1-1.9c-0.8-4.1-1.1-9.4-0.5-13.5c0.2-1.3,0.7-2.9,0.7-4c0-2.1-1.6-4.4-2.4-6.3C53.6,16,53,15,52.5,14.1
		c-0.4-0.8-1.8-3.7-2.2-4.3c-0.3-0.5-0.5-1-0.8-1.4c-0.8-1.3-2.2-4.3-3.1-5.6c-0.4-0.5-0.5-0.7-1-1.1c-1.5-1.4-3.7-0.5-3.7,1.7
		c0,0.6,1.2,3.1,1.6,3.8l1.3,2.8c0.2,0.3,0.3,0.6,0.5,0.9c0.2,0.4,0.3,0.5,0.4,0.9l0.8,1.9c0.2,0.5,0.3,0.3,0.9,0.5
		C48.5,14.6,49.5,15.7,49.5,17.4L49.5,17.4z"/>
	<path class="st3" d="M44.3,47.8h14.3v-4.3H44.3V46c0,0.5-0.1,0.5,0,0.9C44.3,47.1,44.3,47.4,44.3,47.8L44.3,47.8z"/>
	<path class="st3" d="M11.2,17.4v13.1h0.9V17.1c0-0.9,0.8-2,1.9-2c0.7,0,1.5,0.4,1.9,0.8c0.5,0.6,0.5,1.1,0.5,2.2
		c0,2.5-0.1,5.4,0.5,7.7c0.2,0.8,0.4,1.4,0.6,2.2c1.1,3.8,1.4,6.6-0.5,10.3c-0.7,1.3-1.4,2.6-1.9,3.9c-0.1,0.2-0.1,0.5-0.4,0.5H4.6
		c-0.5,0-0.1-0.9,0.1-1.9c0.8-4.1,1.1-9.4,0.5-13.5c-0.2-1.3-0.7-2.9-0.7-4c0-2.1,1.6-4.4,2.4-6.3c0.4-0.9,1-1.9,1.4-2.9
		c0.4-0.8,1.9-3.7,2.2-4.3c0.3-0.5,0.5-1,0.7-1.4c0.8-1.3,2.2-4.3,3.1-5.6c0.3-0.5,0.5-0.7,1-1.1c1.5-1.4,3.7-0.5,3.7,1.7
		c0,0.6-1.2,3.1-1.5,3.8l-1.3,2.8c-0.2,0.3-0.3,0.6-0.5,0.9c-0.1,0.4-0.3,0.5-0.4,0.9l-0.8,1.9c-0.2,0.5-0.3,0.3-0.9,0.5
		C12.2,14.6,11.2,15.7,11.2,17.4L11.2,17.4z"/>
	<path class="st8" d="M16.4,47.8H2.1v-4.3h14.3V46c0,0.5,0.1,0.5,0.1,0.9C16.5,47.1,16.4,47.4,16.4,47.8L16.4,47.8z"/>
	<path class="st7" d="M28.5,20c0.7,0.8,1.5,2.1,1.8,3.5h-8.2v2.4h8.1c-1.1,2.8-6.2,2.9-6.2,2.9l6.3,10.7l3.2-0.2l-5.5-8.7
		c0,0,4.3-1,5.1-4.7h5.4v-2.4h-5.3c-0.2-1.5-0.7-2.7-1.2-3.5h6.7v-2.4H22.3V20H28.5z"/>
</g>
</svg>
