<?xml version="1.0" encoding="utf-8"?>
<!-- Generator: Adobe Illustrator 23.0.1, SVG Export Plug-In . SVG Version: 6.00 Build 0)  -->
<svg version="1.1" id="Layer_1" xmlns="http://www.w3.org/2000/svg" xmlns:xlink="http://www.w3.org/1999/xlink" x="0px" y="0px"
	 viewBox="0 0 86.5 84.1" style="enable-background:new 0 0 86.5 84.1;" xml:space="preserve">
<style type="text/css">
	.st0{fill:#FF25F3;}
	.st1{fill:#2935E8;}
	.st2{fill:#00C1A3;}
	.st3{fill:none;stroke:#0066FF;stroke-width:0.75;stroke-linejoin:round;stroke-miterlimit:10;}
	.st4{fill:#FFFFFF;stroke:#00C1A3;stroke-width:0.75;stroke-miterlimit:10;}
	.st5{fill:#FFFFFF;stroke:#0066FF;stroke-width:0.75;stroke-miterlimit:10;}
	.st6{fill:none;stroke:#00C1A3;stroke-width:0.75;stroke-miterlimit:10;}
	
		.st7{fill-rule:evenodd;clip-rule:evenodd;fill:none;stroke:#FF25F3;stroke-width:0.75;stroke-linecap:round;stroke-linejoin:round;stroke-miterlimit:10;}
	.st8{fill:none;stroke:#0066FF;stroke-width:0.75;stroke-miterlimit:10;}
	.st9{fill-rule:evenodd;clip-rule:evenodd;fill:none;stroke:#0066FF;stroke-width:0.75;stroke-miterlimit:10;}
	.st10{fill-rule:evenodd;clip-rule:evenodd;fill:none;stroke:#00C1A3;stroke-width:0.75;stroke-miterlimit:10;}
	.st11{fill:none;stroke:#FF25F3;stroke-width:0.75;stroke-linecap:round;stroke-linejoin:round;stroke-miterlimit:10;}
	.st12{fill:#FFFFFF;stroke:#FF25F3;stroke-width:0.75;stroke-linecap:round;stroke-linejoin:round;stroke-miterlimit:10;}
	.st13{fill-rule:evenodd;clip-rule:evenodd;fill:#FFFFFF;stroke:#0066FF;stroke-width:0.75;stroke-miterlimit:10;}
	
		.st14{fill-rule:evenodd;clip-rule:evenodd;fill:#FFFFFF;stroke:#FF25F3;stroke-width:0.75;stroke-linecap:round;stroke-linejoin:round;stroke-miterlimit:10;}
	.st15{fill-rule:evenodd;clip-rule:evenodd;fill:#FFFFFF;stroke:#00C1A3;stroke-width:0.75;stroke-miterlimit:10;}
	.st16{fill:none;stroke:#0066FF;stroke-width:0.75;stroke-linecap:round;stroke-linejoin:round;stroke-miterlimit:10;}
	.st17{fill:#FFFFFF;stroke:#00C1A3;stroke-width:0.75;stroke-linecap:round;stroke-linejoin:round;stroke-miterlimit:10;}
	
		.st18{fill-rule:evenodd;clip-rule:evenodd;fill:#FFFFFF;stroke:#0066FF;stroke-width:0.75;stroke-linecap:round;stroke-linejoin:round;stroke-miterlimit:10;}
	
		.st19{fill-rule:evenodd;clip-rule:evenodd;fill:none;stroke:#0066FF;stroke-width:0.75;stroke-linecap:round;stroke-linejoin:round;stroke-miterlimit:10;}
	.st20{fill:#FFFFFF;stroke:#0066FF;stroke-width:0.75;stroke-linejoin:round;stroke-miterlimit:10;}
	.st21{fill:none;stroke:#FF25F3;stroke-width:0.75;stroke-linecap:round;stroke-miterlimit:10;}
	.st22{fill:none;stroke:#00C1A3;stroke-width:0.75;stroke-miterlimit:10;stroke-dasharray:1.9953,1.9953;}
	.st23{fill:none;stroke:#FF25F3;stroke-width:0.75;stroke-linecap:round;stroke-miterlimit:10;stroke-dasharray:1.9953,1.9953;}
	.st24{fill:#FFFFFF;stroke:#000000;stroke-miterlimit:10;}
	.st25{fill:#0066FF;}
	.st26{fill:none;stroke:#FF25F3;stroke-width:0.75;stroke-linejoin:round;stroke-miterlimit:10;}
	.st27{fill:none;stroke:#FF25F3;stroke-width:0.75;stroke-miterlimit:10;}
	.st28{fill:none;stroke:#0066FF;stroke-width:0.75;stroke-linecap:round;stroke-miterlimit:10;}
	.st29{fill:none;stroke:#FFFFFF;stroke-width:0.75;stroke-miterlimit:10;}
	.st30{fill:none;stroke:#0000FF;stroke-width:2;stroke-miterlimit:10;}
	.st31{fill:none;stroke:#00C1A3;stroke-width:2;stroke-miterlimit:10;}
	.st32{fill:none;stroke:#FF25F3;stroke-width:2;stroke-linecap:round;stroke-linejoin:round;stroke-miterlimit:10;}
	.st33{fill:none;stroke:#FF25F3;stroke-width:0.75;stroke-linejoin:round;}
	.st34{fill:none;stroke:#FF25F3;stroke-width:0.75;stroke-linejoin:round;stroke-dasharray:1.916,1.916;}
	.st35{fill:none;stroke:#FF25F3;stroke-width:0.75;stroke-miterlimit:10;stroke-dasharray:1.916,1.916;}
	.st36{fill:none;}
	.st37{fill-rule:evenodd;clip-rule:evenodd;fill:none;stroke:#FF25F3;stroke-width:0.75;stroke-miterlimit:10;}
	.st38{clip-path:url(#SVGID_2_);fill:#2935E8;}
	.st39{clip-path:url(#SVGID_4_);fill:#00C1A3;}
	.st40{clip-path:url(#SVGID_6_);fill:#FF25F3;}
	.st41{fill:#FFFFFF;}
	.st42{fill:none;stroke:#FF25F3;stroke-width:0.75;stroke-linecap:round;stroke-linejoin:round;}
	.st43{fill:none;stroke:#FF25F3;stroke-width:0.75;stroke-linecap:round;stroke-linejoin:round;stroke-dasharray:5.1058,5.1058;}
	.st44{fill:none;stroke:#FF25F3;stroke-width:0.75;stroke-miterlimit:10;stroke-dasharray:7.3935,7.3935;}
	.st45{fill:none;stroke:#00C1A3;stroke-width:0.75;stroke-miterlimit:10;stroke-dasharray:8.7323,8.7323;}
</style>
<g>
	<g>
		<path class="st8" d="M33,22.8c0,0,0.8-4.2,5.3-4.1c3.6,0,5.4,3.6,5.4,3.6l-0.1,34.4"/>
		<path class="st8" d="M37.1,24.6c0,0-1.2-2-4.1-1.9c-2.9,0.1-4.8,2.5-4,5.7"/>
		<path class="st8" d="M36.4,34.6c0,0,0.1-5.5-4.7-6.1c-3.3-0.4-4.8,0.8-6.1,3.2c-1,1.8,0.3,5.4,0.3,5.4s-2.8,1.3-2.8,4.5
			s3,6.5,5.8,6.1"/>
		<path class="st8" d="M24.7,45.6c0,0-2,1.5-1.5,4.6c0.3,2,2.1,3.3,2.1,3.3s-1.3,2.7,1.1,5.4c1.6,1.8,5,1.6,5,1.6s0.6,3.3,4.2,3.9
			c1.2,0.2,5.1,0,6.8-2.3c0,0,2.1-3.3,1-6.9c-1-3.7-6.2-4.3-6.2-4.3"/>
		<path class="st8" d="M30.7,33.6c0,0-0.2,4.5,3.7,5.8c3.9,1.3,5.8-1.4,5.8-1.4"/>
		<path class="st8" d="M32.3,43.8c0,0,2-0.5,2.8-1.2c0.8-0.7,1.4-2.8,1.4-2.8"/>
		<path class="st8" d="M38.8,47.4c0,0-2.6-0.1-4.4,1.2c-1.9,1.2-3,2.9-3,2.9"/>
		<path class="st8" d="M29.8,54.8c0,0,3.9,0.3,5.3,2c1.6,1.9,1.4,4.5,1.4,4.5"/>
		<path class="st8" d="M39.4,29.7c0,0,1-0.1,2.2,0.5c0.8,0.4,1.7,1.2,2.2,2.7"/>
	</g>
	<g>
		<path class="st8" d="M54.6,23c0,0-0.8-4.2-5.3-4.1c-3.6,0-5.4,3.6-5.4,3.6L44,56.8"/>
		<path class="st8" d="M50.5,24.9c0,0,1.2-2,4.1-1.9c2.9,0.1,4.8,2.5,4,5.7"/>
		<path class="st8" d="M51.2,34.8c0,0-0.1-5.5,4.7-6.1c3.3-0.4,4.8,0.8,6.1,3.2c1,1.8-0.3,5.4-0.3,5.4s2.8,1.3,2.8,4.5
			c0,3.2-3,6.5-5.8,6.1"/>
		<path class="st8" d="M62.9,45.9c0,0,2,1.5,1.5,4.6c-0.3,2-2.1,3.3-2.1,3.3s1.3,2.7-1.1,5.4c-1.6,1.8-5,1.6-5,1.6s-0.6,3.3-4.2,3.9
			c-1.2,0.2-5.1,0-6.8-2.3c0,0-2.1-3.3-1-6.9c1-3.7,6.2-4.3,6.2-4.3"/>
		<path class="st8" d="M56.9,33.9c0,0,0.2,4.5-3.7,5.8s-5.8-1.4-5.8-1.4"/>
		<path class="st8" d="M55.3,44.1c0,0-2-0.5-2.8-1.2s-1.4-2.8-1.4-2.8"/>
		<path class="st8" d="M48.8,47.7c0,0,2.6-0.1,4.4,1.2s3,2.9,3,2.9"/>
		<path class="st8" d="M57.8,55c0,0-3.9,0.3-5.3,2c-1.6,1.9-1.4,4.5-1.4,4.5"/>
		<path class="st8" d="M48.3,30c0,0-1-0.1-2.2,0.5c-0.8,0.4-1.7,1.2-2.2,2.7"/>
	</g>
</g>
<g>
	<line class="st11" x1="42.6" y1="13.2" x2="42.6" y2="2.1"/>
	<line class="st6" x1="57.1" y1="16.5" x2="62.6" y2="6.9"/>
	<line class="st6" x1="68" y1="26.7" x2="77.6" y2="21.1"/>
	<line class="st6" x1="72.3" y1="40.9" x2="83.4" y2="40.9"/>
	<line class="st6" x1="68.9" y1="55.3" x2="78.5" y2="60.9"/>
	<line class="st6" x1="58.7" y1="66.2" x2="64.2" y2="75.8"/>
	<line class="st11" x1="44.5" y1="70.4" x2="44.4" y2="81.5"/>
	<line class="st11" x1="30.1" y1="67" x2="24.4" y2="76.6"/>
	<line class="st11" x1="19.3" y1="56.8" x2="9.6" y2="62.3"/>
	<line class="st11" x1="15" y1="42.6" x2="3.9" y2="42.4"/>
	<line class="st11" x1="18.5" y1="28.1" x2="9" y2="22.5"/>
	<line class="st11" x1="28.8" y1="17.4" x2="23.3" y2="7.7"/>
</g>
</svg>
