<?xml version="1.0" encoding="utf-8"?>
<!-- Generator: Adobe Illustrator 23.0.1, SVG Export Plug-In . SVG Version: 6.00 Build 0)  -->
<svg version="1.1" id="Layer_1" xmlns="http://www.w3.org/2000/svg" xmlns:xlink="http://www.w3.org/1999/xlink" x="0px" y="0px"
	 viewBox="0 0 74.9 38.5" style="enable-background:new 0 0 74.9 38.5;" xml:space="preserve">
<style type="text/css">
	.st0{fill:none;stroke:#0066FF;stroke-width:0.75;stroke-linejoin:round;stroke-miterlimit:10;}
	.st1{fill:none;stroke:#00C1A3;stroke-width:0.75;stroke-miterlimit:10;}
	
		.st2{fill-rule:evenodd;clip-rule:evenodd;fill:none;stroke:#FF25F3;stroke-width:0.75;stroke-linecap:round;stroke-linejoin:round;stroke-miterlimit:10;}
	.st3{fill:none;stroke:#0066FF;stroke-width:0.75;stroke-miterlimit:10;}
	.st4{fill-rule:evenodd;clip-rule:evenodd;fill:none;stroke:#0066FF;stroke-width:0.75;stroke-miterlimit:10;}
	.st5{fill-rule:evenodd;clip-rule:evenodd;fill:none;stroke:#00C1A3;stroke-width:0.75;stroke-miterlimit:10;}
	.st6{fill:none;stroke:#FF25F3;stroke-width:0.75;stroke-linecap:round;stroke-linejoin:round;stroke-miterlimit:10;}
	.st7{fill:#FFFFFF;stroke:#FF25F3;stroke-width:0.75;stroke-linejoin:round;stroke-miterlimit:10;}
	.st8{fill-rule:evenodd;clip-rule:evenodd;fill:#FFFFFF;stroke:#0066FF;stroke-width:0.75;stroke-miterlimit:10;}
	.st9{fill-rule:evenodd;clip-rule:evenodd;fill:#FFFFFF;stroke:#00C1A3;stroke-width:0.75;stroke-miterlimit:10;}
	
		.st10{fill-rule:evenodd;clip-rule:evenodd;fill:#FFFFFF;stroke:#FF25F3;stroke-width:0.75;stroke-linecap:round;stroke-linejoin:round;stroke-miterlimit:10;}
	.st11{fill:#FFFFFF;stroke:#00C1A3;stroke-width:0.75;stroke-miterlimit:10;}
	.st12{fill:#FFFFFF;stroke:#FF25F3;stroke-width:0.75;stroke-linecap:round;stroke-linejoin:round;stroke-miterlimit:10;}
	.st13{fill:#FFFFFF;stroke:#0066FF;stroke-width:0.75;stroke-miterlimit:10;}
	.st14{fill:none;stroke:#0066FF;stroke-width:0.75;stroke-linecap:round;stroke-linejoin:round;stroke-miterlimit:10;}
	.st15{fill:#FFFFFF;stroke:#00C1A3;stroke-width:0.75;stroke-linecap:round;stroke-linejoin:round;stroke-miterlimit:10;}
	
		.st16{fill-rule:evenodd;clip-rule:evenodd;fill:#FFFFFF;stroke:#0066FF;stroke-width:0.75;stroke-linecap:round;stroke-linejoin:round;stroke-miterlimit:10;}
	
		.st17{fill-rule:evenodd;clip-rule:evenodd;fill:none;stroke:#0066FF;stroke-width:0.75;stroke-linecap:round;stroke-linejoin:round;stroke-miterlimit:10;}
	.st18{fill:#FFFFFF;stroke:#0066FF;stroke-width:0.75;stroke-linejoin:round;stroke-miterlimit:10;}
</style>
<line class="st0" x1="367.5" y1="403.9" x2="367.5" y2="432.7"/>
<line class="st0" x1="380.6" y1="404" x2="380.6" y2="444"/>
<line class="st0" x1="393.7" y1="419.7" x2="393.7" y2="444"/>
<line class="st0" x1="406.8" y1="398.3" x2="406.8" y2="432.3"/>
<g>
	<rect x="-240.9" y="67.2" class="st1" width="19.6" height="26.1"/>
</g>
<polyline class="st2" points="-237.3,81.5 -232.5,86.4 -224.5,75.3 "/>
<g>
	<path class="st3" d="M-249,95.3c1.3,0.7,2.8,1.8,4,2.5c1.9,1.1,3.6,2.4,5.6,3.5c2.5,1.4,5.3-0.9,3.9-3.7c-0.5-0.9-9.5-6.4-11-7.3
		c-1.7-1-3.9-2.8-6.4-2.9c-2.7-0.1-11,5.5-11,5.5c0,2.9,0,9,0,11.2l5-3.7c0.7-0.5,1.3-1,2.6-0.8c1.6,0.3,7.5,4.2,9,5.2
		c4.4,2.9,5.7,2.4,11.3,1.1c4-0.9,7.8-1.8,11.8-2.7c1.9-0.4,4.3-0.6,5.1-2c1.1-2-0.4-4.1-2.4-4.1c-0.8,0-13.6,2.8-14,3"/>
</g>
<g>
	<line class="st4" x1="-87.3" y1="189.4" x2="-97" y2="183.8"/>
	<line class="st4" x1="-82.2" y1="209.5" x2="-82.2" y2="199.3"/>
	<line class="st4" x1="-96.9" y1="224.2" x2="-87.8" y2="218.8"/>
	<line class="st4" x1="-117" y1="218.9" x2="-108.2" y2="224.1"/>
	<line class="st4" x1="-122.8" y1="198.1" x2="-122.8" y2="209.8"/>
	<line class="st4" x1="-107.9" y1="183.7" x2="-117.3" y2="189.1"/>
	<line class="st3" x1="-117.3" y1="195.4" x2="-107.9" y2="200.8"/>
	<line class="st3" x1="-97" y1="200.8" x2="-87.6" y2="195.4"/>
	<line class="st3" x1="-102.5" y1="197.6" x2="-102.5" y2="186.8"/>
	<line class="st3" x1="-107.9" y1="207.1" x2="-117.3" y2="212.4"/>
	<line class="st3" x1="-102.5" y1="210.3" x2="-102.5" y2="221"/>
	<line class="st3" x1="-97" y1="207.1" x2="-87.6" y2="212.4"/>
	<g>
		<polygon class="st4" points="-128.2,189.1 -128.2,195.4 -122.8,198.6 -117.3,195.4 -117.3,189.1 -122.8,185.9 		"/>
		<line class="st3" x1="-128.2" y1="189.1" x2="-122.8" y2="192.2"/>
		<line class="st3" x1="-117.3" y1="189.1" x2="-122.8" y2="192.2"/>
		<line class="st3" x1="-122.8" y1="198.6" x2="-122.8" y2="192.2"/>
	</g>
	<g>
		<polygon class="st4" points="-128.1,212.5 -128.1,218.8 -122.6,222 -117.1,218.8 -117.1,212.5 -122.6,209.3 		"/>
		<line class="st3" x1="-128.1" y1="212.5" x2="-122.6" y2="215.6"/>
		<line class="st3" x1="-117.1" y1="212.5" x2="-122.6" y2="215.6"/>
		<line class="st3" x1="-122.6" y1="222" x2="-122.6" y2="215.6"/>
	</g>
	<g>
		<polygon class="st4" points="-107.9,223.8 -107.9,230.1 -102.5,233.3 -97,230.1 -97,223.8 -102.5,220.6 		"/>
		<line class="st3" x1="-102.5" y1="226.9" x2="-107.9" y2="223.8"/>
		<line class="st3" x1="-97" y1="223.8" x2="-102.5" y2="226.9"/>
		<line class="st3" x1="-102.5" y1="233.3" x2="-102.5" y2="226.9"/>
	</g>
	<g>
		<polygon class="st5" points="-87.7,212.5 -87.7,218.8 -82.2,222 -76.7,218.8 -76.7,212.5 -82.2,209.3 		"/>
		<line class="st1" x1="-87.7" y1="212.5" x2="-82.2" y2="215.6"/>
		<line class="st1" x1="-76.7" y1="212.5" x2="-82.2" y2="215.6"/>
		<line class="st1" x1="-82.2" y1="222" x2="-82.2" y2="215.6"/>
	</g>
	<g>
		<polygon class="st4" points="-87.7,189.6 -87.7,195.9 -82.2,199.1 -76.7,195.9 -76.7,189.6 -82.2,186.4 		"/>
		<line class="st3" x1="-87.7" y1="189.6" x2="-82.2" y2="192.7"/>
		<line class="st3" x1="-76.7" y1="189.6" x2="-82.2" y2="192.7"/>
		<line class="st3" x1="-82.2" y1="199.1" x2="-82.2" y2="192.7"/>
	</g>
	<g>
		<polygon class="st2" points="-107.9,178 -107.9,184.3 -102.5,187.5 -97,184.3 -97,178 -102.5,174.8 		"/>
		<line class="st6" x1="-107.9" y1="178" x2="-102.5" y2="181.1"/>
		<line class="st6" x1="-97" y1="178" x2="-102.5" y2="181.1"/>
		<line class="st6" x1="-102.5" y1="187.5" x2="-102.5" y2="181.1"/>
	</g>
	<g>
		<polygon class="st4" points="-107.9,200.5 -107.9,206.9 -102.5,210 -97,206.9 -97,200.5 -102.5,197.4 		"/>
		<line class="st3" x1="-107.9" y1="200.5" x2="-102.5" y2="203.6"/>
		<line class="st3" x1="-97" y1="200.5" x2="-102.5" y2="203.6"/>
		<line class="st3" x1="-102.5" y1="210" x2="-102.5" y2="203.6"/>
	</g>
</g>
<image style="overflow:visible;" width="450" height="468" xlink:href="../../download/56975661.jpg"  transform="matrix(1 0 0 1 795.1522 214.6532)">
</image>
<g>
	<circle class="st3" cx="17.6" cy="201.1" r="11.7"/>
	<circle class="st3" cx="6.6" cy="181.1" r="5.1"/>
	<circle class="st3" cx="36.8" cy="192.2" r="2.6"/>
	<circle class="st3" cx="35.3" cy="219.9" r="6"/>
	<circle class="st1" cx="-3.4" cy="211.5" r="4.9"/>
	<line class="st3" x1="9.4" y1="185.4" x2="12.3" y2="190.6"/>
	<line class="st3" x1="34.6" y1="193.7" x2="28.5" y2="196.7"/>
	<line class="st3" x1="31.6" y1="215.3" x2="26.4" y2="208.8"/>
	<line class="st3" x1="1.4" y1="209.8" x2="7.3" y2="206.6"/>
	<circle class="st3" cx="10.6" cy="227.6" r="7.1"/>
	<line class="st3" x1="23.2" y1="190.7" x2="28.5" y2="181.1"/>
	<line class="st3" x1="14.8" y1="212.4" x2="11.7" y2="220.6"/>
	<circle class="st3" cx="47" cy="204.1" r="5.7"/>
	<circle class="st3" cx="-11.4" cy="193.7" r="6.6"/>
	<line class="st3" x1="-4.8" y1="195.2" x2="6.6" y2="197.1"/>
	<line class="st3" x1="29.4" y1="202.4" x2="41.3" y2="204.1"/>
	<circle class="st6" cx="30.7" cy="176.8" r="4.9"/>
</g>
<g>
	<path class="st3" d="M131.6,170.2c-2,0.2-3.9,0.7-5.7,1.5c-9.6,4.5-13,10.3-13,18c0,7.7,5.8,13.6,5.8,13.6l0.2,25.8l20.9-0.1
		l0.2-9.7c0,0,8.3,0.6,12.2-2.7c1.8-1.5,1.9-6.1,2-9.9"/>
	<path class="st3" d="M154.3,205c0-0.6,0.1-1.6,0.1-2.4c1,0.1,2.4,0.1,3-0.1c1.1-0.4,0.9-1.4,0.9-1.4l-3.6-7.1
		c0.1-4.7,0-9.3-0.5-11.3c-1.8-6.7-9-11.2-16.4-12.3"/>
	<path class="st1" d="M143.6,201.2c-1.5,3.5-5,6-9,6c-5.4,0-9.8-4.4-9.8-9.8c0-4.4,2.9-8.1,6.9-9.3"/>
	<path class="st1" d="M137.4,188c4,1.2,6.9,5,6.9,9.3c0,0.8-0.1,1.5-0.2,2.2"/>
	<path class="st6" d="M158.6,207.1c0.5-0.6,1.3-0.9,2.1-0.9c1.6,0,2.9,1.3,2.9,2.9s-1.3,2.9-2.9,2.9s-2.9-1.3-2.9-2.9
		c0-0.2,0-0.4,0.1-0.7"/>
	<path class="st3" d="M134.6,200L134.6,200c-1.6,0-2.9-1.3-2.9-2.9V169c0-1.6,1.3-2.9,2.9-2.9h0c1.6,0,2.9,1.3,2.9,2.9v28.1
		C137.5,198.7,136.2,200,134.6,200z"/>
	
		<rect x="136.3" y="202.6" transform="matrix(0.8894 0.4571 -0.4571 0.8894 109.4302 -45.7734)" class="st3" width="26.1" height="1.4"/>
</g>
<g>
	<path class="st3" d="M369.5,190.5h41.1c2.5,0,4.5,2,4.5,4.5l0,0c0,2.5-2,4.5-4.5,4.5h-41.1"/>
	<path class="st3" d="M366.6,206.5h-13.2c-1.8,0-3.3-1.5-3.3-3.3v-15.1c0-1.8,1.5-3.3,3.3-3.3h13.2c1.8,0,3.3,1.5,3.3,3.3v15.1
		C369.8,205,368.4,206.5,366.6,206.5z"/>
	<path class="st6" d="M368.4,214h-16.9c-2.1,0-3.7-1.7-3.7-3.7v0c0-2.1,1.7-3.7,3.7-3.7h16.9c2.1,0,3.7,1.7,3.7,3.7v0
		C372.2,212.3,370.5,214,368.4,214z"/>
	<path class="st3" d="M368.4,184.9h-16.9c-2.1,0-3.7-1.7-3.7-3.7v0c0-2.1,1.7-3.7,3.7-3.7h16.9c2.1,0,3.7,1.7,3.7,3.7v0
		C372.2,183.2,370.5,184.9,368.4,184.9z"/>
	<path class="st3" d="M380.1,223.1h-38.9c-2,0-3.6-1.6-3.6-3.6l0,0c0-2,1.6-3.6,3.6-3.6h38.9c2,0,3.6,1.6,3.6,3.6l0,0
		C383.6,221.5,382,223.1,380.1,223.1z"/>
	<line class="st1" x1="335.6" y1="198.8" x2="344.9" y2="210.8"/>
	<line class="st3" x1="384.8" y1="202.5" x2="375.4" y2="211"/>
	<line class="st3" x1="377.3" y1="214" x2="390" y2="210.3"/>
	<line class="st3" x1="343" y1="213.1" x2="329.1" y2="210.7"/>
</g>
<g>
	<polyline class="st1" points="479.8,226.8 479.8,232.8 476,232.8 476,226.8 	"/>
	<polyline class="st1" points="476,208.8 476,200.7 479.8,200.7 479.8,208.8 	"/>
	<rect x="457.3" y="175.4" class="st3" width="41.1" height="25.3"/>
	<path class="st3" d="M480.9,213.9H474c-1.4,0-2.5-1.1-2.5-2.5l0,0c0-1.4,1.1-2.5,2.5-2.5h6.9c1.4,0,2.5,1.1,2.5,2.5l0,0
		C483.5,212.7,482.3,213.9,480.9,213.9z"/>
	<path class="st3" d="M481.9,218.2c-0.5,0.4-1.1,0.7-1.7,0.7h-6.9c-1.4,0-2.5-1.1-2.5-2.5l0,0c0-1.4,1.1-2.5,2.5-2.5h6.9
		c0.9,0,1.6,0.4,2.1,1.1"/>
	<path class="st3" d="M480.4,223.1h-6.9c-1.2,0-2.1-0.9-2.1-2.1v0c0-1.2,0.9-2.1,2.1-2.1h6.9c1.2,0,2.1,0.9,2.1,2.1v0
		C482.5,222.2,481.6,223.1,480.4,223.1z"/>
	<path class="st3" d="M481.7,226.8h-7.6c-1,0-1.8-0.8-1.8-1.8v-0.2c0-1,0.8-1.8,1.8-1.8h7.6c1,0,1.8,0.8,1.8,1.8v0.2
		C483.4,226,482.6,226.8,481.7,226.8z"/>
	<path class="st3" d="M488.2,213.6l-1.8,4.3c-0.5,1.2-2,1.8-3.2,1.3l0,0c-1.2-0.5-1.8-2-1.3-3.2l1.8-4.3c0.5-1.2,2-1.8,3.2-1.3h0
		C488.1,210.9,488.7,212.3,488.2,213.6z"/>
	<path class="st3" d="M488.2,213.6c0,0-0.2,5.1-1.5,7.4c-1.3,2.3-3.3,3.8-3.3,3.8"/>
	<text transform="matrix(1 0 0 1 467.2398 193.8582)" class="st6" style="font-family:'Impact'; font-size:15.8858px;">BID</text>
</g>
<g>
	<path class="st6" d="M-90.8,285.2c-0.3,0-0.6,0-0.9,0c-2.5-6.3-8.5-10.8-15.5-10.8c-9.1,0-16.5,7.6-16.7,17
		c-1.1-0.5-2.4-0.9-3.7-0.9c-4.9,0-8.9,4.1-8.9,9.3c0,5.1,4,9.3,8.9,9.3c0.1,0,0.3,0,0.4,0c0.1,0,0.3,0,0.4,0h35c0.2,0,0.3,0,0.5,0
		c0.2,0,0.3,0,0.5,0c6.4,0,11.5-5.4,11.5-12C-79.3,290.5-84.5,285.2-90.8,285.2z"/>
	<polyline class="st3" points="-106.9,296.1 -106.9,319 -126,319 -126,329.1 	"/>
	<polyline class="st3" points="-92.8,299.1 -92.8,314.8 -84,314.8 -84,326.1 	"/>
	<polyline class="st1" points="-120.6,302.1 -120.6,313.7 -133.1,313.7 -133.1,325.3 	"/>
	<polyline class="st3" points="-101.7,303.9 -101.7,320.5 -96.2,320.5 -96.2,329.1 	"/>
	<line class="st3" x1="-112.6" y1="319" x2="-112.6" y2="324"/>
	<circle class="st3" cx="-133.1" cy="327.4" r="2.1"/>
	<circle class="st3" cx="-126" cy="331.2" r="2.1"/>
	<circle class="st3" cx="-112.6" cy="326.1" r="2.1"/>
	<circle class="st3" cx="-96.2" cy="331.2" r="2.1"/>
	<circle class="st3" cx="-84" cy="328.2" r="2.1"/>
</g>
<g>
	<path class="st3" d="M231.2,209.7v2c0,2.1-1.9,3.8-4.3,3.8h-4c-7.8,0-14.1,5.5-14.1,12.3v5.3h14.1h35.2h14.1v-5.3
		c0-6.8-6.4-12.3-14.1-12.3h-4c-2.4,0-4.3-1.7-4.3-3.8v-3.9"/>
	<path class="st3" d="M223.5,184.7c0.2-9.5,5.9-16.8,16.8-16.8c11.7,0,17.4,8,16.9,18.1"/>
	<path class="st3" d="M253.8,200.1c-3,8-7.6,13.7-14.1,13.7c-6.8,0-11.2-6.3-13.9-14.9"/>
	<path class="st3" d="M220,184.5c0.3-11,9.4-19.9,20.5-19.9c11.3,0,20.5,9.2,20.5,20.5c0,0.2,0,0.5,0,0.7"/>
	<path class="st3" d="M263.2,187.6c0.1-0.8,0.1-1.6,0.1-2.5c0-12.6-10.2-22.8-22.8-22.8c-12.6,0-22.8,10.2-22.8,22.8
		c0,0.3,0,0.4,0,0.7"/>
	<path class="st3" d="M223.4,201.2l-2.2,0.2c-1.6,0.1-2.9-1-3.1-2.6l-1-11.4c-0.1-1.6,1-2.9,2.6-3.1l2.2-0.2c1.6-0.1,2.9,1,3.1,2.6
		l1,11.4C226.2,199.7,225,201.1,223.4,201.2z"/>
	<path class="st1" d="M258.3,202.8l-2.2-0.3c-1.5-0.2-2.6-1.7-2.4-3.2l1.7-11.3c0.2-1.5,1.7-2.6,3.2-2.4l2.2,0.3
		c1.5,0.2,2.6,1.7,2.4,3.2l-1.7,11.3C261.3,201.9,259.8,203,258.3,202.8z"/>
	<circle class="st6" cx="239.9" cy="204.7" r="3.1"/>
	<path class="st3" d="M218.1,197.7c0,0-0.8,5,4.6,6.4c5.3,1.4,14.5,0.6,14.5,0.6"/>
</g>
<path class="st4" d="M35.9,316.7l-25.3,17.9c-4.4,3.1-10.3,3.1-14.8,0L-28.9,317c-3.3-2.3-2.7-7.4,1-8.9l28.3-11.4
	c3.5-1.4,7.4-1.3,10.9,0.3L35.1,308C38.6,309.6,39.1,314.4,35.9,316.7z"/>
<path class="st4" d="M35.9,308.4l-25.3,17.9c-4.4,3.1-10.3,3.1-14.8,0l-24.8-17.6c-3.3-2.3-2.7-7.4,1-8.9l28.3-11.4
	c3.5-1.4,7.4-1.3,10.9,0.3l23.8,10.9C38.6,301.3,39.1,306.2,35.9,308.4z"/>
<path class="st2" d="M35.9,300.1L10.6,318c-4.4,3.1-10.3,3.1-14.8,0l-24.8-17.6c-3.3-2.3-2.7-7.4,1-8.9l28.3-11.4
	c3.5-1.4,7.4-1.3,10.9,0.3l23.8,10.9C38.6,293,39.1,297.9,35.9,300.1z"/>
<path class="st4" d="M35.9,291.9l-25.3,17.9c-4.4,3.1-10.3,3.1-14.8,0l-24.8-17.6c-3.3-2.3-2.7-7.4,1-8.9l28.3-11.4
	c3.5-1.4,7.4-1.3,10.9,0.3l23.8,10.9C38.6,284.8,39.1,289.6,35.9,291.9z"/>
<path class="st4" d="M-16.5,278.7c0,0,1.3-0.5,4.2,1c8,4.3,31.9,18.5,31.9,18.5c1.3,0.9,2.5,1.1,2.8,3.8v23.8l6-3.8l-0.3-24.6
	c-0.1-2.7-2.7-3.5-4-4.3c0,0-21.4-12.5-29.6-16.9c-2.2-1.1-3.5-0.5-3.5-0.5L-16.5,278.7z"/>
<path class="st5" d="M16,276.3L-14.9,293c0,0-4.3,1.2-4.3,6.1c0,4.9,1.4,25.8,1.4,25.8l5.6,4.5l0.1-25.2c0,0-0.8-5.6,3.2-7.4
	c4-1.8,30.8-17.6,30.8-17.6s2.8-0.9,3.8-0.3c-2.4-1.3-6-2.8-6-2.8S17.2,275.6,16,276.3z"/>
<g>
	<path class="st3" d="M289.8,324.3L289.8,324.3c-0.9,0.9-2.3,0.9-3.2,0L274.4,312c-0.9-0.9-0.9-2.3,0-3.2l0,0c0.9-0.9,2.3-0.9,3.2,0
		l12.3,12.3C290.7,322,290.7,323.4,289.8,324.3z"/>
	<line class="st3" x1="241.5" y1="298.7" x2="247.4" y2="300.1"/>
	<line class="st3" x1="233" y1="304.4" x2="239.1" y2="299.2"/>
	<line class="st3" x1="290.4" y1="285.2" x2="293.7" y2="284.7"/>
	<line class="st3" x1="282.7" y1="284.9" x2="287.7" y2="285.4"/>
	<line class="st3" x1="275.5" y1="290.6" x2="280.2" y2="285.7"/>
	<line class="st3" x1="264.9" y1="296.9" x2="273.8" y2="288.2"/>
	<line class="st3" x1="247.4" y1="296.7" x2="260.4" y2="298.5"/>
	<circle class="st6" cx="262.9" cy="298.7" r="2.4"/>
	<circle class="st3" cx="240.1" cy="298.3" r="1.2"/>
	<circle class="st3" cx="281.4" cy="285.1" r="1.2"/>
	<circle class="st3" cx="289.1" cy="285.4" r="1.2"/>
	<circle class="st1" cx="262.4" cy="298" r="15"/>
</g>
<g>
	<path class="st1" d="M340.4,313.6c3.9,4.2,9.5,6.8,15.8,6.8c6.2,0,11.8-2.6,15.8-6.8H340.4z"/>
	<polyline class="st3" points="340.4,313.6 356.2,282.8 371.9,313.6 	"/>
</g>
<polygon class="st3" points="376.9,278.8 356.2,281.4 356.2,282.8 376.9,282.8 397.6,282.8 397.6,281.4 "/>
<line class="st7" x1="376.9" y1="282.8" x2="376.9" y2="270.7"/>
<g>
	<path class="st3" d="M381.8,314c3.9,4.2,9.5,6.8,15.8,6.8c6.2,0,11.8-2.6,15.8-6.8H381.8z"/>
	<polyline class="st3" points="381.8,314 397.6,283.2 413.3,314 	"/>
</g>
<path class="st4" d="M618.4,213.9l-16.9-13.4c-0.1-0.1-0.2-0.1-0.2-0.2l-0.8-3.4c0,0-8.1-5.9-10.1-6c-2-0.1-7.9,3.5-9.1,3.4
	c-1.2-0.1-9.6-4.1-9.6-4.1l-9.4,12.2c0,0,15.6,15.9,16.7,16.8l16.9,13.4c1.5,1.2,3.6,0.9,4.8-0.6c1.2-1.5,0.9-2.5-0.6-3.6l-5-4.6
	l0.2-0.2l2.6,2.2l6.9,5.9c1.2,1,3-0.4,4-1.6c1-1.2,0.8-3-0.5-4l-9.3-7.9l0.5-0.6l10,8.5c1.5,1.2,3.6,0.9,4.8-0.6
	c1.2-1.5,0.9-3.6-0.6-4.8l-9.7-8.3l0.4-0.4l9.2,7.8c1.5,1.2,3.6,0.9,4.8-0.6l0.7-0.8C620.1,217.2,619.8,215,618.4,213.9z"/>
<path class="st8" d="M617.2,213l10.6-11.2l-10.8-11.6c0,0-6.1,4.4-7.2,4.3c-3.6-0.4-6.9-2.8-10.4-3.6c-3.5-0.9-11,5.5-11.6,8.6
	c-0.3,1.3,1,4.3,3.6,4.5c3.5,0.3,4.7-4,6.8-4.3c1.1-0.1,2.9,0.4,4.2,1.5C608.7,206.2,617.2,213,617.2,213z"/>
<path class="st8" d="M570.4,226l-1.7-1.7c-1-1-1-2.7,0-3.7l10.9-10.9c1-1,2.7-1,3.7,0l1.7,1.7c1,1,1,2.7,0,3.7L574.1,226
	C573.1,227.1,571.4,227.1,570.4,226z"/>
<path class="st8" d="M576.8,230l-2-2c-0.7-0.7-0.7-2,0-2.7l9.3-9.3c0.7-0.7,2-0.7,2.7,0l2,2c0.7,0.7,0.7,2,0,2.7l-9.3,9.3
	C578.8,230.8,577.6,230.8,576.8,230z"/>
<path class="st9" d="M566.8,219.8l-2.6-2.6c-0.7-0.7-0.7-2,0-2.7l9.3-9.3c0.7-0.7,2-0.7,2.7,0l2.6,2.6c0.7,0.7,0.7,2,0,2.7l-9.3,9.3
	C568.8,220.6,567.6,220.6,566.8,219.8z"/>
<path class="st10" d="M582.8,232.7l-1.7-1.7c-0.7-0.7-0.7-2,0-2.7l7-7c0.7-0.7,2-0.7,2.7,0l1.7,1.7c0.7,0.7,0.7,2,0,2.7l-7,7
	C584.8,233.4,583.6,233.4,582.8,232.7z"/>
<g>
	<polyline class="st11" points="594.1,287.9 615.4,296.1 615.4,335.6 	"/>
	<polyline class="st3" points="594.1,287.9 581.8,283.2 581.8,331.2 615.4,344.1 615.4,335.6 	"/>
	<polyline class="st3" points="594.1,287.9 594.1,279.4 627.7,292.3 627.7,340.4 615.4,335.6 	"/>
	<polyline class="st12" points="594.1,287.9 594.1,327.5 615.4,335.6 	"/>
</g>
<path class="st13" d="M-66.9,453.4h-43.8c-4.9,0-9-4.1-9-9v-43.8c0-5,4.1-9,9-9h43.8c5,0,9,4,9,9v43.8
	C-57.9,449.3-62,453.4-66.9,453.4z"/>
<path class="st13" d="M-68.7,448.7h-40.2c-3.4,0-6.2-2.8-6.2-6.2v-40.2c0-3.4,2.8-6.2,6.2-6.2h40.2c3.4,0,6.2,2.8,6.2,6.2v40.2
	C-62.5,446-65.3,448.7-68.7,448.7z"/>
<g>
	<rect x="-110.2" y="453.4" class="st13" width="7.7" height="5.1"/>
	<polygon class="st13" points="-67.5,458.5 -70,458.5 -75.2,458.5 -75.2,453.4 -67.5,453.4 	"/>
</g>
<g>
	<circle class="st11" cx="-94.3" cy="422.5" r="9.2"/>
	<rect x="-95.1" y="407.9" class="st13" width="1.6" height="5.4"/>
	<rect x="-95.1" y="431.6" class="st13" width="1.6" height="5.4"/>
	
		<rect x="-83.2" y="419.8" transform="matrix(-1.836970e-16 1 -1 -1.836970e-16 340.0645 504.8724)" class="st13" width="1.6" height="5.4"/>
	
		<rect x="-106.9" y="419.8" transform="matrix(-1.836970e-16 1 -1 -1.836970e-16 316.3906 528.5463)" class="st13" width="1.6" height="5.4"/>
	<circle class="st13" cx="-94.3" cy="422.5" r="6.8"/>
</g>
<path class="st12" d="M-68.6,420.1c0-1.4-1.1-2.5-2.5-2.5s-2.5,1.1-2.5,2.5c0,1.1,0.7,2.1,1.8,2.4v4.9h1.6v-4.9
	C-69.4,422.2-68.6,421.2-68.6,420.1z"/>
<circle class="st13" cx="19.2" cy="19.4" r="18.3"/>
<circle class="st13" cx="55.9" cy="19.4" r="18.3"/>
<line class="st11" x1="16.1" y1="14.2" x2="62.9" y2="14.2"/>
<line class="st12" x1="16.1" y1="25.4" x2="62.9" y2="25.4"/>
<g>
	<line class="st12" x1="150.9" y1="288.3" x2="134.6" y2="296.2"/>
	<polyline class="st14" points="134.6,296.2 106.5,282.6 134.9,270.4 162.7,282.6 150.9,288.3 	"/>
	<polyline class="st14" points="162.7,318.5 134.6,337.5 106.5,318.5 	"/>
	<line class="st14" x1="106.5" y1="282.6" x2="106.5" y2="318.5"/>
	<line class="st14" x1="134.6" y1="296.2" x2="134.6" y2="337.5"/>
	<line class="st14" x1="162.7" y1="282.6" x2="162.7" y2="318.5"/>
	<line class="st14" x1="146.5" y1="275.5" x2="119.8" y2="289.4"/>
	<line class="st15" x1="119.8" y1="308" x2="119.8" y2="289.4"/>
	<line class="st14" x1="119.8" y1="327.4" x2="119.8" y2="308"/>
	<line class="st14" x1="150.7" y1="326.5" x2="150.7" y2="288.6"/>
	<line class="st14" x1="123.6" y1="275.3" x2="150.9" y2="288.3"/>
	<line class="st14" x1="106.5" y1="299.7" x2="134.4" y2="316.5"/>
	<line class="st14" x1="162.5" y1="300.7" x2="134.8" y2="316.6"/>
</g>
<rect x="4" y="429.4" class="st9" width="8.9" height="16.1"/>
<rect x="15.4" y="423.1" class="st16" width="8.9" height="22.3"/>
<rect x="26.9" y="412.3" class="st16" width="8.9" height="33.1"/>
<rect x="38.4" y="407.5" class="st16" width="8.9" height="37.9"/>
<path class="st16" d="M2.2,414.2c4.6-0.3,12.9-1.5,21.9-6.5c9.1-5.1,14.5-11.7,17.2-15.4"/>
<line class="st14" x1="-1.2" y1="450" x2="52.8" y2="450"/>
<polyline class="st6" points="35.1,391.9 41.6,391.9 41.6,398.4 "/>
<rect x="119.7" y="429.4" transform="matrix(-1 -4.461688e-11 4.461688e-11 -1 248.1993 874.7776)" class="st16" width="8.9" height="16.1"/>
<rect x="108.2" y="423.1" transform="matrix(-1 -4.502633e-11 4.502633e-11 -1 225.279 868.549)" class="st9" width="8.9" height="22.3"/>
<rect x="96.7" y="412.3" transform="matrix(-1 -4.502633e-11 4.502633e-11 -1 202.3587 857.7548)" class="st16" width="8.9" height="33.1"/>
<rect x="85.3" y="407.5" transform="matrix(-1 -4.502633e-11 4.502633e-11 -1 179.4384 852.8969)" class="st16" width="8.9" height="37.9"/>
<path class="st16" d="M127.1,414c-4.6-0.3-9.7-1.4-18.7-6.4c-9.1-5.1-14.5-11.7-17.2-15.4"/>
<line class="st14" x1="133.8" y1="450" x2="79.8" y2="450"/>
<rect x="593.3" y="408.2" transform="matrix(-1 -9.967151e-11 9.967151e-11 -1 1195.5688 852.2675)" class="st8" width="8.9" height="35.9"/>
<rect x="581.9" y="421.8" transform="matrix(-1 -4.502633e-11 4.502633e-11 -1 1172.6486 865.8555)" class="st8" width="8.9" height="22.3"/>
<rect x="570.4" y="417" transform="matrix(-1 -3.683954e-11 3.683954e-11 -1 1149.7283 861.0718)" class="st8" width="8.9" height="27.1"/>
<rect x="559" y="430.7" transform="matrix(-1 -1.596380e-11 1.596380e-11 -1 1126.808 874.7675)" class="st8" width="8.9" height="13.4"/>
<line class="st3" x1="607.4" y1="448.7" x2="553.4" y2="448.7"/>
<polyline class="st6" points="121.5,417.4 127.1,414 123.8,408.4 "/>
<polyline class="st17" points="219.5,452.8 171.6,452.8 171.6,404.9 "/>
<path class="st9" d="M174.3,449c6.7,1,10-31.8,17.3-32.6c8.3-0.9,8.5,31.8,19.5,32.6"/>
<path class="st2" d="M179.7,449c7.2,0.6,10.8-18.1,18.7-18.5c9-0.5,9.2,18.1,21.1,18.5"/>
<g>
	<line class="st0" x1="262.8" y1="430" x2="262.8" y2="449"/>
	<line class="st0" x1="268.5" y1="426.8" x2="268.5" y2="449"/>
	<line class="st0" x1="274.2" y1="423.7" x2="274.2" y2="449"/>
	<line class="st0" x1="280" y1="420.5" x2="280" y2="449"/>
	<line class="st0" x1="285.7" y1="417.4" x2="285.7" y2="449"/>
	<line class="st6" x1="291.5" y1="425" x2="291.5" y2="449"/>
	<line class="st0" x1="297.2" y1="420.7" x2="297.2" y2="449"/>
	<line class="st0" x1="303" y1="416.3" x2="303" y2="449"/>
	<line class="st11" x1="308.7" y1="412" x2="308.7" y2="449"/>
	<line class="st0" x1="314.5" y1="407.6" x2="314.5" y2="449"/>
</g>
<polyline class="st0" points="262.8,423 286.7,409.8 292.5,417.5 315,400.4 "/>
<line class="st14" x1="259.2" y1="452.8" x2="318.1" y2="452.8"/>
<rect x="363.8" y="407.6" class="st11" width="7.4" height="21.5"/>
<rect x="376.9" y="407.8" class="st18" width="7.4" height="31.9"/>
<rect x="390" y="423.9" class="st12" width="7.4" height="15.8"/>
<rect x="403.1" y="402.6" class="st18" width="7.4" height="24.6"/>
<line class="st0" x1="358.8" y1="450.1" x2="413.8" y2="450.1"/>
<polyline class="st0" points="454.5,415 480.1,432.3 512.4,403.9 "/>
<polyline class="st1" points="461.5,436.8 484.6,415 506.4,432.3 "/>
<line class="st0" x1="451.4" y1="449" x2="513.7" y2="449"/>
<circle class="st18" cx="455.3" cy="415.3" r="2.7"/>
<circle class="st18" cx="462" cy="436.8" r="2.7"/>
<circle class="st18" cx="479.8" cy="432.3" r="2.7"/>
<circle class="st12" cx="484.7" cy="415.3" r="2.7"/>
<circle class="st18" cx="506.4" cy="432.3" r="2.7"/>
<circle class="st18" cx="512.4" cy="403.9" r="2.7"/>
<polyline class="st16" points="562.4,416.6 574,406.6 586.3,413.5 596.1,399.6 "/>
<circle class="st11" cx="562.4" cy="416.6" r="2.7"/>
<circle class="st18" cx="574.1" cy="406.6" r="2.7"/>
<circle class="st18" cx="586.3" cy="413.4" r="2.7"/>
<circle class="st12" cx="596.1" cy="399.6" r="2.7"/>
</svg>
