<?xml version="1.0" encoding="utf-8"?>
<!-- Generator: Adobe Illustrator 23.0.1, SVG Export Plug-In . SVG Version: 6.00 Build 0)  -->
<svg version="1.1" id="Layer_1" xmlns="http://www.w3.org/2000/svg" xmlns:xlink="http://www.w3.org/1999/xlink" x="0px" y="0px"
	 viewBox="0 0 42 55" style="enable-background:new 0 0 42 55;" xml:space="preserve">
<style type="text/css">
	.st0{fill:none;stroke:#0066FF;stroke-width:0.75;stroke-miterlimit:10;}
	.st1{fill:none;stroke:#FF25F3;stroke-width:0.75;stroke-linecap:round;stroke-linejoin:round;stroke-miterlimit:10;}
	.st2{fill:none;stroke:#00C1A3;stroke-width:0.75;stroke-miterlimit:10;}
	.st3{fill-rule:evenodd;clip-rule:evenodd;fill:none;stroke:#0066FF;stroke-width:0.75;stroke-miterlimit:10;}
	.st4{fill:none;stroke:#FF25F3;stroke-width:0.75;stroke-linejoin:round;stroke-miterlimit:10;}
	.st5{fill:none;stroke:#FF25F3;stroke-width:0.75;stroke-miterlimit:10;}
	
		.st6{fill-rule:evenodd;clip-rule:evenodd;fill:none;stroke:#FF25F3;stroke-width:0.75;stroke-linejoin:round;stroke-miterlimit:10;}
	.st7{fill-rule:evenodd;clip-rule:evenodd;fill:none;stroke:#00C1A3;stroke-width:0.75;stroke-miterlimit:10;}
	
		.st8{fill-rule:evenodd;clip-rule:evenodd;fill:none;stroke:#FF25F3;stroke-width:0.75;stroke-linecap:round;stroke-linejoin:round;stroke-miterlimit:10;}
</style>
<path class="st0" d="M33,5c0,0-5.1-2.7-12.3-2.5c-5.9,0.2-8.5,1.7-9.9,2.6c-1.4-1.5-3-2.9-3.9-1.1C5.4,6.8,7.4,6.6,8.9,6.6
	C3.7,12.2,1,31.9,3.1,43.1c0.4,1.9,1.8,3.5,1.7,4.5c-1.9,0.2-2.3,1.9-1.4,2.8c1.4,1.5,3.4-1,3.4-1s8.3,5.5,17,3.2S33.1,50.4,35,50
	c1.7,1.2,2.7,2,3.8,0.4c0.8-1.2-1.9-1.9-1.9-1.9s2.1-3.8,2.4-9.7c0.9-15.2-3.4-26.1-5-31.7c0.4-0.8,3.5-1.4,2.1-2.8S33,5,33,5z"/>
<g>
	<g>
		<path class="st1" d="M20,33.3c1,1.3,1.3,2.8,0.6,3.4c-0.7,0.5-2.1-0.1-3.1-1.4c-1-1.3-0.6-3.4-0.6-3.4S19,32,20,33.3z"/>
		<path class="st1" d="M20,28c1,1.3,1.3,2.8,0.6,3.4c-0.7,0.5-2.1-0.1-3.1-1.4c-1-1.3-0.6-3.4-0.6-3.4S19,26.6,20,28z"/>
		<path class="st1" d="M20,22.6c1,1.3,1.3,2.8,0.6,3.4c-0.7,0.5-2.1-0.1-3.1-1.4s-0.6-3.4-0.6-3.4S19,21.2,20,22.6z"/>
		<path class="st1" d="M20,17.2c1,1.3,1.3,2.8,0.6,3.4c-0.7,0.5-2.1-0.1-3.1-1.4s-0.6-3.4-0.6-3.4S19,15.9,20,17.2z"/>
	</g>
	<g>
		<path class="st1" d="M23.2,33.1c-1,1.3-1.3,2.8-0.6,3.4s2.1-0.1,3.1-1.4c1-1.3,0.6-3.4,0.6-3.4S24.2,31.8,23.2,33.1z"/>
		<path class="st1" d="M23.2,27.8c-1,1.3-1.3,2.8-0.6,3.4c0.7,0.5,2.1-0.1,3.1-1.4c1-1.3,0.6-3.4,0.6-3.4S24.2,26.4,23.2,27.8z"/>
		<path class="st1" d="M23.2,22.4c-1,1.3-1.3,2.8-0.6,3.4c0.7,0.5,2.1-0.1,3.1-1.4c1-1.3,0.6-3.4,0.6-3.4S24.2,21.1,23.2,22.4z"/>
		<path class="st1" d="M23.2,17c-1,1.3-1.3,2.8-0.6,3.4c0.7,0.5,2.1-0.1,3.1-1.4c1-1.3,0.6-3.4,0.6-3.4S24.2,15.7,23.2,17z"/>
	</g>
	<line class="st1" x1="21.5" y1="37.6" x2="21.5" y2="43.8"/>
</g>
<path class="st2" d="M16.8,39c-4-1.8-6.8-5.8-6.8-10.5c0-3.8,1.8-7.1,4.6-9.2"/>
<path class="st2" d="M29.3,20.1c2.3,2.1,3.7,5.1,3.7,8.4c0,4.3-2.3,8-5.8,10"/>
</svg>
