<?xml version="1.0" encoding="utf-8"?>
<!-- Generator: Adobe Illustrator 23.0.1, SVG Export Plug-In . SVG Version: 6.00 Build 0)  -->
<svg version="1.1" id="Layer_1" xmlns="http://www.w3.org/2000/svg" xmlns:xlink="http://www.w3.org/1999/xlink" x="0px" y="0px"
	 viewBox="0 0 82.4 60.1" style="enable-background:new 0 0 82.4 60.1;" xml:space="preserve">
<style type="text/css">
	.st0{fill:none;stroke:#0066FF;stroke-width:0.75;stroke-miterlimit:10;}
	.st1{fill:none;stroke:#00C1A3;stroke-width:0.75;stroke-miterlimit:10;}
	.st2{fill:none;stroke:#FF25F3;stroke-width:0.75;stroke-miterlimit:10;}
</style>
<polygon class="st0" points="7.9,21 10,25.3 14.8,26 11.4,29.4 12.2,34.2 7.9,31.9 3.6,34.2 4.4,29.4 0.9,26 5.7,25.3 "/>
<polygon class="st0" points="24.6,21 26.7,25.3 31.5,26 28,29.4 28.9,34.2 24.6,31.9 20.3,34.2 21.1,29.4 17.6,26 22.4,25.3 "/>
<polygon class="st0" points="41.2,21 43.4,25.3 48.2,26 44.7,29.4 45.5,34.2 41.2,31.9 36.9,34.2 37.8,29.4 34.3,26 39.1,25.3 "/>
<polygon class="st1" points="57.9,21 60,25.3 64.8,26 61.4,29.4 62.2,34.2 57.9,31.9 53.6,34.2 54.4,29.4 50.9,26 55.7,25.3 "/>
<polygon class="st2" points="74.6,21 76.7,25.3 81.5,26 78,29.4 78.9,34.2 74.6,31.9 70.3,34.2 71.1,29.4 67.6,26 72.4,25.3 "/>
</svg>
