<?xml version="1.0" encoding="utf-8"?>
<!-- Generator: Adobe Illustrator 23.0.1, SVG Export Plug-In . SVG Version: 6.00 Build 0)  -->
<svg version="1.1" id="Layer_1" xmlns="http://www.w3.org/2000/svg" xmlns:xlink="http://www.w3.org/1999/xlink" x="0px" y="0px"
	 viewBox="0 0 70 54" style="enable-background:new 0 0 70 54;" xml:space="preserve">
<style type="text/css">
	.st0{fill:none;stroke:#0066FF;stroke-width:0.75;stroke-miterlimit:10;}
	.st1{fill:none;stroke:#00C1A3;stroke-width:0.75;stroke-miterlimit:10;}
	.st2{fill:none;stroke:#0066FF;stroke-width:0.75;stroke-linejoin:round;stroke-miterlimit:10;}
	.st3{fill:none;stroke:#FF25F3;stroke-width:0.75;stroke-linecap:round;stroke-linejoin:round;stroke-miterlimit:10;}
	.st4{fill-rule:evenodd;clip-rule:evenodd;fill:none;stroke:#0066FF;stroke-width:0.75;stroke-miterlimit:10;}
	.st5{fill-rule:evenodd;clip-rule:evenodd;fill:none;stroke:#00C1A3;stroke-width:0.75;stroke-miterlimit:10;}
	
		.st6{fill-rule:evenodd;clip-rule:evenodd;fill:none;stroke:#FF25F3;stroke-width:0.75;stroke-linecap:round;stroke-linejoin:round;stroke-miterlimit:10;}
	.st7{fill:none;stroke:#0066FF;stroke-width:0.75;stroke-linecap:round;stroke-miterlimit:10;}
</style>
<rect x="52.5" y="43.5" class="st0" width="5" height="9"/>
<rect x="44.5" y="40.5" class="st0" width="5" height="12"/>
<rect x="36.5" y="34.5" class="st0" width="5" height="18"/>
<rect x="28.5" y="27.5" class="st0" width="5" height="25"/>
<rect x="20.5" y="34.5" class="st0" width="5" height="18"/>
<rect x="12.5" y="41.5" class="st0" width="5" height="11"/>
<g>
	<path class="st1" d="M67.7,31.1l-0.2,0.6c-0.4,1-1.5,1.5-2.5,1.1l-18-6.7c-1-0.4-1.5-1.5-1.1-2.5l0.2-0.6c0.4-1,1.5-1.5,2.5-1.1
		l18,6.7C67.6,29,68.1,30.1,67.7,31.1z"/>
	<circle class="st1" cx="31" cy="17.9" r="15"/>
</g>
<line class="st2" x1="33.3" y1="20.5" x2="50.5" y2="34.2"/>
<line class="st2" x1="9.9" y1="38.3" x2="28.4" y2="20.7"/>
<line class="st2" x1="2.5" y1="52.6" x2="64.8" y2="52.6"/>
<circle class="st2" cx="8.2" cy="40.4" r="2.7"/>
<circle class="st3" cx="30.8" cy="18.8" r="2.7"/>
<circle class="st2" cx="52.6" cy="35.8" r="2.7"/>
</svg>
