<?xml version="1.0" encoding="utf-8"?>
<!-- Generator: Adobe Illustrator 23.0.1, SVG Export Plug-In . SVG Version: 6.00 Build 0)  -->
<svg version="1.1" id="Layer_1" xmlns="http://www.w3.org/2000/svg" xmlns:xlink="http://www.w3.org/1999/xlink" x="0px" y="0px"
	 viewBox="0 0 66.1 62.7" style="enable-background:new 0 0 66.1 62.7;" xml:space="preserve">
<style type="text/css">
	.st0{fill:#FF25F3;}
	.st1{fill:#2935E8;}
	.st2{fill:#00C1A3;}
	.st3{fill:none;stroke:#0066FF;stroke-width:0.75;stroke-linejoin:round;stroke-miterlimit:10;}
	.st4{fill:#FFFFFF;stroke:#00C1A3;stroke-width:0.75;stroke-miterlimit:10;}
	.st5{fill:#FFFFFF;stroke:#0066FF;stroke-width:0.75;stroke-miterlimit:10;}
	.st6{fill:none;stroke:#00C1A3;stroke-width:0.75;stroke-miterlimit:10;}
	
		.st7{fill-rule:evenodd;clip-rule:evenodd;fill:none;stroke:#FF25F3;stroke-width:0.75;stroke-linecap:round;stroke-linejoin:round;stroke-miterlimit:10;}
	.st8{fill:none;stroke:#0066FF;stroke-width:0.75;stroke-miterlimit:10;}
	.st9{fill-rule:evenodd;clip-rule:evenodd;fill:none;stroke:#0066FF;stroke-width:0.75;stroke-miterlimit:10;}
	.st10{fill-rule:evenodd;clip-rule:evenodd;fill:none;stroke:#00C1A3;stroke-width:0.75;stroke-miterlimit:10;}
	.st11{fill:none;stroke:#FF25F3;stroke-width:0.75;stroke-linecap:round;stroke-linejoin:round;stroke-miterlimit:10;}
	.st12{fill:#FFFFFF;stroke:#FF25F3;stroke-width:0.75;stroke-linecap:round;stroke-linejoin:round;stroke-miterlimit:10;}
	.st13{fill-rule:evenodd;clip-rule:evenodd;fill:#FFFFFF;stroke:#0066FF;stroke-width:0.75;stroke-miterlimit:10;}
	
		.st14{fill-rule:evenodd;clip-rule:evenodd;fill:#FFFFFF;stroke:#FF25F3;stroke-width:0.75;stroke-linecap:round;stroke-linejoin:round;stroke-miterlimit:10;}
	.st15{fill-rule:evenodd;clip-rule:evenodd;fill:#FFFFFF;stroke:#00C1A3;stroke-width:0.75;stroke-miterlimit:10;}
	.st16{fill:none;stroke:#0066FF;stroke-width:0.75;stroke-linecap:round;stroke-linejoin:round;stroke-miterlimit:10;}
	.st17{fill:#FFFFFF;stroke:#00C1A3;stroke-width:0.75;stroke-linecap:round;stroke-linejoin:round;stroke-miterlimit:10;}
	
		.st18{fill-rule:evenodd;clip-rule:evenodd;fill:#FFFFFF;stroke:#0066FF;stroke-width:0.75;stroke-linecap:round;stroke-linejoin:round;stroke-miterlimit:10;}
	
		.st19{fill-rule:evenodd;clip-rule:evenodd;fill:none;stroke:#0066FF;stroke-width:0.75;stroke-linecap:round;stroke-linejoin:round;stroke-miterlimit:10;}
	.st20{fill:#FFFFFF;stroke:#0066FF;stroke-width:0.75;stroke-linejoin:round;stroke-miterlimit:10;}
	.st21{fill:none;stroke:#FF25F3;stroke-width:0.75;stroke-linecap:round;stroke-miterlimit:10;}
	.st22{fill:none;stroke:#00C1A3;stroke-width:0.75;stroke-miterlimit:10;stroke-dasharray:1.9953,1.9953;}
	.st23{fill:none;stroke:#FF25F3;stroke-width:0.75;stroke-linecap:round;stroke-miterlimit:10;stroke-dasharray:1.9953,1.9953;}
	.st24{fill:#FFFFFF;stroke:#000000;stroke-miterlimit:10;}
	.st25{fill:#0066FF;}
	.st26{fill:none;stroke:#FF25F3;stroke-width:0.75;stroke-linejoin:round;stroke-miterlimit:10;}
	.st27{fill:none;stroke:#FF25F3;stroke-width:0.75;stroke-miterlimit:10;}
	.st28{fill:none;stroke:#0066FF;stroke-width:0.75;stroke-linecap:round;stroke-miterlimit:10;}
	.st29{fill:none;stroke:#FFFFFF;stroke-width:0.75;stroke-miterlimit:10;}
	.st30{fill:none;stroke:#0000FF;stroke-width:2;stroke-miterlimit:10;}
	.st31{fill:none;stroke:#00C1A3;stroke-width:2;stroke-miterlimit:10;}
	.st32{fill:none;stroke:#FF25F3;stroke-width:2;stroke-linecap:round;stroke-linejoin:round;stroke-miterlimit:10;}
	.st33{fill:none;stroke:#FF25F3;stroke-width:0.75;stroke-linejoin:round;}
	.st34{fill:none;stroke:#FF25F3;stroke-width:0.75;stroke-linejoin:round;stroke-dasharray:1.916,1.916;}
	.st35{fill:none;stroke:#FF25F3;stroke-width:0.75;stroke-miterlimit:10;stroke-dasharray:1.916,1.916;}
	.st36{fill:none;}
	.st37{fill-rule:evenodd;clip-rule:evenodd;fill:none;stroke:#FF25F3;stroke-width:0.75;stroke-miterlimit:10;}
	.st38{clip-path:url(#SVGID_2_);fill:#2935E8;}
	.st39{clip-path:url(#SVGID_4_);fill:#00C1A3;}
	.st40{clip-path:url(#SVGID_6_);fill:#FF25F3;}
	.st41{fill:#FFFFFF;}
	.st42{fill:none;stroke:#FF25F3;stroke-width:0.75;stroke-linecap:round;stroke-linejoin:round;}
	.st43{fill:none;stroke:#FF25F3;stroke-width:0.75;stroke-linecap:round;stroke-linejoin:round;stroke-dasharray:5.1058,5.1058;}
	.st44{fill:none;stroke:#FF25F3;stroke-width:0.75;stroke-miterlimit:10;stroke-dasharray:7.3935,7.3935;}
	.st45{fill:none;stroke:#00C1A3;stroke-width:0.75;stroke-miterlimit:10;stroke-dasharray:8.7323,8.7323;}
</style>
<g>
	<path class="st8" d="M33.6,26.3l12.2-3.1l-0.1-0.5l-10.1,2.6c-0.8,0.2-1.7-0.3-1.9-1.1s0.3-1.7,1.1-1.9L45,19.6l0,0l5.1-1.3
		L50,17.6l-6.6,1.7c-0.8,0.2-1.7-0.3-1.9-1.1s0.3-1.7,1.1-1.9l6.6-1.7c0,0,5.4-1.6,8.7,0.2C60.6,16.1,62,21,62,21l0,0
		c0,0.1,0.1,0.2,0.1,0.3l0.6,2.4c0.8,3.2-1.1,6.4-4.3,7.2l-9.7,2.5c-0.1,0-0.1,0-0.2,0c0,0,0,0,0,0l-7.7,2c-0.8,0.2-1.7-0.3-1.9-1.1
		c-0.2-0.8,0.3-1.7,1.1-1.9l7.6-2l-0.1-0.5l-10.1,2.6c-0.8,0.2-1.7-0.3-1.9-1.1c-0.2-0.8,0.3-1.7,1.1-1.9l10.1-2.6l-0.1-0.5
		l-12.2,3.1c-0.8,0.2-1.7-0.3-1.9-1.1S32.8,26.5,33.6,26.3z"/>
	<path class="st8" d="M50.2,52.7c0,4.6-3.7,8.3-8.3,8.3s-8.3-3.7-8.3-8.3"/>
	<line class="st8" x1="33.5" y1="52.7" x2="2.5" y2="52.7"/>
	<line class="st8" x1="50.2" y1="52.7" x2="63" y2="52.7"/>
	<path class="st8" d="M45.1,55.2c-0.7,2.2-3.1,3.3-3.1,3.3s-1.2-2.3-0.6-4.5c0.7-2.2,3.1-3.3,3.1-3.3S45.8,53,45.1,55.2z"/>
	<path class="st8" d="M47.3,41.6c-0.3,2.2-2.5,3.8-2.5,3.8s-1.6-2.1-1.3-4.3c0.3-2.2,2.5-3.8,2.5-3.8S47.6,39.4,47.3,41.6z"/>
</g>
<g>
	<path class="st6" d="M23.9,4.1h0.8C27.1,4.1,29,6,29,8.4v18.2c0,2.4-1.9,4.3-4.3,4.3H6.5c-2.4,0-4.3-1.9-4.3-4.3V8.4
		c0-2.4,1.9-4.3,4.3-4.3H8"/>
	<line class="st6" x1="19.1" y1="4.1" x2="22.1" y2="4.1"/>
	<line class="st6" x1="14.4" y1="4.1" x2="17.5" y2="4.1"/>
	<line class="st6" x1="9.6" y1="4.1" x2="12.7" y2="4.1"/>
	<rect x="8.1" y="1.7" class="st8" width="1.2" height="5.4"/>
	<rect x="12.9" y="1.7" class="st8" width="1.2" height="5.4"/>
	<rect x="17.7" y="1.7" class="st8" width="1.2" height="5.4"/>
	<rect x="22.4" y="1.7" class="st8" width="1.2" height="5.4"/>
	<g>
		<rect x="7.1" y="10.2" class="st8" width="7" height="7"/>
		<rect x="17.1" y="10.2" class="st8" width="7" height="7"/>
		<rect x="7.1" y="20.2" class="st8" width="7" height="7"/>
		<rect x="17.1" y="20.2" class="st11" width="7" height="7"/>
	</g>
</g>
</svg>
