<?xml version="1.0" encoding="utf-8"?>
<!-- Generator: Adobe Illustrator 23.0.1, SVG Export Plug-In . SVG Version: 6.00 Build 0)  -->
<svg version="1.1" id="Layer_1" xmlns="http://www.w3.org/2000/svg" xmlns:xlink="http://www.w3.org/1999/xlink" x="0px" y="0px"
	 viewBox="0 0 147.5 137.6" style="enable-background:new 0 0 147.5 137.6;" xml:space="preserve">
<style type="text/css">
	.st0{fill:#000751;}
	.st1{fill:none;stroke:#0066FF;stroke-width:0.75;stroke-linejoin:round;stroke-miterlimit:10;}
	.st2{fill:#FFFFFF;stroke:#00C1A3;stroke-width:0.75;stroke-miterlimit:10;}
	.st3{fill:#FFFFFF;stroke:#0066FF;stroke-width:0.75;stroke-miterlimit:10;}
	.st4{fill:none;stroke:#00C1A3;stroke-width:0.75;stroke-miterlimit:10;}
	
		.st5{fill-rule:evenodd;clip-rule:evenodd;fill:none;stroke:#FF25F3;stroke-width:0.75;stroke-linecap:round;stroke-linejoin:round;stroke-miterlimit:10;}
	.st6{fill:none;stroke:#0066FF;stroke-width:0.75;stroke-miterlimit:10;}
	.st7{fill-rule:evenodd;clip-rule:evenodd;fill:none;stroke:#0066FF;stroke-width:0.75;stroke-miterlimit:10;}
	.st8{fill-rule:evenodd;clip-rule:evenodd;fill:none;stroke:#00C1A3;stroke-width:0.75;stroke-miterlimit:10;}
	.st9{fill:none;stroke:#FF25F3;stroke-width:0.75;stroke-linecap:round;stroke-linejoin:round;stroke-miterlimit:10;}
	.st10{fill:#FFFFFF;stroke:#FF25F3;stroke-width:0.75;stroke-linecap:round;stroke-linejoin:round;stroke-miterlimit:10;}
	.st11{fill-rule:evenodd;clip-rule:evenodd;fill:#FFFFFF;stroke:#0066FF;stroke-width:0.75;stroke-miterlimit:10;}
	
		.st12{fill-rule:evenodd;clip-rule:evenodd;fill:#FFFFFF;stroke:#FF25F3;stroke-width:0.75;stroke-linecap:round;stroke-linejoin:round;stroke-miterlimit:10;}
	.st13{fill-rule:evenodd;clip-rule:evenodd;fill:#FFFFFF;stroke:#00C1A3;stroke-width:0.75;stroke-miterlimit:10;}
	.st14{fill:none;stroke:#0066FF;stroke-width:0.75;stroke-linecap:round;stroke-linejoin:round;stroke-miterlimit:10;}
	.st15{fill:#FFFFFF;stroke:#00C1A3;stroke-width:0.75;stroke-linecap:round;stroke-linejoin:round;stroke-miterlimit:10;}
	
		.st16{fill-rule:evenodd;clip-rule:evenodd;fill:#FFFFFF;stroke:#0066FF;stroke-width:0.75;stroke-linecap:round;stroke-linejoin:round;stroke-miterlimit:10;}
	
		.st17{fill-rule:evenodd;clip-rule:evenodd;fill:none;stroke:#0066FF;stroke-width:0.75;stroke-linecap:round;stroke-linejoin:round;stroke-miterlimit:10;}
	.st18{fill:#FFFFFF;stroke:#0066FF;stroke-width:0.75;stroke-linejoin:round;stroke-miterlimit:10;}
	.st19{fill:none;stroke:#FF25F3;stroke-width:0.75;stroke-linecap:round;stroke-miterlimit:10;}
	.st20{fill:none;stroke:#00C1A3;stroke-width:0.75;stroke-miterlimit:10;stroke-dasharray:1.9953,1.9953;}
	.st21{fill:none;stroke:#FF25F3;stroke-width:0.75;stroke-linecap:round;stroke-miterlimit:10;stroke-dasharray:1.9953,1.9953;}
	.st22{fill:#FFFFFF;stroke:#000000;stroke-miterlimit:10;}
	.st23{fill:#0066FF;}
	.st24{fill:#FF25F3;}
	.st25{fill:none;stroke:#FF25F3;stroke-width:0.75;stroke-linejoin:round;stroke-miterlimit:10;}
	.st26{fill:none;stroke:#FF25F3;stroke-width:0.75;stroke-miterlimit:10;}
	.st27{fill:none;stroke:#0066FF;stroke-width:0.75;stroke-linecap:round;stroke-miterlimit:10;}
	.st28{fill:none;stroke:#FFFFFF;stroke-width:0.75;stroke-miterlimit:10;}
	.st29{fill:none;stroke:#0000FF;stroke-width:2;stroke-miterlimit:10;}
	.st30{fill:none;stroke:#00C1A3;stroke-width:2;stroke-miterlimit:10;}
	.st31{fill:none;stroke:#FF25F3;stroke-width:2;stroke-linecap:round;stroke-linejoin:round;stroke-miterlimit:10;}
	.st32{fill:none;stroke:#FF25F3;stroke-width:0.75;stroke-linejoin:round;}
	.st33{fill:none;stroke:#FF25F3;stroke-width:0.75;stroke-linejoin:round;stroke-dasharray:1.916,1.916;}
	.st34{fill:none;stroke:#FF25F3;stroke-width:0.75;stroke-miterlimit:10;stroke-dasharray:1.916,1.916;}
	.st35{fill:none;}
	.st36{fill-rule:evenodd;clip-rule:evenodd;fill:none;stroke:#FF25F3;stroke-width:0.75;stroke-miterlimit:10;}
	.st37{clip-path:url(#SVGID_2_);fill:#FF25F3;}
	.st38{clip-path:url(#SVGID_4_);fill:#00C1A3;}
	.st39{clip-path:url(#SVGID_6_);fill:#2935E8;}
</style>
<g>
	<defs>
		<path id="SVGID_1_" d="M72.9,111.9c0,0,0.8,2.2,3.1,5.4c1.7,2.3,2.8,3.5,2.8,3.5s16.4-25,16.3-25.7c-0.1-0.7-12.8-40.5-12.8-40.5
			l-32.7-6.5l-32.8,4.2L-7.8,87.6l13,38.3c0,0,24.8,11.7,25,11.7c0.3,0,35.2,0,35.2,0L76,126.5c0,0-3.6-3.2-4.5-4.3
			c-1.8-2.1-3.1-3.8-3.1-3.8l-10,7.3l-36.5-5.9L15.6,95l12.8-21.3l28-9.9L66.1,74l9.2,22.1L72.9,111.9z"/>
	</defs>
	<clipPath id="SVGID_2_">
		<use xlink:href="#SVGID_1_"  style="overflow:visible;"/>
	</clipPath>
	<path class="st37" d="M13.9,123.4c16.7,16.7,43.7,16.7,60.3,0c16.7-16.7,16.7-43.7,0-60.3s-43.7-16.7-60.3,0
		C-2.7,79.7-2.7,106.8,13.9,123.4z M67.8,69.5c14.7,14.7,14.7,38.4,0,53.1c-14.7,14.7-38.4,14.7-53.1,0C0,108,0,84.2,14.7,69.5
		C29.4,54.9,53.2,54.9,67.8,69.5z"/>
</g>
<g>
	<defs>
		<path id="SVGID_3_" d="M107.4,59.9c0,0,1.4-2.3,2.6-4.9c1.3-2.9,1.7-4.6,1.7-4.6L95,39.9L60.8,66.5l-10,33.3l16,24.7l33.1,16.8
			l35-10.4l22.3-38l-17.2-37.5l-20.7-3.8c0,0-0.7,0.1-0.7,0.1c-0.3,1.7-0.7,3-1.1,4.8c-0.5,1.9-3.2,8.3-3.2,8.3l9.9,3.2l7.6,13.9
			l2.2,20.9l-11.5,15.3l-30.1,5.3l-16.1-11.5c0,0-2.3-12.5-2.3-13.5c0-1,3.5-17.4,3.5-17.4l15.1-15.3L107.4,59.9z"/>
	</defs>
	<clipPath id="SVGID_4_">
		<use xlink:href="#SVGID_3_"  style="overflow:visible;"/>
	</clipPath>
	<path class="st38" d="M133.6,123.4c16.7-16.7,16.7-43.7,0-60.3C117,46.4,90,46.4,73.3,63.1s-16.7,43.7,0,60.3
		C90,140.1,117,140.1,133.6,123.4z M79.8,69.5c14.7-14.7,38.4-14.7,53.1,0c14.7,14.7,14.7,38.4,0,53.1c-14.7,14.7-38.4,14.7-53.1,0
		C65.1,108,65.1,84.2,79.8,69.5z"/>
</g>
<g>
	<defs>
		<path id="SVGID_5_" d="M40.5,50.3c0,0-1.1,0.1-3.3,0.4c-1.4,0.2-5.5,1.3-5.5,1.3L26,34L41.5,3.3c0,0,27.6-8.4,29.7-8.8
			c2.2-0.4,36.2,6.7,36.2,6.7l20.3,22v24.8l-11.5,29.3c0,0-24.1,10.2-24.5,11.2c-0.4,1-29.9,1.9-29.9,1.9L38.7,76.7l-3-17.3
			c0,0,1.7-0.3,4.6-0.4c2.3-0.1,4.1,0.1,4.1,0.1l22.1,13.2l31.7-8.6l10.7-19c0,0-10.1-26.4-10.9-26.8s-19.6-5.7-19.6-5.7
			S55.6,13.1,55,13.5s-9.6,15.8-9.8,16.8C45,31.3,40.5,50.3,40.5,50.3z"/>
	</defs>
	<clipPath id="SVGID_6_">
		<use xlink:href="#SVGID_5_"  style="overflow:visible;"/>
	</clipPath>
	<path class="st39" d="M76.2,1.2c-23.6,0-42.7,19.1-42.7,42.7c0,23.6,19.1,42.7,42.7,42.7s42.7-19.1,42.7-42.7
		C118.9,20.3,99.8,1.2,76.2,1.2z M76.2,77.4c-20.7,0-37.6-16.8-37.6-37.6c0-20.7,16.8-37.6,37.6-37.6c20.7,0,37.6,16.8,37.6,37.6
		C113.8,60.6,97,77.4,76.2,77.4z"/>
</g>
</svg>
