<?xml version="1.0" encoding="utf-8"?>
<!-- Generator: Adobe Illustrator 23.0.1, SVG Export Plug-In . SVG Version: 6.00 Build 0)  -->
<svg version="1.1" id="Layer_1" xmlns="http://www.w3.org/2000/svg" xmlns:xlink="http://www.w3.org/1999/xlink" x="0px" y="0px"
	 viewBox="0 0 96 57" style="enable-background:new 0 0 96 57;" xml:space="preserve">
<style type="text/css">
	.st0{fill:none;stroke:#0066FF;stroke-width:0.75;stroke-miterlimit:10;}
	.st1{fill:none;stroke:#FF25F3;stroke-width:0.75;stroke-linecap:round;stroke-linejoin:round;stroke-miterlimit:10;}
	.st2{fill:none;stroke:#00C1A3;stroke-width:0.75;stroke-miterlimit:10;}
	.st3{fill-rule:evenodd;clip-rule:evenodd;fill:none;stroke:#0066FF;stroke-width:0.75;stroke-miterlimit:10;}
	.st4{fill:none;stroke:#FF25F3;stroke-width:0.75;stroke-linejoin:round;stroke-miterlimit:10;}
	.st5{fill:none;stroke:#FF25F3;stroke-width:0.75;stroke-miterlimit:10;}
	
		.st6{fill-rule:evenodd;clip-rule:evenodd;fill:none;stroke:#FF25F3;stroke-width:0.75;stroke-linejoin:round;stroke-miterlimit:10;}
	.st7{fill-rule:evenodd;clip-rule:evenodd;fill:none;stroke:#00C1A3;stroke-width:0.75;stroke-miterlimit:10;}
	
		.st8{fill-rule:evenodd;clip-rule:evenodd;fill:none;stroke:#FF25F3;stroke-width:0.75;stroke-linecap:round;stroke-linejoin:round;stroke-miterlimit:10;}
</style>
<rect x="5.3" y="2.6" class="st0" width="59.6" height="35.7"/>
<circle class="st0" cx="19.4" cy="47.9" r="7.8"/>
<polygon class="st4" points="90.5,20.3 76.5,20.3 76.5,9.9 85.7,9.9 "/>
<polyline class="st0" points="12,44.9 1.5,44.9 1.5,38.5 67.5,38.5 67.5,44.9 26.6,44.9 "/>
<circle class="st0" cx="19.4" cy="47.9" r="4"/>
<circle class="st0" cx="79.3" cy="47.9" r="7.8"/>
<circle class="st0" cx="79.3" cy="47.9" r="4"/>
<rect x="9.4" y="5.5" class="st0" width="4.4" height="29.9"/>
<rect x="17.4" y="5.5" class="st0" width="4.4" height="29.9"/>
<rect x="25.3" y="5.5" class="st0" width="4.4" height="29.9"/>
<rect x="33.2" y="5.5" class="st0" width="4.4" height="29.9"/>
<rect x="41.1" y="5.5" class="st0" width="4.4" height="29.9"/>
<rect x="49.1" y="5.5" class="st2" width="4.4" height="29.9"/>
<rect x="57" y="5.5" class="st0" width="4.4" height="29.9"/>
<path class="st0" d="M87,7.3H67.2v37.6h2.7c1.2-3.9,4.9-6.8,9.3-6.8c4.4,0,8,2.9,9.3,6.8H94V21.4L87,7.3z"/>
</svg>
