<?xml version="1.0" encoding="utf-8"?>
<!-- Generator: Adobe Illustrator 23.0.1, SVG Export Plug-In . SVG Version: 6.00 Build 0)  -->
<svg version="1.1" id="Layer_1" xmlns="http://www.w3.org/2000/svg" xmlns:xlink="http://www.w3.org/1999/xlink" x="0px" y="0px"
	 viewBox="0 0 67.9 44.9" style="enable-background:new 0 0 67.9 44.9;" xml:space="preserve">
<style type="text/css">
	.st0{fill:none;stroke:#0066FF;stroke-width:0.75;stroke-linejoin:round;stroke-miterlimit:10;}
	.st1{fill:none;stroke:#00C1A3;stroke-width:0.75;stroke-miterlimit:10;}
	
		.st2{fill-rule:evenodd;clip-rule:evenodd;fill:none;stroke:#FF25F3;stroke-width:0.75;stroke-linecap:round;stroke-linejoin:round;stroke-miterlimit:10;}
	.st3{fill:none;stroke:#0066FF;stroke-width:0.75;stroke-miterlimit:10;}
	.st4{fill-rule:evenodd;clip-rule:evenodd;fill:none;stroke:#0066FF;stroke-width:0.75;stroke-miterlimit:10;}
	.st5{fill-rule:evenodd;clip-rule:evenodd;fill:none;stroke:#00C1A3;stroke-width:0.75;stroke-miterlimit:10;}
	.st6{fill:none;stroke:#FF25F3;stroke-width:0.75;stroke-linecap:round;stroke-linejoin:round;stroke-miterlimit:10;}
	.st7{fill:#FFFFFF;stroke:#FF25F3;stroke-width:0.75;stroke-linecap:round;stroke-linejoin:round;stroke-miterlimit:10;}
	.st8{fill-rule:evenodd;clip-rule:evenodd;fill:#FFFFFF;stroke:#0066FF;stroke-width:0.75;stroke-miterlimit:10;}
	
		.st9{fill-rule:evenodd;clip-rule:evenodd;fill:#FFFFFF;stroke:#FF25F3;stroke-width:0.75;stroke-linecap:round;stroke-linejoin:round;stroke-miterlimit:10;}
	.st10{fill-rule:evenodd;clip-rule:evenodd;fill:#FFFFFF;stroke:#00C1A3;stroke-width:0.75;stroke-miterlimit:10;}
	.st11{fill:#FFFFFF;stroke:#00C1A3;stroke-width:0.75;stroke-miterlimit:10;}
	.st12{fill:#FFFFFF;stroke:#0066FF;stroke-width:0.75;stroke-miterlimit:10;}
	.st13{fill:none;stroke:#0066FF;stroke-width:0.75;stroke-linecap:round;stroke-linejoin:round;stroke-miterlimit:10;}
	.st14{fill:#FFFFFF;stroke:#00C1A3;stroke-width:0.75;stroke-linecap:round;stroke-linejoin:round;stroke-miterlimit:10;}
	
		.st15{fill-rule:evenodd;clip-rule:evenodd;fill:#FFFFFF;stroke:#0066FF;stroke-width:0.75;stroke-linecap:round;stroke-linejoin:round;stroke-miterlimit:10;}
	
		.st16{fill-rule:evenodd;clip-rule:evenodd;fill:none;stroke:#0066FF;stroke-width:0.75;stroke-linecap:round;stroke-linejoin:round;stroke-miterlimit:10;}
	.st17{fill:#FFFFFF;stroke:#0066FF;stroke-width:0.75;stroke-linejoin:round;stroke-miterlimit:10;}
</style>
<g>
	<path class="st4" d="M29.4,39l5.4,4.4c1.5,1.2,3.6,0.9,4.8-0.6c1.2-1.5,0.9-2.5-0.6-3.6l-5-4.6l0.2-0.2l2.6,2.2l6.9,5.9
		c1.2,1,3-0.4,4-1.6c1-1.2,0.8-3-0.5-4L38,29l0.5-0.6l10,8.5c1.5,1.2,3.6,0.9,4.8-0.6c1.2-1.5,0.9-3.6-0.6-4.8L43,23.3l0.4-0.4
		l9.2,7.8c1.5,1.2,3.6,0.9,4.8-0.6l0.7-0.8c1.2-1.5,0.9-3.6-0.6-4.8l-1-0.8"/>
	<path class="st4" d="M33,3.2c-1.6-0.9-3-1.7-3.7-1.7c-2-0.1-7.9,3.5-9.1,3.4c-1.2-0.1-9.6-4.1-9.6-4.1L1.3,13.1c0,0,3.2,3.3,6.9,7"
		/>
	<path class="st4" d="M56.3,23.6l10.6-11.2L56.1,0.9c0,0-6.1,4.4-7.2,4.3C45.2,4.9,42,2.5,38.5,1.6c-3.5-0.9-11,5.5-11.6,8.6
		c-0.3,1.3,1,4.3,3.6,4.5c3.5,0.3,4.7-4,6.8-4.3c1.1-0.1,2.9,0.4,4.2,1.5C47.8,16.9,56.3,23.6,56.3,23.6z"/>
	<path class="st4" d="M9.5,36.7L7.8,35c-1-1-1-2.7,0-3.7l10.9-10.9c1-1,2.7-1,3.7,0l1.7,1.7c1,1,1,2.7,0,3.7L13.2,36.7
		C12.2,37.7,10.5,37.7,9.5,36.7z"/>
	<path class="st4" d="M15.9,40.7l-2-2c-0.7-0.7-0.7-2,0-2.7l9.3-9.3c0.7-0.7,2-0.7,2.7,0l2,2c0.7,0.7,0.7,2,0,2.7l-9.3,9.3
		C17.8,41.4,16.6,41.4,15.9,40.7z"/>
	<path class="st5" d="M5.9,30.5l-2.6-2.6c-0.7-0.7-0.7-2,0-2.7l9.3-9.3c0.7-0.7,2-0.7,2.7,0l2.6,2.6c0.7,0.7,0.7,2,0,2.7l-9.3,9.3
		C7.9,31.2,6.6,31.2,5.9,30.5z"/>
	<path class="st2" d="M21.9,43.5l-1.7-1.7c-0.7-0.7-0.7-2,0-2.7l7-7c0.7-0.7,2-0.7,2.7,0l1.7,1.7c0.7,0.7,0.7,2,0,2.7l-7,7
		C23.9,44.2,22.6,44.2,21.9,43.5z"/>
</g>
</svg>
