<?xml version="1.0" encoding="utf-8"?>
<!-- Generator: Adobe Illustrator 23.0.1, SVG Export Plug-In . SVG Version: 6.00 Build 0)  -->
<svg version="1.1" id="Layer_1" xmlns="http://www.w3.org/2000/svg" xmlns:xlink="http://www.w3.org/1999/xlink" x="0px" y="0px"
	 viewBox="0 0 58.2 57.8" style="enable-background:new 0 0 58.2 57.8;" xml:space="preserve">
<style type="text/css">
	.st0{fill-rule:evenodd;clip-rule:evenodd;fill:none;stroke:#00C1A3;stroke-width:0.75;stroke-miterlimit:10;}
	.st1{fill:#FFFFFF;stroke:#0066FF;stroke-width:0.75;stroke-linecap:round;stroke-linejoin:round;stroke-miterlimit:10;}
	.st2{fill:none;stroke:#0066FF;stroke-width:0.75;stroke-linecap:round;stroke-linejoin:round;stroke-miterlimit:10;}
	.st3{fill:#FFFFFF;stroke:#0066FF;stroke-width:0.75;stroke-miterlimit:10;}
	.st4{fill:none;stroke:#0066FF;stroke-width:0.75;stroke-miterlimit:10;}
	.st5{fill:none;stroke:#00C1A3;stroke-width:0.75;stroke-miterlimit:10;}
	.st6{fill:none;stroke:#FF25F3;stroke-width:0.75;stroke-miterlimit:10;}
	.st7{fill:none;stroke:#FF25F3;stroke-width:0.75;stroke-linecap:round;stroke-linejoin:round;stroke-miterlimit:10;}
	.st8{fill-rule:evenodd;clip-rule:evenodd;fill:none;stroke:#0066FF;stroke-width:0.75;stroke-miterlimit:10;}
	.st9{clip-path:url(#SVGID_2_);fill-rule:evenodd;clip-rule:evenodd;fill:#FFFFFF;}
	.st10{fill-rule:evenodd;clip-rule:evenodd;fill:#FCFDFF;}
	.st11{fill-rule:evenodd;clip-rule:evenodd;fill:#FFFFFF;}
	.st12{fill-rule:evenodd;clip-rule:evenodd;fill:#3D6A9D;}
	.st13{fill:#FFFFFF;}
	.st14{fill:#0066FF;}
	.st15{fill-rule:evenodd;clip-rule:evenodd;fill:#FFFFFF;stroke:#0066FF;stroke-width:0.75;stroke-miterlimit:10;}
	.st16{fill-rule:evenodd;clip-rule:evenodd;fill:#FFFFFF;stroke:#44E0A0;stroke-width:0.75;stroke-miterlimit:10;}
	.st17{fill-rule:evenodd;clip-rule:evenodd;fill:#FFFFFF;stroke:#FF25F3;stroke-width:0.75;stroke-miterlimit:10;}
	.st18{fill:none;stroke:#FFFFFF;stroke-width:2.8774;stroke-miterlimit:10;}
	
		.st19{fill-rule:evenodd;clip-rule:evenodd;fill:none;stroke:#FF25F3;stroke-width:0.75;stroke-linecap:round;stroke-linejoin:round;stroke-miterlimit:10;}
	.st20{fill-rule:evenodd;clip-rule:evenodd;fill:#FFFFFF;stroke:#FFFFFF;stroke-width:0.7194;stroke-miterlimit:10;}
	.st21{fill:none;stroke:#FFFFFF;stroke-width:0.7194;stroke-miterlimit:10;}
	.st22{fill:none;stroke:#44E0A0;stroke-width:0.75;stroke-linecap:round;stroke-linejoin:round;stroke-miterlimit:10;}
	.st23{fill-rule:evenodd;clip-rule:evenodd;fill:#FFFFFF;stroke:#00C1A3;stroke-width:0.75;stroke-miterlimit:10;}
	.st24{fill:none;stroke:#0066FF;stroke-width:0.75;stroke-linecap:round;stroke-miterlimit:10;}
	.st25{fill:#FFFFFF;stroke:#00C1A3;stroke-width:0.75;stroke-miterlimit:10;}
	.st26{clip-path:url(#SVGID_4_);}
	
		.st27{fill-rule:evenodd;clip-rule:evenodd;fill:none;stroke:#0066FF;stroke-width:0.75;stroke-linecap:round;stroke-miterlimit:10;}
	.st28{fill:#FFFFFF;stroke:#FF25F3;stroke-width:0.75;stroke-miterlimit:10;}
	.st29{fill:#FFFFFF;stroke:#FF25F3;stroke-width:0.75;stroke-linecap:round;stroke-linejoin:round;stroke-miterlimit:10;}
	.st30{fill:none;stroke:#00FA9B;stroke-width:0.75;stroke-miterlimit:10;}
	.st31{fill:#87D73F;}
	.st32{fill:#3DED98;}
</style>
<g>
	<path class="st7" d="M15.8,28.5c-0.7-1.5-1.1-3.2-1.1-4.9c0-6.5,5.3-11.8,11.8-11.8c4.8,0,9,2.9,10.8,7.1"/>
	<line class="st7" x1="26.6" y1="0.7" x2="26.6" y2="8.4"/>
	<line class="st7" x1="34.4" y1="2.1" x2="31.8" y2="9.4"/>
	<line class="st7" x1="41.3" y1="6.1" x2="36.3" y2="12"/>
	<line class="st7" x1="46.4" y1="12.2" x2="39.7" y2="16"/>
	<line class="st7" x1="4" y1="27.6" x2="11.6" y2="26.2"/>
	<line class="st7" x1="4" y1="19.6" x2="11.6" y2="21"/>
	<line class="st7" x1="6.8" y1="12.1" x2="13.4" y2="16"/>
	<line class="st7" x1="11.9" y1="6.1" x2="16.8" y2="12"/>
	<line class="st7" x1="18.8" y1="2.1" x2="21.4" y2="9.3"/>
</g>
<g>
	<line class="st24" x1="11.2" y1="51.5" x2="8.7" y2="57.3"/>
	<line class="st24" x1="14.6" y1="44.2" x2="12.6" y2="48.5"/>
	<path class="st24" d="M14.9,54.1c-0.5,1.1-1,2.2-1.4,3.2"/>
	<path class="st25" d="M18.2,46.7c-0.7,1.6-1.4,3.1-2.1,4.7"/>
	<path class="st24" d="M21.5,50.2c-1.1,2.4-2.1,4.8-3.2,7.1"/>
	<path class="st24" d="M24.2,44c-0.7,1.5-1.2,2.7-1.9,4.2"/>
	<path class="st24" d="M24.2,54.7c-0.4,0.9-0.8,1.7-1.1,2.6"/>
	<path class="st24" d="M26.8,49c-0.4,0.9-0.8,1.9-1.2,2.8"/>
	<path class="st24" d="M29,44c-0.4,0.8-0.8,1.7-1.1,2.5"/>
	<line class="st24" x1="29.8" y1="52.9" x2="27.9" y2="57.3"/>
	<line class="st24" x1="33" y1="45.7" x2="30.9" y2="50"/>
	<path class="st24" d="M34.7,52.8c-0.7,1.5-1.4,3-2,4.5"/>
	<path class="st25" d="M38,45.2c-0.7,1.7-1.5,3.3-2.2,5"/>
	<line class="st24" x1="41.4" y1="37.6" x2="39.3" y2="42.4"/>
	<line class="st24" x1="39.7" y1="51.9" x2="37.4" y2="57.3"/>
	<line class="st24" x1="44.2" y1="42.2" x2="41.1" y2="49.1"/>
	<path class="st24" d="M46.6,36.8c-0.5,1-0.8,1.7-1.2,2.8"/>
</g>
<path class="st8" d="M17.1,29.1c-0.4,0-0.5-0.3-0.9-0.4L15,28.2c-0.1,0-0.2,0-0.3-0.1c-1-0.2-2.2-0.3-3.2-0.1
	c-1.1,0.2-2.2,0.7-3,1.3c-0.4,0.3-0.8,0.6-1.2,1l-0.4,0.4c-0.7,0.8-1.2,1.8-1.5,2.9c0,0.1-0.1,0.5-0.1,0.6c-0.1,1,0,0.7-1.1,1
	c-2.7,0.8-4.4,4.2-2.7,6.7c0.3,0.5,0.7,0.8,1.1,1.2C3.1,43.6,4.1,44,4.9,44h27.9c1.2,0,2.5-0.4,3.4-1.1c2.5-1.9,3.2-4.6,1.9-7.5
	c-0.1-0.2,0-0.1-0.1-0.2l-0.5-0.7c-0.3-0.4-0.6-0.7-0.9-1l-1.1-0.8l-0.1,0l-1-0.4c-0.2-0.1-0.4-0.1-0.6-0.1
	c-1.2-0.2-1.2,0.4-1.2-0.7c0-1.7-0.2-2.8-1-4.3c-0.4-0.7-0.9-1.3-1.5-1.9c-0.5-0.4-0.9-0.7-1.4-1c-0.2-0.1-0.4-0.2-0.6-0.3
	c-0.2-0.1-0.1-0.1-0.3-0.2c-1.1-0.6-3.3-0.7-4.5-0.4c-0.1,0-0.1,0-0.3,0.1c0,0-0.1,0-0.1,0l-0.1,0c-0.6,0.2-1.2,0.4-1.7,0.7
	c-0.5,0.3-1,0.6-1.4,1l-1.2,1.4c-0.1,0.1-0.1,0.1-0.2,0.3l-0.6,1.1L17.1,29.1z"/>
<path class="st8" d="M38.7,36.7h12.9c1.2,0,2.5-0.4,3.4-1.1c2.5-1.9,3.2-4.6,1.9-7.5c-0.1-0.2,0-0.1-0.1-0.2l-0.5-0.7
	c-0.3-0.4-0.6-0.7-0.9-1l-1.1-0.8l-0.1,0l-1-0.4c-0.2-0.1-0.4-0.1-0.6-0.1c-1.2-0.2-1.2,0.4-1.2-0.7c0-1.7-0.2-2.8-1-4.3
	c-0.4-0.7-0.9-1.3-1.5-1.9c-0.5-0.4-0.9-0.7-1.4-1c-0.2-0.1-0.4-0.2-0.6-0.3c-0.2-0.1-0.1-0.1-0.3-0.2c-1.1-0.6-3.3-0.7-4.5-0.4
	c-0.1,0-0.1,0-0.3,0.1c0,0-0.1,0-0.1,0l-0.1,0c-0.6,0.2-1.2,0.4-1.7,0.7c-0.5,0.3-1,0.6-1.4,1l-1.2,1.4c-0.1,0.1-0.1,0.1-0.2,0.3
	l-0.6,1.1l-0.4,1.2c-0.4,0-0.5-0.3-0.9-0.4l-1.2-0.5c-0.1,0-0.2,0-0.3-0.1c-1-0.2-2.2-0.3-3.2-0.1c-1.1,0.2-2.2,0.7-3,1.3
	c-0.4,0.3-0.8,0.6-1.2,1l-0.4,0.4"/>
</svg>
