<?xml version="1.0" encoding="utf-8"?>
<!-- Generator: Adobe Illustrator 23.0.1, SVG Export Plug-In . SVG Version: 6.00 Build 0)  -->
<svg version="1.1" id="Layer_1" xmlns="http://www.w3.org/2000/svg" xmlns:xlink="http://www.w3.org/1999/xlink" x="0px" y="0px"
	 viewBox="0 0 51.3 63.2" style="enable-background:new 0 0 51.3 63.2;" xml:space="preserve">
<style type="text/css">
	.st0{fill-rule:evenodd;clip-rule:evenodd;fill:none;stroke:#00C1A3;stroke-width:0.75;stroke-miterlimit:10;}
	.st1{fill:#FFFFFF;stroke:#0066FF;stroke-width:0.75;stroke-linecap:round;stroke-linejoin:round;stroke-miterlimit:10;}
	.st2{fill:none;stroke:#0066FF;stroke-width:0.75;stroke-linecap:round;stroke-linejoin:round;stroke-miterlimit:10;}
	.st3{fill:#FFFFFF;stroke:#0066FF;stroke-width:0.75;stroke-miterlimit:10;}
	.st4{fill:none;stroke:#0066FF;stroke-width:0.75;stroke-miterlimit:10;}
	.st5{fill:none;stroke:#00C1A3;stroke-width:0.75;stroke-miterlimit:10;}
	.st6{fill:none;stroke:#FF25F3;stroke-width:0.75;stroke-miterlimit:10;}
	.st7{fill:none;stroke:#FF25F3;stroke-width:0.75;stroke-linecap:round;stroke-linejoin:round;stroke-miterlimit:10;}
	.st8{fill-rule:evenodd;clip-rule:evenodd;fill:none;stroke:#0066FF;stroke-width:0.75;stroke-miterlimit:10;}
	.st9{clip-path:url(#SVGID_2_);fill-rule:evenodd;clip-rule:evenodd;fill:#FFFFFF;}
	.st10{fill-rule:evenodd;clip-rule:evenodd;fill:#FCFDFF;}
	.st11{fill-rule:evenodd;clip-rule:evenodd;fill:#FFFFFF;}
	.st12{fill-rule:evenodd;clip-rule:evenodd;fill:#3D6A9D;}
	.st13{fill:#FFFFFF;}
	.st14{fill:#0066FF;}
	.st15{fill-rule:evenodd;clip-rule:evenodd;fill:#FFFFFF;stroke:#0066FF;stroke-width:0.75;stroke-miterlimit:10;}
	.st16{fill-rule:evenodd;clip-rule:evenodd;fill:#FFFFFF;stroke:#44E0A0;stroke-width:0.75;stroke-miterlimit:10;}
	.st17{fill-rule:evenodd;clip-rule:evenodd;fill:#FFFFFF;stroke:#FF25F3;stroke-width:0.75;stroke-miterlimit:10;}
	.st18{fill:none;stroke:#FFFFFF;stroke-width:2.8774;stroke-miterlimit:10;}
	
		.st19{fill-rule:evenodd;clip-rule:evenodd;fill:none;stroke:#FF25F3;stroke-width:0.75;stroke-linecap:round;stroke-linejoin:round;stroke-miterlimit:10;}
	.st20{fill-rule:evenodd;clip-rule:evenodd;fill:#FFFFFF;stroke:#FFFFFF;stroke-width:0.7194;stroke-miterlimit:10;}
	.st21{fill:none;stroke:#FFFFFF;stroke-width:0.7194;stroke-miterlimit:10;}
	.st22{fill:none;stroke:#44E0A0;stroke-width:0.75;stroke-linecap:round;stroke-linejoin:round;stroke-miterlimit:10;}
	.st23{fill-rule:evenodd;clip-rule:evenodd;fill:#FFFFFF;stroke:#00C1A3;stroke-width:0.75;stroke-miterlimit:10;}
	.st24{fill:none;stroke:#0066FF;stroke-width:0.75;stroke-linecap:round;stroke-miterlimit:10;}
	.st25{fill:#FFFFFF;stroke:#00C1A3;stroke-width:0.75;stroke-miterlimit:10;}
	.st26{clip-path:url(#SVGID_4_);}
	
		.st27{fill-rule:evenodd;clip-rule:evenodd;fill:none;stroke:#0066FF;stroke-width:0.75;stroke-linecap:round;stroke-miterlimit:10;}
	.st28{fill:#FFFFFF;stroke:#FF25F3;stroke-width:0.75;stroke-miterlimit:10;}
	.st29{fill:#FFFFFF;stroke:#FF25F3;stroke-width:0.75;stroke-linecap:round;stroke-linejoin:round;stroke-miterlimit:10;}
	.st30{fill:none;stroke:#00FA9B;stroke-width:0.75;stroke-miterlimit:10;}
	.st31{fill:#87D73F;}
	.st32{fill:#3DED98;}
</style>
<g>
	<g>
		<path class="st4" d="M40.6,13.8c-0.5,2.2-1.7,3.7-2.6,3.5c-0.9-0.2-1.1-2.2-0.6-4.3C38,10.8,40,9.4,40,9.4S41.2,11.6,40.6,13.8z"
			/>
		<line class="st4" x1="40" y1="9.4" x2="42.3" y2="0.4"/>
	</g>
	<g>
		<g>
			<path class="st7" d="M36.5,16.4c1,2,1.1,4,0.3,4.4c-0.8,0.4-2.3-0.9-3.2-3c-1-2-0.3-4.4-0.3-4.4S35.6,14.4,36.5,16.4z"/>
			<line class="st7" x1="33.3" y1="13.5" x2="29.3" y2="5.1"/>
		</g>
		<g>
			<path class="st4" d="M35.2,21.7c1,2,1.1,4,0.3,4.4c-0.8,0.4-2.3-0.9-3.2-3c-1-2-0.3-4.4-0.3-4.4S34.2,19.6,35.2,21.7z"/>
			<line class="st4" x1="32" y1="18.7" x2="28" y2="10.3"/>
		</g>
		<g>
			<path class="st4" d="M33.9,26.9c1,2,1.1,4,0.3,4.4s-2.3-0.9-3.2-3c-1-2-0.3-4.4-0.3-4.4S32.9,24.9,33.9,26.9z"/>
			<line class="st4" x1="30.7" y1="23.9" x2="26.7" y2="15.5"/>
		</g>
		<g>
			<path class="st4" d="M32.5,32.1c1,2,1.1,4,0.3,4.4c-0.8,0.4-2.3-0.9-3.2-3c-1-2-0.3-4.4-0.3-4.4S31.6,30.1,32.5,32.1z"/>
			<line class="st4" x1="29.3" y1="29.1" x2="25.4" y2="20.7"/>
		</g>
		<g>
			<path class="st4" d="M31.2,37.3c1,2,1.1,4,0.3,4.4c-0.8,0.4-2.3-0.9-3.2-3S28,34.4,28,34.4S30.3,35.3,31.2,37.3z"/>
			<line class="st4" x1="28" y1="34.4" x2="24" y2="25.9"/>
		</g>
		<g>
			<path class="st4" d="M29.9,42.5c1,2,1.1,4,0.3,4.4c-0.8,0.4-2.3-0.9-3.2-3c-1-2-0.3-4.4-0.3-4.4S28.9,40.5,29.9,42.5z"/>
			<line class="st4" x1="26.7" y1="39.6" x2="22.7" y2="31.2"/>
		</g>
	</g>
	<g>
		<g>
			<path class="st4" d="M39.8,17.2c-1.8,1.3-2.8,3-2.3,3.7c0.5,0.7,2.4,0.2,4.2-1.1s2.3-3.7,2.3-3.7S41.6,15.8,39.8,17.2z"/>
			<line class="st4" x1="44.1" y1="16.1" x2="51.6" y2="10.6"/>
		</g>
		<g>
			<path class="st4" d="M38.5,22.4c-1.8,1.3-2.8,3-2.3,3.7c0.5,0.7,2.4,0.2,4.2-1.1c1.8-1.3,2.3-3.7,2.3-3.7S40.3,21.1,38.5,22.4z"
				/>
			<line class="st4" x1="42.7" y1="21.3" x2="50.3" y2="15.8"/>
		</g>
		<g>
			<path class="st7" d="M37.2,27.6c-1.8,1.3-2.8,3-2.3,3.7c0.5,0.7,2.4,0.2,4.2-1.1s2.3-3.7,2.3-3.7S39,26.3,37.2,27.6z"/>
			<line class="st7" x1="41.4" y1="26.5" x2="48.9" y2="21"/>
		</g>
		<g>
			<path class="st4" d="M35.9,32.8c-1.8,1.3-2.8,3-2.3,3.7c0.5,0.7,2.4,0.2,4.2-1.1c1.8-1.3,2.3-3.7,2.3-3.7S37.7,31.5,35.9,32.8z"
				/>
			<line class="st4" x1="40.1" y1="31.8" x2="47.6" y2="26.3"/>
		</g>
		<g>
			<path class="st4" d="M34.5,38c-1.8,1.3-2.8,3-2.3,3.7c0.5,0.7,2.4,0.2,4.2-1.1c1.8-1.3,2.3-3.7,2.3-3.7S36.3,36.7,34.5,38z"/>
			<line class="st4" x1="38.8" y1="37" x2="46.3" y2="31.5"/>
		</g>
		<g>
			<path class="st4" d="M33.2,43.3c-1.8,1.3-2.8,3-2.3,3.7c0.5,0.7,2.4,0.2,4.2-1.1c1.8-1.3,2.3-3.7,2.3-3.7S35,42,33.2,43.3z"/>
			<line class="st4" x1="37.4" y1="42.2" x2="45" y2="36.7"/>
		</g>
	</g>
	<line class="st4" x1="29.9" y1="49" x2="26.4" y2="62.7"/>
</g>
<g>
	<g>
		<path class="st4" d="M13.9,14.4c0.3,2-0.1,3.8-0.9,3.9c-0.8,0.1-1.7-1.4-2.1-3.5s0.9-3.9,0.9-3.9S13.6,12.4,13.9,14.4z"/>
		<line class="st4" x1="11.8" y1="11" x2="10.5" y2="2.4"/>
	</g>
	<g>
		<g>
			<path class="st4" d="M11.3,18.2c1.5,1.4,2.3,3,1.8,3.6c-0.6,0.6-2.3,0-3.8-1.4c-1.5-1.4-1.8-3.6-1.8-3.6S9.8,16.8,11.3,18.2z"/>
			<line class="st4" x1="7.5" y1="16.8" x2="1.1" y2="11.1"/>
		</g>
		<g>
			<path class="st4" d="M12.1,23.1c1.5,1.4,2.3,3,1.8,3.6s-2.3,0-3.8-1.4c-1.5-1.4-1.8-3.6-1.8-3.6S10.6,21.8,12.1,23.1z"/>
			<line class="st4" x1="8.3" y1="21.8" x2="1.9" y2="16"/>
		</g>
		<g>
			<path class="st4" d="M12.8,28.1c1.5,1.4,2.3,3,1.8,3.6s-2.3,0-3.8-1.4S9,26.7,9,26.7S11.3,26.7,12.8,28.1z"/>
			<line class="st4" x1="9" y1="26.7" x2="2.6" y2="20.9"/>
		</g>
		<g>
			<path class="st25" d="M13.6,33c1.5,1.4,2.3,3,1.8,3.6c-0.6,0.6-2.3,0-3.8-1.4s-1.8-3.6-1.8-3.6S12,31.6,13.6,33z"/>
			<line class="st25" x1="9.8" y1="31.6" x2="3.3" y2="25.9"/>
		</g>
		<g>
			<path class="st4" d="M14.3,37.9c1.5,1.4,2.3,3,1.8,3.6c-0.6,0.6-2.3,0-3.8-1.4s-1.8-3.6-1.8-3.6S12.8,36.6,14.3,37.9z"/>
			<line class="st4" x1="10.5" y1="36.6" x2="4.1" y2="30.8"/>
		</g>
		<g>
			<path class="st7" d="M15.1,42.9c1.5,1.4,2.3,3,1.8,3.6c-0.6,0.6-2.3,0-3.8-1.4s-1.8-3.6-1.8-3.6S13.5,41.5,15.1,42.9z"/>
			<line class="st7" x1="11.3" y1="41.5" x2="4.8" y2="35.7"/>
		</g>
	</g>
	<g>
		<g>
			<path class="st4" d="M14.4,17.6c-1.1,1.8-1.3,3.6-0.6,4c0.7,0.4,2.2-0.7,3.2-2.4s0.6-4,0.6-4S15.5,15.9,14.4,17.6z"/>
			<line class="st4" x1="17.7" y1="15.2" x2="22.1" y2="7.8"/>
		</g>
		<g>
			<path class="st7" d="M15.2,22.6c-1.1,1.8-1.3,3.6-0.6,4c0.7,0.4,2.2-0.7,3.2-2.4c1.1-1.8,0.6-4,0.6-4S16.2,20.8,15.2,22.6z"/>
			<line class="st7" x1="18.4" y1="20.1" x2="22.9" y2="12.7"/>
		</g>
		<g>
			<path class="st4" d="M15.9,27.5c-1.1,1.8-1.3,3.6-0.6,4c0.7,0.4,2.2-0.7,3.2-2.4c1.1-1.8,0.6-4,0.6-4S17,25.7,15.9,27.5z"/>
			<line class="st4" x1="19.2" y1="25.1" x2="23.6" y2="17.7"/>
		</g>
		<g>
			<path class="st4" d="M16.7,32.4c-1.1,1.8-1.3,3.6-0.6,4c0.7,0.4,2.2-0.7,3.2-2.4c1.1-1.8,0.6-4,0.6-4S17.7,30.7,16.7,32.4z"/>
			<line class="st4" x1="19.9" y1="30" x2="24.3" y2="22.6"/>
		</g>
		<g>
			<path class="st4" d="M17.4,37.4c-1.1,1.8-1.3,3.6-0.6,4c0.7,0.4,2.2-0.7,3.2-2.4c1.1-1.8,0.6-4,0.6-4S18.5,35.6,17.4,37.4z"/>
			<line class="st4" x1="20.6" y1="34.9" x2="25.1" y2="27.5"/>
		</g>
		<g>
			<path class="st4" d="M18.2,42.3c-1.1,1.8-1.3,3.6-0.6,4c0.7,0.4,2.2-0.7,3.2-2.4s0.6-4,0.6-4S19.2,40.5,18.2,42.3z"/>
			<line class="st4" x1="21.4" y1="39.9" x2="25.8" y2="32.5"/>
		</g>
	</g>
	<line class="st4" x1="17.4" y1="48.4" x2="19.4" y2="61.3"/>
</g>
<g>
	<path class="st4" d="M45.9,49.9c1.9,0.3-1.5,1.9-4.4,2.1c-2.4,0.2-4.4-0.9-4.4-2.1c0-1.1,2-2.1,4.4-2.1S44.6,49.7,45.9,49.9z"/>
	<path class="st4" d="M43.9,49.4c0,0-1.7-0.3-3.1-0.2c-1.3,0.1-2.9,0.4-3.1,0.4"/>
</g>
<g>
	<path class="st4" d="M39.3,55.4c-0.3,1.2-2.3,1.7-4.5,1.2c-2.2-0.5-3.9-2.2-3.5-3.1c0.5-1.1,2.3-1.7,4.5-1.2
		C37.9,52.8,39.5,54.2,39.3,55.4z"/>
	<path class="st4" d="M38.6,54.7c0,0-1.6-0.8-2.8-1c-1.2-0.2-3.3-0.3-3.4-0.3"/>
</g>
<g>
	<path class="st7" d="M50.3,54.3c0.5,0.5-1.7,2.6-3.8,3.1s-4.1,0.1-4.4-1.1c-0.3-1.1,1.2-2.5,3.3-3S49.2,53,50.3,54.3z"/>
	<path class="st7" d="M49.2,54.3c0,0-2.4-0.4-3.5,0c-1.1,0.4-2.6,1.6-2.7,1.6"/>
</g>
</svg>
