<?xml version="1.0" encoding="utf-8"?>
<!-- Generator: Adobe Illustrator 23.0.1, SVG Export Plug-In . SVG Version: 6.00 Build 0)  -->
<svg version="1.1" id="Layer_1" xmlns="http://www.w3.org/2000/svg" xmlns:xlink="http://www.w3.org/1999/xlink" x="0px" y="0px"
	 viewBox="0 0 64.2 52.5" style="enable-background:new 0 0 64.2 52.5;" xml:space="preserve">
<style type="text/css">
	.st0{fill-rule:evenodd;clip-rule:evenodd;fill:none;stroke:#00C1A3;stroke-width:0.75;stroke-miterlimit:10;}
	.st1{fill:#FFFFFF;stroke:#0066FF;stroke-width:0.75;stroke-linecap:round;stroke-linejoin:round;stroke-miterlimit:10;}
	.st2{fill:none;stroke:#0066FF;stroke-width:0.75;stroke-linecap:round;stroke-linejoin:round;stroke-miterlimit:10;}
	.st3{fill:#FFFFFF;stroke:#0066FF;stroke-width:0.75;stroke-miterlimit:10;}
	.st4{fill:none;stroke:#0066FF;stroke-width:0.75;stroke-miterlimit:10;}
	.st5{fill:none;stroke:#00C1A3;stroke-width:0.75;stroke-miterlimit:10;}
	.st6{fill:none;stroke:#FF25F3;stroke-width:0.75;stroke-miterlimit:10;}
	.st7{fill:none;stroke:#FF25F3;stroke-width:0.75;stroke-linecap:round;stroke-linejoin:round;stroke-miterlimit:10;}
	.st8{fill-rule:evenodd;clip-rule:evenodd;fill:none;stroke:#0066FF;stroke-width:0.75;stroke-miterlimit:10;}
	.st9{clip-path:url(#SVGID_2_);fill-rule:evenodd;clip-rule:evenodd;fill:#FFFFFF;}
	.st10{fill-rule:evenodd;clip-rule:evenodd;fill:#FCFDFF;}
	.st11{fill-rule:evenodd;clip-rule:evenodd;fill:#FFFFFF;}
	.st12{fill-rule:evenodd;clip-rule:evenodd;fill:#3D6A9D;}
	.st13{fill:#FFFFFF;}
	.st14{fill:#0066FF;}
	.st15{fill-rule:evenodd;clip-rule:evenodd;fill:#FFFFFF;stroke:#0066FF;stroke-width:0.75;stroke-miterlimit:10;}
	.st16{fill-rule:evenodd;clip-rule:evenodd;fill:#FFFFFF;stroke:#44E0A0;stroke-width:0.75;stroke-miterlimit:10;}
	.st17{fill-rule:evenodd;clip-rule:evenodd;fill:#FFFFFF;stroke:#FF25F3;stroke-width:0.75;stroke-miterlimit:10;}
	.st18{fill:none;stroke:#FFFFFF;stroke-width:2.8774;stroke-miterlimit:10;}
	
		.st19{fill-rule:evenodd;clip-rule:evenodd;fill:none;stroke:#FF25F3;stroke-width:0.75;stroke-linecap:round;stroke-linejoin:round;stroke-miterlimit:10;}
	.st20{fill-rule:evenodd;clip-rule:evenodd;fill:#FFFFFF;stroke:#FFFFFF;stroke-width:0.7194;stroke-miterlimit:10;}
	.st21{fill:none;stroke:#FFFFFF;stroke-width:0.7194;stroke-miterlimit:10;}
	.st22{fill:none;stroke:#44E0A0;stroke-width:0.75;stroke-linecap:round;stroke-linejoin:round;stroke-miterlimit:10;}
	.st23{fill-rule:evenodd;clip-rule:evenodd;fill:#FFFFFF;stroke:#00C1A3;stroke-width:0.75;stroke-miterlimit:10;}
	.st24{fill:none;stroke:#0066FF;stroke-width:0.75;stroke-linecap:round;stroke-miterlimit:10;}
	.st25{fill:#FFFFFF;stroke:#00C1A3;stroke-width:0.75;stroke-miterlimit:10;}
	.st26{clip-path:url(#SVGID_4_);}
	
		.st27{fill-rule:evenodd;clip-rule:evenodd;fill:none;stroke:#0066FF;stroke-width:0.75;stroke-linecap:round;stroke-miterlimit:10;}
	.st28{fill-rule:evenodd;clip-rule:evenodd;fill:none;stroke:#FF25F3;stroke-width:0.75;stroke-miterlimit:10;}
	.st29{fill:#FFFFFF;stroke:#FF25F3;stroke-width:0.75;stroke-miterlimit:10;}
	.st30{fill:#FFFFFF;stroke:#FF25F3;stroke-width:0.75;stroke-linecap:round;stroke-linejoin:round;stroke-miterlimit:10;}
	.st31{fill:none;stroke:#00FA9B;stroke-width:0.75;stroke-miterlimit:10;}
	.st32{fill:#87D73F;}
	.st33{fill:#3DED98;}
</style>
<path class="st5" d="M3.4,23.6c0,0,2.9-7.5,14.8-8.6c10.5-0.9,21.1-1.7,28.7,0.4c4.3,1.2,8.6,7.4,8.6,7.4s4.2,1,3.4,2.6
	c-0.8,1.6-3.3-0.6-3.3-0.6s-3.1,6.2-10,4.5S15,29.4,12.3,29.8C8.1,30.2,4.1,25,4.1,25S2.2,27.7,1,25.7C0.2,24.5,3.4,23.6,3.4,23.6z"
	/>
<path class="st4" d="M5.8,23.4c0,0,9.6-0.1,14.4-1.4c4.8-1.3,21.6,0,24.7,1.4c3.2,1.4,8.8,1.1,8.8,1.1"/>
<path class="st4" d="M4.1,37.8c0,0,2.8-7.5,14.6-8.6c10.5-0.9,21.3-1.8,28.9,0.4c4.3,1.2,8.6,7.4,8.6,7.4s4.2,1,3.4,2.6
	c-0.8,1.6-3.3-0.6-3.3-0.6s-3.1,6.2-10,4.5C39.5,41.8,15.7,43.6,13,44c-4.1,0.5-8.1-4.8-8.1-4.8s-1.9,2.7-3.2,0.7
	C0.9,38.7,4.1,37.8,4.1,37.8z"/>
<path class="st4" d="M6.5,37.6c0,0,9.6-0.1,14.4-1.4s21.6,0,24.7,1.4s8.8,1.1,8.8,1.1"/>
<path class="st3" d="M57,3.5c0,0-5.1-2.7-12.3-2.5c-5.9,0.2-8.5,1.7-9.9,2.6c-1.4-1.5-3-2.9-3.9-1.1c-1.4,2.7,0.6,2.5,2.1,2.5
	c-5.2,5.5-7.9,25.2-5.8,36.5c0.4,1.9,1.8,3.5,1.7,4.5c-1.9,0.2-2.3,1.9-1.4,2.8c1.4,1.5,3.4-1,3.4-1s8.3,5.5,17,3.2S57,48.9,59,48.5
	c1.7,1.2,2.7,2,3.8,0.4c0.8-1.2-1.9-1.9-1.9-1.9s2.1-3.8,2.4-9.7c0.9-15.2-3.4-26.1-5-31.7c0.4-0.8,3.5-1.4,2.1-2.8
	C58.9,1.3,57,3.5,57,3.5z"/>
<g>
	<g>
		<path class="st7" d="M44,31.8c1,1.3,1.3,2.8,0.6,3.4c-0.7,0.5-2.1-0.1-3.1-1.4c-1-1.3-0.6-3.4-0.6-3.4S42.9,30.5,44,31.8z"/>
		<path class="st7" d="M44,26.4c1,1.3,1.3,2.8,0.6,3.4c-0.7,0.5-2.1-0.1-3.1-1.4c-1-1.3-0.6-3.4-0.6-3.4S42.9,25.1,44,26.4z"/>
		<path class="st7" d="M44,21.1c1,1.3,1.3,2.8,0.6,3.4c-0.7,0.5-2.1-0.1-3.1-1.4c-1-1.3-0.6-3.4-0.6-3.4S42.9,19.7,44,21.1z"/>
		<path class="st7" d="M44,15.7c1,1.3,1.3,2.8,0.6,3.4c-0.7,0.5-2.1-0.1-3.1-1.4c-1-1.3-0.6-3.4-0.6-3.4S42.9,14.4,44,15.7z"/>
	</g>
	<g>
		<path class="st7" d="M47.1,31.6c-1,1.3-1.3,2.8-0.6,3.4c0.7,0.5,2.1-0.1,3.1-1.4c1-1.3,0.6-3.4,0.6-3.4S48.1,30.3,47.1,31.6z"/>
		<path class="st7" d="M47.1,26.3c-1,1.3-1.3,2.8-0.6,3.4c0.7,0.5,2.1-0.1,3.1-1.4c1-1.3,0.6-3.4,0.6-3.4S48.1,24.9,47.1,26.3z"/>
		<path class="st7" d="M47.1,20.9c-1,1.3-1.3,2.8-0.6,3.4c0.7,0.5,2.1-0.1,3.1-1.4c1-1.3,0.6-3.4,0.6-3.4S48.1,19.5,47.1,20.9z"/>
		<path class="st7" d="M47.1,15.5c-1,1.3-1.3,2.8-0.6,3.4c0.7,0.5,2.1-0.1,3.1-1.4c1-1.3,0.6-3.4,0.6-3.4S48.1,14.2,47.1,15.5z"/>
	</g>
	<line class="st7" x1="45.5" y1="36.1" x2="45.5" y2="42.3"/>
</g>
</svg>
