<svg id="Layer_1" data-name="Layer 1" xmlns="http://www.w3.org/2000/svg" xmlns:xlink="http://www.w3.org/1999/xlink" viewBox="0 0 900 350"><defs><clipPath id="clip-path"><polygon points="0 341.15 900 341.15 900 0 0 0 0 341.15 0 341.15" style="fill:none;clip-rule:evenodd"/></clipPath><clipPath id="clip-path-2"><polygon points="50.38 304.21 875.28 304.21 875.28 17.25 50.38 17.25 50.38 304.21 50.38 304.21" style="fill:none;clip-rule:evenodd"/></clipPath><clipPath id="clip-path-13"><rect width="900" height="341.15" style="fill:none"/></clipPath></defs><title>ground-truth-risk-report</title><polygon points="0 0.14 900 0.14 900 341.15 0 341.15 0 0.14 0 0.14" style="fill:#eaeaea;fill-rule:evenodd"/><polygon points="50.38 17.38 874.47 17.38 874.47 303.39 50.38 303.39 50.38 17.38 50.38 17.38" style="fill:#fff;fill-rule:evenodd"/><path d="M50.38,231.82H874.47M50.38,160.39H874.47M50.38,88.82H874.47M50.38,17.38H874.47" style="fill:none;stroke:#d9d9d9;stroke-linejoin:round;stroke-width:0.814848260057515px"/><g style="clip-path:url(#clip-path)"><path d="M50.38,17.38v286m274.74-286v286m274.74-286v286m274.61-286v286" style="fill:none;stroke:#d9d9d9;stroke-linejoin:round;stroke-width:0.814848260057515px"/></g><g style="clip-path:url(#clip-path-2)"><polygon points="134.99 60.3 240.65 60.3 240.65 303.39 134.99 303.39 134.99 60.3 134.99 60.3" style="fill:#5e9fff;fill-rule:evenodd"/><polygon points="134.99 60.3 240.65 60.3 240.65 303.39 134.99 303.39 134.99 60.3 134.99 60.3" style="fill:none;stroke:#7f7f7f;stroke-linejoin:round;stroke-width:0.814848260057515px"/><polygon points="409.6 58.13 515.26 58.13 515.26 303.39 409.6 303.39 409.6 58.13 409.6 58.13" style="fill:#5e9fff;fill-rule:evenodd"/><polygon points="409.6 58.13 515.26 58.13 515.26 303.39 409.6 303.39 409.6 58.13 409.6 58.13" style="fill:none;stroke:#7f7f7f;stroke-linejoin:round;stroke-width:0.814848260057515px"/><polygon points="684.34 56.63 790 56.63 790 303.39 684.34 303.39 684.34 56.63 684.34 56.63" style="fill:#5e9fff;fill-rule:evenodd"/><polygon points="684.34 56.63 790 56.63 790 303.39 684.34 303.39 684.34 56.63 684.34 56.63" style="fill:none;stroke:#7f7f7f;stroke-linejoin:round;stroke-width:0.814848260057515px"/></g><g style="clip-path:url(#clip-path)"><line x1="50.38" y1="303.4" x2="874.47" y2="303.4" style="fill:none;stroke:#d9d9d9;stroke-linejoin:round;stroke-width:0.814848260057515px"/></g><g style="clip-path:url(#clip-path)"><path d="M50.38,303.4v3.12m274.74-3.12v3.12m274.74-3.12v3.12m274.61-3.12v3.12" style="fill:none;stroke:#d9d9d9;stroke-linejoin:round;stroke-width:0.814848260057515px"/></g><g style="clip-path:url(#clip-path-2)"><polyline points="187.82 41.01 462.43 41.01 737.17 41.01" style="fill:none;stroke:#06f;stroke-miterlimit:10;stroke-width:1.358px;stroke-dasharray:5,5"/></g><g style="clip-path:url(#clip-path)"><path d="M190.69,41a2.86,2.86,0,1,1-2.85-2.85A2.86,2.86,0,0,1,190.69,41Z" style="fill:#06f"/><path d="M190.69,41a2.86,2.86,0,1,1-2.85-2.85A2.86,2.86,0,0,1,190.69,41Z" style="fill:none;stroke:#2935e8;stroke-linejoin:round;stroke-width:0.814848327514103px"/><path d="M465.29,41a2.85,2.85,0,1,1-2.85-2.85A2.86,2.86,0,0,1,465.29,41Z" style="fill:#06f"/><path d="M465.29,41a2.85,2.85,0,1,1-2.85-2.85A2.86,2.86,0,0,1,465.29,41Z" style="fill:none;stroke:#2935e8;stroke-linejoin:round;stroke-width:0.814848327514103px"/><path d="M740,41a2.85,2.85,0,1,1-2.85-2.85A2.86,2.86,0,0,1,740,41Z" style="fill:#06f"/><path d="M740,41a2.85,2.85,0,1,1-2.85-2.85A2.86,2.86,0,0,1,740,41Z" style="fill:none;stroke:#2935e8;stroke-linejoin:round;stroke-width:0.814848327514103px"/></g><g style="clip-path:url(#clip-path-2)"><polyline points="187.82 77.28 462.43 77.28 737.17 77.28" style="fill:none;stroke:#ff25f3;stroke-miterlimit:10;stroke-width:1.358px;stroke-dasharray:5,5"/></g><g style="clip-path:url(#clip-path)"><path d="M190.69,77.25a2.86,2.86,0,1,1-2.85-2.85,2.86,2.86,0,0,1,2.85,2.85Z" style="fill:#ff25f3"/><path d="M190.69,77.25a2.86,2.86,0,1,1-2.85-2.85,2.86,2.86,0,0,1,2.85,2.85Z" style="fill:none;stroke:#d9d9d9;stroke-linejoin:round;stroke-width:0.814848327514103px"/><path d="M465.29,77.25a2.85,2.85,0,1,1-2.85-2.85,2.86,2.86,0,0,1,2.85,2.85Z" style="fill:#ff25f3"/><path d="M465.29,77.25a2.85,2.85,0,1,1-2.85-2.85,2.86,2.86,0,0,1,2.85,2.85Z" style="fill:none;stroke:#d9d9d9;stroke-linejoin:round;stroke-width:0.814848327514103px"/><path d="M740,77.25a2.85,2.85,0,1,1-2.85-2.85A2.86,2.86,0,0,1,740,77.25Z" style="fill:#ff25f3"/><path d="M740,77.25a2.85,2.85,0,1,1-2.85-2.85A2.86,2.86,0,0,1,740,77.25Z" style="fill:none;stroke:#d9d9d9;stroke-linejoin:round;stroke-width:0.814848327514103px"/></g><g style="clip-path:url(#clip-path-2)"><polyline points="187.82 53.1 462.43 53.1 737.17 53.1" style="fill:none;stroke:#7f7f7f;stroke-linecap:round;stroke-linejoin:round;stroke-width:1.35808041094366px"/></g><g style="clip-path:url(#clip-path)"><path d="M190.69,53.07a2.86,2.86,0,1,1-2.85-2.85,2.86,2.86,0,0,1,2.85,2.85Z" style="fill:#7f7f7f"/><path d="M190.69,53.07a2.86,2.86,0,1,1-2.85-2.85,2.86,2.86,0,0,1,2.85,2.85Z" style="fill:none;stroke:#7f7f7f;stroke-linejoin:round;stroke-width:0.814848327514103px"/><path d="M465.29,53.07a2.85,2.85,0,1,1-2.85-2.85,2.86,2.86,0,0,1,2.85,2.85Z" style="fill:#7f7f7f"/><path d="M465.29,53.07a2.85,2.85,0,1,1-2.85-2.85,2.86,2.86,0,0,1,2.85,2.85Z" style="fill:none;stroke:#7f7f7f;stroke-linejoin:round;stroke-width:0.814848327514103px"/><path d="M740,53.07a2.85,2.85,0,1,1-2.85-2.85A2.86,2.86,0,0,1,740,53.07Z" style="fill:#7f7f7f"/><path d="M740,53.07a2.85,2.85,0,1,1-2.85-2.85A2.86,2.86,0,0,1,740,53.07Z" style="fill:none;stroke:#7f7f7f;stroke-linejoin:round;stroke-width:0.814848327514103px"/></g><g style="clip-path:url(#clip-path-2)"><polyline points="187.82 60.3 462.43 60.3 737.17 60.3" style="fill:none;stroke:#00c1a3;stroke-linecap:round;stroke-linejoin:round;stroke-width:1.35808041094366px"/></g><g style="clip-path:url(#clip-path)"><path d="M190.69,60.27a2.86,2.86,0,1,1-2.85-2.85,2.85,2.85,0,0,1,2.85,2.85Z" style="fill:#00c1a3"/><path d="M190.69,60.27a2.86,2.86,0,1,1-2.85-2.85,2.85,2.85,0,0,1,2.85,2.85Z" style="fill:none;stroke:#d9d9d9;stroke-linejoin:round;stroke-width:0.814848327514103px"/><path d="M465.29,60.27a2.85,2.85,0,1,1-2.85-2.85,2.85,2.85,0,0,1,2.85,2.85Z" style="fill:#00c1a3"/><path d="M465.29,60.27a2.85,2.85,0,1,1-2.85-2.85,2.85,2.85,0,0,1,2.85,2.85Z" style="fill:none;stroke:#d9d9d9;stroke-linejoin:round;stroke-width:0.814848327514103px"/><path d="M740,60.27a2.85,2.85,0,1,1-2.85-2.85A2.85,2.85,0,0,1,740,60.27Z" style="fill:#00c1a3"/><path d="M740,60.27a2.85,2.85,0,1,1-2.85-2.85A2.85,2.85,0,0,1,740,60.27Z" style="fill:none;stroke:#d9d9d9;stroke-linejoin:round;stroke-width:0.814848327514103px"/></g><g style="clip-path:url(#clip-path-13)"><text transform="translate(21.85 306.64)" style="font-size:10.185600280761719px;font-family:ArialMT, Arial"><tspan style="letter-spacing:0.0029721800056477414em">4</tspan><tspan x="5.7" y="0" style="letter-spacing:0.002013412261890405em">.</tspan><tspan x="8.55" y="0" style="letter-spacing:-0.00910829356569469em">5</tspan><tspan x="14.12" y="0">0</tspan></text></g><g style="clip-path:url(#clip-path-13)"><text transform="translate(21.85 235.12)" style="font-size:10.185600280761719px;font-family:ArialMT, Arial"><tspan style="letter-spacing:0.0029721800056477414em">5</tspan><tspan x="5.7" y="0" style="letter-spacing:0.002013412261890405em">.</tspan><tspan x="8.55" y="0" style="letter-spacing:-0.00910829356569469em">5</tspan><tspan x="14.12" y="0">0</tspan></text></g><g style="clip-path:url(#clip-path-13)"><text transform="translate(21.85 163.61)" style="font-size:10.185600280761719px;font-family:ArialMT, Arial"><tspan style="letter-spacing:0.0029721800056477414em">6</tspan><tspan x="5.7" y="0" style="letter-spacing:0.002013412261890405em">.</tspan><tspan x="8.55" y="0" style="letter-spacing:-0.00910829356569469em">5</tspan><tspan x="14.12" y="0">0</tspan></text></g><g style="clip-path:url(#clip-path-13)"><text transform="translate(21.85 92.1)" style="font-size:10.185600280761719px;font-family:ArialMT, Arial"><tspan style="letter-spacing:0.0029721800056477414em">7</tspan><tspan x="5.7" y="0" style="letter-spacing:0.002013412261890405em">.</tspan><tspan x="8.55" y="0" style="letter-spacing:-0.00910829356569469em">5</tspan><tspan x="14.12" y="0">0</tspan></text></g><g style="clip-path:url(#clip-path-13)"><text transform="translate(21.85 20.58)" style="font-size:10.185600280761719px;font-family:ArialMT, Arial"><tspan style="letter-spacing:0.0029721800056477414em">8</tspan><tspan x="5.7" y="0" style="letter-spacing:0.002013412261890405em">.</tspan><tspan x="8.55" y="0" style="letter-spacing:-0.00910829356569469em">5</tspan><tspan x="14.12" y="0">0</tspan></text></g><g style="clip-path:url(#clip-path-13)"><text transform="translate(176.72 318.77)" style="font-size:10.185600280761719px;font-family:ArialMT, Arial">Oct</text></g><g style="clip-path:url(#clip-path-13)"><text transform="translate(450.42 318.77)" style="font-size:10.185600280761719px;font-family:ArialMT, Arial">Nov</text></g><g style="clip-path:url(#clip-path-13)"><text transform="translate(728.1 318.77)" style="font-size:10.185600280761719px;font-family:ArialMT, Arial">Dec</text></g><g style="clip-path:url(#clip-path-13)"><text transform="translate(14.42 205) rotate(-90)" style="font-size:11.272069931030273px;font-family:Arial-BoldMT, Arial;font-weight:700"><tspan style="letter-spacing:0.005024864585347991em">Q</tspan><tspan x="8.82" y="0" style="letter-spacing:0.002945610274169512em">u</tspan><tspan x="15.74" y="0" style="letter-spacing:-0.0009529915592901364em">a</tspan><tspan x="22" y="0" style="letter-spacing:0.002945610274169512em">n</tspan><tspan x="28.92" y="0" style="letter-spacing:0.003985237429758752em">t</tspan><tspan x="32.72" y="0">i</tspan><tspan x="35.85" y="0" style="letter-spacing:0.003985237429758752em">t</tspan><tspan x="39.65" y="0" style="letter-spacing:-0.012908703848566393em">y</tspan><tspan x="45.77" y="0" style="letter-spacing:0.010916085133687017em"> </tspan><tspan x="49.03" y="0" style="letter-spacing:0.003985237429758752em">(</tspan><tspan x="52.83" y="0" style="letter-spacing:0.022005441459972238em">M</tspan><tspan x="62.46" y="0" style="letter-spacing:0.014987958159744871em">T</tspan><tspan x="69.52" y="0">)</tspan></text></g><g style="clip-path:url(#clip-path-13)"><text transform="translate(422.7 336)" style="font-size:11.272069931030273px;font-family:Arial-BoldMT, Arial;font-weight:700"><tspan style="letter-spacing:0.014987958159744871em">T</tspan><tspan x="7.05" y="0">i</tspan><tspan x="10.19" y="0" style="letter-spacing:0.001992618714879376em">m</tspan><tspan x="20.23" y="0" style="letter-spacing:-0.0009529915592901364em">e</tspan><tspan x="26.49" y="0"> </tspan><tspan x="29.62" y="0" style="letter-spacing:-0.004071873026057856em">P</tspan><tspan x="37.09" y="0" style="letter-spacing:-0.0009529915592901364em">e</tspan><tspan x="43.35" y="0" style="letter-spacing:-0.002945610274169512em">r</tspan><tspan x="47.71" y="0" style="letter-spacing:-0.0000866355962991033em">i</tspan><tspan x="50.84" y="0" style="letter-spacing:0.003032245870468616em">o</tspan><tspan x="57.76" y="0" style="letter-spacing:-0.0000866355962991033em">d</tspan></text></g><polygon points="0 0.14 900 0.14 900 341.15 0 341.15 0 0.14 0 0.14" style="fill:none;stroke:#d9d9d9;stroke-linejoin:round;stroke-width:0.814848327514103px"/></svg>