<svg id="Layer_1" data-name="Layer 1" xmlns="http://www.w3.org/2000/svg" xmlns:xlink="http://www.w3.org/1999/xlink" viewBox="0 0 900 350"><defs><clipPath id="clip-path"><polygon points="0 342.61 900 342.61 900 0 0 0 0 342.61 0 342.61" style="fill:none;clip-rule:evenodd"/></clipPath><clipPath id="clip-path-6"><polygon points="49.9 289.15 888.79 289.15 888.79 14.77 49.9 14.77 49.9 289.15 49.9 289.15" style="fill:none;clip-rule:evenodd"/></clipPath><clipPath id="clip-path-10"><rect width="900" height="342.61" style="fill:none"/></clipPath></defs><title>ndvi-risk-report</title><polygon points="0.14 0.14 900 0.14 900 342.61 0.14 342.61 0.14 0.14 0.14 0.14" style="fill:#eaeaea;fill-rule:evenodd"/><polygon points="50.04 14.77 887.97 14.77 887.97 288.33 50.04 288.33 50.04 14.77 50.04 14.77" style="fill:#fff;fill-rule:evenodd"/><path d="M50,220H888M50,151.62H888M50,83.26H888M50,14.77H888" style="fill:none;stroke:#d9d9d9;stroke-linejoin:round;stroke-width:0.820294640337453px"/><g style="clip-path:url(#clip-path)"><path d="M84.9,14.77V288.33M154.76,14.77V288.33M224.62,14.77V288.33M294.35,14.77V288.33M364.21,14.77V288.33M434.07,14.77V288.33M503.93,14.77V288.33M573.8,14.77V288.33M643.52,14.77V288.33M713.38,14.77V288.33M783.24,14.77V288.33M853.11,14.77V288.33" style="fill:none;stroke:#f2f2f2;stroke-linejoin:round;stroke-width:0.820294640337453px"/></g><g style="clip-path:url(#clip-path)"><path d="M50,14.77V288.33M119.76,14.77V288.33M189.62,14.77V288.33M259.49,14.77V288.33M329.35,14.77V288.33M399.21,14.77V288.33M468.94,14.77V288.33M538.8,14.77V288.33M608.66,14.77V288.33M678.52,14.77V288.33M748.38,14.77V288.33M818.11,14.77V288.33M888,14.77V288.33" style="fill:none;stroke:#d9d9d9;stroke-linejoin:round;stroke-width:0.820294640337453px"/></g><g style="clip-path:url(#clip-path)"><line x1="50.04" y1="288.33" x2="887.97" y2="288.33" style="fill:none;stroke:#d9d9d9;stroke-linejoin:round;stroke-width:1.36715771125993px"/></g><g style="clip-path:url(#clip-path)"><path d="M50,288.33v18.6m279.31-18.6v18.6m279.31-18.6v18.6M888,288.33v18.6" style="fill:none;stroke:#d9d9d9;stroke-linejoin:round;stroke-width:1.36715771125993px"/></g><g style="clip-path:url(#clip-path)"><path d="M50,306.93v18.45m279.31-18.45v18.45m279.31-18.45v18.45M888,306.93v18.45" style="fill:none;stroke:#d9d9d9;stroke-linejoin:round;stroke-width:1.36715771125993px"/></g><g style="clip-path:url(#clip-path-6)"><polyline points="84.9 165.29 154.76 129.74 224.62 96.93 294.35 80.53 364.21 69.59 434.07 64.12 503.93 75.06 573.8 96.93 643.52 124.28 713.38 137.95 783.25 151.62 853.11 168.02" style="fill:none;stroke:#ff25f3;stroke-linecap:round;stroke-linejoin:round;stroke-width:2.4608838531049px"/></g><g style="clip-path:url(#clip-path)"><polygon points="82 162.42 87.74 162.42 87.74 168.16 82 168.16 82 162.42 82 162.42" style="fill:#ff25f3;fill-rule:evenodd"/><polygon points="151.86 126.87 157.6 126.87 157.6 132.61 151.86 132.61 151.86 126.87 151.86 126.87" style="fill:#ff25f3;fill-rule:evenodd"/><polygon points="221.72 94.06 227.47 94.06 227.47 99.8 221.72 99.8 221.72 94.06 221.72 94.06" style="fill:#ff25f3;fill-rule:evenodd"/><polygon points="291.45 77.65 297.19 77.65 297.19 83.39 291.45 83.39 291.45 77.65 291.45 77.65" style="fill:#ff25f3;fill-rule:evenodd"/><polygon points="361.31 66.72 367.05 66.72 367.05 72.46 361.31 72.46 361.31 66.72 361.31 66.72" style="fill:#ff25f3;fill-rule:evenodd"/><polygon points="431.17 61.25 436.91 61.25 436.91 66.99 431.17 66.99 431.17 61.25 431.17 61.25" style="fill:#ff25f3;fill-rule:evenodd"/><polygon points="501.03 72.18 506.77 72.18 506.77 77.93 501.03 77.93 501.03 72.18 501.03 72.18" style="fill:#ff25f3;fill-rule:evenodd"/><polygon points="570.89 94.06 576.64 94.06 576.64 99.8 570.89 99.8 570.89 94.06 570.89 94.06" style="fill:#ff25f3;fill-rule:evenodd"/><polygon points="640.62 121.4 646.36 121.4 646.36 127.14 640.62 127.14 640.62 121.4 640.62 121.4" style="fill:#ff25f3;fill-rule:evenodd"/><polygon points="710.48 135.07 716.22 135.07 716.22 140.81 710.48 140.81 710.48 135.07 710.48 135.07" style="fill:#ff25f3;fill-rule:evenodd"/><polygon points="780.34 148.74 786.09 148.74 786.09 154.49 780.34 154.49 780.34 148.74 780.34 148.74" style="fill:#ff25f3;fill-rule:evenodd"/><polygon points="850.21 165.15 855.95 165.15 855.95 170.89 850.21 170.89 850.21 165.15 850.21 165.15" style="fill:#ff25f3;fill-rule:evenodd"/></g><g style="clip-path:url(#clip-path-6)"><polyline points="84.9 178.96 154.76 146.15 224.62 113.34 294.35 96.93 364.21 85.99 434.07 75.06 503.93 85.99 573.8 96.93 643.52 129.74 713.38 146.15 783.25 159.82 853.11 178.96" style="fill:none;stroke:#06f;stroke-linecap:round;stroke-linejoin:round;stroke-width:2.4608838531049px"/></g><g style="clip-path:url(#clip-path)"><path d="M87.74,179a2.87,2.87,0,1,1-2.87-2.87A2.87,2.87,0,0,1,87.74,179Z" style="fill:#06f"/><path d="M87.74,179a2.87,2.87,0,1,1-2.87-2.87A2.87,2.87,0,0,1,87.74,179Z" style="fill:none;stroke:#06f;stroke-linejoin:round;stroke-width:0.820294708244915px"/><path d="M157.6,146.15a2.87,2.87,0,1,1-2.87-2.87,2.87,2.87,0,0,1,2.87,2.87Z" style="fill:#06f"/><path d="M157.6,146.15a2.87,2.87,0,1,1-2.87-2.87,2.87,2.87,0,0,1,2.87,2.87Z" style="fill:none;stroke:#06f;stroke-linejoin:round;stroke-width:0.820294708244915px"/><path d="M227.46,113.33a2.87,2.87,0,1,1-2.87-2.87,2.87,2.87,0,0,1,2.87,2.87Z" style="fill:#06f"/><path d="M227.46,113.33a2.87,2.87,0,1,1-2.87-2.87,2.87,2.87,0,0,1,2.87,2.87Z" style="fill:none;stroke:#06f;stroke-linejoin:round;stroke-width:0.820294708244915px"/><path d="M297.19,96.93a2.87,2.87,0,1,1-2.87-2.87,2.88,2.88,0,0,1,2.87,2.87Z" style="fill:#06f"/><path d="M297.19,96.93a2.87,2.87,0,1,1-2.87-2.87,2.88,2.88,0,0,1,2.87,2.87Z" style="fill:none;stroke:#06f;stroke-linejoin:round;stroke-width:0.820294708244915px"/><path d="M367.05,86a2.87,2.87,0,1,1-2.87-2.87A2.86,2.86,0,0,1,367.05,86Z" style="fill:#06f"/><path d="M367.05,86a2.87,2.87,0,1,1-2.87-2.87A2.86,2.86,0,0,1,367.05,86Z" style="fill:none;stroke:#06f;stroke-linejoin:round;stroke-width:0.820294708244915px"/><path d="M436.91,75.05A2.87,2.87,0,1,1,434,72.18a2.87,2.87,0,0,1,2.87,2.87Z" style="fill:#06f"/><path d="M436.91,75.05A2.87,2.87,0,1,1,434,72.18a2.87,2.87,0,0,1,2.87,2.87Z" style="fill:none;stroke:#06f;stroke-linejoin:round;stroke-width:0.820294708244915px"/><path d="M506.77,86a2.87,2.87,0,1,1-2.87-2.87A2.86,2.86,0,0,1,506.77,86Z" style="fill:#06f"/><path d="M506.77,86a2.87,2.87,0,1,1-2.87-2.87A2.86,2.86,0,0,1,506.77,86Z" style="fill:none;stroke:#06f;stroke-linejoin:round;stroke-width:0.820294708244915px"/><path d="M576.64,96.93a2.88,2.88,0,1,1-2.87-2.87,2.88,2.88,0,0,1,2.87,2.87Z" style="fill:#06f"/><path d="M576.64,96.93a2.88,2.88,0,1,1-2.87-2.87,2.88,2.88,0,0,1,2.87,2.87Z" style="fill:none;stroke:#06f;stroke-linejoin:round;stroke-width:0.820294708244915px"/><path d="M646.36,129.74a2.87,2.87,0,1,1-2.87-2.87,2.86,2.86,0,0,1,2.87,2.87Z" style="fill:#06f"/><path d="M646.36,129.74a2.87,2.87,0,1,1-2.87-2.87,2.86,2.86,0,0,1,2.87,2.87Z" style="fill:none;stroke:#06f;stroke-linejoin:round;stroke-width:0.820294708244915px"/><path d="M716.22,146.15a2.87,2.87,0,1,1-2.87-2.87,2.87,2.87,0,0,1,2.87,2.87Z" style="fill:#06f"/><path d="M716.22,146.15a2.87,2.87,0,1,1-2.87-2.87,2.87,2.87,0,0,1,2.87,2.87Z" style="fill:none;stroke:#06f;stroke-linejoin:round;stroke-width:0.820294708244915px"/><path d="M786.09,159.82a2.88,2.88,0,1,1-2.88-2.87,2.88,2.88,0,0,1,2.88,2.87Z" style="fill:#06f"/><path d="M786.09,159.82a2.88,2.88,0,1,1-2.88-2.87,2.88,2.88,0,0,1,2.88,2.87Z" style="fill:none;stroke:#06f;stroke-linejoin:round;stroke-width:0.820294708244915px"/><path d="M856,179a2.88,2.88,0,1,1-2.87-2.87A2.88,2.88,0,0,1,856,179Z" style="fill:#06f"/><path d="M856,179a2.88,2.88,0,1,1-2.87-2.87A2.88,2.88,0,0,1,856,179Z" style="fill:none;stroke:#06f;stroke-linejoin:round;stroke-width:0.820294708244915px"/></g><g style="clip-path:url(#clip-path-10)"><text transform="translate(21.2 291.65)" style="font-size:10.253680229187012px;font-family:ArialMT, Arial;letter-spacing:0.0030476862259705686em">0<tspan x="5.73" y="0" style="letter-spacing:0.002000044085793186em">.</tspan><tspan x="8.6" y="0" style="letter-spacing:-0.008952578288788546em">0</tspan><tspan x="14.21" y="0" style="letter-spacing:0.00009524019456158027em">0</tspan></text></g><g style="clip-path:url(#clip-path-10)"><text transform="translate(21.2 223.27)" style="font-size:10.253680229187012px;font-family:ArialMT, Arial;letter-spacing:0.0030476862259705686em">0<tspan x="5.73" y="0" style="letter-spacing:0.002000044085793186em">.</tspan><tspan x="8.6" y="0" style="letter-spacing:-0.008952578288788546em">2</tspan><tspan x="14.21" y="0" style="letter-spacing:0.00009524019456158027em">5</tspan></text></g><g style="clip-path:url(#clip-path-10)"><text transform="translate(21.2 154.88)" style="font-size:10.253680229187012px;font-family:ArialMT, Arial;letter-spacing:0.0030476862259705686em">0<tspan x="5.73" y="0" style="letter-spacing:0.002000044085793186em">.</tspan><tspan x="8.6" y="0" style="letter-spacing:-0.008952578288788546em">5</tspan><tspan x="14.21" y="0" style="letter-spacing:0.00009524019456158027em">0</tspan></text></g><g style="clip-path:url(#clip-path-10)"><text transform="translate(21.2 86.48)" style="font-size:10.253680229187012px;font-family:ArialMT, Arial;letter-spacing:0.0030476862259705686em">0<tspan x="5.73" y="0" style="letter-spacing:0.002000044085793186em">.</tspan><tspan x="8.6" y="0" style="letter-spacing:-0.008952578288788546em">7</tspan><tspan x="14.21" y="0" style="letter-spacing:0.00009524019456158027em">5</tspan></text></g><g style="clip-path:url(#clip-path-10)"><text transform="translate(21.2 18.1)" style="font-size:10.253680229187012px;font-family:ArialMT, Arial;letter-spacing:0.0030476862259705686em">1<tspan x="5.73" y="0" style="letter-spacing:0.002000044085793186em">.</tspan><tspan x="8.6" y="0" style="letter-spacing:-0.008952578288788546em">0</tspan><tspan x="14.21" y="0" style="letter-spacing:0.00009524019456158027em">0</tspan></text></g><g style="clip-path:url(#clip-path-10)"><text transform="translate(82.04 303.88)" style="font-size:10.253680229187012px;font-family:ArialMT, Arial">1</text></g><g style="clip-path:url(#clip-path-10)"><text transform="translate(151.88 303.88)" style="font-size:10.253680229187012px;font-family:ArialMT, Arial">2</text></g><g style="clip-path:url(#clip-path-10)"><text transform="translate(221.71 303.88)" style="font-size:10.253680229187012px;font-family:ArialMT, Arial">3</text></g><g style="clip-path:url(#clip-path-10)"><text transform="translate(291.55 303.88)" style="font-size:10.253680229187012px;font-family:ArialMT, Arial">4</text></g><g style="clip-path:url(#clip-path-10)"><text transform="translate(361.39 303.88)" style="font-size:10.253680229187012px;font-family:ArialMT, Arial">1</text></g><g style="clip-path:url(#clip-path-10)"><text transform="translate(431.22 303.88)" style="font-size:10.253680229187012px;font-family:ArialMT, Arial">2</text></g><g style="clip-path:url(#clip-path-10)"><text transform="translate(501.06 303.88)" style="font-size:10.253680229187012px;font-family:ArialMT, Arial">3</text></g><g style="clip-path:url(#clip-path-10)"><text transform="translate(570.89 303.88)" style="font-size:10.253680229187012px;font-family:ArialMT, Arial">4</text></g><g style="clip-path:url(#clip-path-10)"><text transform="translate(640.73 303.88)" style="font-size:10.253680229187012px;font-family:ArialMT, Arial">1</text></g><g style="clip-path:url(#clip-path-10)"><text transform="translate(710.56 303.88)" style="font-size:10.253680229187012px;font-family:ArialMT, Arial">2</text></g><g style="clip-path:url(#clip-path-10)"><text transform="translate(780.41 303.88)" style="font-size:10.253680229187012px;font-family:ArialMT, Arial">3</text></g><g style="clip-path:url(#clip-path-10)"><text transform="translate(850.24 303.88)" style="font-size:10.253680229187012px;font-family:ArialMT, Arial">4</text></g><g style="clip-path:url(#clip-path-10)"><text transform="translate(181.67 322.36)" style="font-size:10.253680229187012px;font-family:ArialMT, Arial"><tspan style="letter-spacing:-0.004000088171586372em">O</tspan><tspan x="7.93" y="0" style="letter-spacing:0.006000132257379557em">c</tspan><tspan x="13.12" y="0">t</tspan></text></g><g style="clip-path:url(#clip-path-10)"><text transform="translate(459.87 322.36)" style="font-size:10.253680229187012px;font-family:ArialMT, Arial;letter-spacing:-0.002000044085793186em">N<tspan x="7.38" y="0" style="letter-spacing:0.0030476862259705686em">o</tspan><tspan x="13.12" y="0" style="letter-spacing:-0.00009524019456158027em">v</tspan></text></g><g style="clip-path:url(#clip-path-10)"><text transform="translate(739.22 322.36)" style="font-size:10.253680229187012px;font-family:ArialMT, Arial;letter-spacing:-0.002000044085793186em">D<tspan x="7.38" y="0" style="letter-spacing:0.0030476862259705686em">e</tspan><tspan x="13.12" y="0" style="letter-spacing:-0.00009524019456158027em">c</tspan></text></g><g style="clip-path:url(#clip-path-10)"><text transform="translate(13.09 205.85) rotate(-90)" style="font-size:11.347410202026367px;font-family:Arial-BoldMT, Arial;font-weight:700">ND<tspan x="16.39" y="0" style="letter-spacing:-0.00395877774754085em">V</tspan><tspan x="23.91" y="0">I</tspan><tspan x="27.07" y="0" style="letter-spacing:0.011015729384461494em"> </tspan><tspan x="30.34" y="0"> </tspan><tspan x="33.5" y="0" style="letter-spacing:-0.00395877774754085em">V</tspan><tspan x="41.02" y="0" style="letter-spacing:-0.0009466642439771597em">a</tspan><tspan x="47.32" y="0">l</tspan><tspan x="50.47" y="0" style="letter-spacing:0.00301211350356369em">u</tspan><tspan x="57.44" y="0">e</tspan></text></g><g style="clip-path:url(#clip-path-10)"><text transform="translate(432.74 336.66)" style="font-size:11.347410202026367px;font-family:Arial-BoldMT, Arial;font-weight:700"><tspan style="letter-spacing:0.007056951636920645em">W</tspan><tspan x="10.79" y="0" style="letter-spacing:-0.0010327246297932651em">ee</tspan><tspan x="23.39" y="0">k</tspan></text></g><polygon points="0.14 0.14 900 0.14 900 342.61 0.14 342.61 0.14 0.14 0.14 0.14" style="fill:none;stroke:#d9d9d9;stroke-linejoin:round;stroke-width:0.820294708244915px"/></svg>