<svg id="Layer_1" data-name="Layer 1" xmlns="http://www.w3.org/2000/svg" xmlns:xlink="http://www.w3.org/1999/xlink" viewBox="0 0 900 350"><defs><clipPath id="clip-path"><polygon points="0 344.44 899.86 344.44 899.86 0 0 0 0 344.44 0 344.44" style="fill:none;clip-rule:evenodd"/></clipPath><clipPath id="clip-path-3"><polygon points="71.24 304.1 886.74 304.1 886.74 25.3 71.24 25.3 71.24 304.1 71.24 304.1" style="fill:none;clip-rule:evenodd"/></clipPath><clipPath id="clip-path-7"><rect width="899.86" height="344.44" style="fill:none"/></clipPath></defs><title>price-volatility</title><polygon points="0.14 0 900 0 900 344.44 0.14 344.44 0.14 0 0.14 0" style="fill:#eaeaea;fill-rule:evenodd"/><polygon points="71.38 25.43 885.92 25.43 885.92 303.42 71.38 303.42 71.38 25.43 71.38 25.43" style="fill:#fff;fill-rule:evenodd"/><path d="M71.38,247.77H885.92M71.38,192.11H885.92M71.38,136.6H885.92M71.38,81H885.92M71.38,25.43H885.92" style="fill:none;stroke:#d9d9d9;stroke-linejoin:round;stroke-width:0.820419262220554px"/><g style="clip-path:url(#clip-path)"><path d="M71.38,25.43v278m67.82-278v278m68-278v278M275,25.43v278m68-278v278m67.82-278v278m67.82-278v278m68-278v278m67.82-278v278m68-278v278m67.82-278v278m68-278v278m67.83-278v278" style="fill:none;stroke:#d9d9d9;stroke-linejoin:round;stroke-width:0.820419262220554px"/></g><g style="clip-path:url(#clip-path)"><line x1="71.38" y1="303.42" x2="885.92" y2="303.42" style="fill:none;stroke:#d9d9d9;stroke-linejoin:round;stroke-width:0.820419262220554px"/></g><g style="clip-path:url(#clip-path-3)"><polyline points="105.29 296.17 173.11 294.8 241.07 283.73 308.89 278.81 376.85 274.84 444.67 265.27 512.63 262.81 580.45 241.07 648.4 192.39 716.23 195.81 784.18 115.41 852 51.82" style="fill:none;stroke:#2935e8;stroke-linecap:round;stroke-linejoin:round;stroke-width:2.46125771874388px"/></g><g style="clip-path:url(#clip-path-3)"><polyline points="105.29 287.42 173.11 289.33 241.07 288.1 308.89 288.51 376.85 286.33 444.67 283.18 512.63 277.99 580.45 270.06 648.4 243.66 716.23 228.08 784.18 200.32 852 162.58" style="fill:none;stroke:#6b77e8;stroke-linecap:round;stroke-linejoin:round;stroke-width:2.46125771874388px"/></g><g style="clip-path:url(#clip-path-3)"><polyline points="105.29 272.52 173.11 274.16 241.07 275.52 308.89 267.46 376.85 273.88 444.67 271.83 512.63 259.39 580.45 238.33 648.4 201.41 716.23 182 784.18 170.24 852 182.95" style="fill:none;stroke:#ff25f3;stroke-linecap:round;stroke-linejoin:round;stroke-width:2.46125771874388px"/></g><g style="clip-path:url(#clip-path-3)"><polyline points="105.29 283.73 173.11 287.56 241.07 283.18 308.89 280.17 376.85 275.11 444.67 265.27 512.63 260.48 580.45 245.44 648.4 231.63 716.23 222.2 784.18 193.35 852 205.79" style="fill:none;stroke:#00c1a3;stroke-linecap:round;stroke-linejoin:round;stroke-width:2.46125771874388px"/></g><g style="clip-path:url(#clip-path-7)"><text transform="translate(31.15 306.65)" style="font-size:10.255240440368652px;font-family:ArialMT, Arial;letter-spacing:0.00199973980320083em"> <tspan x="2.87" y="0" style="letter-spacing:0.002951996852344082em">1</tspan><tspan x="8.6" y="0" style="letter-spacing:-0.010950956065147401em">,</tspan><tspan x="11.34" y="0" style="letter-spacing:0.002951996852344082em">00</tspan><tspan x="22.81" y="0" style="letter-spacing:0.00009522570491432523em">0</tspan></text></g><g style="clip-path:url(#clip-path-7)"><text transform="translate(25.46 251.04)" style="font-size:10.255240440368652px;font-family:ArialMT, Arial"><tspan style="letter-spacing:0.00199973980320083em"> </tspan><tspan x="2.87" y="0" style="letter-spacing:0.002951996852344082em">1</tspan><tspan x="8.6" y="0" style="letter-spacing:-0.008951216261946572em">6</tspan><tspan x="14.21" y="0" style="letter-spacing:0.00199973980320083em">,</tspan><tspan x="17.08" y="0" style="letter-spacing:0.0030472225572584074em">00</tspan><tspan x="28.55" y="0">0</tspan></text></g><g style="clip-path:url(#clip-path-7)"><text transform="translate(25.46 195.45)" style="font-size:10.255240440368652px;font-family:ArialMT, Arial"><tspan style="letter-spacing:0.00199973980320083em"> </tspan><tspan x="2.87" y="0" style="letter-spacing:0.002951996852344082em">3</tspan><tspan x="8.6" y="0" style="letter-spacing:-0.008951216261946572em">1</tspan><tspan x="14.21" y="0" style="letter-spacing:0.00199973980320083em">,</tspan><tspan x="17.08" y="0" style="letter-spacing:0.0030472225572584074em">00</tspan><tspan x="28.55" y="0">0</tspan></text></g><g style="clip-path:url(#clip-path-7)"><text transform="translate(25.46 139.84)" style="font-size:10.255240440368652px;font-family:ArialMT, Arial"><tspan style="letter-spacing:0.00199973980320083em"> </tspan><tspan x="2.87" y="0" style="letter-spacing:0.002951996852344082em">4</tspan><tspan x="8.6" y="0" style="letter-spacing:-0.008951216261946572em">6</tspan><tspan x="14.21" y="0" style="letter-spacing:0.00199973980320083em">,</tspan><tspan x="17.08" y="0" style="letter-spacing:0.0030472225572584074em">00</tspan><tspan x="28.55" y="0">0</tspan></text></g><g style="clip-path:url(#clip-path-7)"><text transform="translate(25.46 84.24)" style="font-size:10.255240440368652px;font-family:ArialMT, Arial"><tspan style="letter-spacing:0.00199973980320083em"> </tspan><tspan x="2.87" y="0" style="letter-spacing:0.002951996852344082em">6</tspan><tspan x="8.6" y="0" style="letter-spacing:-0.008951216261946572em">1</tspan><tspan x="14.21" y="0" style="letter-spacing:0.00199973980320083em">,</tspan><tspan x="17.08" y="0" style="letter-spacing:0.0030472225572584074em">00</tspan><tspan x="28.55" y="0">0</tspan></text></g><g style="clip-path:url(#clip-path-7)"><text transform="translate(25.46 28.64)" style="font-size:10.255240440368652px;font-family:ArialMT, Arial"><tspan style="letter-spacing:0.00199973980320083em"> </tspan><tspan x="2.87" y="0" style="letter-spacing:0.002951996852344082em">7</tspan><tspan x="8.6" y="0" style="letter-spacing:-0.008951216261946572em">6</tspan><tspan x="14.21" y="0" style="letter-spacing:0.00199973980320083em">,</tspan><tspan x="17.08" y="0" style="letter-spacing:0.0030472225572584074em">00</tspan><tspan x="28.55" y="0">0</tspan></text></g><g style="clip-path:url(#clip-path-7)"><text transform="translate(97.01 318.86)" style="font-size:10.255240440368652px;font-family:ArialMT, Arial"><tspan style="letter-spacing:0.005999219409602489em">J</tspan><tspan x="5.19" y="0" style="letter-spacing:-0.008951216261946572em">a</tspan><tspan x="10.8" y="0">n</tspan></text></g><g style="clip-path:url(#clip-path-7)"><text transform="translate(164.32 318.86)" style="font-size:10.255240440368652px;font-family:ArialMT, Arial;letter-spacing:0.00199973980320083em">F<tspan x="6.29" y="0" style="letter-spacing:0.002951996852344082em">e</tspan><tspan x="12.02" y="0" style="letter-spacing:0.00009522570491432523em">b</tspan></text></g><g style="clip-path:url(#clip-path-7)"><text transform="translate(232.22 318.86)" style="font-size:10.255240440368652px;font-family:ArialMT, Arial"><tspan style="letter-spacing:-0.005999219409602489em">M</tspan><tspan x="8.48" y="0" style="letter-spacing:0.0030472225572584074em">a</tspan><tspan x="14.22" y="0">r</tspan></text></g><g style="clip-path:url(#clip-path-7)"><text transform="translate(300.95 318.86)" style="font-size:10.255240440368652px;font-family:ArialMT, Arial">A<tspan x="6.84" y="0" style="letter-spacing:0.0030472225572584074em">p</tspan><tspan x="12.57" y="0">r</tspan></text></g><g style="clip-path:url(#clip-path-7)"><text transform="translate(367.13 318.86)" style="font-size:10.255240440368652px;font-family:ArialMT, Arial;letter-spacing:-0.005999219409602489em">M<tspan x="8.48" y="0" style="letter-spacing:0.0030472225572584074em">a</tspan><tspan x="14.22" y="0" style="letter-spacing:-0.00009522570491432523em">y</tspan></text></g><g style="clip-path:url(#clip-path-7)"><text transform="translate(436.43 318.86)" style="font-size:10.255240440368652px;font-family:ArialMT, Arial"><tspan style="letter-spacing:0.005999219409602489em">J</tspan><tspan x="5.19" y="0" style="letter-spacing:-0.008951216261946572em">u</tspan><tspan x="10.8" y="0">n</tspan></text></g><g style="clip-path:url(#clip-path-7)"><text transform="translate(506.02 318.86)" style="font-size:10.255240440368652px;font-family:ArialMT, Arial"><tspan style="letter-spacing:0.005999219409602489em">J</tspan><tspan x="5.19" y="0" style="letter-spacing:-0.008951216261946572em">u</tspan><tspan x="10.8" y="0">l</tspan></text></g><g style="clip-path:url(#clip-path-7)"><text transform="translate(571.33 318.86)" style="font-size:10.255240440368652px;font-family:ArialMT, Arial">A<tspan x="6.84" y="0" style="letter-spacing:0.0030472225572584074em">u</tspan><tspan x="12.57" y="0" style="letter-spacing:0.00009522570491432523em">g</tspan></text></g><g style="clip-path:url(#clip-path-7)"><text transform="translate(639.22 318.86)" style="font-size:10.255240440368652px;font-family:ArialMT, Arial">S<tspan x="6.84" y="0" style="letter-spacing:0.0030472225572584074em">e</tspan><tspan x="12.57" y="0" style="letter-spacing:0.00009522570491432523em">p</tspan></text></g><g style="clip-path:url(#clip-path-7)"><text transform="translate(708.26 318.86)" style="font-size:10.255240440368652px;font-family:ArialMT, Arial"><tspan style="letter-spacing:-0.00399947960640166em">O</tspan><tspan x="7.94" y="0" style="letter-spacing:0.005999219409602489em">c</tspan><tspan x="13.13" y="0">t</tspan></text></g><g style="clip-path:url(#clip-path-7)"><text transform="translate(775 318.86)" style="font-size:10.255240440368652px;font-family:ArialMT, Arial;letter-spacing:-0.00199973980320083em">N<tspan x="7.39" y="0" style="letter-spacing:0.0030472225572584074em">o</tspan><tspan x="13.12" y="0" style="letter-spacing:-0.00009522570491432523em">v</tspan></text></g><g style="clip-path:url(#clip-path-7)"><text transform="translate(842.87 318.86)" style="font-size:10.255240440368652px;font-family:ArialMT, Arial;letter-spacing:-0.00199973980320083em">D<tspan x="7.39" y="0" style="letter-spacing:0.0030472225572584074em">e</tspan><tspan x="13.12" y="0" style="letter-spacing:-0.00009522570491432523em">c</tspan></text></g><g style="clip-path:url(#clip-path-7)"><text transform="translate(16.32 224.59) rotate(-90)" style="font-size:11.349129676818848px;font-family:Arial-BoldMT, Arial;font-weight:700"><tspan style="letter-spacing:0.021942073497375095em">M</tspan><tspan x="9.7" y="0" style="letter-spacing:-0.0009465208175338276em">a</tspan><tspan x="16" y="0" style="letter-spacing:-0.0030116571466985423em">r</tspan><tspan x="20.39" y="0" style="letter-spacing:-0.0009465208175338276em">ke</tspan><tspan x="32.99" y="0" style="letter-spacing:0.0040442253112809em">t</tspan><tspan x="36.81" y="0"> </tspan><tspan x="39.97" y="0" style="letter-spacing:-0.0039581779642323695em">P</tspan><tspan x="47.49" y="0" style="letter-spacing:-0.003097704493747072em">r</tspan><tspan x="51.87" y="0">i</tspan><tspan x="55.03" y="0" style="letter-spacing:-0.0009465208175338276em">ce</tspan><tspan x="67.63" y="0" style="letter-spacing:0.02297464166195745em"> </tspan><tspan x="71.04" y="0" style="letter-spacing:0.0039581779642323695em">(</tspan><tspan x="74.87" y="0">R</tspan><tspan x="83.06" y="0" style="letter-spacing:-0.0009465208175338276em">s</tspan><tspan x="89.36" y="0">./</tspan><tspan x="95.67" y="0" style="letter-spacing:0.022028120844423623em">M</tspan><tspan x="105.37" y="0" style="letter-spacing:0.014972238386444181em">T</tspan><tspan x="112.47" y="0">)</tspan></text></g><g style="clip-path:url(#clip-path-7)"><text transform="translate(426.48 337.58)" style="font-size:11.349129676818848px;font-family:Arial-BoldMT, Arial;font-weight:700"><tspan style="letter-spacing:0.021942073497375095em">M</tspan><tspan x="9.7" y="0" style="letter-spacing:0.0030116571466985423em">on</tspan><tspan x="23.64" y="0" style="letter-spacing:0.0039581779642323695em">t</tspan><tspan x="27.46" y="0" style="letter-spacing:0.0030116571466985423em">h</tspan><tspan x="34.43" y="0" style="letter-spacing:-0.0009465208175338276em">s</tspan><tspan x="40.73" y="0"> </tspan></text></g><g style="clip-path:url(#clip-path)"><line x1="190.88" y1="11.21" x2="212.76" y2="11.21" style="fill:none;stroke:#2935e8;stroke-linecap:round;stroke-linejoin:round;stroke-width:2.46125771874388px"/></g><g style="clip-path:url(#clip-path-7)"><text transform="translate(215.07 14)" style="font-size:9.16135025024414px;font-family:Arial-BoldMT, Arial;font-weight:700"><tspan style="letter-spacing:0.0019187264453219175em">M</tspan><tspan x="7.65" y="0" style="letter-spacing:-0.005010007940562785em">AH</tspan><tspan x="20.79" y="0" style="letter-spacing:-0.008954056744835615em"> </tspan><tspan x="23.25" y="0" style="letter-spacing:0.01002001588112557em">(</tspan><tspan x="26.4" y="0" style="letter-spacing:-0.005010007940562785em">R</tspan><tspan x="32.97" y="0" style="letter-spacing:-0.004050644717901826em">-</tspan><tspan x="35.98" y="0" style="letter-spacing:-0.0028780896679828764em">6</tspan><tspan x="41.05" y="0" style="letter-spacing:0.005010007940562785em">,</tspan><tspan x="43.64" y="0" style="letter-spacing:-0.008954056744835615em"> </tspan><tspan x="46.1" y="0" style="letter-spacing:-0.005010007940562785em">R</tspan><tspan x="52.67" y="0" style="letter-spacing:-0.004050644717901826em">-</tspan><tspan x="55.69" y="0" style="letter-spacing:-0.002984685581611872em">1</tspan><tspan x="60.75" y="0" style="letter-spacing:0.011085975017415524em">2</tspan><tspan x="65.95" y="0">)</tspan></text></g><g style="clip-path:url(#clip-path)"><line x1="370.83" y1="11.21" x2="392.71" y2="11.21" style="fill:none;stroke:#6b77e8;stroke-linecap:round;stroke-linejoin:round;stroke-width:2.46125771874388px"/></g><g style="clip-path:url(#clip-path-7)"><text transform="translate(394.96 14)" style="font-size:9.16135025024414px;font-family:Arial-BoldMT, Arial;font-weight:700"><tspan style="letter-spacing:0.0019187264453219175em">M</tspan><tspan x="7.65" y="0" style="letter-spacing:-0.009913419967496574em">P</tspan><tspan x="13.67" y="0" style="letter-spacing:0.005010007940562785em"> </tspan><tspan x="16.26" y="0" style="letter-spacing:-0.003944048804272831em">(</tspan><tspan x="19.27" y="0" style="letter-spacing:-0.005116603854191781em">R</tspan><tspan x="25.84" y="0" style="letter-spacing:-0.003944048804272831em">-</tspan><tspan x="28.86" y="0" style="letter-spacing:-0.002984685581611872em">14</tspan><tspan x="38.99" y="0" style="letter-spacing:0.005116603854191781em">,</tspan><tspan x="41.58" y="0" style="letter-spacing:-0.008954056744835615em"> </tspan><tspan x="44.05" y="0" style="letter-spacing:-0.005010007940562785em">R</tspan><tspan x="50.62" y="0" style="letter-spacing:0.009913419967496574em">-</tspan><tspan x="53.76" y="0" style="letter-spacing:-0.0028780896679828764em">15</tspan><tspan x="63.9" y="0">)</tspan></text></g><g style="clip-path:url(#clip-path)"><line x1="548.59" y1="11.21" x2="570.46" y2="11.21" style="fill:none;stroke:#ff25f3;stroke-linecap:round;stroke-linejoin:round;stroke-width:2.46125771874388px"/></g><g style="clip-path:url(#clip-path-7)"><text transform="translate(572.84 14)" style="font-size:9.16135025024414px;font-family:Arial-BoldMT, Arial;font-weight:700"><tspan style="letter-spacing:-0.005010007940562785em">HR</tspan><tspan x="13.14" y="0" style="letter-spacing:0.005010007940562785em"> </tspan><tspan x="15.73" y="0" style="letter-spacing:-0.003944048804272831em">(</tspan><tspan x="18.75" y="0" style="letter-spacing:-0.005010007940562785em">R</tspan><tspan x="25.32" y="0" style="letter-spacing:-0.004050644717901826em">-</tspan><tspan x="28.33" y="0" style="letter-spacing:-0.002984685581611872em">4</tspan><tspan x="33.4" y="0" style="letter-spacing:0.005116603854191781em">, </tspan><tspan x="38.58" y="0" style="letter-spacing:-0.005010007940562785em">R</tspan><tspan x="45.15" y="0" style="letter-spacing:-0.004050644717901826em">-</tspan><tspan x="48.16" y="0" style="letter-spacing:-0.002984685581611872em">5</tspan><tspan x="53.23" y="0">)</tspan></text></g><g style="clip-path:url(#clip-path)"><line x1="715.82" y1="11.21" x2="737.69" y2="11.21" style="fill:none;stroke:#00c1a3;stroke-linecap:round;stroke-linejoin:round;stroke-width:2.46125771874388px"/></g><g style="clip-path:url(#clip-path-7)"><text transform="translate(740.05 14)" style="font-size:9.16135025024414px;font-family:Arial-BoldMT, Arial;font-weight:700"><tspan style="letter-spacing:0.0010659591362899542em">T</tspan><tspan x="5.61" y="0" style="letter-spacing:-0.01002001588112557em">E</tspan><tspan x="11.62" y="0" style="letter-spacing:0.0010659591362899542em">L</tspan><tspan x="17.23" y="0" style="letter-spacing:-0.008954056744835615em"> </tspan><tspan x="19.69" y="0" style="letter-spacing:0.01002001588112557em">(</tspan><tspan x="22.83" y="0" style="letter-spacing:-0.005010007940562785em">R</tspan><tspan x="29.41" y="0" style="letter-spacing:-0.004050644717901826em">-</tspan><tspan x="32.42" y="0" style="letter-spacing:-0.002984685581611872em">24</tspan><tspan x="42.55" y="0">)</tspan></text></g><polygon points="0.14 0 900 0 900 344.44 0.14 344.44 0.14 0 0.14 0" style="fill:none;stroke:#d9d9d9;stroke-linejoin:round;stroke-width:0.820419330138333px"/></svg>