<svg id="Layer_1" data-name="Layer 1" xmlns="http://www.w3.org/2000/svg" xmlns:xlink="http://www.w3.org/1999/xlink" viewBox="0 0 900 350"><defs><clipPath id="clip-path"><polygon points="0.85 0.85 900 0.85 900 339.67 0.85 339.67 0.85 0.85 0.85 0.85" style="fill:none;clip-rule:evenodd"/></clipPath><clipPath id="clip-path-2"><polygon points="0.85 0.85 900 0.85 900 53.77 0.85 53.77 0.85 0.85 0.85 0.85" style="fill:none;clip-rule:evenodd"/></clipPath><clipPath id="clip-path-4"><polygon points="0.85 315.77 899.14 315.77 899.14 338.81 0.85 338.81 0.85 315.77 0.85 315.77" style="fill:none;clip-rule:evenodd"/></clipPath><clipPath id="clip-path-5"><polygon points="602.56 272.25 849.57 272.25 849.57 314.92 602.56 314.92 602.56 272.25 602.56 272.25" style="fill:none;clip-rule:evenodd"/></clipPath><clipPath id="clip-path-6"><polygon points="0.85 54.62 105.98 54.62 105.98 140.82 0.85 140.82 0.85 54.62 0.85 54.62" style="fill:none;clip-rule:evenodd"/></clipPath><clipPath id="clip-path-7"><polygon points="0.85 185.2 105.98 185.2 105.98 271.39 0.85 271.39 0.85 185.2 0.85 185.2" style="fill:none;clip-rule:evenodd"/></clipPath><clipPath id="clip-path-8"><polygon points="106.84 185.2 205.13 185.2 205.13 271.39 106.84 271.39 106.84 185.2 106.84 185.2" style="fill:none;clip-rule:evenodd"/></clipPath><clipPath id="clip-path-9"><polygon points="354.7 54.62 552.14 54.62 552.14 97.29 354.7 97.29 354.7 54.62 354.7 54.62" style="fill:none;clip-rule:evenodd"/></clipPath><clipPath id="clip-path-10"><polygon points="255.56 98.15 452.99 98.15 452.99 140.82 255.56 140.82 255.56 98.15 255.56 98.15" style="fill:none;clip-rule:evenodd"/></clipPath><clipPath id="clip-path-11"><polygon points="453.85 141.67 700.86 141.67 700.86 184.34 453.85 184.34 453.85 141.67 453.85 141.67" style="fill:none;clip-rule:evenodd"/></clipPath><clipPath id="clip-path-12"><polygon points="354.7 185.2 552.14 185.2 552.14 227.87 354.7 227.87 354.7 185.2 354.7 185.2" style="fill:none;clip-rule:evenodd"/></clipPath><clipPath id="clip-path-13"><polygon points="552.99 228.72 750.43 228.72 750.43 271.39 552.99 271.39 552.99 228.72 552.99 228.72" style="fill:none;clip-rule:evenodd"/></clipPath><clipPath id="clip-path-14"><polygon points="0 0 900 0 900 339.67 0 339.67 0 0 0 0" style="fill:none;clip-rule:evenodd"/></clipPath></defs><title>seasonal-calendar</title><g style="clip-path:url(#clip-path)"><polyline points="0 0 0 54.62 900 54.62 900 0 0 0" style="fill:#d9d9d9;fill-rule:evenodd"/><polyline points="899.14 0 899.14 54.62 918.8 54.62 918.8 0 899.14 0" style="fill:#fff;fill-rule:evenodd"/><polyline points="0 53.77 0 98.15 205.98 98.15 205.98 53.77 0 53.77" style="fill:#f2f2f2;fill-rule:evenodd"/><polyline points="205.13 53.77 205.13 98.15 305.13 98.15 305.13 53.77 205.13 53.77" style="fill:#fff;fill-rule:evenodd"/><polyline points="304.27 53.77 304.27 98.15 354.7 98.15 354.7 53.77 304.27 53.77" style="fill:#5e9fff;fill-rule:evenodd"/><polyline points="353.85 53.77 353.85 98.15 552.99 98.15 552.99 53.77 353.85 53.77" style="fill:#06f;fill-rule:evenodd"/><polyline points="552.14 53.77 552.14 98.15 602.56 98.15 602.56 53.77 552.14 53.77" style="fill:#0044ab;fill-rule:evenodd"/><polyline points="601.71 53.77 601.71 98.15 918.8 98.15 918.8 53.77 601.71 53.77" style="fill:#fff;fill-rule:evenodd"/><polyline points="0 97.29 0 141.67 205.98 141.67 205.98 97.29 0 97.29" style="fill:#f2f2f2;fill-rule:evenodd"/><polyline points="205.13 97.29 205.13 141.67 255.56 141.67 255.56 97.29 205.13 97.29" style="fill:#5e9fff;fill-rule:evenodd"/><polyline points="254.7 97.29 254.7 141.67 453.85 141.67 453.85 97.29 254.7 97.29" style="fill:#06f;fill-rule:evenodd"/><polyline points="452.99 97.29 452.99 141.67 503.42 141.67 503.42 97.29 452.99 97.29" style="fill:#0044ab;fill-rule:evenodd"/><polyline points="502.56 97.29 502.56 141.67 918.8 141.67 918.8 97.29 502.56 97.29" style="fill:#fff;fill-rule:evenodd"/><polyline points="0 140.82 0 185.2 205.98 185.2 205.98 140.82 0 140.82" style="fill:#f2f2f2;fill-rule:evenodd"/><polyline points="205.13 140.82 205.13 185.2 404.27 185.2 404.27 140.82 205.13 140.82" style="fill:#fff;fill-rule:evenodd"/><polyline points="403.42 140.82 403.42 185.2 453.85 185.2 453.85 140.82 403.42 140.82" style="fill:#5e9fff;fill-rule:evenodd"/><polyline points="452.99 140.82 452.99 185.2 701.71 185.2 701.71 140.82 452.99 140.82" style="fill:#06f;fill-rule:evenodd"/><polyline points="700.86 140.82 700.86 185.2 751.28 185.2 751.28 140.82 700.86 140.82" style="fill:#0044ab;fill-rule:evenodd"/><polyline points="750.43 140.82 750.43 185.2 918.8 185.2 918.8 140.82 750.43 140.82" style="fill:#fff;fill-rule:evenodd"/><polyline points="0 184.34 0 228.72 205.98 228.72 205.98 184.34 0 184.34" style="fill:#f2f2f2;fill-rule:evenodd"/><polyline points="205.13 184.34 205.13 228.72 305.13 228.72 305.13 184.34 205.13 184.34" style="fill:#fff;fill-rule:evenodd"/><polyline points="304.27 184.34 304.27 228.72 354.7 228.72 354.7 184.34 304.27 184.34" style="fill:#5e9fff;fill-rule:evenodd"/><polyline points="353.85 184.34 353.85 228.72 552.99 228.72 552.99 184.34 353.85 184.34" style="fill:#06f;fill-rule:evenodd"/><polyline points="552.14 184.34 552.14 228.72 602.56 228.72 602.56 184.34 552.14 184.34" style="fill:#0044ab;fill-rule:evenodd"/><polyline points="601.71 184.34 601.71 228.72 918.8 228.72 918.8 184.34 601.71 184.34" style="fill:#fff;fill-rule:evenodd"/><polyline points="0 227.87 0 272.25 205.98 272.25 205.98 227.87 0 227.87" style="fill:#f2f2f2;fill-rule:evenodd"/><polyline points="205.13 227.87 205.13 272.25 503.42 272.25 503.42 227.87 205.13 227.87" style="fill:#fff;fill-rule:evenodd"/><polyline points="502.56 227.87 502.56 272.25 552.99 272.25 552.99 227.87 502.56 227.87" style="fill:#5e9fff;fill-rule:evenodd"/><polyline points="552.14 227.87 552.14 272.25 751.28 272.25 751.28 227.87 552.14 227.87" style="fill:#06f;fill-rule:evenodd"/><polyline points="750.43 227.87 750.43 272.25 800.86 272.25 800.86 227.87 750.43 227.87" style="fill:#0044ab;fill-rule:evenodd"/><polyline points="800 227.87 800 272.25 918.8 272.25 918.8 227.87 800 227.87" style="fill:#fff;fill-rule:evenodd"/><polyline points="0 271.39 0 315.77 205.98 315.77 205.98 271.39 0 271.39" style="fill:#f2f2f2;fill-rule:evenodd"/><polyline points="205.13 271.39 205.13 315.77 552.99 315.77 552.99 271.39 205.13 271.39" style="fill:#fff;fill-rule:evenodd"/><polyline points="552.14 271.39 552.14 315.77 602.56 315.77 602.56 271.39 552.14 271.39" style="fill:#5e9fff;fill-rule:evenodd"/><polyline points="601.71 271.39 601.71 315.77 850.43 315.77 850.43 271.39 601.71 271.39" style="fill:#06f;fill-rule:evenodd"/><polyline points="849.57 271.39 849.57 315.77 900 315.77 900 271.39 849.57 271.39" style="fill:#0044ab;fill-rule:evenodd"/><polyline points="899.14 271.39 899.14 315.77 918.8 315.77 918.8 271.39 899.14 271.39" style="fill:#fff;fill-rule:evenodd"/><polyline points="0 314.92 0 355.88 918.8 355.88 918.8 314.92 0 314.92" style="fill:#fff;fill-rule:evenodd"/></g><g style="clip-path:url(#clip-path-2)"><text transform="translate(2.57 31.57)" style="font-size:11.094710350036621px;font-family:Arial-BoldMT, Arial;font-weight:700"><tspan style="letter-spacing:-0.029003856065315237em">A</tspan><tspan x="7.69" y="0" style="letter-spacing:0.003955071281633896em">g</tspan><tspan x="14.51" y="0" style="letter-spacing:-0.0040429617545590935em">r</tspan><tspan x="18.78" y="0" style="letter-spacing:0.0040429617545590935em">o</tspan><tspan x="25.61" y="0" style="letter-spacing:-0.025048784783681347em">-</tspan><tspan x="29.02" y="0" style="letter-spacing:-0.016962861274563153em">c</tspan><tspan x="35.01" y="0" style="letter-spacing:0.029003856065315237em">li</tspan><tspan x="41.81" y="0" style="letter-spacing:0.032958927346949135em">m</tspan><tspan x="52.05" y="0" style="letter-spacing:0.05897450733280765em">a</tspan><tspan x="58.87" y="0" style="letter-spacing:-0.024960894310756144em">t</tspan><tspan x="62.29" y="0" style="letter-spacing:0.029003856065315237em">i</tspan><tspan x="65.69" y="0" style="letter-spacing:-0.017050751747488352em">c</tspan><tspan x="71.67" y="0" style="letter-spacing:0.029003856065315237em"> </tspan><tspan x="75.08" y="0" style="letter-spacing:0.037968684303685406em">z</tspan><tspan x="81.05" y="0" style="letter-spacing:0.0040429617545590935em">on</tspan><tspan x="94.69" y="0">e</tspan></text><text transform="translate(136.76 31.57)" style="font-size:11.094710350036621px;font-family:Arial-BoldMT, Arial;font-weight:700"><tspan style="letter-spacing:-0.029003856065315237em">R</tspan><tspan x="7.69" y="0" style="letter-spacing:0.05897450733280765em">e</tspan><tspan x="14.52" y="0" style="letter-spacing:0.003955071281633896em">g</tspan><tspan x="21.34" y="0" style="letter-spacing:0.029003856065315237em">i</tspan><tspan x="24.74" y="0" style="letter-spacing:0.0040429617545590935em">o</tspan><tspan x="31.56" y="0">n</tspan></text><text transform="translate(219.66 31.57)" style="font-size:11.094710350036621px;font-family:Arial-BoldMT, Arial;font-weight:700"><tspan style="letter-spacing:0.013007789992929258em">M</tspan><tspan x="9.39" y="0" style="letter-spacing:0.05897450733280765em">a</tspan><tspan x="16.21" y="0">y</tspan></text><text transform="translate(270.09 31.57)" style="font-size:11.094710350036621px;font-family:Arial-BoldMT, Arial;font-weight:700"><tspan style="letter-spacing:-0.017050751747488352em">J</tspan><tspan x="5.98" y="0" style="letter-spacing:0.0040429617545590935em">u</tspan><tspan x="12.8" y="0">n</tspan></text><text transform="translate(321.37 31.57)" style="font-size:11.094710350036621px;font-family:Arial-BoldMT, Arial;font-weight:700"><tspan style="letter-spacing:-0.017050751747488352em">J</tspan><tspan x="5.98" y="0" style="letter-spacing:0.0040429617545590935em">u</tspan><tspan x="12.8" y="0">l</tspan></text><text transform="translate(368.38 31.57)" style="font-size:11.094710350036621px;font-family:Arial-BoldMT, Arial;font-weight:700"><tspan style="letter-spacing:-0.029003856065315237em">A</tspan><tspan x="7.69" y="0" style="letter-spacing:0.003955071281633896em">u</tspan><tspan x="14.51" y="0">g</tspan></text><text transform="translate(417.95 31.57)" style="font-size:11.094710350036621px;font-family:Arial-BoldMT, Arial;font-weight:700"><tspan style="letter-spacing:0.024960894310756144em">S</tspan><tspan x="7.68" y="0" style="letter-spacing:0.05897450733280765em">e</tspan><tspan x="14.5" y="0">p</tspan></text><text transform="translate(469.24 31.57)" style="font-size:11.094710350036621px;font-family:Arial-BoldMT, Arial;font-weight:700"><tspan style="letter-spacing:-0.007998033036192991em">O</tspan><tspan x="8.54" y="0" style="letter-spacing:-0.017050751747488352em">c</tspan><tspan x="14.52" y="0">t</tspan></text><text transform="translate(517.96 31.57)" style="font-size:11.094710350036621px;font-family:Arial-BoldMT, Arial;font-weight:700"><tspan style="letter-spacing:-0.029003856065315237em">N</tspan><tspan x="7.69" y="0" style="letter-spacing:0.003955071281633896em">o</tspan><tspan x="14.51" y="0">v</tspan></text><text transform="translate(566.67 31.57)" style="font-size:11.094710350036621px;font-family:Arial-BoldMT, Arial;font-weight:700"><tspan style="letter-spacing:-0.029003856065315237em">D</tspan><tspan x="7.69" y="0" style="letter-spacing:0.05897450733280765em">e</tspan><tspan x="14.52" y="0">c</tspan></text><text transform="translate(617.1 31.57)" style="font-size:11.094710350036621px;font-family:Arial-BoldMT, Arial;font-weight:700"><tspan style="letter-spacing:-0.017050751747488352em">J</tspan><tspan x="5.98" y="0" style="letter-spacing:0.05897450733280765em">a</tspan><tspan x="12.81" y="0">n</tspan></text><text transform="translate(666.67 31.57)" style="font-size:11.094710350036621px;font-family:Arial-BoldMT, Arial;font-weight:700"><tspan style="letter-spacing:0.0040429617545590935em">F</tspan><tspan x="6.82" y="0" style="letter-spacing:0.05897450733280765em">e</tspan><tspan x="13.65" y="0">b</tspan></text><text transform="translate(716.24 31.57)" style="font-size:11.094710350036621px;font-family:Arial-BoldMT, Arial;font-weight:700"><tspan style="letter-spacing:0.013007789992929258em">M</tspan><tspan x="9.39" y="0" style="letter-spacing:0.05897450733280765em">a</tspan><tspan x="16.21" y="0">r</tspan></text><text transform="translate(766.67 31.57)" style="font-size:11.094710350036621px;font-family:Arial-BoldMT, Arial;font-weight:700"><tspan style="letter-spacing:-0.029003856065315237em">A</tspan><tspan x="7.69" y="0" style="letter-spacing:0.003955071281633896em">p</tspan><tspan x="14.51" y="0">r</tspan></text><text transform="translate(814.53 31.57)" style="font-size:11.094710350036621px;font-family:Arial-BoldMT, Arial;font-weight:700"><tspan style="letter-spacing:0.013007789992929258em">M</tspan><tspan x="9.39" y="0" style="letter-spacing:0.05897450733280765em">a</tspan><tspan x="16.21" y="0">y</tspan></text><text transform="translate(864.96 31.57)" style="font-size:11.094710350036621px;font-family:Arial-BoldMT, Arial;font-weight:700"><tspan style="letter-spacing:-0.017050751747488352em">J</tspan><tspan x="5.98" y="0" style="letter-spacing:0.0040429617545590935em">u</tspan><tspan x="12.8" y="0">n</tspan></text></g><g style="clip-path:url(#clip-path)"><text transform="translate(116.25 80.23)" style="font-size:11.094710350036621px;font-family:Arial-BoldMT, Arial;font-weight:700"><tspan style="letter-spacing:-0.029003856065315237em">R</tspan><tspan x="7.69" y="0" style="letter-spacing:-0.025048784783681347em">-</tspan><tspan x="11.11" y="0">6</tspan></text><text transform="translate(116.25 123.75)" style="font-size:11.094710350036621px;font-family:Arial-BoldMT, Arial;font-weight:700;letter-spacing:-0.029003856065315237em">R<tspan x="7.69" y="0" style="letter-spacing:-0.025048784783681347em">-</tspan><tspan x="11.11" y="0" style="letter-spacing:-0.016962861274563153em">1</tspan><tspan x="17.09" y="0" style="letter-spacing:-0.00008789047292519769em">2</tspan></text><text transform="translate(41.89 167.27)" style="font-size:11.094710350036621px;font-family:Arial-BoldMT, Arial;font-weight:700"><tspan style="letter-spacing:-0.029003856065315237em">C</tspan><tspan x="7.69" y="0" style="letter-spacing:0.024960894310756144em">P</tspan><tspan x="15.37" y="0">H</tspan></text><text transform="translate(116.25 167.27)" style="font-size:11.094710350036621px;font-family:Arial-BoldMT, Arial;font-weight:700;letter-spacing:-0.029003856065315237em">R<tspan x="7.69" y="0" style="letter-spacing:-0.025048784783681347em">-</tspan><tspan x="11.11" y="0" style="letter-spacing:-0.016962861274563153em">14</tspan><tspan x="23.07" y="0" style="letter-spacing:0.029003856065315237em">, </tspan><tspan x="29.88" y="0">R</tspan><tspan x="37.57" y="0" style="letter-spacing:-0.025048784783681347em">-</tspan><tspan x="40.99" y="0" style="letter-spacing:-0.016962861274563153em">1</tspan><tspan x="46.97" y="0" style="letter-spacing:-0.00008789047292519769em">5</tspan></text><text transform="translate(41.89 297.86)" style="font-size:11.094710350036621px;font-family:Arial-BoldMT, Arial;font-weight:700;letter-spacing:0.024960894310756144em">SP<tspan x="15.36" y="0" style="letter-spacing:-0.00008789047292519769em">H</tspan></text><text transform="translate(116.25 297.86)" style="font-size:11.094710350036621px;font-family:Arial-BoldMT, Arial;font-weight:700;letter-spacing:-0.029003856065315237em">R<tspan x="7.69" y="0" style="letter-spacing:-0.025048784783681347em">-</tspan><tspan x="11.11" y="0" style="letter-spacing:-0.016962861274563153em">2</tspan><tspan x="17.09" y="0" style="letter-spacing:-0.00008789047292519769em">4</tspan></text></g><g style="clip-path:url(#clip-path-4)"><text transform="translate(2.57 330.28)" style="font-size:9.387829780578613px;font-family:Arial-BoldMT, Arial;font-weight:700"><tspan style="letter-spacing:-0.08507000636200757em">N</tspan><tspan x="5.98" y="0" style="letter-spacing:0.025032810174900885em">o</tspan><tspan x="11.95" y="0" style="letter-spacing:0.02991472751191475em">t</tspan><tspan x="15.36" y="0" style="letter-spacing:0.08008421844335512em">e</tspan><tspan x="21.33" y="0">:</tspan></text><text transform="translate(26.49 330.28)" style="font-size:9.387829780578613px;font-family:ArialMT, Arial"> </text><text transform="translate(29.06 330.28)" style="font-size:9.387829780578613px;font-family:Arial-BoldMT, Arial;font-weight:700"><tspan style="letter-spacing:-0.03406955077745847em">W</tspan><tspan x="8.54" y="0" style="letter-spacing:-0.02991472751191475em">P</tspan><tspan x="14.52" y="0">H</tspan></text><text transform="translate(49.57 330.28)" style="font-size:9.387829780578613px;font-family:ArialMT, Arial"><tspan style="letter-spacing:-0.004985787918652458em"> </tspan><tspan x="2.56" y="0" style="letter-spacing:-0.03406955077745847em">W</tspan><tspan x="11.1" y="0" style="letter-spacing:-0.009971575837304916em">e</tspan><tspan x="16.23" y="0" style="letter-spacing:0.04497596184951072em">s</tspan><tspan x="21.35" y="0" style="letter-spacing:-0.004985787918652458em">t</tspan><tspan x="23.91" y="0" style="letter-spacing:-0.009971575837304916em">e</tspan><tspan x="29.04" y="0" style="letter-spacing:0.02991472751191475em">r</tspan><tspan x="32.44" y="0" style="letter-spacing:-0.009971575837304916em">n</tspan><tspan x="37.57" y="0" style="letter-spacing:-0.004985787918652458em"> </tspan><tspan x="40.13" y="0" style="letter-spacing:-0.12100922760896068em">P</tspan><tspan x="45.26" y="0" style="letter-spacing:-0.039990173930858255em">l</tspan><tspan x="46.97" y="0" style="letter-spacing:-0.009971575837304916em">a</tspan><tspan x="52.09" y="0" style="letter-spacing:-0.004985787918652458em">t</tspan><tspan x="54.66" y="0" style="letter-spacing:-0.009971575837304916em">eau</tspan><tspan x="70.04" y="0" style="letter-spacing:-0.004985787918652458em"> </tspan><tspan x="72.6" y="0" style="letter-spacing:-0.030018598093553336em">&amp;</tspan><tspan x="78.58" y="0" style="letter-spacing:-0.004985787918652458em"> </tspan><tspan x="81.14" y="0" style="letter-spacing:-0.08507000636200757em">H</tspan><tspan x="87.12" y="0" style="letter-spacing:-0.039990173930858255em">ill</tspan><tspan x="92.25" y="0" style="letter-spacing:0.04497596184951072em">s</tspan><tspan x="97.37" y="0" style="letter-spacing:-0.004985787918652458em">,</tspan><tspan x="99.93" y="0"> </tspan></text><text transform="translate(152.14 330.28)" style="font-size:9.387829780578613px;font-family:Arial-BoldMT, Arial;font-weight:700"><tspan style="letter-spacing:0.004985787918652458em">C</tspan><tspan x="6.83" y="0" style="letter-spacing:-0.030018598093553336em">P</tspan><tspan x="12.81" y="0" style="letter-spacing:-0.08507000636200757em">H</tspan><tspan x="18.79" y="0"> </tspan></text><text transform="translate(173.51 330.28)" style="font-size:9.387829780578613px;font-family:ArialMT, Arial"><tspan style="letter-spacing:-0.08507000636200757em">C</tspan><tspan x="5.98" y="0" style="letter-spacing:-0.009971575837304916em">en</tspan><tspan x="16.24" y="0" style="letter-spacing:-0.004985787918652458em">t</tspan><tspan x="18.8" y="0" style="letter-spacing:0.030018598093553336em">r</tspan><tspan x="22.21" y="0" style="letter-spacing:-0.009971575837304916em">a</tspan><tspan x="27.33" y="0" style="letter-spacing:-0.040094044512496846em">l</tspan><tspan x="29.04" y="0" style="letter-spacing:-0.004985787918652458em"> </tspan><tspan x="31.6" y="0" style="letter-spacing:-0.1209053570273221em">P</tspan><tspan x="36.73" y="0" style="letter-spacing:-0.040094044512496846em">l</tspan><tspan x="38.44" y="0" style="letter-spacing:-0.009971575837304916em">a</tspan><tspan x="43.57" y="0" style="letter-spacing:-0.004985787918652458em">t</tspan><tspan x="46.13" y="0" style="letter-spacing:-0.009971575837304916em">eau</tspan><tspan x="61.51" y="0" style="letter-spacing:-0.004985787918652458em"> </tspan><tspan x="64.07" y="0" style="letter-spacing:-0.030018598093553336em">&amp;</tspan><tspan x="70.05" y="0" style="letter-spacing:-0.004985787918652458em"> </tspan><tspan x="72.61" y="0" style="letter-spacing:-0.08507000636200757em">H</tspan><tspan x="78.59" y="0" style="letter-spacing:-0.039990173930858255em">ill</tspan><tspan x="83.72" y="0" style="letter-spacing:0.04497596184951072em">s</tspan><tspan x="88.84" y="0" style="letter-spacing:-0.004985787918652458em">,</tspan><tspan x="91.4" y="0"> </tspan></text><text transform="translate(267.52 330.28)" style="font-size:9.387829780578613px;font-family:Arial-BoldMT, Arial;font-weight:700"><tspan style="letter-spacing:0.024928939593262284em">T</tspan><tspan x="5.97" y="0" style="letter-spacing:-0.04985787918652457em">G</tspan><tspan x="12.8" y="0">P</tspan></text><text transform="translate(286.33 330.28)" style="font-size:9.387829780578613px;font-family:ArialMT, Arial"><tspan style="letter-spacing:-0.004985787918652458em"> </tspan><tspan x="2.56" y="0" style="letter-spacing:-0.06502298410575913em">T</tspan><tspan x="7.69" y="0" style="letter-spacing:0.02991472751191475em">r</tspan><tspan x="11.09" y="0" style="letter-spacing:-0.009971575837304916em">an</tspan><tspan x="21.35" y="0" style="letter-spacing:0.04497596184951072em">s</tspan><tspan x="26.46" y="0" style="letter-spacing:0.030018598093553336em">-</tspan><tspan x="29.87" y="0" style="letter-spacing:-0.04996174976816317em">G</tspan><tspan x="36.7" y="0" style="letter-spacing:-0.009971575837304916em">ange</tspan><tspan x="57.21" y="0" style="letter-spacing:-0.004985787918652458em">t</tspan><tspan x="59.77" y="0" style="letter-spacing:-0.039990173930858255em">i</tspan><tspan x="61.49" y="0" style="letter-spacing:0.04497596184951072em">c</tspan><tspan x="66.6" y="0" style="letter-spacing:-0.005089658500291051em"> </tspan><tspan x="69.16" y="0" style="letter-spacing:-0.1209053570273221em">P</tspan><tspan x="74.29" y="0" style="letter-spacing:-0.040094044512496846em">l</tspan><tspan x="76" y="0" style="letter-spacing:-0.009971575837304916em">a</tspan><tspan x="81.13" y="0" style="letter-spacing:-0.039990173930858255em">i</tspan><tspan x="82.84" y="0" style="letter-spacing:-0.009971575837304916em">n</tspan><tspan x="87.96" y="0" style="letter-spacing:0.04497596184951072em">s</tspan><tspan x="93.08" y="0" style="letter-spacing:-0.004985787918652458em"> </tspan><tspan x="95.64" y="0" style="letter-spacing:-0.009971575837304916em">and</tspan><tspan x="111.02" y="0"> </tspan></text><text transform="translate(400.01 330.28)" style="font-size:9.387829780578613px;font-family:Arial-BoldMT, Arial;font-weight:700"><tspan style="letter-spacing:-0.02991472751191475em">SP</tspan><tspan x="11.96" y="0">H</tspan></text><text transform="translate(417.95 330.28)" style="font-size:9.387829780578613px;font-family:ArialMT, Arial;letter-spacing:-0.004985787918652458em"> <tspan x="2.56" y="0" style="letter-spacing:-0.030018598093553336em">S</tspan><tspan x="8.54" y="0" style="letter-spacing:-0.009971575837304916em">ou</tspan><tspan x="18.8" y="0">t</tspan><tspan x="21.36" y="0" style="letter-spacing:-0.009971575837304916em">he</tspan><tspan x="31.61" y="0" style="letter-spacing:0.030018598093553336em">r</tspan><tspan x="35.02" y="0" style="letter-spacing:-0.009971575837304916em">n</tspan><tspan x="40.15" y="0" style="letter-spacing:-0.005089658500291051em"> </tspan><tspan x="42.71" y="0" style="letter-spacing:-0.1209053570273221em">P</tspan><tspan x="47.83" y="0" style="letter-spacing:-0.040094044512496846em">l</tspan><tspan x="49.54" y="0" style="letter-spacing:-0.009971575837304916em">a</tspan><tspan x="54.67" y="0">t</tspan><tspan x="57.23" y="0" style="letter-spacing:-0.009971575837304916em">eau</tspan><tspan x="72.61" y="0"> </tspan><tspan x="75.17" y="0" style="letter-spacing:-0.030018598093553336em">&amp;</tspan><tspan x="81.15" y="0"> </tspan><tspan x="83.72" y="0" style="letter-spacing:-0.08507000636200757em">H</tspan><tspan x="89.7" y="0" style="letter-spacing:-0.039990173930858255em">ill</tspan><tspan x="94.83" y="0" style="letter-spacing:-0.00010387058163859287em">s</tspan></text></g><g style="clip-path:url(#clip-path-5)"><text transform="translate(713.68 297)" style="font-size:11.094710350036621px;fill:#fff;font-family:Arial-BoldMT, Arial;font-weight:700"><tspan style="letter-spacing:-0.029003856065315237em">R</tspan><tspan x="7.69" y="0" style="letter-spacing:0.05897450733280765em">a</tspan><tspan x="14.52" y="0" style="letter-spacing:0.003955071281633896em">b</tspan><tspan x="21.34" y="0">i</tspan></text></g><g style="clip-path:url(#clip-path-6)"><text transform="translate(40.17 101.56)" style="font-size:11.094710350036621px;font-family:Arial-BoldMT, Arial;font-weight:700"><tspan style="letter-spacing:0.05598623125335093em">W</tspan><tspan x="11.09" y="0" style="letter-spacing:0.024960894310756144em">P</tspan><tspan x="18.77" y="0">H</tspan></text></g><g style="clip-path:url(#clip-path-7)"><text transform="translate(41.89 232.14)" style="font-size:11.094710350036621px;font-family:Arial-BoldMT, Arial;font-weight:700"><tspan style="letter-spacing:0.0040429617545590935em">T</tspan><tspan x="6.82" y="0" style="letter-spacing:-0.008085923509118187em">G</tspan><tspan x="15.36" y="0">P</tspan></text></g><g style="clip-path:url(#clip-path-8)"><text transform="translate(116.25 232.14)" style="font-size:11.094710350036621px;font-family:Arial-BoldMT, Arial;font-weight:700"><tspan style="letter-spacing:-0.029003856065315237em">R</tspan><tspan x="7.69" y="0" style="letter-spacing:-0.025048784783681347em">-</tspan><tspan x="11.11" y="0" style="letter-spacing:-0.016962861274563153em">4</tspan><tspan x="17.09" y="0" style="letter-spacing:0.029003856065315237em">, </tspan><tspan x="23.9" y="0" style="letter-spacing:-0.029091746538240437em">R</tspan><tspan x="31.59" y="0" style="letter-spacing:-0.024960894310756144em">-</tspan><tspan x="35.01" y="0">5</tspan></text></g><g style="clip-path:url(#clip-path-9)"><text transform="translate(437.61 79.38)" style="font-size:11.094710350036621px;fill:#fff;font-family:Arial-BoldMT, Arial;font-weight:700"><tspan style="letter-spacing:-0.029003856065315237em">K</tspan><tspan x="7.69" y="0" style="letter-spacing:0.003955071281633896em">h</tspan><tspan x="14.51" y="0" style="letter-spacing:0.05897450733280765em">a</tspan><tspan x="21.34" y="0" style="letter-spacing:-0.003955071281633896em">r</tspan><tspan x="25.61" y="0" style="letter-spacing:0.029003856065315237em">i</tspan><tspan x="29.01" y="0">f</tspan></text></g><g style="clip-path:url(#clip-path-10)"><text transform="translate(338.46 122.9)" style="font-size:11.094710350036621px;fill:#fff;font-family:Arial-BoldMT, Arial;font-weight:700"><tspan style="letter-spacing:-0.029003856065315237em">K</tspan><tspan x="7.69" y="0" style="letter-spacing:0.003955071281633896em">h</tspan><tspan x="14.51" y="0" style="letter-spacing:0.05897450733280765em">a</tspan><tspan x="21.34" y="0" style="letter-spacing:-0.003955071281633896em">r</tspan><tspan x="25.61" y="0" style="letter-spacing:0.029003856065315237em">i</tspan><tspan x="29.01" y="0">f</tspan></text></g><g style="clip-path:url(#clip-path-11)"><text transform="translate(564.96 166.42)" style="font-size:11.094710350036621px;fill:#fff;font-family:Arial-BoldMT, Arial;font-weight:700"><tspan style="letter-spacing:-0.029003856065315237em">R</tspan><tspan x="7.69" y="0" style="letter-spacing:0.05897450733280765em">a</tspan><tspan x="14.52" y="0" style="letter-spacing:0.003955071281633896em">b</tspan><tspan x="21.34" y="0">i</tspan></text></g><g style="clip-path:url(#clip-path-12)"><text transform="translate(437.61 209.95)" style="font-size:11.094710350036621px;fill:#fff;font-family:Arial-BoldMT, Arial;font-weight:700"><tspan style="letter-spacing:-0.029003856065315237em">K</tspan><tspan x="7.69" y="0" style="letter-spacing:0.003955071281633896em">h</tspan><tspan x="14.51" y="0" style="letter-spacing:0.05897450733280765em">a</tspan><tspan x="21.34" y="0" style="letter-spacing:-0.003955071281633896em">r</tspan><tspan x="25.61" y="0" style="letter-spacing:0.029003856065315237em">i</tspan><tspan x="29.01" y="0">f</tspan></text></g><g style="clip-path:url(#clip-path-13)"><text transform="translate(639.32 253.47)" style="font-size:11.094710350036621px;fill:#fff;font-family:Arial-BoldMT, Arial;font-weight:700"><tspan style="letter-spacing:-0.029003856065315237em">R</tspan><tspan x="7.69" y="0" style="letter-spacing:0.05897450733280765em">a</tspan><tspan x="14.52" y="0" style="letter-spacing:0.003955071281633896em">b</tspan><tspan x="21.34" y="0">i</tspan></text></g><g style="clip-path:url(#clip-path-14)"><polyline points="0.85 0 0.85 0.85 900 0.85 900 0 0.85 0" style="fill:#bfbfbf;fill-rule:evenodd"/><polyline points="304.27 0.85 304.27 54.62 305.13 54.62 305.13 0.85 304.27 0.85" style="fill:#bfbfbf;fill-rule:evenodd"/><polyline points="353.85 0.85 353.85 54.62 354.7 54.62 354.7 0.85 353.85 0.85" style="fill:#bfbfbf;fill-rule:evenodd"/><polyline points="552.14 0.85 552.14 54.62 552.99 54.62 552.99 0.85 552.14 0.85" style="fill:#bfbfbf;fill-rule:evenodd"/><polyline points="601.71 0.85 601.71 54.62 602.56 54.62 602.56 0.85 601.71 0.85" style="fill:#bfbfbf;fill-rule:evenodd"/><polyline points="0.85 53.77 0.85 54.62 900 54.62 900 53.77 0.85 53.77" style="fill:#bfbfbf;fill-rule:evenodd"/><polyline points="254.7 0.85 254.7 54.62 255.56 54.62 255.56 0.85 254.7 0.85" style="fill:#bfbfbf;fill-rule:evenodd"/><polyline points="452.99 0.85 452.99 54.62 453.85 54.62 453.85 0.85 452.99 0.85" style="fill:#bfbfbf;fill-rule:evenodd"/><polyline points="502.56 0.85 502.56 54.62 503.42 54.62 503.42 0.85 502.56 0.85" style="fill:#bfbfbf;fill-rule:evenodd"/><polyline points="106.84 97.29 106.84 98.15 900 98.15 900 97.29 106.84 97.29" style="fill:#bfbfbf;fill-rule:evenodd"/><polyline points="403.42 0.85 403.42 54.62 404.27 54.62 404.27 0.85 403.42 0.85" style="fill:#bfbfbf;fill-rule:evenodd"/><polyline points="700.86 0.85 700.86 54.62 701.71 54.62 701.71 0.85 700.86 0.85" style="fill:#bfbfbf;fill-rule:evenodd"/><polyline points="750.43 0.85 750.43 54.62 751.28 54.62 751.28 0.85 750.43 0.85" style="fill:#bfbfbf;fill-rule:evenodd"/><polyline points="0.85 140.82 0.85 141.67 900 141.67 900 140.82 0.85 140.82" style="fill:#bfbfbf;fill-rule:evenodd"/><polyline points="0.85 184.34 0.85 185.2 900 185.2 900 184.34 0.85 184.34" style="fill:#bfbfbf;fill-rule:evenodd"/><polyline points="502.56 98.15 502.56 141.67 503.42 141.67 503.42 98.15 502.56 98.15" style="fill:#bfbfbf;fill-rule:evenodd"/><polyline points="800 0.85 800 54.62 800.86 54.62 800.86 0.85 800 0.85" style="fill:#bfbfbf;fill-rule:evenodd"/><polyline points="205.98 227.87 205.98 228.72 900 228.72 900 227.87 205.98 227.87" style="fill:#bfbfbf;fill-rule:evenodd"/><polyline points="601.71 185.2 601.71 228.72 602.56 228.72 602.56 185.2 601.71 185.2" style="fill:#bfbfbf;fill-rule:evenodd"/><polyline points="849.57 0.85 849.57 54.62 850.43 54.62 850.43 0.85 849.57 0.85" style="fill:#bfbfbf;fill-rule:evenodd"/><polyline points="0.85 271.39 0.85 272.25 900 272.25 900 271.39 0.85 271.39" style="fill:#bfbfbf;fill-rule:evenodd"/><polyline points="0 0 0 315.77 0.85 315.77 0.85 0 0 0" style="fill:#bfbfbf;fill-rule:evenodd"/><polyline points="0.85 314.92 0.85 315.77 900 315.77 900 314.92 0.85 314.92" style="fill:#bfbfbf;fill-rule:evenodd"/><polyline points="899.14 0.85 899.14 315.77 900 315.77 900 0.85 899.14 0.85" style="fill:#bfbfbf;fill-rule:evenodd"/><polyline points="0 315.77 0 339.67 0.85 339.67 0.85 315.77 0 315.77" style="fill:#fff;fill-rule:evenodd"/><polyline points="105.98 0.85 105.98 315.77 106.84 315.77 106.84 0.85 105.98 0.85" style="fill:#bfbfbf;fill-rule:evenodd"/><polyline points="205.13 0.85 205.13 315.77 205.98 315.77 205.98 0.85 205.13 0.85" style="fill:#bfbfbf;fill-rule:evenodd"/><polyline points="651.28 0.85 651.28 54.62 652.14 54.62 652.14 0.85 651.28 0.85" style="fill:#bfbfbf;fill-rule:evenodd"/><polyline points="0.85 338.81 0.85 339.67 900 339.67 900 338.81 0.85 338.81" style="fill:#fff;fill-rule:evenodd"/><polyline points="899.14 315.77 899.14 339.67 900 339.67 900 315.77 899.14 315.77" style="fill:#fff;fill-rule:evenodd"/></g></svg>