<svg id="Layer_1" data-name="Layer 1" xmlns="http://www.w3.org/2000/svg" xmlns:xlink="http://www.w3.org/1999/xlink" viewBox="0 0 900 350"><defs><clipPath id="clip-path"><polygon points="0 342.32 900 342.32 900 0 0 0 0 342.32 0 342.32" style="fill:none;clip-rule:evenodd"/></clipPath><clipPath id="clip-path-2"><polygon points="58.03 291.64 885.83 291.64 885.83 17.44 58.03 17.44 58.03 291.64 58.03 291.64" style="fill:none;clip-rule:evenodd"/></clipPath><clipPath id="clip-path-6"><rect width="900" height="342.32" style="fill:none"/></clipPath><clipPath id="clip-path-20"><rect x="52.99" y="32.15" width="129" height="17.03" style="fill:none"/></clipPath><clipPath id="clip-path-21"><rect x="172.45" y="47.95" width="129" height="17.03" style="fill:none"/></clipPath><clipPath id="clip-path-22"><rect x="290.56" y="89.22" width="129" height="17.03" style="fill:none"/></clipPath><clipPath id="clip-path-23"><rect x="402.39" y="88" width="129" height="17.03" style="fill:none"/></clipPath><clipPath id="clip-path-24"><rect x="526.76" y="49.31" width="129" height="17.03" style="fill:none"/></clipPath><clipPath id="clip-path-25"><rect x="645" y="41.82" width="129" height="17.16" style="fill:none"/></clipPath><clipPath id="clip-path-26"><rect x="761.87" y="87.86" width="129" height="17.03" style="fill:none"/></clipPath></defs><title>yar</title><polygon points="0.14 0 900 0 900 342.32 0.14 342.32 0.14 0 0.14 0" style="fill:#eaeaea;fill-rule:evenodd"/><polygon points="58.17 17.44 885.02 17.44 885.02 290.83 58.17 290.83 58.17 17.44 58.17 17.44" style="fill:#fff;fill-rule:evenodd"/><path d="M58.17,290.83H885M58.17,222.45H885M58.17,154.2H885M58.17,85.82H885M58.17,17.44H885" style="fill:none;stroke:#d9d9d9;stroke-linejoin:round;stroke-width:0.817314906104197px"/><g style="clip-path:url(#clip-path)"><path d="M58.17,17.44V290.83M176.27,17.44V290.83M294.37,17.44V290.83M412.47,17.44V290.83M530.71,17.44V290.83M648.81,17.44V290.83M766.91,17.44V290.83M885,17.44V290.83" style="fill:none;stroke:#d9d9d9;stroke-linejoin:round;stroke-width:0.817314906104197px"/></g><g style="clip-path:url(#clip-path-2)"><path d="M93.58,239.61h47.27v7.63H93.58v-7.63Zm118.1,0H259v3.13H211.68v-3.13Zm118.11,0h47.26v2.32H329.79v-2.32Zm118.23,0h47.14v7.08H448v-7.08Zm118.11,0h47.26v7.08H566.13v-7.08Zm118.1,0H731.5V243H684.23v-3.41Zm118.1,0H849.6v2.45H802.33v-2.45Z" style="fill:#ff25f3"/></g><g style="clip-path:url(#clip-path-2)"><path d="M93.58,59.8h47.27V239.61H93.58V59.8Zm118.1,19.62H259V239.61H211.68V79.42Zm118.11,44h47.26v116.2H329.79V123.41ZM448,123.14h47.14V239.61H448V123.14ZM566.13,82.41h47.26v157.2H566.13V82.41Zm118.1-13.89H731.5V239.61H684.23V68.52Zm118.1,48.08H849.6v123H802.33v-123Z" style="fill:#5e9fff"/></g><g style="clip-path:url(#clip-path-2)"><path d="M93.58,52.17h47.27V59.8H93.58V52.17Zm118.1,24.11H259v3.14H211.68V76.28ZM329.79,121.1h47.26v2.31H329.79V121.1Zm118.23-5h47.14v7.08H448v-7.08ZM566.13,75.33h47.26v7.08H566.13V75.33Zm118.1-10.22H731.5v3.41H684.23V65.11Zm118.1,49H849.6v2.45H802.33v-2.45Z" style="fill:#0044ab"/></g><g style="clip-path:url(#clip-path)"><line x1="58.17" y1="239.61" x2="885.02" y2="239.61" style="fill:none;stroke:#d9d9d9;stroke-linejoin:round;stroke-width:0.817314906104197px"/></g><g style="clip-path:url(#clip-path-6)"><text transform="translate(111.95 271.28)" style="font-size:9.126680374145508px;font-family:Arial-BoldMT, Arial;font-weight:700">-</text></g><g style="clip-path:url(#clip-path-6)"><text transform="translate(114.95 271.28)" style="font-size:9.126680374145508px;font-family:Arial-BoldMT, Arial;font-weight:700;letter-spacing:-0.002996023622944074em">4<tspan x="5.05" y="0" style="letter-spacing:-0.00010700084367657406em">%</tspan></text></g><g style="clip-path:url(#clip-path-6)"><text transform="translate(228.78 261.23)" style="font-size:9.126680374145508px;font-family:Arial-BoldMT, Arial;font-weight:700">-</text></g><g style="clip-path:url(#clip-path-6)"><text transform="translate(231.77 261.23)" style="font-size:9.126680374145508px;font-family:Arial-BoldMT, Arial;font-weight:700;letter-spacing:-0.002996023622944074em">2<tspan x="5.05" y="0" style="letter-spacing:-0.00010700084367657406em">%</tspan></text></g><g style="clip-path:url(#clip-path-6)"><text transform="translate(345.64 268.68)" style="font-size:9.126680374145508px;font-family:Arial-BoldMT, Arial;font-weight:700">-</text></g><g style="clip-path:url(#clip-path-6)"><text transform="translate(348.64 268.68)" style="font-size:9.126680374145508px;font-family:Arial-BoldMT, Arial;font-weight:700;letter-spacing:-0.002996023622944074em">2<tspan x="5.05" y="0" style="letter-spacing:-0.00010700084367657406em">%</tspan></text></g><g style="clip-path:url(#clip-path-6)"><text transform="translate(465.04 268.67)" style="font-size:9.126680374145508px;font-family:Arial-BoldMT, Arial;font-weight:700">-</text></g><g style="clip-path:url(#clip-path-6)"><text transform="translate(468.03 268.67)" style="font-size:9.126680374145508px;font-family:Arial-BoldMT, Arial;font-weight:700;letter-spacing:-0.002996023622944074em">6<tspan x="5.05" y="0" style="letter-spacing:-0.00010700084367657406em">%</tspan></text></g><g style="clip-path:url(#clip-path-6)"><text transform="translate(580.64 269.23)" style="font-size:9.126680374145508px;font-family:Arial-BoldMT, Arial;font-weight:700">-</text></g><g style="clip-path:url(#clip-path-6)"><text transform="translate(583.64 269.23)" style="font-size:9.126680374145508px;font-family:Arial-BoldMT, Arial;font-weight:700;letter-spacing:-0.002996023622944074em">5<tspan x="5.05" y="0" style="letter-spacing:-0.00010700084367657406em">%</tspan></text></g><g style="clip-path:url(#clip-path-6)"><text transform="translate(700.03 265.37)" style="font-size:9.126680374145508px;font-family:Arial-BoldMT, Arial;font-weight:700">-</text></g><g style="clip-path:url(#clip-path-6)"><text transform="translate(703.02 265.37)" style="font-size:9.126680374145508px;font-family:Arial-BoldMT, Arial;font-weight:700;letter-spacing:-0.002996023622944074em">2<tspan x="5.05" y="0" style="letter-spacing:-0.00010700084367657406em">%</tspan></text></g><g style="clip-path:url(#clip-path-6)"><text transform="translate(823.63 265.22)" style="font-size:9.126680374145508px;font-family:Arial-BoldMT, Arial;font-weight:700">-</text></g><g style="clip-path:url(#clip-path-6)"><text transform="translate(826.63 265.22)" style="font-size:9.126680374145508px;font-family:Arial-BoldMT, Arial;font-weight:700;letter-spacing:-0.002996023622944074em">2<tspan x="5.05" y="0" style="letter-spacing:-0.00010700084367657406em">%</tspan></text></g><g style="clip-path:url(#clip-path-20)"><text transform="translate(108.33 44.01)" style="font-size:9.126680374145508px;font-family:Arial-BoldMT, Arial;font-weight:700"><tspan style="letter-spacing:-0.0010700084367657407em">+</tspan><tspan x="5.32" y="0" style="letter-spacing:-0.002996023622944074em">4</tspan><tspan x="10.37" y="0">%</tspan></text></g><g style="clip-path:url(#clip-path-21)"><text transform="translate(227.73 59.86)" style="font-size:9.126680374145508px;font-family:Arial-BoldMT, Arial;font-weight:700"><tspan style="letter-spacing:-0.0010700084367657407em">+</tspan><tspan x="5.32" y="0" style="letter-spacing:-0.002996023622944074em">2</tspan><tspan x="10.37" y="0">%</tspan></text></g><g style="clip-path:url(#clip-path-22)"><text transform="translate(345.86 101.1)" style="font-size:9.126680374145508px;font-family:Arial-BoldMT, Arial;font-weight:700"><tspan style="letter-spacing:-0.0010700084367657407em">+</tspan><tspan x="5.32" y="0" style="letter-spacing:-0.002996023622944074em">2</tspan><tspan x="10.37" y="0">%</tspan></text></g><g style="clip-path:url(#clip-path-23)"><text transform="translate(457.65 99.88)" style="font-size:9.126680374145508px;font-family:Arial-BoldMT, Arial;font-weight:700"><tspan style="letter-spacing:-0.0010700084367657407em">+</tspan><tspan x="5.32" y="0" style="letter-spacing:-0.002996023622944074em">6</tspan><tspan x="10.37" y="0">%</tspan></text></g><g style="clip-path:url(#clip-path-24)"><text transform="translate(582.11 61.15)" style="font-size:9.126680374145508px;font-family:Arial-BoldMT, Arial;font-weight:700"><tspan style="letter-spacing:-0.0010700084367657407em">+</tspan><tspan x="5.32" y="0" style="letter-spacing:-0.002996023622944074em">5</tspan><tspan x="10.37" y="0">%</tspan></text></g><g style="clip-path:url(#clip-path-25)"><text transform="translate(700.24 53.77)" style="font-size:9.126680374145508px;font-family:Arial-BoldMT, Arial;font-weight:700"><tspan style="letter-spacing:-0.0010700084367657407em">+</tspan><tspan x="5.32" y="0" style="letter-spacing:-0.002996023622944074em">2</tspan><tspan x="10.37" y="0">%</tspan></text></g><g style="clip-path:url(#clip-path-26)"><text transform="translate(817.11 99.75)" style="font-size:9.126680374145508px;font-family:Arial-BoldMT, Arial;font-weight:700"><tspan style="letter-spacing:-0.0010700084367657407em">+</tspan><tspan x="5.32" y="0" style="letter-spacing:-0.002996023622944074em">2</tspan><tspan x="10.37" y="0">%</tspan></text></g><g style="clip-path:url(#clip-path-6)"><text transform="translate(26.07 294.1)" style="font-size:10.216440200805664px;font-family:Arial-BoldMT, Arial;font-weight:700">-<tspan x="3.4" y="0" style="letter-spacing:0.002963208016194589em">3</tspan><tspan x="9.11" y="0" style="letter-spacing:0.002007334462583431em">.</tspan><tspan x="11.97" y="0" style="letter-spacing:-0.008985211403944883em">0</tspan><tspan x="17.56" y="0">0</tspan></text></g><g style="clip-path:url(#clip-path-6)"><text transform="translate(29.47 225.77)" style="font-size:10.216440200805664px;font-family:Arial-BoldMT, Arial;font-weight:700;letter-spacing:0.0030587953715557046em">1<tspan x="5.71" y="0" style="letter-spacing:0.0019117471072223155em">.</tspan><tspan x="8.57" y="0" style="letter-spacing:-0.008985211403944883em">0</tspan><tspan x="14.16" y="0" style="letter-spacing:0.00009558735536111577em">0</tspan></text></g><g style="clip-path:url(#clip-path-6)"><text transform="translate(29.47 157.43)" style="font-size:10.216440200805664px;font-family:Arial-BoldMT, Arial;font-weight:700;letter-spacing:0.0030587953715557046em">5<tspan x="5.71" y="0" style="letter-spacing:0.0019117471072223155em">.</tspan><tspan x="8.57" y="0" style="letter-spacing:-0.008985211403944883em">0</tspan><tspan x="14.16" y="0" style="letter-spacing:0.00009558735536111577em">0</tspan></text></g><g style="clip-path:url(#clip-path-6)"><text transform="translate(29.47 89.09)" style="font-size:10.216440200805664px;font-family:Arial-BoldMT, Arial;font-weight:700;letter-spacing:0.0030587953715557046em">9<tspan x="5.71" y="0" style="letter-spacing:0.0019117471072223155em">.</tspan><tspan x="8.57" y="0" style="letter-spacing:-0.008985211403944883em">0</tspan><tspan x="14.16" y="0" style="letter-spacing:0.00009558735536111577em">0</tspan></text></g><g style="clip-path:url(#clip-path-6)"><text transform="translate(23.78 20.76)" style="font-size:10.216440200805664px;font-family:Arial-BoldMT, Arial;font-weight:700"><tspan style="letter-spacing:0.0030587953715557046em">1</tspan><tspan x="5.71" y="0" style="letter-spacing:-0.008985211403944883em">3</tspan><tspan x="11.3" y="0" style="letter-spacing:0.0019117471072223155em">.</tspan><tspan x="14.16" y="0" style="letter-spacing:0.0030587953715557046em">0</tspan><tspan x="19.87" y="0">0</tspan></text></g><g style="clip-path:url(#clip-path-6)"><text transform="translate(108.97 306.28)" style="font-size:10.216440200805664px;font-family:Arial-BoldMT, Arial;font-weight:700"><tspan style="letter-spacing:-0.002007334462583431em">R</tspan><tspan x="7.36" y="0">-4</tspan></text></g><g style="clip-path:url(#clip-path-6)"><text transform="translate(227.1 306.28)" style="font-size:10.216440200805664px;font-family:Arial-BoldMT, Arial;font-weight:700"><tspan style="letter-spacing:-0.002007334462583431em">R</tspan><tspan x="7.36" y="0">-5</tspan></text></g><g style="clip-path:url(#clip-path-6)"><text transform="translate(345.23 306.28)" style="font-size:10.216440200805664px;font-family:Arial-BoldMT, Arial;font-weight:700"><tspan style="letter-spacing:-0.002007334462583431em">R</tspan><tspan x="7.36" y="0">-6</tspan></text></g><g style="clip-path:url(#clip-path-6)"><text transform="translate(460.52 306.28)" style="font-size:10.216440200805664px;font-family:Arial-BoldMT, Arial;font-weight:700"><tspan style="letter-spacing:-0.002007334462583431em">R</tspan><tspan x="7.36" y="0">-</tspan><tspan x="10.76" y="0" style="letter-spacing:0.0030587953715557046em">1</tspan><tspan x="16.47" y="0">2</tspan></text></g><g style="clip-path:url(#clip-path-6)"><text transform="translate(578.64 306.28)" style="font-size:10.216440200805664px;font-family:Arial-BoldMT, Arial;font-weight:700"><tspan style="letter-spacing:-0.002007334462583431em">R</tspan><tspan x="7.36" y="0">-</tspan><tspan x="10.76" y="0" style="letter-spacing:0.0030587953715557046em">1</tspan><tspan x="16.47" y="0">4</tspan></text></g><g style="clip-path:url(#clip-path-6)"><text transform="translate(696.77 306.28)" style="font-size:10.216440200805664px;font-family:Arial-BoldMT, Arial;font-weight:700"><tspan style="letter-spacing:-0.002007334462583431em">R</tspan><tspan x="7.36" y="0">-</tspan><tspan x="10.76" y="0" style="letter-spacing:0.0030587953715557046em">1</tspan><tspan x="16.47" y="0">5</tspan></text></g><g style="clip-path:url(#clip-path-6)"><text transform="translate(814.9 306.28)" style="font-size:10.216440200805664px;font-family:Arial-BoldMT, Arial;font-weight:700"><tspan style="letter-spacing:-0.002007334462583431em">R</tspan><tspan x="7.36" y="0">-</tspan><tspan x="10.76" y="0" style="letter-spacing:0.0030587953715557046em">2</tspan><tspan x="16.47" y="0">4</tspan></text></g><g style="clip-path:url(#clip-path-6)"><text transform="translate(17.34 224.92) rotate(-90)" style="font-size:11.306190490722656px;font-family:Arial-BoldMT, Arial;font-weight:700"><tspan style="letter-spacing:0.005009700220996339em">Q</tspan><tspan x="8.85" y="0" style="letter-spacing:0.0030230949609460667em">u</tspan><tspan x="15.79" y="0" style="letter-spacing:-0.0010364897008957943em">a</tspan><tspan x="22.07" y="0" style="letter-spacing:0.0030230949609460667em">n</tspan><tspan x="29.01" y="0" style="letter-spacing:0.0040595846618418615em">t</tspan><tspan x="32.82" y="0" style="letter-spacing:-0.00008637414174131619em">i</tspan><tspan x="35.96" y="0" style="letter-spacing:0.0040595846618418615em">t</tspan><tspan x="39.77" y="0" style="letter-spacing:-0.013042495402938746em">y</tspan><tspan x="45.91" y="0" style="letter-spacing:0.010969516001147157em"> </tspan><tspan x="49.18" y="0">&amp; </tspan><tspan x="60.48" y="0" style="letter-spacing:0.006996305481046612em">Y</tspan><tspan x="68.1" y="0" style="letter-spacing:-0.0010364897008957943em">a</tspan><tspan x="74.38" y="0">R</tspan><tspan x="82.54" y="0" style="letter-spacing:0.010969516001147157em"> </tspan><tspan x="85.81" y="0" style="letter-spacing:0.0040595846618418615em">(</tspan><tspan x="89.62" y="0" style="letter-spacing:0.022025406144035628em">M</tspan><tspan x="99.29" y="0" style="letter-spacing:0.015029100662989018em">T</tspan><tspan x="106.36" y="0">)</tspan></text></g><g style="clip-path:url(#clip-path-6)"><text transform="translate(429.81 335.54)" style="font-size:11.306190490722656px;font-family:Arial-BoldMT, Arial;font-weight:700">R<tspan x="8.17" y="0" style="letter-spacing:-0.0010364897008957943em">e</tspan><tspan x="14.44" y="0" style="letter-spacing:0.0030230949609460667em">g</tspan><tspan x="21.38" y="0">i</tspan><tspan x="24.52" y="0" style="letter-spacing:0.0029367208192047508em">on</tspan><tspan x="38.4" y="0">s</tspan></text></g><polygon points="0.14 0 900 0 900 342.32 0.14 342.32 0.14 0 0.14 0" style="fill:none;stroke:#d9d9d9;stroke-linejoin:round;stroke-width:0.817314973764984px"/></svg>