<svg id="Layer_1" data-name="Layer 1" xmlns="http://www.w3.org/2000/svg" xmlns:xlink="http://www.w3.org/1999/xlink" viewBox="0 0 900 350"><defs><clipPath id="clip-path"><polygon points="4.61 346.25 895.86 346.25 895.86 2.04 4.61 2.04 4.61 346.25 4.61 346.25" style="fill:none;clip-rule:evenodd"/></clipPath><clipPath id="clip-path-2"><polygon points="72.75 303.16 867.48 303.16 867.48 19.45 72.75 19.45 72.75 303.16 72.75 303.16" style="fill:none;clip-rule:evenodd"/></clipPath><clipPath id="clip-path-6"><polygon points="4.61 346.25 895.86 346.25 895.86 2.04 4.61 2.04 4.61 346.25 4.61 346.25" style="fill:none;clip-rule:evenodd"/></clipPath><clipPath id="clip-path-13"><rect x="4.61" y="2.04" width="891.25" height="344.21" style="fill:none"/></clipPath></defs><title>ground-truth-risk-report</title><polygon points="4.61 2.04 896 2.04 896 346.39 4.61 346.39 4.61 2.04 4.61 2.04" style="fill:#eaeaea;fill-rule:evenodd"/><polygon points="72.88 19.45 866.66 19.45 866.66 302.35 72.88 302.35 72.88 19.45 72.88 19.45" style="fill:#fff;fill-rule:evenodd"/><path d="M72.88,231.65H866.66M72.88,161H866.66M72.88,90.14H866.66M72.88,19.44H866.66" style="fill:none;stroke:#d9d9d9;stroke-linejoin:round;stroke-width:0.819110223538073px"/><g style="clip-path:url(#clip-path)"><path d="M72.88,19.44V302.35M337.47,19.44V302.35M602.07,19.44V302.35M866.66,19.44V302.35" style="fill:none;stroke:#d9d9d9;stroke-linejoin:round;stroke-width:0.819110223538073px"/></g><g style="clip-path:url(#clip-path-2)"><polygon points="154.32 61.86 256.04 61.86 256.04 302.35 154.32 302.35 154.32 61.86 154.32 61.86" style="fill:#5e9fff;fill-rule:evenodd"/><polygon points="154.32 61.86 256.04 61.86 256.04 302.35 154.32 302.35 154.32 61.86 154.32 61.86" style="fill:none;stroke:#7f7f7f;stroke-linejoin:round;stroke-width:0.819110223538073px"/><polygon points="418.91 59.82 520.63 59.82 520.63 302.35 418.91 302.35 418.91 59.82 418.91 59.82" style="fill:#5e9fff;fill-rule:evenodd"/><polygon points="418.91 59.82 520.63 59.82 520.63 302.35 418.91 302.35 418.91 59.82 418.91 59.82" style="fill:none;stroke:#7f7f7f;stroke-linejoin:round;stroke-width:0.819110223538073px"/><polygon points="683.5 57.65 785.23 57.65 785.23 302.35 683.5 302.35 683.5 57.65 683.5 57.65" style="fill:#5e9fff;fill-rule:evenodd"/><polygon points="683.5 57.65 785.23 57.65 785.23 302.35 683.5 302.35 683.5 57.65 683.5 57.65" style="fill:none;stroke:#7f7f7f;stroke-linejoin:round;stroke-width:0.819110223538073px"/></g><g style="clip-path:url(#clip-path)"><line x1="72.88" y1="302.35" x2="866.66" y2="302.35" style="fill:none;stroke:#d9d9d9;stroke-linejoin:round;stroke-width:0.819110223538073px"/></g><g style="clip-path:url(#clip-path)"><path d="M72.88,302.35v3m264.59-3v3m264.6-3v3m264.59-3v3" style="fill:none;stroke:#d9d9d9;stroke-linejoin:round;stroke-width:0.819110223538073px"/></g><g style="clip-path:url(#clip-path-2)"><polyline points="205.18 33.45 469.77 33.45 734.36 33.45" style="fill:none;stroke:#06f;stroke-miterlimit:10;stroke-width:1.365px;stroke-dasharray:5,5"/></g><g style="clip-path:url(#clip-path-6)"><path d="M208.1,33.5a2.88,2.88,0,1,1-2.88-2.86,2.86,2.86,0,0,1,2.88,2.86Z" style="fill:#06f"/><path d="M208.1,33.5a2.88,2.88,0,1,1-2.88-2.86,2.86,2.86,0,0,1,2.88,2.86Z" style="fill:none;stroke:#1c497c;stroke-linejoin:round;stroke-width:0.819110291347484px"/><path d="M472.69,33.5a2.88,2.88,0,1,1-2.88-2.86,2.86,2.86,0,0,1,2.88,2.86Z" style="fill:#06f"/><path d="M472.69,33.5a2.88,2.88,0,1,1-2.88-2.86,2.86,2.86,0,0,1,2.88,2.86Z" style="fill:none;stroke:#1c497c;stroke-linejoin:round;stroke-width:0.819110291347484px"/><path d="M737.29,33.5a2.88,2.88,0,1,1-2.88-2.86,2.86,2.86,0,0,1,2.88,2.86Z" style="fill:#06f"/><path d="M737.29,33.5a2.88,2.88,0,1,1-2.88-2.86,2.86,2.86,0,0,1,2.88,2.86Z" style="fill:none;stroke:#1c497c;stroke-linejoin:round;stroke-width:0.819110291347484px"/></g><g style="clip-path:url(#clip-path-2)"><polyline points="205.18 97.61 469.77 97.61 734.36 97.61" style="fill:none;stroke:#ff25f3;stroke-miterlimit:10;stroke-width:1.365px;stroke-dasharray:5,5"/></g><g style="clip-path:url(#clip-path-6)"><path d="M208.1,97.67a2.88,2.88,0,1,1-2.88-2.86,2.87,2.87,0,0,1,2.88,2.86Z" style="fill:#ff25f3"/><path d="M208.1,97.67a2.88,2.88,0,1,1-2.88-2.86,2.87,2.87,0,0,1,2.88,2.86Z" style="fill:none;stroke:#d9d9d9;stroke-linejoin:round;stroke-width:0.819110291347484px"/><path d="M472.69,97.67a2.88,2.88,0,1,1-2.88-2.86,2.87,2.87,0,0,1,2.88,2.86Z" style="fill:#ff25f3"/><path d="M472.69,97.67a2.88,2.88,0,1,1-2.88-2.86,2.87,2.87,0,0,1,2.88,2.86Z" style="fill:none;stroke:#d9d9d9;stroke-linejoin:round;stroke-width:0.819110291347484px"/><path d="M737.29,97.67a2.88,2.88,0,1,1-2.88-2.86,2.87,2.87,0,0,1,2.88,2.86Z" style="fill:#ff25f3"/><path d="M737.29,97.67a2.88,2.88,0,1,1-2.88-2.86,2.87,2.87,0,0,1,2.88,2.86Z" style="fill:none;stroke:#d9d9d9;stroke-linejoin:round;stroke-width:0.819110291347484px"/></g><g style="clip-path:url(#clip-path-2)"><polyline points="205.18 54.79 469.77 54.79 734.36 54.79" style="fill:none;stroke:#7f7f7f;stroke-linecap:round;stroke-linejoin:round;stroke-width:1.36518368329365px"/></g><g style="clip-path:url(#clip-path-6)"><path d="M208.1,54.84A2.88,2.88,0,1,1,205.22,52a2.87,2.87,0,0,1,2.88,2.85Z" style="fill:#7f7f7f"/><path d="M208.1,54.84A2.88,2.88,0,1,1,205.22,52a2.87,2.87,0,0,1,2.88,2.85Z" style="fill:none;stroke:#7f7f7f;stroke-linejoin:round;stroke-width:0.819110291347484px"/><path d="M472.69,54.84A2.88,2.88,0,1,1,469.81,52a2.87,2.87,0,0,1,2.88,2.85Z" style="fill:#7f7f7f"/><path d="M472.69,54.84A2.88,2.88,0,1,1,469.81,52a2.87,2.87,0,0,1,2.88,2.85Z" style="fill:none;stroke:#7f7f7f;stroke-linejoin:round;stroke-width:0.819110291347484px"/><path d="M737.29,54.84A2.88,2.88,0,1,1,734.41,52a2.87,2.87,0,0,1,2.88,2.85Z" style="fill:#7f7f7f"/><path d="M737.29,54.84A2.88,2.88,0,1,1,734.41,52a2.87,2.87,0,0,1,2.88,2.85Z" style="fill:none;stroke:#7f7f7f;stroke-linejoin:round;stroke-width:0.819110291347484px"/></g><g style="clip-path:url(#clip-path-2)"><polyline points="205.18 61.86 469.77 61.86 734.36 61.86" style="fill:none;stroke:#00c1a3;stroke-linecap:round;stroke-linejoin:round;stroke-width:1.36518368329365px"/></g><g style="clip-path:url(#clip-path-6)"><path d="M208.1,61.91a2.88,2.88,0,1,1-2.88-2.85,2.87,2.87,0,0,1,2.88,2.85Z" style="fill:#00c1a3"/><path d="M208.1,61.91a2.88,2.88,0,1,1-2.88-2.85,2.87,2.87,0,0,1,2.88,2.85Z" style="fill:none;stroke:#d9d9d9;stroke-linejoin:round;stroke-width:0.819110291347484px"/><path d="M472.69,61.91a2.88,2.88,0,1,1-2.88-2.85,2.87,2.87,0,0,1,2.88,2.85Z" style="fill:#00c1a3"/><path d="M472.69,61.91a2.88,2.88,0,1,1-2.88-2.85,2.87,2.87,0,0,1,2.88,2.85Z" style="fill:none;stroke:#d9d9d9;stroke-linejoin:round;stroke-width:0.819110291347484px"/><path d="M737.29,61.91a2.88,2.88,0,1,1-2.88-2.85,2.87,2.87,0,0,1,2.88,2.85Z" style="fill:#00c1a3"/><path d="M737.29,61.91a2.88,2.88,0,1,1-2.88-2.85,2.87,2.87,0,0,1,2.88,2.85Z" style="fill:none;stroke:#d9d9d9;stroke-linejoin:round;stroke-width:0.819110291347484px"/></g><g style="clip-path:url(#clip-path-13)"><text transform="translate(43.98 305.57) scale(1.01 1)" style="font-size:10.195839881896973px;font-family:ArialMT, Arial"><tspan style="letter-spacing:0.002944286274870392em">2</tspan><tspan x="5.7" y="0" style="letter-spacing:0.002089493485391891em">.</tspan><tspan x="8.55" y="0" style="letter-spacing:-0.009117789754437344em">5</tspan><tspan x="14.13" y="0">0</tspan></text></g><g style="clip-path:url(#clip-path-13)"><text transform="translate(43.98 234.86) scale(1.01 1)" style="font-size:10.195839881896973px;font-family:ArialMT, Arial"><tspan style="letter-spacing:0.002944286274870392em">3</tspan><tspan x="5.7" y="0" style="letter-spacing:0.002089493485391891em">.</tspan><tspan x="8.55" y="0" style="letter-spacing:-0.009117789754437344em">5</tspan><tspan x="14.13" y="0">0</tspan></text></g><g style="clip-path:url(#clip-path-13)"><text transform="translate(43.98 164.15) scale(1.01 1)" style="font-size:10.195839881896973px;font-family:ArialMT, Arial"><tspan style="letter-spacing:0.002944286274870392em">4</tspan><tspan x="5.7" y="0" style="letter-spacing:0.002089493485391891em">.</tspan><tspan x="8.55" y="0" style="letter-spacing:-0.009117789754437344em">5</tspan><tspan x="14.13" y="0">0</tspan></text></g><g style="clip-path:url(#clip-path-13)"><text transform="translate(43.98 93.43) scale(1.01 1)" style="font-size:10.195839881896973px;font-family:ArialMT, Arial"><tspan style="letter-spacing:0.002944286274870392em">5</tspan><tspan x="5.7" y="0" style="letter-spacing:0.002089493485391891em">.</tspan><tspan x="8.55" y="0" style="letter-spacing:-0.009117789754437344em">5</tspan><tspan x="14.13" y="0">0</tspan></text></g><g style="clip-path:url(#clip-path-13)"><text transform="translate(43.98 22.73) scale(1.01 1)" style="font-size:10.195839881896973px;font-family:ArialMT, Arial"><tspan style="letter-spacing:0.002944286274870392em">6</tspan><tspan x="5.7" y="0" style="letter-spacing:0.002089493485391891em">.</tspan><tspan x="8.55" y="0" style="letter-spacing:-0.009117789754437344em">5</tspan><tspan x="14.13" y="0">0</tspan></text></g><g style="clip-path:url(#clip-path-13)"><text transform="translate(192.84 317.71) scale(1.01 1)" style="font-size:10.195839881896973px;font-family:ArialMT, Arial">Oct</text></g><g style="clip-path:url(#clip-path-13)"><text transform="translate(455.44 317.71) scale(1.01 1)" style="font-size:10.195839881896973px;font-family:ArialMT, Arial">Nov</text></g><g style="clip-path:url(#clip-path-13)"><text transform="translate(724.04 317.71) scale(1.01 1)" style="font-size:10.195839881896973px;font-family:ArialMT, Arial">Dec</text></g><g style="clip-path:url(#clip-path-13)"><text transform="translate(21.14 220.56) rotate(-90) scale(0.99 1)" style="font-size:11.378849983215332px;font-family:Arial-BoldMT, Arial;font-weight:700"><tspan style="letter-spacing:0.005019827245864323em">Q</tspan><tspan x="8.91" y="0" style="letter-spacing:0.0029426573510239135em">u</tspan><tspan x="15.89" y="0" style="letter-spacing:-0.0009520362018018544em">a</tspan><tspan x="22.21" y="0" style="letter-spacing:0.0029426573510239135em">n</tspan><tspan x="29.19" y="0" style="letter-spacing:0.003981242298444119em">t</tspan><tspan x="33.03" y="0">i</tspan><tspan x="36.19" y="0" style="letter-spacing:0.003981242298444119em">t</tspan><tspan x="40.03" y="0" style="letter-spacing:-0.012982311842752559em">y</tspan><tspan x="46.21" y="0" style="letter-spacing:0.010991690693530499em"> </tspan><tspan x="49.49" y="0" style="letter-spacing:0.003981242298444119em">(</tspan><tspan x="53.33" y="0" style="letter-spacing:0.021983381387060998em">M</tspan><tspan x="63.06" y="0" style="letter-spacing:0.014972932991974618em">T</tspan><tspan x="70.18" y="0" style="letter-spacing:-0.00008654874561835039em">)</tspan></text></g><g style="clip-path:url(#clip-path-13)"><text transform="translate(420.46 333.99) scale(1.01 1)" style="font-size:11.28339958190918px;font-family:Arial-BoldMT, Arial;font-weight:700"><tspan style="letter-spacing:0.015018945027553241em">T</tspan><tspan x="7.06" y="0" style="letter-spacing:0.00008582254301458996em">i</tspan><tspan x="10.2" y="0" style="letter-spacing:0.001973918489335569em">m</tspan><tspan x="20.25" y="0" style="letter-spacing:-0.0009440479731604895em">e</tspan><tspan x="26.52" y="0"> </tspan><tspan x="29.65" y="0" style="letter-spacing:-0.004033659521685729em">P</tspan><tspan x="37.13" y="0" style="letter-spacing:-0.0009440479731604895em">e</tspan><tspan x="43.4" y="0" style="letter-spacing:-0.003003789005510649em">r</tspan><tspan x="47.75" y="0" style="letter-spacing:0.00008582254301458996em">i</tspan><tspan x="50.89" y="0" style="letter-spacing:0.003003789005510649em">o</tspan><tspan x="57.81" y="0" style="letter-spacing:0.00008582254301458996em">d</tspan></text></g><polygon points="4.61 2.04 896 2.04 896 346.39 4.61 346.39 4.61 2.04 4.61 2.04" style="fill:none;stroke:#d9d9d9;stroke-linejoin:round;stroke-width:0.819110291347484px"/></svg>