<svg id="Layer_1" data-name="Layer 1" xmlns="http://www.w3.org/2000/svg" xmlns:xlink="http://www.w3.org/1999/xlink" viewBox="0 0 900 350"><defs><clipPath id="clip-path"><polygon points="3.13 338.57 894.38 338.57 894.38 2.9 3.13 2.9 3.13 338.57 3.13 338.57" style="fill:none;clip-rule:evenodd"/></clipPath><clipPath id="clip-path-6"><polygon points="75.97 280.65 883.43 280.65 883.43 17.28 75.97 17.28 75.97 280.65 75.97 280.65" style="fill:none;clip-rule:evenodd"/></clipPath><clipPath id="clip-path-10"><rect x="3.13" y="2.9" width="891.25" height="335.67" style="fill:none"/></clipPath></defs><title>ndvi-risk-report</title><polygon points="3.13 2.9 894.52 2.9 894.52 338.57 3.13 338.57 3.13 2.9 3.13 2.9" style="fill:#eaeaea;fill-rule:evenodd"/><polygon points="75.97 17.28 882.61 17.28 882.61 279.82 75.97 279.82 75.97 17.28 75.97 17.28" style="fill:#fff;fill-rule:evenodd"/><path d="M76,214.15H882.61M76,148.62H882.61M76,83H882.61M76,17.28H882.61" style="fill:none;stroke:#d9d9d9;stroke-linejoin:round;stroke-width:0.825516358350733px"/><g style="clip-path:url(#clip-path)"><path d="M109.66,17.28V279.82M176.89,17.28V279.82M244.12,17.28V279.82M311.35,17.28V279.82m67.1-262.54V279.82M445.68,17.28V279.82M512.91,17.28V279.82M580.14,17.28V279.82M647.37,17.28V279.82M714.6,17.28V279.82M781.83,17.28V279.82m67.1-262.54V279.82" style="fill:none;stroke:#f2f2f2;stroke-linejoin:round;stroke-width:0.825516358350733px"/></g><g style="clip-path:url(#clip-path)"><path d="M76,17.28V279.82M143.21,17.28V279.82M210.44,17.28V279.82M277.67,17.28V279.82M344.9,17.28V279.82M412.13,17.28V279.82M479.36,17.28V279.82M546.59,17.28V279.82m67.1-262.54V279.82M680.92,17.28V279.82M748.15,17.28V279.82M815.38,17.28V279.82M882.61,17.28V279.82" style="fill:none;stroke:#d9d9d9;stroke-linejoin:round;stroke-width:0.825516358350733px"/></g><g style="clip-path:url(#clip-path)"><line x1="75.98" y1="279.82" x2="882.61" y2="279.82" style="fill:none;stroke:#d9d9d9;stroke-linejoin:round;stroke-width:1.37586057447131px"/></g><g style="clip-path:url(#clip-path)"><path d="M76,279.82v18.66M344.9,279.82v18.66m268.79-18.66v18.66m268.92-18.66v18.66" style="fill:none;stroke:#d9d9d9;stroke-linejoin:round;stroke-width:1.37586057447131px"/></g><g style="clip-path:url(#clip-path)"><path d="M76,298.48v18.8m268.92-18.8v18.8m268.79-18.8v18.8m268.92-18.8v18.8" style="fill:none;stroke:#d9d9d9;stroke-linejoin:round;stroke-width:1.37586057447131px"/></g><g style="clip-path:url(#clip-path-6)"><polyline points="109.66 161.75 176.89 127.61 244.12 96.08 311.35 80.32 378.45 69.82 445.68 64.56 512.91 75.07 580.14 96.08 647.37 122.35 714.6 135.49 781.83 148.62 848.92 164.38" style="fill:none;stroke:#ff25f3;stroke-linecap:round;stroke-linejoin:round;stroke-width:2.47654900671246px"/></g><g style="clip-path:url(#clip-path)"><polygon points="106.81 158.85 112.56 158.85 112.56 164.66 106.81 164.66 106.81 158.85 106.81 158.85" style="fill:#ff25f3;fill-rule:evenodd"/><polygon points="106.81 158.85 112.56 158.85 112.56 164.66 106.81 164.66 106.81 158.85 106.81 158.85" style="fill:none;stroke:#ff25f3;stroke-linejoin:round;stroke-width:0.825516426690471px"/><polygon points="174.04 124.7 179.8 124.7 179.8 130.51 174.04 130.51 174.04 124.7 174.04 124.7" style="fill:#ff25f3;fill-rule:evenodd"/><polygon points="174.04 124.7 179.8 124.7 179.8 130.51 174.04 130.51 174.04 124.7 174.04 124.7" style="fill:none;stroke:#ff25f3;stroke-linejoin:round;stroke-width:0.825516426690471px"/><polygon points="241.28 93.18 247.03 93.18 247.03 98.99 241.28 98.99 241.28 93.18 241.28 93.18" style="fill:#ff25f3;fill-rule:evenodd"/><polygon points="241.28 93.18 247.03 93.18 247.03 98.99 241.28 98.99 241.28 93.18 241.28 93.18" style="fill:none;stroke:#ff25f3;stroke-linejoin:round;stroke-width:0.825516426690471px"/><polygon points="308.51 77.42 314.26 77.42 314.26 83.23 308.51 83.23 308.51 77.42 308.51 77.42" style="fill:#ff25f3;fill-rule:evenodd"/><polygon points="308.51 77.42 314.26 77.42 314.26 83.23 308.51 83.23 308.51 77.42 308.51 77.42" style="fill:none;stroke:#ff25f3;stroke-linejoin:round;stroke-width:0.825516426690471px"/><polygon points="375.6 66.92 381.35 66.92 381.35 72.72 375.6 72.72 375.6 66.92 375.6 66.92" style="fill:#ff25f3;fill-rule:evenodd"/><polygon points="375.6 66.92 381.35 66.92 381.35 72.72 375.6 72.72 375.6 66.92 375.6 66.92" style="fill:none;stroke:#ff25f3;stroke-linejoin:round;stroke-width:0.825516426690471px"/><polygon points="442.83 61.66 448.58 61.66 448.58 67.47 442.83 67.47 442.83 61.66 442.83 61.66" style="fill:#ff25f3;fill-rule:evenodd"/><polygon points="442.83 61.66 448.58 61.66 448.58 67.47 442.83 67.47 442.83 61.66 442.83 61.66" style="fill:none;stroke:#ff25f3;stroke-linejoin:round;stroke-width:0.825516426690471px"/><polygon points="510.06 72.17 515.81 72.17 515.81 77.97 510.06 77.97 510.06 72.17 510.06 72.17" style="fill:#ff25f3;fill-rule:evenodd"/><polygon points="510.06 72.17 515.81 72.17 515.81 77.97 510.06 77.97 510.06 72.17 510.06 72.17" style="fill:none;stroke:#ff25f3;stroke-linejoin:round;stroke-width:0.825516426690471px"/><polygon points="577.29 93.18 583.04 93.18 583.04 98.99 577.29 98.99 577.29 93.18 577.29 93.18" style="fill:#ff25f3;fill-rule:evenodd"/><polygon points="577.29 93.18 583.04 93.18 583.04 98.99 577.29 98.99 577.29 93.18 577.29 93.18" style="fill:none;stroke:#ff25f3;stroke-linejoin:round;stroke-width:0.825516426690471px"/><polygon points="644.52 119.45 650.27 119.45 650.27 125.26 644.52 125.26 644.52 119.45 644.52 119.45" style="fill:#ff25f3;fill-rule:evenodd"/><polygon points="644.52 119.45 650.27 119.45 650.27 125.26 644.52 125.26 644.52 119.45 644.52 119.45" style="fill:none;stroke:#ff25f3;stroke-linejoin:round;stroke-width:0.825516426690471px"/><polygon points="711.75 132.58 717.51 132.58 717.51 138.39 711.75 138.39 711.75 132.58 711.75 132.58" style="fill:#ff25f3;fill-rule:evenodd"/><polygon points="711.75 132.58 717.51 132.58 717.51 138.39 711.75 138.39 711.75 132.58 711.75 132.58" style="fill:none;stroke:#ff25f3;stroke-linejoin:round;stroke-width:0.825516426690471px"/><polygon points="778.99 145.72 784.74 145.72 784.74 151.52 778.99 151.52 778.99 145.72 778.99 145.72" style="fill:#ff25f3;fill-rule:evenodd"/><polygon points="778.99 145.72 784.74 145.72 784.74 151.52 778.99 151.52 778.99 145.72 778.99 145.72" style="fill:none;stroke:#ff25f3;stroke-linejoin:round;stroke-width:0.825516426690471px"/><polygon points="846.08 161.48 851.83 161.48 851.83 167.28 846.08 167.28 846.08 161.48 846.08 161.48" style="fill:#ff25f3;fill-rule:evenodd"/><polygon points="846.08 161.48 851.83 161.48 851.83 167.28 846.08 167.28 846.08 161.48 846.08 161.48" style="fill:none;stroke:#ff25f3;stroke-linejoin:round;stroke-width:0.825516426690471px"/></g><g style="clip-path:url(#clip-path-6)"><polyline points="109.66 174.89 176.89 143.37 244.12 111.84 311.35 96.08 378.45 85.58 445.68 75.07 512.91 85.58 580.14 96.08 647.37 127.61 714.6 143.37 781.83 156.5 848.92 174.89" style="fill:none;stroke:#06f;stroke-linecap:round;stroke-linejoin:round;stroke-width:2.47654900671246px"/></g><g style="clip-path:url(#clip-path)"><path d="M112.57,174.89a2.88,2.88,0,1,1-2.88-2.91,2.89,2.89,0,0,1,2.88,2.91Z" style="fill:#06f"/><path d="M179.8,143.37a2.88,2.88,0,1,1-2.88-2.91,2.89,2.89,0,0,1,2.88,2.91Z" style="fill:#06f"/><path d="M247,111.85a2.88,2.88,0,1,1-2.88-2.91,2.89,2.89,0,0,1,2.88,2.91Z" style="fill:#06f"/><path d="M314.26,96.09a2.88,2.88,0,1,1-2.88-2.91,2.89,2.89,0,0,1,2.88,2.91Z" style="fill:#06f"/><path d="M381.35,85.58a2.88,2.88,0,1,1-2.87-2.9,2.89,2.89,0,0,1,2.87,2.9Z" style="fill:#06f"/><path d="M448.58,75.07a2.88,2.88,0,1,1-2.87-2.9,2.88,2.88,0,0,1,2.87,2.9Z" style="fill:#06f"/><path d="M515.81,85.58a2.88,2.88,0,1,1-2.87-2.9,2.88,2.88,0,0,1,2.87,2.9Z" style="fill:#06f"/><path d="M583,96.09a2.88,2.88,0,1,1-2.87-2.91A2.88,2.88,0,0,1,583,96.09Z" style="fill:#06f"/><path d="M650.28,127.61a2.88,2.88,0,1,1-2.88-2.91,2.89,2.89,0,0,1,2.88,2.91Z" style="fill:#06f"/><path d="M717.51,143.37a2.88,2.88,0,1,1-2.88-2.91,2.89,2.89,0,0,1,2.88,2.91Z" style="fill:#06f"/><path d="M784.74,156.5a2.88,2.88,0,1,1-2.88-2.9,2.89,2.89,0,0,1,2.88,2.9Z" style="fill:#06f"/><path d="M851.83,174.89A2.88,2.88,0,1,1,849,172a2.89,2.89,0,0,1,2.87,2.91Z" style="fill:#06f"/></g><g style="clip-path:url(#clip-path-10)"><text transform="translate(47.22 283.16) scale(0.99 1)" style="font-size:10.368659973144531px;font-family:ArialMT, Arial;letter-spacing:0.003043011570012721em">0<tspan x="5.8" y="0" style="letter-spacing:0.0019969763428208482em">.</tspan><tspan x="8.7" y="0" style="letter-spacing:-0.009033940598475263em">0</tspan><tspan x="14.37" y="0" style="letter-spacing:0.00009509411156289753em">0</tspan></text></g><g style="clip-path:url(#clip-path-10)"><text transform="translate(47.22 217.52) scale(0.99 1)" style="font-size:10.368659973144531px;font-family:ArialMT, Arial;letter-spacing:0.003043011570012721em">0<tspan x="5.8" y="0" style="letter-spacing:0.0019969763428208482em">.</tspan><tspan x="8.7" y="0" style="letter-spacing:-0.009033940598475263em">2</tspan><tspan x="14.37" y="0" style="letter-spacing:0.00009509411156289753em">5</tspan></text></g><g style="clip-path:url(#clip-path-10)"><text transform="translate(47.22 151.88) scale(0.99 1)" style="font-size:10.368659973144531px;font-family:ArialMT, Arial;letter-spacing:0.003043011570012721em">0<tspan x="5.8" y="0" style="letter-spacing:0.0019969763428208482em">.</tspan><tspan x="8.7" y="0" style="letter-spacing:-0.009033940598475263em">5</tspan><tspan x="14.37" y="0" style="letter-spacing:0.00009509411156289753em">0</tspan></text></g><g style="clip-path:url(#clip-path-10)"><text transform="translate(47.22 86.24) scale(0.99 1)" style="font-size:10.368659973144531px;font-family:ArialMT, Arial;letter-spacing:0.003043011570012721em">0<tspan x="5.8" y="0" style="letter-spacing:0.0019969763428208482em">.</tspan><tspan x="8.7" y="0" style="letter-spacing:-0.009033940598475263em">7</tspan><tspan x="14.37" y="0" style="letter-spacing:0.00009509411156289753em">5</tspan></text></g><g style="clip-path:url(#clip-path-10)"><text transform="translate(47.22 20.61) scale(0.99 1)" style="font-size:10.368659973144531px;font-family:ArialMT, Arial;letter-spacing:0.003043011570012721em">1<tspan x="5.8" y="0" style="letter-spacing:0.0019969763428208482em">.</tspan><tspan x="8.7" y="0" style="letter-spacing:-0.009033940598475263em">0</tspan><tspan x="14.37" y="0" style="letter-spacing:0.00009509411156289753em">0</tspan></text></g><g style="clip-path:url(#clip-path-10)"><text transform="translate(106.79 295.51) scale(0.99 1)" style="font-size:10.368659973144531px;font-family:ArialMT, Arial">1</text></g><g style="clip-path:url(#clip-path-10)"><text transform="translate(174 295.51) scale(0.99 1)" style="font-size:10.368659973144531px;font-family:ArialMT, Arial">2</text></g><g style="clip-path:url(#clip-path-10)"><text transform="translate(241.22 295.51) scale(0.99 1)" style="font-size:10.368659973144531px;font-family:ArialMT, Arial">3</text></g><g style="clip-path:url(#clip-path-10)"><text transform="translate(308.43 295.51) scale(0.99 1)" style="font-size:10.368659973144531px;font-family:ArialMT, Arial">4</text></g><g style="clip-path:url(#clip-path-10)"><text transform="translate(375.64 295.51) scale(0.99 1)" style="font-size:10.368659973144531px;font-family:ArialMT, Arial">1</text></g><g style="clip-path:url(#clip-path-10)"><text transform="translate(442.86 295.51) scale(0.99 1)" style="font-size:10.368659973144531px;font-family:ArialMT, Arial">2</text></g><g style="clip-path:url(#clip-path-10)"><text transform="translate(510.07 295.51) scale(0.99 1)" style="font-size:10.368659973144531px;font-family:ArialMT, Arial">3</text></g><g style="clip-path:url(#clip-path-10)"><text transform="translate(577.29 295.51) scale(0.99 1)" style="font-size:10.368659973144531px;font-family:ArialMT, Arial">4</text></g><g style="clip-path:url(#clip-path-10)"><text transform="translate(644.5 295.51) scale(0.99 1)" style="font-size:10.368659973144531px;font-family:ArialMT, Arial">1</text></g><g style="clip-path:url(#clip-path-10)"><text transform="translate(711.71 295.51) scale(0.99 1)" style="font-size:10.368659973144531px;font-family:ArialMT, Arial">2</text></g><g style="clip-path:url(#clip-path-10)"><text transform="translate(778.92 295.51) scale(0.99 1)" style="font-size:10.368659973144531px;font-family:ArialMT, Arial">3</text></g><g style="clip-path:url(#clip-path-10)"><text transform="translate(846.13 295.51) scale(0.99 1)" style="font-size:10.368659973144531px;font-family:ArialMT, Arial">4</text></g><g style="clip-path:url(#clip-path-10)"><text transform="translate(202.48 314.21) scale(0.99 1)" style="font-size:10.368659973144531px;font-family:ArialMT, Arial;letter-spacing:-0.0039939526856416965em">O<tspan x="8.02" y="0" style="letter-spacing:0.005990929028462545em">c</tspan><tspan x="13.27" y="0" style="letter-spacing:-0.00009509411156289753em">t</tspan></text></g><g style="clip-path:url(#clip-path-10)"><text transform="translate(470.19 314.21) scale(0.99 1)" style="font-size:10.368659973144531px;font-family:ArialMT, Arial"><tspan style="letter-spacing:-0.0019969763428208482em">N</tspan><tspan x="7.47" y="0" style="letter-spacing:0.003043011570012721em">o</tspan><tspan x="13.26" y="0">v</tspan></text></g><g style="clip-path:url(#clip-path-10)"><text transform="translate(739.03 314.21) scale(0.99 1)" style="font-size:10.368659973144531px;font-family:ArialMT, Arial"><tspan style="letter-spacing:-0.0019969763428208482em">D</tspan><tspan x="7.47" y="0" style="letter-spacing:0.003043011570012721em">e</tspan><tspan x="13.26" y="0">c</tspan></text></g><g style="clip-path:url(#clip-path-10)"><text transform="translate(32 212.23) rotate(-90) scale(1.01 1)" style="font-size:11.364899635314941px;font-family:Arial-BoldMT, Arial;font-weight:700">ND<tspan x="16.41" y="0" style="letter-spacing:-0.003999973766917053em">V</tspan><tspan x="23.95" y="0">I</tspan><tspan x="27.11" y="0" style="letter-spacing:0.010978651402814892em"> </tspan><tspan x="30.39" y="0" style="letter-spacing:-0.00008510582482802242em"> </tspan><tspan x="33.55" y="0" style="letter-spacing:-0.003999973766917053em">V</tspan><tspan x="41.08" y="0" style="letter-spacing:-0.001021269897936269em">a</tspan><tspan x="47.39" y="0">l</tspan><tspan x="50.55" y="0" style="letter-spacing:0.003063809693808807em">u</tspan><tspan x="57.53" y="0" style="letter-spacing:-0.00008510582482802242em">e</tspan></text></g><g style="clip-path:url(#clip-path-10)"><text transform="translate(437.73 327.53) scale(0.99 1)" style="font-size:11.474650382995605px;font-family:Arial-BoldMT, Arial;font-weight:700"><tspan style="letter-spacing:0.0070461299453462726em">W</tspan><tspan x="10.91" y="0" style="letter-spacing:-0.0010311409676116497em">ee</tspan><tspan x="23.65" y="0">k</tspan></text></g><polygon points="3.13 2.9 894.52 2.9 894.52 338.57 3.13 338.57 3.13 2.9 3.13 2.9" style="fill:none;stroke:#d9d9d9;stroke-linejoin:round;stroke-width:0.825516426690471px"/></svg>