<svg id="Layer_1" data-name="Layer 1" xmlns="http://www.w3.org/2000/svg" xmlns:xlink="http://www.w3.org/1999/xlink" viewBox="0 0 900 350"><defs><clipPath id="clip-path"><polygon points="2 347.04 896.62 347.04 896.62 2 2 2 2 347.04 2 347.04" style="fill:none;clip-rule:evenodd"/></clipPath><clipPath id="clip-path-3"><polygon points="82.11 311.52 883.52 311.52 883.52 31.09 82.11 31.09 82.11 311.52 82.11 311.52" style="fill:none;clip-rule:evenodd"/></clipPath><clipPath id="clip-path-6"><rect x="2" y="2" width="894.62" height="345.04" style="fill:none"/></clipPath></defs><title>price-volatility</title><polygon points="2.14 2.13 896.76 2.13 896.76 347.17 2.14 347.17 2.14 2.13 2.14 2.13" style="fill:#eaeaea;fill-rule:evenodd"/><polygon points="82.11 31.09 882.7 31.09 882.7 310.71 82.11 310.71 82.11 31.09 82.11 31.09" style="fill:#fff;fill-rule:evenodd"/><path d="M82.11,245.7H882.7m-800.59-65H882.7m-800.59-65H882.7m-800.59-65H882.7" style="fill:none;stroke:#d9d9d9;stroke-linejoin:round;stroke-width:0.811549506512109px"/><g style="clip-path:url(#clip-path)"><path d="M82.11,31.09V310.71M148.85,31.09V310.71M215.59,31.09V310.71M282.33,31.09V310.71M349.07,31.09V310.71m66.6-279.62V310.71M482.41,31.09V310.71M549.15,31.09V310.71M615.88,31.09V310.71M682.62,31.09V310.71M749.36,31.09V310.71M816.1,31.09V310.71M882.7,31.09V310.71" style="fill:none;stroke:#d9d9d9;stroke-linejoin:round;stroke-width:0.811549506512109px"/></g><g style="clip-path:url(#clip-path)"><line x1="82.11" y1="310.71" x2="882.7" y2="310.71" style="fill:none;stroke:#bfbfbf;stroke-linejoin:round;stroke-width:2.16413206215463px"/></g><g style="clip-path:url(#clip-path-3)"><polyline points="115.55 154.68 182.15 158.3 248.89 148.11 315.63 139.26 382.37 134.98 449.11 152 515.85 142.21 582.58 147.58 649.18 151.2 715.92 153.74 782.66 126.67 849.4 56.69" style="fill:none;stroke:#ff25f3;stroke-linecap:round;stroke-linejoin:round;stroke-width:2.43464845235282px"/></g><g style="clip-path:url(#clip-path-3)"><polyline points="115.55 261.52 182.15 256.56 248.89 233.9 315.63 239.26 382.37 248.51 449.11 229.75 515.85 239.26 582.58 247.84 649.18 247.84 715.92 247.84 782.66 239.26 849.4 208.84" style="fill:none;stroke:#2935e8;stroke-linecap:round;stroke-linejoin:round;stroke-width:2.43464845235282px"/></g><g style="clip-path:url(#clip-path-3)"><polyline points="115.55 201.6 182.15 213.26 248.89 211.65 315.63 215.81 382.37 191.01 449.11 215.81 515.85 215.14 582.58 216.61 649.18 203.47 715.92 206.29 782.66 204.14 849.4 200.26" style="fill:none;stroke:#00c1a3;stroke-linecap:round;stroke-linejoin:round;stroke-width:2.43464845235282px"/></g><g style="clip-path:url(#clip-path-6)"><text transform="translate(56.25 313.92) scale(1.02 1)" style="font-size:10.053600311279297px;font-family:ArialMT, Arial"><tspan style="letter-spacing:0.003052958662034268em">5</tspan><tspan x="5.62" y="0" style="letter-spacing:-0.00896806606972566em">0</tspan><tspan x="11.12" y="0">0</tspan></text></g><g style="clip-path:url(#clip-path-6)"><text transform="translate(44.87 248.9) scale(1.02 1)" style="font-size:10.053600311279297px;font-family:ArialMT, Arial;letter-spacing:0.003052958662034268em">1<tspan x="5.62" y="0" style="letter-spacing:-0.00896806606972566em">5</tspan><tspan x="11.12" y="0">50</tspan><tspan x="22.36" y="0" style="letter-spacing:0.00009540495818857087em">0</tspan></text></g><g style="clip-path:url(#clip-path-6)"><text transform="translate(44.87 183.89) scale(1.02 1)" style="font-size:10.053600311279297px;font-family:ArialMT, Arial;letter-spacing:0.003052958662034268em">3<tspan x="5.62" y="0" style="letter-spacing:-0.00896806606972566em">0</tspan><tspan x="11.12" y="0">50</tspan><tspan x="22.36" y="0" style="letter-spacing:0.00009540495818857087em">0</tspan></text></g><g style="clip-path:url(#clip-path-6)"><text transform="translate(44.87 118.87) scale(1.02 1)" style="font-size:10.053600311279297px;font-family:ArialMT, Arial;letter-spacing:0.003052958662034268em">4<tspan x="5.62" y="0" style="letter-spacing:-0.00896806606972566em">5</tspan><tspan x="11.12" y="0">50</tspan><tspan x="22.36" y="0" style="letter-spacing:0.00009540495818857087em">0</tspan></text></g><g style="clip-path:url(#clip-path-6)"><text transform="translate(44.87 53.85) scale(1.02 1)" style="font-size:10.053600311279297px;font-family:ArialMT, Arial;letter-spacing:0.003052958662034268em">6<tspan x="5.62" y="0" style="letter-spacing:-0.00896806606972566em">0</tspan><tspan x="11.12" y="0">50</tspan><tspan x="22.36" y="0" style="letter-spacing:0.00009540495818857087em">0</tspan></text></g><g style="clip-path:url(#clip-path-6)"><text transform="translate(107.25 325.9) scale(1.02 1)" style="font-size:10.053600311279297px;font-family:ArialMT, Arial"><tspan style="letter-spacing:0.006010512365879964em">J</tspan><tspan x="5.09" y="0" style="letter-spacing:-0.00896806606972566em">a</tspan><tspan x="10.59" y="0">n</tspan></text></g><g style="clip-path:url(#clip-path-6)"><text transform="translate(173.39 325.9) scale(1.02 1)" style="font-size:10.053600311279297px;font-family:ArialMT, Arial;letter-spacing:0.0020035041219599883em">F<tspan x="6.16" y="0" style="letter-spacing:0.002957553703845697em">e</tspan><tspan x="11.78" y="0" style="letter-spacing:0.00009540495818857087em">b</tspan></text></g><g style="clip-path:url(#clip-path-6)"><text transform="translate(240.12 325.9) scale(1.02 1)" style="font-size:10.053600311279297px;font-family:ArialMT, Arial;letter-spacing:-0.006010512365879964em">M<tspan x="8.31" y="0" style="letter-spacing:0.003052958662034268em">a</tspan><tspan x="13.94" y="0" style="letter-spacing:0.00009540495818857087em">r</tspan></text></g><g style="clip-path:url(#clip-path-6)"><text transform="translate(307.68 325.9) scale(1.02 1)" style="font-size:10.053600311279297px;font-family:ArialMT, Arial">A<tspan x="6.71" y="0" style="letter-spacing:0.003052958662034268em">p</tspan><tspan x="12.33" y="0">r</tspan></text></g><g style="clip-path:url(#clip-path-6)"><text transform="translate(372.71 325.9) scale(1.02 1)" style="font-size:10.053600311279297px;font-family:ArialMT, Arial"><tspan style="letter-spacing:-0.006010512365879964em">M</tspan><tspan x="8.31" y="0" style="letter-spacing:0.003052958662034268em">a</tspan><tspan x="13.94" y="0">y</tspan></text></g><g style="clip-path:url(#clip-path-6)"><text transform="translate(440.84 325.9) scale(1.02 1)" style="font-size:10.053600311279297px;font-family:ArialMT, Arial"><tspan style="letter-spacing:0.006010512365879964em">J</tspan><tspan x="5.09" y="0" style="letter-spacing:-0.00896806606972566em">u</tspan><tspan x="10.59" y="0">n</tspan></text></g><g style="clip-path:url(#clip-path-6)"><text transform="translate(509.27 325.9) scale(1.02 1)" style="font-size:10.053600311279297px;font-family:ArialMT, Arial;letter-spacing:0.006010512365879964em">J<tspan x="5.09" y="0" style="letter-spacing:-0.00896806606972566em">u</tspan><tspan x="10.59" y="0" style="letter-spacing:-0.00009540495818857087em">l</tspan></text></g><g style="clip-path:url(#clip-path-6)"><text transform="translate(573.42 325.9) scale(1.02 1)" style="font-size:10.053600311279297px;font-family:ArialMT, Arial">A<tspan x="6.71" y="0" style="letter-spacing:0.003052958662034268em">u</tspan><tspan x="12.33" y="0">g</tspan></text></g><g style="clip-path:url(#clip-path-6)"><text transform="translate(640.14 325.9) scale(1.02 1)" style="font-size:10.053600311279297px;font-family:ArialMT, Arial">S<tspan x="6.71" y="0" style="letter-spacing:0.003052958662034268em">e</tspan><tspan x="12.33" y="0">p</tspan></text></g><g style="clip-path:url(#clip-path-6)"><text transform="translate(708.01 325.9) scale(1.02 1)" style="font-size:10.053600311279297px;font-family:ArialMT, Arial"><tspan style="letter-spacing:-0.0040070082439199765em">O</tspan><tspan x="7.78" y="0" style="letter-spacing:0.006010512365879964em">c</tspan><tspan x="12.87" y="0">t</tspan></text></g><g style="clip-path:url(#clip-path-6)"><text transform="translate(773.59 325.9) scale(1.02 1)" style="font-size:10.053600311279297px;font-family:ArialMT, Arial"><tspan style="letter-spacing:-0.0020035041219599883em">N</tspan><tspan x="7.24" y="0" style="letter-spacing:0.002957553703845697em">o</tspan><tspan x="12.86" y="0">v</tspan></text></g><g style="clip-path:url(#clip-path-6)"><text transform="translate(840.31 325.9) scale(1.02 1)" style="font-size:10.053600311279297px;font-family:ArialMT, Arial"><tspan style="letter-spacing:-0.0020035041219599883em">D</tspan><tspan x="7.24" y="0" style="letter-spacing:0.002957553703845697em">e</tspan><tspan x="12.86" y="0">c</tspan></text></g><g style="clip-path:url(#clip-path-6)"><text transform="translate(20.02 232.69) rotate(-90) scale(0.98 1)" style="font-size:11.327790260314941px;font-family:Arial-BoldMT, Arial;font-weight:700"><tspan style="letter-spacing:0.022031167168385372em">M</tspan><tspan x="9.69" y="0" style="letter-spacing:-0.0009655093181364108em">a</tspan><tspan x="15.97" y="0" style="letter-spacing:-0.003072075103161307em">r</tspan><tspan x="20.35" y="0" style="letter-spacing:-0.0009655093181364108em">ke</tspan><tspan x="32.93" y="0" style="letter-spacing:0.00394981084692168em">t</tspan><tspan x="36.74" y="0" style="letter-spacing:0.00008777357437603733em"> </tspan><tspan x="39.89" y="0" style="letter-spacing:-0.0040375844212977175em">P</tspan><tspan x="47.4" y="0" style="letter-spacing:-0.002984301528785269em">r</tspan><tspan x="51.78" y="0">i</tspan><tspan x="54.92" y="0" style="letter-spacing:-0.0009655093181364108em">ce</tspan><tspan x="67.5" y="0" style="letter-spacing:0.022996676486521782em"> </tspan><tspan x="70.91" y="0" style="letter-spacing:0.0040375844212977175em">(</tspan><tspan x="74.73" y="0" style="letter-spacing:-0.00008777357437603733em">R</tspan><tspan x="82.91" y="0" style="letter-spacing:-0.0009655093181364108em">s</tspan><tspan x="89.19" y="0">./</tspan><tspan x="95.49" y="0" style="letter-spacing:0.022031167168385372em">M</tspan><tspan x="105.17" y="0" style="letter-spacing:0.015009281218302386em">T</tspan><tspan x="112.26" y="0">)</tspan></text></g><g style="clip-path:url(#clip-path-6)"><text transform="translate(433.63 338.51) scale(1.02 1)" style="font-size:11.12598991394043px;font-family:Arial-BoldMT, Arial;font-weight:700;letter-spacing:0.021983360385380596em">M<tspan x="9.51" y="0" style="letter-spacing:0.002931114718050746em">on</tspan><tspan x="23.17" y="0" style="letter-spacing:0.003965625795009833em">t</tspan><tspan x="26.92" y="0" style="letter-spacing:0.002931114718050746em">h</tspan><tspan x="33.75" y="0" style="letter-spacing:-0.0009483018205458297em">s</tspan><tspan x="39.93" y="0" style="letter-spacing:-0.00008620925641325723em"> </tspan></text></g><g style="clip-path:url(#clip-path)"><line x1="239.2" y1="18.22" x2="261.04" y2="18.22" style="fill:none;stroke:#ff25f3;stroke-linecap:round;stroke-linejoin:round;stroke-width:2.43464845235282px"/></g><g style="clip-path:url(#clip-path-6)"><text transform="translate(263.31 20.99) scale(1.02 1)" style="font-size:8.981220245361328px;font-family:Arial-BoldMT, Arial;font-weight:700"><tspan style="letter-spacing:-0.0009611689303063675em">G</tspan><tspan x="6.98" y="0" style="letter-spacing:-0.005019437747155475em">U</tspan><tspan x="13.42" y="0" style="letter-spacing:-0.002990303338730921em">J</tspan><tspan x="18.39" y="0" style="letter-spacing:0.004912641199343656em"> </tspan><tspan x="20.93" y="0" style="letter-spacing:-0.003951472269037289em">(</tspan><tspan x="23.88" y="0" style="letter-spacing:-0.005019437747155475em">R</tspan><tspan x="30.32" y="0" style="letter-spacing:-0.003951472269037289em">-</tspan><tspan x="33.28" y="0" style="letter-spacing:-0.0030970998865427397em">11</tspan><tspan x="43.21" y="0" style="letter-spacing:0.004912641199343656em">,</tspan><tspan x="45.75" y="0" style="letter-spacing:-0.009077706564004582em"> </tspan><tspan x="48.17" y="0" style="letter-spacing:0.009077706564004582em">R</tspan><tspan x="54.73" y="0" style="letter-spacing:-0.004058268816849108em">-</tspan><tspan x="57.69" y="0" style="letter-spacing:-0.002990303338730921em">13</tspan><tspan x="67.62" y="0">)</tspan></text></g><g style="clip-path:url(#clip-path)"><line x1="460.16" y1="18.22" x2="482" y2="18.22" style="fill:none;stroke:#2935e8;stroke-linecap:round;stroke-linejoin:round;stroke-width:2.43464845235282px"/></g><g style="clip-path:url(#clip-path-6)"><text transform="translate(484.31 20.99) scale(1.02 1)" style="font-size:8.981220245361328px;font-family:Arial-BoldMT, Arial;font-weight:700"><tspan style="letter-spacing:0.002029134408424554em">M</tspan><tspan x="7.5" y="0" style="letter-spacing:-0.01003887549431095em">P</tspan><tspan x="13.4" y="0" style="letter-spacing:0.005126234294967293em"> </tspan><tspan x="15.94" y="0" style="letter-spacing:-0.004058268816849108em">(</tspan><tspan x="18.89" y="0" style="letter-spacing:-0.004912641199343656em">R</tspan><tspan x="25.34" y="0" style="letter-spacing:-0.004058268816849108em">-</tspan><tspan x="28.29" y="0" style="letter-spacing:-0.002990303338730921em">14</tspan><tspan x="38.23" y="0" style="letter-spacing:0.005019437747155475em">,</tspan><tspan x="40.77" y="0" style="letter-spacing:-0.009077706564004582em"> </tspan><tspan x="43.18" y="0" style="letter-spacing:-0.005019437747155475em">R</tspan><tspan x="49.62" y="0" style="letter-spacing:0.01003887549431095em">-</tspan><tspan x="52.7" y="0" style="letter-spacing:-0.0030970998865427397em">15</tspan><tspan x="62.64" y="0">)</tspan></text></g><g style="clip-path:url(#clip-path)"><line x1="676.07" y1="18.22" x2="697.91" y2="18.22" style="fill:none;stroke:#00c1a3;stroke-linecap:round;stroke-linejoin:round;stroke-width:2.43464845235282px"/></g><g style="clip-path:url(#clip-path-6)"><text transform="translate(700.26 20.99) scale(1.02 1)" style="font-size:8.981220245361328px;font-family:Arial-BoldMT, Arial;font-weight:700"><tspan style="letter-spacing:-0.009932078946499133em">P</tspan><tspan x="5.9" y="0" style="letter-spacing:0.008970910016192763em">N</tspan><tspan x="12.47" y="0" style="letter-spacing:-0.005019437747155475em">B</tspan><tspan x="18.91" y="0" style="letter-spacing:-0.008970910016192763em"> </tspan><tspan x="21.32" y="0" style="letter-spacing:-0.004058268816849108em">(</tspan><tspan x="24.28" y="0" style="letter-spacing:0.009077706564004582em">R</tspan><tspan x="30.84" y="0" style="letter-spacing:-0.004058268816849108em">-</tspan><tspan x="33.8" y="0" style="letter-spacing:-0.002990303338730921em">3</tspan><tspan x="38.77" y="0">)</tspan></text></g><polygon points="2.14 2.13 896.76 2.13 896.76 347.17 2.14 347.17 2.14 2.13 2.14 2.13" style="fill:none;stroke:#d9d9d9;stroke-linejoin:round;stroke-width:0.811549573695612px"/></svg>