<svg id="Layer_1" data-name="Layer 1" xmlns="http://www.w3.org/2000/svg" xmlns:xlink="http://www.w3.org/1999/xlink" viewBox="0 0 900 350"><defs><clipPath id="clip-path"><polygon points="2.99 2.4 897.65 2.4 897.65 349 2.99 349 2.99 2.4 2.99 2.4" style="fill:none;clip-rule:evenodd"/></clipPath><clipPath id="clip-path-2"><polygon points="2.99 2.4 92.88 2.4 92.88 53.75 2.99 53.75 2.99 2.4 2.99 2.4" style="fill:none;clip-rule:evenodd"/></clipPath><clipPath id="clip-path-4"><polygon points="2.99 2.4 897.65 2.4 897.65 53.75 2.99 53.75 2.99 2.4 2.99 2.4" style="fill:none;clip-rule:evenodd"/></clipPath><clipPath id="clip-path-6"><polygon points="2.99 312.2 896.8 312.2 896.8 348.14 2.99 348.14 2.99 312.2 2.99 312.2" style="fill:none;clip-rule:evenodd"/></clipPath><clipPath id="clip-path-7"><polygon points="409.65 91.41 652.8 91.41 652.8 127.35 409.65 127.35 409.65 91.41 409.65 91.41" style="fill:none;clip-rule:evenodd"/></clipPath><clipPath id="clip-path-8"><polygon points="604.85 238.6 848 238.6 848 274.55 604.85 274.55 604.85 238.6 604.85 238.6" style="fill:none;clip-rule:evenodd"/></clipPath><clipPath id="clip-path-9"><polygon points="409.65 275.4 652.8 275.4 652.8 311.35 409.65 311.35 409.65 275.4 409.65 275.4" style="fill:none;clip-rule:evenodd"/></clipPath><clipPath id="clip-path-10"><polygon points="604.85 128.21 848 128.21 848 164.15 604.85 164.15 604.85 128.21 604.85 128.21" style="fill:none;clip-rule:evenodd"/></clipPath><clipPath id="clip-path-11"><polygon points="263.25 165 506.4 165 506.4 200.95 263.25 200.95 263.25 165 263.25 165" style="fill:none;clip-rule:evenodd"/></clipPath><clipPath id="clip-path-12"><polygon points="409.65 201.8 652.8 201.8 652.8 237.75 409.65 237.75 409.65 201.8 409.65 201.8" style="fill:none;clip-rule:evenodd"/></clipPath><clipPath id="clip-path-13"><polygon points="2.99 54.61 92.88 54.61 92.88 164.15 2.99 164.15 2.99 54.61 2.99 54.61" style="fill:none;clip-rule:evenodd"/></clipPath><clipPath id="clip-path-14"><polygon points="2.99 165 92.88 165 92.88 274.55 2.99 274.55 2.99 165 2.99 165" style="fill:none;clip-rule:evenodd"/></clipPath><clipPath id="clip-path-15"><polygon points="93.74 54.61 213.6 54.61 213.6 164.15 93.74 164.15 93.74 54.61 93.74 54.61" style="fill:none;clip-rule:evenodd"/></clipPath><clipPath id="clip-path-16"><polygon points="93.74 165 213.6 165 213.6 274.55 93.74 274.55 93.74 165 93.74 165" style="fill:none;clip-rule:evenodd"/></clipPath><clipPath id="clip-path-17"><polygon points="263.25 54.61 506.4 54.61 506.4 90.55 263.25 90.55 263.25 54.61 263.25 54.61" style="fill:none;clip-rule:evenodd"/></clipPath><clipPath id="clip-path-18"><polygon points="2.13 1.55 897.65 1.55 897.65 349 2.13 349 2.13 1.55 2.13 1.55" style="fill:none;clip-rule:evenodd"/></clipPath></defs><title>seasonal-calendar</title><g style="clip-path:url(#clip-path)"><polyline points="2.13 1.55 2.13 54.61 897.65 54.61 897.65 1.55 2.13 1.55" style="fill:#d9d9d9;fill-rule:evenodd"/><polyline points="2.13 53.75 2.13 91.41 214.45 91.41 214.45 53.75 2.13 53.75" style="fill:#f2f2f2;fill-rule:evenodd"/><polyline points="213.6 53.75 213.6 91.41 263.25 91.41 263.25 53.75 213.6 53.75" style="fill:#5e9fff;fill-rule:evenodd"/><polyline points="262.4 53.75 262.4 91.41 507.25 91.41 507.25 53.75 262.4 53.75" style="fill:#06f;fill-rule:evenodd"/><polyline points="506.4 53.75 506.4 91.41 556.05 91.41 556.05 53.75 506.4 53.75" style="fill:#0044ab;fill-rule:evenodd"/><polyline points="2.13 90.55 2.13 128.21 214.45 128.21 214.45 90.55 2.13 90.55" style="fill:#f2f2f2;fill-rule:evenodd"/><polyline points="213.6 90.55 213.6 128.21 360.85 128.21 360.85 90.55 213.6 90.55" style="fill:#fff;fill-rule:evenodd"/><polyline points="360 90.55 360 128.21 409.65 128.21 409.65 90.55 360 90.55" style="fill:#5e9fff;fill-rule:evenodd"/><polyline points="408.8 90.55 408.8 128.21 653.65 128.21 653.65 90.55 408.8 90.55" style="fill:#06f;fill-rule:evenodd"/><polyline points="652.8 90.55 652.8 128.21 702.45 128.21 702.45 90.55 652.8 90.55" style="fill:#0044ab;fill-rule:evenodd"/><polyline points="2.13 127.35 2.13 165 214.45 165 214.45 127.35 2.13 127.35" style="fill:#f2f2f2;fill-rule:evenodd"/><polyline points="213.6 127.35 213.6 165 556.05 165 556.05 127.35 213.6 127.35" style="fill:#fff;fill-rule:evenodd"/><polyline points="555.2 127.35 555.2 165 604.85 165 604.85 127.35 555.2 127.35" style="fill:#5e9fff;fill-rule:evenodd"/><polyline points="604 127.35 604 165 848.85 165 848.85 127.35 604 127.35" style="fill:#06f;fill-rule:evenodd"/><polyline points="848 127.35 848 165 897.65 165 897.65 127.35 848 127.35" style="fill:#0044ab;fill-rule:evenodd"/><polyline points="2.13 164.15 2.13 201.8 214.45 201.8 214.45 164.15 2.13 164.15" style="fill:#f2f2f2;fill-rule:evenodd"/><polyline points="213.6 164.15 213.6 201.8 263.25 201.8 263.25 164.15 213.6 164.15" style="fill:#5e9fff;fill-rule:evenodd"/><polyline points="262.4 164.15 262.4 201.8 507.25 201.8 507.25 164.15 262.4 164.15" style="fill:#06f;fill-rule:evenodd"/><polyline points="506.4 164.15 506.4 201.8 556.05 201.8 556.05 164.15 506.4 164.15" style="fill:#0044ab;fill-rule:evenodd"/><polyline points="2.13 200.95 2.13 238.6 214.45 238.6 214.45 200.95 2.13 200.95" style="fill:#f2f2f2;fill-rule:evenodd"/><polyline points="213.6 200.95 213.6 238.6 360.85 238.6 360.85 200.95 213.6 200.95" style="fill:#fff;fill-rule:evenodd"/><polyline points="360 200.95 360 238.6 409.65 238.6 409.65 200.95 360 200.95" style="fill:#5e9fff;fill-rule:evenodd"/><polyline points="408.8 200.95 408.8 238.6 653.65 238.6 653.65 200.95 408.8 200.95" style="fill:#06f;fill-rule:evenodd"/><polyline points="652.8 200.95 652.8 238.6 702.45 238.6 702.45 200.95 652.8 200.95" style="fill:#0044ab;fill-rule:evenodd"/><polyline points="2.13 237.75 2.13 275.4 214.45 275.4 214.45 237.75 2.13 237.75" style="fill:#f2f2f2;fill-rule:evenodd"/><polyline points="555.2 237.75 555.2 275.4 604.85 275.4 604.85 237.75 555.2 237.75" style="fill:#5e9fff;fill-rule:evenodd"/><polyline points="604 237.75 604 275.4 848.85 275.4 848.85 237.75 604 237.75" style="fill:#06f;fill-rule:evenodd"/><polyline points="848 237.75 848 275.4 897.65 275.4 897.65 237.75 848 237.75" style="fill:#0044ab;fill-rule:evenodd"/><polyline points="2.13 274.55 2.13 312.2 214.45 312.2 214.45 274.55 2.13 274.55" style="fill:#f2f2f2;fill-rule:evenodd"/><polyline points="213.6 274.55 213.6 312.2 360.85 312.2 360.85 274.55 213.6 274.55" style="fill:#fff;fill-rule:evenodd"/><polyline points="360 274.55 360 312.2 409.65 312.2 409.65 274.55 360 274.55" style="fill:#5e9fff;fill-rule:evenodd"/><polyline points="408.8 274.55 408.8 312.2 653.65 312.2 653.65 274.55 408.8 274.55" style="fill:#06f;fill-rule:evenodd"/><polyline points="652.8 274.55 652.8 312.2 702.45 312.2 702.45 274.55 652.8 274.55" style="fill:#0044ab;fill-rule:evenodd"/><polyline points="2.13 311.35 2.13 349 897.65 349 897.65 311.35 2.13 311.35" style="fill:#fff;fill-rule:evenodd"/><polyline points="2.13 348.14 2.13 365.26 952.45 365.26 952.45 348.14 2.13 348.14" style="fill:#fff;fill-rule:evenodd"/></g><g style="clip-path:url(#clip-path-2)"><text transform="translate(11.55 24.66)" style="font-size:11.125280380249023px;font-family:Arial-BoldMT, Arial;font-weight:700"><tspan style="letter-spacing:-0.02904283884560753em">A</tspan><tspan x="7.71" y="0" style="letter-spacing:0.003948422199553893em">g</tspan><tspan x="14.55" y="0" style="letter-spacing:-0.003948422199553893em">r</tspan><tspan x="18.84" y="0" style="letter-spacing:0.003948422199553893em">o</tspan><tspan x="25.68" y="0" style="letter-spacing:-0.024918931214962352em">-</tspan><tspan x="29.1" y="0" style="letter-spacing:-0.017022086815854563em">c</tspan><tspan x="35.1" y="0" style="letter-spacing:0.02904283884560753em">li</tspan><tspan x="41.93" y="0" style="letter-spacing:0.03299126104516143em">m</tspan><tspan x="52.19" y="0" style="letter-spacing:0.059050847562217124em">a</tspan><tspan x="59.03" y="0" style="letter-spacing:-0.025006673930507997em">t</tspan><tspan x="62.46" y="0" style="letter-spacing:0.02904283884560753em">i</tspan><tspan x="65.87" y="0" style="letter-spacing:-0.01693434410030893em">c</tspan><tspan x="71.87" y="0"> </tspan></text><text transform="translate(34.67 39.21)" style="font-size:11.125280380249023px;font-family:Arial-BoldMT, Arial;font-weight:700;letter-spacing:0.03808033854680866em">z<tspan x="5.99" y="0" style="letter-spacing:0.003948422199553893em">on</tspan><tspan x="19.67" y="0" style="letter-spacing:0.00008774271554564208em">e</tspan></text></g><g style="clip-path:url(#clip-path)"><text transform="translate(134.84 32.36)" style="font-size:11.125280380249023px;font-family:Arial-BoldMT, Arial;font-weight:700"><tspan style="letter-spacing:-0.028955096130061884em">R</tspan><tspan x="7.71" y="0" style="letter-spacing:0.059050847562217124em">e</tspan><tspan x="14.56" y="0" style="letter-spacing:0.003948422199553893em">g</tspan><tspan x="21.4" y="0" style="letter-spacing:0.02904283884560753em">i</tspan><tspan x="24.81" y="0" style="letter-spacing:0.003948422199553893em">o</tspan><tspan x="31.65" y="0">n</tspan></text><text transform="translate(229.01 32.36)" style="font-size:11.125280380249023px;font-family:Arial-BoldMT, Arial;font-weight:700"><tspan style="letter-spacing:-0.01693434410030893em">J</tspan><tspan x="6" y="0" style="letter-spacing:0.003948422199553893em">u</tspan><tspan x="12.84" y="0">n</tspan></text><text transform="translate(279.52 32.36)" style="font-size:11.125280380249023px;font-family:Arial-BoldMT, Arial;font-weight:700"><tspan style="letter-spacing:-0.01693434410030893em">J</tspan><tspan x="6" y="0" style="letter-spacing:0.003948422199553893em">u</tspan><tspan x="12.84" y="0">l</tspan></text></g><g style="clip-path:url(#clip-path-4)"><text transform="translate(324.9 32.36)" style="font-size:11.125280380249023px;font-family:Arial-BoldMT, Arial;font-weight:700"><tspan style="letter-spacing:-0.028955096130061884em">A</tspan><tspan x="7.71" y="0" style="letter-spacing:0.003948422199553893em">u</tspan><tspan x="14.55" y="0">g</tspan></text><text transform="translate(374.56 32.36)" style="font-size:11.125280380249023px;font-family:Arial-BoldMT, Arial;font-weight:700"><tspan style="letter-spacing:0.025006673930507997em">S</tspan><tspan x="7.7" y="0" style="letter-spacing:0.058963104846671485em">e</tspan><tspan x="14.54" y="0">p</tspan></text><text transform="translate(425.06 32.36)" style="font-size:11.125280380249023px;font-family:Arial-BoldMT, Arial;font-weight:700;letter-spacing:-0.00798458711465343em">O<tspan x="8.56" y="0" style="letter-spacing:-0.017022086815854563em">c</tspan><tspan x="14.56" y="0" style="letter-spacing:0.00008774271554564208em">t</tspan></text><text transform="translate(472.16 32.36)" style="font-size:11.125280380249023px;font-family:Arial-BoldMT, Arial;font-weight:700;letter-spacing:-0.028955096130061884em">N<tspan x="7.71" y="0" style="letter-spacing:0.003948422199553893em">o</tspan><tspan x="14.55" y="0" style="letter-spacing:0.00008774271554564208em">v</tspan></text><text transform="translate(520.96 32.36)" style="font-size:11.125280380249023px;font-family:Arial-BoldMT, Arial;font-weight:700"><tspan style="letter-spacing:-0.028955096130061884em">D</tspan><tspan x="7.71" y="0" style="letter-spacing:0.059050847562217124em">e</tspan><tspan x="14.56" y="0">c</tspan></text><text transform="translate(570.61 32.36)" style="font-size:11.125280380249023px;font-family:Arial-BoldMT, Arial;font-weight:700;letter-spacing:-0.01693434410030893em">J<tspan x="6" y="0" style="letter-spacing:0.059050847562217124em">a</tspan><tspan x="12.84" y="0" style="letter-spacing:-0.00008774271554564208em">n</tspan></text><text transform="translate(618.56 32.36)" style="font-size:11.125280380249023px;font-family:Arial-BoldMT, Arial;font-weight:700"><tspan style="letter-spacing:0.003948422199553893em">F</tspan><tspan x="6.84" y="0" style="letter-spacing:0.059050847562217124em">e</tspan><tspan x="13.68" y="0">b</tspan></text><text transform="translate(667.36 32.36)" style="font-size:11.125280380249023px;font-family:Arial-BoldMT, Arial;font-weight:700"><tspan style="letter-spacing:0.012985921900755029em">M</tspan><tspan x="9.41" y="0" style="letter-spacing:0.059050847562217124em">a</tspan><tspan x="16.26" y="0">r</tspan></text><text transform="translate(717.01 32.36)" style="font-size:11.125280380249023px;font-family:Arial-BoldMT, Arial;font-weight:700;letter-spacing:-0.028955096130061884em">A<tspan x="7.71" y="0" style="letter-spacing:0.003948422199553893em">p</tspan><tspan x="14.55" y="0" style="letter-spacing:0.00008774271554564208em">r</tspan></text><text transform="translate(764.1 32.36)" style="font-size:11.125280380249023px;font-family:Arial-BoldMT, Arial;font-weight:700"><tspan style="letter-spacing:0.012985921900755029em">M</tspan><tspan x="9.41" y="0" style="letter-spacing:0.059050847562217124em">a</tspan><tspan x="16.26" y="0">y</tspan></text><text transform="translate(814.61 32.36)" style="font-size:11.125280380249023px;font-family:Arial-BoldMT, Arial;font-weight:700"><tspan style="letter-spacing:-0.01693434410030893em">J</tspan><tspan x="6" y="0" style="letter-spacing:0.003948422199553893em">u</tspan><tspan x="12.84" y="0">n</tspan></text><text transform="translate(865.12 32.36)" style="font-size:11.125280380249023px;font-family:Arial-BoldMT, Arial;font-weight:700"><tspan style="letter-spacing:-0.01693434410030893em">J</tspan><tspan x="6" y="0" style="letter-spacing:0.003948422199553893em">u</tspan><tspan x="12.84" y="0">l</tspan></text></g><g style="clip-path:url(#clip-path)"><text transform="translate(36.39 297.65)" style="font-size:11.125280380249023px;font-family:Arial-BoldMT, Arial;font-weight:700"><tspan style="letter-spacing:0.003948422199553893em">T</tspan><tspan x="6.84" y="0" style="letter-spacing:-0.00798458711465343em">G</tspan><tspan x="15.4" y="0">P</tspan></text><text transform="translate(103.16 297.65)" style="font-size:11.125280380249023px;font-family:Arial-BoldMT, Arial;font-weight:700;letter-spacing:-0.028955096130061884em">R<tspan x="7.71" y="0" style="letter-spacing:-0.025006673930507997em">-</tspan><tspan x="11.14" y="0" style="letter-spacing:0.00008774271554564208em">3</tspan></text></g><g style="clip-path:url(#clip-path-6)"><text transform="translate(4.7 326.75)" style="font-size:9.413700103759766px;font-family:Arial-BoldMT, Arial;font-weight:700"><tspan style="letter-spacing:-0.08492696012485902em">N</tspan><tspan x="6" y="0" style="letter-spacing:0.024887021282009966em">o</tspan><tspan x="11.98" y="0" style="letter-spacing:0.030071817382428707em">t</tspan><tspan x="15.4" y="0" style="letter-spacing:0.0800532517904654em">e</tspan><tspan x="21.39" y="0">:</tspan></text><text transform="translate(28.67 326.75)" style="font-size:9.413700103759766px;font-family:ArialMT, Arial"> </text><text transform="translate(31.24 326.75)" style="font-size:9.413700103759766px;font-family:Arial-BoldMT, Arial;font-weight:700;letter-spacing:-0.04998143440803668em">G<tspan x="6.85" y="0" style="letter-spacing:-0.02996812146042033em">P</tspan><tspan x="12.85" y="0" style="letter-spacing:-0.08503065604686738em">H</tspan><tspan x="18.85" y="0" style="letter-spacing:0.00010369592200837486em"> </tspan></text><text transform="translate(52.64 326.75)" style="font-size:9.413700103759766px;font-family:ArialMT, Arial"><tspan style="letter-spacing:-0.04998143440803668em">G</tspan><tspan x="6.85" y="0" style="letter-spacing:-0.009954808512803986em">u</tspan><tspan x="11.99" y="0" style="letter-spacing:-0.03992292997322432em">j</tspan><tspan x="13.71" y="0" style="letter-spacing:-0.01005850443481236em">a</tspan><tspan x="18.85" y="0" style="letter-spacing:0.030071817382428707em">r</tspan><tspan x="22.27" y="0" style="letter-spacing:-0.009954808512803986em">a</tspan><tspan x="27.41" y="0" style="letter-spacing:-0.004977404256401993em">t </tspan><tspan x="32.54" y="0" style="letter-spacing:-0.12101314098377346em">P</tspan><tspan x="37.68" y="0" style="letter-spacing:-0.03992292997322432em">l</tspan><tspan x="39.4" y="0" style="letter-spacing:-0.009954808512803986em">a</tspan><tspan x="44.54" y="0" style="letter-spacing:-0.03992292997322432em">i</tspan><tspan x="46.26" y="0" style="letter-spacing:-0.009954808512803986em">n</tspan><tspan x="51.4" y="0" style="letter-spacing:0.04490033422962631em">s</tspan><tspan x="56.53" y="0" style="letter-spacing:-0.004977404256401993em"> </tspan><tspan x="59.09" y="0" style="letter-spacing:-0.009954808512803986em">and</tspan><tspan x="74.52" y="0" style="letter-spacing:-0.004977404256401993em"> </tspan><tspan x="77.09" y="0" style="letter-spacing:-0.08492696012485902em">H</tspan><tspan x="83.09" y="0" style="letter-spacing:-0.0400266258952327em">ill</tspan><tspan x="88.23" y="0">s</tspan></text><text transform="translate(145.96 326.75)" style="font-size:9.413700103759766px;font-family:Arial-BoldMT, Arial;font-weight:700"><tspan style="letter-spacing:-0.004977404256401993em">, </tspan><tspan x="5.14" y="0" style="letter-spacing:0.005081100178410368em">C</tspan><tspan x="11.98" y="0" style="letter-spacing:-0.02996812146042033em">P</tspan><tspan x="17.98" y="0" style="letter-spacing:-0.08503065604686738em">H</tspan><tspan x="23.98" y="0"> </tspan></text><text transform="translate(172.5 326.75)" style="font-size:9.413700103759766px;font-family:ArialMT, Arial"><tspan style="letter-spacing:-0.08492696012485902em">C</tspan><tspan x="6" y="0" style="letter-spacing:-0.01005850443481236em">en</tspan><tspan x="16.28" y="0" style="letter-spacing:-0.004977404256401993em">t</tspan><tspan x="18.85" y="0" style="letter-spacing:-0.009954808512803986em">a</tspan><tspan x="23.99" y="0" style="letter-spacing:-0.03992292997322432em">l</tspan><tspan x="25.71" y="0" style="letter-spacing:-0.004977404256401993em"> </tspan><tspan x="28.27" y="0" style="letter-spacing:-0.12101314098377346em">P</tspan><tspan x="33.41" y="0" style="letter-spacing:-0.03992292997322432em">l</tspan><tspan x="35.13" y="0" style="letter-spacing:-0.009954808512803986em">a</tspan><tspan x="40.27" y="0" style="letter-spacing:-0.004977404256401993em">t</tspan><tspan x="42.84" y="0" style="letter-spacing:-0.009954808512803986em">eau</tspan><tspan x="58.26" y="0" style="letter-spacing:-0.004977404256401993em"> </tspan><tspan x="60.83" y="0" style="letter-spacing:-0.009954808512803986em">and</tspan><tspan x="76.25" y="0" style="letter-spacing:-0.004977404256401993em"> </tspan><tspan x="78.82" y="0" style="letter-spacing:-0.08492696012485902em">H</tspan><tspan x="84.82" y="0" style="letter-spacing:-0.03992292997322432em">ill</tspan><tspan x="89.97" y="0">s</tspan></text><text transform="translate(267.53 326.75)" style="font-size:9.413700103759766px;font-family:Arial-BoldMT, Arial;font-weight:700"><tspan style="letter-spacing:-0.004977404256401993em">, </tspan><tspan x="5.14" y="0" style="letter-spacing:0.02499071720401834em">T</tspan><tspan x="11.12" y="0" style="letter-spacing:-0.04998143440803668em">G</tspan><tspan x="17.97" y="0" style="letter-spacing:-0.02996812146042033em">P</tspan><tspan x="23.97" y="0"> </tspan></text><text transform="translate(294.08 326.75)" style="font-size:9.413700103759766px;font-family:ArialMT, Arial;letter-spacing:-0.06501734309925102em">T<tspan x="5.14" y="0" style="letter-spacing:0.030071817382428707em">r</tspan><tspan x="8.56" y="0" style="letter-spacing:-0.01005850443481236em">an</tspan><tspan x="18.84" y="0" style="letter-spacing:0.045004030151634684em">s</tspan><tspan x="23.97" y="0" style="letter-spacing:-0.004977404256401993em"> </tspan><tspan x="26.54" y="0" style="letter-spacing:-0.04998143440803668em">G</tspan><tspan x="33.39" y="0" style="letter-spacing:-0.009954808512803986em">ange</tspan><tspan x="53.95" y="0" style="letter-spacing:-0.004977404256401993em">t</tspan><tspan x="56.52" y="0" style="letter-spacing:-0.03992292997322432em">i</tspan><tspan x="58.24" y="0" style="letter-spacing:0.045004030151634684em">c</tspan><tspan x="63.37" y="0" style="letter-spacing:-0.004977404256401993em"> </tspan><tspan x="65.94" y="0" style="letter-spacing:-0.12101314098377346em">P</tspan><tspan x="71.08" y="0" style="letter-spacing:-0.03992292997322432em">l</tspan><tspan x="72.79" y="0" style="letter-spacing:-0.009954808512803986em">a</tspan><tspan x="77.93" y="0" style="letter-spacing:-0.03992292997322432em">i</tspan><tspan x="79.65" y="0" style="letter-spacing:-0.009954808512803986em">n</tspan><tspan x="84.79" y="0" style="letter-spacing:-0.00010369592200837486em">s</tspan></text><text transform="translate(4.7 339.59)" style="font-size:9.413700103759766px;font-family:ArialMT, Arial"><tspan xml:space="preserve" style="letter-spacing:-0.004977404256401993em">         </tspan><tspan x="23.12" y="0"> </tspan></text><text transform="translate(30.39 339.59)" style="font-size:9.413700103759766px;font-family:Arial-BoldMT, Arial;font-weight:700"><tspan style="letter-spacing:-0.08492696012485902em">K</tspan><tspan x="6" y="0" style="letter-spacing:0.024887021282009966em">h</tspan><tspan x="11.98" y="0" style="letter-spacing:-0.009954808512803986em">a</tspan><tspan x="17.12" y="0" style="letter-spacing:0.06501734309925102em">r</tspan><tspan x="21.4" y="0" style="letter-spacing:-0.004977404256401993em">i</tspan><tspan x="23.97" y="0">f</tspan></text><text transform="translate(57.78 339.59)" style="font-size:9.413700103759766px;font-family:ArialMT, Arial"><tspan style="letter-spacing:-0.004977404256401993em"> </tspan><tspan x="2.57" y="0" style="letter-spacing:-0.10494027307247533em">M</tspan><tspan x="9.42" y="0" style="letter-spacing:0.02996812146042033em">r</tspan><tspan x="12.84" y="0" style="letter-spacing:-0.03992292997322432em">i</tspan><tspan x="14.55" y="0" style="letter-spacing:-0.009954808512803986em">g</tspan><tspan x="19.7" y="0" style="letter-spacing:-0.004977404256401993em"> </tspan><tspan x="22.26" y="0" style="letter-spacing:-0.02996812146042033em">B</tspan><tspan x="28.26" y="0" style="letter-spacing:-0.009954808512803986em">aha</tspan><tspan x="43.68" y="0" style="letter-spacing:0.030071817382428707em">r</tspan><tspan x="47.1" y="0" style="letter-spacing:-0.004977404256401993em">,</tspan><tspan x="49.67" y="0"> </tspan></text><text transform="translate(110.01 339.59)" style="font-size:9.413700103759766px;font-family:Arial-BoldMT, Arial;font-weight:700"><tspan style="letter-spacing:-0.08492696012485902em">R</tspan><tspan x="6" y="0" style="letter-spacing:-0.01005850443481236em">a</tspan><tspan x="11.14" y="0" style="letter-spacing:0.02499071720401834em">b</tspan><tspan x="17.12" y="0">i</tspan></text><text transform="translate(129.69 339.59)" style="font-size:9.413700103759766px;font-family:ArialMT, Arial;letter-spacing:-0.004977404256401993em"> <tspan x="2.57" y="0" style="letter-spacing:-0.08492696012485902em">H</tspan><tspan x="8.57" y="0" style="letter-spacing:-0.009954808512803986em">a</tspan><tspan x="13.71" y="0" style="letter-spacing:0.04490033422962631em">s</tspan><tspan x="18.84" y="0">t</tspan><tspan x="21.41" y="0" style="letter-spacing:-0.009954808512803986em">a</tspan><tspan x="26.55" y="0"> </tspan><tspan x="29.12" y="0" style="letter-spacing:-0.02996812146042033em">B</tspan><tspan x="35.11" y="0" style="letter-spacing:-0.009954808512803986em">aha</tspan><tspan x="50.54" y="0" style="letter-spacing:0.02996812146042033em">r</tspan><tspan x="53.95" y="0">,</tspan><tspan x="56.52" y="0" style="letter-spacing:0.00010369592200837486em"> </tspan></text><text transform="translate(188.77 339.59)" style="font-size:9.413700103759766px;font-family:Arial-BoldMT, Arial;font-weight:700"><tspan style="letter-spacing:-0.02996812146042033em">S</tspan><tspan x="6" y="0" style="letter-spacing:0.02499071720401834em">u</tspan><tspan x="11.98" y="0" style="letter-spacing:0.10991767732887735em">mm</tspan><tspan x="30.79" y="0" style="letter-spacing:0.079949555868457em">e</tspan><tspan x="36.78" y="0">r</tspan></text><text transform="translate(229.86 339.59)" style="font-size:9.413700103759766px;font-family:ArialMT, Arial;letter-spacing:-0.004977404256401993em"> <tspan x="2.57" y="0" style="letter-spacing:0.06003993884284905em">A</tspan><tspan x="9.41" y="0" style="letter-spacing:-0.10504396899448372em">m</tspan><tspan x="16.26" y="0" style="letter-spacing:-0.009954808512803986em">b</tspan><tspan x="21.41" y="0" style="letter-spacing:-0.03992292997322432em">i</tspan><tspan x="23.12" y="0" style="letter-spacing:-0.009954808512803986em">a</tspan><tspan x="28.26" y="0"> </tspan><tspan x="30.83" y="0" style="letter-spacing:-0.02996812146042033em">B</tspan><tspan x="36.83" y="0" style="letter-spacing:-0.009954808512803986em">aha</tspan><tspan x="52.25" y="0" style="letter-spacing:0.00010369592200837486em">r</tspan></text></g><g style="clip-path:url(#clip-path-7)"><text transform="translate(519.24 112.8)" style="font-size:11.125280380249023px;fill:#fff;font-family:Arial-BoldMT, Arial;font-weight:700;letter-spacing:-0.02904283884560753em">R<tspan x="7.71" y="0" style="letter-spacing:0.059050847562217124em">a</tspan><tspan x="14.56" y="0" style="letter-spacing:0.003948422199553893em">b</tspan><tspan x="21.4" y="0" style="letter-spacing:0.00008774271554564208em">i</tspan></text></g><g style="clip-path:url(#clip-path-8)"><text transform="translate(703.32 260)" style="font-size:11.125280380249023px;fill:#fff;font-family:Arial-BoldMT, Arial;font-weight:700;letter-spacing:0.025006673930507997em">S<tspan x="7.7" y="0" style="letter-spacing:0.003948422199553893em">u</tspan><tspan x="14.54" y="0" style="letter-spacing:0.03299126104516143em">mm</tspan><tspan x="35.06" y="0" style="letter-spacing:0.059050847562217124em">e</tspan><tspan x="41.9" y="0" style="letter-spacing:0.00008774271554564208em">r</tspan></text></g><g style="clip-path:url(#clip-path-9)"><text transform="translate(519.24 296.8)" style="font-size:11.125280380249023px;fill:#fff;font-family:Arial-BoldMT, Arial;font-weight:700;letter-spacing:-0.02904283884560753em">R<tspan x="7.71" y="0" style="letter-spacing:0.059050847562217124em">a</tspan><tspan x="14.56" y="0" style="letter-spacing:0.003948422199553893em">b</tspan><tspan x="21.4" y="0" style="letter-spacing:0.00008774271554564208em">i</tspan></text></g><g style="clip-path:url(#clip-path-10)"><text transform="translate(703.32 149.61)" style="font-size:11.125280380249023px;fill:#fff;font-family:Arial-BoldMT, Arial;font-weight:700;letter-spacing:0.025006673930507997em">S<tspan x="7.7" y="0" style="letter-spacing:0.003948422199553893em">u</tspan><tspan x="14.54" y="0" style="letter-spacing:0.03299126104516143em">mm</tspan><tspan x="35.06" y="0" style="letter-spacing:0.059050847562217124em">e</tspan><tspan x="41.9" y="0" style="letter-spacing:0.00008774271554564208em">r</tspan></text></g><g style="clip-path:url(#clip-path-11)"><text transform="translate(368.57 186.4)" style="font-size:11.125280380249023px;fill:#fff;font-family:Arial-BoldMT, Arial;font-weight:700"><tspan style="letter-spacing:-0.028955096130061884em">K</tspan><tspan x="7.71" y="0" style="letter-spacing:0.003948422199553893em">h</tspan><tspan x="14.55" y="0" style="letter-spacing:0.059050847562217124em">a</tspan><tspan x="21.4" y="0" style="letter-spacing:-0.003948422199553893em">r</tspan><tspan x="25.68" y="0" style="letter-spacing:0.02904283884560753em">i</tspan><tspan x="29.09" y="0">f</tspan></text></g><g style="clip-path:url(#clip-path-12)"><text transform="translate(519.24 223.2)" style="font-size:11.125280380249023px;fill:#fff;font-family:Arial-BoldMT, Arial;font-weight:700;letter-spacing:-0.02904283884560753em">R<tspan x="7.71" y="0" style="letter-spacing:0.059050847562217124em">a</tspan><tspan x="14.56" y="0" style="letter-spacing:0.003948422199553893em">b</tspan><tspan x="21.4" y="0" style="letter-spacing:0.00008774271554564208em">i</tspan></text></g><g style="clip-path:url(#clip-path-13)"><text transform="translate(36.39 112.8)" style="font-size:11.125280380249023px;font-family:Arial-BoldMT, Arial;font-weight:700;letter-spacing:-0.00798458711465343em">G<tspan x="8.56" y="0" style="letter-spacing:0.024918931214962352em">P</tspan><tspan x="16.26" y="0" style="letter-spacing:0.00008774271554564208em">H</tspan></text></g><g style="clip-path:url(#clip-path-14)"><text transform="translate(36.39 223.2)" style="font-size:11.125280380249023px;font-family:Arial-BoldMT, Arial;font-weight:700"><tspan style="letter-spacing:-0.02904283884560753em">C</tspan><tspan x="7.71" y="0" style="letter-spacing:0.025006673930507997em">P</tspan><tspan x="15.41" y="0">H</tspan></text></g><g style="clip-path:url(#clip-path-15)"><text transform="translate(103.16 112.8)" style="font-size:11.125280380249023px;font-family:Arial-BoldMT, Arial;font-weight:700"><tspan style="letter-spacing:-0.028955096130061884em">R</tspan><tspan x="7.71" y="0" style="letter-spacing:-0.025006673930507997em">-</tspan><tspan x="11.14" y="0" style="letter-spacing:-0.01693434410030893em">11</tspan><tspan x="23.14" y="0" style="letter-spacing:0.02904283884560753em">, </tspan><tspan x="29.96" y="0" style="letter-spacing:-0.02904283884560753em">R</tspan><tspan x="37.67" y="0" style="letter-spacing:-0.025006673930507997em">-</tspan><tspan x="41.1" y="0" style="letter-spacing:-0.01693434410030893em">1</tspan><tspan x="47.1" y="0">3</tspan></text></g><g style="clip-path:url(#clip-path-16)"><text transform="translate(103.16 223.2)" style="font-size:11.125280380249023px;font-family:Arial-BoldMT, Arial;font-weight:700"><tspan style="letter-spacing:-0.028955096130061884em">R</tspan><tspan x="7.71" y="0" style="letter-spacing:-0.025006673930507997em">-</tspan><tspan x="11.14" y="0" style="letter-spacing:-0.01693434410030893em">14</tspan><tspan x="23.14" y="0" style="letter-spacing:0.02904283884560753em">, </tspan><tspan x="29.96" y="0" style="letter-spacing:-0.02904283884560753em">R</tspan><tspan x="37.67" y="0" style="letter-spacing:-0.025006673930507997em">-</tspan><tspan x="41.1" y="0" style="letter-spacing:-0.01693434410030893em">1</tspan><tspan x="47.1" y="0">5</tspan></text></g><g style="clip-path:url(#clip-path-17)"><text transform="translate(368.57 76)" style="font-size:11.125280380249023px;fill:#fff;font-family:Arial-BoldMT, Arial;font-weight:700"><tspan style="letter-spacing:-0.028955096130061884em">K</tspan><tspan x="7.71" y="0" style="letter-spacing:0.003948422199553893em">h</tspan><tspan x="14.55" y="0" style="letter-spacing:0.059050847562217124em">a</tspan><tspan x="21.4" y="0" style="letter-spacing:-0.003948422199553893em">r</tspan><tspan x="25.68" y="0" style="letter-spacing:0.02904283884560753em">i</tspan><tspan x="29.09" y="0">f</tspan></text></g><g style="clip-path:url(#clip-path-18)"><polyline points="2.99 1.55 2.99 2.4 897.65 2.4 897.65 1.55 2.99 1.55" style="fill:#bfbfbf;fill-rule:evenodd"/><polyline points="262.4 2.4 262.4 54.61 263.25 54.61 263.25 2.4 262.4 2.4" style="fill:#bfbfbf;fill-rule:evenodd"/><polyline points="506.4 2.4 506.4 54.61 507.25 54.61 507.25 2.4 506.4 2.4" style="fill:#bfbfbf;fill-rule:evenodd"/><polyline points="2.99 53.75 2.99 54.61 897.65 54.61 897.65 53.75 2.99 53.75" style="fill:#bfbfbf;fill-rule:evenodd"/><polyline points="896.8 2.4 896.8 54.61 897.65 54.61 897.65 2.4 896.8 2.4" style="fill:#bfbfbf;fill-rule:evenodd"/><polyline points="360 2.4 360 54.61 360.85 54.61 360.85 2.4 360 2.4" style="fill:#bfbfbf;fill-rule:evenodd"/><polyline points="408.8 2.4 408.8 54.61 409.65 54.61 409.65 2.4 408.8 2.4" style="fill:#bfbfbf;fill-rule:evenodd"/><polyline points="652.8 2.4 652.8 54.61 653.65 54.61 653.65 2.4 652.8 2.4" style="fill:#bfbfbf;fill-rule:evenodd"/><polyline points="214.45 90.55 214.45 91.41 702.45 91.41 702.45 90.55 214.45 90.55" style="fill:#bfbfbf;fill-rule:evenodd"/><polyline points="701.6 2.4 701.6 54.61 702.45 54.61 702.45 2.4 701.6 2.4" style="fill:#bfbfbf;fill-rule:evenodd"/><polyline points="555.2 2.4 555.2 91.41 556.05 91.41 556.05 2.4 555.2 2.4" style="fill:#bfbfbf;fill-rule:evenodd"/><polyline points="604 2.4 604 54.61 604.85 54.61 604.85 2.4 604 2.4" style="fill:#bfbfbf;fill-rule:evenodd"/><polyline points="848 2.4 848 54.61 848.85 54.61 848.85 2.4 848 2.4" style="fill:#bfbfbf;fill-rule:evenodd"/><polyline points="214.45 127.35 214.45 128.21 897.65 128.21 897.65 127.35 214.45 127.35" style="fill:#bfbfbf;fill-rule:evenodd"/><polyline points="896.8 54.61 896.8 127.35 897.65 127.35 897.65 54.61 896.8 54.61" style="fill:#d4d4d4;fill-rule:evenodd"/><polyline points="2.99 164.15 2.99 165 897.65 165 897.65 164.15 2.99 164.15" style="fill:#bfbfbf;fill-rule:evenodd"/><polyline points="360 91.41 360 128.21 360.85 128.21 360.85 91.41 360 91.41" style="fill:#bfbfbf;fill-rule:evenodd"/><polyline points="214.45 200.95 214.45 201.8 702.45 201.8 702.45 200.95 214.45 200.95" style="fill:#bfbfbf;fill-rule:evenodd"/><polyline points="701.6 91.41 701.6 128.21 702.45 128.21 702.45 91.41 701.6 91.41" style="fill:#bfbfbf;fill-rule:evenodd"/><polyline points="555.2 128.21 555.2 201.8 556.05 201.8 556.05 128.21 555.2 128.21" style="fill:#bfbfbf;fill-rule:evenodd"/><polyline points="214.45 237.75 214.45 238.6 897.65 238.6 897.65 237.75 214.45 237.75" style="fill:#bfbfbf;fill-rule:evenodd"/><polyline points="896.8 165 896.8 237.75 897.65 237.75 897.65 165 896.8 165" style="fill:#d4d4d4;fill-rule:evenodd"/><polyline points="360 201.8 360 238.6 360.85 238.6 360.85 201.8 360 201.8" style="fill:#bfbfbf;fill-rule:evenodd"/><polyline points="701.6 201.8 701.6 238.6 702.45 238.6 702.45 201.8 701.6 201.8" style="fill:#bfbfbf;fill-rule:evenodd"/><polyline points="2.99 274.55 2.99 275.4 897.65 275.4 897.65 274.55 2.99 274.55" style="fill:#bfbfbf;fill-rule:evenodd"/><polyline points="2.13 1.55 2.13 312.2 2.99 312.2 2.99 1.55 2.13 1.55" style="fill:#bfbfbf;fill-rule:evenodd"/><polyline points="2.99 311.35 2.99 312.2 897.65 312.2 897.65 311.35 2.99 311.35" style="fill:#bfbfbf;fill-rule:evenodd"/><polyline points="896.8 275.4 896.8 311.35 897.65 311.35 897.65 275.4 896.8 275.4" style="fill:#d4d4d4;fill-rule:evenodd"/><polyline points="92.88 2.4 92.88 312.2 93.74 312.2 93.74 2.4 92.88 2.4" style="fill:#bfbfbf;fill-rule:evenodd"/><polyline points="213.6 2.4 213.6 312.2 214.45 312.2 214.45 2.4 213.6 2.4" style="fill:#bfbfbf;fill-rule:evenodd"/><polyline points="311.2 2.4 311.2 54.61 312.05 54.61 312.05 2.4 311.2 2.4" style="fill:#bfbfbf;fill-rule:evenodd"/><polyline points="360 275.4 360 312.2 360.85 312.2 360.85 275.4 360 275.4" style="fill:#bfbfbf;fill-rule:evenodd"/><polyline points="457.6 2.4 457.6 54.61 458.45 54.61 458.45 2.4 457.6 2.4" style="fill:#bfbfbf;fill-rule:evenodd"/><polyline points="555.2 238.6 555.2 275.4 556.05 275.4 556.05 238.6 555.2 238.6" style="fill:#bfbfbf;fill-rule:evenodd"/><polyline points="701.6 275.4 701.6 312.2 702.45 312.2 702.45 275.4 701.6 275.4" style="fill:#bfbfbf;fill-rule:evenodd"/><polyline points="750.4 2.4 750.4 54.61 751.25 54.61 751.25 2.4 750.4 2.4" style="fill:#bfbfbf;fill-rule:evenodd"/><polyline points="799.2 2.4 799.2 54.61 800.05 54.61 800.05 2.4 799.2 2.4" style="fill:#bfbfbf;fill-rule:evenodd"/><polyline points="897.65 1.55 897.65 2.4 898.51 2.4 898.51 1.55 897.65 1.55" style="fill:#d4d4d4;fill-rule:evenodd"/><polyline points="897.65 53.75 897.65 54.61 898.51 54.61 898.51 53.75 897.65 53.75" style="fill:#d4d4d4;fill-rule:evenodd"/><polyline points="702.45 90.55 702.45 91.41 898.51 91.41 898.51 90.55 702.45 90.55" style="fill:#d4d4d4;fill-rule:evenodd"/><polyline points="897.65 127.35 897.65 128.21 898.51 128.21 898.51 127.35 897.65 127.35" style="fill:#d4d4d4;fill-rule:evenodd"/><polyline points="897.65 164.15 897.65 165 898.51 165 898.51 164.15 897.65 164.15" style="fill:#d4d4d4;fill-rule:evenodd"/><polyline points="702.45 200.95 702.45 201.8 898.51 201.8 898.51 200.95 702.45 200.95" style="fill:#d4d4d4;fill-rule:evenodd"/><polyline points="897.65 237.75 897.65 238.6 898.51 238.6 898.51 237.75 897.65 237.75" style="fill:#d4d4d4;fill-rule:evenodd"/><polyline points="897.65 274.55 897.65 275.4 898.51 275.4 898.51 274.55 897.65 274.55" style="fill:#d4d4d4;fill-rule:evenodd"/><polyline points="897.65 311.35 897.65 312.2 898.51 312.2 898.51 311.35 897.65 311.35" style="fill:#d4d4d4;fill-rule:evenodd"/></g></svg>