<svg id="Layer_1" data-name="Layer 1" xmlns="http://www.w3.org/2000/svg" xmlns:xlink="http://www.w3.org/1999/xlink" viewBox="0 0 900 350"><defs><clipPath id="clip-path"><polygon points="3 346.39 895.52 346.39 895.52 2 3 2 3 346.39 3 346.39" style="fill:none;clip-rule:evenodd"/></clipPath><clipPath id="clip-path-2"><polygon points="67.58 304.8 880.19 304.8 880.19 19.65 67.58 19.65 67.58 304.8 67.58 304.8" style="fill:none;clip-rule:evenodd"/></clipPath><clipPath id="clip-path-6"><rect x="3" y="2" width="892.52" height="344.39" style="fill:none"/></clipPath><clipPath id="clip-path-17"><rect x="220.01" y="102.98" width="185.67" height="18.47" style="fill:none"/></clipPath></defs><title>yar</title><polygon points="3 2.14 895.52 2.14 895.52 346.39 3 346.39 3 2.14 3 2.14" style="fill:#eaeaea;fill-rule:evenodd"/><polygon points="67.72 19.65 879.51 19.65 879.51 303.98 67.72 303.98 67.72 19.65 67.72 19.65" style="fill:#fff;fill-rule:evenodd"/><path d="M67.72,304H879.51M67.72,232.83H879.51m-811.79-71H879.51M67.72,90.8H879.51M67.72,19.65H879.51" style="fill:none;stroke:#d9d9d9;stroke-linejoin:round;stroke-width:0.820956508048314px"/><g style="clip-path:url(#clip-path)"><path d="M67.72,19.65V304M230,19.65V304M392.41,19.65V304M554.82,19.65V304M717.1,19.65V304M879.51,19.65V304" style="fill:none;stroke:#d9d9d9;stroke-linejoin:round;stroke-width:0.820956508048314px"/></g><g style="clip-path:url(#clip-path-2)"><path d="M116.43,258.69h65v4.24h-65v-4.24Zm162.27,0h65v12.17h-65V258.69Zm162.42,0h65v2.19h-65v-2.19Zm162.41,0h64.86v2.46H603.53v-2.46Zm162.28,0h65V262h-65v-3.28Z" style="fill:#ff25f3"/></g><g style="clip-path:url(#clip-path-2)"><path d="M116.43,50.57h65V258.69h-65V50.57ZM278.7,138h65V258.69h-65V138Zm162.42,12.72h65v108h-65v-108Zm162.41-4.1h64.86V258.69H603.53V146.63ZM765.81,95.18h65V258.69h-65V95.18Z" style="fill:#5e9fff"/></g><g style="clip-path:url(#clip-path-2)"><path d="M116.43,46.33h65v4.24h-65V46.33Zm162.27,79.5h65V138h-65V125.83Zm162.42,22.71h65v2.19h-65v-2.19Zm162.41-4.24h64.86v2.33H603.53V144.3ZM765.81,91.89h65v3.29h-65V91.89Z" style="fill:#0044ab"/></g><g style="clip-path:url(#clip-path)"><line x1="67.72" y1="258.69" x2="879.51" y2="258.69" style="fill:none;stroke:#d9d9d9;stroke-linejoin:round;stroke-width:0.820956508048314px"/></g><g style="clip-path:url(#clip-path-6)"><text transform="translate(141.19 284.96)" style="font-size:10.26196002960205px;font-family:Arial-BoldMT, Arial;font-weight:700">-</text></g><g style="clip-path:url(#clip-path-6)"><text transform="translate(144.61 284.96)" style="font-size:10.26196002960205px;font-family:Arial-BoldMT, Arial;font-weight:700;letter-spacing:0.0030452272187627928em">2<tspan x="5.74" y="0" style="letter-spacing:-0.00009516335058633727em">%</tspan></text></g><g style="clip-path:url(#clip-path-6)"><text transform="translate(299.16 288.49)" style="font-size:10.26196002960205px;font-family:Arial-BoldMT, Arial;font-weight:700">-</text></g><g style="clip-path:url(#clip-path-6)"><text transform="translate(302.57 288.49)" style="font-size:10.26196002960205px;font-family:Arial-BoldMT, Arial;font-weight:700"><tspan style="letter-spacing:0.0030452272187627928em">10</tspan><tspan x="11.48" y="0">%</tspan></text></g><g style="clip-path:url(#clip-path-6)"><text transform="translate(465.62 279.85)" style="font-size:10.26196002960205px;font-family:Arial-BoldMT, Arial;font-weight:700">-</text></g><g style="clip-path:url(#clip-path-6)"><text transform="translate(469.04 279.85)" style="font-size:10.26196002960205px;font-family:Arial-BoldMT, Arial;font-weight:700;letter-spacing:0.0030452272187627928em">2<tspan x="5.74" y="0" style="letter-spacing:-0.00009516335058633727em">%</tspan></text></g><g style="clip-path:url(#clip-path-6)"><text transform="translate(628.23 280.42)" style="font-size:10.26196002960205px;font-family:Arial-BoldMT, Arial;font-weight:700">-</text></g><g style="clip-path:url(#clip-path-6)"><text transform="translate(631.65 280.42)" style="font-size:10.26196002960205px;font-family:Arial-BoldMT, Arial;font-weight:700;letter-spacing:0.0030452272187627928em">2<tspan x="5.74" y="0" style="letter-spacing:-0.00009516335058633727em">%</tspan></text></g><g style="clip-path:url(#clip-path-6)"><text transform="translate(790.58 280.29)" style="font-size:10.26196002960205px;font-family:Arial-BoldMT, Arial;font-weight:700">-</text></g><g style="clip-path:url(#clip-path-6)"><text transform="translate(794.01 280.29)" style="font-size:10.26196002960205px;font-family:Arial-BoldMT, Arial;font-weight:700;letter-spacing:0.0030452272187627928em">2<tspan x="5.74" y="0" style="letter-spacing:-0.00009516335058633727em">%</tspan></text></g><g style="clip-path:url(#clip-path-6)"><text transform="translate(138.58 39.81)" style="font-size:10.26196002960205px;font-family:Arial-BoldMT, Arial;font-weight:700"><tspan style="letter-spacing:0.0019984303623130826em">+</tspan><tspan x="6.01" y="0" style="letter-spacing:0.0029500638681764554em">2</tspan><tspan x="11.75" y="0">%</tspan></text></g><g style="clip-path:url(#clip-path-17)"><text transform="translate(299.68 115.92)" style="font-size:10.26196002960205px;font-family:Arial-BoldMT, Arial;font-weight:700"><tspan style="letter-spacing:0.0019984303623130826em">+</tspan><tspan x="6.01" y="0" style="letter-spacing:0.0029500638681764554em">10</tspan><tspan x="17.49" y="0">%</tspan></text></g><g style="clip-path:url(#clip-path-6)"><text transform="translate(464.52 137.8)" style="font-size:10.26196002960205px;font-family:Arial-BoldMT, Arial;font-weight:700"><tspan style="letter-spacing:0.0019984303623130826em">+</tspan><tspan x="6.01" y="0" style="letter-spacing:0.0029500638681764554em">2</tspan><tspan x="11.75" y="0">%</tspan></text></g><g style="clip-path:url(#clip-path-6)"><text transform="translate(628.82 131.58)" style="font-size:10.26196002960205px;font-family:Arial-BoldMT, Arial;font-weight:700"><tspan style="letter-spacing:0.0019984303623130826em">+</tspan><tspan x="6.01" y="0" style="letter-spacing:0.0029500638681764554em">2</tspan><tspan x="11.75" y="0">%</tspan></text></g><g style="clip-path:url(#clip-path-6)"><text transform="translate(785.49 83.15)" style="font-size:10.26196002960205px;font-family:Arial-BoldMT, Arial;font-weight:700"><tspan style="letter-spacing:0.0019984303623130826em">+</tspan><tspan x="6.01" y="0" style="letter-spacing:0.0029500638681764554em">2</tspan><tspan x="11.75" y="0">%</tspan></text></g><g style="clip-path:url(#clip-path-6)"><text transform="translate(35.5 307.24)" style="font-size:10.26196002960205px;font-family:Arial-BoldMT, Arial;font-weight:700">-<tspan x="3.42" y="0" style="letter-spacing:0.0030452272187627928em">1</tspan><tspan x="9.16" y="0" style="letter-spacing:0.0019984303623130826em">.</tspan><tspan x="12.03" y="0" style="letter-spacing:-0.009040518305702041em">7</tspan><tspan x="17.64" y="0">5</tspan></text></g><g style="clip-path:url(#clip-path-6)"><text transform="translate(38.91 236.16)" style="font-size:10.26196002960205px;font-family:Arial-BoldMT, Arial;font-weight:700"><tspan style="letter-spacing:0.0030452272187627928em">1</tspan><tspan x="5.74" y="0" style="letter-spacing:0.0019032670117267456em">.</tspan><tspan x="8.61" y="0" style="letter-spacing:-0.008945354955115704em">0</tspan><tspan x="14.22" y="0">0</tspan></text></g><g style="clip-path:url(#clip-path-6)"><text transform="translate(38.91 165.09)" style="font-size:10.26196002960205px;font-family:Arial-BoldMT, Arial;font-weight:700"><tspan style="letter-spacing:0.0030452272187627928em">3</tspan><tspan x="5.74" y="0" style="letter-spacing:0.0019032670117267456em">.</tspan><tspan x="8.61" y="0" style="letter-spacing:-0.008945354955115704em">7</tspan><tspan x="14.22" y="0">5</tspan></text></g><g style="clip-path:url(#clip-path-6)"><text transform="translate(38.91 94.01)" style="font-size:10.26196002960205px;font-family:Arial-BoldMT, Arial;font-weight:700"><tspan style="letter-spacing:0.0030452272187627928em">6</tspan><tspan x="5.74" y="0" style="letter-spacing:0.0019032670117267456em">.</tspan><tspan x="8.61" y="0" style="letter-spacing:-0.008945354955115704em">5</tspan><tspan x="14.22" y="0">0</tspan></text></g><g style="clip-path:url(#clip-path-6)"><text transform="translate(38.91 22.93)" style="font-size:10.26196002960205px;font-family:Arial-BoldMT, Arial;font-weight:700"><tspan style="letter-spacing:0.0030452272187627928em">9</tspan><tspan x="5.74" y="0" style="letter-spacing:0.0019032670117267456em">.</tspan><tspan x="8.61" y="0" style="letter-spacing:-0.008945354955115704em">2</tspan><tspan x="14.22" y="0">5</tspan></text></g><g style="clip-path:url(#clip-path-6)"><text transform="translate(140.62 319.45)" style="font-size:10.26196002960205px;font-family:Arial-BoldMT, Arial;font-weight:700"><tspan style="letter-spacing:-0.0019984303623130826em">R</tspan><tspan x="7.39" y="0">-3</tspan></text></g><g style="clip-path:url(#clip-path-6)"><text transform="translate(300.12 319.45)" style="font-size:10.26196002960205px;font-family:Arial-BoldMT, Arial;font-weight:700"><tspan style="letter-spacing:-0.0019984303623130826em">R</tspan><tspan x="7.39" y="0">-</tspan><tspan x="10.81" y="0" style="letter-spacing:0.0030452272187627928em">1</tspan><tspan x="16.55" y="0">1</tspan></text></g><g style="clip-path:url(#clip-path-6)"><text transform="translate(462.46 319.45)" style="font-size:10.26196002960205px;font-family:Arial-BoldMT, Arial;font-weight:700"><tspan style="letter-spacing:-0.0019984303623130826em">R</tspan><tspan x="7.39" y="0">-</tspan><tspan x="10.81" y="0" style="letter-spacing:0.0030452272187627928em">1</tspan><tspan x="16.55" y="0">3</tspan></text></g><g style="clip-path:url(#clip-path-6)"><text transform="translate(624.81 319.45)" style="font-size:10.26196002960205px;font-family:Arial-BoldMT, Arial;font-weight:700"><tspan style="letter-spacing:-0.0019984303623130826em">R</tspan><tspan x="7.39" y="0">-</tspan><tspan x="10.81" y="0" style="letter-spacing:0.0030452272187627928em">1</tspan><tspan x="16.55" y="0">4</tspan></text></g><g style="clip-path:url(#clip-path-6)"><text transform="translate(787.17 319.45)" style="font-size:10.26196002960205px;font-family:Arial-BoldMT, Arial;font-weight:700"><tspan style="letter-spacing:-0.0019984303623130826em">R</tspan><tspan x="7.39" y="0">-</tspan><tspan x="10.81" y="0" style="letter-spacing:0.0030452272187627928em">1</tspan><tspan x="16.55" y="0">5</tspan></text></g><g style="clip-path:url(#clip-path-6)"><text transform="translate(22.3 235.99) rotate(-90)" style="font-size:11.35657024383545px;font-family:Arial-BoldMT, Arial;font-weight:700"><tspan style="letter-spacing:0.005073467276026902em">Q</tspan><tspan x="8.89" y="0" style="letter-spacing:0.002923693006523977em">u</tspan><tspan x="15.86" y="0" style="letter-spacing:-0.0010318916493614037em">a</tspan><tspan x="22.17" y="0" style="letter-spacing:0.002923693006523977em">n</tspan><tspan x="29.14" y="0" style="letter-spacing:0.004041575626665498em">t</tspan><tspan x="32.96" y="0" style="letter-spacing:-0.00008599097078011697em">i</tspan><tspan x="36.12" y="0" style="letter-spacing:0.004041575626665498em">t</tspan><tspan x="39.95" y="0" style="letter-spacing:-0.013070627558577779em">y</tspan><tspan x="46.12" y="0" style="letter-spacing:0.011006844259854973em"> </tspan><tspan x="49.4" y="0">&amp; </tspan><tspan x="60.75" y="0" style="letter-spacing:0.006965268633189475em">Y</tspan><tspan x="68.41" y="0" style="letter-spacing:-0.0010318916493614037em">a</tspan><tspan x="74.71" y="0">R</tspan><tspan x="82.91" y="0" style="letter-spacing:0.011006844259854973em"> </tspan><tspan x="86.19" y="0" style="letter-spacing:0.0039555846558853806em">(</tspan><tspan x="90.02" y="0" style="letter-spacing:0.022013688519709945em">M</tspan><tspan x="99.73" y="0" style="letter-spacing:0.014962428915740353em">T</tspan><tspan x="106.84" y="0" style="letter-spacing:-0.00008599097078011697em">)</tspan></text></g><g style="clip-path:url(#clip-path-6)"><text transform="translate(425.2 338.41)" style="font-size:11.35657024383545px;font-family:Arial-BoldMT, Arial;font-weight:700">R<tspan x="8.2" y="0" style="letter-spacing:-0.0010318916493614037em">e</tspan><tspan x="14.51" y="0" style="letter-spacing:0.003009683977304094em">g</tspan><tspan x="21.48" y="0" style="letter-spacing:-0.00008599097078011697em">i</tspan><tspan x="24.63" y="0" style="letter-spacing:0.003009683977304094em">on</tspan><tspan x="38.57" y="0">s</tspan></text></g><polygon points="3 2.14 895.52 2.14 895.52 346.39 3 346.39 3 2.14 3 2.14" style="fill:none;stroke:#d9d9d9;stroke-linejoin:round;stroke-width:0.820956576010569px"/></svg>