<svg id="Layer_1" data-name="Layer 1" xmlns="http://www.w3.org/2000/svg" xmlns:xlink="http://www.w3.org/1999/xlink" viewBox="0 0 900 350"><defs><clipPath id="clip-path"><polygon points="2.17 346.6 897.83 346.6 897.83 3.4 2.17 3.4 2.17 346.6 2.17 346.6" style="fill:none;clip-rule:evenodd"/></clipPath><clipPath id="clip-path-2"><polygon points="75.48 312.95 866.78 312.95 866.78 20.77 75.48 20.77 75.48 312.95 75.48 312.95" style="fill:none;clip-rule:evenodd"/></clipPath><clipPath id="clip-path-13"><rect x="2.17" y="3.4" width="895.67" height="343.19" style="fill:none"/></clipPath></defs><title>ground-truth-risk-report</title><polygon points="2.3 3.54 897.83 3.54 897.83 346.6 2.3 346.6 2.3 3.54 2.3 3.54" style="fill:#eaeaea;fill-rule:evenodd"/><polygon points="75.48 20.77 865.96 20.77 865.96 312.13 75.48 312.13 75.48 20.77 75.48 20.77" style="fill:#fff;fill-rule:evenodd"/><path d="M75.48,242.23H866M75.48,172.33H866M75.48,102.44H866M75.48,32.54H866" style="fill:none;stroke:#d9d9d9;stroke-linejoin:round;stroke-width:0.82070940299424px"/><g style="clip-path:url(#clip-path)"><path d="M75.48,20.77V312.13M339.07,20.77V312.13M602.52,20.77V312.13M866,20.77V312.13" style="fill:none;stroke:#d9d9d9;stroke-linejoin:round;stroke-width:0.82070940299424px"/></g><g style="clip-path:url(#clip-path-2)"><polygon points="156.6 102.44 257.95 102.44 257.95 312.13 156.6 312.13 156.6 102.44 156.6 102.44" style="fill:#5e9fff;fill-rule:evenodd"/><polygon points="156.6 102.44 257.95 102.44 257.95 312.13 156.6 312.13 156.6 102.44 156.6 102.44" style="fill:none;stroke:#7f7f7f;stroke-linejoin:round;stroke-width:0.82070940299424px"/><polygon points="420.18 88.35 521.4 88.35 521.4 312.13 420.18 312.13 420.18 88.35 420.18 88.35" style="fill:#5e9fff;fill-rule:evenodd"/><polygon points="420.18 88.35 521.4 88.35 521.4 312.13 420.18 312.13 420.18 88.35 420.18 88.35" style="fill:none;stroke:#7f7f7f;stroke-linejoin:round;stroke-width:0.82070940299424px"/><polygon points="683.63 79.05 784.99 79.05 784.99 312.13 683.63 312.13 683.63 79.05 683.63 79.05" style="fill:#5e9fff;fill-rule:evenodd"/><polygon points="683.63 79.05 784.99 79.05 784.99 312.13 683.63 312.13 683.63 79.05 683.63 79.05" style="fill:none;stroke:#7f7f7f;stroke-linejoin:round;stroke-width:0.82070940299424px"/></g><g style="clip-path:url(#clip-path)"><line x1="75.48" y1="312.13" x2="865.96" y2="312.13" style="fill:none;stroke:#d9d9d9;stroke-linejoin:round;stroke-width:0.82070940299424px"/></g><g style="clip-path:url(#clip-path)"><path d="M75.48,312.13v3.14m263.59-3.14v3.14m263.45-3.14v3.14M866,312.13v3.14" style="fill:none;stroke:#d9d9d9;stroke-linejoin:round;stroke-width:0.82070940299424px"/></g><g style="clip-path:url(#clip-path-2)"><polyline points="207.34 59.08 470.79 59.08 734.24 59.08" style="fill:none;stroke:#06f;stroke-linecap:round;stroke-linejoin:round;stroke-width:1.368px;stroke-dasharray:5,5"/></g><g style="clip-path:url(#clip-path)"><path d="M210.19,59a2.88,2.88,0,1,1-2.87-2.88A2.88,2.88,0,0,1,210.19,59Z" style="fill:#06f"/><path d="M210.19,59a2.88,2.88,0,1,1-2.87-2.88A2.88,2.88,0,0,1,210.19,59Z" style="fill:none;stroke:#2935e8;stroke-linejoin:round;stroke-width:0.820709470936038px"/><path d="M473.64,59a2.88,2.88,0,1,1-2.88-2.88A2.88,2.88,0,0,1,473.64,59Z" style="fill:#06f"/><path d="M473.64,59a2.88,2.88,0,1,1-2.88-2.88A2.88,2.88,0,0,1,473.64,59Z" style="fill:none;stroke:#2935e8;stroke-linejoin:round;stroke-width:0.820709470936038px"/><path d="M737.08,59a2.87,2.87,0,1,1-2.87-2.88A2.87,2.87,0,0,1,737.08,59Z" style="fill:#06f"/><path d="M737.08,59a2.87,2.87,0,1,1-2.87-2.88A2.87,2.87,0,0,1,737.08,59Z" style="fill:none;stroke:#2935e8;stroke-linejoin:round;stroke-width:0.820709470936038px"/></g><g style="clip-path:url(#clip-path-2)"><polyline points="207.34 133.21 470.79 133.21 734.24 133.21" style="fill:none;stroke:#ff25f3;stroke-linecap:round;stroke-linejoin:round;stroke-width:1.368px;stroke-dasharray:5,5"/></g><g style="clip-path:url(#clip-path)"><path d="M210.19,133.17a2.88,2.88,0,1,1-2.87-2.87,2.88,2.88,0,0,1,2.87,2.87Z" style="fill:#ff25f3"/><path d="M210.19,133.17a2.88,2.88,0,1,1-2.87-2.87,2.88,2.88,0,0,1,2.87,2.87Z" style="fill:none;stroke:#d9d9d9;stroke-linejoin:round;stroke-width:0.820709470936038px"/><path d="M473.64,133.17a2.88,2.88,0,1,1-2.88-2.87,2.88,2.88,0,0,1,2.88,2.87Z" style="fill:#ff25f3"/><path d="M473.64,133.17a2.88,2.88,0,1,1-2.88-2.87,2.88,2.88,0,0,1,2.88,2.87Z" style="fill:none;stroke:#d9d9d9;stroke-linejoin:round;stroke-width:0.820709470936038px"/><path d="M737.08,133.17a2.87,2.87,0,1,1-2.87-2.87,2.87,2.87,0,0,1,2.87,2.87Z" style="fill:#ff25f3"/><path d="M737.08,133.17a2.87,2.87,0,1,1-2.87-2.87,2.87,2.87,0,0,1,2.87,2.87Z" style="fill:none;stroke:#d9d9d9;stroke-linejoin:round;stroke-width:0.820709470936038px"/></g><g style="clip-path:url(#clip-path-2)"><polyline points="207.34 83.7 470.79 83.7 734.24 83.7" style="fill:none;stroke:#7f7f7f;stroke-linecap:round;stroke-linejoin:round;stroke-width:1.36784898234313px"/></g><g style="clip-path:url(#clip-path)"><path d="M210.19,83.66a2.88,2.88,0,1,1-2.87-2.88,2.88,2.88,0,0,1,2.87,2.88Z" style="fill:#7f7f7f"/><path d="M210.19,83.66a2.88,2.88,0,1,1-2.87-2.88,2.88,2.88,0,0,1,2.87,2.88Z" style="fill:none;stroke:#7f7f7f;stroke-linejoin:round;stroke-width:0.820709470936038px"/><path d="M473.64,83.66a2.88,2.88,0,1,1-2.88-2.88,2.88,2.88,0,0,1,2.88,2.88Z" style="fill:#7f7f7f"/><path d="M473.64,83.66a2.88,2.88,0,1,1-2.88-2.88,2.88,2.88,0,0,1,2.88,2.88Z" style="fill:none;stroke:#7f7f7f;stroke-linejoin:round;stroke-width:0.820709470936038px"/><path d="M737.08,83.66a2.87,2.87,0,1,1-2.87-2.88,2.87,2.87,0,0,1,2.87,2.88Z" style="fill:#7f7f7f"/><path d="M737.08,83.66a2.87,2.87,0,1,1-2.87-2.88,2.87,2.87,0,0,1,2.87,2.88Z" style="fill:none;stroke:#7f7f7f;stroke-linejoin:round;stroke-width:0.820709470936038px"/></g><g style="clip-path:url(#clip-path-2)"><polyline points="207.34 102.44 470.79 102.44 734.24 102.44" style="fill:none;stroke:#00a188;stroke-linecap:round;stroke-linejoin:round;stroke-width:1.36784898234313px"/></g><g style="clip-path:url(#clip-path)"><path d="M210.19,102.4a2.88,2.88,0,1,1-2.87-2.88,2.88,2.88,0,0,1,2.87,2.88Z" style="fill:#00a188"/><path d="M210.19,102.4a2.88,2.88,0,1,1-2.87-2.88,2.88,2.88,0,0,1,2.87,2.88Z" style="fill:none;stroke:#d9d9d9;stroke-linejoin:round;stroke-width:0.820709470936038px"/><path d="M473.64,102.4a2.88,2.88,0,1,1-2.88-2.88,2.88,2.88,0,0,1,2.88,2.88Z" style="fill:#00a188"/><path d="M473.64,102.4a2.88,2.88,0,1,1-2.88-2.88,2.88,2.88,0,0,1,2.88,2.88Z" style="fill:none;stroke:#d9d9d9;stroke-linejoin:round;stroke-width:0.820709470936038px"/><path d="M737.08,102.4a2.87,2.87,0,1,1-2.87-2.88,2.87,2.87,0,0,1,2.87,2.88Z" style="fill:#00a188"/><path d="M737.08,102.4a2.87,2.87,0,1,1-2.87-2.88,2.87,2.87,0,0,1,2.87,2.88Z" style="fill:none;stroke:#d9d9d9;stroke-linejoin:round;stroke-width:0.820709470936038px"/></g><g style="clip-path:url(#clip-path-13)"><text transform="translate(46.76 315.38)" style="font-size:10.258870124816895px;font-family:ArialMT, Arial;letter-spacing:0.003046144421343648em">0<tspan x="5.74" y="0" style="letter-spacing:0.0019990322765067693em">.</tspan><tspan x="8.61" y="0" style="letter-spacing:-0.009043241250863955em">0</tspan><tspan x="14.22" y="0" style="letter-spacing:0.000095192013166989em">0</tspan></text></g><g style="clip-path:url(#clip-path-13)"><text transform="translate(46.76 245.47)" style="font-size:10.258870124816895px;font-family:ArialMT, Arial;letter-spacing:0.003046144421343648em">0<tspan x="5.74" y="0" style="letter-spacing:0.0019990322765067693em">.</tspan><tspan x="8.61" y="0" style="letter-spacing:-0.009043241250863955em">3</tspan><tspan x="14.22" y="0" style="letter-spacing:0.000095192013166989em">0</tspan></text></g><g style="clip-path:url(#clip-path-13)"><text transform="translate(46.76 175.57)" style="font-size:10.258870124816895px;font-family:ArialMT, Arial;letter-spacing:0.003046144421343648em">0<tspan x="5.74" y="0" style="letter-spacing:0.0019990322765067693em">.</tspan><tspan x="8.61" y="0" style="letter-spacing:-0.009043241250863955em">6</tspan><tspan x="14.22" y="0" style="letter-spacing:0.000095192013166989em">0</tspan></text></g><g style="clip-path:url(#clip-path-13)"><text transform="translate(46.76 105.66)" style="font-size:10.258870124816895px;font-family:ArialMT, Arial;letter-spacing:0.003046144421343648em">0<tspan x="5.74" y="0" style="letter-spacing:0.0019990322765067693em">.</tspan><tspan x="8.61" y="0" style="letter-spacing:-0.009043241250863955em">9</tspan><tspan x="14.22" y="0" style="letter-spacing:0.000095192013166989em">0</tspan></text></g><g style="clip-path:url(#clip-path-13)"><text transform="translate(46.76 35.75)" style="font-size:10.258870124816895px;font-family:ArialMT, Arial;letter-spacing:0.003046144421343648em">1<tspan x="5.74" y="0" style="letter-spacing:0.0019990322765067693em">.</tspan><tspan x="8.61" y="0" style="letter-spacing:-0.009043241250863955em">2</tspan><tspan x="14.22" y="0" style="letter-spacing:0.000095192013166989em">0</tspan></text></g><g style="clip-path:url(#clip-path-13)"><text transform="translate(197.06 327.6)" style="font-size:10.258870124816895px;font-family:ArialMT, Arial">Jul</text></g><g style="clip-path:url(#clip-path-13)"><text transform="translate(460.56 327.6)" style="font-size:10.258870124816895px;font-family:ArialMT, Arial">Aug</text></g><g style="clip-path:url(#clip-path-13)"><text transform="translate(727.04 327.6)" style="font-size:10.258870124816895px;font-family:ArialMT, Arial">Sep</text></g><g style="clip-path:url(#clip-path-13)"><text transform="translate(26.81 212.01) rotate(-90)" style="font-size:11.353150367736816px;font-family:Arial-BoldMT, Arial;font-weight:700"><tspan style="letter-spacing:0.004988978668067353em">Q</tspan><tspan x="8.89" y="0" style="letter-spacing:0.0030105905755578853em">u</tspan><tspan x="15.86" y="0" style="letter-spacing:-0.0010322024830484177em">a</tspan><tspan x="22.16" y="0" style="letter-spacing:0.0030105905755578853em">n</tspan><tspan x="29.13" y="0" style="letter-spacing:0.004042793058606303em">t</tspan><tspan x="32.95" y="0">i</tspan><tspan x="36.11" y="0" style="letter-spacing:0.004042793058606303em">t</tspan><tspan x="39.93" y="0" style="letter-spacing:-0.01298854791169259em">y</tspan><tspan x="46.1" y="0" style="letter-spacing:0.011010159819183124em"> </tspan><tspan x="49.38" y="0" style="letter-spacing:0.0039567761850189355em">(</tspan><tspan x="53.21" y="0" style="letter-spacing:0.02202031963836625em">M</tspan><tspan x="62.91" y="0" style="letter-spacing:0.015052952877789428em">T</tspan><tspan x="70.02" y="0" style="letter-spacing:0.00008601687358736816em">)</tspan></text></g><g style="clip-path:url(#clip-path-13)"><text transform="translate(421.13 340.37)" style="font-size:11.353150367736816px;font-family:Arial-BoldMT, Arial;font-weight:700"><tspan style="letter-spacing:0.015052952877789428em">T</tspan><tspan x="7.11" y="0">i</tspan><tspan x="10.26" y="0" style="letter-spacing:0.0019783880925094677em">m</tspan><tspan x="20.38" y="0" style="letter-spacing:-0.0010322024830484177em">e</tspan><tspan x="26.68" y="0"> </tspan><tspan x="29.83" y="0" style="letter-spacing:-0.0039567761850189355em">P</tspan><tspan x="37.36" y="0" style="letter-spacing:-0.0010322024830484177em">e</tspan><tspan x="43.66" y="0" style="letter-spacing:-0.0030105905755578853em">r</tspan><tspan x="48.05" y="0">i</tspan><tspan x="51.2" y="0" style="letter-spacing:0.0030105905755578853em">o</tspan><tspan x="58.17" y="0" style="letter-spacing:0.00008601687358736816em">d</tspan></text></g><polygon points="2.3 3.54 897.83 3.54 897.83 346.6 2.3 346.6 2.3 3.54 2.3 3.54" style="fill:none;stroke:#d9d9d9;stroke-linejoin:round;stroke-width:0.820709470936038px"/></svg>