<svg id="Layer_1" data-name="Layer 1" xmlns="http://www.w3.org/2000/svg" xmlns:xlink="http://www.w3.org/1999/xlink" viewBox="0 0 900 350"><defs><clipPath id="clip-path"><polygon points="1.94 348.22 898.06 348.22 898.06 1.64 1.94 1.64 1.94 348.22 1.94 348.22" style="fill:none;clip-rule:evenodd"/></clipPath><clipPath id="clip-path-6"><polygon points="62.63 295.08 886.94 295.08 886.94 16.47 62.63 16.47 62.63 295.08 62.63 295.08" style="fill:none;clip-rule:evenodd"/></clipPath><clipPath id="clip-path-10"><rect x="1.94" y="1.64" width="896.12" height="346.58" style="fill:none"/></clipPath></defs><title>ndvi-risk-report</title><polygon points="2.08 1.64 898.06 1.64 898.06 348.36 2.08 348.36 2.08 1.64 2.08 1.64" style="fill:#eaeaea;fill-rule:evenodd"/><polygon points="62.77 16.61 886.11 16.61 886.11 294.26 62.77 294.26 62.77 16.61 62.77 16.61" style="fill:#fff;fill-rule:evenodd"/><path d="M62.77,224.78H886.11M62.77,155.43H886.11M62.77,86H886.11M62.77,16.61H886.11" style="fill:none;stroke:#d9d9d9;stroke-linejoin:round;stroke-width:0.82389080315636px"/><g style="clip-path:url(#clip-path)"><path d="M97.1,16.61V294.26M165.62,16.61V294.26M234.28,16.61V294.26M302.94,16.61V294.26M371.46,16.61V294.26M440.11,16.61V294.26M508.77,16.61V294.26M577.29,16.61V294.26M646,16.61V294.26M714.61,16.61V294.26M783.13,16.61V294.26M851.78,16.61V294.26" style="fill:none;stroke:#f2f2f2;stroke-linejoin:round;stroke-width:0.82389080315636px"/></g><g style="clip-path:url(#clip-path)"><path d="M62.77,16.61V294.26M131.29,16.61V294.26M200,16.61V294.26M268.61,16.61V294.26M337.26,16.61V294.26M405.78,16.61V294.26M474.44,16.61V294.26M543.1,16.61V294.26M611.62,16.61V294.26M680.28,16.61V294.26M748.94,16.61V294.26M817.46,16.61V294.26M886.11,16.61V294.26" style="fill:none;stroke:#d9d9d9;stroke-linejoin:round;stroke-width:0.82389080315636px"/></g><g style="clip-path:url(#clip-path)"><line x1="62.77" y1="294.26" x2="886.11" y2="294.26" style="fill:none;stroke:#d9d9d9;stroke-linejoin:round;stroke-width:1.37315131585888px"/></g><g style="clip-path:url(#clip-path)"><path d="M62.77,294.26V312.8m274.49-18.54V312.8m274.36-18.54V312.8m274.49-18.54V312.8" style="fill:none;stroke:#d9d9d9;stroke-linejoin:round;stroke-width:1.37315131585888px"/></g><g style="clip-path:url(#clip-path)"><path d="M62.77,312.8v18.53M337.26,312.8v18.53M611.62,312.8v18.53M886.11,312.8v18.53" style="fill:none;stroke:#d9d9d9;stroke-linejoin:round;stroke-width:1.37315131585888px"/></g><g style="clip-path:url(#clip-path-6)"><polyline points="97.1 224.78 165.62 188.66 234.28 155.43 302.94 138.68 371.46 105.45 440.11 99.82 508.77 77.58 577.29 94.33 645.95 127.56 714.61 141.56 783.13 155.43 851.78 172.05" style="fill:none;stroke:#ff25f3;stroke-linecap:round;stroke-linejoin:round;stroke-width:2.47167234126391px"/></g><g style="clip-path:url(#clip-path)"><polygon points="94.19 221.93 99.96 221.93 99.96 227.7 94.19 227.7 94.19 221.93 94.19 221.93" style="fill:#ff25f3;fill-rule:evenodd"/><polygon points="94.19 221.93 99.96 221.93 99.96 227.7 94.19 227.7 94.19 221.93 94.19 221.93" style="fill:none;stroke:#d9d9d9;stroke-linejoin:round;stroke-width:0.823890871361527px"/><polygon points="162.71 185.82 168.48 185.82 168.48 191.58 162.71 191.58 162.71 185.82 162.71 185.82" style="fill:#ff25f3;fill-rule:evenodd"/><polygon points="162.71 185.82 168.48 185.82 168.48 191.58 162.71 191.58 162.71 185.82 162.71 185.82" style="fill:none;stroke:#d9d9d9;stroke-linejoin:round;stroke-width:0.823890871361527px"/><polygon points="231.37 152.59 237.13 152.59 237.13 158.35 231.37 158.35 231.37 152.59 231.37 152.59" style="fill:#ff25f3;fill-rule:evenodd"/><polygon points="231.37 152.59 237.13 152.59 237.13 158.35 231.37 158.35 231.37 152.59 231.37 152.59" style="fill:none;stroke:#d9d9d9;stroke-linejoin:round;stroke-width:0.823890871361527px"/><polygon points="300.02 135.83 305.79 135.83 305.79 141.6 300.02 141.6 300.02 135.83 300.02 135.83" style="fill:#ff25f3;fill-rule:evenodd"/><polygon points="300.02 135.83 305.79 135.83 305.79 141.6 300.02 141.6 300.02 135.83 300.02 135.83" style="fill:none;stroke:#d9d9d9;stroke-linejoin:round;stroke-width:0.823890871361527px"/><polygon points="368.54 102.6 374.31 102.6 374.31 108.37 368.54 108.37 368.54 102.6 368.54 102.6" style="fill:#ff25f3;fill-rule:evenodd"/><polygon points="368.54 102.6 374.31 102.6 374.31 108.37 368.54 108.37 368.54 102.6 368.54 102.6" style="fill:none;stroke:#d9d9d9;stroke-linejoin:round;stroke-width:0.823890871361527px"/><polygon points="437.2 96.97 442.97 96.97 442.97 102.74 437.2 102.74 437.2 96.97 437.2 96.97" style="fill:#ff25f3;fill-rule:evenodd"/><polygon points="437.2 96.97 442.97 96.97 442.97 102.74 437.2 102.74 437.2 96.97 437.2 96.97" style="fill:none;stroke:#d9d9d9;stroke-linejoin:round;stroke-width:0.823890871361527px"/><polygon points="505.86 74.73 511.63 74.73 511.63 80.5 505.86 80.5 505.86 74.73 505.86 74.73" style="fill:#ff25f3;fill-rule:evenodd"/><polygon points="505.86 74.73 511.63 74.73 511.63 80.5 505.86 80.5 505.86 74.73 505.86 74.73" style="fill:none;stroke:#d9d9d9;stroke-linejoin:round;stroke-width:0.823890871361527px"/><polygon points="574.38 91.48 580.15 91.48 580.15 97.25 574.38 97.25 574.38 91.48 574.38 91.48" style="fill:#ff25f3;fill-rule:evenodd"/><polygon points="574.38 91.48 580.15 91.48 580.15 97.25 574.38 97.25 574.38 91.48 574.38 91.48" style="fill:none;stroke:#d9d9d9;stroke-linejoin:round;stroke-width:0.823890871361527px"/><polygon points="643.04 124.71 648.8 124.71 648.8 130.48 643.04 130.48 643.04 124.71 643.04 124.71" style="fill:#ff25f3;fill-rule:evenodd"/><polygon points="643.04 124.71 648.8 124.71 648.8 130.48 643.04 130.48 643.04 124.71 643.04 124.71" style="fill:none;stroke:#d9d9d9;stroke-linejoin:round;stroke-width:0.823890871361527px"/><polygon points="711.7 138.72 717.46 138.72 717.46 144.49 711.7 144.49 711.7 138.72 711.7 138.72" style="fill:#ff25f3;fill-rule:evenodd"/><polygon points="711.7 138.72 717.46 138.72 717.46 144.49 711.7 144.49 711.7 138.72 711.7 138.72" style="fill:none;stroke:#d9d9d9;stroke-linejoin:round;stroke-width:0.823890871361527px"/><polygon points="780.22 152.59 785.98 152.59 785.98 158.35 780.22 158.35 780.22 152.59 780.22 152.59" style="fill:#ff25f3;fill-rule:evenodd"/><polygon points="780.22 152.59 785.98 152.59 785.98 158.35 780.22 158.35 780.22 152.59 780.22 152.59" style="fill:none;stroke:#d9d9d9;stroke-linejoin:round;stroke-width:0.823890871361527px"/><polygon points="848.87 169.2 854.64 169.2 854.64 174.97 848.87 174.97 848.87 169.2 848.87 169.2" style="fill:#ff25f3;fill-rule:evenodd"/><polygon points="848.87 169.2 854.64 169.2 854.64 174.97 848.87 174.97 848.87 169.2 848.87 169.2" style="fill:none;stroke:#d9d9d9;stroke-linejoin:round;stroke-width:0.823890871361527px"/></g><g style="clip-path:url(#clip-path-6)"><polyline points="97.1 238.65 165.62 202.53 234.28 169.3 302.94 152.55 371.46 119.32 440.11 113.69 508.77 91.58 577.29 108.2 645.95 141.56 714.61 155.43 783.13 169.3 851.78 185.92" style="fill:none;stroke:#06f;stroke-linecap:round;stroke-linejoin:round;stroke-width:2.47167234126391px"/></g><g style="clip-path:url(#clip-path)"><path d="M100,238.68a2.89,2.89,0,1,1-2.89-2.88,2.89,2.89,0,0,1,2.89,2.88Z" style="fill:#06f"/><path d="M100,238.68a2.89,2.89,0,1,1-2.89-2.88,2.89,2.89,0,0,1,2.89,2.88Z" style="fill:none;stroke:#6b77e8;stroke-linejoin:round;stroke-width:0.823890871361527px"/><path d="M168.48,202.57a2.89,2.89,0,1,1-2.89-2.88,2.88,2.88,0,0,1,2.89,2.88Z" style="fill:#06f"/><path d="M168.48,202.57a2.89,2.89,0,1,1-2.89-2.88,2.88,2.88,0,0,1,2.89,2.88Z" style="fill:none;stroke:#6b77e8;stroke-linejoin:round;stroke-width:0.823890871361527px"/><path d="M237.13,169.34a2.88,2.88,0,1,1-2.88-2.88,2.88,2.88,0,0,1,2.88,2.88Z" style="fill:#06f"/><path d="M237.13,169.34a2.88,2.88,0,1,1-2.88-2.88,2.88,2.88,0,0,1,2.88,2.88Z" style="fill:none;stroke:#6b77e8;stroke-linejoin:round;stroke-width:0.823890871361527px"/><path d="M305.79,152.59a2.89,2.89,0,1,1-2.88-2.89,2.88,2.88,0,0,1,2.88,2.89Z" style="fill:#06f"/><path d="M305.79,152.59a2.89,2.89,0,1,1-2.88-2.89,2.88,2.88,0,0,1,2.88,2.89Z" style="fill:none;stroke:#6b77e8;stroke-linejoin:round;stroke-width:0.823890871361527px"/><path d="M374.31,119.36a2.89,2.89,0,1,1-2.88-2.89,2.88,2.88,0,0,1,2.88,2.89Z" style="fill:#06f"/><path d="M374.31,119.36a2.89,2.89,0,1,1-2.88-2.89,2.88,2.88,0,0,1,2.88,2.89Z" style="fill:none;stroke:#6b77e8;stroke-linejoin:round;stroke-width:0.823890871361527px"/><path d="M443,113.73a2.89,2.89,0,1,1-2.88-2.89,2.88,2.88,0,0,1,2.88,2.89Z" style="fill:#06f"/><path d="M443,113.73a2.89,2.89,0,1,1-2.88-2.89,2.88,2.88,0,0,1,2.88,2.89Z" style="fill:none;stroke:#6b77e8;stroke-linejoin:round;stroke-width:0.823890871361527px"/><path d="M511.63,91.62a2.89,2.89,0,1,1-2.89-2.88,2.88,2.88,0,0,1,2.89,2.88Z" style="fill:#06f"/><path d="M511.63,91.62a2.89,2.89,0,1,1-2.89-2.88,2.88,2.88,0,0,1,2.89,2.88Z" style="fill:none;stroke:#6b77e8;stroke-linejoin:round;stroke-width:0.823890871361527px"/><path d="M580.15,108.23a2.89,2.89,0,1,1-2.89-2.88,2.89,2.89,0,0,1,2.89,2.88Z" style="fill:#06f"/><path d="M580.15,108.23a2.89,2.89,0,1,1-2.89-2.88,2.89,2.89,0,0,1,2.89,2.88Z" style="fill:none;stroke:#6b77e8;stroke-linejoin:round;stroke-width:0.823890871361527px"/><path d="M648.8,141.6a2.88,2.88,0,1,1-2.88-2.88,2.89,2.89,0,0,1,2.88,2.88Z" style="fill:#06f"/><path d="M648.8,141.6a2.88,2.88,0,1,1-2.88-2.88,2.89,2.89,0,0,1,2.88,2.88Z" style="fill:none;stroke:#6b77e8;stroke-linejoin:round;stroke-width:0.823890871361527px"/><path d="M717.46,155.47a2.89,2.89,0,1,1-2.88-2.88,2.88,2.88,0,0,1,2.88,2.88Z" style="fill:#06f"/><path d="M717.46,155.47a2.89,2.89,0,1,1-2.88-2.88,2.88,2.88,0,0,1,2.88,2.88Z" style="fill:none;stroke:#6b77e8;stroke-linejoin:round;stroke-width:0.823890871361527px"/><path d="M786,169.34a2.88,2.88,0,1,1-2.88-2.88,2.88,2.88,0,0,1,2.88,2.88Z" style="fill:#06f"/><path d="M786,169.34a2.88,2.88,0,1,1-2.88-2.88,2.88,2.88,0,0,1,2.88,2.88Z" style="fill:none;stroke:#6b77e8;stroke-linejoin:round;stroke-width:0.823890871361527px"/><path d="M854.64,186a2.89,2.89,0,1,1-2.88-2.88,2.88,2.88,0,0,1,2.88,2.88Z" style="fill:#06f"/><path d="M854.64,186a2.89,2.89,0,1,1-2.88-2.88,2.88,2.88,0,0,1,2.88,2.88Z" style="fill:none;stroke:#6b77e8;stroke-linejoin:round;stroke-width:0.823890871361527px"/></g><g style="clip-path:url(#clip-path-10)"><text transform="translate(33.84 297.51)" style="font-size:10.298640251159668px;font-family:ArialMT, Arial"><tspan style="letter-spacing:0.003034381164686389em">0</tspan><tspan x="5.76" y="0" style="letter-spacing:0.0019913126393254427em">.</tspan><tspan x="8.64" y="0" style="letter-spacing:-0.009008319082662718em">0</tspan><tspan x="14.28" y="0">0</tspan></text></g><g style="clip-path:url(#clip-path-10)"><text transform="translate(33.84 228.11)" style="font-size:10.298640251159668px;font-family:ArialMT, Arial"><tspan style="letter-spacing:0.003034381164686389em">0</tspan><tspan x="5.76" y="0" style="letter-spacing:0.0019913126393254427em">.</tspan><tspan x="8.64" y="0" style="letter-spacing:-0.009008319082662718em">2</tspan><tspan x="14.28" y="0">5</tspan></text></g><g style="clip-path:url(#clip-path-10)"><text transform="translate(33.84 158.67)" style="font-size:10.298640251159668px;font-family:ArialMT, Arial"><tspan style="letter-spacing:0.003034381164686389em">0</tspan><tspan x="5.76" y="0" style="letter-spacing:0.0019913126393254427em">.</tspan><tspan x="8.64" y="0" style="letter-spacing:-0.009008319082662718em">5</tspan><tspan x="14.28" y="0">0</tspan></text></g><g style="clip-path:url(#clip-path-10)"><text transform="translate(33.84 89.25)" style="font-size:10.298640251159668px;font-family:ArialMT, Arial"><tspan style="letter-spacing:0.003034381164686389em">0</tspan><tspan x="5.76" y="0" style="letter-spacing:0.0019913126393254427em">.</tspan><tspan x="8.64" y="0" style="letter-spacing:-0.009008319082662718em">7</tspan><tspan x="14.28" y="0">5</tspan></text></g><g style="clip-path:url(#clip-path-10)"><text transform="translate(33.84 19.83)" style="font-size:10.298640251159668px;font-family:ArialMT, Arial"><tspan style="letter-spacing:0.003034381164686389em">1</tspan><tspan x="5.76" y="0" style="letter-spacing:0.0019913126393254427em">.</tspan><tspan x="8.64" y="0" style="letter-spacing:-0.009008319082662718em">0</tspan><tspan x="14.28" y="0">0</tspan></text></g><g style="clip-path:url(#clip-path-10)"><text transform="translate(94.18 309.79)" style="font-size:10.298640251159668px;font-family:ArialMT, Arial">1</text></g><g style="clip-path:url(#clip-path-10)"><text transform="translate(162.79 309.79)" style="font-size:10.298640251159668px;font-family:ArialMT, Arial">2</text></g><g style="clip-path:url(#clip-path-10)"><text transform="translate(231.41 309.79)" style="font-size:10.298640251159668px;font-family:ArialMT, Arial">3</text></g><g style="clip-path:url(#clip-path-10)"><text transform="translate(300.03 309.79)" style="font-size:10.298640251159668px;font-family:ArialMT, Arial">4</text></g><g style="clip-path:url(#clip-path-10)"><text transform="translate(368.64 309.79)" style="font-size:10.298640251159668px;font-family:ArialMT, Arial">1</text></g><g style="clip-path:url(#clip-path-10)"><text transform="translate(437.25 309.79)" style="font-size:10.298640251159668px;font-family:ArialMT, Arial">2</text></g><g style="clip-path:url(#clip-path-10)"><text transform="translate(505.88 309.79)" style="font-size:10.298640251159668px;font-family:ArialMT, Arial">3</text></g><g style="clip-path:url(#clip-path-10)"><text transform="translate(574.49 309.79)" style="font-size:10.298640251159668px;font-family:ArialMT, Arial">4</text></g><g style="clip-path:url(#clip-path-10)"><text transform="translate(643.1 309.79)" style="font-size:10.298640251159668px;font-family:ArialMT, Arial">1</text></g><g style="clip-path:url(#clip-path-10)"><text transform="translate(711.71 309.79)" style="font-size:10.298640251159668px;font-family:ArialMT, Arial">2</text></g><g style="clip-path:url(#clip-path-10)"><text transform="translate(780.33 309.79)" style="font-size:10.298640251159668px;font-family:ArialMT, Arial">3</text></g><g style="clip-path:url(#clip-path-10)"><text transform="translate(848.94 309.79)" style="font-size:10.298640251159668px;font-family:ArialMT, Arial">4</text></g><g style="clip-path:url(#clip-path-10)"><text transform="translate(193.39 328.36)" style="font-size:10.298640251159668px;font-family:ArialMT, Arial"><tspan style="letter-spacing:0.005973937917976328em">J</tspan><tspan x="5.21" y="0" style="letter-spacing:-0.009008319082662718em">u</tspan><tspan x="10.85" y="0">l</tspan></text></g><g style="clip-path:url(#clip-path-10)"><text transform="translate(465.26 328.36)" style="font-size:10.298640251159668px;font-family:ArialMT, Arial">A<tspan x="6.87" y="0" style="letter-spacing:0.003034381164686389em">u</tspan><tspan x="12.63" y="0">g</tspan></text></g><g style="clip-path:url(#clip-path-10)"><text transform="translate(738.29 328.36)" style="font-size:10.298640251159668px;font-family:ArialMT, Arial">S<tspan x="6.87" y="0" style="letter-spacing:0.003034381164686389em">e</tspan><tspan x="12.63" y="0" style="letter-spacing:-0.009008319082662718em">p</tspan><tspan x="18.26" y="0">t</tspan></text></g><g style="clip-path:url(#clip-path-10)"><text transform="translate(20.71 214.63) rotate(-90)" style="font-size:11.397159576416016px;font-family:Arial-BoldMT, Arial;font-weight:700">ND<tspan x="16.46" y="0" style="letter-spacing:-0.003941497414229087em">V</tspan><tspan x="24.02" y="0">I</tspan><tspan x="27.18" y="0" style="letter-spacing:0.0110533297051207em"> </tspan><tspan x="30.48" y="0" style="letter-spacing:0.0000856847263962845em"> </tspan><tspan x="33.64" y="0" style="letter-spacing:-0.004027182140625371em">V</tspan><tspan x="41.2" y="0" style="letter-spacing:-0.001028216716755414em">a</tspan><tspan x="47.53" y="0" style="letter-spacing:0.0000856847263962845em">l</tspan><tspan x="50.69" y="0" style="letter-spacing:0.0029989654238699575em">u</tspan><tspan x="57.69" y="0" style="letter-spacing:-0.0000856847263962845em">e</tspan></text></g><g style="clip-path:url(#clip-path-10)"><text transform="translate(431.97 339.64)" style="font-size:11.397159576416016px;font-family:Arial-BoldMT, Arial;font-weight:700"><tspan style="letter-spacing:0.007026147564495329em">W</tspan><tspan x="10.84" y="0" style="letter-spacing:-0.001028216716755414em">ee</tspan><tspan x="23.49" y="0">k</tspan></text></g><polygon points="2.08 1.64 898.06 1.64 898.06 348.36 2.08 348.36 2.08 1.64 2.08 1.64" style="fill:none;stroke:#d9d9d9;stroke-linejoin:round;stroke-width:0.823890871361527px"/></svg>