<svg id="Layer_1" data-name="Layer 1" xmlns="http://www.w3.org/2000/svg" xmlns:xlink="http://www.w3.org/1999/xlink" viewBox="0 0 900 350"><defs><clipPath id="clip-path"><polygon points="8.02 350.4 891.84 350.4 891.84 1.47 8.02 1.47 8.02 350.4 8.02 350.4" style="fill:none;clip-rule:evenodd"/></clipPath><clipPath id="clip-path-3"><polygon points="92.37 314.14 804.37 314.14 804.37 58.92 92.37 58.92 92.37 314.14 92.37 314.14" style="fill:none;clip-rule:evenodd"/></clipPath><clipPath id="clip-path-12"><rect x="8.02" y="1.47" width="883.82" height="348.94" style="fill:none"/></clipPath></defs><title>price-volatility</title><polygon points="8.16 1.6 891.98 1.6 891.98 350.4 8.16 350.4 8.16 1.6 8.16 1.6" style="fill:#f2f2f2;fill-rule:evenodd"/><polygon points="92.37 59.06 803.55 59.06 803.55 313.32 92.37 313.32 92.37 59.06 92.37 59.06" style="fill:#fff;fill-rule:evenodd"/><path d="M92.37,59.06V313.32M122,59.06V313.32M151.59,59.06V313.32M181.34,59.06V313.32M211,59.06V313.32M240.56,59.06V313.32M270.17,59.06V313.32M299.78,59.06V313.32M329.52,59.06V313.32M359.13,59.06V313.32M388.74,59.06V313.32M418.35,59.06V313.32M448,59.06V313.32M477.57,59.06V313.32M507.32,59.06V313.32M536.93,59.06V313.32M566.54,59.06V313.32M596.15,59.06V313.32M625.76,59.06V313.32M655.37,59.06V313.32M685.11,59.06V313.32M714.72,59.06V313.32M744.33,59.06V313.32M773.94,59.06V313.32M803.55,59.06V313.32" style="fill:none;stroke:#bcbcbc;stroke-linecap:round;stroke-linejoin:round;stroke-width:0.543303517427041px"/><g style="clip-path:url(#clip-path)"><path d="M92.37,254H803.55M92.37,194.61H803.55M92.37,135.25H803.55M92.37,76H803.55" style="fill:none;stroke:#d9d9d9;stroke-linejoin:round;stroke-width:0.543303517427041px"/></g><g style="clip-path:url(#clip-path)"><polygon points="92.37 59.06 803.55 59.06 803.55 313.32 92.37 313.32 92.37 59.06 92.37 59.06" style="fill:none;stroke:#fff;stroke-linejoin:round;stroke-width:0.8149552592742px"/></g><g style="clip-path:url(#clip-path-3)"><polygon points="102.29 228.57 115.46 228.57 115.46 313.32 102.29 313.32 102.29 228.57 102.29 228.57" style="fill:#2935e8;fill-rule:evenodd"/><polygon points="102.29 228.57 115.46 228.57 115.46 313.32 102.29 313.32 102.29 228.57 102.29 228.57" style="fill:none;stroke:#2935e8;stroke-linejoin:round;stroke-width:0.8149552592742px"/><polygon points="161.51 258.31 174.68 258.31 174.68 313.32 161.51 313.32 161.51 258.31 161.51 258.31" style="fill:#2935e8;fill-rule:evenodd"/><polygon points="161.51 258.31 174.68 258.31 174.68 313.32 161.51 313.32 161.51 258.31 161.51 258.31" style="fill:none;stroke:#2935e8;stroke-linejoin:round;stroke-width:0.8149552592742px"/><polygon points="220.86 289.69 234.04 289.69 234.04 313.32 220.86 313.32 220.86 289.69 220.86 289.69" style="fill:#2935e8;fill-rule:evenodd"/><polygon points="220.86 289.69 234.04 289.69 234.04 313.32 220.86 313.32 220.86 289.69 220.86 289.69" style="fill:none;stroke:#2935e8;stroke-linejoin:round;stroke-width:0.8149552592742px"/><polygon points="280.08 305.85 293.26 305.85 293.26 313.32 280.08 313.32 280.08 305.85 280.08 305.85" style="fill:#2935e8;fill-rule:evenodd"/><polygon points="280.08 305.85 293.26 305.85 293.26 313.32 280.08 313.32 280.08 305.85 280.08 305.85" style="fill:none;stroke:#2935e8;stroke-linejoin:round;stroke-width:0.8149552592742px"/><polygon points="339.3 309.52 352.48 309.52 352.48 313.32 339.3 313.32 339.3 309.52 339.3 309.52" style="fill:#2935e8;fill-rule:evenodd"/><polygon points="339.3 309.52 352.48 309.52 352.48 313.32 339.3 313.32 339.3 309.52 339.3 309.52" style="fill:none;stroke:#2935e8;stroke-linejoin:round;stroke-width:0.8149552592742px"/><polygon points="398.66 243.78 411.83 243.78 411.83 313.32 398.66 313.32 398.66 243.78 398.66 243.78" style="fill:#2935e8;fill-rule:evenodd"/><polygon points="398.66 243.78 411.83 243.78 411.83 313.32 398.66 313.32 398.66 243.78 398.66 243.78" style="fill:none;stroke:#2935e8;stroke-linejoin:round;stroke-width:0.8149552592742px"/><polygon points="457.88 276.78 471.05 276.78 471.05 313.32 457.88 313.32 457.88 276.78 457.88 276.78" style="fill:#2935e8;fill-rule:evenodd"/><polygon points="457.88 276.78 471.05 276.78 471.05 313.32 457.88 313.32 457.88 276.78 457.88 276.78" style="fill:none;stroke:#2935e8;stroke-linejoin:round;stroke-width:0.8149552592742px"/><polygon points="517.1 303.68 530.27 303.68 530.27 313.32 517.1 313.32 517.1 303.68 517.1 303.68" style="fill:#2935e8;fill-rule:evenodd"/><polygon points="517.1 303.68 530.27 303.68 530.27 313.32 517.1 313.32 517.1 303.68 517.1 303.68" style="fill:none;stroke:#2935e8;stroke-linejoin:round;stroke-width:0.8149552592742px"/><polygon points="576.45 289.14 589.63 289.14 589.63 313.32 576.45 313.32 576.45 289.14 576.45 289.14" style="fill:#2935e8;fill-rule:evenodd"/><polygon points="576.45 289.14 589.63 289.14 589.63 313.32 576.45 313.32 576.45 289.14 576.45 289.14" style="fill:none;stroke:#2935e8;stroke-linejoin:round;stroke-width:0.8149552592742px"/><polygon points="635.67 125.34 648.85 125.34 648.85 313.32 635.67 313.32 635.67 125.34 635.67 125.34" style="fill:#2935e8;fill-rule:evenodd"/><polygon points="635.67 125.34 648.85 125.34 648.85 313.32 635.67 313.32 635.67 125.34 635.67 125.34" style="fill:none;stroke:#2935e8;stroke-linejoin:round;stroke-width:0.8149552592742px"/><polygon points="694.89 138.24 708.07 138.24 708.07 313.32 694.89 313.32 694.89 138.24 694.89 138.24" style="fill:#2935e8;fill-rule:evenodd"/><polygon points="694.89 138.24 708.07 138.24 708.07 313.32 694.89 313.32 694.89 138.24 694.89 138.24" style="fill:none;stroke:#2935e8;stroke-linejoin:round;stroke-width:0.8149552592742px"/><polygon points="754.25 186.87 767.42 186.87 767.42 313.32 754.25 313.32 754.25 186.87 754.25 186.87" style="fill:#2935e8;fill-rule:evenodd"/><polygon points="754.25 186.87 767.42 186.87 767.42 313.32 754.25 313.32 754.25 186.87 754.25 186.87" style="fill:none;stroke:#2935e8;stroke-linejoin:round;stroke-width:0.8149552592742px"/></g><g style="clip-path:url(#clip-path-3)"><polygon points="115.46 270.13 128.64 270.13 128.64 313.32 115.46 313.32 115.46 270.13 115.46 270.13" style="fill:#00c1a3;fill-rule:evenodd"/><polygon points="115.46 270.13 128.64 270.13 128.64 313.32 115.46 313.32 115.46 270.13 115.46 270.13" style="fill:none;stroke:#00c1a3;stroke-linejoin:round;stroke-width:0.8149552592742px"/><polygon points="174.68 278.14 187.86 278.14 187.86 313.32 174.68 313.32 174.68 278.14 174.68 278.14" style="fill:#00c1a3;fill-rule:evenodd"/><polygon points="174.68 278.14 187.86 278.14 187.86 313.32 174.68 313.32 174.68 278.14 174.68 278.14" style="fill:none;stroke:#00c1a3;stroke-linejoin:round;stroke-width:0.8149552592742px"/><polygon points="234.04 293.49 247.08 293.49 247.08 313.32 234.04 313.32 234.04 293.49 234.04 293.49" style="fill:#00c1a3;fill-rule:evenodd"/><polygon points="234.04 293.49 247.08 293.49 247.08 313.32 234.04 313.32 234.04 293.49 234.04 293.49" style="fill:none;stroke:#00c1a3;stroke-linejoin:round;stroke-width:0.8149552592742px"/><polygon points="293.26 302.32 306.43 302.32 306.43 313.32 293.26 313.32 293.26 302.32 293.26 302.32" style="fill:#00c1a3;fill-rule:evenodd"/><polygon points="293.26 302.32 306.43 302.32 306.43 313.32 293.26 313.32 293.26 302.32 293.26 302.32" style="fill:none;stroke:#00c1a3;stroke-linejoin:round;stroke-width:0.8149552592742px"/><polygon points="352.48 305.58 365.65 305.58 365.65 313.32 352.48 313.32 352.48 305.58 352.48 305.58" style="fill:#00c1a3;fill-rule:evenodd"/><polygon points="352.48 305.58 365.65 305.58 365.65 313.32 352.48 313.32 352.48 305.58 352.48 305.58" style="fill:none;stroke:#00c1a3;stroke-linejoin:round;stroke-width:0.8149552592742px"/><polygon points="411.83 295.26 425.01 295.26 425.01 313.32 411.83 313.32 411.83 295.26 411.83 295.26" style="fill:#00c1a3;fill-rule:evenodd"/><polygon points="411.83 295.26 425.01 295.26 425.01 313.32 411.83 313.32 411.83 295.26 411.83 295.26" style="fill:none;stroke:#00c1a3;stroke-linejoin:round;stroke-width:0.8149552592742px"/><polygon points="471.05 304.36 484.23 304.36 484.23 313.32 471.05 313.32 471.05 304.36 471.05 304.36" style="fill:#00c1a3;fill-rule:evenodd"/><polygon points="471.05 304.36 484.23 304.36 484.23 313.32 471.05 313.32 471.05 304.36 471.05 304.36" style="fill:none;stroke:#00c1a3;stroke-linejoin:round;stroke-width:0.8149552592742px"/><polygon points="530.27 309.38 543.45 309.38 543.45 313.32 530.27 313.32 530.27 309.38 530.27 309.38" style="fill:#00c1a3;fill-rule:evenodd"/><polygon points="530.27 309.38 543.45 309.38 543.45 313.32 530.27 313.32 530.27 309.38 530.27 309.38" style="fill:none;stroke:#00c1a3;stroke-linejoin:round;stroke-width:0.8149552592742px"/><polygon points="589.63 310.47 602.8 310.47 602.8 313.32 589.63 313.32 589.63 310.47 589.63 310.47" style="fill:#00c1a3;fill-rule:evenodd"/><polygon points="589.63 310.47 602.8 310.47 602.8 313.32 589.63 313.32 589.63 310.47 589.63 310.47" style="fill:none;stroke:#00c1a3;stroke-linejoin:round;stroke-width:0.8149552592742px"/><polygon points="648.85 247.58 662.02 247.58 662.02 313.32 648.85 313.32 648.85 247.58 648.85 247.58" style="fill:#00c1a3;fill-rule:evenodd"/><polygon points="648.85 247.58 662.02 247.58 662.02 313.32 648.85 313.32 648.85 247.58 648.85 247.58" style="fill:none;stroke:#00c1a3;stroke-linejoin:round;stroke-width:0.8149552592742px"/><polygon points="708.07 232.91 721.24 232.91 721.24 313.32 708.07 313.32 708.07 232.91 708.07 232.91" style="fill:#00c1a3;fill-rule:evenodd"/><polygon points="708.07 232.91 721.24 232.91 721.24 313.32 708.07 313.32 708.07 232.91 708.07 232.91" style="fill:none;stroke:#00c1a3;stroke-linejoin:round;stroke-width:0.8149552592742px"/><polygon points="767.42 245.54 780.6 245.54 780.6 313.32 767.42 313.32 767.42 245.54 767.42 245.54" style="fill:#00c1a3;fill-rule:evenodd"/><polygon points="767.42 245.54 780.6 245.54 780.6 313.32 767.42 313.32 767.42 245.54 767.42 245.54" style="fill:none;stroke:#00c1a3;stroke-linejoin:round;stroke-width:0.8149552592742px"/></g><g style="clip-path:url(#clip-path-3)"><polygon points="128.64 221.37 141.81 221.37 141.81 313.32 128.64 313.32 128.64 221.37 128.64 221.37" style="fill:#ff25f3;fill-rule:evenodd"/><polygon points="128.64 221.37 141.81 221.37 141.81 313.32 128.64 313.32 128.64 221.37 128.64 221.37" style="fill:none;stroke:#ff25f3;stroke-linejoin:round;stroke-width:0.8149552592742px"/><polygon points="187.86 223.27 201.03 223.27 201.03 313.32 187.86 313.32 187.86 223.27 187.86 223.27" style="fill:#ff25f3;fill-rule:evenodd"/><polygon points="187.86 223.27 201.03 223.27 201.03 313.32 187.86 313.32 187.86 223.27 187.86 223.27" style="fill:none;stroke:#ff25f3;stroke-linejoin:round;stroke-width:0.8149552592742px"/><polygon points="247.08 278.01 260.25 278.01 260.25 313.32 247.08 313.32 247.08 278.01 247.08 278.01" style="fill:#ff25f3;fill-rule:evenodd"/><polygon points="247.08 278.01 260.25 278.01 260.25 313.32 247.08 313.32 247.08 278.01 247.08 278.01" style="fill:none;stroke:#ff25f3;stroke-linejoin:round;stroke-width:0.8149552592742px"/><polygon points="306.43 291.05 319.61 291.05 319.61 313.32 306.43 313.32 306.43 291.05 306.43 291.05" style="fill:#ff25f3;fill-rule:evenodd"/><polygon points="306.43 291.05 319.61 291.05 319.61 313.32 306.43 313.32 306.43 291.05 306.43 291.05" style="fill:none;stroke:#ff25f3;stroke-linejoin:round;stroke-width:0.8149552592742px"/><polygon points="365.65 295.53 378.83 295.53 378.83 313.32 365.65 313.32 365.65 295.53 365.65 295.53" style="fill:#ff25f3;fill-rule:evenodd"/><polygon points="365.65 295.53 378.83 295.53 378.83 313.32 365.65 313.32 365.65 295.53 365.65 295.53" style="fill:none;stroke:#ff25f3;stroke-linejoin:round;stroke-width:0.8149552592742px"/><polygon points="425.01 286.16 438.18 286.16 438.18 313.32 425.01 313.32 425.01 286.16 425.01 286.16" style="fill:#ff25f3;fill-rule:evenodd"/><polygon points="425.01 286.16 438.18 286.16 438.18 313.32 425.01 313.32 425.01 286.16 425.01 286.16" style="fill:none;stroke:#ff25f3;stroke-linejoin:round;stroke-width:0.8149552592742px"/><polygon points="484.23 299.06 497.4 299.06 497.4 313.32 484.23 313.32 484.23 299.06 484.23 299.06" style="fill:#ff25f3;fill-rule:evenodd"/><polygon points="484.23 299.06 497.4 299.06 497.4 313.32 484.23 313.32 484.23 299.06 484.23 299.06" style="fill:none;stroke:#ff25f3;stroke-linejoin:round;stroke-width:0.8149552592742px"/><polygon points="543.45 305.71 556.62 305.71 556.62 313.32 543.45 313.32 543.45 305.71 543.45 305.71" style="fill:#ff25f3;fill-rule:evenodd"/><polygon points="543.45 305.71 556.62 305.71 556.62 313.32 543.45 313.32 543.45 305.71 543.45 305.71" style="fill:none;stroke:#ff25f3;stroke-linejoin:round;stroke-width:0.8149552592742px"/><polygon points="602.8 302.18 615.98 302.18 615.98 313.32 602.8 313.32 602.8 302.18 602.8 302.18" style="fill:#ff25f3;fill-rule:evenodd"/><polygon points="602.8 302.18 615.98 302.18 615.98 313.32 602.8 313.32 602.8 302.18 602.8 302.18" style="fill:none;stroke:#ff25f3;stroke-linejoin:round;stroke-width:0.8149552592742px"/><polygon points="662.02 152.5 675.2 152.5 675.2 313.32 662.02 313.32 662.02 152.5 662.02 152.5" style="fill:#ff25f3;fill-rule:evenodd"/><polygon points="662.02 152.5 675.2 152.5 675.2 313.32 662.02 313.32 662.02 152.5 662.02 152.5" style="fill:none;stroke:#ff25f3;stroke-linejoin:round;stroke-width:0.8149552592742px"/><polygon points="721.24 138.92 734.42 138.92 734.42 313.32 721.24 313.32 721.24 138.92 721.24 138.92" style="fill:#ff25f3;fill-rule:evenodd"/><polygon points="721.24 138.92 734.42 138.92 734.42 313.32 721.24 313.32 721.24 138.92 721.24 138.92" style="fill:none;stroke:#ff25f3;stroke-linejoin:round;stroke-width:0.8149552592742px"/><polygon points="780.6 190.53 793.77 190.53 793.77 313.32 780.6 313.32 780.6 190.53 780.6 190.53" style="fill:#ff25f3;fill-rule:evenodd"/><polygon points="780.6 190.53 793.77 190.53 793.77 313.32 780.6 313.32 780.6 190.53 780.6 190.53" style="fill:none;stroke:#ff25f3;stroke-linejoin:round;stroke-width:0.8149552592742px"/></g><g style="clip-path:url(#clip-path)"><line x1="92.37" y1="313.32" x2="92.37" y2="59.06" style="fill:none;stroke:#898989;stroke-linejoin:round;stroke-width:0.543303517427041px"/></g><g style="clip-path:url(#clip-path)"><path d="M89.38,313.32h3m-3-59.76h3m-3-59.63h3m-3-59.76h3m-3-59.63h3" style="fill:none;stroke:#898989;stroke-linejoin:round;stroke-width:0.543303517427041px"/></g><g style="clip-path:url(#clip-path)"><line x1="92.37" y1="313.32" x2="803.55" y2="313.32" style="fill:none;stroke:#898989;stroke-linejoin:round;stroke-width:0.543303517427041px"/></g><g style="clip-path:url(#clip-path-3)"><polyline points="121.98 232.1 181.34 226.12 240.56 214.31 299.78 187.41 359.13 169.07 418.35 177.09 477.57 153.86 536.93 138.11 596.15 180.48 655.37 215.66 714.73 198 773.95 190.13" style="fill:none;stroke:#2935e8;stroke-linecap:round;stroke-linejoin:round;stroke-width:1.6299105185484px"/></g><g style="clip-path:url(#clip-path-3)"><polyline points="121.98 235.49 181.34 228.02 240.56 215.93 299.78 186.46 359.13 178.18 418.35 179.81 477.57 155.9 536.93 142.86 596.15 186.73 655.37 223.81 714.73 202.35 773.95 190.67" style="fill:none;stroke:#00c1a3;stroke-linecap:round;stroke-linejoin:round;stroke-width:1.6299105185484px"/></g><g style="clip-path:url(#clip-path-3)"><polyline points="121.98 231.96 181.34 225.71 240.56 212.95 299.78 181.03 359.13 173.69 418.35 176.14 477.57 152.91 536.93 135.93 596.15 174.91 655.37 221.37 714.73 201.94 773.95 190.81" style="fill:none;stroke:#ff25f3;stroke-linecap:round;stroke-linejoin:round;stroke-width:1.6299105185484px"/></g><g style="clip-path:url(#clip-path-12)"><text transform="translate(52.48 316.54)" style="font-size:10.18694019317627px;font-family:ArialMT, Arial"><tspan style="letter-spacing:0.0020131474329982985em"> </tspan><tspan x="2.85" y="0" style="letter-spacing:0.0030676532312355026em">5</tspan><tspan x="8.55" y="0" style="letter-spacing:-0.011024378799752588em">,</tspan><tspan x="11.26" y="0" style="letter-spacing:0.0030676532312355026em">00</tspan><tspan x="22.66" y="0">0</tspan></text></g><g style="clip-path:url(#clip-path-12)"><text transform="translate(46.81 256.84)" style="font-size:10.18694019317627px;font-family:ArialMT, Arial"><tspan style="letter-spacing:0.0020131474329982985em"> </tspan><tspan x="2.85" y="0" style="letter-spacing:0.0030676532312355026em">3</tspan><tspan x="8.55" y="0" style="letter-spacing:-0.00901123136675429em">2</tspan><tspan x="14.12" y="0" style="letter-spacing:0.0020131474329982985em">,</tspan><tspan x="16.97" y="0" style="letter-spacing:0.0030676532312355026em">00</tspan><tspan x="28.36" y="0">0</tspan></text></g><g style="clip-path:url(#clip-path-12)"><text transform="translate(46.81 197.15)" style="font-size:10.18694019317627px;font-family:ArialMT, Arial"><tspan style="letter-spacing:0.0020131474329982985em"> </tspan><tspan x="2.85" y="0" style="letter-spacing:0.0030676532312355026em">5</tspan><tspan x="8.55" y="0" style="letter-spacing:-0.00901123136675429em">9</tspan><tspan x="14.12" y="0" style="letter-spacing:0.0020131474329982985em">,</tspan><tspan x="16.97" y="0" style="letter-spacing:0.0030676532312355026em">00</tspan><tspan x="28.36" y="0">0</tspan></text></g><g style="clip-path:url(#clip-path-12)"><text transform="translate(46.81 137.45)" style="font-size:10.18694019317627px;font-family:ArialMT, Arial"><tspan style="letter-spacing:0.0020131474329982985em"> </tspan><tspan x="2.85" y="0" style="letter-spacing:0.0030676532312355026em">8</tspan><tspan x="8.55" y="0" style="letter-spacing:-0.00901123136675429em">6</tspan><tspan x="14.12" y="0" style="letter-spacing:0.0020131474329982985em">,</tspan><tspan x="16.97" y="0" style="letter-spacing:0.0030676532312355026em">00</tspan><tspan x="28.36" y="0">0</tspan></text></g><g style="clip-path:url(#clip-path-12)"><text transform="translate(38.32 77.75)" style="font-size:10.18694019317627px;font-family:ArialMT, Arial;letter-spacing:0.0020131474329982985em"> <tspan x="2.85" y="0" style="letter-spacing:0.0030676532312355026em">1</tspan><tspan x="8.55" y="0" style="letter-spacing:-0.011024378799752588em">,</tspan><tspan x="11.26" y="0" style="letter-spacing:0.0030676532312355026em">13</tspan><tspan x="22.66" y="0">,</tspan><tspan x="25.51" y="0" style="letter-spacing:-0.00901123136675429em">0</tspan><tspan x="31.08" y="0" style="letter-spacing:0.0030676532312355026em">0</tspan><tspan x="36.78" y="0" style="letter-spacing:0.00009586416347610946em">0</tspan></text></g><g style="clip-path:url(#clip-path-12)"><text transform="translate(113.81 328.67)" style="font-size:10.18694019317627px;font-family:ArialMT, Arial"><tspan style="letter-spacing:0.005943578135518787em">J</tspan><tspan x="5.15" y="0" style="letter-spacing:-0.00891536720327818em">a</tspan><tspan x="10.73" y="0">n</tspan></text></g><g style="clip-path:url(#clip-path-12)"><text transform="translate(172.51 328.67)" style="font-size:10.18694019317627px;font-family:ArialMT, Arial"><tspan style="letter-spacing:0.0020131474329982985em">F</tspan><tspan x="6.24" y="0" style="letter-spacing:0.0030676532312355026em">e</tspan><tspan x="11.94" y="0">b</tspan></text></g><g style="clip-path:url(#clip-path-12)"><text transform="translate(231.79 328.67)" style="font-size:10.18694019317627px;font-family:ArialMT, Arial;letter-spacing:-0.005943578135518787em">M<tspan x="8.42" y="0" style="letter-spacing:0.0030676532312355026em">a</tspan><tspan x="14.12" y="0" style="letter-spacing:-0.00009586416347610946em">r</tspan></text></g><g style="clip-path:url(#clip-path-12)"><text transform="translate(291.9 328.67)" style="font-size:10.18694019317627px;font-family:ArialMT, Arial">A<tspan x="6.79" y="0" style="letter-spacing:0.0029717890677593934em">p</tspan><tspan x="12.49" y="0">r</tspan></text></g><g style="clip-path:url(#clip-path-12)"><text transform="translate(349.47 328.67)" style="font-size:10.18694019317627px;font-family:ArialMT, Arial;letter-spacing:-0.005943578135518787em">M<tspan x="8.42" y="0" style="letter-spacing:0.0030676532312355026em">a</tspan><tspan x="14.12" y="0" style="letter-spacing:-0.00009586416347610946em">y</tspan></text></g><g style="clip-path:url(#clip-path-12)"><text transform="translate(410.15 328.67)" style="font-size:10.18694019317627px;font-family:ArialMT, Arial"><tspan style="letter-spacing:0.005943578135518787em">J</tspan><tspan x="5.15" y="0" style="letter-spacing:-0.00891536720327818em">u</tspan><tspan x="10.73" y="0">n</tspan></text></g><g style="clip-path:url(#clip-path-12)"><text transform="translate(471.11 328.67)" style="font-size:10.18694019317627px;font-family:ArialMT, Arial;letter-spacing:0.005943578135518787em">J<tspan x="5.15" y="0" style="letter-spacing:-0.00891536720327818em">u</tspan><tspan x="10.73" y="0" style="letter-spacing:-0.00009586416347610946em">l</tspan></text></g><g style="clip-path:url(#clip-path-12)"><text transform="translate(527.83 328.67)" style="font-size:10.18694019317627px;font-family:ArialMT, Arial">A<tspan x="6.79" y="0" style="letter-spacing:0.0029717890677593934em">u</tspan><tspan x="12.49" y="0" style="letter-spacing:0.00009586416347610946em">g</tspan></text></g><g style="clip-path:url(#clip-path-12)"><text transform="translate(587.1 328.67)" style="font-size:10.18694019317627px;font-family:ArialMT, Arial">S<tspan x="6.79" y="0" style="letter-spacing:0.0029717890677593934em">e</tspan><tspan x="12.49" y="0" style="letter-spacing:0.00009586416347610946em">p</tspan></text></g><g style="clip-path:url(#clip-path-12)"><text transform="translate(647.51 328.67)" style="font-size:10.18694019317627px;font-family:ArialMT, Arial;letter-spacing:-0.004026294865996597em">O<tspan x="7.88" y="0" style="letter-spacing:0.005943578135518787em">c</tspan><tspan x="13.04" y="0" style="letter-spacing:0.00009586416347610946em">t</tspan></text></g><g style="clip-path:url(#clip-path-12)"><text transform="translate(705.64 328.67)" style="font-size:10.18694019317627px;font-family:ArialMT, Arial"><tspan style="letter-spacing:-0.0020131474329982985em">N</tspan><tspan x="7.34" y="0" style="letter-spacing:0.0030676532312355026em">o</tspan><tspan x="13.03" y="0">v</tspan></text></g><g style="clip-path:url(#clip-path-12)"><text transform="translate(764.91 328.67)" style="font-size:10.18694019317627px;font-family:ArialMT, Arial"><tspan style="letter-spacing:-0.0020131474329982985em">D</tspan><tspan x="7.34" y="0" style="letter-spacing:0.0030676532312355026em">e</tspan><tspan x="13.03" y="0">c</tspan></text></g><g style="clip-path:url(#clip-path-12)"><text transform="translate(812.36 316.54)" style="font-size:10.18694019317627px;font-family:ArialMT, Arial"><tspan style="letter-spacing:0.0020131474329982985em"> </tspan><tspan x="2.85" y="0">0</tspan></text></g><g style="clip-path:url(#clip-path-12)"><text transform="translate(812.36 257.21)" style="font-size:10.18694019317627px;font-family:ArialMT, Arial"><tspan style="letter-spacing:0.0020131474329982985em"> </tspan><tspan x="2.85" y="0" style="letter-spacing:0.0030676532312355026em">3</tspan><tspan x="8.55" y="0" style="letter-spacing:-0.00901123136675429em">5</tspan><tspan x="14.12" y="0" style="letter-spacing:0.0020131474329982985em">,</tspan><tspan x="16.97" y="0" style="letter-spacing:0.0030676532312355026em">00</tspan><tspan x="28.36" y="0">0</tspan></text></g><g style="clip-path:url(#clip-path-12)"><text transform="translate(812.36 197.88)" style="font-size:10.18694019317627px;font-family:ArialMT, Arial"><tspan style="letter-spacing:0.0020131474329982985em"> </tspan><tspan x="2.85" y="0" style="letter-spacing:0.0030676532312355026em">7</tspan><tspan x="8.55" y="0" style="letter-spacing:-0.00901123136675429em">0</tspan><tspan x="14.12" y="0" style="letter-spacing:0.0020131474329982985em">,</tspan><tspan x="16.97" y="0" style="letter-spacing:0.0030676532312355026em">00</tspan><tspan x="28.36" y="0">0</tspan></text></g><g style="clip-path:url(#clip-path-12)"><text transform="translate(812.36 138.55)" style="font-size:10.18694019317627px;font-family:ArialMT, Arial;letter-spacing:0.0020131474329982985em"> <tspan x="2.85" y="0" style="letter-spacing:0.0030676532312355026em">1</tspan><tspan x="8.55" y="0" style="letter-spacing:-0.011024378799752588em">,</tspan><tspan x="11.26" y="0" style="letter-spacing:0.0030676532312355026em">05</tspan><tspan x="22.66" y="0">,</tspan><tspan x="25.51" y="0" style="letter-spacing:-0.00901123136675429em">0</tspan><tspan x="31.08" y="0" style="letter-spacing:0.0030676532312355026em">0</tspan><tspan x="36.78" y="0" style="letter-spacing:0.00009586416347610946em">0</tspan></text></g><g style="clip-path:url(#clip-path-12)"><text transform="translate(812.36 79.23)" style="font-size:10.18694019317627px;font-family:ArialMT, Arial;letter-spacing:0.0020131474329982985em"> <tspan x="2.85" y="0" style="letter-spacing:0.0030676532312355026em">1</tspan><tspan x="8.55" y="0" style="letter-spacing:-0.011024378799752588em">,</tspan><tspan x="11.26" y="0" style="letter-spacing:0.0030676532312355026em">40</tspan><tspan x="22.66" y="0">,</tspan><tspan x="25.51" y="0" style="letter-spacing:-0.00901123136675429em">0</tspan><tspan x="31.08" y="0" style="letter-spacing:0.0030676532312355026em">0</tspan><tspan x="36.78" y="0" style="letter-spacing:0.00009586416347610946em">0</tspan></text></g><g style="clip-path:url(#clip-path-12)"><text transform="translate(431.05 346.29)" style="font-size:10.18694019317627px;font-family:Arial-BoldMT, Arial;font-weight:700"><tspan style="letter-spacing:0.0060394422989948965em">M</tspan><tspan x="8.55" y="0" style="letter-spacing:0.0020131474329982985em">on</tspan><tspan x="21.03" y="0" style="letter-spacing:-0.00009586416347610946em">t</tspan><tspan x="24.42" y="0" style="letter-spacing:0.0020131474329982985em">h</tspan><tspan x="30.67" y="0"> </tspan></text></g><g style="clip-path:url(#clip-path-12)"><text transform="translate(27.4 233.71) rotate(-90)" style="font-size:10.18694019317627px;font-family:Arial-BoldMT, Arial;font-weight:700"><tspan style="letter-spacing:0.0060394422989948965em">M</tspan><tspan x="8.55" y="0" style="letter-spacing:0.0030676532312355026em">a</tspan><tspan x="14.24" y="0" style="letter-spacing:-0.0020131474329982985em">r</tspan><tspan x="18.19" y="0" style="letter-spacing:0.0030676532312355026em">ke</tspan><tspan x="29.58" y="0">t</tspan><tspan x="32.97" y="0" style="letter-spacing:-0.011024378799752588em"> </tspan><tspan x="35.69" y="0">P</tspan><tspan x="42.48" y="0" style="letter-spacing:-0.0020131474329982985em">r</tspan><tspan x="46.43" y="0" style="letter-spacing:0.0020131474329982985em">i</tspan><tspan x="49.28" y="0" style="letter-spacing:0.0030676532312355026em">ce</tspan><tspan x="60.67" y="0" style="letter-spacing:-0.011024378799752588em"> </tspan><tspan x="63.39" y="0">(</tspan><tspan x="66.78" y="0" style="letter-spacing:-0.0020131474329982985em">R</tspan><tspan x="74.12" y="0" style="letter-spacing:0.0030676532312355026em">s</tspan><tspan x="79.81" y="0" style="letter-spacing:0.0020131474329982985em">./</tspan><tspan x="85.51" y="0" style="letter-spacing:0.0060394422989948965em">M</tspan><tspan x="94.06" y="0" style="letter-spacing:0.0020131474329982985em">T</tspan><tspan x="100.3" y="0">)</tspan></text></g><g style="clip-path:url(#clip-path-12)"><text transform="translate(876.26 227.7) rotate(-90)" style="font-size:10.18694019317627px;font-family:Arial-BoldMT, Arial;font-weight:700"><tspan style="letter-spacing:0.0060394422989948965em">M</tspan><tspan x="8.55" y="0" style="letter-spacing:0.0030676532312355026em">a</tspan><tspan x="14.24" y="0" style="letter-spacing:-0.0020131474329982985em">r</tspan><tspan x="18.19" y="0" style="letter-spacing:0.0030676532312355026em">ke</tspan><tspan x="29.58" y="0">t</tspan><tspan x="32.97" y="0" style="letter-spacing:-0.011024378799752588em"> </tspan><tspan x="35.69" y="0" style="letter-spacing:-0.014954809502273077em">A</tspan><tspan x="42.89" y="0" style="letter-spacing:-0.0020131474329982985em">rr</tspan><tspan x="50.78" y="0" style="letter-spacing:0.0020131474329982985em">i</tspan><tspan x="53.63" y="0" style="letter-spacing:-0.00891536720327818em">v</tspan><tspan x="59.21" y="0" style="letter-spacing:0.0029717890677593934em">a</tspan><tspan x="64.9" y="0" style="letter-spacing:0.0020131474329982985em">l</tspan><tspan x="67.75" y="0" style="letter-spacing:0.015050673665749185em"> </tspan><tspan x="70.74" y="0">(</tspan><tspan x="74.13" y="0" style="letter-spacing:0.0060394422989948965em">M</tspan><tspan x="82.67" y="0" style="letter-spacing:0.0020131474329982985em">T</tspan><tspan x="88.92" y="0" style="letter-spacing:-0.00009586416347610946em">)</tspan></text></g><g style="clip-path:url(#clip-path)"><polygon points="109.89 23.06 131.62 23.06 131.62 28.22 109.89 28.22 109.89 23.06 109.89 23.06" style="fill:#2935e8;fill-rule:evenodd"/><polygon points="109.89 23.06 131.62 23.06 131.62 28.22 109.89 28.22 109.89 23.06 109.89 23.06" style="fill:none;stroke:#2935e8;stroke-linejoin:round;stroke-width:0.8149552592742px"/></g><g style="clip-path:url(#clip-path-12)"><text transform="translate(133.92 28.85)" style="font-size:10.18694019317627px;font-family:ArialMT, Arial"><tspan style="letter-spacing:-0.005943578135518787em">M</tspan><tspan x="8.42" y="0" style="letter-spacing:0.012941662069274776em">P</tspan><tspan x="15.35" y="0" style="letter-spacing:-0.010928514636276478em"> </tspan><tspan x="18.07" y="0" style="letter-spacing:-0.00009586416347610946em">(</tspan><tspan x="21.46" y="0" style="letter-spacing:-0.0019172832695221892em">R</tspan><tspan x="28.8" y="0" style="letter-spacing:-0.00009586416347610946em">-</tspan><tspan x="32.19" y="0" style="letter-spacing:0.0030676532312355026em">7</tspan><tspan x="37.89" y="0">)</tspan><tspan x="41.28" y="0" style="letter-spacing:0.0020131474329982985em"> </tspan><tspan x="44.13" y="0">Arr</tspan><tspan x="57.71" y="0" style="letter-spacing:0.003930430702520488em">i</tspan><tspan x="60.01" y="0" style="letter-spacing:-0.0060394422989948965em">v</tspan><tspan x="65.04" y="0" style="letter-spacing:0.0030676532312355026em">a</tspan><tspan x="70.74" y="0">l</tspan></text></g><g style="clip-path:url(#clip-path)"><polygon points="373.12 23.06 394.86 23.06 394.86 28.22 373.12 28.22 373.12 23.06 373.12 23.06" style="fill:#00c1a3;fill-rule:evenodd"/><polygon points="373.12 23.06 394.86 23.06 394.86 28.22 373.12 28.22 373.12 23.06 373.12 23.06" style="fill:none;stroke:#00c1a3;stroke-linejoin:round;stroke-width:0.8149552592742px"/></g><g style="clip-path:url(#clip-path-12)"><text transform="translate(397.12 28.85)" style="font-size:10.18694019317627px;font-family:ArialMT, Arial"><tspan style="letter-spacing:-0.005943578135518787em">M</tspan><tspan x="8.42" y="0" style="letter-spacing:0.012941662069274776em">P</tspan><tspan x="15.35" y="0" style="letter-spacing:-0.010928514636276478em">,</tspan><tspan x="18.07" y="0" style="letter-spacing:0.0020131474329982985em"> </tspan><tspan x="20.92" y="0" style="letter-spacing:0.0060394422989948965em">M</tspan><tspan x="29.47" y="0" style="letter-spacing:-0.0020131474329982985em">H</tspan><tspan x="36.8" y="0" style="letter-spacing:0.0020131474329982985em"> </tspan><tspan x="39.65" y="0">(</tspan><tspan x="43.05" y="0" style="letter-spacing:-0.0020131474329982985em">R</tspan><tspan x="50.38" y="0">-</tspan><tspan x="53.78" y="0" style="letter-spacing:-0.00901123136675429em">3</tspan><tspan x="59.35" y="0" style="letter-spacing:0.0030676532312355026em">03</tspan><tspan x="70.74" y="0">)</tspan><tspan x="74.13" y="0" style="letter-spacing:0.0020131474329982985em"> </tspan><tspan x="76.98" y="0" style="letter-spacing:-0.00009586416347610946em">Arr</tspan><tspan x="90.56" y="0" style="letter-spacing:-0.008052589731993194em">i</tspan><tspan x="92.75" y="0" style="letter-spacing:0.005943578135518787em">v</tspan><tspan x="97.9" y="0" style="letter-spacing:-0.00891536720327818em">a</tspan><tspan x="103.47" y="0" style="letter-spacing:-0.00009586416347610946em">l</tspan></text></g><g style="clip-path:url(#clip-path)"><polygon points="636.35 23.06 658.09 23.06 658.09 28.22 636.35 28.22 636.35 23.06 636.35 23.06" style="fill:#ff25f3;fill-rule:evenodd"/><polygon points="636.35 23.06 658.09 23.06 658.09 28.22 636.35 28.22 636.35 23.06 636.35 23.06" style="fill:none;stroke:#ff25f3;stroke-linejoin:round;stroke-width:0.8149552592742px"/></g><g style="clip-path:url(#clip-path-12)"><text transform="translate(660.32 28.85)" style="font-size:10.18694019317627px;font-family:ArialMT, Arial"><tspan style="letter-spacing:-0.005943578135518787em">M</tspan><tspan x="8.42" y="0" style="letter-spacing:0.011024378799752588em">H</tspan><tspan x="15.89" y="0" style="letter-spacing:-0.011024378799752588em"> </tspan><tspan x="18.61" y="0">(</tspan><tspan x="22" y="0" style="letter-spacing:0.011024378799752588em">R</tspan><tspan x="29.47" y="0">-</tspan><tspan x="32.87" y="0" style="letter-spacing:-0.00901123136675429em">3</tspan><tspan x="38.44" y="0" style="letter-spacing:0.0030676532312355026em">00</tspan><tspan x="49.83" y="0" style="letter-spacing:0.0020131474329982985em">,</tspan><tspan x="52.68" y="0" style="letter-spacing:-0.011024378799752588em"> </tspan><tspan x="55.4" y="0" style="letter-spacing:0.011024378799752588em">R</tspan><tspan x="62.87" y="0" style="letter-spacing:-0.013037526232750887em">-</tspan><tspan x="66.13" y="0" style="letter-spacing:0.0030676532312355026em">301</tspan><tspan x="83.22" y="0" style="letter-spacing:-0.011024378799752588em">,</tspan><tspan x="85.93" y="0" style="letter-spacing:0.0020131474329982985em"> </tspan><tspan x="88.79" y="0" style="letter-spacing:-0.0020131474329982985em">R</tspan><tspan x="96.12" y="0">-</tspan><tspan x="99.51" y="0" style="letter-spacing:0.0030676532312355026em">302</tspan><tspan x="116.6" y="0" style="letter-spacing:-0.012941662069274776em">)</tspan><tspan x="119.86" y="0" style="letter-spacing:0.0020131474329982985em"> </tspan><tspan x="122.71" y="0" style="letter-spacing:-0.00009586416347610946em">Arr</tspan><tspan x="136.29" y="0" style="letter-spacing:0.003930430702520488em">i</tspan><tspan x="138.6" y="0" style="letter-spacing:-0.0060394422989948965em">v</tspan><tspan x="143.63" y="0" style="letter-spacing:0.0030676532312355026em">a</tspan><tspan x="149.32" y="0" style="letter-spacing:-0.00009586416347610946em">l</tspan></text></g><g style="clip-path:url(#clip-path)"><line x1="109.89" y1="45.07" x2="131.62" y2="45.07" style="fill:none;stroke:#2935e8;stroke-linecap:round;stroke-linejoin:round;stroke-width:1.6299105185484px"/></g><g style="clip-path:url(#clip-path-12)"><text transform="translate(133.92 48.33)" style="font-size:10.18694019317627px;font-family:ArialMT, Arial"><tspan style="letter-spacing:-0.005943578135518787em">M</tspan><tspan x="8.42" y="0" style="letter-spacing:0.012941662069274776em">P</tspan><tspan x="15.35" y="0" style="letter-spacing:-0.010928514636276478em"> </tspan><tspan x="18.07" y="0" style="letter-spacing:-0.00009586416347610946em">(</tspan><tspan x="21.46" y="0" style="letter-spacing:-0.0019172832695221892em">R</tspan><tspan x="28.8" y="0" style="letter-spacing:-0.00009586416347610946em">-</tspan><tspan x="32.19" y="0" style="letter-spacing:0.0030676532312355026em">7</tspan><tspan x="37.89" y="0">)</tspan><tspan x="41.28" y="0" style="letter-spacing:0.0020131474329982985em"> </tspan><tspan x="44.13" y="0">Pr</tspan><tspan x="54.32" y="0" style="letter-spacing:0.004026294865996597em">i</tspan><tspan x="56.62" y="0" style="letter-spacing:-0.0060394422989948965em">c</tspan><tspan x="61.65" y="0">e</tspan></text></g><g style="clip-path:url(#clip-path)"><line x1="373.12" y1="45.07" x2="394.85" y2="45.07" style="fill:none;stroke:#00c1a3;stroke-linecap:round;stroke-linejoin:round;stroke-width:1.6299105185484px"/></g><g style="clip-path:url(#clip-path-12)"><text transform="translate(397.12 48.33)" style="font-size:10.18694019317627px;font-family:ArialMT, Arial"><tspan style="letter-spacing:-0.005943578135518787em">M</tspan><tspan x="8.42" y="0" style="letter-spacing:0.012941662069274776em">P</tspan><tspan x="15.35" y="0" style="letter-spacing:-0.010928514636276478em">,</tspan><tspan x="18.07" y="0" style="letter-spacing:0.0020131474329982985em"> </tspan><tspan x="20.92" y="0" style="letter-spacing:0.0060394422989948965em">M</tspan><tspan x="29.47" y="0" style="letter-spacing:-0.0020131474329982985em">H</tspan><tspan x="36.8" y="0" style="letter-spacing:0.0020131474329982985em"> </tspan><tspan x="39.65" y="0">(</tspan><tspan x="43.05" y="0" style="letter-spacing:-0.0020131474329982985em">R</tspan><tspan x="50.38" y="0">-</tspan><tspan x="53.78" y="0" style="letter-spacing:-0.00901123136675429em">3</tspan><tspan x="59.35" y="0" style="letter-spacing:0.0030676532312355026em">03</tspan><tspan x="70.74" y="0">)</tspan><tspan x="74.13" y="0" style="letter-spacing:0.0020131474329982985em"> </tspan><tspan x="76.98" y="0" style="letter-spacing:-0.00009586416347610946em">Pr</tspan><tspan x="87.17" y="0" style="letter-spacing:-0.008052589731993194em">i</tspan><tspan x="89.35" y="0" style="letter-spacing:0.005943578135518787em">c</tspan><tspan x="94.51" y="0" style="letter-spacing:0.00009586416347610946em">e</tspan></text></g><g style="clip-path:url(#clip-path)"><line x1="636.35" y1="45.07" x2="658.09" y2="45.07" style="fill:none;stroke:#ff25f3;stroke-linecap:round;stroke-linejoin:round;stroke-width:1.6299105185484px"/></g><g style="clip-path:url(#clip-path-12)"><text transform="translate(660.32 48.33)" style="font-size:10.18694019317627px;font-family:ArialMT, Arial"><tspan style="letter-spacing:-0.005943578135518787em">M</tspan><tspan x="8.42" y="0" style="letter-spacing:0.011024378799752588em">H</tspan><tspan x="15.89" y="0" style="letter-spacing:-0.011024378799752588em"> </tspan><tspan x="18.61" y="0">(</tspan><tspan x="22" y="0" style="letter-spacing:0.011024378799752588em">R</tspan><tspan x="29.47" y="0">-</tspan><tspan x="32.87" y="0" style="letter-spacing:-0.00901123136675429em">3</tspan><tspan x="38.44" y="0" style="letter-spacing:0.0030676532312355026em">00</tspan><tspan x="49.83" y="0" style="letter-spacing:0.0020131474329982985em">,</tspan><tspan x="52.68" y="0" style="letter-spacing:-0.011024378799752588em"> </tspan><tspan x="55.4" y="0" style="letter-spacing:0.011024378799752588em">R</tspan><tspan x="62.87" y="0" style="letter-spacing:-0.013037526232750887em">-</tspan><tspan x="66.13" y="0" style="letter-spacing:0.0030676532312355026em">301</tspan><tspan x="83.22" y="0" style="letter-spacing:-0.011024378799752588em">,</tspan><tspan x="85.93" y="0" style="letter-spacing:0.0020131474329982985em"> </tspan><tspan x="88.79" y="0" style="letter-spacing:-0.0020131474329982985em">R</tspan><tspan x="96.12" y="0">-</tspan><tspan x="99.51" y="0" style="letter-spacing:0.0030676532312355026em">302</tspan><tspan x="116.6" y="0" style="letter-spacing:-0.012941662069274776em">)</tspan><tspan x="119.86" y="0" style="letter-spacing:0.0020131474329982985em"> </tspan><tspan x="122.71" y="0" style="letter-spacing:-0.00009586416347610946em">Pr</tspan><tspan x="132.9" y="0" style="letter-spacing:0.003930430702520488em">i</tspan><tspan x="135.2" y="0" style="letter-spacing:-0.0060394422989948965em">c</tspan><tspan x="140.24" y="0" style="letter-spacing:0.00009586416347610946em">e</tspan></text></g><polygon points="8.16 1.6 891.98 1.6 891.98 350.4 8.16 350.4 8.16 1.6 8.16 1.6" style="fill:none;stroke:#d9d9d9;stroke-linejoin:round;stroke-width:0.814955326739646px"/></svg>