<svg id="Layer_1" data-name="Layer 1" xmlns="http://www.w3.org/2000/svg" xmlns:xlink="http://www.w3.org/1999/xlink" viewBox="0 0 900 350"><defs><clipPath id="clip-path"><polygon points="2 88.32 900 88.32 900 263.1 2 263.1 2 88.32 2 88.32" style="fill:none;clip-rule:evenodd"/></clipPath><clipPath id="clip-path-2"><polygon points="2 88.32 161.4 88.32 161.4 148 2 148 2 88.32 2 88.32" style="fill:none;clip-rule:evenodd"/></clipPath><clipPath id="clip-path-4"><polygon points="581.22 149.42 739.19 149.42 739.19 184.95 581.22 184.95 581.22 149.42 581.22 149.42" style="fill:none;clip-rule:evenodd"/></clipPath><clipPath id="clip-path-5"><polygon points="581.22 186.37 739.19 186.37 739.19 221.89 581.22 221.89 581.22 186.37 581.22 186.37" style="fill:none;clip-rule:evenodd"/></clipPath><clipPath id="clip-path-6"><polygon points="2 223.31 898.58 223.31 898.58 261.68 2 261.68 2 223.31 2 223.31" style="fill:none;clip-rule:evenodd"/></clipPath><clipPath id="clip-path-7"><polygon points="0.58 86.9 900 86.9 900 263.1 0.58 263.1 0.58 86.9 0.58 86.9" style="fill:none;clip-rule:evenodd"/></clipPath></defs><title>seasonal-calendar</title><g style="clip-path:url(#clip-path)"><polyline points="0.58 86.9 0.58 149.42 900 149.42 900 86.9 0.58 86.9" style="fill:#d8d8d8;fill-rule:evenodd"/><polyline points="0.58 148 0.58 223.31 421.83 223.31 421.83 148 0.58 148" style="fill:#f2f2f2;fill-rule:evenodd"/><polyline points="420.4 148 420.4 223.31 501.52 223.31 501.52 148 420.4 148" style="fill:#fff;fill-rule:evenodd"/><polyline points="500.1 148 500.1 223.31 581.22 223.31 581.22 148 500.1 148" style="fill:#5e9fff;fill-rule:evenodd"/><polyline points="579.8 148 579.8 223.31 740.61 223.31 740.61 148 579.8 148" style="fill:#06f;fill-rule:evenodd"/><polyline points="739.19 148 739.19 223.31 820.3 223.31 820.3 148 739.19 148" style="fill:#0044ab;fill-rule:evenodd"/></g><g style="clip-path:url(#clip-path-2)"><text transform="translate(21.94 112.45)" style="font-size:18.473400115966797px;font-family:Arial-BoldMT, Arial;font-weight:700"><tspan style="letter-spacing:-0.028978992177823716em">A</tspan><tspan x="12.81" y="0" style="letter-spacing:0.00401166376232168em">g</tspan><tspan x="24.16" y="0" style="letter-spacing:-0.00401166376232168em">r</tspan><tspan x="31.28" y="0" style="letter-spacing:0.00401166376232168em">o</tspan><tspan x="42.64" y="0" style="letter-spacing:-0.02502011346500627em">-</tspan><tspan x="48.33" y="0" style="letter-spacing:-0.01699678594036291em">c</tspan><tspan x="58.29" y="0" style="letter-spacing:0.029031777227327946em">li</tspan><tspan x="69.62" y="0" style="letter-spacing:0.0329906559401454em">m</tspan><tspan x="86.66" y="0" style="letter-spacing:0.059013685345732085em">a</tspan><tspan x="98.02" y="0" style="letter-spacing:-0.02502011346500627em">t</tspan><tspan x="103.71" y="0" style="letter-spacing:0.029031777227327946em">i</tspan><tspan x="109.38" y="0" style="letter-spacing:-0.01699678594036291em">c</tspan><tspan x="119.34" y="0"> </tspan></text><text transform="translate(60.35 136.63)" style="font-size:18.473400115966797px;font-family:Arial-BoldMT, Arial;font-weight:700"><tspan style="letter-spacing:0.038005235643047496em">z</tspan><tspan x="9.94" y="0" style="letter-spacing:0.00401166376232168em">on</tspan><tspan x="32.65" y="0">e</tspan></text></g><g style="clip-path:url(#clip-path)"><text transform="translate(259.59 125.26)" style="font-size:18.473400115966797px;font-family:Arial-BoldMT, Arial;font-weight:700"><tspan style="letter-spacing:-0.028978992177823716em">R</tspan><tspan x="12.81" y="0" style="letter-spacing:0.059013685345732085em">e</tspan><tspan x="24.17" y="0" style="letter-spacing:0.00401166376232168em">g</tspan><tspan x="35.53" y="0" style="letter-spacing:0.029031777227327946em">i</tspan><tspan x="41.2" y="0" style="letter-spacing:0.00401166376232168em">o</tspan><tspan x="52.55" y="0">n</tspan></text><text transform="translate(443.17 125.26)" style="font-size:18.473400115966797px;font-family:Arial-BoldMT, Arial;font-weight:700"><tspan style="letter-spacing:0.01298512217804123em">M</tspan><tspan x="15.63" y="0" style="letter-spacing:0.059013685345732085em">a</tspan><tspan x="26.99" y="0">y</tspan></text><text transform="translate(524.29 125.26)" style="font-size:18.473400115966797px;font-family:Arial-BoldMT, Arial;font-weight:700"><tspan style="letter-spacing:-0.01699678594036291em">J</tspan><tspan x="9.96" y="0" style="letter-spacing:0.00401166376232168em">u</tspan><tspan x="21.32" y="0">n</tspan></text><text transform="translate(606.83 125.26)" style="font-size:18.473400115966797px;font-family:Arial-BoldMT, Arial;font-weight:700;letter-spacing:-0.01699678594036291em">J<tspan x="9.96" y="0" style="letter-spacing:0.00401166376232168em">u</tspan><tspan x="21.32" y="0" style="letter-spacing:0.00005278504950423263em">l</tspan></text><text transform="translate(682.27 125.26)" style="font-size:18.473400115966797px;font-family:Arial-BoldMT, Arial;font-weight:700"><tspan style="letter-spacing:-0.028978992177823716em">A</tspan><tspan x="12.81" y="0" style="letter-spacing:0.00401166376232168em">u</tspan><tspan x="24.16" y="0">g</tspan></text><text transform="translate(759.11 125.26)" style="font-size:18.473400115966797px;font-family:Arial-BoldMT, Arial;font-weight:700;letter-spacing:0.02502011346500627em">S<tspan x="12.78" y="0" style="letter-spacing:0.059013685345732085em">e</tspan><tspan x="24.15" y="0" style="letter-spacing:0.00401166376232168em">p</tspan><tspan x="35.51" y="0" style="letter-spacing:-0.00005278504950423263em">t</tspan></text><text transform="translate(844.5 125.26)" style="font-size:18.473400115966797px;font-family:Arial-BoldMT, Arial;font-weight:700"><tspan style="letter-spacing:-0.00802332752464336em">O</tspan><tspan x="14.22" y="0" style="letter-spacing:-0.01699678594036291em">c</tspan><tspan x="24.18" y="0">t</tspan></text><text transform="translate(63.21 173.57)" style="font-size:18.473400115966797px;font-family:Arial-BoldMT, Arial;font-weight:700"><tspan style="letter-spacing:-0.028978992177823716em">C</tspan><tspan x="12.81" y="0" style="letter-spacing:0.02502011346500627em">P</tspan><tspan x="25.59" y="0">H</tspan></text><text transform="translate(182.75 173.57)" style="font-size:18.473400115966797px;font-family:Arial-BoldMT, Arial;font-weight:700"><tspan style="letter-spacing:-0.028978992177823716em">R</tspan><tspan x="12.81" y="0" style="letter-spacing:-0.02502011346500627em">-</tspan><tspan x="18.5" y="0">7</tspan></text><text transform="translate(60.35 210.52)" style="font-size:18.473400115966797px;font-family:Arial-BoldMT, Arial;font-weight:700;letter-spacing:0.05600493752399082em">W<tspan x="18.47" y="0" style="letter-spacing:0.024967328415502033em">P</tspan><tspan x="31.25" y="0" style="letter-spacing:0.00005278504950423263em">H</tspan></text><text transform="translate(182.75 210.52)" style="font-size:18.473400115966797px;font-family:Arial-BoldMT, Arial;font-weight:700;letter-spacing:-0.028978992177823716em">R<tspan x="12.81" y="0" style="letter-spacing:-0.02502011346500627em">-</tspan><tspan x="18.5" y="0" style="letter-spacing:-0.01699678594036291em">300</tspan><tspan x="48.37" y="0" style="letter-spacing:0.029031777227327946em">, </tspan><tspan x="59.71" y="0">R</tspan><tspan x="72.52" y="0" style="letter-spacing:-0.02502011346500627em">-</tspan><tspan x="78.21" y="0" style="letter-spacing:-0.01699678594036291em">301</tspan><tspan x="108.09" y="0" style="letter-spacing:0.029031777227327946em">, </tspan><tspan x="119.42" y="0">R</tspan><tspan x="132.23" y="0" style="letter-spacing:-0.02502011346500627em">-</tspan><tspan x="137.92" y="0" style="letter-spacing:-0.01699678594036291em">302</tspan><tspan x="167.8" y="0" style="letter-spacing:0.028978992177823716em">, </tspan><tspan x="179.13" y="0">R</tspan><tspan x="191.94" y="0" style="letter-spacing:-0.02502011346500627em">-</tspan><tspan x="197.63" y="0" style="letter-spacing:-0.01699678594036291em">30</tspan><tspan x="217.55" y="0" style="letter-spacing:0.00005278504950423263em">3</tspan></text></g><g style="clip-path:url(#clip-path-4)"><text transform="translate(633.88 173.57)" style="font-size:18.473400115966797px;fill:#fff;font-family:Arial-BoldMT, Arial;font-weight:700"><tspan style="letter-spacing:-0.028978992177823716em">K</tspan><tspan x="12.81" y="0" style="letter-spacing:0.00401166376232168em">h</tspan><tspan x="24.16" y="0" style="letter-spacing:0.059013685345732085em">a</tspan><tspan x="35.53" y="0" style="letter-spacing:-0.00401166376232168em">r</tspan><tspan x="42.64" y="0" style="letter-spacing:0.028978992177823716em">i</tspan><tspan x="48.31" y="0">f</tspan></text></g><g style="clip-path:url(#clip-path-5)"><text transform="translate(633.88 210.52)" style="font-size:18.473400115966797px;fill:#fff;font-family:Arial-BoldMT, Arial;font-weight:700"><tspan style="letter-spacing:-0.028978992177823716em">K</tspan><tspan x="12.81" y="0" style="letter-spacing:0.00401166376232168em">h</tspan><tspan x="24.16" y="0" style="letter-spacing:0.059013685345732085em">a</tspan><tspan x="35.53" y="0" style="letter-spacing:-0.00401166376232168em">r</tspan><tspan x="42.64" y="0" style="letter-spacing:0.028978992177823716em">i</tspan><tspan x="48.31" y="0">f</tspan></text></g><g style="clip-path:url(#clip-path-6)"><text transform="translate(4.85 247.47)" style="font-size:15.631329536437988px;font-family:ArialMT, Arial"><tspan style="letter-spacing:-0.08496478418447603em">N</tspan><tspan x="9.96" y="0" style="letter-spacing:-0.009981178758822441em">o</tspan><tspan x="18.5" y="0" style="letter-spacing:-0.00505297174665386em">t</tspan><tspan x="22.76" y="0" style="letter-spacing:-0.009981178758822441em">e</tspan><tspan x="31.3" y="0">:</tspan></text><text transform="translate(40.43 247.47)" style="font-size:15.631329536437988px;font-family:Arial-BoldMT, Arial;font-weight:700"><tspan style="letter-spacing:0.00505297174665386em">C</tspan><tspan x="11.37" y="0" style="letter-spacing:-0.03000591864370996em">P</tspan><tspan x="21.32" y="0">H</tspan></text><text transform="translate(71.74 247.47)" style="font-size:15.631329536437988px;font-family:ArialMT, Arial;letter-spacing:-0.0049905893794112205em"> <tspan x="4.27" y="0" style="letter-spacing:-0.08502716655171866em">C</tspan><tspan x="14.22" y="0" style="letter-spacing:-0.009981178758822441em">en</tspan><tspan x="31.3" y="0">t</tspan><tspan x="35.56" y="0" style="letter-spacing:0.03000591864370996em">r</tspan><tspan x="41.24" y="0" style="letter-spacing:-0.009981178758822441em">a</tspan><tspan x="49.77" y="0" style="letter-spacing:-0.039987097402532396em">l</tspan><tspan x="52.62" y="0" style="letter-spacing:-0.00505297174665386em"> </tspan><tspan x="56.89" y="0" style="letter-spacing:-0.12095941008347944em">P</tspan><tspan x="65.42" y="0" style="letter-spacing:-0.039987097402532396em">l</tspan><tspan x="68.27" y="0" style="letter-spacing:-0.009981178758822441em">a</tspan><tspan x="76.81" y="0" style="letter-spacing:-0.00505297174665386em">t</tspan><tspan x="81.07" y="0" style="letter-spacing:-0.009981178758822441em">eau</tspan><tspan x="106.68" y="0"> </tspan><tspan x="110.95" y="0" style="letter-spacing:-0.009981178758822441em">and</tspan><tspan x="136.56" y="0"> </tspan><tspan x="140.82" y="0" style="letter-spacing:-0.08496478418447603em">H</tspan><tspan x="150.78" y="0" style="letter-spacing:-0.039987097402532396em">ill</tspan><tspan x="159.32" y="0" style="letter-spacing:0.04504006914918626em">s</tspan><tspan x="167.84" y="0" style="letter-spacing:-0.00006238236724264026em">,</tspan></text><text transform="translate(243.93 247.47)" style="font-size:15.631329536437988px;font-family:Arial-BoldMT, Arial;font-weight:700"> </text><text transform="translate(248.2 247.47)" style="font-size:15.631329536437988px;font-family:Arial-BoldMT, Arial;font-weight:700;letter-spacing:-0.03399839014723894em">W<tspan x="14.22" y="0" style="letter-spacing:-0.03000591864370996em">P</tspan><tspan x="24.18" y="0" style="letter-spacing:0.00006238236724264026em">H</tspan></text><text transform="translate(282.35 247.47)" style="font-size:15.631329536437988px;font-family:ArialMT, Arial"><tspan style="letter-spacing:-0.0049905893794112205em"> </tspan><tspan x="4.27" y="0" style="letter-spacing:-0.03399839014723894em">W</tspan><tspan x="18.49" y="0" style="letter-spacing:-0.01004356112606508em">e</tspan><tspan x="27.02" y="0" style="letter-spacing:0.04504006914918626em">s</tspan><tspan x="35.54" y="0" style="letter-spacing:-0.00505297174665386em">t</tspan><tspan x="39.81" y="0" style="letter-spacing:-0.009981178758822441em">e</tspan><tspan x="48.34" y="0" style="letter-spacing:0.03000591864370996em">r</tspan><tspan x="54.02" y="0" style="letter-spacing:-0.009981178758822441em">n</tspan><tspan x="62.56" y="0" style="letter-spacing:-0.0049905893794112205em"> </tspan><tspan x="66.82" y="0" style="letter-spacing:-0.1210217924507221em">P</tspan><tspan x="75.36" y="0" style="letter-spacing:-0.039987097402532396em">l</tspan><tspan x="78.2" y="0" style="letter-spacing:-0.009981178758822441em">a</tspan><tspan x="86.74" y="0" style="letter-spacing:-0.0049905893794112205em">t</tspan><tspan x="91" y="0" style="letter-spacing:-0.009981178758822441em">eau</tspan><tspan x="116.62" y="0" style="letter-spacing:-0.0049905893794112205em"> </tspan><tspan x="120.88" y="0" style="letter-spacing:-0.009981178758822441em">and</tspan><tspan x="146.49" y="0" style="letter-spacing:-0.00505297174665386em"> </tspan><tspan x="150.76" y="0" style="letter-spacing:-0.08496478418447603em">H</tspan><tspan x="160.72" y="0" style="letter-spacing:-0.039987097402532396em">ill</tspan><tspan x="169.26" y="0">s</tspan></text></g><g style="clip-path:url(#clip-path-7)"><polyline points="0.58 86.9 0.58 223.31 2 223.31 2 86.9 0.58 86.9" style="fill:#bfbfbf;fill-rule:evenodd"/><polyline points="2 221.89 2 223.31 900 223.31 900 221.89 2 221.89" style="fill:#bfbfbf;fill-rule:evenodd"/><polyline points="898.58 88.32 898.58 223.31 900 223.31 900 88.32 898.58 88.32" style="fill:#bfbfbf;fill-rule:evenodd"/><polyline points="0.58 223.31 0.58 264.52 2 264.52 2 223.31 0.58 223.31" style="fill:#fff;fill-rule:evenodd"/><polyline points="161.4 88.32 161.4 223.31 162.82 223.31 162.82 88.32 161.4 88.32" style="fill:#bfbfbf;fill-rule:evenodd"/><polyline points="420.4 88.32 420.4 223.31 421.83 223.31 421.83 88.32 420.4 88.32" style="fill:#bfbfbf;fill-rule:evenodd"/><polyline points="500.1 88.32 500.1 223.31 501.52 223.31 501.52 88.32 500.1 88.32" style="fill:#bfbfbf;fill-rule:evenodd"/><polyline points="579.8 88.32 579.8 223.31 581.22 223.31 581.22 88.32 579.8 88.32" style="fill:#bfbfbf;fill-rule:evenodd"/><polyline points="659.49 88.32 659.49 149.42 660.91 149.42 660.91 88.32 659.49 88.32" style="fill:#bfbfbf;fill-rule:evenodd"/><polyline points="739.19 88.32 739.19 223.31 740.61 223.31 740.61 88.32 739.19 88.32" style="fill:#bfbfbf;fill-rule:evenodd"/><polyline points="818.88 88.32 818.88 223.31 820.3 223.31 820.3 88.32 818.88 88.32" style="fill:#bfbfbf;fill-rule:evenodd"/><polyline points="898.58 223.31 898.58 264.52 900 264.52 900 223.31 898.58 223.31" style="fill:#fff;fill-rule:evenodd"/><polyline points="2 86.9 2 88.32 900 88.32 900 86.9 2 86.9" style="fill:#bfbfbf;fill-rule:evenodd"/><polyline points="2 148 2 149.42 900 149.42 900 148 2 148" style="fill:#bfbfbf;fill-rule:evenodd"/><polyline points="2 184.95 2 186.37 900 186.37 900 184.95 2 184.95" style="fill:#bfbfbf;fill-rule:evenodd"/><polyline points="0.58 261.68 0.58 263.1 901.42 263.1 901.42 261.68 0.58 261.68" style="fill:#fff;fill-rule:evenodd"/></g></svg>