<svg id="Layer_1" data-name="Layer 1" xmlns="http://www.w3.org/2000/svg" xmlns:xlink="http://www.w3.org/1999/xlink" viewBox="0 0 900 350"><defs><clipPath id="clip-path"><polygon points="3.13 346.37 896.73 346.37 896.73 3.63 3.13 3.63 3.13 346.37 3.13 346.37" style="fill:none;clip-rule:evenodd"/></clipPath><clipPath id="clip-path-2"><polygon points="81.51 308.9 882.82 308.9 882.82 33.66 81.51 33.66 81.51 308.9 81.51 308.9" style="fill:none;clip-rule:evenodd"/></clipPath><clipPath id="clip-path-5"><rect x="3.12" y="3.63" width="893.61" height="342.73" style="fill:none"/></clipPath><clipPath id="clip-path-16"><rect x="178.35" y="102.95" width="287.49" height="18.6" style="fill:none"/></clipPath></defs><title>yar</title><polygon points="3.13 3.77 896.87 3.77 896.87 346.37 3.13 346.37 3.13 3.77 3.13 3.77" style="fill:#eaeaea;fill-rule:evenodd"/><polygon points="81.64 33.66 881.99 33.66 881.99 308.07 81.64 308.07 81.64 33.66 81.64 33.66" style="fill:#fff;fill-rule:evenodd"/><path d="M81.64,308.07H882M81.64,253.24H882m-800.35-55H882M81.64,143.45H882m-800.35-55H882M81.64,33.66H882" style="fill:none;stroke:#d9d9d9;stroke-linejoin:round;stroke-width:0.82652134198355px"/><g style="clip-path:url(#clip-path)"><path d="M81.64,33.66V308.07M241.71,33.66V308.07M401.78,33.66V308.07M561.85,33.66V308.07M721.92,33.66V308.07M882,33.66V308.07" style="fill:none;stroke:#d9d9d9;stroke-linejoin:round;stroke-width:0.82652134198355px"/></g><g style="clip-path:url(#clip-path-2)"><path d="M129.58,239.47h64.06v10.19H129.58V239.47Zm160.07,0h64.06v30.3H289.65v-30.3Zm160.07,0h64.06V275H449.72V239.47Zm160.07,0h64.06v32.92H609.79V239.47Zm160.07,0h64.06v10.88H769.86V239.47Z" style="fill:#ff25f3"/></g><g style="clip-path:url(#clip-path-2)"><path d="M129.58,192.77h64.06v46.7H129.58v-46.7Zm160.07-42.15h64.06v88.85H289.65V150.62ZM449.72,97.44h64.06v142H449.72v-142ZM609.79,140.7h64.06v98.77H609.79V140.7ZM769.86,133h64.06V239.47H769.86V133Z" style="fill:#5e9fff"/></g><g style="clip-path:url(#clip-path-2)"><path d="M129.58,182.58h64.06v10.19H129.58V182.58Zm160.07-62.27h64.06v30.31H289.65V120.31ZM449.72,61.9h64.06V97.44H449.72V61.9Zm160.07,45.88h64.06V140.7H609.79V107.78ZM769.86,122.1h64.06V133H769.86V122.1Z" style="fill:#0044ab"/></g><g style="clip-path:url(#clip-path-5)"><text transform="translate(149.04 265.39)" style="font-size:9.229490280151367px;font-family:Arial-BoldMT, Arial;font-weight:700">-</text></g><g style="clip-path:url(#clip-path-5)"><text transform="translate(152.08 265.39)" style="font-size:9.229490280151367px;font-family:Arial-BoldMT, Arial;font-weight:700"><tspan style="letter-spacing:-0.0029626500673395314em">22</tspan><tspan x="10.21" y="0">%</tspan></text></g><g style="clip-path:url(#clip-path-5)"><text transform="translate(306.48 282.61)" style="font-size:10.331520080566406px;font-family:Arial-BoldMT, Arial;font-weight:700">-</text></g><g style="clip-path:url(#clip-path-5)"><text transform="translate(309.93 282.61)" style="font-size:10.331520080566406px;font-family:Arial-BoldMT, Arial;font-weight:700;letter-spacing:0.003024724315135511em">34<tspan x="11.55" y="0" style="letter-spacing:0.0020794979666556635em">.</tspan><tspan x="14.45" y="0" style="letter-spacing:0.002930201680287526em">08</tspan><tspan x="26" y="0" style="letter-spacing:-0.00009452263484798472em">%</tspan></text></g><g style="clip-path:url(#clip-path-5)"><text transform="translate(462.66 284.07)" style="font-size:10.331520080566406px;font-family:Arial-BoldMT, Arial;font-weight:700">-</text></g><g style="clip-path:url(#clip-path-5)"><text transform="translate(466.1 284.07)" style="font-size:10.331520080566406px;font-family:Arial-BoldMT, Arial;font-weight:700;letter-spacing:0.003024724315135511em">25<tspan x="11.55" y="0" style="letter-spacing:0.0020794979666556635em">.</tspan><tspan x="14.45" y="0" style="letter-spacing:0.002930201680287526em">04</tspan><tspan x="26" y="0" style="letter-spacing:-0.00009452263484798472em">%</tspan></text></g><g style="clip-path:url(#clip-path-5)"><text transform="translate(618.84 285.07)" style="font-size:10.331520080566406px;font-family:Arial-BoldMT, Arial;font-weight:700">-</text></g><g style="clip-path:url(#clip-path-5)"><text transform="translate(622.29 285.07)" style="font-size:10.331520080566406px;font-family:Arial-BoldMT, Arial;font-weight:700;letter-spacing:0.003024724315135511em">33<tspan x="11.55" y="0" style="letter-spacing:0.0020794979666556635em">.</tspan><tspan x="14.45" y="0" style="letter-spacing:0.002930201680287526em">33</tspan><tspan x="26" y="0" style="letter-spacing:-0.00009452263484798472em">%</tspan></text></g><g style="clip-path:url(#clip-path-5)"><text transform="translate(788.67 269.47)" style="font-size:10.331520080566406px;font-family:Arial-BoldMT, Arial;font-weight:700">-</text></g><g style="clip-path:url(#clip-path-5)"><text transform="translate(792.11 269.47)" style="font-size:10.331520080566406px;font-family:Arial-BoldMT, Arial;font-weight:700;letter-spacing:0.003024724315135511em">10<tspan x="11.55" y="0" style="letter-spacing:0.0020794979666556635em">.</tspan><tspan x="14.45" y="0" style="letter-spacing:0.002930201680287526em">29</tspan><tspan x="26" y="0" style="letter-spacing:-0.00009452263484798472em">%</tspan></text></g><g style="clip-path:url(#clip-path-5)"><text transform="translate(144.1 177.1)" style="font-size:10.331520080566406px;font-family:Arial-BoldMT, Arial;font-weight:700"><tspan style="letter-spacing:0.001984975331807679em">+</tspan><tspan x="6.05" y="0" style="letter-spacing:0.003024724315135511em">22</tspan><tspan x="17.61" y="0">%</tspan></text></g><g style="clip-path:url(#clip-path-16)"><text transform="translate(301.6 115.99)" style="font-size:10.331520080566406px;font-family:Arial-BoldMT, Arial;font-weight:700"><tspan style="letter-spacing:0.001984975331807679em">+</tspan><tspan x="6.05" y="0" style="letter-spacing:0.003024724315135511em">34</tspan><tspan x="17.61" y="0" style="letter-spacing:0.0020794979666556635em">.</tspan><tspan x="20.5" y="0" style="letter-spacing:0.002930201680287526em">08</tspan><tspan x="32.05" y="0">%</tspan></text></g><g style="clip-path:url(#clip-path-5)"><text transform="translate(461.29 55.68)" style="font-size:10.331520080566406px;font-family:Arial-BoldMT, Arial;font-weight:700"><tspan style="letter-spacing:0.001984975331807679em">+</tspan><tspan x="6.05" y="0" style="letter-spacing:0.003024724315135511em">25</tspan><tspan x="17.61" y="0" style="letter-spacing:0.0020794979666556635em">.</tspan><tspan x="20.5" y="0" style="letter-spacing:0.002930201680287526em">04</tspan><tspan x="32.05" y="0">%</tspan></text></g><g style="clip-path:url(#clip-path-5)"><text transform="translate(617.46 100.16)" style="font-size:10.331520080566406px;font-family:Arial-BoldMT, Arial;font-weight:700"><tspan style="letter-spacing:0.001984975331807679em">+</tspan><tspan x="6.05" y="0" style="letter-spacing:0.003024724315135511em">33</tspan><tspan x="17.61" y="0" style="letter-spacing:0.0020794979666556635em">.</tspan><tspan x="20.5" y="0" style="letter-spacing:0.002930201680287526em">33</tspan><tspan x="32.05" y="0">%</tspan></text></g><g style="clip-path:url(#clip-path-5)"><text transform="translate(781.44 115.03)" style="font-size:10.331520080566406px;font-family:Arial-BoldMT, Arial;font-weight:700"><tspan style="letter-spacing:0.001984975331807679em">+</tspan><tspan x="6.05" y="0" style="letter-spacing:0.003024724315135511em">10</tspan><tspan x="17.61" y="0" style="letter-spacing:0.0020794979666556635em">.</tspan><tspan x="20.5" y="0" style="letter-spacing:0.002930201680287526em">29</tspan><tspan x="32.05" y="0">%</tspan></text></g><g style="clip-path:url(#clip-path-5)"><text transform="translate(49.16 311.35)" style="font-size:10.331520080566406px;font-family:ArialMT, Arial">-<tspan x="3.44" y="0" style="letter-spacing:0.003024724315135511em">0</tspan><tspan x="9.22" y="0" style="letter-spacing:0.001984975331807679em">.</tspan><tspan x="12.11" y="0" style="letter-spacing:-0.008979650310558546em">2</tspan><tspan x="17.76" y="0" style="letter-spacing:-0.00009452263484798472em">5</tspan></text></g><g style="clip-path:url(#clip-path-5)"><text transform="translate(49.16 256.47)" style="font-size:10.331520080566406px;font-family:ArialMT, Arial">-<tspan x="3.44" y="0" style="letter-spacing:0.003024724315135511em">0</tspan><tspan x="9.22" y="0" style="letter-spacing:0.001984975331807679em">.</tspan><tspan x="12.11" y="0" style="letter-spacing:-0.008979650310558546em">0</tspan><tspan x="17.76" y="0" style="letter-spacing:-0.00009452263484798472em">5</tspan></text></g><g style="clip-path:url(#clip-path-5)"><text transform="translate(52.59 201.59)" style="font-size:10.331520080566406px;font-family:ArialMT, Arial;letter-spacing:0.003024724315135511em">0<tspan x="5.78" y="0" style="letter-spacing:0.001984975331807679em">.</tspan><tspan x="8.67" y="0" style="letter-spacing:-0.008979650310558546em">1</tspan><tspan x="14.32" y="0" style="letter-spacing:-0.00009452263484798472em">5</tspan></text></g><g style="clip-path:url(#clip-path-5)"><text transform="translate(52.59 146.73)" style="font-size:10.331520080566406px;font-family:ArialMT, Arial;letter-spacing:0.003024724315135511em">0<tspan x="5.78" y="0" style="letter-spacing:0.001984975331807679em">.</tspan><tspan x="8.67" y="0" style="letter-spacing:-0.008979650310558546em">3</tspan><tspan x="14.32" y="0" style="letter-spacing:-0.00009452263484798472em">5</tspan></text></g><g style="clip-path:url(#clip-path-5)"><text transform="translate(52.59 91.85)" style="font-size:10.331520080566406px;font-family:ArialMT, Arial;letter-spacing:0.003024724315135511em">0<tspan x="5.78" y="0" style="letter-spacing:0.001984975331807679em">.</tspan><tspan x="8.67" y="0" style="letter-spacing:-0.008979650310558546em">5</tspan><tspan x="14.32" y="0" style="letter-spacing:-0.00009452263484798472em">5</tspan></text></g><g style="clip-path:url(#clip-path-5)"><text transform="translate(52.59 36.97)" style="font-size:10.331520080566406px;font-family:ArialMT, Arial;letter-spacing:0.003024724315135511em">0<tspan x="5.78" y="0" style="letter-spacing:0.001984975331807679em">.</tspan><tspan x="8.67" y="0" style="letter-spacing:-0.008979650310558546em">7</tspan><tspan x="14.32" y="0" style="letter-spacing:-0.00009452263484798472em">5</tspan></text></g><g style="clip-path:url(#clip-path-5)"><text transform="translate(153.3 323.65)" style="font-size:10.331520080566406px;font-family:ArialMT, Arial"><tspan style="letter-spacing:-0.001984975331807679em">R</tspan><tspan x="7.44" y="0">-7</tspan></text></g><g style="clip-path:url(#clip-path-5)"><text transform="translate(307.63 323.65)" style="font-size:10.331520080566406px;font-family:ArialMT, Arial"><tspan style="letter-spacing:-0.001984975331807679em">R</tspan><tspan x="7.44" y="0">-</tspan><tspan x="10.88" y="0" style="letter-spacing:0.003024724315135511em">30</tspan><tspan x="22.43" y="0">0</tspan></text></g><g style="clip-path:url(#clip-path-5)"><text transform="translate(467.71 323.65)" style="font-size:10.331520080566406px;font-family:ArialMT, Arial"><tspan style="letter-spacing:-0.001984975331807679em">R</tspan><tspan x="7.44" y="0">-</tspan><tspan x="10.88" y="0" style="letter-spacing:0.003024724315135511em">30</tspan><tspan x="22.43" y="0">1</tspan></text></g><g style="clip-path:url(#clip-path-5)"><text transform="translate(627.78 323.65)" style="font-size:10.331520080566406px;font-family:ArialMT, Arial"><tspan style="letter-spacing:-0.001984975331807679em">R</tspan><tspan x="7.44" y="0">-</tspan><tspan x="10.88" y="0" style="letter-spacing:0.003024724315135511em">30</tspan><tspan x="22.43" y="0">2</tspan></text></g><g style="clip-path:url(#clip-path-5)"><text transform="translate(787.87 323.65)" style="font-size:10.331520080566406px;font-family:ArialMT, Arial"><tspan style="letter-spacing:-0.001984975331807679em">R</tspan><tspan x="7.44" y="0">-</tspan><tspan x="10.88" y="0" style="letter-spacing:0.003024724315135511em">30</tspan><tspan x="22.43" y="0">3</tspan></text></g><g style="clip-path:url(#clip-path-5)"><text transform="translate(29.38 230) rotate(-90)" style="font-size:11.433549880981445px;font-family:Arial-BoldMT, Arial;font-weight:700"><tspan style="letter-spacing:0.004953896697841495em">Q</tspan><tspan x="8.95" y="0" style="letter-spacing:0.002989420421111247em">u</tspan><tspan x="15.97" y="0" style="letter-spacing:-0.000939532132349249em">a</tspan><tspan x="22.32" y="0" style="letter-spacing:0.002989420421111247em">n</tspan><tspan x="29.33" y="0" style="letter-spacing:0.003928952553460496em">t</tspan><tspan x="33.19" y="0">i</tspan><tspan x="36.36" y="0" style="letter-spacing:0.004014364565492246em">t</tspan><tspan x="40.22" y="0" style="letter-spacing:-0.012982625828825986em">y</tspan><tspan x="46.43" y="0" style="letter-spacing:0.011018149552095739em"> </tspan><tspan x="49.73" y="0">&amp; </tspan><tspan x="61.16" y="0" style="letter-spacing:0.007003784986603493em">Y</tspan><tspan x="68.87" y="0" style="letter-spacing:-0.001024944144380999em">a</tspan><tspan x="75.22" y="0">R</tspan><tspan x="83.47" y="0" style="letter-spacing:0.011018149552095739em"> </tspan><tspan x="86.78" y="0" style="letter-spacing:0.004014364565492246em">(</tspan><tspan x="90.63" y="0" style="letter-spacing:0.021950887092159727em">M</tspan><tspan x="100.41" y="0" style="letter-spacing:0.014947102105556234em">T</tspan><tspan x="107.56" y="0">)</tspan></text></g><g style="clip-path:url(#clip-path-5)"><text transform="translate(433.46 341.94)" style="font-size:11.433549880981445px;font-family:Arial-BoldMT, Arial;font-weight:700">R<tspan x="8.26" y="0" style="letter-spacing:-0.000939532132349249em">e</tspan><tspan x="14.6" y="0" style="letter-spacing:0.002989420421111247em">g</tspan><tspan x="21.62" y="0" style="letter-spacing:-0.00008541201203174992em">i</tspan><tspan x="24.8" y="0" style="letter-spacing:0.002989420421111247em">on</tspan><tspan x="38.84" y="0">s</tspan></text></g><polygon points="3.13 3.77 896.87 3.77 896.87 346.37 3.13 346.37 3.13 3.77 3.13 3.77" style="fill:none;stroke:#d9d9d9;stroke-linejoin:round;stroke-width:0.826521410406485px"/></svg>