<svg id="Layer_1" data-name="Layer 1" xmlns="http://www.w3.org/2000/svg" xmlns:xlink="http://www.w3.org/1999/xlink" viewBox="0 0 900 350"><defs><clipPath id="clip-path"><polygon points="3.97 346.46 896.03 346.46 896.03 3.4 3.97 3.4 3.97 346.46 3.97 346.46" style="fill:none;clip-rule:evenodd"/></clipPath><clipPath id="clip-path-2"><polygon points="77.76 301.25 868.66 301.25 868.66 20.84 77.76 20.84 77.76 301.25 77.76 301.25" style="fill:none;clip-rule:evenodd"/></clipPath><clipPath id="clip-path-13"><rect x="3.97" y="3.4" width="892.06" height="343.06" style="fill:none"/></clipPath></defs><title>ground-truth-risk-report</title><polygon points="4.1 3.54 896.03 3.54 896.03 346.6 4.1 346.6 4.1 3.54 4.1 3.54" style="fill:#eaeaea;fill-rule:evenodd"/><polygon points="77.89 20.84 867.99 20.84 867.99 300.44 77.89 300.44 77.89 20.84 77.89 20.84" style="fill:#fff;fill-rule:evenodd"/><path d="M77.89,244.5H868M77.89,188.68H868M77.89,132.74H868M77.89,76.79H868M77.89,20.84H868" style="fill:none;stroke:#d9d9d9;stroke-linejoin:round;stroke-width:0.804991315520844px"/><g style="clip-path:url(#clip-path)"><path d="M77.89,20.84v279.6M341.26,20.84v279.6M604.63,20.84v279.6M868,20.84v279.6" style="fill:none;stroke:#d9d9d9;stroke-linejoin:round;stroke-width:0.804991315520844px"/></g><g style="clip-path:url(#clip-path-2)"><polygon points="158.93 123.35 260.22 123.35 260.22 300.44 158.93 300.44 158.93 123.35 158.93 123.35" style="fill:#5e9fff;fill-rule:evenodd"/><polygon points="158.93 123.35 260.22 123.35 260.22 300.44 158.93 300.44 158.93 123.35 158.93 123.35" style="fill:none;stroke:#7f7f7f;stroke-linejoin:round;stroke-width:0.804991315520844px"/><polygon points="422.3 114.09 523.59 114.09 523.59 300.44 422.3 300.44 422.3 114.09 422.3 114.09" style="fill:#5e9fff;fill-rule:evenodd"/><polygon points="422.3 114.09 523.59 114.09 523.59 300.44 422.3 300.44 422.3 114.09 422.3 114.09" style="fill:none;stroke:#7f7f7f;stroke-linejoin:round;stroke-width:0.804991315520844px"/><polygon points="685.66 100.14 786.96 100.14 786.96 300.44 685.66 300.44 685.66 100.14 685.66 100.14" style="fill:#5e9fff;fill-rule:evenodd"/><polygon points="685.66 100.14 786.96 100.14 786.96 300.44 685.66 300.44 685.66 100.14 685.66 100.14" style="fill:none;stroke:#7f7f7f;stroke-linejoin:round;stroke-width:0.804991315520844px"/></g><g style="clip-path:url(#clip-path)"><line x1="77.89" y1="300.44" x2="867.99" y2="300.44" style="fill:none;stroke:#d9d9d9;stroke-linejoin:round;stroke-width:0.804991315520844px"/></g><g style="clip-path:url(#clip-path)"><path d="M77.89,300.44v3.09m263.37-3.09v3.09m263.37-3.09v3.09M868,300.44v3.09" style="fill:none;stroke:#d9d9d9;stroke-linejoin:round;stroke-width:0.804991315520844px"/></g><g style="clip-path:url(#clip-path-2)"><polyline points="209.51 73.44 472.88 73.44 736.24 73.44" style="fill:none;stroke:#3d699c;stroke-linecap:round;stroke-linejoin:round;stroke-width:1.342px;stroke-dasharray:5,5"/></g><g style="clip-path:url(#clip-path)"><path d="M212.29,73.44a2.82,2.82,0,1,1-2.82-2.82,2.81,2.81,0,0,1,2.82,2.82Z" style="fill:#2935e8"/><path d="M212.29,73.44a2.82,2.82,0,1,1-2.82-2.82,2.81,2.81,0,0,1,2.82,2.82Z" style="fill:none;stroke:#2935e8;stroke-linejoin:round;stroke-width:0.804991382161433px"/><path d="M475.66,73.44a2.82,2.82,0,1,1-2.82-2.82,2.81,2.81,0,0,1,2.82,2.82Z" style="fill:#2935e8"/><path d="M475.66,73.44a2.82,2.82,0,1,1-2.82-2.82,2.81,2.81,0,0,1,2.82,2.82Z" style="fill:none;stroke:#2935e8;stroke-linejoin:round;stroke-width:0.804991382161433px"/><path d="M739,73.44a2.82,2.82,0,1,1-2.81-2.82A2.81,2.81,0,0,1,739,73.44Z" style="fill:#2935e8"/><path d="M739,73.44a2.82,2.82,0,1,1-2.81-2.82A2.81,2.81,0,0,1,739,73.44Z" style="fill:none;stroke:#2935e8;stroke-linejoin:round;stroke-width:0.804991382161433px"/></g><g style="clip-path:url(#clip-path-2)"><polyline points="209.51 139.45 472.88 139.45 736.24 139.45" style="fill:none;stroke:#ff25f3;stroke-linecap:round;stroke-linejoin:round;stroke-width:1.342px;stroke-dasharray:5,5"/></g><g style="clip-path:url(#clip-path)"><path d="M212.29,139.44a2.82,2.82,0,1,1-2.82-2.81,2.82,2.82,0,0,1,2.82,2.81Z" style="fill:#ff25f3"/><path d="M212.29,139.44a2.82,2.82,0,1,1-2.82-2.81,2.82,2.82,0,0,1,2.82,2.81Z" style="fill:none;stroke:#ffd3fd;stroke-linejoin:round;stroke-width:0.804991382161433px"/><path d="M475.66,139.44a2.82,2.82,0,1,1-2.82-2.81,2.82,2.82,0,0,1,2.82,2.81Z" style="fill:#ff25f3"/><path d="M475.66,139.44a2.82,2.82,0,1,1-2.82-2.81,2.82,2.82,0,0,1,2.82,2.81Z" style="fill:none;stroke:#ffd3fd;stroke-linejoin:round;stroke-width:0.804991382161433px"/><path d="M739,139.44a2.82,2.82,0,1,1-2.81-2.81,2.81,2.81,0,0,1,2.81,2.81Z" style="fill:#ff25f3"/><path d="M739,139.44a2.82,2.82,0,1,1-2.81-2.81,2.81,2.81,0,0,1,2.81,2.81Z" style="fill:none;stroke:#ffd3fd;stroke-linejoin:round;stroke-width:0.804991382161433px"/></g><g style="clip-path:url(#clip-path-2)"><polyline points="209.51 95.44 472.88 95.44 736.24 95.44" style="fill:none;stroke:#7f7f7f;stroke-linecap:round;stroke-linejoin:round;stroke-width:1.34165217032121px"/></g><g style="clip-path:url(#clip-path)"><path d="M212.29,95.44a2.82,2.82,0,1,1-2.82-2.82,2.82,2.82,0,0,1,2.82,2.82Z" style="fill:#7f7f7f"/><path d="M212.29,95.44a2.82,2.82,0,1,1-2.82-2.82,2.82,2.82,0,0,1,2.82,2.82Z" style="fill:none;stroke:#7f7f7f;stroke-linejoin:round;stroke-width:0.804991382161433px"/><path d="M475.66,95.44a2.82,2.82,0,1,1-2.82-2.82,2.82,2.82,0,0,1,2.82,2.82Z" style="fill:#7f7f7f"/><path d="M475.66,95.44a2.82,2.82,0,1,1-2.82-2.82,2.82,2.82,0,0,1,2.82,2.82Z" style="fill:none;stroke:#7f7f7f;stroke-linejoin:round;stroke-width:0.804991382161433px"/><path d="M739,95.44a2.82,2.82,0,1,1-2.81-2.82A2.82,2.82,0,0,1,739,95.44Z" style="fill:#7f7f7f"/><path d="M739,95.44a2.82,2.82,0,1,1-2.81-2.82A2.82,2.82,0,0,1,739,95.44Z" style="fill:none;stroke:#7f7f7f;stroke-linejoin:round;stroke-width:0.804991382161433px"/></g><g style="clip-path:url(#clip-path-2)"><polyline points="209.51 123.35 472.88 123.35 736.24 123.35" style="fill:none;stroke:#00c1a3;stroke-linecap:round;stroke-linejoin:round;stroke-width:1.34165217032121px"/></g><g style="clip-path:url(#clip-path)"><path d="M212.29,123.34a2.82,2.82,0,1,1-2.82-2.81,2.82,2.82,0,0,1,2.82,2.81Z" style="fill:#00c1a3"/><path d="M212.29,123.34a2.82,2.82,0,1,1-2.82-2.81,2.82,2.82,0,0,1,2.82,2.81Z" style="fill:none;stroke:#c0fff5;stroke-linejoin:round;stroke-width:0.804991382161433px"/><path d="M475.66,123.34a2.82,2.82,0,1,1-2.82-2.81,2.82,2.82,0,0,1,2.82,2.81Z" style="fill:#00c1a3"/><path d="M475.66,123.34a2.82,2.82,0,1,1-2.82-2.81,2.82,2.82,0,0,1,2.82,2.81Z" style="fill:none;stroke:#c0fff5;stroke-linejoin:round;stroke-width:0.804991382161433px"/><path d="M739,123.34a2.82,2.82,0,1,1-2.81-2.81,2.81,2.81,0,0,1,2.81,2.81Z" style="fill:#00c1a3"/><path d="M739,123.34a2.82,2.82,0,1,1-2.81-2.81,2.81,2.81,0,0,1,2.81,2.81Z" style="fill:none;stroke:#c0fff5;stroke-linejoin:round;stroke-width:0.804991382161433px"/></g><g style="clip-path:url(#clip-path-13)"><text transform="translate(49.65 303.68)" style="font-size:10.062390327453613px;font-family:ArialMT, Arial;letter-spacing:0.0029115224163058146em">0<tspan x="5.63" y="0" style="letter-spacing:0.00203806569141407em">.</tspan><tspan x="8.44" y="0" style="letter-spacing:-0.009025719490548026em">0</tspan><tspan x="13.95" y="0" style="letter-spacing:-0.00009705074721019381em">0</tspan></text></g><g style="clip-path:url(#clip-path-13)"><text transform="translate(49.65 247.76)" style="font-size:10.062390327453613px;font-family:ArialMT, Arial;letter-spacing:0.0029115224163058146em">3<tspan x="5.63" y="0" style="letter-spacing:0.00203806569141407em">.</tspan><tspan x="8.44" y="0" style="letter-spacing:-0.009025719490548026em">0</tspan><tspan x="13.95" y="0" style="letter-spacing:-0.00009705074721019381em">0</tspan></text></g><g style="clip-path:url(#clip-path-13)"><text transform="translate(49.65 191.84)" style="font-size:10.062390327453613px;font-family:ArialMT, Arial;letter-spacing:0.0029115224163058146em">6<tspan x="5.63" y="0" style="letter-spacing:0.00203806569141407em">.</tspan><tspan x="8.44" y="0" style="letter-spacing:-0.009025719490548026em">0</tspan><tspan x="13.95" y="0" style="letter-spacing:-0.00009705074721019381em">0</tspan></text></g><g style="clip-path:url(#clip-path-13)"><text transform="translate(49.65 135.91)" style="font-size:10.062390327453613px;font-family:ArialMT, Arial;letter-spacing:0.0029115224163058146em">9<tspan x="5.63" y="0" style="letter-spacing:0.00203806569141407em">.</tspan><tspan x="8.44" y="0" style="letter-spacing:-0.009025719490548026em">0</tspan><tspan x="13.95" y="0" style="letter-spacing:-0.00009705074721019381em">0</tspan></text></g><g style="clip-path:url(#clip-path-13)"><text transform="translate(44.05 80)" style="font-size:10.062390327453613px;font-family:ArialMT, Arial"><tspan style="letter-spacing:0.0029115224163058146em">1</tspan><tspan x="5.63" y="0" style="letter-spacing:-0.009025719490548026em">2</tspan><tspan x="11.13" y="0" style="letter-spacing:0.00203806569141407em">.</tspan><tspan x="13.95" y="0" style="letter-spacing:0.0029115224163058146em">0</tspan><tspan x="19.57" y="0">0</tspan></text></g><g style="clip-path:url(#clip-path-13)"><text transform="translate(44.05 24.07)" style="font-size:10.062390327453613px;font-family:ArialMT, Arial"><tspan style="letter-spacing:0.0029115224163058146em">1</tspan><tspan x="5.63" y="0" style="letter-spacing:-0.009025719490548026em">5</tspan><tspan x="11.13" y="0" style="letter-spacing:0.00203806569141407em">.</tspan><tspan x="13.95" y="0" style="letter-spacing:0.0029115224163058146em">0</tspan><tspan x="19.57" y="0">0</tspan></text></g><g style="clip-path:url(#clip-path-13)"><text transform="translate(197.82 315.67)" style="font-size:10.062390327453613px;font-family:ArialMT, Arial">Nov</text></g><g style="clip-path:url(#clip-path-13)"><text transform="translate(463.17 315.67)" style="font-size:10.062390327453613px;font-family:ArialMT, Arial">Dec</text></g><g style="clip-path:url(#clip-path-13)"><text transform="translate(728.52 315.67)" style="font-size:10.062390327453613px;font-family:ArialMT, Arial">Jan</text></g><g style="clip-path:url(#clip-path-13)"><text transform="translate(28.26 204.28) rotate(-90)" style="font-size:11.135709762573242px;font-family:Arial-BoldMT, Arial;font-weight:700"><tspan style="letter-spacing:0.004998699111850517em">Q</tspan><tspan x="8.72" y="0" style="letter-spacing:0.00298168017198101em">u</tspan><tspan x="15.55" y="0" style="letter-spacing:-0.0009646612321115033em">a</tspan><tspan x="21.74" y="0" style="letter-spacing:0.00298168017198101em">n</tspan><tspan x="28.57" y="0" style="letter-spacing:0.004034037879739014em">t</tspan><tspan x="32.32" y="0">i</tspan><tspan x="35.42" y="0" style="letter-spacing:0.004034037879739014em">t</tspan><tspan x="39.17" y="0" style="letter-spacing:-0.012979078395682044em">y</tspan><tspan x="45.22" y="0" style="letter-spacing:0.010962059455812538em"> </tspan><tspan x="48.43" y="0" style="letter-spacing:0.004034037879739014em">(</tspan><tspan x="52.19" y="0" style="letter-spacing:0.022011815387271576em">M</tspan><tspan x="61.71" y="0" style="letter-spacing:0.014996097335551552em">T</tspan><tspan x="68.68" y="0">)</tspan></text></g><g style="clip-path:url(#clip-path-13)"><text transform="translate(414.52 336.59)" style="font-size:11.135709762573242px;font-family:Arial-BoldMT, Arial;font-weight:700"><tspan style="letter-spacing:0.014996097335551552em">T</tspan><tspan x="6.97" y="0" style="letter-spacing:0.0000876964756465003em">i</tspan><tspan x="10.06" y="0" style="letter-spacing:0.0019293224642230066em">m</tspan><tspan x="19.99" y="0" style="letter-spacing:-0.0009646612321115033em">e</tspan><tspan x="26.17" y="0"> </tspan><tspan x="29.26" y="0" style="letter-spacing:-0.004034037879739014em">P</tspan><tspan x="36.65" y="0" style="letter-spacing:-0.0010523577077580035em">e</tspan><tspan x="42.83" y="0" style="letter-spacing:-0.00298168017198101em">r</tspan><tspan x="47.13" y="0">i</tspan><tspan x="50.22" y="0" style="letter-spacing:0.00298168017198101em">o</tspan><tspan x="57.06" y="0" style="letter-spacing:0.0000876964756465003em">d</tspan></text></g><polygon points="4.1 3.54 896.03 3.54 896.03 346.6 4.1 346.6 4.1 3.54 4.1 3.54" style="fill:none;stroke:#d9d9d9;stroke-linejoin:round;stroke-width:0.804991382161433px"/></svg>