<svg id="Layer_1" data-name="Layer 1" xmlns="http://www.w3.org/2000/svg" xmlns:xlink="http://www.w3.org/1999/xlink" viewBox="0 0 900 350"><defs><clipPath id="clip-path"><polygon points="2.42 348.8 897.44 348.8 897.44 1.2 2.42 1.2 2.42 348.8 2.42 348.8" style="fill:none;clip-rule:evenodd"/></clipPath><clipPath id="clip-path-6"><polygon points="63.22 289.75 886.44 289.75 886.44 16.1 63.22 16.1 63.22 289.75 63.22 289.75" style="fill:none;clip-rule:evenodd"/></clipPath><clipPath id="clip-path-7"><polygon points="2.42 348.8 897.44 348.8 897.44 1.2 2.42 1.2 2.42 348.8 2.42 348.8" style="fill:none;clip-rule:evenodd"/></clipPath><clipPath id="clip-path-10"><rect x="2.42" y="1.2" width="895.02" height="347.59" style="fill:none"/></clipPath></defs><title>ndvi-risk-report</title><polygon points="2.56 1.2 897.58 1.2 897.58 348.8 2.56 348.8 2.56 1.2 2.56 1.2" style="fill:#eaeaea;fill-rule:evenodd"/><polygon points="63.35 16.1 885.63 16.1 885.63 288.94 63.35 288.94 63.35 16.1 63.35 16.1" style="fill:#fff;fill-rule:evenodd"/><path d="M63.35,220.76H885.63M63.35,152.59H885.63M63.35,84.28H885.63M63.35,16.1H885.63" style="fill:none;stroke:#d9d9d9;stroke-linejoin:round;stroke-width:0.805233701374668px"/><g style="clip-path:url(#clip-path)"><path d="M97.58,16.1V288.94M166.16,16.1V288.94M234.6,16.1V288.94M303.18,16.1V288.94M371.62,16.1V288.94M440.2,16.1V288.94M508.78,16.1V288.94M577.23,16.1V288.94M645.81,16.1V288.94M714.25,16.1V288.94M782.83,16.1V288.94M851.41,16.1V288.94" style="fill:none;stroke:#f2f2f2;stroke-linejoin:round;stroke-width:0.805233701374668px"/></g><g style="clip-path:url(#clip-path)"><path d="M63.35,16.1V288.94M131.8,16.1V288.94M200.38,16.1V288.94M269,16.1V288.94M337.4,16.1V288.94M406,16.1V288.94M474.43,16.1V288.94M543,16.1V288.94M611.58,16.1V288.94M680,16.1V288.94M748.61,16.1V288.94M817.05,16.1V288.94M885.63,16.1V288.94" style="fill:none;stroke:#d9d9d9;stroke-linejoin:round;stroke-width:0.805233701374668px"/></g><g style="clip-path:url(#clip-path)"><line x1="63.35" y1="288.94" x2="885.63" y2="288.94" style="fill:none;stroke:#d9d9d9;stroke-linejoin:round;stroke-width:1.34205614673756px"/></g><g style="clip-path:url(#clip-path)"><path d="M63.35,288.94v18.12m274-18.12v18.12m274.18-18.12v18.12m274-18.12v18.12" style="fill:none;stroke:#d9d9d9;stroke-linejoin:round;stroke-width:1.34205614673756px"/></g><g style="clip-path:url(#clip-path)"><path d="M63.35,307.06v18.12m274-18.12v18.12m274.18-18.12v18.12m274-18.12v18.12" style="fill:none;stroke:#d9d9d9;stroke-linejoin:round;stroke-width:1.34205614673756px"/></g><g style="clip-path:url(#clip-path-6)"><polyline points="97.58 201.57 166.16 166.14 234.6 138.9 303.18 119.84 371.62 100.65 440.2 76.09 508.78 70.72 577.23 92.46 645.81 117.02 714.25 147.09 782.83 168.96 851.41 193.39" style="fill:none;stroke:#ff25f3;stroke-linecap:round;stroke-linejoin:round;stroke-width:2.41570103746335px"/></g><g style="clip-path:url(#clip-path-7)"><polygon points="94.75 198.76 100.38 198.76 100.38 204.4 94.75 204.4 94.75 198.76 94.75 198.76" style="fill:#ff25f3;fill-rule:evenodd"/><polygon points="94.75 198.76 100.38 198.76 100.38 204.4 94.75 204.4 94.75 198.76 94.75 198.76" style="fill:none;stroke:#ffd3fd;stroke-linejoin:round;stroke-width:0.805233768035322px"/><polygon points="163.33 163.33 168.96 163.33 168.96 168.97 163.33 168.97 163.33 163.33 163.33 163.33" style="fill:#ff25f3;fill-rule:evenodd"/><polygon points="163.33 163.33 168.96 163.33 168.96 168.97 163.33 168.97 163.33 163.33 163.33 163.33" style="fill:none;stroke:#ffd3fd;stroke-linejoin:round;stroke-width:0.805233768035322px"/><polygon points="231.77 136.08 237.41 136.08 237.41 141.72 231.77 141.72 231.77 136.08 231.77 136.08" style="fill:#ff25f3;fill-rule:evenodd"/><polygon points="231.77 136.08 237.41 136.08 237.41 141.72 231.77 141.72 231.77 136.08 231.77 136.08" style="fill:none;stroke:#ffd3fd;stroke-linejoin:round;stroke-width:0.805233768035322px"/><polygon points="300.35 117.03 305.99 117.03 305.99 122.66 300.35 122.66 300.35 117.03 300.35 117.03" style="fill:#ff25f3;fill-rule:evenodd"/><polygon points="300.35 117.03 305.99 117.03 305.99 122.66 300.35 122.66 300.35 117.03 300.35 117.03" style="fill:none;stroke:#ffd3fd;stroke-linejoin:round;stroke-width:0.805233768035322px"/><polygon points="368.8 97.84 374.43 97.84 374.43 103.47 368.8 103.47 368.8 97.84 368.8 97.84" style="fill:#ff25f3;fill-rule:evenodd"/><polygon points="368.8 97.84 374.43 97.84 374.43 103.47 368.8 103.47 368.8 97.84 368.8 97.84" style="fill:none;stroke:#ffd3fd;stroke-linejoin:round;stroke-width:0.805233768035322px"/><polygon points="437.38 73.28 443.01 73.28 443.01 78.91 437.38 78.91 437.38 73.28 437.38 73.28" style="fill:#ff25f3;fill-rule:evenodd"/><polygon points="437.38 73.28 443.01 73.28 443.01 78.91 437.38 78.91 437.38 73.28 437.38 73.28" style="fill:none;stroke:#ffd3fd;stroke-linejoin:round;stroke-width:0.805233768035322px"/><polygon points="505.95 67.91 511.59 67.91 511.59 73.54 505.95 73.54 505.95 67.91 505.95 67.91" style="fill:#ff25f3;fill-rule:evenodd"/><polygon points="505.95 67.91 511.59 67.91 511.59 73.54 505.95 73.54 505.95 67.91 505.95 67.91" style="fill:none;stroke:#ffd3fd;stroke-linejoin:round;stroke-width:0.805233768035322px"/><polygon points="574.4 89.65 580.03 89.65 580.03 95.29 574.4 95.29 574.4 89.65 574.4 89.65" style="fill:#ff25f3;fill-rule:evenodd"/><polygon points="574.4 89.65 580.03 89.65 580.03 95.29 574.4 95.29 574.4 89.65 574.4 89.65" style="fill:none;stroke:#ffd3fd;stroke-linejoin:round;stroke-width:0.805233768035322px"/><polygon points="642.98 114.21 648.61 114.21 648.61 119.85 642.98 119.85 642.98 114.21 642.98 114.21" style="fill:#ff25f3;fill-rule:evenodd"/><polygon points="642.98 114.21 648.61 114.21 648.61 119.85 642.98 119.85 642.98 114.21 642.98 114.21" style="fill:none;stroke:#ffd3fd;stroke-linejoin:round;stroke-width:0.805233768035322px"/><polygon points="711.42 144.27 717.06 144.27 717.06 149.91 711.42 149.91 711.42 144.27 711.42 144.27" style="fill:#ff25f3;fill-rule:evenodd"/><polygon points="711.42 144.27 717.06 144.27 717.06 149.91 711.42 149.91 711.42 144.27 711.42 144.27" style="fill:none;stroke:#ffd3fd;stroke-linejoin:round;stroke-width:0.805233768035322px"/><polygon points="780 166.15 785.64 166.15 785.64 171.78 780 171.78 780 166.15 780 166.15" style="fill:#ff25f3;fill-rule:evenodd"/><polygon points="780 166.15 785.64 166.15 785.64 171.78 780 171.78 780 166.15 780 166.15" style="fill:none;stroke:#ffd3fd;stroke-linejoin:round;stroke-width:0.805233768035322px"/><polygon points="848.58 190.57 854.22 190.57 854.22 196.21 848.58 196.21 848.58 190.57 848.58 190.57" style="fill:#ff25f3;fill-rule:evenodd"/><polygon points="848.58 190.57 854.22 190.57 854.22 196.21 848.58 196.21 848.58 190.57 848.58 190.57" style="fill:none;stroke:#ffd3fd;stroke-linejoin:round;stroke-width:0.805233768035322px"/></g><g style="clip-path:url(#clip-path-6)"><polyline points="97.58 215.26 166.16 179.83 234.6 152.59 303.18 133.4 371.62 114.34 440.2 89.78 508.78 84.28 577.23 106.15 645.81 130.71 714.25 160.77 782.83 182.51 851.41 207.07" style="fill:none;stroke:#06f;stroke-linecap:round;stroke-linejoin:round;stroke-width:2.41570103746335px"/></g><g style="clip-path:url(#clip-path-7)"><path d="M100.38,215.27a2.82,2.82,0,1,1-2.81-2.82,2.81,2.81,0,0,1,2.81,2.82Z" style="fill:#06f"/><path d="M100.38,215.27a2.82,2.82,0,1,1-2.81-2.82,2.81,2.81,0,0,1,2.81,2.82Z" style="fill:none;stroke:#6b77e8;stroke-linejoin:round;stroke-width:0.805233768035322px"/><path d="M169,179.84a2.82,2.82,0,1,1-2.81-2.82,2.81,2.81,0,0,1,2.81,2.82Z" style="fill:#06f"/><path d="M169,179.84a2.82,2.82,0,1,1-2.81-2.82,2.81,2.81,0,0,1,2.81,2.82Z" style="fill:none;stroke:#6b77e8;stroke-linejoin:round;stroke-width:0.805233768035322px"/><path d="M237.41,152.59a2.82,2.82,0,1,1-2.82-2.82,2.82,2.82,0,0,1,2.82,2.82Z" style="fill:#06f"/><path d="M237.41,152.59a2.82,2.82,0,1,1-2.82-2.82,2.82,2.82,0,0,1,2.82,2.82Z" style="fill:none;stroke:#6b77e8;stroke-linejoin:round;stroke-width:0.805233768035322px"/><path d="M306,133.4a2.82,2.82,0,1,1-2.82-2.82A2.82,2.82,0,0,1,306,133.4Z" style="fill:#06f"/><path d="M306,133.4a2.82,2.82,0,1,1-2.82-2.82A2.82,2.82,0,0,1,306,133.4Z" style="fill:none;stroke:#6b77e8;stroke-linejoin:round;stroke-width:0.805233768035322px"/><path d="M374.43,114.34a2.82,2.82,0,1,1-2.82-2.82,2.82,2.82,0,0,1,2.82,2.82Z" style="fill:#06f"/><path d="M374.43,114.34a2.82,2.82,0,1,1-2.82-2.82,2.82,2.82,0,0,1,2.82,2.82Z" style="fill:none;stroke:#6b77e8;stroke-linejoin:round;stroke-width:0.805233768035322px"/><path d="M443,89.78A2.82,2.82,0,1,1,440.19,87,2.82,2.82,0,0,1,443,89.78Z" style="fill:#06f"/><path d="M443,89.78A2.82,2.82,0,1,1,440.19,87,2.82,2.82,0,0,1,443,89.78Z" style="fill:none;stroke:#6b77e8;stroke-linejoin:round;stroke-width:0.805233768035322px"/><path d="M511.59,84.28a2.82,2.82,0,1,1-2.82-2.82,2.82,2.82,0,0,1,2.82,2.82Z" style="fill:#06f"/><path d="M511.59,84.28a2.82,2.82,0,1,1-2.82-2.82,2.82,2.82,0,0,1,2.82,2.82Z" style="fill:none;stroke:#6b77e8;stroke-linejoin:round;stroke-width:0.805233768035322px"/><path d="M580,106.16a2.82,2.82,0,1,1-2.82-2.82,2.82,2.82,0,0,1,2.82,2.82Z" style="fill:#06f"/><path d="M580,106.16a2.82,2.82,0,1,1-2.82-2.82,2.82,2.82,0,0,1,2.82,2.82Z" style="fill:none;stroke:#6b77e8;stroke-linejoin:round;stroke-width:0.805233768035322px"/><path d="M648.61,130.72a2.82,2.82,0,1,1-2.81-2.82,2.81,2.81,0,0,1,2.81,2.82Z" style="fill:#06f"/><path d="M648.61,130.72a2.82,2.82,0,1,1-2.81-2.82,2.81,2.81,0,0,1,2.81,2.82Z" style="fill:none;stroke:#6b77e8;stroke-linejoin:round;stroke-width:0.805233768035322px"/><path d="M717.06,160.78a2.82,2.82,0,1,1-2.82-2.82,2.82,2.82,0,0,1,2.82,2.82Z" style="fill:#06f"/><path d="M717.06,160.78a2.82,2.82,0,1,1-2.82-2.82,2.82,2.82,0,0,1,2.82,2.82Z" style="fill:none;stroke:#6b77e8;stroke-linejoin:round;stroke-width:0.805233768035322px"/><path d="M785.64,182.52a2.82,2.82,0,1,1-2.82-2.82,2.82,2.82,0,0,1,2.82,2.82Z" style="fill:#06f"/><path d="M785.64,182.52a2.82,2.82,0,1,1-2.82-2.82,2.82,2.82,0,0,1,2.82,2.82Z" style="fill:none;stroke:#6b77e8;stroke-linejoin:round;stroke-width:0.805233768035322px"/><path d="M854.22,207.08a2.82,2.82,0,1,1-2.82-2.82,2.82,2.82,0,0,1,2.82,2.82Z" style="fill:#06f"/><path d="M854.22,207.08a2.82,2.82,0,1,1-2.82-2.82,2.82,2.82,0,0,1,2.82,2.82Z" style="fill:none;stroke:#6b77e8;stroke-linejoin:round;stroke-width:0.805233768035322px"/></g><g style="clip-path:url(#clip-path-10)"><text transform="translate(35.07 292.15)" style="font-size:10.065420150756836px;font-family:ArialMT, Arial"><tspan style="letter-spacing:0.003007667543587208em">0</tspan><tspan x="5.63" y="0" style="letter-spacing:0.0019404306732820698em">.</tspan><tspan x="8.44" y="0" style="letter-spacing:-0.00892598109709752em">0</tspan><tspan x="13.95" y="0">0</tspan></text></g><g style="clip-path:url(#clip-path-10)"><text transform="translate(35.07 223.94)" style="font-size:10.065420150756836px;font-family:ArialMT, Arial"><tspan style="letter-spacing:0.003007667543587208em">0</tspan><tspan x="5.63" y="0" style="letter-spacing:0.0019404306732820698em">.</tspan><tspan x="8.44" y="0" style="letter-spacing:-0.00892598109709752em">2</tspan><tspan x="13.95" y="0">5</tspan></text></g><g style="clip-path:url(#clip-path-10)"><text transform="translate(35.07 155.73)" style="font-size:10.065420150756836px;font-family:ArialMT, Arial"><tspan style="letter-spacing:0.003007667543587208em">0</tspan><tspan x="5.63" y="0" style="letter-spacing:0.0019404306732820698em">.</tspan><tspan x="8.44" y="0" style="letter-spacing:-0.00892598109709752em">5</tspan><tspan x="13.95" y="0">0</tspan></text></g><g style="clip-path:url(#clip-path-10)"><text transform="translate(35.07 87.53)" style="font-size:10.065420150756836px;font-family:ArialMT, Arial"><tspan style="letter-spacing:0.003007667543587208em">0</tspan><tspan x="5.63" y="0" style="letter-spacing:0.0019404306732820698em">.</tspan><tspan x="8.44" y="0" style="letter-spacing:-0.00892598109709752em">7</tspan><tspan x="13.95" y="0">5</tspan></text></g><g style="clip-path:url(#clip-path-10)"><text transform="translate(35.07 19.32)" style="font-size:10.065420150756836px;font-family:ArialMT, Arial"><tspan style="letter-spacing:0.003007667543587208em">1</tspan><tspan x="5.63" y="0" style="letter-spacing:0.0019404306732820698em">.</tspan><tspan x="8.44" y="0" style="letter-spacing:-0.00892598109709752em">0</tspan><tspan x="13.95" y="0">0</tspan></text></g><g style="clip-path:url(#clip-path-10)"><text transform="translate(94.77 304.13)" style="font-size:10.065420150756836px;font-family:ArialMT, Arial">1</text></g><g style="clip-path:url(#clip-path-10)"><text transform="translate(163.3 304.13)" style="font-size:10.065420150756836px;font-family:ArialMT, Arial">2</text></g><g style="clip-path:url(#clip-path-10)"><text transform="translate(231.83 304.13)" style="font-size:10.065420150756836px;font-family:ArialMT, Arial">3</text></g><g style="clip-path:url(#clip-path-10)"><text transform="translate(300.35 304.13)" style="font-size:10.065420150756836px;font-family:ArialMT, Arial">4</text></g><g style="clip-path:url(#clip-path-10)"><text transform="translate(368.88 304.13)" style="font-size:10.065420150756836px;font-family:ArialMT, Arial">1</text></g><g style="clip-path:url(#clip-path-10)"><text transform="translate(437.4 304.13)" style="font-size:10.065420150756836px;font-family:ArialMT, Arial">2</text></g><g style="clip-path:url(#clip-path-10)"><text transform="translate(505.93 304.13)" style="font-size:10.065420150756836px;font-family:ArialMT, Arial">3</text></g><g style="clip-path:url(#clip-path-10)"><text transform="translate(574.46 304.13)" style="font-size:10.065420150756836px;font-family:ArialMT, Arial">4</text></g><g style="clip-path:url(#clip-path-10)"><text transform="translate(642.98 304.13)" style="font-size:10.065420150756836px;font-family:ArialMT, Arial">1</text></g><g style="clip-path:url(#clip-path-10)"><text transform="translate(711.51 304.13)" style="font-size:10.065420150756836px;font-family:ArialMT, Arial">2</text></g><g style="clip-path:url(#clip-path-10)"><text transform="translate(780.04 304.13)" style="font-size:10.065420150756836px;font-family:ArialMT, Arial">3</text></g><g style="clip-path:url(#clip-path-10)"><text transform="translate(848.56 304.13)" style="font-size:10.065420150756836px;font-family:ArialMT, Arial">4</text></g><g style="clip-path:url(#clip-path-10)"><text transform="translate(191.41 322.28)" style="font-size:10.065420150756836px;font-family:ArialMT, Arial"><tspan style="letter-spacing:-0.0019404306732820698em">N</tspan><tspan x="7.25" y="0" style="letter-spacing:0.003007667543587208em">o</tspan><tspan x="12.88" y="0">v</tspan></text></g><g style="clip-path:url(#clip-path-10)"><text transform="translate(465.51 322.28)" style="font-size:10.065420150756836px;font-family:ArialMT, Arial"><tspan style="letter-spacing:-0.0019404306732820698em">D</tspan><tspan x="7.25" y="0" style="letter-spacing:0.003007667543587208em">e</tspan><tspan x="12.88" y="0">c</tspan></text></g><g style="clip-path:url(#clip-path-10)"><text transform="translate(740.46 322.28)" style="font-size:10.065420150756836px;font-family:ArialMT, Arial"><tspan style="letter-spacing:0.006015335087174416em">J</tspan><tspan x="5.09" y="0" style="letter-spacing:-0.00892598109709752em">a</tspan><tspan x="10.6" y="0">n</tspan></text></g><g style="clip-path:url(#clip-path-10)"><text transform="translate(20.95 201.46) rotate(-90)" style="font-size:11.139069557189941px;font-family:Arial-BoldMT, Arial;font-weight:700">ND<tspan x="16.09" y="0" style="letter-spacing:-0.004032821122928015em">V</tspan><tspan x="23.47" y="0">I</tspan><tspan x="26.57" y="0" style="letter-spacing:0.011046423075846301em"> </tspan><tspan x="29.79" y="0"> </tspan><tspan x="32.88" y="0" style="letter-spacing:-0.004032821122928015em">V</tspan><tspan x="40.27" y="0" style="letter-spacing:-0.0010520402929377428em">a</tspan><tspan x="46.45" y="0">l</tspan><tspan x="49.54" y="0" style="letter-spacing:0.00306845085440175em">u</tspan><tspan x="56.38" y="0">e</tspan></text></g><g style="clip-path:url(#clip-path-10)"><text transform="translate(434.13 338.97)" style="font-size:11.139069557189941px;font-family:Arial-BoldMT, Arial;font-weight:700"><tspan style="letter-spacing:0.007013601952918286em">W</tspan><tspan x="10.59" y="0" style="letter-spacing:-0.0010520402929377428em">ee</tspan><tspan x="22.96" y="0">k</tspan></text></g><polygon points="2.56 1.2 897.58 1.2 897.58 348.8 2.56 348.8 2.56 1.2 2.56 1.2" style="fill:none;stroke:#d9d9d9;stroke-linejoin:round;stroke-width:0.805233768035322px"/></svg>