<svg id="Layer_1" data-name="Layer 1" xmlns="http://www.w3.org/2000/svg" xmlns:xlink="http://www.w3.org/1999/xlink" viewBox="0 0 900 350"><defs><clipPath id="clip-path"><polygon points="2.73 347.5 897.14 347.5 897.14 2.5 2.73 2.5 2.73 347.5 2.73 347.5" style="fill:none;clip-rule:evenodd"/></clipPath><clipPath id="clip-path-3"><polygon points="77.87 299.09 820.13 299.09 820.13 36.28 77.87 36.28 77.87 299.09 77.87 299.09" style="fill:none;clip-rule:evenodd"/></clipPath><clipPath id="clip-path-8"><rect x="2.73" y="2.5" width="894.4" height="344.99" style="fill:none"/></clipPath></defs><title>price-volatility</title><polygon points="2.86 2.64 897.27 2.64 897.27 347.5 2.86 347.5 2.86 2.64 2.86 2.64" style="fill:#f2f2f2;fill-rule:evenodd"/><polygon points="77.87 36.42 819.33 36.42 819.33 298.29 77.87 298.29 77.87 36.42 77.87 36.42" style="fill:#fff;fill-rule:evenodd"/><path d="M77.87,36.42V298.29m31-261.87V298.29M139.72,36.42V298.29M170.57,36.42V298.29M201.43,36.42V298.29m31-261.87V298.29M263.27,36.42V298.29M294.13,36.42V298.29m31-261.87V298.29M356,36.42V298.29M386.83,36.42V298.29M417.68,36.42V298.29m31-261.87V298.29M479.53,36.42V298.29M510.38,36.42V298.29M541.24,36.42V298.29m31-261.87V298.29M603.08,36.42V298.29M633.93,36.42V298.29M664.79,36.42V298.29m31-261.87V298.29M726.63,36.42V298.29M757.49,36.42V298.29m31-261.87V298.29M819.33,36.42V298.29" style="fill:none;stroke:#bcbcbc;stroke-linecap:round;stroke-linejoin:round;stroke-width:0.531987922221692px"/><g style="clip-path:url(#clip-path)"><path d="M77.87,237.11H819.33M77.87,176.06H819.33M77.87,114.89H819.33m-741.46-61H819.33" style="fill:none;stroke:#d9d9d9;stroke-linejoin:round;stroke-width:0.531987922221692px"/></g><g style="clip-path:url(#clip-path)"><polygon points="77.87 36.42 819.33 36.42 819.33 298.29 77.87 298.29 77.87 36.42 77.87 36.42" style="fill:none;stroke:#fff;stroke-linejoin:round;stroke-width:0.797981866817459px"/></g><g style="clip-path:url(#clip-path-3)"><path d="M96.49,294.3h24.74v4H96.49v-4Zm61.71,3.32h24.74v.67H158.2v-.67Zm61.85.54h24.74v.13H220.05v-.13Zm61.71-17H306.5v17.16H281.76V281.13Zm61.84-1.73h24.74v18.89H343.6V279.4Zm61.71-18.08h24.74v37H405.31v-37ZM467.16,190h24.73V298.29H467.16V190ZM529,195.88h24.6V298.29H529V195.88ZM590.71,198h24.74V298.29H590.71V198Zm61.84,43.09h24.61v57.19H652.55V241.1ZM714.26,240H739v58.25H714.26V240Zm61.85-103.48h24.6V298.29h-24.6V136.56Z" style="fill:#2935e8"/></g><g style="clip-path:url(#clip-path)"><line x1="77.87" y1="298.29" x2="77.87" y2="36.42" style="fill:none;stroke:#898989;stroke-linejoin:round;stroke-width:0.531987922221692px"/></g><g style="clip-path:url(#clip-path)"><path d="M75,298.29h2.92M75,239.37h2.92M75,180.45h2.92M75,121.54h2.92M75,62.48h2.92" style="fill:none;stroke:#898989;stroke-linejoin:round;stroke-width:0.531987922221692px"/></g><g style="clip-path:url(#clip-path)"><line x1="77.87" y1="298.29" x2="819.33" y2="298.29" style="fill:none;stroke:#898989;stroke-linejoin:round;stroke-width:0.531987922221692px"/></g><g style="clip-path:url(#clip-path-3)"><polyline points="108.86 119.14 170.57 132.31 232.42 130.31 294.13 101.72 355.97 111.56 417.68 117.94 479.52 117.28 541.24 114.75 603.08 120.74 664.79 128.85 726.63 120.87 788.48 126.19" style="fill:none;stroke:#2935e8;stroke-linecap:round;stroke-linejoin:round;stroke-width:1.59596373363492px"/></g><g style="clip-path:url(#clip-path-8)"><text transform="translate(58.26 301.45)" style="font-size:9.974769592285156px;font-family:ArialMT, Arial"><tspan style="letter-spacing:0.0019580652785309615em"> </tspan><tspan x="2.79" y="0">0</tspan></text></g><g style="clip-path:url(#clip-path-8)"><text transform="translate(33.3 242.52)" style="font-size:9.974769592285156px;font-family:ArialMT, Arial"><tspan style="letter-spacing:0.0019580652785309615em"> </tspan><tspan x="2.79" y="0" style="letter-spacing:0.0030350011817229902em">1</tspan><tspan x="8.37" y="0" style="letter-spacing:-0.009105003545168971em">8</tspan><tspan x="13.83" y="0" style="letter-spacing:0.0019580652785309615em">,</tspan><tspan x="16.62" y="0" style="letter-spacing:0.0030350011817229902em">00</tspan><tspan x="27.77" y="0">0</tspan></text></g><g style="clip-path:url(#clip-path-8)"><text transform="translate(33.3 183.58)" style="font-size:9.974769592285156px;font-family:ArialMT, Arial"><tspan style="letter-spacing:0.0019580652785309615em"> </tspan><tspan x="2.79" y="0" style="letter-spacing:0.0030350011817229902em">3</tspan><tspan x="8.37" y="0" style="letter-spacing:-0.009105003545168971em">6</tspan><tspan x="13.83" y="0" style="letter-spacing:0.0019580652785309615em">,</tspan><tspan x="16.62" y="0" style="letter-spacing:0.0030350011817229902em">00</tspan><tspan x="27.77" y="0">0</tspan></text></g><g style="clip-path:url(#clip-path-8)"><text transform="translate(33.3 124.65)" style="font-size:9.974769592285156px;font-family:ArialMT, Arial"><tspan style="letter-spacing:0.0019580652785309615em"> </tspan><tspan x="2.79" y="0" style="letter-spacing:0.0030350011817229902em">5</tspan><tspan x="8.37" y="0" style="letter-spacing:-0.009105003545168971em">4</tspan><tspan x="13.83" y="0" style="letter-spacing:0.0019580652785309615em">,</tspan><tspan x="16.62" y="0" style="letter-spacing:0.0030350011817229902em">00</tspan><tspan x="27.77" y="0">0</tspan></text></g><g style="clip-path:url(#clip-path-8)"><text transform="translate(33.3 65.72)" style="font-size:9.974769592285156px;font-family:ArialMT, Arial"><tspan style="letter-spacing:0.0019580652785309615em"> </tspan><tspan x="2.79" y="0" style="letter-spacing:0.0030350011817229902em">7</tspan><tspan x="8.37" y="0" style="letter-spacing:-0.009105003545168971em">2</tspan><tspan x="13.83" y="0" style="letter-spacing:0.0019580652785309615em">,</tspan><tspan x="16.62" y="0" style="letter-spacing:0.0030350011817229902em">00</tspan><tspan x="27.77" y="0">0</tspan></text></g><g style="clip-path:url(#clip-path-8)"><text transform="translate(100.78 313.32)" style="font-size:9.974769592285156px;font-family:ArialMT, Arial"><tspan style="letter-spacing:0.0059720990995194324em">J</tspan><tspan x="5.05" y="0" style="letter-spacing:-0.009007100281242422em">a</tspan><tspan x="10.5" y="0">n</tspan></text></g><g style="clip-path:url(#clip-path-8)"><text transform="translate(162 313.32)" style="font-size:9.974769592285156px;font-family:ArialMT, Arial"><tspan style="letter-spacing:0.0020559685424575095em">F</tspan><tspan x="6.11" y="0" style="letter-spacing:0.002937097917796442em">e</tspan><tspan x="11.69" y="0">b</tspan></text></g><g style="clip-path:url(#clip-path-8)"><text transform="translate(223.79 313.32)" style="font-size:9.974769592285156px;font-family:ArialMT, Arial;letter-spacing:-0.0059720990995194324em">M<tspan x="8.25" y="0" style="letter-spacing:0.002937097917796442em">a</tspan><tspan x="13.83" y="0" style="letter-spacing:0.00009790326392654807em">r</tspan></text></g><g style="clip-path:url(#clip-path-8)"><text transform="translate(286.4 313.32)" style="font-size:9.974769592285156px;font-family:ArialMT, Arial">A<tspan x="6.65" y="0" style="letter-spacing:0.002937097917796442em">p</tspan><tspan x="12.23" y="0">r</tspan></text></g><g style="clip-path:url(#clip-path-8)"><text transform="translate(346.53 313.32)" style="font-size:9.974769592285156px;font-family:ArialMT, Arial;letter-spacing:-0.0059720990995194324em">M<tspan x="8.25" y="0" style="letter-spacing:0.002937097917796442em">a</tspan><tspan x="13.83" y="0" style="letter-spacing:0.00009790326392654807em">y</tspan></text></g><g style="clip-path:url(#clip-path-8)"><text transform="translate(409.68 313.32)" style="font-size:9.974769592285156px;font-family:ArialMT, Arial"><tspan style="letter-spacing:0.0059720990995194324em">J</tspan><tspan x="5.05" y="0" style="letter-spacing:-0.009007100281242422em">u</tspan><tspan x="10.5" y="0">n</tspan></text></g><g style="clip-path:url(#clip-path-8)"><text transform="translate(473.13 313.32)" style="font-size:9.974769592285156px;font-family:ArialMT, Arial"><tspan style="letter-spacing:0.0059720990995194324em">J</tspan><tspan x="5.05" y="0" style="letter-spacing:-0.009007100281242422em">u</tspan><tspan x="10.5" y="0">l</tspan></text></g><g style="clip-path:url(#clip-path-8)"><text transform="translate(532.42 313.32)" style="font-size:9.974769592285156px;font-family:ArialMT, Arial">A<tspan x="6.65" y="0" style="letter-spacing:0.002937097917796442em">u</tspan><tspan x="12.23" y="0">g</tspan></text></g><g style="clip-path:url(#clip-path-8)"><text transform="translate(594.19 313.32)" style="font-size:9.974769592285156px;font-family:ArialMT, Arial">S<tspan x="6.65" y="0" style="letter-spacing:0.002937097917796442em">e</tspan><tspan x="12.23" y="0">p</tspan></text></g><g style="clip-path:url(#clip-path-8)"><text transform="translate(657.1 313.32)" style="font-size:9.974769592285156px;font-family:ArialMT, Arial"><tspan style="letter-spacing:-0.004014033820988471em">O</tspan><tspan x="7.72" y="0" style="letter-spacing:0.0059720990995194324em">c</tspan><tspan x="12.77" y="0">t</tspan></text></g><g style="clip-path:url(#clip-path-8)"><text transform="translate(717.77 313.32)" style="font-size:9.974769592285156px;font-family:ArialMT, Arial"><tspan style="letter-spacing:-0.0019580652785309615em">N</tspan><tspan x="7.18" y="0" style="letter-spacing:0.002937097917796442em">o</tspan><tspan x="12.76" y="0">v</tspan></text></g><g style="clip-path:url(#clip-path-8)"><text transform="translate(779.55 313.32)" style="font-size:9.974769592285156px;font-family:ArialMT, Arial"><tspan style="letter-spacing:-0.0019580652785309615em">D</tspan><tspan x="7.18" y="0" style="letter-spacing:0.002937097917796442em">e</tspan><tspan x="12.76" y="0">c</tspan></text></g><g style="clip-path:url(#clip-path-8)"><text transform="translate(827.89 301.45)" style="font-size:9.974769592285156px;font-family:ArialMT, Arial"><tspan style="letter-spacing:0.0019580652785309615em"> </tspan><tspan x="2.79" y="0">0</tspan></text></g><g style="clip-path:url(#clip-path-8)"><text transform="translate(827.89 240.33)" style="font-size:9.974769592285156px;font-family:ArialMT, Arial"><tspan style="letter-spacing:0.0019580652785309615em"> </tspan><tspan x="2.79" y="0" style="letter-spacing:0.0030350011817229902em">3</tspan><tspan x="8.37" y="0" style="letter-spacing:-0.009105003545168971em">5</tspan><tspan x="13.83" y="0">0</tspan></text></g><g style="clip-path:url(#clip-path-8)"><text transform="translate(827.89 179.22)" style="font-size:9.974769592285156px;font-family:ArialMT, Arial"><tspan style="letter-spacing:0.0019580652785309615em"> </tspan><tspan x="2.79" y="0" style="letter-spacing:0.0030350011817229902em">7</tspan><tspan x="8.37" y="0" style="letter-spacing:-0.009105003545168971em">0</tspan><tspan x="13.83" y="0">0</tspan></text></g><g style="clip-path:url(#clip-path-8)"><text transform="translate(827.89 118.1)" style="font-size:9.974769592285156px;font-family:ArialMT, Arial;letter-spacing:0.0019580652785309615em"> <tspan x="2.79" y="0" style="letter-spacing:0.0030350011817229902em">1</tspan><tspan x="8.37" y="0" style="letter-spacing:-0.011063068823699933em">,</tspan><tspan x="11.03" y="0" style="letter-spacing:0.002937097917796442em">05</tspan><tspan x="22.19" y="0" style="letter-spacing:-0.00009790326392654807em">0</tspan></text></g><g style="clip-path:url(#clip-path-8)"><text transform="translate(827.89 56.98)" style="font-size:9.974769592285156px;font-family:ArialMT, Arial;letter-spacing:0.0019580652785309615em"> <tspan x="2.79" y="0" style="letter-spacing:0.0030350011817229902em">1</tspan><tspan x="8.37" y="0" style="letter-spacing:-0.011063068823699933em">,</tspan><tspan x="11.03" y="0" style="letter-spacing:0.002937097917796442em">40</tspan><tspan x="22.19" y="0" style="letter-spacing:-0.00009790326392654807em">0</tspan></text></g><g style="clip-path:url(#clip-path-8)"><text transform="translate(20.98 232.41) rotate(-90)" style="font-size:9.974769592285156px;font-family:Arial-BoldMT, Arial;font-weight:700"><tspan style="letter-spacing:0.0060700023634459805em">M</tspan><tspan x="8.37" y="0" style="letter-spacing:0.002937097917796442em">a</tspan><tspan x="13.95" y="0" style="letter-spacing:-0.0019580652785309615em">r</tspan><tspan x="17.81" y="0" style="letter-spacing:0.002937097917796442em">ke</tspan><tspan x="28.96" y="0">t</tspan><tspan x="32.28" y="0" style="letter-spacing:-0.010965165559773385em"> </tspan><tspan x="34.95" y="0">P</tspan><tspan x="41.6" y="0" style="letter-spacing:-0.0020559685424575095em">r</tspan><tspan x="45.46" y="0" style="letter-spacing:0.0019580652785309615em">i</tspan><tspan x="48.25" y="0" style="letter-spacing:0.0030350011817229902em">ce</tspan><tspan x="59.41" y="0" style="letter-spacing:-0.011063068823699933em"> </tspan><tspan x="62.07" y="0" style="letter-spacing:0.00009790326392654807em">(</tspan><tspan x="65.39" y="0" style="letter-spacing:-0.0019580652785309615em">R</tspan><tspan x="72.57" y="0" style="letter-spacing:0.002937097917796442em">s</tspan><tspan x="78.15" y="0" style="letter-spacing:0.0019580652785309615em">./</tspan><tspan x="83.73" y="0" style="letter-spacing:0.0060700023634459805em">M</tspan><tspan x="92.1" y="0" style="letter-spacing:0.0020559685424575095em">T</tspan><tspan x="98.22" y="0">)</tspan></text></g><g style="clip-path:url(#clip-path-8)"><text transform="translate(428.88 343.56)" style="font-size:9.974769592285156px;font-family:Arial-BoldMT, Arial;font-weight:700"><tspan style="letter-spacing:0.0060700023634459805em">M</tspan><tspan x="8.37" y="0" style="letter-spacing:0.0019580652785309615em">on</tspan><tspan x="20.59" y="0">t</tspan><tspan x="23.92" y="0" style="letter-spacing:0.0020559685424575095em">h</tspan><tspan x="30.03" y="0" style="letter-spacing:0.002937097917796442em">s</tspan><tspan x="35.61" y="0"> </tspan></text></g><g style="clip-path:url(#clip-path-8)"><text transform="translate(884.64 216.96) rotate(-90)" style="font-size:9.974769592285156px;font-family:Arial-BoldMT, Arial;font-weight:700"><tspan style="letter-spacing:0.0060700023634459805em">M</tspan><tspan x="8.37" y="0" style="letter-spacing:0.002937097917796442em">a</tspan><tspan x="13.95" y="0" style="letter-spacing:-0.0019580652785309615em">r</tspan><tspan x="17.81" y="0" style="letter-spacing:0.002937097917796442em">ke</tspan><tspan x="28.96" y="0">t</tspan><tspan x="32.28" y="0" style="letter-spacing:-0.010965165559773385em"> </tspan><tspan x="34.95" y="0" style="letter-spacing:-0.014979199380761856em">A</tspan><tspan x="42" y="0" style="letter-spacing:-0.0019580652785309615em">rr</tspan><tspan x="49.72" y="0" style="letter-spacing:0.0019580652785309615em">i</tspan><tspan x="52.51" y="0" style="letter-spacing:-0.009007100281242422em">v</tspan><tspan x="57.97" y="0" style="letter-spacing:0.002937097917796442em">a</tspan><tspan x="63.55" y="0" style="letter-spacing:0.0020559685424575095em">l</tspan><tspan x="66.34" y="0" style="letter-spacing:0.014979199380761856em"> </tspan><tspan x="69.26" y="0">(</tspan><tspan x="72.58" y="0" style="letter-spacing:0.0060700023634459805em">M</tspan><tspan x="80.95" y="0" style="letter-spacing:0.0019580652785309615em">T</tspan><tspan x="87.07" y="0" style="letter-spacing:0.00009790326392654807em">)</tspan></text></g><g style="clip-path:url(#clip-path)"><polygon points="237.34 15.8 258.62 15.8 258.62 20.86 237.34 20.86 237.34 15.8 237.34 15.8" style="fill:#2935e8;fill-rule:evenodd"/></g><g style="clip-path:url(#clip-path-8)"><text transform="translate(260.82 21.52)" style="font-size:9.974769592285156px;font-family:ArialMT, Arial">AP<tspan x="13.31" y="0" style="letter-spacing:0.0019580652785309615em"> </tspan><tspan x="16.1" y="0">(</tspan><tspan x="19.42" y="0" style="letter-spacing:-0.0019580652785309615em">R</tspan><tspan x="26.6" y="0">-</tspan><tspan x="29.92" y="0" style="letter-spacing:0.0030350011817229902em">1</tspan><tspan x="35.5" y="0" style="letter-spacing:0.0019580652785309615em">,</tspan><tspan x="38.29" y="0" style="letter-spacing:-0.011063068823699933em"> </tspan><tspan x="40.95" y="0" style="letter-spacing:0.011063068823699933em">R</tspan><tspan x="48.27" y="0" style="letter-spacing:0.00009790326392654807em">-</tspan><tspan x="51.59" y="0" style="letter-spacing:-0.009105003545168971em">1</tspan><tspan x="57.05" y="0" style="letter-spacing:0.002937097917796442em">0</tspan><tspan x="62.62" y="0" style="letter-spacing:0.00009790326392654807em">)</tspan><tspan x="65.95" y="0" style="letter-spacing:0.0019580652785309615em"> </tspan><tspan x="68.74" y="0">Arr</tspan><tspan x="82.03" y="0" style="letter-spacing:-0.008028067641976942em">i</tspan><tspan x="84.17" y="0" style="letter-spacing:0.0060700023634459805em">v</tspan><tspan x="89.22" y="0" style="letter-spacing:0.002937097917796442em">a</tspan><tspan x="94.79" y="0">l</tspan></text></g><g style="clip-path:url(#clip-path)"><line x1="506.12" y1="18.33" x2="527.4" y2="18.33" style="fill:none;stroke:#2935e8;stroke-linecap:round;stroke-linejoin:round;stroke-width:1.59596373363492px"/></g><g style="clip-path:url(#clip-path-8)"><text transform="translate(529.62 21.52)" style="font-size:9.974769592285156px;font-family:ArialMT, Arial">AP<tspan x="13.31" y="0" style="letter-spacing:0.0019580652785309615em"> </tspan><tspan x="16.1" y="0">(</tspan><tspan x="19.42" y="0" style="letter-spacing:-0.0019580652785309615em">R</tspan><tspan x="26.6" y="0">-</tspan><tspan x="29.92" y="0" style="letter-spacing:0.0030350011817229902em">1</tspan><tspan x="35.5" y="0" style="letter-spacing:0.0019580652785309615em">,</tspan><tspan x="38.29" y="0" style="letter-spacing:-0.011063068823699933em"> </tspan><tspan x="40.95" y="0" style="letter-spacing:0.011063068823699933em">R</tspan><tspan x="48.27" y="0" style="letter-spacing:0.00009790326392654807em">-</tspan><tspan x="51.59" y="0" style="letter-spacing:-0.009105003545168971em">1</tspan><tspan x="57.05" y="0" style="letter-spacing:0.002937097917796442em">0</tspan><tspan x="62.62" y="0" style="letter-spacing:0.00009790326392654807em">)</tspan><tspan x="65.95" y="0" style="letter-spacing:0.0019580652785309615em"> </tspan><tspan x="68.74" y="0">Pr</tspan><tspan x="78.71" y="0" style="letter-spacing:-0.007930164378050395em">i</tspan><tspan x="80.85" y="0" style="letter-spacing:0.0059720990995194324em">c</tspan><tspan x="85.9" y="0">e</tspan></text></g><polygon points="2.86 2.64 897.27 2.64 897.27 347.5 2.86 347.5 2.86 2.64 2.86 2.64" style="fill:none;stroke:#d9d9d9;stroke-linejoin:round;stroke-width:0.797981932877775px"/></svg>