<svg id="Layer_1" data-name="Layer 1" xmlns="http://www.w3.org/2000/svg" xmlns:xlink="http://www.w3.org/1999/xlink" viewBox="0 0 900 350"><defs><clipPath id="clip-path"><polygon points="3.47 40.04 897.39 40.04 897.39 312.45 3.47 312.45 3.47 40.04 3.47 40.04" style="fill:none;clip-rule:evenodd"/></clipPath><clipPath id="clip-path-2"><polygon points="3.47 40.04 897.39 40.04 897.39 116.28 3.47 116.28 3.47 40.04 3.47 40.04" style="fill:none;clip-rule:evenodd"/></clipPath><clipPath id="clip-path-4"><polygon points="3.47 271.33 896.53 271.33 896.53 295.32 3.47 295.32 3.47 271.33 3.47 271.33" style="fill:none;clip-rule:evenodd"/></clipPath><clipPath id="clip-path-5"><polygon points="3.47 117.14 112.42 117.14 112.42 270.48 3.47 270.48 3.47 117.14 3.47 117.14" style="fill:none;clip-rule:evenodd"/></clipPath><clipPath id="clip-path-6"><polygon points="333.75 117.14 771.28 117.14 771.28 193.38 333.75 193.38 333.75 117.14 333.75 117.14" style="fill:none;clip-rule:evenodd"/></clipPath><clipPath id="clip-path-7"><polygon points="333.75 194.24 771.28 194.24 771.28 270.48 333.75 270.48 333.75 194.24 333.75 194.24" style="fill:none;clip-rule:evenodd"/></clipPath><clipPath id="clip-path-8"><polygon points="2.61 39.19 897.39 39.19 897.39 312.45 2.61 312.45 2.61 39.19 2.61 39.19" style="fill:none;clip-rule:evenodd"/></clipPath></defs><title>seasonal-calendar</title><g style="clip-path:url(#clip-path)"><polyline points="2.61 39.19 2.61 117.14 897.39 117.14 897.39 39.19 2.61 39.19" style="fill:#d8d8d8;fill-rule:evenodd"/><polyline points="896.53 39.19 896.53 117.14 932.57 117.14 932.57 39.19 896.53 39.19" style="fill:#fff;fill-rule:evenodd"/><polyline points="2.61 116.28 2.61 271.33 208.5 271.33 208.5 116.28 2.61 116.28" style="fill:#f2f2f2;fill-rule:evenodd"/><polyline points="270.27 116.28 270.27 271.33 333.75 271.33 333.75 116.28 270.27 116.28" style="fill:#5e9fff;fill-rule:evenodd"/><polyline points="332.9 116.28 332.9 271.33 772.14 271.33 772.14 116.28 332.9 116.28" style="fill:#06f;fill-rule:evenodd"/><polyline points="771.28 116.28 771.28 271.33 834.76 271.33 834.76 116.28 771.28 116.28" style="fill:#0044ab;fill-rule:evenodd"/><polyline points="896.53 116.28 896.53 271.33 932.57 271.33 932.57 116.28 896.53 116.28" style="fill:#fff;fill-rule:evenodd"/><polyline points="896.53 270.48 896.53 296.18 932.57 296.18 932.57 270.48 896.53 270.48" style="fill:#fff;fill-rule:evenodd"/><polyline points="2.61 295.32 2.61 312.45 932.57 312.45 932.57 295.32 2.61 295.32" style="fill:#fff;fill-rule:evenodd"/></g><g style="clip-path:url(#clip-path-2)"><text transform="translate(6.9 82.01)" style="font-size:11.136150360107422px;font-family:Arial-BoldMT, Arial;font-weight:700;letter-spacing:-0.028983489893840187em">A<tspan x="7.72" y="0" style="letter-spacing:0.004027917024521596em">g</tspan><tspan x="14.57" y="0" style="letter-spacing:-0.004027917024521596em">r</tspan><tspan x="18.85" y="0" style="letter-spacing:0.004027917024521596em">o</tspan><tspan x="25.7" y="0" style="letter-spacing:-0.02495557286931859em">-</tspan><tspan x="29.13" y="0" style="letter-spacing:-0.016987302233851947em">c</tspan><tspan x="35.14" y="0" style="letter-spacing:0.028983489893840187em">li</tspan><tspan x="41.97" y="0" style="letter-spacing:0.033011406918361776em">m</tspan><tspan x="52.24" y="0" style="letter-spacing:0.0591053041641756em">a</tspan><tspan x="59.09" y="0" style="letter-spacing:-0.025043136282895145em">t</tspan><tspan x="62.52" y="0" style="letter-spacing:0.028983489893840187em">i</tspan><tspan x="65.94" y="0" style="letter-spacing:-0.016899738820275394em">c</tspan><tspan x="71.94" y="0" style="letter-spacing:0.028983489893840187em"> </tspan><tspan x="75.36" y="0" style="letter-spacing:0.0380025214922255em">z</tspan><tspan x="81.35" y="0" style="letter-spacing:0.00394035361094504em">on</tspan><tspan x="95.04" y="0" style="letter-spacing:0.00008756341357655645em">e</tspan></text><text transform="translate(141.59 82.01)" style="font-size:11.136150360107422px;font-family:Arial-BoldMT, Arial;font-weight:700"><tspan style="letter-spacing:-0.028983489893840187em">R</tspan><tspan x="7.72" y="0" style="letter-spacing:0.05901774075059905em">e</tspan><tspan x="14.57" y="0" style="letter-spacing:0.004027917024521596em">g</tspan><tspan x="21.42" y="0" style="letter-spacing:0.028983489893840187em">i</tspan><tspan x="24.83" y="0" style="letter-spacing:0.004027917024521596em">o</tspan><tspan x="31.68" y="0">n</tspan></text><text transform="translate(228.23 82.01)" style="font-size:11.136150360107422px;font-family:Arial-BoldMT, Arial;font-weight:700"><tspan style="letter-spacing:0.013046948622906911em">M</tspan><tspan x="9.42" y="0" style="letter-spacing:0.05901774075059905em">a</tspan><tspan x="16.27" y="0">y</tspan></text><text transform="translate(292.58 82.01)" style="font-size:11.136150360107422px;font-family:Arial-BoldMT, Arial;font-weight:700"><tspan style="letter-spacing:-0.016987302233851947em">J</tspan><tspan x="6" y="0" style="letter-spacing:0.004027917024521596em">u</tspan><tspan x="12.85" y="0">n</tspan></text><text transform="translate(356.92 82.01)" style="font-size:11.136150360107422px;font-family:Arial-BoldMT, Arial;font-weight:700"><tspan style="letter-spacing:-0.016987302233851947em">J</tspan><tspan x="6" y="0" style="letter-spacing:0.004027917024521596em">u</tspan><tspan x="12.85" y="0">l</tspan></text><text transform="translate(416.97 82.01)" style="font-size:11.136150360107422px;font-family:Arial-BoldMT, Arial;font-weight:700"><tspan style="letter-spacing:-0.028983489893840187em">A</tspan><tspan x="7.72" y="0" style="letter-spacing:0.004027917024521596em">u</tspan><tspan x="14.57" y="0">g</tspan></text><text transform="translate(477.88 82.01)" style="font-size:11.136150360107422px;font-family:Arial-BoldMT, Arial;font-weight:700"><tspan style="letter-spacing:0.025043136282895145em">S</tspan><tspan x="7.71" y="0" style="letter-spacing:0.05901774075059905em">e</tspan><tspan x="14.56" y="0" style="letter-spacing:0.004027917024521596em">p</tspan><tspan x="21.4" y="0">t</tspan></text><text transform="translate(543.08 82.01)" style="font-size:11.136150360107422px;font-family:Arial-BoldMT, Arial;font-weight:700"><tspan style="letter-spacing:-0.007968270635466637em">O</tspan><tspan x="8.57" y="0" style="letter-spacing:-0.016987302233851947em">c</tspan><tspan x="14.58" y="0">t</tspan></text><text transform="translate(604.85 82.01)" style="font-size:11.136150360107422px;font-family:Arial-BoldMT, Arial;font-weight:700"><tspan style="letter-spacing:-0.028983489893840187em">N</tspan><tspan x="7.72" y="0" style="letter-spacing:0.004027917024521596em">o</tspan><tspan x="14.57" y="0">v</tspan></text><text transform="translate(667.48 82.01)" style="font-size:11.136150360107422px;font-family:Arial-BoldMT, Arial;font-weight:700;letter-spacing:-0.028983489893840187em">D<tspan x="7.72" y="0" style="letter-spacing:0.05901774075059905em">e</tspan><tspan x="14.57" y="0" style="letter-spacing:0.00008756341357655645em">c</tspan></text><text transform="translate(730.96 82.01)" style="font-size:11.136150360107422px;font-family:Arial-BoldMT, Arial;font-weight:700"><tspan style="letter-spacing:-0.016987302233851947em">J</tspan><tspan x="6" y="0" style="letter-spacing:0.05901774075059905em">a</tspan><tspan x="12.85" y="0">n</tspan></text><text transform="translate(792.73 82.01)" style="font-size:11.136150360107422px;font-family:Arial-BoldMT, Arial;font-weight:700"><tspan style="letter-spacing:0.004027917024521596em">F</tspan><tspan x="6.85" y="0" style="letter-spacing:0.05901774075059905em">e</tspan><tspan x="13.7" y="0">b</tspan></text><text transform="translate(855.36 82.01)" style="font-size:11.136150360107422px;font-family:Arial-BoldMT, Arial;font-weight:700"><tspan style="letter-spacing:0.013046948622906911em">M</tspan><tspan x="9.42" y="0" style="letter-spacing:0.05901774075059905em">a</tspan><tspan x="16.27" y="0">r</tspan></text></g><g style="clip-path:url(#clip-path)"><text transform="translate(125.29 159.11)" style="font-size:11.136150360107422px;font-family:Arial-BoldMT, Arial;font-weight:700"><tspan style="letter-spacing:-0.028983489893840187em">R</tspan><tspan x="7.72" y="0" style="letter-spacing:-0.02495557286931859em">-</tspan><tspan x="11.15" y="0">1</tspan></text><text transform="translate(125.29 236.2)" style="font-size:11.136150360107422px;font-family:Arial-BoldMT, Arial;font-weight:700"><tspan style="letter-spacing:-0.028983489893840187em">R</tspan><tspan x="7.72" y="0" style="letter-spacing:-0.02495557286931859em">-</tspan><tspan x="11.15" y="0" style="letter-spacing:-0.016987302233851947em">1</tspan><tspan x="17.15" y="0">0</tspan></text></g><g style="clip-path:url(#clip-path-4)"><text transform="translate(5.18 286.75)" style="font-size:10.279520034790039px;font-family:Arial-BoldMT, Arial;font-weight:700;letter-spacing:-0.05501902959213196em">N<tspan x="6.86" y="0" style="letter-spacing:-0.026940352420974957em">o</tspan><tspan x="12.86" y="0" style="letter-spacing:-0.00009486039584850337em">t</tspan><tspan x="16.28" y="0" style="letter-spacing:0.02703521281682346em">e</tspan><tspan x="22.28" y="0" style="letter-spacing:-0.00009486039584850337em">:</tspan></text><text transform="translate(30.06 286.75)" style="font-size:10.279520034790039px;font-family:ArialMT, Arial"> </text><text transform="translate(32.64 286.75)" style="font-size:10.279520034790039px;font-family:Arial-BoldMT, Arial;font-weight:700"><tspan style="letter-spacing:-0.08300284636744046em">E</tspan><tspan x="6" y="0" style="letter-spacing:0.00009486039584850337em">P</tspan><tspan x="12.86" y="0" style="letter-spacing:-0.05501902959213196em">H</tspan><tspan x="19.72" y="0"> </tspan></text><text transform="translate(54.94 286.75)" style="font-size:10.279520034790039px;font-family:ArialMT, Arial">E<tspan x="6.86" y="0" style="letter-spacing:0.02703521281682346em">a</tspan><tspan x="12.85" y="0" style="letter-spacing:0.08300284636744046em">s</tspan><tspan x="18.84" y="0" style="letter-spacing:-0.02703521281682346em">t </tspan><tspan x="24" y="0">c</tspan><tspan x="29.14" y="0" style="letter-spacing:0.026940352420974957em">oa</tspan><tspan x="41.13" y="0" style="letter-spacing:0.08300284636744046em">s</tspan><tspan x="47.12" y="0" style="letter-spacing:-0.02703521281682346em">t </tspan><tspan x="52.28" y="0" style="letter-spacing:0.00009486039584850337em">P</tspan><tspan x="59.14" y="0" style="letter-spacing:0.026940352420974957em">lain</tspan><tspan x="76.25" y="0" style="letter-spacing:0.08300284636744046em">s</tspan><tspan x="82.24" y="0" style="letter-spacing:-0.02703521281682346em"> </tspan><tspan x="84.82" y="0" style="letter-spacing:0.026940352420974957em">and</tspan><tspan x="102.8" y="0" style="letter-spacing:-0.026940352420974957em"> </tspan><tspan x="105.38" y="0" style="letter-spacing:0.026940352420974957em">Hill</tspan><tspan x="120.77" y="0">s</tspan></text></g><g style="clip-path:url(#clip-path-5)"><text transform="translate(47.22 197.66)" style="font-size:11.136150360107422px;font-family:Arial-BoldMT, Arial;font-weight:700"><tspan style="letter-spacing:-0.05096190670155586em">E</tspan><tspan x="6.86" y="0" style="letter-spacing:0.025043136282895145em">P</tspan><tspan x="14.57" y="0">H</tspan></text></g><g style="clip-path:url(#clip-path-6)"><text transform="translate(536.22 159.11)" style="font-size:11.136150360107422px;fill:#fff;font-family:Arial-BoldMT, Arial;font-weight:700"><tspan style="letter-spacing:-0.028983489893840187em">K</tspan><tspan x="7.72" y="0" style="letter-spacing:0.05901774075059905em">a</tspan><tspan x="14.57" y="0" style="letter-spacing:0.004027917024521596em">h</tspan><tspan x="21.42" y="0" style="letter-spacing:-0.00394035361094504em">r</tspan><tspan x="25.71" y="0" style="letter-spacing:0.028983489893840187em">i</tspan><tspan x="29.12" y="0">f</tspan></text></g><g style="clip-path:url(#clip-path-7)"><text transform="translate(536.22 236.2)" style="font-size:11.136150360107422px;fill:#fff;font-family:Arial-BoldMT, Arial;font-weight:700"><tspan style="letter-spacing:-0.028983489893840187em">K</tspan><tspan x="7.72" y="0" style="letter-spacing:0.004027917024521596em">h</tspan><tspan x="14.57" y="0" style="letter-spacing:0.05901774075059905em">a</tspan><tspan x="21.42" y="0" style="letter-spacing:-0.00394035361094504em">r</tspan><tspan x="25.71" y="0" style="letter-spacing:0.028983489893840187em">i</tspan><tspan x="29.12" y="0">f</tspan></text></g><g style="clip-path:url(#clip-path-8)"><polyline points="3.47 39.19 3.47 40.04 897.39 40.04 897.39 39.19 3.47 39.19" style="fill:#bfbfbf;fill-rule:evenodd"/><polyline points="270.27 40.04 270.27 117.14 271.13 117.14 271.13 40.04 270.27 40.04" style="fill:#bfbfbf;fill-rule:evenodd"/><polyline points="332.9 40.04 332.9 117.14 333.75 117.14 333.75 40.04 332.9 40.04" style="fill:#bfbfbf;fill-rule:evenodd"/><polyline points="771.28 40.04 771.28 117.14 772.14 117.14 772.14 40.04 771.28 40.04" style="fill:#bfbfbf;fill-rule:evenodd"/><polyline points="833.91 40.04 833.91 117.14 834.76 117.14 834.76 40.04 833.91 40.04" style="fill:#bfbfbf;fill-rule:evenodd"/><polyline points="3.47 116.28 3.47 117.14 896.53 117.14 896.53 116.28 3.47 116.28" style="fill:#bfbfbf;fill-rule:evenodd"/><polyline points="896.53 40.04 896.53 116.28 897.39 116.28 897.39 40.04 896.53 40.04" style="fill:#bfbfbf;fill-rule:evenodd"/><polyline points="113.28 193.38 113.28 194.24 208.5 194.24 208.5 193.38 113.28 193.38" style="fill:#bfbfbf;fill-rule:evenodd"/><polyline points="208.5 193.38 208.5 194.24 270.27 194.24 270.27 193.38 208.5 193.38" style="fill:#d4d4d4;fill-rule:evenodd"/><polyline points="270.27 193.38 270.27 194.24 834.76 194.24 834.76 193.38 270.27 193.38" style="fill:#bfbfbf;fill-rule:evenodd"/><polyline points="833.91 117.14 833.91 193.38 834.76 193.38 834.76 117.14 833.91 117.14" style="fill:#d9d9d9;fill-rule:evenodd"/><polyline points="834.76 193.38 834.76 194.24 896.53 194.24 896.53 193.38 834.76 193.38" style="fill:#d9d9d9;fill-rule:evenodd"/><polyline points="896.53 116.28 896.53 194.24 897.39 194.24 897.39 116.28 896.53 116.28" style="fill:#bfbfbf;fill-rule:evenodd"/><polyline points="2.61 39.19 2.61 271.33 3.47 271.33 3.47 39.19 2.61 39.19" style="fill:#bfbfbf;fill-rule:evenodd"/><polyline points="3.47 270.48 3.47 271.33 208.5 271.33 208.5 270.48 3.47 270.48" style="fill:#bfbfbf;fill-rule:evenodd"/><polyline points="208.5 270.48 208.5 271.33 270.27 271.33 270.27 270.48 208.5 270.48" style="fill:#d4d4d4;fill-rule:evenodd"/><polyline points="270.27 270.48 270.27 271.33 834.76 271.33 834.76 270.48 270.27 270.48" style="fill:#bfbfbf;fill-rule:evenodd"/><polyline points="834.76 270.48 834.76 271.33 897.39 271.33 897.39 270.48 834.76 270.48" style="fill:#d9d9d9;fill-rule:evenodd"/><polyline points="896.53 194.24 896.53 271.33 897.39 271.33 897.39 194.24 896.53 194.24" style="fill:#d9d9d9;fill-rule:evenodd"/><polyline points="2.61 271.33 2.61 296.18 3.47 296.18 3.47 271.33 2.61 271.33" style="fill:#fff;fill-rule:evenodd"/><polyline points="112.42 40.04 112.42 271.33 113.28 271.33 113.28 40.04 112.42 40.04" style="fill:#bfbfbf;fill-rule:evenodd"/><polyline points="207.65 40.04 207.65 271.33 208.5 271.33 208.5 40.04 207.65 40.04" style="fill:#bfbfbf;fill-rule:evenodd"/><polyline points="395.52 40.04 395.52 117.14 396.38 117.14 396.38 40.04 395.52 40.04" style="fill:#bfbfbf;fill-rule:evenodd"/><polyline points="458.15 40.04 458.15 117.14 459.01 117.14 459.01 40.04 458.15 40.04" style="fill:#bfbfbf;fill-rule:evenodd"/><polyline points="520.78 40.04 520.78 117.14 521.63 117.14 521.63 40.04 520.78 40.04" style="fill:#bfbfbf;fill-rule:evenodd"/><polyline points="583.4 40.04 583.4 117.14 584.26 117.14 584.26 40.04 583.4 40.04" style="fill:#bfbfbf;fill-rule:evenodd"/><polyline points="646.03 40.04 646.03 117.14 646.89 117.14 646.89 40.04 646.03 40.04" style="fill:#bfbfbf;fill-rule:evenodd"/><polyline points="708.65 40.04 708.65 117.14 709.51 117.14 709.51 40.04 708.65 40.04" style="fill:#bfbfbf;fill-rule:evenodd"/><polyline points="833.91 194.24 833.91 270.48 834.76 270.48 834.76 194.24 833.91 194.24" style="fill:#d9d9d9;fill-rule:evenodd"/><polyline points="3.47 295.32 3.47 296.18 897.39 296.18 897.39 295.32 3.47 295.32" style="fill:#fff;fill-rule:evenodd"/><polyline points="896.53 271.33 896.53 296.18 897.39 296.18 897.39 271.33 896.53 271.33" style="fill:#fff;fill-rule:evenodd"/><polyline points="112.42 312.45 112.42 313.31 113.28 313.31 113.28 312.45 112.42 312.45" style="fill:#d4d4d4;fill-rule:evenodd"/><polyline points="207.65 312.45 207.65 313.31 208.5 313.31 208.5 312.45 207.65 312.45" style="fill:#d4d4d4;fill-rule:evenodd"/><polyline points="270.27 312.45 270.27 313.31 271.13 313.31 271.13 312.45 270.27 312.45" style="fill:#d4d4d4;fill-rule:evenodd"/><polyline points="332.9 312.45 332.9 313.31 333.75 313.31 333.75 312.45 332.9 312.45" style="fill:#d4d4d4;fill-rule:evenodd"/><polyline points="395.52 312.45 395.52 313.31 396.38 313.31 396.38 312.45 395.52 312.45" style="fill:#d4d4d4;fill-rule:evenodd"/><polyline points="458.15 312.45 458.15 313.31 459.01 313.31 459.01 312.45 458.15 312.45" style="fill:#d4d4d4;fill-rule:evenodd"/><polyline points="520.78 312.45 520.78 313.31 521.63 313.31 521.63 312.45 520.78 312.45" style="fill:#d4d4d4;fill-rule:evenodd"/><polyline points="583.4 312.45 583.4 313.31 584.26 313.31 584.26 312.45 583.4 312.45" style="fill:#d4d4d4;fill-rule:evenodd"/><polyline points="646.03 312.45 646.03 313.31 646.89 313.31 646.89 312.45 646.03 312.45" style="fill:#d4d4d4;fill-rule:evenodd"/><polyline points="708.65 312.45 708.65 313.31 709.51 313.31 709.51 312.45 708.65 312.45" style="fill:#d4d4d4;fill-rule:evenodd"/><polyline points="771.28 312.45 771.28 313.31 772.14 313.31 772.14 312.45 771.28 312.45" style="fill:#d4d4d4;fill-rule:evenodd"/><polyline points="833.91 312.45 833.91 313.31 834.76 313.31 834.76 312.45 833.91 312.45" style="fill:#d4d4d4;fill-rule:evenodd"/><polyline points="896.53 312.45 896.53 313.31 897.39 313.31 897.39 312.45 896.53 312.45" style="fill:#d4d4d4;fill-rule:evenodd"/></g></svg>