<svg id="Layer_1" data-name="Layer 1" xmlns="http://www.w3.org/2000/svg" xmlns:xlink="http://www.w3.org/1999/xlink" viewBox="0 0 900 350"><defs><clipPath id="clip-path"><polygon points="6.31 348.53 893.69 348.53 893.69 2.27 6.31 2.27 6.31 348.53 6.31 348.53" style="fill:none;clip-rule:evenodd"/></clipPath><clipPath id="clip-path-2"><polygon points="73.48 311.75 883.03 311.75 883.03 29.59 73.48 29.59 73.48 311.75 73.48 311.75" style="fill:none;clip-rule:evenodd"/></clipPath><clipPath id="clip-path-7"><rect x="6.31" y="2.27" width="887.38" height="346.26" style="fill:none"/></clipPath><clipPath id="clip-path-12"><rect x="579.28" y="46.52" width="200.99" height="19.19" style="fill:none"/></clipPath></defs><title>yar</title><polygon points="6.31 2.4 893.69 2.4 893.69 348.67 6.31 348.67 6.31 2.4 6.31 2.4" style="fill:#eaeaea;fill-rule:evenodd"/><polygon points="73.48 29.73 882.23 29.73 882.23 310.95 73.48 310.95 73.48 29.73 73.48 29.73" style="fill:#fff;fill-rule:evenodd"/><path d="M73.48,311H882.23m-808.75-125H882.23M73.48,123.42H882.23M73.48,60.91H882.23" style="fill:none;stroke:#d9d9d9;stroke-linejoin:round;stroke-width:0.799681400206822px"/><g style="clip-path:url(#clip-path)"><path d="M73.48,29.73V311M477.86,29.73V311M882.23,29.73V311" style="fill:none;stroke:#d9d9d9;stroke-linejoin:round;stroke-width:0.799681400206822px"/></g><g style="clip-path:url(#clip-path-2)"><path d="M194.77,248.44h161.8v18H194.77v-18Zm404.37,0h161.8v30.25H599.14V248.44Z" style="fill:#ff25f3"/></g><g style="clip-path:url(#clip-path-2)"><path d="M194.77,98.5h161.8V248.44H194.77V98.5Zm404.37,0h161.8V248.44H599.14V98.5Z" style="fill:#5e9fff"/></g><g style="clip-path:url(#clip-path-2)"><path d="M194.77,80.51h161.8v18H194.77v-18ZM599.14,68.25h161.8V98.5H599.14V68.25Z" style="fill:#04f"/></g><g style="clip-path:url(#clip-path)"><line x1="73.48" y1="248.44" x2="882.23" y2="248.44" style="fill:none;stroke:#d9d9d9;stroke-linejoin:round;stroke-width:0.799681400206822px"/></g><g style="clip-path:url(#clip-path)"><path d="M73.48,248.44v3.07m404.38-3.07v3.07m404.37-3.07v3.07" style="fill:none;stroke:#d9d9d9;stroke-linejoin:round;stroke-width:0.799681400206822px"/></g><g style="clip-path:url(#clip-path-7)"><text transform="translate(262.37 279.24)" style="font-size:9.996020317077637px;font-family:ArialMT, Arial">-</text></g><g style="clip-path:url(#clip-path-7)"><text transform="translate(265.7 279.24)" style="font-size:9.996020317077637px;font-family:ArialMT, Arial"><tspan style="letter-spacing:0.00293085388691617em">12</tspan><tspan x="11.18" y="0">%</tspan></text></g><g style="clip-path:url(#clip-path-7)"><text transform="translate(666.2 288.49)" style="font-size:9.996020317077637px;font-family:ArialMT, Arial">-</text></g><g style="clip-path:url(#clip-path-7)"><text transform="translate(669.54 288.49)" style="font-size:9.996020317077637px;font-family:ArialMT, Arial"><tspan style="letter-spacing:0.00293085388691617em">20</tspan><tspan x="11.18" y="0">%</tspan></text></g><g style="clip-path:url(#clip-path-7)"><text transform="translate(261.47 73.24)" style="font-size:11.062259674072266px;font-family:ArialMT, Arial"><tspan style="letter-spacing:-0.004943610221714159em">+</tspan><tspan x="6.41" y="0" style="letter-spacing:-0.0010593450475101772em">12</tspan><tspan x="18.69" y="0">%</tspan></text></g><g style="clip-path:url(#clip-path-12)"><text transform="translate(665.55 60.11)" style="font-size:11.062259674072266px;font-family:ArialMT, Arial"><tspan style="letter-spacing:-0.004943610221714159em">+</tspan><tspan x="6.41" y="0" style="letter-spacing:-0.0010593450475101772em">20</tspan><tspan x="18.69" y="0">%</tspan></text></g><g style="clip-path:url(#clip-path-7)"><text transform="translate(42.14 314.21)" style="font-size:9.996020317077637px;font-family:ArialMT, Arial">-<tspan x="3.33" y="0" style="letter-spacing:0.00293085388691617em">2</tspan><tspan x="8.92" y="0" style="letter-spacing:0.0019539025912774467em">.</tspan><tspan x="11.71" y="0" style="letter-spacing:-0.008987951919876256em">0</tspan><tspan x="17.18" y="0">0</tspan></text></g><g style="clip-path:url(#clip-path-7)"><text transform="translate(45.46 251.68)" style="font-size:9.996020317077637px;font-family:ArialMT, Arial"><tspan style="letter-spacing:0.00293085388691617em">0</tspan><tspan x="5.59" y="0" style="letter-spacing:0.002051597720841319em">.</tspan><tspan x="8.39" y="0" style="letter-spacing:-0.009085647049440128em">0</tspan><tspan x="13.86" y="0">0</tspan></text></g><g style="clip-path:url(#clip-path-7)"><text transform="translate(45.46 189.15)" style="font-size:9.996020317077637px;font-family:ArialMT, Arial"><tspan style="letter-spacing:0.00293085388691617em">2</tspan><tspan x="5.59" y="0" style="letter-spacing:0.002051597720841319em">.</tspan><tspan x="8.39" y="0" style="letter-spacing:-0.009085647049440128em">0</tspan><tspan x="13.86" y="0">0</tspan></text></g><g style="clip-path:url(#clip-path-7)"><text transform="translate(45.46 126.63)" style="font-size:9.996020317077637px;font-family:ArialMT, Arial"><tspan style="letter-spacing:0.00293085388691617em">4</tspan><tspan x="5.59" y="0" style="letter-spacing:0.002051597720841319em">.</tspan><tspan x="8.39" y="0" style="letter-spacing:-0.009085647049440128em">0</tspan><tspan x="13.86" y="0">0</tspan></text></g><g style="clip-path:url(#clip-path-7)"><text transform="translate(45.46 64.11)" style="font-size:9.996020317077637px;font-family:ArialMT, Arial"><tspan style="letter-spacing:0.00293085388691617em">6</tspan><tspan x="5.59" y="0" style="letter-spacing:0.002051597720841319em">.</tspan><tspan x="8.39" y="0" style="letter-spacing:-0.009085647049440128em">0</tspan><tspan x="13.86" y="0">0</tspan></text></g><g style="clip-path:url(#clip-path-7)"><text transform="translate(267.65 326.1)" style="font-size:9.996020317077637px;font-family:ArialMT, Arial;letter-spacing:-0.0019539025912774467em">R<tspan x="7.2" y="0" style="letter-spacing:-0.00009769512956387235em">-1</tspan></text></g><g style="clip-path:url(#clip-path-7)"><text transform="translate(669.24 326.1)" style="font-size:9.996020317077637px;font-family:ArialMT, Arial;letter-spacing:-0.0019539025912774467em">R<tspan x="7.2" y="0" style="letter-spacing:-0.00009769512956387235em">-</tspan><tspan x="10.53" y="0" style="letter-spacing:0.0030285490164800428em">1</tspan><tspan x="16.12" y="0" style="letter-spacing:-0.00009769512956387235em">0</tspan></text></g><g style="clip-path:url(#clip-path-7)"><text transform="translate(26.56 230.37) rotate(-90)" style="font-size:11.062259674072266px;font-family:Arial-BoldMT, Arial;font-weight:700"><tspan style="letter-spacing:0.005031888975673341em">Q</tspan><tspan x="8.66" y="0" style="letter-spacing:0.003001477634612168em">u</tspan><tspan x="15.45" y="0" style="letter-spacing:-0.0009710662935509956em">a</tspan><tspan x="21.59" y="0" style="letter-spacing:0.003001477634612168em">n</tspan><tspan x="28.38" y="0" style="letter-spacing:0.004060822682122345em">t</tspan><tspan x="32.11" y="0">i</tspan><tspan x="35.18" y="0" style="letter-spacing:0.003972543928163164em">t</tspan><tspan x="38.91" y="0" style="letter-spacing:-0.012976976831999668em">y</tspan><tspan x="44.92" y="0" style="letter-spacing:0.011034844244897677em"> </tspan><tspan x="48.12" y="0" style="letter-spacing:-0.00008827875395918142em">&amp; </tspan><tspan x="59.18" y="0" style="letter-spacing:0.006885742808816151em">Y</tspan><tspan x="66.63" y="0" style="letter-spacing:-0.0009710662935509956em">a</tspan><tspan x="72.77" y="0">R</tspan><tspan x="80.76" y="0" style="letter-spacing:0.010946565490938497em"> </tspan><tspan x="83.96" y="0" style="letter-spacing:0.004060822682122345em">(</tspan><tspan x="87.69" y="0" style="letter-spacing:0.021981409735836174em">M</tspan><tspan x="97.14" y="0" style="letter-spacing:0.015095666927020022em">T</tspan><tspan x="104.07" y="0">)</tspan></text></g><g style="clip-path:url(#clip-path-7)"><text transform="translate(431.91 344.51)" style="font-size:11.062259674072266px;font-family:Arial-BoldMT, Arial;font-weight:700">R<tspan x="7.99" y="0" style="letter-spacing:-0.0010593450475101772em">e</tspan><tspan x="14.13" y="0" style="letter-spacing:0.0030897563885713504em">g</tspan><tspan x="20.92" y="0">i</tspan><tspan x="23.99" y="0" style="letter-spacing:0.003001477634612168em">on</tspan><tspan x="37.58" y="0">s</tspan></text></g><polygon points="6.31 2.4 893.69 2.4 893.69 348.67 6.31 348.67 6.31 2.4 6.31 2.4" style="fill:none;stroke:#d9d9d9;stroke-linejoin:round;stroke-width:0.799681466407833px"/></svg>