<svg id="Layer_1" data-name="Layer 1" xmlns="http://www.w3.org/2000/svg" xmlns:xlink="http://www.w3.org/1999/xlink" viewBox="0 0 900 350"><defs><clipPath id="clip-path"><polygon points="5.35 349.46 894.65 349.46 894.65 0.54 5.35 0.54 5.35 349.46 5.35 349.46" style="fill:none;clip-rule:evenodd"/></clipPath><clipPath id="clip-path-2"><polygon points="74.86 305.29 873.92 305.29 873.92 18.16 74.86 18.16 74.86 305.29 74.86 305.29" style="fill:none;clip-rule:evenodd"/></clipPath><clipPath id="clip-path-13"><rect x="5.35" y="0.54" width="889.3" height="348.92" style="fill:none"/></clipPath></defs><title>ground-truth-risk-report</title><polygon points="5.49 0.68 894.65 0.68 894.65 349.46 5.49 349.46 5.49 0.68 5.49 0.68" style="fill:#eaeaea;fill-rule:evenodd"/><polygon points="74.86 18.29 873.11 18.29 873.11 304.47 74.86 304.47 74.86 18.29 74.86 18.29" style="fill:#fff;fill-rule:evenodd"/><path d="M74.86,232.93H873.1M74.86,161.38H873.1M74.86,89.84H873.1M74.86,18.29H873.1" style="fill:none;stroke:#d9d9d9;stroke-linejoin:round;stroke-width:0.813011592198905px"/><g style="clip-path:url(#clip-path)"><path d="M74.86,18.29V304.47M341,18.29V304.47M607.11,18.29V304.47m266-286.18V304.47" style="fill:none;stroke:#d9d9d9;stroke-linejoin:round;stroke-width:0.813011592198905px"/></g><g style="clip-path:url(#clip-path-2)"><polygon points="156.84 68.29 259.15 68.29 259.15 304.47 156.84 304.47 156.84 68.29 156.84 68.29" style="fill:#5e9fff;fill-rule:evenodd"/><polygon points="156.84 68.29 259.15 68.29 259.15 304.47 156.84 304.47 156.84 68.29 156.84 68.29" style="fill:none;stroke:#7f7f7f;stroke-linejoin:round;stroke-width:0.813011592198905px"/><polygon points="422.83 64.09 525.27 64.09 525.27 304.47 422.83 304.47 422.83 64.09 422.83 64.09" style="fill:#5e9fff;fill-rule:evenodd"/><polygon points="422.83 64.09 525.27 64.09 525.27 304.47 422.83 304.47 422.83 64.09 422.83 64.09" style="fill:none;stroke:#7f7f7f;stroke-linejoin:round;stroke-width:0.813011592198905px"/><polygon points="688.96 61.11 791.26 61.11 791.26 304.47 688.96 304.47 688.96 61.11 688.96 61.11" style="fill:#5e9fff;fill-rule:evenodd"/><polygon points="688.96 61.11 791.26 61.11 791.26 304.47 688.96 304.47 688.96 61.11 688.96 61.11" style="fill:none;stroke:#7f7f7f;stroke-linejoin:round;stroke-width:0.813011592198905px"/></g><g style="clip-path:url(#clip-path)"><line x1="74.86" y1="304.47" x2="873.1" y2="304.47" style="fill:none;stroke:#d9d9d9;stroke-linejoin:round;stroke-width:0.813011592198905px"/></g><g style="clip-path:url(#clip-path)"><path d="M74.86,304.47v3.12M341,304.47v3.12m266.12-3.12v3.12m266-3.12v3.12" style="fill:none;stroke:#d9d9d9;stroke-linejoin:round;stroke-width:0.813011592198905px"/></g><g style="clip-path:url(#clip-path-2)"><polyline points="207.93 45.12 474.05 45.12 740.18 45.12" style="fill:none;stroke:#06f;stroke-miterlimit:10;stroke-width:1.355px;stroke-dasharray:5,5"/></g><g style="clip-path:url(#clip-path)"><path d="M210.74,45.05a2.85,2.85,0,1,1-2.85-2.84,2.85,2.85,0,0,1,2.85,2.84Z" style="fill:#06f"/><path d="M210.74,45.05a2.85,2.85,0,1,1-2.85-2.84,2.85,2.85,0,0,1,2.85,2.84Z" style="fill:none;stroke:#2935e8;stroke-linejoin:round;stroke-width:0.813011659503445px"/><path d="M476.86,45.05A2.85,2.85,0,1,1,474,42.21a2.84,2.84,0,0,1,2.84,2.84Z" style="fill:#06f"/><path d="M476.86,45.05A2.85,2.85,0,1,1,474,42.21a2.84,2.84,0,0,1,2.84,2.84Z" style="fill:none;stroke:#2935e8;stroke-linejoin:round;stroke-width:0.813011659503445px"/><path d="M743,45.05a2.85,2.85,0,1,1-2.85-2.84A2.84,2.84,0,0,1,743,45.05Z" style="fill:#06f"/><path d="M743,45.05a2.85,2.85,0,1,1-2.85-2.84A2.84,2.84,0,0,1,743,45.05Z" style="fill:none;stroke:#2935e8;stroke-linejoin:round;stroke-width:0.813011659503445px"/></g><g style="clip-path:url(#clip-path-2)"><polyline points="207.93 73.31 474.05 73.31 740.18 73.31" style="fill:none;stroke:#ff25f3;stroke-miterlimit:10;stroke-width:1.355px;stroke-dasharray:5,5"/></g><g style="clip-path:url(#clip-path)"><path d="M210.74,73.24a2.85,2.85,0,1,1-2.85-2.85,2.85,2.85,0,0,1,2.85,2.85Z" style="fill:#ff25f3"/><path d="M476.86,73.24A2.85,2.85,0,1,1,474,70.39a2.84,2.84,0,0,1,2.84,2.85Z" style="fill:#ff25f3"/><path d="M743,73.24a2.85,2.85,0,1,1-2.85-2.85A2.84,2.84,0,0,1,743,73.24Z" style="fill:#ff25f3"/></g><g style="clip-path:url(#clip-path-2)"><polyline points="207.93 54.06 474.05 54.06 740.18 54.06" style="fill:none;stroke:#7f7f7f;stroke-linecap:round;stroke-linejoin:round;stroke-width:1.35501929789666px"/></g><g style="clip-path:url(#clip-path)"><path d="M210.74,54a2.85,2.85,0,1,1-2.85-2.85A2.85,2.85,0,0,1,210.74,54Z" style="fill:#7f7f7f"/><path d="M210.74,54a2.85,2.85,0,1,1-2.85-2.85A2.85,2.85,0,0,1,210.74,54Z" style="fill:none;stroke:#7f7f7f;stroke-linejoin:round;stroke-width:0.813011659503445px"/><path d="M476.86,54A2.85,2.85,0,1,1,474,51.15,2.84,2.84,0,0,1,476.86,54Z" style="fill:#7f7f7f"/><path d="M476.86,54A2.85,2.85,0,1,1,474,51.15,2.84,2.84,0,0,1,476.86,54Z" style="fill:none;stroke:#7f7f7f;stroke-linejoin:round;stroke-width:0.813011659503445px"/><path d="M743,54a2.85,2.85,0,1,1-2.85-2.85A2.84,2.84,0,0,1,743,54Z" style="fill:#7f7f7f"/><path d="M743,54a2.85,2.85,0,1,1-2.85-2.85A2.84,2.84,0,0,1,743,54Z" style="fill:none;stroke:#7f7f7f;stroke-linejoin:round;stroke-width:0.813011659503445px"/></g><g style="clip-path:url(#clip-path-2)"><polyline points="207.93 68.29 474.05 68.29 740.18 68.29" style="fill:none;stroke:#00b050;stroke-linecap:round;stroke-linejoin:round;stroke-width:1.35501929789666px"/></g><g style="clip-path:url(#clip-path)"><path d="M210.74,68.22a2.85,2.85,0,1,1-2.85-2.84,2.85,2.85,0,0,1,2.85,2.84Z" style="fill:#00b050"/><path d="M210.74,68.22a2.85,2.85,0,1,1-2.85-2.84,2.85,2.85,0,0,1,2.85,2.84Z" style="fill:none;stroke:#00b050;stroke-linejoin:round;stroke-width:0.813011659503445px"/><path d="M476.86,68.22A2.85,2.85,0,1,1,474,65.38a2.84,2.84,0,0,1,2.84,2.84Z" style="fill:#00b050"/><path d="M476.86,68.22A2.85,2.85,0,1,1,474,65.38a2.84,2.84,0,0,1,2.84,2.84Z" style="fill:none;stroke:#00b050;stroke-linejoin:round;stroke-width:0.813011659503445px"/><path d="M743,68.22a2.85,2.85,0,1,1-2.85-2.84A2.84,2.84,0,0,1,743,68.22Z" style="fill:#00b050"/><path d="M743,68.22a2.85,2.85,0,1,1-2.85-2.84A2.84,2.84,0,0,1,743,68.22Z" style="fill:none;stroke:#00b050;stroke-linejoin:round;stroke-width:0.813011659503445px"/></g><g style="clip-path:url(#clip-path-13)"><text transform="translate(46.39 307.72)" style="font-size:10.162650108337402px;font-family:ArialMT, Arial"><tspan style="letter-spacing:0.002978892038717714em">0</tspan><tspan x="5.68" y="0" style="letter-spacing:0.0020179591230023225em">.</tspan><tspan x="8.53" y="0" style="letter-spacing:-0.00903276940772468em">2</tspan><tspan x="14.09" y="0">5</tspan></text></g><g style="clip-path:url(#clip-path-13)"><text transform="translate(46.39 236.15)" style="font-size:10.162650108337402px;font-family:ArialMT, Arial"><tspan style="letter-spacing:0.002978892038717714em">0</tspan><tspan x="5.68" y="0" style="letter-spacing:0.0020179591230023225em">.</tspan><tspan x="8.53" y="0" style="letter-spacing:-0.00903276940772468em">7</tspan><tspan x="14.09" y="0">5</tspan></text></g><g style="clip-path:url(#clip-path-13)"><text transform="translate(46.39 164.59)" style="font-size:10.162650108337402px;font-family:ArialMT, Arial"><tspan style="letter-spacing:0.002978892038717714em">1</tspan><tspan x="5.68" y="0" style="letter-spacing:0.0020179591230023225em">.</tspan><tspan x="8.53" y="0" style="letter-spacing:-0.00903276940772468em">2</tspan><tspan x="14.09" y="0">5</tspan></text></g><g style="clip-path:url(#clip-path-13)"><text transform="translate(46.39 93.03)" style="font-size:10.162650108337402px;font-family:ArialMT, Arial"><tspan style="letter-spacing:0.002978892038717714em">1</tspan><tspan x="5.68" y="0" style="letter-spacing:0.0020179591230023225em">.</tspan><tspan x="8.53" y="0" style="letter-spacing:-0.00903276940772468em">7</tspan><tspan x="14.09" y="0">5</tspan></text></g><g style="clip-path:url(#clip-path-13)"><text transform="translate(46.39 21.46)" style="font-size:10.162650108337402px;font-family:ArialMT, Arial"><tspan style="letter-spacing:0.002978892038717714em">2</tspan><tspan x="5.68" y="0" style="letter-spacing:0.0020179591230023225em">.</tspan><tspan x="8.53" y="0" style="letter-spacing:-0.00903276940772468em">2</tspan><tspan x="14.09" y="0">5</tspan></text></g><g style="clip-path:url(#clip-path-13)"><text transform="translate(195.97 319.82)" style="font-size:10.162650108337402px;font-family:ArialMT, Arial">Sep</text></g><g style="clip-path:url(#clip-path-13)"><text transform="translate(463.05 319.82)" style="font-size:10.162650108337402px;font-family:ArialMT, Arial">Oct</text></g><g style="clip-path:url(#clip-path-13)"><text transform="translate(730.13 319.82)" style="font-size:10.162650108337402px;font-family:ArialMT, Arial">Nov</text></g><g style="clip-path:url(#clip-path-13)"><text transform="translate(37.69 157.24) rotate(-90)" style="font-size:11.246660232543945px;font-family:Arial-BoldMT, Arial;font-weight:700"><tspan style="letter-spacing:0.005036217315083603em">Q</tspan><tspan x="8.8" y="0" style="letter-spacing:0.0029522653226352158em">u</tspan><tspan x="15.71" y="0" style="letter-spacing:-0.0010419759962241937em">a</tspan><tspan x="21.95" y="0" style="letter-spacing:0.0030390966556538986em">n</tspan><tspan x="28.86" y="0" style="letter-spacing:0.003994241318859409em">t</tspan><tspan x="32.65" y="0">i</tspan><tspan x="35.77" y="0" style="letter-spacing:0.003994241318859409em">t</tspan><tspan x="39.56" y="0" style="letter-spacing:-0.013024699952802423em">y</tspan><tspan x="45.67" y="0" style="letter-spacing:0.010940747960354035em"> </tspan><tspan x="48.92" y="0" style="letter-spacing:0.003994241318859409em">(</tspan><tspan x="52.71" y="0" style="letter-spacing:0.022055158586745435em">M</tspan><tspan x="62.32" y="0" style="letter-spacing:0.015021820612232126em">T</tspan><tspan x="69.36" y="0">)</tspan></text></g><g style="clip-path:url(#clip-path-13)"><text transform="translate(380.58 337.69)" style="font-size:11.246660232543945px;font-family:Arial-BoldMT, Arial;font-weight:700;letter-spacing:0.015021820612232126em">T<tspan x="7.04" y="0" style="letter-spacing:-0.00008683133301868282em">i</tspan><tspan x="10.16" y="0" style="letter-spacing:0.0019971206594297046em">m</tspan><tspan x="20.19" y="0" style="letter-spacing:-0.0009551446632055109em">e</tspan><tspan x="26.43" y="0" style="letter-spacing:-0.00008683133301868282em"> </tspan><tspan x="29.55" y="0" style="letter-spacing:-0.0039074099858407265em">P</tspan><tspan x="37.01" y="0" style="letter-spacing:-0.0010419759962241937em">e</tspan><tspan x="43.25" y="0" style="letter-spacing:-0.0029522653226352158em">r</tspan><tspan x="47.6" y="0" style="letter-spacing:-0.00008683133301868282em">i</tspan><tspan x="50.72" y="0" style="letter-spacing:0.0030390966556538986em">o</tspan><tspan x="57.63" y="0" style="letter-spacing:-0.00008683133301868282em">d</tspan></text></g><polygon points="5.49 0.68 894.65 0.68 894.65 349.46 5.49 349.46 5.49 0.68 5.49 0.68" style="fill:none;stroke:#d9d9d9;stroke-linejoin:round;stroke-width:0.813011659503445px"/></svg>