<svg id="Layer_1" data-name="Layer 1" xmlns="http://www.w3.org/2000/svg" xmlns:xlink="http://www.w3.org/1999/xlink" viewBox="0 0 900 350"><defs><clipPath id="clip-path"><polygon points="3.91 348.15 896.09 348.15 896.09 1.85 3.91 1.85 3.91 348.15 3.91 348.15" style="fill:none;clip-rule:evenodd"/></clipPath><clipPath id="clip-path-6"><polygon points="64.74 292.06 884.98 292.06 884.98 16.62 64.74 16.62 64.74 292.06 64.74 292.06" style="fill:none;clip-rule:evenodd"/></clipPath><clipPath id="clip-path-10"><rect x="3.91" y="1.85" width="892.18" height="346.3" style="fill:none"/></clipPath></defs><title>ndvi-risk-report</title><polygon points="4.04 1.85 896.09 1.85 896.09 348.15 4.04 348.15 4.04 1.85 4.04 1.85" style="fill:#eaeaea;fill-rule:evenodd"/><polygon points="64.74 16.75 884.17 16.75 884.17 291.38 64.74 291.38 64.74 16.75 64.74 16.75" style="fill:#fff;fill-rule:evenodd"/><path d="M64.74,222.69H884.17M64.74,154H884.17M64.74,85.44H884.17M64.74,16.75H884.17" style="fill:none;stroke:#d9d9d9;stroke-linejoin:round;stroke-width:0.812921984963992px"/><g style="clip-path:url(#clip-path)"><path d="M98.89,16.75V291.38M167.17,16.75V291.38M235.46,16.75V291.38M303.74,16.75V291.38M372,16.75V291.38M440.31,16.75V291.38M508.6,16.75V291.38M576.88,16.75V291.38M645.17,16.75V291.38M713.45,16.75V291.38M781.74,16.75V291.38M850,16.75V291.38" style="fill:none;stroke:#f2f2f2;stroke-linejoin:round;stroke-width:0.812921984963992px"/></g><g style="clip-path:url(#clip-path)"><path d="M64.74,16.75V291.38M133,16.75V291.38M201.31,16.75V291.38M269.6,16.75V291.38M337.88,16.75V291.38M406.17,16.75V291.38M474.46,16.75V291.38M542.74,16.75V291.38M611,16.75V291.38M679.31,16.75V291.38M747.6,16.75V291.38M815.88,16.75V291.38M884.17,16.75V291.38" style="fill:none;stroke:#d9d9d9;stroke-linejoin:round;stroke-width:0.812921984963992px"/></g><g style="clip-path:url(#clip-path)"><line x1="64.74" y1="291.38" x2="884.17" y2="291.38" style="fill:none;stroke:#d9d9d9;stroke-linejoin:round;stroke-width:1.35486995250761px"/></g><g style="clip-path:url(#clip-path)"><path d="M64.74,291.38v18.29m273.14-18.29v18.29M611,291.38v18.29m273.14-18.29v18.29" style="fill:none;stroke:#d9d9d9;stroke-linejoin:round;stroke-width:1.35486995250761px"/></g><g style="clip-path:url(#clip-path)"><path d="M64.74,309.67V328m273.14-18.29V328M611,309.67V328m273.14-18.29V328" style="fill:none;stroke:#d9d9d9;stroke-linejoin:round;stroke-width:1.35486995250761px"/></g><g style="clip-path:url(#clip-path-6)"><polyline points="98.89 167.82 167.17 132.05 235.46 99.13 303.74 82.6 372.03 71.62 440.31 57.94 508.6 77.18 576.88 90.86 645.17 121.08 713.45 140.31 781.74 154 850.02 170.53" style="fill:none;stroke:#ff25f3;stroke-linecap:round;stroke-linejoin:round;stroke-width:2.43876588759485px"/></g><g style="clip-path:url(#clip-path)"><polygon points="96.02 165.01 101.71 165.01 101.71 170.7 96.02 170.7 96.02 165.01 96.02 165.01" style="fill:#ff25f3;fill-rule:evenodd"/><polygon points="164.31 129.24 170 129.24 170 134.93 164.31 134.93 164.31 129.24 164.31 129.24" style="fill:#ff25f3;fill-rule:evenodd"/><polygon points="232.59 96.32 238.28 96.32 238.28 102.01 232.59 102.01 232.59 96.32 232.59 96.32" style="fill:#ff25f3;fill-rule:evenodd"/><polygon points="300.88 79.79 306.57 79.79 306.57 85.48 300.88 85.48 300.88 79.79 300.88 79.79" style="fill:#ff25f3;fill-rule:evenodd"/><polygon points="369.17 68.81 374.86 68.81 374.86 74.5 369.17 74.5 369.17 68.81 369.17 68.81" style="fill:#ff25f3;fill-rule:evenodd"/><polygon points="437.45 55.13 443.14 55.13 443.14 60.82 437.45 60.82 437.45 55.13 437.45 55.13" style="fill:#ff25f3;fill-rule:evenodd"/><polygon points="505.74 74.37 511.43 74.37 511.43 80.06 505.74 80.06 505.74 74.37 505.74 74.37" style="fill:#ff25f3;fill-rule:evenodd"/><polygon points="574.02 88.05 579.71 88.05 579.71 93.74 574.02 93.74 574.02 88.05 574.02 88.05" style="fill:#ff25f3;fill-rule:evenodd"/><polygon points="642.31 118.27 648 118.27 648 123.95 642.31 123.95 642.31 118.27 642.31 118.27" style="fill:#ff25f3;fill-rule:evenodd"/><polygon points="710.59 137.5 716.28 137.5 716.28 143.19 710.59 143.19 710.59 137.5 710.59 137.5" style="fill:#ff25f3;fill-rule:evenodd"/><polygon points="778.88 151.19 784.57 151.19 784.57 156.88 778.88 156.88 778.88 151.19 778.88 151.19" style="fill:#ff25f3;fill-rule:evenodd"/><polygon points="847.16 167.72 852.85 167.72 852.85 173.41 847.16 173.41 847.16 167.72 847.16 167.72" style="fill:#ff25f3;fill-rule:evenodd"/></g><g style="clip-path:url(#clip-path-6)"><polyline points="98.89 181.5 167.17 148.58 235.46 115.52 303.74 99.13 372.03 88.15 440.31 71.62 508.6 88.15 576.88 99.13 645.17 126.63 713.45 148.58 781.74 162.26 850.02 181.5" style="fill:none;stroke:#06f;stroke-linecap:round;stroke-linejoin:round;stroke-width:2.43876588759485px"/></g><g style="clip-path:url(#clip-path)"><path d="M101.71,181.54a2.85,2.85,0,1,1-2.84-2.85,2.84,2.84,0,0,1,2.84,2.85Z" style="fill:#06f"/><path d="M101.71,181.54a2.85,2.85,0,1,1-2.84-2.85,2.84,2.84,0,0,1,2.84,2.85Z" style="fill:none;stroke:#06f;stroke-linejoin:round;stroke-width:0.812922052261115px"/><path d="M170,148.61a2.85,2.85,0,1,1-2.85-2.84,2.84,2.84,0,0,1,2.85,2.84Z" style="fill:#06f"/><path d="M170,148.61a2.85,2.85,0,1,1-2.85-2.84,2.84,2.84,0,0,1,2.85,2.84Z" style="fill:none;stroke:#06f;stroke-linejoin:round;stroke-width:0.812922052261115px"/><path d="M238.28,115.55a2.85,2.85,0,1,1-2.84-2.84,2.84,2.84,0,0,1,2.84,2.84Z" style="fill:#06f"/><path d="M238.28,115.55a2.85,2.85,0,1,1-2.84-2.84,2.84,2.84,0,0,1,2.84,2.84Z" style="fill:none;stroke:#06f;stroke-linejoin:round;stroke-width:0.812922052261115px"/><path d="M306.57,99.16a2.85,2.85,0,1,1-2.85-2.84,2.85,2.85,0,0,1,2.85,2.84Z" style="fill:#06f"/><path d="M306.57,99.16a2.85,2.85,0,1,1-2.85-2.84,2.85,2.85,0,0,1,2.85,2.84Z" style="fill:none;stroke:#06f;stroke-linejoin:round;stroke-width:0.812922052261115px"/><path d="M374.86,88.19A2.85,2.85,0,1,1,372,85.34a2.85,2.85,0,0,1,2.85,2.85Z" style="fill:#06f"/><path d="M374.86,88.19A2.85,2.85,0,1,1,372,85.34a2.85,2.85,0,0,1,2.85,2.85Z" style="fill:none;stroke:#06f;stroke-linejoin:round;stroke-width:0.812922052261115px"/><path d="M443.14,71.66a2.85,2.85,0,1,1-2.84-2.85,2.84,2.84,0,0,1,2.84,2.85Z" style="fill:#06f"/><path d="M443.14,71.66a2.85,2.85,0,1,1-2.84-2.85,2.84,2.84,0,0,1,2.84,2.85Z" style="fill:none;stroke:#06f;stroke-linejoin:round;stroke-width:0.812922052261115px"/><path d="M511.43,88.19a2.85,2.85,0,1,1-2.85-2.85,2.85,2.85,0,0,1,2.85,2.85Z" style="fill:#06f"/><path d="M511.43,88.19a2.85,2.85,0,1,1-2.85-2.85,2.85,2.85,0,0,1,2.85,2.85Z" style="fill:none;stroke:#06f;stroke-linejoin:round;stroke-width:0.812922052261115px"/><path d="M579.71,99.16a2.85,2.85,0,1,1-2.84-2.84,2.85,2.85,0,0,1,2.84,2.84Z" style="fill:#06f"/><path d="M579.71,99.16a2.85,2.85,0,1,1-2.84-2.84,2.85,2.85,0,0,1,2.84,2.84Z" style="fill:none;stroke:#06f;stroke-linejoin:round;stroke-width:0.812922052261115px"/><path d="M648,126.66a2.85,2.85,0,1,1-2.85-2.84,2.85,2.85,0,0,1,2.85,2.84Z" style="fill:#06f"/><path d="M648,126.66a2.85,2.85,0,1,1-2.85-2.84,2.85,2.85,0,0,1,2.85,2.84Z" style="fill:none;stroke:#06f;stroke-linejoin:round;stroke-width:0.812922052261115px"/><path d="M716.28,148.61a2.85,2.85,0,1,1-2.84-2.84,2.84,2.84,0,0,1,2.84,2.84Z" style="fill:#06f"/><path d="M716.28,148.61a2.85,2.85,0,1,1-2.84-2.84,2.84,2.84,0,0,1,2.84,2.84Z" style="fill:none;stroke:#06f;stroke-linejoin:round;stroke-width:0.812922052261115px"/><path d="M784.57,162.3a2.85,2.85,0,1,1-2.85-2.85,2.85,2.85,0,0,1,2.85,2.85Z" style="fill:#06f"/><path d="M784.57,162.3a2.85,2.85,0,1,1-2.85-2.85,2.85,2.85,0,0,1,2.85,2.85Z" style="fill:none;stroke:#06f;stroke-linejoin:round;stroke-width:0.812922052261115px"/><path d="M852.85,181.54a2.85,2.85,0,1,1-2.84-2.85,2.84,2.84,0,0,1,2.84,2.85Z" style="fill:#06f"/><path d="M852.85,181.54a2.85,2.85,0,1,1-2.84-2.85,2.84,2.84,0,0,1,2.84,2.85Z" style="fill:none;stroke:#06f;stroke-linejoin:round;stroke-width:0.812922052261115px"/></g><g style="clip-path:url(#clip-path-10)"><text transform="translate(36.25 294.56)" style="font-size:10.161529541015625px;font-family:ArialMT, Arial"><tspan style="letter-spacing:0.0029792205374009305em">0</tspan><tspan x="5.68" y="0" style="letter-spacing:0.0020181816543683724em">.</tspan><tspan x="8.53" y="0" style="letter-spacing:-0.009033765500506047em">0</tspan><tspan x="14.08" y="0">0</tspan></text></g><g style="clip-path:url(#clip-path-10)"><text transform="translate(36.25 225.92)" style="font-size:10.161529541015625px;font-family:ArialMT, Arial"><tspan style="letter-spacing:0.0029792205374009305em">0</tspan><tspan x="5.68" y="0" style="letter-spacing:0.0020181816543683724em">.</tspan><tspan x="8.53" y="0" style="letter-spacing:-0.009033765500506047em">2</tspan><tspan x="14.08" y="0">5</tspan></text></g><g style="clip-path:url(#clip-path-10)"><text transform="translate(36.25 157.27)" style="font-size:10.161529541015625px;font-family:ArialMT, Arial"><tspan style="letter-spacing:0.0029792205374009305em">0</tspan><tspan x="5.68" y="0" style="letter-spacing:0.0020181816543683724em">.</tspan><tspan x="8.53" y="0" style="letter-spacing:-0.009033765500506047em">5</tspan><tspan x="14.08" y="0">0</tspan></text></g><g style="clip-path:url(#clip-path-10)"><text transform="translate(36.25 88.62)" style="font-size:10.161529541015625px;font-family:ArialMT, Arial"><tspan style="letter-spacing:0.0029792205374009305em">0</tspan><tspan x="5.68" y="0" style="letter-spacing:0.0020181816543683724em">.</tspan><tspan x="8.53" y="0" style="letter-spacing:-0.009033765500506047em">7</tspan><tspan x="14.08" y="0">5</tspan></text></g><g style="clip-path:url(#clip-path-10)"><text transform="translate(36.25 19.97)" style="font-size:10.161529541015625px;font-family:ArialMT, Arial"><tspan style="letter-spacing:0.0029792205374009305em">1</tspan><tspan x="5.68" y="0" style="letter-spacing:0.0020181816543683724em">.</tspan><tspan x="8.53" y="0" style="letter-spacing:-0.009033765500506047em">0</tspan><tspan x="14.08" y="0">0</tspan></text></g><g style="clip-path:url(#clip-path-10)"><text transform="translate(96.09 306.67)" style="font-size:10.161529541015625px;font-family:ArialMT, Arial">1</text></g><g style="clip-path:url(#clip-path-10)"><text transform="translate(164.37 306.67)" style="font-size:10.161529541015625px;font-family:ArialMT, Arial">2</text></g><g style="clip-path:url(#clip-path-10)"><text transform="translate(232.66 306.67)" style="font-size:10.161529541015625px;font-family:ArialMT, Arial">3</text></g><g style="clip-path:url(#clip-path-10)"><text transform="translate(300.94 306.67)" style="font-size:10.161529541015625px;font-family:ArialMT, Arial">4</text></g><g style="clip-path:url(#clip-path-10)"><text transform="translate(369.23 306.67)" style="font-size:10.161529541015625px;font-family:ArialMT, Arial">1</text></g><g style="clip-path:url(#clip-path-10)"><text transform="translate(437.52 306.67)" style="font-size:10.161529541015625px;font-family:ArialMT, Arial">2</text></g><g style="clip-path:url(#clip-path-10)"><text transform="translate(505.81 306.67)" style="font-size:10.161529541015625px;font-family:ArialMT, Arial">3</text></g><g style="clip-path:url(#clip-path-10)"><text transform="translate(574.09 306.67)" style="font-size:10.161529541015625px;font-family:ArialMT, Arial">4</text></g><g style="clip-path:url(#clip-path-10)"><text transform="translate(642.38 306.67)" style="font-size:10.161529541015625px;font-family:ArialMT, Arial">1</text></g><g style="clip-path:url(#clip-path-10)"><text transform="translate(710.67 306.67)" style="font-size:10.161529541015625px;font-family:ArialMT, Arial">2</text></g><g style="clip-path:url(#clip-path-10)"><text transform="translate(778.96 306.67)" style="font-size:10.161529541015625px;font-family:ArialMT, Arial">3</text></g><g style="clip-path:url(#clip-path-10)"><text transform="translate(847.25 306.67)" style="font-size:10.161529541015625px;font-family:ArialMT, Arial">4</text></g><g style="clip-path:url(#clip-path-10)"><text transform="translate(192.3 324.99)" style="font-size:10.161529541015625px;font-family:ArialMT, Arial">S<tspan x="6.78" y="0" style="letter-spacing:0.0030753244257041863em">e</tspan><tspan x="12.46" y="0" style="letter-spacing:-0.00009610388830325582em">p</tspan></text></g><g style="clip-path:url(#clip-path-10)"><text transform="translate(466.59 324.99)" style="font-size:10.161529541015625px;font-family:ArialMT, Arial"><tspan style="letter-spacing:-0.004036363308736745em">O</tspan><tspan x="7.86" y="0" style="letter-spacing:0.005958441074801861em">c</tspan><tspan x="13" y="0">t</tspan></text></g><g style="clip-path:url(#clip-path-10)"><text transform="translate(738.61 324.99)" style="font-size:10.161529541015625px;font-family:ArialMT, Arial"><tspan style="letter-spacing:-0.0019220777660651164em">N</tspan><tspan x="7.32" y="0" style="letter-spacing:0.0029792205374009305em">o</tspan><tspan x="13" y="0">v</tspan></text></g><g style="clip-path:url(#clip-path-10)"><text transform="translate(28.18 153.29) rotate(-90)" style="font-size:11.245420455932617px;font-family:Arial-BoldMT, Arial;font-weight:700">ND<tspan x="16.24" y="0" style="letter-spacing:-0.003994681672956131em">V</tspan><tspan x="23.7" y="0">I</tspan><tspan x="26.82" y="0" style="letter-spacing:0.011028795053596274em"> </tspan><tspan x="30.07" y="0"> </tspan><tspan x="33.19" y="0" style="letter-spacing:-0.003994681672956131em">V</tspan><tspan x="40.65" y="0" style="letter-spacing:-0.001042090871205947em">a</tspan><tspan x="46.89" y="0" style="letter-spacing:0.00008684090593382892em">l</tspan><tspan x="50.02" y="0" style="letter-spacing:0.0029525908017501833em">u</tspan><tspan x="56.92" y="0" style="letter-spacing:0.00008684090593382892em">e</tspan></text></g><g style="clip-path:url(#clip-path-10)"><text transform="translate(403.56 337.82)" style="font-size:11.245420455932617px;font-family:Arial-BoldMT, Arial;font-weight:700"><tspan style="letter-spacing:0.006947272474706314em">W</tspan><tspan x="10.69" y="0" style="letter-spacing:-0.0009552499652721182em">ee</tspan><tspan x="23.18" y="0">k</tspan></text></g><polygon points="4.04 1.85 896.09 1.85 896.09 348.15 4.04 348.15 4.04 1.85 4.04 1.85" style="fill:none;stroke:#d9d9d9;stroke-linejoin:round;stroke-width:0.812922052261115px"/></svg>