<svg id="Layer_1" data-name="Layer 1" xmlns="http://www.w3.org/2000/svg" xmlns:xlink="http://www.w3.org/1999/xlink" viewBox="0 0 900 350"><defs><clipPath id="clip-path"><polygon points="3.54 347.04 895.34 347.04 895.34 0.77 3.54 0.77 3.54 347.04 3.54 347.04" style="fill:none;clip-rule:evenodd"/></clipPath><clipPath id="clip-path-3"><polygon points="99.71 303.77 882.18 303.77 882.18 24.09 99.71 24.09 99.71 303.77 99.71 303.77" style="fill:none;clip-rule:evenodd"/></clipPath><clipPath id="clip-path-5"><rect x="3.54" y="0.77" width="891.79" height="346.27" style="fill:none"/></clipPath></defs><title>price-volatility</title><polygon points="3.68 0.9 895.34 0.9 895.34 347.17 3.68 347.17 3.68 0.9 3.68 0.9" style="fill:#eaeaea;fill-rule:evenodd"/><polygon points="99.71 24.09 881.5 24.09 881.5 303.09 99.71 303.09 99.71 24.09 99.71 24.09" style="fill:#fff;fill-rule:evenodd"/><path d="M99.71,236.63H881.5M99.71,170.17H881.5M99.71,103.85H881.5M99.71,37.39H881.5" style="fill:none;stroke:#d9d9d9;stroke-linejoin:round;stroke-width:0.813802264467114px"/><g style="clip-path:url(#clip-path)"><path d="M99.71,24.09v279M165,24.09v279m65.1-279v279m65.11-279v279m65.1-279v279m65.24-279v279m65.1-279v279m65.11-279v279M621,24.09v279m65.1-279v279m65.11-279v279m65.1-279v279m65.24-279v279" style="fill:none;stroke:#d9d9d9;stroke-linejoin:round;stroke-width:0.813802264467114px"/></g><g style="clip-path:url(#clip-path)"><line x1="99.71" y1="303.09" x2="881.5" y2="303.09" style="fill:none;stroke:#d9d9d9;stroke-linejoin:round;stroke-width:0.813802264467114px"/></g><g style="clip-path:url(#clip-path-3)"><polyline points="132.4 183.46 197.5 187.53 262.6 188.21 327.71 189.43 392.95 189.7 458.05 170.04 523.16 152.27 588.26 138.03 653.5 116.6 718.6 124.46 783.71 112.26 848.81 96.93" style="fill:none;stroke:#ff25f3;stroke-linecap:round;stroke-linejoin:round;stroke-width:2.44140672603135px"/></g><g style="clip-path:url(#clip-path-3)"><polyline points="132.4 176.82 197.5 180.07 262.6 177.09 327.71 175.87 392.95 175.6 458.05 201.91 523.16 212.08 588.26 216.42 653.5 221.98 718.6 221.71 783.71 174.24 848.81 126.77" style="fill:none;stroke:#06f;stroke-linecap:round;stroke-linejoin:round;stroke-width:2.44140672603135px"/></g><g style="clip-path:url(#clip-path-5)"><text transform="translate(59.91 306.29)" style="font-size:10.172530174255371px;font-family:ArialMT, Arial"><tspan style="letter-spacing:0.002015999181000333em"> </tspan><tspan x="2.85" y="0" style="letter-spacing:0.0029759987910004913em">1</tspan><tspan x="8.53" y="0" style="letter-spacing:-0.010943995554001806em">,</tspan><tspan x="11.25" y="0" style="letter-spacing:0.0029759987910004913em">00</tspan><tspan x="22.63" y="0">0</tspan></text></g><g style="clip-path:url(#clip-path-5)"><text transform="translate(54.25 239.88)" style="font-size:10.172530174255371px;font-family:ArialMT, Arial"><tspan style="letter-spacing:0.002015999181000333em"> </tspan><tspan x="2.85" y="0" style="letter-spacing:0.0029759987910004913em">4</tspan><tspan x="8.53" y="0" style="letter-spacing:-0.008927996373001474em">6</tspan><tspan x="14.1" y="0" style="letter-spacing:0.002015999181000333em">,</tspan><tspan x="16.95" y="0" style="letter-spacing:0.0029759987910004913em">00</tspan><tspan x="28.32" y="0">0</tspan></text></g><g style="clip-path:url(#clip-path-5)"><text transform="translate(54.25 173.47)" style="font-size:10.172530174255371px;font-family:ArialMT, Arial"><tspan style="letter-spacing:0.002015999181000333em"> </tspan><tspan x="2.85" y="0" style="letter-spacing:0.0029759987910004913em">9</tspan><tspan x="8.53" y="0" style="letter-spacing:-0.008927996373001474em">1</tspan><tspan x="14.1" y="0" style="letter-spacing:0.002015999181000333em">,</tspan><tspan x="16.95" y="0" style="letter-spacing:0.0029759987910004913em">00</tspan><tspan x="28.32" y="0">0</tspan></text></g><g style="clip-path:url(#clip-path-5)"><text transform="translate(45.77 107.05)" style="font-size:10.172530174255371px;font-family:ArialMT, Arial"><tspan style="letter-spacing:0.002015999181000333em"> </tspan><tspan x="2.85" y="0" style="letter-spacing:0.0029759987910004913em">1</tspan><tspan x="8.53" y="0" style="letter-spacing:-0.010943995554001806em">,</tspan><tspan x="11.25" y="0" style="letter-spacing:0.0029759987910004913em">36</tspan><tspan x="22.63" y="0" style="letter-spacing:0.002015999181000333em">,</tspan><tspan x="25.47" y="0" style="letter-spacing:-0.009023996334001489em">0</tspan><tspan x="31.04" y="0" style="letter-spacing:0.003071998752000507em">0</tspan><tspan x="36.73" y="0">0</tspan></text></g><g style="clip-path:url(#clip-path-5)"><text transform="translate(45.77 40.63)" style="font-size:10.172530174255371px;font-family:ArialMT, Arial"><tspan style="letter-spacing:0.002015999181000333em"> </tspan><tspan x="2.85" y="0" style="letter-spacing:0.0029759987910004913em">1</tspan><tspan x="8.53" y="0" style="letter-spacing:-0.010943995554001806em">,</tspan><tspan x="11.25" y="0" style="letter-spacing:0.0029759987910004913em">81</tspan><tspan x="22.63" y="0" style="letter-spacing:0.002015999181000333em">,</tspan><tspan x="25.47" y="0" style="letter-spacing:-0.009023996334001489em">0</tspan><tspan x="31.04" y="0" style="letter-spacing:0.003071998752000507em">0</tspan><tspan x="36.73" y="0">0</tspan></text></g><g style="clip-path:url(#clip-path-5)"><text transform="translate(124.13 318.41)" style="font-size:10.172530174255371px;font-family:ArialMT, Arial;letter-spacing:0.006047997543000998em">J<tspan x="5.15" y="0" style="letter-spacing:-0.009023996334001489em">a</tspan><tspan x="10.71" y="0" style="letter-spacing:0.00009599996100001584em">n</tspan></text></g><g style="clip-path:url(#clip-path-5)"><text transform="translate(188.71 318.41)" style="font-size:10.172530174255371px;font-family:ArialMT, Arial"><tspan style="letter-spacing:0.002015999181000333em">F</tspan><tspan x="6.23" y="0" style="letter-spacing:0.0029759987910004913em">e</tspan><tspan x="11.92" y="0">b</tspan></text></g><g style="clip-path:url(#clip-path-5)"><text transform="translate(253.86 318.41)" style="font-size:10.172530174255371px;font-family:ArialMT, Arial"><tspan style="letter-spacing:-0.005951997582000983em">M</tspan><tspan x="8.41" y="0" style="letter-spacing:0.0029759987910004913em">a</tspan><tspan x="14.1" y="0">r</tspan></text></g><g style="clip-path:url(#clip-path-5)"><text transform="translate(319.83 318.41)" style="font-size:10.172530174255371px;font-family:ArialMT, Arial">A<tspan x="6.79" y="0" style="letter-spacing:0.0029759987910004913em">p</tspan><tspan x="12.47" y="0">r</tspan></text></g><g style="clip-path:url(#clip-path-5)"><text transform="translate(383.28 318.41)" style="font-size:10.172530174255371px;font-family:ArialMT, Arial"><tspan style="letter-spacing:-0.005951997582000983em">M</tspan><tspan x="8.41" y="0" style="letter-spacing:0.0029759987910004913em">a</tspan><tspan x="14.1" y="0">y</tspan></text></g><g style="clip-path:url(#clip-path-5)"><text transform="translate(449.83 318.41)" style="font-size:10.172530174255371px;font-family:ArialMT, Arial;letter-spacing:0.006047997543000998em">J<tspan x="5.15" y="0" style="letter-spacing:-0.009023996334001489em">u</tspan><tspan x="10.71" y="0" style="letter-spacing:0.00009599996100001584em">n</tspan></text></g><g style="clip-path:url(#clip-path-5)"><text transform="translate(516.66 318.41)" style="font-size:10.172530174255371px;font-family:ArialMT, Arial;letter-spacing:0.006047997543000998em">J<tspan x="5.15" y="0" style="letter-spacing:-0.009023996334001489em">u</tspan><tspan x="10.71" y="0" style="letter-spacing:0.00009599996100001584em">l</tspan></text></g><g style="clip-path:url(#clip-path-5)"><text transform="translate(579.25 318.41)" style="font-size:10.172530174255371px;font-family:ArialMT, Arial">A<tspan x="6.79" y="0" style="letter-spacing:0.0029759987910004913em">u</tspan><tspan x="12.47" y="0" style="letter-spacing:0.00009599996100001584em">g</tspan></text></g><g style="clip-path:url(#clip-path-5)"><text transform="translate(644.4 318.41)" style="font-size:10.172530174255371px;font-family:ArialMT, Arial">S<tspan x="6.79" y="0" style="letter-spacing:0.0029759987910004913em">e</tspan><tspan x="12.47" y="0" style="letter-spacing:0.00009599996100001584em">p</tspan></text></g><g style="clip-path:url(#clip-path-5)"><text transform="translate(710.68 318.41)" style="font-size:10.172530174255371px;font-family:ArialMT, Arial"><tspan style="letter-spacing:-0.00393599840100065em">O</tspan><tspan x="7.87" y="0" style="letter-spacing:0.006047997543000998em">c</tspan><tspan x="13.02" y="0">t</tspan></text></g><g style="clip-path:url(#clip-path-5)"><text transform="translate(774.68 318.41)" style="font-size:10.172530174255371px;font-family:ArialMT, Arial;letter-spacing:-0.002015999181000333em">N<tspan x="7.33" y="0" style="letter-spacing:0.0029759987910004913em">o</tspan><tspan x="13.01" y="0" style="letter-spacing:0.00009599996100001584em">v</tspan></text></g><g style="clip-path:url(#clip-path-5)"><text transform="translate(839.82 318.41)" style="font-size:10.172530174255371px;font-family:ArialMT, Arial;letter-spacing:-0.002015999181000333em">D<tspan x="7.33" y="0" style="letter-spacing:0.0029759987910004913em">e</tspan><tspan x="13.01" y="0" style="letter-spacing:0.00009599996100001584em">c</tspan></text></g><g style="clip-path:url(#clip-path-5)"><text transform="translate(26.99 229.65) rotate(-90)" style="font-size:11.257599830627441px;font-family:Arial-BoldMT, Arial;font-weight:700"><tspan style="letter-spacing:0.021946979482057993em">M</tspan><tspan x="9.63" y="0" style="letter-spacing:-0.0009542164992199127em">a</tspan><tspan x="15.88" y="0" style="letter-spacing:-0.0029493964521342757em">r</tspan><tspan x="20.22" y="0" style="letter-spacing:-0.0010409634536944503em">ke</tspan><tspan x="32.72" y="0" style="letter-spacing:0.003990359905828726em">t</tspan><tspan x="36.52" y="0"> </tspan><tspan x="39.64" y="0" style="letter-spacing:-0.004077106860303264em">P</tspan><tspan x="47.11" y="0" style="letter-spacing:-0.0029493964521342757em">r</tspan><tspan x="51.45" y="0">i</tspan><tspan x="54.58" y="0" style="letter-spacing:-0.0010409634536944503em">ce</tspan><tspan x="67.08" y="0" style="letter-spacing:0.022987942935752445em"> </tspan><tspan x="70.47" y="0" style="letter-spacing:0.003990359905828726em">(</tspan><tspan x="74.26" y="0">R</tspan><tspan x="82.39" y="0" style="letter-spacing:-0.0009542164992199127em">s</tspan><tspan x="88.64" y="0" style="letter-spacing:-0.00008674695447453752em">./</tspan><tspan x="94.9" y="0" style="letter-spacing:0.021946979482057993em">M</tspan><tspan x="104.52" y="0" style="letter-spacing:0.015007223124094991em">T</tspan><tspan x="111.57" y="0">)</tspan></text></g><g style="clip-path:url(#clip-path-5)"><text transform="translate(467.63 340.73)" style="font-size:11.257599830627441px;font-family:Arial-BoldMT, Arial;font-weight:700;letter-spacing:0.021946979482057993em">M<tspan x="9.63" y="0" style="letter-spacing:0.0030361434066088133em">on</tspan><tspan x="23.45" y="0" style="letter-spacing:0.003990359905828726em">t</tspan><tspan x="27.24" y="0" style="letter-spacing:0.0029493964521342757em">h</tspan><tspan x="34.15" y="0" style="letter-spacing:-0.0009542164992199127em">s</tspan><tspan x="40.4" y="0" style="letter-spacing:-0.00008674695447453752em"> </tspan></text></g><g style="clip-path:url(#clip-path)"><line x1="349.95" y1="15.96" x2="371.65" y2="15.96" style="fill:none;stroke:#ff25f3;stroke-linecap:round;stroke-linejoin:round;stroke-width:2.44140672603135px"/></g><g style="clip-path:url(#clip-path-5)"><text transform="translate(373.92 18.77)" style="font-size:9.087459564208984px;font-family:Arial-BoldMT, Arial;font-weight:700"><tspan style="letter-spacing:-0.00494328196814488em">A</tspan><tspan x="6.52" y="0" style="letter-spacing:0.003976118104812186em">P</tspan><tspan x="12.62" y="0" style="letter-spacing:-0.009026862724438476em"> </tspan><tspan x="15.06" y="0" style="letter-spacing:-0.003976118104812186em">(</tspan><tspan x="18.05" y="0" style="letter-spacing:-0.005050744619626291em">R</tspan><tspan x="24.56" y="0" style="letter-spacing:0.00999402658777117em">-</tspan><tspan x="27.68" y="0" style="letter-spacing:-0.0029014915899980816em">1</tspan><tspan x="32.71" y="0">)</tspan></text></g><g style="clip-path:url(#clip-path)"><line x1="458.05" y1="15.96" x2="479.75" y2="15.96" style="fill:none;stroke:#06f;stroke-linecap:round;stroke-linejoin:round;stroke-width:2.44140672603135px"/></g><g style="clip-path:url(#clip-path-5)"><text transform="translate(482.04 18.77)" style="font-size:9.087459564208984px;font-family:Arial-BoldMT, Arial;font-weight:700"><tspan style="letter-spacing:0.0010746265148141043em">T</tspan><tspan x="5.56" y="0" style="letter-spacing:-0.010101489239252581em">E</tspan><tspan x="11.53" y="0" style="letter-spacing:0.0010746265148141043em">L</tspan><tspan x="17.09" y="0" style="letter-spacing:-0.009026862724438476em"> </tspan><tspan x="19.53" y="0" style="letter-spacing:0.00999402658777117em">(</tspan><tspan x="22.65" y="0" style="letter-spacing:-0.00494328196814488em">R</tspan><tspan x="29.17" y="0" style="letter-spacing:-0.004083580756293596em">-</tspan><tspan x="32.16" y="0" style="letter-spacing:-0.0029014915899980816em">21</tspan><tspan x="42.21" y="0">)</tspan></text></g><polygon points="3.68 0.9 895.34 0.9 895.34 347.17 3.68 347.17 3.68 0.9 3.68 0.9" style="fill:none;stroke:#d9d9d9;stroke-linejoin:round;stroke-width:0.81380233183711px"/></svg>