<svg id="Layer_1" data-name="Layer 1" xmlns="http://www.w3.org/2000/svg" xmlns:xlink="http://www.w3.org/1999/xlink" viewBox="0 0 900 350"><defs><clipPath id="clip-path"><polygon points="5.33 5.03 895.83 5.03 895.83 342.92 5.33 342.92 5.33 5.03 5.33 5.03" style="fill:none;clip-rule:evenodd"/></clipPath><clipPath id="clip-path-2"><polygon points="5.33 5.03 93.53 5.03 93.53 93.95 5.33 93.95 5.33 5.03 5.33 5.03" style="fill:none;clip-rule:evenodd"/></clipPath><clipPath id="clip-path-4"><polygon points="5.33 5.03 895.83 5.03 895.83 93.95 5.33 93.95 5.33 5.03 5.33 5.03" style="fill:none;clip-rule:evenodd"/></clipPath><clipPath id="clip-path-6"><polygon points="361.53 94.8 716.88 94.8 716.88 205.73 361.53 205.73 361.53 94.8 361.53 94.8" style="fill:none;clip-rule:evenodd"/></clipPath><clipPath id="clip-path-7"><polygon points="450.58 206.58 805.93 206.58 805.93 317.52 450.58 317.52 450.58 206.58 450.58 206.58" style="fill:none;clip-rule:evenodd"/></clipPath><clipPath id="clip-path-8"><polygon points="5.33 318.36 894.98 318.36 894.98 342.07 5.33 342.07 5.33 318.36 5.33 318.36" style="fill:none;clip-rule:evenodd"/></clipPath><clipPath id="clip-path-9"><polygon points="4.48 4.18 895.83 4.18 895.83 342.92 4.48 342.92 4.48 4.18 4.48 4.18" style="fill:none;clip-rule:evenodd"/></clipPath></defs><title>seasonal-calendar</title><g style="clip-path:url(#clip-path)"><polyline points="4.48 4.18 4.48 94.8 895.83 94.8 895.83 4.18 4.48 4.18" style="fill:#d9d9d9;fill-rule:evenodd"/><polyline points="894.98 4.18 894.98 94.8 914.48 94.8 914.48 4.18 894.98 4.18" style="fill:#fff;fill-rule:evenodd"/><polyline points="4.48 93.95 4.48 206.58 183.43 206.58 183.43 93.95 4.48 93.95" style="fill:#f2f2f2;fill-rule:evenodd"/><polyline points="182.58 93.95 182.58 206.58 272.48 206.58 272.48 93.95 182.58 93.95" style="fill:#fff;fill-rule:evenodd"/><polyline points="271.63 93.95 271.63 206.58 361.53 206.58 361.53 93.95 271.63 93.95" style="fill:#5e9fff;fill-rule:evenodd"/><polyline points="360.68 93.95 360.68 206.58 717.73 206.58 717.73 93.95 360.68 93.95" style="fill:#06f;fill-rule:evenodd"/><polyline points="716.88 93.95 716.88 206.58 806.78 206.58 806.78 93.95 716.88 93.95" style="fill:#0044ab;fill-rule:evenodd"/><polyline points="805.93 93.95 805.93 206.58 914.48 206.58 914.48 93.95 805.93 93.95" style="fill:#fff;fill-rule:evenodd"/><polyline points="4.48 205.73 4.48 318.36 183.43 318.36 183.43 205.73 4.48 205.73" style="fill:#f2f2f2;fill-rule:evenodd"/><polyline points="182.58 205.73 182.58 318.36 361.53 318.36 361.53 205.73 182.58 205.73" style="fill:#fff;fill-rule:evenodd"/><polyline points="360.68 205.73 360.68 318.36 450.58 318.36 450.58 205.73 360.68 205.73" style="fill:#5e9fff;fill-rule:evenodd"/><polyline points="449.73 205.73 449.73 318.36 806.78 318.36 806.78 205.73 449.73 205.73" style="fill:#06f;fill-rule:evenodd"/><polyline points="805.93 205.73 805.93 318.36 895.83 318.36 895.83 205.73 805.93 205.73" style="fill:#0044ab;fill-rule:evenodd"/><polyline points="894.98 205.73 894.98 318.36 914.48 318.36 914.48 205.73 894.98 205.73" style="fill:#fff;fill-rule:evenodd"/><polyline points="4.48 317.52 4.48 359.01 914.48 359.01 914.48 317.52 4.48 317.52" style="fill:#fff;fill-rule:evenodd"/></g><g style="clip-path:url(#clip-path-2)"><text transform="translate(13.81 46.53)" style="font-size:11.008959770202637px;font-family:Arial-BoldMT, Arial;font-weight:700"><tspan style="letter-spacing:-0.028964046623458393em">A</tspan><tspan x="7.63" y="0" style="letter-spacing:0.003985877975705283em">g</tspan><tspan x="14.4" y="0" style="letter-spacing:-0.003985877975705283em">r</tspan><tspan x="18.64" y="0" style="letter-spacing:0.003985877975705283em">o</tspan><tspan x="25.41" y="0" style="letter-spacing:-0.025066743713879895em">-</tspan><tspan x="28.8" y="0" style="letter-spacing:-0.017006412696342548em">c</tspan><tspan x="34.73" y="0" style="letter-spacing:0.028964046623458393em">li</tspan><tspan x="41.49" y="0" style="letter-spacing:0.03303849966529047em">m</tspan><tspan x="51.64" y="0" style="letter-spacing:0.05899099404043819em">a</tspan><tspan x="58.42" y="0" style="letter-spacing:-0.025066743713879895em">t</tspan><tspan x="61.81" y="0" style="letter-spacing:0.028964046623458393em">i</tspan><tspan x="65.18" y="0" style="letter-spacing:-0.017006412696342548em">c</tspan><tspan x="71.12" y="0"> </tspan></text><text transform="translate(36.71 60.92)" style="font-size:11.008959770202637px;font-family:Arial-BoldMT, Arial;font-weight:700"><tspan style="letter-spacing:0.037998703368390375em">z</tspan><tspan x="5.92" y="0" style="letter-spacing:0.003985877975705283em">on</tspan><tspan x="19.46" y="0">e</tspan></text></g><g style="clip-path:url(#clip-path)"><text transform="translate(119.82 53.3)" style="font-size:11.008959770202637px;font-family:Arial-BoldMT, Arial;font-weight:700"><tspan style="letter-spacing:-0.028964046623458393em">R</tspan><tspan x="7.63" y="0" style="letter-spacing:0.05899099404043819em">e</tspan><tspan x="14.4" y="0" style="letter-spacing:0.003985877975705283em">g</tspan><tspan x="21.17" y="0" style="letter-spacing:0.028964046623458393em">i</tspan><tspan x="24.55" y="0" style="letter-spacing:0.004074453041832068em">o</tspan><tspan x="31.32" y="0">n</tspan></text><text transform="translate(216.51 53.3)" style="font-size:11.008959770202637px;font-family:Arial-BoldMT, Arial;font-weight:700"><tspan style="letter-spacing:0.012931959654510477em">M</tspan><tspan x="9.31" y="0" style="letter-spacing:0.05899099404043819em">a</tspan><tspan x="16.09" y="0">y</tspan></text><text transform="translate(307.25 53.3)" style="font-size:11.008959770202637px;font-family:Arial-BoldMT, Arial;font-weight:700;letter-spacing:-0.017006412696342548em">J<tspan x="5.94" y="0" style="letter-spacing:0.003985877975705283em">u</tspan><tspan x="12.7" y="0" style="letter-spacing:0.00008857506612678407em">n</tspan></text><text transform="translate(398 53.3)" style="font-size:11.008959770202637px;font-family:Arial-BoldMT, Arial;font-weight:700"><tspan style="letter-spacing:-0.017006412696342548em">J</tspan><tspan x="5.94" y="0" style="letter-spacing:0.003985877975705283em">u</tspan><tspan x="12.7" y="0">l</tspan></text><text transform="translate(484.51 53.3)" style="font-size:11.008959770202637px;font-family:Arial-BoldMT, Arial;font-weight:700"><tspan style="letter-spacing:-0.028964046623458393em">A</tspan><tspan x="7.63" y="0" style="letter-spacing:0.003985877975705283em">u</tspan><tspan x="14.4" y="0">g</tspan></text><text transform="translate(573.56 53.3)" style="font-size:11.008959770202637px;font-family:Arial-BoldMT, Arial;font-weight:700;letter-spacing:0.024978168647753107em">S<tspan x="7.62" y="0" style="letter-spacing:0.05899099404043819em">e</tspan><tspan x="14.39" y="0" style="letter-spacing:0.00008857506612678407em">p</tspan></text><text transform="translate(664.3 53.3)" style="font-size:11.008959770202637px;font-family:Arial-BoldMT, Arial;font-weight:700"><tspan style="letter-spacing:-0.00806033101753735em">O</tspan><tspan x="8.47" y="0" style="letter-spacing:-0.017006412696342548em">c</tspan><tspan x="14.41" y="0">t</tspan></text><text transform="translate(751.65 53.3)" style="font-size:11.008959770202637px;font-family:Arial-BoldMT, Arial;font-weight:700"><tspan style="letter-spacing:-0.028964046623458393em">N</tspan><tspan x="7.63" y="0" style="letter-spacing:0.003985877975705283em">o</tspan><tspan x="14.4" y="0">v</tspan></text></g><g style="clip-path:url(#clip-path-4)"><text transform="translate(840.7 53.3)" style="font-size:11.008959770202637px;font-family:Arial-BoldMT, Arial;font-weight:700"><tspan style="letter-spacing:-0.028964046623458393em">D</tspan><tspan x="7.63" y="0" style="letter-spacing:0.05899099404043819em">e</tspan><tspan x="14.4" y="0">c</tspan></text></g><g style="clip-path:url(#clip-path)"><text transform="translate(38.41 154.07)" style="font-size:11.008959770202637px;font-family:Arial-BoldMT, Arial;font-weight:700"><tspan style="letter-spacing:0.024978168647753107em">SP</tspan><tspan x="15.24" y="0">H</tspan></text><text transform="translate(103.72 154.07)" style="font-size:11.008959770202637px;font-family:Arial-BoldMT, Arial;font-weight:700"><tspan style="letter-spacing:-0.028964046623458393em">R</tspan><tspan x="7.63" y="0" style="letter-spacing:-0.025066743713879895em">-</tspan><tspan x="11.02" y="0" style="letter-spacing:-0.017006412696342548em">2</tspan><tspan x="16.96" y="0">1</tspan></text><text transform="translate(38.41 265.86)" style="font-size:11.008959770202637px;font-family:Arial-BoldMT, Arial;font-weight:700"><tspan style="letter-spacing:-0.051019238089027634em">E</tspan><tspan x="6.78" y="0" style="letter-spacing:0.025066743713879895em">P</tspan><tspan x="14.4" y="0">H</tspan></text><text transform="translate(103.72 265.86)" style="font-size:11.008959770202637px;font-family:Arial-BoldMT, Arial;font-weight:700"><tspan style="letter-spacing:-0.028964046623458393em">R</tspan><tspan x="7.63" y="0" style="letter-spacing:-0.025066743713879895em">-</tspan><tspan x="11.02" y="0">1</tspan></text></g><g style="clip-path:url(#clip-path-6)"><text transform="translate(523.51 154.07)" style="font-size:11.008959770202637px;fill:#fff;font-family:Arial-BoldMT, Arial;font-weight:700;letter-spacing:-0.028964046623458393em">K<tspan x="7.63" y="0" style="letter-spacing:0.003985877975705283em">h</tspan><tspan x="14.4" y="0" style="letter-spacing:0.05899099404043819em">a</tspan><tspan x="21.17" y="0" style="letter-spacing:-0.003985877975705283em">r</tspan><tspan x="25.41" y="0" style="letter-spacing:0.028964046623458393em">i</tspan><tspan x="28.79" y="0" style="letter-spacing:-0.00008857506612678407em">f</tspan></text></g><g style="clip-path:url(#clip-path-7)"><text transform="translate(612.57 265.86)" style="font-size:11.008959770202637px;fill:#fff;font-family:Arial-BoldMT, Arial;font-weight:700;letter-spacing:-0.028964046623458393em">K<tspan x="7.63" y="0" style="letter-spacing:0.003985877975705283em">h</tspan><tspan x="14.4" y="0" style="letter-spacing:0.05899099404043819em">a</tspan><tspan x="21.17" y="0" style="letter-spacing:-0.003985877975705283em">r</tspan><tspan x="25.41" y="0" style="letter-spacing:0.028964046623458393em">i</tspan><tspan x="28.79" y="0" style="letter-spacing:-0.00008857506612678407em">f</tspan></text></g><g style="clip-path:url(#clip-path-8)"><text transform="translate(7.03 333.61)" style="font-size:10.16211986541748px;font-family:Arial-BoldMT, Arial;font-weight:700"><tspan style="letter-spacing:-0.0549829552307335em">N</tspan><tspan x="6.78" y="0" style="letter-spacing:-0.02705967430203638em">o</tspan><tspan x="12.71" y="0" style="letter-spacing:0.00009595629185119283em">t</tspan><tspan x="16.1" y="0" style="letter-spacing:0.026963718010185187em">e</tspan><tspan x="22.02" y="0">:</tspan></text><text transform="translate(31.62 333.61)" style="font-size:10.16211986541748px;font-family:ArialMT, Arial"> </text><text transform="translate(34.17 333.61)" style="font-size:10.16211986541748px;font-family:Arial-BoldMT, Arial;font-weight:700">SPH</text><text transform="translate(54.52 333.61)" style="font-size:10.16211986541748px;font-family:ArialMT, Arial"><tspan style="letter-spacing:-0.026963718010185187em"> </tspan><tspan x="2.55" y="0">S</tspan><tspan x="9.33" y="0" style="letter-spacing:0.026963718010185187em">ou</tspan><tspan x="21.18" y="0" style="letter-spacing:-0.026963718010185187em">t</tspan><tspan x="23.73" y="0" style="letter-spacing:0.026963718010185187em">he</tspan><tspan x="35.58" y="0">r</tspan><tspan x="38.96" y="0" style="letter-spacing:0.02705967430203638em">n</tspan><tspan x="44.89" y="0" style="letter-spacing:-0.026963718010185187em"> </tspan><tspan x="47.44" y="0">P</tspan><tspan x="54.22" y="0" style="letter-spacing:0.026963718010185187em">la</tspan><tspan x="62.68" y="0" style="letter-spacing:-0.026963718010185187em">t</tspan><tspan x="65.22" y="0" style="letter-spacing:0.026963718010185187em">eau</tspan><tspan x="83" y="0" style="letter-spacing:-0.026963718010185187em"> </tspan><tspan x="85.55" y="0">&amp;</tspan><tspan x="92.33" y="0" style="letter-spacing:-0.026963718010185187em"> </tspan><tspan x="94.88" y="0" style="letter-spacing:0.02705967430203638em">Hill</tspan><tspan x="110.09" y="0" style="letter-spacing:0.0829062361594306em">s</tspan><tspan x="116.01" y="0" style="letter-spacing:0.00009595629185119283em">,</tspan></text><text transform="translate(173.26 333.61)" style="font-size:10.16211986541748px;font-family:Arial-BoldMT, Arial;font-weight:700"><tspan style="letter-spacing:-0.08300219245128182em">E</tspan><tspan x="5.93" y="0">P</tspan><tspan x="12.71" y="0" style="letter-spacing:-0.0549829552307335em">H</tspan><tspan x="19.49" y="0"> </tspan></text><text transform="translate(195.3 333.61)" style="font-size:10.16211986541748px;font-family:ArialMT, Arial">E<tspan x="6.78" y="0" style="letter-spacing:0.026963718010185187em">a</tspan><tspan x="12.7" y="0" style="letter-spacing:0.08300219245128182em">s</tspan><tspan x="18.63" y="0" style="letter-spacing:-0.026963718010185187em">t</tspan><tspan x="21.18" y="0" style="letter-spacing:0.026963718010185187em">e</tspan><tspan x="27.1" y="0" style="letter-spacing:0.00009595629185119283em">r</tspan><tspan x="30.49" y="0" style="letter-spacing:0.026963718010185187em">n</tspan><tspan x="36.41" y="0" style="letter-spacing:-0.026963718010185187em"> </tspan><tspan x="38.96" y="0">P</tspan><tspan x="45.74" y="0" style="letter-spacing:0.02705967430203638em">la</tspan><tspan x="54.2" y="0" style="letter-spacing:-0.026963718010185187em">t</tspan><tspan x="56.75" y="0" style="letter-spacing:0.026963718010185187em">eau</tspan><tspan x="74.53" y="0" style="letter-spacing:-0.026963718010185187em"> </tspan><tspan x="77.08" y="0" style="letter-spacing:0.026963718010185187em">and</tspan><tspan x="94.85" y="0" style="letter-spacing:-0.026963718010185187em"> </tspan><tspan x="97.4" y="0" style="letter-spacing:0.02705967430203638em">Hill</tspan><tspan x="112.61" y="0" style="letter-spacing:-0.00009595629185119283em">s</tspan></text></g><g style="clip-path:url(#clip-path-9)"><polyline points="5.33 4.18 5.33 5.03 895.83 5.03 895.83 4.18 5.33 4.18" style="fill:#bfbfbf;fill-rule:evenodd"/><polyline points="271.63 5.03 271.63 94.8 272.48 94.8 272.48 5.03 271.63 5.03" style="fill:#bfbfbf;fill-rule:evenodd"/><polyline points="360.68 5.03 360.68 94.8 361.53 94.8 361.53 5.03 360.68 5.03" style="fill:#bfbfbf;fill-rule:evenodd"/><polyline points="716.88 5.03 716.88 94.8 717.73 94.8 717.73 5.03 716.88 5.03" style="fill:#bfbfbf;fill-rule:evenodd"/><polyline points="805.93 5.03 805.93 94.8 806.78 94.8 806.78 5.03 805.93 5.03" style="fill:#bfbfbf;fill-rule:evenodd"/><polyline points="5.33 93.95 5.33 94.8 895.83 94.8 895.83 93.95 5.33 93.95" style="fill:#bfbfbf;fill-rule:evenodd"/><polyline points="449.73 5.03 449.73 94.8 450.58 94.8 450.58 5.03 449.73 5.03" style="fill:#bfbfbf;fill-rule:evenodd"/><polyline points="5.33 205.73 5.33 206.58 895.83 206.58 895.83 205.73 5.33 205.73" style="fill:#bfbfbf;fill-rule:evenodd"/><polyline points="4.48 4.18 4.48 318.36 5.33 318.36 5.33 4.18 4.48 4.18" style="fill:#bfbfbf;fill-rule:evenodd"/><polyline points="5.33 317.52 5.33 318.36 895.83 318.36 895.83 317.52 5.33 317.52" style="fill:#bfbfbf;fill-rule:evenodd"/><polyline points="894.98 5.03 894.98 318.36 895.83 318.36 895.83 5.03 894.98 5.03" style="fill:#bfbfbf;fill-rule:evenodd"/><polyline points="4.48 318.36 4.48 342.92 5.33 342.92 5.33 318.36 4.48 318.36" style="fill:#fff;fill-rule:evenodd"/><polyline points="93.53 5.03 93.53 318.36 94.38 318.36 94.38 5.03 93.53 5.03" style="fill:#bfbfbf;fill-rule:evenodd"/><polyline points="182.58 5.03 182.58 318.36 183.43 318.36 183.43 5.03 182.58 5.03" style="fill:#bfbfbf;fill-rule:evenodd"/><polyline points="538.78 5.03 538.78 94.8 539.63 94.8 539.63 5.03 538.78 5.03" style="fill:#bfbfbf;fill-rule:evenodd"/><polyline points="627.83 5.03 627.83 94.8 628.68 94.8 628.68 5.03 627.83 5.03" style="fill:#bfbfbf;fill-rule:evenodd"/><polyline points="5.33 342.07 5.33 342.92 895.83 342.92 895.83 342.07 5.33 342.07" style="fill:#fff;fill-rule:evenodd"/><polyline points="894.98 318.36 894.98 342.92 895.83 342.92 895.83 318.36 894.98 318.36" style="fill:#fff;fill-rule:evenodd"/></g></svg>