<svg id="Layer_1" data-name="Layer 1" xmlns="http://www.w3.org/2000/svg" xmlns:xlink="http://www.w3.org/1999/xlink" viewBox="0 0 900 350"><defs><clipPath id="clip-path"><polygon points="4.54 348.6 893.99 348.6 893.99 2.53 4.54 2.53 4.54 348.6 4.54 348.6" style="fill:none;clip-rule:evenodd"/></clipPath><clipPath id="clip-path-2"><polygon points="81.36 309.52 875.93 309.52 875.93 20.18 81.36 20.18 81.36 309.52 81.36 309.52" style="fill:none;clip-rule:evenodd"/></clipPath><clipPath id="clip-path-6"><rect x="4.54" y="2.53" width="889.45" height="346.08" style="fill:none"/></clipPath><clipPath id="clip-path-10"><rect x="200.08" y="131.09" width="162.66" height="16.85" style="fill:none"/></clipPath><clipPath id="clip-path-11"><rect x="615.56" y="47.54" width="127.62" height="16.85" style="fill:none"/></clipPath></defs><title>yar</title><polygon points="4.54 2.53 893.99 2.53 893.99 348.74 4.54 348.74 4.54 2.53 4.54 2.53" style="fill:#eaeaea;fill-rule:evenodd"/><polygon points="81.36 20.18 875.25 20.18 875.25 308.71 81.36 308.71 81.36 20.18 81.36 20.18" style="fill:#fff;fill-rule:evenodd"/><path d="M81.36,308.71H875.25M81.36,236.61H875.25M81.36,164.52H875.25M81.36,92.28H875.25M81.36,20.18H875.25" style="fill:none;stroke:#d9d9d9;stroke-linejoin:round;stroke-width:0.808587535382515px"/><g style="clip-path:url(#clip-path)"><path d="M81.36,20.18V308.71M478.24,20.18V308.71m397-288.53V308.71" style="fill:none;stroke:#868686;stroke-linejoin:round;stroke-width:0.808587535382515px"/></g><g style="clip-path:url(#clip-path-2)"><path d="M246.71,251h66.17v10H246.71V251Zm397,0h66v11.06h-66V251Z" style="fill:#ff25f3"/></g><g style="clip-path:url(#clip-path-2)"><path d="M246.71,177.05h66.17v74H246.71v-74Zm397-90.16h66V251h-66V86.89Z" style="fill:#409fff"/></g><g style="clip-path:url(#clip-path-2)"><path d="M246.71,167.08h66.17v10H246.71v-10Zm397-91.24h66v11h-66v-11Z" style="fill:#0044ab"/></g><g style="clip-path:url(#clip-path)"><line x1="81.36" y1="251.03" x2="875.25" y2="251.03" style="fill:none;stroke:#d9d9d9;stroke-linejoin:round;stroke-width:0.808587535382515px"/></g><g style="clip-path:url(#clip-path-6)"><text transform="translate(272.33 267.94)" style="font-size:9.029230117797852px;font-family:Arial-BoldMT, Arial;font-weight:700">-</text></g><g style="clip-path:url(#clip-path-6)"><text transform="translate(275.3 267.94)" style="font-size:9.029230117797852px;font-family:Arial-BoldMT, Arial;font-weight:700"><tspan style="letter-spacing:-0.0030283589678484013em">14</tspan><tspan x="9.99" y="0">%</tspan></text></g><g style="clip-path:url(#clip-path-6)"><text transform="translate(672.57 270.73)" style="font-size:9.029230117797852px;font-family:Arial-BoldMT, Arial;font-weight:700">-</text></g><g style="clip-path:url(#clip-path-6)"><text transform="translate(675.54 270.73)" style="font-size:9.029230117797852px;font-family:Arial-BoldMT, Arial;font-weight:700;letter-spacing:-0.0030283589678484013em">7<tspan x="4.99" y="0" style="letter-spacing:0.00010815567742315718em">%</tspan></text></g><g style="clip-path:url(#clip-path-10)"><text transform="translate(269.78 142.81)" style="font-size:9.029230117797852px;font-family:Arial-BoldMT, Arial;font-weight:700"><tspan style="letter-spacing:-0.0009734010968084147em">+</tspan><tspan x="5.26" y="0" style="letter-spacing:-0.002920203290425244em">14</tspan><tspan x="15.25" y="0">%</tspan></text></g><g style="clip-path:url(#clip-path-11)"><text transform="translate(670.21 59.32)" style="font-size:9.029230117797852px;font-family:Arial-BoldMT, Arial;font-weight:700"><tspan style="letter-spacing:-0.0009734010968084147em">+</tspan><tspan x="5.26" y="0" style="letter-spacing:-0.002920203290425244em">7</tspan><tspan x="10.26" y="0">%</tspan></text></g><g style="clip-path:url(#clip-path-6)"><text transform="translate(49.64 311.93)" style="font-size:10.107339859008789px;font-family:Arial-BoldMT, Arial;font-weight:700">-<tspan x="3.37" y="0" style="letter-spacing:0.002995193386419764em">1</tspan><tspan x="9.02" y="0" style="letter-spacing:0.0019323828299482352em">.</tspan><tspan x="11.85" y="0" style="letter-spacing:-0.008985580159259293em">0</tspan><tspan x="17.38" y="0">0</tspan></text></g><g style="clip-path:url(#clip-path-6)"><text transform="translate(53 239.8)" style="font-size:10.107339859008789px;font-family:Arial-BoldMT, Arial;font-weight:700;letter-spacing:0.002995193386419764em">0<tspan x="5.65" y="0" style="letter-spacing:0.0019323828299482352em">.</tspan><tspan x="8.48" y="0" style="letter-spacing:-0.008985580159259293em">2</tspan><tspan x="14.01" y="0" style="letter-spacing:0.00009661914149741176em">5</tspan></text></g><g style="clip-path:url(#clip-path-6)"><text transform="translate(53 167.68)" style="font-size:10.107339859008789px;font-family:Arial-BoldMT, Arial;font-weight:700;letter-spacing:0.002995193386419764em">1<tspan x="5.65" y="0" style="letter-spacing:0.0019323828299482352em">.</tspan><tspan x="8.48" y="0" style="letter-spacing:-0.008985580159259293em">5</tspan><tspan x="14.01" y="0" style="letter-spacing:0.00009661914149741176em">0</tspan></text></g><g style="clip-path:url(#clip-path-6)"><text transform="translate(53 95.56)" style="font-size:10.107339859008789px;font-family:Arial-BoldMT, Arial;font-weight:700;letter-spacing:0.002995193386419764em">2<tspan x="5.65" y="0" style="letter-spacing:0.0019323828299482352em">.</tspan><tspan x="8.48" y="0" style="letter-spacing:-0.008985580159259293em">7</tspan><tspan x="14.01" y="0" style="letter-spacing:0.00009661914149741176em">5</tspan></text></g><g style="clip-path:url(#clip-path-6)"><text transform="translate(53 23.43)" style="font-size:10.107339859008789px;font-family:Arial-BoldMT, Arial;font-weight:700;letter-spacing:0.002995193386419764em">4<tspan x="5.65" y="0" style="letter-spacing:0.0019323828299482352em">.</tspan><tspan x="8.48" y="0" style="letter-spacing:-0.008985580159259293em">0</tspan><tspan x="14.01" y="0" style="letter-spacing:0.00009661914149741176em">0</tspan></text></g><g style="clip-path:url(#clip-path-6)"><text transform="translate(271.68 323.97)" style="font-size:10.107339859008789px;font-family:Arial-BoldMT, Arial;font-weight:700;letter-spacing:-0.0019323828299482352em">R<tspan x="7.28" y="0" style="letter-spacing:-0.00009661914149741176em">-1</tspan></text></g><g style="clip-path:url(#clip-path-6)"><text transform="translate(665.8 323.97)" style="font-size:10.107339859008789px;font-family:Arial-BoldMT, Arial;font-weight:700;letter-spacing:-0.0019323828299482352em">R<tspan x="7.28" y="0" style="letter-spacing:-0.00009661914149741176em">-</tspan><tspan x="10.64" y="0" style="letter-spacing:0.002995193386419764em">2</tspan><tspan x="16.3" y="0" style="letter-spacing:0.00009661914149741176em">1</tspan></text></g><g style="clip-path:url(#clip-path-6)"><text transform="translate(26.35 223.26) rotate(-90)" style="font-size:11.185460090637207px;font-family:Arial-BoldMT, Arial;font-weight:700"><tspan style="letter-spacing:0.00497646605941526em">Q</tspan><tspan x="8.76" y="0" style="letter-spacing:0.0030557247733251597em">u</tspan><tspan x="15.62" y="0" style="letter-spacing:-0.0009603706430450501em">a</tspan><tspan x="21.83" y="0" style="letter-spacing:0.0030557247733251597em">n</tspan><tspan x="28.7" y="0" style="letter-spacing:0.00401609541637021em">t</tspan><tspan x="32.47" y="0">i</tspan><tspan x="35.58" y="0" style="letter-spacing:0.00401609541637021em">t</tspan><tspan x="39.34" y="0" style="letter-spacing:-0.01300865689215568em">y</tspan><tspan x="45.42" y="0" style="letter-spacing:0.01108791560606558em"> </tspan><tspan x="48.65" y="0" style="letter-spacing:-0.00008730642209500456em">&amp; </tspan><tspan x="59.84" y="0" style="letter-spacing:0.00689720734550536em">Y</tspan><tspan x="67.38" y="0" style="letter-spacing:-0.0009603706430450501em">a</tspan><tspan x="73.58" y="0">R</tspan><tspan x="81.66" y="0" style="letter-spacing:0.011000609183970575em"> </tspan><tspan x="84.89" y="0" style="letter-spacing:0.00401609541637021em">(</tspan><tspan x="88.66" y="0" style="letter-spacing:0.02200121836794115em">M</tspan><tspan x="98.23" y="0" style="letter-spacing:0.014929398178245781em">T</tspan><tspan x="105.23" y="0" style="letter-spacing:0.00008730642209500456em">)</tspan></text></g><g style="clip-path:url(#clip-path-6)"><text transform="translate(431.4 337.57)" style="font-size:11.185460090637207px;font-family:Arial-BoldMT, Arial;font-weight:700">R<tspan x="8.08" y="0" style="letter-spacing:-0.0010476770651400547em">e</tspan><tspan x="14.29" y="0" style="letter-spacing:0.002968418351230155em">g</tspan><tspan x="21.15" y="0">i</tspan><tspan x="24.26" y="0" style="letter-spacing:0.0030557247733251597em">o</tspan><tspan x="31.13" y="0" style="letter-spacing:0.00008730642209500456em">n</tspan></text></g><polygon points="4.54 2.53 893.99 2.53 893.99 348.74 4.54 348.74 4.54 2.53 4.54 2.53" style="fill:none;stroke:#d9d9d9;stroke-linejoin:round;stroke-width:0.808587602320813px"/></svg>