<svg xmlns="http://www.w3.org/2000/svg" width="30" height="30" viewBox="0 0 30 30">
  <g id="Approve_user" data-name="Approve user" transform="translate(-1106 -139)">
    <g id="Group_835" data-name="Group 835" transform="translate(-135 -136)">
      <path id="user" d="M9.876,0A9.87,9.87,0,0,0,3.182,17.128l-.026.035.253.217a9.868,9.868,0,0,0,4.913,2.248c.128.02.257.037.386.052s.281.031.422.04c.208.015.417.025.628.028l.066,0h.051A9.876,9.876,0,1,0,9.876,0ZM9.845,19.033l-.1,0c-.172,0-.343-.01-.513-.022A9.108,9.108,0,0,1,4.182,17.04a1.936,1.936,0,0,1,.455-.323l3.281-1.408a1.529,1.529,0,0,0,.585-.741.639.639,0,0,0-.573-.921l-2.279,0a5.506,5.506,0,0,1-1.375-.332c-.111-.047-.157-.084-.17-.087a.385.385,0,0,1,.051-.09A11.431,11.431,0,0,0,6.386,7.247,3.33,3.33,0,0,1,9.738,3.885,3.386,3.386,0,0,1,13,5.975a4.95,4.95,0,0,1,.382,1.718,12.534,12.534,0,0,0,1.905,5.421.3.3,0,0,1,.034.227.265.265,0,0,1-.12.166,1.444,1.444,0,0,1-.861.145l-2.392-.005a.6.6,0,0,0-.564.412.617.617,0,0,0,.192.688,3.143,3.143,0,0,0,.4.285l2.736,1.655a1.98,1.98,0,0,1,.608.515A9.044,9.044,0,0,1,9.845,19.033Zm6.046-2.261a2.661,2.661,0,0,0-.823-.707l-2.736-1.655c-.006,0-.025-.014-.068-.045h1.99a2.147,2.147,0,0,0,1.318-.242.977.977,0,0,0,.449-.609,1.022,1.022,0,0,0-.117-.772,11.825,11.825,0,0,1-1.8-5.1,5.661,5.661,0,0,0-.444-1.965A4.067,4.067,0,0,0,9.738,3.167C5.8,3.2,5.669,7.191,5.668,7.232a10.954,10.954,0,0,1-2.1,5.495.8.8,0,0,0-.159.69.914.914,0,0,0,.584.56,6.124,6.124,0,0,0,1.624.388H7.8a1.209,1.209,0,0,1-.184.292l-3.273,1.4-.019.009a2.64,2.64,0,0,0-.687.5,9.158,9.158,0,1,1,12.255.2Z" transform="translate(1246 280)" fill="#fff"/>
      <circle id="Ellipse_24" data-name="Ellipse 24" cx="5" cy="5" r="5" transform="translate(1257 290)" fill="#fff"/>
      <path id="Path_1530" data-name="Path 1530" d="M-4.073,2324.629l2.232,2.288,4.743-3.571" transform="translate(899.072 -2001.465) rotate(-9)" fill="none" stroke="#ffd866" stroke-width="2"/>
    </g>
    <g id="Rectangle_1629" data-name="Rectangle 1629" transform="translate(1107 140)" fill="none" stroke="#fff" stroke-width="1">
      <rect width="28" height="28" rx="1" stroke="none"/>
      <rect x="-0.5" y="-0.5" width="29" height="29" rx="1.5" fill="none"/>
    </g>
  </g>
</svg>
