<svg id="add-circular-outlined-button" xmlns="http://www.w3.org/2000/svg" width="20.5" height="20.5" viewBox="0 0 20.5 20.5">
  <g id="_x38__3_">
    <g id="Group_240" data-name="Group 240">
      <path id="Path_223" data-name="Path 223" d="M10.25,0A10.25,10.25,0,1,0,20.5,10.25,10.25,10.25,0,0,0,10.25,0Zm0,19.219a8.969,8.969,0,1,1,8.969-8.969A8.969,8.969,0,0,1,10.25,19.219Zm3.844-9.609h-3.2v-3.2a.641.641,0,0,0-1.281,0v3.2h-3.2a.641.641,0,0,0,0,1.281h3.2v3.2a.641.641,0,0,0,1.281,0v-3.2h3.2a.641.641,0,0,0,0-1.281Z"/>
    </g>
  </g>
</svg>
