<svg xmlns="http://www.w3.org/2000/svg" width="70.003" height="71.003" viewBox="0 0 70.003 71.003">
  <g id="validation" transform="translate(0.5 0.503)">
    <path id="Path_1530" data-name="Path 1530" d="M82.19,340.341l-2.8,2.8,5.351,5.351,9.3-9.3-2.8-2.8L84.746,342.9Zm0,0" transform="translate(-68.629 -290.033)" fill="#ffd866"/>
    <path id="Path_1531" data-name="Path 1531" d="M0,51.543A18.348,18.348,0,0,0,18.194,70,18.347,18.347,0,0,0,36.387,51.543c0-.516-.023-1.03-.065-1.541q.429.123.856.225c3.7.865,7.585.464,10.287-2.278l5.718-5.8c3.5-3.55,3.492-9.776.119-15.888l12.162-9.634a9.384,9.384,0,0,0,.853-13.906,9.077,9.077,0,0,0-13.7.863l-9.5,12.341c-6.024-3.422-12.162-3.429-15.661.121l-5.718,5.8c-2.42,2.455-3.217,6.161-2.245,10.436.066.289.141.579.222.869-.5-.043-1.011-.066-1.519-.066A18.348,18.348,0,0,0,0,51.543ZM55.8,6.1a5.071,5.071,0,0,1,7.657-.484,5.242,5.242,0,0,1-.48,7.771l-19,15.051a3.734,3.734,0,0,1-3.015-3.059ZM40.592,19.2l-3.8,4.838v.706a7.937,7.937,0,0,0,7.815,7.929h.7l4.769-3.855c2.161,4.228,2.315,8.336.253,10.428a5.556,5.556,0,0,1-4.081,1.494c-3.478,0-7.968-2.117-11.642-5.845a20.16,20.16,0,0,1-5.452-9.337c-.648-2.847-.234-5.2,1.164-6.614,2.063-2.093,6.111-1.936,10.279.256ZM24.877,24.46c.4,4.026,2.547,8.957,6.866,13.338,3.511,3.562,8.267,6.465,13.147,6.964-.17.09-1.827,2.632-6.8,1.468a19.748,19.748,0,0,1-9.2-5.532,20.162,20.162,0,0,1-5.453-9.338c-1.151-5.062,1.359-6.73,1.446-6.9ZM26.025,43.6a26.617,26.617,0,0,0,5.921,4.553,14.6,14.6,0,0,1,.4,3.391A14.27,14.27,0,0,1,18.194,65.9a14.357,14.357,0,0,1,0-28.711,14,14,0,0,1,3.343.405A26.924,26.924,0,0,0,26.025,43.6Zm0,0" transform="translate(0 0)" fill="#fff" stroke="#000" stroke-width="1"/>
  </g>
</svg>
