<svg xmlns="http://www.w3.org/2000/svg" width="24" height="15" viewBox="0 0 24 15">
  <g id="down-arrow" transform="translate(0 -100.698)">
    <g id="Group_1" data-name="Group 1" transform="translate(0 100.698)">
      <path id="Path_1533" data-name="Path 1533" d="M23.616,101.952l-.786-.838a1.265,1.265,0,0,0-1.857,0l-8.968,9.49-8.978-9.5a1.266,1.266,0,0,0-1.857,0l-.786.832a1.448,1.448,0,0,0,0,1.965l10.69,11.352A1.311,1.311,0,0,0,12,115.7h0a1.31,1.31,0,0,0,.928-.446l10.68-11.321a1.446,1.446,0,0,0,.384-.992A1.431,1.431,0,0,0,23.616,101.952Z" transform="translate(0 -100.698)"/>
    </g>
  </g>
</svg>
