<svg xmlns="http://www.w3.org/2000/svg" width="22" height="22" viewBox="0 0 22 22">
  <g id="Group_6" data-name="Group 6" transform="translate(-856.534 -405.534)">
    <path id="Path_1125" data-name="Path 1125" d="M18.778,3.222a11,11,0,1,0,0,15.556A11,11,0,0,0,18.778,3.222Zm-.884,14.672a9.749,9.749,0,1,1,0-13.788,9.749,9.749,0,0,1,0,13.788Z" transform="translate(856.534 405.534)"/>
    <path id="Path_1126" data-name="Path 1126" d="M137.157,129.078a.519.519,0,0,0-.737,0l-3.3,3.3-3.3-3.3a.521.521,0,0,0-.737.737l3.3,3.3-3.3,3.3a.523.523,0,0,0,.367.891.508.508,0,0,0,.367-.154l3.3-3.3,3.3,3.3a.524.524,0,0,0,.367.154.5.5,0,0,0,.367-.154.519.519,0,0,0,0-.737l-3.295-3.3,3.3-3.3a.519.519,0,0,0,0-.737Z" transform="translate(734.418 283.416)"/>
  </g>
</svg>
