<svg xmlns="http://www.w3.org/2000/svg" width="21" height="22" viewBox="0 0 21 22">
  <g id="Clear" transform="translate(-14 -21)">
    <path id="Path_2" data-name="Path 2" d="M33.252,21h-17.5A1.766,1.766,0,0,0,14,22.78v1.941a1.8,1.8,0,0,0,.421,1.159L20.579,33.2A1.812,1.812,0,0,1,21,34.365v4.141a1.192,1.192,0,0,0,.5.972l4.675,3.31a1.141,1.141,0,0,0,1.2.077A1.186,1.186,0,0,0,28,41.813V39.118a5.124,5.124,0,0,0,1.75.312A5.307,5.307,0,0,0,35,34.079a5.362,5.362,0,0,0-3.181-4.917l2.759-3.283A1.8,1.8,0,0,0,35,24.722V22.78A1.767,1.767,0,0,0,33.252,21Zm.582,13.08a4.084,4.084,0,1,1-4.083-4.162A4.129,4.129,0,0,1,33.833,34.08ZM29.75,28.729A5.307,5.307,0,0,0,24.5,34.08a5.377,5.377,0,0,0,2.334,4.447l.005,3.284-4.673-3.306V34.365a3.008,3.008,0,0,0-.7-1.935l-5.61-6.673H33.147L30.585,28.8A5.154,5.154,0,0,0,29.75,28.729Zm4.083-4.756a.589.589,0,0,1-.583.595h-17.5a.591.591,0,0,1-.584-.6V22.78a.587.587,0,0,1,.581-.591h17.5a.587.587,0,0,1,.582.591v1.193Z" transform="translate(0 0)" fill="#fff"/>
    <path id="Path_3" data-name="Path 3" d="M42.1,40.39l-.926-.926L39.78,40.853l-1.389-1.389-.926.926,1.389,1.389-1.389,1.39.926.926,1.389-1.39,1.389,1.39.926-.926-1.389-1.39Z" transform="translate(-10.344 -7.749)" fill="#fff"/>
  </g>
</svg>
