<svg xmlns="http://www.w3.org/2000/svg" width="10.001" height="10.001" viewBox="0 0 10.001 10.001">
  <g id="Group_927" data-name="Group 927" transform="translate(-4893.371 898.794)">
    <g id="Group_439" data-name="Group 439" transform="translate(4893.371 -898.794)">
      <g id="Alert_notification" data-name="Alert notification" transform="translate(0)">
        <g id="Close_icon" data-name="Close icon" transform="translate(0 0)">
          <path id="Path_61" data-name="Path 61" d="M.988,0A1.032,1.032,0,0,1,2,1.014l.127,10.01a.971.971,0,0,1-.988.988A1.032,1.032,0,0,1,.127,11L0,.988A.971.971,0,0,1,.988,0Z" transform="translate(8.494 0) rotate(45)" fill="#fff"/>
          <path id="Path_62" data-name="Path 62" d="M1.141,0a.971.971,0,0,1,.988.988L2,11A1.032,1.032,0,0,1,.988,12.013.971.971,0,0,1,0,11.024L.127,1.014A1.032,1.032,0,0,1,1.141,0Z" transform="translate(0 1.506) rotate(-45)" fill="#fff"/>
        </g>
      </g>
    </g>
  </g>
</svg>
