<svg xmlns="http://www.w3.org/2000/svg" width="16.003" height="16.002" viewBox="0 0 16.003 16.002">
  <g id="Popup" transform="translate(-879.294 -381.499)">
    <g id="Close_icon" data-name="Close icon" transform="translate(879.296 381.505)">
      <path id="Rectangle_187" data-name="Rectangle 187" d="M1.836.026,2.568,0A1.106,1.106,0,0,1,3.73,1.162l-.592,16.45a1.316,1.316,0,0,1-1.249,1.249l-.731.026A1.106,1.106,0,0,1,0,17.725L.587,1.275A1.316,1.316,0,0,1,1.836.026Z" transform="translate(13.361) rotate(45)"/>
      <path id="Rectangle_188" data-name="Rectangle 188" d="M1.164,0l.731.026A1.316,1.316,0,0,1,3.144,1.277l.592,16.449a1.106,1.106,0,0,1-1.162,1.162l-.731-.026a1.316,1.316,0,0,1-1.25-1.249L0,1.164A1.106,1.106,0,0,1,1.164,0Z" transform="translate(0 2.638) rotate(-45)"/>
    </g>
  </g>
</svg>
