<svg xmlns="http://www.w3.org/2000/svg" width="85.85" height="84.74" viewBox="0 0 85.85 84.74">
  <g id="shovel" transform="translate(0 0)">
    <path id="Path_1511" data-name="Path 1511" d="M85.209,75.915A20.263,20.263,0,0,0,63.453,60.872L68.182,51.2l.007,0a1.677,1.677,0,1,0,1.472-3.013l-6.313-3.084,1.809-3.7a1.676,1.676,0,0,0-.77-2.243l-.4-.2,11.54-23.606c.28,0,.561-.018.844-.045A7.811,7.811,0,0,0,82.593,11l.2-.417a1.644,1.644,0,0,0,.309.029,1.677,1.677,0,0,0,.738-3.184L68.982.17a1.677,1.677,0,0,0-1.847,2.763l-.2.416a7.8,7.8,0,0,0,.417,7.56q.226.356.477.686L56.284,35.206l-.4-.2a1.677,1.677,0,0,0-2.243.77l-1.81,3.7L45.515,36.4a1.677,1.677,0,0,0-1.472,3.014l.005,0L37.531,52.74A24.357,24.357,0,0,0,19.593,64.967c-.48-.039-.958-.058-1.432-.058A18.142,18.142,0,0,0,0,83.063,1.677,1.677,0,0,0,1.677,84.74H84.055a1.676,1.676,0,0,0,1.666-1.491,20.213,20.213,0,0,0-.513-7.334ZM79.58,9.528a4.436,4.436,0,0,1-3.534,2.45,6.2,6.2,0,0,1-5.865-2.864,4.428,4.428,0,0,1-.237-4.291l.177-.363,9.635,4.707Zm-9.167,4.415a9.54,9.54,0,0,0,1.673.819L60.973,37.5,59.3,36.677Zm-14.5,24.815,5.492,2.683-1.074,2.195-5.491-2.683Zm9.253,10.971L59.535,61.25a24.462,24.462,0,0,0-18.163-8.73l5.691-11.636ZM82.492,81.386H3.447a14.627,14.627,0,0,1,.791-3.375H17.272a1.677,1.677,0,1,0,0-3.354H5.971A14.831,14.831,0,0,1,20.3,68.419a1.677,1.677,0,0,0,1.74-.911A21.01,21.01,0,0,1,57.86,64.551a1.677,1.677,0,0,0,1.934.589q.556-.2,1.122-.367l.038-.01a16.917,16.917,0,0,1,20.318,9.9H39.008a1.677,1.677,0,0,0,0,3.354H82.235a16.969,16.969,0,0,1,.262,2.976q0,.2-.005.4Zm0,0" transform="translate(0 0)" fill="#fff"/>
    <path id="Path_1512" data-name="Path 1512" d="M248.3,362.649a1.674,1.674,0,0,1-1.358-.692,14.45,14.45,0,0,0-11.654-5.952,1.677,1.677,0,1,1,0-3.354,17.813,17.813,0,0,1,14.367,7.335,1.677,1.677,0,0,1-1.355,2.663Zm0,0" transform="translate(-194.442 -293.52)" fill="#ffd866"/>
    <path id="Path_1513" data-name="Path 1513" d="M190.427,448.6a1.619,1.619,0,0,1-.327-.034,1.684,1.684,0,0,1-.314-.1,1.659,1.659,0,0,1-.29-.154,1.627,1.627,0,0,1-.255-.208,1.668,1.668,0,0,1-.458-1.514,1.746,1.746,0,0,1,.1-.314,1.647,1.647,0,0,1,.155-.288,1.594,1.594,0,0,1,.208-.255,1.758,1.758,0,0,1,.255-.21,1.66,1.66,0,0,1,.29-.154,1.788,1.788,0,0,1,.314-.1,1.7,1.7,0,0,1,1.512.459,1.594,1.594,0,0,1,.208.255,1.647,1.647,0,0,1,.155.288,1.751,1.751,0,0,1,.1.314,1.64,1.64,0,0,1,.032.329,1.677,1.677,0,0,1-1.677,1.677Zm0,0" transform="translate(-157.101 -370.592)" fill="#ffd866"/>
  </g>
</svg>
