<svg xmlns="http://www.w3.org/2000/svg" width="32" height="32" viewBox="0 0 32 32">
  <g id="Group_840" data-name="Group 840" transform="translate(-1192.5 -139.5)">
    <rect id="Rectangle_1627" data-name="Rectangle 1627" width="31" height="31" rx="1" transform="translate(1193 140)" fill="none" stroke="#fff" stroke-width="1"/>
    <g id="delete_1_" data-name="delete (1)" transform="translate(1199.624 144.43)">
      <path id="Path_1524" data-name="Path 1524" d="M222.911,154.7a.513.513,0,0,0-.513.513v9.679a.513.513,0,1,0,1.024,0v-9.679a.513.513,0,0,0-.511-.513Zm0,0" transform="translate(-210.99 -146.782)" fill="#ffd866"/>
      <path id="Path_1525" data-name="Path 1525" d="M104.911,154.7a.513.513,0,0,0-.513.513v9.679a.513.513,0,1,0,1.024,0v-9.679a.513.513,0,0,0-.511-.513Zm0,0" transform="translate(-99.033 -146.782)" fill="#ffd866"/>
      <path id="Path_1526" data-name="Path 1526" d="M1.453,6.509V19.13A2.825,2.825,0,0,0,2.2,21.079a2.522,2.522,0,0,0,1.83.792h9.69a2.521,2.521,0,0,0,1.83-.792A2.825,2.825,0,0,0,16.3,19.13V6.509a1.956,1.956,0,0,0-.5-3.852H13.177V2.022A2.012,2.012,0,0,0,11.152,0H6.605A2.012,2.012,0,0,0,4.577,2.022v.636H1.955a1.956,1.956,0,0,0-.5,3.852ZM13.724,20.842H4.034a1.622,1.622,0,0,1-1.557-1.716V6.553h12.8V19.126a1.622,1.622,0,0,1-1.557,1.716ZM5.6,2.021a.986.986,0,0,1,1-1h4.547a.986.986,0,0,1,1,1v.637H5.6ZM1.956,3.681H15.8a.922.922,0,0,1,0,1.843H1.955a.922.922,0,0,1,0-1.843Zm0,0" transform="translate(0.02 0)" fill="#fff"/>
      <path id="Path_1527" data-name="Path 1527" d="M163.911,154.7a.513.513,0,0,0-.513.513v9.679a.513.513,0,1,0,1.024,0v-9.679A.513.513,0,0,0,163.911,154.7Zm0,0" transform="translate(-155.011 -146.782)" fill="#ffd866"/>
    </g>
  </g>
</svg>
