<svg xmlns="http://www.w3.org/2000/svg" width="54" height="79" viewBox="0 0 54 79">
  <g id="diagnosis" transform="translate(-353.726 -304.035)">
    <g id="diagnosis-2" data-name="diagnosis" transform="translate(353.976 304.285)">
      <path id="Path_1541" data-name="Path 1541" d="M109.665,238.033A5.638,5.638,0,1,1,115.3,232.4a5.638,5.638,0,0,1-5.638,5.638Zm0-8.637a3,3,0,1,0,3,3,3,3,0,0,0-3-3Zm0,0" transform="translate(-95.023 -192.61)" fill="#ffd866" stroke="#ffd866" stroke-width="0.5"/>
      <path id="Path_1542" data-name="Path 1542" d="M57.655,72.512a1.385,1.385,0,0,0-1.392,1.376v40.823a5.791,5.791,0,0,0,5.82,5.749h41.859a5.791,5.791,0,0,0,5.82-5.749V53.654a5.791,5.791,0,0,0-5.82-5.749H97.8a4.947,4.947,0,0,0-1.061-4.128,5.077,5.077,0,0,0-3.9-1.816H73.184a5.077,5.077,0,0,0-3.9,1.816A4.947,4.947,0,0,0,68.222,47.9H62.081a5.791,5.791,0,0,0-5.82,5.749V68.386a1.393,1.393,0,0,0,2.785,0V53.654a3.02,3.02,0,0,1,3.035-3h7.706a5.063,5.063,0,0,0,1.652.991,5.035,5.035,0,0,0,5.046,4.7H89.535a5.041,5.041,0,0,0,5.046-4.7,5.071,5.071,0,0,0,1.651-.991h7.707a3.02,3.02,0,0,1,3.035,3v61.056a3.02,3.02,0,0,1-3.035,3H62.081a3.02,3.02,0,0,1-3.034-3V73.887a1.385,1.385,0,0,0-1.392-1.376Zm15.529-27.8H92.838a2.242,2.242,0,1,1,0,4.484H73.184a2.242,2.242,0,1,1,0-4.484ZM89.535,53.6H76.487A2.27,2.27,0,0,1,74.3,51.953H91.719A2.269,2.269,0,0,1,89.533,53.6Zm0,0" transform="translate(-56.261 -41.96)" fill="#fff" stroke="#fff" stroke-width="0.5"/>
      <path id="Path_1543" data-name="Path 1543" d="M109.665,153.936a5.638,5.638,0,1,0-5.638-5.638,5.638,5.638,0,0,0,5.638,5.638Zm0-8.637a3,3,0,1,1-3,3,3,3,0,0,1,3-3Zm0,0" transform="translate(-95.023 -124.051)" fill="#ffd866" stroke="#ffd866" stroke-width="0.5"/>
      <path id="Path_1544" data-name="Path 1544" d="M109.665,322.131a5.638,5.638,0,1,0-5.638-5.638,5.638,5.638,0,0,0,5.638,5.638Zm0-8.637a3,3,0,1,1-3,3A3,3,0,0,1,109.665,313.494Zm0,0" transform="translate(-95.023 -261.169)" fill="#fff" stroke="#fff" stroke-width="0.5"/>
      <path id="Path_1545" data-name="Path 1545" d="M208.068,153.328h-18.1a1.319,1.319,0,1,0,0,2.638h18.1a1.319,1.319,0,1,0,0-2.638Zm0,0" transform="translate(-162.54 -132.865)" fill="#ffd866" stroke="#ffd866" stroke-width="0.5"/>
      <path id="Path_1546" data-name="Path 1546" d="M256.713,175.469H249a1.319,1.319,0,0,0,0,2.638h7.717a1.319,1.319,0,1,0,0-2.638Zm0,0" transform="translate(-211.185 -150.939)" fill="#ffd866" stroke="#ffd866" stroke-width="0.5"/>
      <path id="Path_1547" data-name="Path 1547" d="M189.967,239.22h18.1a1.319,1.319,0,1,0,0-2.638h-18.1a1.319,1.319,0,0,0,0,2.638Zm0,0" transform="translate(-162.539 -200.824)" fill="#ffd866" stroke="#ffd866" stroke-width="0.5"/>
      <path id="Path_1548" data-name="Path 1548" d="M190.624,258.723a1.319,1.319,0,1,0,0,2.638h5.245a1.319,1.319,0,0,0,0-2.638Zm0,0" transform="translate(-164.36 -218.898)" fill="#ffd866" stroke="#ffd866" stroke-width="0.5"/>
      <path id="Path_1549" data-name="Path 1549" d="M189.967,325.158h18.1a1.319,1.319,0,1,0,0-2.638h-18.1a1.319,1.319,0,0,0,0,2.638Zm0,0" transform="translate(-162.539 -270.974)" fill="#fff" stroke="#fff" stroke-width="0.5"/>
      <path id="Path_1550" data-name="Path 1550" d="M223.979,344.656a1.319,1.319,0,0,0,0,2.638h5.245a1.319,1.319,0,0,0,0-2.638Zm0,0" transform="translate(-191.461 -289.044)" fill="#fff" stroke="#fff" stroke-width="0.5"/>
      <path id="Path_1551" data-name="Path 1551" d="M117.094,408.092a1.319,1.319,0,0,0,1.319,1.319h11.374a1.319,1.319,0,1,0,0-2.638H118.413a1.319,1.319,0,0,0-1.319,1.319Zm0,0" transform="translate(-105.569 -339.374)" fill="#fff" stroke="#fff" stroke-width="0.5"/>
    </g>
  </g>
</svg>
