<svg xmlns="http://www.w3.org/2000/svg" width="16" height="11" viewBox="0 0 16 11">
  <g id="drop-down-icon" transform="translate(0 -100.698)">
    <g id="Group_1" data-name="Group 1" transform="translate(0 100.698)">
      <path id="Path_1533" data-name="Path 1533" d="M15.744,101.617,15.22,101a.793.793,0,0,0-1.238,0L8,107.962,2.018,101a.811.811,0,0,0-.619-.3.812.812,0,0,0-.619.3l-.524.61a1.141,1.141,0,0,0,0,1.441l7.126,8.325A.845.845,0,0,0,8,111.7h0a.845.845,0,0,0,.619-.327l7.12-8.3a1.122,1.122,0,0,0,.256-.728A1.11,1.11,0,0,0,15.744,101.617Z" transform="translate(0 -100.698)" fill="#fff"/>
    </g>
  </g>
</svg>
