<svg xmlns="http://www.w3.org/2000/svg" xmlns:xlink="http://www.w3.org/1999/xlink" width="16" height="11" viewBox="0 0 16 11">
  <defs>
    <clipPath id="clip-path">
      <path id="Mask" d="M15.372,1.8,7.841,9.247.31,1.8A1.03,1.03,0,0,1,.34.3,1.148,1.148,0,0,1,1.912.328L7.841,6.192,13.777.325A1.148,1.148,0,0,1,15.349.3a1.03,1.03,0,0,1,.029,1.5Z" transform="translate(-0.001 -0.001)" fill="#919394"/>
    </clipPath>
    <clipPath id="clip-path-2">
      <path id="Path_1535" data-name="Path 1535" d="M0,0H23.532V22.492H0Z" fill="none"/>
    </clipPath>
  </defs>
  <g id="Group_1" data-name="Group 1" transform="translate(-14 -537)">
    <g id="mask-2" data-name="mask" transform="translate(14.001 537.754)">
      <g id="mask-3" data-name="mask" clip-path="url(#clip-path)">
        <g id="color" transform="translate(-3.925 -6.623)" clip-path="url(#clip-path-2)">
          <path id="Rectangle" d="M0,0H23.532V22.492H0Z" fill="#919394"/>
        </g>
      </g>
    </g>
    <path id="Path_1536" data-name="Path 1536" d="M0,0H16V11H0Z" transform="translate(14 537)" fill="none"/>
  </g>
</svg>
