<svg xmlns="http://www.w3.org/2000/svg" width="30" height="30" viewBox="0 0 30 30">
  <g id="Edit_user" data-name="Edit user" transform="translate(-1151 -139)">
    <g id="edit_1_" data-name="edit (1)" transform="translate(1156 143.739)">
      <path id="Path_1528" data-name="Path 1528" d="M18.232,49.592a.492.492,0,0,0-.492.492v4.368a1.477,1.477,0,0,1-1.476,1.476H2.46A1.477,1.477,0,0,1,.984,54.452V41.632A1.478,1.478,0,0,1,2.46,40.156H6.828a.492.492,0,1,0,0-.984H2.46A2.463,2.463,0,0,0,0,41.632v12.82a2.463,2.463,0,0,0,2.46,2.46h13.8a2.463,2.463,0,0,0,2.46-2.46V50.084a.492.492,0,0,0-.492-.492Zm0,0" transform="translate(0 -36.997)" fill="#fff"/>
      <path id="Path_1529" data-name="Path 1529" d="M121.4.909a2.214,2.214,0,0,0-3.131,0l-8.777,8.777a.492.492,0,0,0-.126.217l-1.154,4.167a.492.492,0,0,0,.605.606l4.167-1.154a.492.492,0,0,0,.217-.126l8.777-8.777a2.216,2.216,0,0,0,0-3.131Zm-10.836,9.1,7.183-7.183,2.317,2.317-7.183,7.183Zm-.463.929,1.851,1.851-2.56.709Zm11.18-7.013-.522.522-2.317-2.317.522-.522a1.23,1.23,0,0,1,1.739,0l.577.577A1.232,1.232,0,0,1,121.278,3.922Zm0,0" transform="translate(-102.868)" fill="#ffd866"/>
    </g>
    <g id="Rectangle_1628" data-name="Rectangle 1628" transform="translate(1152 140)" fill="none" stroke="#fff" stroke-width="1">
      <rect width="28" height="28" rx="1" stroke="none"/>
      <rect x="-0.5" y="-0.5" width="29" height="29" rx="1.5" fill="none"/>
    </g>
  </g>
</svg>
