<svg id="home" xmlns="http://www.w3.org/2000/svg" width="18" height="16" viewBox="0 0 18 16">
  <g id="Group_211" data-name="Group 211">
    <g id="Group_210" data-name="Group 210">
      <path id="Path_214" data-name="Path 214" d="M17.808,34.117,9.276,27.888a.469.469,0,0,0-.553,0L.191,34.117a.467.467,0,1,0,.553.753L9,28.842l8.256,6.028a.467.467,0,1,0,.553-.753Z" transform="translate(0.001 -27.797)"/>
    </g>
  </g>
  <g id="Group_213" data-name="Group 213" transform="translate(1.985 7.178)">
    <g id="Group_212" data-name="Group 212">
      <path id="Path_215" data-name="Path 215" d="M70.015,232.543a.467.467,0,0,0-.468.466v7.423H65.806V236.38a2.339,2.339,0,0,0-4.677,0v4.052H57.387v-7.423a.468.468,0,0,0-.935,0v7.89a.467.467,0,0,0,.468.466H61.6a.467.467,0,0,0,.466-.43.357.357,0,0,0,0-.036v-4.518a1.4,1.4,0,0,1,2.806,0V240.9a.352.352,0,0,0,0,.036.467.467,0,0,0,.466.43h4.677a.467.467,0,0,0,.468-.466v-7.89A.467.467,0,0,0,70.015,232.543Z" transform="translate(-56.452 -232.543)"/>
    </g>
  </g>
</svg>
