<svg xmlns="http://www.w3.org/2000/svg" width="76.475" height="78.735" viewBox="0 0 76.475 78.735">
  <g id="List_of_sample_status" data-name="List of sample status" transform="translate(-393.5 -345.265)">
    <g id="blood-test" transform="translate(394 345.579)">
      <path id="Path_1532" data-name="Path 1532" d="M61.691,29.608l1.62,1.62L75.268,19.27,56.39.393,44.433,12.35l1.62,1.62L3.239,56.784A11.058,11.058,0,1,0,18.877,72.422Zm-14.944,8.7-9.392-9.392,3.061-3.061,9.392,9.392ZM32.759,52.293,23.368,42.9,34.232,32.037l9.392,9.392ZM20.245,46.025l9.392,9.392-3.5,3.5-9.392-9.392ZM69.021,19.27,63.31,24.981,50.68,12.35,56.39,6.64ZM49.176,17.093l9.392,9.392L52.93,32.122,43.539,22.73ZM15.754,69.3a6.641,6.641,0,0,1-9.392-9.392l7.257-7.257,9.392,9.392Z" transform="translate(0 0)" fill="#fff" stroke="#000" stroke-width="1"/>
    </g>
    <g id="Ellipse_66" data-name="Ellipse 66" transform="translate(421 391)" fill="#111" stroke="#fff" stroke-width="3">
      <circle cx="15" cy="15" r="15" stroke="none"/>
      <circle cx="15" cy="15" r="16.5" fill="none"/>
    </g>
    <path id="Path_1534" data-name="Path 1534" d="M82.19,340.341l-2.8,2.8,5.351,5.351,9.3-9.3-2.8-2.8L84.746,342.9Zm0,0" transform="translate(349.605 63.613)" fill="#ffd866"/>
  </g>
</svg>
