<svg xmlns="http://www.w3.org/2000/svg" width="98" height="71" viewBox="0 0 98 71">
  <g id="manage-hardware" transform="translate(2.344 1.685)">
    <g id="Group_816" data-name="Group 816" transform="translate(-0.344 0.315)">
      <g id="bg">
        <g id="Group_828" data-name="Group 828">
          <g id="Group_826" data-name="Group 826">
            <g id="van" transform="translate(7.193 10.178)">
              <g id="Path_1535" data-name="Path 1535" transform="translate(0.004 22.35)">
                <path id="Path_1535-2" data-name="Path 1535" d="M22.551,251.875A10.9,10.9,0,0,1,11.79,242.3l-.027-.225H8.328a8.117,8.117,0,0,1-8.072-8.147V217.062a1.139,1.139,0,0,1,2.27,0v6.789H8.5a1.151,1.151,0,0,1,0,2.291H2.526V229.1H6.773a1.151,1.151,0,0,1,0,2.291H2.526v2.53a5.837,5.837,0,0,0,5.8,5.854h3.435l.027-.225a10.852,10.852,0,1,1,10.76,12.317Zm0-19.606a8.658,8.658,0,1,0,8.578,8.658,8.618,8.618,0,0,0-8.578-8.658Z" transform="translate(-0.003 -215.662)" fill="#fff"/>
                <path id="Path_1536" data-name="Path 1536" d="M1.393,216.18a.888.888,0,0,0-.883.891v16.862a7.865,7.865,0,0,0,7.82,7.893h3.659l.055.445a10.687,10.687,0,1,0,0-2.673l-.055.446H8.331a6.091,6.091,0,0,1-6.053-6.112v-2.784H6.771a.892.892,0,0,0,0-1.777H2.279V225.9H8.505a.892.892,0,0,0,0-1.777H2.279v-7.044a.888.888,0,0,0-.883-.891m21.16,33.663a8.913,8.913,0,1,1,8.831-8.912,8.872,8.872,0,0,1-8.831,8.912M1.393,215.67a1.4,1.4,0,0,1,1.387,1.4V223.6H8.505a1.4,1.4,0,0,1,0,2.8H2.781v2.451h3.99a1.4,1.4,0,0,1,0,2.8H2.781v2.276a5.582,5.582,0,0,0,5.55,5.6h3.211a11.2,11.2,0,1,1,0,2.8H8.331a8.374,8.374,0,0,1-8.325-8.4V217.07a1.4,1.4,0,0,1,1.387-1.4Zm21.16,33.663a8.4,8.4,0,1,0-8.325-8.4,8.364,8.364,0,0,0,8.325,8.4Z" transform="translate(-0.006 -215.67)" fill="#fff"/>
              </g>
              <g id="Path_1536-2" data-name="Path 1536" transform="translate(19.777 44.812)">
                <path id="Path_1537" data-name="Path 1537" d="M116.778,349.344A2.546,2.546,0,1,1,119.3,346.8a2.534,2.534,0,0,1-2.522,2.546Z" transform="translate(-114.003 -343.995)" fill="#ffd866"/>
                <path id="Path_1538" data-name="Path 1538" d="M116.781,344.513a2.291,2.291,0,1,0,2.27,2.291,2.28,2.28,0,0,0-2.27-2.291m0-.51a2.8,2.8,0,1,1-2.775,2.8,2.788,2.788,0,0,1,2.775-2.8Z" transform="translate(-114.006 -344)" fill="#ffd866"/>
              </g>
              <g id="Path_1537-2" data-name="Path 1537" transform="translate(61.749 44.812)">
                <path id="Path_1539" data-name="Path 1539" d="M358.778,349.344A2.546,2.546,0,1,1,361.3,346.8,2.534,2.534,0,0,1,358.778,349.344Z" transform="translate(-356.003 -343.995)" fill="#ffd866"/>
                <path id="Path_1540" data-name="Path 1540" d="M358.781,344.513a2.291,2.291,0,1,0,2.27,2.291,2.28,2.28,0,0,0-2.27-2.291m0-.51a2.8,2.8,0,1,1-2.775,2.8,2.788,2.788,0,0,1,2.775-2.8Z" transform="translate(-356.006 -344)" fill="#ffd866"/>
              </g>
              <g id="Path_1538-2" data-name="Path 1538" transform="translate(0.004)">
                <path id="Path_1541" data-name="Path 1541" d="M64.525,146.558a10.9,10.9,0,0,1-10.76-9.579l-.027-.225H38.51a1.151,1.151,0,0,1,0-2.29H53.737l.027-.225a10.832,10.832,0,0,1,21.52,0l.027.224h5.166a5.837,5.837,0,0,0,5.8-5.854v-.956H81.513a3.947,3.947,0,0,1,0-7.893h4.765v-6.285H64.706a6.874,6.874,0,0,1-5.363-2.582,7.009,7.009,0,0,1-1.385-5.83l1.015-4.821a6.947,6.947,0,0,1,6.748-5.514H76.963l-.7-.468a22.061,22.061,0,0,0-12.3-3.718H8.328a5.837,5.837,0,0,0-5.8,5.854v4.2a1.139,1.139,0,0,1-2.27,0V96.4A8.117,8.117,0,0,1,8.33,88.253H63.966A24.707,24.707,0,0,1,88.555,112.33v16.28a8.117,8.117,0,0,1-8.072,8.147H75.314l-.028.224a10.894,10.894,0,0,1-10.762,9.578Zm0-19.605A8.658,8.658,0,1,0,73.1,135.61a8.618,8.618,0,0,0-8.578-8.657Zm17-4.9a1.656,1.656,0,0,0,0,3.311h4.765v-3.311Zm-15.8-25.03a4.662,4.662,0,0,0-4.528,3.7l-1.016,4.819a4.7,4.7,0,0,0,.929,3.913,4.612,4.612,0,0,0,3.6,1.732H86.2l-.027-.279A22.747,22.747,0,0,0,79.7,97.1l-.074-.074H65.721Z" transform="translate(-0.003 -87.995)" fill="#fff"/>
                <path id="Path_1542" data-name="Path 1542" d="M8.331,88.513a7.864,7.864,0,0,0-7.82,7.892v4.2a.883.883,0,0,0,1.761,0v-4.2a6.091,6.091,0,0,1,6.056-6.112h55.64a22.317,22.317,0,0,1,12.44,3.764l1.4.936H65.724a6.7,6.7,0,0,0-6.5,5.312l-1.015,4.821a6.754,6.754,0,0,0,1.335,5.617,6.623,6.623,0,0,0,5.166,2.487h21.83v6.8H81.522a3.692,3.692,0,0,0,0,7.383h5.015v1.21a6.091,6.091,0,0,1-6.057,6.112H75.093l-.056-.446a10.58,10.58,0,0,0-21.018,0l-.056.446H38.51a.892.892,0,0,0,0,1.777H53.961l.057.446a10.58,10.58,0,0,0,21.018,0l.056-.446h5.386a7.867,7.867,0,0,0,7.821-7.892V112.334A24.453,24.453,0,0,0,63.962,88.512H8.331m78.153,22.931H64.708a4.863,4.863,0,0,1-3.794-1.826,4.959,4.959,0,0,1-.98-4.126l1.015-4.819a4.916,4.916,0,0,1,4.775-3.9H79.736l.147.148a23,23,0,0,1,6.549,13.967l.054.559m.054,14.179H81.522a1.911,1.911,0,0,1,0-3.821h5.016v3.821m-22.012,18.9a8.913,8.913,0,1,1,8.831-8.912,8.872,8.872,0,0,1-8.831,8.912M8.331,88H63.967c14.4,0,24.842,12.144,24.842,24.331v16.28a8.374,8.374,0,0,1-8.326,8.4H75.536a11.085,11.085,0,0,1-22.021,0H38.51a1.4,1.4,0,0,1,0-2.8H53.516a11.085,11.085,0,0,1,22.02,0h4.949a5.582,5.582,0,0,0,5.551-5.6v-.7H81.522a4.2,4.2,0,0,1,0-8.4h4.509v-5.776H64.709a7.122,7.122,0,0,1-5.56-2.674,7.264,7.264,0,0,1-1.435-6.046l1.015-4.819a7.2,7.2,0,0,1,7-5.71h10.4a21.821,21.821,0,0,0-12.159-3.675H8.331a5.582,5.582,0,0,0-5.55,5.6v4.2a1.388,1.388,0,1,1-2.775,0v-4.2A8.373,8.373,0,0,1,8.331,88Zm77.6,22.931a22.422,22.422,0,0,0-6.4-13.652h-13.8a4.408,4.408,0,0,0-4.281,3.5L60.427,105.6a4.447,4.447,0,0,0,.881,3.7,4.36,4.36,0,0,0,3.4,1.636H85.928Zm.1,14.179v-2.8h-4.51a1.4,1.4,0,0,0,0,2.8ZM64.526,144.018a8.4,8.4,0,1,0-8.325-8.4,8.364,8.364,0,0,0,8.325,8.4Z" transform="translate(-0.006 -88)" fill="#fff"/>
              </g>
              <g id="Path_1539-2" data-name="Path 1539" transform="translate(56.546 30.286)">
                <path id="Path_1543" data-name="Path 1543" d="M330.164,263.544h-2.775a1.151,1.151,0,0,1,0-2.291h2.775a1.151,1.151,0,0,1,0,2.291Z" transform="translate(-326 -260.998)" fill="#fff"/>
                <path id="Path_1544" data-name="Path 1544" d="M330.168,263.294a.892.892,0,0,0,0-1.777h-2.775a.893.893,0,0,0,0,1.777h2.775m0,.51h-2.775a1.4,1.4,0,0,1,0-2.8h2.775a1.4,1.4,0,0,1,0,2.8Z" transform="translate(-326.006 -261.003)" fill="#fff"/>
              </g>
              <g id="Path_1540-2" data-name="Path 1540" transform="translate(0 16.79)">
                <path id="Path_1545" data-name="Path 1545" d="M1.384,186.53a1.151,1.151,0,0,1,0-2.292,1.162,1.162,0,0,1,.95.523,1.138,1.138,0,0,1-.945,1.766Z" transform="translate(0.009 -183.967)" fill="#fff"/>
                <path id="Path_1546" data-name="Path 1546" d="M1.389,186.28a.886.886,0,0,0,.738-1.368.9.9,0,0,0-.738-.418.893.893,0,0,0-.735,1.385h0a.859.859,0,0,0,.732.392m0,.51a1.364,1.364,0,0,1-1.154-.627,1.411,1.411,0,0,1,.171-1.77,1.379,1.379,0,0,1,1.754-.174,1.408,1.408,0,0,1,.509,1.7,1.368,1.368,0,0,1-1.28.864Z" transform="translate(0.003 -183.973)" fill="#fff"/>
              </g>
            </g>
            <g id="Rectangle_1612" data-name="Rectangle 1612" fill="#111" stroke="#fff" stroke-width="2">
              <rect width="42.47" height="32.409" rx="1" stroke="none"/>
              <rect x="-1" y="-1" width="44.47" height="34.409" rx="2" fill="none"/>
            </g>
            <g id="barcode" transform="translate(5.923 2.508)">
              <path id="Path_1514" data-name="Path 1514" d="M21.845,32.9H26.6V48.059H21.845Z" transform="translate(-18.875 -29.908)" fill="#fff"/>
              <path id="Path_1515" data-name="Path 1515" d="M71,32.9h3.382V48.059H71Z" transform="translate(-53.563 -29.908)" fill="#fff"/>
              <path id="Path_1516" data-name="Path 1516" d="M100.41,32.9H102.1V48.059H100.41Z" transform="translate(-74.313 -29.908)" fill="#fff"/>
              <path id="Path_1517" data-name="Path 1517" d="M46.893,32.9h2.382V48.059H46.893Z" transform="translate(-36.549 -29.908)" fill="#fff"/>
              <g id="Group_814" data-name="Group 814" transform="translate(0)">
                <path id="Path_1518" data-name="Path 1518" d="M12.289,28.817a.52.52,0,0,0,.518-.523V23.873h4.381a.523.523,0,0,0,0-1.045h-4.9a.52.52,0,0,0-.518.523V28.3a.52.52,0,0,0,.518.523Z" transform="translate(-11.768 -22.828)" fill="#ffd866"/>
                <path id="Path_1519" data-name="Path 1519" d="M101.5,22.833H96.6a.523.523,0,0,0,0,1.045h4.385V28.3a.518.518,0,1,0,1.036,0V23.353a.52.52,0,0,0-.518-.523Z" transform="translate(-71.259 -22.828)" fill="#ffd866"/>
                <path id="Path_1520" data-name="Path 1520" d="M101.5,85.024a.52.52,0,0,0-.518.523v4.424H96.6a.523.523,0,0,0,0,1.045h4.9a.52.52,0,0,0,.518-.523V85.549a.52.52,0,0,0-.518-.523Z" transform="translate(-71.259 -66.542)" fill="#ffd866"/>
                <path id="Path_1521" data-name="Path 1521" d="M17.188,89.969H12.8V85.545a.518.518,0,1,0-1.036,0V90.49a.52.52,0,0,0,.518.523h4.9a.523.523,0,0,0,0-1.045Z" transform="translate(-11.768 -66.542)" fill="#ffd866"/>
                <path id="Path_1522" data-name="Path 1522" d="M60.688,31.155a.52.52,0,0,0-.518.523V46.827a.518.518,0,1,0,1.036,0V31.676a.52.52,0,0,0-.518-.523Z" transform="translate(-45.919 -28.677)" fill="#ffd866"/>
                <path id="Path_1523" data-name="Path 1523" d="M90.218,31.155a.52.52,0,0,0-.518.523V46.826a.518.518,0,1,0,1.036,0V31.674a.52.52,0,0,0-.518-.523Z" transform="translate(-66.755 -28.677)" fill="#ffd866"/>
                <path id="Path_1524" data-name="Path 1524" d="M25.367,93.345H20.6a.523.523,0,0,0,0,1.045h4.756a.523.523,0,0,0,0-1.045Z" transform="translate(-17.64 -72.391)" fill="#ffd866"/>
                <path id="Path_1525" data-name="Path 1525" d="M48.036,93.345H45.654a.523.523,0,0,0,0,1.045h2.382a.523.523,0,0,0,0-1.045Z" transform="translate(-35.314 -72.391)" fill="#ffd866"/>
                <path id="Path_1526" data-name="Path 1526" d="M61.162,93.687a.546.546,0,0,0-.048-.092.814.814,0,0,0-.064-.077.529.529,0,0,0-.725,0,.392.392,0,0,0-.064.077.387.387,0,0,0-.048.092.355.355,0,0,0-.029.1.436.436,0,0,0,0,.209.354.354,0,0,0,.029.1.451.451,0,0,0,.112.169.5.5,0,0,0,.362.154.516.516,0,0,0,.365-.154.788.788,0,0,0,.064-.077.543.543,0,0,0,.048-.092.519.519,0,0,0,.029-.1.594.594,0,0,0,0-.209.519.519,0,0,0-.028-.1Z" transform="translate(-45.918 -72.41)" fill="#ffd866"/>
                <path id="Path_1527" data-name="Path 1527" d="M73.149,93.345H69.766a.523.523,0,0,0,0,1.045h3.383a.523.523,0,0,0,0-1.045Z" transform="translate(-52.325 -72.391)" fill="#ffd866"/>
                <path id="Path_1528" data-name="Path 1528" d="M90.691,93.687a.916.916,0,0,0-.047-.092.835.835,0,0,0-.064-.077.532.532,0,0,0-.725,0,.5.5,0,0,0-.062.077.387.387,0,0,0-.048.092.354.354,0,0,0-.029.1.411.411,0,0,0-.012.1.392.392,0,0,0,.012.1.354.354,0,0,0,.029.1.388.388,0,0,0,.048.092.5.5,0,0,0,.062.077.428.428,0,0,0,.08.065.644.644,0,0,0,.088.048.6.6,0,0,0,.1.029.589.589,0,0,0,.1.013.559.559,0,0,0,.1-.013.47.47,0,0,0,.1-.029.524.524,0,0,0,.168-.113.513.513,0,0,0,.15-.365.633.633,0,0,0-.009-.1.513.513,0,0,0-.029-.1Z" transform="translate(-66.755 -72.41)" fill="#ffd866"/>
                <path id="Path_1529" data-name="Path 1529" d="M100.866,94.385a.523.523,0,0,0,0-1.045H99.176a.523.523,0,0,0,0,1.045Z" transform="translate(-73.078 -72.391)" fill="#ffd866"/>
              </g>
            </g>
          </g>
        </g>
      </g>
    </g>
  </g>
</svg>
