<svg width="141.732" height="141.732" xmlns="http://www.w3.org/2000/svg">

 <g>
  <title>background</title>
  <rect fill="none" id="canvas_background" height="402" width="582" y="-1" x="-1"/>
 </g>
 <g>
  <title>Layer 1</title>
  <path fill="#6c754a" id="svg_1" d="m0,137.174l34.864,-28.711l0,-58.74l-34.864,28.712l0,58.739zm70.629,-59.318l-34.164,-28.133l0,58.74l34.164,28.134l0,-58.741zm11.264,-55.909c0,6.062 -4.912,10.975 -10.974,10.975c-6.061,0 -10.974,-4.914 -10.974,-10.975c0,-6.061 4.913,-10.975 10.974,-10.975c6.061,0.001 10.974,4.915 10.974,10.975m8.441,10.975c1.869,-3.23 2.943,-6.975 2.943,-10.975c0,-12.121 -9.826,-21.947 -21.946,-21.947c-12.122,0 -21.948,9.826 -21.948,21.947c0,5.331 1.9,10.215 5.061,14.018l16.906,24.39l17.15,-24.745c0.617,-0.772 1.182,-1.585 1.691,-2.438l0.174,-0.25l-0.031,0zm-18.064,103.477l33.631,-27.694l0,-58.738l-33.631,27.695l0,58.737zm70.39,0.775l0,-58.739l-35.279,-29.05l0,58.738l35.279,29.051z"/>
 </g>
</svg>