<svg xmlns="http://www.w3.org/2000/svg" width="75.088" height="74.208" viewBox="0 0 75.088 74.208">
  <g id="Monitor_cash" data-name="Monitor cash" transform="translate(0 -3)">
    <g id="Group_815" data-name="Group 815" transform="translate(43.99 40.134)">
      <g id="Group_814" data-name="Group 814">
        <path id="Path_1511" data-name="Path 1511" d="M306.114,266.783a2.822,2.822,0,1,1,3.226-2.792,1.467,1.467,0,0,0,2.933,0,5.835,5.835,0,0,0-4.693-5.56v-.763a1.467,1.467,0,1,0-2.933,0v.763a5.835,5.835,0,0,0-4.693,5.56,5.961,5.961,0,0,0,6.16,5.726,2.822,2.822,0,1,1-3.227,2.793,1.467,1.467,0,1,0-2.933,0,5.835,5.835,0,0,0,4.693,5.56v.634a1.467,1.467,0,1,0,2.933,0v-.634a5.835,5.835,0,0,0,4.693-5.56A5.961,5.961,0,0,0,306.114,266.783Z" transform="translate(-299.954 -256.201)" fill="#ffd866"/>
      </g>
    </g>
    <g id="Group_817" data-name="Group 817" transform="translate(56.305 34.94)">
      <g id="Group_816" data-name="Group 816" transform="translate(0 0)">
        <path id="Path_1512" data-name="Path 1512" d="M393.832,227.838a19.109,19.109,0,0,0-7.805-6.908,1.467,1.467,0,1,0-1.271,2.643,16.146,16.146,0,0,1,7.272,22.115,1.467,1.467,0,1,0,2.589,1.378,19.087,19.087,0,0,0-.785-19.228Z" transform="translate(-383.924 -220.785)" fill="#ffd866"/>
      </g>
    </g>
    <g id="Group_819" data-name="Group 819" transform="translate(50.89 33.211)">
      <g id="Group_818" data-name="Group 818">
        <path id="Path_1513" data-name="Path 1513" d="M348.565,209h-.1a1.467,1.467,0,1,0,0,2.933h.092a1.467,1.467,0,0,0,.007-2.933Z" transform="translate(-347 -209.001)" fill="#ffd866"/>
      </g>
    </g>
    <g id="Group_821" data-name="Group 821" transform="translate(31.092 42.555)">
      <g id="Group_820" data-name="Group 820">
        <path id="Path_1514" data-name="Path 1514" d="M224.087,296.982a16.146,16.146,0,0,1-7.272-22.115,1.467,1.467,0,0,0-2.589-1.378,19.074,19.074,0,0,0,8.59,26.136,1.467,1.467,0,1,0,1.271-2.644Z" transform="translate(-212.002 -272.711)" fill="#ffd866"/>
      </g>
    </g>
    <g id="Group_823" data-name="Group 823" transform="translate(46.399 68.409)">
      <g id="Group_822" data-name="Group 822" transform="translate(0 0)">
        <path id="Path_1515" data-name="Path 1515" d="M317.936,449h-.085a1.467,1.467,0,0,0-.013,2.933h.1a1.467,1.467,0,1,0,0-2.933Z" transform="translate(-316.378 -448.999)" fill="#ffd866"/>
      </g>
    </g>
    <g id="Group_825" data-name="Group 825" transform="translate(0 3)">
      <g id="Group_824" data-name="Group 824" transform="translate(0 0)">
        <path id="Path_1516" data-name="Path 1516" d="M56.816,28.25a6.732,6.732,0,0,0-.652-1.2h3.818a6.746,6.746,0,1,0,0-13.492H48.238A6.742,6.742,0,0,0,42.677,3H6.746a6.746,6.746,0,1,0,0,13.492H18.49a6.727,6.727,0,0,0,0,7.626H14.666a6.742,6.742,0,0,0-4.192,12.026,6.734,6.734,0,0,0,0,10.559,6.734,6.734,0,0,0,0,10.559,6.742,6.742,0,0,0,4.192,12.026H31.949A24.926,24.926,0,1,0,56.816,28.25Zm3.166-11.757a3.813,3.813,0,1,1,0,7.626H24.052a3.813,3.813,0,0,1,0-7.626ZM6.746,13.559a3.813,3.813,0,1,1,0-7.626H42.677a3.813,3.813,0,0,1,0,7.626Zm7.919,13.492H50.6a3.811,3.811,0,0,1,1.664.383c-.694-.058-1.395-.09-2.1-.09a24.854,24.854,0,0,0-17.643,7.333H14.666a3.813,3.813,0,0,1,0-7.626Zm0,10.559H30.008a24.861,24.861,0,0,0-3.77,7.626H14.666a3.813,3.813,0,1,1,0-7.626Zm0,10.559h10.9a24.951,24.951,0,0,0-.09,7.626H14.666a3.813,3.813,0,1,1,0-7.626Zm0,18.185a3.813,3.813,0,1,1,0-7.626H26.074a24.833,24.833,0,0,0,3.519,7.626Zm35.491,7.92a22,22,0,1,1,22-22A22.023,22.023,0,0,1,50.157,74.275Z" transform="translate(0 -3)" fill="#fff"/>
      </g>
    </g>
  </g>
</svg>
