<svg id="photo-camera" xmlns="http://www.w3.org/2000/svg" width="31.147" height="25.437" viewBox="0 0 31.147 25.437">
  <path id="Path_35" data-name="Path 35" d="M28.656,10.691H24.231L22.154,5.5H8.993L6.916,10.691H6.229V8.1H3.115v2.6H2.491A2.494,2.494,0,0,0,0,13.182V28.428a2.512,2.512,0,0,0,2.509,2.509H28.638a2.512,2.512,0,0,0,2.509-2.509V13.182A2.494,2.494,0,0,0,28.656,10.691ZM4.153,9.134H5.191v1.557H4.153ZM30.109,28.428A1.472,1.472,0,0,1,28.638,29.9H2.509a1.472,1.472,0,0,1-1.471-1.471V13.182a1.455,1.455,0,0,1,1.453-1.453H7.619L9.7,6.538H21.452l2.076,5.191h5.128a1.455,1.455,0,0,1,1.453,1.453V28.428Z" transform="translate(0 -5.5)" fill="#fff"/>
  <path id="Path_36" data-name="Path 36" d="M21.344,14.5a9.344,9.344,0,1,0,9.344,9.344A9.355,9.355,0,0,0,21.344,14.5Zm0,17.65a8.306,8.306,0,1,1,8.306-8.306A8.316,8.316,0,0,1,21.344,32.15Z" transform="translate(-5.771 -9.828)" fill="#fff"/>
  <path id="Path_37" data-name="Path 37" d="M24.229,20.5a6.229,6.229,0,1,0,6.229,6.229A6.236,6.236,0,0,0,24.229,20.5Zm0,11.421a5.191,5.191,0,1,1,5.191-5.191A5.2,5.2,0,0,1,24.229,31.921Z" transform="translate(-8.656 -12.713)" fill="#fff"/>
  <path id="Path_38" data-name="Path 38" d="M50.076,19.5a2.076,2.076,0,1,0,2.076,2.076A2.079,2.079,0,0,0,50.076,19.5Zm0,3.115a1.038,1.038,0,1,1,1.038-1.038A1.039,1.039,0,0,1,50.076,22.615Z" transform="translate(-23.082 -12.232)" fill="#fff"/>
</svg>
