<svg id="add-circular-outlined-button" xmlns="http://www.w3.org/2000/svg" width="36" height="36" viewBox="0 0 36 36">
  <g id="_x38__3_">
    <g id="Group_771" data-name="Group 771">
      <path id="Path_1135" data-name="Path 1135" d="M18,0A18,18,0,1,0,36,18,18,18,0,0,0,18,0Zm0,33.75A15.751,15.751,0,1,1,33.751,18,15.751,15.751,0,0,1,18,33.75Zm6.75-16.875H19.125V11.25a1.125,1.125,0,1,0-2.25,0v5.624H11.25a1.125,1.125,0,1,0,0,2.25h5.624V24.75a1.125,1.125,0,1,0,2.25,0V19.125H24.75a1.125,1.125,0,0,0,0-2.25Z" fill="#fff"/>
    </g>
  </g>
</svg>
