<svg xmlns="http://www.w3.org/2000/svg" width="23.162" height="23.163" viewBox="0 0 23.162 23.163">
  <g id="search" transform="translate(-0.003 0)">
    <g id="Group_220" data-name="Group 220" transform="translate(0.003 0)">
      <g id="Group_219" data-name="Group 219">
        <path id="Path_217" data-name="Path 217" d="M22.653,20.175,16.61,14.132a9.073,9.073,0,1,0-2.474,2.474l6.043,6.043a1.75,1.75,0,0,0,2.474-2.474Zm-13.567-2.8a8.294,8.294,0,1,1,8.294-8.294A8.3,8.3,0,0,1,9.086,17.376ZM22.108,22.1a.979.979,0,0,1-1.384,0l-5.885-5.886,1.383-1.383,5.885,5.886A.978.978,0,0,1,22.108,22.1Z" transform="translate(-0.003 0)" fill="#ffffff"/>
      </g>
    </g>
    <g id="Group_222" data-name="Group 222" transform="translate(9.268 1.562)">
      <g id="Group_221" data-name="Group 221">
        <path id="Path_218" data-name="Path 218" d="M192.169,32.409l-.02.772a6.735,6.735,0,0,1,5.106,2.553l.6-.48A7.507,7.507,0,0,0,192.169,32.409Z" transform="translate(-192.149 -32.409)" fill="#ffffff"/>
      </g>
    </g>
    <g id="Group_224" data-name="Group 224" transform="translate(14.88 5.219)">
      <g id="Group_223" data-name="Group 223">
        <path id="Path_219" data-name="Path 219" d="M309.187,108.233l-.662.4a6.755,6.755,0,0,1,.386.741l.7-.312A7.575,7.575,0,0,0,309.187,108.233Z" transform="translate(-308.525 -108.233)" fill="#ffffff"/>
      </g>
    </g>
  </g>
</svg>
