<svg xmlns="http://www.w3.org/2000/svg" width="79.007" height="79.007" viewBox="0 0 79.007 79.007">
  <g id="sent-sample-to-clsl" transform="translate(-580.5 -303.265)">
    <g id="Group_813" data-name="Group 813" transform="translate(581 303.972)">
      <g id="bg" transform="translate(0)">
        <g id="blood-test">
          <path id="Path_1532" data-name="Path 1532" d="M63.766,30.591l1.674,1.674L77.8,19.9,58.287.393,45.928,12.752,47.6,14.427,3.348,58.681A11.43,11.43,0,1,0,19.512,74.845ZM48.32,39.583l-9.708-9.708,3.164-3.164,9.708,9.708ZM33.861,54.039,24.154,44.33,35.384,33.1l9.708,9.708ZM20.926,47.56l9.708,9.708-3.618,3.618-9.708-9.708ZM71.343,19.9l-5.9,5.9L52.385,12.752l5.9-5.9ZM50.83,17.655l9.708,9.708-5.828,5.827L45,23.481ZM16.284,71.618A6.865,6.865,0,0,1,6.576,61.91l7.5-7.5,9.708,9.708Z" transform="translate(0 -0.393)" fill="#fff" stroke="#000" stroke-width="1"/>
        </g>
      </g>
    </g>
  </g>
</svg>
