<svg xmlns="http://www.w3.org/2000/svg" width="17.02" height="16.003" viewBox="0 0 17.02 16.003">
  <g id="Agriota_call_list" data-name="Agriota call list" transform="translate(-211.464 -27.092)">
    <g id="Group_398" data-name="Group 398" transform="translate(211.974 27.592)">
      <g id="Group_396" data-name="Group 396" transform="translate(0 0)">
        <g id="star">
          <path id="Path_206" data-name="Path 206" d="M8.379.7l2.035,4.734,5.21.44a.409.409,0,0,1,.356.277.4.4,0,0,1-.122.43L11.906,9.943l1.185,5a.4.4,0,0,1-.158.415.416.416,0,0,1-.451.021L8,12.732,3.523,15.386a.416.416,0,0,1-.451-.021.4.4,0,0,1-.158-.415l1.185-5L.142,6.578a.4.4,0,0,1-.122-.43.409.409,0,0,1,.356-.277l5.21-.44L7.623.7a.413.413,0,0,1,.756,0Z" transform="translate(0 -0.452)" fill="none" stroke="#000" stroke-width="1"/>
        </g>
      </g>
    </g>
  </g>
</svg>
