<svg id="telephone" xmlns="http://www.w3.org/2000/svg" width="19" height="18" viewBox="0 0 19 18">
  <g id="Group_394" data-name="Group 394">
    <path id="Path_1122" data-name="Path 1122" d="M14.744,56.475a1.413,1.413,0,0,0-2.053,0c-.48.449-.96.9-1.432,1.354a.294.294,0,0,1-.4.068c-.311-.16-.641-.289-.94-.464a14.617,14.617,0,0,1-3.59-3.081,7.965,7.965,0,0,1-1.287-1.944.268.268,0,0,1,.073-.358c.48-.437.948-.886,1.42-1.335a1.24,1.24,0,0,0,0-1.982c-.375-.358-.75-.708-1.126-1.065s-.771-.734-1.162-1.1a1.422,1.422,0,0,0-2.053,0c-.484.449-.948.909-1.44,1.35A2.154,2.154,0,0,0,.02,49.415a5.985,5.985,0,0,0,.516,2.712A16.322,16.322,0,0,0,3.638,57,19.08,19.08,0,0,0,10,61.69a9.616,9.616,0,0,0,3.522.966,2.667,2.667,0,0,0,2.215-.795c.411-.434.875-.829,1.311-1.244a1.247,1.247,0,0,0,.008-1.97Q15.9,57.557,14.744,56.475Z" transform="translate(-0.006 -44.662)"/>
    <path id="Path_1123" data-name="Path 1123" d="M241.321,100.548l1.18-.2A5.3,5.3,0,0,0,238.02,96l-.166,1.187a4.094,4.094,0,0,1,3.467,3.361Z" transform="translate(-227.671 -92.183)"/>
    <path id="Path_1124" data-name="Path 1124" d="M247.91,2.488A8.7,8.7,0,0,0,242.92,0l-.166,1.187a7.593,7.593,0,0,1,6.425,6.227l1.18-.2A8.766,8.766,0,0,0,247.91,2.488Z" transform="translate(-231.36)"/>
  </g>
</svg>
