<svg xmlns="http://www.w3.org/2000/svg" width="19" height="19.002" viewBox="0 0 19 19.002">
  <g id="Group_832" data-name="Group 832" transform="translate(-1283.893 -318.899)">
    <g id="broken-link" transform="translate(1283.893 318.899)">
      <path id="Path_1543" data-name="Path 1543" d="M30.894,1.315a4.5,4.5,0,0,0-6.354,0L21.363,4.491a.692.692,0,0,0,.978.978l3.176-3.178a3.111,3.111,0,0,1,4.4,4.4l-4.154,4.155a3.116,3.116,0,0,1-4.4,0,.692.692,0,0,0-.978.978,4.5,4.5,0,0,0,6.354,0l4.155-4.155a4.508,4.508,0,0,0,0-6.354Z" transform="translate(-13.203 -0.001)" fill="#fff"/>
      <path id="Path_1544" data-name="Path 1544" d="M9.381,25.595,6.692,28.278a3.111,3.111,0,0,1-4.4-4.4L6.2,19.969a3.122,3.122,0,0,1,4.4,0,.692.692,0,0,0,.978-.978,4.5,4.5,0,0,0-6.354,0L1.315,22.9a4.493,4.493,0,1,0,6.354,6.354l2.688-2.689a.691.691,0,0,0-.977-.972Z" transform="translate(0.001 -11.569)" fill="#fff"/>
      <path id="Path_1545" data-name="Path 1545" d="M32.694,44.007A.691.691,0,0,0,32,44.7v2.074a.691.691,0,0,0,1.377,0V44.7a.691.691,0,0,0-.686-.691Z" transform="translate(-20.938 -28.798)" fill="#fff"/>
      <path id="Path_1546" data-name="Path 1546" d="M38.938,42.21a.692.692,0,0,0-.978.978l1.466,1.466a.692.692,0,1,0,.978-.978Z" transform="translate(-24.707 -27.489)" fill="#fff"/>
      <path id="Path_1547" data-name="Path 1547" d="M40.721,36.007H38.647a.691.691,0,0,0,0,1.377h2.074a.691.691,0,0,0,0-1.377Z" transform="translate(-24.829 -23.563)" fill="#fff"/>
      <path id="Path_1548" data-name="Path 1548" d="M16.693,6.451a.691.691,0,0,0,.691-.691V3.686a.691.691,0,0,0-1.377,0V5.76a.691.691,0,0,0,.686.691Z" transform="translate(-10.467 -1.956)" fill="#fff"/>
      <path id="Path_1549" data-name="Path 1549" d="M7.431,9.411a.691.691,0,0,0,.977-.974l-1.47-1.47a.692.692,0,0,0-.978.978Z" transform="translate(-3.767 -4.428)" fill="#fff"/>
      <path id="Path_1550" data-name="Path 1550" d="M4.671,18.389H6.745a.691.691,0,1,0,0-1.377H4.671a.691.691,0,1,0,0,1.377Z" transform="translate(-2.605 -11.129)" fill="#fff"/>
    </g>
  </g>
</svg>
