<svg xmlns="http://www.w3.org/2000/svg" width="12.73" height="14.789" viewBox="0 0 12.73 14.789">
  <g id="manager" transform="translate(-0.5)">
    <path id="Path_1554" data-name="Path 1554" d="M13.23,11.721c0-1.588-1.807-2.834-3.357-2.893l-.79-.711A3.769,3.769,0,0,0,10.63,5.084V3.178A3.185,3.185,0,0,0,7.445,0H6.29A3.166,3.166,0,0,0,3.126,3.178V5.084A3.776,3.776,0,0,0,4.653,8.112l-.8.716C2.31,8.887.5,10.129.5,11.721V14.5a.289.289,0,0,0,.289.289H12.941a.289.289,0,0,0,.289-.289Zm-7,1.162H7.5l.3,1.329H5.914Zm1.3-.578H6.207l-.221-.69.879-.44.9.45Zm-.662-2-1-1.606a3.748,3.748,0,0,0,2,0Zm.413.429L8.663,8.517l.747.672L8.46,11.327ZM6.29.578H7.445a2.606,2.606,0,0,1,2.608,2.6v.239l-.542-.781A.288.288,0,0,0,9.067,2.6a2.846,2.846,0,0,1-2.2.868,2.847,2.847,0,0,1-2.2-.868.288.288,0,0,0-.445.039L3.7,3.392V3.178A2.6,2.6,0,0,1,6.29.578ZM3.7,5.084V4.416l.8-1.176a3.456,3.456,0,0,0,2.36.8,3.454,3.454,0,0,0,2.362-.805l.826,1.19v.655a3.175,3.175,0,1,1-6.349,0ZM5.066,8.517l1.386,2.219-1.182.592L4.319,9.189Zm-3.989,3.2c0-1.19,1.445-2.217,2.708-2.311l1.08,2.428a.289.289,0,0,0,.393.141l.206-.1.234.73-.376,1.606H1.077Zm11.576,2.491H8.4l-.365-1.6.251-.725.188.094a.289.289,0,0,0,.393-.141L9.944,9.41c1.263.094,2.708,1.121,2.708,2.311Zm0,0" transform="translate(0 0)"/>
  </g>
</svg>
