<svg xmlns="http://www.w3.org/2000/svg" width="60" height="69" viewBox="0 0 60 69">
  <g id="portfolio" transform="translate(-38.937)">
    <g id="Group_973" data-name="Group 973" transform="translate(38.937)">
      <g id="Group_972" data-name="Group 972">
        <path id="Path_1558" data-name="Path 1558" d="M77.01,0H42.462a3.529,3.529,0,0,0-3.525,3.525V15.511a1.175,1.175,0,1,0,2.35,0V3.525A1.176,1.176,0,0,1,42.462,2.35H77.01a1.176,1.176,0,0,1,1.175,1.175V47.238a1.176,1.176,0,0,1-1.175,1.175H42.462a1.176,1.176,0,0,1-1.175-1.175V25.421a1.175,1.175,0,0,0-2.35,0V47.238a3.529,3.529,0,0,0,3.525,3.525H77.01a3.529,3.529,0,0,0,3.525-3.525V3.525A3.529,3.529,0,0,0,77.01,0Z" transform="translate(-38.937)" fill="#fff"/>
      </g>
    </g>
    <g id="Group_979" data-name="Group 979" transform="translate(47.358 4.708)">
      <g id="Group_978" data-name="Group 978">
        <path id="Path_1561" data-name="Path 1561" d="M154.723,40.063a1.172,1.172,0,0,0-1.175,1.168V87.012a1.173,1.173,0,0,1-1.175,1.168h-32.2a1.168,1.168,0,1,0,0,2.336h32.2a3.518,3.518,0,0,0,3.525-3.5V41.231A1.172,1.172,0,0,0,154.723,40.063Z" transform="translate(-119 -40.063)" fill="#fff"/>
      </g>
    </g>
    <g id="Group_981" data-name="Group 981" transform="translate(50.266 8.119)">
      <g id="Group_980" data-name="Group 980" transform="translate(0)">
        <path id="Path_1562" data-name="Path 1562" d="M159.558,80a1.174,1.174,0,0,0-1.173,1.175v46.063a1.176,1.176,0,0,1-1.173,1.175H124.236a1.175,1.175,0,0,0,0,2.35h32.975a3.527,3.527,0,0,0,3.52-3.525V81.175A1.174,1.174,0,0,0,159.558,80Z" transform="translate(-123.063 -80)" fill="#fff"/>
      </g>
    </g>
    <g id="Group_985" data-name="Group 985" transform="translate(45.948 27.16)">
      <g id="Group_984" data-name="Group 984">
        <path id="Path_1564" data-name="Path 1564" d="M106.847,232.818a1.175,1.175,0,0,0-1.662,0l-3.124,3.124-1.452-1.453a1.175,1.175,0,0,0-1.662,1.662l2.283,2.283a1.175,1.175,0,0,0,1.662,0l3.955-3.955A1.175,1.175,0,0,0,106.847,232.818Z" transform="translate(-98.603 -232.474)" fill="#fff"/>
      </g>
    </g>
    <g id="Group_987" data-name="Group 987" transform="translate(57.978 29.102)">
      <g id="Group_986" data-name="Group 986">
        <path id="Path_1565" data-name="Path 1565" d="M220.821,249H207.112a1.175,1.175,0,0,0,0,2.35h13.709a1.175,1.175,0,0,0,0-2.35Z" transform="translate(-205.937 -249)" fill="#fff"/>
      </g>
    </g>
    <g id="Group_989" data-name="Group 989" transform="translate(62.751 8.696)">
      <g id="Group_988" data-name="Group 988">
        <path id="Path_1566" data-name="Path 1566" d="M256.338,74h-8.226a1.175,1.175,0,1,0,0,2.35h8.226a1.175,1.175,0,0,0,0-2.35Z" transform="translate(-246.937 -74)" fill="#fff"/>
      </g>
    </g>
    <g id="Group_991" data-name="Group 991" transform="translate(62.751 14.259)">
      <g id="Group_990" data-name="Group 990">
        <path id="Path_1567" data-name="Path 1567" d="M256.338,122h-8.226a1.175,1.175,0,1,0,0,2.35h8.226a1.175,1.175,0,0,0,0-2.35Z" transform="translate(-246.937 -122)" fill="#fff"/>
      </g>
    </g>
    <g id="Group_993" data-name="Group 993" transform="translate(62.751 19.869)">
      <g id="Group_992" data-name="Group 992">
        <path id="Path_1568" data-name="Path 1568" d="M256.338,170h-8.226a1.175,1.175,0,1,0,0,2.35h8.226a1.175,1.175,0,0,0,0-2.35Z" transform="translate(-246.937 -170)" fill="#fff"/>
      </g>
    </g>
    <g id="Group_995" data-name="Group 995" transform="translate(45.948 36.082)">
      <g id="Group_994" data-name="Group 994">
        <path id="Path_1569" data-name="Path 1569" d="M106.847,309.185a1.175,1.175,0,0,0-1.662,0l-3.124,3.124-1.452-1.452a1.175,1.175,0,0,0-1.662,1.662l2.283,2.283a1.175,1.175,0,0,0,1.662,0l3.955-3.955A1.175,1.175,0,0,0,106.847,309.185Z" transform="translate(-98.603 -308.841)" fill="#fff"/>
      </g>
    </g>
    <g id="Group_997" data-name="Group 997" transform="translate(57.978 37.985)">
      <g id="Group_996" data-name="Group 996">
        <path id="Path_1570" data-name="Path 1570" d="M220.821,325H207.112a1.175,1.175,0,0,0,0,2.35h13.709a1.175,1.175,0,0,0,0-2.35Z" transform="translate(-205.937 -325)" fill="#fff"/>
      </g>
    </g>
    <g id="_4218445851580202489" data-name="4218445851580202489" transform="translate(45.742 8.589)">
      <path id="Path_1556" data-name="Path 1556" d="M210.207,172.513A3.207,3.207,0,1,0,207,169.307,3.205,3.205,0,0,0,210.207,172.513Zm0-5.172a1.966,1.966,0,1,1-1.966,1.966A1.964,1.964,0,0,1,210.207,167.341Z" transform="translate(-205.282 -166.1)" fill="#ffd866" stroke="#ffd866" stroke-width="0.5"/>
      <path id="Path_1557" data-name="Path 1557" d="M177.324,319.1a4.8,4.8,0,0,0-3.485,1.459,5.132,5.132,0,0,0-1.44,3.644.621.621,0,0,0,.621.62h8.613a.621.621,0,0,0,.62-.62,5.154,5.154,0,0,0-1.44-3.644A4.821,4.821,0,0,0,177.324,319.1Zm-3.644,4.482a3.788,3.788,0,0,1,1.042-2.154,3.656,3.656,0,0,1,5.2,0,3.8,3.8,0,0,1,1.042,2.154Z" transform="translate(-172.4 -311.257)" fill="#ffd866" stroke="#ffd866" stroke-width="0.5"/>
    </g>
    <g id="Rectangle_1642" data-name="Rectangle 1642" transform="translate(69.937 46)" fill="#111" stroke="#fff" stroke-width="2">
      <rect width="27" height="21" rx="2" stroke="none"/>
      <rect x="-1" y="-1" width="29" height="23" rx="3" fill="none"/>
    </g>
    <g id="van" transform="translate(73.423 49.55)">
      <g id="Path_1535" data-name="Path 1535" transform="translate(-0.006 -210.365)" fill="#ffd866">
        <path d="M 5.408295631408691 224.4274749755859 C 4.049871921539307 224.4274749755859 2.893774747848511 223.4331970214844 2.683409690856934 222.100341796875 L 2.000695705413818 222.100341796875 C 0.8456758260726929 222.100341796875 -0.09399417787790298 221.1606597900391 -0.09399417787790298 220.0056304931641 L -0.09399417787790298 216.00244140625 C -0.09399417787790298 215.7639617919922 0.1000058203935623 215.5699462890625 0.3384558260440826 215.5699462890625 C 0.5769058465957642 215.5699462890625 0.7709057927131653 215.7639617919922 0.7709057927131653 216.00244140625 L 0.7709057927131653 217.4538116455078 L 2.042255878448486 217.4538116455078 C 2.28070592880249 217.4538116455078 2.474705934524536 217.6478118896484 2.474705934524536 217.8862457275391 C 2.474705934524536 218.1247100830078 2.28070592880249 218.3187103271484 2.042255878448486 218.3187103271484 L 0.7709057927131653 218.3187103271484 L 0.7709057927131653 218.7004852294922 L 1.626695871353149 218.7004852294922 C 1.865145802497864 218.7004852294922 2.059135913848877 218.8944854736328 2.059135913848877 219.1329498291016 C 2.059135913848877 219.3713989257813 1.865145802497864 219.5653839111328 1.626695871353149 219.5653839111328 L 0.7709057927131653 219.5653839111328 L 0.7709057927131653 220.0056304931641 C 0.7709057927131653 220.6837463378906 1.322585821151733 221.2354431152344 2.000695705413818 221.2354431152344 L 2.683410167694092 221.2354431152344 C 2.893766403198242 219.9025573730469 4.049871921539307 218.9082641601563 5.408295631408691 218.9082641601563 C 6.929935932159424 218.9082641601563 8.167885780334473 220.1462249755859 8.167885780334473 221.6678619384766 C 8.167885780334473 223.1895141601563 6.929935932159424 224.4274749755859 5.408295631408691 224.4274749755859 Z M 5.408295631408691 219.7731628417969 C 4.363555908203125 219.7731628417969 3.513605833053589 220.6231231689453 3.513605833053589 221.6678619384766 C 3.513605833053589 222.7126007080078 4.363555908203125 223.5625762939453 5.408295631408691 223.5625762939453 C 6.453035831451416 223.5625762939453 7.302985668182373 222.7126007080078 7.302985668182373 221.6678619384766 C 7.302985668182373 220.6231231689453 6.453035831451416 219.7731628417969 5.408295631408691 219.7731628417969 Z" stroke="none"/>
        <path d="M 0.3384556770324707 215.6699523925781 C 0.1548557281494141 215.6699523925781 0.006006240844726563 215.8188171386719 0.006006240844726563 216.00244140625 L 0.006006240844726563 220.0056304931641 C 0.006006240844726563 221.1054840087891 0.9007859230041504 222.0003509521484 2.000695705413818 222.0003509521484 L 2.770236015319824 222.0003509521484 C 2.934415817260742 223.3103790283203 4.054435729980469 224.3274688720703 5.408295631408691 224.3274688720703 C 6.874815940856934 224.3274688720703 8.067885398864746 223.1343841552734 8.067885398864746 221.6678619384766 C 8.067885398864746 220.2013397216797 6.874815940856934 219.0082702636719 5.408295631408691 219.0082702636719 C 4.054435729980469 219.0082702636719 2.934415817260742 220.0253448486328 2.770236015319824 221.3354339599609 L 2.000695705413818 221.3354339599609 C 1.267436027526855 221.3354339599609 0.670905590057373 220.7389068603516 0.670905590057373 220.0056304931641 L 0.670905590057373 219.4653930664063 L 1.62669563293457 219.4653930664063 C 1.810286045074463 219.4653930664063 1.959136009216309 219.3165283203125 1.959136009216309 219.1329498291016 C 1.959136009216309 218.9493408203125 1.810286045074463 218.8004913330078 1.62669563293457 218.8004913330078 L 0.670905590057373 218.8004913330078 L 0.670905590057373 218.2187042236328 L 2.042255878448486 218.2187042236328 C 2.225845813751221 218.2187042236328 2.374705791473389 218.0698699951172 2.374705791473389 217.8862457275391 C 2.374705791473389 217.7026519775391 2.225845813751221 217.5538177490234 2.042255878448486 217.5538177490234 L 0.670905590057373 217.5538177490234 L 0.670905590057373 216.00244140625 C 0.670905590057373 215.8188171386719 0.5220456123352051 215.6699523925781 0.3384556770324707 215.6699523925781 M 5.408295631408691 223.6625823974609 C 4.308385848999023 223.6625823974609 3.413605690002441 222.7677459716797 3.413605690002441 221.6678619384766 C 3.413605690002441 220.5680236816406 4.308385848999023 219.6731719970703 5.408295631408691 219.6731719970703 C 6.508205890655518 219.6731719970703 7.402985572814941 220.5680236816406 7.402985572814941 221.6678619384766 C 7.402985572814941 222.7677459716797 6.508165836334229 223.6625823974609 5.408295631408691 223.6625823974609 M 0.3384556770324707 215.4699554443359 C 0.6320457458496094 215.4699554443359 0.870905876159668 215.7088165283203 0.870905876159668 216.00244140625 L 0.870905876159668 217.3538208007813 L 2.042255878448486 217.3538208007813 C 2.335845947265625 217.3538208007813 2.574705600738525 217.5926666259766 2.574705600738525 217.8862457275391 C 2.574705600738525 218.1798553466797 2.335845947265625 218.418701171875 2.042255878448486 218.418701171875 L 0.870905876159668 218.418701171875 L 0.870905876159668 218.6004943847656 L 1.62669563293457 218.6004943847656 C 1.920285701751709 218.6004943847656 2.159135818481445 218.83935546875 2.159135818481445 219.1329498291016 C 2.159135818481445 219.4265441894531 1.920285701751709 219.6653900146484 1.62669563293457 219.6653900146484 L 0.870905876159668 219.6653900146484 L 0.870905876159668 220.0056304931641 C 0.870905876159668 220.6286010742188 1.377725601196289 221.1354370117188 2.000695705413818 221.1354370117188 L 2.599247455596924 221.1354370117188 C 2.851844310760498 219.7969512939453 4.029515266418457 218.8082733154297 5.408295631408691 218.8082733154297 C 6.985075950622559 218.8082733154297 8.267886161804199 220.0910797119141 8.267886161804199 221.6678619384766 C 8.267886161804199 223.2446441650391 6.985075950622559 224.5274658203125 5.408295631408691 224.5274658203125 C 4.029515266418457 224.5274658203125 2.851844787597656 223.538818359375 2.599247932434082 222.2003479003906 L 2.000695705413818 222.2003479003906 C 0.7905359268188477 222.2003479003906 -0.1939945220947266 221.2158050537109 -0.1939945220947266 220.0056304931641 L -0.1939945220947266 216.00244140625 C -0.1939945220947266 215.7088165283203 0.04486560821533203 215.4699554443359 0.3384556770324707 215.4699554443359 Z M 5.408295631408691 223.4625854492188 C 6.397895812988281 223.4625854492188 7.202985763549805 222.657470703125 7.202985763549805 221.6678619384766 C 7.202985763549805 220.6782531738281 6.397895812988281 219.8731689453125 5.408295631408691 219.8731689453125 C 4.41869592666626 219.8731689453125 3.613605976104736 220.6782531738281 3.613605976104736 221.6678619384766 C 3.613605976104736 222.657470703125 4.41869592666626 223.4625854492188 5.408295631408691 223.4625854492188 Z" stroke="none" fill="#ffd866"/>
      </g>
      <g id="Path_1538" data-name="Path 1538" transform="translate(-0.006 -88.003)" fill="#ffd866">
        <path d="M 15.46484375 102.0658187866211 C 14.10642910003662 102.0658187866211 12.95033168792725 101.0715179443359 12.73995780944824 99.73865509033203 L 9.231432914733887 99.73865509033203 C 8.992983818054199 99.73865509033203 8.798983573913574 99.544677734375 8.798983573913574 99.30623626708984 C 8.798983573913574 99.06777191162109 8.992983818054199 98.87376403808594 9.231432914733887 98.87376403808594 L 12.73995780944824 98.87376403808594 C 12.95033264160156 97.54091644287109 14.10643863677979 96.54662322998047 15.46484375 96.54662322998047 C 16.82325744628906 96.54662322998047 17.9793643951416 97.54091644287109 18.18973922729492 98.87376403808594 L 19.28801345825195 98.87376403808594 C 19.96612358093262 98.87376403808594 20.51781272888184 98.32207489013672 20.51781272888184 97.64396667480469 L 20.51781272888184 97.5777587890625 L 19.53734397888184 97.5777587890625 C 18.93226432800293 97.5777587890625 18.44000244140625 97.08548736572266 18.44000244140625 96.48040771484375 C 18.44000244140625 95.87532806396484 18.93226432800293 95.38306427001953 19.53734397888184 95.38306427001953 L 20.51781272888184 95.38306427001953 L 20.51781272888184 94.21170806884766 L 15.50844383239746 94.21170806884766 C 14.95865345001221 94.21170806884766 14.44485378265381 93.96656799316406 14.09880352020264 93.53912353515625 C 13.75294303894043 93.1119384765625 13.62021350860596 92.55850219726563 13.73463344573975 92.02076721191406 L 13.97802352905273 90.876708984375 C 14.15505313873291 90.04456329345703 14.90107345581055 89.44058227539063 15.7518835067749 89.44058227539063 L 17.89084243774414 89.44058227539063 C 17.11476135253906 88.99952697753906 16.23676872253418 88.76789855957031 15.33091354370117 88.76789855957031 L 2.000673294067383 88.76789855957031 C 1.322563409805298 88.76789855957031 0.7708833813667297 89.31958770751953 0.7708833813667297 89.99769592285156 L 0.7708833813667297 90.99505615234375 C 0.7708833813667297 91.23349761962891 0.5768833756446838 91.42748260498047 0.3384333848953247 91.42748260498047 C 0.09998337924480438 91.42748260498047 -0.09401662647724152 91.23349761962891 -0.09401662647724152 90.99505615234375 L -0.09401662647724152 89.99769592285156 C -0.09401662647724152 88.84267425537109 0.8456533551216125 87.90299224853516 2.000673294067383 87.90299224853516 L 15.33087348937988 87.90299224853516 C 16.97587394714355 87.90299224853516 18.51749420166016 88.55408477783203 19.6717529296875 89.73633575439453 C 20.75906372070313 90.84999847412109 21.38266372680664 92.32359313964844 21.38266372680664 93.77928924560547 L 21.38266372680664 93.79441833496094 C 21.38266372680664 94.04194641113281 21.38262367248535 97.24386596679688 21.38270378112793 97.64394378662109 C 21.38270378112793 98.79898834228516 20.44303321838379 99.73865509033203 19.28801345825195 99.73865509033203 L 18.18973922729492 99.73865509033203 C 17.9793643951416 101.0715179443359 16.82325744628906 102.0658187866211 15.46484375 102.0658187866211 Z M 15.46485328674316 97.41155242919922 C 14.4201135635376 97.41155242919922 13.57016372680664 98.26151275634766 13.57016372680664 99.30626678466797 C 13.57016372680664 100.3509979248047 14.4201135635376 101.2009429931641 15.46485328674316 101.2009429931641 C 16.50959396362305 101.2009429931641 17.35954284667969 100.3509979248047 17.35954284667969 99.30626678466797 C 17.35954284667969 98.26151275634766 16.50959396362305 97.41155242919922 15.46485328674316 97.41155242919922 Z M 19.537353515625 96.24798583984375 C 19.40918350219727 96.24798583984375 19.30490303039551 96.35226440429688 19.30490303039551 96.48043823242188 C 19.30490303039551 96.60861206054688 19.40918350219727 96.71289825439453 19.537353515625 96.71289825439453 L 20.51781272888184 96.71289825439453 L 20.51781272888184 96.24798583984375 L 19.537353515625 96.24798583984375 Z M 15.7518835067749 90.30546569824219 C 15.30682373046875 90.30546569824219 14.91659355163574 90.62139892578125 14.82400321960449 91.05666351318359 L 14.5806131362915 92.20077514648438 C 14.52072334289551 92.48206329345703 14.59018325805664 92.77161407470703 14.77117347717285 92.99520874023438 C 14.952073097229 93.21866607666016 15.22078323364258 93.34683227539063 15.50840377807617 93.34683227539063 L 20.48138427734375 93.34683227539063 C 20.34503555297852 92.20233154296875 19.82814979553223 91.12744903564453 19.01744270324707 90.30546569824219 L 15.7518835067749 90.30546569824219 Z" stroke="none"/>
        <path d="M 2.000673294067383 88.00298309326172 C 0.9008026123046875 88.00298309326172 0.005983352661132813 88.89783477783203 0.005983352661132813 89.99769592285156 L 0.005983352661132813 90.99505615234375 C 0.005983352661132813 91.17862701416016 0.1548328399658203 91.32748413085938 0.3384342193603516 91.32748413085938 C 0.5220241546630859 91.32748413085938 0.6708831787109375 91.17862701416016 0.6708831787109375 90.99505615234375 L 0.6708831787109375 89.99769592285156 C 0.6708831787109375 89.26444244384766 1.267414093017578 88.66789245605469 2.000673294067383 88.66789245605469 L 15.33091354370117 88.66789245605469 C 16.38531303405762 88.66789245605469 17.39193344116211 88.97607421875 18.24458312988281 89.54057312011719 L 15.7518835067749 89.54057312011719 C 14.94797325134277 89.54057312011719 14.24309349060059 90.11125183105469 14.07583332061768 90.89751434326172 L 13.83244323730469 92.04157257080078 C 13.60538291931152 93.10866546630859 14.41967391967773 94.11170196533203 15.50844383239746 94.11170196533203 L 20.61781311035156 94.11170196533203 L 20.61781311035156 95.48306274414063 L 19.53734397888184 95.48306274414063 C 18.98743438720703 95.48306274414063 18.54000282287598 95.93044281005859 18.54000282287598 96.48040771484375 C 18.54000282287598 97.03035736083984 18.98743438720703 97.47775268554688 19.53734397888184 97.47775268554688 L 20.61781311035156 97.47775268554688 L 20.61781311035156 97.64396667480469 C 20.61781311035156 98.37723541259766 20.02126312255859 98.97376251220703 19.28801345825195 98.97376251220703 L 18.10291290283203 98.97376251220703 C 17.93872261047363 97.66373443603516 16.81870269775391 96.64662170410156 15.46484375 96.64662170410156 C 14.11099338531494 96.64662170410156 12.99097347259521 97.66373443603516 12.82678318023682 98.97376251220703 L 9.231432914733887 98.97376251220703 C 9.047842979431152 98.97376251220703 8.898983001708984 99.12261199951172 8.898983001708984 99.30623626708984 C 8.898983001708984 99.48981475830078 9.047842979431152 99.63865661621094 9.231432914733887 99.63865661621094 L 12.82678318023682 99.63865661621094 C 12.99097347259521 100.9487152099609 14.11099338531494 101.9658126831055 15.46484375 101.9658126831055 C 16.81870269775391 101.9658126831055 17.93872261047363 100.9487152099609 18.10291290283203 99.63865661621094 L 19.28801345825195 99.63865661621094 C 20.38787269592285 99.63865661621094 21.2827033996582 98.74385833740234 21.2827033996582 97.64396667480469 C 21.28262329101563 97.22846221923828 21.28266334533691 93.791015625 21.28266334533691 93.77928924560547 C 21.28266334533691 90.88608551025391 18.78003311157227 88.00298309326172 15.33087348937988 88.00298309326172 L 2.000673294067383 88.00298309326172 M 20.59279251098633 93.44683837890625 L 15.50840377807617 93.44683837890625 C 14.84072303771973 93.44683837890625 14.34404373168945 92.83169555664063 14.48280334472656 92.17996215820313 L 14.72619342803955 91.03586578369141 C 14.82854270935059 90.55467224121094 15.2598934173584 90.20546722412109 15.7518835067749 90.20546722412109 L 19.05903244018555 90.20546722412109 C 19.95170402526855 91.09620666503906 20.47602272033691 92.24882507324219 20.59279251098633 93.44683837890625 M 20.61781311035156 96.81289672851563 L 19.537353515625 96.81289672851563 C 19.35404396057129 96.81289672851563 19.20490264892578 96.66373443603516 19.20490264892578 96.48043823242188 C 19.20490264892578 96.29712677001953 19.35404396057129 96.14798736572266 19.537353515625 96.14798736572266 L 20.61781311035156 96.14798736572266 L 20.61781311035156 96.81289672851563 M 15.46485328674316 101.3009490966797 C 14.3649435043335 101.3009490966797 13.47016334533691 100.4061126708984 13.47016334533691 99.30626678466797 C 13.47016334533691 98.20638275146484 14.3649435043335 97.31155395507813 15.46485328674316 97.31155395507813 C 16.56475448608398 97.31155395507813 17.45954322814941 98.20638275146484 17.45954322814941 99.30626678466797 C 17.45954322814941 100.4061126708984 16.56472396850586 101.3009490966797 15.46485328674316 101.3009490966797 M 2.000673294067383 87.80298614501953 L 15.33087348937988 87.80298614501953 C 17.00303268432617 87.80298614501953 18.5700740814209 88.46478271484375 19.7433032989502 89.66646575927734 C 20.84869384765625 90.79865264892578 21.48266410827637 92.29771423339844 21.48266410827637 93.77928924560547 L 21.48266410827637 93.79441833496094 C 21.48266410827637 94.04194641113281 21.48262405395508 97.24384307861328 21.48270416259766 97.64392852783203 C 21.48270416259766 98.8541259765625 20.49817276000977 99.83865356445313 19.28801345825195 99.83865356445313 L 18.27390098571777 99.83865356445313 C 18.02129364013672 101.1771392822266 16.84361457824707 102.1658172607422 15.46484375 102.1658172607422 C 14.08607292175293 102.1658172607422 12.90840148925781 101.1771392822266 12.65579605102539 99.83865356445313 L 9.231432914733887 99.83865356445313 C 8.937843322753906 99.83865356445313 8.698983192443848 99.59981536865234 8.698983192443848 99.30623626708984 C 8.698983192443848 99.01263427734375 8.937843322753906 98.77376556396484 9.231432914733887 98.77376556396484 L 12.65579605102539 98.77376556396484 C 12.90840244293213 97.43528747558594 14.08608245849609 96.44662475585938 15.46484375 96.44662475585938 C 16.84361457824707 96.44662475585938 18.02129364013672 97.43528747558594 18.27389907836914 98.77376556396484 L 19.28801345825195 98.77376556396484 C 19.89969062805176 98.77376556396484 20.39939880371094 98.28517150878906 20.41731452941895 97.67775726318359 L 19.53734397888184 97.67775726318359 C 18.87712287902832 97.67775726318359 18.34000396728516 97.140625 18.34000396728516 96.48040771484375 C 18.34000396728516 95.82018280029297 18.87712287902832 95.28306579589844 19.53734397888184 95.28306579589844 L 20.41781425476074 95.28306579589844 L 20.41781425476074 94.31170654296875 L 15.50844383239746 94.31170654296875 C 14.9283332824707 94.31170654296875 14.3862133026123 94.05304718017578 14.02108383178711 93.60205841064453 C 13.65614318847656 93.15129852294922 13.51609325408936 92.56734466552734 13.6368236541748 91.99995422363281 L 13.88021278381348 90.85589599609375 C 14.06699371337891 89.97786712646484 14.8541431427002 89.340576171875 15.7518835067749 89.340576171875 L 17.47906875610352 89.340576171875 C 16.81166648864746 89.02980041503906 16.08110237121582 88.86789703369141 15.33091354370117 88.86789703369141 L 2.000673294067383 88.86789703369141 C 1.377702713012695 88.86789703369141 0.8708839416503906 89.37472534179688 0.8708839416503906 89.99769592285156 L 0.8708839416503906 90.99505615234375 C 0.8708839416503906 91.28863525390625 0.6320228576660156 91.52748870849609 0.3384342193603516 91.52748870849609 C 0.04484367370605469 91.52748870849609 -0.1940174102783203 91.28863525390625 -0.1940174102783203 90.99505615234375 L -0.1940174102783203 89.99769592285156 C -0.1940174102783203 88.78752899169922 0.7905139923095703 87.80298614501953 2.000673294067383 87.80298614501953 Z M 18.97537803649902 90.40546417236328 L 15.7518835067749 90.40546417236328 C 15.35373306274414 90.40546417236328 15.00464344024658 90.68808746337891 14.92181396484375 91.07747650146484 L 14.67842292785645 92.22158813476563 C 14.62484359741211 92.47323608398438 14.68698310852051 92.73226928710938 14.84890365600586 92.93228912353516 C 15.01072311401367 93.13218688964844 15.25110340118408 93.24683380126953 15.50840377807617 93.24683380126953 L 20.36750221252441 93.24683380126953 C 20.21625709533691 92.17991638183594 19.72761344909668 91.18076324462891 18.97537803649902 90.40546417236328 Z M 20.41781425476074 96.34798431396484 L 19.537353515625 96.34798431396484 C 19.46432304382324 96.34798431396484 19.40490341186523 96.40740203857422 19.40490341186523 96.48043823242188 C 19.40490341186523 96.55347442626953 19.46432304382324 96.61289215087891 19.537353515625 96.61289215087891 L 20.41781425476074 96.61289215087891 L 20.41781425476074 96.34798431396484 Z M 15.46485328674316 101.100944519043 C 16.45445251464844 101.100944519043 17.25954437255859 100.2958526611328 17.25954437255859 99.30626678466797 C 17.25954437255859 98.31665802001953 16.45445251464844 97.51155853271484 15.46485328674316 97.51155853271484 C 14.47525405883789 97.51155853271484 13.67016315460205 98.31665802001953 13.67016315460205 99.30626678466797 C 13.67016315460205 100.2958526611328 14.47525405883789 101.100944519043 15.46485328674316 101.100944519043 Z" stroke="none" fill="#ffd866"/>
      </g>
    </g>
  </g>
</svg>
