<svg xmlns="http://www.w3.org/2000/svg" width="78" height="70" viewBox="0 0 78 70">
  <g id="calendar" transform="translate(1 1)">
    <g id="Group_941" data-name="Group 941">
      <g id="Group_940" data-name="Group 940">
        <path id="Path_1555" data-name="Path 1555" d="M56.549,4.99h-3V0h-5V4.99H15.513V0h-5V4.99h-3A7.5,7.5,0,0,0,0,12.476V56.391a7.5,7.5,0,0,0,7.506,7.486H56.549a7.5,7.5,0,0,0,7.506-7.486V12.476A7.5,7.5,0,0,0,56.549,4.99Zm2.5,51.4a2.5,2.5,0,0,1-2.5,2.5H7.506a2.5,2.5,0,0,1-2.5-2.5V23.455H59.051Zm0-37.927H5V12.476a2.5,2.5,0,0,1,2.5-2.5h3v4.99h5V9.981H48.542v4.99h5V9.981h3a2.5,2.5,0,0,1,2.5,2.5Z" fill="#fff" stroke="#111" stroke-width="2"/>
      </g>
    </g>
    <g id="Group_943" data-name="Group 943" transform="translate(9.694 29.464)">
      <g id="Group_942" data-name="Group 942" transform="translate(0 0)">
        <rect id="Rectangle_1628" data-name="Rectangle 1628" width="5.174" height="5.174" fill="#fff"/>
      </g>
    </g>
    <g id="Group_945" data-name="Group 945" transform="translate(19.502 29.464)">
      <g id="Group_944" data-name="Group 944" transform="translate(0 0)">
        <rect id="Rectangle_1629" data-name="Rectangle 1629" width="5.174" height="5.174" fill="#fff"/>
      </g>
    </g>
    <g id="Group_947" data-name="Group 947" transform="translate(29.396 29.464)">
      <g id="Group_946" data-name="Group 946" transform="translate(0 0)">
        <rect id="Rectangle_1630" data-name="Rectangle 1630" width="5.174" height="5.174" fill="#fff"/>
      </g>
    </g>
    <g id="Group_949" data-name="Group 949" transform="translate(39.289 29.464)">
      <g id="Group_948" data-name="Group 948" transform="translate(0 0)">
        <rect id="Rectangle_1631" data-name="Rectangle 1631" width="5.174" height="5.174" fill="#fff"/>
      </g>
    </g>
    <g id="Group_951" data-name="Group 951" transform="translate(49.183 29.464)">
      <g id="Group_950" data-name="Group 950" transform="translate(0 0)">
        <rect id="Rectangle_1632" data-name="Rectangle 1632" width="5.174" height="5.174" fill="#fff"/>
      </g>
    </g>
    <g id="Group_953" data-name="Group 953" transform="translate(9.694 39.318)">
      <g id="Group_952" data-name="Group 952" transform="translate(0 0)">
        <rect id="Rectangle_1633" data-name="Rectangle 1633" width="5.174" height="5.174" fill="#fff"/>
      </g>
    </g>
    <g id="Group_955" data-name="Group 955" transform="translate(19.502 39.318)">
      <g id="Group_954" data-name="Group 954" transform="translate(0 0)">
        <rect id="Rectangle_1634" data-name="Rectangle 1634" width="5.174" height="5.174" fill="#fff"/>
      </g>
    </g>
    <g id="Group_957" data-name="Group 957" transform="translate(29.396 39.318)">
      <g id="Group_956" data-name="Group 956" transform="translate(0 0)">
        <rect id="Rectangle_1635" data-name="Rectangle 1635" width="5.174" height="5.174" fill="#fff"/>
      </g>
    </g>
    <g id="Group_959" data-name="Group 959" transform="translate(39.289 39.318)">
      <g id="Group_958" data-name="Group 958" transform="translate(0 0)">
        <rect id="Rectangle_1636" data-name="Rectangle 1636" width="5.174" height="5.174" fill="#fff"/>
      </g>
    </g>
    <g id="Group_961" data-name="Group 961" transform="translate(9.694 49.172)">
      <g id="Group_960" data-name="Group 960" transform="translate(0 0)">
        <rect id="Rectangle_1637" data-name="Rectangle 1637" width="5.174" height="5.174" fill="#ffd866"/>
      </g>
    </g>
    <g id="Group_963" data-name="Group 963" transform="translate(19.502 49.172)">
      <g id="Group_962" data-name="Group 962" transform="translate(0 0)">
        <rect id="Rectangle_1638" data-name="Rectangle 1638" width="5.174" height="5.174" fill="#ffd866"/>
      </g>
    </g>
    <g id="Group_965" data-name="Group 965" transform="translate(29.396 49.172)">
      <g id="Group_964" data-name="Group 964" transform="translate(0 0)">
        <rect id="Rectangle_1639" data-name="Rectangle 1639" width="5.174" height="5.174" fill="#ffd866"/>
      </g>
    </g>
    <g id="Group_967" data-name="Group 967" transform="translate(39.289 49.172)">
      <g id="Group_966" data-name="Group 966" transform="translate(0 0)">
        <rect id="Rectangle_1640" data-name="Rectangle 1640" width="5.174" height="5.174" fill="#ffd866"/>
      </g>
    </g>
    <g id="Group_969" data-name="Group 969" transform="translate(49.183 39.318)">
      <g id="Group_968" data-name="Group 968" transform="translate(0 0)">
        <rect id="Rectangle_1641" data-name="Rectangle 1641" width="5.174" height="5.174" fill="#fff"/>
      </g>
    </g>
    <g id="Group_970" data-name="Group 970" transform="translate(45 43)">
      <g id="Rectangle_1642" data-name="Rectangle 1642" fill="#111" stroke="#fff" stroke-width="2">
        <rect width="30" height="24" rx="2" stroke="none"/>
        <rect x="-1" y="-1" width="32" height="26" rx="3" fill="none"/>
      </g>
      <g id="Group_970-2" data-name="Group 970" transform="translate(3.611 4.467)">
        <g id="van" transform="translate(0)">
          <g id="Path_1535" data-name="Path 1535" transform="translate(-0.006 -209.731)" fill="#ffd866">
            <path d="M 6.053341388702393 225.4611968994141 C 4.535208702087402 225.4611968994141 3.243675231933594 224.3474731445313 3.013318538665771 222.8562164306641 L 2.238871335983276 222.8562164306641 C 0.9525214433670044 222.8562164306641 -0.09399858117103577 221.8096923828125 -0.09399858117103577 220.5233306884766 L -0.09399858117103577 216.0421295166016 C -0.09399858117103577 215.7817687988281 0.117811419069767 215.5699310302734 0.3781514167785645 215.5699310302734 C 0.6384913921356201 215.5699310302734 0.8502914309501648 215.7817687988281 0.8502914309501648 216.0421295166016 L 0.8502914309501648 217.6787719726563 L 2.285391330718994 217.6787719726563 C 2.54573130607605 217.6787719726563 2.757531404495239 217.8905639648438 2.757531404495239 218.1508941650391 C 2.757531404495239 218.4112243652344 2.54573130607605 218.6230163574219 2.285391330718994 218.6230163574219 L 0.8502914309501648 218.6230163574219 L 0.8502914309501648 219.0743103027344 L 1.820211410522461 219.0743103027344 C 2.080551385879517 219.0743103027344 2.292351484298706 219.2861022949219 2.292351484298706 219.5464324951172 C 2.292351484298706 219.8067779541016 2.080551385879517 220.0186004638672 1.820211410522461 220.0186004638672 L 0.8502914309501648 220.0186004638672 L 0.8502914309501648 220.5233306884766 C 0.8502914309501648 221.2890014648438 1.473201394081116 221.9119110107422 2.238871335983276 221.9119110107422 L 3.013317823410034 221.9119110107422 C 3.243664979934692 220.4206237792969 4.53519868850708 219.3068695068359 6.053341388702393 219.3068695068359 C 7.750091552734375 219.3068695068359 9.130501747131348 220.6872863769531 9.130501747131348 222.3840484619141 C 9.130501747131348 224.0807952880859 7.750091552734375 225.4611968994141 6.053341388702393 225.4611968994141 Z M 6.053341388702393 220.251220703125 C 4.877281188964844 220.251220703125 3.920481443405151 221.2079925537109 3.920481443405151 222.3840484619141 C 3.920481443405151 223.5601043701172 4.877281188964844 224.5168914794922 6.053341388702393 224.5168914794922 C 7.229411602020264 224.5168914794922 8.186211585998535 223.5601043701172 8.186211585998535 222.3840484619141 C 8.186211585998535 221.2079925537109 7.229411602020264 220.251220703125 6.053341388702393 220.251220703125 Z" stroke="none"/>
            <path d="M 0.3781518936157227 215.6699371337891 C 0.1726312637329102 215.6699371337891 0.006001472473144531 215.8365783691406 0.006001472473144531 216.0421295166016 L 0.006001472473144531 220.5233306884766 C 0.006001472473144531 221.7545166015625 1.007631301879883 222.7562255859375 2.238871574401855 222.7562255859375 L 3.10029125213623 222.7562255859375 C 3.28408145904541 224.2226867675781 4.53783130645752 225.3612060546875 6.053341388702393 225.3612060546875 C 7.694971561431885 225.3612060546875 9.030501365661621 224.0256500244141 9.030501365661621 222.3840484619141 C 9.030501365661621 220.7424163818359 7.694971561431885 219.4068756103516 6.053341388702393 219.4068756103516 C 4.53783130645752 219.4068756103516 3.28408145904541 220.5453796386719 3.10029125213623 222.0119018554688 L 2.238871574401855 222.0119018554688 C 1.418061256408691 222.0119018554688 0.7502918243408203 221.3441314697266 0.7502918243408203 220.5233306884766 L 0.7502918243408203 219.9185943603516 L 1.820211410522461 219.9185943603516 C 2.025721549987793 219.9185943603516 2.192351341247559 219.7519683837891 2.192351341247559 219.5464324951172 C 2.192351341247559 219.3409271240234 2.025721549987793 219.1743011474609 1.820211410522461 219.1743011474609 L 0.7502918243408203 219.1743011474609 L 0.7502918243408203 218.5230255126953 L 2.285391330718994 218.5230255126953 C 2.490901470184326 218.5230255126953 2.657531261444092 218.3564453125 2.657531261444092 218.1508941650391 C 2.657531261444092 217.9453735351563 2.490901470184326 217.7787780761719 2.285391330718994 217.7787780761719 L 0.7502918243408203 217.7787780761719 L 0.7502918243408203 216.0421295166016 C 0.7502918243408203 215.8365783691406 0.5836610794067383 215.6699371337891 0.3781518936157227 215.6699371337891 M 6.053341388702393 224.6168975830078 C 4.822101593017578 224.6168975830078 3.820481300354004 223.6152648925781 3.820481300354004 222.3840484619141 C 3.820481300354004 221.1528778076172 4.822101593017578 220.1512145996094 6.053341388702393 220.1512145996094 C 7.284581184387207 220.1512145996094 8.286211013793945 221.1528778076172 8.286211013793945 222.3840484619141 C 8.286211013793945 223.6152648925781 7.284541130065918 224.6168975830078 6.053341388702393 224.6168975830078 M 0.3781518936157227 215.4699401855469 C 0.6936311721801758 215.4699401855469 0.950291633605957 215.7266235351563 0.950291633605957 216.0421295166016 L 0.950291633605957 217.5787811279297 L 2.285391330718994 217.5787811279297 C 2.600871562957764 217.5787811279297 2.857531547546387 217.8354187011719 2.857531547546387 218.1508941650391 C 2.857531547546387 218.4663696289063 2.600871562957764 218.7230224609375 2.285391330718994 218.7230224609375 L 0.950291633605957 218.7230224609375 L 0.950291633605957 218.9743041992188 L 1.820211410522461 218.9743041992188 C 2.13569164276123 218.9743041992188 2.392351627349854 219.23095703125 2.392351627349854 219.5464324951172 C 2.392351627349854 219.8619232177734 2.13569164276123 220.1185913085938 1.820211410522461 220.1185913085938 L 0.950291633605957 220.1185913085938 L 0.950291633605957 220.5233306884766 C 0.950291633605957 221.2338562011719 1.528341293334961 221.8119049072266 2.238871574401855 221.8119049072266 L 2.928745269775391 221.8119049072266 C 3.201537132263184 220.3148345947266 4.514720439910889 219.2068786621094 6.053341388702393 219.2068786621094 C 7.80523157119751 219.2068786621094 9.230501174926758 220.6321411132813 9.230501174926758 222.3840484619141 C 9.230501174926758 224.1359405517578 7.80523157119751 225.5612030029297 6.053341388702393 225.5612030029297 C 4.514729976654053 225.5612030029297 3.201547622680664 224.4532623291016 2.928747177124023 222.9562225341797 L 2.238871574401855 222.9562225341797 C 0.8973817825317383 222.9562225341797 -0.1939983367919922 221.8648376464844 -0.1939983367919922 220.5233306884766 L -0.1939983367919922 216.0421295166016 C -0.1939983367919922 215.7266235351563 0.06267166137695313 215.4699401855469 0.3781518936157227 215.4699401855469 Z M 6.053341388702393 224.4169006347656 C 7.174271583557129 224.4169006347656 8.086211204528809 223.5049591064453 8.086211204528809 222.3840484619141 C 8.086211204528809 221.2631378173828 7.174271583557129 220.3512115478516 6.053341388702393 220.3512115478516 C 4.932421207427979 220.3512115478516 4.020481586456299 221.2631378173828 4.020481586456299 222.3840484619141 C 4.020481586456299 223.5049591064453 4.932421207427979 224.4169006347656 6.053341388702393 224.4169006347656 Z" stroke="none" fill="#ffd866"/>
          </g>
          <g id="Path_1538" data-name="Path 1538" transform="translate(-0.006 -88.003)" fill="#ffd866">
            <path d="M 17.31068229675293 103.7330169677734 C 15.7925500869751 103.7330169677734 14.50101661682129 102.619270324707 14.27065944671631 101.1279983520508 L 10.33298301696777 101.1279983520508 C 10.07264232635498 101.1279983520508 9.860833168029785 100.9161987304688 9.860833168029785 100.6558609008789 C 9.860833168029785 100.3955154418945 10.07264232635498 100.183708190918 10.33298301696777 100.183708190918 L 14.27065944671631 100.183708190918 C 14.50101566314697 98.69243621826172 15.7925500869751 97.57868957519531 17.31068229675293 97.57868957519531 C 18.82881546020508 97.57868957519531 20.1203498840332 98.69243621826172 20.35070610046387 100.183708190918 L 21.59033203125 100.183708190918 C 22.35600280761719 100.183708190918 22.97892189025879 99.56079864501953 22.97892189025879 98.79512786865234 L 22.97892189025879 98.70906829833984 L 21.86945343017578 98.70906829833984 C 21.19870185852051 98.70906829833984 20.65301322937012 98.16339111328125 20.65301322937012 97.49264526367188 C 20.65301322937012 96.8218994140625 21.19870185852051 96.27620697021484 21.86945343017578 96.27620697021484 L 22.97892189025879 96.27620697021484 L 22.97892189025879 94.94110107421875 L 17.35948181152344 94.94110107421875 C 16.7476634979248 94.94110107421875 16.1759033203125 94.66829681396484 15.79081249237061 94.19264221191406 C 15.40593242645264 93.71724700927734 15.25822257995605 93.10138702392578 15.38555240631104 92.50299072265625 L 15.65801239013672 91.22232055664063 C 15.85500240325928 90.29628753662109 16.68518257141113 89.62416839599609 17.63198280334473 89.62416839599609 L 20.0711555480957 89.62416839599609 C 19.1910572052002 89.11488342285156 18.19205284118652 88.8472900390625 17.16075325012207 88.8472900390625 L 2.238842725753784 88.8472900390625 C 1.473182797431946 88.8472900390625 0.8502727150917053 89.47019958496094 0.8502727150917053 90.23585510253906 L 0.8502727150917053 91.35231781005859 C 0.8502727150917053 91.61264801025391 0.6384627223014832 91.82444000244141 0.3781227469444275 91.82444000244141 C 0.1177827417850494 91.82444000244141 -0.09401725977659225 91.61264801025391 -0.09401725977659225 91.35231781005859 L -0.09401725977659225 90.23585510253906 C -0.09401725977659225 88.94951629638672 0.9525027275085449 87.90299987792969 2.238842725753784 87.90299987792969 L 17.16071319580078 87.90299987792969 C 18.99888229370117 87.90299987792969 20.72154235839844 88.63054656982422 22.01136207580566 89.95163726806641 C 23.22634315490723 91.19606781005859 23.92316246032715 92.84257507324219 23.92316246032715 94.46900177001953 L 23.92316246032715 94.48760223388672 C 23.92316246032715 94.77709197998047 23.9231128692627 98.34812927246094 23.92320251464844 98.79510498046875 C 23.92320251464844 100.0814819335938 22.87668228149414 101.1279983520508 21.59033203125 101.1279983520508 L 20.35070610046387 101.1279983520508 C 20.1203498840332 102.619270324707 18.82881546020508 103.7330169677734 17.31068229675293 103.7330169677734 Z M 17.31068229675293 98.52301788330078 C 16.13462257385254 98.52301788330078 15.17782306671143 99.47982788085938 15.17782306671143 100.6558990478516 C 15.17782306671143 101.8319549560547 16.13462257385254 102.7887573242188 17.31068229675293 102.7887573242188 C 18.48675346374512 102.7887573242188 19.44355201721191 101.8319549560547 19.44355201721191 100.6558990478516 C 19.44355201721191 99.47982788085938 18.48675346374512 98.52301788330078 17.31068229675293 98.52301788330078 Z M 21.86945343017578 97.22052001953125 C 21.71939277648926 97.22052001953125 21.59730339050293 97.34260559082031 21.59730339050293 97.49267578125 C 21.59730339050293 97.64273834228516 21.71939277648926 97.76481628417969 21.86945343017578 97.76481628417969 L 22.97892189025879 97.76481628417969 L 22.97892189025879 97.22052001953125 L 21.86945343017578 97.22052001953125 Z M 17.63198280334473 90.56845092773438 C 17.12817192077637 90.56845092773438 16.68644332885742 90.92607879638672 16.58164215087891 91.41880035400391 L 16.30918312072754 92.69950866699219 C 16.24139213562012 93.01792907714844 16.32001304626465 93.34571075439453 16.52489280700684 93.59880065917969 C 16.72967338562012 93.85176849365234 17.03385353088379 93.99684906005859 17.35943222045898 93.99684906005859 L 22.93963432312012 93.99684906005859 C 22.78896141052246 92.70627593994141 22.20712280273438 91.49414825439453 21.2924690246582 90.56845092773438 L 17.63198280334473 90.56845092773438 Z" stroke="none"/>
            <path d="M 2.238842010498047 88.00299835205078 C 1.007652282714844 88.00299835205078 0.005983352661132813 89.00467681884766 0.005983352661132813 90.23585510253906 L 0.005983352661132813 91.35231781005859 C 0.005983352661132813 91.55780792236328 0.1726131439208984 91.72444152832031 0.3781223297119141 91.72444152832031 C 0.5836429595947266 91.72444152832031 0.7502727508544922 91.55780792236328 0.7502727508544922 91.35231781005859 L 0.7502727508544922 90.23585510253906 C 0.7502727508544922 89.41506195068359 1.418033599853516 88.74729156494141 2.238842010498047 88.74729156494141 L 17.16075325012207 88.74729156494141 C 18.34106254577637 88.74729156494141 19.46786308288574 89.09226989746094 20.42232322692871 89.72416687011719 L 17.63198280334473 89.72416687011719 C 16.73209381103516 89.72416687011719 15.94305229187012 90.36299896240234 15.75582313537598 91.24312591552734 L 15.48336315155029 92.52379608154297 C 15.22919273376465 93.71829223632813 16.14071273803711 94.84109497070313 17.35948181152344 94.84109497070313 L 23.07892227172852 94.84109497070313 L 23.07892227172852 96.37620544433594 L 21.86944198608398 96.37620544433594 C 21.25387191772461 96.37620544433594 20.75301361083984 96.87700653076172 20.75301361083984 97.49264526367188 C 20.75301361083984 98.10824584960938 21.25387191772461 98.60906982421875 21.86944198608398 98.60906982421875 L 23.07892227172852 98.60906982421875 L 23.07892227172852 98.79512786865234 C 23.07892227172852 99.61593627929688 22.41114234924316 100.2837066650391 21.59033203125 100.2837066650391 L 20.26373291015625 100.2837066650391 C 20.07994270324707 98.81723785400391 18.82619285583496 97.67868804931641 17.31068229675293 97.67868804931641 C 15.79517269134521 97.67868804931641 14.54142284393311 98.81723785400391 14.35763263702393 100.2837066650391 L 10.33298301696777 100.2837066650391 C 10.12746238708496 100.2837066650391 9.960832595825195 100.4503402709961 9.960832595825195 100.6558609008789 C 9.960832595825195 100.8613815307617 10.12746238708496 101.0279998779297 10.33298301696777 101.0279998779297 L 14.35763263702393 101.0279998779297 C 14.54142284393311 102.4944915771484 15.79517269134521 103.6330184936523 17.31068229675293 103.6330184936523 C 18.82619285583496 103.6330184936523 20.07994270324707 102.4944915771484 20.26373291015625 101.0279998779297 L 21.59033203125 101.0279998779297 C 22.821533203125 101.0279998779297 23.82320213317871 100.0263519287109 23.82320213317871 98.79512786865234 C 23.82311248779297 98.33000946044922 23.82315254211426 94.48213195800781 23.82315254211426 94.46900177001953 C 23.82315254211426 91.23033142089844 21.02170181274414 88.00299835205078 17.16070175170898 88.00299835205078 L 2.238842010498047 88.00299835205078 M 23.05091285705566 94.09684753417969 L 17.35943222045898 94.09684753417969 C 16.61203384399414 94.09684753417969 16.0560417175293 93.40825653076172 16.21137237548828 92.67869567871094 L 16.48382186889648 91.39799499511719 C 16.59840393066406 90.85933685302734 17.08126258850098 90.46844482421875 17.63198280334473 90.46844482421875 L 21.33403205871582 90.46844482421875 C 22.33328247070313 91.46553039550781 22.92020225524902 92.75577545166016 23.05091285705566 94.09684753417969 M 23.07892227172852 97.86481475830078 L 21.86945343017578 97.86481475830078 C 21.66426277160645 97.86481475830078 21.4973030090332 97.69786071777344 21.4973030090332 97.49267578125 C 21.4973030090332 97.2874755859375 21.66426277160645 97.12052154541016 21.86945343017578 97.12052154541016 L 23.07892227172852 97.12052154541016 L 23.07892227172852 97.86481475830078 M 17.31068229675293 102.8887557983398 C 16.07944297790527 102.8887557983398 15.0778226852417 101.8870849609375 15.0778226852417 100.6558990478516 C 15.0778226852417 99.42469787597656 16.07944297790527 98.42301940917969 17.31068229675293 98.42301940917969 C 18.54192352294922 98.42301940917969 19.54355239868164 99.42469787597656 19.54355239868164 100.6558990478516 C 19.54355239868164 101.8870849609375 18.54187393188477 102.8887557983398 17.31068229675293 102.8887557983398 M 2.238842010498047 87.80300140380859 L 17.16070175170898 87.80300140380859 C 19.02604293823242 87.80300140380859 20.77411270141602 88.541259765625 22.0829029083252 89.88177490234375 C 23.31596183776855 91.14472961425781 24.02315330505371 92.81669616699219 24.02315330505371 94.46900177001953 L 24.02315330505371 94.48423004150391 C 24.02315330505371 94.74791717529297 24.02311325073242 98.34629058837891 24.02320289611816 98.79508972167969 C 24.02320289611816 100.1366195678711 22.93182182312012 101.2279968261719 21.59033203125 101.2279968261719 L 20.43527793884277 101.2279968261719 C 20.16247749328613 102.7250671386719 18.84929466247559 103.8330154418945 17.31068229675293 103.8330154418945 C 15.77207183837891 103.8330154418945 14.45888805389404 102.7250671386719 14.1860876083374 101.2279968261719 L 10.33298301696777 101.2279968261719 C 10.017502784729 101.2279968261719 9.760832786560059 100.9713363647461 9.760832786560059 100.6558609008789 C 9.760832786560059 100.3403778076172 10.017502784729 100.0837097167969 10.33298301696777 100.0837097167969 L 14.1860876083374 100.0837097167969 C 14.45888805389404 98.58663940429688 15.77207183837891 97.47869110107422 17.31068229675293 97.47869110107422 C 18.84929466247559 97.47869110107422 20.16247749328613 98.58663940429688 20.43527793884277 100.0837097167969 L 21.59033203125 100.0837097167969 C 22.29622268676758 100.0837097167969 22.87136650085449 99.51322174072266 22.87884902954102 98.80906677246094 L 21.86944198608398 98.80906677246094 C 21.14356231689453 98.80906677246094 20.55301284790039 98.21852874755859 20.55301284790039 97.49264526367188 C 20.55301284790039 96.76676177978516 21.14356231689453 96.17620849609375 21.86944198608398 96.17620849609375 L 22.8789234161377 96.17620849609375 L 22.8789234161377 95.04109954833984 L 17.35948181152344 95.04109954833984 C 16.71734237670898 95.04109954833984 16.11725234985352 94.75477600097656 15.71309280395508 94.25556945800781 C 15.30913257598877 93.75660705566406 15.15410232543945 93.1102294921875 15.28774261474609 92.48217010498047 L 15.56020259857178 91.20150756835938 C 15.76695251464844 90.22959899902344 16.63826370239258 89.524169921875 17.63198280334473 89.524169921875 L 19.67092132568359 89.524169921875 C 18.89513778686523 89.14511108398438 18.03992080688477 88.94728851318359 17.16075325012207 88.94728851318359 L 2.238842010498047 88.94728851318359 C 1.528322219848633 88.94728851318359 0.9502735137939453 89.52533721923828 0.9502735137939453 90.23585510253906 L 0.9502735137939453 91.35231781005859 C 0.9502735137939453 91.66778564453125 0.693603515625 91.9244384765625 0.3781223297119141 91.9244384765625 C 0.06264305114746094 91.9244384765625 -0.1940174102783203 91.66778564453125 -0.1940174102783203 91.35231781005859 L -0.1940174102783203 90.23585510253906 C -0.1940174102783203 88.89437866210938 0.8973636627197266 87.80300140380859 2.238842010498047 87.80300140380859 Z M 21.25048065185547 90.66844940185547 L 17.63198280334473 90.66844940185547 C 17.17509269714355 90.66844940185547 16.77449226379395 90.99276733398438 16.679443359375 91.43960571289063 L 16.4069938659668 92.72032165527344 C 16.34551239013672 93.00910186767578 16.41681289672852 93.30635070800781 16.60262298583984 93.53588104248047 C 16.78832244873047 93.76528167724609 17.06417274475098 93.8968505859375 17.35943222045898 93.8968505859375 L 22.82615852355957 93.8968505859375 C 22.66023063659668 92.6839599609375 22.10643577575684 91.54755401611328 21.25048065185547 90.66844940185547 Z M 22.8789234161377 97.32051849365234 L 21.86945343017578 97.32051849365234 C 21.77453231811523 97.32051849365234 21.69730377197266 97.39775085449219 21.69730377197266 97.49267578125 C 21.69730377197266 97.58760070800781 21.77453231811523 97.66481781005859 21.86945343017578 97.66481781005859 L 22.8789234161377 97.66481781005859 L 22.8789234161377 97.32051849365234 Z M 17.31068229675293 102.6887588500977 C 18.43161392211914 102.6887588500977 19.34355163574219 101.7768173217773 19.34355163574219 100.6558990478516 C 19.34355163574219 99.53496551513672 18.43161392211914 98.62301635742188 17.31068229675293 98.62301635742188 C 16.18976211547852 98.62301635742188 15.27782249450684 99.53496551513672 15.27782249450684 100.6558990478516 C 15.27782249450684 101.7768173217773 16.18976211547852 102.6887588500977 17.31068229675293 102.6887588500977 Z" stroke="none" fill="#ffd866"/>
          </g>
        </g>
      </g>
    </g>
  </g>
</svg>
