<svg xmlns="http://www.w3.org/2000/svg" width="30" height="30" viewBox="0 0 30 30">
  <g id="View_user" data-name="View user" transform="translate(-1192 -139)">
    <g id="Rectangle_1627" data-name="Rectangle 1627" transform="translate(1193 140)" fill="none" stroke="#fff" stroke-width="1">
      <rect width="28" height="28" rx="1" stroke="none"/>
      <rect x="-0.5" y="-0.5" width="29" height="29" rx="1.5" fill="none"/>
    </g>
    <g id="view" transform="translate(1197 54.165)">
      <g id="Group_852" data-name="Group 852" transform="translate(0 92.835)">
        <g id="Group_851" data-name="Group 851" transform="translate(0 0)">
          <path id="Path_1533" data-name="Path 1533" d="M19.873,98.82c-.179-.244-4.436-5.985-9.873-5.985S.305,98.575.127,98.819a.66.66,0,0,0,0,.778c.178.244,4.436,5.985,9.873,5.985s9.694-5.74,9.873-5.984A.659.659,0,0,0,19.873,98.82ZM10,104.264c-4.005,0-7.474-3.81-8.5-5.055,1.026-1.247,4.487-5.055,8.5-5.055s7.473,3.809,8.5,5.055C17.475,100.456,14.014,104.264,10,104.264Z" transform="translate(0 -92.835)" fill="#fff"/>
        </g>
      </g>
      <g id="Group_854" data-name="Group 854" transform="translate(6.044 95.253)">
        <g id="Group_853" data-name="Group 853" transform="translate(0 0)">
          <path id="Path_1534" data-name="Path 1534" d="M158.678,154.725a3.956,3.956,0,1,0,3.956,3.956A3.961,3.961,0,0,0,158.678,154.725Zm0,6.593a2.637,2.637,0,1,1,2.637-2.637A2.64,2.64,0,0,1,158.678,161.318Z" transform="translate(-154.722 -154.725)" fill="#ffd866"/>
        </g>
      </g>
    </g>
  </g>
</svg>
