<svg id="Layer_1" data-name="Layer 1" xmlns="http://www.w3.org/2000/svg" xmlns:xlink="http://www.w3.org/1999/xlink" viewBox="0 0 900 350"><defs><clipPath id="clip-path"><polygon points="1.54 348.36 898.32 348.36 898.32 1.64 1.54 1.64 1.54 348.36 1.54 348.36" style="fill:none;clip-rule:evenodd"/></clipPath><clipPath id="clip-path-2"><polygon points="76.04 301.12 863.95 301.12 863.95 19.17 76.04 19.17 76.04 301.12 76.04 301.12" style="fill:none;clip-rule:evenodd"/></clipPath><clipPath id="clip-path-13"><rect x="1.54" y="1.64" width="896.77" height="346.71" style="fill:none"/></clipPath></defs><title>ground-truth-risk-report</title><polygon points="1.68 1.78 898.46 1.78 898.46 348.36 1.68 348.36 1.68 1.78 1.68 1.78" style="fill:#eaeaea;fill-rule:evenodd"/><polygon points="76.17 19.31 863.13 19.31 863.13 300.29 76.17 300.29 76.17 19.31 76.17 19.31" style="fill:#fff;fill-rule:evenodd"/><path d="M76.17,236.35h787m-787-63.81h787m-787-63.82h787m-787-63.94h787" style="fill:none;stroke:#d9d9d9;stroke-linejoin:round;stroke-width:0.821598179735155px"/><g style="clip-path:url(#clip-path)"><path d="M76.17,19.31v281m262.37-281v281m262.22-281v281m262.37-281v281" style="fill:none;stroke:#d9d9d9;stroke-linejoin:round;stroke-width:0.821598179735155px"/></g><g style="clip-path:url(#clip-path-2)"><polygon points="156.83 123.92 257.75 123.92 257.75 300.29 156.83 300.29 156.83 123.92 156.83 123.92" style="fill:#5e9fff;fill-rule:evenodd"/><polygon points="156.83 123.92 257.75 123.92 257.75 300.29 156.83 300.29 156.83 123.92 156.83 123.92" style="fill:none;stroke:#7f7f7f;stroke-linejoin:round;stroke-width:0.821598179735155px"/><polygon points="419.19 116.26 520.11 116.26 520.11 300.29 419.19 300.29 419.19 116.26 419.19 116.26" style="fill:#5e9fff;fill-rule:evenodd"/><polygon points="419.19 116.26 520.11 116.26 520.11 300.29 419.19 300.29 419.19 116.26 419.19 116.26" style="fill:none;stroke:#7f7f7f;stroke-linejoin:round;stroke-width:0.821598179735155px"/><polygon points="681.55 108.72 782.34 108.72 782.34 300.29 681.55 300.29 681.55 108.72 681.55 108.72" style="fill:#5e9fff;fill-rule:evenodd"/><polygon points="681.55 108.72 782.34 108.72 782.34 300.29 681.55 300.29 681.55 108.72 681.55 108.72" style="fill:none;stroke:#7f7f7f;stroke-linejoin:round;stroke-width:0.821598179735155px"/></g><g style="clip-path:url(#clip-path)"><line x1="76.17" y1="300.29" x2="863.13" y2="300.29" style="fill:none;stroke:#d9d9d9;stroke-linejoin:round;stroke-width:0.821598179735155px"/></g><g style="clip-path:url(#clip-path)"><path d="M76.17,300.29v3m262.37-3v3m262.22-3v3m262.37-3v3" style="fill:none;stroke:#d9d9d9;stroke-linejoin:round;stroke-width:0.821598179735155px"/></g><g style="clip-path:url(#clip-path-2)"><polyline points="207.35 85.31 469.58 85.31 731.95 85.31" style="fill:none;stroke:#3d699c;stroke-linecap:round;stroke-linejoin:round;stroke-width:1.369px;stroke-dasharray:5,5"/></g><g style="clip-path:url(#clip-path)"><path d="M210.18,85.27a2.88,2.88,0,1,1-2.88-2.88,2.88,2.88,0,0,1,2.88,2.88Z" style="fill:#2935e8"/><path d="M210.18,85.27a2.88,2.88,0,1,1-2.88-2.88,2.88,2.88,0,0,1,2.88,2.88Z" style="fill:none;stroke:#2935e8;stroke-linejoin:round;stroke-width:0.821598247750529px"/><path d="M472.4,85.27a2.88,2.88,0,1,1-2.87-2.88,2.87,2.87,0,0,1,2.87,2.88Z" style="fill:#2935e8"/><path d="M472.4,85.27a2.88,2.88,0,1,1-2.87-2.88,2.87,2.87,0,0,1,2.87,2.88Z" style="fill:none;stroke:#2935e8;stroke-linejoin:round;stroke-width:0.821598247750529px"/><path d="M734.77,85.27a2.88,2.88,0,1,1-2.88-2.88,2.88,2.88,0,0,1,2.88,2.88Z" style="fill:#2935e8"/><path d="M734.77,85.27a2.88,2.88,0,1,1-2.88-2.88,2.88,2.88,0,0,1,2.88,2.88Z" style="fill:none;stroke:#2935e8;stroke-linejoin:round;stroke-width:0.821598247750529px"/></g><g style="clip-path:url(#clip-path-2)"><polyline points="207.35 139.94 469.58 139.94 731.95 139.94" style="fill:none;stroke:#ff25f3;stroke-linecap:round;stroke-linejoin:round;stroke-width:1.369px;stroke-dasharray:5,5"/></g><g style="clip-path:url(#clip-path)"><path d="M210.18,139.9A2.88,2.88,0,1,1,207.3,137a2.88,2.88,0,0,1,2.88,2.87Z" style="fill:#ff25f3"/><path d="M210.18,139.9A2.88,2.88,0,1,1,207.3,137a2.88,2.88,0,0,1,2.88,2.87Z" style="fill:none;stroke:#ffd3fd;stroke-linejoin:round;stroke-width:0.821598247750529px"/><path d="M472.4,139.9a2.88,2.88,0,1,1-2.87-2.87,2.87,2.87,0,0,1,2.87,2.87Z" style="fill:#ff25f3"/><path d="M472.4,139.9a2.88,2.88,0,1,1-2.87-2.87,2.87,2.87,0,0,1,2.87,2.87Z" style="fill:none;stroke:#ffd3fd;stroke-linejoin:round;stroke-width:0.821598247750529px"/><path d="M734.77,139.9a2.88,2.88,0,1,1-2.88-2.87,2.88,2.88,0,0,1,2.88,2.87Z" style="fill:#ff25f3"/><path d="M734.77,139.9a2.88,2.88,0,1,1-2.88-2.87,2.88,2.88,0,0,1,2.88,2.87Z" style="fill:none;stroke:#ffd3fd;stroke-linejoin:round;stroke-width:0.821598247750529px"/></g><g style="clip-path:url(#clip-path-2)"><polyline points="207.35 103.52 469.58 103.52 731.95 103.52" style="fill:none;stroke:#7f7f7f;stroke-linecap:round;stroke-linejoin:round;stroke-width:1.3693302768868px"/></g><g style="clip-path:url(#clip-path)"><path d="M210.18,103.48a2.88,2.88,0,1,1-2.88-2.88,2.87,2.87,0,0,1,2.88,2.88Z" style="fill:#7f7f7f"/><path d="M210.18,103.48a2.88,2.88,0,1,1-2.88-2.88,2.87,2.87,0,0,1,2.88,2.88Z" style="fill:none;stroke:#7f7f7f;stroke-linejoin:round;stroke-width:0.821598247750529px"/><path d="M472.4,103.48a2.88,2.88,0,1,1-2.87-2.88,2.86,2.86,0,0,1,2.87,2.88Z" style="fill:#7f7f7f"/><path d="M472.4,103.48a2.88,2.88,0,1,1-2.87-2.88,2.86,2.86,0,0,1,2.87,2.88Z" style="fill:none;stroke:#7f7f7f;stroke-linejoin:round;stroke-width:0.821598247750529px"/><path d="M734.77,103.48a2.88,2.88,0,1,1-2.88-2.88,2.87,2.87,0,0,1,2.88,2.88Z" style="fill:#7f7f7f"/><path d="M734.77,103.48a2.88,2.88,0,1,1-2.88-2.88,2.87,2.87,0,0,1,2.88,2.88Z" style="fill:none;stroke:#7f7f7f;stroke-linejoin:round;stroke-width:0.821598247750529px"/></g><g style="clip-path:url(#clip-path-2)"><polyline points="207.35 123.92 469.58 123.92 731.95 123.92" style="fill:none;stroke:#00c1a3;stroke-linecap:round;stroke-linejoin:round;stroke-width:1.3693302768868px"/></g><g style="clip-path:url(#clip-path)"><path d="M210.18,123.88A2.88,2.88,0,1,1,207.3,121a2.88,2.88,0,0,1,2.88,2.87Z" style="fill:#00c1a3"/><path d="M210.18,123.88A2.88,2.88,0,1,1,207.3,121a2.88,2.88,0,0,1,2.88,2.87Z" style="fill:none;stroke:#c0fff5;stroke-linejoin:round;stroke-width:0.821598247750529px"/><path d="M472.4,123.88a2.88,2.88,0,1,1-2.87-2.87,2.87,2.87,0,0,1,2.87,2.87Z" style="fill:#00c1a3"/><path d="M472.4,123.88a2.88,2.88,0,1,1-2.87-2.87,2.87,2.87,0,0,1,2.87,2.87Z" style="fill:none;stroke:#c0fff5;stroke-linejoin:round;stroke-width:0.821598247750529px"/><path d="M734.77,123.88a2.88,2.88,0,1,1-2.88-2.87,2.88,2.88,0,0,1,2.88,2.87Z" style="fill:#00c1a3"/><path d="M734.77,123.88a2.88,2.88,0,1,1-2.88-2.87,2.88,2.88,0,0,1,2.88,2.87Z" style="fill:none;stroke:#c0fff5;stroke-linejoin:round;stroke-width:0.821598247750529px"/></g><g style="clip-path:url(#clip-path-13)"><text transform="translate(47.33 303.54)" style="font-size:10.269980430603027px;font-family:ArialMT, Arial"><tspan style="letter-spacing:0.0029477599986256664em">0</tspan><tspan x="5.74" y="0" style="letter-spacing:0.0019968696764883546em">.</tspan><tspan x="8.62" y="0" style="letter-spacing:-0.00903345806030446em">0</tspan><tspan x="14.24" y="0">0</tspan></text></g><g style="clip-path:url(#clip-path-13)"><text transform="translate(47.33 239.67)" style="font-size:10.269980430603027px;font-family:ArialMT, Arial"><tspan style="letter-spacing:0.0029477599986256664em">0</tspan><tspan x="5.74" y="0" style="letter-spacing:0.0019968696764883546em">.</tspan><tspan x="8.62" y="0" style="letter-spacing:-0.00903345806030446em">2</tspan><tspan x="14.24" y="0">5</tspan></text></g><g style="clip-path:url(#clip-path-13)"><text transform="translate(47.33 175.8)" style="font-size:10.269980430603027px;font-family:ArialMT, Arial"><tspan style="letter-spacing:0.0029477599986256664em">0</tspan><tspan x="5.74" y="0" style="letter-spacing:0.0019968696764883546em">.</tspan><tspan x="8.62" y="0" style="letter-spacing:-0.00903345806030446em">5</tspan><tspan x="14.24" y="0">0</tspan></text></g><g style="clip-path:url(#clip-path-13)"><text transform="translate(47.33 111.93)" style="font-size:10.269980430603027px;font-family:ArialMT, Arial"><tspan style="letter-spacing:0.0029477599986256664em">0</tspan><tspan x="5.74" y="0" style="letter-spacing:0.0019968696764883546em">.</tspan><tspan x="8.62" y="0" style="letter-spacing:-0.00903345806030446em">7</tspan><tspan x="14.24" y="0">5</tspan></text></g><g style="clip-path:url(#clip-path-13)"><text transform="translate(47.33 48.06)" style="font-size:10.269980430603027px;font-family:ArialMT, Arial"><tspan style="letter-spacing:0.0029477599986256664em">1</tspan><tspan x="5.74" y="0" style="letter-spacing:0.0019968696764883546em">.</tspan><tspan x="8.62" y="0" style="letter-spacing:-0.00903345806030446em">0</tspan><tspan x="14.24" y="0">0</tspan></text></g><g style="clip-path:url(#clip-path-13)"><text transform="translate(193.04 315.77)" style="font-size:10.269980430603027px;font-family:ArialMT, Arial">Dec</text></g><g style="clip-path:url(#clip-path-13)"><text transform="translate(460.37 315.77)" style="font-size:10.269980430603027px;font-family:ArialMT, Arial">Jan</text></g><g style="clip-path:url(#clip-path-13)"><text transform="translate(724.69 315.77)" style="font-size:10.269980430603027px;font-family:ArialMT, Arial">Feb</text></g><g style="clip-path:url(#clip-path-13)"><text transform="translate(28.47 211.24) rotate(-90)" style="font-size:11.365440368652344px;font-family:Arial-BoldMT, Arial;font-weight:700"><tspan style="letter-spacing:0.004983583843897828em">Q</tspan><tspan x="8.9" y="0" style="letter-spacing:0.0030073350782142067em">u</tspan><tspan x="15.87" y="0" style="letter-spacing:-0.001031086312530585em">a</tspan><tspan x="22.18" y="0" style="letter-spacing:0.0030073350782142067em">n</tspan><tspan x="29.16" y="0" style="letter-spacing:0.003952497531367243em">t</tspan><tspan x="32.99" y="0">i</tspan><tspan x="36.15" y="0" style="letter-spacing:0.004038421390744792em">t</tspan><tspan x="39.98" y="0" style="letter-spacing:-0.013060426625387412em">y</tspan><tspan x="46.15" y="0" style="letter-spacing:0.010998254000326241em"> </tspan><tspan x="49.43" y="0" style="letter-spacing:0.003952497531367243em">(</tspan><tspan x="53.26" y="0" style="letter-spacing:0.021996508000652483em">M</tspan><tspan x="62.98" y="0" style="letter-spacing:0.015036675391071034em">T</tspan><tspan x="70.09" y="0" style="letter-spacing:-0.00008592385937754876em">)</tspan></text></g><g style="clip-path:url(#clip-path-13)"><text transform="translate(414.09 336.79)" style="font-size:11.365440368652344px;font-family:Arial-BoldMT, Arial;font-weight:700"><tspan style="letter-spacing:0.015036675391071034em">T</tspan><tspan x="7.11" y="0">i</tspan><tspan x="10.27" y="0" style="letter-spacing:0.00206217262506117em">m</tspan><tspan x="20.4" y="0" style="letter-spacing:-0.001031086312530585em">e</tspan><tspan x="26.71" y="0"> </tspan><tspan x="29.87" y="0" style="letter-spacing:-0.004038421390744792em">P</tspan><tspan x="37.4" y="0" style="letter-spacing:-0.001031086312530585em">e</tspan><tspan x="43.71" y="0" style="letter-spacing:-0.0030073350782142067em">r</tspan><tspan x="48.1" y="0" style="letter-spacing:0.00008592385937754876em">i</tspan><tspan x="51.26" y="0" style="letter-spacing:0.0030073350782142067em">o</tspan><tspan x="58.23" y="0">d</tspan></text></g><polygon points="1.68 1.78 898.46 1.78 898.46 348.36 1.68 348.36 1.68 1.78 1.68 1.78" style="fill:none;stroke:#d9d9d9;stroke-linejoin:round;stroke-width:0.821598247750529px"/></svg>