<svg id="Layer_1" data-name="Layer 1" xmlns="http://www.w3.org/2000/svg" xmlns:xlink="http://www.w3.org/1999/xlink" viewBox="0 0 900 350"><defs><clipPath id="clip-path"><polygon points="0.92 347.5 900 347.5 900 2.37 0.92 2.37 0.92 347.5 0.92 347.5" style="fill:none;clip-rule:evenodd"/></clipPath><clipPath id="clip-path-6"><polygon points="61.84 287.95 888.84 287.95 888.84 17.11 61.84 17.11 61.84 287.95 61.84 287.95" style="fill:none;clip-rule:evenodd"/></clipPath><clipPath id="clip-path-10"><rect x="0.92" y="2.37" width="899.08" height="345.13" style="fill:none"/></clipPath></defs><title>ndvi-risk-report</title><polygon points="1.06 2.37 900 2.37 900 347.63 1.06 347.63 1.06 2.37 1.06 2.37" style="fill:#eaeaea;fill-rule:evenodd"/><polygon points="61.84 17.25 888.01 17.25 888.01 287.26 61.84 287.26 61.84 17.25 61.84 17.25" style="fill:#fff;fill-rule:evenodd"/><path d="M61.84,219.73H888M61.84,152.19H888M61.84,84.79H888M61.84,17.25H888" style="fill:none;stroke:#d9d9d9;stroke-linejoin:round;stroke-width:0.826992724104372px"/><g style="clip-path:url(#clip-path)"><path d="M96.3,17.25v270m68.78-270v270M234,17.25v270m68.91-270v270m68.78-270v270m68.92-270v270m68.77-270v270m68.92-270v270m68.78-270v270M716,17.25v270m68.78-270v270m68.92-270v270" style="fill:none;stroke:#f2f2f2;stroke-linejoin:round;stroke-width:0.826992724104372px"/></g><g style="clip-path:url(#clip-path)"><path d="M61.84,17.25v270m68.92-270v270m68.78-270v270m68.91-270v270m68.78-270v270m68.92-270v270m68.78-270v270m68.91-270v270m68.78-270v270m68.92-270v270m68.77-270v270m68.92-270v270M888,17.25v270" style="fill:none;stroke:#d9d9d9;stroke-linejoin:round;stroke-width:0.826992724104372px"/></g><g style="clip-path:url(#clip-path)"><line x1="61.84" y1="287.26" x2="888.01" y2="287.26" style="fill:none;stroke:#d9d9d9;stroke-linejoin:round;stroke-width:1.37832118401997px"/></g><g style="clip-path:url(#clip-path)"><path d="M61.84,287.26v18.61m275.39-18.61v18.61m275.39-18.61v18.61M888,287.26v18.61" style="fill:none;stroke:#d9d9d9;stroke-linejoin:round;stroke-width:1.37832118401997px"/></g><g style="clip-path:url(#clip-path)"><path d="M61.84,305.87v18.61m275.39-18.61v18.61m275.39-18.61v18.61M888,305.87v18.61" style="fill:none;stroke:#d9d9d9;stroke-linejoin:round;stroke-width:1.37832118401997px"/></g><g style="clip-path:url(#clip-path-6)"><polyline points="96.3 189.96 165.08 165.7 234 136.06 302.91 114.42 371.69 92.78 440.61 82.03 509.38 73.9 578.3 87.41 647.08 103.67 715.99 117.18 784.77 146.81 853.69 168.45" style="fill:none;stroke:#ff25f3;stroke-linecap:round;stroke-linejoin:round;stroke-width:2.48097810385116px"/></g><g style="clip-path:url(#clip-path)"><polygon points="93.34 187.12 99.13 187.12 99.13 192.91 93.34 192.91 93.34 187.12 93.34 187.12" style="fill:#ff25f3;fill-rule:evenodd"/><polygon points="93.34 187.12 99.13 187.12 99.13 192.91 93.34 192.91 93.34 187.12 93.34 187.12" style="fill:none;stroke:#ffd3fd;stroke-linejoin:round;stroke-width:0.82699279256633px"/><polygon points="162.12 162.86 167.91 162.86 167.91 168.65 162.12 168.65 162.12 162.86 162.12 162.86" style="fill:#ff25f3;fill-rule:evenodd"/><polygon points="162.12 162.86 167.91 162.86 167.91 168.65 162.12 168.65 162.12 162.86 162.12 162.86" style="fill:none;stroke:#ffd3fd;stroke-linejoin:round;stroke-width:0.82699279256633px"/><polygon points="231.03 133.23 236.82 133.23 236.82 139.02 231.03 139.02 231.03 133.23 231.03 133.23" style="fill:#ff25f3;fill-rule:evenodd"/><polygon points="231.03 133.23 236.82 133.23 236.82 139.02 231.03 139.02 231.03 133.23 231.03 133.23" style="fill:none;stroke:#ffd3fd;stroke-linejoin:round;stroke-width:0.82699279256633px"/><polygon points="299.95 111.59 305.74 111.59 305.74 117.38 299.95 117.38 299.95 111.59 299.95 111.59" style="fill:#ff25f3;fill-rule:evenodd"/><polygon points="299.95 111.59 305.74 111.59 305.74 117.38 299.95 117.38 299.95 111.59 299.95 111.59" style="fill:none;stroke:#ffd3fd;stroke-linejoin:round;stroke-width:0.82699279256633px"/><polygon points="368.73 89.95 374.52 89.95 374.52 95.74 368.73 95.74 368.73 89.95 368.73 89.95" style="fill:#ff25f3;fill-rule:evenodd"/><polygon points="368.73 89.95 374.52 89.95 374.52 95.74 368.73 95.74 368.73 89.95 368.73 89.95" style="fill:none;stroke:#ffd3fd;stroke-linejoin:round;stroke-width:0.82699279256633px"/><polygon points="437.64 79.2 443.43 79.2 443.43 84.99 437.64 84.99 437.64 79.2 437.64 79.2" style="fill:#ff25f3;fill-rule:evenodd"/><polygon points="437.64 79.2 443.43 79.2 443.43 84.99 437.64 84.99 437.64 79.2 437.64 79.2" style="fill:none;stroke:#ffd3fd;stroke-linejoin:round;stroke-width:0.82699279256633px"/><polygon points="506.42 71.07 512.21 71.07 512.21 76.86 506.42 76.86 506.42 71.07 506.42 71.07" style="fill:#ff25f3;fill-rule:evenodd"/><polygon points="506.42 71.07 512.21 71.07 512.21 76.86 506.42 76.86 506.42 71.07 506.42 71.07" style="fill:none;stroke:#ffd3fd;stroke-linejoin:round;stroke-width:0.82699279256633px"/><polygon points="575.34 84.58 581.13 84.58 581.13 90.36 575.34 90.36 575.34 84.58 575.34 84.58" style="fill:#ff25f3;fill-rule:evenodd"/><polygon points="575.34 84.58 581.13 84.58 581.13 90.36 575.34 90.36 575.34 84.58 575.34 84.58" style="fill:none;stroke:#ffd3fd;stroke-linejoin:round;stroke-width:0.82699279256633px"/><polygon points="644.12 100.84 649.9 100.84 649.9 106.63 644.12 106.63 644.12 100.84 644.12 100.84" style="fill:#ff25f3;fill-rule:evenodd"/><polygon points="644.12 100.84 649.9 100.84 649.9 106.63 644.12 106.63 644.12 100.84 644.12 100.84" style="fill:none;stroke:#ffd3fd;stroke-linejoin:round;stroke-width:0.82699279256633px"/><polygon points="713.03 114.35 718.82 114.35 718.82 120.14 713.03 120.14 713.03 114.35 713.03 114.35" style="fill:#ff25f3;fill-rule:evenodd"/><polygon points="713.03 114.35 718.82 114.35 718.82 120.14 713.03 120.14 713.03 114.35 713.03 114.35" style="fill:none;stroke:#ffd3fd;stroke-linejoin:round;stroke-width:0.82699279256633px"/><polygon points="781.81 143.98 787.6 143.98 787.6 149.77 781.81 149.77 781.81 143.98 781.81 143.98" style="fill:#ff25f3;fill-rule:evenodd"/><polygon points="781.81 143.98 787.6 143.98 787.6 149.77 781.81 149.77 781.81 143.98 781.81 143.98" style="fill:none;stroke:#ffd3fd;stroke-linejoin:round;stroke-width:0.82699279256633px"/><polygon points="850.73 165.62 856.51 165.62 856.51 171.41 850.73 171.41 850.73 165.62 850.73 165.62" style="fill:#ff25f3;fill-rule:evenodd"/><polygon points="850.73 165.62 856.51 165.62 856.51 171.41 850.73 171.41 850.73 165.62 850.73 165.62" style="fill:none;stroke:#ffd3fd;stroke-linejoin:round;stroke-width:0.82699279256633px"/></g><g style="clip-path:url(#clip-path-6)"><polyline points="96.3 203.46 165.08 179.2 234 149.57 302.91 127.93 371.69 106.29 440.61 95.54 509.38 87.41 578.3 100.92 647.08 117.18 715.99 130.69 784.77 160.32 853.69 181.96" style="fill:none;stroke:#06f;stroke-linecap:round;stroke-linejoin:round;stroke-width:2.48097810385116px"/></g><g style="clip-path:url(#clip-path)"><path d="M99.13,203.52a2.9,2.9,0,1,1-2.9-2.89,2.9,2.9,0,0,1,2.9,2.89Z" style="fill:#06f"/><path d="M99.13,203.52a2.9,2.9,0,1,1-2.9-2.89,2.9,2.9,0,0,1,2.9,2.89Z" style="fill:none;stroke:#6b77e8;stroke-linejoin:round;stroke-width:0.82699279256633px"/><path d="M167.91,179.27a2.9,2.9,0,1,1-2.9-2.9,2.9,2.9,0,0,1,2.9,2.9Z" style="fill:#06f"/><path d="M167.91,179.27a2.9,2.9,0,1,1-2.9-2.9,2.9,2.9,0,0,1,2.9,2.9Z" style="fill:none;stroke:#6b77e8;stroke-linejoin:round;stroke-width:0.82699279256633px"/><path d="M236.82,149.63a2.9,2.9,0,1,1-2.89-2.89,2.89,2.89,0,0,1,2.89,2.89Z" style="fill:#06f"/><path d="M236.82,149.63a2.9,2.9,0,1,1-2.89-2.89,2.89,2.89,0,0,1,2.89,2.89Z" style="fill:none;stroke:#6b77e8;stroke-linejoin:round;stroke-width:0.82699279256633px"/><path d="M305.74,128a2.9,2.9,0,1,1-2.9-2.89,2.9,2.9,0,0,1,2.9,2.89Z" style="fill:#06f"/><path d="M305.74,128a2.9,2.9,0,1,1-2.9-2.89,2.9,2.9,0,0,1,2.9,2.89Z" style="fill:none;stroke:#6b77e8;stroke-linejoin:round;stroke-width:0.82699279256633px"/><path d="M374.52,106.35a2.9,2.9,0,1,1-2.9-2.89,2.9,2.9,0,0,1,2.9,2.89Z" style="fill:#06f"/><path d="M374.52,106.35a2.9,2.9,0,1,1-2.9-2.89,2.9,2.9,0,0,1,2.9,2.89Z" style="fill:none;stroke:#6b77e8;stroke-linejoin:round;stroke-width:0.82699279256633px"/><path d="M443.43,95.6a2.9,2.9,0,1,1-2.89-2.89,2.89,2.89,0,0,1,2.89,2.89Z" style="fill:#06f"/><path d="M443.43,95.6a2.9,2.9,0,1,1-2.89-2.89,2.89,2.89,0,0,1,2.89,2.89Z" style="fill:none;stroke:#6b77e8;stroke-linejoin:round;stroke-width:0.82699279256633px"/><path d="M512.21,87.47a2.9,2.9,0,1,1-2.89-2.89,2.89,2.89,0,0,1,2.89,2.89Z" style="fill:#06f"/><path d="M512.21,87.47a2.9,2.9,0,1,1-2.89-2.89,2.89,2.89,0,0,1,2.89,2.89Z" style="fill:none;stroke:#6b77e8;stroke-linejoin:round;stroke-width:0.82699279256633px"/><path d="M581.13,101a2.9,2.9,0,1,1-2.9-2.9,2.89,2.89,0,0,1,2.9,2.9Z" style="fill:#06f"/><path d="M581.13,101a2.9,2.9,0,1,1-2.9-2.9,2.89,2.89,0,0,1,2.9,2.9Z" style="fill:none;stroke:#6b77e8;stroke-linejoin:round;stroke-width:0.82699279256633px"/><path d="M649.9,117.24a2.89,2.89,0,1,1-2.89-2.89,2.89,2.89,0,0,1,2.89,2.89Z" style="fill:#06f"/><path d="M649.9,117.24a2.89,2.89,0,1,1-2.89-2.89,2.89,2.89,0,0,1,2.89,2.89Z" style="fill:none;stroke:#6b77e8;stroke-linejoin:round;stroke-width:0.82699279256633px"/><path d="M718.82,130.75a2.9,2.9,0,1,1-2.89-2.9,2.89,2.89,0,0,1,2.89,2.9Z" style="fill:#06f"/><path d="M718.82,130.75a2.9,2.9,0,1,1-2.89-2.9,2.89,2.89,0,0,1,2.89,2.9Z" style="fill:none;stroke:#6b77e8;stroke-linejoin:round;stroke-width:0.82699279256633px"/><path d="M787.6,160.38a2.9,2.9,0,1,1-2.9-2.89,2.9,2.9,0,0,1,2.9,2.89Z" style="fill:#06f"/><path d="M787.6,160.38a2.9,2.9,0,1,1-2.9-2.89,2.9,2.9,0,0,1,2.9,2.89Z" style="fill:none;stroke:#6b77e8;stroke-linejoin:round;stroke-width:0.82699279256633px"/><path d="M856.51,182a2.89,2.89,0,1,1-2.89-2.89,2.89,2.89,0,0,1,2.89,2.89Z" style="fill:#06f"/><path d="M856.51,182a2.89,2.89,0,1,1-2.89-2.89,2.89,2.89,0,0,1,2.89,2.89Z" style="fill:none;stroke:#6b77e8;stroke-linejoin:round;stroke-width:0.82699279256633px"/></g><g style="clip-path:url(#clip-path-10)"><text transform="translate(32.86 290.5)" style="font-size:10.337409973144531px;font-family:ArialMT, Arial"><tspan style="letter-spacing:0.0030230009336172318em">0</tspan><tspan x="5.78" y="0" style="letter-spacing:0.0019838443626863083em">.</tspan><tspan x="8.67" y="0" style="letter-spacing:-0.008974534021676157em">0</tspan><tspan x="14.33" y="0">0</tspan></text></g><g style="clip-path:url(#clip-path-10)"><text transform="translate(32.86 223.01)" style="font-size:10.337409973144531px;font-family:ArialMT, Arial"><tspan style="letter-spacing:0.0030230009336172318em">0</tspan><tspan x="5.78" y="0" style="letter-spacing:0.0019838443626863083em">.</tspan><tspan x="8.67" y="0" style="letter-spacing:-0.008974534021676157em">2</tspan><tspan x="14.33" y="0">5</tspan></text></g><g style="clip-path:url(#clip-path-10)"><text transform="translate(32.86 155.52)" style="font-size:10.337409973144531px;font-family:ArialMT, Arial"><tspan style="letter-spacing:0.0030230009336172318em">0</tspan><tspan x="5.78" y="0" style="letter-spacing:0.0019838443626863083em">.</tspan><tspan x="8.67" y="0" style="letter-spacing:-0.008974534021676157em">5</tspan><tspan x="14.33" y="0">0</tspan></text></g><g style="clip-path:url(#clip-path-10)"><text transform="translate(32.86 88.02)" style="font-size:10.337409973144531px;font-family:ArialMT, Arial"><tspan style="letter-spacing:0.0030230009336172318em">0</tspan><tspan x="5.78" y="0" style="letter-spacing:0.0019838443626863083em">.</tspan><tspan x="8.67" y="0" style="letter-spacing:-0.008974534021676157em">7</tspan><tspan x="14.33" y="0">5</tspan></text></g><g style="clip-path:url(#clip-path-10)"><text transform="translate(32.86 20.53)" style="font-size:10.337409973144531px;font-family:ArialMT, Arial"><tspan style="letter-spacing:0.0030230009336172318em">1</tspan><tspan x="5.78" y="0" style="letter-spacing:0.0019838443626863083em">.</tspan><tspan x="8.67" y="0" style="letter-spacing:-0.008974534021676157em">0</tspan><tspan x="14.33" y="0">0</tspan></text></g><g style="clip-path:url(#clip-path-10)"><text transform="translate(93.42 302.81)" style="font-size:10.337409973144531px;font-family:ArialMT, Arial">1</text></g><g style="clip-path:url(#clip-path-10)"><text transform="translate(162.27 302.81)" style="font-size:10.337409973144531px;font-family:ArialMT, Arial">2</text></g><g style="clip-path:url(#clip-path-10)"><text transform="translate(231.12 302.81)" style="font-size:10.337409973144531px;font-family:ArialMT, Arial">3</text></g><g style="clip-path:url(#clip-path-10)"><text transform="translate(299.97 302.81)" style="font-size:10.337409973144531px;font-family:ArialMT, Arial">4</text></g><g style="clip-path:url(#clip-path-10)"><text transform="translate(368.82 302.81)" style="font-size:10.337409973144531px;font-family:ArialMT, Arial">1</text></g><g style="clip-path:url(#clip-path-10)"><text transform="translate(437.67 302.81)" style="font-size:10.337409973144531px;font-family:ArialMT, Arial">2</text></g><g style="clip-path:url(#clip-path-10)"><text transform="translate(506.51 302.81)" style="font-size:10.337409973144531px;font-family:ArialMT, Arial">3</text></g><g style="clip-path:url(#clip-path-10)"><text transform="translate(575.37 302.81)" style="font-size:10.337409973144531px;font-family:ArialMT, Arial">4</text></g><g style="clip-path:url(#clip-path-10)"><text transform="translate(644.21 302.81)" style="font-size:10.337409973144531px;font-family:ArialMT, Arial">1</text></g><g style="clip-path:url(#clip-path-10)"><text transform="translate(713.06 302.81)" style="font-size:10.337409973144531px;font-family:ArialMT, Arial">2</text></g><g style="clip-path:url(#clip-path-10)"><text transform="translate(781.91 302.81)" style="font-size:10.337409973144531px;font-family:ArialMT, Arial">3</text></g><g style="clip-path:url(#clip-path-10)"><text transform="translate(850.76 302.81)" style="font-size:10.337409973144531px;font-family:ArialMT, Arial">4</text></g><g style="clip-path:url(#clip-path-10)"><text transform="translate(190.38 321.46)" style="font-size:10.337409973144531px;font-family:ArialMT, Arial"><tspan style="letter-spacing:-0.002078313141861847em">D</tspan><tspan x="7.44" y="0" style="letter-spacing:0.0030230009336172318em">e</tspan><tspan x="13.22" y="0">c</tspan></text></g><g style="clip-path:url(#clip-path-10)"><text transform="translate(466.63 321.46)" style="font-size:10.337409973144531px;font-family:ArialMT, Arial"><tspan style="letter-spacing:0.005951533088058925em">J</tspan><tspan x="5.23" y="0" style="letter-spacing:-0.008974534021676157em">a</tspan><tspan x="10.89" y="0">n</tspan></text></g><g style="clip-path:url(#clip-path-10)"><text transform="translate(741.46 321.46)" style="font-size:10.337409973144531px;font-family:ArialMT, Arial"><tspan style="letter-spacing:0.0019838443626863083em">F</tspan><tspan x="6.33" y="0" style="letter-spacing:0.0030230009336172318em">e</tspan><tspan x="12.12" y="0">b</tspan></text></g><g style="clip-path:url(#clip-path-10)"><text transform="translate(25.46 176.61) rotate(-90)" style="font-size:11.440070152282715px;font-family:Arial-BoldMT, Arial;font-weight:700">ND<tspan x="16.52" y="0" style="letter-spacing:-0.004012076577243853em">V</tspan><tspan x="24.11" y="0" style="letter-spacing:-0.00008536333143072027em">I</tspan><tspan x="27.29" y="0" style="letter-spacing:0.011011869754562916em"> </tspan><tspan x="30.59" y="0" style="letter-spacing:-0.00008536333143072027em"> </tspan><tspan x="33.77" y="0" style="letter-spacing:-0.004012076577243853em">V</tspan><tspan x="41.35" y="0" style="letter-spacing:-0.0009389966457379231em">a</tspan><tspan x="47.71" y="0" style="letter-spacing:-0.00008536333143072027em">l</tspan><tspan x="50.88" y="0" style="letter-spacing:0.0029877166000752096em">u</tspan><tspan x="57.91" y="0">e</tspan></text></g><g style="clip-path:url(#clip-path-10)"><text transform="translate(434.68 339.3)" style="font-size:11.440070152282715px;font-family:Arial-BoldMT, Arial;font-weight:700"><tspan style="letter-spacing:0.006999793177319063em">W</tspan><tspan x="10.88" y="0" style="letter-spacing:-0.0010243599771686434em">ee</tspan><tspan x="23.58" y="0">k</tspan></text></g><polygon points="1.06 2.37 900 2.37 900 347.63 1.06 347.63 1.06 2.37 1.06 2.37" style="fill:none;stroke:#d9d9d9;stroke-linejoin:round;stroke-width:0.82699279256633px"/></svg>