<svg id="Layer_1" data-name="Layer 1" xmlns="http://www.w3.org/2000/svg" xmlns:xlink="http://www.w3.org/1999/xlink" viewBox="0 0 900 350"><defs><clipPath id="clip-path"><polygon points="0.64 350.95 898.43 350.95 898.43 -0.74 0.64 -0.74 0.64 350.95 0.64 350.95" style="fill:none;clip-rule:evenodd"/></clipPath><clipPath id="clip-path-3"><polygon points="96.95 301.28 801.85 301.28 801.85 57.62 96.95 57.62 96.95 301.28 96.95 301.28" style="fill:none;clip-rule:evenodd"/></clipPath><clipPath id="clip-path-14"><rect x="0.64" y="-0.74" width="897.79" height="351.69" style="fill:none"/></clipPath></defs><title>price-volatility</title><polygon points="0.64 -0.74 898.43 -0.74 898.43 350.95 0.64 350.95 0.64 -0.74 0.64 -0.74" style="fill:#f2f2f2;fill-rule:evenodd"/><polygon points="96.95 57.62 801.03 57.62 801.03 300.45 96.95 300.45 96.95 57.62 96.95 57.62" style="fill:#fff;fill-rule:evenodd"/><path d="M97,57.62V300.45M126.34,57.62V300.45M155.73,57.62V300.45M185,57.62V300.45M214.36,57.62V300.45M243.61,57.62V300.45M273,57.62V300.45M302.39,57.62V300.45M331.64,57.62V300.45M361,57.62V300.45M390.28,57.62V300.45M419.67,57.62V300.45M449.06,57.62V300.45M478.31,57.62V300.45M507.69,57.62V300.45M537,57.62V300.45M566.33,57.62V300.45M595.72,57.62V300.45M625,57.62V300.45M654.36,57.62V300.45M683.75,57.62V300.45M713,57.62V300.45M742.39,57.62V300.45M771.64,57.62V300.45M801,57.62V300.45" style="fill:none;stroke:#b7b7b7;stroke-linecap:round;stroke-linejoin:round;stroke-width:0.82783901465632px"/><g style="clip-path:url(#clip-path)"><path d="M97,248.44H801M97,196.42H801M97,144.4H801M97,92.39H801" style="fill:none;stroke:#d9d9d9;stroke-linejoin:round;stroke-width:0.82783901465632px"/></g><g style="clip-path:url(#clip-path)"><polygon points="96.95 57.62 801.03 57.62 801.03 300.45 96.95 300.45 96.95 57.62 96.95 57.62" style="fill:none;stroke:#fff;stroke-linejoin:round;stroke-width:0.82783901465632px"/></g><g style="clip-path:url(#clip-path-3)"><polygon points="104.95 300.18 115.71 300.18 115.71 300.45 104.95 300.45 104.95 300.18 104.95 300.18" style="fill:#6b77e8;fill-rule:evenodd"/><polygon points="104.95 300.18 115.71 300.18 115.71 300.45 104.95 300.45 104.95 300.18 104.95 300.18" style="fill:none;stroke:#6b77e8;stroke-linejoin:round;stroke-width:0.82783901465632px"/><polygon points="163.59 299.49 174.35 299.49 174.35 300.45 163.59 300.45 163.59 299.49 163.59 299.49" style="fill:#6b77e8;fill-rule:evenodd"/><polygon points="163.59 299.49 174.35 299.49 174.35 300.45 163.59 300.45 163.59 299.49 163.59 299.49" style="fill:none;stroke:#6b77e8;stroke-linejoin:round;stroke-width:0.82783901465632px"/><polygon points="222.37 299.07 232.99 299.07 232.99 300.45 222.37 300.45 222.37 299.07 222.37 299.07" style="fill:#6b77e8;fill-rule:evenodd"/><polygon points="222.37 299.07 232.99 299.07 232.99 300.45 222.37 300.45 222.37 299.07 222.37 299.07" style="fill:none;stroke:#6b77e8;stroke-linejoin:round;stroke-width:0.82783901465632px"/><polygon points="281 298.52 291.63 298.52 291.63 300.45 281 300.45 281 298.52 281 298.52" style="fill:#6b77e8;fill-rule:evenodd"/><polygon points="281 298.52 291.63 298.52 291.63 300.45 281 300.45 281 298.52 281 298.52" style="fill:none;stroke:#6b77e8;stroke-linejoin:round;stroke-width:0.82783901465632px"/><polygon points="339.64 299.9 350.27 299.9 350.27 300.45 339.64 300.45 339.64 299.9 339.64 299.9" style="fill:#6b77e8;fill-rule:evenodd"/><polygon points="339.64 299.9 350.27 299.9 350.27 300.45 339.64 300.45 339.64 299.9 339.64 299.9" style="fill:none;stroke:#6b77e8;stroke-linejoin:round;stroke-width:0.82783901465632px"/><polygon points="398.28 300.18 409.04 300.18 409.04 300.45 398.28 300.45 398.28 300.18 398.28 300.18" style="fill:#6b77e8;fill-rule:evenodd"/><polygon points="398.28 300.18 409.04 300.18 409.04 300.45 398.28 300.45 398.28 300.18 398.28 300.18" style="fill:none;stroke:#6b77e8;stroke-linejoin:round;stroke-width:0.82783901465632px"/><polygon points="457.06 300.18 467.68 300.18 467.68 300.45 457.06 300.45 457.06 300.18 457.06 300.18" style="fill:#6b77e8;fill-rule:evenodd"/><polygon points="457.06 300.18 467.68 300.18 467.68 300.45 457.06 300.45 457.06 300.18 457.06 300.18" style="fill:none;stroke:#6b77e8;stroke-linejoin:round;stroke-width:0.82783901465632px"/><polygon points="515.7 300.31 526.32 300.31 526.32 300.45 515.7 300.45 515.7 300.31 515.7 300.31" style="fill:#6b77e8;fill-rule:evenodd"/><polygon points="515.7 300.31 526.32 300.31 526.32 300.45 515.7 300.45 515.7 300.31 515.7 300.31" style="fill:none;stroke:#6b77e8;stroke-linejoin:round;stroke-width:0.82783901465632px"/><polygon points="574.34 297.97 584.96 297.97 584.96 300.45 574.34 300.45 574.34 297.97 574.34 297.97" style="fill:#6b77e8;fill-rule:evenodd"/><polygon points="574.34 297.97 584.96 297.97 584.96 300.45 574.34 300.45 574.34 297.97 574.34 297.97" style="fill:none;stroke:#6b77e8;stroke-linejoin:round;stroke-width:0.82783901465632px"/><polygon points="632.97 300.18 643.74 300.18 643.74 300.45 632.97 300.45 632.97 300.18 632.97 300.18" style="fill:#6b77e8;fill-rule:evenodd"/><polygon points="632.97 300.18 643.74 300.18 643.74 300.45 632.97 300.45 632.97 300.18 632.97 300.18" style="fill:none;stroke:#6b77e8;stroke-linejoin:round;stroke-width:0.82783901465632px"/><polygon points="691.75 300.18 702.38 300.18 702.38 300.45 691.75 300.45 691.75 300.18 691.75 300.18" style="fill:#6b77e8;fill-rule:evenodd"/><polygon points="691.75 300.18 702.38 300.18 702.38 300.45 691.75 300.45 691.75 300.18 691.75 300.18" style="fill:none;stroke:#6b77e8;stroke-linejoin:round;stroke-width:0.82783901465632px"/><polygon points="750.39 300.31 761.01 300.31 761.01 300.45 750.39 300.45 750.39 300.31 750.39 300.31" style="fill:#6b77e8;fill-rule:evenodd"/><polygon points="750.39 300.31 761.01 300.31 761.01 300.45 750.39 300.45 750.39 300.31 750.39 300.31" style="fill:none;stroke:#6b77e8;stroke-linejoin:round;stroke-width:0.82783901465632px"/></g><g style="clip-path:url(#clip-path-3)"><polygon points="115.71 294.11 126.34 294.11 126.34 300.45 115.71 300.45 115.71 294.11 115.71 294.11" style="fill:#2935e8;fill-rule:evenodd"/><polygon points="115.71 294.11 126.34 294.11 126.34 300.45 115.71 300.45 115.71 294.11 115.71 294.11" style="fill:none;stroke:#2935e8;stroke-linejoin:round;stroke-width:0.82783901465632px"/><polygon points="174.35 280.17 184.98 280.17 184.98 300.45 174.35 300.45 174.35 280.17 174.35 280.17" style="fill:#2935e8;fill-rule:evenodd"/><polygon points="174.35 280.17 184.98 280.17 184.98 300.45 174.35 300.45 174.35 280.17 174.35 280.17" style="fill:none;stroke:#2935e8;stroke-linejoin:round;stroke-width:0.82783901465632px"/><polygon points="232.99 240.71 243.61 240.71 243.61 300.45 232.99 300.45 232.99 240.71 232.99 240.71" style="fill:#2935e8;fill-rule:evenodd"/><polygon points="232.99 240.71 243.61 240.71 243.61 300.45 232.99 300.45 232.99 240.71 232.99 240.71" style="fill:none;stroke:#2935e8;stroke-linejoin:round;stroke-width:0.82783901465632px"/><polygon points="291.63 285.83 302.39 285.83 302.39 300.45 291.63 300.45 291.63 285.83 291.63 285.83" style="fill:#2935e8;fill-rule:evenodd"/><polygon points="291.63 285.83 302.39 285.83 302.39 300.45 291.63 300.45 291.63 285.83 291.63 285.83" style="fill:none;stroke:#2935e8;stroke-linejoin:round;stroke-width:0.82783901465632px"/><polygon points="350.27 296.45 361.03 296.45 361.03 300.45 350.27 300.45 350.27 296.45 350.27 296.45" style="fill:#2935e8;fill-rule:evenodd"/><polygon points="350.27 296.45 361.03 296.45 361.03 300.45 350.27 300.45 350.27 296.45 350.27 296.45" style="fill:none;stroke:#2935e8;stroke-linejoin:round;stroke-width:0.82783901465632px"/><polygon points="409.04 273.69 419.67 273.69 419.67 300.45 409.04 300.45 409.04 273.69 409.04 273.69" style="fill:#2935e8;fill-rule:evenodd"/><polygon points="409.04 273.69 419.67 273.69 419.67 300.45 409.04 300.45 409.04 273.69 409.04 273.69" style="fill:none;stroke:#2935e8;stroke-linejoin:round;stroke-width:0.82783901465632px"/><polygon points="467.68 290.24 478.31 290.24 478.31 300.45 467.68 300.45 467.68 290.24 467.68 290.24" style="fill:#2935e8;fill-rule:evenodd"/><polygon points="467.68 290.24 478.31 290.24 478.31 300.45 467.68 300.45 467.68 290.24 467.68 290.24" style="fill:none;stroke:#2935e8;stroke-linejoin:round;stroke-width:0.82783901465632px"/><polygon points="526.32 294.38 536.95 294.38 536.95 300.45 526.32 300.45 526.32 294.38 526.32 294.38" style="fill:#2935e8;fill-rule:evenodd"/><polygon points="526.32 294.38 536.95 294.38 536.95 300.45 526.32 300.45 526.32 294.38 526.32 294.38" style="fill:none;stroke:#2935e8;stroke-linejoin:round;stroke-width:0.82783901465632px"/><polygon points="584.96 288.45 595.72 288.45 595.72 300.45 584.96 300.45 584.96 288.45 584.96 288.45" style="fill:#2935e8;fill-rule:evenodd"/><polygon points="584.96 288.45 595.72 288.45 595.72 300.45 584.96 300.45 584.96 288.45 584.96 288.45" style="fill:none;stroke:#2935e8;stroke-linejoin:round;stroke-width:0.82783901465632px"/><polygon points="643.74 291.21 654.36 291.21 654.36 300.45 643.74 300.45 643.74 291.21 643.74 291.21" style="fill:#2935e8;fill-rule:evenodd"/><polygon points="643.74 291.21 654.36 291.21 654.36 300.45 643.74 300.45 643.74 291.21 643.74 291.21" style="fill:none;stroke:#2935e8;stroke-linejoin:round;stroke-width:0.82783901465632px"/><polygon points="702.38 288.04 713 288.04 713 300.45 702.38 300.45 702.38 288.04 702.38 288.04" style="fill:#2935e8;fill-rule:evenodd"/><polygon points="702.38 288.04 713 288.04 713 300.45 702.38 300.45 702.38 288.04 702.38 288.04" style="fill:none;stroke:#2935e8;stroke-linejoin:round;stroke-width:0.82783901465632px"/><polygon points="761.01 291.48 771.64 291.48 771.64 300.45 761.01 300.45 761.01 291.48 761.01 291.48" style="fill:#2935e8;fill-rule:evenodd"/><polygon points="761.01 291.48 771.64 291.48 771.64 300.45 761.01 300.45 761.01 291.48 761.01 291.48" style="fill:none;stroke:#2935e8;stroke-linejoin:round;stroke-width:0.82783901465632px"/></g><g style="clip-path:url(#clip-path-3)"><polygon points="126.34 298.8 136.96 298.8 136.96 300.45 126.34 300.45 126.34 298.8 126.34 298.8" style="fill:#00c1a3;fill-rule:evenodd"/><polygon points="126.34 298.8 136.96 298.8 136.96 300.45 126.34 300.45 126.34 298.8 126.34 298.8" style="fill:none;stroke:#00c1a3;stroke-linejoin:round;stroke-width:0.82783901465632px"/><polygon points="184.98 228.57 195.6 228.57 195.6 300.45 184.98 300.45 184.98 228.57 184.98 228.57" style="fill:#00c1a3;fill-rule:evenodd"/><polygon points="184.98 228.57 195.6 228.57 195.6 300.45 184.98 300.45 184.98 228.57 184.98 228.57" style="fill:none;stroke:#00c1a3;stroke-linejoin:round;stroke-width:0.82783901465632px"/><polygon points="243.61 184.14 254.38 184.14 254.38 300.45 243.61 300.45 243.61 184.14 243.61 184.14" style="fill:#00c1a3;fill-rule:evenodd"/><polygon points="243.61 184.14 254.38 184.14 254.38 300.45 243.61 300.45 243.61 184.14 243.61 184.14" style="fill:none;stroke:#00c1a3;stroke-linejoin:round;stroke-width:0.82783901465632px"/><polygon points="302.39 215.05 313.01 215.05 313.01 300.45 302.39 300.45 302.39 215.05 302.39 215.05" style="fill:#00c1a3;fill-rule:evenodd"/><polygon points="302.39 215.05 313.01 215.05 313.01 300.45 302.39 300.45 302.39 215.05 302.39 215.05" style="fill:none;stroke:#00c1a3;stroke-linejoin:round;stroke-width:0.82783901465632px"/><polygon points="361.03 256.99 371.65 256.99 371.65 300.45 361.03 300.45 361.03 256.99 361.03 256.99" style="fill:#00c1a3;fill-rule:evenodd"/><polygon points="361.03 256.99 371.65 256.99 371.65 300.45 361.03 300.45 361.03 256.99 361.03 256.99" style="fill:none;stroke:#00c1a3;stroke-linejoin:round;stroke-width:0.82783901465632px"/><polygon points="419.67 232.85 430.29 232.85 430.29 300.45 419.67 300.45 419.67 232.85 419.67 232.85" style="fill:#00c1a3;fill-rule:evenodd"/><polygon points="419.67 232.85 430.29 232.85 430.29 300.45 419.67 300.45 419.67 232.85 419.67 232.85" style="fill:none;stroke:#00c1a3;stroke-linejoin:round;stroke-width:0.82783901465632px"/><polygon points="478.31 282.1 489.07 282.1 489.07 300.45 478.31 300.45 478.31 282.1 478.31 282.1" style="fill:#00c1a3;fill-rule:evenodd"/><polygon points="478.31 282.1 489.07 282.1 489.07 300.45 478.31 300.45 478.31 282.1 478.31 282.1" style="fill:none;stroke:#00c1a3;stroke-linejoin:round;stroke-width:0.82783901465632px"/><polygon points="536.95 278.65 547.71 278.65 547.71 300.45 536.95 300.45 536.95 278.65 536.95 278.65" style="fill:#00c1a3;fill-rule:evenodd"/><polygon points="536.95 278.65 547.71 278.65 547.71 300.45 536.95 300.45 536.95 278.65 536.95 278.65" style="fill:none;stroke:#00c1a3;stroke-linejoin:round;stroke-width:0.82783901465632px"/><polygon points="595.72 287.9 606.35 287.9 606.35 300.45 595.72 300.45 595.72 287.9 595.72 287.9" style="fill:#00c1a3;fill-rule:evenodd"/><polygon points="595.72 287.9 606.35 287.9 606.35 300.45 595.72 300.45 595.72 287.9 595.72 287.9" style="fill:none;stroke:#00c1a3;stroke-linejoin:round;stroke-width:0.82783901465632px"/><polygon points="654.36 289.83 664.98 289.83 664.98 300.45 654.36 300.45 654.36 289.83 654.36 289.83" style="fill:#00c1a3;fill-rule:evenodd"/><polygon points="654.36 289.83 664.98 289.83 664.98 300.45 654.36 300.45 654.36 289.83 654.36 289.83" style="fill:none;stroke:#00c1a3;stroke-linejoin:round;stroke-width:0.82783901465632px"/><polygon points="713 285 723.62 285 723.62 300.45 713 300.45 713 285 713 285" style="fill:#00c1a3;fill-rule:evenodd"/><polygon points="713 285 723.62 285 723.62 300.45 713 300.45 713 285 713 285" style="fill:none;stroke:#00c1a3;stroke-linejoin:round;stroke-width:0.82783901465632px"/><polygon points="771.64 290.24 782.4 290.24 782.4 300.45 771.64 300.45 771.64 290.24 771.64 290.24" style="fill:#00c1a3;fill-rule:evenodd"/><polygon points="771.64 290.24 782.4 290.24 782.4 300.45 771.64 300.45 771.64 290.24 771.64 290.24" style="fill:none;stroke:#00c1a3;stroke-linejoin:round;stroke-width:0.82783901465632px"/></g><g style="clip-path:url(#clip-path-3)"><polygon points="136.96 294.52 147.72 294.52 147.72 300.45 136.96 300.45 136.96 294.52 136.96 294.52" style="fill:#ff25f3;fill-rule:evenodd"/><polygon points="136.96 294.52 147.72 294.52 147.72 300.45 136.96 300.45 136.96 294.52 136.96 294.52" style="fill:none;stroke:#ff25f3;stroke-linejoin:round;stroke-width:0.82783901465632px"/><polygon points="195.6 212.56 206.36 212.56 206.36 300.45 195.6 300.45 195.6 212.56 195.6 212.56" style="fill:#ff25f3;fill-rule:evenodd"/><polygon points="195.6 212.56 206.36 212.56 206.36 300.45 195.6 300.45 195.6 212.56 195.6 212.56" style="fill:none;stroke:#ff25f3;stroke-linejoin:round;stroke-width:0.82783901465632px"/><polygon points="254.38 143.85 265 143.85 265 300.45 254.38 300.45 254.38 143.85 254.38 143.85" style="fill:#ff25f3;fill-rule:evenodd"/><polygon points="254.38 143.85 265 143.85 265 300.45 254.38 300.45 254.38 143.85 254.38 143.85" style="fill:none;stroke:#ff25f3;stroke-linejoin:round;stroke-width:0.82783901465632px"/><polygon points="313.01 213.12 323.64 213.12 323.64 300.45 313.01 300.45 313.01 213.12 313.01 213.12" style="fill:#ff25f3;fill-rule:evenodd"/><polygon points="313.01 213.12 323.64 213.12 323.64 300.45 313.01 300.45 313.01 213.12 313.01 213.12" style="fill:none;stroke:#ff25f3;stroke-linejoin:round;stroke-width:0.82783901465632px"/><polygon points="371.65 236.99 382.28 236.99 382.28 300.45 371.65 300.45 371.65 236.99 371.65 236.99" style="fill:#ff25f3;fill-rule:evenodd"/><polygon points="371.65 236.99 382.28 236.99 382.28 300.45 371.65 300.45 371.65 236.99 371.65 236.99" style="fill:none;stroke:#ff25f3;stroke-linejoin:round;stroke-width:0.82783901465632px"/><polygon points="430.29 240.71 441.05 240.71 441.05 300.45 430.29 300.45 430.29 240.71 430.29 240.71" style="fill:#ff25f3;fill-rule:evenodd"/><polygon points="430.29 240.71 441.05 240.71 441.05 300.45 430.29 300.45 430.29 240.71 430.29 240.71" style="fill:none;stroke:#ff25f3;stroke-linejoin:round;stroke-width:0.82783901465632px"/><polygon points="489.07 273.96 499.69 273.96 499.69 300.45 489.07 300.45 489.07 273.96 489.07 273.96" style="fill:#ff25f3;fill-rule:evenodd"/><polygon points="489.07 273.96 499.69 273.96 499.69 300.45 489.07 300.45 489.07 273.96 489.07 273.96" style="fill:none;stroke:#ff25f3;stroke-linejoin:round;stroke-width:0.82783901465632px"/><polygon points="547.71 275.34 558.33 275.34 558.33 300.45 547.71 300.45 547.71 275.34 547.71 275.34" style="fill:#ff25f3;fill-rule:evenodd"/><polygon points="547.71 275.34 558.33 275.34 558.33 300.45 547.71 300.45 547.71 275.34 547.71 275.34" style="fill:none;stroke:#ff25f3;stroke-linejoin:round;stroke-width:0.82783901465632px"/><polygon points="606.35 277 616.97 277 616.97 300.45 606.35 300.45 606.35 277 606.35 277" style="fill:#ff25f3;fill-rule:evenodd"/><polygon points="606.35 277 616.97 277 616.97 300.45 606.35 300.45 606.35 277 606.35 277" style="fill:none;stroke:#ff25f3;stroke-linejoin:round;stroke-width:0.82783901465632px"/><polygon points="664.98 283.9 675.75 283.9 675.75 300.45 664.98 300.45 664.98 283.9 664.98 283.9" style="fill:#ff25f3;fill-rule:evenodd"/><polygon points="664.98 283.9 675.75 283.9 675.75 300.45 664.98 300.45 664.98 283.9 664.98 283.9" style="fill:none;stroke:#ff25f3;stroke-linejoin:round;stroke-width:0.82783901465632px"/><polygon points="723.62 276.44 734.38 276.44 734.38 300.45 723.62 300.45 723.62 276.44 723.62 276.44" style="fill:#ff25f3;fill-rule:evenodd"/><polygon points="723.62 276.44 734.38 276.44 734.38 300.45 723.62 300.45 723.62 276.44 723.62 276.44" style="fill:none;stroke:#ff25f3;stroke-linejoin:round;stroke-width:0.82783901465632px"/><polygon points="782.4 284.86 793.02 284.86 793.02 300.45 782.4 300.45 782.4 284.86 782.4 284.86" style="fill:#ff25f3;fill-rule:evenodd"/><polygon points="782.4 284.86 793.02 284.86 793.02 300.45 782.4 300.45 782.4 284.86 782.4 284.86" style="fill:none;stroke:#ff25f3;stroke-linejoin:round;stroke-width:0.82783901465632px"/></g><g style="clip-path:url(#clip-path)"><line x1="96.95" y1="300.45" x2="96.95" y2="57.62" style="fill:none;stroke:#868686;stroke-linejoin:round;stroke-width:0.82783901465632px"/></g><g style="clip-path:url(#clip-path)"><path d="M93.91,300.45h3m-3-56h3m-3-56h3m-3-56h3m-3-56.15h3" style="fill:none;stroke:#868686;stroke-linejoin:round;stroke-width:0.82783901465632px"/></g><g style="clip-path:url(#clip-path)"><line x1="96.95" y1="300.45" x2="801.03" y2="300.45" style="fill:none;stroke:#868686;stroke-linejoin:round;stroke-width:0.82783901465632px"/></g><g style="clip-path:url(#clip-path-3)"><polyline points="126.34 144.82 184.98 137.51 243.61 131.16 302.39 127.99 361.03 133.23 419.67 135.85 478.31 139.02 536.95 130.33 595.72 120.95 654.36 129.5 713 127.85 771.64 124.4" style="fill:none;stroke:#6b77e8;stroke-linecap:round;stroke-linejoin:round;stroke-width:2.48351697543694px"/></g><g style="clip-path:url(#clip-path-3)"><polyline points="126.34 161.65 184.98 145.09 243.61 123.57 302.39 116.53 361.03 119.29 419.67 122.61 478.31 129.78 536.95 121.36 595.72 118.19 654.36 136.68 713 142.06 771.64 149.1" style="fill:none;stroke:#2935e8;stroke-linecap:round;stroke-linejoin:round;stroke-width:2.48351697543694px"/></g><g style="clip-path:url(#clip-path-3)"><polyline points="126.34 172.28 184.98 146.2 243.61 136.13 302.39 117.22 361.03 125.09 419.67 133.09 478.31 140.13 536.95 126.74 595.72 124.95 654.36 138.61 713 142.06 771.64 152.54" style="fill:none;stroke:#00c1a3;stroke-linecap:round;stroke-linejoin:round;stroke-width:2.48351697543694px"/></g><g style="clip-path:url(#clip-path-3)"><polyline points="126.34 164.82 184.98 143.16 243.61 132.26 302.39 115.98 361.03 119.71 419.67 133.09 478.31 140.54 536.95 130.06 595.72 122.19 654.36 136.68 713 143.3 771.64 150.34" style="fill:none;stroke:#ff25f3;stroke-linecap:round;stroke-linejoin:round;stroke-width:2.48351697543694px"/></g><g style="clip-path:url(#clip-path-14)"><text transform="translate(50.69 303.75)" style="font-size:10.347990036010742px;font-family:ArialMT, Arial"><tspan style="letter-spacing:0.001981816026941786em"> </tspan><tspan x="2.9" y="0" style="letter-spacing:0.0030199101362922455em">1</tspan><tspan x="8.68" y="0" style="letter-spacing:-0.008965358217117605em">0</tspan><tspan x="14.34" y="0" style="letter-spacing:0.001981816026941786em">,</tspan><tspan x="17.24" y="0" style="letter-spacing:0.0030199101362922455em">00</tspan><tspan x="28.81" y="0">0</tspan></text></g><g style="clip-path:url(#clip-path-14)"><text transform="translate(50.69 247.71)" style="font-size:10.347990036010742px;font-family:ArialMT, Arial"><tspan style="letter-spacing:0.001981816026941786em"> </tspan><tspan x="2.9" y="0" style="letter-spacing:0.0030199101362922455em">2</tspan><tspan x="8.68" y="0" style="letter-spacing:-0.008965358217117605em">2</tspan><tspan x="14.34" y="0" style="letter-spacing:0.001981816026941786em">,</tspan><tspan x="17.24" y="0" style="letter-spacing:0.0030199101362922455em">00</tspan><tspan x="28.81" y="0">0</tspan></text></g><g style="clip-path:url(#clip-path-14)"><text transform="translate(50.69 191.68)" style="font-size:10.347990036010742px;font-family:ArialMT, Arial"><tspan style="letter-spacing:0.001981816026941786em"> </tspan><tspan x="2.9" y="0" style="letter-spacing:0.0030199101362922455em">3</tspan><tspan x="8.68" y="0" style="letter-spacing:-0.008965358217117605em">4</tspan><tspan x="14.34" y="0" style="letter-spacing:0.001981816026941786em">,</tspan><tspan x="17.24" y="0" style="letter-spacing:0.0030199101362922455em">00</tspan><tspan x="28.81" y="0">0</tspan></text></g><g style="clip-path:url(#clip-path-14)"><text transform="translate(50.69 135.65)" style="font-size:10.347990036010742px;font-family:ArialMT, Arial"><tspan style="letter-spacing:0.001981816026941786em"> </tspan><tspan x="2.9" y="0" style="letter-spacing:0.0030199101362922455em">4</tspan><tspan x="8.68" y="0" style="letter-spacing:-0.008965358217117605em">6</tspan><tspan x="14.34" y="0" style="letter-spacing:0.001981816026941786em">,</tspan><tspan x="17.24" y="0" style="letter-spacing:0.0030199101362922455em">00</tspan><tspan x="28.81" y="0">0</tspan></text></g><g style="clip-path:url(#clip-path-14)"><text transform="translate(50.69 79.62)" style="font-size:10.347990036010742px;font-family:ArialMT, Arial"><tspan style="letter-spacing:0.001981816026941786em"> </tspan><tspan x="2.9" y="0" style="letter-spacing:0.0030199101362922455em">5</tspan><tspan x="8.68" y="0" style="letter-spacing:-0.008965358217117605em">8</tspan><tspan x="14.34" y="0" style="letter-spacing:0.001981816026941786em">,</tspan><tspan x="17.24" y="0" style="letter-spacing:0.0030199101362922455em">00</tspan><tspan x="28.81" y="0">0</tspan></text></g><g style="clip-path:url(#clip-path-14)"><text transform="translate(117.98 316.06)" style="font-size:10.347990036010742px;font-family:ArialMT, Arial"><tspan style="letter-spacing:0.006039820272584491em">J</tspan><tspan x="5.24" y="0" style="letter-spacing:-0.008965358217117605em">a</tspan><tspan x="10.9" y="0">n</tspan></text></g><g style="clip-path:url(#clip-path-14)"><text transform="translate(176.07 316.06)" style="font-size:10.347990036010742px;font-family:ArialMT, Arial"><tspan style="letter-spacing:0.001981816026941786em">F</tspan><tspan x="6.34" y="0" style="letter-spacing:0.0030199101362922455em">e</tspan><tspan x="12.13" y="0">b</tspan></text></g><g style="clip-path:url(#clip-path-14)"><text transform="translate(234.75 316.06)" style="font-size:10.347990036010742px;font-family:ArialMT, Arial"><tspan style="letter-spacing:-0.006039820272584491em">M</tspan><tspan x="8.56" y="0" style="letter-spacing:0.0030199101362922455em">a</tspan><tspan x="14.34" y="0">r</tspan></text></g><g style="clip-path:url(#clip-path-14)"><text transform="translate(294.28 316.06)" style="font-size:10.347990036010742px;font-family:ArialMT, Arial">A<tspan x="6.9" y="0" style="letter-spacing:0.0030199101362922455em">p</tspan><tspan x="12.69" y="0" style="letter-spacing:-0.00009437219175913267em">r</tspan></text></g><g style="clip-path:url(#clip-path-14)"><text transform="translate(351.22 316.06)" style="font-size:10.347990036010742px;font-family:ArialMT, Arial"><tspan style="letter-spacing:-0.006039820272584491em">M</tspan><tspan x="8.56" y="0" style="letter-spacing:0.0030199101362922455em">a</tspan><tspan x="14.34" y="0">y</tspan></text></g><g style="clip-path:url(#clip-path-14)"><text transform="translate(411.33 316.06)" style="font-size:10.347990036010742px;font-family:ArialMT, Arial"><tspan style="letter-spacing:0.006039820272584491em">J</tspan><tspan x="5.24" y="0" style="letter-spacing:-0.008965358217117605em">u</tspan><tspan x="10.9" y="0">n</tspan></text></g><g style="clip-path:url(#clip-path-14)"><text transform="translate(471.73 316.06)" style="font-size:10.347990036010742px;font-family:ArialMT, Arial"><tspan style="letter-spacing:0.006039820272584491em">J</tspan><tspan x="5.24" y="0" style="letter-spacing:-0.008965358217117605em">u</tspan><tspan x="10.9" y="0">l</tspan></text></g><g style="clip-path:url(#clip-path-14)"><text transform="translate(527.8 316.06)" style="font-size:10.347990036010742px;font-family:ArialMT, Arial">A<tspan x="6.9" y="0" style="letter-spacing:0.0030199101362922455em">u</tspan><tspan x="12.69" y="0">g</tspan></text></g><g style="clip-path:url(#clip-path-14)"><text transform="translate(586.47 316.06)" style="font-size:10.347990036010742px;font-family:ArialMT, Arial">S<tspan x="6.9" y="0" style="letter-spacing:0.0030199101362922455em">e</tspan><tspan x="12.69" y="0">p</tspan></text></g><g style="clip-path:url(#clip-path-14)"><text transform="translate(646.29 316.06)" style="font-size:10.347990036010742px;font-family:ArialMT, Arial"><tspan style="letter-spacing:-0.003963632053883572em">O</tspan><tspan x="8.01" y="0" style="letter-spacing:0.006039820272584491em">c</tspan><tspan x="13.24" y="0">t</tspan></text></g><g style="clip-path:url(#clip-path-14)"><text transform="translate(703.82 316.06)" style="font-size:10.347990036010742px;font-family:ArialMT, Arial"><tspan style="letter-spacing:-0.001981816026941786em">N</tspan><tspan x="7.45" y="0" style="letter-spacing:0.0030199101362922455em">o</tspan><tspan x="13.24" y="0">v</tspan></text></g><g style="clip-path:url(#clip-path-14)"><text transform="translate(762.49 316.06)" style="font-size:10.347990036010742px;font-family:ArialMT, Arial"><tspan style="letter-spacing:-0.001981816026941786em">D</tspan><tspan x="7.45" y="0" style="letter-spacing:0.0030199101362922455em">e</tspan><tspan x="13.24" y="0">c</tspan></text></g><g style="clip-path:url(#clip-path-14)"><text transform="translate(809.92 303.75)" style="font-size:10.347990036010742px;font-family:ArialMT, Arial"><tspan style="letter-spacing:0.001981816026941786em"> </tspan><tspan x="2.9" y="0">0</tspan></text></g><g style="clip-path:url(#clip-path-14)"><text transform="translate(809.92 251.72)" style="font-size:10.347990036010742px;font-family:ArialMT, Arial"><tspan style="letter-spacing:0.001981816026941786em"> </tspan><tspan x="2.9" y="0" style="letter-spacing:0.0030199101362922455em">1</tspan><tspan x="8.68" y="0" style="letter-spacing:-0.008965358217117605em">5</tspan><tspan x="14.34" y="0" style="letter-spacing:0.001981816026941786em">,</tspan><tspan x="17.24" y="0" style="letter-spacing:0.0030199101362922455em">00</tspan><tspan x="28.81" y="0">0</tspan></text></g><g style="clip-path:url(#clip-path-14)"><text transform="translate(809.92 199.69)" style="font-size:10.347990036010742px;font-family:ArialMT, Arial"><tspan style="letter-spacing:0.001981816026941786em"> </tspan><tspan x="2.9" y="0" style="letter-spacing:0.0030199101362922455em">3</tspan><tspan x="8.68" y="0" style="letter-spacing:-0.008965358217117605em">0</tspan><tspan x="14.34" y="0" style="letter-spacing:0.001981816026941786em">,</tspan><tspan x="17.24" y="0" style="letter-spacing:0.0030199101362922455em">00</tspan><tspan x="28.81" y="0">0</tspan></text></g><g style="clip-path:url(#clip-path-14)"><text transform="translate(809.92 147.65)" style="font-size:10.347990036010742px;font-family:ArialMT, Arial"><tspan style="letter-spacing:0.001981816026941786em"> </tspan><tspan x="2.9" y="0" style="letter-spacing:0.0030199101362922455em">4</tspan><tspan x="8.68" y="0" style="letter-spacing:-0.008965358217117605em">5</tspan><tspan x="14.34" y="0" style="letter-spacing:0.001981816026941786em">,</tspan><tspan x="17.24" y="0" style="letter-spacing:0.0030199101362922455em">00</tspan><tspan x="28.81" y="0">0</tspan></text></g><g style="clip-path:url(#clip-path-14)"><text transform="translate(809.92 95.62)" style="font-size:10.347990036010742px;font-family:ArialMT, Arial"><tspan style="letter-spacing:0.001981816026941786em"> </tspan><tspan x="2.9" y="0" style="letter-spacing:0.0030199101362922455em">6</tspan><tspan x="8.68" y="0" style="letter-spacing:-0.008965358217117605em">0</tspan><tspan x="14.34" y="0" style="letter-spacing:0.001981816026941786em">,</tspan><tspan x="17.24" y="0" style="letter-spacing:0.0030199101362922455em">00</tspan><tspan x="28.81" y="0">0</tspan></text></g><g style="clip-path:url(#clip-path-14)"><text transform="translate(435.03 339.16)" style="font-size:10.347990036010742px;font-family:Arial-BoldMT, Arial;font-weight:700"><tspan style="letter-spacing:0.0059454480808253584em">M</tspan><tspan x="8.68" y="0" style="letter-spacing:0.001981816026941786em">on</tspan><tspan x="21.37" y="0">t</tspan><tspan x="24.81" y="0" style="letter-spacing:0.001981816026941786em">h</tspan><tspan x="31.15" y="0"> </tspan></text></g><g style="clip-path:url(#clip-path-14)"><text transform="translate(28.99 243.3) rotate(-90)" style="font-size:10.347990036010742px;font-family:Arial-BoldMT, Arial;font-weight:700"><tspan style="letter-spacing:0.0059454480808253584em">M</tspan><tspan x="8.68" y="0" style="letter-spacing:0.0030199101362922455em">a</tspan><tspan x="14.47" y="0" style="letter-spacing:-0.001981816026941786em">r</tspan><tspan x="18.47" y="0" style="letter-spacing:0.0030199101362922455em">ke</tspan><tspan x="30.05" y="0" style="letter-spacing:-0.00009437219175913267em">t</tspan><tspan x="33.49" y="0" style="letter-spacing:-0.01094717424405939em"> </tspan><tspan x="36.25" y="0">P</tspan><tspan x="43.16" y="0" style="letter-spacing:-0.002076188218700919em">r</tspan><tspan x="47.16" y="0" style="letter-spacing:0.001981816026941786em">i</tspan><tspan x="50.06" y="0" style="letter-spacing:0.0030199101362922455em">ce</tspan><tspan x="61.63" y="0" style="letter-spacing:-0.01094717424405939em"> </tspan><tspan x="64.39" y="0" style="letter-spacing:-0.00009437219175913267em">(</tspan><tspan x="67.84" y="0" style="letter-spacing:-0.001981816026941786em">R</tspan><tspan x="75.29" y="0" style="letter-spacing:0.0030199101362922455em">s</tspan><tspan x="81.08" y="0" style="letter-spacing:0.002076188218700919em">./</tspan><tspan x="86.87" y="0" style="letter-spacing:0.0059454480808253584em">M</tspan><tspan x="95.55" y="0" style="letter-spacing:0.001981816026941786em">T</tspan><tspan x="101.89" y="0">)</tspan></text></g><g style="clip-path:url(#clip-path-14)"><text transform="translate(874.82 217.07) rotate(-90)" style="font-size:10.347990036010742px;font-family:Arial-BoldMT, Arial;font-weight:700"><tspan style="letter-spacing:0.0059454480808253584em">M</tspan><tspan x="8.68" y="0" style="letter-spacing:0.0030199101362922455em">a</tspan><tspan x="14.47" y="0" style="letter-spacing:-0.001981816026941786em">r</tspan><tspan x="18.47" y="0" style="letter-spacing:0.0030199101362922455em">ke</tspan><tspan x="30.05" y="0" style="letter-spacing:-0.00009437219175913267em">t</tspan><tspan x="33.49" y="0" style="letter-spacing:-0.01094717424405939em"> </tspan><tspan x="36.25" y="0" style="letter-spacing:-0.015005178489702096em">A</tspan><tspan x="43.57" y="0" style="letter-spacing:-0.001981816026941786em">rr</tspan><tspan x="51.58" y="0" style="letter-spacing:0.001981816026941786em">i</tspan><tspan x="54.48" y="0" style="letter-spacing:-0.008965358217117605em">v</tspan><tspan x="60.14" y="0" style="letter-spacing:0.0030199101362922455em">a</tspan><tspan x="65.93" y="0" style="letter-spacing:0.001981816026941786em">l</tspan><tspan x="68.82" y="0" style="letter-spacing:0.015005178489702096em"> </tspan><tspan x="71.85" y="0">(</tspan><tspan x="75.3" y="0" style="letter-spacing:0.0059454480808253584em">M</tspan><tspan x="83.98" y="0" style="letter-spacing:0.001981816026941786em">T</tspan><tspan x="90.32" y="0">)</tspan></text></g><g style="clip-path:url(#clip-path)"><polygon points="65.91 16.09 87.98 16.09 87.98 21.33 65.91 21.33 65.91 16.09 65.91 16.09" style="fill:#6b77e8;fill-rule:evenodd"/><polygon points="65.91 16.09 87.98 16.09 87.98 21.33 65.91 21.33 65.91 16.09 65.91 16.09" style="fill:none;stroke:#6b77e8;stroke-linejoin:round;stroke-width:0.82783901465632px"/></g><g style="clip-path:url(#clip-path-14)"><text transform="translate(90.3 21.98)" style="font-size:10.347990036010742px;font-family:ArialMT, Arial">AP<tspan x="13.8" y="0" style="letter-spacing:0.002076188218700919em"> </tspan><tspan x="16.7" y="0" style="letter-spacing:-0.00009437219175913267em">(</tspan><tspan x="20.15" y="0" style="letter-spacing:-0.001981816026941786em">R</tspan><tspan x="27.6" y="0">-</tspan><tspan x="31.04" y="0" style="letter-spacing:0.0030199101362922455em">1</tspan><tspan x="36.83" y="0">)</tspan><tspan x="40.28" y="0" style="letter-spacing:0.001981816026941786em"> </tspan><tspan x="43.17" y="0" style="letter-spacing:-0.00009437219175913267em">Ar</tspan><tspan x="53.52" y="0" style="letter-spacing:-0.01302336246276031em">r</tspan><tspan x="56.83" y="0" style="letter-spacing:0.004058004245642705em">i</tspan><tspan x="59.17" y="0" style="letter-spacing:0.0059454480808253584em">v</tspan><tspan x="64.41" y="0" style="letter-spacing:-0.008965358217117605em">a</tspan><tspan x="70.07" y="0">l</tspan></text></g><g style="clip-path:url(#clip-path)"><polygon points="277 16.09 299.08 16.09 299.08 21.33 277 21.33 277 16.09 277 16.09" style="fill:#2935e8;fill-rule:evenodd"/><polygon points="277 16.09 299.08 16.09 299.08 21.33 277 21.33 277 16.09 277 16.09" style="fill:none;stroke:#2935e8;stroke-linejoin:round;stroke-width:0.82783901465632px"/></g><g style="clip-path:url(#clip-path-14)"><text transform="translate(301.42 21.98)" style="font-size:10.347990036010742px;font-family:ArialMT, Arial"><tspan style="letter-spacing:-0.006039820272584491em">M</tspan><tspan x="8.56" y="0" style="letter-spacing:0.01302336246276031em">P</tspan><tspan x="15.59" y="0" style="letter-spacing:-0.011041546435818523em"> </tspan><tspan x="18.36" y="0">(</tspan><tspan x="21.8" y="0" style="letter-spacing:-0.001981816026941786em">R</tspan><tspan x="29.25" y="0">-</tspan><tspan x="32.7" y="0" style="letter-spacing:0.0030199101362922455em">7</tspan><tspan x="38.49" y="0" style="letter-spacing:0.001981816026941786em">, </tspan><tspan x="44.28" y="0" style="letter-spacing:-0.001981816026941786em">R</tspan><tspan x="51.73" y="0">-</tspan><tspan x="55.18" y="0" style="letter-spacing:0.0030199101362922455em">8</tspan><tspan x="60.96" y="0" style="letter-spacing:-0.00009437219175913267em">)</tspan><tspan x="64.41" y="0" style="letter-spacing:-0.01094717424405939em"> </tspan><tspan x="67.17" y="0" style="letter-spacing:-0.00009437219175913267em">Arr</tspan><tspan x="80.96" y="0" style="letter-spacing:0.003963632053883572em">i</tspan><tspan x="83.3" y="0" style="letter-spacing:0.006039820272584491em">v</tspan><tspan x="88.54" y="0" style="letter-spacing:-0.008965358217117605em">a</tspan><tspan x="94.2" y="0">l</tspan></text></g><g style="clip-path:url(#clip-path)"><polygon points="488.1 16.09 510.18 16.09 510.18 21.33 488.1 21.33 488.1 16.09 488.1 16.09" style="fill:#00c1a3;fill-rule:evenodd"/><polygon points="488.1 16.09 510.18 16.09 510.18 21.33 488.1 21.33 488.1 16.09 488.1 16.09" style="fill:none;stroke:#00c1a3;stroke-linejoin:round;stroke-width:0.82783901465632px"/></g><g style="clip-path:url(#clip-path-14)"><text transform="translate(512.56 21.98)" style="font-size:10.347990036010742px;font-family:ArialMT, Arial"><tspan style="letter-spacing:-0.006039820272584491em">M</tspan><tspan x="8.56" y="0" style="letter-spacing:0.011041546435818523em">H</tspan><tspan x="16.14" y="0" style="letter-spacing:-0.01094717424405939em">,</tspan><tspan x="18.91" y="0" style="letter-spacing:0.001981816026941786em"> </tspan><tspan x="21.8" y="0" style="letter-spacing:0.0059454480808253584em">M</tspan><tspan x="30.48" y="0">P</tspan><tspan x="37.39" y="0" style="letter-spacing:0.001981816026941786em"> </tspan><tspan x="40.28" y="0">(</tspan><tspan x="43.73" y="0" style="letter-spacing:-0.001981816026941786em">R</tspan><tspan x="51.18" y="0" style="letter-spacing:-0.00009437219175913267em">-</tspan><tspan x="54.63" y="0" style="letter-spacing:-0.008965358217117605em">3</tspan><tspan x="60.29" y="0" style="letter-spacing:0.0030199101362922455em">03</tspan><tspan x="71.86" y="0">)</tspan><tspan x="75.31" y="0" style="letter-spacing:0.001981816026941786em"> </tspan><tspan x="78.2" y="0">Arr</tspan><tspan x="92" y="0" style="letter-spacing:-0.008021636299526277em">i</tspan><tspan x="94.21" y="0" style="letter-spacing:0.006039820272584491em">v</tspan><tspan x="99.45" y="0" style="letter-spacing:-0.008965358217117605em">a</tspan><tspan x="105.11" y="0">l</tspan></text></g><g style="clip-path:url(#clip-path)"><polygon points="699.34 16.09 721.41 16.09 721.41 21.33 699.34 21.33 699.34 16.09 699.34 16.09" style="fill:#ff25f3;fill-rule:evenodd"/><polygon points="699.34 16.09 721.41 16.09 721.41 21.33 699.34 21.33 699.34 16.09 699.34 16.09" style="fill:none;stroke:#ff25f3;stroke-linejoin:round;stroke-width:0.82783901465632px"/></g><g style="clip-path:url(#clip-path-14)"><text transform="translate(723.69 21.98)" style="font-size:10.347990036010742px;font-family:ArialMT, Arial"><tspan style="letter-spacing:-0.006039820272584491em">M</tspan><tspan x="8.56" y="0" style="letter-spacing:0.011041546435818523em">H</tspan><tspan x="16.14" y="0" style="letter-spacing:-0.01094717424405939em"> </tspan><tspan x="18.91" y="0" style="letter-spacing:-0.00009437219175913267em">(</tspan><tspan x="22.35" y="0" style="letter-spacing:0.011041546435818523em">R</tspan><tspan x="29.94" y="0">-</tspan><tspan x="33.38" y="0" style="letter-spacing:-0.008965358217117605em">3</tspan><tspan x="39.05" y="0" style="letter-spacing:0.0030199101362922455em">00</tspan><tspan x="50.62" y="0" style="letter-spacing:0.001981816026941786em">,</tspan><tspan x="53.51" y="0" style="letter-spacing:-0.001981816026941786em">R</tspan><tspan x="60.97" y="0" style="letter-spacing:-0.00009437219175913267em">-</tspan><tspan x="64.41" y="0" style="letter-spacing:-0.008965358217117605em">3</tspan><tspan x="70.07" y="0" style="letter-spacing:0.0030199101362922455em">01</tspan><tspan x="81.65" y="0">)</tspan><tspan x="85.09" y="0" style="letter-spacing:0.001981816026941786em"> </tspan><tspan x="87.99" y="0">Arr</tspan><tspan x="101.78" y="0" style="letter-spacing:-0.008021636299526277em">i</tspan><tspan x="104" y="0" style="letter-spacing:0.006039820272584491em">v</tspan><tspan x="109.23" y="0" style="letter-spacing:-0.008965358217117605em">a</tspan><tspan x="114.9" y="0">l</tspan></text></g><g style="clip-path:url(#clip-path)"><line x1="65.9" y1="36.92" x2="87.98" y2="36.92" style="fill:none;stroke:#6b77e8;stroke-linecap:round;stroke-linejoin:round;stroke-width:2.48351697543694px"/></g><g style="clip-path:url(#clip-path-14)"><text transform="translate(90.3 40.28)" style="font-size:10.347990036010742px;font-family:ArialMT, Arial">AP<tspan x="13.8" y="0" style="letter-spacing:0.002076188218700919em"> </tspan><tspan x="16.7" y="0" style="letter-spacing:-0.00009437219175913267em">(</tspan><tspan x="20.15" y="0" style="letter-spacing:-0.001981816026941786em">R</tspan><tspan x="27.6" y="0">-</tspan><tspan x="31.04" y="0" style="letter-spacing:0.0030199101362922455em">1</tspan><tspan x="36.83" y="0">)</tspan><tspan x="40.28" y="0" style="letter-spacing:0.001981816026941786em"> </tspan><tspan x="43.17" y="0" style="letter-spacing:-0.00009437219175913267em">Pr</tspan><tspan x="53.52" y="0" style="letter-spacing:-0.007927264107767144em">i</tspan><tspan x="55.74" y="0" style="letter-spacing:0.0059454480808253584em">c</tspan><tspan x="60.97" y="0">e</tspan></text></g><g style="clip-path:url(#clip-path)"><line x1="277" y1="36.92" x2="299.08" y2="36.92" style="fill:none;stroke:#2935e8;stroke-linecap:round;stroke-linejoin:round;stroke-width:2.48351697543694px"/></g><g style="clip-path:url(#clip-path-14)"><text transform="translate(301.42 40.28)" style="font-size:10.347990036010742px;font-family:ArialMT, Arial"><tspan style="letter-spacing:-0.006039820272584491em">M</tspan><tspan x="8.56" y="0" style="letter-spacing:0.01302336246276031em">P</tspan><tspan x="15.59" y="0" style="letter-spacing:-0.011041546435818523em"> </tspan><tspan x="18.36" y="0">(</tspan><tspan x="21.8" y="0" style="letter-spacing:-0.001981816026941786em">R</tspan><tspan x="29.25" y="0">-</tspan><tspan x="32.7" y="0" style="letter-spacing:0.0030199101362922455em">7</tspan><tspan x="38.49" y="0" style="letter-spacing:0.001981816026941786em">, </tspan><tspan x="44.28" y="0" style="letter-spacing:-0.001981816026941786em">R</tspan><tspan x="51.73" y="0">-</tspan><tspan x="55.18" y="0" style="letter-spacing:0.0030199101362922455em">8</tspan><tspan x="60.96" y="0" style="letter-spacing:-0.00009437219175913267em">)</tspan><tspan x="64.41" y="0" style="letter-spacing:-0.01094717424405939em"> </tspan><tspan x="67.17" y="0" style="letter-spacing:-0.00009437219175913267em">Pr</tspan><tspan x="77.52" y="0" style="letter-spacing:0.004058004245642705em">i</tspan><tspan x="79.86" y="0" style="letter-spacing:0.0059454480808253584em">c</tspan><tspan x="85.09" y="0" style="letter-spacing:0.00009437219175913267em">e</tspan></text></g><g style="clip-path:url(#clip-path)"><line x1="488.1" y1="36.92" x2="510.18" y2="36.92" style="fill:none;stroke:#00c1a3;stroke-linecap:round;stroke-linejoin:round;stroke-width:2.48351697543694px"/></g><g style="clip-path:url(#clip-path-14)"><text transform="translate(512.56 40.28)" style="font-size:10.347990036010742px;font-family:ArialMT, Arial"><tspan style="letter-spacing:-0.006039820272584491em">M</tspan><tspan x="8.56" y="0" style="letter-spacing:0.011041546435818523em">H</tspan><tspan x="16.14" y="0" style="letter-spacing:-0.01094717424405939em">,</tspan><tspan x="18.91" y="0" style="letter-spacing:0.001981816026941786em"> </tspan><tspan x="21.8" y="0" style="letter-spacing:0.0059454480808253584em">M</tspan><tspan x="30.48" y="0">P</tspan><tspan x="37.39" y="0" style="letter-spacing:0.001981816026941786em"> </tspan><tspan x="40.28" y="0">(</tspan><tspan x="43.73" y="0" style="letter-spacing:-0.001981816026941786em">R</tspan><tspan x="51.18" y="0" style="letter-spacing:-0.00009437219175913267em">-</tspan><tspan x="54.63" y="0" style="letter-spacing:-0.008965358217117605em">3</tspan><tspan x="60.29" y="0" style="letter-spacing:0.0030199101362922455em">03</tspan><tspan x="71.86" y="0">)</tspan><tspan x="75.31" y="0" style="letter-spacing:0.001981816026941786em"> </tspan><tspan x="78.2" y="0">Pr</tspan><tspan x="88.55" y="0" style="letter-spacing:-0.007927264107767144em">i</tspan><tspan x="90.77" y="0" style="letter-spacing:0.006039820272584491em">c</tspan><tspan x="96" y="0">e</tspan></text></g><g style="clip-path:url(#clip-path)"><line x1="699.34" y1="36.92" x2="721.42" y2="36.92" style="fill:none;stroke:#ff25f3;stroke-linecap:round;stroke-linejoin:round;stroke-width:2.48351697543694px"/></g><g style="clip-path:url(#clip-path-14)"><text transform="translate(723.69 40.28)" style="font-size:10.347990036010742px;font-family:ArialMT, Arial"><tspan style="letter-spacing:-0.006039820272584491em">M</tspan><tspan x="8.56" y="0" style="letter-spacing:0.011041546435818523em">H</tspan><tspan x="16.14" y="0" style="letter-spacing:-0.01094717424405939em"> </tspan><tspan x="18.91" y="0" style="letter-spacing:-0.00009437219175913267em">(</tspan><tspan x="22.35" y="0" style="letter-spacing:0.011041546435818523em">R</tspan><tspan x="29.94" y="0">-</tspan><tspan x="33.38" y="0" style="letter-spacing:-0.008965358217117605em">3</tspan><tspan x="39.05" y="0" style="letter-spacing:0.0030199101362922455em">00</tspan><tspan x="50.62" y="0" style="letter-spacing:0.001981816026941786em">,</tspan><tspan x="53.51" y="0" style="letter-spacing:-0.001981816026941786em">R</tspan><tspan x="60.97" y="0" style="letter-spacing:-0.00009437219175913267em">-</tspan><tspan x="64.41" y="0" style="letter-spacing:-0.008965358217117605em">3</tspan><tspan x="70.07" y="0" style="letter-spacing:0.0030199101362922455em">01</tspan><tspan x="81.65" y="0">)</tspan><tspan x="85.09" y="0" style="letter-spacing:0.001981816026941786em"> </tspan><tspan x="87.99" y="0">Pr</tspan><tspan x="98.34" y="0" style="letter-spacing:-0.007927264107767144em">i</tspan><tspan x="100.55" y="0" style="letter-spacing:0.006039820272584491em">c</tspan><tspan x="105.79" y="0">e</tspan></text></g><polygon points="0.64 -0.74 898.43 -0.74 898.43 350.95 0.64 350.95 0.64 -0.74 0.64 -0.74" style="fill:none;stroke:#d9d9d9;stroke-linejoin:round;stroke-width:0.827839083188337px"/></svg>