<svg id="Layer_1" data-name="Layer 1" xmlns="http://www.w3.org/2000/svg" xmlns:xlink="http://www.w3.org/1999/xlink" viewBox="0 0 900 350"><defs><clipPath id="clip-path"><polygon points="0.88 30.88 901.17 30.88 901.17 320.44 0.88 320.44 0.88 30.88 0.88 30.88" style="fill:none;clip-rule:evenodd"/></clipPath><clipPath id="clip-path-2"><polygon points="0.88 30.88 901.17 30.88 901.17 84.84 0.88 84.84 0.88 30.88 0.88 30.88" style="fill:none;clip-rule:evenodd"/></clipPath><clipPath id="clip-path-4"><polygon points="0.88 280.95 899.86 280.95 899.86 319.12 0.88 319.12 0.88 280.95 0.88 280.95" style="fill:none;clip-rule:evenodd"/></clipPath><clipPath id="clip-path-5"><polygon points="489.91 134.86 762.77 134.86 762.77 182.24 489.91 182.24 489.91 134.86 489.91 134.86" style="fill:none;clip-rule:evenodd"/></clipPath><clipPath id="clip-path-6"><polygon points="0.88 134.86 172.24 134.86 172.24 230.94 0.88 230.94 0.88 134.86 0.88 134.86" style="fill:none;clip-rule:evenodd"/></clipPath><clipPath id="clip-path-7"><polygon points="558.46 183.56 762.77 183.56 762.77 230.94 558.46 230.94 558.46 183.56 558.46 183.56" style="fill:none;clip-rule:evenodd"/></clipPath><clipPath id="clip-path-8"><polygon points="489.91 86.16 762.77 86.16 762.77 133.54 489.91 133.54 489.91 86.16 489.91 86.16" style="fill:none;clip-rule:evenodd"/></clipPath><clipPath id="clip-path-9"><polygon points="558.46 232.25 762.77 232.25 762.77 279.64 558.46 279.64 558.46 232.25 558.46 232.25" style="fill:none;clip-rule:evenodd"/></clipPath><clipPath id="clip-path-10"><polygon points="-0.44 29.56 901.17 29.56 901.17 320.44 -0.44 320.44 -0.44 29.56 -0.44 29.56" style="fill:none;clip-rule:evenodd"/></clipPath></defs><title>seasonal-calendar</title><g style="clip-path:url(#clip-path)"><polyline points="-0.44 29.56 -0.44 86.16 901.17 86.16 901.17 29.56 -0.44 29.56" style="fill:#d9d9d9;fill-rule:evenodd"/><polyline points="-0.44 84.84 -0.44 183.56 352.83 183.56 352.83 84.84 -0.44 84.84" style="fill:#f2f2f2;fill-rule:evenodd"/><polyline points="351.51 84.84 351.51 183.56 421.37 183.56 421.37 84.84 351.51 84.84" style="fill:#fff;fill-rule:evenodd"/><polyline points="420.05 84.84 420.05 183.56 489.91 183.56 489.91 84.84 420.05 84.84" style="fill:#5e9fff;fill-rule:evenodd"/><polyline points="488.6 84.84 488.6 183.56 764.09 183.56 764.09 84.84 488.6 84.84" style="fill:#06f;fill-rule:evenodd"/><polyline points="762.77 84.84 762.77 183.56 832.63 183.56 832.63 84.84 762.77 84.84" style="fill:#0044ab;fill-rule:evenodd"/><polyline points="-0.44 182.24 -0.44 280.95 352.83 280.95 352.83 182.24 -0.44 182.24" style="fill:#f2f2f2;fill-rule:evenodd"/><polyline points="351.51 182.24 351.51 280.95 489.91 280.95 489.91 182.24 351.51 182.24" style="fill:#fff;fill-rule:evenodd"/><polyline points="488.6 182.24 488.6 280.95 558.46 280.95 558.46 182.24 488.6 182.24" style="fill:#5e9fff;fill-rule:evenodd"/><polyline points="557.14 182.24 557.14 280.95 764.09 280.95 764.09 182.24 557.14 182.24" style="fill:#06f;fill-rule:evenodd"/><polyline points="762.77 182.24 762.77 280.95 832.63 280.95 832.63 182.24 762.77 182.24" style="fill:#0044ab;fill-rule:evenodd"/></g><g style="clip-path:url(#clip-path-2)"><text transform="translate(7.48 63.77)" style="font-size:17.110570907592773px;font-family:Arial-BoldMT, Arial;font-weight:700"><tspan style="letter-spacing:-0.029007550160284227em">A</tspan><tspan x="11.86" y="0" style="letter-spacing:0.003989250513202152em">g</tspan><tspan x="22.38" y="0" style="letter-spacing:-0.0040462398062478975em">r</tspan><tspan x="28.97" y="0" style="letter-spacing:0.003989250513202152em">o</tspan><tspan x="39.49" y="0" style="letter-spacing:-0.02496131035403633em">-</tspan><tspan x="44.76" y="0" style="letter-spacing:-0.017039798620677764em">c</tspan><tspan x="53.99" y="0" style="letter-spacing:0.029007550160284227em">li</tspan><tspan x="64.49" y="0" style="letter-spacing:0.033053789966532125em">m</tspan><tspan x="80.27" y="0" style="letter-spacing:0.05898391830234612em">a</tspan><tspan x="90.79" y="0" style="letter-spacing:-0.02501829964708207em">t</tspan><tspan x="96.06" y="0" style="letter-spacing:0.029007550160284227em">i</tspan><tspan x="101.31" y="0" style="letter-spacing:-0.016982809327632024em">c</tspan><tspan x="110.54" y="0" style="letter-spacing:0.029007550160284227em"> </tspan><tspan x="115.79" y="0" style="letter-spacing:0.0379548691684662em">z</tspan><tspan x="124.99" y="0" style="letter-spacing:0.003989250513202152em">on</tspan><tspan x="146.03" y="0">e</tspan></text><text transform="translate(232.89 63.77)" style="font-size:17.110570907592773px;font-family:Arial-BoldMT, Arial;font-weight:700"><tspan style="letter-spacing:-0.029007550160284227em">R</tspan><tspan x="11.86" y="0" style="letter-spacing:0.05898391830234612em">e</tspan><tspan x="22.39" y="0" style="letter-spacing:0.0040462398062478975em">g</tspan><tspan x="32.91" y="0" style="letter-spacing:0.029007550160284227em">i</tspan><tspan x="38.16" y="0" style="letter-spacing:0.003989250513202152em">o</tspan><tspan x="48.68" y="0">n</tspan></text><text transform="translate(369.97 63.77)" style="font-size:17.110570907592773px;font-family:Arial-BoldMT, Arial;font-weight:700"><tspan style="letter-spacing:-0.029007550160284227em">A</tspan><tspan x="11.86" y="0" style="letter-spacing:0.0040462398062478975em">u</tspan><tspan x="22.38" y="0">g</tspan></text><text transform="translate(438.51 63.77)" style="font-size:17.110570907592773px;font-family:Arial-BoldMT, Arial;font-weight:700"><tspan style="letter-spacing:0.02496131035403633em">S</tspan><tspan x="11.84" y="0" style="letter-spacing:0.05904090759539186em">e</tspan><tspan x="22.37" y="0">p</tspan></text><text transform="translate(509.68 63.77)" style="font-size:17.110570907592773px;font-family:Arial-BoldMT, Arial;font-weight:700"><tspan style="letter-spacing:-0.00803549031945005em">O</tspan><tspan x="13.17" y="0" style="letter-spacing:-0.016982809327632024em">c</tspan><tspan x="22.4" y="0">t</tspan></text><text transform="translate(576.92 63.77)" style="font-size:17.110570907592773px;font-family:Arial-BoldMT, Arial;font-weight:700"><tspan style="letter-spacing:-0.029007550160284227em">N</tspan><tspan x="11.86" y="0" style="letter-spacing:0.003989250513202152em">o</tspan><tspan x="22.38" y="0">v</tspan></text><text transform="translate(645.47 63.77)" style="font-size:17.110570907592773px;font-family:Arial-BoldMT, Arial;font-weight:700"><tspan style="letter-spacing:-0.029007550160284227em">D</tspan><tspan x="11.86" y="0" style="letter-spacing:0.05898391830234612em">e</tspan><tspan x="22.39" y="0">c</tspan></text><text transform="translate(714 63.77)" style="font-size:17.110570907592773px;font-family:Arial-BoldMT, Arial;font-weight:700;letter-spacing:-0.016982809327632024em">J<tspan x="9.23" y="0" style="letter-spacing:0.05898391830234612em">a</tspan><tspan x="19.75" y="0" style="letter-spacing:-0.00005698929304574504em">n</tspan></text><text transform="translate(782.55 63.77)" style="font-size:17.110570907592773px;font-family:Arial-BoldMT, Arial;font-weight:700;letter-spacing:0.003989250513202152em">F<tspan x="10.52" y="0" style="letter-spacing:0.05898391830234612em">e</tspan><tspan x="21.05" y="0" style="letter-spacing:-0.00005698929304574504em">b</tspan></text><text transform="translate(851.1 63.77)" style="font-size:17.110570907592773px;font-family:Arial-BoldMT, Arial;font-weight:700"><tspan style="letter-spacing:0.01299355881442987em">M</tspan><tspan x="14.48" y="0" style="letter-spacing:0.05898391830234612em">a</tspan><tspan x="25" y="0">r</tspan></text></g><g style="clip-path:url(#clip-path)"><text transform="translate(69.43 116.42)" style="font-size:17.110570907592773px;font-family:Arial-BoldMT, Arial;font-weight:700"><tspan style="letter-spacing:0.02496131035403633em">SP</tspan><tspan x="23.68" y="0">H</tspan></text><text transform="translate(188.06 116.42)" style="font-size:17.110570907592773px;font-family:Arial-BoldMT, Arial;font-weight:700"><tspan style="letter-spacing:-0.029007550160284227em">R</tspan><tspan x="11.86" y="0" style="letter-spacing:-0.02496131035403633em">-</tspan><tspan x="17.13" y="0">1</tspan></text><text transform="translate(188.06 165.13)" style="font-size:17.110570907592773px;font-family:Arial-BoldMT, Arial;font-weight:700"><tspan style="letter-spacing:-0.029007550160284227em">R</tspan><tspan x="11.86" y="0" style="letter-spacing:-0.02496131035403633em">-</tspan><tspan x="17.13" y="0">7</tspan></text><text transform="translate(188.06 213.83)" style="font-size:17.110570907592773px;font-family:Arial-BoldMT, Arial;font-weight:700"><tspan style="letter-spacing:-0.029007550160284227em">R</tspan><tspan x="11.86" y="0" style="letter-spacing:-0.02496131035403633em">-</tspan><tspan x="17.13" y="0">8</tspan></text><text transform="translate(66.79 262.51)" style="font-size:17.110570907592773px;font-family:Arial-BoldMT, Arial;font-weight:700"><tspan style="letter-spacing:0.05596348577092163em">W</tspan><tspan x="17.11" y="0" style="letter-spacing:0.02501829964708207em">P</tspan><tspan x="28.95" y="0">H</tspan></text><text transform="translate(188.06 262.51)" style="font-size:17.110570907592773px;font-family:Arial-BoldMT, Arial;font-weight:700"><tspan style="letter-spacing:-0.029007550160284227em">R</tspan><tspan x="11.86" y="0" style="letter-spacing:-0.02496131035403633em">-</tspan><tspan x="17.13" y="0" style="letter-spacing:-0.017039798620677764em">300</tspan><tspan x="44.81" y="0" style="letter-spacing:0.029007550160284227em">, </tspan><tspan x="55.31" y="0" style="letter-spacing:-0.029007550160284227em">R</tspan><tspan x="67.17" y="0" style="letter-spacing:-0.02501829964708207em">-</tspan><tspan x="72.44" y="0" style="letter-spacing:-0.016982809327632024em">301</tspan><tspan x="100.11" y="0" style="letter-spacing:0.029007550160284227em">, </tspan><tspan x="110.61" y="0" style="letter-spacing:-0.029007550160284227em">R</tspan><tspan x="122.47" y="0" style="letter-spacing:-0.02496131035403633em">-</tspan><tspan x="127.74" y="0" style="letter-spacing:-0.016982809327632024em">30</tspan><tspan x="146.19" y="0">3</tspan></text></g><g style="clip-path:url(#clip-path-4)"><text transform="translate(3.51 304.64)" style="font-size:14.478179931640625px;font-family:ArialMT, Arial;letter-spacing:-0.08499691345368926em">N<tspan x="9.22" y="0" style="letter-spacing:-0.010035293268304043em">o</tspan><tspan x="17.13" y="0" style="letter-spacing:-0.0049839711533859em">t</tspan><tspan x="21.08" y="0" style="letter-spacing:-0.010035293268304043em">e</tspan><tspan x="28.99" y="0" style="letter-spacing:0.00006735096153224189em">:</tspan></text><text transform="translate(36.47 304.64)" style="font-size:14.478179931640625px;font-family:Arial-BoldMT, Arial;font-weight:700;letter-spacing:0.005051322114918141em">C<tspan x="10.53" y="0" style="letter-spacing:-0.03003852884337988em">P</tspan><tspan x="19.75" y="0" style="letter-spacing:0.00006735096153224189em">H</tspan></text><text transform="translate(65.47 304.64)" style="font-size:14.478179931640625px;font-family:ArialMT, Arial"><tspan style="letter-spacing:-0.0049839711533859em"> </tspan><tspan x="3.95" y="0" style="letter-spacing:-0.08499691345368926em">C</tspan><tspan x="13.17" y="0" style="letter-spacing:-0.010035293268304043em">en</tspan><tspan x="28.99" y="0" style="letter-spacing:-0.0049839711533859em">t</tspan><tspan x="32.94" y="0" style="letter-spacing:0.03003852884337988em">r</tspan><tspan x="38.2" y="0" style="letter-spacing:-0.010035293268304043em">a</tspan><tspan x="46.1" y="0" style="letter-spacing:-0.040006471150151685em">l</tspan><tspan x="48.74" y="0" style="letter-spacing:-0.0049839711533859em"> </tspan><tspan x="52.69" y="0" style="letter-spacing:-0.12102967787343867em">P</tspan><tspan x="60.59" y="0" style="letter-spacing:-0.040006471150151685em">l</tspan><tspan x="63.23" y="0" style="letter-spacing:-0.010035293268304043em">a</tspan><tspan x="71.14" y="0" style="letter-spacing:-0.0049839711533859em">t</tspan><tspan x="75.09" y="0" style="letter-spacing:-0.010035293268304043em">eau</tspan><tspan x="98.81" y="0" style="letter-spacing:-0.0049839711533859em"> </tspan><tspan x="102.76" y="0" style="letter-spacing:-0.010035293268304043em">and</tspan><tspan x="126.48" y="0" style="letter-spacing:-0.0049839711533859em"> </tspan><tspan x="130.43" y="0" style="letter-spacing:-0.08499691345368926em">H</tspan><tspan x="139.66" y="0" style="letter-spacing:-0.040006471150151685em">ill</tspan><tspan x="147.57" y="0" style="letter-spacing:0.044990442303537576em">s</tspan><tspan x="155.46" y="0">,</tspan></text><text transform="translate(224.97 304.64)" style="font-size:14.478179931640625px;font-family:Arial-BoldMT, Arial;font-weight:700"><tspan style="letter-spacing:-0.0049839711533859em"> </tspan><tspan x="3.95" y="0" style="letter-spacing:-0.02997117788184764em">SP</tspan><tspan x="22.39" y="0" style="letter-spacing:-0.08492956249215704em">H</tspan><tspan x="31.62" y="0"> </tspan></text><text transform="translate(260.55 304.64)" style="font-size:14.478179931640625px;font-family:ArialMT, Arial;letter-spacing:-0.02997117788184764em">S<tspan x="9.22" y="0" style="letter-spacing:-0.010035293268304043em">ou</tspan><tspan x="25.04" y="0" style="letter-spacing:-0.0049839711533859em">t</tspan><tspan x="28.99" y="0" style="letter-spacing:-0.010035293268304043em">he</tspan><tspan x="44.8" y="0" style="letter-spacing:0.03003852884337988em">r</tspan><tspan x="50.06" y="0" style="letter-spacing:-0.010035293268304043em">n</tspan><tspan x="57.96" y="0" style="letter-spacing:-0.0049839711533859em"> </tspan><tspan x="61.92" y="0" style="letter-spacing:-0.12102967787343867em">P</tspan><tspan x="69.82" y="0" style="letter-spacing:-0.040006471150151685em">l</tspan><tspan x="72.46" y="0" style="letter-spacing:-0.010035293268304043em">a</tspan><tspan x="80.36" y="0" style="letter-spacing:-0.0049839711533859em">t</tspan><tspan x="84.31" y="0" style="letter-spacing:-0.010035293268304043em">eau</tspan><tspan x="108.04" y="0" style="letter-spacing:-0.0049839711533859em"> </tspan><tspan x="111.99" y="0" style="letter-spacing:-0.010035293268304043em">and</tspan><tspan x="135.71" y="0" style="letter-spacing:-0.0049839711533859em"> </tspan><tspan x="139.66" y="0" style="letter-spacing:-0.08499691345368926em">H</tspan><tspan x="148.88" y="0" style="letter-spacing:-0.040006471150151685em">ill</tspan><tspan x="156.8" y="0" style="letter-spacing:0.044990442303537576em">s</tspan><tspan x="164.69" y="0" style="letter-spacing:-0.005051322114918141em">,</tspan><tspan x="168.64" y="0" style="letter-spacing:0.00006735096153224189em"> </tspan></text><text transform="translate(433.23 304.64)" style="font-size:14.478179931640625px;font-family:Arial-BoldMT, Arial;font-weight:700"><tspan style="letter-spacing:-0.034012235573782156em">W</tspan><tspan x="13.17" y="0" style="letter-spacing:-0.02997117788184764em">P</tspan><tspan x="22.4" y="0">H</tspan></text><text transform="translate(464.87 304.64)" style="font-size:14.478179931640625px;font-family:ArialMT, Arial;letter-spacing:-0.0049839711533859em"> <tspan x="3.95" y="0" style="letter-spacing:-0.034012235573782156em">W</tspan><tspan x="17.12" y="0" style="letter-spacing:-0.010035293268304043em">e</tspan><tspan x="25.03" y="0" style="letter-spacing:0.044990442303537576em">s</tspan><tspan x="32.92" y="0">t</tspan><tspan x="36.87" y="0" style="letter-spacing:-0.010035293268304043em">e</tspan><tspan x="44.78" y="0" style="letter-spacing:0.03003852884337988em">r</tspan><tspan x="50.03" y="0" style="letter-spacing:-0.010035293268304043em">n</tspan><tspan x="57.94" y="0"> </tspan><tspan x="61.89" y="0" style="letter-spacing:-0.12102967787343867em">P</tspan><tspan x="69.8" y="0" style="letter-spacing:-0.040006471150151685em">l</tspan><tspan x="72.43" y="0" style="letter-spacing:-0.010035293268304043em">a</tspan><tspan x="80.34" y="0">t</tspan><tspan x="84.29" y="0" style="letter-spacing:-0.010035293268304043em">eau</tspan><tspan x="108.01" y="0"> </tspan><tspan x="111.96" y="0" style="letter-spacing:-0.010035293268304043em">and</tspan><tspan x="135.68" y="0"> </tspan><tspan x="139.64" y="0" style="letter-spacing:-0.08499691345368926em">H</tspan><tspan x="148.86" y="0" style="letter-spacing:-0.040006471150151685em">ill</tspan><tspan x="156.77" y="0" style="letter-spacing:-0.00006735096153224189em">s</tspan></text></g><g style="clip-path:url(#clip-path-5)"><text transform="translate(607.23 163.8)" style="font-size:17.110570907592773px;fill:#fff;font-family:Arial-BoldMT, Arial;font-weight:700"><tspan style="letter-spacing:-0.029007550160284227em">R</tspan><tspan x="11.86" y="0" style="letter-spacing:0.05898391830234612em">a</tspan><tspan x="22.39" y="0" style="letter-spacing:0.003989250513202152em">b</tspan><tspan x="32.91" y="0">i</tspan></text></g><g style="clip-path:url(#clip-path-6)"><text transform="translate(69.43 188.82)" style="font-size:17.110570907592773px;font-family:Arial-BoldMT, Arial;font-weight:700"><tspan style="letter-spacing:-0.029007550160284227em">C</tspan><tspan x="11.86" y="0" style="letter-spacing:0.02501829964708207em">P</tspan><tspan x="23.7" y="0">H</tspan></text></g><g style="clip-path:url(#clip-path-7)"><text transform="translate(641.51 212.51)" style="font-size:17.110570907592773px;fill:#fff;font-family:Arial-BoldMT, Arial;font-weight:700"><tspan style="letter-spacing:-0.029007550160284227em">R</tspan><tspan x="11.86" y="0" style="letter-spacing:0.05898391830234612em">a</tspan><tspan x="22.39" y="0" style="letter-spacing:0.0040462398062478975em">b</tspan><tspan x="32.91" y="0">i</tspan></text></g><g style="clip-path:url(#clip-path-8)"><text transform="translate(607.23 115.11)" style="font-size:17.110570907592773px;fill:#fff;font-family:Arial-BoldMT, Arial;font-weight:700"><tspan style="letter-spacing:-0.029007550160284227em">R</tspan><tspan x="11.86" y="0" style="letter-spacing:0.05898391830234612em">a</tspan><tspan x="22.39" y="0" style="letter-spacing:0.003989250513202152em">b</tspan><tspan x="32.91" y="0">i</tspan></text></g><g style="clip-path:url(#clip-path-9)"><text transform="translate(641.51 261.22)" style="font-size:17.110570907592773px;fill:#fff;font-family:Arial-BoldMT, Arial;font-weight:700"><tspan style="letter-spacing:-0.029007550160284227em">R</tspan><tspan x="11.86" y="0" style="letter-spacing:0.05898391830234612em">a</tspan><tspan x="22.39" y="0" style="letter-spacing:0.0040462398062478975em">b</tspan><tspan x="32.91" y="0">i</tspan></text></g><g style="clip-path:url(#clip-path-10)"><polyline points="0.88 29.56 0.88 30.88 901.17 30.88 901.17 29.56 0.88 29.56" style="fill:#bfbfbf;fill-rule:evenodd"/><polyline points="557.14 30.88 557.14 86.16 558.46 86.16 558.46 30.88 557.14 30.88" style="fill:#bfbfbf;fill-rule:evenodd"/><polyline points="-0.44 29.56 -0.44 280.95 0.88 280.95 0.88 29.56 -0.44 29.56" style="fill:#bfbfbf;fill-rule:evenodd"/><polyline points="0.88 279.64 0.88 280.95 901.17 280.95 901.17 279.64 0.88 279.64" style="fill:#bfbfbf;fill-rule:evenodd"/><polyline points="899.86 30.88 899.86 280.95 901.17 280.95 901.17 30.88 899.86 30.88" style="fill:#bfbfbf;fill-rule:evenodd"/><polyline points="-0.44 280.95 -0.44 320.44 0.88 320.44 0.88 280.95 -0.44 280.95" style="fill:#fff;fill-rule:evenodd"/><polyline points="0.88 319.12 0.88 320.44 901.17 320.44 901.17 319.12 0.88 319.12" style="fill:#fff;fill-rule:evenodd"/><polyline points="899.86 280.95 899.86 320.44 901.17 320.44 901.17 280.95 899.86 280.95" style="fill:#fff;fill-rule:evenodd"/><polyline points="-0.44 320.44 -0.44 321.76 0.88 321.76 0.88 320.44 -0.44 320.44" style="fill:#d4d4d4;fill-rule:evenodd"/><polyline points="172.24 30.88 172.24 280.95 173.56 280.95 173.56 30.88 172.24 30.88" style="fill:#bfbfbf;fill-rule:evenodd"/><polyline points="351.51 30.88 351.51 280.95 352.83 280.95 352.83 30.88 351.51 30.88" style="fill:#bfbfbf;fill-rule:evenodd"/><polyline points="420.05 30.88 420.05 183.56 421.37 183.56 421.37 30.88 420.05 30.88" style="fill:#bfbfbf;fill-rule:evenodd"/><polyline points="488.6 30.88 488.6 280.95 489.91 280.95 489.91 30.88 488.6 30.88" style="fill:#bfbfbf;fill-rule:evenodd"/><polyline points="557.14 183.56 557.14 280.95 558.46 280.95 558.46 183.56 557.14 183.56" style="fill:#bfbfbf;fill-rule:evenodd"/><polyline points="625.68 30.88 625.68 86.16 627 86.16 627 30.88 625.68 30.88" style="fill:#bfbfbf;fill-rule:evenodd"/><polyline points="694.23 30.88 694.23 86.16 695.54 86.16 695.54 30.88 694.23 30.88" style="fill:#bfbfbf;fill-rule:evenodd"/><polyline points="762.77 30.88 762.77 280.95 764.09 280.95 764.09 30.88 762.77 30.88" style="fill:#bfbfbf;fill-rule:evenodd"/><polyline points="831.31 30.88 831.31 280.95 832.63 280.95 832.63 30.88 831.31 30.88" style="fill:#bfbfbf;fill-rule:evenodd"/><polyline points="899.86 320.44 899.86 321.76 901.17 321.76 901.17 320.44 899.86 320.44" style="fill:#d4d4d4;fill-rule:evenodd"/><polyline points="0.88 84.84 0.88 86.16 901.17 86.16 901.17 84.84 0.88 84.84" style="fill:#bfbfbf;fill-rule:evenodd"/><polyline points="0.88 133.54 0.88 134.86 901.17 134.86 901.17 133.54 0.88 133.54" style="fill:#bfbfbf;fill-rule:evenodd"/><polyline points="173.56 182.24 173.56 183.56 901.17 183.56 901.17 182.24 173.56 182.24" style="fill:#bfbfbf;fill-rule:evenodd"/><polyline points="0.88 230.94 0.88 232.25 901.17 232.25 901.17 230.94 0.88 230.94" style="fill:#bfbfbf;fill-rule:evenodd"/></g></svg>