<svg id="Layer_1" data-name="Layer 1" xmlns="http://www.w3.org/2000/svg" xmlns:xlink="http://www.w3.org/1999/xlink" viewBox="0 0 900 350"><defs><clipPath id="clip-path"><polygon points="5.03 350.63 894.97 350.63 894.97 -0.63 5.03 -0.63 5.03 350.63 5.03 350.63" style="fill:none;clip-rule:evenodd"/></clipPath><clipPath id="clip-path-2"><polygon points="78.16 313.99 884.27 313.99 884.27 24.21 78.16 24.21 78.16 313.99 78.16 313.99" style="fill:none;clip-rule:evenodd"/></clipPath><clipPath id="clip-path-7"><rect x="5.03" y="-0.63" width="889.94" height="351.26" style="fill:none"/></clipPath><clipPath id="clip-path-20"><rect x="158.02" y="106.12" width="246.29" height="18.39" style="fill:none"/></clipPath></defs><title>yar</title><polygon points="5.17 -0.49 894.97 -0.49 894.97 350.63 5.17 350.63 5.17 -0.49 5.17 -0.49" style="fill:#eaeaea;fill-rule:evenodd"/><polygon points="78.3 24.34 883.58 24.34 883.58 313.17 78.3 313.17 78.3 24.34 78.3 24.34" style="fill:#fff;fill-rule:evenodd"/><path d="M78.3,313.17H883.58M78.3,175.69H883.58M78.3,106.81H883.58M78.3,38.06H883.58" style="fill:none;stroke:#d9d9d9;stroke-linejoin:round;stroke-width:0.823257726867563px"/><g style="clip-path:url(#clip-path)"><path d="M78.3,24.34V313.17M212.49,24.34V313.17M346.68,24.34V313.17M480.87,24.34V313.17M615.06,24.34V313.17M749.25,24.34V313.17M883.58,24.34V313.17" style="fill:none;stroke:#d9d9d9;stroke-linejoin:round;stroke-width:0.823257726867563px"/></g><g style="clip-path:url(#clip-path-2)"><path d="M118.5,244.43h53.79v5.49H118.5v-5.49Zm134.19,0h53.79v8.23H252.69v-8.23Zm134.33,0h53.65V280.1H387V244.43Zm134.19,0h53.65v11.66H521.21V244.43Zm134.19,0h53.65v5.62H655.4v-5.62Zm134.19,0h53.65V251H789.59v-6.58Z" style="fill:#ff25f3"/></g><g style="clip-path:url(#clip-path-2)"><path d="M118.5,138.5h53.79V244.43H118.5V138.5Zm134.19-1.37h53.79v107.3H252.69V137.13ZM387,93.09h53.65V244.43H387V93.09Zm134.19,90.28h53.65v61.06H521.21V183.37ZM655.4,197.78h53.65v46.65H655.4V197.78Zm134.19-19.9h53.65v66.55H789.59V177.88Z" style="fill:#5e9fff"/></g><g style="clip-path:url(#clip-path-2)"><path d="M118.5,133h53.79v5.49H118.5V133Zm134.19-4.11h53.79v8.23H252.69V128.9ZM387,57.41h53.65V93.09H387V57.41Zm134.19,114.3h53.65v11.66H521.21V171.71ZM655.4,192.15h53.65v5.63H655.4v-5.63ZM789.59,171.3h53.65v6.58H789.59V171.3Z" style="fill:#04f"/></g><g style="clip-path:url(#clip-path)"><line x1="78.3" y1="244.43" x2="883.58" y2="244.43" style="fill:none;stroke:#d9d9d9;stroke-linejoin:round;stroke-width:0.823257726867563px"/></g><g style="clip-path:url(#clip-path)"><path d="M78.3,244.43v3m134.19-3v3m134.19-3v3m134.19-3v3m134.19-3v3m134.19-3v3m134.33-3v3" style="fill:none;stroke:#d9d9d9;stroke-linejoin:round;stroke-width:0.823257726867563px"/></g><g style="clip-path:url(#clip-path-7)"><text transform="translate(127.49 265.04)" style="font-size:10.290719985961914px;font-family:Arial-BoldMT, Arial;font-weight:700">-</text></g><g style="clip-path:url(#clip-path-7)"><text transform="translate(130.91 265.04)" style="font-size:10.290719985961914px;font-family:Arial-BoldMT, Arial;font-weight:700"><tspan style="letter-spacing:0.002941819186733048em">5</tspan><tspan x="5.75" y="0" style="letter-spacing:0.001992845255528839em">.</tspan><tspan x="8.63" y="0" style="letter-spacing:0.002941819186733048em">33</tspan><tspan x="20.14" y="0">%</tspan></text></g><g style="clip-path:url(#clip-path-7)"><text transform="translate(266.64 265.31)" style="font-size:10.290719985961914px;font-family:Arial-BoldMT, Arial;font-weight:700">-</text></g><g style="clip-path:url(#clip-path-7)"><text transform="translate(270.07 265.31)" style="font-size:10.290719985961914px;font-family:Arial-BoldMT, Arial;font-weight:700"><tspan style="letter-spacing:0.002941819186733048em">7</tspan><tspan x="5.75" y="0" style="letter-spacing:0.001992845255528839em">.</tspan><tspan x="8.63" y="0" style="letter-spacing:0.002941819186733048em">77</tspan><tspan x="20.14" y="0">%</tspan></text></g><g style="clip-path:url(#clip-path-7)"><text transform="translate(394.65 289.35)" style="font-size:10.290719985961914px;font-family:Arial-BoldMT, Arial;font-weight:700">-</text></g><g style="clip-path:url(#clip-path-7)"><text transform="translate(398.08 289.35)" style="font-size:10.290719985961914px;font-family:Arial-BoldMT, Arial;font-weight:700"><tspan style="letter-spacing:0.002941819186733048em">23</tspan><tspan x="11.51" y="0" style="letter-spacing:0.001992845255528839em">.</tspan><tspan x="14.39" y="0" style="letter-spacing:0.002941819186733048em">34</tspan><tspan x="25.9" y="0">%</tspan></text></g><g style="clip-path:url(#clip-path-7)"><text transform="translate(532.19 266.66)" style="font-size:10.290719985961914px;font-family:Arial-BoldMT, Arial;font-weight:700">-</text></g><g style="clip-path:url(#clip-path-7)"><text transform="translate(535.62 266.66)" style="font-size:10.290719985961914px;font-family:Arial-BoldMT, Arial;font-weight:700"><tspan style="letter-spacing:0.002941819186733048em">19</tspan><tspan x="11.51" y="0" style="letter-spacing:0.001992845255528839em">.</tspan><tspan x="14.39" y="0" style="letter-spacing:0.002941819186733048em">11</tspan><tspan x="25.9" y="0">%</tspan></text></g><g style="clip-path:url(#clip-path-7)"><text transform="translate(663.06 264.7)" style="font-size:10.290719985961914px;font-family:Arial-BoldMT, Arial;font-weight:700">-</text></g><g style="clip-path:url(#clip-path-7)"><text transform="translate(666.5 264.7)" style="font-size:10.290719985961914px;font-family:Arial-BoldMT, Arial;font-weight:700"><tspan style="letter-spacing:0.002941819186733048em">12</tspan><tspan x="11.51" y="0" style="letter-spacing:0.001992845255528839em">.</tspan><tspan x="14.39" y="0" style="letter-spacing:0.002941819186733048em">04</tspan><tspan x="25.9" y="0">%</tspan></text></g><g style="clip-path:url(#clip-path-7)"><text transform="translate(800.15 266.34)" style="font-size:10.290719985961914px;font-family:Arial-BoldMT, Arial;font-weight:700">-</text></g><g style="clip-path:url(#clip-path-7)"><text transform="translate(803.57 266.34)" style="font-size:10.290719985961914px;font-family:Arial-BoldMT, Arial;font-weight:700"><tspan style="letter-spacing:0.002941819186733048em">9</tspan><tspan x="5.75" y="0" style="letter-spacing:0.001992845255528839em">.</tspan><tspan x="8.63" y="0" style="letter-spacing:0.002941819186733048em">89</tspan><tspan x="20.14" y="0">%</tspan></text></g><g style="clip-path:url(#clip-path-7)"><text transform="translate(127.89 123.16)" style="font-size:10.290719985961914px;font-family:Arial-BoldMT, Arial;font-weight:700"><tspan style="letter-spacing:0.001992845255528839em">+</tspan><tspan x="6.03" y="0" style="letter-spacing:0.002941819186733048em">5</tspan><tspan x="11.78" y="0" style="letter-spacing:0.001992845255528839em">.</tspan><tspan x="14.66" y="0" style="letter-spacing:0.002941819186733048em">33</tspan><tspan x="26.17" y="0">%</tspan></text></g><g style="clip-path:url(#clip-path-20)"><text transform="translate(263.68 119)" style="font-size:10.290719985961914px;font-family:Arial-BoldMT, Arial;font-weight:700"><tspan style="letter-spacing:0.001992845255528839em">+</tspan><tspan x="6.03" y="0" style="letter-spacing:0.002941819186733048em">7</tspan><tspan x="11.78" y="0" style="letter-spacing:0.001992845255528839em">.</tspan><tspan x="14.66" y="0" style="letter-spacing:0.002941819186733048em">77</tspan><tspan x="26.17" y="0">%</tspan></text></g><g style="clip-path:url(#clip-path-7)"><text transform="translate(393.42 56.1)" style="font-size:10.290719985961914px;font-family:Arial-BoldMT, Arial;font-weight:700"><tspan style="letter-spacing:0.001992845255528839em">+</tspan><tspan x="6.03" y="0" style="letter-spacing:0.002941819186733048em">23</tspan><tspan x="17.54" y="0" style="letter-spacing:0.001992845255528839em">.</tspan><tspan x="20.42" y="0" style="letter-spacing:0.002941819186733048em">34</tspan><tspan x="31.93" y="0">%</tspan></text></g><g style="clip-path:url(#clip-path-7)"><text transform="translate(527.62 167.3)" style="font-size:10.290719985961914px;font-family:Arial-BoldMT, Arial;font-weight:700"><tspan style="letter-spacing:0.001992845255528839em">+</tspan><tspan x="6.03" y="0" style="letter-spacing:0.002941819186733048em">19</tspan><tspan x="17.54" y="0" style="letter-spacing:0.001992845255528839em">.</tspan><tspan x="20.42" y="0" style="letter-spacing:0.002941819186733048em">11</tspan><tspan x="31.93" y="0">%</tspan></text></g><g style="clip-path:url(#clip-path-7)"><text transform="translate(670.1 183.17)" style="font-size:10.290719985961914px;font-family:Arial-BoldMT, Arial;font-weight:700"><tspan style="letter-spacing:0.001992845255528839em">+</tspan><tspan x="6.03" y="0" style="letter-spacing:0.002941819186733048em">12</tspan><tspan x="17.54" y="0" style="letter-spacing:0.001992845255528839em">.</tspan><tspan x="20.42" y="0" style="letter-spacing:0.002941819186733048em">04</tspan><tspan x="31.93" y="0">%</tspan></text></g><g style="clip-path:url(#clip-path-7)"><text transform="translate(798.91 162.12)" style="font-size:10.290719985961914px;font-family:Arial-BoldMT, Arial;font-weight:700"><tspan style="letter-spacing:0.001992845255528839em">+</tspan><tspan x="6.03" y="0" style="letter-spacing:0.002941819186733048em">9</tspan><tspan x="11.78" y="0" style="letter-spacing:0.001992845255528839em">.</tspan><tspan x="14.66" y="0" style="letter-spacing:0.002941819186733048em">89</tspan><tspan x="26.17" y="0">%</tspan></text></g><g style="clip-path:url(#clip-path-7)"><text transform="translate(51.7 316.46)" style="font-size:10.290719985961914px;font-family:ArialMT, Arial">-<tspan x="3.43" y="0" style="letter-spacing:0.002941819186733048em">0</tspan><tspan x="9.18" y="0" style="letter-spacing:0.001992845255528839em">.</tspan><tspan x="12.06" y="0">5</tspan></text></g><g style="clip-path:url(#clip-path-7)"><text transform="translate(63.71 247.68)" style="font-size:10.290719985961914px;font-family:ArialMT, Arial">0</text></g><g style="clip-path:url(#clip-path-7)"><text transform="translate(55.13 178.92)" style="font-size:10.290719985961914px;font-family:ArialMT, Arial"><tspan style="letter-spacing:0.002941819186733048em">0</tspan><tspan x="5.75" y="0" style="letter-spacing:0.001992845255528839em">.</tspan><tspan x="8.63" y="0">5</tspan></text></g><g style="clip-path:url(#clip-path-7)"><text transform="translate(63.71 110.15)" style="font-size:10.290719985961914px;font-family:ArialMT, Arial">1</text></g><g style="clip-path:url(#clip-path-7)"><text transform="translate(55.13 41.38)" style="font-size:10.290719985961914px;font-family:ArialMT, Arial"><tspan style="letter-spacing:0.002941819186733048em">1</tspan><tspan x="5.75" y="0" style="letter-spacing:0.001992845255528839em">.</tspan><tspan x="8.63" y="0">5</tspan></text></g><g style="clip-path:url(#clip-path-7)"><text transform="translate(137.1 328.7)" style="font-size:10.290719985961914px;font-family:ArialMT, Arial"><tspan style="letter-spacing:-0.001992845255528839em">R</tspan><tspan x="7.41" y="0">-1</tspan></text></g><g style="clip-path:url(#clip-path-7)"><text transform="translate(271.31 328.7)" style="font-size:10.290719985961914px;font-family:ArialMT, Arial"><tspan style="letter-spacing:-0.001992845255528839em">R</tspan><tspan x="7.41" y="0">-7</tspan></text></g><g style="clip-path:url(#clip-path-7)"><text transform="translate(405.5 328.7)" style="font-size:10.290719985961914px;font-family:ArialMT, Arial"><tspan style="letter-spacing:-0.001992845255528839em">R</tspan><tspan x="7.41" y="0">-8</tspan></text></g><g style="clip-path:url(#clip-path-7)"><text transform="translate(533.99 328.7)" style="font-size:10.290719985961914px;font-family:ArialMT, Arial"><tspan style="letter-spacing:-0.001992845255528839em">R</tspan><tspan x="7.41" y="0">-</tspan><tspan x="10.84" y="0" style="letter-spacing:0.002941819186733048em">30</tspan><tspan x="22.35" y="0">0</tspan></text></g><g style="clip-path:url(#clip-path-7)"><text transform="translate(668.19 328.7)" style="font-size:10.290719985961914px;font-family:ArialMT, Arial"><tspan style="letter-spacing:-0.001992845255528839em">R</tspan><tspan x="7.41" y="0">-</tspan><tspan x="10.84" y="0" style="letter-spacing:0.002941819186733048em">30</tspan><tspan x="22.35" y="0">1</tspan></text></g><g style="clip-path:url(#clip-path-7)"><text transform="translate(802.39 328.7)" style="font-size:10.290719985961914px;font-family:ArialMT, Arial"><tspan style="letter-spacing:-0.001992845255528839em">R</tspan><tspan x="7.41" y="0">-</tspan><tspan x="10.84" y="0" style="letter-spacing:0.002941819186733048em">30</tspan><tspan x="22.35" y="0">3</tspan></text></g><g style="clip-path:url(#clip-path-7)"><text transform="translate(38.1 209.81) rotate(-90)" style="font-size:11.388400077819824px;font-family:Arial-BoldMT, Arial;font-weight:700"><tspan style="letter-spacing:0.004973536634905715em">Q</tspan><tspan x="8.92" y="0" style="letter-spacing:0.003087022738906996em">u</tspan><tspan x="15.91" y="0" style="letter-spacing:-0.0010290075796356654em">a</tspan><tspan x="22.23" y="0" style="letter-spacing:0.0030012721072706907em">n</tspan><tspan x="29.22" y="0" style="letter-spacing:0.004030279686906356em">t</tspan><tspan x="33.06" y="0">i</tspan><tspan x="36.22" y="0" style="letter-spacing:0.004030279686906356em">t</tspan><tspan x="40.06" y="0" style="letter-spacing:-0.013034096008718427em">y</tspan><tspan x="46.24" y="0" style="letter-spacing:0.011061831481083402em"> </tspan><tspan x="49.53" y="0" style="letter-spacing:-0.00008575063163630544em">&amp; </tspan><tspan x="60.92" y="0" style="letter-spacing:0.007031551794177047em">Y</tspan><tspan x="68.6" y="0" style="letter-spacing:-0.0010290075796356654em">a</tspan><tspan x="74.92" y="0">R</tspan><tspan x="83.14" y="0" style="letter-spacing:0.010976080849447097em"> </tspan><tspan x="86.43" y="0" style="letter-spacing:0.004030279686906356em">(</tspan><tspan x="90.27" y="0" style="letter-spacing:0.0220379123305305em">M</tspan><tspan x="100.01" y="0" style="letter-spacing:0.015006360536353453em">T</tspan><tspan x="107.14" y="0" style="letter-spacing:0.00008575063163630544em">)</tspan></text></g><g style="clip-path:url(#clip-path-7)"><text transform="translate(426.42 342.71)" style="font-size:11.388400077819824px;font-family:Arial-BoldMT, Arial;font-weight:700">R<tspan x="8.22" y="0" style="letter-spacing:-0.0010290075796356654em">e</tspan><tspan x="14.55" y="0" style="letter-spacing:0.0030012721072706907em">g</tspan><tspan x="21.54" y="0">i</tspan><tspan x="24.7" y="0" style="letter-spacing:0.003087022738906996em">on</tspan><tspan x="38.68" y="0">s</tspan></text></g><polygon points="5.17 -0.49 894.97 -0.49 894.97 350.63 5.17 350.63 5.17 -0.49 5.17 -0.49" style="fill:none;stroke:#d9d9d9;stroke-linejoin:round;stroke-width:0.823257795020322px"/></svg>