<svg id="Layer_1" data-name="Layer 1" xmlns="http://www.w3.org/2000/svg" xmlns:xlink="http://www.w3.org/1999/xlink" viewBox="0 0 900 350"><defs><clipPath id="clip-path"><polygon points="0 349.6 895.7 349.6 895.7 0 0 0 0 349.6 0 349.6" style="fill:none;clip-rule:evenodd"/></clipPath><clipPath id="clip-path-2"><polygon points="78.11 303.19 867.93 303.19 867.93 17.55 78.11 17.55 78.11 303.19 78.11 303.19" style="fill:none;clip-rule:evenodd"/></clipPath><clipPath id="clip-path-13"><rect width="895.7" height="349.6" style="fill:none"/></clipPath></defs><title>ground-truth-risk-report</title><polygon points="0.14 0 895.7 0 895.7 349.6 0.14 349.6 0.14 0 0.14 0" style="fill:#f2f2f2;fill-rule:evenodd"/><polygon points="78.11 17.69 867.12 17.69 867.12 302.38 78.11 302.38 78.11 17.69 78.11 17.69" style="fill:#fff;fill-rule:evenodd"/><path d="M78.11,231.2h789M78.11,160h789m-789-71.17h789m-789-71.17h789" style="fill:none;stroke:#d9d9d9;stroke-linejoin:round;stroke-width:0.81649554552488px"/><g style="clip-path:url(#clip-path)"><path d="M78.11,17.69V302.38M341.16,17.69V302.38M604.21,17.69V302.38M867.12,17.69V302.38" style="fill:none;stroke:#d9d9d9;stroke-linejoin:round;stroke-width:0.81649554552488px"/></g><g style="clip-path:url(#clip-path-2)"><polygon points="159.08 67.5 260.19 67.5 260.19 302.38 159.08 302.38 159.08 67.5 159.08 67.5" style="fill:#5e9fff;fill-rule:evenodd"/><polygon points="159.08 67.5 260.19 67.5 260.19 302.38 159.08 302.38 159.08 67.5 159.08 67.5" style="fill:none;stroke:#7f7f7f;stroke-linejoin:round;stroke-width:0.81649554552488px"/><polygon points="422.13 66.14 523.24 66.14 523.24 302.38 422.13 302.38 422.13 66.14 422.13 66.14" style="fill:#5e9fff;fill-rule:evenodd"/><polygon points="422.13 66.14 523.24 66.14 523.24 302.38 422.13 302.38 422.13 66.14 422.13 66.14" style="fill:none;stroke:#7f7f7f;stroke-linejoin:round;stroke-width:0.81649554552488px"/><polygon points="685.04 64.64 786.28 64.64 786.28 302.38 685.04 302.38 685.04 64.64 685.04 64.64" style="fill:#5e9fff;fill-rule:evenodd"/><polygon points="685.04 64.64 786.28 64.64 786.28 302.38 685.04 302.38 685.04 64.64 685.04 64.64" style="fill:none;stroke:#7f7f7f;stroke-linejoin:round;stroke-width:0.81649554552488px"/></g><g style="clip-path:url(#clip-path)"><line x1="78.11" y1="302.38" x2="867.12" y2="302.38" style="fill:none;stroke:#d9d9d9;stroke-linejoin:round;stroke-width:0.81649554552488px"/></g><g style="clip-path:url(#clip-path)"><path d="M78.11,302.38v3.13m263.05-3.13v3.13m263.05-3.13v3.13m262.91-3.13v3.13" style="fill:none;stroke:#d9d9d9;stroke-linejoin:round;stroke-width:0.81649554552488px"/></g><g style="clip-path:url(#clip-path-2)"><polyline points="209.7 41.37 472.62 41.37 735.66 41.37" style="fill:none;stroke:#06f;stroke-miterlimit:10;stroke-width:1.361px;stroke-dasharray:5,5"/></g><g style="clip-path:url(#clip-path)"><path d="M212.56,41.4a2.86,2.86,0,1,1-2.86-2.85,2.86,2.86,0,0,1,2.86,2.85Z" style="fill:#06f"/><path d="M475.47,41.4a2.86,2.86,0,1,1-2.86-2.85,2.86,2.86,0,0,1,2.86,2.85Z" style="fill:#06f"/><path d="M738.52,41.4a2.86,2.86,0,1,1-2.86-2.85,2.86,2.86,0,0,1,2.86,2.85Z" style="fill:#06f"/></g><g style="clip-path:url(#clip-path-2)"><polyline points="209.7 77.02 472.62 77.02 735.66 77.02" style="fill:none;stroke:#ff25f3;stroke-miterlimit:10;stroke-width:1.361px;stroke-dasharray:5,5"/></g><g style="clip-path:url(#clip-path)"><path d="M212.56,77.06a2.86,2.86,0,1,1-2.86-2.86,2.85,2.85,0,0,1,2.86,2.86Z" style="fill:#ff25f3"/><path d="M475.47,77.06a2.86,2.86,0,1,1-2.86-2.86,2.85,2.85,0,0,1,2.86,2.86Z" style="fill:#ff25f3"/><path d="M738.52,77.06a2.86,2.86,0,1,1-2.86-2.86,2.85,2.85,0,0,1,2.86,2.86Z" style="fill:#ff25f3"/></g><g style="clip-path:url(#clip-path-2)"><polyline points="209.7 53.21 472.62 53.21 735.66 53.21" style="fill:none;stroke:#7f7f7f;stroke-linecap:round;stroke-linejoin:round;stroke-width:1.36082588667715px"/></g><g style="clip-path:url(#clip-path)"><path d="M212.56,53.24a2.86,2.86,0,1,1-2.86-2.86,2.86,2.86,0,0,1,2.86,2.86Z" style="fill:#7f7f7f"/><path d="M212.56,53.24a2.86,2.86,0,1,1-2.86-2.86,2.86,2.86,0,0,1,2.86,2.86Z" style="fill:none;stroke:#7f7f7f;stroke-linejoin:round;stroke-width:0.816495613117837px"/><path d="M475.47,53.24a2.86,2.86,0,1,1-2.86-2.86,2.86,2.86,0,0,1,2.86,2.86Z" style="fill:#7f7f7f"/><path d="M475.47,53.24a2.86,2.86,0,1,1-2.86-2.86,2.86,2.86,0,0,1,2.86,2.86Z" style="fill:none;stroke:#7f7f7f;stroke-linejoin:round;stroke-width:0.816495613117837px"/><path d="M738.52,53.24a2.86,2.86,0,1,1-2.86-2.86,2.86,2.86,0,0,1,2.86,2.86Z" style="fill:#7f7f7f"/><path d="M738.52,53.24a2.86,2.86,0,1,1-2.86-2.86,2.86,2.86,0,0,1,2.86,2.86Z" style="fill:none;stroke:#7f7f7f;stroke-linejoin:round;stroke-width:0.816495613117837px"/></g><g style="clip-path:url(#clip-path-2)"><polyline points="209.7 67.5 472.62 67.5 735.66 67.5" style="fill:none;stroke:#00b050;stroke-linecap:round;stroke-linejoin:round;stroke-width:1.36082588667715px"/></g><g style="clip-path:url(#clip-path)"><path d="M212.56,67.53a2.86,2.86,0,1,1-2.86-2.86,2.86,2.86,0,0,1,2.86,2.86Z" style="fill:#00b050"/><path d="M212.56,67.53a2.86,2.86,0,1,1-2.86-2.86,2.86,2.86,0,0,1,2.86,2.86Z" style="fill:none;stroke:#00b050;stroke-linejoin:round;stroke-width:0.816495613117837px"/><path d="M475.47,67.53a2.86,2.86,0,1,1-2.86-2.86,2.86,2.86,0,0,1,2.86,2.86Z" style="fill:#00b050"/><path d="M475.47,67.53a2.86,2.86,0,1,1-2.86-2.86,2.86,2.86,0,0,1,2.86,2.86Z" style="fill:none;stroke:#00b050;stroke-linejoin:round;stroke-width:0.816495613117837px"/><path d="M738.52,67.53a2.86,2.86,0,1,1-2.86-2.86,2.86,2.86,0,0,1,2.86,2.86Z" style="fill:#00b050"/><path d="M738.52,67.53a2.86,2.86,0,1,1-2.86-2.86,2.86,2.86,0,0,1,2.86,2.86Z" style="fill:none;stroke:#00b050;stroke-linejoin:round;stroke-width:0.816495613117837px"/></g><g style="clip-path:url(#clip-path-13)"><text transform="translate(49.54 305.62)" style="font-size:10.20619010925293px;font-family:ArialMT, Arial"><tspan style="letter-spacing:0.003061867324190714em">9</tspan><tspan x="5.71" y="0" style="letter-spacing:0.0019136670776191964em">.</tspan><tspan x="8.56" y="0" style="letter-spacing:-0.008898551910929264em">5</tspan><tspan x="14.15" y="0">0</tspan></text></g><g style="clip-path:url(#clip-path-13)"><text transform="translate(43.86 234.44)" style="font-size:10.20619010925293px;font-family:ArialMT, Arial;letter-spacing:0.003061867324190714em">1<tspan x="5.71" y="0" style="letter-spacing:-0.008994235264810222em">0</tspan><tspan x="11.29" y="0" style="letter-spacing:0.002009350431500156em">.</tspan><tspan x="14.15" y="0" style="letter-spacing:0.0029661839703097543em">5</tspan><tspan x="19.85" y="0" style="letter-spacing:0.00009568335388095981em">0</tspan></text></g><g style="clip-path:url(#clip-path-13)"><text transform="translate(43.86 163.28)" style="font-size:10.20619010925293px;font-family:ArialMT, Arial;letter-spacing:0.003061867324190714em">1<tspan x="5.71" y="0" style="letter-spacing:-0.008994235264810222em">1</tspan><tspan x="11.29" y="0" style="letter-spacing:0.002009350431500156em">.</tspan><tspan x="14.15" y="0" style="letter-spacing:0.0029661839703097543em">5</tspan><tspan x="19.85" y="0" style="letter-spacing:0.00009568335388095981em">0</tspan></text></g><g style="clip-path:url(#clip-path-13)"><text transform="translate(43.86 92.12)" style="font-size:10.20619010925293px;font-family:ArialMT, Arial;letter-spacing:0.003061867324190714em">1<tspan x="5.71" y="0" style="letter-spacing:-0.008994235264810222em">2</tspan><tspan x="11.29" y="0" style="letter-spacing:0.002009350431500156em">.</tspan><tspan x="14.15" y="0" style="letter-spacing:0.0029661839703097543em">5</tspan><tspan x="19.85" y="0" style="letter-spacing:0.00009568335388095981em">0</tspan></text></g><g style="clip-path:url(#clip-path-13)"><text transform="translate(43.86 20.94)" style="font-size:10.20619010925293px;font-family:ArialMT, Arial;letter-spacing:0.003061867324190714em">1<tspan x="5.71" y="0" style="letter-spacing:-0.008994235264810222em">3</tspan><tspan x="11.29" y="0" style="letter-spacing:0.002009350431500156em">.</tspan><tspan x="14.15" y="0" style="letter-spacing:0.0029661839703097543em">5</tspan><tspan x="19.85" y="0" style="letter-spacing:0.00009568335388095981em">0</tspan></text></g><g style="clip-path:url(#clip-path-13)"><text transform="translate(198.56 317.77)" style="font-size:10.20619010925293px;font-family:ArialMT, Arial">Jul</text></g><g style="clip-path:url(#clip-path-13)"><text transform="translate(459.56 317.77)" style="font-size:10.20619010925293px;font-family:ArialMT, Arial">Aug</text></g><g style="clip-path:url(#clip-path-13)"><text transform="translate(723.55 317.77)" style="font-size:10.20619010925293px;font-family:ArialMT, Arial">Sep</text></g><g style="clip-path:url(#clip-path-13)"><text transform="translate(25.78 212.77) rotate(-90)" style="font-size:11.294859886169434px;font-family:Arial-BoldMT, Arial;font-weight:700"><tspan style="letter-spacing:0.00501472577533755em">Q</tspan><tspan x="8.84" y="0" style="letter-spacing:0.003026127623048521em">u</tspan><tspan x="15.78" y="0" style="letter-spacing:-0.0009510686815295353em">a</tspan><tspan x="22.05" y="0" style="letter-spacing:0.0029396668338185637em">n</tspan><tspan x="28.98" y="0" style="letter-spacing:0.003977196304578057em">t</tspan><tspan x="32.79" y="0">i</tspan><tspan x="35.92" y="0" style="letter-spacing:0.003977196304578057em">t</tspan><tspan x="39.73" y="0" style="letter-spacing:-0.012969118384493663em">y</tspan><tspan x="45.86" y="0" style="letter-spacing:0.011066981021434592em"> </tspan><tspan x="49.13" y="0" style="letter-spacing:0.003977196304578057em">(</tspan><tspan x="52.93" y="0" style="letter-spacing:0.02196104046440927em">M</tspan><tspan x="62.59" y="0" style="letter-spacing:0.01495771653678269em">T</tspan><tspan x="69.66" y="0">)</tspan></text></g><g style="clip-path:url(#clip-path-13)"><text transform="translate(416.43 335.66)" style="font-size:11.294859886169434px;font-family:Arial-BoldMT, Arial;font-weight:700"><tspan style="letter-spacing:0.01495771653678269em">T</tspan><tspan x="7.07" y="0" style="letter-spacing:0.00008646078922995775em">i</tspan><tspan x="10.21" y="0" style="letter-spacing:0.0019885981522890285em">m</tspan><tspan x="20.27" y="0" style="letter-spacing:-0.0009510686815295353em">e</tspan><tspan x="26.54" y="0"> </tspan><tspan x="29.68" y="0" style="letter-spacing:-0.003977196304578057em">P</tspan><tspan x="37.17" y="0" style="letter-spacing:-0.0009510686815295353em">e</tspan><tspan x="43.44" y="0" style="letter-spacing:-0.003026127623048521em">r</tspan><tspan x="47.8" y="0" style="letter-spacing:0.00008646078922995775em">i</tspan><tspan x="50.94" y="0" style="letter-spacing:0.0029396668338185637em">o</tspan><tspan x="57.87" y="0">d</tspan></text></g><polygon points="0.14 0 895.7 0 895.7 349.6 0.14 349.6 0.14 0 0.14 0" style="fill:none;stroke:#d9d9d9;stroke-linejoin:round;stroke-width:0.816495613117837px"/></svg>