<svg id="Layer_1" data-name="Layer 1" xmlns="http://www.w3.org/2000/svg" xmlns:xlink="http://www.w3.org/1999/xlink" viewBox="0 0 900 350"><defs><clipPath id="clip-path"><polygon points="0 349.67 900.78 349.67 900.78 0 0 0 0 349.67 0 349.67" style="fill:none;clip-rule:evenodd"/></clipPath><clipPath id="clip-path-6"><polygon points="72.75 290.71 889.59 290.71 889.59 15.01 72.75 15.01 72.75 290.71 72.75 290.71" style="fill:none;clip-rule:evenodd"/></clipPath><clipPath id="clip-path-7"><polygon points="0 349.67 900.78 349.67 900.78 0 0 0 0 349.67 0 349.67" style="fill:none;clip-rule:evenodd"/></clipPath><clipPath id="clip-path-10"><rect width="900.78" height="349.67" style="fill:none"/></clipPath></defs><title>ndvi-risk-report</title><polygon points="0 0.14 900.78 0.14 900.78 349.8 0 349.8 0 0.14 0 0.14" style="fill:#f2f2f2;fill-rule:evenodd"/><polygon points="72.88 15.01 888.77 15.01 888.77 290.02 72.88 290.02 72.88 15.01 72.88 15.01" style="fill:#fff;fill-rule:evenodd"/><path d="M72.88,221.24H888.77M72.88,152.59H888.77M72.88,83.8H888.77M72.88,15H888.77" style="fill:none;stroke:#d9d9d9;stroke-linejoin:round;stroke-width:0.81889325876669px"/><g style="clip-path:url(#clip-path)"><path d="M106.87,15V290m68-275V290m68-275V290m68-275V290m68.1-275V290m68-275V290m68-275V290m68-275V290m68-275V290m68.1-275V290m68-275V290m68-275V290" style="fill:none;stroke:#f2f2f2;stroke-linejoin:round;stroke-width:0.81889325876669px"/></g><g style="clip-path:url(#clip-path)"><path d="M72.88,15V290m68-275V290m68-275V290m68-275V290m68-275V290M412.86,15V290m68-275V290m68-275V290m68-275V290M684.87,15V290m68-275V290m68-275V290m68-275V290" style="fill:none;stroke:#d9d9d9;stroke-linejoin:round;stroke-width:0.81889325876669px"/></g><g style="clip-path:url(#clip-path)"><line x1="72.88" y1="290.02" x2="888.77" y2="290.02" style="fill:none;stroke:#d9d9d9;stroke-linejoin:round;stroke-width:1.36482207534733px"/></g><g style="clip-path:url(#clip-path)"><path d="M72.88,290v18.43M344.75,290v18.43m272-18.43v18.43m272-18.43v18.43" style="fill:none;stroke:#d9d9d9;stroke-linejoin:round;stroke-width:1.36482207534733px"/></g><g style="clip-path:url(#clip-path)"><path d="M72.88,308.45v18.42m271.87-18.42v18.42m272-18.42v18.42m272-18.42v18.42" style="fill:none;stroke:#d9d9d9;stroke-linejoin:round;stroke-width:1.36482207534733px"/></g><g style="clip-path:url(#clip-path-6)"><polyline points="106.87 166.24 174.83 130.48 242.8 97.58 310.77 81.07 378.88 70.02 446.84 64.56 514.81 75.61 582.78 97.58 650.75 125.02 718.85 138.8 786.82 152.59 854.79 168.97" style="fill:none;stroke:#ff25f3;stroke-linecap:round;stroke-linejoin:round;stroke-width:2.45667970850862px"/></g><g style="clip-path:url(#clip-path-7)"><polygon points="104.03 163.3 109.77 163.3 109.77 169.03 104.03 169.03 104.03 163.3 104.03 163.3" style="fill:#ff25f3;fill-rule:evenodd"/><polygon points="104.03 163.3 109.77 163.3 109.77 169.03 104.03 169.03 104.03 163.3 104.03 163.3" style="fill:none;stroke:#ff25f3;stroke-linejoin:round;stroke-width:0.81889332655814px"/><polygon points="172 127.54 177.73 127.54 177.73 133.28 172 133.28 172 127.54 172 127.54" style="fill:#ff25f3;fill-rule:evenodd"/><polygon points="172 127.54 177.73 127.54 177.73 133.28 172 133.28 172 127.54 172 127.54" style="fill:none;stroke:#ff25f3;stroke-linejoin:round;stroke-width:0.81889332655814px"/><polygon points="239.97 94.65 245.7 94.65 245.7 100.38 239.97 100.38 239.97 94.65 239.97 94.65" style="fill:#ff25f3;fill-rule:evenodd"/><polygon points="239.97 94.65 245.7 94.65 245.7 100.38 239.97 100.38 239.97 94.65 239.97 94.65" style="fill:none;stroke:#ff25f3;stroke-linejoin:round;stroke-width:0.81889332655814px"/><polygon points="307.94 78.14 313.67 78.14 313.67 83.87 307.94 83.87 307.94 78.14 307.94 78.14" style="fill:#ff25f3;fill-rule:evenodd"/><polygon points="307.94 78.14 313.67 78.14 313.67 83.87 307.94 83.87 307.94 78.14 307.94 78.14" style="fill:none;stroke:#ff25f3;stroke-linejoin:round;stroke-width:0.81889332655814px"/><polygon points="376.04 67.08 381.77 67.08 381.77 72.81 376.04 72.81 376.04 67.08 376.04 67.08" style="fill:#ff25f3;fill-rule:evenodd"/><polygon points="376.04 67.08 381.77 67.08 381.77 72.81 376.04 72.81 376.04 67.08 376.04 67.08" style="fill:none;stroke:#ff25f3;stroke-linejoin:round;stroke-width:0.81889332655814px"/><polygon points="444.01 61.62 449.74 61.62 449.74 67.35 444.01 67.35 444.01 61.62 444.01 61.62" style="fill:#ff25f3;fill-rule:evenodd"/><polygon points="444.01 61.62 449.74 61.62 449.74 67.35 444.01 67.35 444.01 61.62 444.01 61.62" style="fill:none;stroke:#ff25f3;stroke-linejoin:round;stroke-width:0.81889332655814px"/><polygon points="511.98 72.68 517.71 72.68 517.71 78.41 511.98 78.41 511.98 72.68 511.98 72.68" style="fill:#ff25f3;fill-rule:evenodd"/><polygon points="511.98 72.68 517.71 72.68 517.71 78.41 511.98 78.41 511.98 72.68 511.98 72.68" style="fill:none;stroke:#ff25f3;stroke-linejoin:round;stroke-width:0.81889332655814px"/><polygon points="579.95 94.65 585.68 94.65 585.68 100.38 579.95 100.38 579.95 94.65 579.95 94.65" style="fill:#ff25f3;fill-rule:evenodd"/><polygon points="579.95 94.65 585.68 94.65 585.68 100.38 579.95 100.38 579.95 94.65 579.95 94.65" style="fill:none;stroke:#ff25f3;stroke-linejoin:round;stroke-width:0.81889332655814px"/><polygon points="647.91 122.08 653.65 122.08 653.65 127.82 647.91 127.82 647.91 122.08 647.91 122.08" style="fill:#ff25f3;fill-rule:evenodd"/><polygon points="647.91 122.08 653.65 122.08 653.65 127.82 647.91 127.82 647.91 122.08 647.91 122.08" style="fill:none;stroke:#ff25f3;stroke-linejoin:round;stroke-width:0.81889332655814px"/><polygon points="716.02 135.87 721.75 135.87 721.75 141.6 716.02 141.6 716.02 135.87 716.02 135.87" style="fill:#ff25f3;fill-rule:evenodd"/><polygon points="716.02 135.87 721.75 135.87 721.75 141.6 716.02 141.6 716.02 135.87 716.02 135.87" style="fill:none;stroke:#ff25f3;stroke-linejoin:round;stroke-width:0.81889332655814px"/><polygon points="783.99 149.65 789.72 149.65 789.72 155.38 783.99 155.38 783.99 149.65 783.99 149.65" style="fill:#ff25f3;fill-rule:evenodd"/><polygon points="783.99 149.65 789.72 149.65 789.72 155.38 783.99 155.38 783.99 149.65 783.99 149.65" style="fill:none;stroke:#ff25f3;stroke-linejoin:round;stroke-width:0.81889332655814px"/><polygon points="851.96 166.03 857.69 166.03 857.69 171.76 851.96 171.76 851.96 166.03 851.96 166.03" style="fill:#ff25f3;fill-rule:evenodd"/><polygon points="851.96 166.03 857.69 166.03 857.69 171.76 851.96 171.76 851.96 166.03 851.96 166.03" style="fill:none;stroke:#ff25f3;stroke-linejoin:round;stroke-width:0.81889332655814px"/></g><g style="clip-path:url(#clip-path-6)"><polyline points="106.87 180.02 174.83 146.99 242.8 114.1 310.77 97.58 378.88 86.53 446.84 75.61 514.81 86.53 582.78 97.58 650.75 130.48 718.85 146.99 786.82 160.78 854.79 180.02" style="fill:none;stroke:#06f;stroke-linecap:round;stroke-linejoin:round;stroke-width:2.45667970850862px"/></g><g style="clip-path:url(#clip-path-7)"><path d="M109.77,180a2.87,2.87,0,1,1-2.87-2.86,2.88,2.88,0,0,1,2.87,2.86Z" style="fill:#06f"/><path d="M177.73,146.92a2.87,2.87,0,1,1-2.86-2.86,2.86,2.86,0,0,1,2.86,2.86Z" style="fill:#06f"/><path d="M245.7,114a2.87,2.87,0,1,1-2.86-2.87A2.87,2.87,0,0,1,245.7,114Z" style="fill:#06f"/><path d="M313.67,97.52a2.87,2.87,0,1,1-2.87-2.87,2.86,2.86,0,0,1,2.87,2.87Z" style="fill:#06f"/><path d="M381.77,86.46a2.87,2.87,0,1,1-2.86-2.86,2.87,2.87,0,0,1,2.86,2.86Z" style="fill:#06f"/><path d="M449.74,75.54a2.87,2.87,0,1,1-2.86-2.86,2.86,2.86,0,0,1,2.86,2.86Z" style="fill:#06f"/><path d="M517.71,86.46a2.87,2.87,0,1,1-2.86-2.86,2.87,2.87,0,0,1,2.86,2.86Z" style="fill:#06f"/><path d="M585.68,97.52a2.87,2.87,0,1,1-2.87-2.87,2.86,2.86,0,0,1,2.87,2.87Z" style="fill:#06f"/><path d="M653.65,130.41a2.87,2.87,0,1,1-2.87-2.87,2.87,2.87,0,0,1,2.87,2.87Z" style="fill:#06f"/><path d="M721.75,146.92a2.87,2.87,0,1,1-2.86-2.86,2.86,2.86,0,0,1,2.86,2.86Z" style="fill:#06f"/><path d="M789.72,160.71a2.87,2.87,0,1,1-2.87-2.87,2.86,2.86,0,0,1,2.87,2.87Z" style="fill:#06f"/><path d="M857.69,180a2.87,2.87,0,1,1-2.87-2.86,2.87,2.87,0,0,1,2.87,2.86Z" style="fill:#06f"/></g><g style="clip-path:url(#clip-path-10)"><text transform="translate(44.09 293.24)" style="font-size:10.236169815063477px;font-family:ArialMT, Arial"><tspan style="letter-spacing:0.0029574966073198415em">0</tspan><tspan x="5.72" y="0" style="letter-spacing:0.0020034654436682795em">.</tspan><tspan x="8.59" y="0" style="letter-spacing:-0.009063296054689836em">0</tspan><tspan x="14.19" y="0">0</tspan></text></g><g style="clip-path:url(#clip-path-10)"><text transform="translate(44.09 224.51)" style="font-size:10.236169815063477px;font-family:ArialMT, Arial"><tspan style="letter-spacing:0.0029574966073198415em">0</tspan><tspan x="5.72" y="0" style="letter-spacing:0.0020034654436682795em">.</tspan><tspan x="8.59" y="0" style="letter-spacing:-0.009063296054689836em">2</tspan><tspan x="14.19" y="0">5</tspan></text></g><g style="clip-path:url(#clip-path-10)"><text transform="translate(44.09 155.78)" style="font-size:10.236169815063477px;font-family:ArialMT, Arial"><tspan style="letter-spacing:0.0029574966073198415em">0</tspan><tspan x="5.72" y="0" style="letter-spacing:0.0020034654436682795em">.</tspan><tspan x="8.59" y="0" style="letter-spacing:-0.009063296054689836em">5</tspan><tspan x="14.19" y="0">0</tspan></text></g><g style="clip-path:url(#clip-path-10)"><text transform="translate(44.09 87.06)" style="font-size:10.236169815063477px;font-family:ArialMT, Arial"><tspan style="letter-spacing:0.0029574966073198415em">0</tspan><tspan x="5.72" y="0" style="letter-spacing:0.0020034654436682795em">.</tspan><tspan x="8.59" y="0" style="letter-spacing:-0.009063296054689836em">7</tspan><tspan x="14.19" y="0">5</tspan></text></g><g style="clip-path:url(#clip-path-10)"><text transform="translate(44.09 18.33)" style="font-size:10.236169815063477px;font-family:ArialMT, Arial"><tspan style="letter-spacing:0.0029574966073198415em">1</tspan><tspan x="5.72" y="0" style="letter-spacing:0.0020034654436682795em">.</tspan><tspan x="8.59" y="0" style="letter-spacing:-0.009063296054689836em">0</tspan><tspan x="14.19" y="0">0</tspan></text></g><g style="clip-path:url(#clip-path-10)"><text transform="translate(103.97 305.42)" style="font-size:10.236169815063477px;font-family:ArialMT, Arial">1</text></g><g style="clip-path:url(#clip-path-10)"><text transform="translate(171.97 305.42)" style="font-size:10.236169815063477px;font-family:ArialMT, Arial">2</text></g><g style="clip-path:url(#clip-path-10)"><text transform="translate(239.97 305.42)" style="font-size:10.236169815063477px;font-family:ArialMT, Arial">3</text></g><g style="clip-path:url(#clip-path-10)"><text transform="translate(307.97 305.42)" style="font-size:10.236169815063477px;font-family:ArialMT, Arial">4</text></g><g style="clip-path:url(#clip-path-10)"><text transform="translate(375.97 305.42)" style="font-size:10.236169815063477px;font-family:ArialMT, Arial">1</text></g><g style="clip-path:url(#clip-path-10)"><text transform="translate(443.96 305.42)" style="font-size:10.236169815063477px;font-family:ArialMT, Arial">2</text></g><g style="clip-path:url(#clip-path-10)"><text transform="translate(511.96 305.42)" style="font-size:10.236169815063477px;font-family:ArialMT, Arial">3</text></g><g style="clip-path:url(#clip-path-10)"><text transform="translate(579.96 305.42)" style="font-size:10.236169815063477px;font-family:ArialMT, Arial">4</text></g><g style="clip-path:url(#clip-path-10)"><text transform="translate(647.95 305.42)" style="font-size:10.236169815063477px;font-family:ArialMT, Arial">1</text></g><g style="clip-path:url(#clip-path-10)"><text transform="translate(715.95 305.42)" style="font-size:10.236169815063477px;font-family:ArialMT, Arial">2</text></g><g style="clip-path:url(#clip-path-10)"><text transform="translate(783.96 305.42)" style="font-size:10.236169815063477px;font-family:ArialMT, Arial">3</text></g><g style="clip-path:url(#clip-path-10)"><text transform="translate(851.95 305.42)" style="font-size:10.236169815063477px;font-family:ArialMT, Arial">4</text></g><g style="clip-path:url(#clip-path-10)"><text transform="translate(202.27 323.89)" style="font-size:10.236169815063477px;font-family:ArialMT, Arial"><tspan style="letter-spacing:0.006010396331004839em">J</tspan><tspan x="5.18" y="0" style="letter-spacing:-0.009063296054689836em">u</tspan><tspan x="10.78" y="0">l</tspan></text></g><g style="clip-path:url(#clip-path-10)"><text transform="translate(471.7 323.89)" style="font-size:10.236169815063477px;font-family:ArialMT, Arial">A<tspan x="6.83" y="0" style="letter-spacing:0.0029574966073198415em">u</tspan><tspan x="12.55" y="0">g</tspan></text></g><g style="clip-path:url(#clip-path-10)"><text transform="translate(743.69 323.89)" style="font-size:10.236169815063477px;font-family:ArialMT, Arial">S<tspan x="6.83" y="0" style="letter-spacing:0.0030528997236849978em">e</tspan><tspan x="12.55" y="0">p</tspan></text></g><g style="clip-path:url(#clip-path-10)"><text transform="translate(24.4 152.73) rotate(-90)" style="font-size:11.328020095825195px;font-family:Arial-BoldMT, Arial;font-weight:700">ND<tspan x="16.36" y="0" style="letter-spacing:-0.0039655539644174375em">V</tspan><tspan x="23.87" y="0">I</tspan><tspan x="27.02" y="0" style="letter-spacing:0.010948377249587271em"> </tspan><tspan x="30.29" y="0"> </tspan><tspan x="33.44" y="0" style="letter-spacing:-0.004051761659296077em">V</tspan><tspan x="40.95" y="0" style="letter-spacing:-0.0009482846436650393em">a</tspan><tspan x="47.24" y="0">l</tspan><tspan x="50.38" y="0" style="letter-spacing:0.0029310616258737578em">u</tspan><tspan x="57.34" y="0" style="letter-spacing:0.00008620769487863994em">e</tspan></text></g><g style="clip-path:url(#clip-path-10)"><text transform="translate(435.25 339.2)" style="font-size:11.328020095825195px;font-family:Arial-BoldMT, Arial;font-weight:700"><tspan style="letter-spacing:0.006982823285169835em">W</tspan><tspan x="10.77" y="0" style="letter-spacing:-0.0010344923385436793em">ee</tspan><tspan x="23.35" y="0">k</tspan></text></g><polygon points="0 0.14 900.78 0.14 900.78 349.8 0 349.8 0 0.14 0 0.14" style="fill:none;stroke:#d9d9d9;stroke-linejoin:round;stroke-width:0.81889332655814px"/></svg>