<svg id="Layer_1" data-name="Layer 1" xmlns="http://www.w3.org/2000/svg" xmlns:xlink="http://www.w3.org/1999/xlink" viewBox="0 0 900 350"><defs><clipPath id="clip-path"><polygon points="0 351.33 900 351.33 900 0 0 0 0 351.33 0 351.33" style="fill:none;clip-rule:evenodd"/></clipPath><clipPath id="clip-path-3"><polygon points="84.52 312.9 886.73 312.9 886.73 25.3 84.52 25.3 84.52 312.9 84.52 312.9" style="fill:none;clip-rule:evenodd"/></clipPath><clipPath id="clip-path-9"><rect width="900" height="351.33" style="fill:none"/></clipPath></defs><title>price-volatility</title><polygon points="0 0.14 900 0.14 900 351.33 0 351.33 0 0.14 0 0.14" style="fill:#f2f2f2;fill-rule:evenodd"/><polygon points="84.65 25.3 886.05 25.3 886.05 312.08 84.65 312.08 84.65 25.3 84.65 25.3" style="fill:#fff;fill-rule:evenodd"/><path d="M84.65,247.53h801.4M84.65,183.12h801.4M84.65,118.57h801.4M84.65,54h801.4" style="fill:none;stroke:#d9d9d9;stroke-linejoin:round;stroke-width:0.820543921433981px"/><g style="clip-path:url(#clip-path)"><path d="M84.65,25.3V312.08M151.39,25.3V312.08M218.26,25.3V312.08M285,25.3V312.08M351.74,25.3V312.08M418.61,25.3V312.08M485.35,25.3V312.08M552.09,25.3V312.08M618.83,25.3V312.08M685.7,25.3V312.08M752.44,25.3V312.08M819.18,25.3V312.08M886.05,25.3V312.08" style="fill:none;stroke:#d9d9d9;stroke-linejoin:round;stroke-width:0.820543921433981px"/></g><g style="clip-path:url(#clip-path)"><line x1="84.65" y1="312.08" x2="886.05" y2="312.08" style="fill:none;stroke:#d9d9d9;stroke-linejoin:round;stroke-width:0.820543921433981px"/></g><g style="clip-path:url(#clip-path-3)"><polyline points="118.02 218.95 184.76 217.44 251.63 218.95 318.37 217.44 385.11 213.21 451.98 214.57 518.72 213.21 585.46 213.21 652.33 213.21 719.07 211.7 785.81 212.11 852.68 212.52" style="fill:none;stroke:#2935e8;stroke-linecap:round;stroke-linejoin:round;stroke-width:2.46163169637384px"/></g><g style="clip-path:url(#clip-path-3)"><polyline points="118.02 206.78 184.76 195.97 251.63 193.65 318.37 176.83 385.11 179.43 451.98 182.16 518.72 167.94 585.46 173.41 652.33 175.73 719.07 186.67 785.81 210.61 852.68 189.13" style="fill:none;stroke:#6b77e8;stroke-linecap:round;stroke-linejoin:round;stroke-width:2.46163169637384px"/></g><g style="clip-path:url(#clip-path-3)"><polyline points="118.02 212.38 184.76 190.23 251.63 189 318.37 181.48 385.11 179.29 451.98 198.84 518.72 192.83 585.46 177.1 652.33 178.74 719.07 182.57 785.81 186.13 852.68 182.02" style="fill:none;stroke:#00c1a3;stroke-linecap:round;stroke-linejoin:round;stroke-width:2.46163169637384px"/></g><g style="clip-path:url(#clip-path-3)"><polyline points="118.02 219.77 184.76 181.34 251.63 179.29 318.37 156.31 385.11 178.06 451.98 179.15 518.72 146.6 585.46 152.76 652.33 149.2 719.07 181.2 785.81 203.22 852.68 177.24" style="fill:none;stroke:#aa77e8;stroke-linecap:round;stroke-linejoin:round;stroke-width:2.46163169637384px"/></g><g style="clip-path:url(#clip-path-3)"><polyline points="118.02 202.26 184.76 179.56 251.63 169.44 318.37 148.79 385.11 145.24 451.98 139.22 518.72 105.17 585.46 117.06 652.33 146.74 719.07 172.45 785.81 221 852.68 216.76" style="fill:none;stroke:#ff25f3;stroke-linecap:round;stroke-linejoin:round;stroke-width:2.46163169637384px"/></g><g style="clip-path:url(#clip-path-3)"><polyline points="118.02 207.05 184.76 175.6 251.63 184.35 318.37 155.49 385.11 161.65 451.98 169.58 518.72 140.04 585.46 138.26 652.33 141.13 719.07 196.79 785.81 233.03 852.68 200.21" style="fill:none;stroke:#7ea9ca;stroke-linecap:round;stroke-linejoin:round;stroke-width:2.46163169637384px"/></g><g style="clip-path:url(#clip-path-9)"><text transform="translate(38.76 315.36)" style="font-size:10.256799697875977px;font-family:ArialMT, Arial"><tspan style="letter-spacing:0.0019994357990871995em"> </tspan><tspan x="2.87" y="0" style="letter-spacing:0.0030467593128947804em">1</tspan><tspan x="8.61" y="0" style="letter-spacing:-0.008949855481628417em">0</tspan><tspan x="14.22" y="0" style="letter-spacing:0.0019994357990871995em">,</tspan><tspan x="17.09" y="0" style="letter-spacing:0.0029515480843668182em">00</tspan><tspan x="28.56" y="0">0</tspan></text></g><g style="clip-path:url(#clip-path-9)"><text transform="translate(38.76 250.85)" style="font-size:10.256799697875977px;font-family:ArialMT, Arial"><tspan style="letter-spacing:0.0019994357990871995em"> </tspan><tspan x="2.87" y="0" style="letter-spacing:0.0030467593128947804em">1</tspan><tspan x="8.61" y="0" style="letter-spacing:-0.008949855481628417em">4</tspan><tspan x="14.22" y="0" style="letter-spacing:0.0019994357990871995em">,</tspan><tspan x="17.09" y="0" style="letter-spacing:0.0029515480843668182em">50</tspan><tspan x="28.56" y="0">0</tspan></text></g><g style="clip-path:url(#clip-path-9)"><text transform="translate(38.76 186.33)" style="font-size:10.256799697875977px;font-family:ArialMT, Arial"><tspan style="letter-spacing:0.0019994357990871995em"> </tspan><tspan x="2.87" y="0" style="letter-spacing:0.0030467593128947804em">1</tspan><tspan x="8.61" y="0" style="letter-spacing:-0.008949855481628417em">9</tspan><tspan x="14.22" y="0" style="letter-spacing:0.0019994357990871995em">,</tspan><tspan x="17.09" y="0" style="letter-spacing:0.0029515480843668182em">00</tspan><tspan x="28.56" y="0">0</tspan></text></g><g style="clip-path:url(#clip-path-9)"><text transform="translate(38.76 121.82)" style="font-size:10.256799697875977px;font-family:ArialMT, Arial"><tspan style="letter-spacing:0.0019994357990871995em"> </tspan><tspan x="2.87" y="0" style="letter-spacing:0.0030467593128947804em">2</tspan><tspan x="8.61" y="0" style="letter-spacing:-0.008949855481628417em">3</tspan><tspan x="14.22" y="0" style="letter-spacing:0.0019994357990871995em">,</tspan><tspan x="17.09" y="0" style="letter-spacing:0.0029515480843668182em">50</tspan><tspan x="28.56" y="0">0</tspan></text></g><g style="clip-path:url(#clip-path-9)"><text transform="translate(38.76 57.31)" style="font-size:10.256799697875977px;font-family:ArialMT, Arial"><tspan style="letter-spacing:0.0019994357990871995em"> </tspan><tspan x="2.87" y="0" style="letter-spacing:0.0030467593128947804em">2</tspan><tspan x="8.61" y="0" style="letter-spacing:-0.008949855481628417em">8</tspan><tspan x="14.22" y="0" style="letter-spacing:0.0019994357990871995em">,</tspan><tspan x="17.09" y="0" style="letter-spacing:0.0029515480843668182em">00</tspan><tspan x="28.56" y="0">0</tspan></text></g><g style="clip-path:url(#clip-path-9)"><text transform="translate(109.76 327.58)" style="font-size:10.256799697875977px;font-family:ArialMT, Arial"><tspan style="letter-spacing:0.006093518625789561em">J</tspan><tspan x="5.19" y="0" style="letter-spacing:-0.009045066710156379em">a</tspan><tspan x="10.8" y="0">n</tspan></text></g><g style="clip-path:url(#clip-path-9)"><text transform="translate(175.98 327.58)" style="font-size:10.256799697875977px;font-family:ArialMT, Arial;letter-spacing:0.0019994357990871995em">F<tspan x="6.29" y="0" style="letter-spacing:0.0029515480843668182em">e</tspan><tspan x="12.02" y="0" style="letter-spacing:0.00009521122852796189em">b</tspan></text></g><g style="clip-path:url(#clip-path-9)"><text transform="translate(242.76 327.58)" style="font-size:10.256799697875977px;font-family:ArialMT, Arial;letter-spacing:-0.005998307397261598em">M<tspan x="8.48" y="0" style="letter-spacing:0.0030467593128947804em">a</tspan><tspan x="14.22" y="0" style="letter-spacing:-0.00009521122852796189em">r</tspan></text></g><g style="clip-path:url(#clip-path-9)"><text transform="translate(310.39 327.58)" style="font-size:10.256799697875977px;font-family:ArialMT, Arial">A<tspan x="6.84" y="0" style="letter-spacing:0.0030467593128947804em">p</tspan><tspan x="12.58" y="0">r</tspan></text></g><g style="clip-path:url(#clip-path-9)"><text transform="translate(375.47 327.58)" style="font-size:10.256799697875977px;font-family:ArialMT, Arial"><tspan style="letter-spacing:-0.005998307397261598em">M</tspan><tspan x="8.48" y="0" style="letter-spacing:0.0030467593128947804em">a</tspan><tspan x="14.22" y="0">y</tspan></text></g><g style="clip-path:url(#clip-path-9)"><text transform="translate(443.67 327.58)" style="font-size:10.256799697875977px;font-family:ArialMT, Arial"><tspan style="letter-spacing:0.006093518625789561em">J</tspan><tspan x="5.19" y="0" style="letter-spacing:-0.009045066710156379em">u</tspan><tspan x="10.8" y="0">n</tspan></text></g><g style="clip-path:url(#clip-path-9)"><text transform="translate(512.16 327.58)" style="font-size:10.256799697875977px;font-family:ArialMT, Arial;letter-spacing:0.006093518625789561em">J<tspan x="5.19" y="0" style="letter-spacing:-0.009045066710156379em">u</tspan><tspan x="10.8" y="0" style="letter-spacing:0.00009521122852796189em">l</tspan></text></g><g style="clip-path:url(#clip-path-9)"><text transform="translate(576.37 327.58)" style="font-size:10.256799697875977px;font-family:ArialMT, Arial">A<tspan x="6.84" y="0" style="letter-spacing:0.0030467593128947804em">u</tspan><tspan x="12.58" y="0">g</tspan></text></g><g style="clip-path:url(#clip-path-9)"><text transform="translate(643.15 327.58)" style="font-size:10.256799697875977px;font-family:ArialMT, Arial">S<tspan x="6.84" y="0" style="letter-spacing:0.0030467593128947804em">e</tspan><tspan x="12.58" y="0">p</tspan></text></g><g style="clip-path:url(#clip-path-9)"><text transform="translate(711.08 327.58)" style="font-size:10.256799697875977px;font-family:ArialMT, Arial"><tspan style="letter-spacing:-0.003998871598174399em">O</tspan><tspan x="7.94" y="0" style="letter-spacing:0.005998307397261598em">c</tspan><tspan x="13.13" y="0">t</tspan></text></g><g style="clip-path:url(#clip-path-9)"><text transform="translate(776.71 327.58)" style="font-size:10.256799697875977px;font-family:ArialMT, Arial"><tspan style="letter-spacing:-0.0019994357990871995em">N</tspan><tspan x="7.39" y="0" style="letter-spacing:0.0030467593128947804em">o</tspan><tspan x="13.12" y="0">v</tspan></text></g><g style="clip-path:url(#clip-path-9)"><text transform="translate(843.5 327.58)" style="font-size:10.256799697875977px;font-family:ArialMT, Arial"><tspan style="letter-spacing:-0.0019994357990871995em">D</tspan><tspan x="7.39" y="0" style="letter-spacing:0.0030467593128947804em">e</tspan><tspan x="13.12" y="0">c</tspan></text></g><g style="clip-path:url(#clip-path-9)"><text transform="translate(22.32 225.24) rotate(-90)" style="font-size:11.350859642028809px;font-family:Arial-BoldMT, Arial;font-weight:700"><tspan style="letter-spacing:0.02202476357599608em">M</tspan><tspan x="9.71" y="0" style="letter-spacing:-0.0009463765599060815em">a</tspan><tspan x="16.01" y="0" style="letter-spacing:-0.003011198145155714em">r</tspan><tspan x="20.39" y="0" style="letter-spacing:-0.0009463765599060815em">ke</tspan><tspan x="32.99" y="0" style="letter-spacing:0.003957574705061796em">t</tspan><tspan x="36.82" y="0"> </tspan><tspan x="39.97" y="0" style="letter-spacing:-0.00404360893778053em">P</tspan><tspan x="47.5" y="0" style="letter-spacing:-0.0029251639124369794em">r</tspan><tspan x="51.88" y="0">i</tspan><tspan x="55.03" y="0" style="letter-spacing:-0.0009463765599060815em">ce</tspan><tspan x="67.64" y="0" style="letter-spacing:0.023057174368620894em"> </tspan><tspan x="71.05" y="0" style="letter-spacing:0.003957574705061796em">(</tspan><tspan x="74.88" y="0">R</tspan><tspan x="83.07" y="0" style="letter-spacing:-0.0009463765599060815em">s</tspan><tspan x="89.38" y="0">./</tspan><tspan x="95.68" y="0" style="letter-spacing:0.02202476357599608em">M</tspan><tspan x="105.39" y="0" style="letter-spacing:0.01505599072577857em">T</tspan><tspan x="112.49" y="0" style="letter-spacing:-0.00008603423271873469em">)</tspan></text></g><g style="clip-path:url(#clip-path-9)"><text transform="translate(433.19 340.02)" style="font-size:11.350859642028809px;font-family:Arial-BoldMT, Arial;font-weight:700;letter-spacing:0.02202476357599608em">M<tspan x="9.71" y="0" style="letter-spacing:0.003011198145155714em">on</tspan><tspan x="23.64" y="0" style="letter-spacing:0.003957574705061796em">t</tspan><tspan x="27.47" y="0" style="letter-spacing:0.003011198145155714em">h</tspan><tspan x="34.43" y="0" style="letter-spacing:-0.0010324107926248161em">s</tspan><tspan x="40.73" y="0" style="letter-spacing:0.00008603423271873469em"> </tspan></text></g><g style="clip-path:url(#clip-path)"><line x1="77.81" y1="15.32" x2="99.7" y2="15.32" style="fill:none;stroke:#2935e8;stroke-linecap:round;stroke-linejoin:round;stroke-width:2.46163169637384px"/></g><g style="clip-path:url(#clip-path-9)"><text transform="translate(101.97 18.11)" style="font-size:9.162739753723145px;font-family:Arial-BoldMT, Arial;font-weight:700;letter-spacing:-0.005009248187077434em">A<tspan x="6.57" y="0" style="letter-spacing:0.004050030449126436em">P</tspan><tspan x="12.72" y="0" style="letter-spacing:-0.009059278636203871em"> </tspan><tspan x="15.18" y="0" style="letter-spacing:-0.003943450700465215em">(</tspan><tspan x="18.2" y="0">R</tspan><tspan x="24.77" y="0" style="letter-spacing:0.010018496374154869em">-</tspan><tspan x="27.91" y="0" style="letter-spacing:-0.002984232962514216em">1</tspan><tspan x="32.98" y="0" style="letter-spacing:-0.009059278636203871em">,</tspan><tspan x="35.44" y="0" style="letter-spacing:0.005009248187077434em"> </tspan><tspan x="38.03" y="0">R</tspan><tspan x="44.61" y="0" style="letter-spacing:-0.003943450700465215em">-</tspan><tspan x="47.62" y="0" style="letter-spacing:-0.002984232962514216em">18</tspan><tspan x="57.76" y="0" style="letter-spacing:0.000106579748661222em">)</tspan></text></g><g style="clip-path:url(#clip-path)"><line x1="210.2" y1="15.32" x2="232.08" y2="15.32" style="fill:none;stroke:#6b77e8;stroke-linecap:round;stroke-linejoin:round;stroke-width:2.46163169637384px"/></g><g style="clip-path:url(#clip-path-9)"><text transform="translate(234.44 18.11)" style="font-size:9.162739753723145px;font-family:Arial-BoldMT, Arial;font-weight:700"><tspan style="letter-spacing:0.0010657974866122202em">T</tspan><tspan x="5.61" y="0" style="letter-spacing:-0.010018496374154869em">E</tspan><tspan x="11.63" y="0" style="letter-spacing:0.0010657974866122202em">L</tspan><tspan x="17.23" y="0" style="letter-spacing:-0.009059278636203871em"> </tspan><tspan x="19.7" y="0" style="letter-spacing:0.010018496374154869em">(</tspan><tspan x="22.84" y="0" style="letter-spacing:-0.005009248187077434em">R</tspan><tspan x="29.41" y="0" style="letter-spacing:-0.003943450700465215em">-</tspan><tspan x="32.42" y="0" style="letter-spacing:-0.002984232962514216em">19</tspan><tspan x="42.56" y="0" style="letter-spacing:0.005009248187077434em">,</tspan><tspan x="45.15" y="0" style="letter-spacing:-0.009059278636203871em"> </tspan><tspan x="47.62" y="0" style="letter-spacing:-0.005009248187077434em">R</tspan><tspan x="54.19" y="0" style="letter-spacing:0.01012507612281609em">-</tspan><tspan x="57.33" y="0" style="letter-spacing:-0.002984232962514216em">21</tspan><tspan x="67.47" y="0" style="letter-spacing:-0.009059278636203871em">,</tspan><tspan x="69.93" y="0" style="letter-spacing:0.005009248187077434em"> </tspan><tspan x="72.52" y="0" style="letter-spacing:-0.005009248187077434em">R</tspan><tspan x="79.09" y="0" style="letter-spacing:-0.004050030449126436em">-</tspan><tspan x="82.11" y="0" style="letter-spacing:-0.0028776532138529943em">24</tspan><tspan x="92.24" y="0">)</tspan></text></g><g style="clip-path:url(#clip-path)"><line x1="377.18" y1="15.32" x2="399.06" y2="15.32" style="fill:none;stroke:#00c1a3;stroke-linecap:round;stroke-linejoin:round;stroke-width:2.46163169637384px"/></g><g style="clip-path:url(#clip-path-9)"><text transform="translate(401.37 18.11)" style="font-size:9.162739753723145px;font-family:Arial-BoldMT, Arial;font-weight:700;letter-spacing:-0.005009248187077434em">U<tspan x="6.57" y="0" style="letter-spacing:0.004050030449126436em">P</tspan><tspan x="12.72" y="0" style="letter-spacing:-0.009059278636203871em"> </tspan><tspan x="15.18" y="0" style="letter-spacing:-0.003943450700465215em">(</tspan><tspan x="18.2" y="0">R</tspan><tspan x="24.77" y="0" style="letter-spacing:0.010018496374154869em">-</tspan><tspan x="27.91" y="0" style="letter-spacing:-0.002984232962514216em">9</tspan><tspan x="32.98" y="0" style="letter-spacing:-0.009059278636203871em">,</tspan><tspan x="35.44" y="0" style="letter-spacing:0.005009248187077434em"> </tspan><tspan x="38.03" y="0">R</tspan><tspan x="44.61" y="0" style="letter-spacing:-0.003943450700465215em">-</tspan><tspan x="47.62" y="0" style="letter-spacing:-0.002984232962514216em">10</tspan><tspan x="57.76" y="0" style="letter-spacing:0.005009248187077434em">,</tspan><tspan x="60.35" y="0" style="letter-spacing:-0.009059278636203871em"> </tspan><tspan x="62.81" y="0" style="letter-spacing:0.008952698887542649em">R</tspan><tspan x="69.51" y="0" style="letter-spacing:-0.003943450700465215em">-</tspan><tspan x="72.53" y="0" style="letter-spacing:-0.002984232962514216em">17</tspan><tspan x="82.66" y="0" style="letter-spacing:0.000106579748661222em">)</tspan></text></g><g style="clip-path:url(#clip-path)"><line x1="534.45" y1="15.32" x2="556.33" y2="15.32" style="fill:none;stroke:#aa77e8;stroke-linecap:round;stroke-linejoin:round;stroke-width:2.46163169637384px"/></g><g style="clip-path:url(#clip-path-9)"><text transform="translate(558.68 18.11)" style="font-size:9.162739753723145px;font-family:Arial-BoldMT, Arial;font-weight:700;letter-spacing:0.002025015224563218em">M<tspan x="7.65" y="0" style="letter-spacing:-0.010018496374154869em">P</tspan><tspan x="13.67" y="0" style="letter-spacing:0.005009248187077434em"> </tspan><tspan x="16.26" y="0" style="letter-spacing:-0.003943450700465215em">(</tspan><tspan x="19.28" y="0" style="letter-spacing:-0.005115827935738657em">R</tspan><tspan x="25.85" y="0" style="letter-spacing:-0.003943450700465215em">-</tspan><tspan x="28.86" y="0" style="letter-spacing:-0.002984232962514216em">15</tspan><tspan x="39" y="0" style="letter-spacing:0.000106579748661222em">)</tspan></text></g><g style="clip-path:url(#clip-path)"><line x1="648.23" y1="15.32" x2="670.11" y2="15.32" style="fill:none;stroke:#ff25f3;stroke-linecap:round;stroke-linejoin:round;stroke-width:2.46163169637384px"/></g><g style="clip-path:url(#clip-path-9)"><text transform="translate(672.41 18.11)" style="font-size:9.162739753723145px;font-family:Arial-BoldMT, Arial;font-weight:700;letter-spacing:0.0010657974866122202em">T<tspan x="5.61" y="0" style="letter-spacing:-0.005009248187077434em">N</tspan><tspan x="12.18" y="0" style="letter-spacing:-0.009059278636203871em"> </tspan><tspan x="14.64" y="0" style="letter-spacing:0.010018496374154869em">(</tspan><tspan x="17.78" y="0" style="letter-spacing:-0.005009248187077434em">R</tspan><tspan x="24.35" y="0" style="letter-spacing:-0.003943450700465215em">-</tspan><tspan x="27.37" y="0" style="letter-spacing:-0.002984232962514216em">20</tspan><tspan x="37.51" y="0" style="letter-spacing:0.000106579748661222em">)</tspan></text></g><g style="clip-path:url(#clip-path)"><line x1="760.37" y1="15.32" x2="782.25" y2="15.32" style="fill:none;stroke:#7ea9ca;stroke-linecap:round;stroke-linejoin:round;stroke-width:2.46163169637384px"/></g><g style="clip-path:url(#clip-path-9)"><text transform="translate(784.61 18.11)" style="font-size:9.162739753723145px;font-family:Arial-BoldMT, Arial;font-weight:700;letter-spacing:0.002025015224563218em">M<tspan x="7.65" y="0" style="letter-spacing:-0.005115827935738657em">H</tspan><tspan x="14.22" y="0" style="letter-spacing:-0.008952698887542649em"> </tspan><tspan x="16.69" y="0" style="letter-spacing:-0.003943450700465215em">(</tspan><tspan x="19.7" y="0" style="letter-spacing:0.008952698887542649em">R</tspan><tspan x="26.4" y="0" style="letter-spacing:-0.003943450700465215em">-</tspan><tspan x="29.41" y="0" style="letter-spacing:-0.002984232962514216em">6</tspan><tspan x="34.48" y="0" style="letter-spacing:-0.009059278636203871em">,</tspan><tspan x="36.95" y="0" style="letter-spacing:0.005009248187077434em"> </tspan><tspan x="39.54" y="0" style="letter-spacing:-0.005009248187077434em">R</tspan><tspan x="46.11" y="0" style="letter-spacing:-0.003943450700465215em">-</tspan><tspan x="49.12" y="0" style="letter-spacing:-0.002984232962514216em">12</tspan><tspan x="59.26" y="0" style="letter-spacing:0.000106579748661222em">)</tspan></text></g><polygon points="0 0.14 900 0.14 900 351.33 0 351.33 0 0.14 0 0.14" style="fill:none;stroke:#d9d9d9;stroke-linejoin:round;stroke-width:0.820543989362079px"/></svg>