<svg id="Layer_1" data-name="Layer 1" xmlns="http://www.w3.org/2000/svg" xmlns:xlink="http://www.w3.org/1999/xlink" viewBox="0 0 900 350"><defs><clipPath id="clip-path"><polygon points="0 350.5 893.74 350.5 893.74 0 0 0 0 350.5 0 350.5" style="fill:none;clip-rule:evenodd"/></clipPath><clipPath id="clip-path-2"><polygon points="67.51 313.48 879.58 313.48 879.58 17.83 67.51 17.83 67.51 313.48 67.51 313.48" style="fill:none;clip-rule:evenodd"/></clipPath><clipPath id="clip-path-6"><rect width="893.74" height="350.5" style="fill:none"/></clipPath><clipPath id="clip-path-32"><rect x="34.98" y="53.22" width="128.9" height="17.01" style="fill:none"/></clipPath><clipPath id="clip-path-33"><rect x="77.72" y="135.16" width="164.29" height="17.7" style="fill:none"/></clipPath><clipPath id="clip-path-34"><rect x="162.11" y="170.96" width="128.9" height="17.01" style="fill:none"/></clipPath><clipPath id="clip-path-35"><rect x="223.09" y="181.85" width="128.9" height="17.01" style="fill:none"/></clipPath><clipPath id="clip-path-36"><rect x="267.88" y="165.25" width="164.16" height="17.01" style="fill:none"/></clipPath><clipPath id="clip-path-37"><rect x="330.22" y="166.88" width="164.29" height="17.01" style="fill:none"/></clipPath><clipPath id="clip-path-38"><rect x="410.39" y="164.43" width="128.9" height="17.01" style="fill:none"/></clipPath><clipPath id="clip-path-39"><rect x="472.87" y="96.91" width="128.9" height="17.01" style="fill:none"/></clipPath><clipPath id="clip-path-40"><rect x="517.51" y="60.3" width="164.16" height="17.01" style="fill:none"/></clipPath><clipPath id="clip-path-41"><rect x="597.96" y="55.54" width="128.9" height="17.01" style="fill:none"/></clipPath><clipPath id="clip-path-42"><rect x="661.25" y="105.49" width="128.9" height="17.01" style="fill:none"/></clipPath><clipPath id="clip-path-43"><rect x="704.67" y="86.71" width="164.29" height="17.01" style="fill:none"/></clipPath><clipPath id="clip-path-44"><rect x="759.94" y="169.06" width="133.8" height="17.01" style="fill:none"/></clipPath></defs><title>yar</title><polygon points="0 0 893.74 0 893.74 350.5 0 350.5 0 0 0 0" style="fill:#f2f2f2;fill-rule:evenodd"/><polygon points="67.51 17.83 878.9 17.83 878.9 312.66 67.51 312.66 67.51 17.83 67.51 17.83" style="fill:#fff;fill-rule:evenodd"/><path d="M67.51,312.66H878.9M67.51,239H878.9M67.51,165.25H878.9M67.51,91.61H878.9M67.51,17.83H878.9" style="fill:none;stroke:#d9d9d9;stroke-linejoin:round;stroke-width:0.816697247634117px"/><g style="clip-path:url(#clip-path)"><path d="M67.51,17.83V312.66M130,17.83V312.66M192.33,17.83V312.66M254.81,17.83V312.66M317.15,17.83V312.66M379.63,17.83V312.66M442,17.83V312.66M504.45,17.83V312.66M566.79,17.83V312.66M629.27,17.83V312.66M691.61,17.83V312.66M754.08,17.83V312.66M816.43,17.83V312.66M878.9,17.83V312.66" style="fill:none;stroke:#d9d9d9;stroke-linejoin:round;stroke-width:0.816697247634117px"/></g><g style="clip-path:url(#clip-path-2)"><path d="M86.3,263.52h24.91v4.63H86.3v-4.63Zm62.34,0h25v14.84h-25V263.52Zm62.48,0H236v1.91H211.12v-1.91Zm62.34,0h25v1.63h-25v-1.63Zm62.47,0h24.91V274H335.93V263.52Zm62.35,0h25v8h-25v-8Zm62.47,0h24.91v4H460.75v-4Zm62.34,0h25v4.22h-25v-4.22Zm62.48,0h24.91v18.24H585.57V263.52Zm62.34,0H673v10.21H647.91V263.52Zm62.48,0H735.3v2.72H710.39v-2.72Zm62.34,0h25v16.61h-25V263.52Zm62.48,0h24.91v9.39H835.21v-9.39Z" style="fill:#ff25f3"/></g><g style="clip-path:url(#clip-path-2)"><path d="M86.3,82.76h24.91V263.52H86.3V82.76Zm62.34,88.07h25v92.69h-25V170.83Zm62.48,25.72H236v67H211.12v-67Zm62.34,12.52h25v54.45h-25V209.07Zm62.47-12.65h24.91v67.1H335.93v-67.1Zm62.35.68h25v66.42h-25V197.1Zm62.47-3.41h24.91v69.83H460.75V193.69Zm62.34-71.46h25V263.52h-25V122.23Zm62.48-22.59h24.91V263.52H585.57V99.64Zm62.34-15H673V263.52H647.91V84.66Zm62.48,47.1H735.3V263.52H710.39V131.76Zm62.34-13.07h25V263.52h-25V118.69Zm62.48,74.87h24.91v70H835.21v-70Z" style="fill:#5e9fff"/></g><g style="clip-path:url(#clip-path-2)"><path d="M86.3,78.13h24.91v4.63H86.3V78.13Zm62.34,78h25v14.7h-25v-14.7Zm62.48,38.52H236v1.9H211.12v-1.9Zm62.34,12.79h25v1.63h-25v-1.63Zm62.47-21.51h24.91v10.49H335.93V185.93Zm62.35,3.14h25v8h-25v-8Zm62.47.68h24.91v3.94H460.75v-3.94ZM523.09,118h25v4.22h-25V118ZM585.57,81.4h24.91V99.64H585.57V81.4Zm62.34-6.81H673V84.66H647.91V74.59ZM710.39,129H735.3v2.72H710.39V129Zm62.34-26.95h25v16.6h-25v-16.6Zm62.48,82.08h24.91v9.39H835.21v-9.39Z" style="fill:#0044ab"/></g><g style="clip-path:url(#clip-path)"><line x1="67.51" y1="263.52" x2="878.9" y2="263.52" style="fill:none;stroke:#d9d9d9;stroke-linejoin:round;stroke-width:0.816697247634117px"/></g><g style="clip-path:url(#clip-path-6)"><text transform="translate(90.86 287.85)" style="font-size:9.119790077209473px;font-family:Arial-BoldMT, Arial;font-weight:700">-</text></g><g style="clip-path:url(#clip-path-6)"><text transform="translate(93.85 287.85)" style="font-size:9.119790077209473px;font-family:Arial-BoldMT, Arial;font-weight:700;letter-spacing:-0.0029982872158792933em">3<tspan x="5.04" y="0" style="letter-spacing:-0.00010708168628140336em">%</tspan></text></g><g style="clip-path:url(#clip-path-6)"><text transform="translate(152.04 291.14)" style="font-size:9.119790077209473px;font-family:Arial-BoldMT, Arial;font-weight:700">-</text></g><g style="clip-path:url(#clip-path-6)"><text transform="translate(155.04 291.14)" style="font-size:9.119790077209473px;font-family:Arial-BoldMT, Arial;font-weight:700"><tspan style="letter-spacing:-0.0029982872158792933em">16</tspan><tspan x="10.09" y="0">%</tspan></text></g><g style="clip-path:url(#clip-path-6)"><text transform="translate(218.28 285.01)" style="font-size:9.119790077209473px;font-family:Arial-BoldMT, Arial;font-weight:700">-</text></g><g style="clip-path:url(#clip-path-6)"><text transform="translate(221.28 285.01)" style="font-size:9.119790077209473px;font-family:Arial-BoldMT, Arial;font-weight:700;letter-spacing:-0.0029982872158792933em">3<tspan x="5.04" y="0" style="letter-spacing:-0.00010708168628140336em">%</tspan></text></g><g style="clip-path:url(#clip-path-6)"><text transform="translate(279.41 288.68)" style="font-size:9.119790077209473px;font-family:Arial-BoldMT, Arial;font-weight:700">-</text></g><g style="clip-path:url(#clip-path-6)"><text transform="translate(282.41 288.68)" style="font-size:9.119790077209473px;font-family:Arial-BoldMT, Arial;font-weight:700;letter-spacing:-0.0029982872158792933em">3<tspan x="5.04" y="0" style="letter-spacing:-0.00010708168628140336em">%</tspan></text></g><g style="clip-path:url(#clip-path-6)"><text transform="translate(339.27 286.93)" style="font-size:9.119790077209473px;font-family:Arial-BoldMT, Arial;font-weight:700">-</text></g><g style="clip-path:url(#clip-path-6)"><text transform="translate(342.27 286.93)" style="font-size:9.119790077209473px;font-family:Arial-BoldMT, Arial;font-weight:700"><tspan style="letter-spacing:-0.0029982872158792933em">16</tspan><tspan x="10.09" y="0">%</tspan></text></g><g style="clip-path:url(#clip-path-6)"><text transform="translate(402.97 288.92)" style="font-size:9.119790077209473px;font-family:Arial-BoldMT, Arial;font-weight:700">-</text></g><g style="clip-path:url(#clip-path-6)"><text transform="translate(405.96 288.92)" style="font-size:9.119790077209473px;font-family:Arial-BoldMT, Arial;font-weight:700"><tspan style="letter-spacing:-0.0029982872158792933em">12</tspan><tspan x="10.09" y="0">%</tspan></text></g><g style="clip-path:url(#clip-path-6)"><text transform="translate(467.93 286.93)" style="font-size:9.119790077209473px;font-family:Arial-BoldMT, Arial;font-weight:700">-</text></g><g style="clip-path:url(#clip-path-6)"><text transform="translate(470.91 286.93)" style="font-size:9.119790077209473px;font-family:Arial-BoldMT, Arial;font-weight:700;letter-spacing:-0.0029982872158792933em">6<tspan x="5.04" y="0" style="letter-spacing:-0.00010708168628140336em">%</tspan></text></g><g style="clip-path:url(#clip-path-6)"><text transform="translate(529.05 286.93)" style="font-size:9.119790077209473px;font-family:Arial-BoldMT, Arial;font-weight:700">-</text></g><g style="clip-path:url(#clip-path-6)"><text transform="translate(532.04 286.93)" style="font-size:9.119790077209473px;font-family:Arial-BoldMT, Arial;font-weight:700;letter-spacing:-0.0029982872158792933em">3<tspan x="5.04" y="0" style="letter-spacing:-0.00010708168628140336em">%</tspan></text></g><g style="clip-path:url(#clip-path-6)"><text transform="translate(589.08 290.43)" style="font-size:9.119790077209473px;font-family:Arial-BoldMT, Arial;font-weight:700">-</text></g><g style="clip-path:url(#clip-path-6)"><text transform="translate(592.08 290.43)" style="font-size:9.119790077209473px;font-family:Arial-BoldMT, Arial;font-weight:700"><tspan style="letter-spacing:-0.0029982872158792933em">11</tspan><tspan x="10.09" y="0">%</tspan></text></g><g style="clip-path:url(#clip-path-6)"><text transform="translate(656.51 289.86)" style="font-size:9.119790077209473px;font-family:Arial-BoldMT, Arial;font-weight:700">-</text></g><g style="clip-path:url(#clip-path-6)"><text transform="translate(659.51 289.86)" style="font-size:9.119790077209473px;font-family:Arial-BoldMT, Arial;font-weight:700;letter-spacing:-0.0029982872158792933em">6<tspan x="5.04" y="0" style="letter-spacing:-0.00010708168628140336em">%</tspan></text></g><g style="clip-path:url(#clip-path-6)"><text transform="translate(716.28 285.99)" style="font-size:9.119790077209473px;font-family:Arial-BoldMT, Arial;font-weight:700">-</text></g><g style="clip-path:url(#clip-path-6)"><text transform="translate(719.27 285.99)" style="font-size:9.119790077209473px;font-family:Arial-BoldMT, Arial;font-weight:700;letter-spacing:-0.0029982872158792933em">2<tspan x="5.04" y="0" style="letter-spacing:-0.00010708168628140336em">%</tspan></text></g><g style="clip-path:url(#clip-path-6)"><text transform="translate(777.27 291.14)" style="font-size:9.119790077209473px;font-family:Arial-BoldMT, Arial;font-weight:700">-</text></g><g style="clip-path:url(#clip-path-6)"><text transform="translate(780.27 291.14)" style="font-size:9.119790077209473px;font-family:Arial-BoldMT, Arial;font-weight:700"><tspan style="letter-spacing:-0.0029982872158792933em">11</tspan><tspan x="10.09" y="0">%</tspan></text></g><g style="clip-path:url(#clip-path-6)"><text transform="translate(838.55 282.07)" style="font-size:9.119790077209473px;font-family:Arial-BoldMT, Arial;font-weight:700">-</text></g><g style="clip-path:url(#clip-path-6)"><text transform="translate(841.55 282.07)" style="font-size:9.119790077209473px;font-family:Arial-BoldMT, Arial;font-weight:700"><tspan style="letter-spacing:-0.0029982872158792933em">13</tspan><tspan x="10.09" y="0">%</tspan></text></g><g style="clip-path:url(#clip-path-32)"><text transform="translate(90.17 65.1)" style="font-size:9.119790077209473px;font-family:Arial-BoldMT, Arial;font-weight:700"><tspan style="letter-spacing:-0.0010708168628140336em">+</tspan><tspan x="5.32" y="0" style="letter-spacing:-0.0029982872158792933em">3</tspan><tspan x="10.36" y="0">%</tspan></text></g><g style="clip-path:url(#clip-path-33)"><text transform="translate(148.15 147.35)" style="font-size:9.119790077209473px;font-family:Arial-BoldMT, Arial;font-weight:700;letter-spacing:-0.0010708168628140336em">+<tspan x="5.32" y="0" style="letter-spacing:-0.0029982872158792933em">16</tspan><tspan x="15.41" y="0" style="letter-spacing:-0.00010708168628140336em">%</tspan></text></g><g style="clip-path:url(#clip-path-34)"><text transform="translate(217.3 182.88)" style="font-size:9.119790077209473px;font-family:Arial-BoldMT, Arial;font-weight:700"><tspan style="letter-spacing:-0.0010708168628140336em">+</tspan><tspan x="5.32" y="0" style="letter-spacing:-0.0029982872158792933em">3</tspan><tspan x="10.36" y="0">%</tspan></text></g><g style="clip-path:url(#clip-path-35)"><text transform="translate(278.36 193.77)" style="font-size:9.119790077209473px;font-family:Arial-BoldMT, Arial;font-weight:700"><tspan style="letter-spacing:-0.0010708168628140336em">+</tspan><tspan x="5.32" y="0" style="letter-spacing:-0.0029982872158792933em">3</tspan><tspan x="10.36" y="0">%</tspan></text></g><g style="clip-path:url(#clip-path-36)"><text transform="translate(338.22 177.17)" style="font-size:9.119790077209473px;font-family:Arial-BoldMT, Arial;font-weight:700;letter-spacing:-0.0010708168628140336em">+<tspan x="5.32" y="0" style="letter-spacing:-0.0029982872158792933em">16</tspan><tspan x="15.41" y="0" style="letter-spacing:-0.00010708168628140336em">%</tspan></text></g><g style="clip-path:url(#clip-path-37)"><text transform="translate(400.63 178.76)" style="font-size:9.119790077209473px;font-family:Arial-BoldMT, Arial;font-weight:700;letter-spacing:-0.0010708168628140336em">+<tspan x="5.32" y="0" style="letter-spacing:-0.0029982872158792933em">12</tspan><tspan x="15.41" y="0" style="letter-spacing:-0.00010708168628140336em">%</tspan></text></g><g style="clip-path:url(#clip-path-38)"><text transform="translate(465.59 176.28)" style="font-size:9.119790077209473px;font-family:Arial-BoldMT, Arial;font-weight:700"><tspan style="letter-spacing:-0.0010708168628140336em">+</tspan><tspan x="5.32" y="0" style="letter-spacing:-0.0029982872158792933em">6</tspan><tspan x="10.36" y="0">%</tspan></text></g><g style="clip-path:url(#clip-path-39)"><text transform="translate(528.07 108.82)" style="font-size:9.119790077209473px;font-family:Arial-BoldMT, Arial;font-weight:700"><tspan style="letter-spacing:-0.0010708168628140336em">+</tspan><tspan x="5.32" y="0" style="letter-spacing:-0.0029982872158792933em">3</tspan><tspan x="10.36" y="0">%</tspan></text></g><g style="clip-path:url(#clip-path-40)"><text transform="translate(587.86 72.21)" style="font-size:9.119790077209473px;font-family:Arial-BoldMT, Arial;font-weight:700;letter-spacing:-0.0010708168628140336em">+<tspan x="5.32" y="0" style="letter-spacing:-0.0029982872158792933em">11</tspan><tspan x="15.41" y="0" style="letter-spacing:-0.00010708168628140336em">%</tspan></text></g><g style="clip-path:url(#clip-path-41)"><text transform="translate(653.24 67.42)" style="font-size:9.119790077209473px;font-family:Arial-BoldMT, Arial;font-weight:700"><tspan style="letter-spacing:-0.0010708168628140336em">+</tspan><tspan x="5.32" y="0" style="letter-spacing:-0.0029982872158792933em">6</tspan><tspan x="10.36" y="0">%</tspan></text></g><g style="clip-path:url(#clip-path-42)"><text transform="translate(716.51 117.31)" style="font-size:9.119790077209473px;font-family:Arial-BoldMT, Arial;font-weight:700"><tspan style="letter-spacing:-0.0010708168628140336em">+</tspan><tspan x="5.32" y="0" style="letter-spacing:-0.0029982872158792933em">2</tspan><tspan x="10.36" y="0">%</tspan></text></g><g style="clip-path:url(#clip-path-43)"><text transform="translate(775.08 98.57)" style="font-size:9.119790077209473px;font-family:Arial-BoldMT, Arial;font-weight:700;letter-spacing:-0.0010708168628140336em">+<tspan x="5.32" y="0" style="letter-spacing:-0.0029982872158792933em">11</tspan><tspan x="15.41" y="0" style="letter-spacing:-0.00010708168628140336em">%</tspan></text></g><g style="clip-path:url(#clip-path-44)"><text transform="translate(830.34 180.94)" style="font-size:9.119790077209473px;font-family:Arial-BoldMT, Arial;font-weight:700;letter-spacing:-0.0010708168628140336em">+<tspan x="5.32" y="0" style="letter-spacing:-0.0029982872158792933em">13</tspan><tspan x="15.41" y="0" style="letter-spacing:-0.00010708168628140336em">%</tspan></text></g><g style="clip-path:url(#clip-path-6)"><text transform="translate(35.47 315.94)" style="font-size:10.208720207214355px;font-family:Arial-BoldMT, Arial;font-weight:700">-<tspan x="3.4" y="0" style="letter-spacing:0.002965448840355738em">1</tspan><tspan x="9.11" y="0" style="letter-spacing:0.0021045120802524594em">.</tspan><tspan x="11.96" y="0" style="letter-spacing:-0.009087665801090165em">0</tspan><tspan x="17.55" y="0">0</tspan></text></g><g style="clip-path:url(#clip-path-6)"><text transform="translate(38.88 242.24)" style="font-size:10.208720207214355px;font-family:Arial-BoldMT, Arial;font-weight:700"><tspan style="letter-spacing:0.002965448840355738em">0</tspan><tspan x="5.71" y="0" style="letter-spacing:0.0021045120802524594em">.</tspan><tspan x="8.57" y="0" style="letter-spacing:-0.009087665801090165em">5</tspan><tspan x="14.15" y="0">0</tspan></text></g><g style="clip-path:url(#clip-path-6)"><text transform="translate(38.88 168.54)" style="font-size:10.208720207214355px;font-family:Arial-BoldMT, Arial;font-weight:700"><tspan style="letter-spacing:0.002965448840355738em">2</tspan><tspan x="5.71" y="0" style="letter-spacing:0.0021045120802524594em">.</tspan><tspan x="8.57" y="0" style="letter-spacing:-0.009087665801090165em">0</tspan><tspan x="14.15" y="0">0</tspan></text></g><g style="clip-path:url(#clip-path-6)"><text transform="translate(38.88 94.84)" style="font-size:10.208720207214355px;font-family:Arial-BoldMT, Arial;font-weight:700"><tspan style="letter-spacing:0.002965448840355738em">3</tspan><tspan x="5.71" y="0" style="letter-spacing:0.0021045120802524594em">.</tspan><tspan x="8.57" y="0" style="letter-spacing:-0.009087665801090165em">5</tspan><tspan x="14.15" y="0">0</tspan></text></g><g style="clip-path:url(#clip-path-6)"><text transform="translate(38.88 21.14)" style="font-size:10.208720207214355px;font-family:Arial-BoldMT, Arial;font-weight:700"><tspan style="letter-spacing:0.002965448840355738em">5</tspan><tspan x="5.71" y="0" style="letter-spacing:0.0021045120802524594em">.</tspan><tspan x="8.57" y="0" style="letter-spacing:-0.009087665801090165em">0</tspan><tspan x="14.15" y="0">0</tspan></text></g><g style="clip-path:url(#clip-path-6)"><text transform="translate(90.5 328.09)" style="font-size:10.208720207214355px;font-family:Arial-BoldMT, Arial;font-weight:700;letter-spacing:-0.0020088524402409836em">R<tspan x="7.35" y="0" style="letter-spacing:0.00009565964001147542em">-1</tspan></text></g><g style="clip-path:url(#clip-path-6)"><text transform="translate(152.91 328.09)" style="font-size:10.208720207214355px;font-family:Arial-BoldMT, Arial;font-weight:700;letter-spacing:-0.0020088524402409836em">R<tspan x="7.35" y="0" style="letter-spacing:0.00009565964001147542em">-6</tspan></text></g><g style="clip-path:url(#clip-path-6)"><text transform="translate(215.32 328.09)" style="font-size:10.208720207214355px;font-family:Arial-BoldMT, Arial;font-weight:700;letter-spacing:-0.0020088524402409836em">R<tspan x="7.35" y="0" style="letter-spacing:0.00009565964001147542em">-9</tspan></text></g><g style="clip-path:url(#clip-path-6)"><text transform="translate(274.89 328.09)" style="font-size:10.208720207214355px;font-family:Arial-BoldMT, Arial;font-weight:700"><tspan style="letter-spacing:-0.0020088524402409836em">R</tspan><tspan x="7.35" y="0" style="letter-spacing:0.00009565964001147542em">-</tspan><tspan x="10.75" y="0" style="letter-spacing:0.002965448840355738em">1</tspan><tspan x="16.46" y="0">0</tspan></text></g><g style="clip-path:url(#clip-path-6)"><text transform="translate(337.3 328.09)" style="font-size:10.208720207214355px;font-family:Arial-BoldMT, Arial;font-weight:700"><tspan style="letter-spacing:-0.0020088524402409836em">R</tspan><tspan x="7.35" y="0" style="letter-spacing:0.00009565964001147542em">-</tspan><tspan x="10.75" y="0" style="letter-spacing:0.002965448840355738em">1</tspan><tspan x="16.46" y="0">2</tspan></text></g><g style="clip-path:url(#clip-path-6)"><text transform="translate(399.71 328.09)" style="font-size:10.208720207214355px;font-family:Arial-BoldMT, Arial;font-weight:700"><tspan style="letter-spacing:-0.0020088524402409836em">R</tspan><tspan x="7.35" y="0" style="letter-spacing:0.00009565964001147542em">-</tspan><tspan x="10.75" y="0" style="letter-spacing:0.002965448840355738em">1</tspan><tspan x="16.46" y="0">5</tspan></text></g><g style="clip-path:url(#clip-path-6)"><text transform="translate(462.12 328.09)" style="font-size:10.208720207214355px;font-family:Arial-BoldMT, Arial;font-weight:700"><tspan style="letter-spacing:-0.0020088524402409836em">R</tspan><tspan x="7.35" y="0" style="letter-spacing:0.00009565964001147542em">-</tspan><tspan x="10.75" y="0" style="letter-spacing:0.002965448840355738em">1</tspan><tspan x="16.46" y="0">7</tspan></text></g><g style="clip-path:url(#clip-path-6)"><text transform="translate(524.53 328.09)" style="font-size:10.208720207214355px;font-family:Arial-BoldMT, Arial;font-weight:700"><tspan style="letter-spacing:-0.0020088524402409836em">R</tspan><tspan x="7.35" y="0" style="letter-spacing:0.00009565964001147542em">-</tspan><tspan x="10.75" y="0" style="letter-spacing:0.002965448840355738em">1</tspan><tspan x="16.46" y="0">8</tspan></text></g><g style="clip-path:url(#clip-path-6)"><text transform="translate(586.94 328.09)" style="font-size:10.208720207214355px;font-family:Arial-BoldMT, Arial;font-weight:700"><tspan style="letter-spacing:-0.0020088524402409836em">R</tspan><tspan x="7.35" y="0" style="letter-spacing:0.00009565964001147542em">-</tspan><tspan x="10.75" y="0" style="letter-spacing:0.002965448840355738em">1</tspan><tspan x="16.46" y="0">9</tspan></text></g><g style="clip-path:url(#clip-path-6)"><text transform="translate(649.34 328.09)" style="font-size:10.208720207214355px;font-family:Arial-BoldMT, Arial;font-weight:700"><tspan style="letter-spacing:-0.0020088524402409836em">R</tspan><tspan x="7.35" y="0" style="letter-spacing:0.00009565964001147542em">-</tspan><tspan x="10.75" y="0" style="letter-spacing:0.002965448840355738em">2</tspan><tspan x="16.46" y="0">0</tspan></text></g><g style="clip-path:url(#clip-path-6)"><text transform="translate(711.76 328.09)" style="font-size:10.208720207214355px;font-family:Arial-BoldMT, Arial;font-weight:700"><tspan style="letter-spacing:-0.0020088524402409836em">R</tspan><tspan x="7.35" y="0" style="letter-spacing:0.00009565964001147542em">-</tspan><tspan x="10.75" y="0" style="letter-spacing:0.002965448840355738em">2</tspan><tspan x="16.46" y="0">1</tspan></text></g><g style="clip-path:url(#clip-path-6)"><text transform="translate(774.16 328.09)" style="font-size:10.208720207214355px;font-family:Arial-BoldMT, Arial;font-weight:700"><tspan style="letter-spacing:-0.0020088524402409836em">R</tspan><tspan x="7.35" y="0" style="letter-spacing:0.00009565964001147542em">-</tspan><tspan x="10.75" y="0" style="letter-spacing:0.002965448840355738em">2</tspan><tspan x="16.46" y="0">4</tspan></text></g><g style="clip-path:url(#clip-path-6)"><text transform="translate(836.57 328.09)" style="font-size:10.208720207214355px;font-family:Arial-BoldMT, Arial;font-weight:700"><tspan style="letter-spacing:-0.0020088524402409836em">R</tspan><tspan x="7.35" y="0" style="letter-spacing:0.00009565964001147542em">-</tspan><tspan x="10.75" y="0" style="letter-spacing:0.002965448840355738em">2</tspan><tspan x="16.46" y="0">6</tspan></text></g><g style="clip-path:url(#clip-path-6)"><text transform="translate(19.39 243.15) rotate(-90)" style="font-size:11.297650337219238px;font-family:Arial-BoldMT, Arial;font-weight:700"><tspan style="letter-spacing:0.004927047734573537em">Q</tspan><tspan x="8.84" y="0" style="letter-spacing:0.0030253801878960315em">u</tspan><tspan x="15.78" y="0" style="letter-spacing:-0.0010372732072786391em">a</tspan><tspan x="22.05" y="0" style="letter-spacing:0.0030253801878960315em">n</tspan><tspan x="28.99" y="0" style="letter-spacing:0.003976213961234784em">t</tspan><tspan x="32.79" y="0" style="letter-spacing:0.0000864394339398866em">i</tspan><tspan x="35.93" y="0" style="letter-spacing:0.003976213961234784em">t</tspan><tspan x="39.74" y="0" style="letter-spacing:-0.012965915090982992em">y</tspan><tspan x="45.88" y="0" style="letter-spacing:0.010977808110365599em"> </tspan><tspan x="49.14" y="0">&amp; </tspan><tspan x="60.44" y="0" style="letter-spacing:0.007001594149130815em">Y</tspan><tspan x="68.05" y="0" style="letter-spacing:-0.0009508337733387527em">a</tspan><tspan x="74.32" y="0" style="letter-spacing:-0.0000864394339398866em">R</tspan><tspan x="82.48" y="0" style="letter-spacing:0.011064247544305485em"> </tspan><tspan x="85.75" y="0" style="letter-spacing:0.00406265339517467em">(</tspan><tspan x="89.55" y="0" style="letter-spacing:0.021955616220731198em">M</tspan><tspan x="99.21" y="0" style="letter-spacing:0.014954022071600383em">T</tspan><tspan x="106.28" y="0" style="letter-spacing:0.0000864394339398866em">)</tspan></text></g><g style="clip-path:url(#clip-path-6)"><text transform="translate(422.47 340.08)" style="font-size:11.297650337219238px;font-family:Arial-BoldMT, Arial;font-weight:700">R<tspan x="8.16" y="0" style="letter-spacing:-0.0010372732072786391em">e</tspan><tspan x="14.43" y="0" style="letter-spacing:0.0029389407539561446em">g</tspan><tspan x="21.37" y="0" style="letter-spacing:0.0000864394339398866em">i</tspan><tspan x="24.5" y="0" style="letter-spacing:0.0029389407539561446em">on</tspan><tspan x="38.37" y="0">s</tspan></text></g><polygon points="0 0 893.74 0 893.74 350.5 0 350.5 0 0 0 0" style="fill:none;stroke:#d9d9d9;stroke-linejoin:round;stroke-width:0.816697315243772px"/></svg>