<svg id="Layer_1" data-name="Layer 1" xmlns="http://www.w3.org/2000/svg" xmlns:xlink="http://www.w3.org/1999/xlink" viewBox="0 0 900 350"><defs><clipPath id="clip-path"><polygon points="6.17 347.15 893.69 347.15 893.69 2.85 6.17 2.85 6.17 347.15 6.17 347.15" style="fill:none;clip-rule:evenodd"/></clipPath><clipPath id="clip-path-2"><polygon points="82.44 306.32 863.91 306.32 863.91 20.23 82.44 20.23 82.44 306.32 82.44 306.32" style="fill:none;clip-rule:evenodd"/></clipPath><clipPath id="clip-path-13"><rect x="6.17" y="2.85" width="887.52" height="344.31" style="fill:none"/></clipPath></defs><title>ground-truth-risk-report</title><polygon points="6.31 2.98 893.83 2.98 893.83 347.15 6.31 347.15 6.31 2.98 6.31 2.98" style="fill:#eaeaea;fill-rule:evenodd"/><polygon points="82.44 20.36 863.24 20.36 863.24 305.51 82.44 305.51 82.44 20.36 82.44 20.36" style="fill:#fff;fill-rule:evenodd"/><path d="M82.44,219.94h780.8M82.44,134.37h780.8M82.44,48.8h780.8" style="fill:none;stroke:#d9d9d9;stroke-linejoin:round;stroke-width:0.7199999690055847px"/><g style="clip-path:url(#clip-path)"><path d="M82.44,20.36V305.51M342.8,20.36V305.51M603,20.36V305.51M863.24,20.36V305.51" style="fill:none;stroke:#d9d9d9;stroke-linejoin:round;stroke-width:0.7199999690055847px"/></g><g style="clip-path:url(#clip-path-2)"><polygon points="162.63 127.23 262.62 127.23 262.62 305.51 162.63 305.51 162.63 127.23 162.63 127.23" style="fill:#5e9fff;fill-rule:evenodd"/><polygon points="162.63 127.23 262.62 127.23 262.62 305.51 162.63 305.51 162.63 127.23 162.63 127.23" style="fill:none;stroke:#7f7f7f;stroke-linejoin:round;stroke-width:0.7199999690055847px"/><polygon points="422.85 117.26 522.84 117.26 522.84 305.51 422.85 305.51 422.85 117.26 422.85 117.26" style="fill:#5e9fff;fill-rule:evenodd"/><polygon points="422.85 117.26 522.84 117.26 522.84 305.51 422.85 305.51 422.85 117.26 422.85 117.26" style="fill:none;stroke:#7f7f7f;stroke-linejoin:round;stroke-width:0.7199999690055847px"/><polygon points="683.07 105.94 783.06 105.94 783.06 305.51 683.07 305.51 683.07 105.94 683.07 105.94" style="fill:#5e9fff;fill-rule:evenodd"/><polygon points="683.07 105.94 783.06 105.94 783.06 305.51 683.07 305.51 683.07 105.94 683.07 105.94" style="fill:none;stroke:#7f7f7f;stroke-linejoin:round;stroke-width:0.7199999690055847px"/></g><g style="clip-path:url(#clip-path)"><line x1="82.44" y1="305.51" x2="863.24" y2="305.51" style="fill:none;stroke:#d9d9d9;stroke-linejoin:round;stroke-width:0.7199999690055847px"/></g><g style="clip-path:url(#clip-path)"><path d="M82.44,305.51v3.1m260.36-3.1v3.1M603,305.51v3.1m260.22-3.1v3.1" style="fill:none;stroke:#d9d9d9;stroke-linejoin:round;stroke-width:0.7199999690055847px"/></g><g style="clip-path:url(#clip-path-2)"><polyline points="212.62 81.81 472.84 81.81 733.06 81.81" style="fill:none;stroke:#3d699c;stroke-linecap:round;stroke-linejoin:round;stroke-width:1.2000000476837158px;stroke-dasharray:5,5"/></g><g style="clip-path:url(#clip-path)"><path d="M215.41,81.8A2.83,2.83,0,1,1,212.58,79a2.83,2.83,0,0,1,2.83,2.83Z" style="fill:#2935e8"/><path d="M215.41,81.8A2.83,2.83,0,1,1,212.58,79a2.83,2.83,0,0,1,2.83,2.83Z" style="fill:none;stroke:#2935e8;stroke-linejoin:round;stroke-width:0.7200000286102295px"/><path d="M475.63,81.8A2.83,2.83,0,1,1,472.8,79a2.83,2.83,0,0,1,2.83,2.83Z" style="fill:#2935e8"/><path d="M475.63,81.8A2.83,2.83,0,1,1,472.8,79a2.83,2.83,0,0,1,2.83,2.83Z" style="fill:none;stroke:#2935e8;stroke-linejoin:round;stroke-width:0.7200000286102295px"/><path d="M735.85,81.8A2.83,2.83,0,1,1,733,79a2.83,2.83,0,0,1,2.83,2.83Z" style="fill:#2935e8"/><path d="M735.85,81.8A2.83,2.83,0,1,1,733,79a2.83,2.83,0,0,1,2.83,2.83Z" style="fill:none;stroke:#2935e8;stroke-linejoin:round;stroke-width:0.7200000286102295px"/></g><g style="clip-path:url(#clip-path-2)"><polyline points="212.62 145.56 472.84 145.56 733.06 145.56" style="fill:none;stroke:#ff25f3;stroke-linecap:round;stroke-linejoin:round;stroke-width:1.2000000476837158px;stroke-dasharray:5,5"/></g><g style="clip-path:url(#clip-path)"><path d="M215.41,145.54a2.83,2.83,0,1,1-2.83-2.83,2.83,2.83,0,0,1,2.83,2.83Z" style="fill:#ff25f3"/><path d="M215.41,145.54a2.83,2.83,0,1,1-2.83-2.83,2.83,2.83,0,0,1,2.83,2.83Z" style="fill:none;stroke:#ffd3fd;stroke-linejoin:round;stroke-width:0.7200000286102295px"/><path d="M475.63,145.54a2.83,2.83,0,1,1-2.83-2.83,2.83,2.83,0,0,1,2.83,2.83Z" style="fill:#ff25f3"/><path d="M475.63,145.54a2.83,2.83,0,1,1-2.83-2.83,2.83,2.83,0,0,1,2.83,2.83Z" style="fill:none;stroke:#ffd3fd;stroke-linejoin:round;stroke-width:0.7200000286102295px"/><path d="M735.85,145.54a2.83,2.83,0,1,1-2.83-2.83,2.83,2.83,0,0,1,2.83,2.83Z" style="fill:#ff25f3"/><path d="M735.85,145.54a2.83,2.83,0,1,1-2.83-2.83,2.83,2.83,0,0,1,2.83,2.83Z" style="fill:none;stroke:#ffd3fd;stroke-linejoin:round;stroke-width:0.7200000286102295px"/></g><g style="clip-path:url(#clip-path-2)"><polyline points="212.62 103.11 472.84 103.11 733.06 103.11" style="fill:none;stroke:#7f7f7f;stroke-linecap:round;stroke-linejoin:round;stroke-width:1.1999999284744263px"/></g><g style="clip-path:url(#clip-path)"><path d="M215.41,103.09a2.83,2.83,0,1,1-2.83-2.83,2.83,2.83,0,0,1,2.83,2.83Z" style="fill:#7f7f7f"/><path d="M215.41,103.09a2.83,2.83,0,1,1-2.83-2.83,2.83,2.83,0,0,1,2.83,2.83Z" style="fill:none;stroke:#7f7f7f;stroke-linejoin:round;stroke-width:0.7200000286102295px"/><path d="M475.63,103.09a2.83,2.83,0,1,1-2.83-2.83,2.83,2.83,0,0,1,2.83,2.83Z" style="fill:#7f7f7f"/><path d="M475.63,103.09a2.83,2.83,0,1,1-2.83-2.83,2.83,2.83,0,0,1,2.83,2.83Z" style="fill:none;stroke:#7f7f7f;stroke-linejoin:round;stroke-width:0.7200000286102295px"/><path d="M735.85,103.09a2.83,2.83,0,1,1-2.83-2.83,2.83,2.83,0,0,1,2.83,2.83Z" style="fill:#7f7f7f"/><path d="M735.85,103.09a2.83,2.83,0,1,1-2.83-2.83,2.83,2.83,0,0,1,2.83,2.83Z" style="fill:none;stroke:#7f7f7f;stroke-linejoin:round;stroke-width:0.7200000286102295px"/></g><g style="clip-path:url(#clip-path-2)"><polyline points="212.62 127.23 472.84 127.23 733.06 127.23" style="fill:none;stroke:#00c1a3;stroke-linecap:round;stroke-linejoin:round;stroke-width:1.1999999284744263px"/></g><g style="clip-path:url(#clip-path)"><path d="M215.41,127.21a2.83,2.83,0,1,1-2.83-2.83,2.83,2.83,0,0,1,2.83,2.83Z" style="fill:#00c1a3"/><path d="M215.41,127.21a2.83,2.83,0,1,1-2.83-2.83,2.83,2.83,0,0,1,2.83,2.83Z" style="fill:none;stroke:#c0fff5;stroke-linejoin:round;stroke-width:0.7200000286102295px"/><path d="M475.63,127.21a2.83,2.83,0,1,1-2.83-2.83,2.83,2.83,0,0,1,2.83,2.83Z" style="fill:#00c1a3"/><path d="M475.63,127.21a2.83,2.83,0,1,1-2.83-2.83,2.83,2.83,0,0,1,2.83,2.83Z" style="fill:none;stroke:#c0fff5;stroke-linejoin:round;stroke-width:0.7200000286102295px"/><path d="M735.85,127.21a2.83,2.83,0,1,1-2.83-2.83,2.83,2.83,0,0,1,2.83,2.83Z" style="fill:#00c1a3"/><path d="M735.85,127.21a2.83,2.83,0,1,1-2.83-2.83,2.83,2.83,0,0,1,2.83,2.83Z" style="fill:none;stroke:#c0fff5;stroke-linejoin:round;stroke-width:0.7200000286102295px"/></g><g style="clip-path:url(#clip-path-13)"><text transform="translate(54.14 308.76)" style="font-size:10.106922149658203px;font-family:ArialMT, Arial"><tspan style="letter-spacing:0.0029953171748754183em">0</tspan><tspan x="5.65" y="0" style="letter-spacing:0.0020290858281414126em">.</tspan><tspan x="8.48" y="0" style="letter-spacing:-0.008985951524626255em">0</tspan><tspan x="14.01" y="0">0</tspan></text></g><g style="clip-path:url(#clip-path-13)"><text transform="translate(54.14 223.19)" style="font-size:10.106922149658203px;font-family:ArialMT, Arial"><tspan style="letter-spacing:0.0029953171748754183em">0</tspan><tspan x="5.65" y="0" style="letter-spacing:0.0020290858281414126em">.</tspan><tspan x="8.48" y="0" style="letter-spacing:-0.008985951524626255em">6</tspan><tspan x="14.01" y="0">0</tspan></text></g><g style="clip-path:url(#clip-path-13)"><text transform="translate(54.14 137.64)" style="font-size:10.106922149658203px;font-family:ArialMT, Arial"><tspan style="letter-spacing:0.0029953171748754183em">1</tspan><tspan x="5.65" y="0" style="letter-spacing:0.0020290858281414126em">.</tspan><tspan x="8.48" y="0" style="letter-spacing:-0.008985951524626255em">2</tspan><tspan x="14.01" y="0">0</tspan></text></g><g style="clip-path:url(#clip-path-13)"><text transform="translate(54.14 52.09)" style="font-size:10.106922149658203px;font-family:ArialMT, Arial"><tspan style="letter-spacing:0.0029953171748754183em">1</tspan><tspan x="5.65" y="0" style="letter-spacing:0.0020290858281414126em">.</tspan><tspan x="8.48" y="0" style="letter-spacing:-0.008985951524626255em">8</tspan><tspan x="14.01" y="0">0</tspan></text></g><g style="clip-path:url(#clip-path-13)"><text transform="translate(202.77 320.8)" style="font-size:10.106922149658203px;font-family:ArialMT, Arial">Jan</text></g><g style="clip-path:url(#clip-path-13)"><text transform="translate(460 320.8)" style="font-size:10.106922149658203px;font-family:ArialMT, Arial">Feb</text></g><g style="clip-path:url(#clip-path-13)"><text transform="translate(725.23 320.8)" style="font-size:10.106922149658203px;font-family:ArialMT, Arial">Mar</text></g><g style="clip-path:url(#clip-path-13)"><text transform="translate(32.79 208.71) rotate(-90)" style="font-size:11.184993743896484px;font-family:Arial-BoldMT, Arial;font-weight:700"><tspan style="letter-spacing:0.004976673548018317em">Q</tspan><tspan x="8.76" y="0" style="letter-spacing:0.003055852178607739em">u</tspan><tspan x="15.62" y="0" style="letter-spacing:-0.0010477207469512246em">a</tspan><tspan x="21.83" y="0" style="letter-spacing:0.003055852178607739em">n</tspan><tspan x="28.7" y="0" style="letter-spacing:0.004016262863313028em">t</tspan><tspan x="32.47" y="0">i</tspan><tspan x="35.57" y="0" style="letter-spacing:0.004016262863313028em">t</tspan><tspan x="39.34" y="0" style="letter-spacing:-0.013096509336890308em">y</tspan><tspan x="45.42" y="0" style="letter-spacing:0.011088377905233794em"> </tspan><tspan x="48.65" y="0" style="letter-spacing:0.003928952801067092em">(</tspan><tspan x="52.42" y="0" style="letter-spacing:0.02200213568597572em">M</tspan><tspan x="61.98" y="0" style="letter-spacing:0.015017330706300888em">T</tspan><tspan x="68.98" y="0">)</tspan></text></g><g style="clip-path:url(#clip-path-13)"><text transform="translate(412.06 338.35)" style="font-size:11.184993743896484px;font-family:Arial-BoldMT, Arial;font-weight:700"><tspan style="letter-spacing:0.015017330706300888em">T</tspan><tspan x="7" y="0">i</tspan><tspan x="10.11" y="0" style="letter-spacing:0.002008131431656514em">m</tspan><tspan x="20.08" y="0" style="letter-spacing:-0.0010477207469512246em">e</tspan><tspan x="26.28" y="0"> </tspan><tspan x="29.39" y="0" style="letter-spacing:-0.003928952801067092em">P</tspan><tspan x="36.81" y="0" style="letter-spacing:-0.0010477207469512246em">e</tspan><tspan x="43.02" y="0" style="letter-spacing:-0.0029685421163618032em">r</tspan><tspan x="47.34" y="0">i</tspan><tspan x="50.44" y="0" style="letter-spacing:0.003055852178607739em">o</tspan><tspan x="57.31" y="0">d</tspan></text></g><polygon points="6.31 2.98 893.83 2.98 893.83 347.15 6.31 347.15 6.31 2.98 6.31 2.98" style="fill:none;stroke:#d9d9d9;stroke-linejoin:round;stroke-width:0.7200000286102295px"/></svg>