<svg id="Layer_1" data-name="Layer 1" xmlns="http://www.w3.org/2000/svg" xmlns:xlink="http://www.w3.org/1999/xlink" viewBox="0 0 900 350"><defs><clipPath id="clip-path"><polygon points="3.54 346.94 896.32 346.94 896.32 3.06 3.54 3.06 3.54 346.94 3.54 346.94" style="fill:none;clip-rule:evenodd"/></clipPath><clipPath id="clip-path-6"><polygon points="54.33 286.97 885.25 286.97 885.25 17.78 54.33 17.78 54.33 286.97 54.33 286.97" style="fill:none;clip-rule:evenodd"/></clipPath><clipPath id="clip-path-7"><polygon points="3.54 346.94 896.32 346.94 896.32 3.06 3.54 3.06 3.54 346.94 3.54 346.94" style="fill:none;clip-rule:evenodd"/></clipPath><clipPath id="clip-path-10"><rect x="3.54" y="3.06" width="892.78" height="343.88" style="fill:none"/></clipPath></defs><title>ndvi-risk-report</title><polygon points="3.68 3.06 896.46 3.06 896.46 346.94 3.68 346.94 3.68 3.06 3.68 3.06" style="fill:#eaeaea;fill-rule:evenodd"/><polygon points="54.46 17.78 884.57 17.78 884.57 286.16 54.46 286.16 54.46 17.78 54.46 17.78" style="fill:#fff;fill-rule:evenodd"/><path d="M54.46,219H884.57M54.46,152H884.57M54.46,84.91H884.57M54.46,17.78H884.57" style="fill:none;stroke:#d9d9d9;stroke-linejoin:round;stroke-width:0.7199999690055847px"/><g style="clip-path:url(#clip-path)"><path d="M89,17.78V286.16M158.19,17.78V286.16M227.34,17.78V286.16M296.5,17.78V286.16M365.79,17.78V286.16M434.94,17.78V286.16M504.09,17.78V286.16M573.25,17.78V286.16M642.4,17.78V286.16M711.55,17.78V286.16M780.71,17.78V286.16M850,17.78V286.16" style="fill:none;stroke:#f2f2f2;stroke-linejoin:round;stroke-width:0.7199999690055847px"/></g><g style="clip-path:url(#clip-path)"><path d="M54.46,17.78V286.16M123.61,17.78V286.16M192.77,17.78V286.16M261.92,17.78V286.16M331.21,17.78V286.16M400.36,17.78V286.16M469.52,17.78V286.16M538.67,17.78V286.16M607.82,17.78V286.16M677,17.78V286.16M746.13,17.78V286.16M815.28,17.78V286.16M884.57,17.78V286.16" style="fill:none;stroke:#d9d9d9;stroke-linejoin:round;stroke-width:0.7199999690055847px"/></g><g style="clip-path:url(#clip-path)"><line x1="54.46" y1="286.16" x2="884.57" y2="286.16" style="fill:none;stroke:#d9d9d9;stroke-linejoin:round;stroke-width:1.1999999284744263px"/></g><g style="clip-path:url(#clip-path)"><path d="M54.46,286.16v18.23m276.75-18.23v18.23m276.61-18.23v18.23m276.75-18.23v18.23" style="fill:none;stroke:#d9d9d9;stroke-linejoin:round;stroke-width:1.1999999284744263px"/></g><g style="clip-path:url(#clip-path)"><path d="M54.46,304.39v18.37m276.75-18.37v18.37m276.61-18.37v18.37m276.75-18.37v18.37" style="fill:none;stroke:#d9d9d9;stroke-linejoin:round;stroke-width:1.1999999284744263px"/></g><g style="clip-path:url(#clip-path-6)"><polyline points="89.04 205.66 158.19 192.29 227.34 165.41 296.5 146.64 365.79 127.86 434.94 103.69 504.09 84.91 573.25 93.02 642.4 117.06 711.55 146.64 780.71 168.11 850 192.29" style="fill:none;stroke:#ff25f3;stroke-linecap:round;stroke-linejoin:round;stroke-width:2.1599998474121094px"/></g><g style="clip-path:url(#clip-path-7)"><polygon points="86.19 202.86 91.86 202.86 91.86 208.53 86.19 208.53 86.19 202.86 86.19 202.86" style="fill:#ff25f3;fill-rule:evenodd"/><polygon points="86.19 202.86 91.86 202.86 91.86 208.53 86.19 208.53 86.19 202.86 86.19 202.86" style="fill:none;stroke:#ffd3fd;stroke-linejoin:round;stroke-width:0.7200000286102295px"/><polygon points="155.34 189.49 161.01 189.49 161.01 195.16 155.34 195.16 155.34 189.49 155.34 189.49" style="fill:#ff25f3;fill-rule:evenodd"/><polygon points="155.34 189.49 161.01 189.49 161.01 195.16 155.34 195.16 155.34 189.49 155.34 189.49" style="fill:none;stroke:#ffd3fd;stroke-linejoin:round;stroke-width:0.7200000286102295px"/><polygon points="224.49 162.61 230.16 162.61 230.16 168.28 224.49 168.28 224.49 162.61 224.49 162.61" style="fill:#ff25f3;fill-rule:evenodd"/><polygon points="224.49 162.61 230.16 162.61 230.16 168.28 224.49 168.28 224.49 162.61 224.49 162.61" style="fill:none;stroke:#ffd3fd;stroke-linejoin:round;stroke-width:0.7200000286102295px"/><polygon points="293.65 143.84 299.32 143.84 299.32 149.51 293.65 149.51 293.65 143.84 293.65 143.84" style="fill:#ff25f3;fill-rule:evenodd"/><polygon points="293.65 143.84 299.32 143.84 299.32 149.51 293.65 149.51 293.65 143.84 293.65 143.84" style="fill:none;stroke:#ffd3fd;stroke-linejoin:round;stroke-width:0.7200000286102295px"/><polygon points="362.94 125.06 368.61 125.06 368.61 130.73 362.94 130.73 362.94 125.06 362.94 125.06" style="fill:#ff25f3;fill-rule:evenodd"/><polygon points="362.94 125.06 368.61 125.06 368.61 130.73 362.94 130.73 362.94 125.06 362.94 125.06" style="fill:none;stroke:#ffd3fd;stroke-linejoin:round;stroke-width:0.7200000286102295px"/><polygon points="432.09 100.89 437.76 100.89 437.76 106.56 432.09 106.56 432.09 100.89 432.09 100.89" style="fill:#ff25f3;fill-rule:evenodd"/><polygon points="432.09 100.89 437.76 100.89 437.76 106.56 432.09 106.56 432.09 100.89 432.09 100.89" style="fill:none;stroke:#ffd3fd;stroke-linejoin:round;stroke-width:0.7200000286102295px"/><polygon points="501.24 82.11 506.92 82.11 506.92 87.78 501.24 87.78 501.24 82.11 501.24 82.11" style="fill:#ff25f3;fill-rule:evenodd"/><polygon points="501.24 82.11 506.92 82.11 506.92 87.78 501.24 87.78 501.24 82.11 501.24 82.11" style="fill:none;stroke:#ffd3fd;stroke-linejoin:round;stroke-width:0.7200000286102295px"/><polygon points="570.4 90.22 576.07 90.22 576.07 95.89 570.4 95.89 570.4 90.22 570.4 90.22" style="fill:#ff25f3;fill-rule:evenodd"/><polygon points="570.4 90.22 576.07 90.22 576.07 95.89 570.4 95.89 570.4 90.22 570.4 90.22" style="fill:none;stroke:#ffd3fd;stroke-linejoin:round;stroke-width:0.7200000286102295px"/><polygon points="639.55 114.26 645.22 114.26 645.22 119.93 639.55 119.93 639.55 114.26 639.55 114.26" style="fill:#ff25f3;fill-rule:evenodd"/><polygon points="639.55 114.26 645.22 114.26 645.22 119.93 639.55 119.93 639.55 114.26 639.55 114.26" style="fill:none;stroke:#ffd3fd;stroke-linejoin:round;stroke-width:0.7200000286102295px"/><polygon points="708.7 143.84 714.38 143.84 714.38 149.51 708.7 149.51 708.7 143.84 708.7 143.84" style="fill:#ff25f3;fill-rule:evenodd"/><polygon points="708.7 143.84 714.38 143.84 714.38 149.51 708.7 149.51 708.7 143.84 708.7 143.84" style="fill:none;stroke:#ffd3fd;stroke-linejoin:round;stroke-width:0.7200000286102295px"/><polygon points="777.86 165.31 783.53 165.31 783.53 170.98 777.86 170.98 777.86 165.31 777.86 165.31" style="fill:#ff25f3;fill-rule:evenodd"/><polygon points="777.86 165.31 783.53 165.31 783.53 170.98 777.86 170.98 777.86 165.31 777.86 165.31" style="fill:none;stroke:#ffd3fd;stroke-linejoin:round;stroke-width:0.7200000286102295px"/><polygon points="847.14 189.49 852.82 189.49 852.82 195.16 847.14 195.16 847.14 189.49 847.14 189.49" style="fill:#ff25f3;fill-rule:evenodd"/><polygon points="847.14 189.49 852.82 189.49 852.82 195.16 847.14 195.16 847.14 189.49 847.14 189.49" style="fill:none;stroke:#ffd3fd;stroke-linejoin:round;stroke-width:0.7200000286102295px"/></g><g style="clip-path:url(#clip-path-6)"><polyline points="89.04 219.03 158.19 205.66 227.34 178.78 296.5 160.01 365.79 141.23 434.94 117.06 504.09 98.28 573.25 106.39 642.4 130.56 711.55 160.01 780.71 181.48 850 205.66" style="fill:none;stroke:#06f;stroke-linecap:round;stroke-linejoin:round;stroke-width:2.1599998474121094px"/></g><g style="clip-path:url(#clip-path-7)"><path d="M91.86,219.07A2.84,2.84,0,1,1,89,216.23a2.84,2.84,0,0,1,2.84,2.84Z" style="fill:#06f"/><path d="M91.86,219.07A2.84,2.84,0,1,1,89,216.23a2.84,2.84,0,0,1,2.84,2.84Z" style="fill:none;stroke:#6b77e8;stroke-linejoin:round;stroke-width:0.7200000286102295px"/><path d="M161,205.7a2.84,2.84,0,1,1-2.83-2.84A2.83,2.83,0,0,1,161,205.7Z" style="fill:#06f"/><path d="M161,205.7a2.84,2.84,0,1,1-2.83-2.84A2.83,2.83,0,0,1,161,205.7Z" style="fill:none;stroke:#6b77e8;stroke-linejoin:round;stroke-width:0.7200000286102295px"/><path d="M230.17,178.82a2.84,2.84,0,1,1-2.84-2.84,2.84,2.84,0,0,1,2.84,2.84Z" style="fill:#06f"/><path d="M230.17,178.82a2.84,2.84,0,1,1-2.84-2.84,2.84,2.84,0,0,1,2.84,2.84Z" style="fill:none;stroke:#6b77e8;stroke-linejoin:round;stroke-width:0.7200000286102295px"/><path d="M299.32,160a2.84,2.84,0,1,1-2.84-2.83,2.84,2.84,0,0,1,2.84,2.83Z" style="fill:#06f"/><path d="M299.32,160a2.84,2.84,0,1,1-2.84-2.83,2.84,2.84,0,0,1,2.84,2.83Z" style="fill:none;stroke:#6b77e8;stroke-linejoin:round;stroke-width:0.7200000286102295px"/><path d="M368.61,141.27a2.84,2.84,0,1,1-2.84-2.84,2.84,2.84,0,0,1,2.84,2.84Z" style="fill:#06f"/><path d="M368.61,141.27a2.84,2.84,0,1,1-2.84-2.84,2.84,2.84,0,0,1,2.84,2.84Z" style="fill:none;stroke:#6b77e8;stroke-linejoin:round;stroke-width:0.7200000286102295px"/><path d="M437.76,117.09a2.84,2.84,0,1,1-2.84-2.83,2.84,2.84,0,0,1,2.84,2.83Z" style="fill:#06f"/><path d="M437.76,117.09a2.84,2.84,0,1,1-2.84-2.83,2.84,2.84,0,0,1,2.84,2.83Z" style="fill:none;stroke:#6b77e8;stroke-linejoin:round;stroke-width:0.7200000286102295px"/><path d="M506.91,98.32a2.84,2.84,0,1,1-2.83-2.84,2.83,2.83,0,0,1,2.83,2.84Z" style="fill:#06f"/><path d="M506.91,98.32a2.84,2.84,0,1,1-2.83-2.84,2.83,2.83,0,0,1,2.83,2.84Z" style="fill:none;stroke:#6b77e8;stroke-linejoin:round;stroke-width:0.7200000286102295px"/><path d="M576.07,106.42a2.84,2.84,0,1,1-2.84-2.83,2.84,2.84,0,0,1,2.84,2.83Z" style="fill:#06f"/><path d="M576.07,106.42a2.84,2.84,0,1,1-2.84-2.83,2.84,2.84,0,0,1,2.84,2.83Z" style="fill:none;stroke:#6b77e8;stroke-linejoin:round;stroke-width:0.7200000286102295px"/><path d="M645.22,130.6a2.84,2.84,0,1,1-2.83-2.84,2.84,2.84,0,0,1,2.83,2.84Z" style="fill:#06f"/><path d="M645.22,130.6a2.84,2.84,0,1,1-2.83-2.84,2.84,2.84,0,0,1,2.83,2.84Z" style="fill:none;stroke:#6b77e8;stroke-linejoin:round;stroke-width:0.7200000286102295px"/><path d="M714.38,160a2.84,2.84,0,1,1-2.84-2.83,2.84,2.84,0,0,1,2.84,2.83Z" style="fill:#06f"/><path d="M714.38,160a2.84,2.84,0,1,1-2.84-2.83,2.84,2.84,0,0,1,2.84,2.83Z" style="fill:none;stroke:#6b77e8;stroke-linejoin:round;stroke-width:0.7200000286102295px"/><path d="M783.53,181.52a2.84,2.84,0,1,1-2.84-2.84,2.84,2.84,0,0,1,2.84,2.84Z" style="fill:#06f"/><path d="M783.53,181.52a2.84,2.84,0,1,1-2.84-2.84,2.84,2.84,0,0,1,2.84,2.84Z" style="fill:none;stroke:#6b77e8;stroke-linejoin:round;stroke-width:0.7200000286102295px"/><path d="M852.82,205.7a2.84,2.84,0,1,1-2.84-2.84,2.84,2.84,0,0,1,2.84,2.84Z" style="fill:#06f"/><path d="M852.82,205.7a2.84,2.84,0,1,1-2.84-2.84,2.84,2.84,0,0,1,2.84,2.84Z" style="fill:none;stroke:#6b77e8;stroke-linejoin:round;stroke-width:0.7200000286102295px"/></g><g style="clip-path:url(#clip-path-10)"><text transform="translate(26.03 289.39)" style="font-size:10.129919052124023px;font-family:ArialMT, Arial"><tspan style="letter-spacing:0.0029885172175835224em">0</tspan><tspan x="5.66" y="0" style="letter-spacing:0.0020244794054598055em">.</tspan><tspan x="8.5" y="0" style="letter-spacing:-0.009061955433962939em">0</tspan><tspan x="14.04" y="0">0</tspan></text></g><g style="clip-path:url(#clip-path-10)"><text transform="translate(26.03 222.31)" style="font-size:10.129919052124023px;font-family:ArialMT, Arial"><tspan style="letter-spacing:0.0029885172175835224em">0</tspan><tspan x="5.66" y="0" style="letter-spacing:0.0020244794054598055em">.</tspan><tspan x="8.5" y="0" style="letter-spacing:-0.009061955433962939em">2</tspan><tspan x="14.04" y="0">5</tspan></text></g><g style="clip-path:url(#clip-path-10)"><text transform="translate(26.03 155.23)" style="font-size:10.129919052124023px;font-family:ArialMT, Arial"><tspan style="letter-spacing:0.0029885172175835224em">0</tspan><tspan x="5.66" y="0" style="letter-spacing:0.0020244794054598055em">.</tspan><tspan x="8.5" y="0" style="letter-spacing:-0.009061955433962939em">5</tspan><tspan x="14.04" y="0">0</tspan></text></g><g style="clip-path:url(#clip-path-10)"><text transform="translate(26.03 88.15)" style="font-size:10.129919052124023px;font-family:ArialMT, Arial"><tspan style="letter-spacing:0.0029885172175835224em">0</tspan><tspan x="5.66" y="0" style="letter-spacing:0.0020244794054598055em">.</tspan><tspan x="8.5" y="0" style="letter-spacing:-0.009061955433962939em">7</tspan><tspan x="14.04" y="0">5</tspan></text></g><g style="clip-path:url(#clip-path-10)"><text transform="translate(26.03 21.07)" style="font-size:10.129919052124023px;font-family:ArialMT, Arial"><tspan style="letter-spacing:0.0029885172175835224em">1</tspan><tspan x="5.66" y="0" style="letter-spacing:0.0020244794054598055em">.</tspan><tspan x="8.5" y="0" style="letter-spacing:-0.009061955433962939em">0</tspan><tspan x="14.04" y="0">0</tspan></text></g><g style="clip-path:url(#clip-path-10)"><text transform="translate(86.22 301.45)" style="font-size:10.129919052124023px;font-family:ArialMT, Arial">1</text></g><g style="clip-path:url(#clip-path-10)"><text transform="translate(155.4 301.45)" style="font-size:10.129919052124023px;font-family:ArialMT, Arial">2</text></g><g style="clip-path:url(#clip-path-10)"><text transform="translate(224.57 301.45)" style="font-size:10.129919052124023px;font-family:ArialMT, Arial">3</text></g><g style="clip-path:url(#clip-path-10)"><text transform="translate(293.73 301.45)" style="font-size:10.129919052124023px;font-family:ArialMT, Arial">4</text></g><g style="clip-path:url(#clip-path-10)"><text transform="translate(362.91 301.45)" style="font-size:10.129919052124023px;font-family:ArialMT, Arial">1</text></g><g style="clip-path:url(#clip-path-10)"><text transform="translate(432.08 301.45)" style="font-size:10.129919052124023px;font-family:ArialMT, Arial">2</text></g><g style="clip-path:url(#clip-path-10)"><text transform="translate(501.25 301.45)" style="font-size:10.129919052124023px;font-family:ArialMT, Arial">3</text></g><g style="clip-path:url(#clip-path-10)"><text transform="translate(570.43 301.45)" style="font-size:10.129919052124023px;font-family:ArialMT, Arial">4</text></g><g style="clip-path:url(#clip-path-10)"><text transform="translate(639.59 301.45)" style="font-size:10.129919052124023px;font-family:ArialMT, Arial">1</text></g><g style="clip-path:url(#clip-path-10)"><text transform="translate(708.77 301.45)" style="font-size:10.129919052124023px;font-family:ArialMT, Arial">2</text></g><g style="clip-path:url(#clip-path-10)"><text transform="translate(777.95 301.45)" style="font-size:10.129919052124023px;font-family:ArialMT, Arial">3</text></g><g style="clip-path:url(#clip-path-10)"><text transform="translate(847.12 301.45)" style="font-size:10.129919052124023px;font-family:ArialMT, Arial">4</text></g><g style="clip-path:url(#clip-path-10)"><text transform="translate(184.63 319.72)" style="font-size:10.129919052124023px;font-family:ArialMT, Arial"><tspan style="letter-spacing:0.005977034435167045em">J</tspan><tspan x="5.13" y="0" style="letter-spacing:-0.009061955433962939em">a</tspan><tspan x="10.67" y="0">n</tspan></text></g><g style="clip-path:url(#clip-path-10)"><text transform="translate(460.75 319.72)" style="font-size:10.129919052124023px;font-family:ArialMT, Arial"><tspan style="letter-spacing:0.0020244794054598055em">F</tspan><tspan x="6.21" y="0" style="letter-spacing:0.0029885172175835224em">e</tspan><tspan x="11.87" y="0">b</tspan></text></g><g style="clip-path:url(#clip-path-10)"><text transform="translate(737.46 319.72)" style="font-size:10.129919052124023px;font-family:ArialMT, Arial"><tspan style="letter-spacing:-0.005977034435167045em">M</tspan><tspan x="8.38" y="0" style="letter-spacing:0.0029885172175835224em">a</tspan><tspan x="14.04" y="0">r</tspan></text></g><g style="clip-path:url(#clip-path-10)"><text transform="translate(21.04 207.71) rotate(-90)" style="font-size:11.210443496704102px;font-family:Arial-BoldMT, Arial;font-weight:700">ND<tspan x="16.19" y="0" style="letter-spacing:-0.004007145213586523em">V</tspan><tspan x="23.62" y="0">I</tspan><tspan x="26.74" y="0" style="letter-spacing:0.011063205263597574em"> </tspan><tspan x="29.98" y="0"> </tspan><tspan x="33.09" y="0" style="letter-spacing:-0.004007145213586523em">V</tspan><tspan x="40.52" y="0" style="letter-spacing:-0.0009582303771619946em">a</tspan><tspan x="46.75" y="0">l</tspan><tspan x="49.86" y="0" style="letter-spacing:0.003048914836424528em">u</tspan><tspan x="56.74" y="0">e</tspan></text></g><g style="clip-path:url(#clip-path-10)"><text transform="translate(437.21 339.09)" style="font-size:11.210443496704102px;font-family:Arial-BoldMT, Arial;font-weight:700"><tspan style="letter-spacing:0.006968948197541778em">W</tspan><tspan x="10.66" y="0" style="letter-spacing:-0.0009582303771619946em">ee</tspan><tspan x="23.11" y="0">k</tspan></text></g><polygon points="3.68 3.06 896.46 3.06 896.46 346.94 3.68 346.94 3.68 3.06 3.68 3.06" style="fill:none;stroke:#d9d9d9;stroke-linejoin:round;stroke-width:0.7200000286102295px"/></svg>