<svg id="Layer_1" data-name="Layer 1" xmlns="http://www.w3.org/2000/svg" xmlns:xlink="http://www.w3.org/1999/xlink" viewBox="0 0 900 350"><defs><clipPath id="clip-path"><polygon points="1.02 348.78 898.98 348.78 898.98 1.22 1.02 1.22 1.02 348.78 1.02 348.78" style="fill:none;clip-rule:evenodd"/></clipPath><clipPath id="clip-path-3"><polygon points="83.78 306.46 813.78 306.46 813.78 61.86 83.78 61.86 83.78 306.46 83.78 306.46" style="fill:none;clip-rule:evenodd"/></clipPath><clipPath id="clip-path-13"><rect x="1.03" y="1.22" width="897.95" height="347.57" style="fill:none"/></clipPath></defs><title>price-volatility</title><polygon points="1.02 1.22 898.98 1.22 898.98 348.78 1.02 348.78 1.02 1.22 1.02 1.22" style="fill:#f2f2f2;fill-rule:evenodd"/><polygon points="83.92 61.99 813.1 61.99 813.1 305.64 83.92 305.64 83.92 61.99 83.92 61.99" style="fill:#fff;fill-rule:evenodd"/><path d="M83.91,62V305.64M114.3,62V305.64M144.69,62V305.64M175.08,62V305.64M205.47,62V305.64M235.86,62V305.64M266.25,62V305.64M296.63,62V305.64M326.89,62V305.64M357.27,62V305.64M387.66,62V305.64M418.05,62V305.64M448.44,62V305.64M478.83,62V305.64M509.22,62V305.64M539.61,62V305.64M570,62V305.64M600.38,62V305.64M630.77,62V305.64M661.16,62V305.64M691.55,62V305.64M721.94,62V305.64M752.32,62V305.64M782.71,62V305.64M813.1,62V305.64" style="fill:none;stroke:#b7b7b7;stroke-linecap:round;stroke-linejoin:round;stroke-width:0.7199999690055847px"/><g style="clip-path:url(#clip-path)"><path d="M83.91,251.11H813.1M83.91,196.43H813.1M83.91,141.76H813.1M83.91,87.09H813.1" style="fill:none;stroke:#d9d9d9;stroke-linejoin:round;stroke-width:0.7199999690055847px"/></g><g style="clip-path:url(#clip-path)"><polygon points="83.92 61.99 813.1 61.99 813.1 305.64 83.92 305.64 83.92 61.99 83.92 61.99" style="fill:none;stroke:#fff;stroke-linejoin:round;stroke-width:0.7199999690055847px"/></g><g style="clip-path:url(#clip-path-3)"><polygon points="90.97 303.2 100.33 303.2 100.33 305.64 90.97 305.64 90.97 303.2 90.97 303.2" style="fill:#ff25f3;fill-rule:evenodd"/><polygon points="90.97 303.2 100.33 303.2 100.33 305.64 90.97 305.64 90.97 303.2 90.97 303.2" style="fill:none;stroke:#ff25f3;stroke-linejoin:round;stroke-width:0.7199999690055847px"/><polygon points="151.75 304.69 160.97 304.69 160.97 305.64 151.75 305.64 151.75 304.69 151.75 304.69" style="fill:#ff25f3;fill-rule:evenodd"/><polygon points="151.75 304.69 160.97 304.69 160.97 305.64 151.75 305.64 151.75 304.69 151.75 304.69" style="fill:none;stroke:#ff25f3;stroke-linejoin:round;stroke-width:0.7199999690055847px"/><polygon points="212.39 302.52 221.75 302.52 221.75 305.64 212.39 305.64 212.39 302.52 212.39 302.52" style="fill:#ff25f3;fill-rule:evenodd"/><polygon points="212.39 302.52 221.75 302.52 221.75 305.64 212.39 305.64 212.39 302.52 212.39 302.52" style="fill:none;stroke:#ff25f3;stroke-linejoin:round;stroke-width:0.7199999690055847px"/><polygon points="273.16 293.43 282.52 293.43 282.52 305.64 273.16 305.64 273.16 293.43 273.16 293.43" style="fill:#ff25f3;fill-rule:evenodd"/><polygon points="273.16 293.43 282.52 293.43 282.52 305.64 273.16 305.64 273.16 293.43 273.16 293.43" style="fill:none;stroke:#ff25f3;stroke-linejoin:round;stroke-width:0.7199999690055847px"/><polygon points="333.94 302.39 343.3 302.39 343.3 305.64 333.94 305.64 333.94 302.39 333.94 302.39" style="fill:#ff25f3;fill-rule:evenodd"/><polygon points="333.94 302.39 343.3 302.39 343.3 305.64 333.94 305.64 333.94 302.39 333.94 302.39" style="fill:none;stroke:#ff25f3;stroke-linejoin:round;stroke-width:0.7199999690055847px"/><polygon points="394.72 299.27 404.08 299.27 404.08 305.64 394.72 305.64 394.72 299.27 394.72 299.27" style="fill:#ff25f3;fill-rule:evenodd"/><polygon points="394.72 299.27 404.08 299.27 404.08 305.64 394.72 305.64 394.72 299.27 394.72 299.27" style="fill:none;stroke:#ff25f3;stroke-linejoin:round;stroke-width:0.7199999690055847px"/><polygon points="455.49 302.93 464.86 302.93 464.86 305.64 455.49 305.64 455.49 302.93 455.49 302.93" style="fill:#ff25f3;fill-rule:evenodd"/><polygon points="455.49 302.93 464.86 302.93 464.86 305.64 455.49 305.64 455.49 302.93 455.49 302.93" style="fill:none;stroke:#ff25f3;stroke-linejoin:round;stroke-width:0.7199999690055847px"/><polygon points="516.27 304.15 525.63 304.15 525.63 305.64 516.27 305.64 516.27 304.15 516.27 304.15" style="fill:#ff25f3;fill-rule:evenodd"/><polygon points="516.27 304.15 525.63 304.15 525.63 305.64 516.27 305.64 516.27 304.15 516.27 304.15" style="fill:none;stroke:#ff25f3;stroke-linejoin:round;stroke-width:0.7199999690055847px"/><polygon points="577.05 304.15 586.41 304.15 586.41 305.64 577.05 305.64 577.05 304.15 577.05 304.15" style="fill:#ff25f3;fill-rule:evenodd"/><polygon points="577.05 304.15 586.41 304.15 586.41 305.64 577.05 305.64 577.05 304.15 577.05 304.15" style="fill:none;stroke:#ff25f3;stroke-linejoin:round;stroke-width:0.7199999690055847px"/><polygon points="637.83 301.71 647.18 301.71 647.18 305.64 637.83 305.64 637.83 301.71 637.83 301.71" style="fill:#ff25f3;fill-rule:evenodd"/><polygon points="637.83 301.71 647.18 301.71 647.18 305.64 637.83 305.64 637.83 301.71 637.83 301.71" style="fill:none;stroke:#ff25f3;stroke-linejoin:round;stroke-width:0.7199999690055847px"/><polygon points="698.47 303.34 707.83 303.34 707.83 305.64 698.47 305.64 698.47 303.34 698.47 303.34" style="fill:#ff25f3;fill-rule:evenodd"/><polygon points="698.47 303.34 707.83 303.34 707.83 305.64 698.47 305.64 698.47 303.34 698.47 303.34" style="fill:none;stroke:#ff25f3;stroke-linejoin:round;stroke-width:0.7199999690055847px"/><polygon points="759.24 302.66 768.6 302.66 768.6 305.64 759.24 305.64 759.24 302.66 759.24 302.66" style="fill:#ff25f3;fill-rule:evenodd"/><polygon points="759.24 302.66 768.6 302.66 768.6 305.64 759.24 305.64 759.24 302.66 759.24 302.66" style="fill:none;stroke:#ff25f3;stroke-linejoin:round;stroke-width:0.7199999690055847px"/></g><g style="clip-path:url(#clip-path-3)"><polygon points="282.52 293.03 291.88 293.03 291.88 305.64 282.52 305.64 282.52 293.03 282.52 293.03" style="fill:#00c1a3;fill-rule:evenodd"/></g><g style="clip-path:url(#clip-path-3)"><polygon points="109.56 280.55 118.92 280.55 118.92 305.64 109.56 305.64 109.56 280.55 109.56 280.55" style="fill:#2935e8;fill-rule:evenodd"/><polygon points="109.56 280.55 118.92 280.55 118.92 305.64 109.56 305.64 109.56 280.55 109.56 280.55" style="fill:none;stroke:#2935e8;stroke-linejoin:round;stroke-width:0.7199999690055847px"/><polygon points="170.33 281.09 179.69 281.09 179.69 305.64 170.33 305.64 170.33 281.09 170.33 281.09" style="fill:#2935e8;fill-rule:evenodd"/><polygon points="170.33 281.09 179.69 281.09 179.69 305.64 170.33 305.64 170.33 281.09 170.33 281.09" style="fill:none;stroke:#2935e8;stroke-linejoin:round;stroke-width:0.7199999690055847px"/><polygon points="231.11 232.79 240.47 232.79 240.47 305.64 231.11 305.64 231.11 232.79 231.11 232.79" style="fill:#2935e8;fill-rule:evenodd"/><polygon points="231.11 232.79 240.47 232.79 240.47 305.64 231.11 305.64 231.11 232.79 231.11 232.79" style="fill:none;stroke:#2935e8;stroke-linejoin:round;stroke-width:0.7199999690055847px"/><polygon points="291.88 118.02 301.25 118.02 301.25 305.64 291.88 305.64 291.88 118.02 291.88 118.02" style="fill:#2935e8;fill-rule:evenodd"/><polygon points="291.88 118.02 301.25 118.02 301.25 305.64 291.88 305.64 291.88 118.02 291.88 118.02" style="fill:none;stroke:#2935e8;stroke-linejoin:round;stroke-width:0.7199999690055847px"/><polygon points="352.66 178.53 362.02 178.53 362.02 305.64 352.66 305.64 352.66 178.53 352.66 178.53" style="fill:#2935e8;fill-rule:evenodd"/><polygon points="352.66 178.53 362.02 178.53 362.02 305.64 352.66 305.64 352.66 178.53 352.66 178.53" style="fill:none;stroke:#2935e8;stroke-linejoin:round;stroke-width:0.7199999690055847px"/><polygon points="413.44 267.66 422.8 267.66 422.8 305.64 413.44 305.64 413.44 267.66 413.44 267.66" style="fill:#2935e8;fill-rule:evenodd"/><polygon points="413.44 267.66 422.8 267.66 422.8 305.64 413.44 305.64 413.44 267.66 413.44 267.66" style="fill:none;stroke:#2935e8;stroke-linejoin:round;stroke-width:0.7199999690055847px"/><polygon points="474.22 280.68 483.58 280.68 483.58 305.64 474.22 305.64 474.22 280.68 474.22 280.68" style="fill:#2935e8;fill-rule:evenodd"/><polygon points="474.22 280.68 483.58 280.68 483.58 305.64 474.22 305.64 474.22 280.68 474.22 280.68" style="fill:none;stroke:#2935e8;stroke-linejoin:round;stroke-width:0.7199999690055847px"/><polygon points="534.99 288.14 544.35 288.14 544.35 305.64 534.99 305.64 534.99 288.14 534.99 288.14" style="fill:#2935e8;fill-rule:evenodd"/><polygon points="534.99 288.14 544.35 288.14 544.35 305.64 534.99 305.64 534.99 288.14 534.99 288.14" style="fill:none;stroke:#2935e8;stroke-linejoin:round;stroke-width:0.7199999690055847px"/><polygon points="595.77 280.68 604.99 280.68 604.99 305.64 595.77 305.64 595.77 280.68 595.77 280.68" style="fill:#2935e8;fill-rule:evenodd"/><polygon points="595.77 280.68 604.99 280.68 604.99 305.64 595.77 305.64 595.77 280.68 595.77 280.68" style="fill:none;stroke:#2935e8;stroke-linejoin:round;stroke-width:0.7199999690055847px"/><polygon points="656.41 287.74 665.77 287.74 665.77 305.64 656.41 305.64 656.41 287.74 656.41 287.74" style="fill:#2935e8;fill-rule:evenodd"/><polygon points="656.41 287.74 665.77 287.74 665.77 305.64 656.41 305.64 656.41 287.74 656.41 287.74" style="fill:none;stroke:#2935e8;stroke-linejoin:round;stroke-width:0.7199999690055847px"/><polygon points="717.19 288.96 726.55 288.96 726.55 305.64 717.19 305.64 717.19 288.96 717.19 288.96" style="fill:#2935e8;fill-rule:evenodd"/><polygon points="717.19 288.96 726.55 288.96 726.55 305.64 717.19 305.64 717.19 288.96 717.19 288.96" style="fill:none;stroke:#2935e8;stroke-linejoin:round;stroke-width:0.7199999690055847px"/><polygon points="777.96 288.69 787.33 288.69 787.33 305.64 777.96 305.64 777.96 288.69 777.96 288.69" style="fill:#2935e8;fill-rule:evenodd"/><polygon points="777.96 288.69 787.33 288.69 787.33 305.64 777.96 305.64 777.96 288.69 777.96 288.69" style="fill:none;stroke:#2935e8;stroke-linejoin:round;stroke-width:0.7199999690055847px"/></g><g style="clip-path:url(#clip-path-3)"><polygon points="118.92 300.49 128.28 300.49 128.28 305.64 118.92 305.64 118.92 300.49 118.92 300.49" style="fill:#aa77e8;fill-rule:evenodd"/><polygon points="118.92 300.49 128.28 300.49 128.28 305.64 118.92 305.64 118.92 300.49 118.92 300.49" style="fill:none;stroke:#aa77e8;stroke-linejoin:round;stroke-width:0.7199999690055847px"/><polygon points="179.69 300.49 189.05 300.49 189.05 305.64 179.69 305.64 179.69 300.49 179.69 300.49" style="fill:#aa77e8;fill-rule:evenodd"/><polygon points="179.69 300.49 189.05 300.49 189.05 305.64 179.69 305.64 179.69 300.49 179.69 300.49" style="fill:none;stroke:#aa77e8;stroke-linejoin:round;stroke-width:0.7199999690055847px"/><polygon points="240.47 300.22 249.83 300.22 249.83 305.64 240.47 305.64 240.47 300.22 240.47 300.22" style="fill:#aa77e8;fill-rule:evenodd"/><polygon points="240.47 300.22 249.83 300.22 249.83 305.64 240.47 305.64 240.47 300.22 240.47 300.22" style="fill:none;stroke:#aa77e8;stroke-linejoin:round;stroke-width:0.7199999690055847px"/><polygon points="301.25 291.67 310.61 291.67 310.61 305.64 301.25 305.64 301.25 291.67 301.25 291.67" style="fill:#aa77e8;fill-rule:evenodd"/><polygon points="301.25 291.67 310.61 291.67 310.61 305.64 301.25 305.64 301.25 291.67 301.25 291.67" style="fill:none;stroke:#aa77e8;stroke-linejoin:round;stroke-width:0.7199999690055847px"/><polygon points="362.02 284.07 371.38 284.07 371.38 305.64 362.02 305.64 362.02 284.07 362.02 284.07" style="fill:#aa77e8;fill-rule:evenodd"/><polygon points="362.02 284.07 371.38 284.07 371.38 305.64 362.02 305.64 362.02 284.07 362.02 284.07" style="fill:none;stroke:#aa77e8;stroke-linejoin:round;stroke-width:0.7199999690055847px"/><polygon points="422.8 279.46 432.16 279.46 432.16 305.64 422.8 305.64 422.8 279.46 422.8 279.46" style="fill:#aa77e8;fill-rule:evenodd"/><polygon points="422.8 279.46 432.16 279.46 432.16 305.64 422.8 305.64 422.8 279.46 422.8 279.46" style="fill:none;stroke:#aa77e8;stroke-linejoin:round;stroke-width:0.7199999690055847px"/><polygon points="483.58 294.11 492.94 294.11 492.94 305.64 483.58 305.64 483.58 294.11 483.58 294.11" style="fill:#aa77e8;fill-rule:evenodd"/><polygon points="483.58 294.11 492.94 294.11 492.94 305.64 483.58 305.64 483.58 294.11 483.58 294.11" style="fill:none;stroke:#aa77e8;stroke-linejoin:round;stroke-width:0.7199999690055847px"/><polygon points="544.35 298.32 553.58 298.32 553.58 305.64 544.35 305.64 544.35 298.32 544.35 298.32" style="fill:#aa77e8;fill-rule:evenodd"/><polygon points="544.35 298.32 553.58 298.32 553.58 305.64 544.35 305.64 544.35 298.32 544.35 298.32" style="fill:none;stroke:#aa77e8;stroke-linejoin:round;stroke-width:0.7199999690055847px"/><polygon points="604.99 301.71 614.36 301.71 614.36 305.64 604.99 305.64 604.99 301.71 604.99 301.71" style="fill:#aa77e8;fill-rule:evenodd"/><polygon points="604.99 301.71 614.36 301.71 614.36 305.64 604.99 305.64 604.99 301.71 604.99 301.71" style="fill:none;stroke:#aa77e8;stroke-linejoin:round;stroke-width:0.7199999690055847px"/><polygon points="665.77 302.12 675.13 302.12 675.13 305.64 665.77 305.64 665.77 302.12 665.77 302.12" style="fill:#aa77e8;fill-rule:evenodd"/><polygon points="665.77 302.12 675.13 302.12 675.13 305.64 665.77 305.64 665.77 302.12 665.77 302.12" style="fill:none;stroke:#aa77e8;stroke-linejoin:round;stroke-width:0.7199999690055847px"/><polygon points="726.55 303.47 735.91 303.47 735.91 305.64 726.55 305.64 726.55 303.47 726.55 303.47" style="fill:#aa77e8;fill-rule:evenodd"/><polygon points="726.55 303.47 735.91 303.47 735.91 305.64 726.55 305.64 726.55 303.47 726.55 303.47" style="fill:none;stroke:#aa77e8;stroke-linejoin:round;stroke-width:0.7199999690055847px"/><polygon points="787.33 302.52 796.68 302.52 796.68 305.64 787.33 305.64 787.33 302.52 787.33 302.52" style="fill:#aa77e8;fill-rule:evenodd"/><polygon points="787.33 302.52 796.68 302.52 796.68 305.64 787.33 305.64 787.33 302.52 787.33 302.52" style="fill:none;stroke:#aa77e8;stroke-linejoin:round;stroke-width:0.7199999690055847px"/></g><g style="clip-path:url(#clip-path-3)"><path d="M128.28,299.54h9.36v6.1h-9.36v-6.1Zm60.77-1.36h9.36v7.46h-9.36v-7.46Zm60.78-7.87h9.36v15.33h-9.36V290.31Zm60.78,3.94H320v11.39h-9.36V294.25Zm60.77,5.29h9.36v6.1h-9.36v-6.1ZM432.16,296h9.36v9.63h-9.36V296Zm60.78,3.26h9.22v6.37h-9.22v-6.37Zm60.64-1.22h9.36v7.59h-9.36v-7.59ZM614.36,297h9.36v8.68h-9.36V297Zm60.77,1.63h9.36v7.05h-9.36v-7.05Zm60.78,3h9.36v4.07h-9.36v-4.07Zm60.78-.95h9.36v5h-9.36v-5Z" style="fill:#b5bdf3"/></g><g style="clip-path:url(#clip-path)"><line x1="83.91" y1="305.64" x2="813.1" y2="305.64" style="fill:none;stroke:#868686;stroke-linejoin:round;stroke-width:0.7199999690055847px"/></g><g style="clip-path:url(#clip-path-3)"><polyline points="114.3 147.6 175.08 150.58 235.86 148.82 296.63 143.53 357.27 145.29 418.05 149.63 478.83 149.63 539.61 142.98 600.38 128.47 661.16 121.68 721.93 119.24 782.71 120.06" style="fill:none;stroke:#ff25f3;stroke-linecap:round;stroke-linejoin:round;stroke-width:2.1599998474121094px"/></g><g style="clip-path:url(#clip-path-3)"><polyline points="114.3 149.09 175.08 152.48 235.86 148.14 296.63 138.51 357.27 132.94 418.05 145.02 478.83 144.48 539.61 140.27 600.38 129.42 661.16 128.74 721.93 126.84 782.71 127.38" style="fill:none;stroke:#2935e8;stroke-linecap:round;stroke-linejoin:round;stroke-width:2.1599998474121094px"/></g><g style="clip-path:url(#clip-path-3)"><polyline points="114.3 154.79 175.08 153.02 235.86 157.63 296.63 130.91 357.27 126.84 418.05 130.5 478.83 156.55 539.61 153.16 600.38 142.31 661.16 134.57 721.93 130.77 782.71 128.6" style="fill:none;stroke:#9264cb;stroke-linecap:round;stroke-linejoin:round;stroke-width:2.1599998474121094px"/></g><g style="clip-path:url(#clip-path-3)"><polyline points="114.3 160.62 175.08 161.84 235.86 154.24 296.63 146.24 357.27 150.17 418.05 157.63 478.83 159.81 539.61 153.7 600.38 144.61 661.16 143.53 721.93 140.41 782.71 139.19" style="fill:none;stroke:#bd9fea;stroke-linecap:round;stroke-linejoin:round;stroke-width:2.1599998474121094px"/></g><g style="clip-path:url(#clip-path-13)"><text transform="translate(44.05 308.95)" style="font-size:10.1746826171875px;font-family:ArialMT, Arial"><tspan style="letter-spacing:0.0020155726985878995em"> </tspan><tspan x="2.85" y="0" style="letter-spacing:0.002975369221724994em">2</tspan><tspan x="8.54" y="0" style="letter-spacing:-0.011037660016076591em">,</tspan><tspan x="11.25" y="0" style="letter-spacing:0.0030713488740387036em">00</tspan><tspan x="22.63" y="0">0</tspan></text></g><g style="clip-path:url(#clip-path-13)"><text transform="translate(44.05 248.01)" style="font-size:10.1746826171875px;font-family:ArialMT, Arial"><tspan style="letter-spacing:0.0020155726985878995em"> </tspan><tspan x="2.85" y="0" style="letter-spacing:0.002975369221724994em">8</tspan><tspan x="8.54" y="0" style="letter-spacing:-0.011037660016076591em">,</tspan><tspan x="11.25" y="0" style="letter-spacing:0.0030713488740387036em">00</tspan><tspan x="22.63" y="0">0</tspan></text></g><g style="clip-path:url(#clip-path-13)"><text transform="translate(38.39 187.07)" style="font-size:10.1746826171875px;font-family:ArialMT, Arial"><tspan style="letter-spacing:0.0020155726985878995em"> </tspan><tspan x="2.85" y="0" style="letter-spacing:0.002975369221724994em">1</tspan><tspan x="8.54" y="0" style="letter-spacing:-0.008926107665174984em">4</tspan><tspan x="14.1" y="0" style="letter-spacing:0.0019195930462741898em">,</tspan><tspan x="16.95" y="0" style="letter-spacing:0.0030713488740387036em">00</tspan><tspan x="28.33" y="0">0</tspan></text></g><g style="clip-path:url(#clip-path-13)"><text transform="translate(38.39 126.13)" style="font-size:10.1746826171875px;font-family:ArialMT, Arial"><tspan style="letter-spacing:0.0020155726985878995em"> </tspan><tspan x="2.85" y="0" style="letter-spacing:0.002975369221724994em">2</tspan><tspan x="8.54" y="0" style="letter-spacing:-0.008926107665174984em">0</tspan><tspan x="14.1" y="0" style="letter-spacing:0.0019195930462741898em">,</tspan><tspan x="16.95" y="0" style="letter-spacing:0.0030713488740387036em">00</tspan><tspan x="28.33" y="0">0</tspan></text></g><g style="clip-path:url(#clip-path-13)"><text transform="translate(38.39 65.19)" style="font-size:10.1746826171875px;font-family:ArialMT, Arial"><tspan style="letter-spacing:0.0020155726985878995em"> </tspan><tspan x="2.85" y="0" style="letter-spacing:0.002975369221724994em">2</tspan><tspan x="8.54" y="0" style="letter-spacing:-0.008926107665174984em">6</tspan><tspan x="14.1" y="0" style="letter-spacing:0.0019195930462741898em">,</tspan><tspan x="16.95" y="0" style="letter-spacing:0.0030713488740387036em">00</tspan><tspan x="28.33" y="0">0</tspan></text></g><g style="clip-path:url(#clip-path-13)"><text transform="translate(106.08 321.06)" style="font-size:10.1746826171875px;font-family:ArialMT, Arial"><tspan style="letter-spacing:0.006046718095763698em">J</tspan><tspan x="5.15" y="0" style="letter-spacing:-0.008926107665174984em">a</tspan><tspan x="10.72" y="0">n</tspan></text></g><g style="clip-path:url(#clip-path-13)"><text transform="translate(166.28 321.06)" style="font-size:10.1746826171875px;font-family:ArialMT, Arial"><tspan style="letter-spacing:0.0020155726985878995em">F</tspan><tspan x="6.24" y="0" style="letter-spacing:0.0030713488740387036em">e</tspan><tspan x="11.92" y="0">b</tspan></text></g><g style="clip-path:url(#clip-path-13)"><text transform="translate(227.05 321.06)" style="font-size:10.1746826171875px;font-family:ArialMT, Arial"><tspan style="letter-spacing:-0.006046718095763698em">M</tspan><tspan x="8.41" y="0" style="letter-spacing:0.0030713488740387036em">a</tspan><tspan x="14.1" y="0">r</tspan></text></g><g style="clip-path:url(#clip-path-13)"><text transform="translate(288.65 321.06)" style="font-size:10.1746826171875px;font-family:ArialMT, Arial">A<tspan x="6.79" y="0" style="letter-spacing:0.0030713488740387036em">p</tspan><tspan x="12.48" y="0">r</tspan></text></g><g style="clip-path:url(#clip-path-13)"><text transform="translate(347.72 321.06)" style="font-size:10.1746826171875px;font-family:ArialMT, Arial;letter-spacing:-0.006046718095763698em">M<tspan x="8.41" y="0" style="letter-spacing:0.0030713488740387036em">a</tspan><tspan x="14.1" y="0" style="letter-spacing:0.00009597965231370949em">y</tspan></text></g><g style="clip-path:url(#clip-path-13)"><text transform="translate(409.89 321.06)" style="font-size:10.1746826171875px;font-family:ArialMT, Arial"><tspan style="letter-spacing:0.006046718095763698em">J</tspan><tspan x="5.15" y="0" style="letter-spacing:-0.008926107665174984em">u</tspan><tspan x="10.72" y="0">n</tspan></text></g><g style="clip-path:url(#clip-path-13)"><text transform="translate(472.36 321.06)" style="font-size:10.1746826171875px;font-family:ArialMT, Arial;letter-spacing:0.006046718095763698em">J<tspan x="5.15" y="0" style="letter-spacing:-0.008926107665174984em">u</tspan><tspan x="10.72" y="0" style="letter-spacing:-0.00009597965231370949em">l</tspan></text></g><g style="clip-path:url(#clip-path-13)"><text transform="translate(530.57 321.06)" style="font-size:10.1746826171875px;font-family:ArialMT, Arial">A<tspan x="6.79" y="0" style="letter-spacing:0.0030713488740387036em">u</tspan><tspan x="12.48" y="0">g</tspan></text></g><g style="clip-path:url(#clip-path-13)"><text transform="translate(591.32 321.06)" style="font-size:10.1746826171875px;font-family:ArialMT, Arial">S<tspan x="6.79" y="0" style="letter-spacing:0.0030713488740387036em">e</tspan><tspan x="12.48" y="0">p</tspan></text></g><g style="clip-path:url(#clip-path-13)"><text transform="translate(653.22 321.06)" style="font-size:10.1746826171875px;font-family:ArialMT, Arial"><tspan style="letter-spacing:-0.004031145397175799em">O</tspan><tspan x="7.87" y="0" style="letter-spacing:0.006046718095763698em">c</tspan><tspan x="13.02" y="0">t</tspan></text></g><g style="clip-path:url(#clip-path-13)"><text transform="translate(712.86 321.06)" style="font-size:10.1746826171875px;font-family:ArialMT, Arial"><tspan style="letter-spacing:-0.0020155726985878995em">N</tspan><tspan x="7.33" y="0" style="letter-spacing:0.0030713488740387036em">o</tspan><tspan x="13.02" y="0">v</tspan></text></g><g style="clip-path:url(#clip-path-13)"><text transform="translate(773.62 321.06)" style="font-size:10.1746826171875px;font-family:ArialMT, Arial"><tspan style="letter-spacing:-0.0020155726985878995em">D</tspan><tspan x="7.33" y="0" style="letter-spacing:0.0030713488740387036em">e</tspan><tspan x="13.02" y="0">c</tspan></text></g><g style="clip-path:url(#clip-path-13)"><text transform="translate(821.79 308.95)" style="font-size:10.1746826171875px;font-family:ArialMT, Arial"><tspan style="letter-spacing:0.0020155726985878995em"> </tspan><tspan x="2.85" y="0" style="letter-spacing:0.002975369221724994em">4</tspan><tspan x="8.54" y="0" style="letter-spacing:-0.011037660016076591em">,</tspan><tspan x="11.25" y="0" style="letter-spacing:0.0030713488740387036em">00</tspan><tspan x="22.63" y="0">0</tspan></text></g><g style="clip-path:url(#clip-path-13)"><text transform="translate(821.79 254.29)" style="font-size:10.1746826171875px;font-family:ArialMT, Arial"><tspan style="letter-spacing:0.0020155726985878995em"> </tspan><tspan x="2.85" y="0" style="letter-spacing:0.002975369221724994em">1</tspan><tspan x="8.54" y="0" style="letter-spacing:-0.011037660016076591em">,</tspan><tspan x="11.25" y="0" style="letter-spacing:0.0030713488740387036em">04</tspan><tspan x="22.63" y="0" style="letter-spacing:0.0019195930462741898em">,</tspan><tspan x="25.48" y="0" style="letter-spacing:-0.008926107665174984em">0</tspan><tspan x="31.04" y="0" style="letter-spacing:0.0030713488740387036em">0</tspan><tspan x="36.73" y="0">0</tspan></text></g><g style="clip-path:url(#clip-path-13)"><text transform="translate(821.79 199.64)" style="font-size:10.1746826171875px;font-family:ArialMT, Arial"><tspan style="letter-spacing:0.0020155726985878995em"> </tspan><tspan x="2.85" y="0" style="letter-spacing:0.002975369221724994em">2</tspan><tspan x="8.54" y="0" style="letter-spacing:-0.011037660016076591em">,</tspan><tspan x="11.25" y="0" style="letter-spacing:0.0030713488740387036em">04</tspan><tspan x="22.63" y="0" style="letter-spacing:0.0019195930462741898em">,</tspan><tspan x="25.48" y="0" style="letter-spacing:-0.008926107665174984em">0</tspan><tspan x="31.04" y="0" style="letter-spacing:0.0030713488740387036em">0</tspan><tspan x="36.73" y="0">0</tspan></text></g><g style="clip-path:url(#clip-path-13)"><text transform="translate(821.79 144.98)" style="font-size:10.1746826171875px;font-family:ArialMT, Arial"><tspan style="letter-spacing:0.0020155726985878995em"> </tspan><tspan x="2.85" y="0" style="letter-spacing:0.002975369221724994em">3</tspan><tspan x="8.54" y="0" style="letter-spacing:-0.011037660016076591em">,</tspan><tspan x="11.25" y="0" style="letter-spacing:0.0030713488740387036em">04</tspan><tspan x="22.63" y="0" style="letter-spacing:0.0019195930462741898em">,</tspan><tspan x="25.48" y="0" style="letter-spacing:-0.008926107665174984em">0</tspan><tspan x="31.04" y="0" style="letter-spacing:0.0030713488740387036em">0</tspan><tspan x="36.73" y="0">0</tspan></text></g><g style="clip-path:url(#clip-path-13)"><text transform="translate(821.79 90.32)" style="font-size:10.1746826171875px;font-family:ArialMT, Arial"><tspan style="letter-spacing:0.0020155726985878995em"> </tspan><tspan x="2.85" y="0" style="letter-spacing:0.002975369221724994em">4</tspan><tspan x="8.54" y="0" style="letter-spacing:-0.011037660016076591em">,</tspan><tspan x="11.25" y="0" style="letter-spacing:0.0030713488740387036em">04</tspan><tspan x="22.63" y="0" style="letter-spacing:0.0019195930462741898em">,</tspan><tspan x="25.48" y="0" style="letter-spacing:-0.008926107665174984em">0</tspan><tspan x="31.04" y="0" style="letter-spacing:0.0030713488740387036em">0</tspan><tspan x="36.73" y="0">0</tspan></text></g><g style="clip-path:url(#clip-path-13)"><text transform="translate(438.15 341.72)" style="font-size:10.1746826171875px;font-family:Arial-BoldMT, Arial;font-weight:700"><tspan style="letter-spacing:0.006046718095763698em">M</tspan><tspan x="8.54" y="0" style="letter-spacing:0.0020155726985878995em">on</tspan><tspan x="21.01" y="0" style="letter-spacing:-0.00009597965231370949em">t</tspan><tspan x="24.4" y="0" style="letter-spacing:0.0020155726985878995em">h</tspan><tspan x="30.63" y="0" style="letter-spacing:0.0030713488740387036em">s</tspan><tspan x="36.32" y="0"> </tspan></text></g><g style="clip-path:url(#clip-path-13)"><text transform="translate(888.23 227.67) rotate(-90)" style="font-size:10.1746826171875px;font-family:Arial-BoldMT, Arial;font-weight:700"><tspan style="letter-spacing:0.006046718095763698em">M</tspan><tspan x="8.54" y="0" style="letter-spacing:0.002975369221724994em">a</tspan><tspan x="14.23" y="0" style="letter-spacing:-0.0020155726985878995em">r</tspan><tspan x="18.17" y="0" style="letter-spacing:0.0030713488740387036em">ke</tspan><tspan x="29.54" y="0">t</tspan><tspan x="32.93" y="0" style="letter-spacing:-0.011037660016076591em"> </tspan><tspan x="35.65" y="0" style="letter-spacing:-0.01497282576093868em">A</tspan><tspan x="42.84" y="0" style="letter-spacing:-0.0020155726985878995em">rr</tspan><tspan x="50.72" y="0" style="letter-spacing:0.0019195930462741898em">i</tspan><tspan x="53.57" y="0" style="letter-spacing:-0.008926107665174984em">v</tspan><tspan x="59.13" y="0" style="letter-spacing:0.002975369221724994em">a</tspan><tspan x="64.82" y="0" style="letter-spacing:0.0020155726985878995em">l</tspan><tspan x="67.67" y="0" style="letter-spacing:0.01497282576093868em"> </tspan><tspan x="70.65" y="0">(</tspan><tspan x="74.04" y="0" style="letter-spacing:0.005950738443449988em">M</tspan><tspan x="82.58" y="0" style="letter-spacing:0.0020155726985878995em">T</tspan><tspan x="88.81" y="0">)</tspan></text></g><g style="clip-path:url(#clip-path-13)"><text transform="translate(17.88 239.94) rotate(-90)" style="font-size:10.1746826171875px;font-family:Arial-BoldMT, Arial;font-weight:700"><tspan style="letter-spacing:0.006046718095763698em">M</tspan><tspan x="8.54" y="0" style="letter-spacing:0.002975369221724994em">a</tspan><tspan x="14.23" y="0" style="letter-spacing:-0.0020155726985878995em">r</tspan><tspan x="18.17" y="0" style="letter-spacing:0.0030713488740387036em">ke</tspan><tspan x="29.54" y="0">t</tspan><tspan x="32.93" y="0" style="letter-spacing:-0.011037660016076591em"> </tspan><tspan x="35.65" y="0">P</tspan><tspan x="42.43" y="0" style="letter-spacing:-0.0020155726985878995em">r</tspan><tspan x="46.37" y="0" style="letter-spacing:0.0020155726985878995em">i</tspan><tspan x="49.22" y="0" style="letter-spacing:0.002975369221724994em">ce</tspan><tspan x="60.6" y="0" style="letter-spacing:-0.011037660016076591em"> </tspan><tspan x="63.31" y="0">(</tspan><tspan x="66.7" y="0" style="letter-spacing:-0.0020155726985878995em">R</tspan><tspan x="74.03" y="0" style="letter-spacing:0.0030713488740387036em">s</tspan><tspan x="79.72" y="0" style="letter-spacing:0.0019195930462741898em">./</tspan><tspan x="85.41" y="0" style="letter-spacing:0.005950738443449988em">M</tspan><tspan x="93.95" y="0" style="letter-spacing:0.002111552350901609em">T</tspan><tspan x="100.18" y="0" style="letter-spacing:-0.00009597965231370949em">)</tspan></text></g><g style="clip-path:url(#clip-path)"><polygon points="28.43 14.92 50.13 14.92 50.13 20.07 28.43 20.07 28.43 14.92 28.43 14.92" style="fill:#ff25f3;fill-rule:evenodd"/><polygon points="28.43 14.92 50.13 14.92 50.13 20.07 28.43 20.07 28.43 14.92 28.43 14.92" style="fill:none;stroke:#ff25f3;stroke-linejoin:round;stroke-width:0.7199999690055847px"/></g><g style="clip-path:url(#clip-path-13)"><text transform="translate(52.39 20.76)" style="font-size:10.1746826171875px;font-family:ArialMT, Arial"><tspan style="letter-spacing:-0.004031145397175799em">G</tspan><tspan x="7.87" y="0" style="letter-spacing:0.011037660016076591em">U</tspan><tspan x="15.33" y="0" style="letter-spacing:-0.005950738443449988em">J</tspan><tspan x="20.36" y="0" style="letter-spacing:0.0020155726985878995em"> </tspan><tspan x="23.21" y="0" style="letter-spacing:-0.00009597965231370949em">(</tspan><tspan x="26.59" y="0" style="letter-spacing:-0.0019195930462741898em">R</tspan><tspan x="33.92" y="0" style="letter-spacing:-0.00009597965231370949em">-</tspan><tspan x="37.31" y="0" style="letter-spacing:0.0030713488740387036em">6</tspan><tspan x="43" y="0" style="letter-spacing:-0.011037660016076591em">,</tspan><tspan x="45.71" y="0" style="letter-spacing:0.0019195930462741898em"> </tspan><tspan x="48.56" y="0" style="letter-spacing:-0.0019195930462741898em">R</tspan><tspan x="55.89" y="0" style="letter-spacing:-0.00009597965231370949em">-</tspan><tspan x="59.28" y="0" style="letter-spacing:0.0030713488740387036em">2</tspan><tspan x="64.97" y="0">)</tspan><tspan x="68.36" y="0" style="letter-spacing:0.0019195930462741898em"> </tspan><tspan x="71.2" y="0">Arr</tspan><tspan x="84.77" y="0" style="letter-spacing:0.0039351657448620896em">i</tspan><tspan x="87.07" y="0" style="letter-spacing:-0.005950738443449988em">v</tspan><tspan x="92.09" y="0" style="letter-spacing:0.0030713488740387036em">a</tspan><tspan x="97.78" y="0" style="letter-spacing:-0.00009597965231370949em">l</tspan></text></g><g style="clip-path:url(#clip-path)"><polygon points="203.84 14.92 225.55 14.92 225.55 20.07 203.84 20.07 203.84 14.92 203.84 14.92" style="fill:#00c1a3;fill-rule:evenodd"/></g><g style="clip-path:url(#clip-path-13)"><text transform="translate(227.77 20.76)" style="font-size:10.1746826171875px;font-family:ArialMT, Arial"><tspan style="letter-spacing:-0.0020155726985878995em">H</tspan><tspan x="7.33" y="0" style="letter-spacing:0.00009597965231370949em">A</tspan><tspan x="14.11" y="0" style="letter-spacing:-0.0020155726985878995em">R</tspan><tspan x="21.44" y="0" style="letter-spacing:0.0019195930462741898em"> </tspan><tspan x="24.29" y="0">(</tspan><tspan x="27.68" y="0" style="letter-spacing:-0.0020155726985878995em">R</tspan><tspan x="35" y="0">-</tspan><tspan x="38.39" y="0" style="letter-spacing:0.0030713488740387036em">3</tspan><tspan x="44.08" y="0" style="letter-spacing:-0.00009597965231370949em">)</tspan><tspan x="47.47" y="0" style="letter-spacing:0.0020155726985878995em"> </tspan><tspan x="50.32" y="0">Arr</tspan><tspan x="63.88" y="0" style="letter-spacing:-0.007966311142037889em">i</tspan><tspan x="66.06" y="0" style="letter-spacing:0.006046718095763698em">v</tspan><tspan x="71.21" y="0" style="letter-spacing:0.002975369221724994em">a</tspan><tspan x="76.9" y="0">l</tspan></text></g><g style="clip-path:url(#clip-path)"><polygon points="379.12 14.92 400.82 14.92 400.82 20.07 379.12 20.07 379.12 14.92 379.12 14.92" style="fill:#2935e8;fill-rule:evenodd"/><polygon points="379.12 14.92 400.82 14.92 400.82 20.07 379.12 20.07 379.12 14.92 379.12 14.92" style="fill:none;stroke:#2935e8;stroke-linejoin:round;stroke-width:0.7199999690055847px"/></g><g style="clip-path:url(#clip-path-13)"><text transform="translate(403.15 20.76)" style="font-size:10.1746826171875px;font-family:ArialMT, Arial"><tspan style="letter-spacing:-0.006046718095763698em">M</tspan><tspan x="8.41" y="0" style="letter-spacing:0.01305323271466449em">P</tspan><tspan x="15.33" y="0" style="letter-spacing:-0.011037660016076591em"> </tspan><tspan x="18.05" y="0">(</tspan><tspan x="21.44" y="0" style="letter-spacing:-0.0020155726985878995em">R</tspan><tspan x="28.76" y="0">-</tspan><tspan x="32.15" y="0" style="letter-spacing:0.002975369221724994em">7</tspan><tspan x="37.84" y="0" style="letter-spacing:0.0020155726985878995em">, </tspan><tspan x="43.54" y="0" style="letter-spacing:-0.0020155726985878995em">R</tspan><tspan x="50.86" y="0" style="letter-spacing:-0.00009597965231370949em">-</tspan><tspan x="54.25" y="0" style="letter-spacing:0.0030713488740387036em">8</tspan><tspan x="59.94" y="0" style="letter-spacing:-0.011037660016076591em">,</tspan><tspan x="62.66" y="0" style="letter-spacing:0.0020155726985878995em"> </tspan><tspan x="65.5" y="0" style="letter-spacing:-0.0020155726985878995em">R</tspan><tspan x="72.83" y="0">-</tspan><tspan x="76.22" y="0" style="letter-spacing:0.002975369221724994em">11</tspan><tspan x="87.6" y="0">)</tspan><tspan x="90.99" y="0" style="letter-spacing:0.0019195930462741898em"> </tspan><tspan x="93.83" y="0">Arr</tspan><tspan x="107.4" y="0" style="letter-spacing:-0.008062290794351598em">i</tspan><tspan x="109.57" y="0" style="letter-spacing:0.006046718095763698em">v</tspan><tspan x="114.72" y="0" style="letter-spacing:-0.008926107665174984em">a</tspan><tspan x="120.29" y="0" style="letter-spacing:-0.00009597965231370949em">l</tspan></text></g><g style="clip-path:url(#clip-path)"><polygon points="554.53 14.92 576.23 14.92 576.23 20.07 554.53 20.07 554.53 14.92 554.53 14.92" style="fill:#aa77e8;fill-rule:evenodd"/><polygon points="554.53 14.92 576.23 14.92 576.23 20.07 554.53 20.07 554.53 14.92 554.53 14.92" style="fill:none;stroke:#aa77e8;stroke-linejoin:round;stroke-width:0.7199999690055847px"/></g><g style="clip-path:url(#clip-path-13)"><text transform="translate(578.52 20.76)" style="font-size:10.1746826171875px;font-family:ArialMT, Arial"><tspan style="letter-spacing:-0.0020155726985878995em">U</tspan><tspan x="7.33" y="0" style="letter-spacing:0.00009597965231370949em">P</tspan><tspan x="14.11" y="0" style="letter-spacing:0.0019195930462741898em"> </tspan><tspan x="16.96" y="0">(</tspan><tspan x="20.35" y="0" style="letter-spacing:-0.0020155726985878995em">R</tspan><tspan x="27.68" y="0">-</tspan><tspan x="31.07" y="0" style="letter-spacing:0.002975369221724994em">4</tspan><tspan x="36.75" y="0" style="letter-spacing:0.0020155726985878995em">, </tspan><tspan x="42.45" y="0" style="letter-spacing:-0.0019195930462741898em">R</tspan><tspan x="49.78" y="0" style="letter-spacing:-0.00009597965231370949em">-</tspan><tspan x="53.16" y="0" style="letter-spacing:-0.008926107665174984em">5</tspan><tspan x="58.73" y="0">)</tspan><tspan x="62.12" y="0" style="letter-spacing:0.0019195930462741898em"> </tspan><tspan x="64.97" y="0">Arr</tspan><tspan x="78.53" y="0" style="letter-spacing:0.004031145397175799em">i</tspan><tspan x="80.83" y="0" style="letter-spacing:-0.005950738443449988em">v</tspan><tspan x="85.86" y="0" style="letter-spacing:0.0030713488740387036em">a</tspan><tspan x="91.55" y="0" style="letter-spacing:-0.00009597965231370949em">l</tspan></text></g><g style="clip-path:url(#clip-path)"><polygon points="729.94 14.92 751.64 14.92 751.64 20.07 729.94 20.07 729.94 14.92 729.94 14.92" style="fill:#b5bdf3;fill-rule:evenodd"/></g><g style="clip-path:url(#clip-path-13)"><text transform="translate(753.89 20.76)" style="font-size:10.1746826171875px;font-family:ArialMT, Arial"><tspan style="letter-spacing:-0.006046718095763698em">M</tspan><tspan x="8.41" y="0" style="letter-spacing:0.011037660016076591em">H</tspan><tspan x="15.87" y="0" style="letter-spacing:-0.011037660016076591em"> </tspan><tspan x="18.59" y="0">(</tspan><tspan x="21.98" y="0" style="letter-spacing:0.011037660016076591em">R</tspan><tspan x="29.44" y="0" style="letter-spacing:-0.00009597965231370949em">-</tspan><tspan x="32.83" y="0" style="letter-spacing:-0.008926107665174984em">3</tspan><tspan x="38.39" y="0" style="letter-spacing:0.0030713488740387036em">00</tspan><tspan x="49.77" y="0" style="letter-spacing:0.0020155726985878995em">,</tspan><tspan x="52.62" y="0" style="letter-spacing:-0.011037660016076591em"> </tspan><tspan x="55.33" y="0" style="letter-spacing:0.011037660016076591em">R</tspan><tspan x="62.79" y="0" style="letter-spacing:-0.01305323271466449em">-</tspan><tspan x="66.05" y="0" style="letter-spacing:0.0030713488740387036em">303</tspan><tspan x="83.12" y="0">)</tspan><tspan x="86.5" y="0" style="letter-spacing:-0.011037660016076591em"> </tspan><tspan x="89.22" y="0">Arr</tspan><tspan x="102.78" y="0" style="letter-spacing:0.004031145397175799em">i</tspan><tspan x="105.08" y="0" style="letter-spacing:0.005950738443449988em">v</tspan><tspan x="110.23" y="0" style="letter-spacing:-0.008926107665174984em">a</tspan><tspan x="115.8" y="0">l</tspan></text></g><g style="clip-path:url(#clip-path)"><line x1="28.43" y1="39.88" x2="50.13" y2="39.88" style="fill:none;stroke:#ff25f3;stroke-linecap:round;stroke-linejoin:round;stroke-width:2.1599998474121094px"/></g><g style="clip-path:url(#clip-path-13)"><text transform="translate(52.39 43.18)" style="font-size:10.1746826171875px;font-family:ArialMT, Arial"><tspan style="letter-spacing:-0.004031145397175799em">G</tspan><tspan x="7.87" y="0" style="letter-spacing:0.011037660016076591em">U</tspan><tspan x="15.33" y="0" style="letter-spacing:-0.005950738443449988em">J</tspan><tspan x="20.36" y="0" style="letter-spacing:0.0020155726985878995em"> </tspan><tspan x="23.21" y="0" style="letter-spacing:-0.00009597965231370949em">(</tspan><tspan x="26.59" y="0" style="letter-spacing:-0.0019195930462741898em">R</tspan><tspan x="33.92" y="0" style="letter-spacing:-0.00009597965231370949em">-</tspan><tspan x="37.31" y="0" style="letter-spacing:0.0030713488740387036em">6</tspan><tspan x="43" y="0" style="letter-spacing:-0.011037660016076591em">,</tspan><tspan x="45.71" y="0" style="letter-spacing:0.0019195930462741898em"> </tspan><tspan x="48.56" y="0" style="letter-spacing:-0.0019195930462741898em">R</tspan><tspan x="55.89" y="0" style="letter-spacing:-0.00009597965231370949em">-</tspan><tspan x="59.28" y="0" style="letter-spacing:0.0030713488740387036em">2</tspan><tspan x="64.97" y="0">)</tspan><tspan x="68.36" y="0" style="letter-spacing:0.0019195930462741898em"> </tspan><tspan x="71.2" y="0">Pr</tspan><tspan x="81.38" y="0" style="letter-spacing:0.0039351657448620896em">i</tspan><tspan x="83.68" y="0" style="letter-spacing:-0.005950738443449988em">c</tspan><tspan x="88.7" y="0" style="letter-spacing:0.00009597965231370949em">e</tspan></text></g><g style="clip-path:url(#clip-path)"><line x1="203.84" y1="39.88" x2="225.55" y2="39.88" style="fill:none;stroke:#00c1a3;stroke-linecap:round;stroke-linejoin:round;stroke-width:2.1599998474121094px"/></g><g style="clip-path:url(#clip-path-13)"><text transform="translate(227.77 43.18)" style="font-size:10.1746826171875px;font-family:ArialMT, Arial"><tspan style="letter-spacing:-0.0020155726985878995em">H</tspan><tspan x="7.33" y="0" style="letter-spacing:0.00009597965231370949em">A</tspan><tspan x="14.11" y="0" style="letter-spacing:-0.0020155726985878995em">R</tspan><tspan x="21.44" y="0" style="letter-spacing:0.0019195930462741898em"> </tspan><tspan x="24.29" y="0">(</tspan><tspan x="27.68" y="0" style="letter-spacing:-0.0020155726985878995em">R</tspan><tspan x="35" y="0">-</tspan><tspan x="38.39" y="0" style="letter-spacing:0.0030713488740387036em">3</tspan><tspan x="44.08" y="0" style="letter-spacing:-0.00009597965231370949em">)</tspan><tspan x="47.47" y="0" style="letter-spacing:0.0020155726985878995em"> </tspan><tspan x="50.32" y="0">Pr</tspan><tspan x="60.49" y="0" style="letter-spacing:-0.008062290794351598em">i</tspan><tspan x="62.67" y="0" style="letter-spacing:0.006046718095763698em">c</tspan><tspan x="67.82" y="0">e</tspan></text></g><g style="clip-path:url(#clip-path)"><line x1="379.12" y1="39.88" x2="400.82" y2="39.88" style="fill:none;stroke:#2935e8;stroke-linecap:round;stroke-linejoin:round;stroke-width:2.1599998474121094px"/></g><g style="clip-path:url(#clip-path-13)"><text transform="translate(403.15 43.18)" style="font-size:10.1746826171875px;font-family:ArialMT, Arial"><tspan style="letter-spacing:-0.006046718095763698em">M</tspan><tspan x="8.41" y="0" style="letter-spacing:0.01305323271466449em">P</tspan><tspan x="15.33" y="0" style="letter-spacing:-0.011037660016076591em"> </tspan><tspan x="18.05" y="0">(</tspan><tspan x="21.44" y="0" style="letter-spacing:-0.0020155726985878995em">R</tspan><tspan x="28.76" y="0">-</tspan><tspan x="32.15" y="0" style="letter-spacing:0.002975369221724994em">7</tspan><tspan x="37.84" y="0" style="letter-spacing:0.0020155726985878995em">, </tspan><tspan x="43.54" y="0" style="letter-spacing:-0.0020155726985878995em">R</tspan><tspan x="50.86" y="0" style="letter-spacing:-0.00009597965231370949em">-</tspan><tspan x="54.25" y="0" style="letter-spacing:0.0030713488740387036em">8</tspan><tspan x="59.94" y="0" style="letter-spacing:-0.011037660016076591em">,</tspan><tspan x="62.66" y="0" style="letter-spacing:0.0020155726985878995em"> </tspan><tspan x="65.5" y="0" style="letter-spacing:-0.0020155726985878995em">R</tspan><tspan x="72.83" y="0">-</tspan><tspan x="76.22" y="0" style="letter-spacing:0.002975369221724994em">11</tspan><tspan x="87.6" y="0">)</tspan><tspan x="90.99" y="0" style="letter-spacing:0.0019195930462741898em"> </tspan><tspan x="93.83" y="0">Pr</tspan><tspan x="104.01" y="0" style="letter-spacing:-0.008062290794351598em">i</tspan><tspan x="106.19" y="0" style="letter-spacing:0.006046718095763698em">c</tspan><tspan x="111.33" y="0" style="letter-spacing:0.00009597965231370949em">e</tspan></text></g><g style="clip-path:url(#clip-path)"><line x1="554.53" y1="39.88" x2="576.23" y2="39.88" style="fill:none;stroke:#9264cb;stroke-linecap:round;stroke-linejoin:round;stroke-width:2.1599998474121094px"/></g><g style="clip-path:url(#clip-path-13)"><text transform="translate(578.52 43.18)" style="font-size:10.1746826171875px;font-family:ArialMT, Arial"><tspan style="letter-spacing:-0.0020155726985878995em">U</tspan><tspan x="7.33" y="0" style="letter-spacing:0.00009597965231370949em">P</tspan><tspan x="14.11" y="0" style="letter-spacing:0.0019195930462741898em"> </tspan><tspan x="16.96" y="0">(</tspan><tspan x="20.35" y="0" style="letter-spacing:-0.0020155726985878995em">R</tspan><tspan x="27.68" y="0">-</tspan><tspan x="31.07" y="0" style="letter-spacing:0.002975369221724994em">4</tspan><tspan x="36.75" y="0" style="letter-spacing:0.0020155726985878995em">, </tspan><tspan x="42.45" y="0" style="letter-spacing:-0.0019195930462741898em">R</tspan><tspan x="49.78" y="0" style="letter-spacing:-0.00009597965231370949em">-</tspan><tspan x="53.16" y="0" style="letter-spacing:-0.008926107665174984em">5</tspan><tspan x="58.73" y="0">)</tspan><tspan x="62.12" y="0" style="letter-spacing:0.0019195930462741898em"> </tspan><tspan x="64.97" y="0">Pr</tspan><tspan x="75.14" y="0" style="letter-spacing:0.0039351657448620896em">i</tspan><tspan x="77.44" y="0" style="letter-spacing:-0.005950738443449988em">c</tspan><tspan x="82.47" y="0" style="letter-spacing:0.00009597965231370949em">e</tspan></text></g><g style="clip-path:url(#clip-path)"><line x1="729.94" y1="39.88" x2="751.65" y2="39.88" style="fill:none;stroke:#bd9fea;stroke-linecap:round;stroke-linejoin:round;stroke-width:2.1599998474121094px"/></g><g style="clip-path:url(#clip-path-13)"><text transform="translate(753.89 43.18)" style="font-size:10.1746826171875px;font-family:ArialMT, Arial"><tspan style="letter-spacing:-0.006046718095763698em">M</tspan><tspan x="8.41" y="0" style="letter-spacing:0.011037660016076591em">H</tspan><tspan x="15.87" y="0" style="letter-spacing:-0.011037660016076591em"> </tspan><tspan x="18.59" y="0">(</tspan><tspan x="21.98" y="0" style="letter-spacing:0.011037660016076591em">R</tspan><tspan x="29.44" y="0" style="letter-spacing:-0.00009597965231370949em">-</tspan><tspan x="32.83" y="0" style="letter-spacing:-0.008926107665174984em">3</tspan><tspan x="38.39" y="0" style="letter-spacing:0.0030713488740387036em">00</tspan><tspan x="49.77" y="0" style="letter-spacing:0.0020155726985878995em">,</tspan><tspan x="52.62" y="0" style="letter-spacing:-0.011037660016076591em"> </tspan><tspan x="55.33" y="0" style="letter-spacing:0.011037660016076591em">R</tspan><tspan x="62.79" y="0" style="letter-spacing:-0.01305323271466449em">-</tspan><tspan x="66.05" y="0" style="letter-spacing:0.0030713488740387036em">303</tspan><tspan x="83.12" y="0">)</tspan><tspan x="86.5" y="0" style="letter-spacing:-0.011037660016076591em"> </tspan><tspan x="89.22" y="0">Pr</tspan><tspan x="99.39" y="0" style="letter-spacing:0.0039351657448620896em">i</tspan><tspan x="101.7" y="0" style="letter-spacing:0.006046718095763698em">c</tspan><tspan x="106.84" y="0">e</tspan></text></g><polygon points="1.02 1.22 898.98 1.22 898.98 348.78 1.02 348.78 1.02 1.22 1.02 1.22" style="fill:none;stroke:#d9d9d9;stroke-linejoin:round;stroke-width:0.7200000286102295px"/></svg>