<svg id="Layer_1" data-name="Layer 1" xmlns="http://www.w3.org/2000/svg" xmlns:xlink="http://www.w3.org/1999/xlink" viewBox="0 0 900 350"><defs><clipPath id="clip-path"><polygon points="2.23 58.2 898.86 58.2 898.86 292.89 2.23 292.89 2.23 58.2 2.23 58.2" style="fill:none;clip-rule:evenodd"/></clipPath><clipPath id="clip-path-2"><polygon points="2.23 58.2 116.48 58.2 116.48 102.75 2.23 102.75 2.23 58.2 2.23 58.2" style="fill:none;clip-rule:evenodd"/></clipPath><clipPath id="clip-path-4"><polygon points="490.81 234.22 652.94 234.22 652.94 259.21 490.81 259.21 490.81 234.22 490.81 234.22" style="fill:none;clip-rule:evenodd"/></clipPath><clipPath id="clip-path-5"><polygon points="2.23 260.29 897.77 260.29 897.77 291.8 2.23 291.8 2.23 260.29 2.23 260.29" style="fill:none;clip-rule:evenodd"/></clipPath><clipPath id="clip-path-6"><polygon points="2.23 155.99 116.48 155.99 116.48 207.05 2.23 207.05 2.23 155.99 2.23 155.99" style="fill:none;clip-rule:evenodd"/></clipPath><clipPath id="clip-path-7"><polygon points="490.81 182.06 734.55 182.06 734.55 207.05 490.81 207.05 490.81 182.06 490.81 182.06" style="fill:none;clip-rule:evenodd"/></clipPath><clipPath id="clip-path-8"><polygon points="490.81 155.99 652.94 155.99 652.94 180.98 490.81 180.98 490.81 155.99 490.81 155.99" style="fill:none;clip-rule:evenodd"/></clipPath><clipPath id="clip-path-9"><polygon points="490.81 208.14 652.94 208.14 652.94 233.13 490.81 233.13 490.81 208.14 490.81 208.14" style="fill:none;clip-rule:evenodd"/></clipPath><clipPath id="clip-path-10"><polygon points="490.81 103.83 734.55 103.83 734.55 128.82 490.81 128.82 490.81 103.83 490.81 103.83" style="fill:none;clip-rule:evenodd"/></clipPath><clipPath id="clip-path-11"><polygon points="490.81 129.91 652.94 129.91 652.94 154.9 490.81 154.9 490.81 129.91 490.81 129.91" style="fill:none;clip-rule:evenodd"/></clipPath><clipPath id="clip-path-12"><polygon points="1.14 57.11 898.86 57.11 898.86 292.89 1.14 292.89 1.14 57.11 1.14 57.11" style="fill:none;clip-rule:evenodd"/></clipPath></defs><title>seasonal-calendar</title><g style="clip-path:url(#clip-path)"><polyline points="1.14 57.11 1.14 103.83 898.86 103.83 898.86 57.11 1.14 57.11" style="fill:#d9d9d9;fill-rule:evenodd"/><polyline points="1.14 102.75 1.14 129.91 245.97 129.91 245.97 102.75 1.14 102.75" style="fill:#f2f2f2;fill-rule:evenodd"/><polyline points="244.88 102.75 244.88 129.91 409.19 129.91 409.19 102.75 244.88 102.75" style="fill:#fff;fill-rule:evenodd"/><polyline points="408.11 102.75 408.11 129.91 490.81 129.91 490.81 102.75 408.11 102.75" style="fill:#5e9fff;fill-rule:evenodd"/><polyline points="489.72 102.75 489.72 129.91 735.64 129.91 735.64 102.75 489.72 102.75" style="fill:#06f;fill-rule:evenodd"/><polyline points="734.55 102.75 734.55 129.91 817.25 129.91 817.25 102.75 734.55 102.75" style="fill:#0044ab;fill-rule:evenodd"/><polyline points="1.14 128.82 1.14 182.06 245.97 182.06 245.97 128.82 1.14 128.82" style="fill:#f2f2f2;fill-rule:evenodd"/><polyline points="244.88 128.82 244.88 182.06 409.19 182.06 409.19 128.82 244.88 128.82" style="fill:#fff;fill-rule:evenodd"/><polyline points="408.11 128.82 408.11 182.06 490.81 182.06 490.81 128.82 408.11 128.82" style="fill:#5e9fff;fill-rule:evenodd"/><polyline points="489.72 128.82 489.72 182.06 654.03 182.06 654.03 128.82 489.72 128.82" style="fill:#06f;fill-rule:evenodd"/><polyline points="652.94 128.82 652.94 182.06 735.64 182.06 735.64 128.82 652.94 128.82" style="fill:#0044ab;fill-rule:evenodd"/><polyline points="1.14 180.98 1.14 208.14 245.97 208.14 245.97 180.98 1.14 180.98" style="fill:#f2f2f2;fill-rule:evenodd"/><polyline points="244.88 180.98 244.88 208.14 409.19 208.14 409.19 180.98 244.88 180.98" style="fill:#fff;fill-rule:evenodd"/><polyline points="408.11 180.98 408.11 208.14 490.81 208.14 490.81 180.98 408.11 180.98" style="fill:#5e9fff;fill-rule:evenodd"/><polyline points="489.72 180.98 489.72 208.14 735.64 208.14 735.64 180.98 489.72 180.98" style="fill:#06f;fill-rule:evenodd"/><polyline points="734.55 180.98 734.55 208.14 817.25 208.14 817.25 180.98 734.55 180.98" style="fill:#0044ab;fill-rule:evenodd"/><polyline points="1.14 207.05 1.14 260.29 245.97 260.29 245.97 207.05 1.14 207.05" style="fill:#f2f2f2;fill-rule:evenodd"/><polyline points="244.88 207.05 244.88 260.29 409.19 260.29 409.19 207.05 244.88 207.05" style="fill:#fff;fill-rule:evenodd"/><polyline points="408.11 207.05 408.11 260.29 490.81 260.29 490.81 207.05 408.11 207.05" style="fill:#5e9fff;fill-rule:evenodd"/><polyline points="489.72 207.05 489.72 260.29 654.03 260.29 654.03 207.05 489.72 207.05" style="fill:#06f;fill-rule:evenodd"/><polyline points="652.94 207.05 652.94 260.29 735.64 260.29 735.64 207.05 652.94 207.05" style="fill:#0044ab;fill-rule:evenodd"/></g><g style="clip-path:url(#clip-path-2)"><text transform="translate(13.11 76.67)" style="font-size:14.125106811523438px;font-family:Arial-BoldMT, Arial;font-weight:700"><tspan style="letter-spacing:-0.02899453836793976em">A</tspan><tspan x="9.79" y="0" style="letter-spacing:0.004004007679382158em">g</tspan><tspan x="18.48" y="0" style="letter-spacing:-0.004004007679382158em">r</tspan><tspan x="23.92" y="0" style="letter-spacing:0.004073042294543919em">o</tspan><tspan x="32.6" y="0" style="letter-spacing:-0.02505956530371936em">-</tspan><tspan x="36.95" y="0" style="letter-spacing:-0.01698251532979329em">c</tspan><tspan x="44.57" y="0" style="letter-spacing:0.02899453836793976em">li</tspan><tspan x="53.23" y="0" style="letter-spacing:0.032998546047321914em">m</tspan><tspan x="66.26" y="0" style="letter-spacing:0.05902459596330594em">a</tspan><tspan x="74.95" y="0" style="letter-spacing:-0.0249905306885576em">t</tspan><tspan x="79.3" y="0" style="letter-spacing:0.028925503752777994em">i</tspan><tspan x="83.63" y="0" style="letter-spacing:-0.01698251532979329em">c</tspan><tspan x="91.25" y="0"> </tspan></text><text transform="translate(42.49 95.13)" style="font-size:14.125106811523438px;font-family:Arial-BoldMT, Arial;font-weight:700"><tspan style="letter-spacing:0.03796903833896873em">z</tspan><tspan x="7.6" y="0" style="letter-spacing:0.004004007679382158em">on</tspan><tspan x="24.97" y="0">e</tspan></text></g><g style="clip-path:url(#clip-path)"><text transform="translate(156.75 85.35)" style="font-size:14.125106811523438px;font-family:Arial-BoldMT, Arial;font-weight:700"><tspan style="letter-spacing:-0.02899453836793976em">R</tspan><tspan x="9.79" y="0" style="letter-spacing:0.05902459596330594em">e</tspan><tspan x="18.48" y="0" style="letter-spacing:0.004004007679382158em">g</tspan><tspan x="27.16" y="0" style="letter-spacing:0.028925503752777994em">i</tspan><tspan x="31.5" y="0" style="letter-spacing:0.004073042294543919em">o</tspan><tspan x="40.18" y="0">n</tspan></text><text transform="translate(273.18 85.35)" style="font-size:14.125106811523438px;font-family:Arial-BoldMT, Arial;font-weight:700"><tspan style="letter-spacing:0.0249905306885576em">S</tspan><tspan x="9.77" y="0" style="letter-spacing:0.05902459596330594em">e</tspan><tspan x="18.46" y="0">p</tspan></text><text transform="translate(356.96 85.35)" style="font-size:14.125106811523438px;font-family:Arial-BoldMT, Arial;font-weight:700"><tspan style="letter-spacing:-0.008008015358764315em">O</tspan><tspan x="10.87" y="0" style="letter-spacing:-0.01698251532979329em">c</tspan><tspan x="18.49" y="0">t</tspan></text><text transform="translate(436.4 85.35)" style="font-size:14.125106811523438px;font-family:Arial-BoldMT, Arial;font-weight:700"><tspan style="letter-spacing:-0.02899453836793976em">N</tspan><tspan x="9.79" y="0" style="letter-spacing:0.004004007679382158em">o</tspan><tspan x="18.48" y="0">v</tspan></text><text transform="translate(518.01 85.35)" style="font-size:14.125106811523438px;font-family:Arial-BoldMT, Arial;font-weight:700"><tspan style="letter-spacing:-0.02899453836793976em">D</tspan><tspan x="9.79" y="0" style="letter-spacing:0.05902459596330594em">e</tspan><tspan x="18.48" y="0">c</tspan></text><text transform="translate(600.7 85.35)" style="font-size:14.125106811523438px;font-family:Arial-BoldMT, Arial;font-weight:700"><tspan style="letter-spacing:-0.01698251532979329em">J</tspan><tspan x="7.62" y="0" style="letter-spacing:0.05902459596330594em">a</tspan><tspan x="16.31" y="0">n</tspan></text><text transform="translate(681.23 85.35)" style="font-size:14.125106811523438px;font-family:Arial-BoldMT, Arial;font-weight:700"><tspan style="letter-spacing:0.004004007679382158em">F</tspan><tspan x="8.68" y="0" style="letter-spacing:0.05902459596330594em">e</tspan><tspan x="17.37" y="0">b</tspan></text><text transform="translate(762.85 85.35)" style="font-size:14.125106811523438px;font-family:Arial-BoldMT, Arial;font-weight:700"><tspan style="letter-spacing:0.01297850765041113em">M</tspan><tspan x="11.95" y="0" style="letter-spacing:0.05902459596330594em">a</tspan><tspan x="20.64" y="0">r</tspan></text><text transform="translate(845.55 85.35)" style="font-size:14.125106811523438px;font-family:Arial-BoldMT, Arial;font-weight:700"><tspan style="letter-spacing:-0.02899453836793976em">A</tspan><tspan x="9.79" y="0" style="letter-spacing:0.004004007679382158em">p</tspan><tspan x="18.48" y="0">r</tspan></text><text transform="translate(44.67 121.22)" style="font-size:14.125106811523438px;font-family:Arial-BoldMT, Arial;font-weight:700"><tspan style="letter-spacing:-0.008008015358764315em">G</tspan><tspan x="10.87" y="0" style="letter-spacing:0.0249905306885576em">P</tspan><tspan x="20.65" y="0">H</tspan></text><text transform="translate(129.54 121.22)" style="font-size:14.125106811523438px;font-family:Arial-BoldMT, Arial;font-weight:700"><tspan style="letter-spacing:-0.02899453836793976em">R</tspan><tspan x="9.79" y="0" style="letter-spacing:-0.0249905306885576em">-</tspan><tspan x="14.14" y="0" style="letter-spacing:-0.017051549944955047em">2</tspan><tspan x="21.76" y="0" style="letter-spacing:0.02899453836793976em">, </tspan><tspan x="30.43" y="0" style="letter-spacing:-0.02906357298310152em">R</tspan><tspan x="40.22" y="0" style="letter-spacing:-0.0249905306885576em">-</tspan><tspan x="44.57" y="0">6</tspan></text><text transform="translate(42.49 147.29)" style="font-size:14.125106811523438px;font-family:Arial-BoldMT, Arial;font-weight:700"><tspan style="letter-spacing:0.004004007679382158em">T</tspan><tspan x="8.68" y="0" style="letter-spacing:-0.007938980743602555em">G</tspan><tspan x="19.56" y="0" style="letter-spacing:0.02492149607339584em">P</tspan><tspan x="29.33" y="0"> </tspan></text><text transform="translate(129.54 147.29)" style="font-size:14.125106811523438px;font-family:Arial-BoldMT, Arial;font-weight:700"><tspan style="letter-spacing:-0.02899453836793976em">R</tspan><tspan x="9.79" y="0" style="letter-spacing:-0.0249905306885576em">-</tspan><tspan x="14.14" y="0">3</tspan></text><text transform="translate(129.54 173.36)" style="font-size:14.125106811523438px;font-family:Arial-BoldMT, Arial;font-weight:700;letter-spacing:-0.02899453836793976em">R<tspan x="9.79" y="0" style="letter-spacing:-0.0249905306885576em">-</tspan><tspan x="14.14" y="0" style="letter-spacing:-0.017051549944955047em">7</tspan><tspan x="21.76" y="0" style="letter-spacing:0.02899453836793976em">,</tspan><tspan x="26.09" y="0">R</tspan><tspan x="35.88" y="0" style="letter-spacing:-0.02505956530371936em">-</tspan><tspan x="40.23" y="0" style="letter-spacing:0.00006903461516176132em">8</tspan></text><text transform="translate(129.54 199.46)" style="font-size:14.125106811523438px;font-family:Arial-BoldMT, Arial;font-weight:700"><tspan style="letter-spacing:-0.02899453836793976em">R</tspan><tspan x="9.79" y="0" style="letter-spacing:-0.0249905306885576em">-</tspan><tspan x="14.14" y="0" style="letter-spacing:-0.017051549944955047em">1</tspan><tspan x="21.76" y="0">1</tspan></text><text transform="translate(44.67 225.53)" style="font-size:14.125106811523438px;font-family:Arial-BoldMT, Arial;font-weight:700"><tspan style="letter-spacing:-0.02899453836793976em">U</tspan><tspan x="9.79" y="0" style="letter-spacing:-0.008008015358764315em">G</tspan><tspan x="20.66" y="0">P</tspan></text><text transform="translate(129.54 225.53)" style="font-size:14.125106811523438px;font-family:Arial-BoldMT, Arial;font-weight:700"><tspan style="letter-spacing:-0.02899453836793976em">R</tspan><tspan x="9.79" y="0" style="letter-spacing:-0.0249905306885576em">-</tspan><tspan x="14.14" y="0" style="letter-spacing:-0.017051549944955047em">4</tspan><tspan x="21.76" y="0" style="letter-spacing:0.02899453836793976em">, </tspan><tspan x="30.43" y="0" style="letter-spacing:-0.02906357298310152em">R</tspan><tspan x="40.22" y="0" style="letter-spacing:-0.0249905306885576em">-</tspan><tspan x="44.57" y="0">5</tspan></text><text transform="translate(42.49 251.6)" style="font-size:14.125106811523438px;font-family:Arial-BoldMT, Arial;font-weight:700"><tspan style="letter-spacing:0.05598707289618843em">W</tspan><tspan x="14.12" y="0" style="letter-spacing:0.0249905306885576em">P</tspan><tspan x="23.9" y="0">H</tspan></text><text transform="translate(129.54 251.6)" style="font-size:14.125106811523438px;font-family:Arial-BoldMT, Arial;font-weight:700"><tspan style="letter-spacing:-0.02899453836793976em">R</tspan><tspan x="9.79" y="0" style="letter-spacing:-0.0249905306885576em">-</tspan><tspan x="14.14" y="0" style="letter-spacing:-0.017051549944955047em">300</tspan><tspan x="36.99" y="0" style="letter-spacing:0.02899453836793976em">, </tspan><tspan x="45.66" y="0" style="letter-spacing:-0.02899453836793976em">R</tspan><tspan x="55.45" y="0" style="letter-spacing:-0.0249905306885576em">-</tspan><tspan x="59.8" y="0" style="letter-spacing:-0.01698251532979329em">30</tspan><tspan x="75.03" y="0">3</tspan></text></g><g style="clip-path:url(#clip-path-4)"><text transform="translate(556.09 251.6)" style="font-size:14.125106811523438px;fill:#fff;font-family:Arial-BoldMT, Arial;font-weight:700;letter-spacing:-0.02899453836793976em">R<tspan x="9.79" y="0" style="letter-spacing:0.05902459596330594em">a</tspan><tspan x="18.48" y="0" style="letter-spacing:0.004004007679382158em">b</tspan><tspan x="27.16" y="0" style="letter-spacing:-0.00006903461516176132em">i</tspan></text></g><g style="clip-path:url(#clip-path-5)"><text transform="translate(4.39 279.86)" style="font-size:11.95201301574707px;font-family:ArialMT, Arial;letter-spacing:-0.08501299376543389em">N<tspan x="7.62" y="0" style="letter-spacing:-0.010035123064441813em">o</tspan><tspan x="14.14" y="0" style="letter-spacing:-0.0049767683490321195em">t</tspan><tspan x="17.4" y="0" style="letter-spacing:-0.010035123064441813em">e</tspan><tspan x="23.93" y="0" style="letter-spacing:-0.0049767683490321195em">:</tspan><tspan x="27.19" y="0" style="letter-spacing:0.00008158636637757573em"> </tspan></text><text transform="translate(34.87 279.86)" style="font-size:11.95201301574707px;font-family:Arial-BoldMT, Arial;font-weight:700;letter-spacing:-0.05001244258945391em">G<tspan x="8.7" y="0" style="letter-spacing:-0.029942196460570288em">P</tspan><tspan x="16.31" y="0" style="letter-spacing:-0.00008158636637757573em">H</tspan></text><text transform="translate(58.81 279.86)" style="font-size:11.95201301574707px;font-family:ArialMT, Arial"><tspan style="letter-spacing:-0.0049767683490321195em"> </tspan><tspan x="3.26" y="0" style="letter-spacing:-0.05001244258945391em">G</tspan><tspan x="11.96" y="0" style="letter-spacing:-0.010035123064441813em">u</tspan><tspan x="18.49" y="0" style="letter-spacing:-0.0399773195250121em">j</tspan><tspan x="20.66" y="0" style="letter-spacing:-0.010035123064441813em">a</tspan><tspan x="27.19" y="0" style="letter-spacing:0.030023782826947867em">r</tspan><tspan x="31.53" y="0" style="letter-spacing:-0.010035123064441813em">a</tspan><tspan x="38.06" y="0" style="letter-spacing:-0.0049767683490321195em">t </tspan><tspan x="44.58" y="0" style="letter-spacing:-0.12099258133794479em">P</tspan><tspan x="51.11" y="0" style="letter-spacing:-0.0399773195250121em">l</tspan><tspan x="53.28" y="0" style="letter-spacing:-0.010035123064441813em">a</tspan><tspan x="59.81" y="0" style="letter-spacing:-0.0399773195250121em">i</tspan><tspan x="61.99" y="0" style="letter-spacing:-0.010035123064441813em">n</tspan><tspan x="68.52" y="0" style="letter-spacing:0.0450356742404218em">s</tspan><tspan x="75.03" y="0" style="letter-spacing:-0.0049767683490321195em"> </tspan><tspan x="78.29" y="0" style="letter-spacing:-0.010035123064441813em">and</tspan><tspan x="97.87" y="0" style="letter-spacing:-0.0049767683490321195em"> </tspan><tspan x="101.13" y="0" style="letter-spacing:-0.08509458013181147em">H</tspan><tspan x="108.75" y="0" style="letter-spacing:-0.0399773195250121em">ill</tspan><tspan x="115.28" y="0" style="letter-spacing:0.0450356742404218em">s</tspan><tspan x="121.8" y="0" style="letter-spacing:-0.0049767683490321195em">,</tspan><tspan x="125.06" y="0"> </tspan></text><text transform="translate(187.21 279.86)" style="font-size:11.95201301574707px;font-family:Arial-BoldMT, Arial;font-weight:700;letter-spacing:0.02496542811153817em">T<tspan x="7.6" y="0" style="letter-spacing:-0.05001244258945391em">G</tspan><tspan x="16.3" y="0" style="letter-spacing:0.00008158636637757573em">P</tspan></text><text transform="translate(211.15 279.86)" style="font-size:11.95201301574707px;font-family:ArialMT, Arial"><tspan style="letter-spacing:-0.0049767683490321195em"> </tspan><tspan x="3.26" y="0" style="letter-spacing:-0.06502433400292786em">T</tspan><tspan x="9.78" y="0" style="letter-spacing:0.030023782826947867em">r</tspan><tspan x="14.12" y="0" style="letter-spacing:-0.010035123064441813em">an</tspan><tspan x="27.18" y="0" style="letter-spacing:0.0450356742404218em">s</tspan><tspan x="33.69" y="0" style="letter-spacing:0.029942196460570288em">-</tspan><tspan x="38.03" y="0" style="letter-spacing:-0.05001244258945391em">G</tspan><tspan x="46.73" y="0" style="letter-spacing:-0.009953536698064239em">anga</tspan><tspan x="72.84" y="0" style="letter-spacing:-0.0049767683490321195em"> </tspan><tspan x="76.1" y="0" style="letter-spacing:-0.12099258133794479em">P</tspan><tspan x="82.63" y="0" style="letter-spacing:-0.0399773195250121em">l</tspan><tspan x="84.8" y="0" style="letter-spacing:-0.010035123064441813em">a</tspan><tspan x="91.33" y="0" style="letter-spacing:-0.0399773195250121em">i</tspan><tspan x="93.51" y="0" style="letter-spacing:-0.010035123064441813em">n</tspan><tspan x="100.04" y="0" style="letter-spacing:0.0450356742404218em">s</tspan><tspan x="106.55" y="0" style="letter-spacing:-0.0049767683490321195em"> </tspan><tspan x="109.81" y="0" style="letter-spacing:-0.08501299376543389em">R</tspan><tspan x="117.43" y="0" style="letter-spacing:-0.010035123064441813em">eg</tspan><tspan x="130.48" y="0" style="letter-spacing:-0.0399773195250121em">i</tspan><tspan x="132.66" y="0" style="letter-spacing:-0.010035123064441813em">on</tspan><tspan x="145.72" y="0" style="letter-spacing:-0.0049767683490321195em">,</tspan><tspan x="148.98" y="0"> </tspan></text><text transform="translate(363.48 279.86)" style="font-size:11.95201301574707px;font-family:Arial-BoldMT, Arial;font-weight:700"><tspan style="letter-spacing:0.0049767683490321195em">C</tspan><tspan x="8.69" y="0" style="letter-spacing:-0.030023782826947867em">P</tspan><tspan x="16.3" y="0">H</tspan></text><text transform="translate(387.42 279.86)" style="font-size:11.95201301574707px;font-family:ArialMT, Arial"><tspan style="letter-spacing:-0.0049767683490321195em"> </tspan><tspan x="3.26" y="0" style="letter-spacing:-0.08501299376543389em">C</tspan><tspan x="10.88" y="0" style="letter-spacing:-0.010035123064441813em">en</tspan><tspan x="23.93" y="0" style="letter-spacing:-0.0049767683490321195em">t</tspan><tspan x="27.19" y="0" style="letter-spacing:0.030023782826947867em">r</tspan><tspan x="31.53" y="0" style="letter-spacing:-0.010035123064441813em">a</tspan><tspan x="38.06" y="0" style="letter-spacing:-0.0399773195250121em">l</tspan><tspan x="40.24" y="0" style="letter-spacing:-0.0049767683490321195em"> </tspan><tspan x="43.5" y="0" style="letter-spacing:-0.12099258133794479em">P</tspan><tspan x="50.02" y="0" style="letter-spacing:-0.0399773195250121em">l</tspan><tspan x="52.2" y="0" style="letter-spacing:-0.010035123064441813em">a</tspan><tspan x="58.73" y="0" style="letter-spacing:-0.0049767683490321195em">t</tspan><tspan x="61.99" y="0" style="letter-spacing:-0.010035123064441813em">eau</tspan><tspan x="81.57" y="0" style="letter-spacing:-0.0049767683490321195em"> </tspan><tspan x="84.83" y="0" style="letter-spacing:-0.010035123064441813em">and</tspan><tspan x="104.42" y="0" style="letter-spacing:-0.0049767683490321195em"> </tspan><tspan x="107.68" y="0" style="letter-spacing:-0.08501299376543389em">H</tspan><tspan x="115.29" y="0" style="letter-spacing:-0.040058905891389676em">ill</tspan><tspan x="121.82" y="0" style="letter-spacing:0.0450356742404218em">s</tspan><tspan x="128.34" y="0">,</tspan></text><text transform="translate(519.09 279.86)" style="font-size:11.95201301574707px;font-family:Arial-BoldMT, Arial;font-weight:700"><tspan style="letter-spacing:-0.0049767683490321195em"> </tspan><tspan x="3.26" y="0" style="letter-spacing:-0.08501299376543389em">U</tspan><tspan x="10.88" y="0" style="letter-spacing:-0.05001244258945391em">G</tspan><tspan x="19.58" y="0">P</tspan></text><text transform="translate(546.29 279.86)" style="font-size:11.95201301574707px;font-family:ArialMT, Arial"><tspan style="letter-spacing:-0.0049767683490321195em"> </tspan><tspan x="3.26" y="0" style="letter-spacing:-0.08501299376543389em">U</tspan><tspan x="10.88" y="0" style="letter-spacing:-0.010035123064441813em">ppe</tspan><tspan x="30.46" y="0" style="letter-spacing:0.030023782826947867em">r</tspan><tspan x="34.8" y="0" style="letter-spacing:-0.0049767683490321195em"> </tspan><tspan x="38.06" y="0" style="letter-spacing:-0.05001244258945391em">G</tspan><tspan x="46.76" y="0" style="letter-spacing:-0.010035123064441813em">ange</tspan><tspan x="72.87" y="0" style="letter-spacing:-0.0049767683490321195em">t</tspan><tspan x="76.13" y="0" style="letter-spacing:-0.0399773195250121em">i</tspan><tspan x="78.31" y="0" style="letter-spacing:0.0450356742404218em">c</tspan><tspan x="84.82" y="0" style="letter-spacing:-0.0049767683490321195em"> </tspan><tspan x="88.08" y="0" style="letter-spacing:-0.12099258133794479em">P</tspan><tspan x="94.61" y="0" style="letter-spacing:-0.0399773195250121em">l</tspan><tspan x="96.78" y="0" style="letter-spacing:-0.010035123064441813em">a</tspan><tspan x="103.31" y="0" style="letter-spacing:-0.0399773195250121em">i</tspan><tspan x="105.49" y="0" style="letter-spacing:-0.010035123064441813em">n</tspan><tspan x="112.02" y="0" style="letter-spacing:0.0450356742404218em">s</tspan><tspan x="118.53" y="0" style="letter-spacing:-0.004895181982654543em"> </tspan><tspan x="121.79" y="0" style="letter-spacing:-0.08509458013181147em">R</tspan><tspan x="129.41" y="0" style="letter-spacing:-0.010035123064441813em">eg</tspan><tspan x="142.46" y="0" style="letter-spacing:-0.040058905891389676em">i</tspan><tspan x="144.64" y="0" style="letter-spacing:-0.009953536698064239em">on</tspan><tspan x="157.69" y="0" style="letter-spacing:-0.0049767683490321195em">,</tspan><tspan x="160.96" y="0"> </tspan></text><text transform="translate(710.61 279.86)" style="font-size:11.95201301574707px;font-family:Arial-BoldMT, Arial;font-weight:700;letter-spacing:-0.03402151477944907em">W<tspan x="10.87" y="0" style="letter-spacing:-0.029942196460570288em">P</tspan><tspan x="18.49" y="0" style="letter-spacing:-0.00008158636637757573em">H</tspan></text><text transform="translate(736.73 279.86)" style="font-size:11.95201301574707px;font-family:ArialMT, Arial;letter-spacing:-0.0049767683490321195em"> <tspan x="3.26" y="0" style="letter-spacing:-0.03402151477944907em">W</tspan><tspan x="14.14" y="0" style="letter-spacing:-0.010035123064441813em">e</tspan><tspan x="20.66" y="0" style="letter-spacing:0.0450356742404218em">s</tspan><tspan x="27.18" y="0">t</tspan><tspan x="30.44" y="0" style="letter-spacing:-0.010035123064441813em">e</tspan><tspan x="36.96" y="0" style="letter-spacing:0.030023782826947867em">r</tspan><tspan x="41.3" y="0" style="letter-spacing:-0.010035123064441813em">n</tspan><tspan x="47.83" y="0"> </tspan><tspan x="51.09" y="0" style="letter-spacing:-0.12099258133794479em">P</tspan><tspan x="57.62" y="0" style="letter-spacing:-0.0399773195250121em">l</tspan><tspan x="59.8" y="0" style="letter-spacing:-0.010035123064441813em">a</tspan><tspan x="66.32" y="0">t</tspan><tspan x="69.58" y="0" style="letter-spacing:-0.010035123064441813em">eau</tspan><tspan x="89.17" y="0"> </tspan><tspan x="92.43" y="0" style="letter-spacing:-0.010035123064441813em">and</tspan><tspan x="112.01" y="0"> </tspan><tspan x="115.27" y="0" style="letter-spacing:-0.08501299376543389em">H</tspan><tspan x="122.89" y="0" style="letter-spacing:-0.0399773195250121em">ill</tspan><tspan x="129.42" y="0" style="letter-spacing:0.00008158636637757573em">s</tspan></text></g><g style="clip-path:url(#clip-path-6)"><text transform="translate(44.67 186.41)" style="font-size:14.125106811523438px;font-family:Arial-BoldMT, Arial;font-weight:700"><tspan style="letter-spacing:-0.02899453836793976em">C</tspan><tspan x="9.79" y="0" style="letter-spacing:0.0249905306885576em">P</tspan><tspan x="19.57" y="0">H</tspan></text></g><g style="clip-path:url(#clip-path-7)"><text transform="translate(597.45 199.46)" style="font-size:14.125106811523438px;fill:#fff;font-family:Arial-BoldMT, Arial;font-weight:700;letter-spacing:-0.02899453836793976em">R<tspan x="9.79" y="0" style="letter-spacing:0.05902459596330594em">a</tspan><tspan x="18.48" y="0" style="letter-spacing:0.004004007679382158em">b</tspan><tspan x="27.16" y="0" style="letter-spacing:-0.00006903461516176132em">i</tspan></text></g><g style="clip-path:url(#clip-path-8)"><text transform="translate(556.09 173.36)" style="font-size:14.125106811523438px;fill:#fff;font-family:Arial-BoldMT, Arial;font-weight:700;letter-spacing:-0.02899453836793976em">R<tspan x="9.79" y="0" style="letter-spacing:0.05902459596330594em">a</tspan><tspan x="18.48" y="0" style="letter-spacing:0.004004007679382158em">b</tspan><tspan x="27.16" y="0" style="letter-spacing:-0.00006903461516176132em">i</tspan></text></g><g style="clip-path:url(#clip-path-9)"><text transform="translate(556.09 225.53)" style="font-size:14.125106811523438px;fill:#fff;font-family:Arial-BoldMT, Arial;font-weight:700;letter-spacing:-0.02899453836793976em">R<tspan x="9.79" y="0" style="letter-spacing:0.05902459596330594em">a</tspan><tspan x="18.48" y="0" style="letter-spacing:0.004004007679382158em">b</tspan><tspan x="27.16" y="0" style="letter-spacing:-0.00006903461516176132em">i</tspan></text></g><g style="clip-path:url(#clip-path-10)"><text transform="translate(597.45 121.22)" style="font-size:14.125106811523438px;fill:#fff;font-family:Arial-BoldMT, Arial;font-weight:700;letter-spacing:-0.02899453836793976em">R<tspan x="9.79" y="0" style="letter-spacing:0.05902459596330594em">a</tspan><tspan x="18.48" y="0" style="letter-spacing:0.004004007679382158em">b</tspan><tspan x="27.16" y="0" style="letter-spacing:-0.00006903461516176132em">i</tspan></text></g><g style="clip-path:url(#clip-path-11)"><text transform="translate(556.09 147.29)" style="font-size:14.125106811523438px;fill:#fff;font-family:Arial-BoldMT, Arial;font-weight:700;letter-spacing:-0.02899453836793976em">R<tspan x="9.79" y="0" style="letter-spacing:0.05902459596330594em">a</tspan><tspan x="18.48" y="0" style="letter-spacing:0.004004007679382158em">b</tspan><tspan x="27.16" y="0" style="letter-spacing:-0.00006903461516176132em">i</tspan></text></g><g style="clip-path:url(#clip-path-12)"><polyline points="2.23 57.11 2.23 58.2 898.86 58.2 898.86 57.11 2.23 57.11" style="fill:#bfbfbf;fill-rule:evenodd"/><polyline points="2.23 102.75 2.23 103.83 898.86 103.83 898.86 102.75 2.23 102.75" style="fill:#bfbfbf;fill-rule:evenodd"/><polyline points="652.94 58.2 652.94 103.83 654.03 103.83 654.03 58.2 652.94 58.2" style="fill:#bfbfbf;fill-rule:evenodd"/><polyline points="2.23 128.82 2.23 129.91 898.86 129.91 898.86 128.82 2.23 128.82" style="fill:#bfbfbf;fill-rule:evenodd"/><polyline points="816.16 58.2 816.16 129.91 817.25 129.91 817.25 58.2 816.16 58.2" style="fill:#bfbfbf;fill-rule:evenodd"/><polyline points="117.57 180.98 117.57 182.06 898.86 182.06 898.86 180.98 117.57 180.98" style="fill:#bfbfbf;fill-rule:evenodd"/><polyline points="652.94 129.91 652.94 182.06 654.03 182.06 654.03 129.91 652.94 129.91" style="fill:#bfbfbf;fill-rule:evenodd"/><polyline points="2.23 207.05 2.23 208.14 898.86 208.14 898.86 207.05 2.23 207.05" style="fill:#bfbfbf;fill-rule:evenodd"/><polyline points="2.23 233.13 2.23 234.22 898.86 234.22 898.86 233.13 2.23 233.13" style="fill:#bfbfbf;fill-rule:evenodd"/><polyline points="1.14 57.11 1.14 260.29 2.23 260.29 2.23 57.11 1.14 57.11" style="fill:#bfbfbf;fill-rule:evenodd"/><polyline points="2.23 259.21 2.23 260.29 898.86 260.29 898.86 259.21 2.23 259.21" style="fill:#bfbfbf;fill-rule:evenodd"/><polyline points="897.77 58.2 897.77 260.29 898.86 260.29 898.86 58.2 897.77 58.2" style="fill:#bfbfbf;fill-rule:evenodd"/><polyline points="1.14 260.29 1.14 292.89 2.23 292.89 2.23 260.29 1.14 260.29" style="fill:#fff;fill-rule:evenodd"/><polyline points="116.48 58.2 116.48 260.29 117.57 260.29 117.57 58.2 116.48 58.2" style="fill:#bfbfbf;fill-rule:evenodd"/><polyline points="244.88 58.2 244.88 260.29 245.97 260.29 245.97 58.2 244.88 58.2" style="fill:#bfbfbf;fill-rule:evenodd"/><polyline points="326.5 58.2 326.5 103.83 327.58 103.83 327.58 58.2 326.5 58.2" style="fill:#bfbfbf;fill-rule:evenodd"/><polyline points="408.11 58.2 408.11 260.29 409.19 260.29 409.19 58.2 408.11 58.2" style="fill:#bfbfbf;fill-rule:evenodd"/><polyline points="489.72 58.2 489.72 260.29 490.81 260.29 490.81 58.2 489.72 58.2" style="fill:#bfbfbf;fill-rule:evenodd"/><polyline points="571.33 58.2 571.33 103.83 572.42 103.83 572.42 58.2 571.33 58.2" style="fill:#bfbfbf;fill-rule:evenodd"/><polyline points="652.94 208.14 652.94 260.29 654.03 260.29 654.03 208.14 652.94 208.14" style="fill:#bfbfbf;fill-rule:evenodd"/><polyline points="734.55 58.2 734.55 260.29 735.64 260.29 735.64 58.2 734.55 58.2" style="fill:#bfbfbf;fill-rule:evenodd"/><polyline points="816.16 182.06 816.16 208.14 817.25 208.14 817.25 182.06 816.16 182.06" style="fill:#bfbfbf;fill-rule:evenodd"/><polyline points="897.77 260.29 897.77 292.89 898.86 292.89 898.86 260.29 897.77 260.29" style="fill:#fff;fill-rule:evenodd"/><polyline points="898.86 57.11 898.86 58.2 899.95 58.2 899.95 57.11 898.86 57.11" style="fill:#d4d4d4;fill-rule:evenodd"/><polyline points="898.86 102.75 898.86 103.83 899.95 103.83 899.95 102.75 898.86 102.75" style="fill:#d4d4d4;fill-rule:evenodd"/><polyline points="898.86 128.82 898.86 129.91 899.95 129.91 899.95 128.82 898.86 128.82" style="fill:#d4d4d4;fill-rule:evenodd"/><polyline points="2.23 154.9 2.23 155.99 899.95 155.99 899.95 154.9 2.23 154.9" style="fill:#bfbfbf;fill-rule:evenodd"/><polyline points="898.86 180.98 898.86 182.06 899.95 182.06 899.95 180.98 898.86 180.98" style="fill:#d4d4d4;fill-rule:evenodd"/><polyline points="898.86 207.05 898.86 208.14 899.95 208.14 899.95 207.05 898.86 207.05" style="fill:#d4d4d4;fill-rule:evenodd"/><polyline points="898.86 233.13 898.86 234.22 899.95 234.22 899.95 233.13 898.86 233.13" style="fill:#d4d4d4;fill-rule:evenodd"/><polyline points="898.86 259.21 898.86 260.29 899.95 260.29 899.95 259.21 898.86 259.21" style="fill:#d4d4d4;fill-rule:evenodd"/><polyline points="1.14 291.8 1.14 292.89 899.95 292.89 899.95 291.8 1.14 291.8" style="fill:#fff;fill-rule:evenodd"/></g></svg>