<svg id="Layer_1" data-name="Layer 1" xmlns="http://www.w3.org/2000/svg" xmlns:xlink="http://www.w3.org/1999/xlink" viewBox="0 0 900 350"><defs><clipPath id="clip-path"><polygon points="2.13 347.78 897.73 347.78 897.73 2.08 2.13 2.08 2.13 347.78 2.13 347.78" style="fill:none;clip-rule:evenodd"/></clipPath><clipPath id="clip-path-2"><polygon points="60.91 311.05 892.02 311.05 892.02 29.97 60.91 29.97 60.91 311.05 60.91 311.05" style="fill:none;clip-rule:evenodd"/></clipPath><clipPath id="clip-path-7"><rect x="2.13" y="2.08" width="895.6" height="345.7" style="fill:none"/></clipPath><clipPath id="clip-path-28"><rect x="84.85" y="42.35" width="204.48" height="18.37" style="fill:none"/></clipPath></defs><title>yar</title><polygon points="2.27 2.08 897.87 2.08 897.87 347.92 2.27 347.92 2.27 2.08 2.27 2.08" style="fill:#eaeaea;fill-rule:evenodd"/><polygon points="60.91 29.97 891.2 29.97 891.2 310.23 60.91 310.23 60.91 29.97 60.91 29.97" style="fill:#fff;fill-rule:evenodd"/><path d="M60.91,310.23H891.2M60.91,178.4H891.2m-830.29-66H891.2m-830.29-66H891.2" style="fill:none;stroke:#d9d9d9;stroke-linejoin:round;stroke-width:0.7199999690055847px"/><g style="clip-path:url(#clip-path)"><path d="M60.91,30V310.23M143.89,30V310.23M227,30V310.23M310,30V310.23M393,30V310.23M476.12,30V310.23M559.11,30V310.23M642.1,30V310.23M725.22,30V310.23M808.21,30V310.23M891.2,30V310.23" style="fill:none;stroke:#d9d9d9;stroke-linejoin:round;stroke-width:0.7199999690055847px"/></g><g style="clip-path:url(#clip-path-2)"><path d="M85.8,244.25H119V246H85.8v-1.77Zm83.13,0h33.19v9.93H168.93v-9.93Zm83,0h33.19v5.85H251.92v-5.85Zm83,0h33.2v4.22H334.9v-4.22Zm83,0h33.33v3.4H417.89v-3.4Zm83.13,0h33.19v9.11H501v-9.11Zm83,0H617.2v11.56H584V244.25Zm83,0h33.33v4.22H667v-4.22Zm83.12,0h33.2v7.48h-33.2v-7.48Zm83,0H866.3v2.17H833.11v-2.17Z" style="fill:#ff25f3"/></g><g style="clip-path:url(#clip-path-2)"><path d="M85.8,142.08H119V244.25H85.8V142.08Zm83.13-68.3h33.19V244.25H168.93V73.78Zm83,32.11h33.19V244.25H251.92V105.89Zm83,5h33.2V244.25H334.9V110.92Zm83,27.08h33.33V244.25H417.89V138ZM501,113.91h33.19V244.25H501V113.91Zm83-49.24H617.2V244.25H584V64.67Zm83,49.38h33.33v130.2H667V114.05Zm83.12,74.55h33.2v55.65h-33.2V188.6Zm83-8.16H866.3v63.81H833.11V180.44Z" style="fill:#5e9fff"/></g><g style="clip-path:url(#clip-path-2)"><path d="M85.8,140.58H119v1.5H85.8v-1.5Zm83.13-76.32h33.19v9.52H168.93V64.26Zm83,36.19h33.19v5.44H251.92v-5.44Zm83,6.12h33.2v4.35H334.9v-4.35Zm83,28.43h33.33v3H417.89v-3ZM501,104.94h33.19v9H501v-9ZM584,53.1H617.2V64.67H584V53.1ZM667,110h33.33v4.08H667V110Zm83.12,71.15h33.2v7.48h-33.2v-7.48Zm83-2.85H866.3v2.17H833.11v-2.17Z" style="fill:#04f"/></g><g style="clip-path:url(#clip-path)"><line x1="60.91" y1="244.25" x2="891.2" y2="244.25" style="fill:none;stroke:#d9d9d9;stroke-linejoin:round;stroke-width:0.7199999690055847px"/></g><g style="clip-path:url(#clip-path)"><path d="M60.91,244.25v3.13m83-3.13v3.13M227,244.25v3.13m83-3.13v3.13m83-3.13v3.13m83.12-3.13v3.13m83-3.13v3.13m83-3.13v3.13m83.12-3.13v3.13m83-3.13v3.13m83-3.13v3.13" style="fill:none;stroke:#d9d9d9;stroke-linejoin:round;stroke-width:0.7199999690055847px"/></g><g style="clip-path:url(#clip-path-7)"><text transform="translate(89.7 259.38)" style="font-size:10.203531265258789px;font-family:Arial-BoldMT, Arial;font-weight:700">-</text></g><g style="clip-path:url(#clip-path-7)"><text transform="translate(93.1 259.38)" style="font-size:10.203531265258789px;font-family:Arial-BoldMT, Arial;font-weight:700"><tspan style="letter-spacing:0.0029669569008011643em">1</tspan><tspan x="5.71" y="0" style="letter-spacing:0.0020098740295749823em">.</tspan><tspan x="8.56" y="0" style="letter-spacing:0.0029669569008011643em">55</tspan><tspan x="19.97" y="0">%</tspan></text></g><g style="clip-path:url(#clip-path-7)"><text transform="translate(172.23 265.79)" style="font-size:10.203531265258789px;font-family:Arial-BoldMT, Arial;font-weight:700">-</text></g><g style="clip-path:url(#clip-path-7)"><text transform="translate(175.64 265.79)" style="font-size:10.203531265258789px;font-family:Arial-BoldMT, Arial;font-weight:700;letter-spacing:0.0029669569008011643em">5<tspan x="5.71" y="0" style="letter-spacing:0.0020098740295749823em">.</tspan><tspan x="8.56" y="0">6</tspan><tspan x="14.27" y="0" style="letter-spacing:0.0000957082871226182em">%</tspan></text></g><g style="clip-path:url(#clip-path-7)"><text transform="translate(252.41 263.73)" style="font-size:10.203531265258789px;font-family:Arial-BoldMT, Arial;font-weight:700">-</text></g><g style="clip-path:url(#clip-path-7)"><text transform="translate(255.81 263.73)" style="font-size:10.203531265258789px;font-family:Arial-BoldMT, Arial;font-weight:700"><tspan style="letter-spacing:0.0029669569008011643em">4</tspan><tspan x="5.71" y="0" style="letter-spacing:0.0020098740295749823em">.</tspan><tspan x="8.56" y="0" style="letter-spacing:0.0029669569008011643em">01</tspan><tspan x="19.97" y="0">%</tspan></text></g><g style="clip-path:url(#clip-path-7)"><text transform="translate(338.8 262.57)" style="font-size:10.203531265258789px;font-family:Arial-BoldMT, Arial;font-weight:700">-</text></g><g style="clip-path:url(#clip-path-7)"><text transform="translate(342.2 262.57)" style="font-size:10.203531265258789px;font-family:Arial-BoldMT, Arial;font-weight:700"><tspan style="letter-spacing:0.0029669569008011643em">3</tspan><tspan x="5.71" y="0" style="letter-spacing:0.0020098740295749823em">.</tspan><tspan x="8.56" y="0" style="letter-spacing:0.0029669569008011643em">27</tspan><tspan x="19.97" y="0">%</tspan></text></g><g style="clip-path:url(#clip-path-7)"><text transform="translate(418.48 263.2)" style="font-size:10.203531265258789px;font-family:Arial-BoldMT, Arial;font-weight:700">-</text></g><g style="clip-path:url(#clip-path-7)"><text transform="translate(421.88 263.2)" style="font-size:10.203531265258789px;font-family:Arial-BoldMT, Arial;font-weight:700"><tspan style="letter-spacing:0.0029669569008011643em">2</tspan><tspan x="5.71" y="0" style="letter-spacing:0.0020098740295749823em">.</tspan><tspan x="8.56" y="0" style="letter-spacing:0.0029669569008011643em">87</tspan><tspan x="19.97" y="0">%</tspan></text></g><g style="clip-path:url(#clip-path-7)"><text transform="translate(501.51 267.22)" style="font-size:10.203531265258789px;font-family:Arial-BoldMT, Arial;font-weight:700">-</text></g><g style="clip-path:url(#clip-path-7)"><text transform="translate(504.91 267.22)" style="font-size:10.203531265258789px;font-family:Arial-BoldMT, Arial;font-weight:700"><tspan style="letter-spacing:0.0029669569008011643em">6</tspan><tspan x="5.71" y="0" style="letter-spacing:0.0020098740295749823em">.</tspan><tspan x="8.56" y="0" style="letter-spacing:0.0029669569008011643em">89</tspan><tspan x="19.97" y="0">%</tspan></text></g><g style="clip-path:url(#clip-path-7)"><text transform="translate(584.54 269.58)" style="font-size:10.203531265258789px;font-family:Arial-BoldMT, Arial;font-weight:700">-</text></g><g style="clip-path:url(#clip-path-7)"><text transform="translate(587.94 269.58)" style="font-size:10.203531265258789px;font-family:Arial-BoldMT, Arial;font-weight:700"><tspan style="letter-spacing:0.0029669569008011643em">6</tspan><tspan x="5.71" y="0" style="letter-spacing:0.0020098740295749823em">.</tspan><tspan x="8.56" y="0" style="letter-spacing:0.0029669569008011643em">41</tspan><tspan x="19.97" y="0">%</tspan></text></g><g style="clip-path:url(#clip-path-7)"><text transform="translate(668.75 263.6)" style="font-size:10.203531265258789px;font-family:Arial-BoldMT, Arial;font-weight:700">-</text></g><g style="clip-path:url(#clip-path-7)"><text transform="translate(672.16 263.6)" style="font-size:10.203531265258789px;font-family:Arial-BoldMT, Arial;font-weight:700;letter-spacing:0.0029669569008011643em">3<tspan x="5.71" y="0" style="letter-spacing:0.0020098740295749823em">.</tspan><tspan x="8.56" y="0">2</tspan><tspan x="14.27" y="0" style="letter-spacing:0.0000957082871226182em">%</tspan></text></g><g style="clip-path:url(#clip-path-7)"><text transform="translate(746.08 267.41)" style="font-size:10.203531265258789px;font-family:Arial-BoldMT, Arial;font-weight:700">-</text></g><g style="clip-path:url(#clip-path-7)"><text transform="translate(749.48 267.41)" style="font-size:10.203531265258789px;font-family:Arial-BoldMT, Arial;font-weight:700"><tspan style="letter-spacing:0.0029669569008011643em">13</tspan><tspan x="11.41" y="0" style="letter-spacing:0.0019141657424523641em">.</tspan><tspan x="14.27" y="0" style="letter-spacing:0.0030626651879237824em">35</tspan><tspan x="25.68" y="0">%</tspan></text></g><g style="clip-path:url(#clip-path-7)"><text transform="translate(838.17 264.78)" style="font-size:10.203531265258789px;font-family:Arial-BoldMT, Arial;font-weight:700">-</text></g><g style="clip-path:url(#clip-path-7)"><text transform="translate(841.57 264.78)" style="font-size:10.203531265258789px;font-family:Arial-BoldMT, Arial;font-weight:700;letter-spacing:0.0029669569008011643em">3<tspan x="5.71" y="0" style="letter-spacing:0.0020098740295749823em">.</tspan><tspan x="8.56" y="0">4</tspan><tspan x="14.27" y="0" style="letter-spacing:0.0000957082871226182em">%</tspan></text></g><g style="clip-path:url(#clip-path-7)"><text transform="translate(85.12 128.95)" style="font-size:10.203531265258789px;font-family:Arial-BoldMT, Arial;font-weight:700"><tspan style="letter-spacing:0.0020098740295749823em">+</tspan><tspan x="5.98" y="0" style="letter-spacing:0.0029669569008011643em">1</tspan><tspan x="11.68" y="0" style="letter-spacing:0.0020098740295749823em">.</tspan><tspan x="14.54" y="0" style="letter-spacing:0.0029669569008011643em">55</tspan><tspan x="25.95" y="0">%</tspan></text></g><g style="clip-path:url(#clip-path-28)"><text transform="translate(172.55 55.23)" style="font-size:10.203531265258789px;font-family:Arial-BoldMT, Arial;font-weight:700"><tspan style="letter-spacing:0.0020098740295749823em">+</tspan><tspan x="5.98" y="0" style="letter-spacing:0.0029669569008011643em">5</tspan><tspan x="11.68" y="0" style="letter-spacing:0.0020098740295749823em">.</tspan><tspan x="14.54" y="0" style="letter-spacing:0.0029669569008011643em">6</tspan><tspan x="20.25" y="0">%</tspan></text></g><g style="clip-path:url(#clip-path-7)"><text transform="translate(251.19 91.13)" style="font-size:10.203531265258789px;font-family:Arial-BoldMT, Arial;font-weight:700"><tspan style="letter-spacing:0.0020098740295749823em">+</tspan><tspan x="5.98" y="0" style="letter-spacing:0.0029669569008011643em">4</tspan><tspan x="11.68" y="0" style="letter-spacing:0.0020098740295749823em">.</tspan><tspan x="14.54" y="0" style="letter-spacing:0.0029669569008011643em">01</tspan><tspan x="25.95" y="0">%</tspan></text></g><g style="clip-path:url(#clip-path-7)"><text transform="translate(334.22 98.72)" style="font-size:10.203531265258789px;font-family:Arial-BoldMT, Arial;font-weight:700"><tspan style="letter-spacing:0.0020098740295749823em">+</tspan><tspan x="5.98" y="0" style="letter-spacing:0.0029669569008011643em">3</tspan><tspan x="11.68" y="0" style="letter-spacing:0.0020098740295749823em">.</tspan><tspan x="14.54" y="0" style="letter-spacing:0.0029669569008011643em">27</tspan><tspan x="25.95" y="0">%</tspan></text></g><g style="clip-path:url(#clip-path-7)"><text transform="translate(417.16 124.31)" style="font-size:10.203531265258789px;font-family:Arial-BoldMT, Arial;font-weight:700"><tspan style="letter-spacing:0.0020098740295749823em">+</tspan><tspan x="5.98" y="0" style="letter-spacing:0.0029669569008011643em">2</tspan><tspan x="11.68" y="0" style="letter-spacing:0.0020098740295749823em">.</tspan><tspan x="14.54" y="0" style="letter-spacing:0.0029669569008011643em">87</tspan><tspan x="25.95" y="0">%</tspan></text></g><g style="clip-path:url(#clip-path-7)"><text transform="translate(500.29 97.17)" style="font-size:10.203531265258789px;font-family:Arial-BoldMT, Arial;font-weight:700"><tspan style="letter-spacing:0.0020098740295749823em">+</tspan><tspan x="5.98" y="0" style="letter-spacing:0.0029669569008011643em">6</tspan><tspan x="11.68" y="0" style="letter-spacing:0.0020098740295749823em">.</tspan><tspan x="14.54" y="0" style="letter-spacing:0.0029669569008011643em">89</tspan><tspan x="25.95" y="0">%</tspan></text></g><g style="clip-path:url(#clip-path-7)"><text transform="translate(583.32 46.68)" style="font-size:10.203531265258789px;font-family:Arial-BoldMT, Arial;font-weight:700"><tspan style="letter-spacing:0.0020098740295749823em">+</tspan><tspan x="5.98" y="0" style="letter-spacing:0.0029669569008011643em">6</tspan><tspan x="11.68" y="0" style="letter-spacing:0.0020098740295749823em">.</tspan><tspan x="14.54" y="0" style="letter-spacing:0.0029669569008011643em">41</tspan><tspan x="25.95" y="0">%</tspan></text></g><g style="clip-path:url(#clip-path-7)"><text transform="translate(669.21 102.06)" style="font-size:10.203531265258789px;font-family:Arial-BoldMT, Arial;font-weight:700"><tspan style="letter-spacing:0.0020098740295749823em">+</tspan><tspan x="5.98" y="0" style="letter-spacing:0.0029669569008011643em">3</tspan><tspan x="11.68" y="0" style="letter-spacing:0.0020098740295749823em">.</tspan><tspan x="14.54" y="0" style="letter-spacing:0.0029669569008011643em">2</tspan><tspan x="20.25" y="0">%</tspan></text></g><g style="clip-path:url(#clip-path-7)"><text transform="translate(746.52 175.03)" style="font-size:10.203531265258789px;font-family:Arial-BoldMT, Arial;font-weight:700;letter-spacing:0.0020098740295749823em">+<tspan x="5.98" y="0" style="letter-spacing:0.0029669569008011643em">13</tspan><tspan x="17.39" y="0">.</tspan><tspan x="20.25" y="0" style="letter-spacing:0.0029669569008011643em">35</tspan><tspan x="31.66" y="0" style="letter-spacing:0.0000957082871226182em">%</tspan></text></g><g style="clip-path:url(#clip-path-7)"><text transform="translate(831.93 169.54)" style="font-size:10.203531265258789px;font-family:Arial-BoldMT, Arial;font-weight:700"><tspan style="letter-spacing:0.0020098740295749823em">+</tspan><tspan x="5.98" y="0" style="letter-spacing:0.0029669569008011643em">3</tspan><tspan x="11.68" y="0" style="letter-spacing:0.0020098740295749823em">.</tspan><tspan x="14.54" y="0" style="letter-spacing:0.0029669569008011643em">4</tspan><tspan x="20.25" y="0">%</tspan></text></g><g style="clip-path:url(#clip-path-7)"><text transform="translate(28.89 313.48)" style="font-size:10.203531265258789px;font-family:ArialMT, Arial">-<tspan x="3.4" y="0" style="letter-spacing:0.0030626651879237824em">0</tspan><tspan x="9.1" y="0" style="letter-spacing:0.0019141657424523641em">.</tspan><tspan x="11.96" y="0" style="letter-spacing:-0.008996578989526112em">8</tspan><tspan x="17.54" y="0">0</tspan></text></g><g style="clip-path:url(#clip-path-7)"><text transform="translate(32.28 247.55)" style="font-size:10.203531265258789px;font-family:ArialMT, Arial"><tspan style="letter-spacing:0.0029669569008011643em">0</tspan><tspan x="5.71" y="0" style="letter-spacing:0.0020098740295749823em">.</tspan><tspan x="8.56" y="0" style="letter-spacing:-0.008996578989526112em">0</tspan><tspan x="14.14" y="0">0</tspan></text></g><g style="clip-path:url(#clip-path-7)"><text transform="translate(32.28 181.62)" style="font-size:10.203531265258789px;font-family:ArialMT, Arial"><tspan style="letter-spacing:0.0029669569008011643em">0</tspan><tspan x="5.71" y="0" style="letter-spacing:0.0020098740295749823em">.</tspan><tspan x="8.56" y="0" style="letter-spacing:-0.008996578989526112em">8</tspan><tspan x="14.14" y="0">0</tspan></text></g><g style="clip-path:url(#clip-path-7)"><text transform="translate(32.28 115.69)" style="font-size:10.203531265258789px;font-family:ArialMT, Arial"><tspan style="letter-spacing:0.0029669569008011643em">1</tspan><tspan x="5.71" y="0" style="letter-spacing:0.0020098740295749823em">.</tspan><tspan x="8.56" y="0" style="letter-spacing:-0.008996578989526112em">6</tspan><tspan x="14.14" y="0">0</tspan></text></g><g style="clip-path:url(#clip-path-7)"><text transform="translate(32.28 49.76)" style="font-size:10.203531265258789px;font-family:ArialMT, Arial"><tspan style="letter-spacing:0.0029669569008011643em">2</tspan><tspan x="5.71" y="0" style="letter-spacing:0.0020098740295749823em">.</tspan><tspan x="8.56" y="0" style="letter-spacing:-0.008996578989526112em">4</tspan><tspan x="14.14" y="0">0</tspan></text></g><g style="clip-path:url(#clip-path-7)"><text transform="translate(94.21 325.64)" style="font-size:10.203531265258789px;font-family:ArialMT, Arial"><tspan style="letter-spacing:-0.0020098740295749823em">R</tspan><tspan x="7.35" y="0">-2</tspan></text></g><g style="clip-path:url(#clip-path-7)"><text transform="translate(177.25 325.64)" style="font-size:10.203531265258789px;font-family:ArialMT, Arial"><tspan style="letter-spacing:-0.0020098740295749823em">R</tspan><tspan x="7.35" y="0">-3</tspan></text></g><g style="clip-path:url(#clip-path-7)"><text transform="translate(260.28 325.64)" style="font-size:10.203531265258789px;font-family:ArialMT, Arial"><tspan style="letter-spacing:-0.0020098740295749823em">R</tspan><tspan x="7.35" y="0">-4</tspan></text></g><g style="clip-path:url(#clip-path-7)"><text transform="translate(343.31 325.64)" style="font-size:10.203531265258789px;font-family:ArialMT, Arial"><tspan style="letter-spacing:-0.0020098740295749823em">R</tspan><tspan x="7.35" y="0">-5</tspan></text></g><g style="clip-path:url(#clip-path-7)"><text transform="translate(426.34 325.64)" style="font-size:10.203531265258789px;font-family:ArialMT, Arial"><tspan style="letter-spacing:-0.0020098740295749823em">R</tspan><tspan x="7.35" y="0">-6</tspan></text></g><g style="clip-path:url(#clip-path-7)"><text transform="translate(509.38 325.64)" style="font-size:10.203531265258789px;font-family:ArialMT, Arial"><tspan style="letter-spacing:-0.0020098740295749823em">R</tspan><tspan x="7.35" y="0">-7</tspan></text></g><g style="clip-path:url(#clip-path-7)"><text transform="translate(592.41 325.64)" style="font-size:10.203531265258789px;font-family:ArialMT, Arial"><tspan style="letter-spacing:-0.0020098740295749823em">R</tspan><tspan x="7.35" y="0">-8</tspan></text></g><g style="clip-path:url(#clip-path-7)"><text transform="translate(672.61 325.64)" style="font-size:10.203531265258789px;font-family:ArialMT, Arial"><tspan style="letter-spacing:-0.0020098740295749823em">R</tspan><tspan x="7.35" y="0">-</tspan><tspan x="10.75" y="0" style="letter-spacing:0.0029669569008011643em">1</tspan><tspan x="16.45" y="0">1</tspan></text></g><g style="clip-path:url(#clip-path-7)"><text transform="translate(752.81 325.64)" style="font-size:10.203531265258789px;font-family:ArialMT, Arial"><tspan style="letter-spacing:-0.0020098740295749823em">R</tspan><tspan x="7.35" y="0">-</tspan><tspan x="10.75" y="0" style="letter-spacing:0.0029669569008011643em">30</tspan><tspan x="22.16" y="0" style="letter-spacing:-0.0000957082871226182em">0</tspan></text></g><g style="clip-path:url(#clip-path-7)"><text transform="translate(835.84 325.64)" style="font-size:10.203531265258789px;font-family:ArialMT, Arial"><tspan style="letter-spacing:-0.0020098740295749823em">R</tspan><tspan x="7.35" y="0">-</tspan><tspan x="10.75" y="0" style="letter-spacing:0.0029669569008011643em">30</tspan><tspan x="22.16" y="0" style="letter-spacing:-0.0000957082871226182em">3</tspan></text></g><g style="clip-path:url(#clip-path-7)"><text transform="translate(19.36 234.92) rotate(-90)" style="font-size:11.29190731048584px;font-family:Arial-BoldMT, Arial;font-weight:700"><tspan style="letter-spacing:0.005016037011515552em">Q</tspan><tspan x="8.84" y="0" style="letter-spacing:0.0030269188862593844em">u</tspan><tspan x="15.77" y="0" style="letter-spacing:-0.0010378007610032174em">a</tspan><tspan x="22.04" y="0" style="letter-spacing:0.0030269188862593844em">n</tspan><tspan x="28.97" y="0" style="letter-spacing:0.003891752853762066em">t</tspan><tspan x="32.78" y="0">i</tspan><tspan x="35.91" y="0" style="letter-spacing:0.0039782362505123335em">t</tspan><tspan x="39.72" y="0" style="letter-spacing:-0.013058992909290487em">y</tspan><tspan x="45.85" y="0" style="letter-spacing:0.010983391387284052em"> </tspan><tspan x="49.11" y="0">&amp; </tspan><tspan x="60.41" y="0" style="letter-spacing:0.007005155136771718em">Y</tspan><tspan x="68.02" y="0" style="letter-spacing:-0.0010378007610032174em">a</tspan><tspan x="74.29" y="0">R</tspan><tspan x="82.44" y="0" style="letter-spacing:0.010983391387284052em"> </tspan><tspan x="85.7" y="0" style="letter-spacing:0.0039782362505123335em">(</tspan><tspan x="89.51" y="0" style="letter-spacing:0.021966782774568105em">M</tspan><tspan x="99.16" y="0" style="letter-spacing:0.015048111034546657em">T</tspan><tspan x="106.23" y="0" style="letter-spacing:-0.00008648339675026813em">)</tspan></text></g><g style="clip-path:url(#clip-path-7)"><text transform="translate(431.06 341.56)" style="font-size:11.29190731048584px;font-family:Arial-BoldMT, Arial;font-weight:700">R<tspan x="8.15" y="0" style="letter-spacing:-0.0009513173642529494em">e</tspan><tspan x="14.42" y="0" style="letter-spacing:0.0029404354895091163em">g</tspan><tspan x="21.35" y="0">i</tspan><tspan x="24.49" y="0" style="letter-spacing:0.0030269188862593844em">on</tspan><tspan x="38.35" y="0">s</tspan></text></g><polygon points="2.27 2.08 897.87 2.08 897.87 347.92 2.27 347.92 2.27 2.08 2.27 2.08" style="fill:none;stroke:#d9d9d9;stroke-linejoin:round;stroke-width:0.7200000286102295px"/></svg>