<svg id="Layer_1" data-name="Layer 1" xmlns="http://www.w3.org/2000/svg" xmlns:xlink="http://www.w3.org/1999/xlink" viewBox="0 0 900 350"><defs><clipPath id="clip-path"><polygon points="0 350.56 900.26 350.56 900.26 0 0 0 0 350.56 0 350.56" style="fill:none;clip-rule:evenodd"/></clipPath><clipPath id="clip-path-2"><polygon points="70.44 306.38 870.03 306.38 870.03 14.22 70.44 14.22 70.44 306.38 70.44 306.38" style="fill:none;clip-rule:evenodd"/></clipPath><clipPath id="clip-path-13"><rect width="900.26" height="350.56" style="fill:none"/></clipPath></defs><title>ground-truth-risk-report</title><polygon points="0.14 0 900.26 0 900.26 350.56 0.14 350.56 0.14 0 0.14 0" style="fill:#eaeaea;fill-rule:evenodd"/><polygon points="70.58 14.36 869.35 14.36 869.35 305.56 70.58 305.56 70.58 14.36 70.58 14.36" style="fill:#fff;fill-rule:evenodd"/><path d="M70.58,232.79H869.35M70.58,160H869.35M70.58,87.13H869.35M70.58,14.36H869.35" style="fill:none;stroke:#d9d9d9;stroke-linejoin:round;stroke-width:0.820657046276523px"/><g style="clip-path:url(#clip-path)"><path d="M70.58,14.36v291.2M336.74,14.36v291.2M603.05,14.36v291.2m266.3-291.2v291.2" style="fill:none;stroke:#d9d9d9;stroke-linejoin:round;stroke-width:0.820657046276523px"/></g><g style="clip-path:url(#clip-path-2)"><polygon points="152.5 78.37 254.81 78.37 254.81 305.56 152.5 305.56 152.5 78.37 152.5 78.37" style="fill:#5e9fff;fill-rule:evenodd"/><polygon points="152.5 78.37 254.81 78.37 254.81 305.56 152.5 305.56 152.5 78.37 152.5 78.37" style="fill:none;stroke:#7f7f7f;stroke-linejoin:round;stroke-width:0.820657046276523px"/><polygon points="418.67 77.28 521.12 77.28 521.12 305.56 418.67 305.56 418.67 77.28 418.67 77.28" style="fill:#5e9fff;fill-rule:evenodd"/><polygon points="418.67 77.28 521.12 77.28 521.12 305.56 418.67 305.56 418.67 77.28 418.67 77.28" style="fill:none;stroke:#7f7f7f;stroke-linejoin:round;stroke-width:0.820657046276523px"/><polygon points="684.98 75.5 787.42 75.5 787.42 305.56 684.98 305.56 684.98 75.5 684.98 75.5" style="fill:#5e9fff;fill-rule:evenodd"/><polygon points="684.98 75.5 787.42 75.5 787.42 305.56 684.98 305.56 684.98 75.5 684.98 75.5" style="fill:none;stroke:#7f7f7f;stroke-linejoin:round;stroke-width:0.820657046276523px"/></g><g style="clip-path:url(#clip-path)"><line x1="70.58" y1="305.56" x2="869.35" y2="305.56" style="fill:none;stroke:#d9d9d9;stroke-linejoin:round;stroke-width:0.820657046276523px"/></g><g style="clip-path:url(#clip-path)"><path d="M70.58,305.56v3.14m266.16-3.14v3.14m266.31-3.14v3.14m266.3-3.14v3.14" style="fill:none;stroke:#d9d9d9;stroke-linejoin:round;stroke-width:0.820657046276523px"/></g><g style="clip-path:url(#clip-path-2)"><polyline points="203.66 42.67 469.96 42.67 736.13 42.67" style="fill:none;stroke:#06f;stroke-miterlimit:10;stroke-width:1.368px;stroke-dasharray:5,5"/></g><g style="clip-path:url(#clip-path)"><path d="M206.48,42.69a2.88,2.88,0,1,1-2.88-2.88,2.88,2.88,0,0,1,2.88,2.88Z" style="fill:#2935e8"/><path d="M472.78,42.69a2.88,2.88,0,1,1-2.87-2.88,2.88,2.88,0,0,1,2.87,2.88Z" style="fill:#2935e8"/><path d="M738.94,42.69a2.87,2.87,0,1,1-2.87-2.88,2.87,2.87,0,0,1,2.87,2.88Z" style="fill:#2935e8"/></g><g style="clip-path:url(#clip-path-2)"><polyline points="203.66 132.4 469.96 132.4 736.13 132.4" style="fill:none;stroke:#ff25f3;stroke-miterlimit:10;stroke-width:1.368px;stroke-dasharray:5,5"/></g><g style="clip-path:url(#clip-path)"><path d="M206.48,132.41a2.88,2.88,0,1,1-2.88-2.87,2.87,2.87,0,0,1,2.88,2.87Z" style="fill:#ff25f3"/><path d="M206.48,132.41a2.88,2.88,0,1,1-2.88-2.87,2.87,2.87,0,0,1,2.88,2.87Z" style="fill:none;stroke:#fff;stroke-linejoin:round;stroke-width:0.820657114213987px"/><path d="M472.78,132.41a2.88,2.88,0,1,1-2.87-2.87,2.87,2.87,0,0,1,2.87,2.87Z" style="fill:#ff25f3"/><path d="M472.78,132.41a2.88,2.88,0,1,1-2.87-2.87,2.87,2.87,0,0,1,2.87,2.87Z" style="fill:none;stroke:#fff;stroke-linejoin:round;stroke-width:0.820657114213987px"/><path d="M738.94,132.41a2.87,2.87,0,1,1-2.87-2.87,2.86,2.86,0,0,1,2.87,2.87Z" style="fill:#ff25f3"/><path d="M738.94,132.41a2.87,2.87,0,1,1-2.87-2.87,2.86,2.86,0,0,1,2.87,2.87Z" style="fill:none;stroke:#fff;stroke-linejoin:round;stroke-width:0.820657114213987px"/></g><g style="clip-path:url(#clip-path-2)"><polyline points="203.66 72.63 469.96 72.63 736.13 72.63" style="fill:none;stroke:#7f7f7f;stroke-linecap:round;stroke-linejoin:round;stroke-width:1.36776172114838px"/></g><g style="clip-path:url(#clip-path)"><path d="M206.48,72.64a2.88,2.88,0,1,1-2.88-2.87,2.87,2.87,0,0,1,2.88,2.87Z" style="fill:#7f7f7f"/><path d="M206.48,72.64a2.88,2.88,0,1,1-2.88-2.87,2.87,2.87,0,0,1,2.88,2.87Z" style="fill:none;stroke:#7f7f7f;stroke-linejoin:round;stroke-width:0.820657114213987px"/><path d="M472.78,72.64a2.88,2.88,0,1,1-2.87-2.87,2.87,2.87,0,0,1,2.87,2.87Z" style="fill:#7f7f7f"/><path d="M472.78,72.64a2.88,2.88,0,1,1-2.87-2.87,2.87,2.87,0,0,1,2.87,2.87Z" style="fill:none;stroke:#7f7f7f;stroke-linejoin:round;stroke-width:0.820657114213987px"/><path d="M738.94,72.64a2.87,2.87,0,1,1-2.87-2.87,2.86,2.86,0,0,1,2.87,2.87Z" style="fill:#7f7f7f"/><path d="M738.94,72.64a2.87,2.87,0,1,1-2.87-2.87,2.86,2.86,0,0,1,2.87,2.87Z" style="fill:none;stroke:#7f7f7f;stroke-linejoin:round;stroke-width:0.820657114213987px"/></g><g style="clip-path:url(#clip-path-2)"><polyline points="203.66 78.37 469.96 78.37 736.13 78.37" style="fill:none;stroke:#00c1a3;stroke-linecap:round;stroke-linejoin:round;stroke-width:1.36776172114838px"/></g><g style="clip-path:url(#clip-path)"><path d="M206.48,78.38a2.88,2.88,0,1,1-2.88-2.87,2.88,2.88,0,0,1,2.88,2.87Z" style="fill:#00c1a3"/><path d="M206.48,78.38a2.88,2.88,0,1,1-2.88-2.87,2.88,2.88,0,0,1,2.88,2.87Z" style="fill:none;stroke:#fff;stroke-linejoin:round;stroke-width:0.820657114213987px"/><path d="M472.78,78.38a2.88,2.88,0,1,1-2.87-2.87,2.88,2.88,0,0,1,2.87,2.87Z" style="fill:#00c1a3"/><path d="M472.78,78.38a2.88,2.88,0,1,1-2.87-2.87,2.88,2.88,0,0,1,2.87,2.87Z" style="fill:none;stroke:#fff;stroke-linejoin:round;stroke-width:0.820657114213987px"/><path d="M738.94,78.38a2.87,2.87,0,1,1-2.87-2.87,2.87,2.87,0,0,1,2.87,2.87Z" style="fill:#00c1a3"/><path d="M738.94,78.38a2.87,2.87,0,1,1-2.87-2.87,2.87,2.87,0,0,1,2.87,2.87Z" style="fill:none;stroke:#fff;stroke-linejoin:round;stroke-width:0.820657114213987px"/></g><g style="clip-path:url(#clip-path-13)"><text transform="translate(41.76 308.89)" style="font-size:10.258210182189941px;font-family:ArialMT, Arial"><tspan style="letter-spacing:0.00304634038930646em">9</tspan><tspan x="5.74" y="0" style="letter-spacing:0.0019991608804823644em">.</tspan><tspan x="8.61" y="0" style="letter-spacing:-0.008948624893587727em">5</tspan><tspan x="14.22" y="0">0</tspan></text></g><g style="clip-path:url(#clip-path-13)"><text transform="translate(36.06 236.05)" style="font-size:10.258210182189941px;font-family:ArialMT, Arial"><tspan style="letter-spacing:0.00304634038930646em">1</tspan><tspan x="5.74" y="0" style="letter-spacing:-0.009043823030753554em">0</tspan><tspan x="11.35" y="0" style="letter-spacing:0.0020943590176481916em">.</tspan><tspan x="14.22" y="0" style="letter-spacing:0.0029511422521406334em">7</tspan><tspan x="19.96" y="0">5</tspan></text></g><g style="clip-path:url(#clip-path-13)"><text transform="translate(36.06 163.23)" style="font-size:10.258210182189941px;font-family:ArialMT, Arial"><tspan style="letter-spacing:0.00304634038930646em">1</tspan><tspan x="5.74" y="0" style="letter-spacing:-0.009043823030753554em">2</tspan><tspan x="11.35" y="0" style="letter-spacing:0.0020943590176481916em">.</tspan><tspan x="14.22" y="0" style="letter-spacing:0.0029511422521406334em">0</tspan><tspan x="19.96" y="0">0</tspan></text></g><g style="clip-path:url(#clip-path-13)"><text transform="translate(36.06 90.4)" style="font-size:10.258210182189941px;font-family:ArialMT, Arial"><tspan style="letter-spacing:0.00304634038930646em">1</tspan><tspan x="5.74" y="0" style="letter-spacing:-0.009043823030753554em">3</tspan><tspan x="11.35" y="0" style="letter-spacing:0.0020943590176481916em">.</tspan><tspan x="14.22" y="0" style="letter-spacing:0.0029511422521406334em">2</tspan><tspan x="19.96" y="0">5</tspan></text></g><g style="clip-path:url(#clip-path-13)"><text transform="translate(36.06 17.57)" style="font-size:10.258210182189941px;font-family:ArialMT, Arial"><tspan style="letter-spacing:0.00304634038930646em">1</tspan><tspan x="5.74" y="0" style="letter-spacing:-0.009043823030753554em">4</tspan><tspan x="11.35" y="0" style="letter-spacing:0.0020943590176481916em">.</tspan><tspan x="14.22" y="0" style="letter-spacing:0.0029511422521406334em">5</tspan><tspan x="19.96" y="0">0</tspan></text></g><g style="clip-path:url(#clip-path-13)"><text transform="translate(193.44 321.11)" style="font-size:10.258210182189941px;font-family:ArialMT, Arial">Oct</text></g><g style="clip-path:url(#clip-path-13)"><text transform="translate(457.68 321.11)" style="font-size:10.258210182189941px;font-family:ArialMT, Arial">Nov</text></g><g style="clip-path:url(#clip-path-13)"><text transform="translate(726.92 321.11)" style="font-size:10.258210182189941px;font-family:ArialMT, Arial">Dec</text></g><g style="clip-path:url(#clip-path-13)"><text transform="translate(20.15 197.66) rotate(-90)" style="font-size:11.35241985321045px;font-family:Arial-BoldMT, Arial;font-weight:700"><tspan style="letter-spacing:0.004989299702827861em">Q</tspan><tspan x="8.89" y="0" style="letter-spacing:0.0030107843034306056em">u</tspan><tspan x="15.86" y="0" style="letter-spacing:-0.0009462464953639046em">a</tspan><tspan x="22.16" y="0" style="letter-spacing:0.00292476189476116em">n</tspan><tspan x="29.13" y="0" style="letter-spacing:0.004043053207463956em">t</tspan><tspan x="32.95" y="0">i</tspan><tspan x="36.11" y="0" style="letter-spacing:0.004043053207463956em">t</tspan><tspan x="39.93" y="0" style="letter-spacing:-0.012989383709086326em">y</tspan><tspan x="46.1" y="0" style="letter-spacing:0.010924845901019626em"> </tspan><tspan x="49.38" y="0" style="letter-spacing:0.004043053207463956em">(</tspan><tspan x="53.2" y="0" style="letter-spacing:0.0219357142107087em">M</tspan><tspan x="62.91" y="0" style="letter-spacing:0.015053921517153028em">T</tspan><tspan x="70.01" y="0">)</tspan></text></g><g style="clip-path:url(#clip-path-13)"><text transform="translate(410.52 341.3)" style="font-size:11.35241985321045px;font-family:Arial-BoldMT, Arial;font-weight:700"><tspan style="letter-spacing:0.01496789910848358em">T</tspan><tspan x="7.1" y="0">i</tspan><tspan x="10.26" y="0" style="letter-spacing:0.0020645378080667008em">m</tspan><tspan x="20.38" y="0" style="letter-spacing:-0.0010322689040333504em">e</tspan><tspan x="26.68" y="0"> </tspan><tspan x="29.83" y="0" style="letter-spacing:-0.004043053207463956em">P</tspan><tspan x="37.36" y="0" style="letter-spacing:-0.0009462464953639046em">e</tspan><tspan x="43.66" y="0" style="letter-spacing:-0.0030107843034306056em">r</tspan><tspan x="48.04" y="0">i</tspan><tspan x="51.2" y="0" style="letter-spacing:0.00292476189476116em">o</tspan><tspan x="58.17" y="0">d</tspan></text></g><polygon points="0.14 0 900.26 0 900.26 350.56 0.14 350.56 0.14 0 0.14 0" style="fill:none;stroke:#ddd;stroke-linejoin:round;stroke-width:0.820657114213987px"/></svg>