<svg id="Layer_1" data-name="Layer 1" xmlns="http://www.w3.org/2000/svg" xmlns:xlink="http://www.w3.org/1999/xlink" viewBox="0 0 900 350"><defs><clipPath id="clip-path"><polygon points="0 349.21 897.91 349.21 897.91 0 0 0 0 349.21 0 349.21" style="fill:none;clip-rule:evenodd"/></clipPath><clipPath id="clip-path-6"><polygon points="62.24 293.6 886.72 293.6 886.72 14.96 62.24 14.96 62.24 293.6 62.24 293.6" style="fill:none;clip-rule:evenodd"/></clipPath><clipPath id="clip-path-10"><rect width="897.91" height="349.21" style="fill:none"/></clipPath></defs><title>ndvi-risk-report</title><polygon points="0 0 897.91 0 897.91 349.35 0 349.35 0 0 0 0" style="fill:#eaeaea;fill-rule:evenodd"/><polygon points="62.24 14.96 886.04 14.96 886.04 292.92 62.24 292.92 62.24 14.96 62.24 14.96" style="fill:#fff;fill-rule:evenodd"/><path d="M62.25,223.43H886M62.25,153.94H886M62.25,84.45H886M62.25,15H886" style="fill:none;stroke:#d9d9d9;stroke-linejoin:round;stroke-width:0.817466496436723px"/><g style="clip-path:url(#clip-path)"><path d="M96.64,15v278M165.3,15v278M234,15v278M302.49,15v278M371.15,15v278M439.81,15v278M508.47,15v278M577.13,15v278M645.79,15v278M714.45,15v278M783,15v278M851.64,15v278" style="fill:none;stroke:#f2f2f2;stroke-linejoin:round;stroke-width:0.817466496436723px"/></g><g style="clip-path:url(#clip-path)"><path d="M62.25,15v278M130.91,15v278M199.57,15v278M268.23,15v278M336.89,15v278M405.55,15v278M474.21,15v278M542.73,15v278M611.39,15v278M680.06,15v278M748.72,15v278M817.38,15v278M886,15v278" style="fill:none;stroke:#d9d9d9;stroke-linejoin:round;stroke-width:0.817466496436723px"/></g><g style="clip-path:url(#clip-path)"><line x1="62.25" y1="292.92" x2="886.04" y2="292.92" style="fill:none;stroke:#d9d9d9;stroke-linejoin:round;stroke-width:1.36244413817009px"/></g><g style="clip-path:url(#clip-path)"><path d="M62.25,292.92v18.35m274.64-18.35v18.35m274.5-18.35v18.35M886,292.92v18.35" style="fill:none;stroke:#d9d9d9;stroke-linejoin:round;stroke-width:1.36244413817009px"/></g><g style="clip-path:url(#clip-path)"><path d="M62.25,311.27v18.36m274.64-18.36v18.36m274.5-18.36v18.36M886,311.27v18.36" style="fill:none;stroke:#d9d9d9;stroke-linejoin:round;stroke-width:1.36244413817009px"/></g><g style="clip-path:url(#clip-path-6)"><polyline points="96.64 167.81 165.3 131.63 233.97 98.32 302.49 81.73 371.15 70.58 439.81 65 508.47 76.15 577.13 98.32 645.79 126.2 714.45 140.07 782.98 153.94 851.64 170.53" style="fill:none;stroke:#ff25f3;stroke-linecap:round;stroke-linejoin:round;stroke-width:2.45239942163683px"/></g><g style="clip-path:url(#clip-path)"><polygon points="93.83 164.95 99.56 164.95 99.56 170.66 93.83 170.66 93.83 164.95 93.83 164.95" style="fill:#ff25f3;fill-rule:evenodd"/><polygon points="93.83 164.95 99.56 164.95 99.56 170.66 93.83 170.66 93.83 164.95 93.83 164.95" style="fill:none;stroke:#f2f2f2;stroke-linejoin:round;stroke-width:0.817466564110059px"/><polygon points="162.49 128.78 168.22 128.78 168.22 134.49 162.49 134.49 162.49 128.78 162.49 128.78" style="fill:#ff25f3;fill-rule:evenodd"/><polygon points="162.49 128.78 168.22 128.78 168.22 134.49 162.49 134.49 162.49 128.78 162.49 128.78" style="fill:none;stroke:#f2f2f2;stroke-linejoin:round;stroke-width:0.817466564110059px"/><polygon points="231.15 95.46 236.88 95.46 236.88 101.17 231.15 101.17 231.15 95.46 231.15 95.46" style="fill:#ff25f3;fill-rule:evenodd"/><polygon points="231.15 95.46 236.88 95.46 236.88 101.17 231.15 101.17 231.15 95.46 231.15 95.46" style="fill:none;stroke:#f2f2f2;stroke-linejoin:round;stroke-width:0.817466564110059px"/><polygon points="299.67 78.87 305.41 78.87 305.41 84.58 299.67 84.58 299.67 78.87 299.67 78.87" style="fill:#ff25f3;fill-rule:evenodd"/><polygon points="299.67 78.87 305.41 78.87 305.41 84.58 299.67 84.58 299.67 78.87 299.67 78.87" style="fill:none;stroke:#f2f2f2;stroke-linejoin:round;stroke-width:0.817466564110059px"/><polygon points="368.33 67.72 374.07 67.72 374.07 73.43 368.33 73.43 368.33 67.72 368.33 67.72" style="fill:#ff25f3;fill-rule:evenodd"/><polygon points="368.33 67.72 374.07 67.72 374.07 73.43 368.33 73.43 368.33 67.72 368.33 67.72" style="fill:none;stroke:#f2f2f2;stroke-linejoin:round;stroke-width:0.817466564110059px"/><polygon points="437 62.15 442.73 62.15 442.73 67.86 437 67.86 437 62.15 437 62.15" style="fill:#ff25f3;fill-rule:evenodd"/><polygon points="437 62.15 442.73 62.15 442.73 67.86 437 67.86 437 62.15 437 62.15" style="fill:none;stroke:#f2f2f2;stroke-linejoin:round;stroke-width:0.817466564110059px"/><polygon points="505.66 73.3 511.39 73.3 511.39 79.01 505.66 79.01 505.66 73.3 505.66 73.3" style="fill:#ff25f3;fill-rule:evenodd"/><polygon points="505.66 73.3 511.39 73.3 511.39 79.01 505.66 79.01 505.66 73.3 505.66 73.3" style="fill:none;stroke:#f2f2f2;stroke-linejoin:round;stroke-width:0.817466564110059px"/><polygon points="574.32 95.46 580.05 95.46 580.05 101.17 574.32 101.17 574.32 95.46 574.32 95.46" style="fill:#ff25f3;fill-rule:evenodd"/><polygon points="574.32 95.46 580.05 95.46 580.05 101.17 574.32 101.17 574.32 95.46 574.32 95.46" style="fill:none;stroke:#f2f2f2;stroke-linejoin:round;stroke-width:0.817466564110059px"/><polygon points="642.98 123.34 648.71 123.34 648.71 129.05 642.98 129.05 642.98 123.34 642.98 123.34" style="fill:#ff25f3;fill-rule:evenodd"/><polygon points="642.98 123.34 648.71 123.34 648.71 129.05 642.98 129.05 642.98 123.34 642.98 123.34" style="fill:none;stroke:#f2f2f2;stroke-linejoin:round;stroke-width:0.817466564110059px"/><polygon points="711.64 137.21 717.37 137.21 717.37 142.92 711.64 142.92 711.64 137.21 711.64 137.21" style="fill:#ff25f3;fill-rule:evenodd"/><polygon points="711.64 137.21 717.37 137.21 717.37 142.92 711.64 142.92 711.64 137.21 711.64 137.21" style="fill:none;stroke:#f2f2f2;stroke-linejoin:round;stroke-width:0.817466564110059px"/><polygon points="780.16 151.08 785.9 151.08 785.9 156.79 780.16 156.79 780.16 151.08 780.16 151.08" style="fill:#ff25f3;fill-rule:evenodd"/><polygon points="780.16 151.08 785.9 151.08 785.9 156.79 780.16 156.79 780.16 151.08 780.16 151.08" style="fill:none;stroke:#f2f2f2;stroke-linejoin:round;stroke-width:0.817466564110059px"/><polygon points="848.82 167.67 854.56 167.67 854.56 173.38 848.82 173.38 848.82 167.67 848.82 167.67" style="fill:#ff25f3;fill-rule:evenodd"/><polygon points="848.82 167.67 854.56 167.67 854.56 173.38 848.82 173.38 848.82 167.67 848.82 167.67" style="fill:none;stroke:#f2f2f2;stroke-linejoin:round;stroke-width:0.817466564110059px"/></g><g style="clip-path:url(#clip-path-6)"><polyline points="96.64 181.68 165.3 148.36 233.97 115.05 302.49 98.32 371.15 87.17 439.81 76.15 508.47 87.17 577.13 98.32 645.79 131.63 714.45 148.36 782.98 162.23 851.64 181.68" style="fill:none;stroke:#06f;stroke-linecap:round;stroke-linejoin:round;stroke-width:2.45239942163683px"/></g><g style="clip-path:url(#clip-path)"><path d="M99.56,181.68a2.87,2.87,0,1,1-2.87-2.86,2.85,2.85,0,0,1,2.87,2.86Z" style="fill:#06f"/><path d="M168.22,148.36a2.87,2.87,0,1,1-2.86-2.85,2.86,2.86,0,0,1,2.86,2.85Z" style="fill:#06f"/><path d="M236.88,115a2.87,2.87,0,1,1-2.86-2.85,2.86,2.86,0,0,1,2.86,2.85Z" style="fill:#06f"/><path d="M305.41,98.32a2.87,2.87,0,1,1-2.87-2.86,2.86,2.86,0,0,1,2.87,2.86Z" style="fill:#06f"/><path d="M374.07,87.17a2.87,2.87,0,1,1-2.87-2.86,2.87,2.87,0,0,1,2.87,2.86Z" style="fill:#06f"/><path d="M442.73,76.15a2.87,2.87,0,1,1-2.87-2.85,2.86,2.86,0,0,1,2.87,2.85Z" style="fill:#06f"/><path d="M511.39,87.17a2.87,2.87,0,1,1-2.87-2.86,2.86,2.86,0,0,1,2.87,2.86Z" style="fill:#06f"/><path d="M580.05,98.32a2.87,2.87,0,1,1-2.87-2.86,2.85,2.85,0,0,1,2.87,2.86Z" style="fill:#06f"/><path d="M648.71,131.64a2.87,2.87,0,1,1-2.87-2.86,2.86,2.86,0,0,1,2.87,2.86Z" style="fill:#06f"/><path d="M717.37,148.36a2.87,2.87,0,1,1-2.86-2.85,2.86,2.86,0,0,1,2.86,2.85Z" style="fill:#06f"/><path d="M785.9,162.23a2.87,2.87,0,1,1-2.87-2.85,2.87,2.87,0,0,1,2.87,2.85Z" style="fill:#06f"/><path d="M854.56,181.68a2.87,2.87,0,1,1-2.87-2.86,2.86,2.86,0,0,1,2.87,2.86Z" style="fill:#06f"/></g><g style="clip-path:url(#clip-path-10)"><text transform="translate(33.56 296.11)" style="font-size:10.199020385742188px;font-family:ArialMT, Arial;letter-spacing:0.003052450907667105em">0<tspan x="5.7" y="0" style="letter-spacing:0.0019077818172919406em">.</tspan><tspan x="8.56" y="0" style="letter-spacing:-0.008966574541272119em">0</tspan><tspan x="14.14" y="0" style="letter-spacing:0.00009538909086459703em">0</tspan></text></g><g style="clip-path:url(#clip-path-10)"><text transform="translate(33.56 226.65)" style="font-size:10.199020385742188px;font-family:ArialMT, Arial;letter-spacing:0.003052450907667105em">0<tspan x="5.7" y="0" style="letter-spacing:0.0019077818172919406em">.</tspan><tspan x="8.56" y="0" style="letter-spacing:-0.008966574541272119em">2</tspan><tspan x="14.14" y="0" style="letter-spacing:0.00009538909086459703em">5</tspan></text></g><g style="clip-path:url(#clip-path-10)"><text transform="translate(33.56 157.17)" style="font-size:10.199020385742188px;font-family:ArialMT, Arial;letter-spacing:0.003052450907667105em">0<tspan x="5.7" y="0" style="letter-spacing:0.0019077818172919406em">.</tspan><tspan x="8.56" y="0" style="letter-spacing:-0.008966574541272119em">5</tspan><tspan x="14.14" y="0" style="letter-spacing:0.00009538909086459703em">0</tspan></text></g><g style="clip-path:url(#clip-path-10)"><text transform="translate(33.56 87.7)" style="font-size:10.199020385742188px;font-family:ArialMT, Arial;letter-spacing:0.003052450907667105em">0<tspan x="5.7" y="0" style="letter-spacing:0.0019077818172919406em">.</tspan><tspan x="8.56" y="0" style="letter-spacing:-0.008966574541272119em">7</tspan><tspan x="14.14" y="0" style="letter-spacing:0.00009538909086459703em">5</tspan></text></g><g style="clip-path:url(#clip-path-10)"><text transform="translate(33.56 18.24)" style="font-size:10.199020385742188px;font-family:ArialMT, Arial;letter-spacing:0.003052450907667105em">1<tspan x="5.7" y="0" style="letter-spacing:0.0019077818172919406em">.</tspan><tspan x="8.56" y="0" style="letter-spacing:-0.008966574541272119em">0</tspan><tspan x="14.14" y="0" style="letter-spacing:0.00009538909086459703em">0</tspan></text></g><g style="clip-path:url(#clip-path-10)"><text transform="translate(93.76 308.26)" style="font-size:10.199020385742188px;font-family:ArialMT, Arial">1</text></g><g style="clip-path:url(#clip-path-10)"><text transform="translate(162.41 308.26)" style="font-size:10.199020385742188px;font-family:ArialMT, Arial">2</text></g><g style="clip-path:url(#clip-path-10)"><text transform="translate(231.05 308.26)" style="font-size:10.199020385742188px;font-family:ArialMT, Arial">3</text></g><g style="clip-path:url(#clip-path-10)"><text transform="translate(299.69 308.26)" style="font-size:10.199020385742188px;font-family:ArialMT, Arial">4</text></g><g style="clip-path:url(#clip-path-10)"><text transform="translate(368.34 308.26)" style="font-size:10.199020385742188px;font-family:ArialMT, Arial">1</text></g><g style="clip-path:url(#clip-path-10)"><text transform="translate(436.97 308.26)" style="font-size:10.199020385742188px;font-family:ArialMT, Arial">2</text></g><g style="clip-path:url(#clip-path-10)"><text transform="translate(505.62 308.26)" style="font-size:10.199020385742188px;font-family:ArialMT, Arial">3</text></g><g style="clip-path:url(#clip-path-10)"><text transform="translate(574.27 308.26)" style="font-size:10.199020385742188px;font-family:ArialMT, Arial">4</text></g><g style="clip-path:url(#clip-path-10)"><text transform="translate(642.9 308.26)" style="font-size:10.199020385742188px;font-family:ArialMT, Arial">1</text></g><g style="clip-path:url(#clip-path-10)"><text transform="translate(711.55 308.26)" style="font-size:10.199020385742188px;font-family:ArialMT, Arial">2</text></g><g style="clip-path:url(#clip-path-10)"><text transform="translate(780.18 308.26)" style="font-size:10.199020385742188px;font-family:ArialMT, Arial">3</text></g><g style="clip-path:url(#clip-path-10)"><text transform="translate(848.83 308.26)" style="font-size:10.199020385742188px;font-family:ArialMT, Arial">4</text></g><g style="clip-path:url(#clip-path-10)"><text transform="translate(191.61 326.65)" style="font-size:10.199020385742188px;font-family:ArialMT, Arial"><tspan style="letter-spacing:-0.004006341816313075em">O</tspan><tspan x="7.89" y="0" style="letter-spacing:0.006009512724469613em">c</tspan><tspan x="13.05" y="0">t</tspan></text></g><g style="clip-path:url(#clip-path-10)"><text transform="translate(465.05 326.65)" style="font-size:10.199020385742188px;font-family:ArialMT, Arial;letter-spacing:-0.0020031709081565377em">N<tspan x="7.35" y="0" style="letter-spacing:0.003052450907667105em">o</tspan><tspan x="13.05" y="0" style="letter-spacing:-0.00009538909086459703em">v</tspan></text></g><g style="clip-path:url(#clip-path-10)"><text transform="translate(739.61 326.65)" style="font-size:10.199020385742188px;font-family:ArialMT, Arial;letter-spacing:-0.0020031709081565377em">D<tspan x="7.35" y="0" style="letter-spacing:0.003052450907667105em">e</tspan><tspan x="13.05" y="0" style="letter-spacing:-0.00009538909086459703em">c</tspan></text></g><g style="clip-path:url(#clip-path-10)"><text transform="translate(24.38 152.39) rotate(-90)" style="font-size:11.329700469970703px;font-family:Arial-BoldMT, Arial;font-weight:700">ND<tspan x="16.36" y="0" style="letter-spacing:-0.0039800102780673495em">V</tspan><tspan x="23.88" y="0">I</tspan><tspan x="27.02" y="0" style="letter-spacing:0.010988289245968551em"> </tspan><tspan x="30.3" y="0"> </tspan><tspan x="33.44" y="0" style="letter-spacing:-0.0039800102780673495em">V</tspan><tspan x="40.95" y="0" style="letter-spacing:-0.001038263550800178em">a</tspan><tspan x="47.24" y="0" style="letter-spacing:0.0000865219625666815em">l</tspan><tspan x="50.39" y="0" style="letter-spacing:0.0029417467272671713em">u</tspan><tspan x="57.35" y="0">e</tspan></text></g><g style="clip-path:url(#clip-path-10)"><text transform="translate(431.84 338.62)" style="font-size:11.286910057067871px;font-family:Arial-BoldMT, Arial;font-weight:700"><tspan style="letter-spacing:0.006981795501895943em">W</tspan><tspan x="10.73" y="0" style="letter-spacing:-0.0009481450681587085em">ee</tspan><tspan x="23.26" y="0">k</tspan></text></g><polygon points="0 0 897.91 0 897.91 349.35 0 349.35 0 0 0 0" style="fill:none;stroke:#d9d9d9;stroke-linejoin:round;stroke-width:0.817466564110059px"/></svg>