<svg id="Layer_1" data-name="Layer 1" xmlns="http://www.w3.org/2000/svg" xmlns:xlink="http://www.w3.org/1999/xlink" viewBox="0 0 900 350"><defs><clipPath id="clip-path"><polygon points="0 348.99 900.39 348.99 900.39 0 0 0 0 348.99 0 348.99" style="fill:none;clip-rule:evenodd"/></clipPath><clipPath id="clip-path-3"><polygon points="76.04 307.41 887.24 307.41 887.24 31.53 76.04 31.53 76.04 307.41 76.04 307.41" style="fill:none;clip-rule:evenodd"/></clipPath><clipPath id="clip-path-5"><rect width="900.39" height="348.99" style="fill:none"/></clipPath></defs><title>price-volatility</title><polygon points="0 0 900.52 0 900.52 349.13 0 349.13 0 0 0 0" style="fill:#f2f2f2;fill-rule:evenodd"/><polygon points="76.04 31.66 886.43 31.66 886.43 306.59 76.04 306.59 76.04 31.66 76.04 31.66" style="fill:#fff;fill-rule:evenodd"/><path d="M76,237.83H886.43M76,169.2H886.43M76,100.43H886.43M76,31.66H886.43" style="fill:none;stroke:#d9d9d9;stroke-linejoin:round;stroke-width:0.814320315798324px"/><g style="clip-path:url(#clip-path)"><path d="M76,31.66V306.59M143.67,31.66V306.59m67.5-274.93V306.59m67.5-274.93V306.59m67.5-274.93V306.59M413.8,31.66V306.59M481.3,31.66V306.59M548.8,31.66V306.59M616.3,31.66V306.59M683.79,31.66V306.59M751.43,31.66V306.59m67.5-274.93V306.59m67.5-274.93V306.59" style="fill:none;stroke:#d9d9d9;stroke-linejoin:round;stroke-width:0.814320315798324px"/></g><g style="clip-path:url(#clip-path)"><line x1="76.04" y1="306.59" x2="886.43" y2="306.59" style="fill:none;stroke:#d9d9d9;stroke-linejoin:round;stroke-width:0.814320315798324px"/></g><g style="clip-path:url(#clip-path-3)"><polyline points="109.79 159.82 177.42 159.55 244.92 157.37 312.42 156.69 379.92 152.62 447.55 148 515.05 122.04 582.55 126.52 650.04 123.67 717.68 119.32 785.18 103.96 852.68 94.72" style="fill:none;stroke:#2935e8;stroke-linecap:round;stroke-linejoin:round;stroke-width:2.44296087998209px"/></g><g style="clip-path:url(#clip-path-3)"><polyline points="109.79 191.62 177.42 160.91 244.92 148.27 312.42 135.09 379.92 150.31 447.55 146.91 515.05 124.08 582.55 114.16 650.04 119.46 717.68 158.6 785.18 225.6 852.68 223.69" style="fill:none;stroke:#ff25f3;stroke-linecap:round;stroke-linejoin:round;stroke-width:2.44296087998209px"/></g><g style="clip-path:url(#clip-path-5)"><text transform="translate(30.59 309.88)" style="font-size:10.19260025024414px;font-family:ArialMT, Arial;letter-spacing:0.002017415991913981em"> <tspan x="2.85" y="0" style="letter-spacing:0.0029780902737777813em">1</tspan><tspan x="8.55" y="0" style="letter-spacing:-0.008934270821333344em">0</tspan><tspan x="14.13" y="0">,</tspan><tspan x="16.98" y="0" style="letter-spacing:0.0029780902737777813em">00</tspan><tspan x="28.38" y="0" style="letter-spacing:0.00009606742818638003em">0</tspan></text></g><g style="clip-path:url(#clip-path-5)"><text transform="translate(30.59 241.14)" style="font-size:10.19260025024414px;font-family:ArialMT, Arial;letter-spacing:0.002017415991913981em"> <tspan x="2.85" y="0" style="letter-spacing:0.0029780902737777813em">1</tspan><tspan x="8.55" y="0" style="letter-spacing:-0.008934270821333344em">5</tspan><tspan x="14.13" y="0">,</tspan><tspan x="16.98" y="0" style="letter-spacing:0.0029780902737777813em">00</tspan><tspan x="28.38" y="0" style="letter-spacing:0.00009606742818638003em">0</tspan></text></g><g style="clip-path:url(#clip-path-5)"><text transform="translate(30.59 172.38)" style="font-size:10.19260025024414px;font-family:ArialMT, Arial;letter-spacing:0.002017415991913981em"> <tspan x="2.85" y="0" style="letter-spacing:0.0029780902737777813em">2</tspan><tspan x="8.55" y="0" style="letter-spacing:-0.008934270821333344em">0</tspan><tspan x="14.13" y="0">,</tspan><tspan x="16.98" y="0" style="letter-spacing:0.0029780902737777813em">00</tspan><tspan x="28.38" y="0" style="letter-spacing:0.00009606742818638003em">0</tspan></text></g><g style="clip-path:url(#clip-path-5)"><text transform="translate(30.59 103.63)" style="font-size:10.19260025024414px;font-family:ArialMT, Arial;letter-spacing:0.002017415991913981em"> <tspan x="2.85" y="0" style="letter-spacing:0.0029780902737777813em">2</tspan><tspan x="8.55" y="0" style="letter-spacing:-0.008934270821333344em">5</tspan><tspan x="14.13" y="0">,</tspan><tspan x="16.98" y="0" style="letter-spacing:0.0029780902737777813em">00</tspan><tspan x="28.38" y="0" style="letter-spacing:0.00009606742818638003em">0</tspan></text></g><g style="clip-path:url(#clip-path-5)"><text transform="translate(30.59 34.87)" style="font-size:10.19260025024414px;font-family:ArialMT, Arial;letter-spacing:0.002017415991913981em"> <tspan x="2.85" y="0" style="letter-spacing:0.0029780902737777813em">3</tspan><tspan x="8.55" y="0" style="letter-spacing:-0.008934270821333344em">0</tspan><tspan x="14.13" y="0">,</tspan><tspan x="16.98" y="0" style="letter-spacing:0.0029780902737777813em">00</tspan><tspan x="28.38" y="0" style="letter-spacing:0.00009606742818638003em">0</tspan></text></g><g style="clip-path:url(#clip-path-5)"><text transform="translate(101.64 322.03)" style="font-size:10.19260025024414px;font-family:ArialMT, Arial"><tspan style="letter-spacing:0.005956180547555563em">J</tspan><tspan x="5.16" y="0" style="letter-spacing:-0.008934270821333344em">a</tspan><tspan x="10.73" y="0">n</tspan></text></g><g style="clip-path:url(#clip-path-5)"><text transform="translate(168.62 322.03)" style="font-size:10.19260025024414px;font-family:ArialMT, Arial"><tspan style="letter-spacing:0.002017415991913981em">F</tspan><tspan x="6.25" y="0" style="letter-spacing:0.003074157701964161em">e</tspan><tspan x="11.95" y="0">b</tspan></text></g><g style="clip-path:url(#clip-path-5)"><text transform="translate(236.15 322.03)" style="font-size:10.19260025024414px;font-family:ArialMT, Arial"><tspan style="letter-spacing:-0.005956180547555563em">M</tspan><tspan x="8.43" y="0" style="letter-spacing:0.0029780902737777813em">a</tspan><tspan x="14.13" y="0">r</tspan></text></g><g style="clip-path:url(#clip-path-5)"><text transform="translate(304.52 322.03)" style="font-size:10.19260025024414px;font-family:ArialMT, Arial">A<tspan x="6.8" y="0" style="letter-spacing:0.0029780902737777813em">p</tspan><tspan x="12.5" y="0" style="letter-spacing:0.00009606742818638003em">r</tspan></text></g><g style="clip-path:url(#clip-path-5)"><text transform="translate(370.36 322.03)" style="font-size:10.19260025024414px;font-family:ArialMT, Arial"><tspan style="letter-spacing:-0.005956180547555563em">M</tspan><tspan x="8.43" y="0" style="letter-spacing:0.0029780902737777813em">a</tspan><tspan x="14.13" y="0">y</tspan></text></g><g style="clip-path:url(#clip-path-5)"><text transform="translate(439.31 322.03)" style="font-size:10.19260025024414px;font-family:ArialMT, Arial"><tspan style="letter-spacing:0.005956180547555563em">J</tspan><tspan x="5.16" y="0" style="letter-spacing:-0.008934270821333344em">u</tspan><tspan x="10.73" y="0">n</tspan></text></g><g style="clip-path:url(#clip-path-5)"><text transform="translate(508.53 322.03)" style="font-size:10.19260025024414px;font-family:ArialMT, Arial;letter-spacing:0.005956180547555563em">J<tspan x="5.16" y="0" style="letter-spacing:-0.008934270821333344em">u</tspan><tspan x="10.73" y="0" style="letter-spacing:-0.00009606742818638003em">l</tspan></text></g><g style="clip-path:url(#clip-path-5)"><text transform="translate(573.51 322.03)" style="font-size:10.19260025024414px;font-family:ArialMT, Arial">A<tspan x="6.8" y="0" style="letter-spacing:0.0029780902737777813em">u</tspan><tspan x="12.5" y="0" style="letter-spacing:0.00009606742818638003em">g</tspan></text></g><g style="clip-path:url(#clip-path-5)"><text transform="translate(641.04 322.03)" style="font-size:10.19260025024414px;font-family:ArialMT, Arial">S<tspan x="6.8" y="0" style="letter-spacing:0.0029780902737777813em">e</tspan><tspan x="12.5" y="0" style="letter-spacing:0.00009606742818638003em">p</tspan></text></g><g style="clip-path:url(#clip-path-5)"><text transform="translate(709.71 322.03)" style="font-size:10.19260025024414px;font-family:ArialMT, Arial"><tspan style="letter-spacing:-0.004034831983827962em">O</tspan><tspan x="7.89" y="0" style="letter-spacing:0.005956180547555563em">c</tspan><tspan x="13.04" y="0">t</tspan></text></g><g style="clip-path:url(#clip-path-5)"><text transform="translate(776.11 322.03)" style="font-size:10.19260025024414px;font-family:ArialMT, Arial"><tspan style="letter-spacing:-0.002017415991913981em">N</tspan><tspan x="7.34" y="0" style="letter-spacing:0.003074157701964161em">o</tspan><tspan x="13.04" y="0">v</tspan></text></g><g style="clip-path:url(#clip-path-5)"><text transform="translate(843.65 322.03)" style="font-size:10.19260025024414px;font-family:ArialMT, Arial"><tspan style="letter-spacing:-0.002017415991913981em">D</tspan><tspan x="7.34" y="0" style="letter-spacing:0.003074157701964161em">e</tspan><tspan x="13.04" y="0">c</tspan></text></g><g style="clip-path:url(#clip-path-5)"><text transform="translate(18.11 236.93) rotate(-90)" style="font-size:11.249739646911621px;font-family:Arial-BoldMT, Arial;font-weight:700"><tspan style="letter-spacing:0.021990405906854266em">M</tspan><tspan x="9.62" y="0" style="letter-spacing:-0.001038916814497052em">a</tspan><tspan x="15.86" y="0" style="letter-spacing:-0.003030174042283068em">r</tspan><tspan x="20.21" y="0" style="letter-spacing:-0.0009523404132889643em">ke</tspan><tspan x="32.7" y="0" style="letter-spacing:0.00406909085678012em">t</tspan><tspan x="36.49" y="0"> </tspan><tspan x="39.62" y="0" style="letter-spacing:-0.00406909085678012em">P</tspan><tspan x="47.07" y="0" style="letter-spacing:-0.0029435976410749805em">r</tspan><tspan x="51.42" y="0">i</tspan><tspan x="54.54" y="0" style="letter-spacing:-0.001038916814497052em">ce</tspan><tspan x="67.03" y="0" style="letter-spacing:0.02302932272135132em"> </tspan><tspan x="70.42" y="0" style="letter-spacing:0.00406909085678012em">(</tspan><tspan x="74.21" y="0">R</tspan><tspan x="82.33" y="0" style="letter-spacing:-0.001038916814497052em">s</tspan><tspan x="88.58" y="0" style="letter-spacing:0.00008657640120808766em">./</tspan><tspan x="94.83" y="0" style="letter-spacing:0.02190382950564618em">M</tspan><tspan x="104.45" y="0" style="letter-spacing:0.015064293810207253em">T</tspan><tspan x="111.49" y="0" style="letter-spacing:0.00008657640120808766em">)</tspan></text></g><g style="clip-path:url(#clip-path-5)"><text transform="translate(426.01 336.64)" style="font-size:11.279809951782227px;font-family:Arial-BoldMT, Arial;font-weight:700"><tspan style="letter-spacing:0.021962404941209em">M</tspan><tspan x="9.64" y="0" style="letter-spacing:0.00303827736340836em">on</tspan><tspan x="23.49" y="0" style="letter-spacing:0.003993164534765273em">t</tspan><tspan x="27.29" y="0" style="letter-spacing:0.00295146943873955em">h</tspan><tspan x="34.22" y="0" style="letter-spacing:-0.0010416950960257236em">s</tspan><tspan x="40.48" y="0"> </tspan></text></g><g style="clip-path:url(#clip-path)"><line x1="307.94" y1="17.4" x2="329.63" y2="17.4" style="fill:none;stroke:#2935e8;stroke-linecap:round;stroke-linejoin:round;stroke-width:2.44296087998209px"/></g><g style="clip-path:url(#clip-path-5)"><text transform="translate(331.98 20.16)" style="font-size:9.105389595031738px;font-family:Arial-BoldMT, Arial;font-weight:700"><tspan style="letter-spacing:-0.004946755609768302em">A</tspan><tspan x="6.53" y="0" style="letter-spacing:0.0040864502863303355em">P</tspan><tspan x="12.64" y="0" style="letter-spacing:-0.009140744061528384em"> </tspan><tspan x="15.09" y="0" style="letter-spacing:-0.003978912120900591em">(</tspan><tspan x="18.08" y="0" style="letter-spacing:-0.004946755609768302em">R</tspan><tspan x="24.61" y="0" style="letter-spacing:0.009893511219536605em">-</tspan><tspan x="27.74" y="0" style="letter-spacing:-0.0030110686320328796em">1</tspan><tspan x="32.77" y="0">)</tspan></text></g><g style="clip-path:url(#clip-path)"><line x1="562.22" y1="17.4" x2="583.9" y2="17.4" style="fill:none;stroke:#ff25f3;stroke-linecap:round;stroke-linejoin:round;stroke-width:2.44296087998209px"/></g><g style="clip-path:url(#clip-path-5)"><text transform="translate(586.18 20.16)" style="font-size:9.105389595031738px;font-family:Arial-BoldMT, Arial;font-weight:700"><tspan style="letter-spacing:0.0020432251431651677em">M</tspan><tspan x="7.6" y="0" style="letter-spacing:-0.004946755609768302em">H</tspan><tspan x="14.13" y="0" style="letter-spacing:-0.009033205896098635em"> </tspan><tspan x="16.58" y="0" style="letter-spacing:-0.0040864502863303355em">(</tspan><tspan x="19.58" y="0" style="letter-spacing:0.009033205896098635em">R</tspan><tspan x="26.23" y="0" style="letter-spacing:-0.003978912120900591em">-</tspan><tspan x="29.23" y="0" style="letter-spacing:-0.003118606797462625em">12</tspan><tspan x="39.3" y="0">)</tspan></text></g><polygon points="0 0 900.52 0 900.52 349.13 0 349.13 0 0 0 0" style="fill:none;stroke:#d9d9d9;stroke-linejoin:round;stroke-width:0.814320383211206px"/></svg>