<svg id="Layer_1" data-name="Layer 1" xmlns="http://www.w3.org/2000/svg" xmlns:xlink="http://www.w3.org/1999/xlink" viewBox="0 0 900 350"><defs><clipPath id="clip-path"><polygon points="2.85 2.85 897.03 2.85 897.03 341.7 2.85 341.7 2.85 2.85 2.85 2.85" style="fill:none;clip-rule:evenodd"/></clipPath><clipPath id="clip-path-2"><polygon points="2.85 2.85 107.2 2.85 107.2 67.23 2.85 67.23 2.85 2.85 2.85 2.85" style="fill:none;clip-rule:evenodd"/></clipPath><clipPath id="clip-path-3"><polygon points="2.85 2.85 897.03 2.85 897.03 67.23 2.85 67.23 2.85 2.85 2.85 2.85" style="fill:none;clip-rule:evenodd"/></clipPath><clipPath id="clip-path-5"><polygon points="438.91 68.08 539.87 68.08 539.87 151.09 438.91 151.09 438.91 68.08 438.91 68.08" style="fill:none;clip-rule:evenodd"/></clipPath><clipPath id="clip-path-6"><polygon points="286.2 151.94 438.06 151.94 438.06 234.96 286.2 234.96 286.2 151.94 286.2 151.94" style="fill:none;clip-rule:evenodd"/></clipPath><clipPath id="clip-path-7"><polygon points="438.91 235.81 590.77 235.81 590.77 318.82 438.91 318.82 438.91 235.81 438.91 235.81" style="fill:none;clip-rule:evenodd"/></clipPath><clipPath id="clip-path-8"><polygon points="2.85 319.67 896.19 319.67 896.19 340.85 2.85 340.85 2.85 319.67 2.85 319.67" style="fill:none;clip-rule:evenodd"/></clipPath><clipPath id="clip-path-9"><polygon points="2.85 151.94 107.2 151.94 107.2 318.82 2.85 318.82 2.85 151.94 2.85 151.94" style="fill:none;clip-rule:evenodd"/></clipPath><clipPath id="clip-path-10"><polygon points="108.05 151.94 183.55 151.94 183.55 318.82 108.05 318.82 108.05 151.94 108.05 151.94" style="fill:none;clip-rule:evenodd"/></clipPath><clipPath id="clip-path-11"><polygon points="2 2 897.03 2 897.03 341.7 2 341.7 2 2 2 2" style="fill:none;clip-rule:evenodd"/></clipPath></defs><title>seasonal-calendar</title><g style="clip-path:url(#clip-path)"><polyline points="2 2 2 68.08 897.03 68.08 897.03 2 2 2" style="fill:#d9d9d9;fill-rule:evenodd"/><polyline points="896.19 2 896.19 68.08 927.58 68.08 927.58 2 896.19 2" style="fill:#fff;fill-rule:evenodd"/><polyline points="2 67.23 2 151.94 184.4 151.94 184.4 67.23 2 67.23" style="fill:#f2f2f2;fill-rule:evenodd"/><polyline points="183.55 67.23 183.55 151.94 388.01 151.94 388.01 67.23 183.55 67.23" style="fill:#fff;fill-rule:evenodd"/><polyline points="387.16 67.23 387.16 151.94 438.91 151.94 438.91 67.23 387.16 67.23" style="fill:#5e9fff;fill-rule:evenodd"/><polyline points="438.06 67.23 438.06 151.94 540.72 151.94 540.72 67.23 438.06 67.23" style="fill:#06f;fill-rule:evenodd"/><polyline points="539.87 67.23 539.87 151.94 591.62 151.94 591.62 67.23 539.87 67.23" style="fill:#0044ab;fill-rule:evenodd"/><polyline points="590.77 67.23 590.77 151.94 927.58 151.94 927.58 67.23 590.77 67.23" style="fill:#fff;fill-rule:evenodd"/><polyline points="2 151.09 2 235.81 184.4 235.81 184.4 151.09 2 151.09" style="fill:#f2f2f2;fill-rule:evenodd"/><polyline points="183.55 151.09 183.55 235.81 235.3 235.81 235.3 151.09 183.55 151.09" style="fill:#fff;fill-rule:evenodd"/><polyline points="234.45 151.09 234.45 235.81 286.2 235.81 286.2 151.09 234.45 151.09" style="fill:#5e9fff;fill-rule:evenodd"/><polyline points="285.36 151.09 285.36 235.81 438.91 235.81 438.91 151.09 285.36 151.09" style="fill:#06f;fill-rule:evenodd"/><polyline points="438.06 151.09 438.06 235.81 489.81 235.81 489.81 151.09 438.06 151.09" style="fill:#0044ab;fill-rule:evenodd"/><polyline points="488.97 151.09 488.97 235.81 927.58 235.81 927.58 151.09 488.97 151.09" style="fill:#fff;fill-rule:evenodd"/><polyline points="2 234.96 2 319.67 184.4 319.67 184.4 234.96 2 234.96" style="fill:#f2f2f2;fill-rule:evenodd"/><polyline points="183.55 234.96 183.55 319.67 388.01 319.67 388.01 234.96 183.55 234.96" style="fill:#fff;fill-rule:evenodd"/><polyline points="387.16 234.96 387.16 319.67 438.91 319.67 438.91 234.96 387.16 234.96" style="fill:#5e9fff;fill-rule:evenodd"/><polyline points="438.06 234.96 438.06 319.67 591.62 319.67 591.62 234.96 438.06 234.96" style="fill:#06f;fill-rule:evenodd"/><polyline points="590.77 234.96 590.77 319.67 642.52 319.67 642.52 234.96 590.77 234.96" style="fill:#0044ab;fill-rule:evenodd"/><polyline points="641.67 234.96 641.67 319.67 927.58 319.67 927.58 234.96 641.67 234.96" style="fill:#fff;fill-rule:evenodd"/><polyline points="2 318.82 2 357.79 927.58 357.79 927.58 318.82 2 318.82" style="fill:#fff;fill-rule:evenodd"/></g><g style="clip-path:url(#clip-path-2)"><text transform="translate(16.42 30.82)" style="font-size:12.706830024719238px;font-family:Arial-BoldMT, Arial;font-weight:700"><tspan style="letter-spacing:-0.12201625007968234em">A</tspan><tspan x="7.63" y="0" style="letter-spacing:-0.010052911170087036em">g</tspan><tspan x="15.26" y="0" style="letter-spacing:0.010052911170087036em">r</tspan><tspan x="20.33" y="0" style="letter-spacing:-0.010052911170087036em">o</tspan><tspan x="27.97" y="0" style="letter-spacing:0.00007673977992432851em">-</tspan><tspan x="32.2" y="0" style="letter-spacing:-0.022024316838282286em">c</tspan><tspan x="38.99" y="0" style="letter-spacing:-0.010973788529178978em">li</tspan><tspan x="45.77" y="0" style="letter-spacing:-0.08901814471222107em">m</tspan><tspan x="55.94" y="0" style="letter-spacing:-0.022024316838282286em">a</tspan><tspan x="62.72" y="0">t</tspan><tspan x="66.95" y="0" style="letter-spacing:-0.010897048749254649em">i</tspan><tspan x="70.35" y="0" style="letter-spacing:-0.022024316838282286em">c</tspan><tspan x="77.13" y="0" style="letter-spacing:0.00007673977992432851em"> </tspan></text><text transform="translate(40.18 47.74)" style="font-size:12.706830024719238px;font-family:Arial-BoldMT, Arial;font-weight:700"><tspan style="letter-spacing:0.03299810536746126em">z</tspan><tspan x="6.77" y="0" style="letter-spacing:-0.010052911170087036em">on</tspan><tspan x="22.04" y="0">e</tspan></text></g><g style="clip-path:url(#clip-path-3)"><text transform="translate(124.16 39.28)" style="font-size:12.706830024719238px;font-family:Arial-BoldMT, Arial;font-weight:700"><tspan style="letter-spacing:0.010973788529178978em">R</tspan><tspan x="9.32" y="0" style="letter-spacing:0.0430510165375483em">e</tspan><tspan x="16.93" y="0" style="letter-spacing:-0.010052911170087036em">g</tspan><tspan x="24.56" y="0" style="letter-spacing:-0.010973788529178978em">i</tspan><tspan x="27.95" y="0" style="letter-spacing:-0.009976171390162707em">o</tspan><tspan x="35.59" y="0">n</tspan></text><text transform="translate(197.13 39.28)" style="font-size:12.706830024719238px;font-family:Arial-BoldMT, Arial;font-weight:700"><tspan style="letter-spacing:0.03299810536746126em">M</tspan><tspan x="11" y="0" style="letter-spacing:-0.021947577058357957em">a</tspan><tspan x="17.79" y="0">y</tspan></text><text transform="translate(248.88 39.28)" style="font-size:12.706830024719238px;font-family:Arial-BoldMT, Arial;font-weight:700"><tspan style="letter-spacing:-0.021947577058357957em">J</tspan><tspan x="6.79" y="0" style="letter-spacing:-0.010052911170087036em">u</tspan><tspan x="14.42" y="0">n</tspan></text><text transform="translate(302.32 39.28)" style="font-size:12.706830024719238px;font-family:Arial-BoldMT, Arial;font-weight:700;letter-spacing:-0.021947577058357957em">J<tspan x="6.79" y="0" style="letter-spacing:-0.010052911170087036em">u</tspan><tspan x="14.42" y="0" style="letter-spacing:0.00007673977992432851em">l</tspan></text><text transform="translate(350.68 39.28)" style="font-size:12.706830024719238px;font-family:Arial-BoldMT, Arial;font-weight:700"><tspan style="letter-spacing:-0.12201625007968234em">A</tspan><tspan x="7.63" y="0" style="letter-spacing:-0.010052911170087036em">u</tspan><tspan x="15.26" y="0">g</tspan></text><text transform="translate(400.73 39.28)" style="font-size:12.706830024719238px;font-family:Arial-BoldMT, Arial;font-weight:700">S<tspan x="8.48" y="0" style="letter-spacing:0.04297427675762397em">e</tspan><tspan x="16.09" y="0">p</tspan></text><text transform="translate(453.34 39.28)" style="font-size:12.706830024719238px;font-family:Arial-BoldMT, Arial;font-weight:700;letter-spacing:0.022024316838282286em">O<tspan x="10.16" y="0" style="letter-spacing:-0.022024316838282286em">c</tspan><tspan x="16.95" y="0" style="letter-spacing:0.00007673977992432851em">t</tspan></text><text transform="translate(502.54 39.28)" style="font-size:12.706830024719238px;font-family:Arial-BoldMT, Arial;font-weight:700;letter-spacing:0.010973788529178978em">N<tspan x="9.32" y="0" style="letter-spacing:-0.010052911170087036em">o</tspan><tspan x="16.95" y="0" style="letter-spacing:0.00007673977992432851em">v</tspan></text><text transform="translate(553.44 39.28)" style="font-size:12.706830024719238px;font-family:Arial-BoldMT, Arial;font-weight:700"><tspan style="letter-spacing:0.010973788529178978em">D</tspan><tspan x="9.32" y="0" style="letter-spacing:0.0430510165375483em">e</tspan><tspan x="16.93" y="0">c</tspan></text><text transform="translate(606.05 39.28)" style="font-size:12.706830024719238px;font-family:Arial-BoldMT, Arial;font-weight:700"><tspan style="letter-spacing:-0.021947577058357957em">Ja</tspan><tspan x="13.57" y="0">n</tspan></text><text transform="translate(656.09 39.28)" style="font-size:12.706830024719238px;font-family:Arial-BoldMT, Arial;font-weight:700"><tspan style="letter-spacing:-0.009976171390162707em">F</tspan><tspan x="7.64" y="0" style="letter-spacing:0.04297427675762397em">e</tspan><tspan x="15.25" y="0">b</tspan></text><text transform="translate(707 39.28)" style="font-size:12.706830024719238px;font-family:Arial-BoldMT, Arial;font-weight:700"><tspan style="letter-spacing:0.03299810536746126em">M</tspan><tspan x="11" y="0" style="letter-spacing:-0.021947577058357957em">a</tspan><tspan x="17.79" y="0">r</tspan></text><text transform="translate(758.75 39.28)" style="font-size:12.706830024719238px;font-family:Arial-BoldMT, Arial;font-weight:700;letter-spacing:-0.12201625007968234em">A<tspan x="7.63" y="0" style="letter-spacing:-0.010052911170087036em">p</tspan><tspan x="15.26" y="0" style="letter-spacing:0.00007673977992432851em">r</tspan></text><text transform="translate(807.95 39.28)" style="font-size:12.706830024719238px;font-family:Arial-BoldMT, Arial;font-weight:700"><tspan style="letter-spacing:0.03299810536746126em">M</tspan><tspan x="11" y="0" style="letter-spacing:-0.021947577058357957em">a</tspan><tspan x="17.79" y="0">y</tspan></text><text transform="translate(859.7 39.28)" style="font-size:12.706830024719238px;font-family:Arial-BoldMT, Arial;font-weight:700"><tspan style="letter-spacing:-0.021947577058357957em">J</tspan><tspan x="6.79" y="0" style="letter-spacing:-0.010052911170087036em">u</tspan><tspan x="14.42" y="0">n</tspan></text></g><g style="clip-path:url(#clip-path)"><text transform="translate(37.63 113.83)" style="font-size:12.706830024719238px;font-family:Arial-BoldMT, Arial;font-weight:700">E<tspan x="8.48" y="0" style="letter-spacing:0.010973788529178978em">C</tspan><tspan x="17.79" y="0" style="letter-spacing:-0.00007673977992432851em">PH</tspan></text><text transform="translate(117.38 113.83)" style="font-size:12.706830024719238px;font-family:Arial-BoldMT, Arial;font-weight:700"><tspan style="letter-spacing:0.010973788529178978em">R</tspan><tspan x="9.32" y="0">-1</tspan></text></g><g style="clip-path:url(#clip-path-5)"><text transform="translate(476.24 113.83)" style="font-size:12.706830024719238px;fill:#fff;font-family:Arial-BoldMT, Arial;font-weight:700"><tspan style="letter-spacing:0.010973788529178978em">R</tspan><tspan x="9.32" y="0" style="letter-spacing:-0.022024316838282286em">a</tspan><tspan x="16.1" y="0" style="letter-spacing:-0.009976171390162707em">b</tspan><tspan x="23.74" y="0">i</tspan></text></g><g style="clip-path:url(#clip-path-6)"><text transform="translate(343.89 197.7)" style="font-size:12.706830024719238px;fill:#fff;font-family:Arial-BoldMT, Arial;font-weight:700"><tspan style="letter-spacing:0.010973788529178978em">K</tspan><tspan x="9.32" y="0" style="letter-spacing:-0.010052911170087036em">h</tspan><tspan x="16.95" y="0" style="letter-spacing:-0.021947577058357957em">a</tspan><tspan x="23.74" y="0" style="letter-spacing:0.010052911170087036em">r</tspan><tspan x="28.81" y="0" style="letter-spacing:-0.010973788529178978em">i</tspan><tspan x="32.2" y="0">f</tspan></text></g><g style="clip-path:url(#clip-path-7)"><text transform="translate(501.69 281.56)" style="font-size:12.706830024719238px;fill:#fff;font-family:Arial-BoldMT, Arial;font-weight:700"><tspan style="letter-spacing:0.010973788529178978em">R</tspan><tspan x="9.32" y="0" style="letter-spacing:-0.022024316838282286em">a</tspan><tspan x="16.1" y="0" style="letter-spacing:-0.009976171390162707em">b</tspan><tspan x="23.74" y="0">i</tspan></text></g><g style="clip-path:url(#clip-path-8)"><text transform="translate(4.55 334.07)" style="font-size:10.165459632873535px;font-family:Arial-BoldMT, Arial;font-weight:700;letter-spacing:-0.054964891090876655em">N<tspan x="6.78" y="0" style="letter-spacing:-0.02695485933077895em">o</tspan><tspan x="12.72" y="0" style="letter-spacing:-0.00009592476630170446em">te</tspan></text><text transform="translate(26.6 334.08)" style="font-size:12.706830024719238px;font-family:Arial-BoldMT, Arial;font-weight:700;letter-spacing:-0.06599621073492253em">:<tspan x="3.39" y="0" style="letter-spacing:0.00007673977992432851em"> </tspan></text><text transform="translate(33.39 334.07)" style="font-size:9.318340301513672px;font-family:Arial-BoldMT, Arial;font-weight:700"><tspan style="letter-spacing:-0.12096982082017471em">E</tspan><tspan x="5.09" y="0" style="letter-spacing:0.004918323164834094em">C</tspan><tspan x="11.86" y="0" style="letter-spacing:-0.029928519683884054em">P</tspan><tspan x="17.8" y="0">H</tspan></text><text transform="translate(57.15 334.07)" style="font-size:9.318340301513672px;font-family:ArialMT, Arial"><tspan style="letter-spacing:-0.005022968338553968em"> </tspan><tspan x="2.54" y="0" style="letter-spacing:-0.12096982082017471em">E</tspan><tspan x="7.63" y="0" style="letter-spacing:-0.010045936677107936em">a</tspan><tspan x="12.72" y="0" style="letter-spacing:0.04499742469954596em">s</tspan><tspan x="17.8" y="0" style="letter-spacing:-0.005022968338553968em">t </tspan><tspan x="22.88" y="0" style="letter-spacing:-0.08497188106053793em">C</tspan><tspan x="28.82" y="0" style="letter-spacing:-0.010045936677107936em">oa</tspan><tspan x="39" y="0" style="letter-spacing:0.04499742469954596em">s</tspan><tspan x="44.08" y="0" style="letter-spacing:-0.004918323164834094em">t </tspan><tspan x="49.16" y="0" style="letter-spacing:-0.12107446599389458em">P</tspan><tspan x="54.25" y="0" style="letter-spacing:-0.03997445636099199em">l</tspan><tspan x="55.95" y="0" style="letter-spacing:-0.010045936677107936em">a</tspan><tspan x="61.04" y="0" style="letter-spacing:-0.03997445636099199em">i</tspan><tspan x="62.73" y="0" style="letter-spacing:-0.010045936677107936em">n</tspan><tspan x="67.82" y="0" style="letter-spacing:0.04499742469954596em">s</tspan><tspan x="72.9" y="0" style="letter-spacing:-0.005022968338553968em"> </tspan><tspan x="75.44" y="0" style="letter-spacing:-0.029928519683884054em">&amp;</tspan><tspan x="81.38" y="0" style="letter-spacing:-0.005022968338553968em"> </tspan><tspan x="83.92" y="0" style="letter-spacing:-0.08497188106053793em">H</tspan><tspan x="89.86" y="0" style="letter-spacing:-0.04007910153471186em">ill</tspan><tspan x="94.95" y="0" style="letter-spacing:0.04499742469954596em">s</tspan><tspan x="100.03" y="0" style="letter-spacing:-0.005022968338553968em">, </tspan><tspan x="105.11" y="0"> </tspan></text><text transform="translate(164.88 334.07)" style="font-size:9.318340301513672px;font-family:Arial-BoldMT, Arial;font-weight:700"><tspan style="letter-spacing:-0.03390503628523928em">W</tspan><tspan x="8.48" y="0" style="letter-spacing:-0.030033164857603933em">P</tspan><tspan x="14.41" y="0">H</tspan></text><text transform="translate(185.25 334.07)" style="font-size:9.318340301513672px;font-family:ArialMT, Arial"><tspan style="letter-spacing:-0.005022968338553968em"> </tspan><tspan x="2.54" y="0" style="letter-spacing:-0.034009681458959155em">W</tspan><tspan x="11.02" y="0" style="letter-spacing:-0.010045936677107936em">e</tspan><tspan x="16.11" y="0" style="letter-spacing:0.04499742469954596em">s</tspan><tspan x="21.19" y="0" style="letter-spacing:-0.005022968338553968em">t</tspan><tspan x="23.73" y="0" style="letter-spacing:-0.010045936677107936em">e</tspan><tspan x="28.82" y="0" style="letter-spacing:0.030033164857603933em">r</tspan><tspan x="32.2" y="0" style="letter-spacing:-0.010045936677107936em">n</tspan><tspan x="37.29" y="0" style="letter-spacing:-0.005022968338553968em"> </tspan><tspan x="39.83" y="0" style="letter-spacing:-0.12096982082017471em">P</tspan><tspan x="44.92" y="0" style="letter-spacing:-0.03997445636099199em">l</tspan><tspan x="46.62" y="0" style="letter-spacing:-0.010045936677107936em">a</tspan><tspan x="51.71" y="0" style="letter-spacing:-0.005022968338553968em">t</tspan><tspan x="54.25" y="0" style="letter-spacing:-0.010045936677107936em">eau</tspan><tspan x="69.52" y="0" style="letter-spacing:-0.004918323164834094em"> </tspan><tspan x="72.06" y="0" style="letter-spacing:-0.010045936677107936em">and</tspan><tspan x="87.33" y="0" style="letter-spacing:-0.005022968338553968em"> </tspan><tspan x="89.87" y="0" style="letter-spacing:-0.08497188106053793em">H</tspan><tspan x="95.81" y="0" style="letter-spacing:-0.03997445636099199em">ill</tspan><tspan x="100.9" y="0">s</tspan></text></g><g style="clip-path:url(#clip-path-9)"><text transform="translate(41.02 239.21)" style="font-size:12.706830024719238px;font-family:Arial-BoldMT, Arial;font-weight:700"><tspan style="letter-spacing:-0.07696999926410149em">W</tspan><tspan x="11.01" y="0">PH</tspan></text></g><g style="clip-path:url(#clip-path-10)"><text transform="translate(117.38 239.21)" style="font-size:12.706830024719238px;font-family:Arial-BoldMT, Arial;font-weight:700"><tspan style="letter-spacing:0.010973788529178978em">R</tspan><tspan x="9.32" y="0">-</tspan><tspan x="13.55" y="0" style="letter-spacing:-0.021947577058357957em">1</tspan><tspan x="20.34" y="0">2</tspan></text></g><g style="clip-path:url(#clip-path-11)"><polyline points="2.85 2 2.85 2.85 897.03 2.85 897.03 2 2.85 2" style="fill:#bfbfbf;fill-rule:evenodd"/><polyline points="387.16 2.85 387.16 68.08 388.01 68.08 388.01 2.85 387.16 2.85" style="fill:#bfbfbf;fill-rule:evenodd"/><polyline points="438.06 2.85 438.06 68.08 438.91 68.08 438.91 2.85 438.06 2.85" style="fill:#bfbfbf;fill-rule:evenodd"/><polyline points="539.87 2.85 539.87 68.08 540.72 68.08 540.72 2.85 539.87 2.85" style="fill:#bfbfbf;fill-rule:evenodd"/><polyline points="590.77 2.85 590.77 68.08 591.62 68.08 591.62 2.85 590.77 2.85" style="fill:#bfbfbf;fill-rule:evenodd"/><polyline points="2.85 67.23 2.85 68.08 897.03 68.08 897.03 67.23 2.85 67.23" style="fill:#bfbfbf;fill-rule:evenodd"/><polyline points="234.45 2.85 234.45 68.08 235.3 68.08 235.3 2.85 234.45 2.85" style="fill:#bfbfbf;fill-rule:evenodd"/><polyline points="285.36 2.85 285.36 68.08 286.2 68.08 286.2 2.85 285.36 2.85" style="fill:#bfbfbf;fill-rule:evenodd"/><polyline points="488.97 2.85 488.97 68.08 489.81 68.08 489.81 2.85 488.97 2.85" style="fill:#bfbfbf;fill-rule:evenodd"/><polyline points="2.85 151.09 2.85 151.94 897.03 151.94 897.03 151.09 2.85 151.09" style="fill:#bfbfbf;fill-rule:evenodd"/><polyline points="641.67 2.85 641.67 68.08 642.52 68.08 642.52 2.85 641.67 2.85" style="fill:#bfbfbf;fill-rule:evenodd"/><polyline points="184.4 234.96 184.4 235.81 897.03 235.81 897.03 234.96 184.4 234.96" style="fill:#bfbfbf;fill-rule:evenodd"/><polyline points="2 2 2 319.67 2.85 319.67 2.85 2 2 2" style="fill:#bfbfbf;fill-rule:evenodd"/><polyline points="2.85 318.82 2.85 319.67 897.03 319.67 897.03 318.82 2.85 318.82" style="fill:#bfbfbf;fill-rule:evenodd"/><polyline points="896.19 2.85 896.19 319.67 897.03 319.67 897.03 2.85 896.19 2.85" style="fill:#bfbfbf;fill-rule:evenodd"/><polyline points="2 319.67 2 341.7 2.85 341.7 2.85 319.67 2 319.67" style="fill:#fff;fill-rule:evenodd"/><polyline points="107.2 2.85 107.2 319.67 108.05 319.67 108.05 2.85 107.2 2.85" style="fill:#bfbfbf;fill-rule:evenodd"/><polyline points="183.55 2.85 183.55 319.67 184.4 319.67 184.4 2.85 183.55 2.85" style="fill:#bfbfbf;fill-rule:evenodd"/><polyline points="336.26 2.85 336.26 68.08 337.11 68.08 337.11 2.85 336.26 2.85" style="fill:#bfbfbf;fill-rule:evenodd"/><polyline points="692.58 2.85 692.58 68.08 693.42 68.08 693.42 2.85 692.58 2.85" style="fill:#bfbfbf;fill-rule:evenodd"/><polyline points="743.48 2.85 743.48 68.08 744.33 68.08 744.33 2.85 743.48 2.85" style="fill:#bfbfbf;fill-rule:evenodd"/><polyline points="794.38 2.85 794.38 68.08 795.23 68.08 795.23 2.85 794.38 2.85" style="fill:#bfbfbf;fill-rule:evenodd"/><polyline points="845.28 2.85 845.28 68.08 846.13 68.08 846.13 2.85 845.28 2.85" style="fill:#bfbfbf;fill-rule:evenodd"/><polyline points="2.85 340.85 2.85 341.7 897.03 341.7 897.03 340.85 2.85 340.85" style="fill:#fff;fill-rule:evenodd"/><polyline points="896.19 319.67 896.19 341.7 897.03 341.7 897.03 319.67 896.19 319.67" style="fill:#fff;fill-rule:evenodd"/></g></svg>