<svg id="Layer_1" data-name="Layer 1" xmlns="http://www.w3.org/2000/svg" xmlns:xlink="http://www.w3.org/1999/xlink" viewBox="0 0 900 350"><defs><clipPath id="clip-path"><polygon points="0 349.76 899.22 349.76 899.22 0 0 0 0 349.76 0 349.76" style="fill:none;clip-rule:evenodd"/></clipPath><clipPath id="clip-path-2"><polygon points="64.84 309.27 884.99 309.27 884.99 17.78 64.84 17.78 64.84 309.27 64.84 309.27" style="fill:none;clip-rule:evenodd"/></clipPath><clipPath id="clip-path-6"><rect width="899.22" height="349.76" style="fill:none"/></clipPath><clipPath id="clip-path-10"><rect x="188.35" y="48.15" width="161.82" height="19.83" style="fill:none"/></clipPath><clipPath id="clip-path-11"><rect x="600.07" y="156.21" width="161.95" height="19.7" style="fill:none"/></clipPath><clipPath id="clip-path-19"><polygon points="0 349.76 899.22 349.76 899.22 0 0 0 0 349.76 0 349.76" style="fill:none;clip-rule:evenodd"/></clipPath></defs><title>yar</title><polygon points="0.14 0.14 899.22 0.14 899.22 349.89 0.14 349.89 0.14 0.14 0.14 0.14" style="fill:#eaeaea;fill-rule:evenodd"/><polygon points="64.97 17.92 884.17 17.92 884.17 308.45 64.97 308.45 64.97 17.92 64.97 17.92" style="fill:#fff;fill-rule:evenodd"/><path d="M65,308.45h819.2M65,211.6h819.2M65,163.18h819.2M65,114.76h819.2M65,66.34h819.2M65,17.92h819.2" style="fill:none;stroke:#d9d9d9;stroke-linejoin:round;stroke-width:0.820703394846305px"/><g style="clip-path:url(#clip-path)"><path d="M65,17.92V308.45M474.64,17.92V308.45M884.17,17.92V308.45" style="fill:none;stroke:#d9d9d9;stroke-linejoin:round;stroke-width:0.820703394846305px"/></g><g style="clip-path:url(#clip-path-2)"><path d="M224.46,260h90.69v10.12H224.46V260Zm409.67,0h90.55v5.6H634.13V260Z" style="fill:#ff25f3"/></g><g style="clip-path:url(#clip-path-2)"><path d="M224.46,80h90.69V260H224.46V80ZM634.13,186.44h90.55V260H634.13V186.44Z" style="fill:#5e9fff"/></g><g style="clip-path:url(#clip-path-2)"><path d="M224.46,69.9h90.69V80H224.46V69.9ZM634.13,180.83h90.55v5.61H634.13v-5.61Z" style="fill:#0044ab"/></g><g style="clip-path:url(#clip-path)"><line x1="64.97" y1="260.03" x2="884.17" y2="260.03" style="fill:none;stroke:#d9d9d9;stroke-linejoin:round;stroke-width:0.820703394846305px"/></g><g style="clip-path:url(#clip-path-6)"><text transform="translate(261.15 284.75)" style="font-size:11.353059768676758px;font-family:Arial-BoldMT, Arial;font-weight:700">-</text></g><g style="clip-path:url(#clip-path-6)"><text transform="translate(264.98 284.75)" style="font-size:11.353059768676758px;font-family:Arial-BoldMT, Arial;font-weight:700"><tspan style="letter-spacing:-0.001032210720173621em">6</tspan><tspan x="6.3" y="0">%</tspan></text></g><g style="clip-path:url(#clip-path-6)"><text transform="translate(670.8 280.75)" style="font-size:11.353059768676758px;font-family:Arial-BoldMT, Arial;font-weight:700">-</text></g><g style="clip-path:url(#clip-path-6)"><text transform="translate(674.63 280.75)" style="font-size:11.353059768676758px;font-family:Arial-BoldMT, Arial;font-weight:700"><tspan style="letter-spacing:-0.001032210720173621em">8</tspan><tspan x="6.3" y="0">%</tspan></text></g><g style="clip-path:url(#clip-path-10)"><text transform="translate(257.79 62.21)" style="font-size:11.353059768676758px;font-family:Arial-BoldMT, Arial;font-weight:700"><tspan style="letter-spacing:-0.004989018480839168em">+</tspan><tspan x="6.57" y="0" style="letter-spacing:-0.001032210720173621em">6</tspan><tspan x="12.88" y="0">%</tspan></text></g><g style="clip-path:url(#clip-path-11)"><text transform="translate(669.45 170.18)" style="font-size:11.353059768676758px;font-family:ArialMT, Arial"><tspan style="letter-spacing:-0.004989018480839168em">+</tspan><tspan x="6.57" y="0" style="letter-spacing:-0.001032210720173621em">8</tspan><tspan x="12.88" y="0">%</tspan></text></g><g style="clip-path:url(#clip-path-6)"><text transform="translate(32.75 311.78)" style="font-size:10.258790016174316px;font-family:Arial-BoldMT, Arial;font-weight:700">-<tspan x="3.42" y="0" style="letter-spacing:0.00304616820801774em">0</tspan><tspan x="9.15" y="0" style="letter-spacing:0.0019990478865116418em">.</tspan><tspan x="12.02" y="0" style="letter-spacing:-0.008948119111052111em">5</tspan><tspan x="17.64" y="0">0</tspan></text></g><g style="clip-path:url(#clip-path-6)"><text transform="translate(36.16 263.35)" style="font-size:10.258790016174316px;font-family:Arial-BoldMT, Arial;font-weight:700;letter-spacing:0.00304616820801774em">0<tspan x="5.74" y="0" style="letter-spacing:0.0019990478865116418em">.</tspan><tspan x="8.61" y="0" style="letter-spacing:-0.009043311867552665em">0</tspan><tspan x="14.22" y="0" style="letter-spacing:0.00009519275650055437em">0</tspan></text></g><g style="clip-path:url(#clip-path-6)"><text transform="translate(36.16 214.92)" style="font-size:10.258790016174316px;font-family:Arial-BoldMT, Arial;font-weight:700;letter-spacing:0.00304616820801774em">0<tspan x="5.74" y="0" style="letter-spacing:0.0019990478865116418em">.</tspan><tspan x="8.61" y="0" style="letter-spacing:-0.009043311867552665em">5</tspan><tspan x="14.22" y="0" style="letter-spacing:0.00009519275650055437em">0</tspan></text></g><g style="clip-path:url(#clip-path-6)"><text transform="translate(36.16 166.48)" style="font-size:10.258790016174316px;font-family:Arial-BoldMT, Arial;font-weight:700;letter-spacing:0.00304616820801774em">1<tspan x="5.74" y="0" style="letter-spacing:0.0019990478865116418em">.</tspan><tspan x="8.61" y="0" style="letter-spacing:-0.009043311867552665em">0</tspan><tspan x="14.22" y="0" style="letter-spacing:0.00009519275650055437em">0</tspan></text></g><g style="clip-path:url(#clip-path-6)"><text transform="translate(36.16 118.05)" style="font-size:10.258790016174316px;font-family:Arial-BoldMT, Arial;font-weight:700;letter-spacing:0.00304616820801774em">1<tspan x="5.74" y="0" style="letter-spacing:0.0019990478865116418em">.</tspan><tspan x="8.61" y="0" style="letter-spacing:-0.009043311867552665em">5</tspan><tspan x="14.22" y="0" style="letter-spacing:0.00009519275650055437em">0</tspan></text></g><g style="clip-path:url(#clip-path-6)"><text transform="translate(36.16 69.61)" style="font-size:10.258790016174316px;font-family:Arial-BoldMT, Arial;font-weight:700;letter-spacing:0.00304616820801774em">2<tspan x="5.74" y="0" style="letter-spacing:0.0019990478865116418em">.</tspan><tspan x="8.61" y="0" style="letter-spacing:-0.009043311867552665em">0</tspan><tspan x="14.22" y="0" style="letter-spacing:0.00009519275650055437em">0</tspan></text></g><g style="clip-path:url(#clip-path-6)"><text transform="translate(36.16 21.19)" style="font-size:10.258790016174316px;font-family:Arial-BoldMT, Arial;font-weight:700;letter-spacing:0.00304616820801774em">2<tspan x="5.74" y="0" style="letter-spacing:0.0019990478865116418em">.</tspan><tspan x="8.61" y="0" style="letter-spacing:-0.009043311867552665em">5</tspan><tspan x="14.22" y="0" style="letter-spacing:0.00009519275650055437em">0</tspan></text></g><g style="clip-path:url(#clip-path-19)"><path d="M254.06,324.27l-.13-7.34,3.12-.05a5.07,5.07,0,0,1,1.72.17,1.68,1.68,0,0,1,.86.68,2.08,2.08,0,0,1,.34,1.16,2,2,0,0,1-.46,1.37,2.34,2.34,0,0,1-1.44.7,4.06,4.06,0,0,1,.81.6,9.41,9.41,0,0,1,.86,1.18l.92,1.42-1.77,0-1.1-1.58a10.18,10.18,0,0,0-.8-1.06,1,1,0,0,0-.45-.3,2.41,2.41,0,0,0-.75-.07h-.3l0,3.07-1.48,0Zm1.41-4.26,1.1,0a5.82,5.82,0,0,0,1.33-.11.81.81,0,0,0,.41-.32,1,1,0,0,0,.14-.55.84.84,0,0,0-.77-.88h-1.09l-1.15,0,0,1.86Zm5.77,2.18,0-1.41,2.77,0,0,1.41-2.76.05Zm6.91,1.84-1.41,0-.09-5.3a5,5,0,0,1-1.8,1.1l0-1.28a4.18,4.18,0,0,0,1.18-.7,2.59,2.59,0,0,0,.87-1.19l1.14,0,.13,7.37Z"/></g><g style="clip-path:url(#clip-path-19)"><path d="M658,324.37l-.13-7.34,3.12,0a5.07,5.07,0,0,1,1.72.17,1.68,1.68,0,0,1,.86.68,2.08,2.08,0,0,1,.34,1.16,2,2,0,0,1-.46,1.37,2.34,2.34,0,0,1-1.44.7,3.48,3.48,0,0,1,.81.6,8.7,8.7,0,0,1,.86,1.18l.92,1.42-1.77,0-1.1-1.58a10.18,10.18,0,0,0-.8-1.06,1,1,0,0,0-.45-.3,2.14,2.14,0,0,0-.75-.07h-.3l.05,3.07-1.48,0Zm1.41-4.26,1.1,0a5.82,5.82,0,0,0,1.33-.11.81.81,0,0,0,.41-.32,1,1,0,0,0,.14-.55.94.94,0,0,0-.21-.6.91.91,0,0,0-.56-.28h-1.09l-1.15,0,0,1.86Zm5.77,2.18,0-1.41,2.77-.05,0,1.41-2.76.05Zm6.91,1.84-1.41,0-.09-5.3a4.86,4.86,0,0,1-1.8,1.1l0-1.28A4.18,4.18,0,0,0,670,318a2.59,2.59,0,0,0,.87-1.19l1.14,0,.13,7.37ZM679,322.7l0,1.31-4.94.08a3.5,3.5,0,0,1,.46-1.41,9.61,9.61,0,0,1,1.55-1.79,9.73,9.73,0,0,0,1.15-1.22,1.48,1.48,0,0,0,.27-.87,1,1,0,0,0-.26-.72,1,1,0,0,0-.71-.24,1,1,0,0,0-.69.28,1.38,1.38,0,0,0-.29.89l-1.4-.12a2.3,2.3,0,0,1,.76-1.68,2.64,2.64,0,0,1,1.64-.53,2.38,2.38,0,0,1,1.72.55,1.94,1.94,0,0,1,.64,1.45,2.38,2.38,0,0,1-.16.95,3.68,3.68,0,0,1-.54.94,9.65,9.65,0,0,1-.91,1c-.44.41-.71.69-.83.82a2.26,2.26,0,0,0-.28.4Z"/></g><g style="clip-path:url(#clip-path-6)"><text transform="translate(22.42 224.21) rotate(-90)" style="font-size:11.353059768676758px;font-family:Arial-BoldMT, Arial;font-weight:700"><tspan style="letter-spacing:0.004989018480839168em">Q</tspan><tspan x="8.89" y="0" style="letter-spacing:0.0030106146005063946em">u</tspan><tspan x="15.86" y="0" style="letter-spacing:-0.001032210720173621em">a</tspan><tspan x="22.16" y="0" style="letter-spacing:0.0030106146005063946em">n</tspan><tspan x="29.13" y="0" style="letter-spacing:0.004042825320680016em">t</tspan><tspan x="32.95" y="0">i</tspan><tspan x="36.11" y="0" style="letter-spacing:0.004042825320680016em">t</tspan><tspan x="39.93" y="0" style="letter-spacing:-0.013074669122199201em">y</tspan><tspan x="46.1" y="0" style="letter-spacing:0.011010247681851958em"> </tspan><tspan x="49.38" y="0">&amp; </tspan><tspan x="60.73" y="0" style="letter-spacing:0.006967422361171942em">Y</tspan><tspan x="68.38" y="0" style="letter-spacing:-0.001032210720173621em">a</tspan><tspan x="74.69" y="0">R</tspan><tspan x="82.89" y="0" style="letter-spacing:0.011010247681851958em"> </tspan><tspan x="86.17" y="0" style="letter-spacing:0.003956807760665548em">(</tspan><tspan x="89.99" y="0" style="letter-spacing:0.022020495363703915em">M</tspan><tspan x="99.7" y="0" style="letter-spacing:0.015053073002531975em">T</tspan><tspan x="106.8" y="0">)</tspan></text></g><g style="clip-path:url(#clip-path-6)"><text transform="translate(426.21 339.68)" style="font-size:11.353059768676758px;font-family:Arial-BoldMT, Arial;font-weight:700">R<tspan x="8.2" y="0" style="letter-spacing:-0.001032210720173621em">e</tspan><tspan x="14.5" y="0" style="letter-spacing:0.0030106146005063946em">g</tspan><tspan x="21.47" y="0">i</tspan><tspan x="24.63" y="0" style="letter-spacing:0.0030106146005063946em">on</tspan><tspan x="38.56" y="0">s</tspan></text></g><polygon points="0.14 0.14 899.22 0.14 899.22 349.89 0.14 349.89 0.14 0.14 0.14 0.14" style="fill:none;stroke:#d9d9d9;stroke-linejoin:round;stroke-width:0.820703462787606px"/></svg>