<svg id="Layer_1" data-name="Layer 1" xmlns="http://www.w3.org/2000/svg" xmlns:xlink="http://www.w3.org/1999/xlink" viewBox="0 0 900 350"><defs><clipPath id="clip-path"><polygon points="0 348.41 900 348.41 900 0 0 0 0 348.41 0 348.41" style="fill:none;clip-rule:evenodd"/></clipPath><clipPath id="clip-path-2"><polygon points="69.27 307.56 882.65 307.56 882.65 21.73 69.27 21.73 69.27 307.56 69.27 307.56" style="fill:none;clip-rule:evenodd"/></clipPath><clipPath id="clip-path-13"><rect width="900" height="348.41" style="fill:none"/></clipPath></defs><title>ground-truth-risk-report</title><polygon points="0 0.14 900 0.14 900 348.55 0 348.55 0 0.14 0 0.14" style="fill:#eaeaea;fill-rule:evenodd"/><polygon points="69.41 21.73 881.83 21.73 881.83 306.88 69.41 306.88 69.41 21.73 69.41 21.73" style="fill:#fff;fill-rule:evenodd"/><path d="M69.41,235.56H881.83M69.41,164.23H881.83M69.41,93.05H881.83M69.41,21.72H881.83" style="fill:none;stroke:#d9d9d9;stroke-linejoin:round;stroke-width:0.819796546353428px"/><g style="clip-path:url(#clip-path)"><path d="M69.41,21.72V306.88M340.22,21.72V306.88M611,21.72V306.88M881.83,21.72V306.88" style="fill:none;stroke:#d9d9d9;stroke-linejoin:round;stroke-width:0.819796546353428px"/></g><g style="clip-path:url(#clip-path-2)"><polygon points="152.62 64.49 256.87 64.49 256.87 306.88 152.62 306.88 152.62 64.49 152.62 64.49" style="fill:#5e9fff;fill-rule:evenodd"/><polygon points="152.62 64.49 256.87 64.49 256.87 306.88 152.62 306.88 152.62 64.49 152.62 64.49" style="fill:none;stroke:#7f7f7f;stroke-linejoin:round;stroke-width:0.819796546353428px"/><polygon points="423.56 62.44 527.68 62.44 527.68 306.88 423.56 306.88 423.56 62.44 423.56 62.44" style="fill:#5e9fff;fill-rule:evenodd"/><polygon points="423.56 62.44 527.68 62.44 527.68 306.88 423.56 306.88 423.56 62.44 423.56 62.44" style="fill:none;stroke:#7f7f7f;stroke-linejoin:round;stroke-width:0.819796546353428px"/><polygon points="694.37 60.26 798.48 60.26 798.48 306.88 694.37 306.88 694.37 60.26 694.37 60.26" style="fill:#5e9fff;fill-rule:evenodd"/><polygon points="694.37 60.26 798.48 60.26 798.48 306.88 694.37 306.88 694.37 60.26 694.37 60.26" style="fill:none;stroke:#7f7f7f;stroke-linejoin:round;stroke-width:0.819796546353428px"/></g><g style="clip-path:url(#clip-path)"><line x1="69.41" y1="306.88" x2="881.83" y2="306.88" style="fill:none;stroke:#d9d9d9;stroke-linejoin:round;stroke-width:0.819796546353428px"/></g><g style="clip-path:url(#clip-path)"><path d="M69.41,306.88v3m270.81-3v3m270.8-3v3m270.81-3v3" style="fill:none;stroke:#d9d9d9;stroke-linejoin:round;stroke-width:0.819796546353428px"/></g><g style="clip-path:url(#clip-path-2)"><polyline points="204.81 40.85 475.62 40.85 746.42 40.85" style="fill:none;stroke:#06f;stroke-miterlimit:10;stroke-width:1.366px;stroke-dasharray:5,5"/></g><g style="clip-path:url(#clip-path)"><path d="M207.68,40.82A2.87,2.87,0,1,1,204.81,38a2.87,2.87,0,0,1,2.87,2.87Z" style="fill:#06f"/><path d="M207.68,40.82A2.87,2.87,0,1,1,204.81,38a2.87,2.87,0,0,1,2.87,2.87Z" style="fill:none;stroke:#2935e8;stroke-linejoin:round;stroke-width:0.819796614219656px"/><path d="M478.49,40.82A2.87,2.87,0,1,1,475.62,38a2.88,2.88,0,0,1,2.87,2.87Z" style="fill:#06f"/><path d="M478.49,40.82A2.87,2.87,0,1,1,475.62,38a2.88,2.88,0,0,1,2.87,2.87Z" style="fill:none;stroke:#2935e8;stroke-linejoin:round;stroke-width:0.819796614219656px"/><path d="M749.29,40.82A2.87,2.87,0,1,1,746.42,38a2.87,2.87,0,0,1,2.87,2.87Z" style="fill:#06f"/><path d="M749.29,40.82A2.87,2.87,0,1,1,746.42,38a2.87,2.87,0,0,1,2.87,2.87Z" style="fill:none;stroke:#2935e8;stroke-linejoin:round;stroke-width:0.819796614219656px"/></g><g style="clip-path:url(#clip-path-2)"><polyline points="204.81 90.45 475.62 90.45 746.42 90.45" style="fill:none;stroke:#ff25f3;stroke-miterlimit:10;stroke-width:1.366px;stroke-dasharray:5,5"/></g><g style="clip-path:url(#clip-path)"><path d="M207.68,90.42a2.87,2.87,0,1,1-2.87-2.87,2.87,2.87,0,0,1,2.87,2.87Z" style="fill:#ff25f3"/><path d="M478.49,90.42a2.87,2.87,0,1,1-2.87-2.87,2.88,2.88,0,0,1,2.87,2.87Z" style="fill:#ff25f3"/><path d="M749.29,90.42a2.87,2.87,0,1,1-2.87-2.87,2.87,2.87,0,0,1,2.87,2.87Z" style="fill:#ff25f3"/></g><g style="clip-path:url(#clip-path-2)"><polyline points="204.81 57.39 475.62 57.39 746.42 57.39" style="fill:none;stroke:#7f7f7f;stroke-linecap:round;stroke-linejoin:round;stroke-width:1.36632755463364px"/></g><g style="clip-path:url(#clip-path)"><path d="M207.68,57.35a2.87,2.87,0,1,1-2.87-2.87,2.86,2.86,0,0,1,2.87,2.87Z" style="fill:#7f7f7f"/><path d="M207.68,57.35a2.87,2.87,0,1,1-2.87-2.87,2.86,2.86,0,0,1,2.87,2.87Z" style="fill:none;stroke:#7f7f7f;stroke-linejoin:round;stroke-width:0.819796614219656px"/><path d="M478.49,57.35a2.87,2.87,0,1,1-2.87-2.87,2.87,2.87,0,0,1,2.87,2.87Z" style="fill:#7f7f7f"/><path d="M478.49,57.35a2.87,2.87,0,1,1-2.87-2.87,2.87,2.87,0,0,1,2.87,2.87Z" style="fill:none;stroke:#7f7f7f;stroke-linejoin:round;stroke-width:0.819796614219656px"/><path d="M749.29,57.35a2.87,2.87,0,1,1-2.87-2.87,2.86,2.86,0,0,1,2.87,2.87Z" style="fill:#7f7f7f"/><path d="M749.29,57.35a2.87,2.87,0,1,1-2.87-2.87,2.86,2.86,0,0,1,2.87,2.87Z" style="fill:none;stroke:#7f7f7f;stroke-linejoin:round;stroke-width:0.819796614219656px"/></g><g style="clip-path:url(#clip-path-2)"><polyline points="204.81 64.49 475.62 64.49 746.42 64.49" style="fill:none;stroke:#00c1a3;stroke-linecap:round;stroke-linejoin:round;stroke-width:1.36632755463364px"/></g><g style="clip-path:url(#clip-path)"><path d="M207.68,64.46a2.87,2.87,0,1,1-2.87-2.87,2.87,2.87,0,0,1,2.87,2.87Z" style="fill:#00c1a3"/><path d="M207.68,64.46a2.87,2.87,0,1,1-2.87-2.87,2.87,2.87,0,0,1,2.87,2.87Z" style="fill:none;stroke:#00b050;stroke-linejoin:round;stroke-width:0.819796614219656px"/><path d="M478.49,64.46a2.87,2.87,0,1,1-2.87-2.87,2.88,2.88,0,0,1,2.87,2.87Z" style="fill:#00c1a3"/><path d="M478.49,64.46a2.87,2.87,0,1,1-2.87-2.87,2.88,2.88,0,0,1,2.87,2.87Z" style="fill:none;stroke:#00b050;stroke-linejoin:round;stroke-width:0.819796614219656px"/><path d="M749.29,64.46a2.87,2.87,0,1,1-2.87-2.87,2.87,2.87,0,0,1,2.87,2.87Z" style="fill:#00c1a3"/><path d="M749.29,64.46a2.87,2.87,0,1,1-2.87-2.87,2.87,2.87,0,0,1,2.87,2.87Z" style="fill:none;stroke:#00b050;stroke-linejoin:round;stroke-width:0.819796614219656px"/></g><g style="clip-path:url(#clip-path-13)"><text transform="translate(34.89 310.09)" style="font-size:10.24746036529541px;font-family:ArialMT, Arial"><tspan style="letter-spacing:0.0029542380668800263em">1</tspan><tspan x="5.73" y="0" style="letter-spacing:-0.008958012202797499em">3</tspan><tspan x="11.34" y="0" style="letter-spacing:0.0020012580453058243em">.</tspan><tspan x="14.2" y="0" style="letter-spacing:0.0030495360690374466em">0</tspan><tspan x="19.93" y="0">0</tspan></text></g><g style="clip-path:url(#clip-path-13)"><text transform="translate(34.89 238.82)" style="font-size:10.24746036529541px;font-family:ArialMT, Arial"><tspan style="letter-spacing:0.0029542380668800263em">1</tspan><tspan x="5.73" y="0" style="letter-spacing:-0.008958012202797499em">4</tspan><tspan x="11.34" y="0" style="letter-spacing:0.0020012580453058243em">.</tspan><tspan x="14.2" y="0" style="letter-spacing:0.0030495360690374466em">0</tspan><tspan x="19.93" y="0">0</tspan></text></g><g style="clip-path:url(#clip-path-13)"><text transform="translate(34.89 167.55)" style="font-size:10.24746036529541px;font-family:ArialMT, Arial"><tspan style="letter-spacing:0.0029542380668800263em">1</tspan><tspan x="5.73" y="0" style="letter-spacing:-0.008958012202797499em">5</tspan><tspan x="11.34" y="0" style="letter-spacing:0.0020012580453058243em">.</tspan><tspan x="14.2" y="0" style="letter-spacing:0.0030495360690374466em">0</tspan><tspan x="19.93" y="0">0</tspan></text></g><g style="clip-path:url(#clip-path-13)"><text transform="translate(34.89 96.29)" style="font-size:10.24746036529541px;font-family:ArialMT, Arial"><tspan style="letter-spacing:0.0029542380668800263em">1</tspan><tspan x="5.73" y="0" style="letter-spacing:-0.008958012202797499em">6</tspan><tspan x="11.34" y="0" style="letter-spacing:0.0020012580453058243em">.</tspan><tspan x="14.2" y="0" style="letter-spacing:0.0030495360690374466em">0</tspan><tspan x="19.93" y="0">0</tspan></text></g><g style="clip-path:url(#clip-path-13)"><text transform="translate(34.89 25.02)" style="font-size:10.24746036529541px;font-family:ArialMT, Arial"><tspan style="letter-spacing:0.0029542380668800263em">1</tspan><tspan x="5.73" y="0" style="letter-spacing:-0.008958012202797499em">7</tspan><tspan x="11.34" y="0" style="letter-spacing:0.0020012580453058243em">.</tspan><tspan x="14.2" y="0" style="letter-spacing:0.0030495360690374466em">0</tspan><tspan x="19.93" y="0">0</tspan></text></g><g style="clip-path:url(#clip-path-13)"><text transform="translate(192.55 322.29)" style="font-size:10.24746036529541px;font-family:ArialMT, Arial">Aug</text></g><g style="clip-path:url(#clip-path-13)"><text transform="translate(462.38 322.29)" style="font-size:10.24746036529541px;font-family:ArialMT, Arial">Sep</text></g><g style="clip-path:url(#clip-path-13)"><text transform="translate(737.21 322.29)" style="font-size:10.24746036529541px;font-family:ArialMT, Arial">Oct</text></g><g style="clip-path:url(#clip-path-13)"><text transform="translate(20.99 221.34) rotate(-90)" style="font-size:11.340519905090332px;font-family:Arial-BoldMT, Arial;font-weight:700"><tspan style="letter-spacing:0.00499453512484698em">Q</tspan><tspan x="8.88" y="0" style="letter-spacing:0.003013943609821453em">u</tspan><tspan x="15.84" y="0" style="letter-spacing:-0.0009472394202295996em">a</tspan><tspan x="22.13" y="0" style="letter-spacing:0.003013943609821453em">n</tspan><tspan x="29.1" y="0" style="letter-spacing:0.00404729570461738em">t</tspan><tspan x="32.92" y="0">i</tspan><tspan x="36.07" y="0" style="letter-spacing:0.00404729570461738em">t</tspan><tspan x="39.89" y="0" style="letter-spacing:-0.013003013859515413em">y</tspan><tspan x="46.05" y="0" style="letter-spacing:0.011022422344489887em"> </tspan><tspan x="49.33" y="0" style="letter-spacing:0.00404729570461738em">(</tspan><tspan x="53.15" y="0" style="letter-spacing:0.022044844688979773em">M</tspan><tspan x="62.84" y="0" style="letter-spacing:0.014983605374540939em">T</tspan><tspan x="69.94" y="0" style="letter-spacing:0.00008611267456632724em">)</tspan></text></g><g style="clip-path:url(#clip-path-13)"><text transform="translate(419.86 338.06)" style="font-size:11.340519905090332px;font-family:Arial-BoldMT, Arial;font-weight:700"><tspan style="letter-spacing:0.015069718049107266em">T</tspan><tspan x="7.1" y="0">i</tspan><tspan x="10.25" y="0" style="letter-spacing:0.0019805915150255264em">m</tspan><tspan x="20.35" y="0" style="letter-spacing:-0.0009472394202295996em">e</tspan><tspan x="26.65" y="0"> </tspan><tspan x="29.8" y="0" style="letter-spacing:-0.00404729570461738em">P</tspan><tspan x="37.32" y="0" style="letter-spacing:-0.0009472394202295996em">e</tspan><tspan x="43.62" y="0" style="letter-spacing:-0.003013943609821453em">r</tspan><tspan x="47.99" y="0" style="letter-spacing:0.00008611267456632724em">i</tspan><tspan x="51.15" y="0" style="letter-spacing:0.003013943609821453em">o</tspan><tspan x="58.11" y="0">d</tspan></text></g><polygon points="0 0.14 900 0.14 900 348.55 0 348.55 0 0.14 0 0.14" style="fill:none;stroke:#d9d9d9;stroke-linejoin:round;stroke-width:0.819796614219656px"/></svg>