<svg id="Layer_1" data-name="Layer 1" xmlns="http://www.w3.org/2000/svg" xmlns:xlink="http://www.w3.org/1999/xlink" viewBox="0 0 900 350"><defs><clipPath id="clip-path"><polygon points="0 350.5 900 350.5 900 0 0 0 0 350.5 0 350.5" style="fill:none;clip-rule:evenodd"/></clipPath><clipPath id="clip-path-6"><polygon points="60.19 294.81 888.81 294.81 888.81 15.01 60.19 15.01 60.19 294.81 60.19 294.81" style="fill:none;clip-rule:evenodd"/></clipPath><clipPath id="clip-path-10"><rect width="900" height="350.5" style="fill:none"/></clipPath></defs><title>ndvi-risk-report</title><polygon points="0.14 0 900 0 900 350.64 0.14 350.64 0.14 0 0.14 0" style="fill:#eaeaea;fill-rule:evenodd"/><polygon points="60.33 15.01 888.13 15.01 888.13 294 60.33 294 60.33 15.01 60.33 15.01" style="fill:#fff;fill-rule:evenodd"/><path d="M60.33,224.25h827.8M60.33,154.5h827.8M60.33,84.76h827.8M60.33,15h827.8" style="fill:none;stroke:#d9d9d9;stroke-linejoin:round;stroke-width:0.818926241161132px"/><g style="clip-path:url(#clip-path)"><path d="M94.72,15V294M163.79,15V294M232.71,15V294M301.77,15V294M370.7,15V294M439.63,15V294M508.69,15V294M577.62,15V294M646.68,15V294M715.61,15V294M784.53,15V294M853.59,15V294" style="fill:none;stroke:#f2f2f2;stroke-linejoin:round;stroke-width:0.818926241161132px"/></g><g style="clip-path:url(#clip-path)"><path d="M60.33,15V294M129.25,15V294M198.32,15V294M267.24,15V294M336.17,15V294M405.23,15V294M474.16,15V294M543.22,15V294M612.15,15V294M681.07,15V294M750.14,15V294M819.06,15V294M888.13,15V294" style="fill:none;stroke:#d9d9d9;stroke-linejoin:round;stroke-width:0.818926241161132px"/></g><g style="clip-path:url(#clip-path)"><line x1="60.33" y1="293.99" x2="888.13" y2="293.99" style="fill:none;stroke:#d9d9d9;stroke-linejoin:round;stroke-width:1.36487704600383px"/></g><g style="clip-path:url(#clip-path)"><path d="M60.33,294v18.43M336.17,294v18.43m276-18.43v18.43m276-18.43v18.43" style="fill:none;stroke:#d9d9d9;stroke-linejoin:round;stroke-width:1.36487704600383px"/></g><g style="clip-path:url(#clip-path)"><path d="M60.33,312.42v18.43m275.84-18.43v18.43m276-18.43v18.43m276-18.43v18.43" style="fill:none;stroke:#d9d9d9;stroke-linejoin:round;stroke-width:1.36487704600383px"/></g><g style="clip-path:url(#clip-path-6)"><polyline points="94.72 168.43 163.78 132.26 232.71 98.68 301.77 82.03 370.7 70.84 439.63 65.24 508.69 76.43 577.62 98.68 646.68 126.66 715.61 140.58 784.53 154.5 853.59 171.29" style="fill:none;stroke:#ff25f3;stroke-linecap:round;stroke-linejoin:round;stroke-width:2.45677865568921px"/></g><g style="clip-path:url(#clip-path)"><polygon points="91.82 165.59 97.55 165.59 97.55 171.33 91.82 171.33 91.82 165.59 91.82 165.59" style="fill:#ff25f3;fill-rule:evenodd"/><polygon points="160.88 129.42 166.62 129.42 166.62 135.16 160.88 135.16 160.88 129.42 160.88 129.42" style="fill:#ff25f3;fill-rule:evenodd"/><polygon points="229.81 95.85 235.54 95.85 235.54 101.58 229.81 101.58 229.81 95.85 229.81 95.85" style="fill:#ff25f3;fill-rule:evenodd"/><polygon points="298.87 79.2 304.61 79.2 304.61 84.93 298.87 84.93 298.87 79.2 298.87 79.2" style="fill:#ff25f3;fill-rule:evenodd"/><polygon points="367.8 68 373.53 68 373.53 73.74 367.8 73.74 367.8 68 367.8 68" style="fill:#ff25f3;fill-rule:evenodd"/><polygon points="436.73 62.41 442.46 62.41 442.46 68.14 436.73 68.14 436.73 62.41 436.73 62.41" style="fill:#ff25f3;fill-rule:evenodd"/><polygon points="505.79 73.6 511.52 73.6 511.52 79.33 505.79 79.33 505.79 73.6 505.79 73.6" style="fill:#ff25f3;fill-rule:evenodd"/><polygon points="574.72 95.85 580.45 95.85 580.45 101.58 574.72 101.58 574.72 95.85 574.72 95.85" style="fill:#ff25f3;fill-rule:evenodd"/><polygon points="643.78 123.83 649.51 123.83 649.51 129.56 643.78 129.56 643.78 123.83 643.78 123.83" style="fill:#ff25f3;fill-rule:evenodd"/><polygon points="712.71 137.75 718.44 137.75 718.44 143.48 712.71 143.48 712.71 137.75 712.71 137.75" style="fill:#ff25f3;fill-rule:evenodd"/><polygon points="781.63 151.67 787.36 151.67 787.36 157.4 781.63 157.4 781.63 151.67 781.63 151.67" style="fill:#ff25f3;fill-rule:evenodd"/><polygon points="850.69 168.46 856.43 168.46 856.43 174.19 850.69 174.19 850.69 168.46 850.69 168.46" style="fill:#ff25f3;fill-rule:evenodd"/></g><g style="clip-path:url(#clip-path-6)"><polyline points="94.72 182.35 163.78 148.91 232.71 115.47 301.77 98.68 370.7 87.63 439.63 76.43 508.69 87.63 577.62 98.68 646.68 132.26 715.61 148.91 784.53 162.83 853.59 182.35" style="fill:none;stroke:#06f;stroke-linecap:round;stroke-linejoin:round;stroke-width:2.45677865568921px"/></g><g style="clip-path:url(#clip-path)"><path d="M97.55,182.38a2.87,2.87,0,1,1-2.86-2.86,2.87,2.87,0,0,1,2.86,2.86Z" style="fill:#06f"/><path d="M97.55,182.38a2.87,2.87,0,1,1-2.86-2.86,2.87,2.87,0,0,1,2.86,2.86Z" style="fill:none;stroke:#06f;stroke-linejoin:round;stroke-width:0.818926308955312px"/><path d="M166.62,148.94a2.87,2.87,0,1,1-2.87-2.86,2.87,2.87,0,0,1,2.87,2.86Z" style="fill:#06f"/><path d="M166.62,148.94a2.87,2.87,0,1,1-2.87-2.86,2.87,2.87,0,0,1,2.87,2.86Z" style="fill:none;stroke:#06f;stroke-linejoin:round;stroke-width:0.818926308955312px"/><path d="M235.54,115.5a2.87,2.87,0,1,1-2.86-2.86,2.86,2.86,0,0,1,2.86,2.86Z" style="fill:#06f"/><path d="M235.54,115.5a2.87,2.87,0,1,1-2.86-2.86,2.86,2.86,0,0,1,2.86,2.86Z" style="fill:none;stroke:#06f;stroke-linejoin:round;stroke-width:0.818926308955312px"/><path d="M304.61,98.71a2.87,2.87,0,1,1-2.87-2.86,2.87,2.87,0,0,1,2.87,2.86Z" style="fill:#06f"/><path d="M304.61,98.71a2.87,2.87,0,1,1-2.87-2.86,2.87,2.87,0,0,1,2.87,2.86Z" style="fill:none;stroke:#06f;stroke-linejoin:round;stroke-width:0.818926308955312px"/><path d="M373.53,87.66a2.87,2.87,0,1,1-2.86-2.87,2.87,2.87,0,0,1,2.86,2.87Z" style="fill:#06f"/><path d="M373.53,87.66a2.87,2.87,0,1,1-2.86-2.87,2.87,2.87,0,0,1,2.86,2.87Z" style="fill:none;stroke:#06f;stroke-linejoin:round;stroke-width:0.818926308955312px"/><path d="M442.46,76.47a2.87,2.87,0,1,1-2.87-2.87,2.86,2.86,0,0,1,2.87,2.87Z" style="fill:#06f"/><path d="M442.46,76.47a2.87,2.87,0,1,1-2.87-2.87,2.86,2.86,0,0,1,2.87,2.87Z" style="fill:none;stroke:#06f;stroke-linejoin:round;stroke-width:0.818926308955312px"/><path d="M511.52,87.66a2.87,2.87,0,1,1-2.86-2.87,2.87,2.87,0,0,1,2.86,2.87Z" style="fill:#06f"/><path d="M511.52,87.66a2.87,2.87,0,1,1-2.86-2.87,2.87,2.87,0,0,1,2.86,2.87Z" style="fill:none;stroke:#06f;stroke-linejoin:round;stroke-width:0.818926308955312px"/><path d="M580.45,98.71a2.87,2.87,0,1,1-2.87-2.86,2.87,2.87,0,0,1,2.87,2.86Z" style="fill:#06f"/><path d="M580.45,98.71a2.87,2.87,0,1,1-2.87-2.86,2.87,2.87,0,0,1,2.87,2.86Z" style="fill:none;stroke:#06f;stroke-linejoin:round;stroke-width:0.818926308955312px"/><path d="M649.51,132.29a2.87,2.87,0,1,1-2.87-2.87,2.87,2.87,0,0,1,2.87,2.87Z" style="fill:#06f"/><path d="M649.51,132.29a2.87,2.87,0,1,1-2.87-2.87,2.87,2.87,0,0,1,2.87,2.87Z" style="fill:none;stroke:#06f;stroke-linejoin:round;stroke-width:0.818926308955312px"/><path d="M718.44,148.94a2.87,2.87,0,1,1-2.87-2.86,2.87,2.87,0,0,1,2.87,2.86Z" style="fill:#06f"/><path d="M718.44,148.94a2.87,2.87,0,1,1-2.87-2.86,2.87,2.87,0,0,1,2.87,2.86Z" style="fill:none;stroke:#06f;stroke-linejoin:round;stroke-width:0.818926308955312px"/><path d="M787.36,162.86A2.87,2.87,0,1,1,784.5,160a2.86,2.86,0,0,1,2.86,2.86Z" style="fill:#06f"/><path d="M787.36,162.86A2.87,2.87,0,1,1,784.5,160a2.86,2.86,0,0,1,2.86,2.86Z" style="fill:none;stroke:#06f;stroke-linejoin:round;stroke-width:0.818926308955312px"/><path d="M856.43,182.38a2.87,2.87,0,1,1-2.87-2.86,2.88,2.88,0,0,1,2.87,2.86Z" style="fill:#06f"/><path d="M856.43,182.38a2.87,2.87,0,1,1-2.87-2.86,2.88,2.88,0,0,1,2.87,2.86Z" style="fill:none;stroke:#06f;stroke-linejoin:round;stroke-width:0.818926308955312px"/></g><g style="clip-path:url(#clip-path-10)"><text transform="translate(31.56 297.24)" style="font-size:10.236579895019531px;font-family:ArialMT, Arial"><tspan style="letter-spacing:0.0029573781292645536em">0</tspan><tspan x="5.72" y="0" style="letter-spacing:0.002003385184340504em">.</tspan><tspan x="8.59" y="0" style="letter-spacing:-0.008967533682286066em">0</tspan><tspan x="14.19" y="0">0</tspan></text></g><g style="clip-path:url(#clip-path-10)"><text transform="translate(31.56 227.51)" style="font-size:10.236579895019531px;font-family:ArialMT, Arial"><tspan style="letter-spacing:0.0029573781292645536em">0</tspan><tspan x="5.72" y="0" style="letter-spacing:0.002003385184340504em">.</tspan><tspan x="8.59" y="0" style="letter-spacing:-0.008967533682286066em">2</tspan><tspan x="14.19" y="0">5</tspan></text></g><g style="clip-path:url(#clip-path-10)"><text transform="translate(31.56 157.79)" style="font-size:10.236579895019531px;font-family:ArialMT, Arial"><tspan style="letter-spacing:0.0029573781292645536em">0</tspan><tspan x="5.72" y="0" style="letter-spacing:0.002003385184340504em">.</tspan><tspan x="8.59" y="0" style="letter-spacing:-0.008967533682286066em">5</tspan><tspan x="14.19" y="0">0</tspan></text></g><g style="clip-path:url(#clip-path-10)"><text transform="translate(31.56 88.06)" style="font-size:10.236579895019531px;font-family:ArialMT, Arial"><tspan style="letter-spacing:0.0029573781292645536em">0</tspan><tspan x="5.72" y="0" style="letter-spacing:0.002003385184340504em">.</tspan><tspan x="8.59" y="0" style="letter-spacing:-0.008967533682286066em">7</tspan><tspan x="14.19" y="0">5</tspan></text></g><g style="clip-path:url(#clip-path-10)"><text transform="translate(31.56 18.33)" style="font-size:10.236579895019531px;font-family:ArialMT, Arial"><tspan style="letter-spacing:0.0029573781292645536em">1</tspan><tspan x="5.72" y="0" style="letter-spacing:0.002003385184340504em">.</tspan><tspan x="8.59" y="0" style="letter-spacing:-0.008967533682286066em">0</tspan><tspan x="14.19" y="0">0</tspan></text></g><g style="clip-path:url(#clip-path-10)"><text transform="translate(91.93 309.43)" style="font-size:10.236579895019531px;font-family:ArialMT, Arial">1</text></g><g style="clip-path:url(#clip-path-10)"><text transform="translate(160.92 309.43)" style="font-size:10.236579895019531px;font-family:ArialMT, Arial">2</text></g><g style="clip-path:url(#clip-path-10)"><text transform="translate(229.9 309.43)" style="font-size:10.236579895019531px;font-family:ArialMT, Arial">3</text></g><g style="clip-path:url(#clip-path-10)"><text transform="translate(298.88 309.43)" style="font-size:10.236579895019531px;font-family:ArialMT, Arial">4</text></g><g style="clip-path:url(#clip-path-10)"><text transform="translate(367.86 309.43)" style="font-size:10.236579895019531px;font-family:ArialMT, Arial">1</text></g><g style="clip-path:url(#clip-path-10)"><text transform="translate(436.83 309.43)" style="font-size:10.236579895019531px;font-family:ArialMT, Arial">2</text></g><g style="clip-path:url(#clip-path-10)"><text transform="translate(505.81 309.43)" style="font-size:10.236579895019531px;font-family:ArialMT, Arial">3</text></g><g style="clip-path:url(#clip-path-10)"><text transform="translate(574.8 309.43)" style="font-size:10.236579895019531px;font-family:ArialMT, Arial">4</text></g><g style="clip-path:url(#clip-path-10)"><text transform="translate(643.78 309.43)" style="font-size:10.236579895019531px;font-family:ArialMT, Arial">1</text></g><g style="clip-path:url(#clip-path-10)"><text transform="translate(712.76 309.43)" style="font-size:10.236579895019531px;font-family:ArialMT, Arial">2</text></g><g style="clip-path:url(#clip-path-10)"><text transform="translate(781.74 309.43)" style="font-size:10.236579895019531px;font-family:ArialMT, Arial">3</text></g><g style="clip-path:url(#clip-path-10)"><text transform="translate(850.72 309.43)" style="font-size:10.236579895019531px;font-family:ArialMT, Arial">4</text></g><g style="clip-path:url(#clip-path-10)"><text transform="translate(189.15 327.89)" style="font-size:10.236579895019531px;font-family:ArialMT, Arial">A<tspan x="6.83" y="0" style="letter-spacing:0.0029573781292645536em">u</tspan><tspan x="12.55" y="0" style="letter-spacing:-0.00009539929449240495em">g</tspan></text></g><g style="clip-path:url(#clip-path-10)"><text transform="translate(465.06 327.89)" style="font-size:10.236579895019531px;font-family:ArialMT, Arial">S<tspan x="6.83" y="0" style="letter-spacing:0.0029573781292645536em">e</tspan><tspan x="12.55" y="0" style="letter-spacing:-0.00009539929449240495em">p</tspan></text></g><g style="clip-path:url(#clip-path-10)"><text transform="translate(742.14 327.89)" style="font-size:10.236579895019531px;font-family:ArialMT, Arial"><tspan style="letter-spacing:-0.003911371074188603em">O</tspan><tspan x="7.92" y="0" style="letter-spacing:0.006010155553021512em">c</tspan><tspan x="13.1" y="0">t</tspan></text></g><g style="clip-path:url(#clip-path-10)"><text transform="translate(21.04 214.4) rotate(-90)" style="font-size:11.328479766845703px;font-family:Arial-BoldMT, Arial;font-weight:700">ND<tspan x="16.36" y="0" style="letter-spacing:-0.003965393055780513em">V</tspan><tspan x="23.87" y="0">I</tspan><tspan x="27.02" y="0" style="letter-spacing:0.010947933001828808em"> </tspan><tspan x="30.29" y="0"> </tspan><tspan x="33.44" y="0" style="letter-spacing:-0.003965393055780513em">V</tspan><tspan x="40.95" y="0" style="letter-spacing:-0.0010344503623775252em">a</tspan><tspan x="47.24" y="0">l</tspan><tspan x="50.39" y="0" style="letter-spacing:0.003017146890267782em">u</tspan><tspan x="57.34" y="0" style="letter-spacing:-0.00008620419686479377em">e</tspan></text></g><g style="clip-path:url(#clip-path-10)"><text transform="translate(433.89 339.9)" style="font-size:11.328479766845703px;font-family:Arial-BoldMT, Arial;font-weight:700"><tspan style="letter-spacing:0.0069825399460482955em">W</tspan><tspan x="10.77" y="0" style="letter-spacing:-0.0010344503623775252em">ee</tspan><tspan x="23.35" y="0">k</tspan></text></g><polygon points="0.14 0 900 0 900 350.64 0.14 350.64 0.14 0 0.14 0" style="fill:none;stroke:#d9d9d9;stroke-linejoin:round;stroke-width:0.818926308955312px"/></svg>