<svg id="Layer_1" data-name="Layer 1" xmlns="http://www.w3.org/2000/svg" xmlns:xlink="http://www.w3.org/1999/xlink" viewBox="0 0 900 350"><defs><clipPath id="clip-path"><polygon points="0 349.18 900 349.18 900 0 0 0 0 349.18 0 349.18" style="fill:none;clip-rule:evenodd"/></clipPath><clipPath id="clip-path-3"><polygon points="71.17 304.51 884.56 304.51 884.56 40.03 71.17 40.03 71.17 304.51 71.17 304.51" style="fill:none;clip-rule:evenodd"/></clipPath><clipPath id="clip-path-11"><rect width="900" height="349.18" style="fill:none"/></clipPath></defs><title>price-volatility</title><polygon points="0.14 0 900 0 900 349.18 0.14 349.18 0.14 0 0.14 0" style="fill:#eaeaea;fill-rule:evenodd"/><polygon points="71.31 40.16 883.74 40.16 883.74 303.82 71.31 303.82 71.31 40.16 71.31 40.16" style="fill:#fff;fill-rule:evenodd"/><path d="M71.31,237.84H883.74M71.31,172H883.74M71.31,106H883.74M71.31,40.16H883.74" style="fill:none;stroke:#d9d9d9;stroke-linejoin:round;stroke-width:0.81967209839377px"/><g style="clip-path:url(#clip-path)"><path d="M71.31,40.16V303.83M138.93,40.16V303.83M206.69,40.16V303.83M274.45,40.16V303.83M342.08,40.16V303.83M409.84,40.16V303.83M477.46,40.16V303.83M545.22,40.16V303.83M613,40.16V303.83M680.6,40.16V303.83M748.36,40.16V303.83M816,40.16V303.83M883.74,40.16V303.83" style="fill:none;stroke:#d9d9d9;stroke-linejoin:round;stroke-width:0.81967209839377px"/></g><g style="clip-path:url(#clip-path)"><line x1="71.31" y1="303.83" x2="883.74" y2="303.83" style="fill:none;stroke:#d9d9d9;stroke-linejoin:round;stroke-width:0.81967209839377px"/></g><g style="clip-path:url(#clip-path-3)"><polyline points="105.19 76.37 172.81 106.01 240.57 155.46 308.2 165.44 375.96 165.44 443.72 171.99 511.34 163.66 579.1 155.46 646.72 136.2 714.48 164.75 782.24 159.97 849.86 72.68" style="fill:none;stroke:#2935e8;stroke-linecap:round;stroke-linejoin:round;stroke-width:2.45901622732538px"/></g><g style="clip-path:url(#clip-path-3)"><polyline points="105.19 176.78 172.81 176.09 240.57 177.73 308.2 176.91 375.96 171.99 443.72 163.66 511.34 157.1 579.1 139.07 646.72 93.72 714.48 122.13 782.24 104.23 849.86 156.01" style="fill:none;stroke:#6b77e8;stroke-linecap:round;stroke-linejoin:round;stroke-width:2.45901622732538px"/></g><g style="clip-path:url(#clip-path-3)"><polyline points="105.19 191.53 172.81 191.12 240.57 187.71 308.2 195.9 375.96 193.17 443.72 190.3 511.34 190.03 579.1 187.98 646.72 178.82 714.48 180.87 782.24 192.76 849.86 184.56" style="fill:none;stroke:#95a2ef;stroke-linecap:round;stroke-linejoin:round;stroke-width:2.45901622732538px"/></g><g style="clip-path:url(#clip-path-3)"><polyline points="105.19 137.84 172.81 140.57 240.57 133.88 308.2 128.69 375.96 120.08 443.72 98.09 511.34 100.68 579.1 96.72 646.72 84.84 714.48 79.64 782.24 78.55 849.86 133.47" style="fill:none;stroke:#3d699c;stroke-linecap:round;stroke-linejoin:round;stroke-width:2.45901622732538px"/></g><g style="clip-path:url(#clip-path-3)"><polyline points="105.19 181.69 172.81 180.74 240.57 180.6 308.2 182.65 375.96 183.33 443.72 183.06 511.34 181.69 579.1 177.87 646.72 175.41 714.48 172.81 782.24 168.44 849.86 173.36" style="fill:none;stroke:#ff25f3;stroke-linecap:round;stroke-linejoin:round;stroke-width:2.45901622732538px"/></g><g style="clip-path:url(#clip-path-3)"><polyline points="105.19 237.57 172.81 233.2 240.57 234.02 308.2 224.32 375.96 205.6 443.72 201.64 511.34 198.91 579.1 197.54 646.72 195.49 714.48 204.78 782.24 203.14 849.86 210.25" style="fill:none;stroke:#00c1a3;stroke-linecap:round;stroke-linejoin:round;stroke-width:2.45901622732538px"/></g><g style="clip-path:url(#clip-path-3)"><polyline points="105.19 192.62 172.81 192.76 240.57 196.04 308.2 196.04 375.96 197.4 443.72 194.53 511.34 208.06 579.1 201.09 646.72 207.38 714.48 209.15 782.24 191.39 849.86 181.28" style="fill:none;stroke:#101894;stroke-linecap:round;stroke-linejoin:round;stroke-width:2.45901622732538px"/></g><g style="clip-path:url(#clip-path-3)"><polyline points="105.19 178.82 172.81 178.14 240.57 177.73 308.2 177.73 375.96 179.37 443.72 178.96 511.34 179.65 579.1 180.6 646.72 181.69 714.48 174.18 782.24 169.94 849.86 173.36" style="fill:none;stroke:#1b2ab0;stroke-linecap:round;stroke-linejoin:round;stroke-width:2.45901622732538px"/></g><g style="clip-path:url(#clip-path-11)"><text transform="translate(33.99 307.03)" style="font-size:10.24590015411377px;font-family:ArialMT, Arial"><tspan style="letter-spacing:0.0030500004421234773em">1</tspan><tspan x="5.73" y="0" style="letter-spacing:-0.009054688812554073em">0</tspan><tspan x="11.33" y="0" style="letter-spacing:0.0030500004421234773em">00</tspan><tspan x="22.79" y="0">0</tspan></text></g><g style="clip-path:url(#clip-path-11)"><text transform="translate(33.99 241.13)" style="font-size:10.24590015411377px;font-family:ArialMT, Arial"><tspan style="letter-spacing:0.0030500004421234773em">1</tspan><tspan x="5.73" y="0" style="letter-spacing:-0.009054688812554073em">4</tspan><tspan x="11.33" y="0" style="letter-spacing:0.0030500004421234773em">00</tspan><tspan x="22.79" y="0">0</tspan></text></g><g style="clip-path:url(#clip-path-11)"><text transform="translate(33.99 175.23)" style="font-size:10.24590015411377px;font-family:ArialMT, Arial"><tspan style="letter-spacing:0.0030500004421234773em">1</tspan><tspan x="5.73" y="0" style="letter-spacing:-0.009054688812554073em">8</tspan><tspan x="11.33" y="0" style="letter-spacing:0.0030500004421234773em">00</tspan><tspan x="22.79" y="0">0</tspan></text></g><g style="clip-path:url(#clip-path-11)"><text transform="translate(33.99 109.33)" style="font-size:10.24590015411377px;font-family:ArialMT, Arial"><tspan style="letter-spacing:0.0030500004421234773em">2</tspan><tspan x="5.73" y="0" style="letter-spacing:-0.009054688812554073em">2</tspan><tspan x="11.33" y="0" style="letter-spacing:0.0030500004421234773em">00</tspan><tspan x="22.79" y="0">0</tspan></text></g><g style="clip-path:url(#clip-path-11)"><text transform="translate(33.99 43.42)" style="font-size:10.24590015411377px;font-family:ArialMT, Arial"><tspan style="letter-spacing:0.0030500004421234773em">2</tspan><tspan x="5.73" y="0" style="letter-spacing:-0.009054688812554073em">6</tspan><tspan x="11.33" y="0" style="letter-spacing:0.0030500004421234773em">00</tspan><tspan x="22.79" y="0">0</tspan></text></g><g style="clip-path:url(#clip-path-11)"><text transform="translate(96.88 319.23)" style="font-size:10.24590015411377px;font-family:ArialMT, Arial"><tspan style="letter-spacing:0.006004688370430595em">J</tspan><tspan x="5.18" y="0" style="letter-spacing:-0.009054688812554073em">a</tspan><tspan x="10.79" y="0">n</tspan></text></g><g style="clip-path:url(#clip-path-11)"><text transform="translate(164.02 319.23)" style="font-size:10.24590015411377px;font-family:ArialMT, Arial"><tspan style="letter-spacing:0.002001562790143532em">F</tspan><tspan x="6.28" y="0" style="letter-spacing:0.002954687928307119em">e</tspan><tspan x="12.01" y="0">b</tspan></text></g><g style="clip-path:url(#clip-path-11)"><text transform="translate(231.73 319.23)" style="font-size:10.24590015411377px;font-family:ArialMT, Arial"><tspan style="letter-spacing:-0.006004688370430595em">M</tspan><tspan x="8.47" y="0" style="letter-spacing:0.002954687928307119em">a</tspan><tspan x="14.2" y="0">r</tspan></text></g><g style="clip-path:url(#clip-path-11)"><text transform="translate(300.29 319.23)" style="font-size:10.24590015411377px;font-family:ArialMT, Arial">A<tspan x="6.83" y="0" style="letter-spacing:0.002954687928307119em">p</tspan><tspan x="12.56" y="0">r</tspan></text></g><g style="clip-path:url(#clip-path-11)"><text transform="translate(366.29 319.23)" style="font-size:10.24590015411377px;font-family:ArialMT, Arial"><tspan style="letter-spacing:-0.006004688370430595em">M</tspan><tspan x="8.47" y="0" style="letter-spacing:0.002954687928307119em">a</tspan><tspan x="14.2" y="0">y</tspan></text></g><g style="clip-path:url(#clip-path-11)"><text transform="translate(435.41 319.23)" style="font-size:10.24590015411377px;font-family:ArialMT, Arial"><tspan style="letter-spacing:0.006004688370430595em">J</tspan><tspan x="5.18" y="0" style="letter-spacing:-0.009054688812554073em">u</tspan><tspan x="10.79" y="0">n</tspan></text></g><g style="clip-path:url(#clip-path-11)"><text transform="translate(504.82 319.23)" style="font-size:10.24590015411377px;font-family:ArialMT, Arial"><tspan style="letter-spacing:0.006004688370430595em">J</tspan><tspan x="5.18" y="0" style="letter-spacing:-0.009054688812554073em">u</tspan><tspan x="10.79" y="0">l</tspan></text></g><g style="clip-path:url(#clip-path-11)"><text transform="translate(569.96 319.23)" style="font-size:10.24590015411377px;font-family:ArialMT, Arial">A<tspan x="6.83" y="0" style="letter-spacing:0.002954687928307119em">u</tspan><tspan x="12.56" y="0">g</tspan></text></g><g style="clip-path:url(#clip-path-11)"><text transform="translate(637.67 319.23)" style="font-size:10.24590015411377px;font-family:ArialMT, Arial">S<tspan x="6.83" y="0" style="letter-spacing:0.002954687928307119em">e</tspan><tspan x="12.56" y="0">p</tspan></text></g><g style="clip-path:url(#clip-path-11)"><text transform="translate(706.52 319.23)" style="font-size:10.24590015411377px;font-family:ArialMT, Arial"><tspan style="letter-spacing:-0.004003125580287064em">O</tspan><tspan x="7.93" y="0" style="letter-spacing:0.006004688370430595em">c</tspan><tspan x="13.11" y="0">t</tspan></text></g><g style="clip-path:url(#clip-path-11)"><text transform="translate(773.08 319.23)" style="font-size:10.24590015411377px;font-family:ArialMT, Arial"><tspan style="letter-spacing:-0.002001562790143532em">N</tspan><tspan x="7.38" y="0" style="letter-spacing:0.002954687928307119em">o</tspan><tspan x="13.11" y="0">v</tspan></text></g><g style="clip-path:url(#clip-path-11)"><text transform="translate(840.79 319.23)" style="font-size:10.24590015411377px;font-family:ArialMT, Arial"><tspan style="letter-spacing:-0.002001562790143532em">D</tspan><tspan x="7.38" y="0" style="letter-spacing:0.002954687928307119em">e</tspan><tspan x="13.11" y="0">c</tspan></text></g><g style="clip-path:url(#clip-path-11)"><text transform="translate(19.9 230.65) rotate(-90)" style="font-size:11.338800430297852px;font-family:Arial-BoldMT, Arial;font-weight:700"><tspan style="letter-spacing:0.02196206195097999em">M</tspan><tspan x="9.69" y="0" style="letter-spacing:-0.0009473830645520781em">a</tspan><tspan x="15.99" y="0" style="letter-spacing:-0.0030144006599384303em">r</tspan><tspan x="20.37" y="0" style="letter-spacing:-0.0009473830645520781em">ke</tspan><tspan x="32.96" y="0" style="letter-spacing:0.003961783724490508em">t</tspan><tspan x="36.78" y="0" style="letter-spacing:-0.00008612573314109801em"> </tspan><tspan x="39.93" y="0" style="letter-spacing:-0.003961783724490508em">P</tspan><tspan x="47.45" y="0" style="letter-spacing:-0.0030144006599384303em">r</tspan><tspan x="51.83" y="0">i</tspan><tspan x="54.98" y="0" style="letter-spacing:-0.0009473830645520781em">ce</tspan><tspan x="67.57" y="0" style="letter-spacing:0.02299557074867317em"> </tspan><tspan x="70.98" y="0" style="letter-spacing:0.0038756579913494103em">(</tspan><tspan x="74.8" y="0" style="letter-spacing:0.00008612573314109801em">R</tspan><tspan x="82.99" y="0" style="letter-spacing:-0.001033508797693176em">s</tspan><tspan x="89.28" y="0">./</tspan><tspan x="95.58" y="0" style="letter-spacing:0.02204818768412109em">M</tspan><tspan x="105.28" y="0" style="letter-spacing:0.014985877566551052em">T</tspan><tspan x="112.37" y="0">)</tspan></text></g><g style="clip-path:url(#clip-path-11)"><text transform="translate(430.68 341.74)" style="font-size:11.338800430297852px;font-family:Arial-BoldMT, Arial;font-weight:700"><tspan style="letter-spacing:0.02196206195097999em">M</tspan><tspan x="9.69" y="0" style="letter-spacing:0.0031005263930795283em">on</tspan><tspan x="23.62" y="0" style="letter-spacing:0.003961783724490508em">t</tspan><tspan x="27.44" y="0" style="letter-spacing:0.0030144006599384303em">h</tspan><tspan x="34.4" y="0" style="letter-spacing:-0.0009473830645520781em">s</tspan><tspan x="40.69" y="0"> </tspan></text></g><g style="clip-path:url(#clip-path)"><line x1="30.19" y1="23.36" x2="52.05" y2="23.36" style="fill:none;stroke:#2935e8;stroke-linecap:round;stroke-linejoin:round;stroke-width:2.45901622732538px"/></g><g style="clip-path:url(#clip-path-11)"><text transform="translate(54.37 26.57)" style="font-size:10.24590015411377px;font-family:ArialMT, Arial">P<tspan x="6.83" y="0" style="letter-spacing:-0.002001562790143532em">N</tspan><tspan x="14.21" y="0">B</tspan><tspan x="21.05" y="0" style="letter-spacing:0.002001562790143532em"> </tspan><tspan x="23.91" y="0" style="letter-spacing:-0.00009531251381635867em">(</tspan><tspan x="27.33" y="0" style="letter-spacing:-0.002001562790143532em">R</tspan><tspan x="34.7" y="0">-</tspan><tspan x="38.12" y="0" style="letter-spacing:0.0030500004421234773em">3</tspan><tspan x="43.85" y="0">)</tspan></text></g><g style="clip-path:url(#clip-path)"><line x1="113.66" y1="23.36" x2="135.52" y2="23.36" style="fill:none;stroke:#6b77e8;stroke-linecap:round;stroke-linejoin:round;stroke-width:2.45901622732538px"/></g><g style="clip-path:url(#clip-path-11)"><text transform="translate(137.86 26.57)" style="font-size:10.24590015411377px;font-family:ArialMT, Arial"><tspan style="letter-spacing:-0.002001562790143532em">HR</tspan><tspan x="14.76" y="0" style="letter-spacing:0.002001562790143532em"> </tspan><tspan x="17.63" y="0" style="letter-spacing:-0.00009531251381635867em">(</tspan><tspan x="21.04" y="0" style="letter-spacing:-0.002001562790143532em">R</tspan><tspan x="28.42" y="0">-</tspan><tspan x="31.83" y="0" style="letter-spacing:0.0030500004421234773em">4</tspan><tspan x="37.56" y="0" style="letter-spacing:0.002001562790143532em">, </tspan><tspan x="43.29" y="0" style="letter-spacing:-0.0020968753039598905em">R</tspan><tspan x="50.67" y="0">-</tspan><tspan x="54.08" y="0" style="letter-spacing:-0.008959376298737715em">5</tspan><tspan x="59.69" y="0">)</tspan></text></g><g style="clip-path:url(#clip-path)"><line x1="213.11" y1="23.36" x2="234.97" y2="23.36" style="fill:none;stroke:#95a2ef;stroke-linecap:round;stroke-linejoin:round;stroke-width:2.45901622732538px"/></g><g style="clip-path:url(#clip-path-11)"><text transform="translate(237.27 26.57)" style="font-size:10.24590015411377px;font-family:ArialMT, Arial"><tspan style="letter-spacing:-0.002001562790143532em">U</tspan><tspan x="7.38" y="0">P</tspan><tspan x="14.21" y="0" style="letter-spacing:0.002001562790143532em"> </tspan><tspan x="17.08" y="0">(</tspan><tspan x="20.49" y="0" style="letter-spacing:-0.0020968753039598905em">R</tspan><tspan x="27.87" y="0">-</tspan><tspan x="31.28" y="0" style="letter-spacing:0.0030500004421234773em">9</tspan><tspan x="37.01" y="0" style="letter-spacing:0.002001562790143532em">, </tspan><tspan x="42.75" y="0" style="letter-spacing:-0.0020968753039598905em">R</tspan><tspan x="50.12" y="0">-</tspan><tspan x="53.54" y="0" style="letter-spacing:-0.008959376298737715em">1</tspan><tspan x="59.14" y="0" style="letter-spacing:0.002954687928307119em">0</tspan><tspan x="64.87" y="0" style="letter-spacing:0.002001562790143532em">, </tspan><tspan x="70.61" y="0" style="letter-spacing:-0.002001562790143532em">R</tspan><tspan x="77.98" y="0">-</tspan><tspan x="81.4" y="0" style="letter-spacing:0.0030500004421234773em">1</tspan><tspan x="87.13" y="0" style="letter-spacing:-0.009054688812554073em">7</tspan><tspan x="92.73" y="0" style="letter-spacing:0.002001562790143532em">, </tspan><tspan x="98.47" y="0" style="letter-spacing:-0.002001562790143532em">R</tspan><tspan x="105.84" y="0">-</tspan><tspan x="109.26" y="0" style="letter-spacing:0.002954687928307119em">2</tspan><tspan x="114.99" y="0" style="letter-spacing:-0.008959376298737715em">2</tspan><tspan x="120.59" y="0">)</tspan></text></g><g style="clip-path:url(#clip-path)"><line x1="373.5" y1="23.36" x2="395.36" y2="23.36" style="fill:none;stroke:#3d699c;stroke-linecap:round;stroke-linejoin:round;stroke-width:2.45901622732538px"/></g><g style="clip-path:url(#clip-path-11)"><text transform="translate(397.62 26.57)" style="font-size:10.24590015411377px;font-family:ArialMT, Arial"><tspan style="letter-spacing:-0.006004688370430595em">M</tspan><tspan x="8.47" y="0" style="letter-spacing:0.012962501879024778em">A</tspan><tspan x="15.44" y="0" style="letter-spacing:-0.002001562790143532em">H</tspan><tspan x="22.82" y="0" style="letter-spacing:0.002001562790143532em"> </tspan><tspan x="25.69" y="0" style="letter-spacing:-0.013057814392841137em">(</tspan><tspan x="28.96" y="0" style="letter-spacing:0.011056251602697605em">R</tspan><tspan x="36.48" y="0" style="letter-spacing:-0.00009531251381635867em">-</tspan><tspan x="39.89" y="0" style="letter-spacing:-0.008959376298737715em">6</tspan><tspan x="45.5" y="0">)</tspan></text></g><g style="clip-path:url(#clip-path)"><line x1="458.61" y1="23.36" x2="480.46" y2="23.36" style="fill:none;stroke:#ff25f3;stroke-linecap:round;stroke-linejoin:round;stroke-width:2.45901622732538px"/></g><g style="clip-path:url(#clip-path-11)"><text transform="translate(482.81 26.57)" style="font-size:10.24590015411377px;font-family:ArialMT, Arial">AP<tspan x="13.67" y="0" style="letter-spacing:0.002001562790143532em"> </tspan><tspan x="16.54" y="0">(</tspan><tspan x="19.95" y="0" style="letter-spacing:-0.002001562790143532em">R</tspan><tspan x="27.33" y="0" style="letter-spacing:-0.00009531251381635867em">-</tspan><tspan x="30.74" y="0" style="letter-spacing:0.0030500004421234773em">1</tspan><tspan x="36.47" y="0" style="letter-spacing:0.002001562790143532em">,</tspan><tspan x="39.33" y="0" style="letter-spacing:-0.011056251602697605em"> </tspan><tspan x="42.07" y="0" style="letter-spacing:0.011056251602697605em">R</tspan><tspan x="49.58" y="0" style="letter-spacing:-0.00009531251381635867em">-</tspan><tspan x="52.99" y="0" style="letter-spacing:-0.008959376298737715em">1</tspan><tspan x="58.6" y="0" style="letter-spacing:0.0030500004421234773em">8</tspan><tspan x="64.33" y="0" style="letter-spacing:-0.00009531251381635867em">)</tspan></text></g><g style="clip-path:url(#clip-path)"><line x1="562.57" y1="23.36" x2="584.43" y2="23.36" style="fill:none;stroke:#00c1a3;stroke-linecap:round;stroke-linejoin:round;stroke-width:2.45901622732538px"/></g><g style="clip-path:url(#clip-path-11)"><text transform="translate(586.8 26.57)" style="font-size:10.24590015411377px;font-family:ArialMT, Arial"><tspan style="letter-spacing:0.002001562790143532em">T</tspan><tspan x="6.28" y="0" style="letter-spacing:-0.002001562790143532em">N</tspan><tspan x="13.66" y="0" style="letter-spacing:0.002001562790143532em"> </tspan><tspan x="16.53" y="0" style="letter-spacing:-0.00009531251381635867em">(</tspan><tspan x="19.94" y="0" style="letter-spacing:-0.002001562790143532em">R</tspan><tspan x="27.32" y="0">-</tspan><tspan x="30.73" y="0" style="letter-spacing:0.0030500004421234773em">2</tspan><tspan x="36.46" y="0" style="letter-spacing:-0.009054688812554073em">0</tspan><tspan x="42.06" y="0">)</tspan></text></g><g style="clip-path:url(#clip-path)"><line x1="644.4" y1="23.36" x2="666.26" y2="23.36" style="fill:none;stroke:#101894;stroke-linecap:round;stroke-linejoin:round;stroke-width:2.45901622732538px"/></g><g style="clip-path:url(#clip-path-11)"><text transform="translate(668.57 26.57)" style="font-size:10.24590015411377px;font-family:ArialMT, Arial"><tspan style="letter-spacing:-0.004003125580287064em">G</tspan><tspan x="7.93" y="0" style="letter-spacing:0.010960939088881246em">U</tspan><tspan x="15.44" y="0" style="letter-spacing:-0.006004688370430595em">J</tspan><tspan x="20.5" y="0" style="letter-spacing:0.002001562790143532em"> </tspan><tspan x="23.37" y="0">(</tspan><tspan x="26.78" y="0" style="letter-spacing:-0.002001562790143532em">R</tspan><tspan x="34.16" y="0">-</tspan><tspan x="37.57" y="0" style="letter-spacing:0.002954687928307119em">1</tspan><tspan x="43.3" y="0" style="letter-spacing:-0.008959376298737715em">3</tspan><tspan x="48.91" y="0" style="letter-spacing:0.002001562790143532em">, </tspan><tspan x="54.64" y="0" style="letter-spacing:-0.0020968753039598905em">R</tspan><tspan x="62.02" y="0">-</tspan><tspan x="65.43" y="0" style="letter-spacing:0.0030500004421234773em">23</tspan><tspan x="76.89" y="0">)</tspan></text></g><g style="clip-path:url(#clip-path)"><line x1="760.93" y1="23.36" x2="782.79" y2="23.36" style="fill:none;stroke:#1b2ab0;stroke-linecap:round;stroke-linejoin:round;stroke-width:2.45901622732538px"/></g><g style="clip-path:url(#clip-path-11)"><text transform="translate(785.07 26.57)" style="font-size:10.24590015411377px;font-family:ArialMT, Arial"><tspan style="letter-spacing:0.002001562790143532em">T</tspan><tspan x="6.28" y="0">E</tspan><tspan x="13.11" y="0" style="letter-spacing:0.002954687928307119em">L</tspan><tspan x="18.84" y="0" style="letter-spacing:-0.010960939088881246em"> </tspan><tspan x="21.58" y="0">(</tspan><tspan x="24.99" y="0" style="letter-spacing:0.010960939088881246em">R</tspan><tspan x="32.5" y="0">-</tspan><tspan x="35.91" y="0" style="letter-spacing:-0.009054688812554073em">1</tspan><tspan x="41.52" y="0" style="letter-spacing:0.0030500004421234773em">9</tspan><tspan x="47.25" y="0" style="letter-spacing:0.002001562790143532em">, </tspan><tspan x="52.98" y="0" style="letter-spacing:-0.002001562790143532em">R</tspan><tspan x="60.36" y="0" style="letter-spacing:-0.00009531251381635867em">-</tspan><tspan x="63.77" y="0" style="letter-spacing:-0.008959376298737715em">2</tspan><tspan x="69.38" y="0" style="letter-spacing:0.002954687928307119em">1</tspan><tspan x="75.11" y="0" style="letter-spacing:0.002001562790143532em">, </tspan><tspan x="80.84" y="0" style="letter-spacing:-0.002001562790143532em">R</tspan><tspan x="88.22" y="0">-</tspan><tspan x="91.63" y="0" style="letter-spacing:0.0030500004421234773em">2</tspan><tspan x="97.36" y="0" style="letter-spacing:-0.009054688812554073em">4</tspan><tspan x="102.97" y="0">)</tspan></text></g><polygon points="0.14 0 900 0 900 349.18 0.14 349.18 0.14 0 0.14 0" style="fill:none;stroke:#d9d9d9;stroke-linejoin:round;stroke-width:0.819672166249696px"/></svg>