<svg id="Layer_1" data-name="Layer 1" xmlns="http://www.w3.org/2000/svg" xmlns:xlink="http://www.w3.org/1999/xlink" viewBox="0 0 900 350"><defs><clipPath id="clip-path"><polygon points="0 354.08 900 354.08 900 0 0 0 0 354.08 0 354.08" style="fill:none;clip-rule:evenodd"/></clipPath><clipPath id="clip-path-2"><polygon points="61.98 310.74 880.39 310.74 880.39 15.63 61.98 15.63 61.98 310.74 61.98 310.74" style="fill:none;clip-rule:evenodd"/></clipPath><clipPath id="clip-path-6"><rect width="900" height="354.08" style="fill:none"/></clipPath><clipPath id="clip-path-40"><rect x="13.85" y="23.31" width="146.05" height="18.51" style="fill:none"/></clipPath><clipPath id="clip-path-41"><rect x="69.39" y="95.72" width="129.86" height="17.14" style="fill:none"/></clipPath><clipPath id="clip-path-42"><rect x="110.8" y="147.97" width="146.05" height="18.51" style="fill:none"/></clipPath><clipPath id="clip-path-43"><rect x="167.03" y="135.21" width="129.86" height="17.14" style="fill:none"/></clipPath><clipPath id="clip-path-44"><rect x="188.56" y="152.9" width="186.09" height="18.38" style="fill:none"/></clipPath><clipPath id="clip-path-45"><rect x="263.16" y="127.81" width="129.86" height="17.14" style="fill:none"/></clipPath><clipPath id="clip-path-46"><rect x="311.29" y="154.82" width="129.86" height="17.14" style="fill:none"/></clipPath><clipPath id="clip-path-47"><rect x="359.42" y="145.63" width="129.86" height="17.14" style="fill:none"/></clipPath><clipPath id="clip-path-48"><rect x="408.93" y="138.09" width="129.86" height="17.14" style="fill:none"/></clipPath><clipPath id="clip-path-49"><rect x="454.05" y="156.88" width="129.86" height="17.14" style="fill:none"/></clipPath><clipPath id="clip-path-50"><rect x="502.18" y="26.06" width="129.86" height="17.14" style="fill:none"/></clipPath><clipPath id="clip-path-51"><rect x="552.51" y="92.15" width="129.86" height="17.14" style="fill:none"/></clipPath><clipPath id="clip-path-52"><rect x="599.82" y="114.09" width="129.86" height="17.14" style="fill:none"/></clipPath><clipPath id="clip-path-53"><rect x="647.95" y="113.13" width="129.86" height="17.14" style="fill:none"/></clipPath><clipPath id="clip-path-54"><rect x="695.95" y="139.74" width="130" height="17.14" style="fill:none"/></clipPath><clipPath id="clip-path-55"><rect x="744.08" y="150.85" width="129.86" height="17.14" style="fill:none"/></clipPath><clipPath id="clip-path-56"><rect x="790.57" y="91.88" width="109.43" height="17.14" style="fill:none"/></clipPath></defs><title>yar</title><polygon points="0.14 0.14 900 0.14 900 354.08 0.14 354.08 0.14 0.14 0.14 0.14" style="fill:#eaeaea;fill-rule:evenodd"/><polygon points="61.98 15.63 879.57 15.63 879.57 309.92 61.98 309.92 61.98 15.63 61.98 15.63" style="fill:#fff;fill-rule:evenodd"/><path d="M62,309.92H879.57M62,236.42H879.57M62,162.78H879.57M62,89.27H879.57M62,15.63H879.57" style="fill:none;stroke:#d9d9d9;stroke-linejoin:round;stroke-width:0.82279436731818px"/><g style="clip-path:url(#clip-path)"><path d="M62,15.63V309.92M110.12,15.63V309.92M158.25,15.63V309.92m48-294.29V309.92M254.38,15.63V309.92M302.51,15.63V309.92m48-294.29V309.92M398.64,15.63V309.92M446.78,15.63V309.92M494.91,15.63V309.92m48-294.29V309.92M591,15.63V309.92M639.17,15.63V309.92m48-294.29V309.92M735.3,15.63V309.92M783.44,15.63V309.92m48-294.29V309.92M879.57,15.63V309.92" style="fill:none;stroke:#d9d9d9;stroke-linejoin:round;stroke-width:0.82279436731818px"/></g><g style="clip-path:url(#clip-path-2)"><path d="M76.52,251.09h19.2v15H76.52v-15Zm48,0h19.33v4.39H124.52v-4.39Zm48.13,0h19.2V256h-19.2v-4.94Zm48.13,0H240V253h-19.2v-1.92Zm48,0h19.34v10.7H268.78v-10.7Zm48.13,0h19.2v7.13h-19.2v-7.13Zm48.14,0h19.19v2.19H365.05v-2.19Zm48,0h19.34v1.78H413v-1.78Zm48.14,0h19.19v6.17H461.18v-6.17Zm48.13,0h19.2v1.64h-19.2v-1.64Zm48,0h19.33v15H557.31v-15Zm48.13,0h19.2v8h-19.2v-8Zm48.13,0h19.2v10.42h-19.2V251.09Zm48,0H720.9v2.33H701.57v-2.33Zm48.13,0h19.2v1.78H749.7v-1.78Zm48.14,0H817v1.78H797.84v-1.78Zm48,0h19.34v8H845.83v-8Z" style="fill:#ff25f3"/></g><g style="clip-path:url(#clip-path-2)"><path d="M76.52,55.26h19.2V251.09H76.52V55.26Zm48,65h19.33V251.09H124.52V120.27Zm48.13,56h19.2v74.87h-19.2V176.22Zm48.13-20.44H240v95.31h-19.2V155.78Zm48,28.8h19.34v66.51H268.78V184.58Zm48.13-36.2h19.2V251.09h-19.2V148.38Zm48.14,27h19.19v75.7H365.05v-75.7Zm48-9.19h19.34v84.89H413V166.2Zm48.14-5.89h19.19v90.78H461.18V160.31Zm48.13,17.28h19.2v73.5h-19.2v-73.5Zm48-122.33h19.33V251.09H557.31V55.26Zm48.13,63.5h19.2V251.09h-19.2V118.76Zm48.13,22.9h19.2V251.09h-19.2V141.66Zm48-8H720.9V251.09H701.57V133.7Zm48.13,26.74h19.2v90.65H749.7V160.44Zm48.14,11H817v79.67H797.84V171.42Zm48-52.66h19.34V251.09H845.83V118.76Z" style="fill:#5e9fff"/></g><g style="clip-path:url(#clip-path-2)"><path d="M76.52,40.45h19.2V55.26H76.52V40.45Zm48,75.43h19.33v4.39H124.52v-4.39Zm48.13,55.4h19.2v4.94h-19.2v-4.94Zm48.13-17.42H240v1.92h-19.2v-1.92Zm48,20.16h19.34v10.56H268.78V174Zm48.13-32.77h19.2v7.13h-19.2v-7.13Zm48.14,32.09h19.19v2H365.05v-2Zm48-8.92h19.34v1.78H413v-1.78Zm48.14-10.28h19.19v6.17H461.18v-6.17Zm48.13,21.94h19.2v1.51h-19.2v-1.51Zm48-135.63h19.33V55.26H557.31V40.45Zm48.13,70.49h19.2v7.82h-19.2v-7.82Zm48.13,20.43h19.2v10.29h-19.2V131.37Zm48,0H720.9v2.33H701.57v-2.33Zm48.13,27.29h19.2v1.78H749.7v-1.78Zm48.14,11H817v1.79H797.84v-1.79Zm48-58.69h19.34v7.82H845.83v-7.82Z" style="fill:#0044ab"/></g><g style="clip-path:url(#clip-path)"><line x1="61.98" y1="251.09" x2="879.57" y2="251.09" style="fill:none;stroke:#d9d9d9;stroke-linejoin:round;stroke-width:0.82279436731818px"/></g><g style="clip-path:url(#clip-path-6)"><text transform="translate(78.61 278.62)" style="font-size:10.284930229187012px;font-family:Arial-BoldMT, Arial;font-weight:700">-</text></g><g style="clip-path:url(#clip-path-6)"><text transform="translate(82.03 278.62)" style="font-size:10.284930229187012px;font-family:Arial-BoldMT, Arial;font-weight:700"><tspan style="letter-spacing:0.0030384260567288463em">8</tspan><tspan x="5.75" y="0">%</tspan></text></g><g style="clip-path:url(#clip-path-6)"><text transform="translate(126.7 273.21)" style="font-size:10.284930229187012px;font-family:Arial-BoldMT, Arial;font-weight:700">-</text></g><g style="clip-path:url(#clip-path-6)"><text transform="translate(130.12 273.21)" style="font-size:10.284930229187012px;font-family:Arial-BoldMT, Arial;font-weight:700"><tspan style="letter-spacing:0.0030384260567288463em">3</tspan><tspan x="5.75" y="0">%</tspan></text></g><g style="clip-path:url(#clip-path-6)"><text transform="translate(172.55 276.51)" style="font-size:10.284930229187012px;font-family:Arial-BoldMT, Arial;font-weight:700">-</text></g><g style="clip-path:url(#clip-path-6)"><text transform="translate(175.98 276.51)" style="font-size:10.284930229187012px;font-family:Arial-BoldMT, Arial;font-weight:700"><tspan style="letter-spacing:0.0030384260567288463em">6</tspan><tspan x="5.75" y="0">%</tspan></text></g><g style="clip-path:url(#clip-path-6)"><text transform="translate(222.87 270.75)" style="font-size:10.284930229187012px;font-family:Arial-BoldMT, Arial;font-weight:700">-</text></g><g style="clip-path:url(#clip-path-6)"><text transform="translate(226.3 270.75)" style="font-size:10.284930229187012px;font-family:Arial-BoldMT, Arial;font-weight:700"><tspan style="letter-spacing:0.0030384260567288463em">2</tspan><tspan x="5.75" y="0">%</tspan></text></g><g style="clip-path:url(#clip-path-6)"><text transform="translate(267.32 278.15)" style="font-size:10.284930229187012px;font-family:Arial-BoldMT, Arial;font-weight:700">-</text></g><g style="clip-path:url(#clip-path-6)"><text transform="translate(270.76 278.15)" style="font-size:10.284930229187012px;font-family:Arial-BoldMT, Arial;font-weight:700"><tspan style="letter-spacing:0.0030384260567288463em">16</tspan><tspan x="11.5" y="0">%</tspan></text></g><g style="clip-path:url(#clip-path-6)"><text transform="translate(319.04 275.12)" style="font-size:10.284930229187012px;font-family:Arial-BoldMT, Arial;font-weight:700">-</text></g><g style="clip-path:url(#clip-path-6)"><text transform="translate(322.48 275.12)" style="font-size:10.284930229187012px;font-family:Arial-BoldMT, Arial;font-weight:700"><tspan style="letter-spacing:0.0030384260567288463em">7</tspan><tspan x="5.75" y="0">%</tspan></text></g><g style="clip-path:url(#clip-path-6)"><text transform="translate(368.74 271.62)" style="font-size:10.284930229187012px;font-family:Arial-BoldMT, Arial;font-weight:700">-</text></g><g style="clip-path:url(#clip-path-6)"><text transform="translate(372.17 271.62)" style="font-size:10.284930229187012px;font-family:Arial-BoldMT, Arial;font-weight:700"><tspan style="letter-spacing:0.0030384260567288463em">3</tspan><tspan x="5.75" y="0">%</tspan></text></g><g style="clip-path:url(#clip-path-6)"><text transform="translate(415.23 270.75)" style="font-size:10.284930229187012px;font-family:Arial-BoldMT, Arial;font-weight:700">-</text></g><g style="clip-path:url(#clip-path-6)"><text transform="translate(418.65 270.75)" style="font-size:10.284930229187012px;font-family:Arial-BoldMT, Arial;font-weight:700"><tspan style="letter-spacing:0.0030384260567288463em">2</tspan><tspan x="5.75" y="0">%</tspan></text></g><g style="clip-path:url(#clip-path-6)"><text transform="translate(463.32 270.75)" style="font-size:10.284930229187012px;font-family:Arial-BoldMT, Arial;font-weight:700">-</text></g><g style="clip-path:url(#clip-path-6)"><text transform="translate(466.75 270.75)" style="font-size:10.284930229187012px;font-family:Arial-BoldMT, Arial;font-weight:700"><tspan style="letter-spacing:0.0030384260567288463em">7</tspan><tspan x="5.75" y="0">%</tspan></text></g><g style="clip-path:url(#clip-path-6)"><text transform="translate(512.21 274.25)" style="font-size:10.284930229187012px;font-family:Arial-BoldMT, Arial;font-weight:700">-</text></g><g style="clip-path:url(#clip-path-6)"><text transform="translate(515.64 274.25)" style="font-size:10.284930229187012px;font-family:Arial-BoldMT, Arial;font-weight:700"><tspan style="letter-spacing:0.0030384260567288463em">2</tspan><tspan x="5.75" y="0">%</tspan></text></g><g style="clip-path:url(#clip-path-6)"><text transform="translate(561.1 281.24)" style="font-size:10.284930229187012px;font-family:Arial-BoldMT, Arial;font-weight:700">-</text></g><g style="clip-path:url(#clip-path-6)"><text transform="translate(564.53 281.24)" style="font-size:10.284930229187012px;font-family:Arial-BoldMT, Arial;font-weight:700"><tspan style="letter-spacing:0.0030384260567288463em">8</tspan><tspan x="5.75" y="0">%</tspan></text></g><g style="clip-path:url(#clip-path-6)"><text transform="translate(607.58 270.75)" style="font-size:10.284930229187012px;font-family:Arial-BoldMT, Arial;font-weight:700">-</text></g><g style="clip-path:url(#clip-path-6)"><text transform="translate(611.01 270.75)" style="font-size:10.284930229187012px;font-family:Arial-BoldMT, Arial;font-weight:700"><tspan style="letter-spacing:0.0030384260567288463em">6</tspan><tspan x="5.75" y="0">%</tspan></text></g><g style="clip-path:url(#clip-path-6)"><text transform="translate(655.68 270.75)" style="font-size:10.284930229187012px;font-family:Arial-BoldMT, Arial;font-weight:700">-</text></g><g style="clip-path:url(#clip-path-6)"><text transform="translate(659.1 270.75)" style="font-size:10.284930229187012px;font-family:Arial-BoldMT, Arial;font-weight:700"><tspan style="letter-spacing:0.0030384260567288463em">9</tspan><tspan x="5.75" y="0">%</tspan></text></g><g style="clip-path:url(#clip-path-6)"><text transform="translate(703.76 270.75)" style="font-size:10.284930229187012px;font-family:Arial-BoldMT, Arial;font-weight:700">-</text></g><g style="clip-path:url(#clip-path-6)"><text transform="translate(707.19 270.75)" style="font-size:10.284930229187012px;font-family:Arial-BoldMT, Arial;font-weight:700"><tspan style="letter-spacing:0.0030384260567288463em">2</tspan><tspan x="5.75" y="0">%</tspan></text></g><g style="clip-path:url(#clip-path-6)"><text transform="translate(751.85 270.75)" style="font-size:10.284930229187012px;font-family:Arial-BoldMT, Arial;font-weight:700">-</text></g><g style="clip-path:url(#clip-path-6)"><text transform="translate(755.28 270.75)" style="font-size:10.284930229187012px;font-family:Arial-BoldMT, Arial;font-weight:700"><tspan style="letter-spacing:0.0030384260567288463em">2</tspan><tspan x="5.75" y="0">%</tspan></text></g><g style="clip-path:url(#clip-path-6)"><text transform="translate(799.93 270.75)" style="font-size:10.284930229187012px;font-family:Arial-BoldMT, Arial;font-weight:700">-</text></g><g style="clip-path:url(#clip-path-6)"><text transform="translate(803.37 270.75)" style="font-size:10.284930229187012px;font-family:Arial-BoldMT, Arial;font-weight:700"><tspan style="letter-spacing:0.0030384260567288463em">2</tspan><tspan x="5.75" y="0">%</tspan></text></g><g style="clip-path:url(#clip-path-6)"><text transform="translate(848.03 277.62)" style="font-size:10.284930229187012px;font-family:Arial-BoldMT, Arial;font-weight:700">-</text></g><g style="clip-path:url(#clip-path-6)"><text transform="translate(851.46 277.62)" style="font-size:10.284930229187012px;font-family:Arial-BoldMT, Arial;font-weight:700"><tspan style="letter-spacing:0.0030384260567288463em">6</tspan><tspan x="5.75" y="0">%</tspan></text></g><g style="clip-path:url(#clip-path-40)"><text transform="translate(76.6 36.3)" style="font-size:10.284930229187012px;font-family:Arial-BoldMT, Arial;font-weight:700;letter-spacing:0.001993967099728305em">+<tspan x="6.03" y="0" style="letter-spacing:0.0030384260567288463em">8</tspan><tspan x="11.78" y="0" style="letter-spacing:0.00009495081427277645em">%</tspan></text></g><g style="clip-path:url(#clip-path-41)"><text transform="translate(125.03 107.72)" style="font-size:9.187870025634766px;font-family:Arial-BoldMT, Arial;font-weight:700"><tspan style="letter-spacing:-0.0009565941263293815em">+</tspan><tspan x="5.36" y="0" style="letter-spacing:-0.0029760706152469644em">3</tspan><tspan x="10.44" y="0">%</tspan></text></g><g style="clip-path:url(#clip-path-42)"><text transform="translate(173.57 160.87)" style="font-size:10.284930229187012px;font-family:Arial-BoldMT, Arial;font-weight:700;letter-spacing:0.001993967099728305em">+<tspan x="6.03" y="0" style="letter-spacing:0.0030384260567288463em">6</tspan><tspan x="11.78" y="0" style="letter-spacing:0.00009495081427277645em">%</tspan></text></g><g style="clip-path:url(#clip-path-43)"><text transform="translate(222.7 147.15)" style="font-size:9.187870025634766px;font-family:Arial-BoldMT, Arial;font-weight:700"><tspan style="letter-spacing:-0.0009565941263293815em">+</tspan><tspan x="5.36" y="0" style="letter-spacing:-0.0029760706152469644em">2</tspan><tspan x="10.44" y="0">%</tspan></text></g><g style="clip-path:url(#clip-path-44)"><text transform="translate(268.35 165.78)" style="font-size:10.284930229187012px;font-family:Arial-BoldMT, Arial;font-weight:700;letter-spacing:0.001993967099728305em">+<tspan x="6.03" y="0" style="letter-spacing:0.0030384260567288463em">16</tspan><tspan x="17.53" y="0" style="letter-spacing:0.00009495081427277645em">%</tspan></text></g><g style="clip-path:url(#clip-path-45)"><text transform="translate(318.88 139.77)" style="font-size:9.187870025634766px;font-family:Arial-BoldMT, Arial;font-weight:700"><tspan style="letter-spacing:-0.0009565941263293815em">+</tspan><tspan x="5.36" y="0" style="letter-spacing:-0.0029760706152469644em">7</tspan><tspan x="10.44" y="0">%</tspan></text></g><g style="clip-path:url(#clip-path-46)"><text transform="translate(366.97 166.79)" style="font-size:9.187870025634766px;font-family:Arial-BoldMT, Arial;font-weight:700"><tspan style="letter-spacing:-0.0009565941263293815em">+</tspan><tspan x="5.36" y="0" style="letter-spacing:-0.0029760706152469644em">3</tspan><tspan x="10.44" y="0">%</tspan></text></g><g style="clip-path:url(#clip-path-47)"><text transform="translate(415.05 157.54)" style="font-size:9.187870025634766px;font-family:Arial-BoldMT, Arial;font-weight:700"><tspan style="letter-spacing:-0.0009565941263293815em">+</tspan><tspan x="5.36" y="0" style="letter-spacing:-0.0029760706152469644em">2</tspan><tspan x="10.44" y="0">%</tspan></text></g><g style="clip-path:url(#clip-path-48)"><text transform="translate(464.63 150.06)" style="font-size:9.187870025634766px;font-family:Arial-BoldMT, Arial;font-weight:700"><tspan style="letter-spacing:-0.0009565941263293815em">+</tspan><tspan x="5.36" y="0" style="letter-spacing:-0.0029760706152469644em">7</tspan><tspan x="10.44" y="0">%</tspan></text></g><g style="clip-path:url(#clip-path-49)"><text transform="translate(509.69 168.82)" style="font-size:9.187870025634766px;font-family:Arial-BoldMT, Arial;font-weight:700"><tspan style="letter-spacing:-0.0009565941263293815em">+</tspan><tspan x="5.36" y="0" style="letter-spacing:-0.0029760706152469644em">2</tspan><tspan x="10.44" y="0">%</tspan></text></g><g style="clip-path:url(#clip-path-50)"><text transform="translate(557.89 37.95)" style="font-size:9.187870025634766px;font-family:Arial-BoldMT, Arial;font-weight:700"><tspan style="letter-spacing:-0.0009565941263293815em">+</tspan><tspan x="5.36" y="0" style="letter-spacing:-0.0029760706152469644em">8</tspan><tspan x="10.44" y="0">%</tspan></text></g><g style="clip-path:url(#clip-path-51)"><text transform="translate(608.21 104.08)" style="font-size:9.187870025634766px;font-family:Arial-BoldMT, Arial;font-weight:700"><tspan style="letter-spacing:-0.0009565941263293815em">+</tspan><tspan x="5.36" y="0" style="letter-spacing:-0.0029760706152469644em">6</tspan><tspan x="10.44" y="0">%</tspan></text></g><g style="clip-path:url(#clip-path-52)"><text transform="translate(655.5 126.06)" style="font-size:9.187870025634766px;font-family:Arial-BoldMT, Arial;font-weight:700"><tspan style="letter-spacing:-0.0009565941263293815em">+</tspan><tspan x="5.36" y="0" style="letter-spacing:-0.0029760706152469644em">9</tspan><tspan x="10.44" y="0">%</tspan></text></g><g style="clip-path:url(#clip-path-53)"><text transform="translate(703.59 125.07)" style="font-size:9.187870025634766px;font-family:Arial-BoldMT, Arial;font-weight:700"><tspan style="letter-spacing:-0.0009565941263293815em">+</tspan><tspan x="5.36" y="0" style="letter-spacing:-0.0029760706152469644em">2</tspan><tspan x="10.44" y="0">%</tspan></text></g><g style="clip-path:url(#clip-path-54)"><text transform="translate(751.68 151.76)" style="font-size:9.187870025634766px;font-family:Arial-BoldMT, Arial;font-weight:700"><tspan style="letter-spacing:-0.0009565941263293815em">+</tspan><tspan x="5.36" y="0" style="letter-spacing:-0.0029760706152469644em">2</tspan><tspan x="10.44" y="0">%</tspan></text></g><g style="clip-path:url(#clip-path-55)"><text transform="translate(799.76 162.77)" style="font-size:9.187870025634766px;font-family:Arial-BoldMT, Arial;font-weight:700"><tspan style="letter-spacing:-0.0009565941263293815em">+</tspan><tspan x="5.36" y="0" style="letter-spacing:-0.0029760706152469644em">2</tspan><tspan x="10.44" y="0">%</tspan></text></g><g style="clip-path:url(#clip-path-56)"><text transform="translate(846.3 103.8)" style="font-size:9.187870025634766px;font-family:Arial-BoldMT, Arial;font-weight:700"><tspan style="letter-spacing:-0.0009565941263293815em">+</tspan><tspan x="5.36" y="0" style="letter-spacing:-0.0029760706152469644em">6</tspan><tspan x="10.44" y="0">%</tspan></text></g><g style="clip-path:url(#clip-path-6)"><text transform="translate(29.75 313.26)" style="font-size:10.284930229187012px;font-family:Arial-BoldMT, Arial;font-weight:700">-<tspan x="3.42" y="0" style="letter-spacing:0.0030384260567288463em">0</tspan><tspan x="9.18" y="0" style="letter-spacing:0.001993967099728305em">.</tspan><tspan x="12.05" y="0" style="letter-spacing:-0.008925376541640986em">7</tspan><tspan x="17.68" y="0">5</tspan></text></g><g style="clip-path:url(#clip-path-6)"><text transform="translate(33.18 239.7)" style="font-size:10.284930229187012px;font-family:Arial-BoldMT, Arial;font-weight:700;letter-spacing:0.0030384260567288463em">0<tspan x="5.75" y="0" style="letter-spacing:0.001993967099728305em">.</tspan><tspan x="8.63" y="0" style="letter-spacing:-0.009020327355913762em">1</tspan><tspan x="14.26" y="0" style="letter-spacing:0.00009495081427277645em">9</tspan></text></g><g style="clip-path:url(#clip-path-6)"><text transform="translate(33.18 166.12)" style="font-size:10.284930229187012px;font-family:Arial-BoldMT, Arial;font-weight:700;letter-spacing:0.0030384260567288463em">1<tspan x="5.75" y="0" style="letter-spacing:0.001993967099728305em">.</tspan><tspan x="8.63" y="0" style="letter-spacing:-0.009020327355913762em">1</tspan><tspan x="14.26" y="0" style="letter-spacing:0.00009495081427277645em">3</tspan></text></g><g style="clip-path:url(#clip-path-6)"><text transform="translate(33.18 92.55)" style="font-size:10.284930229187012px;font-family:Arial-BoldMT, Arial;font-weight:700;letter-spacing:0.0030384260567288463em">2<tspan x="5.75" y="0" style="letter-spacing:0.001993967099728305em">.</tspan><tspan x="8.63" y="0" style="letter-spacing:-0.009020327355913762em">0</tspan><tspan x="14.26" y="0" style="letter-spacing:0.00009495081427277645em">6</tspan></text></g><g style="clip-path:url(#clip-path-6)"><text transform="translate(33.18 18.97)" style="font-size:10.284930229187012px;font-family:Arial-BoldMT, Arial;font-weight:700;letter-spacing:0.0030384260567288463em">3<tspan x="5.75" y="0" style="letter-spacing:0.001993967099728305em">.</tspan><tspan x="8.63" y="0" style="letter-spacing:-0.009020327355913762em">0</tspan><tspan x="14.26" y="0" style="letter-spacing:0.00009495081427277645em">0</tspan></text></g><g style="clip-path:url(#clip-path-6)"><text transform="translate(77.8 325.51)" style="font-size:10.284930229187012px;font-family:Arial-BoldMT, Arial;font-weight:700"><tspan style="letter-spacing:-0.001993967099728305em">R</tspan><tspan x="7.41" y="0">-1</tspan></text></g><g style="clip-path:url(#clip-path-6)"><text transform="translate(125.9 325.51)" style="font-size:10.284930229187012px;font-family:Arial-BoldMT, Arial;font-weight:700"><tspan style="letter-spacing:-0.001993967099728305em">R</tspan><tspan x="7.41" y="0">-3</tspan></text></g><g style="clip-path:url(#clip-path-6)"><text transform="translate(173.98 325.51)" style="font-size:10.284930229187012px;font-family:Arial-BoldMT, Arial;font-weight:700"><tspan style="letter-spacing:-0.001993967099728305em">R</tspan><tspan x="7.41" y="0">-4</tspan></text></g><g style="clip-path:url(#clip-path-6)"><text transform="translate(222.07 325.51)" style="font-size:10.284930229187012px;font-family:Arial-BoldMT, Arial;font-weight:700"><tspan style="letter-spacing:-0.001993967099728305em">R</tspan><tspan x="7.41" y="0">-5</tspan></text></g><g style="clip-path:url(#clip-path-6)"><text transform="translate(270.15 325.51)" style="font-size:10.284930229187012px;font-family:Arial-BoldMT, Arial;font-weight:700"><tspan style="letter-spacing:-0.001993967099728305em">R</tspan><tspan x="7.41" y="0">-6</tspan></text></g><g style="clip-path:url(#clip-path-6)"><text transform="translate(318.24 325.51)" style="font-size:10.284930229187012px;font-family:Arial-BoldMT, Arial;font-weight:700"><tspan style="letter-spacing:-0.001993967099728305em">R</tspan><tspan x="7.41" y="0">-9</tspan></text></g><g style="clip-path:url(#clip-path-6)"><text transform="translate(363.48 325.51)" style="font-size:10.284930229187012px;font-family:Arial-BoldMT, Arial;font-weight:700"><tspan style="letter-spacing:-0.001993967099728305em">R</tspan><tspan x="7.41" y="0">-</tspan><tspan x="10.83" y="0" style="letter-spacing:0.0030384260567288463em">1</tspan><tspan x="16.58" y="0">0</tspan></text></g><g style="clip-path:url(#clip-path-6)"><text transform="translate(411.56 325.51)" style="font-size:10.284930229187012px;font-family:Arial-BoldMT, Arial;font-weight:700"><tspan style="letter-spacing:-0.001993967099728305em">R</tspan><tspan x="7.41" y="0">-</tspan><tspan x="10.83" y="0" style="letter-spacing:0.0030384260567288463em">1</tspan><tspan x="16.58" y="0">3</tspan></text></g><g style="clip-path:url(#clip-path-6)"><text transform="translate(459.65 325.51)" style="font-size:10.284930229187012px;font-family:Arial-BoldMT, Arial;font-weight:700"><tspan style="letter-spacing:-0.001993967099728305em">R</tspan><tspan x="7.41" y="0">-</tspan><tspan x="10.83" y="0" style="letter-spacing:0.0030384260567288463em">1</tspan><tspan x="16.58" y="0">6</tspan></text></g><g style="clip-path:url(#clip-path-6)"><text transform="translate(507.74 325.51)" style="font-size:10.284930229187012px;font-family:Arial-BoldMT, Arial;font-weight:700"><tspan style="letter-spacing:-0.001993967099728305em">R</tspan><tspan x="7.41" y="0">-</tspan><tspan x="10.83" y="0" style="letter-spacing:0.0030384260567288463em">1</tspan><tspan x="16.58" y="0">7</tspan></text></g><g style="clip-path:url(#clip-path-6)"><text transform="translate(555.83 325.51)" style="font-size:10.284930229187012px;font-family:Arial-BoldMT, Arial;font-weight:700"><tspan style="letter-spacing:-0.001993967099728305em">R</tspan><tspan x="7.41" y="0">-</tspan><tspan x="10.83" y="0" style="letter-spacing:0.0030384260567288463em">1</tspan><tspan x="16.58" y="0">8</tspan></text></g><g style="clip-path:url(#clip-path-6)"><text transform="translate(603.92 325.51)" style="font-size:10.284930229187012px;font-family:Arial-BoldMT, Arial;font-weight:700"><tspan style="letter-spacing:-0.001993967099728305em">R</tspan><tspan x="7.41" y="0">-</tspan><tspan x="10.83" y="0" style="letter-spacing:0.0030384260567288463em">1</tspan><tspan x="16.58" y="0">9</tspan></text></g><g style="clip-path:url(#clip-path-6)"><text transform="translate(652.01 325.51)" style="font-size:10.284930229187012px;font-family:Arial-BoldMT, Arial;font-weight:700"><tspan style="letter-spacing:-0.001993967099728305em">R</tspan><tspan x="7.41" y="0">-</tspan><tspan x="10.83" y="0" style="letter-spacing:0.0030384260567288463em">2</tspan><tspan x="16.58" y="0">0</tspan></text></g><g style="clip-path:url(#clip-path-6)"><text transform="translate(700.09 325.51)" style="font-size:10.284930229187012px;font-family:Arial-BoldMT, Arial;font-weight:700"><tspan style="letter-spacing:-0.001993967099728305em">R</tspan><tspan x="7.41" y="0">-</tspan><tspan x="10.83" y="0" style="letter-spacing:0.0030384260567288463em">2</tspan><tspan x="16.58" y="0">1</tspan></text></g><g style="clip-path:url(#clip-path-6)"><text transform="translate(748.18 325.51)" style="font-size:10.284930229187012px;font-family:Arial-BoldMT, Arial;font-weight:700"><tspan style="letter-spacing:-0.001993967099728305em">R</tspan><tspan x="7.41" y="0">-</tspan><tspan x="10.83" y="0" style="letter-spacing:0.0030384260567288463em">2</tspan><tspan x="16.58" y="0">2</tspan></text></g><g style="clip-path:url(#clip-path-6)"><text transform="translate(796.27 325.51)" style="font-size:10.284930229187012px;font-family:Arial-BoldMT, Arial;font-weight:700"><tspan style="letter-spacing:-0.001993967099728305em">R</tspan><tspan x="7.41" y="0">-</tspan><tspan x="10.83" y="0" style="letter-spacing:0.0030384260567288463em">2</tspan><tspan x="16.58" y="0">3</tspan></text></g><g style="clip-path:url(#clip-path-6)"><text transform="translate(844.36 325.51)" style="font-size:10.284930229187012px;font-family:Arial-BoldMT, Arial;font-weight:700"><tspan style="letter-spacing:-0.001993967099728305em">R</tspan><tspan x="7.41" y="0">-</tspan><tspan x="10.83" y="0" style="letter-spacing:0.0030384260567288463em">2</tspan><tspan x="16.58" y="0">4</tspan></text></g><g style="clip-path:url(#clip-path-6)"><text transform="translate(19.91 233.93) rotate(-90)" style="font-size:11.381990432739258px;font-family:Arial-BoldMT, Arial;font-weight:700"><tspan style="letter-spacing:0.0049763374283884835em">Q</tspan><tspan x="8.91" y="0" style="letter-spacing:0.0030029622412689125em">u</tspan><tspan x="15.9" y="0" style="letter-spacing:-0.0009437881329702296em">a</tspan><tspan x="22.22" y="0" style="letter-spacing:0.0030029622412689125em">n</tspan><tspan x="29.2" y="0" style="letter-spacing:0.004032549295418254em">t</tspan><tspan x="33.04" y="0">i</tspan><tspan x="36.2" y="0" style="letter-spacing:0.004032549295418254em">t</tspan><tspan x="40.04" y="0" style="letter-spacing:-0.01295563709804588em">y</tspan><tspan x="46.22" y="0" style="letter-spacing:0.010982261910926308em"> </tspan><tspan x="49.51" y="0">&amp; </tspan><tspan x="60.89" y="0" style="letter-spacing:0.007035511536687166em">Y</tspan><tspan x="68.56" y="0" style="letter-spacing:-0.0010295870541493415em">a</tspan><tspan x="74.88" y="0">R</tspan><tspan x="83.1" y="0" style="letter-spacing:0.010982261910926308em"> </tspan><tspan x="86.38" y="0" style="letter-spacing:0.004032549295418254em">(</tspan><tspan x="90.22" y="0" style="letter-spacing:0.021964523821852617em">M</tspan><tspan x="99.95" y="0" style="letter-spacing:0.015100610127523674em">T</tspan><tspan x="107.08" y="0">)</tspan></text></g><g style="clip-path:url(#clip-path-6)"><text transform="translate(430.26 344.14)" style="font-size:11.381990432739258px;font-family:Arial-BoldMT, Arial;font-weight:700">R<tspan x="8.22" y="0" style="letter-spacing:-0.0010295870541493415em">e</tspan><tspan x="14.54" y="0" style="letter-spacing:0.0030887611624480244em">g</tspan><tspan x="21.53" y="0">i</tspan><tspan x="24.69" y="0" style="letter-spacing:0.0030029622412689125em">on</tspan><tspan x="38.66" y="0">s</tspan></text></g><polygon points="0.14 0.14 900 0.14 900 354.08 0.14 354.08 0.14 0.14 0.14 0.14" style="fill:none;stroke:#d9d9d9;stroke-linejoin:round;stroke-width:0.822794435432581px"/></svg>