<?xml version="1.0" encoding="utf-8"?>
<!-- Generator: Adobe Illustrator 23.0.1, SVG Export Plug-In . SVG Version: 6.00 Build 0)  -->
<svg version="1.1" id="Layer_1" xmlns="http://www.w3.org/2000/svg" xmlns:xlink="http://www.w3.org/1999/xlink" x="0px" y="0px"
	 viewBox="0 0 532.3 137.5" style="enable-background:new 0 0 532.3 137.5;" xml:space="preserve">
<style type="text/css">
	.st0{fill:none;stroke:#000000;stroke-width:0.734;stroke-miterlimit:10;}
	.st1{fill:#000000;}
	.st2{fill-rule:evenodd;clip-rule:evenodd;fill:#000000;}
</style>
<g>
	<g>
		<g>
			<polygon class="st0" points="97.1,4.5 101.7,1.8 106.3,4.5 106.3,9.8 101.7,12.5 97.1,9.8 			"/>
			<path class="st1" d="M103.4,8.6c0,0.3-0.1,0.6-0.3,0.8c-0.2,0.2-0.5,0.3-0.8,0.3h-1.2c-0.3,0-0.6-0.1-0.8-0.3
				c-0.2-0.2-0.3-0.5-0.3-0.8V5.7c0-0.3,0.1-0.6,0.3-0.8c0.2-0.2,0.5-0.3,0.8-0.3h1.2c0.3,0,0.6,0.1,0.8,0.3
				c0.2,0.2,0.3,0.5,0.3,0.8V8.6L103.4,8.6z M102.3,5.6c-0.1-0.3-0.3-0.5-0.6-0.5c-0.2,0-0.3,0.1-0.4,0.2c-0.1,0.1-0.2,0.3-0.2,0.4
				v2L102.3,5.6L102.3,5.6z M102.3,8.6v-2l-1.1,2.1c0.1,0.3,0.3,0.5,0.6,0.5c0.2,0,0.3-0.1,0.4-0.2C102.2,8.9,102.3,8.8,102.3,8.6z"
				/>
		</g>
		<g>
			<polygon class="st0" points="106.6,32.6 111.2,29.9 115.8,32.6 115.8,37.9 111.2,40.6 106.6,37.9 			"/>
			<polygon class="st1" points="113.1,37.7 112.8,37.7 109.8,35 109.8,37.7 109.3,37.7 109.3,32.8 109.5,32.8 112.5,35.6 
				112.5,32.8 113.1,32.8 			"/>
		</g>
		<g>
			<polygon class="st0" points="107.6,52.9 112.2,50.3 116.9,52.9 116.9,58.3 112.2,60.9 107.6,58.3 			"/>
			<path class="st2" d="M113.7,53.1h-3.6l0.5,0.6h1.7c0.1,0.1,0.2,0.2,0.2,0.4h-2l0.4,0.6h1.6c0,0.1,0,0.1-0.1,0.2
				c-0.2,0.4-0.5,0.6-0.7,0.8l-0.2-0.3h-0.8l2.1,2.7h0.8l-1.5-1.9c0.3-0.2,0.9-0.8,1-1.5h1.3l-0.4-0.6h-0.9c0-0.2-0.1-0.3-0.1-0.4
				h1.1L113.7,53.1z"/>
		</g>
		<g>
			<polygon class="st0" points="122.7,58.4 127.3,55.7 131.9,58.4 131.9,63.7 127.3,66.4 122.7,63.7 			"/>
			<path class="st1" d="M127.1,62.6v-1.3c-0.4-0.1-0.7-0.3-0.9-0.5c-0.2-0.2-0.3-0.5-0.3-0.9c0-0.3,0.1-0.6,0.3-0.9
				c0.2-0.2,0.5-0.4,0.9-0.4v-0.3h0.5v0.3c0.3,0,0.6,0.2,0.8,0.4c0.2,0.2,0.3,0.4,0.4,0.8l-0.8,0.1c0-0.3-0.2-0.4-0.4-0.5v1.2
				c0.5,0.1,0.9,0.3,1,0.5c0.2,0.2,0.3,0.5,0.3,0.8c0,0.4-0.1,0.7-0.3,1c-0.2,0.3-0.6,0.4-1,0.5v0.6h-0.5v-0.6
				c-0.4,0-0.7-0.2-0.9-0.4c-0.2-0.2-0.4-0.6-0.4-1l0.8-0.1c0,0.2,0.1,0.3,0.2,0.4C126.9,62.4,127,62.5,127.1,62.6L127.1,62.6z
				 M127.1,59.2c-0.1,0-0.2,0.1-0.3,0.2c-0.1,0.1-0.1,0.2-0.1,0.3c0,0.1,0,0.2,0.1,0.3c0.1,0.1,0.2,0.2,0.3,0.2V59.2L127.1,59.2z
				 M127.5,62.6c0.2,0,0.3-0.1,0.4-0.2c0.1-0.1,0.1-0.3,0.1-0.4c0-0.1,0-0.3-0.1-0.4c-0.1-0.1-0.2-0.2-0.4-0.2V62.6z"/>
		</g>
		<g>
			<polygon class="st0" points="97.9,67.6 102.5,65 107.2,67.6 107.2,73 102.5,75.6 97.9,73 			"/>
			<path class="st2" d="M104.4,72.1c0,0.1,0,0-0.1,0.1l0.1,0c0.1,0,0.2-0.2,0.4-0.2c0,0.1,0.1,0.2,0.1,0.2c0.2,0.1,0.2,0,0.2,0.2
				c0,0,0.1,0.1,0.1,0.1c0.1,0,0.1,0,0.2-0.1c0.1-0.1,0.1,0,0.2,0c0.1,0,0.1-0.3,0.1-0.4c0.1-0.3-0.1-0.5-0.3-0.7
				c-0.1-0.1-0.7-0.5-0.8-0.5c-0.3-0.1-0.7-0.2-1-0.3c-0.8-0.3-1.2-0.4-1.8-0.9c-0.3-0.2-0.4-0.3-0.6-0.6c-0.1-0.2-0.2-0.5-0.5-0.6
				c-0.1,0-0.2,0-0.3-0.1c-0.2,0-0.2-0.1-0.2-0.2l0,0c-0.1,0-0.2,0-0.3,0c0,0-0.1,0-0.1-0.1c-0.2,0-0.4,0.1-0.5,0.3l0,0.1
				c0,0.1-0.1,0.2,0,0.3l0.3-0.1l0,0.1l0,0c-0.1,0.2-0.4,0.3-0.5,0.3l0.1,0c0.1,0,0.3-0.1,0.5,0l0,0l-0.4,0.3l0,0l0.6-0.1l0.1,0.1
				l0,0l-0.4,0.5c0.3,0.1,0.5-0.2,0.7-0.2c0,0,0.3,0.5,0.6,0.6c0,0.2,0.1,0.2,0,0.3l0,0c0,0.1,0,0.1-0.1,0.1c0,0.1,0,0.1,0.1,0.1
				c0.1,0,0.1,0,0.1,0c0.1-0.2,0.2-0.2,0.3-0.2l0.2,0.3c0,0.1-0.1,0.3,0,0.3l0,0c0.1,0.1,0.1-0.3,0.5-0.2c0.2,0.1,0.1,0.4,0.2,0.5
				l0,0c0.1,0,0.1,0,0.2-0.1l0-0.1c0,0,0.1-0.1,0.1-0.1c0.3,0.1,0.1,0.4,0.2,0.4l0,0c0.1,0,0.1,0,0.1,0c0-0.1,0.1-0.3,0.2-0.3
				c0.1,0,0.2,0.2,0.2,0.3l0,0.1l0.1,0c0.1,0,0.1,0,0.1,0c0-0.1,0.1-0.3,0.2-0.2c0.1,0,0.2,0.1,0.1,0.2l0,0.1l0.1,0
				c0.1,0,0.2-0.2,0.2-0.2C104.4,71.9,104.5,71.9,104.4,72.1z"/>
		</g>
		<g>
			<polygon class="st0" points="107,76 111.6,73.3 116.3,76 116.3,81.3 111.6,84 107,81.3 			"/>
			<path class="st1" d="M111.2,80.6h-1.3c-0.4,0-0.7-0.1-0.9-0.4c-0.3-0.3-0.4-0.6-0.4-0.9V78c0-0.4,0.1-0.7,0.4-0.9
				c0.3-0.3,0.6-0.4,0.9-0.4h0.9c0.1,0,0.2,0,0.3,0.1c0.1,0.1,0.1,0.2,0.1,0.3v0.4h-0.4c0-0.1,0-0.2-0.1-0.3
				c-0.1-0.1-0.2-0.1-0.3-0.1c-0.2,0-0.5,0.1-0.6,0.3c-0.2,0.2-0.3,0.4-0.3,0.6v1.3c0,0.2,0.1,0.5,0.3,0.6c0.2,0.2,0.4,0.3,0.6,0.3
				h0.9V80.6L111.2,80.6z M114.7,80.6h-0.9V80c-0.1,0.2-0.2,0.4-0.3,0.5c-0.1,0.1-0.3,0.1-0.6,0.1c-0.2,0-0.5-0.1-0.6-0.3
				c-0.2-0.2-0.3-0.4-0.3-0.6v-2.2h0.9v2.2c0,0.3,0.1,0.4,0.2,0.4c0.2,0,0.4-0.1,0.5-0.2c0.1-0.1,0.2-0.3,0.2-0.4v-2h0.9V80.6z"/>
		</g>
		<g>
			<polygon class="st0" points="123.1,77.4 127.7,74.7 132.3,77.4 132.3,82.8 127.7,85.4 123.1,82.8 			"/>
			<path class="st1" d="M127.3,82.1h-2.6v-0.4l1.8-3.1h-1.8v-0.4h2.6v0.4l-1.8,3.1h1.8V82.1L127.3,82.1z M130.8,82.1h-0.9v-2.2
				c0-0.3-0.1-0.4-0.2-0.4c-0.2,0-0.4,0.1-0.5,0.2c-0.1,0.1-0.2,0.3-0.2,0.4v2h-0.9V79h0.9v0.7c0.1-0.2,0.2-0.4,0.3-0.5
				c0.1-0.1,0.3-0.1,0.6-0.1c0.2,0,0.5,0.1,0.6,0.3c0.2,0.2,0.3,0.4,0.3,0.6V82.1z"/>
		</g>
		<polygon class="st0" points="71.2,5.1 75.8,2.4 80.5,5.1 80.5,10.4 75.8,13.1 71.2,10.4 		"/>
		<polygon class="st0" points="75.7,11.4 80.4,8.8 85,11.4 85,16.8 80.4,19.4 75.7,16.8 		"/>
		<polygon class="st0" points="88.7,13 93.4,10.3 98,13 98,18.3 93.4,21 88.7,18.3 		"/>
		<polygon class="st0" points="123.3,4.9 127.9,2.2 132.5,4.9 132.5,10.2 127.9,12.9 123.3,10.2 		"/>
		<polygon class="st0" points="86.1,22.8 90.7,20.1 95.3,22.8 95.3,28.1 90.7,30.8 86.1,28.1 		"/>
		<polygon class="st0" points="73.6,27.9 78.3,25.2 82.9,27.9 82.9,33.2 78.3,35.9 73.6,33.2 		"/>
		<polygon class="st0" points="121.5,18.2 126.1,15.5 130.8,18.2 130.8,23.5 126.1,26.2 121.5,23.5 		"/>
		<polygon class="st0" points="141.7,5.1 146.3,2.4 150.9,5.1 150.9,10.4 146.3,13.1 141.7,10.4 		"/>
		<polygon class="st0" points="146.4,7.5 151,4.8 155.6,7.5 155.6,12.8 151,15.5 146.4,12.8 		"/>
		<polygon class="st0" points="152.1,17.7 156.8,15.1 161.4,17.7 161.4,23.1 156.8,25.7 152.1,23.1 		"/>
		<polygon class="st0" points="137.2,18.9 141.8,16.2 146.4,18.9 146.4,24.2 141.8,26.9 137.2,24.2 		"/>
		<polygon class="st0" points="138.5,32.1 143.1,29.4 147.8,32.1 147.8,37.4 143.1,40.1 138.5,37.4 		"/>
		<polygon class="st0" points="160.1,37.8 164.7,35.1 169.3,37.8 169.3,43.1 164.7,45.8 160.1,43.1 		"/>
		<g>
			<polygon class="st0" points="103.3,43.2 107.9,40.5 112.5,43.2 112.5,48.5 107.9,51.2 103.3,48.5 			"/>
		</g>
		<polygon class="st0" points="119.9,29.2 124.5,26.5 129.1,29.2 129.1,34.5 124.5,37.2 119.9,34.5 		"/>
		<polygon class="st0" points="124.3,31.2 128.9,28.5 133.5,31.2 133.5,36.5 128.9,39.2 124.3,36.5 		"/>
		<polygon class="st0" points="117,40.3 121.6,37.6 126.2,40.3 126.2,45.6 121.6,48.3 117,45.6 		"/>
		<polygon class="st0" points="113.6,43.9 118.3,41.2 122.9,43.9 122.9,49.2 118.3,51.9 113.6,49.2 		"/>
		<polygon class="st0" points="78,47.1 82.6,44.4 87.2,47.1 87.2,52.4 82.6,55.1 78,52.4 		"/>
		<polygon class="st0" points="147.3,43 151.9,40.4 156.5,43 156.5,48.4 151.9,51 147.3,48.4 		"/>
		<polygon class="st0" points="141.9,43.2 146.5,40.6 151.1,43.2 151.1,48.6 146.5,51.2 141.9,48.6 		"/>
		<polygon class="st0" points="150.6,46.6 155.3,44 159.9,46.6 159.9,52 155.3,54.6 150.6,52 		"/>
		<polygon class="st0" points="148.6,62.2 153.3,59.5 157.9,62.2 157.9,67.5 153.3,70.2 148.6,67.5 		"/>
		<polygon class="st0" points="153.4,61 158,58.3 162.6,61 162.6,66.3 158,69 153.4,66.3 		"/>
		<polygon class="st0" points="134.9,62.9 139.5,60.2 144.1,62.9 144.1,68.2 139.5,70.9 134.9,68.2 		"/>
		<polygon class="st0" points="132.6,67 137.2,64.3 141.8,67 141.8,72.3 137.2,75 132.6,72.3 		"/>
		<polygon class="st0" points="122,67.6 126.6,64.9 131.2,67.6 131.2,72.9 126.6,75.6 122,72.9 		"/>
		<polygon class="st0" points="110.7,64.4 115.3,61.7 120,64.4 120,69.7 115.3,72.4 110.7,69.7 		"/>
		<polygon class="st0" points="88.5,61.7 93.1,59.1 97.8,61.7 97.8,67.1 93.1,69.7 88.5,67.1 		"/>
		<polygon class="st0" points="87.8,47.9 92.4,45.2 97,47.9 97,53.2 92.4,55.9 87.8,53.2 		"/>
		<polygon class="st0" points="76.3,57.3 80.9,54.6 85.5,57.3 85.5,62.6 80.9,65.3 76.3,62.6 		"/>
		<polygon class="st0" points="95.9,74.1 100.5,71.4 105.1,74.1 105.1,79.4 100.5,82.1 95.9,79.4 		"/>
		<polygon class="st0" points="129.2,79.7 133.8,77 138.4,79.7 138.4,85 133.8,87.7 129.2,85 		"/>
		<polygon class="st0" points="153.8,85.4 158.4,82.7 163,85.4 163,90.7 158.4,93.4 153.8,90.7 		"/>
		<polygon class="st0" points="154.6,96.6 159.2,93.9 163.8,96.6 163.8,101.9 159.2,104.6 154.6,101.9 		"/>
		<polygon class="st0" points="103.9,93.2 108.5,90.5 113.1,93.2 113.1,98.5 108.5,101.2 103.9,98.5 		"/>
		<polygon class="st0" points="80.9,93.5 85.5,90.8 90.1,93.5 90.1,98.8 85.5,101.5 80.9,98.8 		"/>
		<polygon class="st0" points="73.8,69.3 78.4,66.6 83.1,69.3 83.1,74.6 78.4,77.3 73.8,74.6 		"/>
		<polygon class="st0" points="68.3,75.8 72.9,73.2 77.6,75.8 77.6,81.2 72.9,83.8 68.3,81.2 		"/>
		<polygon class="st0" points="64.3,92.3 68.9,89.6 73.5,92.3 73.5,97.6 68.9,100.3 64.3,97.6 		"/>
		<g>
			<polygon class="st0" points="83.2,8.3 87.8,5.7 92.4,8.3 92.4,13.7 87.8,16.3 83.2,13.7 			"/>
			<path class="st1" d="M89.5,12.5c0,0.3-0.1,0.6-0.3,0.8c-0.2,0.2-0.5,0.3-0.8,0.3h-1.2c-0.3,0-0.6-0.1-0.8-0.3
				c-0.2-0.2-0.3-0.5-0.3-0.8V9.6c0-0.3,0.1-0.6,0.3-0.8c0.2-0.2,0.5-0.3,0.8-0.3h1.2c0.3,0,0.6,0.1,0.8,0.3
				c0.2,0.2,0.3,0.5,0.3,0.8V12.5L89.5,12.5z M88.4,9.5C88.3,9.1,88.1,9,87.8,9c-0.2,0-0.3,0.1-0.4,0.2c-0.1,0.1-0.2,0.3-0.2,0.4v2
				L88.4,9.5L88.4,9.5z M88.4,12.5v-2l-1.1,2.1c0.1,0.3,0.3,0.5,0.6,0.5c0.2,0,0.3-0.1,0.4-0.2C88.3,12.8,88.4,12.6,88.4,12.5z"/>
		</g>
		<g>
			<polygon class="st0" points="130.1,9.9 134.8,7.2 139.4,9.9 139.4,15.2 134.8,17.9 130.1,15.2 			"/>
			<path class="st1" d="M136.5,14c0,0.3-0.1,0.6-0.3,0.8c-0.2,0.2-0.5,0.3-0.8,0.3h-1.2c-0.3,0-0.6-0.1-0.8-0.3
				c-0.2-0.2-0.3-0.5-0.3-0.8v-2.9c0-0.3,0.1-0.6,0.3-0.8c0.2-0.2,0.5-0.3,0.8-0.3h1.2c0.3,0,0.6,0.1,0.8,0.3
				c0.2,0.2,0.3,0.5,0.3,0.8V14L136.5,14z M135.3,11c-0.1-0.3-0.3-0.5-0.6-0.5c-0.2,0-0.3,0.1-0.4,0.2c-0.1,0.1-0.2,0.3-0.2,0.4v2
				L135.3,11L135.3,11z M135.3,14v-2l-1.1,2.1c0.1,0.3,0.3,0.5,0.6,0.5c0.2,0,0.3-0.1,0.4-0.2C135.3,14.3,135.3,14.2,135.3,14z"/>
		</g>
		<g>
			<polygon class="st0" points="165.5,22.2 170.1,19.5 174.7,22.2 174.7,27.5 170.1,30.2 165.5,27.5 			"/>
			<path class="st1" d="M171.8,26.3c0,0.3-0.1,0.6-0.3,0.8c-0.2,0.2-0.5,0.3-0.8,0.3h-1.2c-0.3,0-0.6-0.1-0.8-0.3
				c-0.2-0.2-0.3-0.5-0.3-0.8v-2.9c0-0.3,0.1-0.6,0.3-0.8c0.2-0.2,0.5-0.3,0.8-0.3h1.2c0.3,0,0.6,0.1,0.8,0.3
				c0.2,0.2,0.3,0.5,0.3,0.8V26.3L171.8,26.3z M170.7,23.3c-0.1-0.3-0.3-0.5-0.6-0.5c-0.2,0-0.3,0.1-0.4,0.2
				c-0.1,0.1-0.2,0.3-0.2,0.4v2L170.7,23.3L170.7,23.3z M170.7,26.3v-2l-1.1,2.1c0.1,0.3,0.2,0.5,0.6,0.5c0.2,0,0.3-0.1,0.4-0.2
				C170.6,26.6,170.7,26.5,170.7,26.3z"/>
		</g>
		<g>
			<path class="st1" d="M138.5,28.2c0,0.3-0.1,0.6-0.3,0.8c-0.2,0.2-0.5,0.3-0.8,0.3h-1.2c-0.3,0-0.6-0.1-0.8-0.3
				c-0.2-0.2-0.3-0.5-0.3-0.8v-2.9c0-0.3,0.1-0.6,0.3-0.8c0.2-0.2,0.5-0.3,0.8-0.3h1.2c0.3,0,0.6,0.1,0.8,0.3
				c0.2,0.2,0.3,0.5,0.3,0.8V28.2L138.5,28.2z M137.3,25.2c-0.1-0.3-0.3-0.5-0.6-0.5c-0.2,0-0.3,0.1-0.4,0.2
				c-0.1,0.1-0.2,0.3-0.2,0.4v2L137.3,25.2L137.3,25.2z M137.4,28.2v-2l-1.2,2.1c0.1,0.3,0.3,0.5,0.6,0.5c0.2,0,0.3-0.1,0.4-0.2
				C137.3,28.5,137.4,28.3,137.4,28.2z"/>
			<polygon class="st0" points="132.1,24.1 136.8,21.4 141.4,24.1 141.4,29.4 136.8,32.1 132.1,29.4 			"/>
		</g>
		<g>
			<polygon class="st0" points="111.9,18.7 116.5,16 121.1,18.7 121.1,24 116.5,26.7 111.9,24 			"/>
			<path class="st1" d="M118.2,22.8c0,0.3-0.1,0.6-0.3,0.8c-0.2,0.2-0.5,0.3-0.8,0.3h-1.2c-0.3,0-0.6-0.1-0.8-0.3
				c-0.2-0.2-0.3-0.5-0.3-0.8v-2.9c0-0.3,0.1-0.6,0.3-0.8c0.2-0.2,0.5-0.3,0.8-0.3h1.2c0.3,0,0.6,0.1,0.8,0.3
				c0.2,0.2,0.3,0.5,0.3,0.8V22.8L118.2,22.8z M117.1,19.8c-0.1-0.3-0.3-0.5-0.6-0.5c-0.2,0-0.3,0.1-0.4,0.2
				c-0.1,0.1-0.2,0.3-0.2,0.4v2L117.1,19.8L117.1,19.8z M117.1,22.8v-2l-1.1,2.1c0.1,0.3,0.3,0.5,0.6,0.5c0.2,0,0.3-0.1,0.4-0.2
				C117,23.1,117.1,23,117.1,22.8z"/>
		</g>
		<g>
			<polygon class="st0" points="97.2,24 101.9,21.3 106.5,24 106.5,29.3 101.9,32 97.2,29.3 			"/>
			<path class="st1" d="M103.6,28.1c0,0.3-0.1,0.6-0.3,0.8c-0.2,0.2-0.5,0.3-0.8,0.3h-1.2c-0.3,0-0.6-0.1-0.8-0.3
				c-0.2-0.2-0.3-0.5-0.3-0.8v-2.9c0-0.3,0.1-0.6,0.3-0.8c0.2-0.2,0.5-0.3,0.8-0.3h1.2c0.3,0,0.6,0.1,0.8,0.3
				c0.2,0.2,0.3,0.5,0.3,0.8V28.1L103.6,28.1z M102.4,25.1c-0.1-0.3-0.3-0.5-0.6-0.5c-0.2,0-0.3,0.1-0.4,0.2
				c-0.1,0.1-0.2,0.2-0.2,0.4v2L102.4,25.1L102.4,25.1z M102.4,28.1v-2l-1.2,2.1c0.1,0.3,0.3,0.5,0.6,0.5c0.2,0,0.3-0.1,0.4-0.2
				C102.4,28.4,102.4,28.2,102.4,28.1z"/>
		</g>
		<g>
			<polygon class="st0" points="80.7,20.5 85.3,17.8 89.9,20.5 89.9,25.8 85.3,28.5 80.7,25.8 			"/>
			<path class="st1" d="M87,24.6c0,0.3-0.1,0.6-0.3,0.8c-0.2,0.2-0.5,0.3-0.8,0.3h-1.2c-0.3,0-0.6-0.1-0.8-0.3
				c-0.2-0.2-0.3-0.5-0.3-0.8v-2.9c0-0.3,0.1-0.6,0.3-0.8c0.2-0.2,0.5-0.3,0.8-0.3h1.2c0.3,0,0.6,0.1,0.8,0.3
				c0.2,0.2,0.3,0.5,0.3,0.8V24.6L87,24.6z M85.9,21.6c-0.1-0.3-0.3-0.5-0.6-0.5c-0.2,0-0.3,0.1-0.4,0.2c-0.1,0.1-0.2,0.2-0.2,0.4v2
				L85.9,21.6L85.9,21.6z M85.9,24.6v-2l-1.1,2.1c0.1,0.3,0.3,0.5,0.6,0.5c0.2,0,0.3-0.1,0.4-0.2C85.8,24.9,85.9,24.7,85.9,24.6z"/>
		</g>
		<g>
			<polygon class="st0" points="88,33.2 92.7,30.5 97.3,33.2 97.3,38.5 92.7,41.2 88,38.5 			"/>
			<path class="st1" d="M94.4,37.3c0,0.3-0.1,0.6-0.3,0.8c-0.2,0.2-0.5,0.3-0.8,0.3h-1.2c-0.3,0-0.6-0.1-0.8-0.3
				c-0.2-0.2-0.3-0.5-0.3-0.8v-2.9c0-0.3,0.1-0.6,0.3-0.8c0.2-0.2,0.5-0.3,0.8-0.3h1.2c0.3,0,0.6,0.1,0.8,0.3
				c0.2,0.2,0.3,0.5,0.3,0.8V37.3L94.4,37.3z M93.2,34.3c-0.1-0.3-0.3-0.5-0.6-0.5c-0.2,0-0.3,0.1-0.4,0.2c-0.1,0.1-0.2,0.3-0.2,0.4
				v2L93.2,34.3L93.2,34.3z M93.2,37.3v-2l-1.2,2.1c0.1,0.3,0.3,0.5,0.6,0.5c0.2,0,0.3-0.1,0.4-0.2C93.2,37.6,93.2,37.5,93.2,37.3z"
				/>
		</g>
		<g>
			<polygon class="st0" points="99.9,55.5 104.5,52.9 109.1,55.5 109.1,60.9 104.5,63.5 99.9,60.9 			"/>
			<path class="st1" d="M106.2,59.7c0,0.3-0.1,0.6-0.3,0.8c-0.2,0.2-0.5,0.3-0.8,0.3h-1.2c-0.3,0-0.6-0.1-0.8-0.3
				c-0.2-0.2-0.3-0.5-0.3-0.8v-2.9c0-0.3,0.1-0.6,0.3-0.8c0.2-0.2,0.5-0.3,0.8-0.3h1.2c0.3,0,0.6,0.1,0.8,0.3
				c0.2,0.2,0.3,0.5,0.3,0.8V59.7L106.2,59.7z M105.1,56.7c-0.1-0.3-0.3-0.5-0.6-0.5c-0.2,0-0.3,0.1-0.4,0.2
				c-0.1,0.1-0.2,0.2-0.2,0.4v2L105.1,56.7L105.1,56.7z M105.1,59.7v-2l-1.1,2.1c0.1,0.3,0.3,0.5,0.6,0.5c0.2,0,0.3-0.1,0.4-0.2
				C105,59.9,105.1,59.8,105.1,59.7z"/>
		</g>
		<g>
			<polygon class="st0" points="83.5,55 88.2,52.4 92.8,55 92.8,60.4 88.2,63 83.5,60.4 			"/>
			<path class="st1" d="M89.9,59.1c0,0.3-0.1,0.6-0.3,0.8c-0.2,0.2-0.5,0.3-0.8,0.3h-1.2c-0.3,0-0.6-0.1-0.8-0.3
				c-0.2-0.2-0.3-0.5-0.3-0.8v-2.9c0-0.3,0.1-0.6,0.3-0.8c0.2-0.2,0.5-0.3,0.8-0.3h1.2c0.3,0,0.6,0.1,0.8,0.3
				c0.2,0.2,0.3,0.5,0.3,0.8V59.1L89.9,59.1z M88.7,56.1c-0.1-0.3-0.3-0.5-0.6-0.5c-0.2,0-0.3,0.1-0.4,0.2c-0.1,0.1-0.2,0.3-0.2,0.4
				v2L88.7,56.1L88.7,56.1z M88.7,59.1v-2l-1.1,2.1c0.1,0.3,0.2,0.5,0.6,0.5c0.2,0,0.3-0.1,0.4-0.2C88.7,59.4,88.7,59.3,88.7,59.1z"
				/>
		</g>
		<g>
			<polygon class="st0" points="138.5,46.8 143.1,44.1 147.8,46.8 147.8,52.1 143.1,54.8 138.5,52.1 			"/>
			<path class="st1" d="M144.9,50.9c0,0.3-0.1,0.6-0.3,0.8c-0.2,0.2-0.5,0.3-0.8,0.3h-1.2c-0.3,0-0.6-0.1-0.8-0.3
				c-0.2-0.2-0.3-0.5-0.3-0.8V48c0-0.3,0.1-0.6,0.3-0.8c0.2-0.2,0.5-0.3,0.8-0.3h1.2c0.3,0,0.6,0.1,0.8,0.3c0.2,0.2,0.3,0.5,0.3,0.8
				V50.9L144.9,50.9z M143.7,47.9c-0.1-0.3-0.3-0.5-0.6-0.5c-0.2,0-0.3,0.1-0.4,0.2c-0.1,0.1-0.2,0.2-0.2,0.4v2L143.7,47.9
				L143.7,47.9z M143.7,50.9v-2l-1.1,2.1c0.1,0.3,0.2,0.5,0.6,0.5c0.2,0,0.3-0.1,0.4-0.2C143.7,51.2,143.7,51.1,143.7,50.9z"/>
		</g>
		<g>
			<polygon class="st0" points="145,57.2 149.6,54.5 154.2,57.2 154.2,62.5 149.6,65.2 145,62.5 			"/>
			<path class="st1" d="M151.4,61.3c0,0.3-0.1,0.6-0.3,0.8c-0.2,0.2-0.5,0.3-0.8,0.3H149c-0.3,0-0.6-0.1-0.8-0.3
				c-0.2-0.2-0.3-0.5-0.3-0.8v-2.9c0-0.3,0.1-0.6,0.3-0.8c0.2-0.2,0.5-0.3,0.8-0.3h1.2c0.3,0,0.6,0.1,0.8,0.3
				c0.2,0.2,0.3,0.5,0.3,0.8V61.3L151.4,61.3z M150.2,58.3c-0.1-0.3-0.3-0.5-0.6-0.5c-0.2,0-0.3,0.1-0.4,0.2
				c-0.1,0.1-0.2,0.2-0.2,0.4v2L150.2,58.3L150.2,58.3z M150.2,61.3v-2l-1.2,2.1c0.1,0.3,0.3,0.5,0.6,0.5c0.2,0,0.3-0.1,0.4-0.2
				C150.1,61.6,150.2,61.4,150.2,61.3z"/>
		</g>
		<g>
			<polygon class="st0" points="165.5,49.9 170.1,47.2 174.7,49.9 174.7,55.2 170.1,57.9 165.5,55.2 			"/>
			<path class="st1" d="M171.9,54c0,0.3-0.1,0.6-0.3,0.8c-0.2,0.2-0.5,0.3-0.8,0.3h-1.2c-0.3,0-0.6-0.1-0.8-0.3
				c-0.2-0.2-0.3-0.5-0.3-0.8v-2.9c0-0.3,0.1-0.6,0.3-0.8c0.2-0.2,0.5-0.3,0.8-0.3h1.2c0.3,0,0.6,0.1,0.8,0.3
				c0.2,0.2,0.3,0.5,0.3,0.8V54L171.9,54z M170.7,51c-0.1-0.3-0.3-0.5-0.6-0.5c-0.2,0-0.3,0.1-0.4,0.2c-0.1,0.1-0.2,0.3-0.2,0.4v2
				L170.7,51L170.7,51z M170.7,54v-2l-1.1,2.1c0.1,0.3,0.2,0.5,0.6,0.5c0.2,0,0.3-0.1,0.4-0.2C170.6,54.3,170.7,54.2,170.7,54z"/>
		</g>
		<g>
			<polygon class="st0" points="138.6,88.5 143.3,85.8 147.9,88.5 147.9,93.8 143.3,96.5 138.6,93.8 			"/>
			<path class="st1" d="M145,92.6c0,0.3-0.1,0.6-0.3,0.8c-0.2,0.2-0.5,0.3-0.8,0.3h-1.2c-0.3,0-0.6-0.1-0.8-0.3
				c-0.2-0.2-0.3-0.5-0.3-0.8v-2.9c0-0.3,0.1-0.6,0.3-0.8c0.2-0.2,0.5-0.3,0.8-0.3h1.2c0.3,0,0.6,0.1,0.8,0.3
				c0.2,0.2,0.3,0.5,0.3,0.8V92.6L145,92.6z M143.8,89.6c-0.1-0.3-0.3-0.5-0.6-0.5c-0.2,0-0.3,0.1-0.4,0.2c-0.1,0.1-0.2,0.3-0.2,0.4
				v2L143.8,89.6L143.8,89.6z M143.8,92.6v-2l-1.1,2.1c0.1,0.3,0.3,0.5,0.6,0.5c0.2,0,0.3-0.1,0.4-0.2
				C143.8,92.9,143.8,92.8,143.8,92.6z"/>
		</g>
		<g>
			<polygon class="st0" points="110.6,85.5 115.3,82.9 119.9,85.5 119.9,90.9 115.3,93.5 110.6,90.9 			"/>
			<path class="st1" d="M117,89.6c0,0.3-0.1,0.6-0.3,0.8c-0.2,0.2-0.5,0.3-0.8,0.3h-1.2c-0.3,0-0.6-0.1-0.8-0.3
				c-0.2-0.2-0.3-0.5-0.3-0.8v-2.9c0-0.3,0.1-0.6,0.3-0.8c0.2-0.2,0.5-0.3,0.8-0.3h1.2c0.3,0,0.6,0.1,0.8,0.3
				c0.2,0.2,0.3,0.5,0.3,0.8V89.6L117,89.6z M115.8,86.6c-0.1-0.3-0.3-0.5-0.6-0.5c-0.2,0-0.3,0.1-0.4,0.2c-0.1,0.1-0.2,0.3-0.2,0.4
				v2L115.8,86.6L115.8,86.6z M115.9,89.6v-2l-1.1,2.1c0.1,0.3,0.2,0.5,0.6,0.5c0.2,0,0.3-0.1,0.4-0.2
				C115.8,89.9,115.9,89.8,115.9,89.6z"/>
		</g>
		<g>
			<polygon class="st0" points="165.3,93.7 169.9,91 174.6,93.7 174.6,99 169.9,101.7 165.3,99 			"/>
			<path class="st1" d="M171.7,97.8c0,0.3-0.1,0.6-0.3,0.8c-0.2,0.2-0.5,0.3-0.8,0.3h-1.2c-0.3,0-0.6-0.1-0.8-0.3
				c-0.2-0.2-0.3-0.5-0.3-0.8v-2.9c0-0.3,0.1-0.6,0.3-0.8c0.2-0.2,0.5-0.3,0.8-0.3h1.2c0.3,0,0.6,0.1,0.8,0.3
				c0.2,0.2,0.3,0.5,0.3,0.8V97.8L171.7,97.8z M170.5,94.8c-0.1-0.3-0.3-0.5-0.6-0.5c-0.2,0-0.3,0.1-0.4,0.2
				c-0.1,0.1-0.2,0.3-0.2,0.4v2L170.5,94.8L170.5,94.8z M170.5,97.8v-2l-1.1,2.1c0.1,0.3,0.2,0.5,0.6,0.5c0.2,0,0.3-0.1,0.4-0.2
				C170.5,98.1,170.5,97.9,170.5,97.8z"/>
		</g>
		<g>
			<polygon class="st0" points="83.2,78.4 87.8,75.7 92.5,78.4 92.5,83.8 87.8,86.4 83.2,83.8 			"/>
			<path class="st1" d="M89.6,82.5c0,0.3-0.1,0.6-0.3,0.8c-0.2,0.2-0.5,0.3-0.8,0.3h-1.2c-0.3,0-0.6-0.1-0.8-0.3
				c-0.2-0.2-0.3-0.5-0.3-0.8v-2.9c0-0.3,0.1-0.6,0.3-0.8c0.2-0.2,0.5-0.3,0.8-0.3h1.2c0.3,0,0.6,0.1,0.8,0.3
				c0.2,0.2,0.3,0.5,0.3,0.8V82.5L89.6,82.5z M88.4,79.5c-0.1-0.3-0.3-0.5-0.6-0.5c-0.2,0-0.3,0.1-0.4,0.2c-0.1,0.1-0.2,0.3-0.2,0.4
				v2L88.4,79.5L88.4,79.5z M88.4,82.5v-2l-1.1,2.1c0.1,0.3,0.2,0.5,0.6,0.5c0.2,0,0.3-0.1,0.4-0.2C88.4,82.8,88.4,82.7,88.4,82.5z"
				/>
		</g>
		<g>
			<polygon class="st0" points="165.4,4.8 170,2.1 174.7,4.8 174.7,10.1 170,12.8 165.4,10.1 			"/>
			<polygon class="st1" points="170.5,10.1 169.3,10.1 169.3,6 168.8,6 168.8,5.5 169.9,4.9 170.5,4.9 			"/>
		</g>
		<g>
			<polygon class="st0" points="150.1,29.2 154.8,26.5 159.4,29.2 159.4,34.5 154.8,37.2 150.1,34.5 			"/>
			<polygon class="st1" points="155.2,34.5 154.1,34.5 154.1,30.4 153.5,30.4 153.5,29.9 154.6,29.3 155.2,29.3 			"/>
		</g>
		<g>
			<polygon class="st0" points="114.5,6.6 119.1,3.9 123.7,6.6 123.7,11.9 119.1,14.6 114.5,11.9 			"/>
			<polygon class="st1" points="119.6,11.9 118.4,11.9 118.4,7.8 117.8,7.8 117.8,7.2 119,6.6 119.6,6.6 			"/>
		</g>
		<g>
			<polygon class="st0" points="101.6,18.7 106.2,16.1 110.8,18.7 110.8,24.1 106.2,26.7 101.6,24.1 			"/>
			<polygon class="st1" points="106.7,24 105.5,24 105.5,20 104.9,20 104.9,19.4 106.1,18.8 106.7,18.8 			"/>
		</g>
		<g>
			<polygon class="st0" points="128.8,48.2 133.4,45.5 138.1,48.2 138.1,53.5 133.4,56.2 128.8,53.5 			"/>
			<polygon class="st1" points="133.9,53.5 132.7,53.5 132.7,49.4 132.1,49.4 132.1,48.8 133.3,48.2 133.9,48.2 			"/>
		</g>
		<g>
			<polygon class="st0" points="97,40.3 101.6,37.6 106.2,40.3 106.2,45.6 101.6,48.3 97,45.6 			"/>
			<polygon class="st1" points="102.1,45.6 100.9,45.6 100.9,41.5 100.3,41.5 100.3,40.9 101.5,40.3 102.1,40.3 			"/>
		</g>
		<g>
			<polygon class="st0" points="89.8,44.3 94.4,41.6 99,44.3 99,49.6 94.4,52.3 89.8,49.6 			"/>
			<polygon class="st1" points="94.8,49.6 93.7,49.6 93.7,45.5 93.1,45.5 93.1,44.9 94.3,44.3 94.8,44.3 			"/>
		</g>
		<g>
			<polygon class="st0" points="79.2,34.9 83.8,32.2 88.4,34.9 88.4,40.2 83.8,42.9 79.2,40.2 			"/>
			<polygon class="st1" points="84.2,40.2 83.1,40.2 83.1,36.1 82.5,36.1 82.5,35.5 83.7,35 84.2,35 			"/>
		</g>
		<g>
			<polygon class="st0" points="113.9,69.2 118.5,66.6 123.1,69.2 123.1,74.6 118.5,77.2 113.9,74.6 			"/>
			<polygon class="st1" points="119,74.5 117.8,74.5 117.8,70.5 117.2,70.5 117.2,69.9 118.4,69.3 119,69.3 			"/>
		</g>
		<g>
			<polygon class="st0" points="142,75.2 146.6,72.6 151.2,75.2 151.2,80.6 146.6,83.2 142,80.6 			"/>
			<polygon class="st1" points="147,80.5 145.9,80.5 145.9,76.4 145.3,76.4 145.3,75.9 146.5,75.3 147,75.3 			"/>
		</g>
		<g>
			<polygon class="st0" points="162.9,71.9 167.5,69.2 172.1,71.9 172.1,77.2 167.5,79.9 162.9,77.2 			"/>
			<polygon class="st1" points="168,77.1 166.8,77.1 166.8,73.1 166.2,73.1 166.2,72.5 167.4,71.9 168,71.9 			"/>
		</g>
		<g>
			<polygon class="st0" points="132,93.8 136.6,91.1 141.2,93.8 141.2,99.1 136.6,101.8 132,99.1 			"/>
			<polygon class="st1" points="137,99.1 135.9,99.1 135.9,95 135.3,95 135.3,94.4 136.5,93.9 137,93.9 			"/>
		</g>
		<g>
			<polygon class="st0" points="124,91.5 128.6,88.9 133.2,91.5 133.2,96.9 128.6,99.6 124,96.9 			"/>
			<polygon class="st1" points="129,96.8 127.9,96.8 127.9,92.8 127.3,92.8 127.3,92.2 128.5,91.6 129,91.6 			"/>
		</g>
		<g>
			<polygon class="st0" points="92.5,87.5 97.1,84.8 101.7,87.5 101.7,92.8 97.1,95.5 92.5,92.8 			"/>
			<polygon class="st1" points="97.5,92.8 96.4,92.8 96.4,88.7 95.8,88.7 95.8,88.1 97,87.5 97.5,87.5 			"/>
		</g>
		<g>
			<polygon class="st0" points="71.7,86.6 76.3,83.9 80.9,86.6 80.9,91.9 76.3,94.6 71.7,91.9 			"/>
			<polygon class="st1" points="76.7,91.9 75.6,91.9 75.6,87.8 75,87.8 75,87.3 76.2,86.7 76.7,86.7 			"/>
		</g>
		<polygon class="st0" points="144.2,76.6 148.9,73.9 153.5,76.6 153.5,81.9 148.9,84.6 144.2,81.9 		"/>
		<path class="st1" d="M73.4,107.8c0.1-0.3,0.3-0.5,0.4-0.7c0.2-0.2,0.4-0.2,0.7-0.2c0.4,0,0.7,0.1,0.9,0.4c0.2,0.2,0.3,0.7,0.3,1.3
			v1.9c0,0.5-0.1,0.8-0.3,1c-0.2,0.2-0.5,0.3-0.9,0.3c-0.3,0-0.5-0.1-0.7-0.2c-0.2-0.1-0.4-0.4-0.6-0.7c-0.3-0.5-0.7-0.9-1.2-1.1
			c-0.5-0.2-1.1-0.4-1.8-0.4c-0.9,0-1.6,0.3-2.2,0.9c-0.6,0.6-0.9,1.3-0.9,2.2c0,0.9,0.3,1.7,0.9,2.3c0.6,0.6,1.4,0.9,2.4,0.9
			c0.9,0,1.8-0.2,2.7-0.7c0.9-0.5,1.4-0.7,1.6-0.7c0.3,0,0.5,0.1,0.7,0.3c0.2,0.2,0.3,0.5,0.3,0.8c0,0.7-0.5,1.4-1.6,1.9
			c-1.1,0.6-2.4,0.8-3.9,0.8c-1.8,0-3.3-0.5-4.5-1.5c-1.2-1-1.7-2.4-1.7-4c0-1.6,0.6-2.9,1.7-4c1.1-1.1,2.6-1.6,4.3-1.6
			c0.6,0,1.2,0.1,1.7,0.2C72.3,107.3,72.8,107.5,73.4,107.8L73.4,107.8z M83.5,115.2h2.7c0.5,0,0.9,0.1,1.1,0.3
			c0.2,0.2,0.3,0.5,0.3,0.9c0,0.4-0.1,0.8-0.3,1c-0.2,0.2-0.6,0.3-1.1,0.3h-6.4c-0.5,0-0.9-0.1-1.1-0.3c-0.2-0.2-0.3-0.5-0.3-1
			c0-0.4,0.1-0.8,0.3-0.9c0.2-0.2,0.6-0.3,1.1-0.3h0.9v-5.5h-0.5c-0.5,0-0.9-0.1-1.1-0.3c-0.2-0.2-0.3-0.5-0.3-1
			c0-0.4,0.1-0.8,0.3-1c0.2-0.2,0.6-0.3,1.1-0.3h2.4c0.2,0,0.4,0,0.5,0.1c0.1,0.1,0.2,0.2,0.2,0.4v1.7c0.8-0.9,1.6-1.5,2.3-1.9
			c0.7-0.4,1.5-0.6,2.3-0.6c0.7,0,1.3,0.2,1.8,0.5c0.4,0.3,0.7,0.8,0.7,1.4c0,0.4-0.2,0.8-0.5,1.1c-0.3,0.3-0.7,0.4-1.2,0.4
			c-0.3,0-0.7-0.1-1.2-0.4c-0.5-0.2-0.8-0.4-1-0.4c-0.4,0-0.8,0.2-1.3,0.5c-0.5,0.3-1.1,0.8-1.8,1.5V115.2L83.5,115.2z M98.1,115.6
			c0.9,0,1.6-0.3,2.2-0.9c0.6-0.6,0.9-1.4,0.9-2.3c0-0.9-0.3-1.7-0.8-2.2c-0.6-0.6-1.3-0.9-2.2-0.9c-0.9,0-1.6,0.3-2.2,0.9
			c-0.6,0.6-0.9,1.3-0.9,2.2c0,0.9,0.3,1.7,0.9,2.3C96.5,115.3,97.2,115.6,98.1,115.6L98.1,115.6z M104.3,112.5c0,1.6-0.6,3-1.7,4
			c-1.1,1-2.6,1.5-4.5,1.5c-1.8,0-3.3-0.5-4.5-1.6c-1.2-1-1.7-2.4-1.7-4c0-1.6,0.6-2.9,1.7-4c1.2-1,2.7-1.6,4.5-1.6
			c1.8,0,3.3,0.5,4.5,1.6C103.7,109.5,104.3,110.9,104.3,112.5L104.3,112.5z M110,112.3c0,0.9,0.2,1.6,0.7,2.1
			c0.5,0.6,1.1,0.8,1.9,0.8c0.7,0,1.4-0.3,1.9-0.8c0.5-0.6,0.7-1.3,0.7-2.1c0-0.9-0.2-1.6-0.7-2.1c-0.5-0.6-1.1-0.8-1.9-0.8
			c-0.8,0-1.4,0.3-1.9,0.8C110.3,110.7,110,111.5,110,112.3L110,112.3z M111.4,119.8c0.5,0,0.9,0.1,1.1,0.3c0.2,0.2,0.3,0.5,0.3,1
			c0,0.4-0.1,0.8-0.3,0.9c-0.2,0.2-0.6,0.3-1.1,0.3h-4.8c-0.5,0-0.9-0.1-1.1-0.3c-0.2-0.2-0.3-0.5-0.3-0.9c0-0.4,0.1-0.8,0.3-1
			c0.2-0.2,0.6-0.3,1.1-0.3h0.7v-10.1h-0.2c-0.4,0-0.7-0.1-0.9-0.3c-0.2-0.2-0.3-0.5-0.3-0.9c0-0.4,0.1-0.8,0.3-1
			c0.2-0.2,0.6-0.3,1.1-0.3h1.8c0.2,0,0.4,0,0.5,0.1c0.1,0.1,0.2,0.2,0.2,0.3v0.8c0.4-0.5,0.9-0.9,1.4-1.2c0.5-0.3,1.2-0.4,1.9-0.4
			c1.6,0,2.8,0.5,3.9,1.5c1,1,1.5,2.3,1.5,3.8c0,1.6-0.5,2.9-1.5,3.9c-1,1-2.2,1.6-3.8,1.6c-0.6,0-1.2-0.1-1.7-0.3
			c-0.5-0.2-1-0.4-1.4-0.8v3.1H111.4L111.4,119.8z M125.7,115.6c0.8,0,1.4-0.3,1.9-0.8c0.5-0.6,0.7-1.3,0.7-2.1
			c0-0.9-0.2-1.6-0.7-2.1c-0.5-0.6-1.1-0.8-1.9-0.8c-0.7,0-1.4,0.3-1.9,0.8c-0.5,0.6-0.7,1.3-0.7,2.1c0,0.9,0.2,1.6,0.7,2.1
			C124.4,115.3,125,115.6,125.7,115.6L125.7,115.6z M126.8,105.3c-0.5,0-0.9-0.1-1.1-0.3c-0.2-0.2-0.3-0.5-0.3-1
			c0-0.5,0.1-0.8,0.3-1c0.2-0.2,0.6-0.3,1.1-0.3h3.5c0.3,0,0.4,0.1,0.5,0.2c0.1,0.1,0.1,0.3,0.1,0.6v11.7h0.2c0.4,0,0.7,0.1,0.9,0.3
			c0.2,0.2,0.3,0.5,0.3,0.9c0,0.4-0.1,0.8-0.3,1c-0.2,0.2-0.6,0.3-1.1,0.3h-1.7c-0.2,0-0.4,0-0.5-0.1c-0.1-0.1-0.2-0.2-0.2-0.4v-0.8
			c-0.4,0.5-0.9,0.9-1.4,1.2c-0.6,0.3-1.2,0.4-2,0.4c-1.5,0-2.7-0.5-3.7-1.5c-1-1-1.5-2.3-1.5-3.8c0-1.6,0.5-2.9,1.5-3.9
			c1-1.1,2.3-1.6,3.7-1.6c0.6,0,1.2,0.1,1.7,0.3c0.5,0.2,1,0.4,1.4,0.8v-2.9H126.8L126.8,105.3z M142.2,114.8V113
			c-0.4-0.1-0.7-0.1-1-0.2c-0.3,0-0.6-0.1-0.9-0.1c-0.9,0-1.5,0.1-2,0.4c-0.5,0.3-0.7,0.7-0.7,1.2c0,0.4,0.2,0.7,0.5,0.9
			c0.3,0.2,0.7,0.3,1.3,0.3c0.5,0,1-0.1,1.5-0.2C141.3,115.4,141.7,115.1,142.2,114.8L142.2,114.8z M144.9,111v4.2h0.2
			c0.4,0,0.7,0.1,0.9,0.3c0.2,0.2,0.3,0.5,0.3,0.9c0,0.4-0.1,0.8-0.3,1c-0.2,0.2-0.6,0.3-1.1,0.3h-1.1c-0.4,0-0.7-0.1-0.9-0.2
			c-0.2-0.2-0.3-0.4-0.5-0.8c-0.6,0.4-1.3,0.7-2,1c-0.7,0.2-1.4,0.3-2.1,0.3c-1.2,0-2.2-0.3-2.9-0.9c-0.7-0.6-1-1.4-1-2.5
			c0-1.1,0.5-2,1.4-2.7c0.9-0.6,2.2-0.9,3.8-0.9c0.4,0,0.8,0,1.3,0.1c0.4,0,0.9,0.1,1.3,0.2V111c0-0.7-0.2-1.2-0.5-1.6
			c-0.3-0.4-0.8-0.5-1.5-0.5c-0.5,0-1.2,0.2-1.9,0.6c-0.8,0.4-1.3,0.6-1.7,0.6c-0.4,0-0.7-0.1-0.9-0.3c-0.2-0.2-0.3-0.5-0.3-0.8
			c0-0.6,0.5-1.1,1.3-1.5c0.9-0.4,2.1-0.5,3.7-0.5c1.6,0,2.8,0.3,3.5,0.9C144.6,108.5,144.9,109.5,144.9,111L144.9,111z
			 M149.7,110.3c-0.5,0-0.9-0.1-1.1-0.3c-0.2-0.2-0.3-0.5-0.3-1c0-0.4,0.1-0.8,0.3-1c0.2-0.2,0.6-0.3,1.1-0.3h1.1v-3.1
			c0-0.3,0.1-0.5,0.4-0.7c0.3-0.2,0.6-0.3,1-0.3c0.5,0,0.9,0.1,1.1,0.3c0.2,0.2,0.3,0.6,0.3,1.1v2.7h3.5c0.5,0,0.9,0.1,1.1,0.3
			c0.2,0.2,0.3,0.5,0.3,1c0,0.4-0.1,0.8-0.3,1c-0.2,0.2-0.6,0.3-1.1,0.3h-3.5v2.9c0,0.8,0.1,1.4,0.4,1.7c0.3,0.3,0.7,0.5,1.3,0.5
			c0.6,0,1.3-0.2,2.1-0.5c0.8-0.3,1.4-0.5,1.6-0.5c0.3,0,0.6,0.1,0.8,0.4c0.2,0.3,0.3,0.6,0.3,0.9c0,0.5-0.5,1.1-1.6,1.5
			c-1.1,0.5-2.3,0.7-3.6,0.7c-0.8,0-1.5-0.1-2.1-0.3c-0.6-0.2-1.1-0.5-1.4-0.9c-0.3-0.3-0.4-0.7-0.5-1.1c-0.1-0.4-0.2-1.1-0.2-2.1
			v-0.2v-2.9H149.7L149.7,110.3z M170.3,114.8V113c-0.4-0.1-0.7-0.1-1.1-0.2c-0.3,0-0.6-0.1-0.9-0.1c-0.9,0-1.5,0.1-2,0.4
			c-0.5,0.3-0.7,0.7-0.7,1.2c0,0.4,0.2,0.7,0.5,0.9c0.3,0.2,0.7,0.3,1.3,0.3c0.5,0,1-0.1,1.5-0.2
			C169.4,115.4,169.8,115.1,170.3,114.8L170.3,114.8z M173,111v4.2h0.2c0.4,0,0.7,0.1,0.9,0.3c0.2,0.2,0.3,0.5,0.3,0.9
			c0,0.4-0.1,0.8-0.3,1c-0.2,0.2-0.6,0.3-1.1,0.3H172c-0.4,0-0.7-0.1-0.9-0.2c-0.2-0.2-0.3-0.4-0.5-0.8c-0.6,0.4-1.3,0.7-2,1
			c-0.7,0.2-1.4,0.3-2.1,0.3c-1.2,0-2.2-0.3-2.9-0.9c-0.7-0.6-1-1.4-1-2.5c0-1.1,0.5-2,1.4-2.7c0.9-0.6,2.2-0.9,3.8-0.9
			c0.4,0,0.8,0,1.3,0.1c0.4,0,0.9,0.1,1.3,0.2V111c0-0.7-0.2-1.2-0.5-1.6c-0.3-0.4-0.8-0.5-1.5-0.5c-0.5,0-1.1,0.2-1.9,0.6
			c-0.8,0.4-1.3,0.6-1.7,0.6c-0.4,0-0.7-0.1-0.9-0.3c-0.2-0.2-0.3-0.5-0.3-0.8c0-0.6,0.5-1.1,1.3-1.5c0.9-0.4,2.1-0.5,3.7-0.5
			c1.6,0,2.8,0.3,3.5,0.9C172.7,108.5,173,109.5,173,111z"/>
		<g>
			<polygon class="st0" points="113.9,29.2 118.5,26.6 123.1,29.2 123.1,34.6 118.5,37.2 113.9,34.6 			"/>
			<path class="st1" d="M120.1,31.1c0,0.3-0.1,0.6-0.3,0.8c-0.2,0.2-0.5,0.3-0.8,0.3H118v2.2h-1.1v-4.9h2.2c0.3,0,0.5,0.1,0.8,0.3
				c0.2,0.2,0.3,0.5,0.3,0.8V31.1L120.1,31.1z M119.1,31.1v-0.5c0-0.1-0.1-0.3-0.2-0.4c-0.1-0.1-0.2-0.2-0.4-0.2H118v1.6h0.5
				c0.2,0,0.3-0.1,0.4-0.2C119,31.4,119.1,31.2,119.1,31.1z"/>
		</g>
		<g>
			<polygon class="st0" points="127.5,36 132.1,33.4 136.7,36 136.7,41.4 132.1,44 127.5,41.4 			"/>
			<polygon class="st1" points="134,41.1 132.9,41.1 131.3,39.2 131.3,41.1 130.2,41.1 130.2,36.3 131.3,36.3 131.3,38.2 133,36.3 
				134,36.3 131.8,38.7 			"/>
		</g>
		<g>
			<polygon class="st0" points="119.9,45.4 124.5,42.8 129.1,45.4 129.1,50.8 124.5,53.4 119.9,50.8 			"/>
			<path class="st2" d="M122.1,47.4L122.1,47.4l0.1,0.1c0.2-0.1,0.6-0.5,0.9-0.5c0.4,0,0.5,0.2,0.7,0.2v0.1c-0.4,0-0.9,0.2-0.9,0.6
				v0.2c0,0.4,0.5,0.6,0.9,0.6c-0.3,0.2-0.5,0.2-0.8,0.3l-0.9-0.5l-0.1,0v0.1l0.2,0c0.1,0.3,0.5,0.5,1,0.5h0c0.3,0,1-0.4,1-0.4h0.2
				c0.3,0-0.1,0.3-0.1,0.5c-0.4,0.1,0,0.4-1.2,0.4l-0.1,0.1l0.1-0.1c0.1,0.1,0.1,0.1,0.2,0.1h0.4c0.4,0,0.8-0.8,1-1.1l0.3,0
				c0,0.2-0.1,0.2-0.1,0.3c0,0.2,0.4,0.6,0.7,0.6l0.2,0c0.1,0,0.1,0,0.3,0v0.2l0.1,0l-0.1-0.2c-0.4,0-0.9-0.1-0.9-0.4V49
				c0-0.1,0.1-0.4,0.2-0.4h0.1v0.1h0.1c0,0.2-0.1,0.1-0.1,0.2V49c0,0.1,0.3,0.4,0.5,0.4h0.1c0.3,0,0.5-0.3,0.6-0.5l0.1,0.1l0-0.1
				l-0.2-0.1c0,0.2-0.4,0.4-0.6,0.4c-0.2,0-0.3-0.1-0.4-0.2c0-0.1,0-0.3,0-0.5c0-0.2-0.1-0.1-0.1-0.3c0.1,0,0.2,0.1,0.3,0.1
				c0.1,0,0.3-0.1,0.4-0.1c0-0.1,0-0.1,0-0.1c0-0.1,0-0.1,0-0.2c-0.1,0-0.3-0.1-0.4-0.1c-0.1,0-0.2,0-0.3,0.1c0-0.2,0.1-0.1,0.1-0.3
				c0-0.1,0-0.4,0-0.5c0.1,0,0.2-0.2,0.3-0.2c0.3,0,0.5,0.3,0.7,0.5l0.1-0.1c-0.3,0.1-0.1-0.1-0.3-0.3c-0.1-0.1-0.4-0.2-0.5-0.2h0
				c-0.2,0-0.4,0.3-0.4,0.4v0.1c0,0.1,0,0,0.1,0.2h-0.1v0.1h-0.1c-0.1,0-0.2-0.3-0.2-0.4V47c0-0.3,0.6-0.4,1-0.4l0.1-0.2h-0.1v0.2
				l-0.3,0h-0.2c-0.2,0-0.6,0.4-0.6,0.6c0,0.2,0.1,0.2,0.1,0.3l-0.3,0c-0.2-0.3-0.5-1.1-1.1-1.1h-0.3c-0.1,0-0.2,0-0.2,0.1l-0.2-0.1
				l0.1,0.1c0.5,0,0.7,0,1,0.2c0.1,0.1,0.6,0.6,0.3,0.7h-0.2c-0.1,0-0.7-0.4-1-0.4h0c-0.5,0-0.8,0.3-1,0.6L122.1,47.4z"/>
		</g>
		<g>
			<polygon class="st0" points="86.5,65.6 91.1,63 95.7,65.6 95.7,71 91.1,73.6 86.5,71 			"/>
			<path class="st2" d="M92.5,67.5c0,0-0.1-0.8-0.3-1c-0.3-0.2-0.7-0.4-1-0.4c-0.3,0-0.9,0.1-1.2,0.5c-0.3,0.4-0.3,0.7-0.2,1
				c0.1,0.3,0.3,0.5,0.3,0.5l-0.5,0l0,0.5l0.7,0c0,0,0.2,0.2,0.1,0.4c0,0.3-0.4,0.8-0.7,0.9c0.1,0.2,0.3,0.5,0.3,0.5
				s0.5-0.2,0.7-0.2c0.2,0,0.4,0,1.1,0.2c0.7,0.2,0.9-0.3,0.9-0.3l-0.3-0.7c0,0-0.2,0.2-0.4,0.2c-0.2,0-0.6-0.1-0.8-0.2
				c-0.2,0-0.3,0-0.3,0s0,0,0.2-0.3c0.1-0.3,0-0.6,0-0.6h0.7l0-0.5l-0.8,0c0,0-0.3-0.6-0.3-0.8c0-0.2,0.3-0.4,0.5-0.5
				c0.2-0.1,0.6,0,0.7,0.2c0.1,0.2,0.1,0.4,0.1,0.4L92.5,67.5z"/>
		</g>
		<path class="st2" d="M70.3,30.7l-2.2-0.1c0,0,0,0.1-0.1,0.3l-2-0.2c0,0-3.2,14.8-7.9,42.4c-4.7,27.5-3.6,55.7-3.6,55.7l1.7,0.4
			c0,0.1,0,0.1,0,0.2l1.5,0.1l0,0v0l1.4,0.1c0,0-0.2-31.1,3.5-55.3C66.2,50,70.3,30.7,70.3,30.7z"/>
		<g>
			<path class="st2" d="M53.2,113.6c-3-5.9-5.8-4.6-7.7-7.4c-1.8-2.8-1.9-8.8-6-12.2c-0.5-0.4-1.1-0.8-1.5-1.1
				c-2.1-1.5-3-1.6-5.4-3.2c-0.8-0.7-1.6-1.8-2.4-3.3c-3.1-5.6-6.4-1.2-9.5-0.5c-3.2,0.8-17,21-17,21s0.1-0.1,0.2-0.2c0,0,0,0,0,0
				c-0.6,0.6-1.1,1.1-1.4,1.5c0.7-0.7,1.3-1.3,2-1.9c4.9-3.2,10.4-5.8,15.3-7.2c3-1.1,10.1-2.6,12.8-2.5c0,0,0,0,0,0
				c1.3,0.5,2.5,1.4,3.4,2.7c5.9,8.6,15,21.8,18.7,29.6c0.8,1.8,4,1.3,4.5,0.8C59.1,129.6,56.2,119.5,53.2,113.6z"/>
		</g>
		<g>
			<g>
				<path class="st2" d="M81.9,45.1c0.2-1.2-0.6-2.3-1.7-2.5c0,0,0,0,0,0c0.1-0.2,0.2-0.4,0.2-0.6c0.2-1.2-0.6-2.3-1.7-2.5
					c-0.2,0-0.4,0-0.7,0c0,0,0-0.1,0-0.1c0.2-1.1-0.4-2-1.4-2.4c0.9-0.1,1.6-0.9,1.8-1.8c0.1-0.9-0.3-1.8-1-2.2
					c0.4-0.3,0.7-0.8,0.8-1.4c0.2-1.2-0.6-2.3-1.8-2.5c-0.8-0.1-1.6,0.2-2,0.9c0-0.2,0.1-0.4,0.1-0.6c0.6-0.1,1.2-0.5,1.5-1.1
					c0.1-0.2,0.2-0.4,0.2-0.7c0.6-0.3,1.1-0.9,1.2-1.6c0.5-0.2,0.9-0.5,1.2-1c0.1-0.2,0.1-0.3,0.2-0.5c1.1,0,2-0.7,2.2-1.9
					c0.2-1.2-0.6-2.3-1.7-2.5c-0.1,0-0.2,0-0.3,0c0.3-0.3,0.5-0.7,0.6-1.2c0.2-1.2-0.6-2.3-1.7-2.5c-0.2,0-0.3,0-0.5,0
					c0-0.1,0-0.2-0.1-0.2c0.1-0.1,0.1-0.3,0.1-0.4c0.1-0.7-0.1-1.4-0.6-1.8c0,0,0-0.1,0-0.1c0.7-0.3,1.3-0.9,1.4-1.7
					c0.2-1.2-0.6-2.3-1.8-2.5c-0.6-0.1-1.2,0.1-1.6,0.4c0,0,0,0-0.1-0.1c0.5-0.3,0.9-0.9,1-1.5C76,7.1,75.2,6,74.1,5.8
					c-0.1,0-0.2,0-0.3,0c0-0.1,0-0.2,0.1-0.2c0.2-1.2-0.6-2.3-1.7-2.5c-0.2-0.2-0.4-0.4-0.6-0.5c-0.9-0.5-2-0.2-2.7,0.6
					C68.6,3,68.3,2.8,68,2.8c-1.2-0.2-2.2,0.6-2.4,1.8c-0.1,0.3,0,0.7,0.1,1c-0.2-0.1-0.4-0.2-0.6-0.2c-1.1-0.2-2.2,0.6-2.4,1.8
					c-0.1,1,0.3,1.9,1.1,2.3c-0.7,0-1.4,0.3-1.8,0.9c-0.1,0-0.2-0.1-0.3-0.1c-1.2-0.2-2.2,0.6-2.4,1.8c-0.1,0.3,0,0.7,0.1,1
					c-0.2-0.1-0.4-0.2-0.6-0.2c-1.2-0.2-2.2,0.6-2.4,1.8c-0.2,1,0.3,1.9,1.1,2.3c-1.1-0.1-2,0.7-2.2,1.9c-0.2,1.2,0.6,2.2,1.7,2.5
					c-0.2,0.3-0.3,0.6-0.4,0.9c-0.1,0.7,0.1,1.3,0.5,1.7c-0.1,0.1-0.1,0.3-0.1,0.4c-0.1,0.3,0,0.7,0.1,1c-0.2-0.1-0.4-0.2-0.6-0.2
					c-1.1-0.2-2.2,0.6-2.4,1.8c-0.1,0.8,0.2,1.6,0.8,2.1c0,0.1,0,0.1,0,0.2c-0.4,0.1-0.8,0.2-1.1,0.5c-0.9,0.1-1.7,0.8-1.9,1.8
					c-0.1,1,0.3,1.9,1.1,2.3c-0.7,0-1.4,0.3-1.8,0.9c-0.1,0-0.2-0.1-0.3-0.1c-1.2-0.2-2.2,0.6-2.4,1.8c-0.1,0.3,0,0.7,0.1,1
					c-0.2-0.1-0.4-0.2-0.6-0.2c-1.2-0.2-2.2,0.6-2.4,1.8c-0.2,1,0.3,1.9,1.1,2.3c-1.1,0-2,0.7-2.2,1.9c-0.2,1.2,0.6,2.2,1.6,2.5
					c-0.2,0.3-0.3,0.6-0.4,0.9c-0.1,0.7,0.1,1.3,0.5,1.8c0,0.1-0.1,0.3-0.1,0.4c-0.1,0.3,0,0.7,0.1,1c-0.2-0.1-0.4-0.2-0.6-0.2
					c-1.1-0.2-2.2,0.6-2.4,1.8c-0.2,1,0.3,1.9,1.1,2.3c-1.1,0-2,0.7-2.2,1.9c-0.2,1.2,0.6,2.2,1.6,2.5c-0.2,0.3-0.3,0.6-0.4,0.9
					c-0.1,0.4,0,0.8,0.1,1.1c0,0-0.1,0-0.1,0c-1.1-0.2-2.2,0.6-2.4,1.8c-0.1,1,0.3,1.9,1.1,2.3c-1.1,0-2,0.7-2.2,1.9
					c-0.2,1.2,0.6,2.2,1.6,2.5c-0.2,0.3-0.3,0.6-0.4,0.9c-0.2,1.2,0.6,2.3,1.7,2.5c0.7,0.1,1.3-0.1,1.8-0.6c0,0.1,0.1,0.1,0.1,0.2
					c-0.2,0.3-0.4,0.6-0.4,1c-0.2,1.2,0.6,2.2,1.7,2.5c-0.2,0.3-0.3,0.6-0.4,0.9c-0.2,1.2,0.6,2.3,1.7,2.5c0.5,0.1,0.9,0,1.3-0.2
					c0.3,0.3,0.6,0.4,1,0.5c-0.2,0.3-0.3,0.6-0.4,0.9c-0.2,1.2,0.6,2.3,1.7,2.5c0.6,0.1,1.3-0.1,1.7-0.5c0,0,0.1,0.1,0.1,0.1
					c-0.2,0.3-0.3,0.6-0.4,1c-0.2,1.2,0.6,2.2,1.6,2.5c-0.2,0.3-0.3,0.6-0.4,0.9c-0.2,1.2,0.6,2.3,1.8,2.5c0.7,0.1,1.3-0.1,1.8-0.6
					c0.3,0.6,0.9,1.1,1.6,1.2c0,0,0,0,0,0c0.2,0.8,0.9,1.4,1.7,1.5c1.1,0.2,2-0.5,2.3-1.6c0.9-0.1,1.7-0.9,1.8-1.8
					c0-0.3,0-0.5,0-0.8c1.1,0.1,2.1-0.7,2.3-1.8c0-0.3,0-0.6,0-0.9c0.8,0,1.6-0.4,2-1.2c0.1-0.1,0.1-0.3,0.2-0.4
					c1,0.1,1.9-0.6,2.2-1.5c0-0.1,0-0.2,0.1-0.2c0,0,0,0,0-0.1c0,0,0,0,0,0c0-0.2,0-0.4,0-0.5c0.1-0.1,0.2-0.2,0.3-0.3
					c0.2,0.1,0.3,0.1,0.5,0.1c1.1,0.2,2.2-0.6,2.4-1.8c0-0.2,0-0.4,0-0.6c0.2,0.2,0.5,0.3,0.8,0.3c1.1,0.2,2.2-0.6,2.4-1.8
					c0.1-0.5,0-1-0.3-1.4c0.8-0.2,1.4-0.9,1.6-1.8c0.2-1.1-0.5-2.1-1.5-2.4c0,0,0-0.1,0.1-0.1c1.1,0.1,2.1-0.7,2.2-1.9
					c0.2-1.2-0.6-2.3-1.7-2.5c0,0,0,0-0.1,0c0-0.1,0.1-0.2,0.1-0.3c0.1-0.4,0-0.8-0.1-1.1c0.1-0.1,0.2-0.2,0.2-0.3
					c0-0.1,0.1-0.1,0.1-0.2c0.9-0.1,1.7-0.8,1.8-1.8c0.1-0.8-0.2-1.5-0.7-2c0-0.2,0-0.3,0-0.5c0.6-0.3,1-0.9,1.1-1.6
					c0.2-1.2-0.6-2.3-1.7-2.5c-0.2,0-0.5,0-0.7,0c0-0.1,0-0.1-0.1-0.2c0-0.3-0.1-0.5-0.2-0.8c0.9-0.2,1.6-0.9,1.7-1.8
					c0.1-1-0.3-1.9-1.1-2.3c0,0,0.1-0.1,0.1-0.1c0.3,0.2,0.5,0.3,0.9,0.4c1.2,0.2,2.2-0.6,2.4-1.8c0.1-0.7-0.1-1.4-0.6-1.9
					C81.5,46.2,81.8,45.7,81.9,45.1z M48.5,44.8c0,0,0,0.1,0,0.1c-0.1,0-0.1-0.1-0.2-0.1C48.4,44.9,48.5,44.8,48.5,44.8z M59.4,20.4
					c0,0,0,0.1,0,0.1c-0.1,0-0.1-0.1-0.2-0.1C59.3,20.5,59.4,20.4,59.4,20.4z M46,57.1C46,57.1,45.9,57.1,46,57.1
					C45.9,57.1,46,57.1,46,57.1C46,57.1,46,57.1,46,57.1z M44.9,61.6C44.9,61.6,44.9,61.6,44.9,61.6C44.8,61.6,44.8,61.5,44.9,61.6
					C44.9,61.5,44.9,61.6,44.9,61.6z M66.7,7C66.7,6.9,66.7,6.9,66.7,7C66.7,6.9,66.7,6.9,66.7,7C66.7,6.9,66.7,6.9,66.7,7z
					 M60.4,14.5C60.3,14.4,60.3,14.4,60.4,14.5C60.4,14.4,60.4,14.4,60.4,14.5C60.4,14.4,60.4,14.4,60.4,14.5z M58,26.7
					C58,26.7,57.9,26.7,58,26.7C58,26.7,58,26.7,58,26.7C58,26.7,58,26.7,58,26.7z M49.4,38.9C49.4,38.8,49.4,38.8,49.4,38.9
					C49.4,38.8,49.5,38.8,49.4,38.9C49.5,38.8,49.5,38.8,49.4,38.9z M47.1,51.1C47,51.1,47,51.1,47.1,51.1
					C47.1,51.1,47.1,51.1,47.1,51.1C47.1,51.1,47.1,51.1,47.1,51.1z M43.9,67.6c0,0,0,0.1,0,0.1c-0.1,0-0.1-0.1-0.2-0.1
					C43.8,67.6,43.9,67.6,43.9,67.6z"/>
			</g>
		</g>
	</g>
	<g>
		<path class="st1" d="M69.6,129.9l1.6,0.5c-0.2,0.9-0.7,1.6-1.2,2c-0.6,0.4-1.3,0.7-2.2,0.7c-1.1,0-2-0.4-2.7-1.1
			c-0.7-0.7-1.1-1.8-1.1-3c0-1.4,0.4-2.4,1.1-3.2c0.7-0.8,1.6-1.1,2.8-1.1c1,0,1.8,0.3,2.4,0.9c0.4,0.3,0.7,0.9,0.8,1.5l-1.6,0.4
			c-0.1-0.4-0.3-0.8-0.6-1s-0.7-0.4-1.1-0.4c-0.6,0-1.1,0.2-1.5,0.7c-0.4,0.4-0.6,1.1-0.6,2.1c0,1,0.2,1.8,0.6,2.2
			c0.4,0.4,0.9,0.7,1.5,0.7c0.4,0,0.8-0.1,1.1-0.4C69.2,130.9,69.4,130.5,69.6,129.9z"/>
		<path class="st1" d="M72.2,129.8c0-0.5,0.1-1,0.4-1.5c0.3-0.5,0.6-0.9,1.1-1.1c0.5-0.3,1-0.4,1.6-0.4c0.9,0,1.6,0.3,2.2,0.9
			c0.6,0.6,0.9,1.3,0.9,2.2c0,0.9-0.3,1.6-0.9,2.2c-0.6,0.6-1.3,0.9-2.2,0.9c-0.5,0-1.1-0.1-1.6-0.4c-0.5-0.2-0.9-0.6-1.1-1.1
			C72.3,131.1,72.2,130.5,72.2,129.8z M73.8,129.9c0,0.6,0.1,1,0.4,1.4c0.3,0.3,0.6,0.5,1,0.5s0.8-0.2,1-0.5
			c0.3-0.3,0.4-0.8,0.4-1.4c0-0.6-0.1-1-0.4-1.3c-0.3-0.3-0.6-0.5-1-0.5s-0.8,0.2-1,0.5C74,128.9,73.8,129.3,73.8,129.9z"/>
		<path class="st1" d="M85,132.9h-1.6v-3c0-0.6,0-1.1-0.1-1.2c-0.1-0.2-0.2-0.3-0.3-0.4c-0.2-0.1-0.3-0.2-0.5-0.2
			c-0.3,0-0.5,0.1-0.7,0.2c-0.2,0.1-0.4,0.3-0.4,0.6c-0.1,0.2-0.1,0.7-0.1,1.4v2.7h-1.6v-5.9H81v0.9c0.5-0.7,1.2-1,2-1
			c0.3,0,0.7,0.1,1,0.2c0.3,0.1,0.5,0.3,0.7,0.5c0.1,0.2,0.2,0.4,0.3,0.7c0.1,0.2,0.1,0.6,0.1,1.1V132.9z"/>
		<path class="st1" d="M92,132.9h-1.6v-3c0-0.6,0-1.1-0.1-1.2c-0.1-0.2-0.2-0.3-0.3-0.4c-0.2-0.1-0.3-0.2-0.5-0.2
			c-0.3,0-0.5,0.1-0.7,0.2c-0.2,0.1-0.4,0.3-0.4,0.6c-0.1,0.2-0.1,0.7-0.1,1.4v2.7h-1.6v-5.9H88v0.9c0.5-0.7,1.2-1,2-1
			c0.3,0,0.7,0.1,1,0.2c0.3,0.1,0.5,0.3,0.7,0.5c0.1,0.2,0.2,0.4,0.3,0.7c0.1,0.2,0.1,0.6,0.1,1.1V132.9z"/>
		<path class="st1" d="M97,131l1.6,0.3c-0.2,0.6-0.5,1-1,1.3c-0.4,0.3-1,0.4-1.6,0.4c-1,0-1.8-0.3-2.3-1c-0.4-0.5-0.6-1.2-0.6-2
			c0-1,0.3-1.8,0.8-2.3c0.5-0.6,1.2-0.8,1.9-0.8c0.9,0,1.6,0.3,2.1,0.9c0.5,0.6,0.8,1.5,0.7,2.7h-3.9c0,0.5,0.1,0.8,0.4,1.1
			c0.2,0.3,0.5,0.4,0.9,0.4c0.2,0,0.5-0.1,0.6-0.2C96.8,131.5,96.9,131.3,97,131z M97.1,129.4c0-0.5-0.1-0.8-0.4-1
			c-0.2-0.2-0.5-0.4-0.8-0.4c-0.3,0-0.6,0.1-0.8,0.4c-0.2,0.2-0.3,0.6-0.3,1H97.1z"/>
		<path class="st1" d="M105.1,128.7l-1.5,0.3c-0.1-0.3-0.2-0.5-0.4-0.7c-0.2-0.2-0.4-0.2-0.7-0.2c-0.4,0-0.7,0.1-0.9,0.4
			c-0.2,0.3-0.4,0.7-0.4,1.4c0,0.7,0.1,1.2,0.4,1.5c0.2,0.3,0.6,0.4,1,0.4c0.3,0,0.5-0.1,0.7-0.3c0.2-0.2,0.3-0.5,0.4-0.9l1.5,0.3
			c-0.2,0.7-0.5,1.2-0.9,1.6c-0.5,0.4-1.1,0.5-1.8,0.5c-0.9,0-1.6-0.3-2.1-0.8c-0.5-0.5-0.8-1.3-0.8-2.3c0-1,0.3-1.7,0.8-2.3
			c0.5-0.5,1.2-0.8,2.1-0.8c0.7,0,1.3,0.2,1.7,0.5C104.6,127.6,104.9,128.1,105.1,128.7z"/>
		<path class="st1" d="M109,126.9v1.3h-1.1v2.4c0,0.5,0,0.8,0,0.8c0,0.1,0.1,0.1,0.1,0.2c0.1,0.1,0.2,0.1,0.3,0.1
			c0.1,0,0.4,0,0.6-0.2l0.1,1.2c-0.4,0.2-0.8,0.2-1.2,0.2c-0.3,0-0.5,0-0.8-0.1c-0.2-0.1-0.4-0.2-0.5-0.4c-0.1-0.2-0.2-0.4-0.2-0.6
			c0-0.2-0.1-0.6-0.1-1.1v-2.6h-0.7v-1.3h0.7v-1.2l1.6-0.9v2.1H109z"/>
		<path class="st1" d="M110.1,126.1v-1.5h1.6v1.5H110.1z M110.1,132.9v-5.9h1.6v5.9H110.1z"/>
		<path class="st1" d="M118.7,132.9h-1.6v-3c0-0.6,0-1.1-0.1-1.2c-0.1-0.2-0.2-0.3-0.3-0.4c-0.2-0.1-0.3-0.2-0.5-0.2
			c-0.3,0-0.5,0.1-0.7,0.2c-0.2,0.1-0.4,0.3-0.4,0.6c-0.1,0.2-0.1,0.7-0.1,1.4v2.7h-1.6v-5.9h1.5v0.9c0.5-0.7,1.2-1,2-1
			c0.3,0,0.7,0.1,0.9,0.2c0.3,0.1,0.5,0.3,0.7,0.5c0.1,0.2,0.2,0.4,0.3,0.7c0.1,0.2,0.1,0.6,0.1,1.1V132.9z"/>
		<path class="st1" d="M120.1,133.3l1.8,0.2c0,0.2,0.1,0.4,0.2,0.4c0.1,0.1,0.4,0.2,0.7,0.2c0.4,0,0.7-0.1,0.9-0.2
			c0.1-0.1,0.2-0.2,0.3-0.4c0-0.1,0.1-0.4,0.1-0.7v-0.9c-0.5,0.6-1.1,1-1.8,1c-0.8,0-1.4-0.3-1.9-1c-0.4-0.5-0.5-1.2-0.5-2
			c0-1,0.2-1.8,0.7-2.3c0.5-0.5,1.1-0.8,1.8-0.8c0.7,0,1.3,0.3,1.8,1v-0.8h1.5v5.3c0,0.7-0.1,1.2-0.2,1.6c-0.1,0.3-0.3,0.6-0.5,0.8
			c-0.2,0.2-0.5,0.4-0.8,0.5c-0.3,0.1-0.8,0.2-1.3,0.2c-1,0-1.7-0.2-2.1-0.5c-0.4-0.3-0.6-0.8-0.6-1.3
			C120.1,133.4,120.1,133.3,120.1,133.3z M121.5,129.8c0,0.6,0.1,1.1,0.4,1.4c0.2,0.3,0.5,0.4,0.9,0.4c0.4,0,0.7-0.1,1-0.4
			c0.3-0.3,0.4-0.7,0.4-1.3c0-0.6-0.1-1.1-0.4-1.4c-0.3-0.3-0.6-0.4-1-0.4c-0.4,0-0.7,0.1-0.9,0.4
			C121.6,128.7,121.5,129.2,121.5,129.8z"/>
		<path class="st1" d="M130.4,132.9v-8.2h5.6v1.4h-4v1.9h3.4v1.4h-3.4v3.5H130.4z"/>
		<path class="st1" d="M138.6,128.8l-1.4-0.3c0.2-0.6,0.4-1,0.8-1.3c0.4-0.3,1-0.4,1.7-0.4c0.7,0,1.2,0.1,1.6,0.2
			c0.3,0.2,0.6,0.4,0.7,0.6c0.1,0.3,0.2,0.7,0.2,1.4l0,1.8c0,0.5,0,0.9,0.1,1.2c0.1,0.2,0.1,0.5,0.3,0.8H141c0-0.1-0.1-0.3-0.2-0.5
			c0-0.1,0-0.2-0.1-0.2c-0.3,0.3-0.6,0.5-0.9,0.6c-0.3,0.1-0.6,0.2-1,0.2c-0.6,0-1.1-0.2-1.4-0.5c-0.4-0.3-0.5-0.8-0.5-1.3
			c0-0.3,0.1-0.6,0.2-0.9c0.2-0.3,0.4-0.5,0.7-0.6c0.3-0.1,0.7-0.3,1.2-0.4c0.7-0.1,1.2-0.3,1.5-0.4v-0.2c0-0.3-0.1-0.5-0.2-0.6
			c-0.1-0.1-0.4-0.2-0.8-0.2c-0.3,0-0.5,0.1-0.7,0.2C138.8,128.3,138.7,128.5,138.6,128.8z M140.7,130c-0.2,0.1-0.5,0.1-1,0.2
			c-0.4,0.1-0.7,0.2-0.9,0.3c-0.2,0.1-0.3,0.3-0.3,0.6c0,0.2,0.1,0.4,0.2,0.6c0.2,0.2,0.4,0.2,0.6,0.2c0.3,0,0.6-0.1,0.8-0.3
			c0.2-0.1,0.3-0.3,0.4-0.5c0-0.1,0.1-0.4,0.1-0.8V130z"/>
		<path class="st1" d="M145.3,132.9h-1.6v-5.9h1.5v0.8c0.2-0.4,0.5-0.7,0.7-0.8c0.2-0.1,0.4-0.2,0.7-0.2c0.4,0,0.7,0.1,1,0.3
			l-0.5,1.4c-0.3-0.2-0.5-0.3-0.7-0.3c-0.2,0-0.4,0.1-0.6,0.2c-0.2,0.1-0.3,0.3-0.4,0.7c-0.1,0.3-0.1,1-0.1,2V132.9z"/>
		<path class="st1" d="M148.1,126.9h1.4v0.8c0.5-0.6,1.1-0.9,1.8-0.9c0.4,0,0.7,0.1,1,0.2c0.3,0.2,0.5,0.4,0.7,0.7
			c0.3-0.3,0.5-0.6,0.8-0.7c0.3-0.2,0.6-0.2,1-0.2c0.4,0,0.8,0.1,1.1,0.3c0.3,0.2,0.5,0.4,0.7,0.8c0.1,0.3,0.2,0.7,0.2,1.2v3.8h-1.6
			v-3.4c0-0.6-0.1-1-0.2-1.1c-0.1-0.2-0.4-0.3-0.7-0.3c-0.2,0-0.4,0.1-0.6,0.2c-0.2,0.1-0.3,0.3-0.4,0.6c-0.1,0.3-0.1,0.7-0.1,1.2
			v2.8h-1.6v-3.3c0-0.6,0-0.9-0.1-1.1c-0.1-0.2-0.1-0.3-0.3-0.4c-0.1-0.1-0.3-0.1-0.5-0.1c-0.2,0-0.5,0.1-0.7,0.2
			c-0.2,0.1-0.3,0.3-0.4,0.6c-0.1,0.2-0.1,0.7-0.1,1.2v2.9h-1.6V126.9z"/>
		<path class="st1" d="M161.8,131l1.6,0.3c-0.2,0.6-0.5,1-1,1.3c-0.4,0.3-1,0.4-1.6,0.4c-1,0-1.8-0.3-2.3-1c-0.4-0.5-0.6-1.2-0.6-2
			c0-1,0.3-1.8,0.8-2.3c0.5-0.6,1.2-0.8,2-0.8c0.9,0,1.6,0.3,2.1,0.9c0.5,0.6,0.8,1.5,0.7,2.7h-3.9c0,0.5,0.1,0.8,0.4,1.1
			c0.2,0.3,0.5,0.4,0.9,0.4c0.2,0,0.5-0.1,0.6-0.2C161.6,131.5,161.8,131.3,161.8,131z M161.9,129.4c0-0.5-0.1-0.8-0.4-1
			c-0.2-0.2-0.5-0.4-0.8-0.4c-0.3,0-0.6,0.1-0.8,0.4c-0.2,0.2-0.3,0.6-0.3,1H161.9z"/>
		<path class="st1" d="M166.3,132.9h-1.6v-5.9h1.5v0.8c0.2-0.4,0.5-0.7,0.7-0.8c0.2-0.1,0.4-0.2,0.7-0.2c0.4,0,0.7,0.1,1,0.3
			l-0.5,1.4c-0.3-0.2-0.5-0.3-0.7-0.3c-0.2,0-0.4,0.1-0.6,0.2c-0.2,0.1-0.3,0.3-0.4,0.7c-0.1,0.3-0.1,1-0.1,2V132.9z"/>
		<path class="st1" d="M168.7,131.2l1.6-0.2c0.1,0.3,0.2,0.5,0.4,0.7c0.2,0.2,0.5,0.2,0.9,0.2c0.4,0,0.7-0.1,0.9-0.2
			c0.1-0.1,0.2-0.2,0.2-0.4c0-0.1,0-0.2-0.1-0.3c-0.1-0.1-0.3-0.1-0.5-0.2c-1.3-0.3-2.1-0.5-2.4-0.8c-0.5-0.3-0.7-0.8-0.7-1.3
			c0-0.5,0.2-0.9,0.6-1.3c0.4-0.4,1-0.5,1.9-0.5c0.8,0,1.4,0.1,1.8,0.4c0.4,0.3,0.7,0.7,0.8,1.2l-1.5,0.3c-0.1-0.2-0.2-0.4-0.4-0.5
			c-0.2-0.1-0.4-0.2-0.8-0.2c-0.4,0-0.7,0.1-0.9,0.2c-0.1,0.1-0.2,0.2-0.2,0.3c0,0.1,0.1,0.2,0.2,0.3c0.1,0.1,0.6,0.3,1.5,0.4
			c0.8,0.2,1.4,0.4,1.8,0.7c0.3,0.3,0.5,0.7,0.5,1.2c0,0.5-0.2,1-0.7,1.4c-0.5,0.4-1.1,0.6-2,0.6c-0.8,0-1.4-0.2-1.9-0.5
			C169.1,132.2,168.8,131.8,168.7,131.2z"/>
	</g>
</g>
<g>
	<path class="st1" d="M245.8,54.4l-0.1-23.7l-11.3,19h-7.7l-11.3-18.2v22.9h-16V2.3h14.4l17,27.8l16.5-27.8h14.4l0.1,52.1H245.8z"/>
	<path class="st1" d="M305.8,45.3H286l-3.5,9.1h-17.9l22.8-52.1h17.3l22.8,52.1h-18.2L305.8,45.3z M301,32.7l-5.1-13.1l-5.1,13.1
		H301z"/>
	<path class="st1" d="M337.1,54.2c-4.1-1-7.5-2.3-10.1-3.9l5.7-12.8c2.5,1.4,5.3,2.6,8.3,3.5c3.1,0.9,6,1.3,8.9,1.3
		c2.4,0,4.2-0.2,5.2-0.7c1-0.5,1.6-1.2,1.6-2.1c0-1.1-0.7-1.9-2-2.5c-1.4-0.5-3.6-1.1-6.7-1.8c-4-0.8-7.4-1.7-10-2.7
		c-2.7-1-5-2.6-7-4.8c-2-2.2-3-5.2-3-9c0-3.3,0.9-6.2,2.8-8.9s4.6-4.8,8.2-6.3c3.6-1.5,8.1-2.3,13.3-2.3c3.6,0,7.1,0.4,10.5,1.2
		c3.4,0.8,6.5,1.9,9.1,3.4l-5.3,12.7c-5.1-2.6-9.9-3.9-14.5-3.9c-4.5,0-6.8,1.1-6.8,3.3c0,1,0.7,1.8,2,2.3c1.3,0.5,3.5,1.1,6.6,1.7
		c4,0.7,7.3,1.6,10,2.6c2.7,1,5.1,2.5,7.1,4.7c2,2.2,3,5.2,3,8.9c0,3.3-0.9,6.2-2.8,8.9c-1.8,2.7-4.6,4.8-8.2,6.3
		c-3.6,1.6-8.1,2.3-13.3,2.3C345.4,55.6,341.2,55.1,337.1,54.2z"/>
	<path class="st1" d="M389.7,16h-15.3V2.3h48.1V16h-15.3v38.5h-17.6V16z"/>
	<path class="st1" d="M470.4,41.2v13.2h-43.3V2.3h42.3v13.2h-25.1v6.1h22v12.6h-22v6.8H470.4z"/>
	<path class="st1" d="M499.4,41.3h-4.8v13.1h-17.6V2.3h25.1c4.8,0,9,0.8,12.6,2.4c3.6,1.6,6.3,3.9,8.3,6.8c1.9,3,2.9,6.4,2.9,10.4
		c0,3.7-0.8,7-2.5,9.7c-1.7,2.8-4.1,5-7.3,6.6L527,54.4h-18.7L499.4,41.3z M506.4,17.5c-1.2-1.1-3-1.6-5.4-1.6h-6.4v12.2h6.4
		c2.4,0,4.2-0.5,5.4-1.6c1.2-1.1,1.8-2.6,1.8-4.5C508.2,20,507.6,18.5,506.4,17.5z"/>
</g>
<g>
	<path class="st1" d="M236.9,84.7c3.5,1.6,6.3,3.8,8.2,6.8c1.9,3,2.9,6.4,2.9,10.3c0,3.9-1,7.4-2.9,10.3s-4.6,5.2-8.2,6.8
		s-7.7,2.4-12.5,2.4h-7.5V134h-17.4V82.3h24.9C229.2,82.3,233.3,83.1,236.9,84.7z M228.6,106.2c1.2-1.1,1.8-2.5,1.8-4.5
		s-0.6-3.4-1.8-4.5c-1.2-1.1-3-1.6-5.3-1.6h-6.3v12.1h6.3C225.7,107.8,227.4,107.3,228.6,106.2z"/>
	<path class="st1" d="M266.5,131.7c-4.4-2.3-7.9-5.5-10.4-9.6c-2.5-4.1-3.8-8.7-3.8-13.9c0-5.2,1.3-9.8,3.8-13.9
		c2.5-4.1,6-7.3,10.4-9.6c4.4-2.3,9.4-3.5,15-3.5s10.6,1.2,15,3.5c4.4,2.3,7.9,5.5,10.4,9.6c2.5,4.1,3.8,8.7,3.8,13.9
		c0,5.2-1.3,9.8-3.8,13.9c-2.5,4.1-6,7.3-10.4,9.6c-4.4,2.3-9.4,3.5-15,3.5S270.9,134,266.5,131.7z M287.3,119.5
		c1.7-1.1,3.1-2.6,4.2-4.5s1.5-4.2,1.5-6.8c0-2.6-0.5-4.9-1.5-6.8s-2.4-3.4-4.2-4.5c-1.7-1.1-3.7-1.6-5.9-1.6
		c-2.2,0-4.1,0.5-5.9,1.6c-1.7,1.1-3.1,2.6-4.2,4.5c-1,1.9-1.5,4.2-1.5,6.8c0,2.6,0.5,4.9,1.5,6.8c1,1.9,2.4,3.4,4.2,4.5
		c1.7,1.1,3.7,1.6,5.9,1.6C283.6,121,285.5,120.5,287.3,119.5z"/>
	<path class="st1" d="M339.1,121h-4.7v13h-17.4V82.3h24.9c4.8,0,8.9,0.8,12.5,2.4c3.5,1.6,6.3,3.8,8.2,6.8c1.9,3,2.9,6.4,2.9,10.3
		c0,3.7-0.8,6.9-2.5,9.7c-1.7,2.8-4.1,4.9-7.2,6.6l10.8,15.9h-18.6L339.1,121z M346,97.3c-1.2-1.1-3-1.6-5.3-1.6h-6.3v12.1h6.3
		c2.4,0,4.1-0.5,5.3-1.6c1.2-1.1,1.8-2.5,1.8-4.5S347.2,98.4,346,97.3z"/>
	<path class="st1" d="M382.4,95.8h-15.1V82.3h47.7v13.5h-15.1V134h-17.4V95.8z"/>
	<path class="st1" d="M452,124.9h-19.6l-3.5,9h-17.7l22.6-51.6h17.1l22.6,51.6h-18L452,124.9z M447.2,112.4l-5-13l-5,13H447.2z"/>
	<path class="st1" d="M476.3,82.3h17.4v38.1H517V134h-40.7V82.3z"/>
</g>
</svg>
