<svg id="Layer_1" data-name="Layer 1" xmlns="http://www.w3.org/2000/svg" viewBox="0 0 532.35 137.48"><defs><style>.cls-1{fill:none;stroke:#fff;stroke-miterlimit:10;stroke-width:0.73px;}.cls-2,.cls-3{fill:#fff;}.cls-3{fill-rule:evenodd;}</style></defs><title>MASTER DATA LOGO</title><polygon class="cls-1" points="97.08 4.51 101.7 1.84 106.32 4.51 106.32 9.84 101.7 12.51 97.08 9.84 97.08 4.51"/><path class="cls-2" d="M103.44,8.63a1.09,1.09,0,0,1-.34.81,1.11,1.11,0,0,1-.81.35h-1.17A1.16,1.16,0,0,1,100,8.63V5.73a1.13,1.13,0,0,1,.34-.82,1.11,1.11,0,0,1,.82-.34h1.17a1.16,1.16,0,0,1,1.15,1.16v2.9Zm-1.16-3a.58.58,0,0,0-1.16.1v2l1.16-2.07Zm0,3v-2l-1.15,2.07a.52.52,0,0,0,.56.48.58.58,0,0,0,.42-.16A.6.6,0,0,0,102.29,8.63Z"/><polygon class="cls-1" points="106.55 32.61 111.17 29.94 115.79 32.61 115.79 37.95 111.17 40.62 106.55 37.95 106.55 32.61"/><polygon class="cls-2" points="113.07 37.72 112.81 37.72 109.81 35.01 109.81 37.72 109.27 37.72 109.27 32.85 109.52 32.85 112.53 35.55 112.53 32.85 113.07 32.85 113.07 37.72"/><polygon class="cls-1" points="107.61 52.92 112.24 50.25 116.85 52.92 116.85 58.26 112.24 60.92 107.61 58.26 107.61 52.92"/><path class="cls-3" d="M113.65,53.1h-3.59l.47.6h1.66a1.84,1.84,0,0,1,.24.4h-2l.45.6h1.62l0,.17a1.53,1.53,0,0,1-.69.76l-.24-.3h-.77l2.15,2.74h.77l-1.49-1.91a2.44,2.44,0,0,0,1-1.46h1.25l-.4-.6h-.91c0-.16-.1-.28-.15-.4h1.12Z"/><polygon class="cls-1" points="122.67 58.39 127.3 55.73 131.92 58.39 131.92 63.73 127.3 66.39 122.67 63.73 122.67 58.39"/><path class="cls-2" d="M127.08,62.56V61.23a1.75,1.75,0,0,1-.92-.54,1.42,1.42,0,0,1-.3-.88,1.26,1.26,0,0,1,.34-.88,1.38,1.38,0,0,1,.88-.41v-.31h.46v.31a1.44,1.44,0,0,1,.8.35,1.28,1.28,0,0,1,.38.77l-.8.1a.7.7,0,0,0-.38-.52v1.25a2.13,2.13,0,0,1,1,.54,1.28,1.28,0,0,1,.27.84,1.4,1.4,0,0,1-.34,1,1.54,1.54,0,0,1-1,.49v.59h-.46v-.58a1.45,1.45,0,0,1-.9-.41,1.69,1.69,0,0,1-.44-1l.83-.09a1,1,0,0,0,.19.44.8.8,0,0,0,.32.27Zm0-3.34a.62.62,0,0,0-.31.22.56.56,0,0,0-.1.33.47.47,0,0,0,.09.31.8.8,0,0,0,.32.24v-1.1Zm.46,3.38a.65.65,0,0,0,.39-.21.63.63,0,0,0,.14-.42.57.57,0,0,0-.12-.37.77.77,0,0,0-.41-.23Z"/><polygon class="cls-1" points="97.93 67.64 102.55 64.97 107.17 67.64 107.17 72.97 102.55 75.64 97.93 72.97 97.93 67.64"/><path class="cls-3" d="M104.43,72.07c0,.05,0,0-.08.14l.13,0s.2-.16.37-.21.07.16.13.18.23,0,.15.22a.28.28,0,0,0,.13.1c.07,0,.13,0,.19-.06s.11,0,.22,0,.1-.25.14-.41c.09-.34-.09-.52-.26-.74a6.07,6.07,0,0,0-.78-.49c-.33-.13-.7-.24-1-.35a4.6,4.6,0,0,1-1.76-.87c-.29-.23-.44-.26-.6-.59s-.17-.54-.45-.64a3,3,0,0,0-.3-.07c-.16-.05-.17-.14-.23-.15l0,0a.85.85,0,0,0-.32,0l-.13-.07a.45.45,0,0,0-.48.28l0,.12a.35.35,0,0,0,0,.33l.29-.11v.07l0,0c-.13.22-.43.27-.47.33l.13,0c.14,0,.28-.07.5,0l0,0-.43.3v0l.65-.09.06.06h0l-.43.47c.26.08.46-.23.66-.16,0,0,.3.46.6.56,0,.19.08.19,0,.29v0a.41.41,0,0,1-.08.13s0,.09.08.11.07,0,.13,0c.09-.21.16-.18.32-.23l.24.28c0,.12-.13.25,0,.3h0c.15,0,.14-.31.45-.2s.06.43.17.47h0c.07,0,.11,0,.16-.06l0-.13s.09-.08.13-.06c.35.12.11.39.24.43l0,0s0,0,.11,0,.1-.3.23-.26a.28.28,0,0,1,.16.33l0,.08.07,0c.06,0,.06,0,.12,0s.1-.26.19-.23a.17.17,0,0,1,.14.23l0,.13.07,0c.08,0,.19-.15.25-.22S104.47,71.94,104.43,72.07Z"/><polygon class="cls-1" points="107.03 75.98 111.65 73.32 116.27 75.98 116.27 81.32 111.65 83.98 107.03 81.32 107.03 75.98"/><path class="cls-2" d="M111.21,80.64h-1.33a1.29,1.29,0,0,1-.94-.39,1.28,1.28,0,0,1-.39-.94V78a1.28,1.28,0,0,1,.39-.94,1.29,1.29,0,0,1,.94-.39h.89a.48.48,0,0,1,.44.44v.45h-.44a.42.42,0,0,0-.13-.32.42.42,0,0,0-.31-.13.89.89,0,0,0-.89.89v1.32a.82.82,0,0,0,.26.63.86.86,0,0,0,.63.26h.88v.44Zm3.53,0h-.88V80a.87.87,0,0,1-.3.51,1,1,0,0,1-.59.15.85.85,0,0,1-.63-.26.9.9,0,0,1-.25-.62V77.55H113v2.21c0,.29.07.44.23.44a.65.65,0,0,0,.49-.24.69.69,0,0,0,.17-.43v-2h.88Z"/><polygon class="cls-1" points="123.1 77.42 127.72 74.75 132.35 77.42 132.35 82.75 127.72 85.42 123.1 82.75 123.1 77.42"/><path class="cls-2" d="M127.28,82.07h-2.64v-.44l1.76-3.09h-1.76V78.1h2.64v.44l-1.77,3.09h1.77v.44Zm3.53,0h-.88V79.86c0-.29-.07-.44-.22-.44a.7.7,0,0,0-.66.66v2h-.88V79h.88v.66a.89.89,0,0,1,.29-.52,1,1,0,0,1,.59-.14.85.85,0,0,1,.88.88Z"/><polygon class="cls-1" points="71.21 5.11 75.83 2.44 80.45 5.11 80.45 10.44 75.83 13.11 71.21 10.44 71.21 5.11"/><polygon class="cls-1" points="75.75 11.43 80.36 8.77 84.98 11.43 84.98 16.77 80.36 19.43 75.75 16.77 75.75 11.43"/><polygon class="cls-1" points="88.73 13.01 93.36 10.34 97.98 13.01 97.98 18.34 93.36 21.01 88.73 18.34 88.73 13.01"/><polygon class="cls-1" points="123.28 4.91 127.9 2.24 132.52 4.91 132.52 10.24 127.9 12.91 123.28 10.24 123.28 4.91"/><polygon class="cls-1" points="86.05 22.75 90.67 20.09 95.29 22.75 95.29 28.09 90.67 30.76 86.05 28.09 86.05 22.75"/><polygon class="cls-1" points="73.63 27.9 78.26 25.23 82.87 27.9 82.87 33.24 78.26 35.91 73.63 33.24 73.63 27.9"/><polygon class="cls-1" points="121.52 18.16 126.13 15.49 130.76 18.16 130.76 23.5 126.13 26.16 121.52 23.5 121.52 18.16"/><polygon class="cls-1" points="141.67 5.11 146.29 2.44 150.91 5.11 150.91 10.44 146.29 13.11 141.67 10.44 141.67 5.11"/><polygon class="cls-1" points="146.4 7.5 151.02 4.83 155.63 7.5 155.63 12.84 151.02 15.5 146.4 12.84 146.4 7.5"/><polygon class="cls-1" points="152.13 17.73 156.75 15.06 161.37 17.73 161.37 23.06 156.75 25.73 152.13 23.06 152.13 17.73"/><polygon class="cls-1" points="137.19 18.91 141.81 16.25 146.42 18.91 146.42 24.25 141.81 26.91 137.19 24.25 137.19 18.91"/><polygon class="cls-1" points="138.52 32.09 143.14 29.42 147.75 32.09 147.75 37.43 143.14 40.09 138.52 37.43 138.52 32.09"/><polygon class="cls-1" points="160.1 37.75 164.72 35.09 169.34 37.75 169.34 43.09 164.72 45.76 160.1 43.09 160.1 37.75"/><polygon class="cls-1" points="103.27 43.15 107.89 40.48 112.51 43.15 112.51 48.49 107.89 51.15 103.27 48.49 103.27 43.15"/><polygon class="cls-1" points="119.89 29.21 124.52 26.55 129.13 29.21 129.13 34.55 124.52 37.21 119.89 34.55 119.89 29.21"/><polygon class="cls-1" points="124.28 31.2 128.9 28.53 133.51 31.2 133.51 36.53 128.9 39.2 124.28 36.53 124.28 31.2"/><polygon class="cls-1" points="117.01 40.3 121.64 37.63 126.25 40.3 126.25 45.64 121.64 48.3 117.01 45.64 117.01 40.3"/><polygon class="cls-1" points="113.63 43.91 118.25 41.24 122.87 43.91 122.87 49.25 118.25 51.91 113.63 49.25 113.63 43.91"/><polygon class="cls-1" points="77.99 47.06 82.62 44.39 87.23 47.06 87.23 52.39 82.62 55.06 77.99 52.39 77.99 47.06"/><polygon class="cls-1" points="147.26 43.05 151.88 40.38 156.5 43.05 156.5 48.38 151.88 51.05 147.26 48.38 147.26 43.05"/><polygon class="cls-1" points="141.89 43.24 146.52 40.57 151.13 43.24 151.13 48.58 146.52 51.24 141.89 48.58 141.89 43.24"/><polygon class="cls-1" points="150.63 46.65 155.25 43.98 159.88 46.65 159.88 51.98 155.25 54.65 150.63 51.98 150.63 46.65"/><polygon class="cls-1" points="148.64 62.18 153.27 59.51 157.88 62.18 157.88 67.51 153.27 70.18 148.64 67.51 148.64 62.18"/><polygon class="cls-1" points="153.38 61.01 157.99 58.34 162.61 61.01 162.61 66.34 157.99 69.01 153.38 66.34 153.38 61.01"/><polygon class="cls-1" points="134.85 62.89 139.47 60.23 144.1 62.89 144.1 68.23 139.47 70.9 134.85 68.23 134.85 62.89"/><polygon class="cls-1" points="132.57 66.97 137.19 64.31 141.81 66.97 141.81 72.31 137.19 74.97 132.57 72.31 132.57 66.97"/><polygon class="cls-1" points="121.98 67.6 126.6 64.94 131.22 67.6 131.22 72.94 126.6 75.6 121.98 72.94 121.98 67.6"/><polygon class="cls-1" points="110.72 64.37 115.34 61.7 119.96 64.37 119.96 69.7 115.34 72.37 110.72 69.7 110.72 64.37"/><polygon class="cls-1" points="88.53 61.74 93.15 59.07 97.77 61.74 97.77 67.08 93.15 69.74 88.53 67.08 88.53 61.74"/><polygon class="cls-1" points="87.8 47.92 92.41 45.25 97.03 47.92 97.03 53.25 92.41 55.92 87.8 53.25 87.8 47.92"/><polygon class="cls-1" points="76.29 57.27 80.92 54.6 85.54 57.27 85.54 62.61 80.92 65.27 76.29 62.61 76.29 57.27"/><polygon class="cls-1" points="95.89 74.11 100.52 71.44 105.14 74.11 105.14 79.45 100.52 82.11 95.89 79.45 95.89 74.11"/><polygon class="cls-1" points="129.19 79.66 133.81 77 138.42 79.66 138.42 85 133.81 87.66 129.19 85 129.19 79.66"/><polygon class="cls-1" points="153.77 85.37 158.39 82.7 163 85.37 163 90.7 158.39 93.37 153.77 90.7 153.77 85.37"/><polygon class="cls-1" points="154.59 96.6 159.21 93.94 163.82 96.6 163.82 101.94 159.21 104.61 154.59 101.94 154.59 96.6"/><polygon class="cls-1" points="103.9 93.19 108.53 90.53 113.14 93.19 113.14 98.53 108.53 101.2 103.9 98.53 103.9 93.19"/><polygon class="cls-1" points="80.86 93.5 85.48 90.83 90.11 93.5 90.11 98.83 85.48 101.5 80.86 98.83 80.86 93.5"/><polygon class="cls-1" points="73.83 69.28 78.45 66.61 83.07 69.28 83.07 74.62 78.45 77.28 73.83 74.62 73.83 69.28"/><polygon class="cls-1" points="68.33 75.83 72.95 73.16 77.57 75.83 77.57 81.16 72.95 83.83 68.33 81.16 68.33 75.83"/><polygon class="cls-1" points="64.26 92.31 68.88 89.64 73.5 92.31 73.5 97.65 68.88 100.32 64.26 97.65 64.26 92.31"/><polygon class="cls-1" points="83.17 8.35 87.8 5.68 92.41 8.35 92.41 13.68 87.8 16.35 83.17 13.68 83.17 8.35"/><path class="cls-2" d="M89.53,12.46a1.16,1.16,0,0,1-1.16,1.16H87.21a1.14,1.14,0,0,1-.82-.33,1.17,1.17,0,0,1-.34-.83V9.56a1.15,1.15,0,0,1,.34-.82,1.11,1.11,0,0,1,.82-.34h1.16a1.16,1.16,0,0,1,1.16,1.16v2.9Zm-1.17-3a.58.58,0,0,0-1-.31.55.55,0,0,0-.18.41v2l1.15-2.08Zm0,3v-2l-1.14,2.06a.53.53,0,0,0,.57.49.56.56,0,0,0,.57-.58Z"/><polygon class="cls-1" points="130.13 9.89 134.76 7.22 139.37 9.89 139.37 15.22 134.76 17.89 130.13 15.22 130.13 9.89"/><path class="cls-2" d="M136.49,14a1.16,1.16,0,0,1-1.16,1.16h-1.16a1.16,1.16,0,0,1-.82-.33A1.17,1.17,0,0,1,133,14V11.1a1.16,1.16,0,0,1,1.16-1.16h1.16a1.16,1.16,0,0,1,1.16,1.16V14Zm-1.16-3a.56.56,0,0,0-.57-.48.56.56,0,0,0-.59.57v2L135.33,11Zm0,3V12l-1.14,2.06a.57.57,0,0,0,1,.32A.53.53,0,0,0,135.33,14Z"/><polygon class="cls-1" points="165.49 22.2 170.11 19.54 174.73 22.2 174.73 27.54 170.11 30.21 165.49 27.54 165.49 22.2"/><path class="cls-2" d="M171.85,26.32a1.12,1.12,0,0,1-.35.82,1.09,1.09,0,0,1-.81.34h-1.17a1.09,1.09,0,0,1-.81-.34,1.11,1.11,0,0,1-.34-.82v-2.9a1.11,1.11,0,0,1,.34-.82,1.13,1.13,0,0,1,.81-.34h1.17a1.18,1.18,0,0,1,1.16,1.16v2.9Zm-1.17-3a.55.55,0,0,0-.57-.48.57.57,0,0,0-.41.17.58.58,0,0,0-.18.41v2l1.16-2.07Zm0,3v-2l-1.15,2.06a.53.53,0,0,0,.57.49.58.58,0,0,0,.58-.58Z"/><path class="cls-2" d="M138.51,28.19a1.09,1.09,0,0,1-.34.81,1.11,1.11,0,0,1-.82.34h-1.16A1.14,1.14,0,0,1,135,28.19v-2.9a1.16,1.16,0,0,1,1.16-1.16h1.16a1.16,1.16,0,0,1,1.16,1.16v2.9Zm-1.17-3a.55.55,0,0,0-.57-.48.61.61,0,0,0-.42.17.6.6,0,0,0-.16.41v2l1.15-2.07Zm0,3v-2l-1.15,2.06a.58.58,0,0,0,1,.31A.56.56,0,0,0,137.35,28.19Z"/><polygon class="cls-1" points="132.14 24.07 136.77 21.4 141.38 24.07 141.38 29.41 136.77 32.07 132.14 29.41 132.14 24.07"/><polygon class="cls-1" points="111.87 18.71 116.49 16.05 121.11 18.71 121.11 24.05 116.49 26.72 111.87 24.05 111.87 18.71"/><path class="cls-2" d="M118.22,22.83A1.16,1.16,0,0,1,117.07,24h-1.16a1.09,1.09,0,0,1-.82-.34,1.11,1.11,0,0,1-.34-.82v-2.9a1.11,1.11,0,0,1,.34-.82,1.13,1.13,0,0,1,.82-.34h1.16a1.11,1.11,0,0,1,.81.34,1.07,1.07,0,0,1,.34.82v2.9Zm-1.16-3a.55.55,0,0,0-.57-.48.57.57,0,0,0-.41.17.58.58,0,0,0-.17.41v2l1.15-2.07Zm0,3v-2l-1.15,2.06a.53.53,0,0,0,.57.49.57.57,0,0,0,.41-.17A.58.58,0,0,0,117.07,22.83Z"/><polygon class="cls-1" points="97.25 23.95 101.87 21.28 106.48 23.95 106.48 29.29 101.87 31.95 97.25 29.29 97.25 23.95"/><path class="cls-2" d="M103.6,28.07a1.11,1.11,0,0,1-.34.82,1.14,1.14,0,0,1-.81.34h-1.17a1.17,1.17,0,0,1-.82-.34,1.14,1.14,0,0,1-.33-.82v-2.9a1.14,1.14,0,0,1,.33-.82,1.13,1.13,0,0,1,.82-.34h1.17a1.16,1.16,0,0,1,1.15,1.16v2.9Zm-1.17-3a.54.54,0,0,0-.56-.48.55.55,0,0,0-.41.17.54.54,0,0,0-.18.41v2l1.15-2.07Zm0,3v-2l-1.16,2.06a.54.54,0,0,0,.58.49.6.6,0,0,0,.41-.17A.58.58,0,0,0,102.45,28.07Z"/><polygon class="cls-1" points="80.68 20.47 85.3 17.8 89.92 20.47 89.92 25.8 85.3 28.47 80.68 25.8 80.68 20.47"/><path class="cls-2" d="M87,24.59a1.1,1.1,0,0,1-.34.81,1.09,1.09,0,0,1-.81.34H84.72a1.14,1.14,0,0,1-1.16-1.15V21.68a1.11,1.11,0,0,1,.34-.82,1.15,1.15,0,0,1,.82-.34h1.16a1.13,1.13,0,0,1,.81.34,1.11,1.11,0,0,1,.34.82v2.91Zm-1.16-3a.55.55,0,0,0-.57-.48.56.56,0,0,0-.41.16.54.54,0,0,0-.17.41v2l1.15-2.07Zm0,3v-2l-1.15,2.07a.58.58,0,0,0,1,.31A.56.56,0,0,0,85.88,24.59Z"/><polygon class="cls-1" points="88.04 33.2 92.66 30.53 97.28 33.2 97.28 38.54 92.66 41.2 88.04 38.54 88.04 33.2"/><path class="cls-2" d="M94.39,37.32a1.13,1.13,0,0,1-.34.82,1.14,1.14,0,0,1-.81.34H92.07a1.17,1.17,0,0,1-.82-.34,1.14,1.14,0,0,1-.33-.82v-2.9a1.14,1.14,0,0,1,.33-.82,1.13,1.13,0,0,1,.82-.34h1.17a1.16,1.16,0,0,1,1.15,1.16v2.9Zm-1.16-3a.56.56,0,0,0-.57-.48.61.61,0,0,0-.42.17.57.57,0,0,0-.17.41v2l1.16-2.07Zm0,3v-2l-1.16,2.06a.59.59,0,0,0,1,.31A.56.56,0,0,0,93.24,37.32Z"/><polygon class="cls-1" points="99.86 55.54 104.48 52.87 109.1 55.54 109.1 60.88 104.48 63.54 99.86 60.88 99.86 55.54"/><path class="cls-2" d="M106.22,59.66a1.1,1.1,0,0,1-.34.81,1.13,1.13,0,0,1-.82.34H103.9a1.14,1.14,0,0,1-.82-.33,1.17,1.17,0,0,1-.34-.82V56.75a1.13,1.13,0,0,1,.34-.81,1.11,1.11,0,0,1,.82-.34h1.16a1.13,1.13,0,0,1,.82.34,1.1,1.1,0,0,1,.34.81v2.91Zm-1.17-3a.55.55,0,0,0-.57-.47.54.54,0,0,0-.41.17.56.56,0,0,0-.17.4v2l1.15-2.08Zm0,3v-2l-1.15,2.06a.58.58,0,0,0,1.15-.09Z"/><polygon class="cls-1" points="83.53 55.02 88.15 52.35 92.77 55.02 92.77 60.36 88.15 63.02 83.53 60.36 83.53 55.02"/><path class="cls-2" d="M89.89,59.14a1.07,1.07,0,0,1-.34.82,1.11,1.11,0,0,1-.82.34H87.57a1.11,1.11,0,0,1-.82-.34,1.15,1.15,0,0,1-.34-.82v-2.9a1.15,1.15,0,0,1,.34-.82,1.11,1.11,0,0,1,.82-.34h1.16a1.11,1.11,0,0,1,.82.34,1.07,1.07,0,0,1,.34.82v2.9Zm-1.16-3a.56.56,0,0,0-.58-.48.58.58,0,0,0-.41.17.57.57,0,0,0-.17.41v2l1.16-2.07Zm0,3v-2l-1.14,2.06a.52.52,0,0,0,.56.49.61.61,0,0,0,.42-.17A.57.57,0,0,0,88.73,59.14Z"/><polygon class="cls-1" points="138.51 46.79 143.14 44.13 147.75 46.79 147.75 52.13 143.14 54.8 138.51 52.13 138.51 46.79"/><path class="cls-2" d="M144.87,50.92a1.07,1.07,0,0,1-.34.81,1.09,1.09,0,0,1-.82.34h-1.15a1.12,1.12,0,0,1-.82-.33,1.14,1.14,0,0,1-.35-.82V48a1.12,1.12,0,0,1,.35-.82,1.13,1.13,0,0,1,.82-.34h1.15a1.13,1.13,0,0,1,.82.34,1.09,1.09,0,0,1,.34.82v2.91Zm-1.16-3a.55.55,0,0,0-.57-.47.52.52,0,0,0-.41.17.56.56,0,0,0-.17.4v2l1.15-2.08Zm0,3v-2L142.57,51a.53.53,0,0,0,.57.48.58.58,0,0,0,.41-.17A.55.55,0,0,0,143.71,50.92Z"/><polygon class="cls-1" points="145 57.18 149.63 54.51 154.24 57.18 154.24 62.51 149.63 65.18 145 62.51 145 57.18"/><path class="cls-2" d="M151.36,61.3a1.16,1.16,0,0,1-1.16,1.15H149a1.13,1.13,0,0,1-1.15-1.15V58.39a1.12,1.12,0,0,1,.33-.81,1.14,1.14,0,0,1,.82-.35h1.16a1.12,1.12,0,0,1,.82.35,1.1,1.1,0,0,1,.34.81V61.3Zm-1.16-3a.59.59,0,0,0-1-.3.56.56,0,0,0-.17.4v2l1.16-2.08Zm0,3v-2l-1.15,2.07a.59.59,0,0,0,1,.31A.55.55,0,0,0,150.2,61.3Z"/><polygon class="cls-1" points="165.49 49.91 170.11 47.23 174.73 49.91 174.73 55.24 170.11 57.91 165.49 55.24 165.49 49.91"/><path class="cls-2" d="M171.85,54a1.16,1.16,0,0,1-1.16,1.16h-1.16a1.15,1.15,0,0,1-.82-.34,1.11,1.11,0,0,1-.34-.82v-2.9A1.16,1.16,0,0,1,169.53,50h1.16a1.11,1.11,0,0,1,.82.34,1.15,1.15,0,0,1,.34.82V54Zm-1.17-3a.55.55,0,0,0-.57-.48.58.58,0,0,0-.41.17.57.57,0,0,0-.17.41v2L170.68,51Zm0,3v-2l-1.14,2.06a.52.52,0,0,0,.56.49.57.57,0,0,0,.41-.17A.54.54,0,0,0,170.69,54Z"/><polygon class="cls-1" points="138.63 88.47 143.26 85.81 147.87 88.47 147.87 93.81 143.26 96.48 138.63 93.81 138.63 88.47"/><path class="cls-2" d="M145,92.59a1.16,1.16,0,0,1-1.16,1.16h-1.16a1.16,1.16,0,0,1-1.16-1.16v-2.9a1.16,1.16,0,0,1,1.16-1.16h1.16A1.16,1.16,0,0,1,145,89.69v2.9Zm-1.17-3a.55.55,0,0,0-.57-.48.56.56,0,0,0-.41.16.6.6,0,0,0-.17.41v2l1.15-2.07Zm0,3v-2l-1.15,2.06a.58.58,0,0,0,1,.32A.57.57,0,0,0,143.84,92.59Z"/><polygon class="cls-1" points="110.65 85.53 115.27 82.86 119.89 85.53 119.89 90.86 115.27 93.53 110.65 90.86 110.65 85.53"/><path class="cls-2" d="M117,89.65a1.08,1.08,0,0,1-.35.82,1.11,1.11,0,0,1-.81.34h-1.16a1.17,1.17,0,0,1-.82-.34,1.15,1.15,0,0,1-.34-.82v-2.9a1.16,1.16,0,0,1,1.16-1.16h1.16A1.18,1.18,0,0,1,117,86.75v2.9Zm-1.17-3a.55.55,0,0,0-.57-.48.53.53,0,0,0-.41.17.57.57,0,0,0-.17.41v2l1.15-2.07Zm0,3v-2l-1.14,2.06a.52.52,0,0,0,.56.48.6.6,0,0,0,.42-.16A.64.64,0,0,0,115.85,89.65Z"/><polygon class="cls-1" points="165.32 93.67 169.94 91 174.56 93.67 174.56 99 169.94 101.67 165.32 99 165.32 93.67"/><path class="cls-2" d="M171.69,97.79a1.11,1.11,0,0,1-.35.81,1.1,1.1,0,0,1-.81.35h-1.17a1.11,1.11,0,0,1-.81-.34,1.13,1.13,0,0,1-.34-.82V94.88a1.16,1.16,0,0,1,1.15-1.15h1.17a1.18,1.18,0,0,1,1.16,1.15v2.91Zm-1.17-3a.55.55,0,0,0-.57-.48.58.58,0,0,0-.59.57v2l1.16-2.07Zm0,3v-2l-1.15,2.07a.53.53,0,0,0,.57.48.5.5,0,0,0,.4-.17A.53.53,0,0,0,170.53,97.79Z"/><polygon class="cls-1" points="83.22 78.42 87.84 75.75 92.46 78.42 92.46 83.75 87.84 86.42 83.22 83.75 83.22 78.42"/><path class="cls-2" d="M89.58,82.53a1.11,1.11,0,0,1-.34.82,1.13,1.13,0,0,1-.82.34H87.25a1.16,1.16,0,0,1-1.15-1.16v-2.9a1.07,1.07,0,0,1,.34-.81,1.11,1.11,0,0,1,.81-.35h1.17a1.14,1.14,0,0,1,.82.35,1.07,1.07,0,0,1,.34.81v2.9Zm-1.17-3a.55.55,0,0,0-.57-.47.56.56,0,0,0-.41.16.61.61,0,0,0-.18.41v2l1.16-2.08Zm0,3v-2l-1.14,2.06a.51.51,0,0,0,.56.49.53.53,0,0,0,.41-.17A.57.57,0,0,0,88.42,82.53Z"/><polygon class="cls-1" points="165.42 4.81 170.03 2.14 174.66 4.81 174.66 10.14 170.03 12.81 165.42 10.14 165.42 4.81"/><polygon class="cls-2" points="170.49 10.09 169.33 10.09 169.33 6.02 168.75 6.02 168.75 5.45 169.91 4.87 170.49 4.87 170.49 10.09"/><polygon class="cls-1" points="150.14 29.21 154.76 26.55 159.38 29.21 159.38 34.55 154.76 37.21 150.14 34.55 150.14 29.21"/><polygon class="cls-2" points="155.21 34.49 154.06 34.49 154.06 30.43 153.47 30.43 153.47 29.85 154.63 29.27 155.21 29.27 155.21 34.49"/><polygon class="cls-1" points="114.5 6.57 119.12 3.9 123.74 6.57 123.74 11.91 119.12 14.58 114.5 11.91 114.5 6.57"/><polygon class="cls-2" points="119.57 11.85 118.41 11.85 118.41 7.79 117.84 7.79 117.84 7.22 118.99 6.63 119.57 6.63 119.57 11.85"/><polygon class="cls-1" points="101.61 18.74 106.22 16.08 110.84 18.74 110.84 24.08 106.22 26.75 101.61 24.08 101.61 18.74"/><polygon class="cls-2" points="106.67 24.02 105.52 24.02 105.52 19.96 104.93 19.96 104.93 19.39 106.09 18.8 106.67 18.8 106.67 24.02"/><polygon class="cls-1" points="128.81 48.17 133.43 45.51 138.05 48.17 138.05 53.51 133.43 56.18 128.81 53.51 128.81 48.17"/><polygon class="cls-2" points="133.88 53.45 132.72 53.45 132.72 49.39 132.14 49.39 132.14 48.81 133.3 48.23 133.88 48.23 133.88 53.45"/><polygon class="cls-1" points="96.98 40.28 101.61 37.61 106.22 40.28 106.22 45.62 101.61 48.28 96.98 45.62 96.98 40.28"/><polygon class="cls-2" points="102.05 45.55 100.9 45.55 100.9 41.49 100.31 41.49 100.31 40.92 101.47 40.34 102.05 40.34 102.05 45.55"/><polygon class="cls-1" points="89.77 44.29 94.39 41.62 99.01 44.29 99.01 49.63 94.39 52.29 89.77 49.63 89.77 44.29"/><polygon class="cls-2" points="94.84 49.56 93.69 49.56 93.69 45.51 93.11 45.51 93.11 44.93 94.27 44.35 94.84 44.35 94.84 49.56"/><polygon class="cls-1" points="79.17 34.91 83.79 32.24 88.41 34.91 88.41 40.24 83.79 42.91 79.17 40.24 79.17 34.91"/><polygon class="cls-2" points="84.24 40.18 83.08 40.18 83.08 36.13 82.5 36.13 82.5 35.55 83.66 34.97 84.24 34.97 84.24 40.18"/><polygon class="cls-1" points="113.89 69.24 118.51 66.58 123.13 69.24 123.13 74.58 118.51 77.25 113.89 74.58 113.89 69.24"/><polygon class="cls-2" points="118.96 74.52 117.81 74.52 117.81 70.46 117.22 70.46 117.22 69.89 118.39 69.3 118.96 69.3 118.96 74.52"/><polygon class="cls-1" points="141.97 75.23 146.59 72.56 151.2 75.23 151.2 80.56 146.59 83.23 141.97 80.56 141.97 75.23"/><polygon class="cls-2" points="147.04 80.5 145.88 80.5 145.88 76.44 145.3 76.44 145.3 75.86 146.46 75.28 147.04 75.28 147.04 80.5"/><polygon class="cls-1" points="162.91 71.85 167.53 69.19 172.15 71.85 172.15 77.19 167.53 79.85 162.91 77.19 162.91 71.85"/><polygon class="cls-2" points="167.99 77.13 166.82 77.13 166.82 73.07 166.24 73.07 166.24 72.5 167.41 71.91 167.99 71.91 167.99 77.13"/><polygon class="cls-1" points="131.96 93.81 136.57 91.14 141.19 93.81 141.19 99.14 136.57 101.81 131.96 99.14 131.96 93.81"/><polygon class="cls-2" points="137.03 99.08 135.87 99.08 135.87 95.02 135.29 95.02 135.29 94.45 136.45 93.86 137.03 93.86 137.03 99.08"/><polygon class="cls-1" points="123.97 91.55 128.58 88.88 133.2 91.55 133.2 96.88 128.58 99.55 123.97 96.88 123.97 91.55"/><polygon class="cls-2" points="129.04 96.83 127.88 96.83 127.88 92.77 127.3 92.77 127.3 92.19 128.46 91.61 129.04 91.61 129.04 96.83"/><polygon class="cls-1" points="92.47 87.49 97.09 84.82 101.7 87.49 101.7 92.82 97.09 95.49 92.47 92.82 92.47 87.49"/><polygon class="cls-2" points="97.54 92.77 96.38 92.77 96.38 88.7 95.8 88.7 95.8 88.13 96.96 87.55 97.54 87.55 97.54 92.77"/><polygon class="cls-1" points="71.68 86.61 76.29 83.94 80.91 86.61 80.91 91.95 76.29 94.62 71.68 91.95 71.68 86.61"/><polygon class="cls-2" points="76.74 91.89 75.59 91.89 75.59 87.83 75.01 87.83 75.01 87.25 76.17 86.67 76.74 86.67 76.74 91.89"/><polygon class="cls-1" points="144.25 76.61 148.87 73.94 153.49 76.61 153.49 81.94 148.87 84.61 144.25 81.94 144.25 76.61"/><path class="cls-2" d="M73.36,107.82a1.35,1.35,0,0,1,.45-.69,1.14,1.14,0,0,1,.72-.22,1,1,0,0,1,.86.37,2.45,2.45,0,0,1,.26,1.31v1.86a1.54,1.54,0,0,1-.28,1,1.07,1.07,0,0,1-.86.32,1.26,1.26,0,0,1-.71-.2,2.5,2.5,0,0,1-.6-.73,2.94,2.94,0,0,0-1.2-1.15,4.15,4.15,0,0,0-1.82-.37,2.86,2.86,0,0,0-2.17.88,3.36,3.36,0,0,0,0,4.51,3.17,3.17,0,0,0,2.36.87,5.42,5.42,0,0,0,2.68-.75,6,6,0,0,1,1.62-.74.92.92,0,0,1,.72.31,1.2,1.2,0,0,1,.28.82c0,.72-.54,1.36-1.63,1.92a8.24,8.24,0,0,1-3.87.85,6.48,6.48,0,0,1-4.49-1.55,5.46,5.46,0,0,1,0-8A6.1,6.1,0,0,1,70,106.93a6.54,6.54,0,0,1,1.72.22,6.75,6.75,0,0,1,1.64.67Zm10.16,7.42H86.2a1.68,1.68,0,0,1,1.11.29,1.22,1.22,0,0,1,.32,1,1.3,1.3,0,0,1-.32,1,1.62,1.62,0,0,1-1.11.29H79.83a1.69,1.69,0,0,1-1.12-.29,1.26,1.26,0,0,1-.33-1,1.19,1.19,0,0,1,.33-1,1.71,1.71,0,0,1,1.12-.29h.87V109.7h-.49a1.66,1.66,0,0,1-1.11-.29,1.59,1.59,0,0,1,0-1.91,1.61,1.61,0,0,1,1.11-.29h2.43a.8.8,0,0,1,.47.12.43.43,0,0,1,.18.37v1.69a8.86,8.86,0,0,1,2.33-1.91,4.82,4.82,0,0,1,2.31-.57,2.76,2.76,0,0,1,1.77.51,1.62,1.62,0,0,1,.66,1.36,1.4,1.4,0,0,1-.46,1.08,1.58,1.58,0,0,1-1.15.44,2.72,2.72,0,0,1-1.21-.38,2.63,2.63,0,0,0-1-.37,2.46,2.46,0,0,0-1.29.49,11,11,0,0,0-1.75,1.51v3.69Zm14.57.38a2.93,2.93,0,0,0,2.19-.89,3.21,3.21,0,0,0,.86-2.26,3.07,3.07,0,0,0-.85-2.24,2.93,2.93,0,0,0-2.2-.87,3,3,0,0,0-2.2.87,3,3,0,0,0-.86,2.24,3.12,3.12,0,0,0,.86,2.26,3,3,0,0,0,2.2.89Zm6.21-3.13a5.13,5.13,0,0,1-1.72,4,7.27,7.27,0,0,1-9,0,5.44,5.44,0,0,1,0-8,7.26,7.26,0,0,1,9,0,5.1,5.1,0,0,1,1.72,4Zm5.73-.17a3.17,3.17,0,0,0,.73,2.14,2.49,2.49,0,0,0,3.72,0,3.12,3.12,0,0,0,.74-2.13,3.16,3.16,0,0,0-.73-2.13,2.51,2.51,0,0,0-3.73,0,3.16,3.16,0,0,0-.73,2.13Zm1.4,7.45a1.65,1.65,0,0,1,1.1.29,1.29,1.29,0,0,1,.33,1,1.2,1.2,0,0,1-.33.95,1.71,1.71,0,0,1-1.1.28h-4.84a1.73,1.73,0,0,1-1.1-.28,1.24,1.24,0,0,1-.32-.95,1.33,1.33,0,0,1,.32-1,1.67,1.67,0,0,1,1.1-.29h.68V109.7h-.19a1.11,1.11,0,0,1-1.24-1.25,1.2,1.2,0,0,1,.33-1,1.59,1.59,0,0,1,1.1-.29H109a.82.82,0,0,1,.49.12.41.41,0,0,1,.16.34v.83a3.62,3.62,0,0,1,1.42-1.17,4.13,4.13,0,0,1,1.86-.4,5.33,5.33,0,0,1,3.87,1.49,5,5,0,0,1,1.52,3.77,5.45,5.45,0,0,1-1.49,3.92,5,5,0,0,1-3.76,1.56,5.57,5.57,0,0,1-1.71-.25,4.47,4.47,0,0,1-1.4-.75v3.1Zm14.29-4.17a2.37,2.37,0,0,0,1.87-.85,3.5,3.5,0,0,0,0-4.28,2.4,2.4,0,0,0-1.87-.84,2.36,2.36,0,0,0-1.85.84,3.07,3.07,0,0,0-.74,2.13,3.11,3.11,0,0,0,.74,2.15,2.34,2.34,0,0,0,1.85.85Zm1.13-10.26a1.67,1.67,0,0,1-1.12-.3,1.58,1.58,0,0,1,0-1.93,1.67,1.67,0,0,1,1.12-.3h3.55a.68.68,0,0,1,.52.16.89.89,0,0,1,.15.59v11.68h.19a1.34,1.34,0,0,1,.91,2.21,1.59,1.59,0,0,1-1.1.29h-1.74a.82.82,0,0,1-.51-.13.42.42,0,0,1-.18-.36v-.8a3.59,3.59,0,0,1-1.45,1.17,4.58,4.58,0,0,1-2,.41,5.06,5.06,0,0,1-3.74-1.52A5.23,5.23,0,0,1,120,112.7a5.5,5.5,0,0,1,1.52-3.93,4.93,4.93,0,0,1,3.73-1.59,5.36,5.36,0,0,1,1.7.27,4.91,4.91,0,0,1,1.44.79v-2.9Zm15.31,9.46V113l-1-.19a6.94,6.94,0,0,0-.87-.06,3.74,3.74,0,0,0-2,.43,1.39,1.39,0,0,0-.71,1.25,1.09,1.09,0,0,0,.48.93,2.2,2.2,0,0,0,1.29.34,5.23,5.23,0,0,0,1.5-.23,5,5,0,0,0,1.35-.71Zm2.77-3.79v4.23h.18a1.14,1.14,0,0,1,1.26,1.26,1.2,1.2,0,0,1-.33,1,1.68,1.68,0,0,1-1.11.29h-1.07a1.47,1.47,0,0,1-.87-.21,1.66,1.66,0,0,1-.45-.79,8,8,0,0,1-2,1,6.84,6.84,0,0,1-2.14.34,4.27,4.27,0,0,1-2.9-.92,3.14,3.14,0,0,1-1-2.49,3.06,3.06,0,0,1,1.35-2.66,6.55,6.55,0,0,1,3.81-.95q.63,0,1.26.06a11.58,11.58,0,0,1,1.28.18V111a2.2,2.2,0,0,0-.5-1.57,1.85,1.85,0,0,0-1.46-.53,4.54,4.54,0,0,0-1.92.56,5,5,0,0,1-1.67.55,1.31,1.31,0,0,1-.91-.3,1.06,1.06,0,0,1-.33-.83q0-.93,1.35-1.47a10.12,10.12,0,0,1,3.67-.54,5.2,5.2,0,0,1,3.48.93,4.09,4.09,0,0,1,1.06,3.17Zm4.73-.67a1.57,1.57,0,0,1-1.1-.3,1.25,1.25,0,0,1-.32-1,1.22,1.22,0,0,1,.32-1,1.61,1.61,0,0,1,1.1-.29h1.08v-3.13a.82.82,0,0,1,.39-.68,1.63,1.63,0,0,1,1-.28,1.22,1.22,0,0,1,1.43,1.43v2.66H157a1.62,1.62,0,0,1,1.11.29,1.16,1.16,0,0,1,.34,1,1.18,1.18,0,0,1-.34,1,1.59,1.59,0,0,1-1.11.3h-3.47v2.92a2.66,2.66,0,0,0,.38,1.68,1.59,1.59,0,0,0,1.31.47,5.35,5.35,0,0,0,2.09-.52,5.55,5.55,0,0,1,1.63-.51,1,1,0,0,1,.81.37,1.37,1.37,0,0,1,.33.94c0,.55-.53,1.07-1.61,1.55a8.62,8.62,0,0,1-3.59.73,6,6,0,0,1-2.07-.32,3.22,3.22,0,0,1-1.39-.91,2.44,2.44,0,0,1-.54-1.09,9.67,9.67,0,0,1-.16-2.14v-3.17Zm20.63,4.46V113l-1.06-.19a6.67,6.67,0,0,0-.86-.06,3.79,3.79,0,0,0-2,.43,1.39,1.39,0,0,0-.71,1.25,1.1,1.1,0,0,0,.47.93,2.23,2.23,0,0,0,1.3.34,5.22,5.22,0,0,0,1.49-.23,5.27,5.27,0,0,0,1.37-.71ZM173,111v4.23h.19a1.28,1.28,0,0,1,.94.33,1.26,1.26,0,0,1,.32.93,1.2,1.2,0,0,1-.33,1,1.69,1.69,0,0,1-1.12.29H172a1.4,1.4,0,0,1-.85-.21,1.59,1.59,0,0,1-.46-.79,8,8,0,0,1-2,1,6.89,6.89,0,0,1-2.14.34,4.23,4.23,0,0,1-2.89-.92,3.11,3.11,0,0,1-1-2.49,3.06,3.06,0,0,1,1.35-2.66,6.5,6.5,0,0,1,3.81-.95q.63,0,1.26.06a12.1,12.1,0,0,1,1.29.18V111a2.24,2.24,0,0,0-.5-1.57,1.89,1.89,0,0,0-1.47-.53,4.62,4.62,0,0,0-1.93.56,4.93,4.93,0,0,1-1.66.55,1.3,1.3,0,0,1-.91-.3,1,1,0,0,1-.34-.83c0-.62.46-1.11,1.35-1.47a10.27,10.27,0,0,1,3.69-.54,5.2,5.2,0,0,1,3.47.93A4.09,4.09,0,0,1,173,111Z"/><polygon class="cls-1" points="113.9 29.24 118.51 26.58 123.14 29.24 123.14 34.58 118.51 37.25 113.9 34.58 113.9 29.24"/><path class="cls-2" d="M120.14,31.1a1.08,1.08,0,0,1-1.08,1.08H118v2.17h-1.08V29.48h2.17a1,1,0,0,1,.76.32,1,1,0,0,1,.32.76v.54Zm-1.08,0v-.54a.56.56,0,0,0-.55-.54H118v1.62h.54a.49.49,0,0,0,.38-.16A.5.5,0,0,0,119.06,31.1Z"/><polygon class="cls-1" points="127.5 36.03 132.11 33.36 136.73 36.03 136.73 41.36 132.11 44.03 127.5 41.36 127.5 36.03"/><polygon class="cls-2" points="134.01 41.13 132.92 41.13 131.3 39.24 131.3 41.13 130.22 41.13 130.22 36.26 131.3 36.26 131.3 38.25 133.05 36.26 134.01 36.26 131.84 38.69 134.01 41.13"/><polygon class="cls-1" points="119.89 45.43 124.52 42.77 129.13 45.43 129.13 50.77 124.52 53.44 119.89 50.77 119.89 45.43"/><path class="cls-3" d="M122.09,47.43v.07l.15,0a2.08,2.08,0,0,1,.91-.47c.35,0,.45.2.72.22v.08c-.44,0-.91.2-.91.61v.23c0,.41.52.61.92.64-.29.21-.49.17-.76.31l-.92-.47h-.11v.08l.16,0a1.09,1.09,0,0,0,1,.53h0a4,4,0,0,0,1-.42h.22c.28,0-.1.26-.1.49-.44.12,0,.38-1.17.39l-.08.12.15-.09a.2.2,0,0,0,.22.12h.35c.43,0,.8-.79,1-1.1l.35,0c0,.15-.12.19-.12.34a.83.83,0,0,0,.65.61h.23a1.17,1.17,0,0,0,.27,0v.16h.09l-.1-.22c-.38,0-.94-.1-1-.42V49c0-.09.07-.42.19-.42h.12v.11h.11c0,.16-.08.07-.08.19V49c0,.13.3.38.46.38h.12c.33,0,.53-.3.64-.54l.11.09,0,0-.22-.08a.92.92,0,0,1-.56.43.76.76,0,0,1-.39-.15,3.53,3.53,0,0,0,0-.46c0-.23-.13-.11-.15-.34a1.27,1.27,0,0,0,.31.08.85.85,0,0,0,.37-.12c0-.1,0-.07,0-.15s0-.05,0-.15a.85.85,0,0,0-.38-.12,1.11,1.11,0,0,0-.3.08c0-.22.11-.11.15-.31s0-.37,0-.48a.77.77,0,0,1,.34-.16c.31,0,.53.34.69.46l.11-.12c-.27.06-.07-.12-.32-.29a1.21,1.21,0,0,0-.52-.2h0a.68.68,0,0,0-.45.38v.15c0,.13,0,0,.07.19h-.1v.12h-.12c-.12,0-.2-.34-.2-.42V47c0-.32.57-.42,1-.42l.07-.23h-.08v.16l-.34,0h-.15a.84.84,0,0,0-.65.61c0,.15.09.19.13.34l-.35,0c-.23-.34-.49-1.1-1.07-1.09h-.26c-.15,0-.17,0-.23.11l-.16-.07.08.11c.46,0,.74,0,1,.21.07.08.63.65.34.66h-.23c-.08,0-.72-.42-1-.41h0a1.22,1.22,0,0,0-1,.58Z"/><polygon class="cls-1" points="86.5 65.64 91.13 62.98 95.75 65.64 95.75 70.98 91.13 73.65 86.5 70.98 86.5 65.64"/><path class="cls-3" d="M92.53,67.51s0-.79-.32-1a1.51,1.51,0,0,0-1-.37,1.77,1.77,0,0,0-1.16.5,1.1,1.1,0,0,0-.2,1,1.83,1.83,0,0,0,.26.53l-.47,0v.5h.65a.47.47,0,0,1,.11.42,1.46,1.46,0,0,1-.71.86c.1.21.26.48.26.48a2.91,2.91,0,0,1,.71-.2,3.22,3.22,0,0,1,1.06.2.73.73,0,0,0,.9-.28l-.32-.65s-.19.25-.38.25a3.75,3.75,0,0,1-.77-.15.8.8,0,0,0-.31,0,1.81,1.81,0,0,0,.16-.34.71.71,0,0,0,0-.56h.67v-.5h-.76a2.64,2.64,0,0,1-.32-.82c0-.25.25-.44.49-.5a.69.69,0,0,1,.67.22.62.62,0,0,1,.06.41Z"/><path class="cls-3" d="M70.28,30.74l-2.18-.07s0,.1-.07.3l-2-.21s-3.24,14.83-7.89,42.36-3.58,55.67-3.58,55.67l1.7.37v.18l1.47.14h0l1.37.13S59,98.56,62.6,74.26,70.28,30.74,70.28,30.74Z"/><path class="cls-3" d="M53.21,113.55c-3-5.94-5.85-4.61-7.68-7.45s-1.89-8.84-6-12.21A13.8,13.8,0,0,0,38,92.78c-2.06-1.48-3-1.59-5.39-3.17a13.15,13.15,0,0,1-2.44-3.34c-3.1-5.62-6.38-1.21-9.54-.46s-17,21-17,21l.23-.17v0c-.59.61-1.09,1.12-1.45,1.51.65-.67,1.31-1.31,2-1.91A62.89,62.89,0,0,1,19.64,99c3.05-1.13,10.15-2.57,12.85-2.5h0a7.37,7.37,0,0,1,3.39,2.73c5.85,8.62,15,21.83,18.65,29.6.85,1.81,4,1.26,4.54.81C59.07,129.64,56.25,119.5,53.21,113.55Z"/><path class="cls-3" d="M81.89,45.14a2.16,2.16,0,0,0-1.75-2.49h0a2.07,2.07,0,0,0,.21-.65,2.14,2.14,0,0,0-1.74-2.49,2.07,2.07,0,0,0-.66,0l0-.14A2.16,2.16,0,0,0,76.6,37a2.21,2.21,0,0,0,.77-4,2.22,2.22,0,0,0,.82-1.41,2.14,2.14,0,0,0-1.75-2.49,2.07,2.07,0,0,0-2,.88c0-.2.07-.42.12-.64a2.24,2.24,0,0,0,1.55-1.13,2.27,2.27,0,0,0,.22-.65,2.23,2.23,0,0,0,1.18-1.61,2.27,2.27,0,0,0,1.17-1,2.07,2.07,0,0,0,.18-.47,2.2,2.2,0,0,0,.43-4.35H79a2.18,2.18,0,0,0,.56-1.16,2.16,2.16,0,0,0-1.75-2.5,2.69,2.69,0,0,0-.49,0l-.06-.24a3.17,3.17,0,0,0,.12-.44,2.24,2.24,0,0,0-.57-1.85s0-.08,0-.13A2.18,2.18,0,0,0,78.22,12,2.15,2.15,0,0,0,76.46,9.5a2,2,0,0,0-1.6.44l-.06-.06a2.23,2.23,0,0,0,1-1.55,2.16,2.16,0,0,0-1.75-2.49h-.28l.06-.24a2.16,2.16,0,0,0-1.71-2.48,2.19,2.19,0,0,0-.61-.52,2.13,2.13,0,0,0-2.66.56,2.08,2.08,0,0,0-.91-.4A2.15,2.15,0,0,0,65.54,4.6a2.07,2.07,0,0,0,.06,1A1.89,1.89,0,0,0,65,5.34a2.15,2.15,0,0,0-2.42,1.84,2.2,2.2,0,0,0,1.13,2.28,2.08,2.08,0,0,0-1.77.87,1.53,1.53,0,0,0-.29-.07A2.14,2.14,0,0,0,59.2,12.1a2.06,2.06,0,0,0,.06,1,2.18,2.18,0,0,0-.62-.22,2.15,2.15,0,0,0-2.42,1.85A2.18,2.18,0,0,0,57.35,17a2.19,2.19,0,0,0-.54,4.31,2.26,2.26,0,0,0-.37.92A2.23,2.23,0,0,0,56.91,24a2.09,2.09,0,0,0-.11.43,2.37,2.37,0,0,0,.06,1,2.08,2.08,0,0,0-.62-.22A2.15,2.15,0,0,0,53.83,27a2.21,2.21,0,0,0,.8,2.07,1.62,1.62,0,0,0,0,.22,2.07,2.07,0,0,0-1.08.47,2.21,2.21,0,0,0-.77,4.12,2.11,2.11,0,0,0-1.76.88l-.29-.08a2.2,2.2,0,0,0-2.36,2.8,1.9,1.9,0,0,0-.62-.21,2.15,2.15,0,0,0-2.42,1.84,2.18,2.18,0,0,0,1.12,2.28,2.19,2.19,0,0,0-.54,4.32,2.35,2.35,0,0,0-.37.92A2.19,2.19,0,0,0,46,48.35,2.26,2.26,0,0,0,46,49.74a2.07,2.07,0,0,0-3,1.63,2.18,2.18,0,0,0,1.13,2.27A2.19,2.19,0,0,0,43.51,58,2.18,2.18,0,0,0,43.27,60a.5.5,0,0,0-.13,0,2.15,2.15,0,0,0-2.42,1.84,2.18,2.18,0,0,0,1.12,2.27A2.16,2.16,0,0,0,39.67,66a2.14,2.14,0,0,0,1.65,2.46,2.12,2.12,0,0,0-.37.93,2.14,2.14,0,0,0,1.74,2.49,2.09,2.09,0,0,0,1.8-.62l.09.16a2.24,2.24,0,0,0-.44,1,2.16,2.16,0,0,0,1.65,2.47,2.41,2.41,0,0,0-.37.92,2.16,2.16,0,0,0,1.75,2.49,2,2,0,0,0,1.3-.24,2,2,0,0,0,1,.51,2.35,2.35,0,0,0-.37.92A2.16,2.16,0,0,0,50.82,82a2.09,2.09,0,0,0,1.72-.53l.13.14a2.4,2.4,0,0,0-.39,1A2.14,2.14,0,0,0,53.93,85a2.19,2.19,0,0,0,1.38,3.41,2.07,2.07,0,0,0,1.8-.61A2.07,2.07,0,0,0,58.67,89h0a2.08,2.08,0,0,0,4,0,2.16,2.16,0,0,0,1.83-1.84,2.48,2.48,0,0,0,0-.77,2.15,2.15,0,0,0,2.29-1.84,2.4,2.4,0,0,0,0-.89,2.21,2.21,0,0,0,2-1.16,2.53,2.53,0,0,0,.18-.42,2.13,2.13,0,0,0,2.19-1.53,2.33,2.33,0,0,0,.07-.25.19.19,0,0,1,0-.07v0a2.39,2.39,0,0,0,0-.53l.28-.27a2,2,0,0,0,.49.14,2.16,2.16,0,0,0,2.42-1.84,2.74,2.74,0,0,0,0-.64,1.94,1.94,0,0,0,.79.3,2.16,2.16,0,0,0,2.42-1.84A2.21,2.21,0,0,0,77.38,74,2.21,2.21,0,0,0,79,72.22a2.15,2.15,0,0,0-1.49-2.42l.06-.08A2.2,2.2,0,0,0,78,65.37h0a1.55,1.55,0,0,0,.07-.31,2.18,2.18,0,0,0-.12-1.14,2.88,2.88,0,0,0,.23-.34,1.45,1.45,0,0,0,.09-.22,2.22,2.22,0,0,0,1.16-3.8,2.32,2.32,0,0,0,0-.46,2.22,2.22,0,0,0,1.08-1.58A2.16,2.16,0,0,0,78.7,55a1.94,1.94,0,0,0-.68,0L78,54.88a2.23,2.23,0,0,0-.19-.77A2.2,2.2,0,0,0,78.36,50l.09-.09a2,2,0,0,0,.86.36,2.16,2.16,0,0,0,2.42-1.85,2.22,2.22,0,0,0-.62-1.91A2.23,2.23,0,0,0,81.89,45.14Zm-33.38-.31s0,.08,0,.12l-.2-.1Zm10.9-24.39s0,.07,0,.11a1.76,1.76,0,0,0-.2-.09ZM46,57.15l0,0h0Zm-1,4.41-.06,0a.94.94,0,0,0,0-.09ZM66.69,7l0-.09.09,0Zm-6.34,7.5,0-.08.09,0ZM58,26.74l0-.08.09,0ZM49.45,38.86a.32.32,0,0,1,0-.09l.1,0ZM47.06,51.14l0-.09.09.05ZM43.92,67.58a.5.5,0,0,0,0,.12l-.22-.1Z"/><path class="cls-2" d="M69.56,129.87l1.61.51a3.59,3.59,0,0,1-1.23,2,3.47,3.47,0,0,1-2.18.65,3.52,3.52,0,0,1-2.68-1.11,4.26,4.26,0,0,1-1-3,4.48,4.48,0,0,1,1.06-3.18,3.62,3.62,0,0,1,2.77-1.13,3.41,3.41,0,0,1,2.44.89,3.1,3.1,0,0,1,.84,1.51l-1.63.39A1.7,1.7,0,0,0,67.78,126a1.85,1.85,0,0,0-1.48.65,3.2,3.2,0,0,0-.57,2.12,3.45,3.45,0,0,0,.56,2.21,1.83,1.83,0,0,0,1.45.66,1.67,1.67,0,0,0,1.14-.42A2.43,2.43,0,0,0,69.56,129.87Z"/><path class="cls-2" d="M72.21,129.83a3.28,3.28,0,0,1,.38-1.51,2.7,2.7,0,0,1,1.1-1.12,3.18,3.18,0,0,1,1.58-.38,3,3,0,0,1,2.2.87,3,3,0,0,1,.86,2.21,3,3,0,0,1-.87,2.23,2.91,2.91,0,0,1-2.18.89,3.38,3.38,0,0,1-1.56-.37,2.62,2.62,0,0,1-1.13-1.08A3.7,3.7,0,0,1,72.21,129.83Zm1.61.09a2,2,0,0,0,.42,1.35,1.33,1.33,0,0,0,1,.47,1.32,1.32,0,0,0,1-.47,2,2,0,0,0,.42-1.36,1.92,1.92,0,0,0-.42-1.34,1.29,1.29,0,0,0-1-.47,1.3,1.3,0,0,0-1,.47A2,2,0,0,0,73.82,129.92Z"/><path class="cls-2" d="M85,132.88H83.39v-3a4.64,4.64,0,0,0-.1-1.25.92.92,0,0,0-.33-.44,1,1,0,0,0-.54-.15,1.23,1.23,0,0,0-.73.22,1.14,1.14,0,0,0-.45.59,5.17,5.17,0,0,0-.12,1.37v2.68H79.55V127H81v.87a2.38,2.38,0,0,1,2-1,2.47,2.47,0,0,1,1,.18,1.75,1.75,0,0,1,.65.48,1.66,1.66,0,0,1,.3.66A4.78,4.78,0,0,1,85,129.2Z"/><path class="cls-2" d="M92,132.88H90.38v-3a4.64,4.64,0,0,0-.1-1.25.86.86,0,0,0-.33-.44,1,1,0,0,0-.54-.15,1.23,1.23,0,0,0-.73.22,1.14,1.14,0,0,0-.45.59,5.17,5.17,0,0,0-.12,1.37v2.68H86.54V127H88v.87a2.38,2.38,0,0,1,2-1,2.47,2.47,0,0,1,1,.18,1.75,1.75,0,0,1,.65.48,1.53,1.53,0,0,1,.3.66A4.78,4.78,0,0,1,92,129.2Z"/><path class="cls-2" d="M97,131l1.56.26a2.54,2.54,0,0,1-1,1.31A2.78,2.78,0,0,1,96,133a2.67,2.67,0,0,1-2.29-1,3.4,3.4,0,0,1-.58-2,3.26,3.26,0,0,1,.77-2.31,2.51,2.51,0,0,1,2-.83,2.64,2.64,0,0,1,2.09.87,3.89,3.89,0,0,1,.73,2.68H94.7a1.55,1.55,0,0,0,.38,1.09,1.17,1.17,0,0,0,.9.38.92.92,0,0,0,.62-.2A1.24,1.24,0,0,0,97,131Zm.09-1.59a1.53,1.53,0,0,0-.35-1,1.12,1.12,0,0,0-.82-.35,1.1,1.1,0,0,0-.85.37,1.49,1.49,0,0,0-.33,1Z"/><path class="cls-2" d="M105.08,128.7l-1.54.28a1.12,1.12,0,0,0-.36-.69,1,1,0,0,0-.72-.24,1.16,1.16,0,0,0-.93.41,2,2,0,0,0-.35,1.35,2.36,2.36,0,0,0,.35,1.49,1.18,1.18,0,0,0,1,.44,1.08,1.08,0,0,0,.74-.26,1.51,1.51,0,0,0,.4-.87l1.54.26a2.76,2.76,0,0,1-.92,1.61,2.85,2.85,0,0,1-1.83.54,2.72,2.72,0,0,1-2.07-.82,3.74,3.74,0,0,1,0-4.57,2.78,2.78,0,0,1,2.1-.81,2.85,2.85,0,0,1,1.72.46A2.55,2.55,0,0,1,105.08,128.7Z"/><path class="cls-2" d="M109,127v1.25h-1.07v2.39a6.1,6.1,0,0,0,0,.85.35.35,0,0,0,.14.2.46.46,0,0,0,.27.08,2.1,2.1,0,0,0,.63-.15l.13,1.21a3,3,0,0,1-1.24.24,2,2,0,0,1-.76-.14,1.11,1.11,0,0,1-.5-.37,1.41,1.41,0,0,1-.22-.62,6.69,6.69,0,0,1-.05-1.1V128.2h-.72V127h.72v-1.18l1.57-.92V127Z"/><path class="cls-2" d="M110.08,126.15v-1.46h1.57v1.46Zm0,6.73V127h1.57v5.93Z"/><path class="cls-2" d="M118.66,132.88h-1.57v-3a4.64,4.64,0,0,0-.1-1.25.92.92,0,0,0-.33-.44,1,1,0,0,0-.54-.15,1.23,1.23,0,0,0-.73.22,1.14,1.14,0,0,0-.45.59,5.17,5.17,0,0,0-.12,1.37v2.68h-1.57V127h1.46v.87a2.45,2.45,0,0,1,2.9-.82,1.71,1.71,0,0,1,.66.48,1.66,1.66,0,0,1,.3.66,4.78,4.78,0,0,1,.09,1.06Z"/><path class="cls-2" d="M120.11,133.28l1.79.21a.59.59,0,0,0,.21.43,1.11,1.11,0,0,0,.7.17,1.84,1.84,0,0,0,.92-.18.81.81,0,0,0,.32-.4,2.35,2.35,0,0,0,.07-.72v-.87a2.13,2.13,0,0,1-1.78,1,2.17,2.17,0,0,1-1.89-1,3.38,3.38,0,0,1-.55-2,3.28,3.28,0,0,1,.72-2.28,2.32,2.32,0,0,1,1.78-.78,2.18,2.18,0,0,1,1.82,1V127h1.47v5.32a5.57,5.57,0,0,1-.17,1.58,2,2,0,0,1-.49.81,2.14,2.14,0,0,1-.83.46,4.18,4.18,0,0,1-1.33.17,3.46,3.46,0,0,1-2.14-.51,1.64,1.64,0,0,1-.63-1.31A1.28,1.28,0,0,1,120.11,133.28Zm1.4-3.49a2.14,2.14,0,0,0,.37,1.39,1.13,1.13,0,0,0,.9.44,1.24,1.24,0,0,0,1-.45,2,2,0,0,0,.4-1.34,2.11,2.11,0,0,0-.38-1.37,1.24,1.24,0,0,0-1-.44,1.13,1.13,0,0,0-.93.44A2,2,0,0,0,121.51,129.79Z"/><path class="cls-2" d="M130.45,132.88v-8.19h5.61v1.39h-4V128h3.42v1.38H132.1v3.48Z"/><path class="cls-2" d="M138.59,128.76l-1.43-.26a2.24,2.24,0,0,1,.83-1.27,3,3,0,0,1,1.74-.41,3.93,3.93,0,0,1,1.57.24,1.58,1.58,0,0,1,.72.64,3.19,3.19,0,0,1,.21,1.4l0,1.83a6.33,6.33,0,0,0,.08,1.16,3.14,3.14,0,0,0,.28.79H141c0-.1-.09-.25-.15-.46l-.06-.18a2.78,2.78,0,0,1-.86.58,2.45,2.45,0,0,1-1,.2,2,2,0,0,1-1.44-.5,1.77,1.77,0,0,1-.29-2.15,1.58,1.58,0,0,1,.67-.61,5.17,5.17,0,0,1,1.25-.36,8.43,8.43,0,0,0,1.53-.39v-.15a.81.81,0,0,0-.23-.65,1.31,1.31,0,0,0-.84-.19,1.1,1.1,0,0,0-.65.16A1.07,1.07,0,0,0,138.59,128.76Zm2.1,1.27c-.2.07-.52.15-1,.25a2.77,2.77,0,0,0-.85.27.64.64,0,0,0-.31.55.75.75,0,0,0,.25.57.84.84,0,0,0,.62.24,1.31,1.31,0,0,0,.81-.28,1,1,0,0,0,.38-.52,3.13,3.13,0,0,0,.06-.76Z"/><path class="cls-2" d="M145.28,132.88h-1.57V127h1.46v.84a2.39,2.39,0,0,1,.67-.78,1.22,1.22,0,0,1,.68-.19,2,2,0,0,1,1,.29l-.49,1.37a1.41,1.41,0,0,0-.74-.26.85.85,0,0,0-.56.19,1.28,1.28,0,0,0-.36.65,9.22,9.22,0,0,0-.13,2Z"/><path class="cls-2" d="M148.11,127h1.45v.81a2.33,2.33,0,0,1,1.85-.94,2,2,0,0,1,1,.23,1.82,1.82,0,0,1,.69.71,2.75,2.75,0,0,1,.84-.71,2,2,0,0,1,1-.23,2.11,2.11,0,0,1,1.1.26,1.62,1.62,0,0,1,.68.78,3.33,3.33,0,0,1,.16,1.23v3.79h-1.57v-3.39a2.5,2.5,0,0,0-.16-1.14.75.75,0,0,0-.67-.33,1,1,0,0,0-.62.2,1.14,1.14,0,0,0-.42.59,4.08,4.08,0,0,0-.13,1.22v2.85H151.7v-3.25a5,5,0,0,0-.08-1.12.8.8,0,0,0-.26-.37.85.85,0,0,0-.48-.12,1.13,1.13,0,0,0-.65.19,1,1,0,0,0-.42.57,4.24,4.24,0,0,0-.13,1.22v2.88h-1.57Z"/><path class="cls-2" d="M161.84,131l1.57.26a2.55,2.55,0,0,1-1,1.31,2.76,2.76,0,0,1-1.62.45,2.65,2.65,0,0,1-2.29-1,3.34,3.34,0,0,1-.59-2,3.3,3.3,0,0,1,.77-2.31,2.51,2.51,0,0,1,1.95-.83,2.64,2.64,0,0,1,2.09.87,3.89,3.89,0,0,1,.73,2.68h-3.93a1.6,1.6,0,0,0,.38,1.09,1.17,1.17,0,0,0,.9.38.91.91,0,0,0,.62-.2A1.18,1.18,0,0,0,161.84,131Zm.09-1.59a1.53,1.53,0,0,0-.35-1,1.1,1.1,0,0,0-.81-.35,1.07,1.07,0,0,0-.85.37,1.4,1.4,0,0,0-.33,1Z"/><path class="cls-2" d="M166.27,132.88H164.7V127h1.46v.84a2.39,2.39,0,0,1,.68-.78,1.19,1.19,0,0,1,.67-.19,2,2,0,0,1,1,.29l-.49,1.37a1.38,1.38,0,0,0-.74-.26.82.82,0,0,0-.55.19,1.15,1.15,0,0,0-.36.65,9,9,0,0,0-.14,2Z"/><path class="cls-2" d="M168.67,131.19l1.58-.24a1.1,1.1,0,0,0,.41.7,1.42,1.42,0,0,0,.86.23,1.53,1.53,0,0,0,.91-.22.49.49,0,0,0,.21-.42.44.44,0,0,0-.11-.3,1.34,1.34,0,0,0-.53-.2,8.59,8.59,0,0,1-2.41-.77,1.51,1.51,0,0,1-.7-1.33,1.63,1.63,0,0,1,.61-1.3,2.83,2.83,0,0,1,1.89-.52,3.36,3.36,0,0,1,1.81.39,2,2,0,0,1,.81,1.18l-1.48.27a.88.88,0,0,0-.36-.53,1.32,1.32,0,0,0-.75-.19,1.65,1.65,0,0,0-.89.18.37.37,0,0,0-.18.32.35.35,0,0,0,.15.28,5.94,5.94,0,0,0,1.47.44,4.4,4.4,0,0,1,1.75.7,1.45,1.45,0,0,1,.5,1.17,1.78,1.78,0,0,1-.69,1.4,3,3,0,0,1-2,.59,3.37,3.37,0,0,1-1.92-.49A2.32,2.32,0,0,1,168.67,131.19Z"/><path class="cls-2" d="M245.83,54.42l-.15-23.73-11.31,19h-7.74L215.32,31.5V54.42h-16V2.34h14.43l17,27.75L247.24,2.34h14.43l.15,52.08Z"/><path class="cls-2" d="M305.79,45.34H286l-3.5,9.08H264.65L287.41,2.34h17.26l22.77,52.08H309.29ZM301,32.69,295.9,19.6l-5.06,13.09Z"/><path class="cls-2" d="M337.08,54.16A33.78,33.78,0,0,1,327,50.25l5.66-12.79A36.14,36.14,0,0,0,341,40.92a32.93,32.93,0,0,0,8.86,1.3,13.72,13.72,0,0,0,5.2-.71,2.27,2.27,0,0,0,1.56-2.12c0-1.09-.68-1.91-2-2.45a43.11,43.11,0,0,0-6.73-1.79,75.45,75.45,0,0,1-10.05-2.72,17,17,0,0,1-7-4.76q-3-3.3-3-9a15.41,15.41,0,0,1,2.76-8.93,18.06,18.06,0,0,1,8.22-6.32,34.07,34.07,0,0,1,13.28-2.31A48,48,0,0,1,362.59,2.3a33,33,0,0,1,9.12,3.39l-5.28,12.72a32.3,32.3,0,0,0-14.51-3.87c-4.52,0-6.77,1.09-6.77,3.28q0,1.56,2,2.34a42,42,0,0,0,6.62,1.67,68.39,68.39,0,0,1,10,2.57,17.53,17.53,0,0,1,7.11,4.72c2,2.19,3,5.16,3,8.93a15.31,15.31,0,0,1-2.75,8.89A18.6,18.6,0,0,1,363,53.27a33.75,33.75,0,0,1-13.28,2.34A54.43,54.43,0,0,1,337.08,54.16Z"/><path class="cls-2" d="M389.71,16H374.46V2.34h48.06V16H407.27V54.42H389.71Z"/><path class="cls-2" d="M470.36,41.18V54.42h-43.3V2.34h42.33V15.58H444.32v6.1h22V34.33h-22v6.85Z"/><path class="cls-2" d="M499.45,41.32h-4.76v13.1H477.13V2.34H502.2a30.68,30.68,0,0,1,12.57,2.38A18.52,18.52,0,0,1,523,11.57,18.6,18.6,0,0,1,525.93,22a18.4,18.4,0,0,1-2.53,9.75,17.79,17.79,0,0,1-7.29,6.62l10.94,16.07H508.3Zm7-23.84a7.78,7.78,0,0,0-5.35-1.6h-6.4v12.2h6.4a7.78,7.78,0,0,0,5.35-1.6,5.71,5.71,0,0,0,1.79-4.5A5.74,5.74,0,0,0,506.44,17.48Z"/><path class="cls-2" d="M199.33,79.8H225A35.39,35.39,0,0,1,240.36,83a24.08,24.08,0,0,1,10.34,9,25.53,25.53,0,0,1,3.68,13.83,25.57,25.57,0,0,1-3.68,13.84,24.08,24.08,0,0,1-10.34,9A35.39,35.39,0,0,1,225,131.87H199.33Zm24.92,38.38a12.53,12.53,0,0,0,9-3.23q3.39-3.24,3.39-9.12t-3.39-9.11a12.53,12.53,0,0,0-9-3.24h-7.36v24.7Z"/><path class="cls-2" d="M295.52,122.8H275.73l-3.49,9.07H254.38L277.15,79.8h17.26l22.76,52.07H299Zm-4.83-12.65-5.06-13.09-5.06,13.09Z"/><path class="cls-2" d="M328.71,93.41H313.46V79.8h48.06V93.41H346.26v38.46H328.71Z"/><path class="cls-2" d="M398.94,122.8H379.15l-3.5,9.07H357.8L380.56,79.8h17.26l22.77,52.07H402.44Zm-4.84-12.65L389,97.06,384,110.15Z"/></svg>