<?xml version="1.0" encoding="utf-8"?>
<!-- Generator: Adobe Illustrator 16.0.0, SVG Export Plug-In . SVG Version: 6.00 Build 0)  -->
<!DOCTYPE svg PUBLIC "-//W3C//DTD SVG 1.1//EN" "http://www.w3.org/Graphics/SVG/1.1/DTD/svg11.dtd">
<svg version="1.1" id="Layer_1" xmlns="http://www.w3.org/2000/svg" xmlns:xlink="http://www.w3.org/1999/xlink" x="0px" y="0px"
	 width="246px" height="188px" viewBox="0 0 246 188" enable-background="new 0 0 246 188" xml:space="preserve">
<g>
	<g>
		<polygon fill="none" stroke="#FFFFFF" stroke-miterlimit="10" points="135.195,9.824 141.49,6.189 147.781,9.824 147.781,17.092 
			141.49,20.729 135.195,17.092 		"/>
		<path fill="#FFFFFF" d="M143.855,15.437c0,0.434-0.148,0.799-0.463,1.113c-0.311,0.311-0.682,0.465-1.111,0.465h-1.586
			c-0.432,0-0.801-0.154-1.115-0.457c-0.305-0.316-0.461-0.688-0.461-1.121v-3.953c0-0.433,0.156-0.806,0.461-1.114
			c0.314-0.31,0.684-0.464,1.115-0.464h1.586c0.43,0,0.801,0.154,1.111,0.464c0.314,0.314,0.463,0.682,0.463,1.114V15.437
			L143.855,15.437z M142.271,11.351c-0.113-0.432-0.373-0.65-0.781-0.65c-0.221,0-0.408,0.076-0.559,0.227
			c-0.156,0.153-0.236,0.341-0.236,0.557v2.688L142.271,11.351L142.271,11.351z M142.281,15.437v-2.688l-1.566,2.811
			c0.082,0.445,0.346,0.659,0.775,0.659c0.221,0,0.404-0.073,0.561-0.225C142.205,15.839,142.281,15.651,142.281,15.437z"/>
	</g>
	<g>
		<polygon fill="none" stroke="#FFFFFF" stroke-miterlimit="10" points="148.094,48.111 154.385,44.479 160.684,48.111 
			160.684,55.381 154.385,59.019 148.094,55.381 		"/>
		<polygon fill="#FFFFFF" points="156.975,55.066 156.627,55.066 152.535,51.382 152.535,55.066 151.797,55.066 151.797,48.431 
			152.143,48.431 156.236,52.118 156.236,48.431 156.975,48.431 		"/>
	</g>
	<g>
		<polygon fill="none" stroke="#FFFFFF" stroke-miterlimit="10" points="149.541,75.782 155.842,72.146 162.125,75.782 
			162.125,83.052 155.842,86.683 149.541,83.052 		"/>
		<path fill-rule="evenodd" clip-rule="evenodd" fill="#FFFFFF" d="M157.768,76.028h-4.889l0.631,0.811h2.262
			c0.115,0.141,0.24,0.332,0.324,0.547h-2.74l0.611,0.817h2.199c-0.018,0.077-0.037,0.153-0.07,0.236
			c-0.246,0.575-0.65,0.88-0.939,1.029l-0.324-0.405h-1.043l2.926,3.736h1.053l-2.035-2.602c0.346-0.268,1.268-1.063,1.346-1.995
			h1.711l-0.549-0.817h-1.246c-0.055-0.215-0.125-0.387-0.199-0.547h1.531L157.768,76.028z"/>
	</g>
	<g>
		<polygon fill="none" stroke="#FFFFFF" stroke-miterlimit="10" points="170.059,83.231 176.361,79.601 182.65,83.231 
			182.65,90.502 176.361,94.134 170.059,90.502 		"/>
		<path fill="#FFFFFF" d="M176.055,88.912v-1.816c-0.563-0.163-0.982-0.405-1.252-0.733c-0.26-0.336-0.398-0.729-0.398-1.195
			c0-0.475,0.156-0.875,0.451-1.195c0.307-0.317,0.701-0.506,1.199-0.559v-0.427h0.627v0.427c0.461,0.059,0.828,0.217,1.1,0.477
			c0.27,0.254,0.441,0.601,0.512,1.039l-1.094,0.141c-0.064-0.346-0.236-0.573-0.518-0.701v1.701
			c0.693,0.182,1.17,0.431,1.416,0.729c0.254,0.297,0.377,0.68,0.377,1.147c0,0.524-0.154,0.966-0.467,1.326
			c-0.324,0.359-0.764,0.578-1.326,0.661v0.806h-0.627V89.95c-0.504-0.061-0.902-0.244-1.215-0.559
			c-0.316-0.309-0.516-0.75-0.605-1.318l1.133-0.127c0.045,0.232,0.135,0.43,0.264,0.602C175.758,88.72,175.9,88.841,176.055,88.912
			L176.055,88.912z M176.055,84.362c-0.172,0.057-0.299,0.156-0.414,0.293c-0.094,0.139-0.145,0.292-0.145,0.456
			c0,0.157,0.037,0.302,0.135,0.429c0.098,0.132,0.236,0.238,0.424,0.325V84.362L176.055,84.362z M176.682,88.974
			c0.219-0.038,0.391-0.139,0.531-0.299c0.135-0.162,0.201-0.351,0.201-0.568c0-0.196-0.053-0.36-0.17-0.506
			c-0.111-0.135-0.301-0.243-0.563-0.316V88.974z"/>
	</g>
	<g>
		<polygon fill="none" stroke="#FFFFFF" stroke-miterlimit="10" points="136.344,95.829 142.641,92.198 148.934,95.829 
			148.934,103.092 142.641,106.729 136.344,103.092 		"/>
		<path fill-rule="evenodd" clip-rule="evenodd" fill="#FFFFFF" d="M145.201,101.863c-0.027,0.074-0.049,0.047-0.104,0.189
			l0.168,0.061c0.076,0.02,0.283-0.215,0.504-0.283c0.066,0.078,0.098,0.219,0.184,0.246c0.236,0.08,0.316-0.051,0.205,0.297
			c0.047,0.053,0.07,0.098,0.178,0.131c0.09,0.033,0.182-0.057,0.258-0.084c0.184-0.096,0.145,0.006,0.295-0.041
			c0.178-0.055,0.135-0.34,0.195-0.555c0.127-0.459-0.125-0.7-0.355-1.003c-0.076-0.084-0.92-0.623-1.059-0.674
			c-0.459-0.172-0.953-0.316-1.422-0.471c-1.148-0.391-1.676-0.568-2.402-1.182c-0.383-0.313-0.598-0.354-0.807-0.809
			c-0.119-0.242-0.236-0.736-0.619-0.868c-0.188-0.067-0.273-0.055-0.408-0.102c-0.211-0.061-0.225-0.188-0.307-0.208l-0.037-0.018
			c-0.125-0.044-0.322,0.018-0.43,0.041c-0.064-0.041-0.082-0.064-0.184-0.102c-0.215-0.067-0.564,0.118-0.656,0.381l-0.053,0.168
			c-0.061,0.18-0.076,0.338,0,0.445l0.402-0.143l-0.006,0.092l0.059,0.031c-0.182,0.289-0.58,0.369-0.639,0.449l0.172,0.059
			c0.188,0.064,0.387-0.094,0.688-0.061l0.027,0.029l-0.59,0.404l0.014,0.051l0.883-0.121l0.08,0.078l0.037,0.02l-0.586,0.643
			c0.346,0.107,0.619-0.316,0.895-0.223c0.02,0.012,0.408,0.631,0.822,0.766c-0.055,0.262,0.102,0.256,0.059,0.393l-0.01,0.037
			c-0.033,0.102-0.061,0.115-0.104,0.186c0.021,0.07,0.018,0.117,0.098,0.148c0.09,0.033,0.107,0.016,0.184,0.023
			c0.117-0.289,0.213-0.242,0.439-0.307l0.322,0.373c-0.049,0.166-0.176,0.352-0.021,0.408l0.066,0.018
			c0.203,0.074,0.182-0.426,0.617-0.273c0.338,0.111,0.076,0.582,0.23,0.639l0.039,0.014c0.09,0.027,0.15-0.039,0.215-0.084
			l0.055-0.168c0.037-0.027,0.117-0.107,0.176-0.084c0.473,0.158,0.145,0.528,0.328,0.589l0.033,0.016
			c0.074,0.021,0.08-0.006,0.156-0.027c0.059-0.173,0.135-0.401,0.307-0.349c0.16,0.059,0.283,0.264,0.221,0.45l-0.033,0.105
			l0.096,0.033c0.082,0.027,0.082,0,0.162-0.023c0.049-0.145,0.141-0.362,0.258-0.323c0.166,0.05,0.242,0.155,0.193,0.323
			l-0.059,0.172l0.102,0.029c0.109,0.041,0.258-0.209,0.328-0.299C145.211,101.582,145.256,101.689,145.201,101.863z"/>
	</g>
	<g>
		<polygon fill="none" stroke="#FFFFFF" stroke-miterlimit="10" points="148.74,107.199 155.037,103.566 161.334,107.199 
			161.334,114.465 155.037,118.097 148.74,114.465 		"/>
		<path fill="#FFFFFF" d="M154.445,113.543h-1.82c-0.486,0-0.924-0.176-1.273-0.529c-0.355-0.359-0.531-0.777-0.531-1.279v-1.809
			c0-0.494,0.176-0.918,0.531-1.271c0.35-0.35,0.787-0.535,1.273-0.535h1.219c0.145,0,0.285,0.066,0.402,0.195
			c0.129,0.121,0.199,0.262,0.199,0.41v0.604h-0.602c0-0.166-0.061-0.311-0.18-0.428c-0.117-0.121-0.256-0.176-0.43-0.176
			c-0.334,0-0.619,0.115-0.855,0.354c-0.236,0.236-0.354,0.525-0.354,0.848v1.809c0,0.336,0.117,0.619,0.354,0.855
			c0.236,0.232,0.521,0.354,0.855,0.354h1.211V113.543L154.445,113.543z M159.246,113.543h-1.199v-0.902
			c-0.086,0.336-0.219,0.572-0.402,0.703c-0.18,0.135-0.445,0.199-0.803,0.199c-0.332,0-0.615-0.115-0.857-0.352
			c-0.227-0.242-0.35-0.525-0.35-0.854v-3.01h1.207v3.01c0,0.396,0.098,0.605,0.303,0.605c0.27,0,0.496-0.119,0.668-0.33
			c0.16-0.186,0.234-0.377,0.234-0.58v-2.705h1.199V113.543z"/>
	</g>
	<g>
		<polygon fill="none" stroke="#FFFFFF" stroke-miterlimit="10" points="170.645,109.152 176.934,105.516 183.236,109.152 
			183.236,116.419 176.934,120.052 170.645,116.419 		"/>
		<path fill="#FFFFFF" d="M176.334,115.491h-3.602v-0.604l2.404-4.204h-2.404v-0.602h3.602v0.602l-2.406,4.204h2.406V115.491
			L176.334,115.491z M181.148,115.491h-1.199v-3.013c0-0.396-0.104-0.596-0.303-0.596c-0.271,0-0.494,0.104-0.676,0.322
			c-0.156,0.186-0.232,0.375-0.232,0.576v2.71h-1.199v-4.214h1.199v0.902c0.09-0.334,0.223-0.57,0.404-0.701
			c0.172-0.135,0.447-0.201,0.807-0.201c0.334,0,0.613,0.121,0.85,0.35c0.225,0.238,0.35,0.518,0.35,0.852V115.491z"/>
	</g>
	<polygon fill="none" stroke="#FFFFFF" stroke-miterlimit="10" points="99.947,10.644 106.242,7.012 112.535,10.644 112.535,17.911 
		106.242,21.546 99.947,17.911 	"/>
	<polygon fill="none" stroke="#FFFFFF" stroke-miterlimit="10" points="106.125,19.258 112.416,15.624 118.711,19.258 
		118.711,26.527 112.416,30.157 106.125,26.527 	"/>
	<polygon fill="none" stroke="#FFFFFF" stroke-miterlimit="10" points="123.82,21.404 130.117,17.767 136.414,21.404 
		136.414,28.669 130.117,32.301 123.82,28.669 	"/>
	<polygon fill="none" stroke="#FFFFFF" stroke-miterlimit="10" points="170.877,10.369 177.176,6.736 183.471,10.369 
		183.471,17.639 177.176,21.268 170.877,17.639 	"/>
	<polygon fill="none" stroke="#FFFFFF" stroke-miterlimit="10" points="120.164,34.682 126.461,31.048 132.752,34.682 
		132.752,41.95 126.461,45.585 120.164,41.95 	"/>
	<polygon fill="none" stroke="#FFFFFF" stroke-miterlimit="10" points="103.248,41.696 109.545,38.062 115.836,41.696 
		115.836,48.968 109.545,52.6 103.248,48.968 	"/>
	<polygon fill="none" stroke="#FFFFFF" stroke-miterlimit="10" points="168.484,28.425 174.771,24.792 181.074,28.425 
		181.074,35.694 174.771,39.329 168.484,35.694 	"/>
	<polygon fill="none" stroke="#FFFFFF" stroke-miterlimit="10" points="195.934,10.644 202.232,7.012 208.523,10.644 
		208.523,17.911 202.232,21.546 195.934,17.911 	"/>
	<polygon fill="none" stroke="#FFFFFF" stroke-miterlimit="10" points="202.385,13.901 208.67,10.269 214.961,13.901 
		214.961,21.172 208.67,24.806 202.385,21.172 	"/>
	<polygon fill="none" stroke="#FFFFFF" stroke-miterlimit="10" points="210.184,27.834 216.486,24.196 222.771,27.834 
		222.771,35.104 216.486,38.737 210.184,35.104 	"/>
	<polygon fill="none" stroke="#FFFFFF" stroke-miterlimit="10" points="189.83,29.45 196.123,25.814 202.414,29.45 202.414,36.718 
		196.123,40.349 189.83,36.718 	"/>
	<polygon fill="none" stroke="#FFFFFF" stroke-miterlimit="10" points="191.645,47.404 197.938,43.77 204.223,47.404 204.223,54.67 
		197.938,58.302 191.645,54.67 	"/>
	<polygon fill="none" stroke="#FFFFFF" stroke-miterlimit="10" points="221.041,55.116 227.344,51.483 233.635,55.116 
		233.635,62.386 227.344,66.021 221.041,62.386 	"/>
	<g>
		<polygon fill="none" stroke="#FFFFFF" stroke-miterlimit="10" points="143.621,62.47 149.916,58.836 156.209,62.47 
			156.209,69.742 149.916,73.373 143.621,69.742 		"/>
	</g>
	<polygon fill="none" stroke="#FFFFFF" stroke-miterlimit="10" points="166.268,43.481 172.57,39.847 178.852,43.481 
		178.852,50.747 172.57,54.377 166.268,50.747 	"/>
	<polygon fill="none" stroke="#FFFFFF" stroke-miterlimit="10" points="172.244,46.185 178.539,42.546 184.824,46.185 
		184.824,53.454 178.539,57.087 172.244,53.454 	"/>
	<polygon fill="none" stroke="#FFFFFF" stroke-miterlimit="10" points="162.344,58.591 168.643,54.956 174.928,58.591 
		174.928,65.86 168.643,69.492 162.344,65.86 	"/>
	<polygon fill="none" stroke="#FFFFFF" stroke-miterlimit="10" points="157.742,63.507 164.037,59.869 170.324,63.507 
		170.324,70.776 164.037,74.404 157.742,70.776 	"/>
	<polygon fill="none" stroke="#FFFFFF" stroke-miterlimit="10" points="109.184,67.792 115.486,64.152 121.771,67.792 
		121.771,75.057 115.486,78.694 109.184,75.057 	"/>
	<polygon fill="none" stroke="#FFFFFF" stroke-miterlimit="10" points="203.555,62.327 209.852,58.688 216.137,62.327 
		216.137,69.593 209.852,73.228 203.555,69.593 	"/>
	<polygon fill="none" stroke="#FFFFFF" stroke-miterlimit="10" points="196.24,62.597 202.539,58.958 208.83,62.597 208.83,69.86 
		202.539,73.494 196.24,69.86 	"/>
	<polygon fill="none" stroke="#FFFFFF" stroke-miterlimit="10" points="208.15,67.233 214.443,63.597 220.742,67.233 
		220.742,74.499 214.443,78.131 208.15,74.499 	"/>
	<polygon fill="none" stroke="#FFFFFF" stroke-miterlimit="10" points="205.438,88.392 211.74,84.755 218.025,88.392 
		218.025,95.657 211.74,99.296 205.438,95.657 	"/>
	<polygon fill="none" stroke="#FFFFFF" stroke-miterlimit="10" points="211.885,86.799 218.176,83.162 224.471,86.799 
		224.471,94.068 218.176,97.7 211.885,94.068 	"/>
	<polygon fill="none" stroke="#FFFFFF" stroke-miterlimit="10" points="186.648,89.367 192.945,85.732 199.242,89.367 
		199.242,96.637 192.945,100.272 186.648,96.637 	"/>
	<polygon fill="none" stroke="#FFFFFF" stroke-miterlimit="10" points="183.541,94.925 189.83,91.291 196.133,94.925 
		196.133,102.193 189.83,105.822 183.541,102.193 	"/>
	<polygon fill="none" stroke="#FFFFFF" stroke-miterlimit="10" points="169.113,95.78 175.412,92.147 181.697,95.78 
		181.697,103.049 175.412,106.682 169.113,103.049 	"/>
	<polygon fill="none" stroke="#FFFFFF" stroke-miterlimit="10" points="153.77,91.374 160.064,87.74 166.355,91.374 166.355,98.647 
		160.064,102.277 153.77,98.647 	"/>
	<polygon fill="none" stroke="#FFFFFF" stroke-miterlimit="10" points="123.541,87.796 129.834,84.159 136.131,87.796 
		136.131,95.063 129.834,98.7 123.541,95.063 	"/>
	<polygon fill="none" stroke="#FFFFFF" stroke-miterlimit="10" points="122.541,68.962 128.832,65.329 135.119,68.962 
		135.119,76.228 128.832,79.864 122.541,76.228 	"/>
	<polygon fill="none" stroke="#FFFFFF" stroke-miterlimit="10" points="106.871,81.708 113.17,78.073 119.467,81.708 
		119.467,88.979 113.17,92.61 106.871,88.979 	"/>
	<polygon fill="none" stroke="#FFFFFF" stroke-miterlimit="10" points="133.574,104.645 139.877,101.013 146.174,104.645 
		146.174,111.916 139.877,115.552 133.574,111.916 	"/>
	<polygon fill="none" stroke="#FFFFFF" stroke-miterlimit="10" points="178.934,112.213 185.225,108.58 191.514,112.213 
		191.514,119.479 185.225,123.108 178.934,119.479 	"/>
	<polygon fill="none" stroke="#FFFFFF" stroke-miterlimit="10" points="212.416,119.985 218.711,116.349 225,119.985 225,127.253 
		218.711,130.882 212.416,127.253 	"/>
	<polygon fill="none" stroke="#FFFFFF" stroke-miterlimit="10" points="213.533,135.29 219.826,131.657 226.117,135.29 
		226.117,142.563 219.826,146.193 213.533,142.563 	"/>
	<polygon fill="none" stroke="#FFFFFF" stroke-miterlimit="10" points="144.486,130.647 150.783,127.015 157.074,130.647 
		157.074,137.915 150.783,141.547 144.486,137.915 	"/>
	<polygon fill="none" stroke="#FFFFFF" stroke-miterlimit="10" points="113.1,131.062 119.391,127.423 125.688,131.062 
		125.688,138.329 119.391,141.957 113.1,138.329 	"/>
	<polygon fill="none" stroke="#FFFFFF" stroke-miterlimit="10" points="103.512,98.071 109.809,94.437 116.1,98.071 116.1,105.338 
		109.809,108.971 103.512,105.338 	"/>
	<polygon fill="none" stroke="#FFFFFF" stroke-miterlimit="10" points="96.016,106.984 102.313,103.352 108.609,106.984 
		108.609,114.256 102.313,117.888 96.016,114.256 	"/>
	<polygon fill="none" stroke="#FFFFFF" stroke-miterlimit="10" points="90.477,129.448 96.768,125.81 103.059,129.448 
		103.059,136.714 96.768,140.352 90.477,136.714 	"/>
	<g>
		<polygon fill="none" stroke="#FFFFFF" stroke-miterlimit="10" points="116.244,15.056 122.541,11.416 128.826,15.056 
			128.826,22.319 122.541,25.953 116.244,22.319 		"/>
		<path fill="#FFFFFF" d="M124.9,20.663c0,0.431-0.145,0.802-0.461,1.113c-0.307,0.31-0.678,0.466-1.113,0.466h-1.58
			c-0.438,0-0.807-0.156-1.113-0.46c-0.313-0.313-0.469-0.688-0.469-1.119v-3.955c0-0.433,0.156-0.804,0.469-1.115
			c0.307-0.31,0.676-0.461,1.113-0.461h1.58c0.436,0,0.807,0.151,1.113,0.461c0.316,0.314,0.461,0.683,0.461,1.115V20.663
			L124.9,20.663z M123.316,16.577c-0.113-0.435-0.365-0.65-0.775-0.65c-0.221,0-0.408,0.073-0.559,0.227
			c-0.156,0.156-0.236,0.343-0.236,0.555v2.691L123.316,16.577L123.316,16.577z M123.326,20.663v-2.688l-1.559,2.809
			c0.08,0.442,0.344,0.664,0.773,0.664c0.217,0,0.402-0.073,0.559-0.232C123.252,21.061,123.326,20.878,123.326,20.663z"/>
	</g>
	<g>
		<polygon fill="none" stroke="#FFFFFF" stroke-miterlimit="10" points="180.223,17.153 186.521,13.521 192.807,17.153 
			192.807,24.421 186.521,28.053 180.223,24.421 		"/>
		<path fill="#FFFFFF" d="M188.881,22.76c0,0.435-0.145,0.802-0.465,1.116c-0.309,0.309-0.676,0.464-1.111,0.464h-1.584
			c-0.428,0-0.809-0.155-1.115-0.458c-0.303-0.314-0.461-0.688-0.461-1.122v-3.951c0-0.431,0.158-0.806,0.461-1.115
			c0.307-0.309,0.688-0.464,1.115-0.464h1.584c0.436,0,0.803,0.155,1.111,0.464c0.32,0.315,0.465,0.685,0.465,1.115V22.76
			L188.881,22.76z M187.295,18.677c-0.113-0.432-0.373-0.65-0.773-0.65c-0.223,0-0.41,0.074-0.566,0.227
			c-0.154,0.156-0.234,0.345-0.234,0.556v2.692L187.295,18.677L187.295,18.677z M187.305,22.76v-2.681l-1.564,2.807
			c0.08,0.44,0.344,0.66,0.781,0.66c0.211,0,0.396-0.071,0.553-0.23C187.229,23.165,187.305,22.978,187.305,22.76z"/>
	</g>
	<g>
		<polygon fill="none" stroke="#FFFFFF" stroke-miterlimit="10" points="228.387,33.933 234.678,30.297 240.971,33.933 
			240.971,41.199 234.678,44.835 228.387,41.199 		"/>
		<path fill="#FFFFFF" d="M237.049,39.544c0,0.43-0.154,0.8-0.469,1.115c-0.307,0.309-0.684,0.46-1.111,0.46h-1.588
			c-0.428,0-0.801-0.151-1.107-0.456c-0.311-0.314-0.461-0.689-0.461-1.119v-3.955c0-0.432,0.15-0.804,0.461-1.113
			c0.307-0.309,0.68-0.463,1.107-0.463h1.588c0.428,0,0.805,0.154,1.111,0.463c0.314,0.315,0.469,0.682,0.469,1.113V39.544
			L237.049,39.544z M235.457,35.456c-0.109-0.433-0.365-0.652-0.779-0.652c-0.215,0-0.41,0.076-0.559,0.23
			c-0.15,0.153-0.238,0.341-0.238,0.555v2.689L235.457,35.456L235.457,35.456z M235.469,39.544v-2.686l-1.561,2.807
			c0.076,0.44,0.34,0.661,0.77,0.661c0.219,0,0.408-0.077,0.559-0.231C235.393,39.943,235.469,39.755,235.469,39.544z"/>
	</g>
	<g>
		<path fill="#FFFFFF" d="M191.629,42.085c0,0.432-0.152,0.801-0.463,1.113c-0.313,0.309-0.682,0.463-1.113,0.463h-1.586
			c-0.432,0-0.809-0.154-1.117-0.458c-0.303-0.313-0.459-0.687-0.459-1.118v-3.953c0-0.432,0.156-0.808,0.459-1.117
			c0.309-0.309,0.686-0.461,1.117-0.461h1.586c0.432,0,0.801,0.152,1.113,0.461c0.311,0.315,0.463,0.686,0.463,1.117V42.085
			L191.629,42.085z M190.043,37.997c-0.115-0.43-0.371-0.65-0.781-0.65c-0.219,0-0.404,0.076-0.566,0.231
			c-0.148,0.155-0.229,0.342-0.229,0.554v2.691L190.043,37.997L190.043,37.997z M190.053,42.085v-2.686l-1.568,2.811
			c0.084,0.441,0.346,0.66,0.777,0.66c0.223,0,0.404-0.075,0.559-0.23C189.973,42.487,190.053,42.298,190.053,42.085z"/>
		<polygon fill="none" stroke="#FFFFFF" stroke-miterlimit="10" points="182.959,36.476 189.258,32.839 195.547,36.476 
			195.547,43.743 189.258,47.378 182.959,43.743 		"/>
	</g>
	<g>
		<polygon fill="none" stroke="#FFFFFF" stroke-miterlimit="10" points="155.338,29.177 161.629,25.544 167.922,29.177 
			167.922,36.446 161.629,40.081 155.338,36.446 		"/>
		<path fill="#FFFFFF" d="M163.996,34.791c0,0.431-0.148,0.798-0.465,1.115c-0.307,0.306-0.676,0.46-1.111,0.46h-1.582
			c-0.43,0-0.807-0.154-1.113-0.457c-0.307-0.314-0.461-0.688-0.461-1.118v-3.956c0-0.434,0.154-0.803,0.461-1.112
			s0.684-0.464,1.113-0.464h1.582c0.436,0,0.805,0.154,1.111,0.464c0.316,0.312,0.465,0.679,0.465,1.112V34.791L163.996,34.791z
			 M162.406,30.7c-0.109-0.431-0.363-0.649-0.777-0.649c-0.215,0-0.404,0.075-0.555,0.229c-0.154,0.154-0.236,0.342-0.236,0.555
			v2.69L162.406,30.7L162.406,30.7z M162.42,34.791v-2.688l-1.561,2.809c0.08,0.443,0.346,0.664,0.77,0.664
			c0.219,0,0.408-0.079,0.563-0.232C162.344,35.188,162.42,35.001,162.42,34.791z"/>
	</g>
	<g>
		<polygon fill="none" stroke="#FFFFFF" stroke-miterlimit="10" points="135.414,36.313 141.711,32.679 148.002,36.313 
			148.002,43.583 141.711,47.218 135.414,43.583 		"/>
		<path fill="#FFFFFF" d="M144.076,41.929c0,0.43-0.148,0.795-0.467,1.109c-0.307,0.309-0.678,0.463-1.107,0.463h-1.586
			c-0.432,0-0.809-0.154-1.119-0.458c-0.303-0.315-0.457-0.685-0.457-1.114V37.97c0-0.432,0.154-0.803,0.457-1.111
			c0.311-0.313,0.688-0.469,1.119-0.469h1.586c0.43,0,0.801,0.156,1.107,0.469c0.318,0.314,0.467,0.68,0.467,1.111V41.929
			L144.076,41.929z M142.484,37.837c-0.105-0.43-0.365-0.65-0.773-0.65c-0.221,0-0.408,0.076-0.561,0.232
			c-0.154,0.152-0.234,0.339-0.234,0.551v2.693L142.484,37.837L142.484,37.837z M142.502,41.929v-2.689l-1.57,2.811
			c0.086,0.441,0.35,0.66,0.779,0.66c0.215,0,0.402-0.075,0.561-0.23C142.426,42.325,142.502,42.138,142.502,41.929z"/>
	</g>
	<g>
		<polygon fill="none" stroke="#FFFFFF" stroke-miterlimit="10" points="112.842,31.565 119.139,27.932 125.428,31.565 
			125.428,38.831 119.139,42.466 112.842,38.831 		"/>
		<path fill="#FFFFFF" d="M121.504,37.178c0,0.432-0.15,0.797-0.469,1.112c-0.307,0.309-0.676,0.465-1.107,0.465h-1.582
			c-0.436,0-0.805-0.156-1.111-0.459c-0.313-0.315-0.469-0.687-0.469-1.118v-3.956c0-0.432,0.156-0.805,0.469-1.115
			c0.307-0.309,0.676-0.461,1.111-0.461h1.582c0.432,0,0.801,0.152,1.107,0.461c0.318,0.315,0.469,0.684,0.469,1.115V37.178
			L121.504,37.178z M119.912,33.09c-0.107-0.43-0.359-0.651-0.773-0.651c-0.217,0-0.41,0.078-0.561,0.229
			c-0.156,0.152-0.232,0.34-0.232,0.555v2.695L119.912,33.09L119.912,33.09z M119.928,37.178v-2.686l-1.564,2.809
			c0.086,0.443,0.344,0.661,0.775,0.661c0.219,0,0.408-0.074,0.559-0.229C119.854,37.578,119.928,37.391,119.928,37.178z"/>
	</g>
	<g>
		<polygon fill="none" stroke="#FFFFFF" stroke-miterlimit="10" points="122.869,48.917 129.166,45.28 135.457,48.917 
			135.457,56.183 129.166,59.817 122.869,56.183 		"/>
		<path fill="#FFFFFF" d="M131.527,54.525c0,0.431-0.146,0.798-0.463,1.114c-0.313,0.305-0.678,0.465-1.107,0.465h-1.586
			c-0.432,0-0.807-0.16-1.119-0.465c-0.303-0.309-0.457-0.684-0.457-1.114v-3.952c0-0.437,0.154-0.806,0.457-1.116
			c0.313-0.308,0.688-0.463,1.119-0.463h1.586c0.43,0,0.795,0.155,1.107,0.463c0.316,0.313,0.463,0.68,0.463,1.116V54.525
			L131.527,54.525z M129.945,50.438c-0.119-0.435-0.377-0.65-0.779-0.65c-0.221,0-0.408,0.072-0.564,0.227
			c-0.156,0.156-0.23,0.345-0.23,0.559v2.688L129.945,50.438L129.945,50.438z M129.957,54.525v-2.688l-1.572,2.811
			c0.086,0.441,0.352,0.662,0.781,0.662c0.215,0,0.402-0.074,0.559-0.232C129.875,54.924,129.957,54.735,129.957,54.525z"/>
	</g>
	<g>
		<polygon fill="none" stroke="#FFFFFF" stroke-miterlimit="10" points="138.98,79.349 145.27,75.714 151.566,79.349 
			151.566,86.616 145.27,90.249 138.98,86.616 		"/>
		<path fill="#FFFFFF" d="M147.643,84.956c0,0.434-0.15,0.798-0.469,1.113c-0.307,0.311-0.684,0.463-1.113,0.463h-1.58
			c-0.43,0-0.801-0.152-1.113-0.455c-0.307-0.318-0.463-0.688-0.463-1.121v-3.955c0-0.43,0.156-0.803,0.463-1.111
			c0.313-0.309,0.684-0.465,1.113-0.465h1.58c0.43,0,0.807,0.156,1.113,0.465c0.318,0.311,0.469,0.682,0.469,1.111V84.956
			L147.643,84.956z M146.049,80.866c-0.105-0.43-0.365-0.648-0.779-0.648c-0.209,0-0.402,0.076-0.553,0.231
			c-0.154,0.155-0.236,0.338-0.236,0.552v2.694L146.049,80.866L146.049,80.866z M146.061,84.956v-2.686l-1.561,2.811
			c0.082,0.441,0.342,0.66,0.77,0.66c0.221,0,0.414-0.077,0.566-0.23C145.986,85.354,146.061,85.169,146.061,84.956z"/>
	</g>
	<g>
		<polygon fill="none" stroke="#FFFFFF" stroke-miterlimit="10" points="116.734,78.644 123.025,75.007 129.322,78.644 
			129.322,85.909 123.025,89.545 116.734,85.909 		"/>
		<path fill="#FFFFFF" d="M125.396,84.253c0,0.433-0.145,0.798-0.469,1.115c-0.307,0.31-0.682,0.463-1.111,0.463h-1.576
			c-0.436,0-0.811-0.153-1.125-0.457c-0.301-0.317-0.455-0.688-0.455-1.121V80.3c0-0.436,0.154-0.807,0.455-1.115
			c0.314-0.309,0.689-0.463,1.125-0.463h1.576c0.43,0,0.805,0.154,1.111,0.463c0.324,0.314,0.469,0.68,0.469,1.115V84.253
			L125.396,84.253z M123.811,80.169c-0.119-0.438-0.371-0.658-0.785-0.658c-0.215,0-0.402,0.081-0.555,0.232
			c-0.154,0.155-0.23,0.342-0.23,0.557v2.689L123.811,80.169L123.811,80.169z M123.816,84.253v-2.688l-1.559,2.811
			c0.078,0.445,0.338,0.661,0.768,0.661c0.221,0,0.408-0.077,0.564-0.229C123.74,84.653,123.816,84.469,123.816,84.253z"/>
	</g>
	<g>
		<polygon fill="none" stroke="#FFFFFF" stroke-miterlimit="10" points="191.639,67.433 197.938,63.801 204.223,67.433 
			204.223,74.703 197.938,78.338 191.639,74.703 		"/>
		<path fill="#FFFFFF" d="M200.301,73.048c0,0.432-0.145,0.799-0.461,1.113c-0.307,0.311-0.684,0.463-1.119,0.463h-1.574
			c-0.432,0-0.809-0.152-1.119-0.458c-0.305-0.313-0.465-0.687-0.465-1.118v-3.953c0-0.435,0.16-0.806,0.465-1.115
			c0.311-0.309,0.688-0.465,1.119-0.465h1.574c0.436,0,0.813,0.156,1.119,0.465c0.316,0.314,0.461,0.681,0.461,1.115V73.048
			L200.301,73.048z M198.715,68.958c-0.111-0.433-0.363-0.646-0.777-0.646c-0.223,0-0.404,0.07-0.563,0.229
			c-0.148,0.151-0.229,0.339-0.229,0.555v2.688L198.715,68.958L198.715,68.958z M198.721,73.048V70.36l-1.559,2.811
			c0.082,0.438,0.338,0.659,0.775,0.659c0.211,0,0.406-0.074,0.563-0.229C198.65,73.447,198.721,73.261,198.721,73.048z"/>
	</g>
	<g>
		<polygon fill="none" stroke="#FFFFFF" stroke-miterlimit="10" points="200.479,81.581 206.777,77.946 213.066,81.581 
			213.066,88.847 206.777,92.478 200.479,88.847 		"/>
		<path fill="#FFFFFF" d="M209.141,87.19c0,0.43-0.148,0.799-0.461,1.113c-0.314,0.31-0.684,0.465-1.115,0.465h-1.586
			c-0.43,0-0.805-0.155-1.117-0.459c-0.303-0.314-0.457-0.689-0.457-1.119v-3.957c0-0.43,0.154-0.801,0.457-1.111
			c0.313-0.311,0.688-0.467,1.117-0.467h1.586c0.432,0,0.801,0.156,1.115,0.467c0.313,0.313,0.461,0.682,0.461,1.111V87.19
			L209.141,87.19z M207.555,83.102c-0.111-0.435-0.371-0.648-0.777-0.648c-0.223,0-0.41,0.071-0.566,0.229
			c-0.15,0.151-0.232,0.34-0.232,0.551v2.692L207.555,83.102L207.555,83.102z M207.564,87.19v-2.688l-1.568,2.809
			c0.084,0.441,0.35,0.659,0.781,0.659c0.219,0,0.4-0.071,0.559-0.228C207.484,87.587,207.564,87.399,207.564,87.19z"/>
	</g>
	<g>
		<polygon fill="none" stroke="#FFFFFF" stroke-miterlimit="10" points="228.387,71.673 234.678,68.034 240.975,71.673 
			240.975,78.937 234.678,82.575 228.387,78.937 		"/>
		<path fill="#FFFFFF" d="M237.055,77.276c0,0.432-0.158,0.804-0.467,1.116c-0.314,0.309-0.684,0.464-1.115,0.464h-1.586
			c-0.43,0-0.801-0.155-1.107-0.458c-0.313-0.313-0.467-0.69-0.467-1.122v-3.952c0-0.433,0.154-0.802,0.467-1.112
			c0.307-0.311,0.678-0.466,1.107-0.466h1.586c0.432,0,0.801,0.155,1.115,0.466c0.309,0.311,0.467,0.68,0.467,1.112V77.276
			L237.055,77.276z M235.463,73.19c-0.107-0.432-0.367-0.648-0.781-0.648c-0.219,0-0.4,0.074-0.559,0.229
			c-0.154,0.154-0.236,0.344-0.236,0.554v2.691L235.463,73.19L235.463,73.19z M235.473,77.276v-2.684l-1.559,2.807
			c0.074,0.443,0.34,0.662,0.768,0.662c0.223,0,0.41-0.074,0.559-0.229C235.398,77.679,235.473,77.49,235.473,77.276z"/>
	</g>
	<g>
		<polygon fill="none" stroke="#FFFFFF" stroke-miterlimit="10" points="191.799,124.216 198.098,120.581 204.387,124.216 
			204.387,131.485 198.098,135.118 191.799,131.485 		"/>
		<path fill="#FFFFFF" d="M200.469,129.829c0,0.432-0.145,0.801-0.461,1.115c-0.314,0.305-0.684,0.463-1.115,0.463h-1.582
			c-0.434,0-0.811-0.158-1.117-0.463c-0.307-0.311-0.461-0.684-0.461-1.115v-3.953c0-0.432,0.154-0.809,0.461-1.117
			c0.307-0.307,0.684-0.461,1.117-0.461h1.582c0.432,0,0.801,0.154,1.115,0.461c0.316,0.316,0.461,0.686,0.461,1.117V129.829
			L200.469,129.829z M198.877,125.745c-0.111-0.436-0.367-0.654-0.775-0.654c-0.219,0-0.404,0.072-0.559,0.227
			s-0.232,0.344-0.232,0.559v2.688L198.877,125.745L198.877,125.745z M198.893,129.829v-2.684l-1.564,2.805
			c0.086,0.441,0.342,0.664,0.773,0.664c0.223,0,0.404-0.072,0.559-0.232C198.818,130.229,198.893,130.042,198.893,129.829z"/>
	</g>
	<g>
		<polygon fill="none" stroke="#FFFFFF" stroke-miterlimit="10" points="153.674,120.204 159.973,116.563 166.266,120.204 
			166.266,127.472 159.973,131.108 153.674,127.472 		"/>
		<path fill="#FFFFFF" d="M162.344,125.815c0,0.432-0.152,0.801-0.473,1.113c-0.303,0.311-0.68,0.467-1.107,0.467h-1.582
			c-0.43,0-0.807-0.156-1.113-0.459c-0.311-0.316-0.469-0.689-0.469-1.121v-3.953c0-0.43,0.158-0.807,0.469-1.113
			c0.307-0.313,0.684-0.465,1.113-0.465h1.582c0.428,0,0.805,0.152,1.107,0.465c0.32,0.309,0.473,0.684,0.473,1.113V125.815
			L162.344,125.815z M160.75,121.728c-0.107-0.43-0.369-0.648-0.777-0.648c-0.215,0-0.41,0.07-0.555,0.225
			c-0.154,0.156-0.236,0.344-0.236,0.559v2.688L160.75,121.728L160.75,121.728z M160.764,125.815v-2.684l-1.561,2.805
			c0.08,0.441,0.34,0.66,0.77,0.66c0.219,0,0.408-0.07,0.566-0.227C160.684,126.216,160.764,126.024,160.764,125.815z"/>
	</g>
	<g>
		<polygon fill="none" stroke="#FFFFFF" stroke-miterlimit="10" points="228.16,131.29 234.453,127.655 240.748,131.29 
			240.748,138.562 234.453,142.189 228.16,138.562 		"/>
		<path fill="#FFFFFF" d="M236.83,136.901c0,0.432-0.158,0.795-0.469,1.115c-0.307,0.309-0.684,0.465-1.113,0.465h-1.582
			c-0.436,0-0.805-0.156-1.111-0.459c-0.314-0.316-0.465-0.689-0.465-1.121v-3.955c0-0.434,0.15-0.805,0.465-1.113
			c0.307-0.311,0.676-0.463,1.111-0.463h1.582c0.43,0,0.807,0.152,1.113,0.463c0.311,0.316,0.469,0.68,0.469,1.113V136.901
			L236.83,136.901z M235.236,132.815c-0.107-0.432-0.365-0.65-0.773-0.65c-0.223,0-0.41,0.074-0.566,0.227
			c-0.15,0.154-0.23,0.342-0.23,0.555v2.697L235.236,132.815L235.236,132.815z M235.248,136.901v-2.689l-1.559,2.814
			c0.08,0.441,0.34,0.656,0.773,0.656c0.215,0,0.404-0.07,0.553-0.229C235.176,137.3,235.248,137.114,235.248,136.901z"/>
	</g>
	<g>
		<polygon fill="none" stroke="#FFFFFF" stroke-miterlimit="10" points="116.309,110.512 122.602,106.881 128.896,110.512 
			128.896,117.78 122.602,121.411 116.309,117.78 		"/>
		<path fill="#FFFFFF" d="M124.967,116.12c0,0.432-0.146,0.805-0.457,1.117c-0.313,0.307-0.689,0.461-1.117,0.461h-1.588
			c-0.43,0-0.801-0.154-1.107-0.457c-0.316-0.313-0.463-0.689-0.463-1.121v-3.952c0-0.43,0.146-0.805,0.463-1.109
			c0.307-0.314,0.678-0.469,1.107-0.469h1.588c0.428,0,0.805,0.154,1.117,0.469c0.311,0.309,0.457,0.68,0.457,1.109V116.12
			L124.967,116.12z M123.381,112.037c-0.113-0.43-0.365-0.652-0.779-0.652c-0.221,0-0.404,0.076-0.561,0.229
			c-0.15,0.154-0.236,0.346-0.236,0.555v2.692L123.381,112.037L123.381,112.037z M123.393,116.12v-2.679l-1.561,2.804
			c0.074,0.439,0.338,0.66,0.77,0.66c0.219,0,0.408-0.072,0.559-0.232C123.316,116.524,123.393,116.335,123.393,116.12z"/>
	</g>
	<g>
		<polygon fill="none" stroke="#FFFFFF" stroke-miterlimit="10" points="228.289,10.235 234.58,6.599 240.877,10.235 
			240.877,17.503 234.58,21.134 228.289,17.503 		"/>
		<polygon fill="#FFFFFF" points="235.201,17.423 233.625,17.423 233.625,11.889 232.834,11.889 232.834,11.108 234.408,10.313 
			235.201,10.313 		"/>
	</g>
	<g>
		<polygon fill="none" stroke="#FFFFFF" stroke-miterlimit="10" points="207.48,43.481 213.775,39.847 220.068,43.481 
			220.068,50.747 213.775,54.377 207.48,50.747 		"/>
		<polygon fill="#FFFFFF" points="214.389,50.668 212.811,50.668 212.811,45.134 212.02,45.134 212.02,44.351 213.598,43.56 
			214.389,43.56 		"/>
	</g>
	<g>
		<polygon fill="none" stroke="#FFFFFF" stroke-miterlimit="10" points="158.924,12.638 165.215,9.004 171.514,12.638 
			171.514,19.906 165.215,23.543 158.924,19.906 		"/>
		<polygon fill="#FFFFFF" points="165.834,19.829 164.252,19.829 164.252,14.3 163.467,14.3 163.467,13.516 165.043,12.72 
			165.834,12.72 		"/>
	</g>
	<g>
		<polygon fill="none" stroke="#FFFFFF" stroke-miterlimit="10" points="141.357,29.22 147.646,25.585 153.934,29.22 
			153.934,36.491 147.646,40.124 141.357,36.491 		"/>
		<polygon fill="#FFFFFF" points="148.26,36.407 146.684,36.407 146.684,30.876 145.883,30.876 145.883,30.093 147.471,29.298 
			148.26,29.298 		"/>
	</g>
	<g>
		<polygon fill="none" stroke="#FFFFFF" stroke-miterlimit="10" points="178.414,69.31 184.707,65.68 191.006,69.31 191.006,76.579 
			184.707,80.218 178.414,76.579 		"/>
		<polygon fill="#FFFFFF" points="185.326,76.503 183.75,76.503 183.75,70.968 182.957,70.968 182.957,70.187 184.535,69.39 
			185.326,69.39 		"/>
	</g>
	<g>
		<polygon fill="none" stroke="#FFFFFF" stroke-miterlimit="10" points="135.055,58.555 141.357,54.924 147.643,58.555 
			147.643,65.829 141.357,69.464 135.055,65.829 		"/>
		<polygon fill="#FFFFFF" points="141.965,65.745 140.389,65.745 140.389,60.214 139.592,60.214 139.592,59.432 141.178,58.638 
			141.965,58.638 		"/>
	</g>
	<g>
		<polygon fill="none" stroke="#FFFFFF" stroke-miterlimit="10" points="125.234,64.021 131.527,60.389 137.824,64.021 
			137.824,71.291 131.527,74.923 125.234,71.291 		"/>
		<polygon fill="#FFFFFF" points="132.145,71.208 130.568,71.208 130.568,65.677 129.779,65.677 129.779,64.894 131.359,64.101 
			132.145,64.101 		"/>
	</g>
	<g>
		<polygon fill="none" stroke="#FFFFFF" stroke-miterlimit="10" points="110.787,51.242 117.078,47.608 123.375,51.242 
			123.375,58.511 117.078,62.145 110.787,58.511 		"/>
		<polygon fill="#FFFFFF" points="117.701,58.429 116.121,58.429 116.121,52.898 115.326,52.898 115.326,52.113 116.912,51.321 
			117.701,51.321 		"/>
	</g>
	<g>
		<polygon fill="none" stroke="#FFFFFF" stroke-miterlimit="10" points="158.094,98.013 164.387,94.384 170.678,98.013 
			170.678,105.285 164.387,108.924 158.094,105.285 		"/>
		<polygon fill="#FFFFFF" points="164.996,105.207 163.424,105.207 163.424,99.673 162.629,99.673 162.629,98.892 164.215,98.095 
			164.996,98.095 		"/>
	</g>
	<g>
		<polygon fill="none" stroke="#FFFFFF" stroke-miterlimit="10" points="196.344,106.17 202.641,102.533 208.922,106.17 
			208.922,113.434 202.641,117.073 196.344,113.434 		"/>
		<polygon fill="#FFFFFF" points="203.252,113.357 201.674,113.357 201.674,107.822 200.883,107.822 200.883,107.039 
			202.461,106.244 203.252,106.244 		"/>
	</g>
	<g>
		<polygon fill="none" stroke="#FFFFFF" stroke-miterlimit="10" points="224.869,101.57 231.168,97.94 237.459,101.57 
			237.459,108.84 231.168,112.471 224.869,108.84 		"/>
		<polygon fill="#FFFFFF" points="231.789,108.762 230.207,108.762 230.207,103.23 229.414,103.23 229.414,102.447 230.998,101.652 
			231.789,101.652 		"/>
	</g>
	<g>
		<polygon fill="none" stroke="#FFFFFF" stroke-miterlimit="10" points="182.703,131.485 188.992,127.853 195.283,131.485 
			195.283,138.751 188.992,142.385 182.703,138.751 		"/>
		<polygon fill="#FFFFFF" points="189.611,138.669 188.035,138.669 188.035,133.138 187.242,133.138 187.242,132.354 
			188.828,131.56 189.611,131.56 		"/>
	</g>
	<g>
		<polygon fill="none" stroke="#FFFFFF" stroke-miterlimit="10" points="171.822,128.401 178.107,124.761 184.4,128.401 
			184.4,135.669 178.107,139.306 171.822,135.669 		"/>
		<polygon fill="#FFFFFF" points="178.729,135.593 177.152,135.593 177.152,130.062 176.361,130.062 176.361,129.276 
			177.938,128.483 178.729,128.483 		"/>
	</g>
	<g>
		<polygon fill="none" stroke="#FFFFFF" stroke-miterlimit="10" points="128.908,122.876 135.199,119.237 141.49,122.876 
			141.49,130.142 135.199,133.774 128.908,130.142 		"/>
		<polygon fill="#FFFFFF" points="135.813,130.065 134.236,130.065 134.236,124.53 133.439,124.53 133.439,123.749 135.027,122.954 
			135.813,122.954 		"/>
	</g>
	<g>
		<polygon fill="none" stroke="#FFFFFF" stroke-miterlimit="10" points="100.58,121.681 106.871,118.046 113.164,121.681 
			113.164,128.946 106.871,132.583 100.58,128.946 		"/>
		<polygon fill="#FFFFFF" points="107.484,128.87 105.91,128.87 105.91,123.337 105.119,123.337 105.119,122.554 106.695,121.759 
			107.484,121.759 		"/>
	</g>
	<polygon fill="none" stroke="#FFFFFF" stroke-miterlimit="10" points="199.451,108.051 205.744,104.416 212.035,108.051 
		212.035,115.315 205.744,118.954 199.451,115.315 	"/>
	<path fill-rule="evenodd" clip-rule="evenodd" fill="#FFFFFF" d="M92.844,45.633c0,0-4.404,20.204-10.744,57.719
		c-6.34,37.516-4.877,75.84-4.877,75.84l4.318,0.936c0,0-0.824-42.509,4.139-75.334c4.969-32.827,10.475-58.802,10.475-58.802
		L92.844,45.633z"/>
	<path fill-rule="evenodd" clip-rule="evenodd" fill="#FFFFFF" d="M95.617,45.517c0,0-4.742,20.498-11.088,57.929
		c-6.34,37.422-5.092,70.383-4.99,76.496l3.867,0.357c0,0-0.242-42.3,4.715-75.398c4.953-33.106,10.465-59.295,10.465-59.295
		L95.617,45.517z"/>
	<path fill-rule="evenodd" clip-rule="evenodd" fill="#FFFFFF" d="M83.406,180.299c0,0-3.844-13.82-7.986-21.92
		c-4.145-8.096-7.969-6.282-10.463-10.146c-2.484-3.867-2.57-12.054-8.211-16.644c-5.641-4.605-8.545-2.719-12.75-10.373
		c-4.221-7.657-8.693-1.656-12.996-0.629c-4.307,1.027-23.197,28.581-23.197,28.581s33.996-25.017,44.008-10.294
		c7.979,11.731,20.41,29.731,25.412,40.317C78.379,181.654,82.695,180.914,83.406,180.299z"/>
	<path fill-rule="evenodd" clip-rule="evenodd" fill="#D1E187" d="M47.197,135.155c-3.684-0.107-13.357,1.861-17.504,3.4
		c-6.625,1.995-14.186,5.546-20.842,9.866c-0.93,0.814-1.834,1.682-2.721,2.591l0,0c0.5-0.528,1.172-1.222,1.973-2.056
		c4.201-4.359,12.895-10.353,17.789-14.392c4.264-3.514,14.486-6.861,21.406-8.818c3.258,2.174,4.564,2.318,7.404,4.361
		c2.838,2.033,3.732,3.32,4.371,4.051C56.246,131.71,49.6,134.905,47.197,135.155z"/>
	<path fill="#FFFFFF" d="M102.871,150.572c0.139-0.428,0.344-0.734,0.613-0.936c0.258-0.205,0.598-0.307,0.988-0.307
		c0.539,0,0.938,0.172,1.168,0.508c0.236,0.334,0.354,0.934,0.354,1.776v2.544c0,0.646-0.121,1.121-0.375,1.406
		c-0.248,0.297-0.635,0.447-1.184,0.447c-0.359,0-0.699-0.098-0.963-0.281c-0.262-0.186-0.531-0.52-0.822-0.994
		c-0.414-0.699-0.961-1.223-1.635-1.559c-0.672-0.336-1.488-0.504-2.467-0.504c-1.211,0-2.201,0.393-2.969,1.193
		c-0.779,0.795-1.162,1.805-1.162,3.033c0,1.291,0.393,2.33,1.199,3.111c0.797,0.799,1.865,1.186,3.205,1.186
		c1.23,0,2.445-0.338,3.662-1.02c1.209-0.674,1.941-1.014,2.205-1.014c0.387,0,0.721,0.141,0.973,0.43
		c0.258,0.291,0.387,0.668,0.387,1.119c0,0.979-0.736,1.852-2.227,2.611c-1.482,0.768-3.236,1.152-5.27,1.152
		c-2.51,0-4.543-0.705-6.113-2.111c-1.57-1.414-2.355-3.223-2.355-5.443c0-2.162,0.775-3.959,2.322-5.405
		c1.561-1.437,3.518-2.153,5.885-2.153c0.816,0,1.602,0.094,2.35,0.297C101.408,149.855,102.139,150.154,102.871,150.572
		L102.871,150.572z M116.713,160.686h3.66c0.711,0,1.211,0.127,1.502,0.387c0.295,0.26,0.445,0.688,0.445,1.293
		s-0.15,1.051-0.445,1.322c-0.291,0.27-0.791,0.4-1.502,0.4h-8.684c-0.703,0-1.209-0.131-1.521-0.4
		c-0.301-0.271-0.457-0.717-0.457-1.322s0.156-1.033,0.453-1.293c0.305-0.26,0.805-0.387,1.525-0.387h1.184v-7.551h-0.666
		c-0.711,0-1.205-0.125-1.506-0.398c-0.301-0.266-0.441-0.694-0.441-1.306c0-0.604,0.141-1.034,0.441-1.3
		c0.285-0.266,0.785-0.396,1.506-0.396h3.307c0.279,0,0.494,0.061,0.65,0.174c0.16,0.119,0.236,0.283,0.236,0.496v2.299
		c1.135-1.226,2.193-2.09,3.172-2.6c0.969-0.518,2.018-0.773,3.15-0.773c1.012,0,1.818,0.225,2.416,0.693
		c0.592,0.455,0.893,1.073,0.893,1.851c0,0.604-0.209,1.103-0.619,1.481c-0.408,0.395-0.936,0.59-1.574,0.59
		c-0.457,0-0.994-0.168-1.646-0.518c-0.639-0.338-1.086-0.506-1.338-0.506c-0.484,0-1.066,0.219-1.754,0.67
		c-0.682,0.455-1.479,1.139-2.387,2.055V160.686L116.713,160.686z M136.564,161.197c1.211,0,2.199-0.408,2.979-1.219
		c0.775-0.809,1.172-1.842,1.172-3.078c0-1.254-0.393-2.266-1.154-3.049c-0.764-0.785-1.764-1.178-2.996-1.178
		c-1.211,0-2.211,0.393-2.994,1.184c-0.787,0.791-1.174,1.801-1.174,3.043c0,1.236,0.387,2.27,1.178,3.078
		C134.359,160.789,135.361,161.197,136.564,161.197L136.564,161.197z M145.027,156.928c0,2.215-0.779,4.023-2.342,5.438
		c-1.566,1.406-3.609,2.111-6.121,2.111s-4.549-0.705-6.123-2.121c-1.582-1.414-2.361-3.227-2.361-5.428
		c0-2.205,0.779-4.012,2.361-5.425c1.574-1.399,3.611-2.112,6.123-2.112s4.555,0.713,6.121,2.112
		C144.248,152.916,145.027,154.723,145.027,156.928L145.027,156.928z M152.826,156.703c0,1.184,0.34,2.15,0.996,2.908
		c0.666,0.76,1.508,1.135,2.543,1.135c1.016,0,1.863-0.381,2.531-1.143c0.666-0.76,1.006-1.727,1.006-2.9
		c0-1.18-0.34-2.145-0.992-2.898c-0.664-0.771-1.52-1.139-2.545-1.139c-1.035,0-1.877,0.367-2.543,1.139
		C153.166,154.559,152.826,155.523,152.826,156.703L152.826,156.703z M154.742,166.852c0.709,0,1.209,0.129,1.498,0.398
		c0.295,0.275,0.441,0.713,0.441,1.326c0,0.605-0.146,1.033-0.441,1.293c-0.289,0.256-0.789,0.383-1.498,0.383h-6.59
		c-0.709,0-1.203-0.127-1.5-0.383c-0.295-0.26-0.447-0.688-0.447-1.293c0-0.613,0.152-1.051,0.447-1.326
		c0.297-0.27,0.791-0.398,1.5-0.398h0.916v-13.717h-0.256c-0.547,0-0.955-0.139-1.256-0.432c-0.291-0.289-0.432-0.718-0.432-1.272
		c0-0.604,0.146-1.034,0.441-1.3c0.297-0.266,0.801-0.396,1.502-0.396h2.391c0.297,0,0.521,0.057,0.672,0.162
		c0.135,0.109,0.211,0.262,0.211,0.475v1.12c0.531-0.706,1.178-1.241,1.932-1.595c0.738-0.357,1.592-0.539,2.539-0.539
		c2.123,0,3.881,0.676,5.268,2.032c1.387,1.36,2.078,3.067,2.078,5.132c0,2.15-0.68,3.932-2.033,5.346
		c-1.357,1.42-3.061,2.123-5.131,2.123c-0.828,0-1.604-0.113-2.322-0.342c-0.73-0.24-1.361-0.58-1.912-1.023v4.227H154.742
		L154.742,166.852z M174.211,161.166c1.039,0,1.887-0.387,2.551-1.154c0.66-0.758,0.992-1.744,0.992-2.926
		c0-1.178-0.34-2.141-0.998-2.908c-0.678-0.758-1.523-1.145-2.545-1.145c-1.014,0-1.855,0.387-2.521,1.145
		c-0.678,0.768-1.012,1.73-1.012,2.908c0,1.182,0.334,2.168,1.008,2.926C172.346,160.779,173.189,161.166,174.211,161.166
		L174.211,161.166z M175.744,147.195c-0.717,0-1.215-0.137-1.518-0.41c-0.307-0.27-0.457-0.713-0.457-1.307
		c0-0.615,0.15-1.053,0.457-1.326c0.303-0.27,0.801-0.404,1.518-0.404h4.836c0.359,0,0.596,0.082,0.719,0.219
		c0.129,0.143,0.199,0.418,0.199,0.805v15.914h0.264c0.559,0,0.973,0.141,1.258,0.428c0.279,0.275,0.408,0.699,0.408,1.252
		c0,0.605-0.139,1.051-0.436,1.322c-0.289,0.27-0.791,0.4-1.494,0.4h-2.377c-0.307,0-0.527-0.061-0.693-0.182
		c-0.162-0.111-0.242-0.281-0.242-0.488v-1.086c-0.521,0.707-1.186,1.234-1.973,1.592c-0.787,0.371-1.674,0.553-2.672,0.553
		c-2.035,0-3.729-0.688-5.094-2.074c-1.371-1.387-2.055-3.107-2.055-5.182c0-2.127,0.684-3.904,2.061-5.356
		c1.371-1.446,3.074-2.161,5.088-2.161c0.803,0,1.584,0.115,2.313,0.367c0.73,0.252,1.387,0.605,1.963,1.067v-3.942H175.744
		L175.744,147.195z M196.607,160.08v-2.395c-0.533-0.117-1-0.199-1.424-0.26c-0.424-0.053-0.826-0.08-1.186-0.08
		c-1.191,0-2.102,0.188-2.723,0.586c-0.645,0.396-0.961,0.959-0.961,1.699c0,0.533,0.217,0.953,0.646,1.264
		c0.422,0.303,1.008,0.461,1.764,0.461c0.721,0,1.395-0.111,2.035-0.314C195.393,160.83,196.014,160.51,196.607,160.08
		L196.607,160.08z M200.377,154.918v5.768h0.242c0.561,0,0.984,0.145,1.279,0.443c0.297,0.287,0.441,0.711,0.441,1.264
		c0,0.602-0.15,1.033-0.451,1.295c-0.313,0.27-0.814,0.4-1.512,0.4h-1.463c-0.523,0-0.914-0.104-1.172-0.293
		c-0.246-0.205-0.459-0.559-0.619-1.072c-0.855,0.564-1.768,0.996-2.738,1.299c-0.955,0.303-1.936,0.455-2.912,0.455
		c-1.684,0-2.996-0.418-3.949-1.246c-0.945-0.828-1.412-1.963-1.412-3.4c0-1.553,0.619-2.76,1.844-3.623
		c1.232-0.865,2.963-1.289,5.188-1.289c0.572,0,1.143,0.027,1.717,0.082c0.576,0.043,1.162,0.135,1.748,0.248v-0.297
		c0-0.932-0.219-1.639-0.678-2.127c-0.447-0.492-1.113-0.728-1.996-0.728c-0.693,0-1.568,0.249-2.621,0.759
		c-1.072,0.5-1.828,0.76-2.27,0.76c-0.521,0-0.943-0.145-1.242-0.418c-0.303-0.262-0.451-0.646-0.451-1.134
		c0-0.846,0.613-1.509,1.838-1.999c1.225-0.488,2.902-0.734,5.01-0.734c2.211,0,3.787,0.428,4.742,1.273
		C199.893,151.45,200.377,152.893,200.377,154.918L200.377,154.918z M206.824,154.01c-0.699,0-1.205-0.135-1.494-0.408
		c-0.289-0.262-0.441-0.707-0.441-1.313c0-0.609,0.145-1.043,0.434-1.299c0.287-0.263,0.799-0.386,1.502-0.386h1.469v-4.27
		c0-0.363,0.178-0.666,0.531-0.926c0.35-0.256,0.801-0.385,1.35-0.385c0.693,0,1.188,0.156,1.484,0.449
		c0.307,0.295,0.459,0.793,0.459,1.498v3.633h4.736c0.713,0,1.215,0.123,1.514,0.386c0.303,0.256,0.459,0.689,0.459,1.299
		c0,0.606-0.156,1.052-0.459,1.313c-0.299,0.273-0.811,0.408-1.514,0.408h-4.736v3.979c0,1.105,0.17,1.869,0.521,2.285
		c0.344,0.418,0.932,0.635,1.787,0.635c0.809,0,1.76-0.232,2.852-0.705c1.102-0.467,1.844-0.693,2.215-0.693
		c0.434,0,0.795,0.166,1.098,0.498c0.307,0.344,0.451,0.766,0.451,1.287c0,0.746-0.721,1.453-2.182,2.107
		c-1.455,0.662-3.084,1-4.902,1c-1.063,0-2.002-0.145-2.811-0.436c-0.801-0.289-1.441-0.703-1.902-1.238
		c-0.35-0.414-0.592-0.895-0.732-1.484c-0.146-0.572-0.219-1.555-0.219-2.918v-0.338v-3.979H206.824L206.824,154.01z
		 M234.924,160.08v-2.395c-0.535-0.117-1.01-0.199-1.434-0.26c-0.422-0.053-0.824-0.08-1.178-0.08c-1.189,0-2.105,0.188-2.73,0.586
		c-0.637,0.396-0.959,0.959-0.959,1.699c0,0.533,0.221,0.953,0.639,1.264c0.432,0.303,1.014,0.461,1.773,0.461
		c0.711,0,1.391-0.111,2.023-0.314C233.699,160.83,234.318,160.51,234.924,160.08L234.924,160.08z M238.674,154.918v5.768h0.256
		c0.549,0,0.986,0.145,1.279,0.443c0.293,0.287,0.438,0.711,0.438,1.264c0,0.602-0.15,1.033-0.451,1.295
		c-0.305,0.27-0.814,0.4-1.521,0.4h-1.453c-0.521,0-0.912-0.104-1.166-0.293c-0.258-0.205-0.457-0.559-0.619-1.072
		c-0.861,0.564-1.773,0.996-2.736,1.299c-0.971,0.303-1.936,0.455-2.92,0.455c-1.682,0-2.996-0.418-3.941-1.246
		c-0.953-0.828-1.42-1.963-1.42-3.4c0-1.553,0.619-2.76,1.852-3.623c1.225-0.865,2.955-1.289,5.18-1.289
		c0.572,0,1.148,0.027,1.717,0.082c0.58,0.043,1.162,0.135,1.758,0.248v-0.297c0-0.932-0.225-1.639-0.684-2.127
		c-0.443-0.492-1.117-0.728-2-0.728c-0.693,0-1.564,0.249-2.621,0.759c-1.068,0.5-1.828,0.76-2.27,0.76
		c-0.529,0-0.936-0.145-1.242-0.418c-0.303-0.262-0.451-0.646-0.451-1.134c0-0.846,0.615-1.509,1.838-1.999
		c1.242-0.488,2.902-0.734,5.016-0.734c2.205,0,3.787,0.428,4.734,1.273C238.199,151.45,238.674,152.893,238.674,154.918z"/>
	<g>
		<polygon fill="none" stroke="#FFFFFF" stroke-miterlimit="10" points="158.102,43.524 164.387,39.892 170.689,43.524 
			170.689,50.794 164.387,54.427 158.102,50.794 		"/>
		<path fill="#FFFFFF" d="M166.609,46.057c0,0.403-0.146,0.752-0.439,1.038c-0.289,0.287-0.633,0.432-1.039,0.432h-1.484v2.948
			h-1.469v-6.63h2.953c0.4,0,0.748,0.142,1.039,0.432c0.293,0.284,0.439,0.638,0.439,1.038V46.057L166.609,46.057z M165.131,46.057
			v-0.742c0-0.201-0.078-0.379-0.223-0.516c-0.135-0.143-0.307-0.218-0.521-0.218h-0.74v2.209h0.74c0.209,0,0.383-0.07,0.521-0.217
			C165.053,46.428,165.131,46.251,165.131,46.057z"/>
	</g>
	<g>
		<polygon fill="none" stroke="#FFFFFF" stroke-miterlimit="10" points="176.627,52.765 182.916,49.132 189.207,52.765 
			189.207,60.035 182.916,63.667 176.627,60.035 		"/>
		<polygon fill="#FFFFFF" points="185.498,59.714 184.014,59.714 181.805,57.14 181.805,59.714 180.338,59.714 180.338,53.085 
			181.805,53.085 181.805,55.789 184.191,53.085 185.504,53.085 182.545,56.397 		"/>
	</g>
	<g>
		<polygon fill="none" stroke="#FFFFFF" stroke-miterlimit="10" points="166.268,65.577 172.57,61.944 178.852,65.577 
			178.852,72.851 172.57,76.481 166.268,72.851 		"/>
		<path fill-rule="evenodd" clip-rule="evenodd" fill="#FFFFFF" d="M169.264,68.294v0.099l0.199,0.065
			c0.264-0.187,0.85-0.635,1.242-0.64c0.479,0,0.619,0.275,0.984,0.31v0.104c-0.607,0-1.246,0.268-1.244,0.829v0.311
			c0.008,0.568,0.707,0.833,1.254,0.876c-0.4,0.285-0.66,0.234-1.037,0.417l-1.246-0.638l-0.152,0.02v0.107l0.217-0.055
			c0.191,0.378,0.713,0.725,1.295,0.725h0.045c0.424,0,1.326-0.576,1.396-0.576h0.307c0.381-0.008-0.145,0.356-0.145,0.668
			c-0.594,0.16,0.047,0.52-1.592,0.527l-0.109,0.168l0.199-0.121c0.074,0.105,0.117,0.155,0.307,0.155h0.479
			c0.586-0.006,1.094-1.071,1.322-1.497l0.469-0.064c-0.045,0.209-0.156,0.259-0.156,0.469c0.004,0.325,0.539,0.822,0.887,0.822
			l0.313-0.006c0.172,0,0.199-0.036,0.359-0.057v0.212l0.129-0.012l-0.135-0.298c-0.518,0-1.283-0.132-1.289-0.568v-0.254
			c0-0.115,0.09-0.569,0.252-0.569h0.162v0.155h0.15c-0.053,0.221-0.107,0.094-0.107,0.256v0.207c0,0.182,0.414,0.514,0.631,0.514
			h0.154c0.451,0,0.721-0.402,0.881-0.733l0.143,0.121l0.037-0.071l-0.289-0.098c-0.061,0.224-0.572,0.571-0.771,0.576
			c-0.215,0-0.387-0.114-0.521-0.205c0-0.168,0.016-0.464-0.004-0.621c-0.041-0.316-0.176-0.147-0.201-0.459
			c0.07,0.028,0.295,0.097,0.414,0.097c0.174,0,0.4-0.095,0.512-0.157c-0.027-0.142-0.055-0.1-0.055-0.202
			c0-0.123,0.023-0.068,0.055-0.207c-0.111-0.065-0.344-0.156-0.516-0.156c-0.154,0-0.27,0.065-0.414,0.107
			c0.027-0.305,0.145-0.155,0.199-0.425c0.02-0.133,0.006-0.508,0.006-0.663c0.092-0.065,0.307-0.212,0.461-0.212
			c0.422-0.005,0.721,0.466,0.939,0.632l0.148-0.169c-0.367,0.08-0.088-0.16-0.428-0.4c-0.135-0.094-0.506-0.268-0.713-0.268h-0.061
			c-0.23,0-0.607,0.395-0.607,0.521v0.199c0,0.177,0.047,0.049,0.102,0.266h-0.148v0.154h-0.162c-0.158,0-0.266-0.453-0.266-0.564
			v-0.259c-0.002-0.435,0.775-0.573,1.307-0.569l0.088-0.319h-0.098v0.212l-0.471-0.052h-0.207c-0.326,0-0.875,0.503-0.875,0.828
			c0,0.213,0.111,0.26,0.166,0.475l-0.469-0.055c-0.316-0.472-0.666-1.499-1.457-1.491h-0.361c-0.197,0-0.234,0.049-0.309,0.154
			l-0.213-0.092l0.107,0.142c0.619,0,0.998-0.055,1.307,0.293c0.094,0.11,0.852,0.886,0.455,0.892h-0.307
			c-0.107,0-0.98-0.566-1.4-0.561h-0.055c-0.633,0-1.084,0.398-1.35,0.789L169.264,68.294z"/>
	</g>
	<g>
		<polygon fill="none" stroke="#FFFFFF" stroke-miterlimit="10" points="120.783,93.112 127.08,89.478 133.371,93.112 
			133.371,100.384 127.08,104.018 120.783,100.384 		"/>
		<path fill-rule="evenodd" clip-rule="evenodd" fill="#FFFFFF" d="M128.994,95.652c0,0-0.07-1.073-0.441-1.392
			c-0.381-0.305-0.914-0.541-1.375-0.492c-0.453,0.055-1.189,0.178-1.576,0.68c-0.367,0.522-0.404,0.895-0.27,1.381
			c0.141,0.474,0.35,0.729,0.35,0.729l-0.641,0.027l0.012,0.677l0.893,0.014c0,0,0.215,0.205,0.139,0.568
			c-0.063,0.357-0.549,1.037-0.957,1.18c0.129,0.279,0.346,0.648,0.346,0.648s0.672-0.271,0.967-0.271
			c0.289,0,0.496,0.006,1.441,0.271c0.945,0.264,1.215-0.406,1.232-0.377l-0.432-0.885c0,0-0.264,0.34-0.516,0.34
			c-0.268,0-0.834-0.139-1.055-0.205c-0.209-0.068-0.424-0.047-0.424-0.047s0.041-0.041,0.215-0.465
			c0.172-0.432-0.006-0.752-0.006-0.752h0.916l0.01-0.689l-1.033-0.011c0,0-0.447-0.768-0.447-1.118c0-0.34,0.346-0.602,0.674-0.674
			c0.322-0.077,0.77,0.051,0.914,0.293c0.15,0.236,0.086,0.563,0.086,0.563L128.994,95.652z"/>
	</g>
	<g>
		<g>
			<path fill-rule="evenodd" clip-rule="evenodd" fill="#FFFFFF" d="M92.937,45.585c0,0-4.404,20.204-10.744,57.72
				c-6.34,37.514-4.877,75.838-4.877,75.838l4.318,0.936c0,0-0.824-42.509,4.139-75.334c4.969-32.826,10.475-58.801,10.475-58.801
				L92.937,45.585z"/>
		</g>
		<path fill-rule="evenodd" clip-rule="evenodd" fill="#FFFFFF" d="M95.71,45.469c0,0-4.742,20.498-11.088,57.93
			c-6.34,37.42-5.092,70.381-4.99,76.494l3.867,0.357c0,0-0.242-42.3,4.715-75.396c4.953-33.107,10.465-59.296,10.465-59.296
			L95.71,45.469z"/>
	</g>
	<g>
		<g>
			<path fill-rule="evenodd" clip-rule="evenodd" fill="#FFFFFF" d="M83.406,180.299c0,0-3.844-13.82-7.986-21.92
				c-4.145-8.096-7.969-6.282-10.463-10.146c-2.484-3.867-2.57-12.054-8.211-16.644c-5.641-4.605-8.545-2.719-12.75-10.373
				c-4.221-7.657-8.693-1.656-12.996-0.629c-4.307,1.027-23.197,28.581-23.197,28.581s33.996-25.017,44.008-10.294
				c7.979,11.731,20.41,29.731,25.412,40.317C78.379,181.654,82.695,180.914,83.406,180.299z"/>
		</g>
		<g>
			<path fill-rule="evenodd" clip-rule="evenodd" fill="#FFFFFF" d="M47.197,135.155c-3.684-0.107-13.357,1.861-17.504,3.4
				c-6.625,1.995-14.186,5.546-20.842,9.866c-0.93,0.814-1.834,1.682-2.721,2.591l0,0c0.5-0.528,1.172-1.222,1.973-2.056
				c4.201-4.359,12.895-10.353,17.789-14.392c4.264-3.514,14.486-6.861,21.406-8.818c3.258,2.174,4.564,2.318,7.404,4.361
				c2.838,2.033,3.732,3.32,4.371,4.051C56.246,131.71,49.6,134.905,47.197,135.155z"/>
		</g>
	</g>
	<g>
		<g>
			<path fill-rule="evenodd" clip-rule="evenodd" fill="#FFFFFF" d="M114.492,65.184c0.254-1.635-0.811-3.152-2.381-3.396
				c-0.014-0.002-0.027,0-0.041-0.002c0.135-0.273,0.242-0.563,0.293-0.881c0.254-1.635-0.816-3.146-2.383-3.391
				c-0.307-0.049-0.606-0.03-0.897,0.021c0.014-0.065,0.038-0.125,0.048-0.191c0.225-1.438-0.577-2.785-1.843-3.254
				c1.202-0.204,2.209-1.179,2.407-2.497c0.197-1.24-0.375-2.412-1.352-3.01c0.574-0.454,0.992-1.126,1.115-1.922
				c0.248-1.632-0.816-3.15-2.387-3.393c-1.091-0.172-2.134,0.338-2.754,1.211c0.039-0.283,0.097-0.579,0.168-0.885
				c0.852-0.16,1.641-0.689,2.102-1.529c0.154-0.285,0.246-0.585,0.305-0.886c0.815-0.411,1.434-1.209,1.603-2.196
				c0.65-0.248,1.229-0.716,1.595-1.385c0.111-0.208,0.19-0.424,0.251-0.642c1.435,0.043,2.725-1.021,2.958-2.528
				c0.258-1.63-0.813-3.148-2.377-3.396c-0.13-0.02-0.257-0.017-0.384-0.019c0.386-0.426,0.659-0.969,0.755-1.586
				c0.254-1.635-0.816-3.152-2.383-3.396c-0.229-0.035-0.453-0.034-0.674-0.014c-0.023-0.112-0.047-0.226-0.071-0.338
				c0.07-0.189,0.123-0.389,0.155-0.597c0.145-0.96-0.172-1.873-0.771-2.518c-0.009-0.058-0.016-0.114-0.024-0.173
				c0.998-0.343,1.789-1.229,1.968-2.379c0.252-1.634-0.818-3.153-2.389-3.394c-0.802-0.126-1.579,0.116-2.184,0.598
				c-0.03-0.024-0.058-0.054-0.087-0.08c0.718-0.442,1.255-1.189,1.394-2.109c0.248-1.625-0.811-3.146-2.381-3.39
				c-0.131-0.021-0.26-0.019-0.39-0.021c0.028-0.106,0.065-0.209,0.083-0.32c0.248-1.607-0.791-3.104-2.326-3.38
				c-0.226-0.279-0.503-0.522-0.836-0.702c-1.223-0.67-2.735-0.314-3.617,0.763c-0.358-0.273-0.776-0.473-1.248-0.546
				c-1.57-0.243-3.045,0.881-3.297,2.512c-0.07,0.455-0.029,0.896,0.088,1.309c-0.265-0.139-0.548-0.25-0.857-0.299
				c-1.564-0.242-3.037,0.881-3.297,2.513c-0.198,1.311,0.457,2.543,1.537,3.104c-0.959-0.036-1.85,0.425-2.41,1.19
				c-0.131-0.041-0.261-0.083-0.4-0.104c-1.57-0.243-3.037,0.878-3.297,2.51c-0.07,0.453-0.029,0.895,0.087,1.306
				c-0.262-0.137-0.54-0.245-0.845-0.292c-1.574-0.241-3.049,0.877-3.295,2.509c-0.21,1.318,0.451,2.552,1.541,3.111
				c-1.447-0.068-2.751,0.999-2.988,2.521c-0.244,1.583,0.755,3.047,2.248,3.354c-0.249,0.365-0.433,0.786-0.506,1.257
				c-0.138,0.894,0.129,1.745,0.646,2.38c-0.068,0.188-0.12,0.385-0.152,0.59c-0.069,0.451-0.03,0.889,0.084,1.297
				c-0.261-0.135-0.538-0.242-0.842-0.29c-1.564-0.239-3.043,0.886-3.295,2.515c-0.176,1.123,0.286,2.187,1.098,2.822
				c-0.014,0.1-0.014,0.198-0.018,0.297c-0.547,0.07-1.051,0.295-1.468,0.646c-1.278,0.139-2.362,1.141-2.571,2.518
				c-0.202,1.308,0.452,2.532,1.524,3.097c-0.959-0.034-1.843,0.431-2.401,1.195c-0.13-0.041-0.259-0.084-0.396-0.105
				c-1.576-0.246-3.049,0.875-3.297,2.51c-0.071,0.454-0.033,0.896,0.082,1.308c-0.262-0.137-0.541-0.246-0.846-0.294
				c-1.57-0.246-3.049,0.881-3.297,2.508c-0.207,1.314,0.45,2.543,1.527,3.104c-1.441-0.05-2.733,1.012-2.973,2.525
				c-0.238,1.579,0.757,3.044,2.244,3.358c-0.25,0.365-0.434,0.787-0.508,1.258c-0.137,0.896,0.135,1.752,0.658,2.388
				c-0.065,0.184-0.115,0.376-0.146,0.576c-0.072,0.454-0.031,0.896,0.085,1.309c-0.263-0.138-0.545-0.246-0.854-0.294
				c-1.564-0.244-3.037,0.88-3.295,2.514c-0.205,1.309,0.455,2.539,1.539,3.098c-1.445-0.058-2.74,1.006-2.977,2.529
				c-0.244,1.576,0.752,3.044,2.241,3.351c-0.249,0.366-0.432,0.788-0.503,1.26c-0.084,0.545-0.011,1.073,0.169,1.55
				c-0.058-0.013-0.11-0.036-0.169-0.045c-1.564-0.243-3.043,0.883-3.303,2.514c-0.202,1.309,0.456,2.533,1.531,3.096
				c-1.438-0.042-2.728,1.02-2.967,2.533c-0.244,1.583,0.759,3.049,2.246,3.354c-0.248,0.365-0.432,0.785-0.504,1.256
				c-0.258,1.635,0.813,3.15,2.371,3.392c0.934,0.146,1.827-0.201,2.458-0.843c0.036,0.08,0.085,0.152,0.129,0.229
				c-0.302,0.392-0.522,0.854-0.606,1.382c-0.24,1.584,0.758,3.049,2.25,3.367c-0.248,0.365-0.431,0.785-0.504,1.256
				c-0.252,1.619,0.807,3.146,2.377,3.389c0.631,0.098,1.242-0.033,1.77-0.324c0.367,0.344,0.827,0.584,1.345,0.691
				c-0.248,0.363-0.431,0.783-0.501,1.252c-0.258,1.631,0.807,3.151,2.371,3.394c0.875,0.135,1.711-0.162,2.33-0.722
				c0.063,0.066,0.125,0.133,0.188,0.197c-0.265,0.374-0.459,0.808-0.533,1.296c-0.25,1.582,0.751,3.051,2.239,3.359
				c-0.249,0.365-0.432,0.785-0.503,1.256c-0.252,1.629,0.816,3.145,2.389,3.389c0.927,0.146,1.819-0.199,2.448-0.84
				c0.394,0.844,1.165,1.479,2.132,1.625c0.016,0.004,0.03,0,0.046,0.002c0.308,1.055,1.163,1.889,2.288,2.064
				c1.442,0.227,2.786-0.713,3.193-2.127c1.242-0.172,2.287-1.162,2.49-2.512c0.056-0.357,0.038-0.709-0.025-1.045
				c1.5,0.139,2.881-0.951,3.117-2.516c0.066-0.418,0.043-0.828-0.051-1.213c1.067,0.025,2.128-0.543,2.691-1.576
				c0.101-0.188,0.178-0.381,0.237-0.576c1.345,0.113,2.582-0.759,2.99-2.081c0.038-0.111,0.062-0.223,0.086-0.336
				c0.007-0.035,0.021-0.066,0.026-0.102c0.002-0.01,0-0.02,0.002-0.027c0.042-0.242,0.063-0.484,0.047-0.723
				c0.129-0.123,0.254-0.244,0.38-0.367c0.211,0.09,0.431,0.164,0.667,0.201c1.566,0.242,3.039-0.885,3.297-2.518
				c0.046-0.299,0.034-0.588-0.002-0.871c0.32,0.207,0.685,0.352,1.082,0.412c1.564,0.25,3.039-0.879,3.297-2.512
				c0.107-0.707-0.044-1.389-0.365-1.959c1.089-0.291,1.972-1.229,2.162-2.453c0.231-1.495-0.66-2.892-2.025-3.292
				c0.027-0.037,0.053-0.076,0.078-0.115c1.46,0.088,2.793-0.982,3.033-2.522c0.258-1.633-0.813-3.156-2.377-3.398
				c-0.027-0.004-0.053,0-0.079-0.004c0.041-0.136,0.084-0.271,0.106-0.416c0.084-0.547,0.011-1.076-0.17-1.554
				c0.116-0.144,0.223-0.298,0.314-0.467c0.052-0.096,0.083-0.195,0.124-0.293c1.24-0.169,2.29-1.157,2.495-2.505
				c0.164-1.039-0.213-2.03-0.912-2.678c0.004-0.213-0.012-0.421-0.051-0.624c0.756-0.436,1.326-1.203,1.473-2.155
				c0.26-1.627-0.813-3.145-2.377-3.393c-0.316-0.049-0.625-0.029-0.925,0.025c-0.027-0.075-0.053-0.152-0.086-0.226
				c-0.026-0.37-0.113-0.727-0.262-1.051c1.182-0.222,2.165-1.188,2.37-2.489c0.201-1.326-0.471-2.564-1.566-3.115
				c0.039-0.04,0.084-0.075,0.121-0.118c0.343,0.243,0.734,0.419,1.172,0.487c1.568,0.242,3.047-0.885,3.295-2.513
				c0.156-1.001-0.188-1.957-0.838-2.604C113.977,66.597,114.373,65.949,114.492,65.184z M69.025,64.764
				c0.004,0.052,0.014,0.102,0.021,0.151c-0.092-0.044-0.18-0.091-0.276-0.126C68.857,64.787,68.94,64.774,69.025,64.764z
				 M83.875,31.53c0.005,0.051,0.015,0.101,0.021,0.151c-0.091-0.045-0.179-0.091-0.275-0.125
				C83.707,31.554,83.791,31.541,83.875,31.53z M65.563,81.535c-0.018-0.007-0.038-0.008-0.056-0.015
				c0.019,0,0.038,0.004,0.057,0.003C65.563,81.527,65.563,81.531,65.563,81.535z M64.131,87.557
				c-0.029,0.018-0.058,0.036-0.087,0.055c-0.01-0.041-0.028-0.078-0.04-0.119C64.046,87.515,64.088,87.537,64.131,87.557z
				 M93.785,13.162c-0.01-0.042-0.029-0.079-0.041-0.119c0.043,0.021,0.085,0.044,0.129,0.064
				C93.844,13.124,93.814,13.144,93.785,13.162z M85.152,23.384c-0.01-0.039-0.028-0.075-0.039-0.114
				c0.04,0.021,0.08,0.043,0.123,0.063C85.207,23.349,85.18,23.366,85.152,23.384z M81.893,40.118
				c-0.01-0.04-0.028-0.077-0.039-0.118c0.042,0.022,0.084,0.045,0.127,0.064C81.951,40.081,81.922,40.101,81.893,40.118z
				 M70.297,56.626c-0.01-0.044-0.03-0.083-0.042-0.126c0.045,0.023,0.089,0.047,0.136,0.067
				C70.358,56.586,70.328,56.606,70.297,56.626z M67.04,73.353c-0.01-0.042-0.029-0.081-0.042-0.123
				c0.044,0.023,0.088,0.046,0.133,0.067C67.1,73.314,67.07,73.334,67.04,73.353z M62.77,95.754
				c0.004,0.053,0.014,0.104,0.021,0.155c-0.099-0.048-0.195-0.095-0.299-0.132C62.586,95.776,62.677,95.766,62.77,95.754z"/>
		</g>
	</g>
</g>
<path fill="#FFFFFF" d="M95.819,178.293l1.528,0.484c-0.232,0.852-0.619,1.488-1.173,1.902c-0.543,0.414-1.231,0.621-2.07,0.621
	c-1.038,0-1.897-0.355-2.56-1.066c-0.666-0.711-1.006-1.674-1.006-2.908c0-1.293,0.34-2.311,1.012-3.027
	c0.666-0.721,1.559-1.08,2.65-1.08c0.951,0,1.732,0.283,2.328,0.852c0.355,0.326,0.624,0.809,0.796,1.434l-1.559,0.371
	c-0.092-0.396-0.285-0.721-0.575-0.959c-0.302-0.232-0.65-0.348-1.07-0.348c-0.58,0-1.055,0.205-1.408,0.619
	c-0.361,0.418-0.545,1.092-0.545,2.023c0,0.99,0.184,1.693,0.539,2.105c0.354,0.426,0.807,0.639,1.381,0.639
	c0.414,0,0.781-0.135,1.081-0.408C95.471,179.281,95.691,178.871,95.819,178.293L95.819,178.293z M100.982,178.256
	c0-0.5,0.123-0.977,0.371-1.449c0.241-0.461,0.596-0.816,1.043-1.061c0.446-0.248,0.951-0.369,1.506-0.369
	c0.85,0,1.559,0.279,2.107,0.834c0.543,0.557,0.813,1.264,0.813,2.111c0,0.855-0.27,1.559-0.818,2.127
	c-0.554,0.566-1.252,0.842-2.086,0.842c-0.521,0-1.016-0.111-1.489-0.346c-0.468-0.24-0.834-0.582-1.075-1.033
	C101.105,179.457,100.982,178.912,100.982,178.256L100.982,178.256z M102.52,178.34c0,0.559,0.135,0.982,0.403,1.279
	c0.265,0.303,0.592,0.461,0.985,0.461c0.396,0,0.72-0.158,0.982-0.461c0.264-0.297,0.398-0.729,0.398-1.289
	c0-0.553-0.135-0.984-0.398-1.287c-0.263-0.297-0.586-0.443-0.982-0.443c-0.394,0-0.721,0.146-0.985,0.443
	C102.654,177.346,102.52,177.781,102.52,178.34L102.52,178.34z M115.791,181.17h-1.5v-2.898c0-0.605-0.033-1-0.104-1.182
	c-0.059-0.182-0.166-0.316-0.305-0.418c-0.146-0.1-0.318-0.15-0.518-0.15c-0.258,0-0.494,0.078-0.697,0.219
	c-0.211,0.135-0.352,0.322-0.426,0.566c-0.076,0.23-0.119,0.662-0.119,1.295v2.568h-1.494v-5.666h1.387v0.832
	c0.494-0.637,1.119-0.959,1.871-0.959c0.322,0,0.629,0.061,0.898,0.182c0.279,0.115,0.488,0.273,0.629,0.457
	c0.139,0.182,0.236,0.385,0.291,0.623c0.059,0.236,0.086,0.572,0.086,1.014V181.17L115.791,181.17z M125.092,181.17h-1.494v-2.898
	c0-0.605-0.031-1-0.096-1.182c-0.07-0.182-0.172-0.316-0.318-0.418c-0.139-0.1-0.311-0.15-0.514-0.15
	c-0.26,0-0.496,0.078-0.695,0.219c-0.215,0.135-0.35,0.322-0.426,0.566c-0.074,0.23-0.117,0.662-0.117,1.295v2.568h-1.494v-5.666
	h1.387v0.832c0.5-0.637,1.117-0.959,1.867-0.959c0.332,0,0.627,0.061,0.906,0.182c0.27,0.115,0.48,0.273,0.619,0.457
	c0.141,0.182,0.24,0.385,0.289,0.623c0.061,0.236,0.086,0.572,0.086,1.014V181.17L125.092,181.17z M132.529,179.365l1.496,0.254
	c-0.193,0.541-0.502,0.963-0.916,1.248c-0.406,0.287-0.924,0.424-1.553,0.424c-0.979,0-1.703-0.316-2.184-0.965
	c-0.371-0.51-0.559-1.158-0.559-1.949c0-0.938,0.248-1.67,0.736-2.203c0.488-0.527,1.107-0.797,1.855-0.797
	c0.844,0,1.506,0.279,2,0.834c0.484,0.557,0.715,1.404,0.699,2.559h-3.752c0.01,0.445,0.127,0.789,0.359,1.033
	c0.23,0.25,0.516,0.375,0.865,0.375c0.23,0,0.432-0.074,0.586-0.199C132.33,179.852,132.449,179.652,132.529,179.365
	L132.529,179.365z M132.617,177.854c-0.012-0.438-0.125-0.768-0.334-0.988c-0.223-0.232-0.479-0.344-0.781-0.344
	c-0.332,0-0.596,0.125-0.811,0.354c-0.211,0.242-0.318,0.564-0.318,0.979H132.617L132.617,177.854z M142.898,177.182l-1.48,0.258
	c-0.049-0.289-0.156-0.508-0.332-0.658c-0.178-0.148-0.404-0.227-0.695-0.227c-0.365,0-0.66,0.131-0.881,0.387
	c-0.227,0.264-0.346,0.688-0.346,1.293c0,0.678,0.125,1.148,0.35,1.422c0.221,0.281,0.527,0.424,0.904,0.424
	c0.285,0,0.518-0.088,0.699-0.25c0.184-0.16,0.307-0.441,0.383-0.828l1.477,0.242c-0.154,0.678-0.455,1.193-0.887,1.529
	c-0.43,0.346-1.004,0.518-1.742,0.518c-0.828,0-1.49-0.256-1.973-0.777c-0.5-0.521-0.748-1.248-0.748-2.168
	c0-0.932,0.254-1.662,0.748-2.188c0.49-0.52,1.156-0.781,2-0.781c0.688,0,1.236,0.148,1.646,0.443
	C142.43,176.127,142.719,176.572,142.898,177.182L142.898,177.182z M149.264,175.504v1.195h-1.016v2.287
	c0,0.457,0.004,0.727,0.021,0.805c0.021,0.072,0.068,0.131,0.135,0.182c0.074,0.057,0.16,0.084,0.252,0.084
	c0.145,0,0.338-0.051,0.607-0.145l0.129,1.16c-0.354,0.156-0.748,0.219-1.188,0.219c-0.27,0-0.512-0.043-0.727-0.135
	c-0.221-0.09-0.375-0.205-0.479-0.35s-0.166-0.344-0.211-0.586c-0.031-0.168-0.041-0.525-0.041-1.053v-2.469h-0.689v-1.195h0.689
	v-1.123l1.5-0.875v1.998H149.264L149.264,175.504z M152.941,174.744v-1.395h1.506v1.395H152.941L152.941,174.744z M152.941,181.17
	v-5.666h1.506v5.666H152.941L152.941,181.17z M163.771,181.17h-1.498v-2.898c0-0.605-0.033-1-0.094-1.182
	c-0.068-0.182-0.166-0.316-0.316-0.418c-0.145-0.1-0.313-0.15-0.516-0.15c-0.26,0-0.502,0.078-0.693,0.219
	c-0.213,0.135-0.35,0.322-0.424,0.566c-0.082,0.23-0.121,0.662-0.121,1.295v2.568h-1.498v-5.666h1.391v0.832
	c0.494-0.637,1.121-0.959,1.871-0.959c0.322,0,0.627,0.061,0.906,0.182c0.271,0.115,0.477,0.273,0.615,0.457
	c0.141,0.182,0.238,0.385,0.293,0.623c0.057,0.236,0.084,0.572,0.084,1.014V181.17L163.771,181.17z M167.795,181.541l1.713,0.205
	c0.023,0.201,0.088,0.34,0.189,0.408c0.145,0.109,0.373,0.164,0.68,0.164c0.391,0,0.676-0.055,0.875-0.172
	c0.125-0.084,0.225-0.211,0.299-0.383c0.041-0.125,0.068-0.354,0.068-0.688v-0.822c-0.455,0.613-1.018,0.916-1.697,0.916
	c-0.76,0-1.363-0.326-1.811-0.973c-0.344-0.502-0.521-1.141-0.521-1.893c0-0.951,0.232-1.672,0.693-2.178
	c0.451-0.502,1.023-0.75,1.699-0.75c0.701,0,1.279,0.309,1.73,0.922v-0.795h1.404v5.08c0,0.67-0.057,1.172-0.166,1.502
	c-0.113,0.326-0.266,0.582-0.467,0.771c-0.199,0.195-0.459,0.34-0.801,0.443c-0.33,0.105-0.744,0.162-1.254,0.162
	c-0.963,0-1.643-0.168-2.039-0.492c-0.404-0.332-0.604-0.746-0.604-1.248C167.787,181.668,167.787,181.611,167.795,181.541
	L167.795,181.541z M169.127,178.221c0,0.596,0.119,1.045,0.354,1.316c0.23,0.279,0.512,0.424,0.855,0.424
	c0.375,0,0.674-0.145,0.934-0.438c0.244-0.285,0.377-0.707,0.377-1.268c0-0.59-0.125-1.021-0.361-1.303
	c-0.242-0.291-0.549-0.432-0.916-0.432c-0.365,0-0.658,0.141-0.889,0.42C169.246,177.219,169.127,177.648,169.127,178.221
	L169.127,178.221z M183.715,181.17v-7.82h5.363v1.33h-3.787v1.842h3.264v1.32h-3.264v3.328H183.715L183.715,181.17z
	 M194.127,177.229l-1.359-0.242c0.145-0.545,0.406-0.949,0.783-1.215c0.377-0.26,0.926-0.395,1.656-0.395
	c0.678,0,1.18,0.08,1.496,0.236c0.336,0.164,0.559,0.355,0.693,0.605c0.135,0.242,0.205,0.689,0.205,1.336l-0.018,1.75
	c0,0.498,0.021,0.869,0.064,1.098c0.047,0.24,0.141,0.492,0.279,0.768h-1.484c-0.043-0.104-0.098-0.252-0.145-0.443
	c-0.027-0.092-0.045-0.145-0.047-0.182c-0.266,0.252-0.539,0.438-0.826,0.564c-0.295,0.125-0.605,0.182-0.936,0.182
	c-0.586,0-1.039-0.15-1.377-0.467c-0.344-0.32-0.508-0.725-0.508-1.205c0-0.32,0.08-0.607,0.229-0.855
	c0.152-0.25,0.375-0.441,0.646-0.576c0.27-0.131,0.678-0.248,1.195-0.346c0.693-0.133,1.188-0.254,1.451-0.365v-0.15
	c0-0.289-0.074-0.492-0.223-0.619c-0.127-0.121-0.396-0.186-0.795-0.186c-0.27,0-0.471,0.051-0.629,0.162
	C194.336,176.781,194.211,176.965,194.127,177.229L194.127,177.229z M196.127,178.451c-0.195,0.061-0.488,0.137-0.92,0.23
	c-0.414,0.082-0.684,0.176-0.807,0.254c-0.193,0.145-0.297,0.32-0.297,0.535c0,0.205,0.08,0.387,0.232,0.535
	c0.168,0.154,0.354,0.229,0.596,0.229c0.275,0,0.529-0.084,0.773-0.262c0.189-0.135,0.305-0.303,0.361-0.496
	c0.041-0.127,0.061-0.369,0.061-0.727V178.451L196.127,178.451z M203.148,181.17h-1.494v-5.666h1.387v0.803
	c0.232-0.377,0.447-0.623,0.641-0.748c0.195-0.121,0.404-0.182,0.646-0.182c0.342,0,0.67,0.098,0.988,0.283l-0.463,1.305
	c-0.246-0.16-0.482-0.242-0.705-0.242c-0.215,0-0.387,0.059-0.525,0.172c-0.158,0.111-0.266,0.324-0.355,0.627
	c-0.082,0.303-0.119,0.932-0.119,1.895V181.17L203.148,181.17z M208.488,175.504h1.383v0.771c0.496-0.592,1.082-0.898,1.762-0.898
	c0.363,0,0.674,0.074,0.943,0.229c0.268,0.141,0.484,0.363,0.658,0.67c0.242-0.307,0.512-0.529,0.799-0.67
	c0.289-0.154,0.602-0.229,0.926-0.229c0.418,0,0.768,0.088,1.053,0.256c0.291,0.172,0.498,0.414,0.645,0.748
	c0.104,0.234,0.16,0.625,0.16,1.168v3.621h-1.498v-3.238c0-0.564-0.061-0.926-0.158-1.084c-0.135-0.215-0.35-0.326-0.639-0.326
	c-0.215,0-0.404,0.064-0.59,0.199c-0.188,0.127-0.322,0.316-0.4,0.559c-0.08,0.252-0.121,0.637-0.121,1.172v2.719h-1.502v-3.1
	c0-0.557-0.027-0.906-0.074-1.074c-0.061-0.154-0.146-0.275-0.252-0.357c-0.115-0.074-0.26-0.117-0.455-0.117
	c-0.234,0-0.439,0.064-0.629,0.191c-0.182,0.121-0.316,0.293-0.387,0.533c-0.092,0.238-0.129,0.629-0.129,1.168v2.756h-1.494
	V175.504L208.488,175.504z M224.223,179.365l1.488,0.254c-0.188,0.541-0.494,0.963-0.902,1.248
	c-0.414,0.287-0.932,0.424-1.555,0.424c-0.994,0-1.713-0.316-2.188-0.965c-0.371-0.51-0.561-1.158-0.561-1.949
	c0-0.938,0.244-1.67,0.738-2.203c0.494-0.527,1.111-0.797,1.855-0.797c0.844,0,1.512,0.279,1.992,0.834
	c0.492,0.557,0.725,1.404,0.707,2.559h-3.754c0.004,0.445,0.135,0.789,0.361,1.033c0.225,0.25,0.514,0.375,0.857,0.375
	c0.238,0,0.438-0.074,0.592-0.199C224.018,179.852,224.143,179.652,224.223,179.365L224.223,179.365z M224.307,177.854
	c-0.01-0.438-0.121-0.768-0.342-0.988c-0.207-0.232-0.463-0.344-0.775-0.344c-0.322,0-0.596,0.125-0.801,0.354
	c-0.209,0.242-0.324,0.564-0.324,0.979H224.307L224.307,177.854z M231.088,181.17h-1.498v-5.666h1.387v0.803
	c0.242-0.377,0.457-0.623,0.65-0.748c0.188-0.121,0.402-0.182,0.648-0.182c0.34,0,0.664,0.098,0.98,0.283l-0.461,1.305
	c-0.25-0.16-0.492-0.242-0.705-0.242c-0.211,0-0.387,0.059-0.535,0.172c-0.145,0.111-0.256,0.324-0.342,0.627
	c-0.082,0.303-0.125,0.932-0.125,1.895V181.17L231.088,181.17z M236.016,179.547l1.498-0.23c0.064,0.299,0.199,0.521,0.395,0.67
	c0.191,0.146,0.467,0.225,0.818,0.225c0.387,0,0.68-0.07,0.881-0.213c0.121-0.098,0.193-0.229,0.193-0.396
	c0-0.115-0.037-0.213-0.115-0.285c-0.068-0.072-0.238-0.133-0.506-0.193c-1.197-0.266-1.961-0.514-2.289-0.732
	c-0.439-0.301-0.672-0.73-0.672-1.277c0-0.484,0.195-0.902,0.582-1.238c0.391-0.33,0.99-0.498,1.801-0.498
	c0.777,0,1.35,0.127,1.73,0.377c0.369,0.256,0.629,0.633,0.781,1.121l-1.422,0.262c-0.057-0.221-0.172-0.391-0.34-0.504
	c-0.172-0.115-0.414-0.182-0.723-0.182c-0.387,0-0.674,0.061-0.846,0.172c-0.107,0.076-0.172,0.174-0.172,0.303
	c0,0.111,0.055,0.191,0.154,0.271c0.133,0.098,0.604,0.242,1.395,0.418c0.795,0.178,1.359,0.404,1.674,0.664
	c0.309,0.275,0.471,0.646,0.471,1.113c0,0.525-0.219,0.971-0.656,1.348c-0.434,0.369-1.074,0.551-1.922,0.551
	c-0.771,0-1.385-0.15-1.832-0.467C236.451,180.514,236.154,180.09,236.016,179.547z"/>
</svg>
