<?xml version="1.0" encoding="utf-8"?>
<!-- Generator: Adobe Illustrator 16.0.0, SVG Export Plug-In . SVG Version: 6.00 Build 0)  -->
<!DOCTYPE svg PUBLIC "-//W3C//DTD SVG 1.1//EN" "http://www.w3.org/Graphics/SVG/1.1/DTD/svg11.dtd">
<svg version="1.1" id="Layer_1" xmlns="http://www.w3.org/2000/svg" xmlns:xlink="http://www.w3.org/1999/xlink" x="0px" y="0px"
	 width="239px" height="203.333px" viewBox="0 0 239 203.333" enable-background="new 0 0 239 203.333" xml:space="preserve">
<g>
	<g>
		<polygon fill="none" stroke="#FFFFFF" stroke-miterlimit="10" points="131.016,6.328 137.311,2.693 143.602,6.328 143.602,13.596 
			137.311,17.233 131.016,13.596 		"/>
		<path fill="#FFFFFF" d="M139.676,11.94c0,0.434-0.148,0.799-0.463,1.113c-0.311,0.311-0.682,0.465-1.111,0.465h-1.586
			c-0.432,0-0.801-0.154-1.115-0.457c-0.305-0.316-0.461-0.688-0.461-1.121V7.987c0-0.433,0.156-0.806,0.461-1.114
			c0.314-0.31,0.684-0.464,1.115-0.464h1.586c0.43,0,0.801,0.154,1.111,0.464c0.314,0.314,0.463,0.682,0.463,1.114V11.94
			L139.676,11.94z M138.092,7.854c-0.113-0.432-0.373-0.65-0.781-0.65c-0.221,0-0.408,0.076-0.559,0.227
			c-0.156,0.153-0.236,0.341-0.236,0.557v2.688L138.092,7.854L138.092,7.854z M138.102,11.94V9.253l-1.566,2.811
			c0.082,0.445,0.346,0.659,0.775,0.659c0.221,0,0.404-0.073,0.561-0.225C138.025,12.343,138.102,12.155,138.102,11.94z"/>
	</g>
	<g>
		<polygon fill="none" stroke="#FFFFFF" stroke-miterlimit="10" points="143.914,44.615 150.205,40.982 156.504,44.615 
			156.504,51.885 150.205,55.522 143.914,51.885 		"/>
		<polygon fill="#FFFFFF" points="152.795,51.57 152.447,51.57 148.355,47.886 148.355,51.57 147.617,51.57 147.617,44.935 
			147.963,44.935 152.057,48.622 152.057,44.935 152.795,44.935 		"/>
	</g>
	<g>
		<polygon fill="none" stroke="#FFFFFF" stroke-miterlimit="10" points="145.361,72.286 151.662,68.649 157.945,72.286 
			157.945,79.556 151.662,83.187 145.361,79.556 		"/>
		<path fill-rule="evenodd" clip-rule="evenodd" fill="#FFFFFF" d="M153.588,72.532h-4.889l0.631,0.811h2.262
			c0.115,0.141,0.24,0.332,0.324,0.547h-2.74l0.611,0.817h2.199c-0.018,0.077-0.037,0.153-0.07,0.236
			c-0.246,0.575-0.65,0.88-0.939,1.029l-0.324-0.405h-1.043l2.926,3.736h1.053l-2.035-2.602c0.346-0.268,1.268-1.063,1.346-1.995
			h1.711l-0.549-0.817h-1.246c-0.055-0.215-0.125-0.387-0.199-0.547h1.531L153.588,72.532z"/>
	</g>
	<g>
		<polygon fill="none" stroke="#FFFFFF" stroke-miterlimit="10" points="165.879,79.735 172.182,76.104 178.471,79.735 
			178.471,87.006 172.182,90.638 165.879,87.006 		"/>
		<path fill="#FFFFFF" d="M171.875,85.416V83.6c-0.563-0.163-0.982-0.405-1.252-0.733c-0.26-0.336-0.398-0.729-0.398-1.195
			c0-0.475,0.156-0.875,0.451-1.195c0.307-0.317,0.701-0.506,1.199-0.559V79.49h0.627v0.427c0.461,0.059,0.828,0.217,1.1,0.477
			c0.27,0.254,0.441,0.601,0.512,1.039l-1.094,0.141c-0.064-0.346-0.236-0.573-0.518-0.701v1.701
			c0.693,0.182,1.17,0.431,1.416,0.729c0.254,0.297,0.377,0.68,0.377,1.147c0,0.524-0.154,0.966-0.467,1.326
			c-0.324,0.359-0.764,0.578-1.326,0.661v0.806h-0.627v-0.789c-0.504-0.061-0.902-0.244-1.215-0.559
			c-0.316-0.309-0.516-0.75-0.605-1.318l1.133-0.127c0.045,0.232,0.135,0.43,0.264,0.602
			C171.578,85.224,171.721,85.345,171.875,85.416L171.875,85.416z M171.875,80.866c-0.172,0.057-0.299,0.156-0.414,0.293
			c-0.094,0.139-0.145,0.292-0.145,0.456c0,0.157,0.037,0.302,0.135,0.429c0.098,0.132,0.236,0.238,0.424,0.325V80.866
			L171.875,80.866z M172.502,85.478c0.219-0.038,0.391-0.139,0.531-0.299c0.135-0.162,0.201-0.351,0.201-0.568
			c0-0.196-0.053-0.36-0.17-0.506c-0.111-0.135-0.301-0.243-0.563-0.316V85.478z"/>
	</g>
	<g>
		<polygon fill="none" stroke="#FFFFFF" stroke-miterlimit="10" points="132.164,92.333 138.461,88.702 144.754,92.333 
			144.754,99.597 138.461,103.232 132.164,99.597 		"/>
		<path fill-rule="evenodd" clip-rule="evenodd" fill="#FFFFFF" d="M141.021,98.368c-0.027,0.074-0.049,0.047-0.104,0.188
			l0.168,0.061c0.076,0.021,0.283-0.215,0.504-0.282c0.066,0.077,0.098,0.219,0.184,0.245c0.236,0.081,0.316-0.05,0.205,0.297
			c0.047,0.054,0.07,0.098,0.178,0.131c0.09,0.034,0.182-0.057,0.258-0.084c0.184-0.095,0.145,0.007,0.295-0.04
			c0.178-0.055,0.135-0.341,0.195-0.556c0.127-0.458-0.125-0.7-0.355-1.004c-0.076-0.084-0.92-0.622-1.059-0.673
			c-0.459-0.172-0.953-0.316-1.422-0.472c-1.148-0.391-1.676-0.568-2.402-1.182c-0.383-0.313-0.598-0.354-0.807-0.808
			c-0.119-0.242-0.236-0.737-0.619-0.868c-0.188-0.067-0.273-0.055-0.408-0.102c-0.211-0.061-0.225-0.188-0.307-0.208l-0.037-0.018
			c-0.125-0.044-0.322,0.018-0.43,0.041c-0.064-0.041-0.082-0.064-0.184-0.102c-0.215-0.067-0.564,0.118-0.656,0.381l-0.053,0.168
			c-0.061,0.179-0.076,0.337,0,0.444l0.402-0.142l-0.006,0.091l0.059,0.031c-0.182,0.289-0.58,0.37-0.639,0.45l0.172,0.058
			c0.188,0.064,0.387-0.094,0.688-0.061l0.027,0.03l-0.59,0.404l0.014,0.05l0.883-0.121l0.08,0.078l0.037,0.02l-0.586,0.644
			c0.346,0.107,0.619-0.316,0.895-0.223c0.02,0.011,0.408,0.63,0.822,0.765c-0.055,0.263,0.102,0.256,0.059,0.394l-0.01,0.037
			c-0.033,0.101-0.061,0.114-0.104,0.186c0.021,0.07,0.018,0.117,0.098,0.147c0.09,0.034,0.107,0.017,0.184,0.023
			c0.117-0.289,0.213-0.242,0.439-0.306l0.322,0.373c-0.049,0.165-0.176,0.351-0.021,0.407l0.066,0.018
			c0.203,0.074,0.182-0.425,0.617-0.273c0.338,0.111,0.076,0.583,0.23,0.64l0.039,0.014c0.09,0.027,0.15-0.04,0.215-0.084
			l0.055-0.168c0.037-0.027,0.117-0.108,0.176-0.085c0.473,0.158,0.145,0.529,0.328,0.59l0.033,0.017
			c0.074,0.021,0.08-0.007,0.156-0.027c0.059-0.175,0.135-0.403,0.307-0.35c0.16,0.058,0.283,0.263,0.221,0.451l-0.033,0.104
			l0.096,0.033c0.082,0.027,0.082,0,0.162-0.023c0.049-0.145,0.141-0.363,0.258-0.323c0.166,0.051,0.242,0.155,0.193,0.323
			l-0.059,0.172l0.102,0.03c0.109,0.04,0.258-0.209,0.328-0.3C141.031,98.086,141.076,98.193,141.021,98.368z"/>
	</g>
	<g>
		<polygon fill="none" stroke="#FFFFFF" stroke-miterlimit="10" points="144.561,103.704 150.857,100.071 157.154,103.704 
			157.154,110.969 150.857,114.602 144.561,110.969 		"/>
		<path fill="#FFFFFF" d="M150.266,110.047h-1.82c-0.486,0-0.924-0.176-1.273-0.529c-0.355-0.359-0.531-0.777-0.531-1.279v-1.808
			c0-0.494,0.176-0.919,0.531-1.272c0.35-0.35,0.787-0.535,1.273-0.535h1.219c0.145,0,0.285,0.067,0.402,0.195
			c0.129,0.121,0.199,0.263,0.199,0.411v0.603h-0.602c0-0.165-0.061-0.31-0.18-0.428c-0.117-0.121-0.256-0.175-0.43-0.175
			c-0.334,0-0.619,0.114-0.855,0.354c-0.236,0.235-0.354,0.524-0.354,0.848v1.808c0,0.337,0.117,0.62,0.354,0.855
			c0.236,0.232,0.521,0.354,0.855,0.354h1.211V110.047L150.266,110.047z M155.066,110.047h-1.199v-0.902
			c-0.086,0.336-0.219,0.572-0.402,0.703c-0.18,0.135-0.445,0.199-0.803,0.199c-0.332,0-0.615-0.115-0.857-0.351
			c-0.227-0.242-0.35-0.525-0.35-0.854v-3.01h1.207v3.01c0,0.396,0.098,0.605,0.303,0.605c0.27,0,0.496-0.118,0.668-0.33
			c0.16-0.185,0.234-0.377,0.234-0.579v-2.706h1.199V110.047z"/>
	</g>
	<g>
		<polygon fill="none" stroke="#FFFFFF" stroke-miterlimit="10" points="166.465,105.656 172.754,102.021 179.057,105.656 
			179.057,112.925 172.754,116.558 166.465,112.925 		"/>
		<path fill="#FFFFFF" d="M172.154,111.996h-3.602v-0.603l2.404-4.205h-2.404v-0.603h3.602v0.603l-2.406,4.205h2.406V111.996
			L172.154,111.996z M176.969,111.996h-1.199v-3.014c0-0.396-0.104-0.596-0.303-0.596c-0.271,0-0.494,0.104-0.676,0.323
			c-0.156,0.186-0.232,0.374-0.232,0.576v2.71h-1.199v-4.215h1.199v0.902c0.09-0.334,0.223-0.569,0.404-0.701
			c0.172-0.134,0.447-0.201,0.807-0.201c0.334,0,0.613,0.121,0.85,0.35c0.225,0.239,0.35,0.519,0.35,0.852V111.996z"/>
	</g>
	<polygon fill="none" stroke="#FFFFFF" stroke-miterlimit="10" points="95.768,7.147 102.063,3.516 108.355,7.147 108.355,14.415 
		102.063,18.05 95.768,14.415 	"/>
	<polygon fill="none" stroke="#FFFFFF" stroke-miterlimit="10" points="101.945,15.762 108.236,12.128 114.531,15.762 
		114.531,23.031 108.236,26.661 101.945,23.031 	"/>
	<polygon fill="none" stroke="#FFFFFF" stroke-miterlimit="10" points="119.641,17.908 125.938,14.271 132.234,17.908 
		132.234,25.173 125.938,28.805 119.641,25.173 	"/>
	<polygon fill="none" stroke="#FFFFFF" stroke-miterlimit="10" points="166.697,6.873 172.996,3.24 179.291,6.873 179.291,14.143 
		172.996,17.771 166.697,14.143 	"/>
	<polygon fill="none" stroke="#FFFFFF" stroke-miterlimit="10" points="115.984,31.186 122.281,27.552 128.572,31.186 
		128.572,38.454 122.281,42.089 115.984,38.454 	"/>
	<polygon fill="none" stroke="#FFFFFF" stroke-miterlimit="10" points="99.068,38.2 105.365,34.565 111.656,38.2 111.656,45.472 
		105.365,49.104 99.068,45.472 	"/>
	<polygon fill="none" stroke="#FFFFFF" stroke-miterlimit="10" points="164.305,24.929 170.592,21.296 176.895,24.929 
		176.895,32.198 170.592,35.833 164.305,32.198 	"/>
	<polygon fill="none" stroke="#FFFFFF" stroke-miterlimit="10" points="191.754,7.147 198.053,3.516 204.344,7.147 204.344,14.415 
		198.053,18.05 191.754,14.415 	"/>
	<polygon fill="none" stroke="#FFFFFF" stroke-miterlimit="10" points="198.205,10.405 204.49,6.772 210.781,10.405 210.781,17.676 
		204.49,21.31 198.205,17.676 	"/>
	<polygon fill="none" stroke="#FFFFFF" stroke-miterlimit="10" points="206.004,24.338 212.307,20.7 218.592,24.338 218.592,31.608 
		212.307,35.241 206.004,31.608 	"/>
	<polygon fill="none" stroke="#FFFFFF" stroke-miterlimit="10" points="185.65,25.954 191.943,22.318 198.234,25.954 
		198.234,33.222 191.943,36.853 185.65,33.222 	"/>
	<polygon fill="none" stroke="#FFFFFF" stroke-miterlimit="10" points="187.465,43.908 193.758,40.273 200.043,43.908 
		200.043,51.174 193.758,54.806 187.465,51.174 	"/>
	<polygon fill="none" stroke="#FFFFFF" stroke-miterlimit="10" points="216.861,51.62 223.164,47.987 229.455,51.62 229.455,58.89 
		223.164,62.524 216.861,58.89 	"/>
	<g>
		<polygon fill="none" stroke="#FFFFFF" stroke-miterlimit="10" points="139.441,58.974 145.736,55.34 152.029,58.974 
			152.029,66.246 145.736,69.877 139.441,66.246 		"/>
	</g>
	<polygon fill="none" stroke="#FFFFFF" stroke-miterlimit="10" points="162.088,39.985 168.391,36.351 174.672,39.985 
		174.672,47.251 168.391,50.881 162.088,47.251 	"/>
	<polygon fill="none" stroke="#FFFFFF" stroke-miterlimit="10" points="168.064,42.688 174.359,39.05 180.645,42.688 
		180.645,49.958 174.359,53.591 168.064,49.958 	"/>
	<polygon fill="none" stroke="#FFFFFF" stroke-miterlimit="10" points="158.164,55.095 164.463,51.46 170.748,55.095 
		170.748,62.364 164.463,65.996 158.164,62.364 	"/>
	<polygon fill="none" stroke="#FFFFFF" stroke-miterlimit="10" points="153.563,60.011 159.857,56.373 166.145,60.011 
		166.145,67.28 159.857,70.908 153.563,67.28 	"/>
	<polygon fill="none" stroke="#FFFFFF" stroke-miterlimit="10" points="105.004,64.296 111.307,60.656 117.592,64.296 
		117.592,71.561 111.307,75.198 105.004,71.561 	"/>
	<polygon fill="none" stroke="#FFFFFF" stroke-miterlimit="10" points="199.375,58.831 205.672,55.192 211.957,58.831 
		211.957,66.097 205.672,69.731 199.375,66.097 	"/>
	<polygon fill="none" stroke="#FFFFFF" stroke-miterlimit="10" points="192.061,59.101 198.359,55.462 204.65,59.101 204.65,66.364 
		198.359,69.998 192.061,66.364 	"/>
	<polygon fill="none" stroke="#FFFFFF" stroke-miterlimit="10" points="203.971,63.737 210.264,60.101 216.563,63.737 
		216.563,71.003 210.264,74.635 203.971,71.003 	"/>
	<polygon fill="none" stroke="#FFFFFF" stroke-miterlimit="10" points="201.258,84.896 207.561,81.259 213.846,84.896 
		213.846,92.161 207.561,95.8 201.258,92.161 	"/>
	<polygon fill="none" stroke="#FFFFFF" stroke-miterlimit="10" points="207.705,83.303 213.996,79.666 220.291,83.303 
		220.291,90.572 213.996,94.204 207.705,90.572 	"/>
	<polygon fill="none" stroke="#FFFFFF" stroke-miterlimit="10" points="182.469,85.871 188.766,82.236 195.063,85.871 
		195.063,93.141 188.766,96.776 182.469,93.141 	"/>
	<polygon fill="none" stroke="#FFFFFF" stroke-miterlimit="10" points="179.361,91.429 185.65,87.795 191.953,91.429 
		191.953,98.698 185.65,102.327 179.361,98.698 	"/>
	<polygon fill="none" stroke="#FFFFFF" stroke-miterlimit="10" points="164.934,92.284 171.232,88.651 177.518,92.284 
		177.518,99.554 171.232,103.186 164.934,99.554 	"/>
	<polygon fill="none" stroke="#FFFFFF" stroke-miterlimit="10" points="149.59,87.878 155.885,84.244 162.176,87.878 162.176,95.15 
		155.885,98.782 149.59,95.15 	"/>
	<polygon fill="none" stroke="#FFFFFF" stroke-miterlimit="10" points="119.361,84.3 125.654,80.663 131.951,84.3 131.951,91.567 
		125.654,95.204 119.361,91.567 	"/>
	<polygon fill="none" stroke="#FFFFFF" stroke-miterlimit="10" points="118.361,65.466 124.652,61.833 130.939,65.466 
		130.939,72.731 124.652,76.368 118.361,72.731 	"/>
	<polygon fill="none" stroke="#FFFFFF" stroke-miterlimit="10" points="102.691,78.212 108.99,74.577 115.287,78.212 
		115.287,85.483 108.99,89.114 102.691,85.483 	"/>
	<polygon fill="none" stroke="#FFFFFF" stroke-miterlimit="10" points="129.395,101.149 135.697,97.517 141.994,101.149 
		141.994,108.421 135.697,112.057 129.395,108.421 	"/>
	<polygon fill="none" stroke="#FFFFFF" stroke-miterlimit="10" points="174.754,108.717 181.045,105.084 187.334,108.717 
		187.334,115.985 181.045,119.614 174.754,115.985 	"/>
	<polygon fill="none" stroke="#FFFFFF" stroke-miterlimit="10" points="99.332,94.574 105.629,90.94 111.92,94.574 111.92,101.843 
		105.629,105.475 99.332,101.843 	"/>
	<polygon fill="none" stroke="#FFFFFF" stroke-miterlimit="10" points="91.836,103.488 98.133,99.856 104.43,103.488 104.43,110.76 
		98.133,114.393 91.836,110.76 	"/>
	<g>
		<polygon fill="none" stroke="#FFFFFF" stroke-miterlimit="10" points="112.064,11.56 118.361,7.92 124.646,11.56 124.646,18.823 
			118.361,22.457 112.064,18.823 		"/>
		<path fill="#FFFFFF" d="M120.721,17.167c0,0.431-0.145,0.802-0.461,1.113c-0.307,0.31-0.678,0.466-1.113,0.466h-1.58
			c-0.438,0-0.807-0.156-1.113-0.46c-0.313-0.313-0.469-0.688-0.469-1.119v-3.955c0-0.433,0.156-0.804,0.469-1.115
			c0.307-0.31,0.676-0.461,1.113-0.461h1.58c0.436,0,0.807,0.151,1.113,0.461c0.316,0.314,0.461,0.683,0.461,1.115V17.167
			L120.721,17.167z M119.137,13.081c-0.113-0.435-0.365-0.65-0.775-0.65c-0.221,0-0.408,0.073-0.559,0.227
			c-0.156,0.156-0.236,0.343-0.236,0.555v2.691L119.137,13.081L119.137,13.081z M119.146,17.167v-2.688l-1.559,2.809
			c0.08,0.442,0.344,0.664,0.773,0.664c0.217,0,0.402-0.073,0.559-0.232C119.072,17.564,119.146,17.382,119.146,17.167z"/>
	</g>
	<g>
		<polygon fill="none" stroke="#FFFFFF" stroke-miterlimit="10" points="176.043,13.657 182.342,10.024 188.627,13.657 
			188.627,20.925 182.342,24.557 176.043,20.925 		"/>
		<path fill="#FFFFFF" d="M184.701,19.264c0,0.435-0.145,0.802-0.465,1.116c-0.309,0.309-0.676,0.464-1.111,0.464h-1.584
			c-0.428,0-0.809-0.155-1.115-0.458c-0.303-0.314-0.461-0.688-0.461-1.122v-3.951c0-0.431,0.158-0.806,0.461-1.115
			c0.307-0.309,0.688-0.464,1.115-0.464h1.584c0.436,0,0.803,0.155,1.111,0.464c0.32,0.315,0.465,0.685,0.465,1.115V19.264
			L184.701,19.264z M183.115,15.181c-0.113-0.432-0.373-0.65-0.773-0.65c-0.223,0-0.41,0.074-0.566,0.227
			c-0.154,0.156-0.234,0.345-0.234,0.556v2.692L183.115,15.181L183.115,15.181z M183.125,19.264v-2.681l-1.564,2.807
			c0.08,0.44,0.344,0.66,0.781,0.66c0.211,0,0.396-0.071,0.553-0.23C183.049,19.669,183.125,19.481,183.125,19.264z"/>
	</g>
	<g>
		<polygon fill="none" stroke="#FFFFFF" stroke-miterlimit="10" points="224.207,30.437 230.498,26.801 236.791,30.437 
			236.791,37.703 230.498,41.339 224.207,37.703 		"/>
		<path fill="#FFFFFF" d="M232.869,36.048c0,0.43-0.154,0.8-0.469,1.115c-0.307,0.309-0.684,0.46-1.111,0.46h-1.588
			c-0.428,0-0.801-0.151-1.107-0.456c-0.311-0.314-0.461-0.689-0.461-1.119v-3.955c0-0.432,0.15-0.804,0.461-1.113
			c0.307-0.309,0.68-0.463,1.107-0.463h1.588c0.428,0,0.805,0.154,1.111,0.463c0.314,0.315,0.469,0.682,0.469,1.113V36.048
			L232.869,36.048z M231.277,31.96c-0.109-0.433-0.365-0.652-0.779-0.652c-0.215,0-0.41,0.076-0.559,0.23
			c-0.15,0.153-0.238,0.341-0.238,0.555v2.689L231.277,31.96L231.277,31.96z M231.289,36.048v-2.686l-1.561,2.807
			c0.076,0.44,0.34,0.661,0.77,0.661c0.219,0,0.408-0.077,0.559-0.231C231.213,36.447,231.289,36.259,231.289,36.048z"/>
	</g>
	<g>
		<path fill="#FFFFFF" d="M187.449,38.589c0,0.432-0.152,0.801-0.463,1.113c-0.313,0.309-0.682,0.463-1.113,0.463h-1.586
			c-0.432,0-0.809-0.154-1.117-0.458c-0.303-0.313-0.459-0.687-0.459-1.118v-3.953c0-0.432,0.156-0.808,0.459-1.117
			c0.309-0.309,0.686-0.461,1.117-0.461h1.586c0.432,0,0.801,0.152,1.113,0.461c0.311,0.315,0.463,0.686,0.463,1.117V38.589
			L187.449,38.589z M185.863,34.501c-0.115-0.43-0.371-0.65-0.781-0.65c-0.219,0-0.404,0.076-0.566,0.231
			c-0.148,0.155-0.229,0.342-0.229,0.554v2.691L185.863,34.501L185.863,34.501z M185.873,38.589v-2.686l-1.568,2.811
			c0.084,0.441,0.346,0.66,0.777,0.66c0.223,0,0.404-0.075,0.559-0.23C185.793,38.991,185.873,38.802,185.873,38.589z"/>
		<polygon fill="none" stroke="#FFFFFF" stroke-miterlimit="10" points="178.779,32.979 185.078,29.343 191.367,32.979 
			191.367,40.247 185.078,43.882 178.779,40.247 		"/>
	</g>
	<g>
		<polygon fill="none" stroke="#FFFFFF" stroke-miterlimit="10" points="151.158,25.681 157.449,22.048 163.742,25.681 
			163.742,32.95 157.449,36.585 151.158,32.95 		"/>
		<path fill="#FFFFFF" d="M159.816,31.295c0,0.431-0.148,0.798-0.465,1.115c-0.307,0.306-0.676,0.46-1.111,0.46h-1.582
			c-0.43,0-0.807-0.154-1.113-0.457c-0.307-0.314-0.461-0.688-0.461-1.118v-3.956c0-0.434,0.154-0.803,0.461-1.112
			s0.684-0.464,1.113-0.464h1.582c0.436,0,0.805,0.154,1.111,0.464c0.316,0.312,0.465,0.679,0.465,1.112V31.295L159.816,31.295z
			 M158.227,27.204c-0.109-0.431-0.363-0.649-0.777-0.649c-0.215,0-0.404,0.075-0.555,0.229c-0.154,0.154-0.236,0.342-0.236,0.555
			v2.69L158.227,27.204L158.227,27.204z M158.24,31.295v-2.688l-1.561,2.809c0.08,0.443,0.346,0.664,0.77,0.664
			c0.219,0,0.408-0.079,0.563-0.232C158.164,31.691,158.24,31.505,158.24,31.295z"/>
	</g>
	<g>
		<polygon fill="none" stroke="#FFFFFF" stroke-miterlimit="10" points="131.234,32.817 137.531,29.183 143.822,32.817 
			143.822,40.087 137.531,43.722 131.234,40.087 		"/>
		<path fill="#FFFFFF" d="M139.896,38.433c0,0.43-0.148,0.795-0.467,1.109c-0.307,0.309-0.678,0.463-1.107,0.463h-1.586
			c-0.432,0-0.809-0.154-1.119-0.458c-0.303-0.315-0.457-0.685-0.457-1.114v-3.959c0-0.432,0.154-0.803,0.457-1.111
			c0.311-0.313,0.688-0.469,1.119-0.469h1.586c0.43,0,0.801,0.156,1.107,0.469c0.318,0.314,0.467,0.68,0.467,1.111V38.433
			L139.896,38.433z M138.305,34.341c-0.105-0.43-0.365-0.65-0.773-0.65c-0.221,0-0.408,0.076-0.561,0.232
			c-0.154,0.152-0.234,0.339-0.234,0.551v2.693L138.305,34.341L138.305,34.341z M138.322,38.433v-2.689l-1.57,2.811
			c0.086,0.441,0.35,0.66,0.779,0.66c0.215,0,0.402-0.075,0.561-0.23C138.246,38.829,138.322,38.642,138.322,38.433z"/>
	</g>
	<g>
		<polygon fill="none" stroke="#FFFFFF" stroke-miterlimit="10" points="108.662,28.069 114.959,24.436 121.248,28.069 
			121.248,35.335 114.959,38.97 108.662,35.335 		"/>
		<path fill="#FFFFFF" d="M117.324,33.682c0,0.432-0.15,0.797-0.469,1.112c-0.307,0.309-0.676,0.465-1.107,0.465h-1.582
			c-0.436,0-0.805-0.156-1.111-0.459c-0.313-0.315-0.469-0.687-0.469-1.118v-3.956c0-0.432,0.156-0.805,0.469-1.115
			c0.307-0.309,0.676-0.461,1.111-0.461h1.582c0.432,0,0.801,0.152,1.107,0.461c0.318,0.315,0.469,0.684,0.469,1.115V33.682
			L117.324,33.682z M115.732,29.594c-0.107-0.43-0.359-0.651-0.773-0.651c-0.217,0-0.41,0.078-0.561,0.229
			c-0.156,0.152-0.232,0.34-0.232,0.555v2.695L115.732,29.594L115.732,29.594z M115.748,33.682v-2.686l-1.564,2.809
			c0.086,0.443,0.344,0.661,0.775,0.661c0.219,0,0.408-0.074,0.559-0.229C115.674,34.082,115.748,33.895,115.748,33.682z"/>
	</g>
	<g>
		<polygon fill="none" stroke="#FFFFFF" stroke-miterlimit="10" points="118.689,45.421 124.986,41.784 131.277,45.421 
			131.277,52.687 124.986,56.321 118.689,52.687 		"/>
		<path fill="#FFFFFF" d="M127.348,51.029c0,0.431-0.146,0.798-0.463,1.114c-0.313,0.305-0.678,0.465-1.107,0.465h-1.586
			c-0.432,0-0.807-0.16-1.119-0.465c-0.303-0.309-0.457-0.684-0.457-1.114v-3.952c0-0.437,0.154-0.806,0.457-1.116
			c0.313-0.308,0.688-0.463,1.119-0.463h1.586c0.43,0,0.795,0.155,1.107,0.463c0.316,0.313,0.463,0.68,0.463,1.116V51.029
			L127.348,51.029z M125.766,46.942c-0.119-0.435-0.377-0.65-0.779-0.65c-0.221,0-0.408,0.072-0.564,0.227
			c-0.156,0.156-0.23,0.345-0.23,0.559v2.688L125.766,46.942L125.766,46.942z M125.777,51.029v-2.688l-1.572,2.811
			c0.086,0.441,0.352,0.662,0.781,0.662c0.215,0,0.402-0.074,0.559-0.232C125.695,51.428,125.777,51.239,125.777,51.029z"/>
	</g>
	<g>
		<polygon fill="none" stroke="#FFFFFF" stroke-miterlimit="10" points="134.801,75.853 141.09,72.218 147.387,75.853 
			147.387,83.12 141.09,86.753 134.801,83.12 		"/>
		<path fill="#FFFFFF" d="M143.463,81.46c0,0.434-0.15,0.798-0.469,1.113c-0.307,0.311-0.684,0.463-1.113,0.463h-1.58
			c-0.43,0-0.801-0.152-1.113-0.455c-0.307-0.318-0.463-0.688-0.463-1.121v-3.955c0-0.43,0.156-0.803,0.463-1.111
			c0.313-0.309,0.684-0.465,1.113-0.465h1.58c0.43,0,0.807,0.156,1.113,0.465c0.318,0.311,0.469,0.682,0.469,1.111V81.46
			L143.463,81.46z M141.869,77.37c-0.105-0.43-0.365-0.648-0.779-0.648c-0.209,0-0.402,0.076-0.553,0.231
			c-0.154,0.155-0.236,0.338-0.236,0.552v2.694L141.869,77.37L141.869,77.37z M141.881,81.46v-2.686l-1.561,2.811
			c0.082,0.441,0.342,0.66,0.77,0.66c0.221,0,0.414-0.077,0.566-0.23C141.807,81.858,141.881,81.673,141.881,81.46z"/>
	</g>
	<g>
		<polygon fill="none" stroke="#FFFFFF" stroke-miterlimit="10" points="112.555,75.147 118.846,71.511 125.143,75.147 
			125.143,82.413 118.846,86.049 112.555,82.413 		"/>
		<path fill="#FFFFFF" d="M121.217,80.757c0,0.433-0.145,0.798-0.469,1.115c-0.307,0.31-0.682,0.463-1.111,0.463h-1.576
			c-0.436,0-0.811-0.153-1.125-0.457c-0.301-0.317-0.455-0.688-0.455-1.121v-3.953c0-0.436,0.154-0.807,0.455-1.115
			c0.314-0.309,0.689-0.463,1.125-0.463h1.576c0.43,0,0.805,0.154,1.111,0.463c0.324,0.314,0.469,0.68,0.469,1.115V80.757
			L121.217,80.757z M119.631,76.673c-0.119-0.438-0.371-0.658-0.785-0.658c-0.215,0-0.402,0.081-0.555,0.232
			c-0.154,0.155-0.23,0.342-0.23,0.557v2.689L119.631,76.673L119.631,76.673z M119.637,80.757v-2.688l-1.559,2.811
			c0.078,0.445,0.338,0.661,0.768,0.661c0.221,0,0.408-0.077,0.564-0.229C119.561,81.157,119.637,80.973,119.637,80.757z"/>
	</g>
	<g>
		<polygon fill="none" stroke="#FFFFFF" stroke-miterlimit="10" points="187.459,63.937 193.758,60.305 200.043,63.937 
			200.043,71.207 193.758,74.842 187.459,71.207 		"/>
		<path fill="#FFFFFF" d="M196.121,69.552c0,0.432-0.145,0.799-0.461,1.113c-0.307,0.311-0.684,0.463-1.119,0.463h-1.574
			c-0.432,0-0.809-0.152-1.119-0.458c-0.305-0.313-0.465-0.687-0.465-1.118v-3.953c0-0.435,0.16-0.806,0.465-1.115
			c0.311-0.309,0.688-0.465,1.119-0.465h1.574c0.436,0,0.813,0.156,1.119,0.465c0.316,0.314,0.461,0.681,0.461,1.115V69.552
			L196.121,69.552z M194.535,65.462c-0.111-0.433-0.363-0.646-0.777-0.646c-0.223,0-0.404,0.07-0.563,0.229
			c-0.148,0.151-0.229,0.339-0.229,0.555v2.688L194.535,65.462L194.535,65.462z M194.541,69.552v-2.688l-1.559,2.811
			c0.082,0.438,0.338,0.659,0.775,0.659c0.211,0,0.406-0.074,0.563-0.229C194.471,69.951,194.541,69.765,194.541,69.552z"/>
	</g>
	<g>
		<polygon fill="none" stroke="#FFFFFF" stroke-miterlimit="10" points="196.299,78.085 202.598,74.45 208.887,78.085 
			208.887,85.351 202.598,88.981 196.299,85.351 		"/>
		<path fill="#FFFFFF" d="M204.961,83.694c0,0.43-0.148,0.799-0.461,1.113c-0.314,0.31-0.684,0.465-1.115,0.465h-1.586
			c-0.43,0-0.805-0.155-1.117-0.459c-0.303-0.314-0.457-0.689-0.457-1.119v-3.957c0-0.43,0.154-0.801,0.457-1.111
			c0.313-0.311,0.688-0.467,1.117-0.467h1.586c0.432,0,0.801,0.156,1.115,0.467c0.313,0.313,0.461,0.682,0.461,1.111V83.694
			L204.961,83.694z M203.375,79.605c-0.111-0.435-0.371-0.648-0.777-0.648c-0.223,0-0.41,0.071-0.566,0.229
			c-0.15,0.151-0.232,0.34-0.232,0.551v2.692L203.375,79.605L203.375,79.605z M203.385,83.694v-2.688l-1.568,2.809
			c0.084,0.441,0.35,0.659,0.781,0.659c0.219,0,0.4-0.071,0.559-0.228C203.305,84.091,203.385,83.903,203.385,83.694z"/>
	</g>
	<g>
		<polygon fill="none" stroke="#FFFFFF" stroke-miterlimit="10" points="224.207,68.177 230.498,64.538 236.795,68.177 
			236.795,75.44 230.498,79.079 224.207,75.44 		"/>
		<path fill="#FFFFFF" d="M232.875,73.78c0,0.432-0.158,0.804-0.467,1.116c-0.314,0.309-0.684,0.464-1.115,0.464h-1.586
			c-0.43,0-0.801-0.155-1.107-0.458c-0.313-0.313-0.467-0.69-0.467-1.122v-3.952c0-0.433,0.154-0.802,0.467-1.112
			c0.307-0.311,0.678-0.466,1.107-0.466h1.586c0.432,0,0.801,0.155,1.115,0.466c0.309,0.311,0.467,0.68,0.467,1.112V73.78
			L232.875,73.78z M231.283,69.694c-0.107-0.432-0.367-0.648-0.781-0.648c-0.219,0-0.4,0.074-0.559,0.229
			c-0.154,0.154-0.236,0.344-0.236,0.554v2.691L231.283,69.694L231.283,69.694z M231.293,73.78v-2.684l-1.559,2.807
			c0.074,0.443,0.34,0.662,0.768,0.662c0.223,0,0.41-0.074,0.559-0.229C231.219,74.183,231.293,73.994,231.293,73.78z"/>
	</g>
	<g>
		<polygon fill="none" stroke="#FFFFFF" stroke-miterlimit="10" points="112.129,107.017 118.422,103.385 124.717,107.017 
			124.717,114.285 118.422,117.917 112.129,114.285 		"/>
		<path fill="#FFFFFF" d="M120.787,112.625c0,0.432-0.146,0.805-0.457,1.118c-0.313,0.306-0.689,0.461-1.117,0.461h-1.588
			c-0.43,0-0.801-0.155-1.107-0.458c-0.316-0.313-0.463-0.689-0.463-1.121v-3.952c0-0.431,0.146-0.805,0.463-1.11
			c0.307-0.313,0.678-0.469,1.107-0.469h1.588c0.428,0,0.805,0.155,1.117,0.469c0.311,0.31,0.457,0.68,0.457,1.11V112.625
			L120.787,112.625z M119.201,108.542c-0.113-0.431-0.365-0.653-0.779-0.653c-0.221,0-0.404,0.077-0.561,0.229
			c-0.15,0.155-0.236,0.347-0.236,0.556v2.693L119.201,108.542L119.201,108.542z M119.213,112.625v-2.68l-1.561,2.805
			c0.074,0.44,0.338,0.66,0.77,0.66c0.219,0,0.408-0.071,0.559-0.232C119.137,113.029,119.213,112.841,119.213,112.625z"/>
	</g>
	<g>
		<polygon fill="none" stroke="#FFFFFF" stroke-miterlimit="10" points="224.109,6.739 230.4,3.103 236.697,6.739 236.697,14.007 
			230.4,17.638 224.109,14.007 		"/>
		<polygon fill="#FFFFFF" points="231.021,13.927 229.445,13.927 229.445,8.393 228.654,8.393 228.654,7.612 230.229,6.817 
			231.021,6.817 		"/>
	</g>
	<g>
		<polygon fill="none" stroke="#FFFFFF" stroke-miterlimit="10" points="203.301,39.985 209.596,36.351 215.889,39.985 
			215.889,47.251 209.596,50.881 203.301,47.251 		"/>
		<polygon fill="#FFFFFF" points="210.209,47.172 208.631,47.172 208.631,41.638 207.84,41.638 207.84,40.854 209.418,40.063 
			210.209,40.063 		"/>
	</g>
	<g>
		<polygon fill="none" stroke="#FFFFFF" stroke-miterlimit="10" points="154.744,9.142 161.035,5.508 167.334,9.142 167.334,16.41 
			161.035,20.047 154.744,16.41 		"/>
		<polygon fill="#FFFFFF" points="161.654,16.333 160.072,16.333 160.072,10.804 159.287,10.804 159.287,10.02 160.863,9.224 
			161.654,9.224 		"/>
	</g>
	<g>
		<polygon fill="none" stroke="#FFFFFF" stroke-miterlimit="10" points="137.178,25.724 143.467,22.089 149.754,25.724 
			149.754,32.995 143.467,36.628 137.178,32.995 		"/>
		<polygon fill="#FFFFFF" points="144.08,32.911 142.504,32.911 142.504,27.38 141.703,27.38 141.703,26.597 143.291,25.802 
			144.08,25.802 		"/>
	</g>
	<g>
		<polygon fill="none" stroke="#FFFFFF" stroke-miterlimit="10" points="174.234,65.813 180.527,62.184 186.826,65.813 
			186.826,73.083 180.527,76.722 174.234,73.083 		"/>
		<polygon fill="#FFFFFF" points="181.146,73.007 179.57,73.007 179.57,67.472 178.777,67.472 178.777,66.69 180.355,65.894 
			181.146,65.894 		"/>
	</g>
	<g>
		<polygon fill="none" stroke="#FFFFFF" stroke-miterlimit="10" points="130.875,55.059 137.178,51.428 143.463,55.059 
			143.463,62.333 137.178,65.968 130.875,62.333 		"/>
		<polygon fill="#FFFFFF" points="137.785,62.249 136.209,62.249 136.209,56.718 135.412,56.718 135.412,55.936 136.998,55.142 
			137.785,55.142 		"/>
	</g>
	<g>
		<polygon fill="none" stroke="#FFFFFF" stroke-miterlimit="10" points="121.055,60.524 127.348,56.893 133.645,60.524 
			133.645,67.795 127.348,71.427 121.055,67.795 		"/>
		<polygon fill="#FFFFFF" points="127.965,67.712 126.389,67.712 126.389,62.181 125.6,62.181 125.6,61.397 127.18,60.604 
			127.965,60.604 		"/>
	</g>
	<g>
		<polygon fill="none" stroke="#FFFFFF" stroke-miterlimit="10" points="106.607,47.746 112.898,44.112 119.195,47.746 
			119.195,55.015 112.898,58.648 106.607,55.015 		"/>
		<polygon fill="#FFFFFF" points="113.521,54.933 111.941,54.933 111.941,49.402 111.146,49.402 111.146,48.617 112.732,47.825 
			113.521,47.825 		"/>
	</g>
	<g>
		<polygon fill="none" stroke="#FFFFFF" stroke-miterlimit="10" points="153.914,94.517 160.207,90.888 166.498,94.517 
			166.498,101.789 160.207,105.428 153.914,101.789 		"/>
		<polygon fill="#FFFFFF" points="160.816,101.711 159.244,101.711 159.244,96.177 158.449,96.177 158.449,95.396 160.035,94.598 
			160.816,94.598 		"/>
	</g>
	<g>
		<polygon fill="none" stroke="#FFFFFF" stroke-miterlimit="10" points="192.164,102.674 198.461,99.038 204.742,102.674 
			204.742,109.938 198.461,113.578 192.164,109.938 		"/>
		<polygon fill="#FFFFFF" points="199.072,109.861 197.494,109.861 197.494,104.327 196.703,104.327 196.703,103.543 
			198.281,102.748 199.072,102.748 		"/>
	</g>
	<g>
		<polygon fill="none" stroke="#FFFFFF" stroke-miterlimit="10" points="220.689,98.075 226.988,94.443 233.279,98.075 
			233.279,105.344 226.988,108.976 220.689,105.344 		"/>
		<polygon fill="#FFFFFF" points="227.609,105.267 226.027,105.267 226.027,99.735 225.234,99.735 225.234,98.951 226.818,98.156 
			227.609,98.156 		"/>
	</g>
	<polygon fill="none" stroke="#FFFFFF" stroke-miterlimit="10" points="195.271,104.556 201.564,100.92 207.855,104.556 
		207.855,111.82 201.564,115.46 195.271,111.82 	"/>
	<path fill="#FFFFFF" d="M98.691,163.423c0.139-0.428,0.344-0.734,0.613-0.936c0.258-0.205,0.598-0.307,0.988-0.307
		c0.539,0,0.938,0.172,1.168,0.508c0.236,0.334,0.354,0.934,0.354,1.777v2.543c0,0.646-0.121,1.121-0.375,1.406
		c-0.248,0.297-0.635,0.447-1.184,0.447c-0.359,0-0.699-0.098-0.963-0.281c-0.262-0.186-0.531-0.52-0.822-0.994
		c-0.414-0.699-0.961-1.223-1.635-1.559c-0.672-0.336-1.488-0.504-2.467-0.504c-1.211,0-2.201,0.393-2.969,1.193
		c-0.779,0.795-1.162,1.805-1.162,3.033c0,1.291,0.393,2.33,1.199,3.111c0.797,0.799,1.865,1.186,3.205,1.186
		c1.23,0,2.445-0.338,3.662-1.02c1.209-0.674,1.941-1.014,2.205-1.014c0.387,0,0.721,0.141,0.973,0.43
		c0.258,0.291,0.387,0.668,0.387,1.119c0,0.979-0.736,1.852-2.227,2.611c-1.482,0.768-3.236,1.152-5.27,1.152
		c-2.51,0-4.543-0.705-6.113-2.111c-1.57-1.414-2.355-3.223-2.355-5.443c0-2.162,0.775-3.959,2.322-5.404
		c1.561-1.438,3.518-2.154,5.885-2.154c0.816,0,1.602,0.094,2.35,0.297C97.229,162.706,97.959,163.005,98.691,163.423
		L98.691,163.423z M112.533,173.536h3.66c0.711,0,1.211,0.127,1.502,0.387c0.295,0.26,0.445,0.688,0.445,1.293
		s-0.15,1.051-0.445,1.322c-0.291,0.27-0.791,0.4-1.502,0.4h-8.684c-0.703,0-1.209-0.131-1.521-0.4
		c-0.301-0.271-0.457-0.717-0.457-1.322s0.156-1.033,0.453-1.293c0.305-0.26,0.805-0.387,1.525-0.387h1.184v-7.551h-0.666
		c-0.711,0-1.205-0.125-1.506-0.398c-0.301-0.266-0.441-0.693-0.441-1.305c0-0.604,0.141-1.035,0.441-1.301
		c0.285-0.266,0.785-0.396,1.506-0.396h3.307c0.279,0,0.494,0.061,0.65,0.174c0.16,0.119,0.236,0.283,0.236,0.496v2.299
		c1.135-1.225,2.193-2.09,3.172-2.6c0.969-0.518,2.018-0.773,3.15-0.773c1.012,0,1.818,0.225,2.416,0.693
		c0.592,0.455,0.893,1.074,0.893,1.852c0,0.604-0.209,1.102-0.619,1.48c-0.408,0.395-0.936,0.59-1.574,0.59
		c-0.457,0-0.994-0.168-1.646-0.518c-0.639-0.338-1.086-0.506-1.338-0.506c-0.484,0-1.066,0.219-1.754,0.67
		c-0.682,0.455-1.479,1.139-2.387,2.055V173.536L112.533,173.536z M132.385,174.048c1.211,0,2.199-0.408,2.979-1.219
		c0.775-0.809,1.172-1.842,1.172-3.078c0-1.254-0.393-2.266-1.154-3.049c-0.764-0.785-1.764-1.178-2.996-1.178
		c-1.211,0-2.211,0.393-2.994,1.184c-0.787,0.791-1.174,1.801-1.174,3.043c0,1.236,0.387,2.27,1.178,3.078
		C130.18,173.64,131.182,174.048,132.385,174.048L132.385,174.048z M140.848,169.778c0,2.215-0.779,4.023-2.342,5.438
		c-1.566,1.406-3.609,2.111-6.121,2.111s-4.549-0.705-6.123-2.121c-1.582-1.414-2.361-3.227-2.361-5.428
		c0-2.205,0.779-4.012,2.361-5.424c1.574-1.4,3.611-2.113,6.123-2.113s4.555,0.713,6.121,2.113
		C140.068,165.767,140.848,167.573,140.848,169.778L140.848,169.778z M148.646,169.554c0,1.184,0.34,2.15,0.996,2.908
		c0.666,0.76,1.508,1.135,2.543,1.135c1.016,0,1.863-0.381,2.531-1.143c0.666-0.76,1.006-1.727,1.006-2.9
		c0-1.18-0.34-2.145-0.992-2.898c-0.664-0.771-1.52-1.139-2.545-1.139c-1.035,0-1.877,0.367-2.543,1.139
		C148.986,167.409,148.646,168.374,148.646,169.554L148.646,169.554z M150.563,179.702c0.709,0,1.209,0.129,1.498,0.398
		c0.295,0.275,0.441,0.713,0.441,1.326c0,0.605-0.146,1.033-0.441,1.293c-0.289,0.256-0.789,0.383-1.498,0.383h-6.59
		c-0.709,0-1.203-0.127-1.5-0.383c-0.295-0.26-0.447-0.688-0.447-1.293c0-0.613,0.152-1.051,0.447-1.326
		c0.297-0.27,0.791-0.398,1.5-0.398h0.916v-13.717h-0.256c-0.547,0-0.955-0.139-1.256-0.432c-0.291-0.289-0.432-0.717-0.432-1.271
		c0-0.604,0.146-1.035,0.441-1.301c0.297-0.266,0.801-0.396,1.502-0.396h2.391c0.297,0,0.521,0.057,0.672,0.162
		c0.135,0.109,0.211,0.262,0.211,0.475v1.121c0.531-0.707,1.178-1.242,1.932-1.596c0.738-0.357,1.592-0.539,2.539-0.539
		c2.123,0,3.881,0.676,5.268,2.033c1.387,1.359,2.078,3.066,2.078,5.131c0,2.15-0.68,3.932-2.033,5.346
		c-1.357,1.42-3.061,2.123-5.131,2.123c-0.828,0-1.604-0.113-2.322-0.342c-0.73-0.24-1.361-0.58-1.912-1.023v4.227H150.563
		L150.563,179.702z M170.031,174.017c1.039,0,1.887-0.387,2.551-1.154c0.66-0.758,0.992-1.744,0.992-2.926
		c0-1.178-0.34-2.141-0.998-2.908c-0.678-0.758-1.523-1.145-2.545-1.145c-1.014,0-1.855,0.387-2.521,1.145
		c-0.678,0.768-1.012,1.73-1.012,2.908c0,1.182,0.334,2.168,1.008,2.926C168.166,173.63,169.01,174.017,170.031,174.017
		L170.031,174.017z M171.564,160.046c-0.717,0-1.215-0.137-1.518-0.41c-0.307-0.27-0.457-0.713-0.457-1.307
		c0-0.615,0.15-1.053,0.457-1.326c0.303-0.27,0.801-0.404,1.518-0.404h4.836c0.359,0,0.596,0.082,0.719,0.219
		c0.129,0.143,0.199,0.418,0.199,0.805v15.914h0.264c0.559,0,0.973,0.141,1.258,0.428c0.279,0.275,0.408,0.699,0.408,1.252
		c0,0.605-0.139,1.051-0.436,1.322c-0.289,0.27-0.791,0.4-1.494,0.4h-2.377c-0.307,0-0.527-0.061-0.693-0.182
		c-0.162-0.111-0.242-0.281-0.242-0.488v-1.086c-0.521,0.707-1.186,1.234-1.973,1.592c-0.787,0.371-1.674,0.553-2.672,0.553
		c-2.035,0-3.729-0.688-5.094-2.074c-1.371-1.387-2.055-3.107-2.055-5.182c0-2.127,0.684-3.904,2.061-5.355
		c1.371-1.447,3.074-2.162,5.088-2.162c0.803,0,1.584,0.115,2.313,0.367c0.73,0.252,1.387,0.605,1.963,1.068v-3.943H171.564
		L171.564,160.046z M192.428,172.931v-2.395c-0.533-0.117-1-0.199-1.424-0.26c-0.424-0.053-0.826-0.08-1.186-0.08
		c-1.191,0-2.102,0.188-2.723,0.586c-0.645,0.396-0.961,0.959-0.961,1.699c0,0.533,0.217,0.953,0.646,1.264
		c0.422,0.303,1.008,0.461,1.764,0.461c0.721,0,1.395-0.111,2.035-0.314C191.213,173.681,191.834,173.36,192.428,172.931
		L192.428,172.931z M196.197,167.769v5.768h0.242c0.561,0,0.984,0.145,1.279,0.443c0.297,0.287,0.441,0.711,0.441,1.264
		c0,0.602-0.15,1.033-0.451,1.295c-0.313,0.27-0.814,0.4-1.512,0.4h-1.463c-0.523,0-0.914-0.104-1.172-0.293
		c-0.246-0.205-0.459-0.559-0.619-1.072c-0.855,0.564-1.768,0.996-2.738,1.299c-0.955,0.303-1.936,0.455-2.912,0.455
		c-1.684,0-2.996-0.418-3.949-1.246c-0.945-0.828-1.412-1.963-1.412-3.4c0-1.553,0.619-2.76,1.844-3.623
		c1.232-0.865,2.963-1.289,5.188-1.289c0.572,0,1.143,0.027,1.717,0.082c0.576,0.043,1.162,0.135,1.748,0.248v-0.297
		c0-0.932-0.219-1.639-0.678-2.127c-0.447-0.492-1.113-0.727-1.996-0.727c-0.693,0-1.568,0.248-2.621,0.758
		c-1.072,0.5-1.828,0.76-2.27,0.76c-0.521,0-0.943-0.145-1.242-0.418c-0.303-0.262-0.451-0.646-0.451-1.133
		c0-0.846,0.613-1.51,1.838-2c1.225-0.488,2.902-0.734,5.01-0.734c2.211,0,3.787,0.428,4.742,1.273
		C195.713,164.302,196.197,165.743,196.197,167.769L196.197,167.769z M202.645,166.86c-0.699,0-1.205-0.135-1.494-0.408
		c-0.289-0.262-0.441-0.707-0.441-1.313c0-0.609,0.145-1.043,0.434-1.299c0.287-0.264,0.799-0.387,1.502-0.387h1.469v-4.27
		c0-0.363,0.178-0.666,0.531-0.926c0.35-0.256,0.801-0.385,1.35-0.385c0.693,0,1.188,0.156,1.484,0.449
		c0.307,0.295,0.459,0.793,0.459,1.498v3.633h4.736c0.713,0,1.215,0.123,1.514,0.387c0.303,0.256,0.459,0.689,0.459,1.299
		c0,0.605-0.156,1.051-0.459,1.313c-0.299,0.273-0.811,0.408-1.514,0.408h-4.736v3.979c0,1.105,0.17,1.869,0.521,2.285
		c0.344,0.418,0.932,0.635,1.787,0.635c0.809,0,1.76-0.232,2.852-0.705c1.102-0.467,1.844-0.693,2.215-0.693
		c0.434,0,0.795,0.166,1.098,0.498c0.307,0.344,0.451,0.766,0.451,1.287c0,0.746-0.721,1.453-2.182,2.107
		c-1.455,0.662-3.084,1-4.902,1c-1.063,0-2.002-0.145-2.811-0.436c-0.801-0.289-1.441-0.703-1.902-1.238
		c-0.35-0.414-0.592-0.895-0.732-1.484c-0.146-0.572-0.219-1.555-0.219-2.918v-0.338v-3.979H202.645L202.645,166.86z
		 M230.744,172.931v-2.395c-0.535-0.117-1.01-0.199-1.434-0.26c-0.422-0.053-0.824-0.08-1.178-0.08c-1.189,0-2.105,0.188-2.73,0.586
		c-0.637,0.396-0.959,0.959-0.959,1.699c0,0.533,0.221,0.953,0.639,1.264c0.432,0.303,1.014,0.461,1.773,0.461
		c0.711,0,1.391-0.111,2.023-0.314C229.52,173.681,230.139,173.36,230.744,172.931L230.744,172.931z M234.494,167.769v5.768h0.256
		c0.549,0,0.986,0.145,1.279,0.443c0.293,0.287,0.438,0.711,0.438,1.264c0,0.602-0.15,1.033-0.451,1.295
		c-0.305,0.27-0.814,0.4-1.521,0.4h-1.453c-0.521,0-0.912-0.104-1.166-0.293c-0.258-0.205-0.457-0.559-0.619-1.072
		c-0.861,0.564-1.773,0.996-2.736,1.299c-0.971,0.303-1.936,0.455-2.92,0.455c-1.682,0-2.996-0.418-3.941-1.246
		c-0.953-0.828-1.42-1.963-1.42-3.4c0-1.553,0.619-2.76,1.852-3.623c1.225-0.865,2.955-1.289,5.18-1.289
		c0.572,0,1.148,0.027,1.717,0.082c0.58,0.043,1.162,0.135,1.758,0.248v-0.297c0-0.932-0.225-1.639-0.684-2.127
		c-0.443-0.492-1.117-0.727-2-0.727c-0.693,0-1.564,0.248-2.621,0.758c-1.068,0.5-1.828,0.76-2.27,0.76
		c-0.529,0-0.936-0.145-1.242-0.418c-0.303-0.262-0.451-0.646-0.451-1.133c0-0.846,0.615-1.51,1.838-2
		c1.242-0.488,2.902-0.734,5.016-0.734c2.205,0,3.787,0.428,4.734,1.273C234.02,164.302,234.494,165.743,234.494,167.769z"/>
	<g>
		<polygon fill="none" stroke="#FFFFFF" stroke-miterlimit="10" points="153.922,40.028 160.207,36.396 166.51,40.028 
			166.51,47.298 160.207,50.931 153.922,47.298 		"/>
		<path fill="#FFFFFF" d="M162.43,42.561c0,0.403-0.146,0.752-0.439,1.038c-0.289,0.287-0.633,0.432-1.039,0.432h-1.484v2.948
			h-1.469v-6.63h2.953c0.4,0,0.748,0.142,1.039,0.432c0.293,0.284,0.439,0.638,0.439,1.038V42.561L162.43,42.561z M160.951,42.561
			v-0.742c0-0.201-0.078-0.379-0.223-0.516c-0.135-0.143-0.307-0.218-0.521-0.218h-0.74v2.209h0.74c0.209,0,0.383-0.07,0.521-0.217
			C160.873,42.932,160.951,42.755,160.951,42.561z"/>
	</g>
	<g>
		<polygon fill="none" stroke="#FFFFFF" stroke-miterlimit="10" points="172.447,49.269 178.736,45.636 185.027,49.269 
			185.027,56.539 178.736,60.171 172.447,56.539 		"/>
		<polygon fill="#FFFFFF" points="181.318,56.218 179.834,56.218 177.625,53.644 177.625,56.218 176.158,56.218 176.158,49.589 
			177.625,49.589 177.625,52.293 180.012,49.589 181.324,49.589 178.365,52.901 		"/>
	</g>
	<g>
		<polygon fill="none" stroke="#FFFFFF" stroke-miterlimit="10" points="162.088,62.081 168.391,58.448 174.672,62.081 
			174.672,69.354 168.391,72.985 162.088,69.354 		"/>
		<path fill-rule="evenodd" clip-rule="evenodd" fill="#FFFFFF" d="M165.084,64.798v0.099l0.199,0.065
			c0.264-0.187,0.85-0.635,1.242-0.64c0.479,0,0.619,0.275,0.984,0.31v0.104c-0.607,0-1.246,0.268-1.244,0.829v0.311
			c0.008,0.568,0.707,0.833,1.254,0.876c-0.4,0.285-0.66,0.234-1.037,0.417l-1.246-0.638l-0.152,0.02v0.107l0.217-0.055
			c0.191,0.378,0.713,0.725,1.295,0.725h0.045c0.424,0,1.326-0.576,1.396-0.576h0.307c0.381-0.008-0.145,0.356-0.145,0.668
			c-0.594,0.16,0.047,0.52-1.592,0.527l-0.109,0.168l0.199-0.121c0.074,0.105,0.117,0.155,0.307,0.155h0.479
			c0.586-0.006,1.094-1.071,1.322-1.497l0.469-0.064c-0.045,0.209-0.156,0.259-0.156,0.469c0.004,0.325,0.539,0.822,0.887,0.822
			l0.313-0.006c0.172,0,0.199-0.036,0.359-0.057v0.212l0.129-0.012l-0.135-0.298c-0.518,0-1.283-0.132-1.289-0.568v-0.254
			c0-0.115,0.09-0.569,0.252-0.569h0.162v0.155h0.15c-0.053,0.221-0.107,0.094-0.107,0.256v0.207c0,0.182,0.414,0.514,0.631,0.514
			h0.154c0.451,0,0.721-0.402,0.881-0.733l0.143,0.121l0.037-0.071l-0.289-0.098c-0.061,0.224-0.572,0.571-0.771,0.576
			c-0.215,0-0.387-0.114-0.521-0.205c0-0.168,0.016-0.464-0.004-0.621c-0.041-0.316-0.176-0.147-0.201-0.459
			c0.07,0.028,0.295,0.097,0.414,0.097c0.174,0,0.4-0.095,0.512-0.157c-0.027-0.142-0.055-0.1-0.055-0.202
			c0-0.123,0.023-0.068,0.055-0.207c-0.111-0.065-0.344-0.156-0.516-0.156c-0.154,0-0.27,0.065-0.414,0.107
			c0.027-0.305,0.145-0.155,0.199-0.425c0.02-0.133,0.006-0.508,0.006-0.663c0.092-0.065,0.307-0.212,0.461-0.212
			c0.422-0.005,0.721,0.466,0.939,0.632l0.148-0.169c-0.367,0.08-0.088-0.16-0.428-0.4c-0.135-0.094-0.506-0.268-0.713-0.268h-0.061
			c-0.23,0-0.607,0.395-0.607,0.521v0.199c0,0.177,0.047,0.049,0.102,0.266h-0.148v0.154h-0.162c-0.158,0-0.266-0.453-0.266-0.564
			v-0.259c-0.002-0.435,0.775-0.573,1.307-0.569l0.088-0.319h-0.098v0.212l-0.471-0.052h-0.207c-0.326,0-0.875,0.503-0.875,0.828
			c0,0.213,0.111,0.26,0.166,0.475l-0.469-0.055c-0.316-0.472-0.666-1.499-1.457-1.491h-0.361c-0.197,0-0.234,0.049-0.309,0.154
			l-0.213-0.092l0.107,0.142c0.619,0,0.998-0.055,1.307,0.293c0.094,0.11,0.852,0.886,0.455,0.892h-0.307
			c-0.107,0-0.98-0.566-1.4-0.561h-0.055c-0.633,0-1.084,0.398-1.35,0.789L165.084,64.798z"/>
	</g>
	<g>
		<polygon fill="none" stroke="#FFFFFF" stroke-miterlimit="10" points="116.604,89.616 122.9,85.981 129.191,89.616 
			129.191,96.887 122.9,100.522 116.604,96.887 		"/>
		<path fill-rule="evenodd" clip-rule="evenodd" fill="#FFFFFF" d="M124.814,92.156c0,0-0.07-1.073-0.441-1.392
			c-0.381-0.305-0.914-0.541-1.375-0.492c-0.453,0.055-1.189,0.178-1.576,0.68c-0.367,0.522-0.404,0.895-0.27,1.381
			c0.141,0.474,0.35,0.729,0.35,0.729l-0.641,0.027l0.012,0.677l0.893,0.013c0,0,0.215,0.206,0.139,0.569
			c-0.063,0.356-0.549,1.037-0.957,1.179c0.129,0.279,0.346,0.649,0.346,0.649s0.672-0.272,0.967-0.272
			c0.289,0,0.496,0.007,1.441,0.272c0.945,0.263,1.215-0.407,1.232-0.377l-0.432-0.886c0,0-0.264,0.34-0.516,0.34
			c-0.268,0-0.834-0.138-1.055-0.205c-0.209-0.067-0.424-0.047-0.424-0.047s0.041-0.041,0.215-0.465
			c0.172-0.431-0.006-0.751-0.006-0.751h0.916l0.01-0.689l-1.033-0.011c0,0-0.447-0.768-0.447-1.118c0-0.34,0.346-0.602,0.674-0.674
			c0.322-0.077,0.77,0.051,0.914,0.293c0.15,0.236,0.086,0.563,0.086,0.563L124.814,92.156z"/>
	</g>
	<g>
		<path fill-rule="evenodd" clip-rule="evenodd" fill="#FFFFFF" d="M110.313,61.688c0.254-1.635-0.811-3.152-2.381-3.396
			c-0.014-0.002-0.027,0-0.041-0.002c0.135-0.273,0.242-0.563,0.293-0.881c0.254-1.635-0.816-3.146-2.383-3.391
			c-0.307-0.049-0.607-0.03-0.898,0.021c0.014-0.065,0.039-0.125,0.049-0.191c0.225-1.438-0.578-2.785-1.844-3.254
			c1.203-0.204,2.209-1.179,2.408-2.497c0.197-1.24-0.375-2.412-1.352-3.01c0.574-0.454,0.992-1.126,1.115-1.922
			c0.248-1.632-0.816-3.15-2.387-3.393c-1.092-0.172-2.135,0.338-2.754,1.211c0.039-0.283,0.096-0.579,0.168-0.885
			c0.852-0.16,1.641-0.689,2.102-1.529c0.154-0.285,0.246-0.585,0.305-0.886c0.814-0.411,1.434-1.209,1.602-2.196
			c0.65-0.248,1.23-0.716,1.596-1.385c0.111-0.208,0.189-0.424,0.25-0.642c1.436,0.043,2.725-1.021,2.959-2.528
			c0.258-1.63-0.813-3.148-2.377-3.396c-0.131-0.02-0.258-0.017-0.385-0.019c0.387-0.426,0.66-0.969,0.756-1.586
			c0.254-1.635-0.816-3.152-2.383-3.396c-0.229-0.035-0.453-0.034-0.674-0.014c-0.023-0.112-0.047-0.226-0.072-0.338
			c0.07-0.189,0.123-0.389,0.156-0.597c0.145-0.96-0.172-1.873-0.771-2.518c-0.01-0.058-0.016-0.114-0.025-0.173
			c0.998-0.343,1.789-1.229,1.969-2.379c0.252-1.634-0.818-3.153-2.389-3.394c-0.803-0.126-1.58,0.116-2.184,0.598
			c-0.031-0.024-0.059-0.054-0.088-0.08c0.719-0.442,1.256-1.189,1.395-2.109c0.248-1.625-0.811-3.146-2.381-3.39
			c-0.131-0.021-0.26-0.019-0.391-0.021c0.029-0.106,0.066-0.209,0.084-0.32c0.248-1.607-0.791-3.104-2.326-3.38
			c-0.227-0.279-0.504-0.522-0.836-0.702c-1.223-0.67-2.736-0.314-3.617,0.763c-0.359-0.273-0.777-0.473-1.248-0.546
			c-1.57-0.243-3.045,0.881-3.297,2.512c-0.07,0.455-0.029,0.896,0.088,1.309c-0.266-0.139-0.549-0.25-0.857-0.299
			c-1.564-0.242-3.037,0.881-3.297,2.513c-0.199,1.311,0.457,2.543,1.537,3.104c-0.959-0.036-1.85,0.425-2.41,1.19
			c-0.131-0.041-0.262-0.083-0.4-0.104c-1.57-0.243-3.037,0.878-3.297,2.51c-0.07,0.453-0.029,0.895,0.086,1.306
			c-0.262-0.137-0.539-0.245-0.844-0.292c-1.574-0.241-3.049,0.877-3.295,2.509c-0.211,1.318,0.451,2.552,1.541,3.111
			c-1.447-0.068-2.752,0.999-2.988,2.521c-0.244,1.583,0.754,3.047,2.248,3.354c-0.25,0.365-0.434,0.786-0.506,1.257
			c-0.139,0.894,0.129,1.745,0.646,2.38c-0.068,0.188-0.121,0.385-0.152,0.59c-0.07,0.451-0.031,0.889,0.084,1.297
			c-0.262-0.135-0.539-0.242-0.842-0.29c-1.564-0.239-3.043,0.886-3.295,2.515c-0.176,1.123,0.285,2.187,1.098,2.822
			c-0.014,0.1-0.014,0.198-0.018,0.297c-0.547,0.07-1.051,0.295-1.469,0.646c-1.277,0.139-2.361,1.141-2.57,2.518
			c-0.203,1.308,0.451,2.532,1.523,3.097c-0.959-0.034-1.842,0.431-2.4,1.195c-0.131-0.041-0.26-0.084-0.396-0.105
			c-1.576-0.246-3.049,0.875-3.297,2.51c-0.072,0.454-0.033,0.896,0.082,1.308c-0.262-0.137-0.541-0.246-0.846-0.294
			c-1.57-0.246-3.049,0.881-3.297,2.508c-0.207,1.314,0.449,2.543,1.527,3.104c-1.441-0.05-2.734,1.012-2.973,2.525
			c-0.238,1.579,0.756,3.044,2.244,3.358c-0.25,0.365-0.434,0.787-0.508,1.258c-0.137,0.896,0.135,1.752,0.658,2.388
			c-0.066,0.184-0.115,0.376-0.146,0.576c-0.072,0.454-0.031,0.896,0.084,1.309c-0.262-0.138-0.545-0.246-0.854-0.294
			c-1.564-0.244-3.037,0.88-3.295,2.514c-0.205,1.309,0.455,2.539,1.539,3.098c-1.445-0.058-2.74,1.006-2.977,2.529
			c-0.244,1.576,0.752,3.044,2.24,3.351c-0.248,0.366-0.432,0.788-0.502,1.26c-0.084,0.545-0.012,1.073,0.168,1.55
			c-0.057-0.013-0.109-0.036-0.168-0.045c-1.564-0.243-3.043,0.883-3.303,2.514c-0.203,1.309,0.455,2.533,1.531,3.096
			c-1.439-0.042-2.729,1.02-2.967,2.533c-0.244,1.583,0.758,3.049,2.246,3.354c-0.248,0.365-0.432,0.785-0.504,1.255
			c-0.258,1.636,0.813,3.151,2.371,3.394c0.934,0.146,1.826-0.201,2.457-0.844c0.037,0.08,0.086,0.152,0.129,0.229
			c-0.301,0.392-0.521,0.855-0.605,1.383c-0.24,1.583,0.758,3.049,2.25,3.366c-0.248,0.365-0.432,0.785-0.504,1.256
			c-0.252,1.619,0.807,3.147,2.377,3.39c0.631,0.098,1.242-0.034,1.77-0.324c0.367,0.344,0.826,0.583,1.344,0.69
			c-0.248,0.364-0.43,0.784-0.5,1.253c-0.258,1.63,0.807,3.151,2.371,3.394c0.875,0.135,1.711-0.161,2.33-0.722
			c0.063,0.065,0.125,0.132,0.188,0.196c-0.266,0.375-0.459,0.809-0.533,1.297c-0.25,1.583,0.75,3.051,2.238,3.36
			c-0.248,0.365-0.432,0.785-0.502,1.255c-0.252,1.629,0.816,3.145,2.389,3.39c0.389,0.062,0.766,0.019,1.125-0.078
			c-1.509,14.63-2.039,28.21-2.188,38.233c-0.586-1.379-1.189-2.699-1.8-3.893c-4.145-8.096-7.969-6.281-10.463-10.146
			c-2.484-3.867-2.57-12.055-8.211-16.645c-0.736-0.601-1.424-1.088-2.076-1.503c-2.795-2.004-4.112-2.176-7.305-4.294
			c-1.08-1.003-2.172-2.395-3.369-4.574c-4.221-7.658-8.693-1.656-12.996-0.629c-4.307,1.026-23.197,28.581-23.197,28.581
			s0.115-0.084,0.324-0.234c-0.008,0.008-0.016,0.016-0.023,0.023c-0.801,0.834-1.473,1.527-1.973,2.057
			c0.887-0.91,1.791-1.777,2.721-2.592c6.656-4.32,14.217-7.871,20.842-9.867c4.146-1.539,13.82-3.508,17.504-3.4
			c0,0,0.001,0,0.002,0c1.821,0.732,3.395,1.93,4.611,3.719c7.979,11.732,20.41,29.732,25.412,40.318
			c1.156,2.463,5.473,1.723,6.184,1.107c0,0-0.048-0.173-0.135-0.476c0.004-3.824,0.118-27.854,2.288-52.834
			c1.298,0.03,2.457-0.855,2.831-2.149c1.242-0.171,2.287-1.162,2.49-2.511c0.055-0.358,0.037-0.709-0.025-1.045
			c1.5,0.139,2.881-0.951,3.117-2.517c0.066-0.418,0.043-0.828-0.051-1.212c1.066,0.025,2.127-0.543,2.691-1.576
			c0.1-0.188,0.178-0.381,0.236-0.576c1.346,0.113,2.582-0.76,2.99-2.083c0.039-0.111,0.063-0.223,0.086-0.335
			c0.008-0.035,0.021-0.067,0.027-0.103c0.002-0.01,0-0.019,0.002-0.027c0.041-0.242,0.063-0.484,0.047-0.723
			c0.129-0.122,0.254-0.244,0.379-0.366c0.211,0.09,0.432,0.164,0.668,0.2c1.566,0.242,3.039-0.885,3.297-2.518
			c0.045-0.298,0.033-0.587-0.002-0.87c0.32,0.207,0.684,0.352,1.082,0.412c1.564,0.249,3.039-0.879,3.297-2.512
			c0.107-0.708-0.045-1.389-0.365-1.96c1.088-0.29,1.971-1.229,2.162-2.453c0.23-1.495-0.66-2.893-2.025-3.293
			c0.027-0.037,0.053-0.076,0.078-0.115c1.459,0.089,2.793-0.981,3.033-2.521c0.258-1.633-0.813-3.156-2.377-3.398
			c-0.027-0.004-0.053,0-0.08-0.004c0.041-0.136,0.084-0.271,0.107-0.416c0.084-0.547,0.01-1.076-0.17-1.554
			c0.115-0.144,0.223-0.298,0.314-0.467c0.051-0.096,0.082-0.195,0.123-0.293c1.24-0.169,2.291-1.157,2.496-2.505
			c0.164-1.039-0.213-2.03-0.912-2.678c0.004-0.213-0.012-0.421-0.051-0.624c0.756-0.436,1.326-1.203,1.473-2.155
			c0.26-1.627-0.813-3.145-2.377-3.393c-0.316-0.049-0.625-0.029-0.926,0.025c-0.027-0.075-0.053-0.152-0.086-0.226
			c-0.025-0.37-0.113-0.727-0.262-1.051c1.182-0.222,2.166-1.188,2.371-2.489c0.201-1.326-0.471-2.564-1.566-3.115
			c0.039-0.04,0.084-0.075,0.121-0.118c0.342,0.243,0.734,0.419,1.172,0.487c1.568,0.242,3.047-0.885,3.295-2.513
			c0.156-1.001-0.188-1.957-0.838-2.604C109.797,63.101,110.193,62.453,110.313,61.688z M58.313,92.281
			c0.094-0.001,0.184-0.012,0.277-0.023c0.004,0.053,0.014,0.104,0.021,0.155C58.512,92.365,58.416,92.318,58.313,92.281z
			 M59.863,84.115c-0.01-0.041-0.027-0.078-0.039-0.119c0.041,0.022,0.084,0.045,0.127,0.064
			C59.922,84.078,59.893,84.097,59.863,84.115z M61.383,78.039c-0.018-0.007-0.037-0.008-0.055-0.015
			c0.018,0,0.037,0.004,0.057,0.003C61.383,78.031,61.383,78.035,61.383,78.039z M62.859,69.856
			c-0.01-0.042-0.029-0.081-0.041-0.123c0.043,0.023,0.088,0.046,0.133,0.067C62.92,69.818,62.891,69.838,62.859,69.856z
			 M64.59,61.293c0.088-0.002,0.17-0.015,0.256-0.025c0.004,0.052,0.014,0.102,0.021,0.151
			C64.775,61.375,64.688,61.328,64.59,61.293z M66.117,53.13c-0.01-0.044-0.031-0.083-0.043-0.126
			c0.045,0.023,0.09,0.047,0.137,0.067C66.178,53.09,66.148,53.11,66.117,53.13z M89.693,9.611
			c-0.029,0.017-0.059,0.036-0.088,0.055c-0.01-0.042-0.029-0.079-0.041-0.119C89.607,9.568,89.648,9.591,89.693,9.611z
			 M81.057,19.836c-0.029,0.017-0.057,0.034-0.084,0.052c-0.01-0.039-0.029-0.075-0.039-0.114
			C80.973,19.795,81.014,19.816,81.057,19.836z M79.695,28.034c0.004,0.051,0.014,0.101,0.021,0.151
			c-0.092-0.045-0.18-0.091-0.275-0.125C79.527,28.058,79.611,28.045,79.695,28.034z M77.801,36.568
			c-0.029,0.017-0.059,0.036-0.088,0.054c-0.01-0.04-0.029-0.077-0.039-0.118C77.715,36.526,77.758,36.549,77.801,36.568z"/>
	</g>
</g>
<g>
	<path fill="#FFFFFF" d="M93.52,194.119l2.186,0.693c-0.336,1.218-0.893,2.122-1.672,2.714c-0.779,0.591-1.768,0.887-2.965,0.887
		c-1.482,0-2.699-0.507-3.654-1.519c-0.953-1.013-1.432-2.396-1.432-4.153c0-1.857,0.48-3.3,1.439-4.327
		c0.959-1.028,2.221-1.542,3.783-1.542c1.365,0,2.475,0.404,3.326,1.211c0.508,0.477,0.889,1.162,1.143,2.055l-2.23,0.533
		c-0.133-0.578-0.408-1.035-0.826-1.37s-0.928-0.503-1.525-0.503c-0.828,0-1.5,0.297-2.014,0.891
		c-0.516,0.595-0.773,1.556-0.773,2.886c0,1.411,0.254,2.416,0.762,3.015s1.166,0.898,1.979,0.898c0.6,0,1.115-0.19,1.545-0.571
		C93.021,195.535,93.332,194.937,93.52,194.119z"/>
	<path fill="#FFFFFF" d="M97.127,194.066c0-0.711,0.176-1.398,0.525-2.063c0.352-0.664,0.848-1.172,1.488-1.522
		c0.643-0.351,1.359-0.524,2.15-0.524c1.225,0,2.227,0.396,3.008,1.19c0.781,0.795,1.172,1.798,1.172,3.011
		c0,1.224-0.395,2.237-1.184,3.042c-0.789,0.804-1.783,1.206-2.98,1.206c-0.74,0-1.447-0.167-2.119-0.502
		c-0.674-0.335-1.184-0.826-1.535-1.474C97.303,195.783,97.127,194.995,97.127,194.066z M99.32,194.181
		c0,0.802,0.189,1.416,0.57,1.842c0.381,0.427,0.85,0.64,1.408,0.64s1.027-0.213,1.404-0.64c0.379-0.426,0.568-1.045,0.568-1.857
		c0-0.792-0.189-1.4-0.568-1.827c-0.377-0.426-0.846-0.64-1.404-0.64s-1.027,0.214-1.408,0.64
		C99.51,192.765,99.32,193.379,99.32,194.181z"/>
	<path fill="#FFFFFF" d="M114.5,198.223h-2.139v-4.126c0-0.873-0.047-1.438-0.139-1.693c-0.09-0.257-0.238-0.456-0.445-0.598
		c-0.205-0.143-0.451-0.214-0.742-0.214c-0.369,0-0.703,0.102-0.996,0.305c-0.295,0.203-0.496,0.472-0.605,0.807
		s-0.164,0.955-0.164,1.857v3.662h-2.139v-8.085h1.986v1.188c0.705-0.913,1.594-1.369,2.664-1.369c0.473,0,0.904,0.084,1.295,0.254
		c0.391,0.171,0.686,0.388,0.887,0.651s0.34,0.563,0.418,0.898c0.08,0.335,0.119,0.814,0.119,1.438V198.223z"/>
	<path fill="#FFFFFF" d="M124.023,198.223h-2.139v-4.126c0-0.873-0.047-1.438-0.139-1.693c-0.09-0.257-0.238-0.456-0.445-0.598
		c-0.205-0.143-0.451-0.214-0.742-0.214c-0.369,0-0.703,0.102-0.996,0.305c-0.295,0.203-0.496,0.472-0.605,0.807
		s-0.164,0.955-0.164,1.857v3.662h-2.139v-8.085h1.986v1.188c0.705-0.913,1.594-1.369,2.664-1.369c0.473,0,0.904,0.084,1.295,0.254
		c0.391,0.171,0.686,0.388,0.887,0.651s0.34,0.563,0.418,0.898c0.08,0.335,0.119,0.814,0.119,1.438V198.223z"/>
	<path fill="#FFFFFF" d="M130.875,195.649l2.131,0.358c-0.273,0.781-0.707,1.376-1.297,1.785c-0.592,0.408-1.332,0.612-2.221,0.612
		c-1.404,0-2.445-0.459-3.121-1.378c-0.531-0.735-0.799-1.664-0.799-2.786c0-1.34,0.35-2.389,1.051-3.147s1.586-1.138,2.656-1.138
		c1.203,0,2.152,0.396,2.848,1.19c0.695,0.795,1.027,2.012,0.998,3.65h-5.359c0.014,0.635,0.188,1.128,0.518,1.48
		c0.33,0.354,0.74,0.529,1.232,0.529c0.336,0,0.617-0.091,0.846-0.274C130.586,196.35,130.758,196.056,130.875,195.649z
		 M130.996,193.487c-0.016-0.619-0.176-1.09-0.479-1.412c-0.305-0.322-0.676-0.483-1.111-0.483c-0.469,0-0.854,0.17-1.158,0.511
		c-0.305,0.34-0.455,0.802-0.449,1.385H130.996z"/>
	<path fill="#FFFFFF" d="M141.912,192.528l-2.107,0.381c-0.072-0.421-0.232-0.738-0.484-0.952c-0.25-0.213-0.576-0.319-0.979-0.319
		c-0.531,0-0.957,0.185-1.273,0.552c-0.318,0.368-0.477,0.983-0.477,1.847c0,0.959,0.16,1.637,0.482,2.032s0.756,0.594,1.299,0.594
		c0.406,0,0.738-0.115,0.998-0.347c0.258-0.23,0.441-0.628,0.547-1.191l2.102,0.358c-0.219,0.964-0.637,1.692-1.256,2.185
		s-1.449,0.738-2.49,0.738c-1.182,0-2.125-0.373-2.828-1.119s-1.053-1.778-1.053-3.099c0-1.334,0.352-2.373,1.057-3.117
		c0.705-0.743,1.66-1.114,2.863-1.114c0.984,0,1.768,0.211,2.348,0.635C141.242,191.015,141.658,191.66,141.912,192.528z"/>
	<path fill="#FFFFFF" d="M147.242,190.138v1.706h-1.461v3.258c0,0.66,0.014,1.044,0.041,1.153s0.092,0.199,0.189,0.271
		c0.1,0.07,0.221,0.106,0.363,0.106c0.197,0,0.484-0.068,0.859-0.206l0.184,1.66c-0.498,0.213-1.063,0.319-1.691,0.319
		c-0.385,0-0.732-0.064-1.043-0.194c-0.309-0.129-0.537-0.297-0.682-0.502c-0.145-0.206-0.244-0.483-0.301-0.834
		c-0.045-0.248-0.068-0.751-0.068-1.507v-3.524h-0.98v-1.706h0.98v-1.605l2.148-1.249v2.854H147.242z"/>
	<path fill="#FFFFFF" d="M148.727,189.042v-1.979h2.139v1.979H148.727z M148.727,198.223v-8.085h2.139v8.085H148.727z"/>
	<path fill="#FFFFFF" d="M160.41,198.223h-2.139v-4.126c0-0.873-0.045-1.438-0.137-1.693c-0.092-0.257-0.24-0.456-0.445-0.598
		c-0.205-0.143-0.453-0.214-0.742-0.214c-0.371,0-0.703,0.102-0.998,0.305c-0.293,0.203-0.496,0.472-0.605,0.807
		c-0.107,0.335-0.162,0.955-0.162,1.857v3.662h-2.141v-8.085h1.988v1.188c0.705-0.913,1.594-1.369,2.664-1.369
		c0.473,0,0.902,0.084,1.293,0.254c0.393,0.171,0.688,0.388,0.889,0.651c0.199,0.264,0.34,0.563,0.418,0.898
		s0.117,0.814,0.117,1.438V198.223z"/>
	<path fill="#FFFFFF" d="M162.383,198.756l2.443,0.297c0.041,0.284,0.135,0.479,0.281,0.586c0.203,0.152,0.523,0.229,0.959,0.229
		c0.559,0,0.979-0.084,1.256-0.251c0.189-0.112,0.33-0.292,0.428-0.541c0.064-0.178,0.098-0.505,0.098-0.982v-1.18
		c-0.639,0.873-1.445,1.31-2.42,1.31c-1.086,0-1.947-0.459-2.58-1.378c-0.498-0.726-0.746-1.629-0.746-2.71
		c0-1.355,0.326-2.391,0.977-3.106c0.652-0.715,1.463-1.072,2.434-1.072c1,0,1.824,0.438,2.475,1.316v-1.135h2.002v7.255
		c0,0.954-0.08,1.667-0.236,2.14c-0.158,0.472-0.379,0.842-0.662,1.111c-0.285,0.269-0.664,0.479-1.139,0.632
		s-1.074,0.229-1.801,0.229c-1.369,0-2.342-0.235-2.916-0.704c-0.572-0.47-0.859-1.064-0.859-1.785
		C162.375,198.943,162.377,198.857,162.383,198.756z M164.293,194.013c0,0.858,0.166,1.486,0.498,1.885
		c0.334,0.398,0.742,0.597,1.23,0.597c0.523,0,0.965-0.204,1.324-0.612c0.361-0.408,0.541-1.014,0.541-1.815
		c0-0.838-0.174-1.459-0.518-1.865c-0.346-0.406-0.781-0.609-1.311-0.609c-0.512,0-0.934,0.199-1.268,0.598
		C164.459,192.588,164.293,193.196,164.293,194.013z"/>
	<path fill="#FFFFFF" d="M176.467,198.223v-11.16h7.65v1.888h-5.398v2.642h4.66v1.889h-4.66v4.742H176.467z"/>
	<path fill="#FFFFFF" d="M187.559,192.604l-1.941-0.351c0.219-0.781,0.594-1.359,1.127-1.735c0.531-0.375,1.324-0.563,2.375-0.563
		c0.953,0,1.664,0.112,2.131,0.338c0.467,0.227,0.795,0.513,0.986,0.86c0.189,0.348,0.285,0.986,0.285,1.915l-0.023,2.496
		c0,0.711,0.035,1.235,0.104,1.572c0.068,0.338,0.197,0.699,0.385,1.085h-2.117c-0.055-0.142-0.125-0.353-0.205-0.632
		c-0.035-0.127-0.061-0.211-0.076-0.251c-0.365,0.355-0.756,0.621-1.172,0.799s-0.861,0.267-1.332,0.267
		c-0.834,0-1.488-0.226-1.969-0.678c-0.479-0.451-0.719-1.022-0.719-1.713c0-0.456,0.109-0.863,0.326-1.222
		c0.219-0.357,0.525-0.632,0.918-0.822s0.961-0.356,1.701-0.498c1-0.188,1.693-0.363,2.078-0.525v-0.213
		c0-0.411-0.102-0.704-0.305-0.88c-0.203-0.175-0.586-0.263-1.148-0.263c-0.381,0-0.678,0.075-0.891,0.225
		C187.863,191.967,187.689,192.229,187.559,192.604z M190.42,194.34c-0.273,0.092-0.707,0.201-1.301,0.328s-0.982,0.251-1.166,0.373
		c-0.279,0.197-0.418,0.448-0.418,0.753c0,0.3,0.111,0.559,0.336,0.776c0.223,0.219,0.506,0.328,0.852,0.328
		c0.385,0,0.754-0.127,1.104-0.381c0.26-0.193,0.43-0.429,0.51-0.708c0.057-0.183,0.084-0.53,0.084-1.043V194.34z"/>
	<path fill="#FFFFFF" d="M196.678,198.223h-2.141v-8.085h1.988v1.149c0.34-0.543,0.645-0.9,0.916-1.073
		c0.271-0.172,0.58-0.258,0.926-0.258c0.486,0,0.957,0.134,1.408,0.402l-0.662,1.865c-0.361-0.233-0.695-0.35-1.006-0.35
		c-0.299,0-0.553,0.082-0.76,0.247c-0.209,0.165-0.373,0.463-0.492,0.895s-0.178,1.335-0.178,2.71V198.223z"/>
	<path fill="#FFFFFF" d="M200.537,190.138h1.971v1.104c0.705-0.857,1.547-1.286,2.52-1.286c0.52,0,0.967,0.105,1.348,0.319
		c0.381,0.213,0.693,0.535,0.938,0.967c0.355-0.432,0.738-0.754,1.148-0.967c0.412-0.214,0.85-0.319,1.318-0.319
		c0.594,0,1.096,0.12,1.506,0.361c0.412,0.24,0.719,0.595,0.922,1.062c0.146,0.346,0.221,0.903,0.221,1.675v5.169h-2.139v-4.621
		c0-0.802-0.074-1.319-0.221-1.553c-0.199-0.305-0.504-0.457-0.914-0.457c-0.299,0-0.582,0.092-0.846,0.274s-0.453,0.45-0.57,0.803
		c-0.117,0.354-0.176,0.91-0.176,1.671v3.883h-2.139v-4.431c0-0.786-0.037-1.294-0.113-1.522s-0.195-0.398-0.355-0.51
		c-0.158-0.111-0.375-0.168-0.65-0.168c-0.33,0-0.627,0.089-0.891,0.267s-0.453,0.434-0.566,0.769
		c-0.115,0.335-0.172,0.892-0.172,1.668v3.928h-2.139V190.138z"/>
	<path fill="#FFFFFF" d="M219.24,195.649l2.133,0.358c-0.275,0.781-0.707,1.376-1.299,1.785c-0.592,0.408-1.33,0.612-2.219,0.612
		c-1.406,0-2.447-0.459-3.121-1.378c-0.533-0.735-0.799-1.664-0.799-2.786c0-1.34,0.35-2.389,1.049-3.147
		c0.701-0.759,1.586-1.138,2.658-1.138c1.203,0,2.15,0.396,2.846,1.19c0.695,0.795,1.029,2.012,0.998,3.65h-5.359
		c0.016,0.635,0.188,1.128,0.518,1.48c0.33,0.354,0.742,0.529,1.234,0.529c0.334,0,0.615-0.091,0.844-0.274
		C218.951,196.35,219.123,196.056,219.24,195.649z M219.363,193.487c-0.016-0.619-0.176-1.09-0.48-1.412s-0.676-0.483-1.111-0.483
		c-0.467,0-0.854,0.17-1.156,0.511c-0.305,0.34-0.455,0.802-0.449,1.385H219.363z"/>
	<path fill="#FFFFFF" d="M225.277,198.223h-2.139v-8.085h1.986v1.149c0.34-0.543,0.646-0.9,0.918-1.073
		c0.271-0.172,0.58-0.258,0.924-0.258c0.488,0,0.957,0.134,1.41,0.402l-0.664,1.865c-0.359-0.233-0.695-0.35-1.004-0.35
		c-0.299,0-0.553,0.082-0.762,0.247c-0.207,0.165-0.371,0.463-0.49,0.895s-0.18,1.335-0.18,2.71V198.223z"/>
	<path fill="#FFFFFF" d="M228.543,195.916l2.146-0.327c0.092,0.416,0.277,0.732,0.557,0.947c0.279,0.216,0.67,0.324,1.172,0.324
		c0.553,0,0.971-0.102,1.248-0.305c0.189-0.143,0.283-0.332,0.283-0.571c0-0.162-0.051-0.297-0.152-0.403
		c-0.107-0.102-0.346-0.195-0.717-0.281c-1.725-0.381-2.818-0.729-3.281-1.043c-0.639-0.437-0.959-1.043-0.959-1.819
		c0-0.701,0.277-1.289,0.83-1.767c0.553-0.477,1.412-0.715,2.574-0.715c1.105,0,1.928,0.18,2.465,0.54
		c0.539,0.36,0.91,0.894,1.111,1.599l-2.016,0.373c-0.088-0.314-0.25-0.556-0.492-0.724c-0.24-0.167-0.584-0.251-1.031-0.251
		c-0.563,0-0.967,0.079-1.211,0.236c-0.162,0.111-0.242,0.256-0.242,0.434c0,0.152,0.07,0.281,0.213,0.389
		c0.191,0.142,0.859,0.342,1.998,0.601s1.936,0.576,2.387,0.952c0.445,0.381,0.67,0.911,0.67,1.591c0,0.741-0.311,1.378-0.93,1.911
		c-0.619,0.532-1.535,0.799-2.748,0.799c-1.102,0-1.973-0.224-2.615-0.67C229.162,197.289,228.742,196.683,228.543,195.916z"/>
</g>
<g>
	<path fill="#FFFFFF" d="M103.24,138.011h5.651v8.929c-2.496,2.784-5.952,4.176-10.368,4.176c-3.696,0-6.798-1.224-9.306-3.672
		s-3.763-5.538-3.763-9.271c0-3.731,1.278-6.846,3.835-9.342c2.556-2.496,5.64-3.744,9.252-3.744c3.611,0,6.75,1.188,9.414,3.564
		l-2.916,4.212c-1.129-0.984-2.166-1.662-3.114-2.034s-1.975-0.558-3.078-0.558c-2.136,0-3.937,0.726-5.399,2.178
		c-1.465,1.452-2.196,3.366-2.196,5.742s0.702,4.278,2.105,5.706c1.404,1.428,3.078,2.142,5.022,2.142s3.563-0.372,4.86-1.116
		V138.011z"/>
	<path fill="#FFFFFF" d="M136.414,130.686c-0.54,0.444-0.811,1.032-0.811,1.764c0,0.732,0.33,1.313,0.99,1.746
		c0.66,0.432,2.184,0.942,4.572,1.53c2.388,0.588,4.241,1.47,5.562,2.646c1.319,1.176,1.98,2.893,1.98,5.148
		s-0.847,4.086-2.538,5.489c-1.692,1.404-3.919,2.106-6.679,2.106c-3.983,0-7.572-1.477-10.764-4.428l3.348-4.104
		c2.712,2.376,5.221,3.564,7.524,3.564c1.031,0,1.842-0.222,2.43-0.666s0.883-1.044,0.883-1.801c0-0.756-0.313-1.355-0.937-1.8
		c-0.624-0.443-1.86-0.894-3.708-1.35c-2.929-0.696-5.07-1.603-6.426-2.718c-1.356-1.116-2.034-2.868-2.034-5.256
		c0-2.389,0.857-4.23,2.574-5.526c1.716-1.296,3.857-1.944,6.426-1.944c1.68,0,3.359,0.288,5.04,0.864
		c1.68,0.576,3.144,1.393,4.392,2.448l-2.844,4.104c-2.184-1.656-4.44-2.483-6.768-2.483
		C137.691,130.02,136.954,130.242,136.414,130.686z"/>
	<path fill="#FFFFFF" d="M180.567,130.524v20.304h-5.616v-20.304h-7.128v-4.86h19.872v4.86H180.567z"/>
	<path fill="#FFFFFF" d="M230.967,134.988l-6.804,13.752h-3.348l-6.769-13.752v15.84h-5.616v-25.164h7.597l6.479,13.824
		l6.517-13.824h7.56v25.164h-5.616V134.988z"/>
</g>
</svg>
