<svg xmlns="http://www.w3.org/2000/svg" xmlns:xlink="http://www.w3.org/1999/xlink" viewBox="0 0 300.1 20"><defs><style>.cls-1{fill:url(#linear-gradient);}.cls-2{fill:#fff;}</style><linearGradient id="linear-gradient" x1="212.69" y1="-1236.88" x2="212.69" y2="-936.78" gradientTransform="translate(-62.64 1096.83)" gradientUnits="userSpaceOnUse"><stop offset="0" stop-color="#36a605"/><stop offset="0.11" stop-color="#61ba04"/><stop offset="0.2" stop-color="#f4ff00"/><stop offset="0.25" stop-color="#f4ff00"/><stop offset="0.26" stop-color="#f4ef09"/><stop offset="0.29" stop-color="#f4cd1d"/><stop offset="0.32" stop-color="#f3b22c"/><stop offset="0.35" stop-color="#f39f36"/><stop offset="0.39" stop-color="#f3943d"/><stop offset="0.42" stop-color="#f3903f"/><stop offset="0.98" stop-color="#a01a0a"/></linearGradient></defs><title>high-low-legend</title><g id="Layer_2" data-name="Layer 2"><g id="Layer_1-2" data-name="Layer 1"><rect class="cls-1" x="140.05" y="-140.05" width="20" height="300.1" transform="translate(160.05 -140.05) rotate(90)"/><path class="cls-2" d="M4.6,13.54v-10h2V7.46h4V3.52h2v10h-2V9.16h-4v4.38Z"/><path class="cls-2" d="M14.69,5.29V3.52h1.93V5.29Zm0,8.25V6.28h1.93v7.26Z"/><path class="cls-2" d="M18.41,14l2.19.26a.78.78,0,0,0,.25.53,1.45,1.45,0,0,0,.87.2,2.22,2.22,0,0,0,1.12-.22.93.93,0,0,0,.39-.49,3,3,0,0,0,.08-.88V12.36a2.57,2.57,0,0,1-2.17,1.18,2.68,2.68,0,0,1-2.32-1.24,4.24,4.24,0,0,1-.67-2.43A4,4,0,0,1,19,7.08a2.87,2.87,0,0,1,2.19-1A2.68,2.68,0,0,1,23.44,7.3v-1h1.8v6.51A6.13,6.13,0,0,1,25,14.71a2.37,2.37,0,0,1-.59,1,2.77,2.77,0,0,1-1,.57,5.34,5.34,0,0,1-1.62.2,4.21,4.21,0,0,1-2.62-.63,2,2,0,0,1-.77-1.6A2,2,0,0,1,18.41,14Zm1.71-4.26a2.61,2.61,0,0,0,.45,1.69,1.39,1.39,0,0,0,1.1.54,1.54,1.54,0,0,0,1.19-.55,2.39,2.39,0,0,0,.49-1.63,2.53,2.53,0,0,0-.47-1.68,1.49,1.49,0,0,0-1.17-.55,1.42,1.42,0,0,0-1.14.54A2.51,2.51,0,0,0,20.12,9.76Z"/><path class="cls-2" d="M29.05,3.52V7.2a2.85,2.85,0,0,1,2.22-1.09,2.93,2.93,0,0,1,1.2.25,1.91,1.91,0,0,1,.8.63,2.32,2.32,0,0,1,.37.85,7.23,7.23,0,0,1,.1,1.44v4.26H31.82V9.7a5.86,5.86,0,0,0-.11-1.45,1,1,0,0,0-.39-.49,1.22,1.22,0,0,0-.69-.18,1.59,1.59,0,0,0-.86.24,1.31,1.31,0,0,0-.55.7,4.34,4.34,0,0,0-.17,1.38v3.64H27.13v-10Z"/><path class="cls-2" d="M268.48,14.89V5h2V13.2h5v1.69Z"/><path class="cls-2" d="M276.52,11.16A4,4,0,0,1,277,9.3a3.2,3.2,0,0,1,1.34-1.36,3.89,3.89,0,0,1,1.93-.48A3.63,3.63,0,0,1,283,8.53,3.73,3.73,0,0,1,284,11.24,3.72,3.72,0,0,1,283,14a3.6,3.6,0,0,1-2.68,1.08,4.21,4.21,0,0,1-1.9-.45A3,3,0,0,1,277,13.28,4.46,4.46,0,0,1,276.52,11.16Zm2,.1a2.4,2.4,0,0,0,.51,1.65,1.63,1.63,0,0,0,1.26.58,1.65,1.65,0,0,0,1.27-.58,2.49,2.49,0,0,0,.5-1.67,2.45,2.45,0,0,0-.5-1.64A1.64,1.64,0,0,0,280.26,9,1.62,1.62,0,0,0,279,9.6,2.44,2.44,0,0,0,278.49,11.26Z"/><path class="cls-2" d="M286.87,14.89l-2.3-7.26h1.87l1.36,4.76,1.25-4.76h1.85l1.21,4.76,1.39-4.76h1.89l-2.33,7.26h-1.84L290,10.22l-1.23,4.67Z"/></g></g></svg>