<svg id="Layer_1" data-name="Layer 1" xmlns="http://www.w3.org/2000/svg" xmlns:xlink="http://www.w3.org/1999/xlink" viewBox="0 0 900 350"><defs><clipPath id="clip-path"><polygon points="2 348.26 897.59 348.26 897.59 2 2 2 2 348.26 2 348.26" style="fill:none;clip-rule:evenodd"/></clipPath><clipPath id="clip-path-2"><polygon points="64.35 291.92 870.89 291.92 870.89 19.5 64.35 19.5 64.35 291.92 64.35 291.92" style="fill:none;clip-rule:evenodd"/></clipPath><clipPath id="clip-path-13"><rect x="2" y="2" width="895.59" height="346.26" style="fill:none"/></clipPath></defs><title>ground-truth-risk-report</title><polygon points="2.14 2.14 897.73 2.14 897.73 348.26 2.14 348.26 2.14 2.14 2.14 2.14" style="fill:#eaeaea;fill-rule:evenodd"/><polygon points="64.49 19.64 870.07 19.64 870.07 291.1 64.49 291.1 64.49 19.64 64.49 19.64" style="fill:#fff;fill-rule:evenodd"/><path d="M64.49,223.27H870.07m-805.58-68H870.07M64.49,87.47H870.07M64.49,19.64H870.07" style="fill:none;stroke:#d9d9d9;stroke-linejoin:round;stroke-width:0.816909144846423px"/><g style="clip-path:url(#clip-path)"><path d="M64.49,19.64V291.1M333,19.64V291.1M601.55,19.64V291.1M870.07,19.64V291.1" style="fill:none;stroke:#d9d9d9;stroke-linejoin:round;stroke-width:0.816909144846423px"/></g><g style="clip-path:url(#clip-path-2)"><polygon points="147.04 52.19 250.33 52.19 250.33 291.1 147.04 291.1 147.04 52.19 147.04 52.19" style="fill:#5e9fff;fill-rule:evenodd"/><polygon points="147.04 52.19 250.33 52.19 250.33 291.1 147.04 291.1 147.04 52.19 147.04 52.19" style="fill:none;stroke:#7f7f7f;stroke-linejoin:round;stroke-width:0.816909144846423px"/><polygon points="415.7 50.55 519 50.55 519 291.1 415.7 291.1 415.7 50.55 415.7 50.55" style="fill:#5e9fff;fill-rule:evenodd"/><polygon points="415.7 50.55 519 50.55 519 291.1 415.7 291.1 415.7 50.55 415.7 50.55" style="fill:none;stroke:#7f7f7f;stroke-linejoin:round;stroke-width:0.816909144846423px"/><polygon points="684.23 48.91 787.52 48.91 787.52 291.1 684.23 291.1 684.23 48.91 684.23 48.91" style="fill:#5e9fff;fill-rule:evenodd"/><polygon points="684.23 48.91 787.52 48.91 787.52 291.1 684.23 291.1 684.23 48.91 684.23 48.91" style="fill:none;stroke:#7f7f7f;stroke-linejoin:round;stroke-width:0.816909144846423px"/></g><g style="clip-path:url(#clip-path)"><line x1="64.49" y1="291.1" x2="870.07" y2="291.1" style="fill:none;stroke:#d9d9d9;stroke-linejoin:round;stroke-width:0.816909144846423px"/></g><g style="clip-path:url(#clip-path)"><path d="M64.49,291.1v3m268.53-3v3m268.53-3v3m268.52-3v3" style="fill:none;stroke:#d9d9d9;stroke-linejoin:round;stroke-width:0.816909144846423px"/></g><g style="clip-path:url(#clip-path-2)"><polyline points="198.69 28.94 467.35 28.94 735.88 28.94" style="fill:none;stroke:#06f;stroke-miterlimit:10;stroke-width:1.36199891138077px;stroke-dasharray:5.022119998931885,5.022119998931885"/></g><g style="clip-path:url(#clip-path)"><path d="M201.49,28.91A2.85,2.85,0,1,1,198.64,26a2.87,2.87,0,0,1,2.85,2.88Z" style="fill:#06f"/><path d="M201.49,28.91A2.85,2.85,0,1,1,198.64,26a2.87,2.87,0,0,1,2.85,2.88Z" style="fill:none;stroke:#1c497c;stroke-linejoin:round;stroke-width:0.81690921247362px"/><path d="M470.15,28.91A2.85,2.85,0,1,1,467.3,26a2.86,2.86,0,0,1,2.85,2.88Z" style="fill:#06f"/><path d="M470.15,28.91A2.85,2.85,0,1,1,467.3,26a2.86,2.86,0,0,1,2.85,2.88Z" style="fill:none;stroke:#1c497c;stroke-linejoin:round;stroke-width:0.81690921247362px"/><path d="M738.68,28.91A2.85,2.85,0,1,1,735.83,26a2.87,2.87,0,0,1,2.85,2.88Z" style="fill:#06f"/><path d="M738.68,28.91A2.85,2.85,0,1,1,735.83,26a2.87,2.87,0,0,1,2.85,2.88Z" style="fill:none;stroke:#1c497c;stroke-linejoin:round;stroke-width:0.81690921247362px"/></g><g style="clip-path:url(#clip-path-2)"><polyline points="198.69 82.27 467.35 82.27 735.88 82.27" style="fill:none;stroke:#ff25f3;stroke-miterlimit:10;stroke-width:1.36199891138077px;stroke-dasharray:5.022119998931885,5.022119998931885"/></g><g style="clip-path:url(#clip-path)"><path d="M201.49,82.24a2.85,2.85,0,1,1-2.85-2.87,2.86,2.86,0,0,1,2.85,2.87Z" style="fill:#ff25f3"/><path d="M201.49,82.24a2.85,2.85,0,1,1-2.85-2.87,2.86,2.86,0,0,1,2.85,2.87Z" style="fill:none;stroke:#d9d9d9;stroke-linejoin:round;stroke-width:0.81690921247362px"/><path d="M470.15,82.24a2.85,2.85,0,1,1-2.85-2.87,2.85,2.85,0,0,1,2.85,2.87Z" style="fill:#ff25f3"/><path d="M470.15,82.24a2.85,2.85,0,1,1-2.85-2.87,2.85,2.85,0,0,1,2.85,2.87Z" style="fill:none;stroke:#d9d9d9;stroke-linejoin:round;stroke-width:0.81690921247362px"/><path d="M738.68,82.24a2.85,2.85,0,1,1-2.85-2.87,2.86,2.86,0,0,1,2.85,2.87Z" style="fill:#ff25f3"/><path d="M738.68,82.24a2.85,2.85,0,1,1-2.85-2.87,2.86,2.86,0,0,1,2.85,2.87Z" style="fill:none;stroke:#d9d9d9;stroke-linejoin:round;stroke-width:0.81690921247362px"/></g><g style="clip-path:url(#clip-path-2)"><polyline points="198.69 46.72 467.35 46.72 735.88 46.72" style="fill:none;stroke:#7f7f7f;stroke-linecap:round;stroke-linejoin:round;stroke-width:1.36151521886831px"/></g><g style="clip-path:url(#clip-path)"><path d="M201.49,46.68a2.85,2.85,0,1,1-2.85-2.87,2.87,2.87,0,0,1,2.85,2.87Z" style="fill:#7f7f7f"/><path d="M201.49,46.68a2.85,2.85,0,1,1-2.85-2.87,2.87,2.87,0,0,1,2.85,2.87Z" style="fill:none;stroke:#7f7f7f;stroke-linejoin:round;stroke-width:0.81690921247362px"/><path d="M470.15,46.68a2.85,2.85,0,1,1-2.85-2.87,2.86,2.86,0,0,1,2.85,2.87Z" style="fill:#7f7f7f"/><path d="M470.15,46.68a2.85,2.85,0,1,1-2.85-2.87,2.86,2.86,0,0,1,2.85,2.87Z" style="fill:none;stroke:#7f7f7f;stroke-linejoin:round;stroke-width:0.81690921247362px"/><path d="M738.68,46.68a2.85,2.85,0,1,1-2.85-2.87,2.87,2.87,0,0,1,2.85,2.87Z" style="fill:#7f7f7f"/><path d="M738.68,46.68a2.85,2.85,0,1,1-2.85-2.87,2.87,2.87,0,0,1,2.85,2.87Z" style="fill:none;stroke:#7f7f7f;stroke-linejoin:round;stroke-width:0.81690921247362px"/></g><g style="clip-path:url(#clip-path-2)"><polyline points="198.69 52.19 467.35 52.19 735.88 52.19" style="fill:none;stroke:#00c1a3;stroke-linecap:round;stroke-linejoin:round;stroke-width:1.36151521886831px"/></g><g style="clip-path:url(#clip-path)"><path d="M201.49,52.15a2.85,2.85,0,1,1-2.85-2.87,2.87,2.87,0,0,1,2.85,2.87Z" style="fill:#00c1a3"/><path d="M201.49,52.15a2.85,2.85,0,1,1-2.85-2.87,2.87,2.87,0,0,1,2.85,2.87Z" style="fill:none;stroke:#d9d9d9;stroke-linejoin:round;stroke-width:0.81690921247362px"/><path d="M470.15,52.15a2.85,2.85,0,1,1-2.85-2.87,2.86,2.86,0,0,1,2.85,2.87Z" style="fill:#00c1a3"/><path d="M470.15,52.15a2.85,2.85,0,1,1-2.85-2.87,2.86,2.86,0,0,1,2.85,2.87Z" style="fill:none;stroke:#d9d9d9;stroke-linejoin:round;stroke-width:0.81690921247362px"/><path d="M738.68,52.15a2.85,2.85,0,1,1-2.85-2.87,2.87,2.87,0,0,1,2.85,2.87Z" style="fill:#00c1a3"/><path d="M738.68,52.15a2.85,2.85,0,1,1-2.85-2.87,2.87,2.87,0,0,1,2.85,2.87Z" style="fill:none;stroke:#d9d9d9;stroke-linejoin:round;stroke-width:0.81690921247362px"/></g><g style="clip-path:url(#clip-path-13)"><text transform="translate(35.95 294.34) scale(0.99 1)" style="font-size:10.256540298461914px;font-family:ArialMT, Arial"><tspan style="letter-spacing:0.0029777976215877035em">2</tspan><tspan x="5.73" y="0" style="letter-spacing:0.002017217743656186em">.</tspan><tspan x="8.6" y="0" style="letter-spacing:-0.009029450852556263em">0</tspan><tspan x="14.22" y="0">0</tspan></text></g><g style="clip-path:url(#clip-path-13)"><text transform="translate(35.95 226.48) scale(0.99 1)" style="font-size:10.256540298461914px;font-family:ArialMT, Arial"><tspan style="letter-spacing:0.0029777976215877035em">3</tspan><tspan x="5.73" y="0" style="letter-spacing:0.002017217743656186em">.</tspan><tspan x="8.6" y="0" style="letter-spacing:-0.009029450852556263em">2</tspan><tspan x="14.22" y="0">5</tspan></text></g><g style="clip-path:url(#clip-path-13)"><text transform="translate(35.95 158.6) scale(0.99 1)" style="font-size:10.256540298461914px;font-family:ArialMT, Arial"><tspan style="letter-spacing:0.0029777976215877035em">4</tspan><tspan x="5.73" y="0" style="letter-spacing:0.002017217743656186em">.</tspan><tspan x="8.6" y="0" style="letter-spacing:-0.009029450852556263em">5</tspan><tspan x="14.22" y="0">0</tspan></text></g><g style="clip-path:url(#clip-path-13)"><text transform="translate(35.95 90.72) scale(0.99 1)" style="font-size:10.256540298461914px;font-family:ArialMT, Arial"><tspan style="letter-spacing:0.0029777976215877035em">5</tspan><tspan x="5.73" y="0" style="letter-spacing:0.002017217743656186em">.</tspan><tspan x="8.6" y="0" style="letter-spacing:-0.009029450852556263em">7</tspan><tspan x="14.22" y="0">5</tspan></text></g><g style="clip-path:url(#clip-path-13)"><text transform="translate(35.95 22.86) scale(0.99 1)" style="font-size:10.256540298461914px;font-family:ArialMT, Arial"><tspan style="letter-spacing:0.0029777976215877035em">7</tspan><tspan x="5.73" y="0" style="letter-spacing:0.002017217743656186em">.</tspan><tspan x="8.6" y="0" style="letter-spacing:-0.009029450852556263em">0</tspan><tspan x="14.22" y="0">0</tspan></text></g><g style="clip-path:url(#clip-path-13)"><text transform="translate(187.75 306.55) scale(0.99 1)" style="font-size:10.256540298461914px;font-family:ArialMT, Arial">Otc</text></g><g style="clip-path:url(#clip-path-13)"><text transform="translate(453.31 306.55) scale(0.99 1)" style="font-size:10.256540298461914px;font-family:ArialMT, Arial">Nov</text></g><g style="clip-path:url(#clip-path-13)"><text transform="translate(724.86 306.55) scale(0.99 1)" style="font-size:10.256540298461914px;font-family:ArialMT, Arial">Dec</text></g><g style="clip-path:url(#clip-path-13)"><text transform="translate(20.93 209.02) rotate(-90) scale(1.01 1)" style="font-size:11.250800132751465px;font-family:Arial-BoldMT, Arial;font-weight:700"><tspan style="letter-spacing:0.004990101931471982em">Q</tspan><tspan x="8.81" y="0" style="letter-spacing:0.0030112684069227478em">u</tspan><tspan x="15.71" y="0" style="letter-spacing:-0.0010324348823735135em">a</tspan><tspan x="21.96" y="0" style="letter-spacing:0.0030112684069227478em">n</tspan><tspan x="28.87" y="0" style="letter-spacing:0.003957667049098469em">t</tspan><tspan x="32.66" y="0">i</tspan><tspan x="35.78" y="0" style="letter-spacing:0.003957667049098469em">t</tspan><tspan x="39.57" y="0" style="letter-spacing:-0.012991472269866713em">y</tspan><tspan x="45.69" y="0" style="letter-spacing:0.011012638745317476em"> </tspan><tspan x="48.94" y="0" style="letter-spacing:0.003957667049098469em">(</tspan><tspan x="52.73" y="0" style="letter-spacing:0.022025277490634952em">M</tspan><tspan x="62.35" y="0" style="letter-spacing:0.014970305794415946em">T</tspan><tspan x="69.39" y="0">)</tspan></text></g><g style="clip-path:url(#clip-path-13)"><text transform="translate(417.2 338.94) scale(0.99 1)" style="font-size:11.350569725036621px;font-family:Arial-BoldMT, Arial;font-weight:700"><tspan style="letter-spacing:0.015016295910384789em">T</tspan><tspan x="7.1" y="0">i</tspan><tspan x="10.26" y="0" style="letter-spacing:0.0019963861614962436em">m</tspan><tspan x="20.37" y="0" style="letter-spacing:-0.0009547933815851601em">e</tspan><tspan x="26.67" y="0"> </tspan><tspan x="29.83" y="0" style="letter-spacing:-0.003992772322992487em">P</tspan><tspan x="37.35" y="0" style="letter-spacing:-0.0009547933815851601em">e</tspan><tspan x="43.65" y="0" style="letter-spacing:-0.0030379789414073273em">r</tspan><tspan x="48.04" y="0">i</tspan><tspan x="51.19" y="0" style="letter-spacing:0.0030379789414073273em">o</tspan><tspan x="58.16" y="0" style="letter-spacing:0.00008679939832592364em">d</tspan></text></g><polygon points="2.14 2.14 897.73 2.14 897.73 348.26 2.14 348.26 2.14 2.14 2.14 2.14" style="fill:none;stroke:#d9d9d9;stroke-linejoin:round;stroke-width:0.81690921247362px"/></svg>