<svg id="Layer_1" data-name="Layer 1" xmlns="http://www.w3.org/2000/svg" xmlns:xlink="http://www.w3.org/1999/xlink" viewBox="0 0 900 350"><defs><clipPath id="clip-path"><polygon points="2 346.85 897.39 346.85 897.39 2 2 2 2 346.85 2 346.85" style="fill:none;clip-rule:evenodd"/></clipPath><clipPath id="clip-path-6"><polygon points="69.52 281.52 886.3 281.52 886.3 16.79 69.52 16.79 69.52 281.52 69.52 281.52" style="fill:none;clip-rule:evenodd"/></clipPath><clipPath id="clip-path-10"><rect x="2" y="2" width="895.39" height="344.84" style="fill:none"/></clipPath></defs><title>ndvi-risk-report</title><polygon points="2.14 2 897.39 2 897.39 346.98 2.14 346.98 2.14 2 2.14 2" style="fill:#eaeaea;fill-rule:evenodd"/><polygon points="69.65 16.79 885.48 16.79 885.48 280.7 69.65 280.7 69.65 16.79 69.65 16.79" style="fill:#fff;fill-rule:evenodd"/><path d="M69.65,214.69H885.48M69.65,148.81H885.48M69.65,82.8H885.48m-815.83-66H885.48" style="fill:none;stroke:#d9d9d9;stroke-linejoin:round;stroke-width:0.821711170826498px"/><g style="clip-path:url(#clip-path)"><path d="M103.62,16.79V280.7M171.55,16.79V280.7M239.61,16.79V280.7M307.54,16.79V280.7M375.6,16.79V280.7M443.53,16.79V280.7M511.46,16.79V280.7M579.53,16.79V280.7M647.45,16.79V280.7M715.52,16.79V280.7M783.45,16.79V280.7M851.51,16.79V280.7" style="fill:none;stroke:#f2f2f2;stroke-linejoin:round;stroke-width:0.821711170826498px"/></g><g style="clip-path:url(#clip-path)"><path d="M69.65,16.79V280.7M137.58,16.79V280.7M205.65,16.79V280.7M273.58,16.79V280.7M341.5,16.79V280.7M409.57,16.79V280.7M477.5,16.79V280.7M545.56,16.79V280.7M613.49,16.79V280.7M681.56,16.79V280.7M749.48,16.79V280.7M817.41,16.79V280.7M885.48,16.79V280.7" style="fill:none;stroke:#d9d9d9;stroke-linejoin:round;stroke-width:0.821711170826498px"/></g><g style="clip-path:url(#clip-path)"><line x1="69.65" y1="280.7" x2="885.48" y2="280.7" style="fill:none;stroke:#d9d9d9;stroke-linejoin:round;stroke-width:1.36951859536925px"/></g><g style="clip-path:url(#clip-path)"><path d="M69.65,280.7v18.49M341.5,280.7v18.49m272-18.49v18.49m272-18.49v18.49" style="fill:none;stroke:#d9d9d9;stroke-linejoin:round;stroke-width:1.36951859536925px"/></g><g style="clip-path:url(#clip-path)"><path d="M69.65,299.19v18.48M341.5,299.19v18.48m272-18.48v18.48m272-18.48v18.48" style="fill:none;stroke:#d9d9d9;stroke-linejoin:round;stroke-width:1.36951859536925px"/></g><g style="clip-path:url(#clip-path-6)"><polyline points="103.62 161.96 171.55 127.58 239.61 95.95 307.54 80.2 375.61 69.65 443.53 64.31 511.46 74.86 579.53 95.95 647.45 122.38 715.52 135.53 783.45 148.81 851.51 164.56" style="fill:none;stroke:#ff25f3;stroke-linecap:round;stroke-linejoin:round;stroke-width:2.46513344445477px"/></g><g style="clip-path:url(#clip-path)"><polygon points="100.67 159.12 106.43 159.12 106.43 164.87 100.67 164.87 100.67 159.12 100.67 159.12" style="fill:#ff25f3;fill-rule:evenodd"/><polygon points="100.67 159.12 106.43 159.12 106.43 164.87 100.67 164.87 100.67 159.12 100.67 159.12" style="fill:none;stroke:#ff25f3;stroke-linejoin:round;stroke-width:0.821711238851227px"/><polygon points="168.6 124.74 174.35 124.74 174.35 130.5 168.6 130.5 168.6 124.74 168.6 124.74" style="fill:#ff25f3;fill-rule:evenodd"/><polygon points="168.6 124.74 174.35 124.74 174.35 130.5 168.6 130.5 168.6 124.74 168.6 124.74" style="fill:none;stroke:#ff25f3;stroke-linejoin:round;stroke-width:0.821711238851227px"/><polygon points="236.67 93.11 242.42 93.11 242.42 98.86 236.67 98.86 236.67 93.11 236.67 93.11" style="fill:#ff25f3;fill-rule:evenodd"/><polygon points="236.67 93.11 242.42 93.11 242.42 98.86 236.67 98.86 236.67 93.11 236.67 93.11" style="fill:none;stroke:#ff25f3;stroke-linejoin:round;stroke-width:0.821711238851227px"/><polygon points="304.6 77.36 310.35 77.36 310.35 83.11 304.6 83.11 304.6 77.36 304.6 77.36" style="fill:#ff25f3;fill-rule:evenodd"/><polygon points="304.6 77.36 310.35 77.36 310.35 83.11 304.6 83.11 304.6 77.36 304.6 77.36" style="fill:none;stroke:#ff25f3;stroke-linejoin:round;stroke-width:0.821711238851227px"/><polygon points="372.66 66.81 378.41 66.81 378.41 72.56 372.66 72.56 372.66 66.81 372.66 66.81" style="fill:#ff25f3;fill-rule:evenodd"/><polygon points="372.66 66.81 378.41 66.81 378.41 72.56 372.66 72.56 372.66 66.81 372.66 66.81" style="fill:none;stroke:#ff25f3;stroke-linejoin:round;stroke-width:0.821711238851227px"/><polygon points="440.59 61.47 446.34 61.47 446.34 67.22 440.59 67.22 440.59 61.47 440.59 61.47" style="fill:#ff25f3;fill-rule:evenodd"/><polygon points="440.59 61.47 446.34 61.47 446.34 67.22 440.59 67.22 440.59 61.47 440.59 61.47" style="fill:none;stroke:#ff25f3;stroke-linejoin:round;stroke-width:0.821711238851227px"/><polygon points="508.52 72.02 514.27 72.02 514.27 77.77 508.52 77.77 508.52 72.02 508.52 72.02" style="fill:#ff25f3;fill-rule:evenodd"/><polygon points="508.52 72.02 514.27 72.02 514.27 77.77 508.52 77.77 508.52 72.02 508.52 72.02" style="fill:none;stroke:#ff25f3;stroke-linejoin:round;stroke-width:0.821711238851227px"/><polygon points="576.58 93.11 582.33 93.11 582.33 98.86 576.58 98.86 576.58 93.11 576.58 93.11" style="fill:#ff25f3;fill-rule:evenodd"/><polygon points="576.58 93.11 582.33 93.11 582.33 98.86 576.58 98.86 576.58 93.11 576.58 93.11" style="fill:none;stroke:#ff25f3;stroke-linejoin:round;stroke-width:0.821711238851227px"/><polygon points="644.51 119.54 650.26 119.54 650.26 125.29 644.51 125.29 644.51 119.54 644.51 119.54" style="fill:#ff25f3;fill-rule:evenodd"/><polygon points="644.51 119.54 650.26 119.54 650.26 125.29 644.51 125.29 644.51 119.54 644.51 119.54" style="fill:none;stroke:#ff25f3;stroke-linejoin:round;stroke-width:0.821711238851227px"/><polygon points="712.58 132.69 718.33 132.69 718.33 138.44 712.58 138.44 712.58 132.69 712.58 132.69" style="fill:#ff25f3;fill-rule:evenodd"/><polygon points="712.58 132.69 718.33 132.69 718.33 138.44 712.58 138.44 712.58 132.69 712.58 132.69" style="fill:none;stroke:#ff25f3;stroke-linejoin:round;stroke-width:0.821711238851227px"/><polygon points="780.5 145.97 786.25 145.97 786.25 151.72 780.5 151.72 780.5 145.97 780.5 145.97" style="fill:#ff25f3;fill-rule:evenodd"/><polygon points="780.5 145.97 786.25 145.97 786.25 151.72 780.5 151.72 780.5 145.97 780.5 145.97" style="fill:none;stroke:#ff25f3;stroke-linejoin:round;stroke-width:0.821711238851227px"/><polygon points="848.57 161.72 854.32 161.72 854.32 167.47 848.57 167.47 848.57 161.72 848.57 161.72" style="fill:#ff25f3;fill-rule:evenodd"/><polygon points="848.57 161.72 854.32 161.72 854.32 167.47 848.57 167.47 848.57 161.72 848.57 161.72" style="fill:none;stroke:#ff25f3;stroke-linejoin:round;stroke-width:0.821711238851227px"/></g><g style="clip-path:url(#clip-path-6)"><polyline points="103.62 175.11 171.55 143.47 239.61 111.83 307.54 95.95 375.61 85.4 443.53 74.86 511.46 85.4 579.53 95.95 647.45 127.58 715.52 143.47 783.45 156.62 851.51 175.11" style="fill:none;stroke:#06f;stroke-linecap:round;stroke-linejoin:round;stroke-width:2.46513344445477px"/></g><g style="clip-path:url(#clip-path)"><path d="M106.43,175.14a2.88,2.88,0,1,1-2.88-2.87,2.88,2.88,0,0,1,2.88,2.87Z" style="fill:#06f"/><path d="M106.43,175.14a2.88,2.88,0,1,1-2.88-2.87,2.88,2.88,0,0,1,2.88,2.87Z" style="fill:none;stroke:#06f;stroke-linejoin:round;stroke-width:0.821711238851227px"/><path d="M174.35,143.51a2.88,2.88,0,1,1-2.87-2.88,2.87,2.87,0,0,1,2.87,2.88Z" style="fill:#06f"/><path d="M174.35,143.51a2.88,2.88,0,1,1-2.87-2.88,2.87,2.87,0,0,1,2.87,2.88Z" style="fill:none;stroke:#06f;stroke-linejoin:round;stroke-width:0.821711238851227px"/><path d="M242.42,111.87a2.88,2.88,0,1,1-2.88-2.88,2.88,2.88,0,0,1,2.88,2.88Z" style="fill:#06f"/><path d="M242.42,111.87a2.88,2.88,0,1,1-2.88-2.88,2.88,2.88,0,0,1,2.88,2.88Z" style="fill:none;stroke:#06f;stroke-linejoin:round;stroke-width:0.821711238851227px"/><path d="M310.35,96a2.88,2.88,0,1,1-2.88-2.87A2.88,2.88,0,0,1,310.35,96Z" style="fill:#06f"/><path d="M310.35,96a2.88,2.88,0,1,1-2.88-2.87A2.88,2.88,0,0,1,310.35,96Z" style="fill:none;stroke:#06f;stroke-linejoin:round;stroke-width:0.821711238851227px"/><path d="M378.41,85.44a2.88,2.88,0,1,1-2.87-2.88,2.87,2.87,0,0,1,2.87,2.88Z" style="fill:#06f"/><path d="M378.41,85.44a2.88,2.88,0,1,1-2.87-2.88,2.87,2.87,0,0,1,2.87,2.88Z" style="fill:none;stroke:#06f;stroke-linejoin:round;stroke-width:0.821711238851227px"/><path d="M446.34,74.89A2.88,2.88,0,1,1,443.46,72a2.88,2.88,0,0,1,2.88,2.87Z" style="fill:#06f"/><path d="M446.34,74.89A2.88,2.88,0,1,1,443.46,72a2.88,2.88,0,0,1,2.88,2.87Z" style="fill:none;stroke:#06f;stroke-linejoin:round;stroke-width:0.821711238851227px"/><path d="M514.27,85.44a2.88,2.88,0,1,1-2.88-2.88,2.87,2.87,0,0,1,2.88,2.88Z" style="fill:#06f"/><path d="M514.27,85.44a2.88,2.88,0,1,1-2.88-2.88,2.87,2.87,0,0,1,2.88,2.88Z" style="fill:none;stroke:#06f;stroke-linejoin:round;stroke-width:0.821711238851227px"/><path d="M582.33,96a2.88,2.88,0,1,1-2.87-2.87A2.87,2.87,0,0,1,582.33,96Z" style="fill:#06f"/><path d="M582.33,96a2.88,2.88,0,1,1-2.87-2.87A2.87,2.87,0,0,1,582.33,96Z" style="fill:none;stroke:#06f;stroke-linejoin:round;stroke-width:0.821711238851227px"/><path d="M650.26,127.62a2.88,2.88,0,1,1-2.87-2.88,2.87,2.87,0,0,1,2.87,2.88Z" style="fill:#06f"/><path d="M650.26,127.62a2.88,2.88,0,1,1-2.87-2.88,2.87,2.87,0,0,1,2.87,2.88Z" style="fill:none;stroke:#06f;stroke-linejoin:round;stroke-width:0.821711238851227px"/><path d="M718.33,143.51a2.88,2.88,0,1,1-2.88-2.88,2.88,2.88,0,0,1,2.88,2.88Z" style="fill:#06f"/><path d="M718.33,143.51a2.88,2.88,0,1,1-2.88-2.88,2.88,2.88,0,0,1,2.88,2.88Z" style="fill:none;stroke:#06f;stroke-linejoin:round;stroke-width:0.821711238851227px"/><path d="M786.25,156.65a2.88,2.88,0,1,1-2.87-2.87,2.87,2.87,0,0,1,2.87,2.87Z" style="fill:#06f"/><path d="M786.25,156.65a2.88,2.88,0,1,1-2.87-2.87,2.87,2.87,0,0,1,2.87,2.87Z" style="fill:none;stroke:#06f;stroke-linejoin:round;stroke-width:0.821711238851227px"/><path d="M854.32,175.14a2.88,2.88,0,1,1-2.88-2.87,2.88,2.88,0,0,1,2.88,2.87Z" style="fill:#06f"/><path d="M854.32,175.14a2.88,2.88,0,1,1-2.88-2.87,2.88,2.88,0,0,1,2.88,2.87Z" style="fill:none;stroke:#06f;stroke-linejoin:round;stroke-width:0.821711238851227px"/></g><g style="clip-path:url(#clip-path-10)"><text transform="translate(40.81 283.96)" style="font-size:10.271389961242676px;font-family:ArialMT, Arial"><tspan style="letter-spacing:0.00294735548102366em">0</tspan><tspan x="5.74" y="0" style="letter-spacing:0.0019965956484353825em">.</tspan><tspan x="8.62" y="0" style="letter-spacing:-0.009032218409588635em">0</tspan><tspan x="14.24" y="0">0</tspan></text></g><g style="clip-path:url(#clip-path-10)"><text transform="translate(40.81 217.99)" style="font-size:10.271389961242676px;font-family:ArialMT, Arial"><tspan style="letter-spacing:0.00294735548102366em">0</tspan><tspan x="5.74" y="0" style="letter-spacing:0.0019965956484353825em">.</tspan><tspan x="8.62" y="0" style="letter-spacing:-0.009032218409588635em">2</tspan><tspan x="14.24" y="0">5</tspan></text></g><g style="clip-path:url(#clip-path-10)"><text transform="translate(40.81 152.03)" style="font-size:10.271389961242676px;font-family:ArialMT, Arial"><tspan style="letter-spacing:0.00294735548102366em">0</tspan><tspan x="5.74" y="0" style="letter-spacing:0.0019965956484353825em">.</tspan><tspan x="8.62" y="0" style="letter-spacing:-0.009032218409588635em">5</tspan><tspan x="14.24" y="0">0</tspan></text></g><g style="clip-path:url(#clip-path-10)"><text transform="translate(40.81 86.07)" style="font-size:10.271389961242676px;font-family:ArialMT, Arial"><tspan style="letter-spacing:0.00294735548102366em">0</tspan><tspan x="5.74" y="0" style="letter-spacing:0.0019965956484353825em">.</tspan><tspan x="8.62" y="0" style="letter-spacing:-0.009032218409588635em">7</tspan><tspan x="14.24" y="0">5</tspan></text></g><g style="clip-path:url(#clip-path-10)"><text transform="translate(40.81 20.1)" style="font-size:10.271389961242676px;font-family:ArialMT, Arial"><tspan style="letter-spacing:0.00294735548102366em">1</tspan><tspan x="5.74" y="0" style="letter-spacing:0.0019965956484353825em">.</tspan><tspan x="8.62" y="0" style="letter-spacing:-0.009032218409588635em">0</tspan><tspan x="14.24" y="0">0</tspan></text></g><g style="clip-path:url(#clip-path-10)"><text transform="translate(100.76 296.19)" style="font-size:10.271389961242676px;font-family:ArialMT, Arial">1</text></g><g style="clip-path:url(#clip-path-10)"><text transform="translate(168.74 296.19)" style="font-size:10.271389961242676px;font-family:ArialMT, Arial">2</text></g><g style="clip-path:url(#clip-path-10)"><text transform="translate(236.73 296.19)" style="font-size:10.271389961242676px;font-family:ArialMT, Arial">3</text></g><g style="clip-path:url(#clip-path-10)"><text transform="translate(304.71 296.19)" style="font-size:10.271389961242676px;font-family:ArialMT, Arial">4</text></g><g style="clip-path:url(#clip-path-10)"><text transform="translate(372.7 296.19)" style="font-size:10.271389961242676px;font-family:ArialMT, Arial">1</text></g><g style="clip-path:url(#clip-path-10)"><text transform="translate(440.69 296.19)" style="font-size:10.271389961242676px;font-family:ArialMT, Arial">2</text></g><g style="clip-path:url(#clip-path-10)"><text transform="translate(508.67 296.19)" style="font-size:10.271389961242676px;font-family:ArialMT, Arial">3</text></g><g style="clip-path:url(#clip-path-10)"><text transform="translate(576.66 296.19)" style="font-size:10.271389961242676px;font-family:ArialMT, Arial">4</text></g><g style="clip-path:url(#clip-path-10)"><text transform="translate(644.63 296.19)" style="font-size:10.271389961242676px;font-family:ArialMT, Arial">1</text></g><g style="clip-path:url(#clip-path-10)"><text transform="translate(712.62 296.19)" style="font-size:10.271389961242676px;font-family:ArialMT, Arial">2</text></g><g style="clip-path:url(#clip-path-10)"><text transform="translate(780.6 296.19)" style="font-size:10.271389961242676px;font-family:ArialMT, Arial">3</text></g><g style="clip-path:url(#clip-path-10)"><text transform="translate(848.59 296.19)" style="font-size:10.271389961242676px;font-family:ArialMT, Arial">4</text></g><g style="clip-path:url(#clip-path-10)"><text transform="translate(197.6 314.71)" style="font-size:10.271389961242676px;font-family:ArialMT, Arial"><tspan style="letter-spacing:-0.003993191296870765em">O</tspan><tspan x="7.95" y="0" style="letter-spacing:0.005989786945306148em">c</tspan><tspan x="13.15" y="0">t</tspan></text></g><g style="clip-path:url(#clip-path-10)"><text transform="translate(468.4 314.71)" style="font-size:10.271389961242676px;font-family:ArialMT, Arial"><tspan style="letter-spacing:-0.0019965956484353825em">N</tspan><tspan x="7.4" y="0" style="letter-spacing:0.00294735548102366em">o</tspan><tspan x="13.14" y="0">v</tspan></text></g><g style="clip-path:url(#clip-path-10)"><text transform="translate(740.34 314.71)" style="font-size:10.271389961242676px;font-family:ArialMT, Arial"><tspan style="letter-spacing:-0.0019965956484353825em">D</tspan><tspan x="7.4" y="0" style="letter-spacing:0.00294735548102366em">e</tspan><tspan x="13.14" y="0">c</tspan></text></g><g style="clip-path:url(#clip-path-10)"><text transform="translate(25.26 205.19) rotate(-90)" style="font-size:11.367010116577148px;font-family:Arial-BoldMT, Arial;font-weight:700">ND<tspan x="16.42" y="0" style="letter-spacing:-0.004037863697601864em">V</tspan><tspan x="23.95" y="0">I</tspan><tspan x="27.11" y="0" style="letter-spacing:0.01099673517644763em"> </tspan><tspan x="30.4" y="0"> </tspan><tspan x="33.55" y="0" style="letter-spacing:-0.004037863697601864em">V</tspan><tspan x="41.09" y="0" style="letter-spacing:-0.0010309439227919653em">a</tspan><tspan x="47.4" y="0">l</tspan><tspan x="50.56" y="0" style="letter-spacing:0.002921007781243902em">u</tspan><tspan x="57.54" y="0">e</tspan></text></g><g style="clip-path:url(#clip-path-10)"><text transform="translate(432.74 338.39)" style="font-size:11.367010116577148px;font-family:Arial-BoldMT, Arial;font-weight:700"><tspan style="letter-spacing:0.007044783472411763em">W</tspan><tspan x="10.81" y="0" style="letter-spacing:-0.0009450319292259681em">ee</tspan><tspan x="23.43" y="0">k</tspan></text></g><polygon points="2.14 2 897.39 2 897.39 346.98 2.14 346.98 2.14 2 2.14 2" style="fill:none;stroke:#d9d9d9;stroke-linejoin:round;stroke-width:0.821711238851227px"/></svg>