<svg id="Layer_1" data-name="Layer 1" xmlns="http://www.w3.org/2000/svg" xmlns:xlink="http://www.w3.org/1999/xlink" viewBox="0 0 900 350"><defs><clipPath id="clip-path"><polygon points="2 346.78 898.41 346.78 898.41 2 2 2 2 346.78 2 346.78" style="fill:none;clip-rule:evenodd"/></clipPath><clipPath id="clip-path-3"><polygon points="85.45 299.29 878.51 299.29 878.51 28.9 85.45 28.9 85.45 299.29 85.45 299.29" style="fill:none;clip-rule:evenodd"/></clipPath><clipPath id="clip-path-6"><rect x="2" y="2" width="896.41" height="344.78" style="fill:none"/></clipPath></defs><title>price-volatility</title><polygon points="2 2 898.54 2 898.54 346.78 2 346.78 2 2 2 2" style="fill:#eaeaea;fill-rule:evenodd"/><polygon points="85.59 28.9 877.68 28.9 877.68 298.47 85.59 298.47 85.59 28.9 85.59 28.9" style="fill:#fff;fill-rule:evenodd"/><path d="M85.59,239H877.68M85.59,179.74H877.68M85.59,120.45H877.68M85.59,61.16H877.68" style="fill:none;stroke:#d9d9d9;stroke-linejoin:round;stroke-width:0.823525467641874px"/><g style="clip-path:url(#clip-path)"><path d="M85.59,28.9V298.47m66-269.57V298.47m66-269.57V298.47m66-269.57V298.47m66-269.57V298.47m66-269.57V298.47m66-269.57V298.47m66-269.57V298.47m66-269.57V298.47m66-269.57V298.47m66-269.57V298.47M811.66,28.9V298.47m66-269.57V298.47" style="fill:none;stroke:#d9d9d9;stroke-linejoin:round;stroke-width:0.823525467641874px"/></g><g style="clip-path:url(#clip-path)"><line x1="85.59" y1="298.47" x2="877.68" y2="298.47" style="fill:none;stroke:#bfbfbf;stroke-linejoin:round;stroke-width:2.19606795916161px"/></g><g style="clip-path:url(#clip-path-3)"><polyline points="118.53 207.33 184.55 172.74 250.57 108.65 316.59 78.04 382.61 116.33 448.63 162.59 514.64 202.8 580.66 219 646.68 180.84 712.7 149.41 778.72 198.96 844.74 224.08" style="fill:none;stroke:#ff25f3;stroke-linecap:round;stroke-linejoin:round;stroke-width:2.4705763347507px"/></g><g style="clip-path:url(#clip-path-3)"><polyline points="118.53 207.19 184.55 265.12 250.57 222.98 316.59 231.08 382.61 214.47 448.63 222.84 514.64 240.55 580.66 234.51 646.68 214.47 712.7 216.8 778.72 199.23 844.74 170.41" style="fill:none;stroke:#2935e8;stroke-linecap:round;stroke-linejoin:round;stroke-width:2.4705763347507px"/></g><g style="clip-path:url(#clip-path-3)"><polyline points="118.53 199.92 184.55 201.43 250.57 159.16 316.59 92.04 382.61 83.67 448.63 126.76 514.64 142 580.66 162.31 646.68 107.27 712.7 129.51 778.72 178.51 844.74 203.22" style="fill:none;stroke:#00c1a3;stroke-linecap:round;stroke-linejoin:round;stroke-width:2.4705763347507px"/></g><g style="clip-path:url(#clip-path-6)"><text transform="translate(59.54 301.73)" style="font-size:10.29407024383545px;font-family:ArialMT, Arial"><tspan style="letter-spacing:0.00303572826489249em">5</tspan><tspan x="5.76" y="0" style="letter-spacing:-0.00891745177812169em">0</tspan><tspan x="11.39" y="0">0</tspan></text></g><g style="clip-path:url(#clip-path-6)"><text transform="translate(48.1 242.38)" style="font-size:10.29407024383545px;font-family:ArialMT, Arial"><tspan style="letter-spacing:0.00303572826489249em">1</tspan><tspan x="5.76" y="0" style="letter-spacing:-0.00891745177812169em">2</tspan><tspan x="11.39" y="0" style="letter-spacing:0.00303572826489249em">50</tspan><tspan x="22.9" y="0">0</tspan></text></g><g style="clip-path:url(#clip-path-6)"><text transform="translate(48.1 183.04)" style="font-size:10.29407024383545px;font-family:ArialMT, Arial"><tspan style="letter-spacing:0.00303572826489249em">2</tspan><tspan x="5.76" y="0" style="letter-spacing:-0.00891745177812169em">4</tspan><tspan x="11.39" y="0" style="letter-spacing:0.00303572826489249em">50</tspan><tspan x="22.9" y="0">0</tspan></text></g><g style="clip-path:url(#clip-path-6)"><text transform="translate(48.1 123.71)" style="font-size:10.29407024383545px;font-family:ArialMT, Arial"><tspan style="letter-spacing:0.00303572826489249em">3</tspan><tspan x="5.76" y="0" style="letter-spacing:-0.00891745177812169em">6</tspan><tspan x="11.39" y="0" style="letter-spacing:0.00303572826489249em">50</tspan><tspan x="22.9" y="0">0</tspan></text></g><g style="clip-path:url(#clip-path-6)"><text transform="translate(48.1 64.37)" style="font-size:10.29407024383545px;font-family:ArialMT, Arial"><tspan style="letter-spacing:0.00303572826489249em">4</tspan><tspan x="5.76" y="0" style="letter-spacing:-0.00891745177812169em">8</tspan><tspan x="11.39" y="0" style="letter-spacing:0.00303572826489249em">50</tspan><tspan x="22.9" y="0">0</tspan></text></g><g style="clip-path:url(#clip-path-6)"><text transform="translate(110.28 313.98)" style="font-size:10.29407024383545px;font-family:ArialMT, Arial;letter-spacing:0.00597659002150709em">J<tspan x="5.21" y="0" style="letter-spacing:-0.00901231828639958em">a</tspan><tspan x="10.84" y="0" style="letter-spacing:0.00009486650827789031em">n</tspan></text></g><g style="clip-path:url(#clip-path-6)"><text transform="translate(175.73 313.98)" style="font-size:10.29407024383545px;font-family:ArialMT, Arial;letter-spacing:0.0019921966738356968em">F<tspan x="6.31" y="0" style="letter-spacing:0.00303572826489249em">e</tspan><tspan x="12.06" y="0" style="letter-spacing:0.00009486650827789031em">b</tspan></text></g><g style="clip-path:url(#clip-path-6)"><text transform="translate(241.75 313.98)" style="font-size:10.29407024383545px;font-family:ArialMT, Arial"><tspan style="letter-spacing:-0.00597659002150709em">M</tspan><tspan x="8.51" y="0" style="letter-spacing:0.00303572826489249em">a</tspan><tspan x="14.27" y="0">r</tspan></text></g><g style="clip-path:url(#clip-path-6)"><text transform="translate(308.61 313.98)" style="font-size:10.29407024383545px;font-family:ArialMT, Arial">A<tspan x="6.87" y="0" style="letter-spacing:0.00303572826489249em">p</tspan><tspan x="12.62" y="0">r</tspan></text></g><g style="clip-path:url(#clip-path-6)"><text transform="translate(372.92 313.98)" style="font-size:10.29407024383545px;font-family:ArialMT, Arial;letter-spacing:-0.00597659002150709em">M<tspan x="8.51" y="0" style="letter-spacing:0.00303572826489249em">a</tspan><tspan x="14.27" y="0" style="letter-spacing:-0.00009486650827789031em">y</tspan></text></g><g style="clip-path:url(#clip-path-6)"><text transform="translate(440.36 313.98)" style="font-size:10.29407024383545px;font-family:ArialMT, Arial;letter-spacing:0.00597659002150709em">J<tspan x="5.21" y="0" style="letter-spacing:-0.00901231828639958em">u</tspan><tspan x="10.84" y="0" style="letter-spacing:0.00009486650827789031em">n</tspan></text></g><g style="clip-path:url(#clip-path-6)"><text transform="translate(508.09 313.98)" style="font-size:10.29407024383545px;font-family:ArialMT, Arial"><tspan style="letter-spacing:0.00597659002150709em">J</tspan><tspan x="5.21" y="0" style="letter-spacing:-0.00901231828639958em">u</tspan><tspan x="10.84" y="0">l</tspan></text></g><g style="clip-path:url(#clip-path-6)"><text transform="translate(571.52 313.98)" style="font-size:10.29407024383545px;font-family:ArialMT, Arial">A<tspan x="6.87" y="0" style="letter-spacing:0.00303572826489249em">u</tspan><tspan x="12.62" y="0">g</tspan></text></g><g style="clip-path:url(#clip-path-6)"><text transform="translate(637.53 313.98)" style="font-size:10.29407024383545px;font-family:ArialMT, Arial">S<tspan x="6.87" y="0" style="letter-spacing:0.00303572826489249em">e</tspan><tspan x="12.62" y="0">p</tspan></text></g><g style="clip-path:url(#clip-path-6)"><text transform="translate(704.7 313.98)" style="font-size:10.29407024383545px;font-family:ArialMT, Arial"><tspan style="letter-spacing:-0.0039843933476713935em">O</tspan><tspan x="7.97" y="0" style="letter-spacing:0.00597659002150709em">c</tspan><tspan x="13.17" y="0">t</tspan></text></g><g style="clip-path:url(#clip-path-6)"><text transform="translate(769.57 313.98)" style="font-size:10.29407024383545px;font-family:ArialMT, Arial"><tspan style="letter-spacing:-0.0019921966738356968em">N</tspan><tspan x="7.41" y="0" style="letter-spacing:0.00303572826489249em">o</tspan><tspan x="13.17" y="0">v</tspan></text></g><g style="clip-path:url(#clip-path-6)"><text transform="translate(835.59 313.98)" style="font-size:10.29407024383545px;font-family:ArialMT, Arial"><tspan style="letter-spacing:-0.0019921966738356968em">D</tspan><tspan x="7.41" y="0" style="letter-spacing:0.00303572826489249em">e</tspan><tspan x="13.17" y="0">c</tspan></text></g><g style="clip-path:url(#clip-path-6)"><text transform="translate(18.87 231.7) rotate(-90)" style="font-size:11.39210033416748px;font-family:Arial-BoldMT, Arial;font-weight:700"><tspan style="letter-spacing:0.022030754218979678em">M</tspan><tspan x="9.74" y="0" style="letter-spacing:-0.0010286733487461328em">a</tspan><tspan x="16.06" y="0" style="letter-spacing:-0.0030002972671762207em">r</tspan><tspan x="20.46" y="0" style="letter-spacing:-0.0010286733487461328em">ke</tspan><tspan x="33.11" y="0" style="letter-spacing:0.004028970615922353em">t</tspan><tspan x="36.95" y="0"> </tspan><tspan x="40.12" y="0" style="letter-spacing:-0.004028970615922353em">P</tspan><tspan x="47.67" y="0" style="letter-spacing:-0.0030002972671762207em">r</tspan><tspan x="52.07" y="0">i</tspan><tspan x="55.23" y="0" style="letter-spacing:-0.0010286733487461328em">ce</tspan><tspan x="67.88" y="0" style="letter-spacing:0.022973704788663632em"> </tspan><tspan x="71.31" y="0" style="letter-spacing:0.004028970615922353em">(</tspan><tspan x="75.15" y="0">R</tspan><tspan x="83.38" y="0" style="letter-spacing:-0.0010286733487461328em">s</tspan><tspan x="89.7" y="0">./</tspan><tspan x="96.03" y="0" style="letter-spacing:0.022030754218979678em">M</tspan><tspan x="105.77" y="0" style="letter-spacing:0.015001486335881102em">T</tspan><tspan x="112.9" y="0">)</tspan></text></g><g style="clip-path:url(#clip-path-6)"><text transform="translate(462.52 337.88)" style="font-size:11.39210033416748px;font-family:Arial-BoldMT, Arial;font-weight:700;letter-spacing:0.022030754218979678em">M<tspan x="9.74" y="0" style="letter-spacing:0.0030002972671762207em">on</tspan><tspan x="23.73" y="0" style="letter-spacing:0.003943247836860175em">t</tspan><tspan x="27.57" y="0" style="letter-spacing:0.0030002972671762207em">h</tspan><tspan x="34.56" y="0" style="letter-spacing:-0.0010286733487461328em">s</tspan></text></g><g style="clip-path:url(#clip-path)"><line x1="229.57" y1="16.55" x2="251.53" y2="16.55" style="fill:none;stroke:#ff25f3;stroke-linecap:round;stroke-linejoin:round;stroke-width:2.4705763347507px"/></g><g style="clip-path:url(#clip-path-6)"><text transform="translate(253.91 19.36)" style="font-size:9.196040153503418px;font-family:Arial-BoldMT, Arial;font-weight:700"><tspan style="letter-spacing:-0.0010619380556183835em">G</tspan><tspan x="7.14" y="0" style="letter-spacing:-0.0048849150558445634em">U</tspan><tspan x="13.74" y="0" style="letter-spacing:-0.002973426555731474em">J</tspan><tspan x="18.83" y="0" style="letter-spacing:0.004991108861406402em"> </tspan><tspan x="21.43" y="0" style="letter-spacing:-0.004035364611349857em">(</tspan><tspan x="24.45" y="0" style="letter-spacing:-0.004991108861406402em">R</tspan><tspan x="31.05" y="0" style="letter-spacing:-0.003929170805788019em">-</tspan><tspan x="34.07" y="0" style="letter-spacing:-0.003079620361293312em">11</tspan><tspan x="44.25" y="0" style="letter-spacing:0.005097302666968241em">,</tspan><tspan x="46.85" y="0" style="letter-spacing:-0.00902647347275626em"> </tspan><tspan x="49.32" y="0" style="letter-spacing:0.00902647347275626em">R</tspan><tspan x="56.04" y="0" style="letter-spacing:-0.003929170805788019em">-</tspan><tspan x="59.07" y="0" style="letter-spacing:-0.002973426555731474em">13</tspan><tspan x="69.24" y="0">)</tspan></text></g><g style="clip-path:url(#clip-path)"><line x1="451.23" y1="16.55" x2="473.19" y2="16.55" style="fill:none;stroke:#2935e8;stroke-linecap:round;stroke-linejoin:round;stroke-width:2.4705763347507px"/></g><g style="clip-path:url(#clip-path-6)"><text transform="translate(475.48 19.36)" style="font-size:9.196040153503418px;font-family:Arial-BoldMT, Arial;font-weight:700"><tspan style="letter-spacing:0.0020176823056749283em">M</tspan><tspan x="7.68" y="0" style="letter-spacing:-0.009982217722812804em">P</tspan><tspan x="13.72" y="0" style="letter-spacing:0.004991108861406402em"> </tspan><tspan x="16.32" y="0" style="letter-spacing:-0.004035364611349857em">(</tspan><tspan x="19.35" y="0" style="letter-spacing:-0.0048849150558445634em">R</tspan><tspan x="25.94" y="0" style="letter-spacing:-0.004035364611349857em">-</tspan><tspan x="28.97" y="0" style="letter-spacing:-0.002973426555731474em">14</tspan><tspan x="39.14" y="0" style="letter-spacing:0.004991108861406402em">,</tspan><tspan x="41.74" y="0" style="letter-spacing:-0.008920279667194421em"> </tspan><tspan x="44.21" y="0" style="letter-spacing:-0.004991108861406402em">R</tspan><tspan x="50.81" y="0" style="letter-spacing:0.009982217722812804em">-</tspan><tspan x="53.96" y="0" style="letter-spacing:-0.002973426555731474em">15</tspan><tspan x="64.14" y="0">)</tspan></text></g><g style="clip-path:url(#clip-path)"><line x1="667.68" y1="16.55" x2="689.64" y2="16.55" style="fill:none;stroke:#00c1a3;stroke-linecap:round;stroke-linejoin:round;stroke-width:2.4705763347507px"/></g><g style="clip-path:url(#clip-path-6)"><text transform="translate(691.97 19.36)" style="font-size:9.196040153503418px;font-family:Arial-BoldMT, Arial;font-weight:700"><tspan style="letter-spacing:-0.009982217722812804em">P</tspan><tspan x="6.04" y="0" style="letter-spacing:0.00902647347275626em">N</tspan><tspan x="12.77" y="0" style="letter-spacing:-0.004991108861406402em">B</tspan><tspan x="19.36" y="0" style="letter-spacing:-0.008920279667194421em"> </tspan><tspan x="21.83" y="0" style="letter-spacing:-0.004035364611349857em">(</tspan><tspan x="24.86" y="0" style="letter-spacing:0.00902647347275626em">R</tspan><tspan x="31.58" y="0" style="letter-spacing:-0.004035364611349857em">-</tspan><tspan x="34.61" y="0" style="letter-spacing:-0.002973426555731474em">3</tspan><tspan x="39.69" y="0">)</tspan></text></g><polygon points="2 2 898.54 2 898.54 346.78 2 346.78 2 2 2 2" style="fill:none;stroke:#d9d9d9;stroke-linejoin:round;stroke-width:0.823525535816798px"/></svg>