<svg id="Layer_1" data-name="Layer 1" xmlns="http://www.w3.org/2000/svg" xmlns:xlink="http://www.w3.org/1999/xlink" viewBox="0 0 900 350"><defs><clipPath id="clip-path"><polygon points="2.85 1.85 896.79 1.85 896.79 341.7 2.85 341.7 2.85 1.85 2.85 1.85" style="fill:none;clip-rule:evenodd"/></clipPath><clipPath id="clip-path-2"><polygon points="2.85 1.85 92.42 1.85 92.42 58.92 2.85 58.92 2.85 1.85 2.85 1.85" style="fill:none;clip-rule:evenodd"/></clipPath><clipPath id="clip-path-4"><polygon points="2.85 1.85 896.79 1.85 896.79 58.92 2.85 58.92 2.85 1.85 2.85 1.85" style="fill:none;clip-rule:evenodd"/></clipPath><clipPath id="clip-path-6"><polygon points="2.85 316.14 895.94 316.14 895.94 340.84 2.85 340.84 2.85 316.14 2.85 316.14" style="fill:none;clip-rule:evenodd"/></clipPath><clipPath id="clip-path-7"><polygon points="385 279.52 640.04 279.52 640.04 315.29 385 315.29 385 279.52 385 279.52" style="fill:none;clip-rule:evenodd"/></clipPath><clipPath id="clip-path-8"><polygon points="2.85 59.77 92.42 59.77 92.42 168.79 2.85 168.79 2.85 59.77 2.85 59.77" style="fill:none;clip-rule:evenodd"/></clipPath><clipPath id="clip-path-9"><polygon points="2.85 169.64 92.42 169.64 92.42 278.67 2.85 278.67 2.85 169.64 2.85 169.64" style="fill:none;clip-rule:evenodd"/></clipPath><clipPath id="clip-path-10"><polygon points="93.27 59.77 179.42 59.77 179.42 168.79 93.27 168.79 93.27 59.77 93.27 59.77" style="fill:none;clip-rule:evenodd"/></clipPath><clipPath id="clip-path-11"><polygon points="93.27 169.64 179.42 169.64 179.42 278.67 93.27 278.67 93.27 169.64 93.27 169.64" style="fill:none;clip-rule:evenodd"/></clipPath><clipPath id="clip-path-12"><polygon points="231.46 169.64 486.5 169.64 486.5 205.42 231.46 205.42 231.46 169.64 231.46 169.64" style="fill:none;clip-rule:evenodd"/></clipPath><clipPath id="clip-path-13"><polygon points="385 206.27 640.04 206.27 640.04 242.04 385 242.04 385 206.27 385 206.27" style="fill:none;clip-rule:evenodd"/></clipPath><clipPath id="clip-path-14"><polygon points="589.72 242.89 844.76 242.89 844.76 278.67 589.72 278.67 589.72 242.89 589.72 242.89" style="fill:none;clip-rule:evenodd"/></clipPath><clipPath id="clip-path-15"><polygon points="231.46 59.77 486.5 59.77 486.5 95.54 231.46 95.54 231.46 59.77 231.46 59.77" style="fill:none;clip-rule:evenodd"/></clipPath><clipPath id="clip-path-16"><polygon points="385 96.39 640.04 96.39 640.04 132.17 385 132.17 385 96.39 385 96.39" style="fill:none;clip-rule:evenodd"/></clipPath><clipPath id="clip-path-17"><polygon points="589.72 133.02 844.76 133.02 844.76 168.79 589.72 168.79 589.72 133.02 589.72 133.02" style="fill:none;clip-rule:evenodd"/></clipPath><clipPath id="clip-path-18"><polygon points="2 1 896.79 1 896.79 341.7 2 341.7 2 1 2 1" style="fill:none;clip-rule:evenodd"/></clipPath></defs><title>seasonal-calendar</title><g style="clip-path:url(#clip-path)"><polyline points="2 1 2 59.77 896.79 59.77 896.79 1 2 1" style="fill:#d9d9d9;fill-rule:evenodd"/><polyline points="895.94 1 895.94 59.77 951.39 59.77 951.39 1 895.94 1" style="fill:#fff;fill-rule:evenodd"/><polyline points="2 58.92 2 96.39 180.28 96.39 180.28 58.92 2 58.92" style="fill:#f2f2f2;fill-rule:evenodd"/><polyline points="179.42 58.92 179.42 96.39 231.46 96.39 231.46 58.92 179.42 58.92" style="fill:#5e9fff;fill-rule:evenodd"/><polyline points="230.6 58.92 230.6 96.39 487.36 96.39 487.36 58.92 230.6 58.92" style="fill:#06f;fill-rule:evenodd"/><polyline points="486.5 58.92 486.5 96.39 538.54 96.39 538.54 58.92 486.5 58.92" style="fill:#0044ab;fill-rule:evenodd"/><polyline points="537.68 58.92 537.68 96.39 951.39 96.39 951.39 58.92 537.68 58.92" style="fill:#fff;fill-rule:evenodd"/><polyline points="2 95.54 2 133.02 180.28 133.02 180.28 95.54 2 95.54" style="fill:#f2f2f2;fill-rule:evenodd"/><polyline points="179.42 95.54 179.42 133.02 333.82 133.02 333.82 95.54 179.42 95.54" style="fill:#fff;fill-rule:evenodd"/><polyline points="332.96 95.54 332.96 133.02 385 133.02 385 95.54 332.96 95.54" style="fill:#5e9fff;fill-rule:evenodd"/><polyline points="384.14 95.54 384.14 133.02 640.89 133.02 640.89 95.54 384.14 95.54" style="fill:#06f;fill-rule:evenodd"/><polyline points="640.04 95.54 640.04 133.02 692.08 133.02 692.08 95.54 640.04 95.54" style="fill:#0044ab;fill-rule:evenodd"/><polyline points="895.94 95.54 895.94 133.02 951.39 133.02 951.39 95.54 895.94 95.54" style="fill:#fff;fill-rule:evenodd"/><polyline points="2 132.17 2 169.64 180.28 169.64 180.28 132.17 2 132.17" style="fill:#f2f2f2;fill-rule:evenodd"/><polyline points="537.68 132.17 537.68 169.64 589.72 169.64 589.72 132.17 537.68 132.17" style="fill:#5e9fff;fill-rule:evenodd"/><polyline points="588.86 132.17 588.86 169.64 845.62 169.64 845.62 132.17 588.86 132.17" style="fill:#06f;fill-rule:evenodd"/><polyline points="844.76 132.17 844.76 169.64 896.79 169.64 896.79 132.17 844.76 132.17" style="fill:#0044ab;fill-rule:evenodd"/><polyline points="895.94 132.17 895.94 169.64 951.39 169.64 951.39 132.17 895.94 132.17" style="fill:#fff;fill-rule:evenodd"/><polyline points="2 168.79 2 206.27 180.28 206.27 180.28 168.79 2 168.79" style="fill:#f2f2f2;fill-rule:evenodd"/><polyline points="179.42 168.79 179.42 206.27 231.46 206.27 231.46 168.79 179.42 168.79" style="fill:#5e9fff;fill-rule:evenodd"/><polyline points="230.6 168.79 230.6 206.27 487.36 206.27 487.36 168.79 230.6 168.79" style="fill:#06f;fill-rule:evenodd"/><polyline points="486.5 168.79 486.5 206.27 538.54 206.27 538.54 168.79 486.5 168.79" style="fill:#0044ab;fill-rule:evenodd"/><polyline points="537.68 168.79 537.68 206.27 951.39 206.27 951.39 168.79 537.68 168.79" style="fill:#fff;fill-rule:evenodd"/><polyline points="2 205.42 2 242.89 180.28 242.89 180.28 205.42 2 205.42" style="fill:#f2f2f2;fill-rule:evenodd"/><polyline points="179.42 205.42 179.42 242.89 333.82 242.89 333.82 205.42 179.42 205.42" style="fill:#fff;fill-rule:evenodd"/><polyline points="332.96 205.42 332.96 242.89 385 242.89 385 205.42 332.96 205.42" style="fill:#5e9fff;fill-rule:evenodd"/><polyline points="384.14 205.42 384.14 242.89 640.89 242.89 640.89 205.42 384.14 205.42" style="fill:#06f;fill-rule:evenodd"/><polyline points="640.04 205.42 640.04 242.89 692.08 242.89 692.08 205.42 640.04 205.42" style="fill:#0044ab;fill-rule:evenodd"/><polyline points="895.94 205.42 895.94 242.89 951.39 242.89 951.39 205.42 895.94 205.42" style="fill:#fff;fill-rule:evenodd"/><polyline points="2 242.04 2 279.52 180.28 279.52 180.28 242.04 2 242.04" style="fill:#f2f2f2;fill-rule:evenodd"/><polyline points="537.68 242.04 537.68 279.52 589.72 279.52 589.72 242.04 537.68 242.04" style="fill:#5e9fff;fill-rule:evenodd"/><polyline points="588.86 242.04 588.86 279.52 845.62 279.52 845.62 242.04 588.86 242.04" style="fill:#06f;fill-rule:evenodd"/><polyline points="844.76 242.04 844.76 279.52 896.79 279.52 896.79 242.04 844.76 242.04" style="fill:#0044ab;fill-rule:evenodd"/><polyline points="895.94 242.04 895.94 279.52 951.39 279.52 951.39 242.04 895.94 242.04" style="fill:#fff;fill-rule:evenodd"/><polyline points="2 278.67 2 316.14 180.28 316.14 180.28 278.67 2 278.67" style="fill:#f2f2f2;fill-rule:evenodd"/><polyline points="179.42 278.67 179.42 316.14 333.82 316.14 333.82 278.67 179.42 278.67" style="fill:#fff;fill-rule:evenodd"/><polyline points="332.96 278.67 332.96 316.14 385 316.14 385 278.67 332.96 278.67" style="fill:#5e9fff;fill-rule:evenodd"/><polyline points="384.14 278.67 384.14 316.14 640.89 316.14 640.89 278.67 384.14 278.67" style="fill:#06f;fill-rule:evenodd"/><polyline points="640.04 278.67 640.04 316.14 692.08 316.14 692.08 278.67 640.04 278.67" style="fill:#0044ab;fill-rule:evenodd"/><polyline points="895.94 278.67 895.94 316.14 951.39 316.14 951.39 278.67 895.94 278.67" style="fill:#fff;fill-rule:evenodd"/><polyline points="2 315.29 2 357.88 951.39 357.88 951.39 315.29 2 315.29" style="fill:#fff;fill-rule:evenodd"/></g><g style="clip-path:url(#clip-path-2)"><text transform="translate(11.39 27.4)" style="font-size:11.072609901428223px;font-family:Arial-BoldMT, Arial;font-weight:700"><tspan style="letter-spacing:-0.028973680604227895em">A</tspan><tspan x="7.68" y="0" style="letter-spacing:0.004051031330682319em">g</tspan><tspan x="14.48" y="0" style="letter-spacing:-0.004051031330682319em">r</tspan><tspan x="18.75" y="0" style="letter-spacing:0.004051031330682319em">o</tspan><tspan x="25.56" y="0" style="letter-spacing:-0.025010715172038664em">-</tspan><tspan x="28.97" y="0" style="letter-spacing:-0.01699671840916712em">c</tspan><tspan x="34.94" y="0" style="letter-spacing:0.028973680604227895em">li</tspan><tspan x="41.73" y="0" style="letter-spacing:0.03293664603641712em">m</tspan><tspan x="51.94" y="0" style="letter-spacing:0.059004151990372906em">a</tspan><tspan x="58.75" y="0" style="letter-spacing:-0.025010715172038664em">t</tspan><tspan x="62.16" y="0" style="letter-spacing:0.029061746502720982em">i</tspan><tspan x="65.56" y="0" style="letter-spacing:-0.01699671840916712em">c</tspan><tspan x="71.53" y="0"> </tspan></text><text transform="translate(34.41 41.89)" style="font-size:11.072609901428223px;font-family:Arial-BoldMT, Arial;font-weight:700"><tspan style="letter-spacing:0.03795640225052347em">z</tspan><tspan x="5.96" y="0" style="letter-spacing:0.004051031330682319em">on</tspan><tspan x="19.57" y="0">e</tspan></text></g><g style="clip-path:url(#clip-path)"><text transform="translate(117.16 34.22)" style="font-size:11.072609901428223px;font-family:Arial-BoldMT, Arial;font-weight:700;letter-spacing:-0.028973680604227895em">R<tspan x="7.68" y="0" style="letter-spacing:0.059004151990372906em">e</tspan><tspan x="14.49" y="0" style="letter-spacing:0.004051031330682319em">g</tspan><tspan x="21.29" y="0" style="letter-spacing:0.028973680604227895em">i</tspan><tspan x="24.69" y="0" style="letter-spacing:0.003962965432189225em">o</tspan><tspan x="31.5" y="0" style="letter-spacing:0.00008806589849309388em">n</tspan></text><text transform="translate(195.63 34.22)" style="font-size:11.072609901428223px;font-family:Arial-BoldMT, Arial;font-weight:700"><tspan style="letter-spacing:-0.01699671840916712em">J</tspan><tspan x="5.97" y="0" style="letter-spacing:0.004051031330682319em">u</tspan><tspan x="12.78" y="0">n</tspan></text><text transform="translate(248.52 34.22)" style="font-size:11.072609901428223px;font-family:Arial-BoldMT, Arial;font-weight:700"><tspan style="letter-spacing:-0.01699671840916712em">J</tspan><tspan x="5.97" y="0" style="letter-spacing:0.004051031330682319em">u</tspan><tspan x="12.78" y="0">l</tspan></text></g><g style="clip-path:url(#clip-path-4)"><text transform="translate(297.14 34.22)" style="font-size:11.072609901428223px;font-family:Arial-BoldMT, Arial;font-weight:700"><tspan style="letter-spacing:-0.028973680604227895em">A</tspan><tspan x="7.68" y="0" style="letter-spacing:0.004051031330682319em">u</tspan><tspan x="14.48" y="0">g</tspan></text><text transform="translate(348.32 34.22)" style="font-size:11.072609901428223px;font-family:Arial-BoldMT, Arial;font-weight:700"><tspan style="letter-spacing:0.025010715172038664em">S</tspan><tspan x="7.66" y="0" style="letter-spacing:0.059004151990372906em">e</tspan><tspan x="14.47" y="0">p</tspan></text><text transform="translate(401.2 34.22)" style="font-size:11.072609901428223px;font-family:Arial-BoldMT, Arial;font-weight:700"><tspan style="letter-spacing:-0.00792593086437845em">O</tspan><tspan x="8.52" y="0" style="letter-spacing:-0.01699671840916712em">c</tspan><tspan x="14.49" y="0">t</tspan></text><text transform="translate(451.53 34.22)" style="font-size:11.072609901428223px;font-family:Arial-BoldMT, Arial;font-weight:700"><tspan style="letter-spacing:-0.028973680604227895em">N</tspan><tspan x="7.68" y="0" style="letter-spacing:0.004051031330682319em">o</tspan><tspan x="14.48" y="0">v</tspan></text><text transform="translate(502.72 34.22)" style="font-size:11.072609901428223px;font-family:Arial-BoldMT, Arial;font-weight:700"><tspan style="letter-spacing:-0.028973680604227895em">D</tspan><tspan x="7.68" y="0" style="letter-spacing:0.059004151990372906em">e</tspan><tspan x="14.49" y="0">c</tspan></text><text transform="translate(553.89 34.22)" style="font-size:11.072609901428223px;font-family:Arial-BoldMT, Arial;font-weight:700"><tspan style="letter-spacing:-0.01699671840916712em">J</tspan><tspan x="5.97" y="0" style="letter-spacing:0.059004151990372906em">a</tspan><tspan x="12.78" y="0">n</tspan></text><text transform="translate(605.08 34.22)" style="font-size:11.072609901428223px;font-family:Arial-BoldMT, Arial;font-weight:700"><tspan style="letter-spacing:0.004051031330682319em">F</tspan><tspan x="6.81" y="0" style="letter-spacing:0.059004151990372906em">e</tspan><tspan x="13.62" y="0">b</tspan></text><text transform="translate(656.25 34.22)" style="font-size:11.072609901428223px;font-family:Arial-BoldMT, Arial;font-weight:700"><tspan style="letter-spacing:0.013033752976977895em">M</tspan><tspan x="9.37" y="0" style="letter-spacing:0.059004151990372906em">a</tspan><tspan x="16.18" y="0">r</tspan></text><text transform="translate(708.29 34.22)" style="font-size:11.072609901428223px;font-family:Arial-BoldMT, Arial;font-weight:700"><tspan style="letter-spacing:-0.028973680604227895em">A</tspan><tspan x="7.68" y="0" style="letter-spacing:0.004051031330682319em">p</tspan><tspan x="14.48" y="0">r</tspan></text><text transform="translate(756.9 34.22)" style="font-size:11.072609901428223px;font-family:Arial-BoldMT, Arial;font-weight:700"><tspan style="letter-spacing:0.013033752976977895em">M</tspan><tspan x="9.37" y="0" style="letter-spacing:0.059004151990372906em">a</tspan><tspan x="16.18" y="0">y</tspan></text><text transform="translate(809.8 34.22)" style="font-size:11.072609901428223px;font-family:Arial-BoldMT, Arial;font-weight:700"><tspan style="letter-spacing:-0.01699671840916712em">J</tspan><tspan x="5.97" y="0" style="letter-spacing:0.004051031330682319em">u</tspan><tspan x="12.78" y="0">n</tspan></text><text transform="translate(862.68 34.22)" style="font-size:11.072609901428223px;font-family:Arial-BoldMT, Arial;font-weight:700"><tspan style="letter-spacing:-0.01699671840916712em">J</tspan><tspan x="5.97" y="0" style="letter-spacing:0.004051031330682319em">u</tspan><tspan x="12.78" y="0">l</tspan></text></g><g style="clip-path:url(#clip-path)"><text transform="translate(36.13 301.67)" style="font-size:11.072609901428223px;font-family:Arial-BoldMT, Arial;font-weight:700"><tspan style="letter-spacing:0.004051031330682319em">T</tspan><tspan x="6.81" y="0" style="letter-spacing:-0.008013996762871544em">G</tspan><tspan x="15.33" y="0">P</tspan></text><text transform="translate(102.66 301.67)" style="font-size:11.072609901428223px;font-family:Arial-BoldMT, Arial;font-weight:700;letter-spacing:-0.028973680604227895em">R<tspan x="7.68" y="0" style="letter-spacing:-0.025010715172038664em">-</tspan><tspan x="11.09" y="0" style="letter-spacing:0.00008806589849309388em">3</tspan></text></g><g style="clip-path:url(#clip-path-6)"><text transform="translate(4.56 325.51)" style="font-size:9.36913013458252px;font-family:Arial-BoldMT, Arial;font-weight:700"><tspan style="letter-spacing:-0.08503163997470722em">N</tspan><tspan x="5.97" y="0" style="letter-spacing:0.02497869472941216em">o</tspan><tspan x="11.93" y="0" style="letter-spacing:0.029974433675294593em">t</tspan><tspan x="15.33" y="0" style="letter-spacing:0.07993182313411891em">e</tspan><tspan x="21.29" y="0">:</tspan></text><text transform="translate(28.44 325.51)" style="font-size:9.36913013458252px;font-family:ArialMT, Arial"> </text><text transform="translate(31 325.51)" style="font-size:9.36913013458252px;font-family:Arial-BoldMT, Arial;font-weight:700;letter-spacing:-0.050061467353530203em">G<tspan x="6.82" y="0" style="letter-spacing:-0.030078511570000476em">P</tspan><tspan x="12.79" y="0" style="letter-spacing:-0.08503163997470722em">H</tspan><tspan x="18.76" y="0" style="letter-spacing:0.00010407789470588399em"> </tspan></text><text transform="translate(52.33 325.51)" style="font-size:9.36913013458252px;font-family:ArialMT, Arial"><tspan style="letter-spacing:-0.050061467353530203em">G</tspan><tspan x="6.82" y="0" style="letter-spacing:-0.009991477891764864em">u</tspan><tspan x="11.94" y="0" style="letter-spacing:-0.04006998946176534em">j</tspan><tspan x="13.64" y="0" style="letter-spacing:-0.010095555786470747em">a</tspan><tspan x="18.76" y="0" style="letter-spacing:0.029974433675294593em">r</tspan><tspan x="22.16" y="0" style="letter-spacing:-0.009991477891764864em">a</tspan><tspan x="27.28" y="0" style="letter-spacing:-0.004995738945882432em">t </tspan><tspan x="32.39" y="0" style="letter-spacing:-0.12104259154294308em">P</tspan><tspan x="37.51" y="0" style="letter-spacing:-0.04006998946176534em">l</tspan><tspan x="39.21" y="0" style="letter-spacing:-0.010095555786470747em">a</tspan><tspan x="44.33" y="0" style="letter-spacing:-0.039965911567059455em">i</tspan><tspan x="46.04" y="0" style="letter-spacing:-0.010095555786470747em">n</tspan><tspan x="51.15" y="0" style="letter-spacing:0.04506572840764777em">s</tspan><tspan x="56.26" y="0" style="letter-spacing:-0.004995738945882432em"> </tspan><tspan x="58.82" y="0" style="letter-spacing:-0.009991477891764864em">and</tspan><tspan x="74.17" y="0" style="letter-spacing:-0.004995738945882432em"> </tspan><tspan x="76.72" y="0" style="letter-spacing:-0.08503163997470722em">H</tspan><tspan x="82.69" y="0" style="letter-spacing:-0.039965911567059455em">ill</tspan><tspan x="87.81" y="0">s</tspan></text><text transform="translate(145.31 325.51)" style="font-size:9.36913013458252px;font-family:Arial-BoldMT, Arial;font-weight:700"><tspan style="letter-spacing:-0.004995738945882432em">, </tspan><tspan x="5.11" y="0" style="letter-spacing:0.004995738945882432em">C</tspan><tspan x="11.93" y="0" style="letter-spacing:-0.030078511570000476em">P</tspan><tspan x="17.89" y="0" style="letter-spacing:-0.08503163997470722em">H</tspan><tspan x="23.86" y="0"> </tspan></text><text transform="translate(171.75 325.51)" style="font-size:9.36913013458252px;font-family:ArialMT, Arial"><tspan style="letter-spacing:-0.08503163997470722em">C</tspan><tspan x="5.97" y="0" style="letter-spacing:-0.009991477891764864em">en</tspan><tspan x="16.2" y="0" style="letter-spacing:-0.004995738945882432em">t</tspan><tspan x="18.76" y="0" style="letter-spacing:-0.009991477891764864em">a</tspan><tspan x="23.88" y="0" style="letter-spacing:-0.04006998946176534em">l</tspan><tspan x="25.58" y="0" style="letter-spacing:-0.004891661051176548em"> </tspan><tspan x="28.14" y="0" style="letter-spacing:-0.12104259154294308em">P</tspan><tspan x="33.26" y="0" style="letter-spacing:-0.04006998946176534em">l</tspan><tspan x="34.96" y="0" style="letter-spacing:-0.009991477891764864em">a</tspan><tspan x="40.08" y="0" style="letter-spacing:-0.004995738945882432em">t</tspan><tspan x="42.64" y="0" style="letter-spacing:-0.010095555786470747em">eau</tspan><tspan x="57.99" y="0" style="letter-spacing:-0.004995738945882432em"> </tspan><tspan x="60.54" y="0" style="letter-spacing:-0.010095555786470747em">and</tspan><tspan x="75.89" y="0" style="letter-spacing:-0.004995738945882432em"> </tspan><tspan x="78.45" y="0" style="letter-spacing:-0.08503163997470722em">H</tspan><tspan x="84.42" y="0" style="letter-spacing:-0.04006998946176534em">ill</tspan><tspan x="89.54" y="0">s</tspan></text><text transform="translate(266.43 325.51)" style="font-size:9.36913013458252px;font-family:Arial-BoldMT, Arial;font-weight:700"><tspan style="letter-spacing:-0.004995738945882432em">, </tspan><tspan x="5.11" y="0" style="letter-spacing:0.02497869472941216em">T</tspan><tspan x="11.07" y="0" style="letter-spacing:-0.050061467353530203em">G</tspan><tspan x="17.89" y="0" style="letter-spacing:-0.029974433675294593em">P</tspan><tspan x="23.86" y="0"> </tspan></text><text transform="translate(292.87 325.51)" style="font-size:9.36913013458252px;font-family:ArialMT, Arial"><tspan style="letter-spacing:-0.06494460629647163em">T</tspan><tspan x="5.11" y="0" style="letter-spacing:0.029870355780588706em">r</tspan><tspan x="8.51" y="0" style="letter-spacing:-0.009991477891764864em">an</tspan><tspan x="18.75" y="0" style="letter-spacing:0.04506572840764777em">s</tspan><tspan x="23.86" y="0" style="letter-spacing:-0.004995738945882432em"> </tspan><tspan x="26.41" y="0" style="letter-spacing:-0.050061467353530203em">G</tspan><tspan x="33.23" y="0" style="letter-spacing:-0.009991477891764864em">ange</tspan><tspan x="53.7" y="0" style="letter-spacing:-0.004995738945882432em">t</tspan><tspan x="56.25" y="0" style="letter-spacing:-0.04006998946176534em">i</tspan><tspan x="57.96" y="0" style="letter-spacing:0.04506572840764777em">c</tspan><tspan x="63.07" y="0" style="letter-spacing:-0.004995738945882432em"> </tspan><tspan x="65.62" y="0" style="letter-spacing:-0.12104259154294308em">P</tspan><tspan x="70.74" y="0" style="letter-spacing:-0.04006998946176534em">l</tspan><tspan x="72.45" y="0" style="letter-spacing:-0.009991477891764864em">a</tspan><tspan x="77.56" y="0" style="letter-spacing:-0.04006998946176534em">i</tspan><tspan x="79.27" y="0" style="letter-spacing:-0.009991477891764864em">n</tspan><tspan x="84.39" y="0">s</tspan></text><text transform="translate(4.56 338.28)" style="font-size:9.36913013458252px;font-family:ArialMT, Arial"><tspan xml:space="preserve" style="letter-spacing:-0.004995738945882432em">         </tspan><tspan x="23.01" y="0"> </tspan></text><text transform="translate(30.15 338.28)" style="font-size:9.36913013458252px;font-family:Arial-BoldMT, Arial;font-weight:700;letter-spacing:-0.08503163997470722em">K<tspan x="5.97" y="0" style="letter-spacing:0.02497869472941216em">h</tspan><tspan x="11.93" y="0" style="letter-spacing:-0.009991477891764864em">a</tspan><tspan x="17.04" y="0" style="letter-spacing:0.06494460629647163em">r</tspan><tspan x="21.3" y="0" style="letter-spacing:-0.004891661051176548em">i</tspan><tspan x="23.86" y="0" style="letter-spacing:-0.00010407789470588399em">f</tspan></text><text transform="translate(57.45 338.28)" style="font-size:9.36913013458252px;font-family:ArialMT, Arial;letter-spacing:-0.004995738945882432em"> <tspan x="2.56" y="0" style="letter-spacing:-0.10501459575823695em">M</tspan><tspan x="9.38" y="0" style="letter-spacing:0.029974433675294593em">r</tspan><tspan x="12.78" y="0" style="letter-spacing:-0.04006998946176534em">i</tspan><tspan x="14.48" y="0" style="letter-spacing:-0.009991477891764864em">g</tspan><tspan x="19.6" y="0"> </tspan><tspan x="22.16" y="0" style="letter-spacing:-0.029974433675294593em">B</tspan><tspan x="28.13" y="0" style="letter-spacing:-0.010095555786470747em">aha</tspan><tspan x="43.48" y="0" style="letter-spacing:0.029974433675294593em">r</tspan><tspan x="46.88" y="0">,</tspan><tspan x="49.43" y="0" style="letter-spacing:0.00010407789470588399em"> </tspan></text><text transform="translate(109.48 338.28)" style="font-size:9.36913013458252px;font-family:Arial-BoldMT, Arial;font-weight:700"><tspan style="letter-spacing:-0.08503163997470722em">R</tspan><tspan x="5.97" y="0" style="letter-spacing:-0.009991477891764864em">a</tspan><tspan x="11.09" y="0" style="letter-spacing:0.02497869472941216em">b</tspan><tspan x="17.04" y="0">i</tspan></text><text transform="translate(129.1 338.28)" style="font-size:9.36913013458252px;font-family:ArialMT, Arial"><tspan style="letter-spacing:-0.004995738945882432em"> </tspan><tspan x="2.56" y="0" style="letter-spacing:-0.08503163997470722em">H</tspan><tspan x="8.53" y="0" style="letter-spacing:-0.009991477891764864em">a</tspan><tspan x="13.64" y="0" style="letter-spacing:0.04496165051294189em">s</tspan><tspan x="18.75" y="0" style="letter-spacing:-0.004891661051176548em">t</tspan><tspan x="21.31" y="0" style="letter-spacing:-0.010095555786470747em">a</tspan><tspan x="26.42" y="0" style="letter-spacing:-0.004891661051176548em"> </tspan><tspan x="28.98" y="0" style="letter-spacing:-0.030078511570000476em">B</tspan><tspan x="34.95" y="0" style="letter-spacing:-0.009991477891764864em">aha</tspan><tspan x="50.3" y="0" style="letter-spacing:0.029974433675294593em">r</tspan><tspan x="53.7" y="0" style="letter-spacing:-0.004995738945882432em">,</tspan><tspan x="56.25" y="0"> </tspan></text><text transform="translate(187.95 338.28)" style="font-size:9.36913013458252px;font-family:Arial-BoldMT, Arial;font-weight:700"><tspan style="letter-spacing:-0.030078511570000476em">S</tspan><tspan x="5.97" y="0" style="letter-spacing:0.02508277262411804em">u</tspan><tspan x="11.93" y="0" style="letter-spacing:0.11001033470411939em">mm</tspan><tspan x="30.65" y="0" style="letter-spacing:0.07993182313411891em">e</tspan><tspan x="36.61" y="0">r</tspan></text><text transform="translate(228.9 338.28)" style="font-size:9.36913013458252px;font-family:ArialMT, Arial"><tspan style="letter-spacing:-0.004995738945882432em"> </tspan><tspan x="2.56" y="0" style="letter-spacing:0.059948867350589186em">A</tspan><tspan x="9.37" y="0" style="letter-spacing:-0.10501459575823695em">m</tspan><tspan x="16.19" y="0" style="letter-spacing:-0.009991477891764864em">b</tspan><tspan x="21.31" y="0" style="letter-spacing:-0.04006998946176534em">i</tspan><tspan x="23.01" y="0" style="letter-spacing:-0.009991477891764864em">a</tspan><tspan x="28.13" y="0" style="letter-spacing:-0.004995738945882432em"> </tspan><tspan x="30.69" y="0" style="letter-spacing:-0.030078511570000476em">B</tspan><tspan x="36.65" y="0" style="letter-spacing:-0.009991477891764864em">aha</tspan><tspan x="52" y="0">r</tspan></text></g><g style="clip-path:url(#clip-path-7)"><text transform="translate(500.15 300.81)" style="font-size:11.072609901428223px;fill:#fff;font-family:Arial-BoldMT, Arial;font-weight:700"><tspan style="letter-spacing:-0.028973680604227895em">R</tspan><tspan x="7.68" y="0" style="letter-spacing:0.059004151990372906em">a</tspan><tspan x="14.49" y="0" style="letter-spacing:0.004051031330682319em">b</tspan><tspan x="21.29" y="0">i</tspan></text></g><g style="clip-path:url(#clip-path-8)"><text transform="translate(36.13 117.69)" style="font-size:11.072609901428223px;font-family:Arial-BoldMT, Arial;font-weight:700;letter-spacing:-0.00792593086437845em">G<tspan x="8.52" y="0" style="letter-spacing:0.02492264927354557em">P</tspan><tspan x="16.19" y="0" style="letter-spacing:0.00008806589849309388em">H</tspan></text></g><g style="clip-path:url(#clip-path-9)"><text transform="translate(36.13 227.57)" style="font-size:11.072609901428223px;font-family:Arial-BoldMT, Arial;font-weight:700"><tspan style="letter-spacing:-0.028973680604227895em">C</tspan><tspan x="7.68" y="0" style="letter-spacing:0.025010715172038664em">P</tspan><tspan x="15.34" y="0">H</tspan></text></g><g style="clip-path:url(#clip-path-10)"><text transform="translate(102.66 117.69)" style="font-size:11.072609901428223px;font-family:Arial-BoldMT, Arial;font-weight:700"><tspan style="letter-spacing:-0.028973680604227895em">R</tspan><tspan x="7.68" y="0" style="letter-spacing:-0.025010715172038664em">-</tspan><tspan x="11.09" y="0" style="letter-spacing:-0.01690865251067403em">11</tspan><tspan x="23.03" y="0" style="letter-spacing:0.028973680604227895em">, </tspan><tspan x="29.82" y="0" style="letter-spacing:-0.028973680604227895em">R</tspan><tspan x="37.5" y="0" style="letter-spacing:-0.025010715172038664em">-</tspan><tspan x="40.91" y="0" style="letter-spacing:-0.01690865251067403em">1</tspan><tspan x="46.88" y="0">3</tspan></text></g><g style="clip-path:url(#clip-path-11)"><text transform="translate(102.66 227.57)" style="font-size:11.072609901428223px;font-family:Arial-BoldMT, Arial;font-weight:700"><tspan style="letter-spacing:-0.028973680604227895em">R</tspan><tspan x="7.68" y="0" style="letter-spacing:-0.025010715172038664em">-</tspan><tspan x="11.09" y="0" style="letter-spacing:-0.01690865251067403em">14</tspan><tspan x="23.03" y="0" style="letter-spacing:0.028973680604227895em">, </tspan><tspan x="29.82" y="0" style="letter-spacing:-0.028973680604227895em">R</tspan><tspan x="37.5" y="0" style="letter-spacing:-0.025010715172038664em">-</tspan><tspan x="40.91" y="0" style="letter-spacing:-0.01690865251067403em">1</tspan><tspan x="46.88" y="0">5</tspan></text></g><g style="clip-path:url(#clip-path-12)"><text transform="translate(343.2 190.94)" style="font-size:11.072609901428223px;fill:#fff;font-family:Arial-BoldMT, Arial;font-weight:700;letter-spacing:-0.028973680604227895em">K<tspan x="7.68" y="0" style="letter-spacing:0.004051031330682319em">h</tspan><tspan x="14.48" y="0" style="letter-spacing:0.059004151990372906em">a</tspan><tspan x="21.29" y="0" style="letter-spacing:-0.004051031330682319em">r</tspan><tspan x="25.56" y="0" style="letter-spacing:0.028973680604227895em">i</tspan><tspan x="28.96" y="0" style="letter-spacing:0.00008806589849309388em">f</tspan></text></g><g style="clip-path:url(#clip-path-13)"><text transform="translate(500.15 227.57)" style="font-size:11.072609901428223px;fill:#fff;font-family:Arial-BoldMT, Arial;font-weight:700"><tspan style="letter-spacing:-0.028973680604227895em">R</tspan><tspan x="7.68" y="0" style="letter-spacing:0.059004151990372906em">a</tspan><tspan x="14.49" y="0" style="letter-spacing:0.004051031330682319em">b</tspan><tspan x="21.29" y="0">i</tspan></text></g><g style="clip-path:url(#clip-path-14)"><text transform="translate(694.63 264.19)" style="font-size:11.072609901428223px;fill:#fff;font-family:Arial-BoldMT, Arial;font-weight:700"><tspan style="letter-spacing:0.025010715172038664em">S</tspan><tspan x="7.66" y="0" style="letter-spacing:0.003962965432189225em">u</tspan><tspan x="14.47" y="0" style="letter-spacing:0.03302471193491021em">mm</tspan><tspan x="34.89" y="0" style="letter-spacing:0.059004151990372906em">e</tspan><tspan x="41.7" y="0">r</tspan></text></g><g style="clip-path:url(#clip-path-15)"><text transform="translate(343.2 81.06)" style="font-size:11.072609901428223px;fill:#fff;font-family:Arial-BoldMT, Arial;font-weight:700;letter-spacing:-0.028973680604227895em">K<tspan x="7.68" y="0" style="letter-spacing:0.004051031330682319em">h</tspan><tspan x="14.48" y="0" style="letter-spacing:0.059004151990372906em">a</tspan><tspan x="21.29" y="0" style="letter-spacing:-0.004051031330682319em">r</tspan><tspan x="25.56" y="0" style="letter-spacing:0.028973680604227895em">i</tspan><tspan x="28.96" y="0" style="letter-spacing:0.00008806589849309388em">f</tspan></text></g><g style="clip-path:url(#clip-path-16)"><text transform="translate(500.15 117.69)" style="font-size:11.072609901428223px;fill:#fff;font-family:Arial-BoldMT, Arial;font-weight:700"><tspan style="letter-spacing:-0.028973680604227895em">R</tspan><tspan x="7.68" y="0" style="letter-spacing:0.059004151990372906em">a</tspan><tspan x="14.49" y="0" style="letter-spacing:0.004051031330682319em">b</tspan><tspan x="21.29" y="0">i</tspan></text></g><g style="clip-path:url(#clip-path-17)"><text transform="translate(694.63 154.31)" style="font-size:11.072609901428223px;fill:#fff;font-family:Arial-BoldMT, Arial;font-weight:700"><tspan style="letter-spacing:0.025010715172038664em">S</tspan><tspan x="7.66" y="0" style="letter-spacing:0.003962965432189225em">u</tspan><tspan x="14.47" y="0" style="letter-spacing:0.03302471193491021em">mm</tspan><tspan x="34.89" y="0" style="letter-spacing:0.059004151990372906em">e</tspan><tspan x="41.7" y="0">r</tspan></text></g><g style="clip-path:url(#clip-path-18)"><polyline points="2.85 1 2.85 1.85 896.79 1.85 896.79 1 2.85 1" style="fill:#bfbfbf;fill-rule:evenodd"/><polyline points="230.6 1.85 230.6 59.77 231.46 59.77 231.46 1.85 230.6 1.85" style="fill:#bfbfbf;fill-rule:evenodd"/><polyline points="486.5 1.85 486.5 59.77 487.36 59.77 487.36 1.85 486.5 1.85" style="fill:#bfbfbf;fill-rule:evenodd"/><polyline points="588.86 1.85 588.86 59.77 589.72 59.77 589.72 1.85 588.86 1.85" style="fill:#bfbfbf;fill-rule:evenodd"/><polyline points="640.04 1.85 640.04 59.77 640.89 59.77 640.89 1.85 640.04 1.85" style="fill:#bfbfbf;fill-rule:evenodd"/><polyline points="691.22 1.85 691.22 59.77 692.08 59.77 692.08 1.85 691.22 1.85" style="fill:#bfbfbf;fill-rule:evenodd"/><polyline points="742.4 1.85 742.4 59.77 743.25 59.77 743.25 1.85 742.4 1.85" style="fill:#bfbfbf;fill-rule:evenodd"/><polyline points="793.58 1.85 793.58 59.77 794.43 59.77 794.43 1.85 793.58 1.85" style="fill:#bfbfbf;fill-rule:evenodd"/><polyline points="844.76 1.85 844.76 59.77 845.62 59.77 845.62 1.85 844.76 1.85" style="fill:#bfbfbf;fill-rule:evenodd"/><polyline points="2.85 58.92 2.85 59.77 896.79 59.77 896.79 58.92 2.85 58.92" style="fill:#bfbfbf;fill-rule:evenodd"/><polyline points="281.78 1.85 281.78 59.77 282.64 59.77 282.64 1.85 281.78 1.85" style="fill:#bfbfbf;fill-rule:evenodd"/><polyline points="332.96 1.85 332.96 59.77 333.82 59.77 333.82 1.85 332.96 1.85" style="fill:#bfbfbf;fill-rule:evenodd"/><polyline points="384.14 1.85 384.14 59.77 385 59.77 385 1.85 384.14 1.85" style="fill:#bfbfbf;fill-rule:evenodd"/><polyline points="180.28 95.54 180.28 96.39 896.79 96.39 896.79 95.54 180.28 95.54" style="fill:#bfbfbf;fill-rule:evenodd"/><polyline points="537.68 1.85 537.68 96.39 538.54 96.39 538.54 1.85 537.68 1.85" style="fill:#bfbfbf;fill-rule:evenodd"/><polyline points="180.28 132.17 180.28 133.02 896.79 133.02 896.79 132.17 180.28 132.17" style="fill:#bfbfbf;fill-rule:evenodd"/><polyline points="691.22 96.39 691.22 133.02 692.08 133.02 692.08 96.39 691.22 96.39" style="fill:#bfbfbf;fill-rule:evenodd"/><polyline points="2.85 168.79 2.85 169.64 896.79 169.64 896.79 168.79 2.85 168.79" style="fill:#bfbfbf;fill-rule:evenodd"/><polyline points="332.96 96.39 332.96 133.02 333.82 133.02 333.82 96.39 332.96 96.39" style="fill:#bfbfbf;fill-rule:evenodd"/><polyline points="180.28 205.42 180.28 206.27 896.79 206.27 896.79 205.42 180.28 205.42" style="fill:#bfbfbf;fill-rule:evenodd"/><polyline points="537.68 133.02 537.68 206.27 538.54 206.27 538.54 133.02 537.68 133.02" style="fill:#bfbfbf;fill-rule:evenodd"/><polyline points="180.28 242.04 180.28 242.89 896.79 242.89 896.79 242.04 180.28 242.04" style="fill:#bfbfbf;fill-rule:evenodd"/><polyline points="332.96 206.27 332.96 242.89 333.82 242.89 333.82 206.27 332.96 206.27" style="fill:#bfbfbf;fill-rule:evenodd"/><polyline points="691.22 206.27 691.22 242.89 692.08 242.89 692.08 206.27 691.22 206.27" style="fill:#bfbfbf;fill-rule:evenodd"/><polyline points="2.85 278.67 2.85 279.52 896.79 279.52 896.79 278.67 2.85 278.67" style="fill:#bfbfbf;fill-rule:evenodd"/><polyline points="2 1 2 316.14 2.85 316.14 2.85 1 2 1" style="fill:#bfbfbf;fill-rule:evenodd"/><polyline points="2.85 315.29 2.85 316.14 896.79 316.14 896.79 315.29 2.85 315.29" style="fill:#bfbfbf;fill-rule:evenodd"/><polyline points="895.94 1.85 895.94 316.14 896.79 316.14 896.79 1.85 895.94 1.85" style="fill:#bfbfbf;fill-rule:evenodd"/><polyline points="92.42 1.85 92.42 316.14 93.27 316.14 93.27 1.85 92.42 1.85" style="fill:#bfbfbf;fill-rule:evenodd"/><polyline points="179.42 1.85 179.42 316.14 180.28 316.14 180.28 1.85 179.42 1.85" style="fill:#bfbfbf;fill-rule:evenodd"/><polyline points="332.96 279.52 332.96 316.14 333.82 316.14 333.82 279.52 332.96 279.52" style="fill:#bfbfbf;fill-rule:evenodd"/><polyline points="435.32 1.85 435.32 59.77 436.18 59.77 436.18 1.85 435.32 1.85" style="fill:#bfbfbf;fill-rule:evenodd"/><polyline points="537.68 242.89 537.68 279.52 538.54 279.52 538.54 242.89 537.68 242.89" style="fill:#bfbfbf;fill-rule:evenodd"/><polyline points="691.22 279.52 691.22 316.14 692.08 316.14 692.08 279.52 691.22 279.52" style="fill:#bfbfbf;fill-rule:evenodd"/></g></svg>