<svg id="Layer_1" data-name="Layer 1" xmlns="http://www.w3.org/2000/svg" xmlns:xlink="http://www.w3.org/1999/xlink" viewBox="0 0 900 350"><defs><clipPath id="clip-path"><polygon points="2 347.04 897.35 347.04 897.35 2 2 2 2 347.04 2 347.04" style="fill:none;clip-rule:evenodd"/></clipPath><clipPath id="clip-path-2"><polygon points="85.28 299.58 882.03 299.58 882.03 19.64 85.28 19.64 85.28 299.58 85.28 299.58" style="fill:none;clip-rule:evenodd"/></clipPath><clipPath id="clip-path-6"><rect x="2" y="2" width="895.35" height="345.04" style="fill:none"/></clipPath><clipPath id="clip-path-17"><rect x="231.48" y="98" width="185.58" height="18.46" style="fill:none"/></clipPath></defs><title>yar</title><polygon points="2 2.14 897.35 2.14 897.35 347.17 2 347.17 2 2.14 2 2.14" style="fill:#eaeaea;fill-rule:evenodd"/><polygon points="85.28 19.64 881.21 19.64 881.21 298.76 85.28 298.76 85.28 19.64 85.28 19.64" style="fill:#fff;fill-rule:evenodd"/><path d="M85.28,298.76H881.21M85.28,229H881.21M85.28,159.27H881.21M85.28,89.52H881.21M85.28,19.64H881.21" style="fill:none;stroke:#d9d9d9;stroke-linejoin:round;stroke-width:0.820539833501855px"/><g style="clip-path:url(#clip-path)"><path d="M85.28,19.64V298.76M244.47,19.64V298.76M403.65,19.64V298.76M562.84,19.64V298.76M722,19.64V298.76M881.21,19.64V298.76" style="fill:none;stroke:#d9d9d9;stroke-linejoin:round;stroke-width:0.820539833501855px"/></g><g style="clip-path:url(#clip-path-2)"><path d="M133.15,255.82h63.59v4H133.15v-4Zm159,0h63.73v12.31H292.2V255.82Zm159.18,0h63.73V258H451.38v-2.19Zm159.19,0H674.3v2.46H610.57v-2.46Zm159.18,0h63.73v3.42H769.75v-3.42Z" style="fill:#ff25f3"/></g><g style="clip-path:url(#clip-path-2)"><path d="M133.15,60.53h63.59V255.82H133.15V60.53Zm159,73.58h63.73V255.82H292.2V134.11Zm159.18,10.53h63.73V255.82H451.38V144.64Zm159.19-9.71H674.3V255.82H610.57V134.93ZM769.75,85.69h63.73V255.82H769.75V85.69Z" style="fill:#5e9fff"/></g><g style="clip-path:url(#clip-path-2)"><path d="M133.15,56.7h63.59v3.83H133.15V56.7Zm159,65.1h63.73v12.31H292.2V121.8Zm159.18,20.65h63.73v2.19H451.38v-2.19Zm159.19-10H674.3v2.46H610.57v-2.46ZM769.75,82.28h63.73v3.41H769.75V82.28Z" style="fill:#0044ab"/></g><g style="clip-path:url(#clip-path)"><line x1="85.28" y1="255.82" x2="881.21" y2="255.82" style="fill:none;stroke:#d9d9d9;stroke-linejoin:round;stroke-width:0.820539833501855px"/></g><g style="clip-path:url(#clip-path-6)"><text transform="translate(157.19 282.07)" style="font-size:10.256750106811523px;font-family:Arial-BoldMT, Arial;font-weight:700">-</text></g><g style="clip-path:url(#clip-path-6)"><text transform="translate(160.61 282.07)" style="font-size:10.256750106811523px;font-family:Arial-BoldMT, Arial;font-weight:700;letter-spacing:0.003046774043880315em">2<tspan x="5.74" y="0" style="letter-spacing:-0.00009521168887125985em">%</tspan></text></g><g style="clip-path:url(#clip-path-6)"><text transform="translate(313.31 284.71)" style="font-size:10.256750106811523px;font-family:Arial-BoldMT, Arial;font-weight:700">-</text></g><g style="clip-path:url(#clip-path-6)"><text transform="translate(316.74 284.71)" style="font-size:10.256750106811523px;font-family:Arial-BoldMT, Arial;font-weight:700"><tspan style="letter-spacing:0.003046774043880315em">10</tspan><tspan x="11.47" y="0">%</tspan></text></g><g style="clip-path:url(#clip-path-6)"><text transform="translate(479.43 278.96)" style="font-size:10.256750106811523px;font-family:Arial-BoldMT, Arial;font-weight:700">-</text></g><g style="clip-path:url(#clip-path-6)"><text transform="translate(482.85 278.96)" style="font-size:10.256750106811523px;font-family:Arial-BoldMT, Arial;font-weight:700;letter-spacing:0.003046774043880315em">2<tspan x="5.74" y="0" style="letter-spacing:-0.00009521168887125985em">%</tspan></text></g><g style="clip-path:url(#clip-path-6)"><text transform="translate(633.21 280.45)" style="font-size:10.256750106811523px;font-family:Arial-BoldMT, Arial;font-weight:700">-</text></g><g style="clip-path:url(#clip-path-6)"><text transform="translate(636.62 280.45)" style="font-size:10.256750106811523px;font-family:Arial-BoldMT, Arial;font-weight:700;letter-spacing:0.003046774043880315em">2<tspan x="5.74" y="0" style="letter-spacing:-0.00009521168887125985em">%</tspan></text></g><g style="clip-path:url(#clip-path-6)"><text transform="translate(793.87 280.37)" style="font-size:10.256750106811523px;font-family:Arial-BoldMT, Arial;font-weight:700">-</text></g><g style="clip-path:url(#clip-path-6)"><text transform="translate(797.29 280.37)" style="font-size:10.256750106811523px;font-family:Arial-BoldMT, Arial;font-weight:700;letter-spacing:0.003046774043880315em">2<tspan x="5.74" y="0" style="letter-spacing:-0.00009521168887125985em">%</tspan></text></g><g style="clip-path:url(#clip-path-6)"><text transform="translate(153.07 48)" style="font-size:10.256750106811523px;font-family:Arial-BoldMT, Arial;font-weight:700"><tspan style="letter-spacing:0.001999445466296457em">+</tspan><tspan x="6.01" y="0" style="letter-spacing:0.002951562355009055em">2</tspan><tspan x="11.75" y="0">%</tspan></text></g><g style="clip-path:url(#clip-path-17)"><text transform="translate(311.13 110.93)" style="font-size:10.256750106811523px;font-family:Arial-BoldMT, Arial;font-weight:700"><tspan style="letter-spacing:0.001999445466296457em">+</tspan><tspan x="6.01" y="0" style="letter-spacing:0.002951562355009055em">10</tspan><tspan x="17.48" y="0">%</tspan></text></g><g style="clip-path:url(#clip-path-6)"><text transform="translate(474.17 125.91)" style="font-size:10.256750106811523px;font-family:Arial-BoldMT, Arial;font-weight:700"><tspan style="letter-spacing:0.001999445466296457em">+</tspan><tspan x="6.01" y="0" style="letter-spacing:0.002951562355009055em">2</tspan><tspan x="11.75" y="0">%</tspan></text></g><g style="clip-path:url(#clip-path-6)"><text transform="translate(628.36 116.83)" style="font-size:10.256750106811523px;font-family:Arial-BoldMT, Arial;font-weight:700"><tspan style="letter-spacing:0.001999445466296457em">+</tspan><tspan x="6.01" y="0" style="letter-spacing:0.002951562355009055em">2</tspan><tspan x="11.75" y="0">%</tspan></text></g><g style="clip-path:url(#clip-path-6)"><text transform="translate(788.77 72.54)" style="font-size:10.256750106811523px;font-family:Arial-BoldMT, Arial;font-weight:700"><tspan style="letter-spacing:0.001999445466296457em">+</tspan><tspan x="6.01" y="0" style="letter-spacing:0.002951562355009055em">2</tspan><tspan x="11.75" y="0">%</tspan></text></g><g style="clip-path:url(#clip-path-6)"><text transform="translate(53.14 302.04)" style="font-size:10.256750106811523px;font-family:Arial-BoldMT, Arial;font-weight:700">-<tspan x="3.42" y="0" style="letter-spacing:0.002951562355009055em">2</tspan><tspan x="9.15" y="0" style="letter-spacing:0.001999445466296457em">.</tspan><tspan x="12.02" y="0" style="letter-spacing:-0.008949898753898426em">0</tspan><tspan x="17.63" y="0">0</tspan></text></g><g style="clip-path:url(#clip-path-6)"><text transform="translate(56.55 232.27)" style="font-size:10.256750106811523px;font-family:Arial-BoldMT, Arial;font-weight:700;letter-spacing:0.003046774043880315em">1<tspan x="5.74" y="0" style="letter-spacing:0.001999445466296457em">.</tspan><tspan x="8.61" y="0" style="letter-spacing:-0.009045110442769686em">2</tspan><tspan x="14.22" y="0" style="letter-spacing:0.00009521168887125985em">5</tspan></text></g><g style="clip-path:url(#clip-path-6)"><text transform="translate(56.55 162.49)" style="font-size:10.256750106811523px;font-family:Arial-BoldMT, Arial;font-weight:700;letter-spacing:0.003046774043880315em">4<tspan x="5.74" y="0" style="letter-spacing:0.001999445466296457em">.</tspan><tspan x="8.61" y="0" style="letter-spacing:-0.009045110442769686em">5</tspan><tspan x="14.22" y="0" style="letter-spacing:0.00009521168887125985em">0</tspan></text></g><g style="clip-path:url(#clip-path-6)"><text transform="translate(56.55 92.73)" style="font-size:10.256750106811523px;font-family:Arial-BoldMT, Arial;font-weight:700;letter-spacing:0.003046774043880315em">7<tspan x="5.74" y="0" style="letter-spacing:0.001999445466296457em">.</tspan><tspan x="8.61" y="0" style="letter-spacing:-0.009045110442769686em">7</tspan><tspan x="14.22" y="0" style="letter-spacing:0.00009521168887125985em">5</tspan></text></g><g style="clip-path:url(#clip-path-6)"><text transform="translate(50.84 22.97)" style="font-size:10.256750106811523px;font-family:Arial-BoldMT, Arial;font-weight:700"><tspan style="letter-spacing:0.003046774043880315em">1</tspan><tspan x="5.74" y="0" style="letter-spacing:-0.009045110442769686em">1</tspan><tspan x="11.35" y="0" style="letter-spacing:0.001999445466296457em">.</tspan><tspan x="14.22" y="0" style="letter-spacing:0.003046774043880315em">0</tspan><tspan x="19.95" y="0">0</tspan></text></g><g style="clip-path:url(#clip-path-6)"><text transform="translate(156.66 314.24)" style="font-size:10.256750106811523px;font-family:Arial-BoldMT, Arial;font-weight:700;letter-spacing:-0.001999445466296457em">R<tspan x="7.39" y="0" style="letter-spacing:-0.00009521168887125985em">-3</tspan></text></g><g style="clip-path:url(#clip-path-6)"><text transform="translate(312.98 314.24)" style="font-size:10.256750106811523px;font-family:Arial-BoldMT, Arial;font-weight:700"><tspan style="letter-spacing:-0.001999445466296457em">R</tspan><tspan x="7.39" y="0" style="letter-spacing:-0.00009521168887125985em">-</tspan><tspan x="10.8" y="0" style="letter-spacing:0.003046774043880315em">1</tspan><tspan x="16.54" y="0">1</tspan></text></g><g style="clip-path:url(#clip-path-6)"><text transform="translate(472.14 314.24)" style="font-size:10.256750106811523px;font-family:Arial-BoldMT, Arial;font-weight:700"><tspan style="letter-spacing:-0.001999445466296457em">R</tspan><tspan x="7.39" y="0" style="letter-spacing:-0.00009521168887125985em">-</tspan><tspan x="10.8" y="0" style="letter-spacing:0.003046774043880315em">1</tspan><tspan x="16.54" y="0">3</tspan></text></g><g style="clip-path:url(#clip-path-6)"><text transform="translate(631.32 314.24)" style="font-size:10.256750106811523px;font-family:Arial-BoldMT, Arial;font-weight:700"><tspan style="letter-spacing:-0.001999445466296457em">R</tspan><tspan x="7.39" y="0" style="letter-spacing:-0.00009521168887125985em">-</tspan><tspan x="10.8" y="0" style="letter-spacing:0.003046774043880315em">1</tspan><tspan x="16.54" y="0">4</tspan></text></g><g style="clip-path:url(#clip-path-6)"><text transform="translate(790.5 314.24)" style="font-size:10.256750106811523px;font-family:Arial-BoldMT, Arial;font-weight:700"><tspan style="letter-spacing:-0.001999445466296457em">R</tspan><tspan x="7.39" y="0" style="letter-spacing:-0.00009521168887125985em">-</tspan><tspan x="10.8" y="0" style="letter-spacing:0.003046774043880315em">1</tspan><tspan x="16.54" y="0">5</tspan></text></g><g style="clip-path:url(#clip-path-6)"><text transform="translate(32.79 225.83) rotate(-90)" style="font-size:11.350799560546875px;font-family:Arial-BoldMT, Arial;font-weight:700"><tspan style="letter-spacing:0.0049900119104271355em">Q</tspan><tspan x="8.89" y="0" style="letter-spacing:0.0030112140838784436em">u</tspan><tspan x="15.85" y="0" style="letter-spacing:-0.001032416257329752em">a</tspan><tspan x="22.15" y="0" style="letter-spacing:0.0030112140838784436em">n</tspan><tspan x="29.12" y="0" style="letter-spacing:0.003957595653097383em">t</tspan><tspan x="32.95" y="0" style="letter-spacing:0.00008603468811081268em">i</tspan><tspan x="36.1" y="0" style="letter-spacing:0.003957595653097383em">t</tspan><tspan x="39.93" y="0" style="letter-spacing:-0.012991237904732715em">y</tspan><tspan x="46.09" y="0" style="letter-spacing:0.011012440078184024em"> </tspan><tspan x="49.37" y="0">&amp; </tspan><tspan x="60.72" y="0" style="letter-spacing:0.006968809736975827em">Y</tspan><tspan x="68.37" y="0" style="letter-spacing:-0.0009463815692189395em">a</tspan><tspan x="74.67" y="0">R</tspan><tspan x="82.87" y="0" style="letter-spacing:0.011012440078184024em"> </tspan><tspan x="86.15" y="0" style="letter-spacing:0.003957595653097383em">(</tspan><tspan x="89.97" y="0" style="letter-spacing:0.022024880156368047em">M</tspan><tspan x="99.68" y="0" style="letter-spacing:0.014970035731281407em">T</tspan><tspan x="106.78" y="0">)</tspan></text></g><g style="clip-path:url(#clip-path-6)"><text transform="translate(420.91 337.8)" style="font-size:11.350799560546875px;font-family:Arial-BoldMT, Arial;font-weight:700">R<tspan x="8.2" y="0" style="letter-spacing:-0.0009463815692189395em">e</tspan><tspan x="14.5" y="0" style="letter-spacing:0.002925179395767631em">g</tspan><tspan x="21.47" y="0" style="letter-spacing:0.00008603468811081268em">i</tspan><tspan x="24.62" y="0" style="letter-spacing:0.002925179395767631em">on</tspan><tspan x="38.55" y="0">s</tspan></text></g><polygon points="2 2.14 897.35 2.14 897.35 347.17 2 347.17 2 2.14 2 2.14" style="fill:none;stroke:#d9d9d9;stroke-linejoin:round;stroke-width:0.820539901429615px"/></svg>