<?xml version="1.0" encoding="utf-8"?>
<!-- Generator: Adobe Illustrator 16.0.0, SVG Export Plug-In . SVG Version: 6.00 Build 0)  -->
<!DOCTYPE svg PUBLIC "-//W3C//DTD SVG 1.1//EN" "http://www.w3.org/Graphics/SVG/1.1/DTD/svg11.dtd">
<svg version="1.1" id="Layer_1" xmlns="http://www.w3.org/2000/svg" xmlns:xlink="http://www.w3.org/1999/xlink" x="0px" y="0px"
	 width="235.496px" height="202.811px" viewBox="0 0 235.496 202.811" enable-background="new 0 0 235.496 202.811"
	 xml:space="preserve">
<g>
	<g>
		<g>
			<polygon fill="none" stroke="#CDB03D" stroke-miterlimit="10" points="129.064,3.635 135.359,0 141.65,3.635 141.65,10.902 
				135.359,14.539 129.064,10.902 			"/>
			<path fill="#CDB03D" d="M137.725,9.248c0,0.432-0.148,0.797-0.463,1.112c-0.311,0.311-0.682,0.466-1.111,0.466h-1.586
				c-0.432,0-0.801-0.155-1.115-0.457c-0.305-0.316-0.461-0.689-0.461-1.121V5.294c0-0.433,0.156-0.806,0.461-1.114
				c0.314-0.311,0.684-0.464,1.115-0.464h1.586c0.43,0,0.801,0.153,1.111,0.464c0.314,0.314,0.463,0.682,0.463,1.114V9.248
				L137.725,9.248z M136.141,5.16c-0.113-0.432-0.373-0.65-0.781-0.65c-0.221,0-0.408,0.077-0.559,0.228
				c-0.156,0.153-0.236,0.341-0.236,0.557v2.688L136.141,5.16L136.141,5.16z M136.15,9.248V6.56l-1.566,2.812
				c0.082,0.445,0.346,0.658,0.775,0.658c0.221,0,0.404-0.074,0.561-0.225C136.074,9.648,136.15,9.461,136.15,9.248z"/>
		</g>
		<g>
			<polygon fill="none" stroke="#CDB03D" stroke-miterlimit="10" points="141.963,41.922 148.254,38.289 154.553,41.922 
				154.553,49.191 148.254,52.829 141.963,49.191 			"/>
			<polygon fill="#CDB03D" points="150.844,48.877 150.496,48.877 146.404,45.192 146.404,48.877 145.666,48.877 145.666,42.242 
				146.012,42.242 150.105,45.929 150.105,42.242 150.844,42.242 			"/>
		</g>
		<g>
			<polygon fill="none" stroke="#CDB03D" stroke-miterlimit="10" points="143.41,69.592 149.711,65.955 155.994,69.592 
				155.994,76.862 149.711,80.494 143.41,76.862 			"/>
			<path fill-rule="evenodd" clip-rule="evenodd" fill="#CDB03D" d="M151.637,69.839h-4.889l0.631,0.811h2.262
				c0.115,0.141,0.24,0.331,0.324,0.547h-2.74l0.611,0.817h2.199c-0.018,0.076-0.037,0.153-0.07,0.236
				c-0.246,0.576-0.65,0.88-0.939,1.029l-0.324-0.405h-1.043l2.926,3.737h1.053l-2.035-2.604c0.346-0.268,1.268-1.062,1.346-1.994
				h1.711l-0.549-0.817h-1.246c-0.055-0.216-0.125-0.387-0.199-0.547h1.531L151.637,69.839z"/>
		</g>
		<g>
			<polygon fill="none" stroke="#CDB03D" stroke-miterlimit="10" points="163.928,77.041 170.23,73.41 176.52,77.041 176.52,84.313 
				170.23,87.945 163.928,84.313 			"/>
			<path fill="#CDB03D" d="M169.924,82.723v-1.816c-0.563-0.162-0.982-0.404-1.252-0.734c-0.26-0.334-0.398-0.729-0.398-1.195
				c0-0.475,0.156-0.875,0.451-1.194c0.307-0.317,0.701-0.506,1.199-0.558v-0.428h0.627v0.428c0.461,0.058,0.828,0.216,1.1,0.475
				c0.27,0.255,0.441,0.602,0.512,1.04l-1.094,0.142c-0.064-0.348-0.236-0.574-0.518-0.702v1.7c0.693,0.184,1.17,0.432,1.416,0.73
				c0.254,0.297,0.377,0.68,0.377,1.148c0,0.523-0.154,0.965-0.467,1.324c-0.324,0.361-0.764,0.58-1.326,0.662v0.807h-0.627V83.76
				c-0.504-0.061-0.902-0.242-1.215-0.558c-0.316-0.308-0.516-0.75-0.605-1.319l1.133-0.125c0.045,0.23,0.135,0.43,0.264,0.6
				C169.627,82.529,169.77,82.65,169.924,82.723L169.924,82.723z M169.924,78.174c-0.172,0.057-0.299,0.155-0.414,0.293
				c-0.094,0.138-0.145,0.291-0.145,0.455c0,0.157,0.037,0.301,0.135,0.43c0.098,0.131,0.236,0.236,0.424,0.324V78.174
				L169.924,78.174z M170.551,82.783c0.219-0.037,0.391-0.137,0.531-0.297c0.135-0.164,0.201-0.352,0.201-0.569
				c0-0.196-0.053-0.36-0.17-0.506c-0.111-0.136-0.301-0.243-0.563-0.316V82.783z"/>
		</g>
		<g>
			<polygon fill="none" stroke="#CDB03D" stroke-miterlimit="10" points="130.213,89.64 136.51,86.008 142.803,89.64 
				142.803,96.903 136.51,100.539 130.213,96.903 			"/>
			<path fill-rule="evenodd" clip-rule="evenodd" fill="#CDB03D" d="M139.07,95.675c-0.027,0.074-0.049,0.047-0.104,0.188
				l0.168,0.061c0.076,0.021,0.283-0.215,0.504-0.282c0.066,0.077,0.098,0.219,0.184,0.245c0.236,0.081,0.316-0.05,0.205,0.297
				c0.047,0.054,0.07,0.098,0.178,0.131c0.09,0.034,0.182-0.057,0.258-0.084c0.184-0.095,0.145,0.007,0.295-0.04
				c0.178-0.055,0.135-0.341,0.195-0.556c0.127-0.458-0.125-0.7-0.355-1.004c-0.076-0.084-0.92-0.622-1.059-0.673
				c-0.459-0.172-0.953-0.316-1.422-0.472c-1.148-0.391-1.676-0.568-2.402-1.182c-0.383-0.313-0.598-0.354-0.807-0.808
				c-0.119-0.242-0.236-0.737-0.619-0.868c-0.188-0.067-0.273-0.055-0.408-0.102c-0.211-0.061-0.225-0.188-0.307-0.208l-0.037-0.018
				c-0.125-0.044-0.322,0.018-0.43,0.041c-0.064-0.041-0.082-0.064-0.184-0.102c-0.215-0.067-0.564,0.118-0.656,0.381l-0.053,0.168
				c-0.061,0.179-0.076,0.337,0,0.444l0.402-0.142l-0.006,0.091l0.059,0.031c-0.182,0.289-0.58,0.37-0.639,0.45l0.172,0.058
				c0.188,0.064,0.387-0.094,0.688-0.061l0.027,0.03l-0.59,0.404l0.014,0.05l0.883-0.121l0.08,0.078l0.037,0.02l-0.586,0.644
				c0.346,0.107,0.619-0.316,0.895-0.223c0.02,0.011,0.408,0.63,0.822,0.765c-0.055,0.263,0.102,0.256,0.059,0.394l-0.01,0.037
				c-0.033,0.101-0.061,0.114-0.104,0.186c0.021,0.07,0.018,0.117,0.098,0.147c0.09,0.034,0.107,0.017,0.184,0.023
				c0.117-0.289,0.213-0.242,0.439-0.306l0.322,0.373c-0.049,0.165-0.176,0.351-0.021,0.407l0.066,0.018
				c0.203,0.074,0.182-0.425,0.617-0.273c0.338,0.111,0.076,0.583,0.23,0.64l0.039,0.014c0.09,0.027,0.15-0.04,0.215-0.084
				l0.055-0.168c0.037-0.027,0.117-0.108,0.176-0.085c0.473,0.158,0.145,0.529,0.328,0.59l0.033,0.017
				c0.074,0.021,0.08-0.007,0.156-0.027c0.059-0.175,0.135-0.403,0.307-0.35c0.16,0.058,0.283,0.263,0.221,0.451l-0.033,0.104
				l0.096,0.033c0.082,0.027,0.082,0,0.162-0.023c0.049-0.145,0.141-0.363,0.258-0.323c0.166,0.051,0.242,0.155,0.193,0.323
				l-0.059,0.172l0.102,0.03c0.109,0.04,0.258-0.209,0.328-0.3C139.08,95.393,139.125,95.5,139.07,95.675z"/>
		</g>
		<g>
			<polygon fill="none" stroke="#CDB03D" stroke-miterlimit="10" points="142.609,101.011 148.906,97.378 155.203,101.011 
				155.203,108.275 148.906,111.908 142.609,108.275 			"/>
			<path fill="#CDB03D" d="M148.314,107.354h-1.82c-0.486,0-0.924-0.176-1.273-0.529c-0.355-0.359-0.531-0.777-0.531-1.279v-1.808
				c0-0.494,0.176-0.919,0.531-1.272c0.35-0.35,0.787-0.535,1.273-0.535h1.219c0.145,0,0.285,0.067,0.402,0.195
				c0.129,0.121,0.199,0.263,0.199,0.411v0.603h-0.602c0-0.165-0.061-0.31-0.18-0.428c-0.117-0.121-0.256-0.175-0.43-0.175
				c-0.334,0-0.619,0.114-0.855,0.354c-0.236,0.235-0.354,0.524-0.354,0.848v1.808c0,0.337,0.117,0.62,0.354,0.855
				c0.236,0.232,0.521,0.354,0.855,0.354h1.211V107.354L148.314,107.354z M153.115,107.354h-1.199v-0.902
				c-0.086,0.336-0.219,0.572-0.402,0.703c-0.18,0.135-0.445,0.199-0.803,0.199c-0.332,0-0.615-0.115-0.857-0.351
				c-0.227-0.242-0.35-0.525-0.35-0.854v-3.01h1.207v3.01c0,0.396,0.098,0.605,0.303,0.605c0.27,0,0.496-0.118,0.668-0.33
				c0.16-0.185,0.234-0.377,0.234-0.579v-2.706h1.199V107.354z"/>
		</g>
		<g>
			<polygon fill="none" stroke="#CDB03D" stroke-miterlimit="10" points="164.514,102.963 170.803,99.327 177.105,102.963 
				177.105,110.231 170.803,113.864 164.514,110.231 			"/>
			<path fill="#CDB03D" d="M170.203,109.303h-3.602V108.7l2.404-4.205h-2.404v-0.603h3.602v0.603l-2.406,4.205h2.406V109.303
				L170.203,109.303z M175.018,109.303h-1.199v-3.014c0-0.396-0.104-0.596-0.303-0.596c-0.271,0-0.494,0.104-0.676,0.323
				c-0.156,0.186-0.232,0.374-0.232,0.576v2.71h-1.199v-4.215h1.199v0.902c0.09-0.334,0.223-0.569,0.404-0.701
				c0.172-0.134,0.447-0.201,0.807-0.201c0.334,0,0.613,0.121,0.85,0.35c0.225,0.239,0.35,0.519,0.35,0.852V109.303z"/>
		</g>
		<polygon fill="none" stroke="#CDB03D" stroke-miterlimit="10" points="93.816,4.455 100.111,0.822 106.404,4.455 106.404,11.723 
			100.111,15.357 93.816,11.723 		"/>
		<polygon fill="none" stroke="#CDB03D" stroke-miterlimit="10" points="99.994,13.068 106.285,9.435 112.581,13.068 
			112.581,20.338 106.285,23.969 99.994,20.338 		"/>
		<polygon fill="none" stroke="#CDB03D" stroke-miterlimit="10" points="117.689,15.215 123.986,11.577 130.283,15.215 
			130.283,22.479 123.986,26.111 117.689,22.479 		"/>
		<polygon fill="none" stroke="#CDB03D" stroke-miterlimit="10" points="164.746,4.18 171.045,0.547 177.34,4.18 177.34,11.449 
			171.045,15.078 164.746,11.449 		"/>
		<polygon fill="none" stroke="#CDB03D" stroke-miterlimit="10" points="114.033,28.492 120.33,24.859 126.621,28.492 
			126.621,35.76 120.33,39.396 114.033,35.76 		"/>
		<polygon fill="none" stroke="#CDB03D" stroke-miterlimit="10" points="97.117,35.507 103.414,31.872 109.705,35.507 
			109.705,42.777 103.414,46.41 97.117,42.777 		"/>
		<polygon fill="none" stroke="#CDB03D" stroke-miterlimit="10" points="162.354,22.235 168.641,18.604 174.943,22.235 
			174.943,29.506 168.641,33.14 162.354,29.506 		"/>
		<polygon fill="none" stroke="#CDB03D" stroke-miterlimit="10" points="189.803,4.455 196.102,0.822 202.393,4.455 202.393,11.723 
			196.102,15.357 189.803,11.723 		"/>
		<polygon fill="none" stroke="#CDB03D" stroke-miterlimit="10" points="196.254,7.712 202.539,4.078 208.83,7.712 208.83,14.982 
			202.539,18.615 196.254,14.982 		"/>
		<polygon fill="none" stroke="#CDB03D" stroke-miterlimit="10" points="204.053,21.645 210.355,18.006 216.641,21.645 
			216.641,28.916 210.355,32.548 204.053,28.916 		"/>
		<polygon fill="none" stroke="#CDB03D" stroke-miterlimit="10" points="183.699,23.261 189.992,19.625 196.283,23.261 
			196.283,30.529 189.992,34.16 183.699,30.529 		"/>
		<polygon fill="none" stroke="#CDB03D" stroke-miterlimit="10" points="185.514,41.215 191.807,37.58 198.092,41.215 
			198.092,48.48 191.807,52.113 185.514,48.48 		"/>
		<polygon fill="none" stroke="#CDB03D" stroke-miterlimit="10" points="214.91,48.927 221.213,45.294 227.504,48.927 
			227.504,56.196 221.213,59.83 214.91,56.196 		"/>
		<g>
			<polygon fill="none" stroke="#CDB03D" stroke-miterlimit="10" points="137.49,56.279 143.785,52.646 150.078,56.279 
				150.078,63.553 143.785,67.184 137.49,63.553 			"/>
		</g>
		<polygon fill="none" stroke="#CDB03D" stroke-miterlimit="10" points="160.137,37.292 166.439,33.658 172.721,37.292 
			172.721,44.558 166.439,48.188 160.137,44.558 		"/>
		<polygon fill="none" stroke="#CDB03D" stroke-miterlimit="10" points="166.113,39.995 172.408,36.355 178.693,39.995 
			178.693,47.266 172.408,50.897 166.113,47.266 		"/>
		<polygon fill="none" stroke="#CDB03D" stroke-miterlimit="10" points="156.213,52.4 162.512,48.767 168.797,52.4 168.797,59.672 
			162.512,63.303 156.213,59.672 		"/>
		<polygon fill="none" stroke="#CDB03D" stroke-miterlimit="10" points="151.611,57.317 157.906,53.68 164.193,57.317 
			164.193,64.586 157.906,68.215 151.611,64.586 		"/>
		<polygon fill="none" stroke="#CDB03D" stroke-miterlimit="10" points="103.053,61.602 109.355,57.963 115.641,61.602 
			115.641,68.867 109.355,72.504 103.053,68.867 		"/>
		<polygon fill="none" stroke="#CDB03D" stroke-miterlimit="10" points="197.424,56.138 203.721,52.498 210.006,56.138 
			210.006,63.403 203.721,67.038 197.424,63.403 		"/>
		<polygon fill="none" stroke="#CDB03D" stroke-miterlimit="10" points="190.109,56.408 196.408,52.769 202.699,56.408 
			202.699,63.671 196.408,67.305 190.109,63.671 		"/>
		<polygon fill="none" stroke="#CDB03D" stroke-miterlimit="10" points="202.02,61.044 208.313,57.406 214.611,61.044 
			214.611,68.309 208.313,71.941 202.02,68.309 		"/>
		<polygon fill="none" stroke="#CDB03D" stroke-miterlimit="10" points="199.307,82.202 205.609,78.566 211.895,82.202 
			211.895,89.468 205.609,93.106 199.307,89.468 		"/>
		<polygon fill="none" stroke="#CDB03D" stroke-miterlimit="10" points="205.754,80.609 212.045,76.973 218.34,80.609 
			218.34,87.879 212.045,91.511 205.754,87.879 		"/>
		<polygon fill="none" stroke="#CDB03D" stroke-miterlimit="10" points="180.518,83.178 186.814,79.543 193.111,83.178 
			193.111,90.447 186.814,94.083 180.518,90.447 		"/>
		<polygon fill="none" stroke="#CDB03D" stroke-miterlimit="10" points="177.41,88.736 183.699,85.102 190.002,88.736 
			190.002,96.005 183.699,99.634 177.41,96.005 		"/>
		<polygon fill="none" stroke="#CDB03D" stroke-miterlimit="10" points="162.982,89.591 169.281,85.957 175.566,89.591 
			175.566,96.86 169.281,100.492 162.982,96.86 		"/>
		<polygon fill="none" stroke="#CDB03D" stroke-miterlimit="10" points="147.639,85.186 153.934,81.551 160.225,85.186 
			160.225,92.457 153.934,96.089 147.639,92.457 		"/>
		<polygon fill="none" stroke="#CDB03D" stroke-miterlimit="10" points="117.41,81.606 123.703,77.97 130,81.606 130,88.874 
			123.703,92.511 117.41,88.874 		"/>
		<polygon fill="none" stroke="#CDB03D" stroke-miterlimit="10" points="116.41,62.771 122.701,59.14 128.988,62.771 
			128.988,70.037 122.701,73.675 116.41,70.037 		"/>
		<polygon fill="none" stroke="#CDB03D" stroke-miterlimit="10" points="100.741,75.518 107.039,71.883 113.336,75.518 
			113.336,82.79 107.039,86.42 100.741,82.79 		"/>
		<polygon fill="none" stroke="#CDB03D" stroke-miterlimit="10" points="127.443,98.456 133.746,94.823 140.043,98.456 
			140.043,105.728 133.746,109.363 127.443,105.728 		"/>
		<polygon fill="none" stroke="#CDB03D" stroke-miterlimit="10" points="172.803,106.023 179.094,102.391 185.383,106.023 
			185.383,113.292 179.094,116.921 172.803,113.292 		"/>
		<polygon fill="none" stroke="#CDB03D" stroke-miterlimit="10" points="97.381,91.881 103.677,88.248 109.969,91.881 
			109.969,99.149 103.677,102.781 97.381,99.149 		"/>
		<polygon fill="none" stroke="#CDB03D" stroke-miterlimit="10" points="89.885,100.795 96.182,97.163 102.479,100.795 
			102.479,108.066 96.182,111.699 89.885,108.066 		"/>
		<g>
			<polygon fill="none" stroke="#CDB03D" stroke-miterlimit="10" points="110.113,8.865 116.41,5.227 122.695,8.865 122.695,16.131 
				116.41,19.764 110.113,16.131 			"/>
			<path fill="#CDB03D" d="M118.771,14.475c0,0.43-0.146,0.801-0.462,1.112c-0.307,0.31-0.678,0.466-1.113,0.466h-1.581
				c-0.437,0-0.806-0.156-1.112-0.46c-0.312-0.313-0.469-0.688-0.469-1.118v-3.956c0-0.433,0.157-0.804,0.469-1.115
				c0.307-0.31,0.676-0.46,1.112-0.46h1.581c0.436,0,0.807,0.15,1.113,0.46c0.316,0.313,0.462,0.683,0.462,1.115V14.475
				L118.771,14.475z M117.186,10.387c-0.113-0.434-0.365-0.649-0.775-0.649c-0.221,0-0.408,0.073-0.559,0.227
				c-0.156,0.155-0.237,0.343-0.237,0.555v2.691L117.186,10.387L117.186,10.387z M117.195,14.475v-2.688l-1.559,2.809
				c0.08,0.441,0.343,0.662,0.773,0.662c0.216,0,0.402-0.072,0.559-0.231C117.121,14.871,117.195,14.688,117.195,14.475z"/>
		</g>
		<g>
			<polygon fill="none" stroke="#CDB03D" stroke-miterlimit="10" points="174.092,10.964 180.391,7.331 186.676,10.964 
				186.676,18.23 180.391,21.863 174.092,18.23 			"/>
			<path fill="#CDB03D" d="M182.75,16.57c0,0.435-0.145,0.802-0.465,1.116c-0.309,0.31-0.676,0.464-1.111,0.464h-1.584
				c-0.428,0-0.809-0.154-1.115-0.458c-0.303-0.314-0.461-0.688-0.461-1.122v-3.951c0-0.431,0.158-0.805,0.461-1.115
				c0.307-0.309,0.688-0.463,1.115-0.463h1.584c0.436,0,0.803,0.154,1.111,0.463c0.32,0.314,0.465,0.685,0.465,1.115V16.57
				L182.75,16.57z M181.164,12.487c-0.113-0.433-0.373-0.651-0.773-0.651c-0.223,0-0.41,0.074-0.566,0.228
				c-0.154,0.155-0.234,0.345-0.234,0.556v2.692L181.164,12.487L181.164,12.487z M181.174,16.57v-2.682l-1.564,2.807
				c0.08,0.441,0.344,0.66,0.781,0.66c0.211,0,0.396-0.07,0.553-0.229C181.098,16.976,181.174,16.787,181.174,16.57z"/>
		</g>
		<g>
			<polygon fill="none" stroke="#CDB03D" stroke-miterlimit="10" points="222.256,27.743 228.547,24.107 234.84,27.743 
				234.84,35.01 228.547,38.646 222.256,35.01 			"/>
			<path fill="#CDB03D" d="M230.918,33.354c0,0.431-0.154,0.801-0.469,1.115c-0.307,0.31-0.684,0.461-1.111,0.461h-1.588
				c-0.428,0-0.801-0.151-1.107-0.455c-0.311-0.314-0.461-0.69-0.461-1.121v-3.954c0-0.431,0.15-0.804,0.461-1.112
				c0.307-0.311,0.68-0.464,1.107-0.464h1.588c0.428,0,0.805,0.153,1.111,0.464c0.314,0.314,0.469,0.682,0.469,1.112V33.354
				L230.918,33.354z M229.326,29.267c-0.109-0.433-0.365-0.652-0.779-0.652c-0.215,0-0.41,0.075-0.559,0.23
				c-0.15,0.153-0.238,0.341-0.238,0.555v2.689L229.326,29.267L229.326,29.267z M229.338,33.354v-2.686l-1.561,2.807
				c0.076,0.441,0.34,0.662,0.77,0.662c0.219,0,0.408-0.076,0.559-0.231C229.262,33.754,229.338,33.565,229.338,33.354z"/>
		</g>
		<g>
			<path fill="#CDB03D" d="M185.498,35.895c0,0.432-0.152,0.802-0.463,1.113c-0.313,0.31-0.682,0.465-1.113,0.465h-1.586
				c-0.432,0-0.809-0.155-1.117-0.459c-0.303-0.314-0.459-0.688-0.459-1.119v-3.953c0-0.432,0.156-0.807,0.459-1.115
				c0.309-0.309,0.686-0.461,1.117-0.461h1.586c0.432,0,0.801,0.152,1.113,0.461c0.311,0.314,0.463,0.684,0.463,1.115V35.895
				L185.498,35.895z M183.912,31.809c-0.115-0.431-0.371-0.652-0.781-0.652c-0.219,0-0.404,0.078-0.566,0.232
				c-0.148,0.155-0.229,0.342-0.229,0.553v2.693L183.912,31.809L183.912,31.809z M183.922,35.895V33.21l-1.568,2.811
				c0.084,0.44,0.346,0.659,0.777,0.659c0.223,0,0.404-0.074,0.559-0.229C183.842,36.297,183.922,36.109,183.922,35.895z"/>
			<polygon fill="none" stroke="#CDB03D" stroke-miterlimit="10" points="176.828,30.285 183.127,26.648 189.416,30.285 
				189.416,37.554 183.127,41.188 176.828,37.554 			"/>
		</g>
		<g>
			<polygon fill="none" stroke="#CDB03D" stroke-miterlimit="10" points="149.207,22.987 155.498,19.354 161.791,22.987 
				161.791,30.257 155.498,33.893 149.207,30.257 			"/>
			<path fill="#CDB03D" d="M157.865,28.602c0,0.43-0.148,0.798-0.465,1.115c-0.307,0.307-0.676,0.46-1.111,0.46h-1.582
				c-0.43,0-0.807-0.153-1.113-0.458c-0.307-0.313-0.461-0.688-0.461-1.117v-3.955c0-0.436,0.154-0.805,0.461-1.113
				c0.307-0.31,0.684-0.464,1.113-0.464h1.582c0.436,0,0.805,0.154,1.111,0.464c0.316,0.312,0.465,0.678,0.465,1.113V28.602
				L157.865,28.602z M156.275,24.51c-0.109-0.43-0.363-0.648-0.777-0.648c-0.215,0-0.404,0.075-0.555,0.23
				c-0.154,0.152-0.236,0.34-0.236,0.555v2.689L156.275,24.51L156.275,24.51z M156.289,28.602v-2.689l-1.561,2.81
				c0.08,0.442,0.346,0.664,0.77,0.664c0.219,0,0.408-0.079,0.563-0.232C156.213,28.998,156.289,28.811,156.289,28.602z"/>
		</g>
		<g>
			<polygon fill="none" stroke="#CDB03D" stroke-miterlimit="10" points="129.283,30.124 135.58,26.489 141.871,30.124 
				141.871,37.393 135.58,41.027 129.283,37.393 			"/>
			<path fill="#CDB03D" d="M137.945,35.739c0,0.431-0.148,0.794-0.467,1.109c-0.307,0.309-0.678,0.464-1.107,0.464h-1.586
				c-0.432,0-0.809-0.155-1.119-0.459c-0.303-0.314-0.457-0.684-0.457-1.114V31.78c0-0.432,0.154-0.802,0.457-1.112
				c0.311-0.311,0.688-0.467,1.119-0.467h1.586c0.43,0,0.801,0.156,1.107,0.467c0.318,0.315,0.467,0.681,0.467,1.112V35.739
				L137.945,35.739z M136.354,31.648c-0.105-0.432-0.365-0.652-0.773-0.652c-0.221,0-0.408,0.077-0.561,0.232
				c-0.154,0.152-0.234,0.34-0.234,0.552v2.694L136.354,31.648L136.354,31.648z M136.371,35.739v-2.69l-1.57,2.812
				c0.086,0.442,0.35,0.66,0.779,0.66c0.215,0,0.402-0.075,0.561-0.229C136.295,36.136,136.371,35.949,136.371,35.739z"/>
		</g>
		<g>
			<polygon fill="none" stroke="#CDB03D" stroke-miterlimit="10" points="106.71,25.377 113.008,21.742 119.297,25.377 
				119.297,32.643 113.008,36.277 106.71,32.643 			"/>
			<path fill="#CDB03D" d="M115.372,30.988c0,0.432-0.149,0.797-0.468,1.111c-0.307,0.31-0.677,0.466-1.107,0.466h-1.581
				c-0.437,0-0.806-0.156-1.112-0.46c-0.313-0.314-0.469-0.686-0.469-1.117v-3.957c0-0.43,0.156-0.804,0.469-1.113
				c0.307-0.309,0.676-0.463,1.112-0.463h1.581c0.431,0,0.801,0.154,1.107,0.463c0.318,0.314,0.468,0.684,0.468,1.113V30.988
				L115.372,30.988z M113.781,26.9c-0.107-0.43-0.359-0.652-0.773-0.652c-0.217,0-0.41,0.078-0.561,0.23
				c-0.156,0.152-0.231,0.339-0.231,0.553v2.696L113.781,26.9L113.781,26.9z M113.797,30.988v-2.686l-1.564,2.809
				c0.086,0.443,0.344,0.66,0.775,0.66c0.22,0,0.408-0.072,0.559-0.228C113.723,31.389,113.797,31.201,113.797,30.988z"/>
		</g>
		<g>
			<polygon fill="none" stroke="#CDB03D" stroke-miterlimit="10" points="116.738,42.729 123.035,39.09 129.326,42.729 
				129.326,49.992 123.035,53.628 116.738,49.992 			"/>
			<path fill="#CDB03D" d="M125.396,48.336c0,0.431-0.146,0.798-0.463,1.115c-0.313,0.304-0.678,0.463-1.107,0.463h-1.586
				c-0.432,0-0.807-0.159-1.119-0.463c-0.303-0.309-0.457-0.685-0.457-1.115v-3.953c0-0.436,0.154-0.805,0.457-1.115
				c0.313-0.309,0.688-0.463,1.119-0.463h1.586c0.43,0,0.795,0.154,1.107,0.463c0.316,0.313,0.463,0.68,0.463,1.115V48.336
				L125.396,48.336z M123.814,44.249c-0.119-0.435-0.377-0.651-0.779-0.651c-0.221,0-0.408,0.074-0.564,0.229
				c-0.156,0.155-0.23,0.344-0.23,0.557v2.689L123.814,44.249L123.814,44.249z M123.826,48.336v-2.688l-1.572,2.81
				c0.086,0.441,0.352,0.663,0.781,0.663c0.215,0,0.402-0.074,0.559-0.232C123.744,48.734,123.826,48.546,123.826,48.336z"/>
		</g>
		<g>
			<polygon fill="none" stroke="#CDB03D" stroke-miterlimit="10" points="132.85,73.159 139.139,69.524 145.436,73.159 
				145.436,80.427 139.139,84.059 132.85,80.427 			"/>
			<path fill="#CDB03D" d="M141.512,78.766c0,0.435-0.15,0.799-0.469,1.113c-0.307,0.313-0.684,0.465-1.113,0.465h-1.58
				c-0.43,0-0.801-0.152-1.113-0.457c-0.307-0.316-0.463-0.687-0.463-1.121v-3.953c0-0.432,0.156-0.805,0.463-1.112
				c0.313-0.309,0.684-0.464,1.113-0.464h1.58c0.43,0,0.807,0.155,1.113,0.464c0.318,0.311,0.469,0.681,0.469,1.112V78.766
				L141.512,78.766z M139.918,74.677c-0.105-0.431-0.365-0.648-0.779-0.648c-0.209,0-0.402,0.077-0.553,0.231
				c-0.154,0.155-0.236,0.338-0.236,0.553v2.693L139.918,74.677L139.918,74.677z M139.93,78.766v-2.685l-1.561,2.811
				c0.082,0.44,0.342,0.659,0.77,0.659c0.221,0,0.414-0.076,0.566-0.229C139.855,79.165,139.93,78.98,139.93,78.766z"/>
		</g>
		<g>
			<polygon fill="none" stroke="#CDB03D" stroke-miterlimit="10" points="110.604,72.455 116.894,68.817 123.191,72.455 
				123.191,79.72 116.894,83.355 110.604,79.72 			"/>
			<path fill="#CDB03D" d="M119.266,78.063c0,0.433-0.145,0.798-0.469,1.114c-0.306,0.311-0.682,0.465-1.111,0.465h-1.576
				c-0.436,0-0.812-0.154-1.125-0.458c-0.301-0.317-0.455-0.688-0.455-1.121v-3.952c0-0.437,0.154-0.808,0.455-1.116
				c0.313-0.308,0.689-0.463,1.125-0.463h1.576c0.43,0,0.806,0.155,1.111,0.463c0.324,0.314,0.469,0.68,0.469,1.116V78.063
				L119.266,78.063z M117.68,73.979c-0.119-0.437-0.372-0.656-0.786-0.656c-0.214,0-0.402,0.08-0.554,0.23
				c-0.154,0.156-0.23,0.343-0.23,0.559v2.688L117.68,73.979L117.68,73.979z M117.686,78.063v-2.688l-1.56,2.812
				c0.079,0.443,0.339,0.66,0.768,0.66c0.221,0,0.409-0.078,0.565-0.23C117.609,78.464,117.686,78.279,117.686,78.063z"/>
		</g>
		<g>
			<polygon fill="none" stroke="#CDB03D" stroke-miterlimit="10" points="185.508,61.242 191.807,57.611 198.092,61.242 
				198.092,68.514 191.807,72.148 185.508,68.514 			"/>
			<path fill="#CDB03D" d="M194.17,66.857c0,0.432-0.145,0.799-0.461,1.114c-0.307,0.311-0.684,0.464-1.119,0.464h-1.574
				c-0.432,0-0.809-0.153-1.119-0.459c-0.305-0.314-0.465-0.688-0.465-1.119v-3.953c0-0.434,0.16-0.805,0.465-1.113
				c0.311-0.311,0.688-0.466,1.119-0.466h1.574c0.436,0,0.813,0.155,1.119,0.466c0.316,0.313,0.461,0.68,0.461,1.113V66.857
				L194.17,66.857z M192.584,62.769c-0.111-0.433-0.363-0.647-0.777-0.647c-0.223,0-0.404,0.07-0.563,0.23
				c-0.148,0.15-0.229,0.338-0.229,0.553v2.688L192.584,62.769L192.584,62.769z M192.59,66.857v-2.687l-1.559,2.811
				c0.082,0.438,0.338,0.659,0.775,0.659c0.211,0,0.406-0.074,0.563-0.229C192.52,67.258,192.59,67.072,192.59,66.857z"/>
		</g>
		<g>
			<polygon fill="none" stroke="#CDB03D" stroke-miterlimit="10" points="194.348,75.393 200.646,71.757 206.936,75.393 
				206.936,82.656 200.646,86.289 194.348,82.656 			"/>
			<path fill="#CDB03D" d="M203.01,81c0,0.431-0.148,0.8-0.461,1.115c-0.314,0.309-0.684,0.465-1.115,0.465h-1.586
				c-0.43,0-0.805-0.156-1.117-0.46c-0.303-0.315-0.457-0.689-0.457-1.12v-3.956c0-0.43,0.154-0.802,0.457-1.112
				c0.313-0.309,0.688-0.466,1.117-0.466h1.586c0.432,0,0.801,0.157,1.115,0.466c0.313,0.313,0.461,0.683,0.461,1.112V81L203.01,81z
				 M201.424,76.912c-0.111-0.435-0.371-0.648-0.777-0.648c-0.223,0-0.41,0.072-0.566,0.229c-0.15,0.152-0.232,0.341-0.232,0.552
				v2.692L201.424,76.912L201.424,76.912z M201.434,81v-2.686l-1.568,2.809c0.084,0.44,0.35,0.658,0.781,0.658
				c0.219,0,0.4-0.071,0.559-0.227C201.354,81.398,201.434,81.21,201.434,81z"/>
		</g>
		<g>
			<path fill="#CDB03D" d="M230.924,71.087c0,0.433-0.158,0.804-0.467,1.116c-0.314,0.309-0.684,0.464-1.115,0.464h-1.586
				c-0.43,0-0.801-0.155-1.107-0.458c-0.313-0.313-0.467-0.689-0.467-1.122v-3.952c0-0.433,0.154-0.802,0.467-1.111
				c0.307-0.312,0.678-0.467,1.107-0.467h1.586c0.432,0,0.801,0.155,1.115,0.467c0.309,0.31,0.467,0.679,0.467,1.111V71.087
				L230.924,71.087z M229.332,67.001c-0.107-0.432-0.367-0.647-0.781-0.647c-0.219,0-0.4,0.074-0.559,0.228
				c-0.154,0.155-0.236,0.343-0.236,0.554v2.691L229.332,67.001L229.332,67.001z M229.342,71.087v-2.684l-1.559,2.807
				c0.074,0.443,0.34,0.662,0.768,0.662c0.223,0,0.41-0.073,0.559-0.229C229.268,71.489,229.342,71.301,229.342,71.087z"/>
			<polygon fill="none" stroke="#CDB03D" stroke-miterlimit="10" points="222.256,65.482 228.547,61.846 234.844,65.482 
				234.844,72.748 228.547,76.385 222.256,72.748 			"/>
		</g>
		<g>
			<polygon fill="none" stroke="#CDB03D" stroke-miterlimit="10" points="110.178,104.323 116.47,100.691 122.766,104.323 
				122.766,111.592 116.47,115.224 110.178,111.592 			"/>
			<path fill="#CDB03D" d="M118.836,109.932c0,0.432-0.146,0.805-0.457,1.118c-0.313,0.306-0.689,0.461-1.118,0.461h-1.587
				c-0.43,0-0.802-0.155-1.107-0.458c-0.316-0.313-0.463-0.689-0.463-1.121v-3.952c0-0.431,0.146-0.805,0.463-1.11
				c0.306-0.313,0.678-0.469,1.107-0.469h1.587c0.429,0,0.806,0.155,1.118,0.469c0.311,0.31,0.457,0.68,0.457,1.11V109.932
				L118.836,109.932z M117.249,105.849c-0.112-0.431-0.365-0.653-0.779-0.653c-0.221,0-0.404,0.077-0.56,0.229
				c-0.15,0.155-0.236,0.347-0.236,0.556v2.693L117.249,105.849L117.249,105.849z M117.261,109.932v-2.68l-1.561,2.805
				c0.075,0.44,0.339,0.66,0.77,0.66c0.22,0,0.409-0.071,0.559-0.232C117.186,110.336,117.261,110.147,117.261,109.932z"/>
		</g>
		<g>
			<polygon fill="none" stroke="#CDB03D" stroke-miterlimit="10" points="222.158,4.047 228.449,0.41 234.746,4.047 234.746,11.313 
				228.449,14.944 222.158,11.313 			"/>
			<polygon fill="#CDB03D" points="229.07,11.234 227.494,11.234 227.494,5.699 226.703,5.699 226.703,4.918 228.277,4.124 
				229.07,4.124 			"/>
		</g>
		<g>
			<polygon fill="none" stroke="#CDB03D" stroke-miterlimit="10" points="201.35,37.292 207.645,33.658 213.938,37.292 
				213.938,44.558 207.645,48.188 201.35,44.558 			"/>
			<polygon fill="#CDB03D" points="208.258,44.479 206.68,44.479 206.68,38.945 205.889,38.945 205.889,38.161 207.467,37.369 
				208.258,37.369 			"/>
		</g>
		<g>
			<polygon fill="none" stroke="#CDB03D" stroke-miterlimit="10" points="152.793,6.448 159.084,2.814 165.383,6.448 
				165.383,13.717 159.084,17.354 152.793,13.717 			"/>
			<polygon fill="#CDB03D" points="159.703,13.641 158.121,13.641 158.121,8.109 157.336,8.109 157.336,7.326 158.912,6.53 
				159.703,6.53 			"/>
		</g>
		<g>
			<polygon fill="none" stroke="#CDB03D" stroke-miterlimit="10" points="135.227,23.029 141.516,19.395 147.803,23.029 
				147.803,30.302 141.516,33.934 135.227,30.302 			"/>
			<polygon fill="#CDB03D" points="142.129,30.219 140.553,30.219 140.553,24.687 139.752,24.687 139.752,23.902 141.34,23.108 
				142.129,23.108 			"/>
		</g>
		<g>
			<polygon fill="none" stroke="#CDB03D" stroke-miterlimit="10" points="172.283,63.119 178.576,59.49 184.875,63.119 
				184.875,70.39 178.576,74.028 172.283,70.39 			"/>
			<polygon fill="#CDB03D" points="179.195,70.313 177.619,70.313 177.619,64.778 176.826,64.778 176.826,63.996 178.404,63.2 
				179.195,63.2 			"/>
		</g>
		<g>
			<polygon fill="none" stroke="#CDB03D" stroke-miterlimit="10" points="128.924,52.365 135.227,48.734 141.512,52.365 
				141.512,59.64 135.227,63.274 128.924,59.64 			"/>
			<polygon fill="#CDB03D" points="135.834,59.557 134.258,59.557 134.258,54.024 133.461,54.024 133.461,53.242 135.047,52.449 
				135.834,52.449 			"/>
		</g>
		<g>
			<polygon fill="none" stroke="#CDB03D" stroke-miterlimit="10" points="119.104,57.832 125.396,54.199 131.693,57.832 
				131.693,65.102 125.396,68.732 119.104,65.102 			"/>
			<polygon fill="#CDB03D" points="126.014,65.02 124.438,65.02 124.438,59.487 123.648,59.487 123.648,58.703 125.229,57.91 
				126.014,57.91 			"/>
		</g>
		<g>
			<polygon fill="none" stroke="#CDB03D" stroke-miterlimit="10" points="104.656,45.053 110.947,41.42 117.244,45.053 
				117.244,52.32 110.947,55.955 104.656,52.32 			"/>
			<polygon fill="#CDB03D" points="111.571,52.239 109.99,52.239 109.99,46.709 109.195,46.709 109.195,45.924 110.78,45.132 
				111.571,45.132 			"/>
		</g>
		<g>
			<polygon fill="none" stroke="#CDB03D" stroke-miterlimit="10" points="151.963,91.823 158.256,88.193 164.547,91.823 
				164.547,99.096 158.256,102.734 151.963,99.096 			"/>
			<polygon fill="#CDB03D" points="158.865,99.018 157.293,99.018 157.293,93.483 156.498,93.483 156.498,92.702 158.084,91.904 
				158.865,91.904 			"/>
		</g>
		<g>
			<polygon fill="none" stroke="#CDB03D" stroke-miterlimit="10" points="190.213,99.98 196.51,96.345 202.791,99.98 
				202.791,107.245 196.51,110.885 190.213,107.245 			"/>
			<polygon fill="#CDB03D" points="197.121,107.168 195.543,107.168 195.543,101.634 194.752,101.634 194.752,100.85 
				196.33,100.055 197.121,100.055 			"/>
		</g>
		<g>
			<polygon fill="none" stroke="#CDB03D" stroke-miterlimit="10" points="218.738,95.382 225.037,91.75 231.328,95.382 
				231.328,102.65 225.037,106.282 218.738,102.65 			"/>
			<polygon fill="#CDB03D" points="225.658,102.573 224.076,102.573 224.076,97.042 223.283,97.042 223.283,96.258 224.867,95.463 
				225.658,95.463 			"/>
		</g>
		<polygon fill="none" stroke="#CDB03D" stroke-miterlimit="10" points="193.32,101.862 199.613,98.227 205.904,101.862 
			205.904,109.127 199.613,112.767 193.32,109.127 		"/>
		<path fill-rule="evenodd" clip-rule="evenodd" fill="#CDB03D" d="M92.455,39.416l-2.968-0.089c0,0-0.033,0.146-0.093,0.406
			l-2.682-0.29c0,0-4.404,20.203-10.744,57.72s-4.877,75.842-4.877,75.842l2.313,0.501c0.002,0.081,0.004,0.176,0.005,0.249
			l1.996,0.185l0.005,0.001v-0.001l1.865,0.173c0,0-0.242-42.302,4.716-75.4C86.943,65.604,92.455,39.416,92.455,39.416z"/>
		<path fill-rule="evenodd" clip-rule="evenodd" fill="#CDB03D" d="M69.29,152.191c-4.146-8.096-7.97-6.281-10.464-10.146
			c-2.484-3.867-2.57-12.056-8.211-16.645c-0.736-0.602-1.425-1.088-2.077-1.504c-2.794-2.004-4.111-2.177-7.302-4.293
			c-1.081-1.003-2.173-2.395-3.371-4.575c-4.221-7.658-8.693-1.656-12.996-0.629c-4.307,1.026-23.197,28.581-23.197,28.581
			s0.116-0.085,0.328-0.237c-0.009,0.009-0.019,0.018-0.026,0.026C1.172,143.604,0.5,144.297,0,144.826
			c0.887-0.91,1.791-1.777,2.721-2.592c6.657-4.32,14.218-7.871,20.842-9.867c4.146-1.541,13.818-3.509,17.503-3.401
			c1.822,0.731,3.396,1.93,4.613,3.72c7.979,11.732,20.411,29.732,25.413,40.319c1.156,2.463,5.473,1.723,6.184,1.107
			C77.275,174.112,73.432,160.292,69.29,152.191z"/>
		<path fill-rule="evenodd" clip-rule="evenodd" fill="#CDB03D" d="M108.721,58.683c0.254-1.636-0.811-3.153-2.382-3.396
			c-0.014-0.002-0.026,0-0.04-0.002c0.135-0.273,0.242-0.563,0.293-0.881c0.253-1.636-0.817-3.146-2.383-3.393
			c-0.307-0.048-0.606-0.03-0.897,0.021c0.014-0.064,0.038-0.124,0.048-0.19c0.225-1.438-0.577-2.786-1.844-3.254
			c1.202-0.202,2.209-1.178,2.408-2.498c0.197-1.239-0.375-2.411-1.352-3.009c0.574-0.454,0.992-1.126,1.115-1.922
			c0.248-1.632-0.816-3.151-2.387-3.394c-1.091-0.172-2.134,0.339-2.754,1.213c0.039-0.284,0.097-0.58,0.168-0.886
			c0.852-0.159,1.641-0.688,2.102-1.528c0.154-0.286,0.246-0.586,0.305-0.887c0.815-0.411,1.434-1.209,1.603-2.197
			c0.65-0.247,1.229-0.716,1.594-1.385c0.111-0.208,0.19-0.423,0.251-0.641c1.436,0.043,2.726-1.021,2.959-2.528
			c0.258-1.63-0.813-3.149-2.377-3.396c-0.13-0.02-0.257-0.017-0.385-0.019c0.387-0.426,0.66-0.97,0.756-1.587
			c0.253-1.634-0.816-3.151-2.383-3.395c-0.229-0.035-0.453-0.034-0.674-0.014c-0.023-0.113-0.047-0.226-0.071-0.338
			c0.07-0.189,0.123-0.389,0.155-0.597c0.145-0.958-0.172-1.871-0.771-2.516c-0.009-0.06-0.017-0.116-0.024-0.175
			c0.998-0.344,1.787-1.23,1.966-2.379c0.253-1.635-0.817-3.153-2.387-3.395c-0.802-0.125-1.579,0.117-2.184,0.6
			c-0.031-0.025-0.059-0.055-0.088-0.081c0.718-0.442,1.255-1.188,1.395-2.108c0.247-1.627-0.812-3.146-2.382-3.391
			c-0.132-0.021-0.261-0.019-0.39-0.021c0.028-0.106,0.065-0.21,0.083-0.321c0.25-1.605-0.79-3.102-2.326-3.378
			c-0.225-0.28-0.503-0.523-0.836-0.704c-1.223-0.669-2.735-0.313-3.617,0.764c-0.358-0.273-0.776-0.473-1.248-0.546
			c-1.57-0.243-3.044,0.88-3.297,2.511c-0.07,0.455-0.029,0.897,0.088,1.31c-0.265-0.139-0.547-0.249-0.856-0.298
			c-1.565-0.244-3.038,0.88-3.297,2.512c-0.199,1.313,0.458,2.544,1.538,3.104c-0.96-0.036-1.852,0.425-2.412,1.19
			c-0.131-0.041-0.261-0.083-0.4-0.104c-1.57-0.244-3.037,0.878-3.297,2.51c-0.07,0.453-0.029,0.894,0.086,1.305
			c-0.261-0.136-0.539-0.244-0.843-0.291c-1.575-0.24-3.05,0.877-3.296,2.509c-0.209,1.317,0.451,2.55,1.54,3.11
			c-1.446-0.066-2.75,1.001-2.987,2.521c-0.244,1.584,0.756,3.047,2.25,3.354c-0.25,0.366-0.435,0.787-0.508,1.258
			c-0.138,0.894,0.129,1.745,0.647,2.38c-0.069,0.188-0.121,0.384-0.153,0.589c-0.069,0.451-0.03,0.89,0.084,1.299
			c-0.261-0.136-0.538-0.243-0.842-0.291c-1.564-0.24-3.043,0.885-3.295,2.515c-0.175,1.123,0.286,2.187,1.098,2.822
			c-0.014,0.101-0.014,0.198-0.018,0.297c-0.547,0.069-1.051,0.295-1.468,0.645c-1.277,0.139-2.362,1.142-2.57,2.519
			c-0.203,1.309,0.452,2.534,1.525,3.098c-0.959-0.035-1.843,0.429-2.402,1.194c-0.13-0.041-0.259-0.085-0.397-0.106
			c-1.576-0.244-3.049,0.875-3.297,2.51c-0.071,0.455-0.033,0.896,0.082,1.308c-0.262-0.137-0.541-0.245-0.846-0.293
			c-1.57-0.247-3.049,0.88-3.296,2.508c-0.208,1.315,0.45,2.544,1.527,3.104c-1.441-0.049-2.733,1.012-2.974,2.525
			c-0.239,1.579,0.758,3.044,2.244,3.358c-0.249,0.366-0.434,0.787-0.508,1.258c-0.136,0.896,0.135,1.751,0.658,2.387
			c-0.065,0.185-0.115,0.377-0.146,0.577c-0.072,0.454-0.031,0.896,0.085,1.309c-0.264-0.138-0.545-0.247-0.854-0.295
			c-1.564-0.242-3.037,0.881-3.296,2.515c-0.204,1.308,0.456,2.538,1.54,3.097c-1.446-0.056-2.74,1.007-2.977,2.53
			c-0.244,1.576,0.752,3.045,2.241,3.351c-0.249,0.366-0.432,0.788-0.503,1.26c-0.084,0.545-0.011,1.072,0.168,1.549
			c-0.057-0.012-0.109-0.035-0.168-0.044c-1.565-0.243-3.044,0.883-3.303,2.514c-0.202,1.309,0.455,2.533,1.529,3.095
			c-1.438-0.041-2.726,1.021-2.965,2.534c-0.244,1.583,0.759,3.049,2.246,3.354c-0.248,0.365-0.432,0.785-0.504,1.255
			c-0.258,1.636,0.813,3.151,2.371,3.394c0.934,0.146,1.827-0.201,2.458-0.843c0.037,0.079,0.085,0.151,0.129,0.227
			c-0.302,0.392-0.523,0.856-0.607,1.384c-0.239,1.583,0.759,3.049,2.251,3.366c-0.248,0.365-0.431,0.785-0.504,1.256
			c-0.252,1.619,0.807,3.147,2.377,3.39c0.631,0.098,1.242-0.034,1.771-0.324c0.366,0.344,0.826,0.584,1.345,0.69
			c-0.249,0.364-0.431,0.784-0.502,1.253c-0.258,1.63,0.807,3.151,2.371,3.394c0.875,0.135,1.711-0.161,2.331-0.722
			c0.062,0.065,0.124,0.132,0.187,0.196c-0.265,0.375-0.459,0.809-0.533,1.297c-0.25,1.583,0.752,3.051,2.239,3.36
			c-0.249,0.365-0.432,0.785-0.503,1.255c-0.252,1.629,0.817,3.145,2.389,3.39c0.927,0.146,1.819-0.199,2.448-0.841
			c0.395,0.845,1.167,1.479,2.133,1.626c0.015,0.002,0.03,0,0.045,0.002c0.307,1.055,1.163,1.889,2.288,2.064
			c1.442,0.227,2.787-0.714,3.193-2.128c1.241-0.171,2.287-1.161,2.49-2.511c0.056-0.358,0.038-0.709-0.025-1.045
			c1.5,0.139,2.881-0.951,3.117-2.517c0.066-0.418,0.043-0.828-0.051-1.212c1.067,0.025,2.128-0.543,2.691-1.576
			c0.101-0.188,0.178-0.381,0.237-0.576c1.346,0.113,2.583-0.76,2.991-2.084c0.037-0.111,0.061-0.223,0.086-0.335
			c0.006-0.035,0.02-0.066,0.025-0.102c0.002-0.009,0-0.018,0.002-0.027c0.042-0.241,0.064-0.483,0.048-0.723
			c0.128-0.122,0.253-0.244,0.38-0.366c0.211,0.09,0.431,0.164,0.667,0.2c1.565,0.242,3.038-0.885,3.296-2.518
			c0.046-0.298,0.034-0.587-0.002-0.87c0.32,0.207,0.685,0.352,1.082,0.412c1.564,0.249,3.039-0.879,3.297-2.512
			c0.107-0.708-0.044-1.389-0.365-1.96c1.089-0.29,1.972-1.229,2.162-2.453c0.231-1.495-0.66-2.892-2.025-3.292
			c0.027-0.038,0.053-0.077,0.078-0.116c1.46,0.089,2.793-0.981,3.032-2.521c0.259-1.632-0.812-3.155-2.376-3.399
			c-0.027-0.004-0.053,0-0.08-0.004c0.041-0.136,0.084-0.271,0.106-0.415c0.085-0.547,0.011-1.076-0.169-1.554
			c0.115-0.144,0.223-0.298,0.314-0.467c0.052-0.096,0.083-0.195,0.124-0.293c1.24-0.17,2.29-1.157,2.494-2.506
			c0.165-1.038-0.212-2.029-0.911-2.677c0.004-0.213-0.012-0.422-0.051-0.625c0.756-0.436,1.326-1.203,1.473-2.155
			c0.259-1.625-0.813-3.144-2.377-3.393c-0.316-0.049-0.625-0.029-0.926,0.026c-0.026-0.075-0.052-0.152-0.085-0.225
			c-0.026-0.371-0.113-0.727-0.262-1.052c1.182-0.221,2.165-1.188,2.37-2.49c0.201-1.325-0.471-2.563-1.568-3.114
			c0.04-0.04,0.085-0.075,0.122-0.118c0.343,0.242,0.735,0.418,1.173,0.486c1.568,0.244,3.048-0.883,3.295-2.512
			c0.156-1.001-0.188-1.958-0.838-2.604C108.205,60.095,108.602,59.448,108.721,58.683z M63.254,58.264
			c0.005,0.051,0.014,0.101,0.021,0.151c-0.092-0.045-0.182-0.092-0.279-0.127C63.084,58.286,63.168,58.273,63.254,58.264z
			 M78.104,25.029c0.005,0.051,0.014,0.1,0.021,0.15c-0.091-0.044-0.18-0.091-0.275-0.125C77.936,25.052,78.02,25.039,78.104,25.029
			z M59.792,75.034c-0.018-0.007-0.037-0.008-0.055-0.015c0.019,0,0.037,0.004,0.056,0.003
			C59.792,75.026,59.792,75.03,59.792,75.034z M58.359,81.057c-0.029,0.017-0.058,0.035-0.087,0.054
			c-0.01-0.041-0.028-0.078-0.04-0.118C58.274,81.014,58.316,81.036,58.359,81.057z M88.015,6.66
			c-0.01-0.041-0.029-0.078-0.041-0.118c0.043,0.021,0.085,0.044,0.128,0.064C88.072,6.623,88.043,6.643,88.015,6.66z
			 M79.381,16.883c-0.01-0.039-0.028-0.074-0.039-0.113c0.041,0.021,0.08,0.043,0.122,0.062
			C79.436,16.848,79.408,16.865,79.381,16.883z M76.121,33.617c-0.01-0.041-0.028-0.078-0.04-0.118
			c0.043,0.022,0.085,0.044,0.128,0.064C76.18,33.58,76.15,33.599,76.121,33.617z M64.525,50.124
			c-0.01-0.043-0.029-0.082-0.042-0.125c0.045,0.023,0.089,0.047,0.136,0.067C64.588,50.085,64.557,50.105,64.525,50.124z
			 M61.269,66.852c-0.01-0.043-0.029-0.081-0.041-0.123c0.043,0.023,0.087,0.046,0.132,0.066
			C61.328,66.813,61.299,66.832,61.269,66.852z M56.998,89.254c0.004,0.052,0.014,0.103,0.021,0.154
			c-0.098-0.048-0.194-0.095-0.298-0.131C56.814,89.275,56.905,89.265,56.998,89.254z"/>
		<g>
			<polygon fill="none" stroke="#CDB03D" stroke-miterlimit="10" points="151.971,37.335 158.256,33.703 164.559,37.335 
				164.559,44.605 158.256,48.237 151.971,44.605 			"/>
			<path fill="#CDB03D" d="M160.479,39.867c0,0.403-0.146,0.752-0.439,1.038c-0.289,0.288-0.633,0.432-1.039,0.432h-1.484v2.948
				h-1.469v-6.631H159c0.4,0,0.748,0.143,1.039,0.434c0.293,0.283,0.439,0.637,0.439,1.037V39.867L160.479,39.867z M159,39.867
				v-0.742c0-0.201-0.078-0.379-0.223-0.516c-0.135-0.143-0.307-0.219-0.521-0.219h-0.74v2.211h0.74c0.209,0,0.383-0.07,0.521-0.217
				C158.922,40.238,159,40.061,159,39.867z"/>
		</g>
		<g>
			<polygon fill="none" stroke="#CDB03D" stroke-miterlimit="10" points="170.496,46.576 176.785,42.941 183.076,46.576 
				183.076,53.846 176.785,57.478 170.496,53.846 			"/>
			<polygon fill="#CDB03D" points="179.367,53.525 177.883,53.525 175.674,50.949 175.674,53.525 174.207,53.525 174.207,46.896 
				175.674,46.896 175.674,49.6 178.061,46.896 179.373,46.896 176.414,50.207 			"/>
		</g>
		<g>
			<polygon fill="none" stroke="#CDB03D" stroke-miterlimit="10" points="160.137,59.388 166.439,55.754 172.721,59.388 
				172.721,66.661 166.439,70.292 160.137,66.661 			"/>
			<path fill-rule="evenodd" clip-rule="evenodd" fill="#CDB03D" d="M163.133,62.104v0.099l0.199,0.065
				c0.264-0.187,0.85-0.634,1.242-0.64c0.479,0,0.619,0.275,0.984,0.309v0.104c-0.607,0-1.246,0.268-1.244,0.83v0.311
				c0.008,0.568,0.707,0.834,1.254,0.877c-0.4,0.285-0.66,0.233-1.037,0.416l-1.246-0.637l-0.152,0.02v0.106l0.217-0.055
				c0.191,0.378,0.713,0.725,1.295,0.725h0.045c0.424,0,1.326-0.575,1.396-0.575h0.307c0.381-0.008-0.145,0.355-0.145,0.668
				c-0.594,0.16,0.047,0.52-1.592,0.526l-0.109,0.169l0.199-0.121c0.074,0.104,0.117,0.154,0.307,0.154h0.479
				c0.586-0.006,1.094-1.07,1.322-1.496l0.469-0.066c-0.045,0.21-0.156,0.26-0.156,0.469c0.004,0.326,0.539,0.824,0.887,0.824
				l0.313-0.007c0.172,0,0.199-0.036,0.359-0.056v0.211l0.129-0.012l-0.135-0.297c-0.518,0-1.283-0.133-1.289-0.569v-0.255
				c0-0.115,0.09-0.568,0.252-0.568h0.162v0.154h0.15c-0.053,0.221-0.107,0.095-0.107,0.258v0.205c0,0.184,0.414,0.515,0.631,0.515
				h0.154c0.451,0,0.721-0.403,0.881-0.733l0.143,0.121l0.037-0.072l-0.289-0.098c-0.061,0.225-0.572,0.572-0.771,0.577
				c-0.215,0-0.387-0.114-0.521-0.206c0-0.167,0.016-0.463-0.004-0.619c-0.041-0.318-0.176-0.148-0.201-0.46
				c0.07,0.028,0.295,0.097,0.414,0.097c0.174,0,0.4-0.094,0.512-0.157c-0.027-0.142-0.055-0.1-0.055-0.202
				c0-0.123,0.023-0.068,0.055-0.207c-0.111-0.065-0.344-0.156-0.516-0.156c-0.154,0-0.27,0.065-0.414,0.107
				c0.027-0.305,0.145-0.154,0.199-0.425c0.02-0.134,0.006-0.509,0.006-0.663c0.092-0.066,0.307-0.211,0.461-0.211
				c0.422-0.006,0.721,0.465,0.939,0.631l0.148-0.168c-0.367,0.078-0.088-0.16-0.428-0.401c-0.135-0.095-0.506-0.268-0.713-0.268
				h-0.061c-0.23,0-0.607,0.394-0.607,0.522v0.198c0,0.177,0.047,0.049,0.102,0.265h-0.148v0.155h-0.162
				c-0.158,0-0.266-0.454-0.266-0.563v-0.26c-0.002-0.434,0.775-0.574,1.307-0.568l0.088-0.32h-0.098v0.211l-0.471-0.051h-0.207
				c-0.326,0-0.875,0.503-0.875,0.828c0,0.213,0.111,0.26,0.166,0.475l-0.469-0.055c-0.316-0.473-0.666-1.499-1.457-1.492h-0.361
				c-0.197,0-0.234,0.049-0.309,0.155l-0.213-0.093l0.107,0.143c0.619,0,0.998-0.055,1.307,0.293
				c0.094,0.11,0.852,0.887,0.455,0.891h-0.307c-0.107,0-0.98-0.564-1.4-0.561h-0.055c-0.633,0-1.084,0.398-1.35,0.79
				L163.133,62.104z"/>
		</g>
		<g>
			<polygon fill="none" stroke="#CDB03D" stroke-miterlimit="10" points="114.652,86.923 120.949,83.288 127.24,86.923 
				127.24,94.193 120.949,97.829 114.652,94.193 			"/>
			<path fill-rule="evenodd" clip-rule="evenodd" fill="#CDB03D" d="M122.863,89.463c0,0-0.07-1.074-0.441-1.393
				c-0.381-0.303-0.914-0.539-1.375-0.49c-0.453,0.053-1.189,0.177-1.576,0.68c-0.367,0.521-0.404,0.894-0.27,1.38
				c0.141,0.474,0.35,0.729,0.35,0.729l-0.641,0.027l0.012,0.677l0.893,0.013c0,0,0.215,0.206,0.139,0.569
				c-0.063,0.356-0.549,1.037-0.957,1.179c0.129,0.279,0.346,0.649,0.346,0.649s0.672-0.272,0.967-0.272
				c0.289,0,0.496,0.007,1.441,0.272c0.945,0.263,1.215-0.407,1.232-0.377l-0.432-0.886c0,0-0.264,0.34-0.516,0.34
				c-0.268,0-0.834-0.138-1.055-0.205c-0.209-0.067-0.424-0.047-0.424-0.047s0.041-0.041,0.215-0.465
				c0.172-0.431-0.006-0.751-0.006-0.751h0.916l0.01-0.689l-1.033-0.011c0,0-0.447-0.768-0.447-1.118
				c0-0.34,0.346-0.601,0.674-0.673c0.322-0.078,0.77,0.05,0.914,0.293c0.15,0.235,0.086,0.562,0.086,0.562L122.863,89.463z"/>
		</g>
	</g>
</g>
<path fill="#CDB03D" d="M96.467,161.145c0.143-0.428,0.343-0.728,0.613-0.94c0.272-0.199,0.601-0.299,0.985-0.299
	c0.542,0,0.941,0.172,1.17,0.512c0.241,0.327,0.356,0.925,0.356,1.769v2.549c0,0.642-0.128,1.114-0.371,1.397
	c-0.257,0.301-0.641,0.456-1.185,0.456c-0.371,0-0.698-0.1-0.97-0.284c-0.257-0.186-0.543-0.514-0.813-0.998
	c-0.414-0.698-0.972-1.225-1.643-1.553c-0.67-0.342-1.498-0.514-2.467-0.514c-1.215,0-2.2,0.398-2.983,1.197
	c-0.758,0.799-1.157,1.811-1.157,3.035c0,1.283,0.399,2.324,1.2,3.107c0.799,0.797,1.868,1.184,3.224,1.184
	c1.229,0,2.442-0.342,3.654-1.014c1.213-0.684,1.941-1.025,2.198-1.025c0.399,0,0.728,0.143,0.983,0.441
	c0.258,0.285,0.386,0.656,0.386,1.113c0,0.982-0.741,1.852-2.226,2.607c-1.483,0.77-3.239,1.154-5.279,1.154
	c-2.499,0-4.54-0.715-6.109-2.109c-1.569-1.41-2.354-3.223-2.354-5.43c0-2.166,0.77-3.961,2.325-5.403
	c1.557-1.438,3.512-2.165,5.88-2.165c0.814,0,1.6,0.115,2.356,0.299C94.998,160.433,95.739,160.73,96.467,161.145L96.467,161.145z
	 M110.31,171.249h3.668c0.715,0,1.215,0.127,1.5,0.385c0.3,0.256,0.441,0.684,0.441,1.297s-0.142,1.041-0.441,1.311
	c-0.285,0.271-0.785,0.414-1.5,0.414h-8.69c-0.7,0-1.214-0.143-1.513-0.414c-0.3-0.27-0.457-0.697-0.457-1.311
	s0.143-1.041,0.442-1.297c0.313-0.258,0.814-0.385,1.527-0.385h1.184v-7.539h-0.67c-0.7,0-1.2-0.129-1.5-0.398
	c-0.299-0.259-0.44-0.7-0.44-1.313c0-0.598,0.142-1.025,0.44-1.295c0.286-0.257,0.786-0.399,1.5-0.399h3.311
	c0.285,0,0.5,0.07,0.657,0.185c0.156,0.113,0.228,0.285,0.228,0.484v2.31c1.142-1.226,2.198-2.095,3.169-2.608
	c0.971-0.513,2.027-0.769,3.153-0.769c1.028,0,1.827,0.229,2.427,0.696c0.584,0.457,0.885,1.07,0.885,1.854
	c0,0.598-0.199,1.099-0.613,1.483s-0.929,0.583-1.571,0.583c-0.455,0-1.012-0.171-1.654-0.513s-1.086-0.514-1.328-0.514
	c-0.485,0-1.069,0.215-1.754,0.672c-0.687,0.454-1.484,1.139-2.399,2.051V171.249z M130.162,171.763
	c1.213,0,2.212-0.414,2.998-1.213c0.77-0.813,1.154-1.838,1.154-3.078c0-1.254-0.369-2.266-1.141-3.049
	c-0.77-0.785-1.77-1.184-3.012-1.184c-1.199,0-2.197,0.398-2.983,1.197c-0.784,0.783-1.17,1.795-1.17,3.035s0.386,2.266,1.17,3.078
	C127.965,171.349,128.963,171.763,130.162,171.763L130.162,171.763z M138.639,167.501c0,2.207-0.783,4.02-2.34,5.43
	c-1.569,1.395-3.61,2.109-6.137,2.109c-2.497,0-4.539-0.715-6.122-2.123c-1.569-1.412-2.355-3.221-2.355-5.416
	c0-2.209,0.786-4.02,2.355-5.417c1.583-1.41,3.625-2.108,6.122-2.108c2.526,0,4.567,0.698,6.137,2.108
	C137.855,163.481,138.639,165.292,138.639,167.501L138.639,167.501z M146.446,167.272c0,1.184,0.329,2.152,0.985,2.908
	c0.671,0.754,1.513,1.141,2.54,1.141s1.87-0.387,2.54-1.141c0.672-0.77,1-1.738,1-2.908c0-1.182-0.328-2.138-1-2.893
	c-0.655-0.77-1.513-1.141-2.54-1.141s-1.869,0.371-2.54,1.141C146.775,165.135,146.446,166.091,146.446,167.272L146.446,167.272z
	 M148.358,177.405c0.7,0,1.199,0.143,1.5,0.412c0.284,0.271,0.44,0.701,0.44,1.313c0,0.613-0.156,1.039-0.44,1.297
	c-0.301,0.256-0.8,0.385-1.5,0.385h-6.594c-0.713,0-1.212-0.129-1.498-0.385c-0.299-0.258-0.441-0.684-0.441-1.297
	c0-0.611,0.143-1.041,0.441-1.313c0.286-0.27,0.785-0.412,1.498-0.412h0.915V163.71h-0.243c-0.558,0-0.971-0.143-1.256-0.428
	c-0.3-0.3-0.443-0.728-0.443-1.284c0-0.598,0.157-1.025,0.443-1.295c0.299-0.257,0.799-0.399,1.499-0.399h2.396
	c0.3,0,0.528,0.057,0.672,0.17c0.143,0.101,0.214,0.271,0.214,0.47v1.127c0.527-0.713,1.171-1.24,1.911-1.597
	c0.757-0.355,1.599-0.541,2.541-0.541c2.127,0,3.896,0.685,5.281,2.036c1.384,1.356,2.082,3.066,2.082,5.117
	c0,2.153-0.685,3.935-2.039,5.347c-1.357,1.424-3.069,2.123-5.138,2.123c-0.814,0-1.599-0.115-2.327-0.357
	c-0.729-0.227-1.355-0.57-1.898-1.012v4.219H148.358z M167.826,171.733c1.04,0,1.884-0.385,2.553-1.154
	c0.658-0.756,0.986-1.74,0.986-2.922c0-1.169-0.328-2.139-1-2.909c-0.67-0.753-1.512-1.138-2.539-1.138
	c-1.014,0-1.854,0.385-2.528,1.138c-0.669,0.771-0.997,1.74-0.997,2.909c0,1.182,0.328,2.166,0.997,2.922
	C165.957,171.349,166.798,171.733,167.826,171.733L167.826,171.733z M169.366,157.782c-0.713,0-1.227-0.143-1.526-0.414
	c-0.299-0.271-0.442-0.714-0.442-1.312c0-0.612,0.144-1.055,0.442-1.326c0.3-0.271,0.813-0.398,1.526-0.398h4.824
	c0.356,0,0.6,0.072,0.729,0.215s0.2,0.412,0.2,0.812v15.891h0.256c0.557,0,0.986,0.143,1.256,0.428
	c0.286,0.283,0.43,0.697,0.43,1.254c0,0.613-0.158,1.041-0.444,1.311c-0.299,0.271-0.798,0.414-1.497,0.414h-2.385
	c-0.3,0-0.528-0.059-0.684-0.186c-0.172-0.115-0.244-0.285-0.244-0.484v-1.084c-0.527,0.697-1.184,1.227-1.968,1.598
	c-0.786,0.354-1.685,0.541-2.685,0.541c-2.026,0-3.726-0.699-5.095-2.082c-1.37-1.381-2.055-3.092-2.055-5.174
	c0-2.107,0.685-3.904,2.055-5.343c1.384-1.439,3.083-2.167,5.095-2.167c0.813,0,1.584,0.129,2.313,0.37
	c0.729,0.256,1.385,0.613,1.97,1.068v-3.931H169.366z M190.232,170.649v-2.395c-0.527-0.113-0.998-0.199-1.427-0.256
	s-0.813-0.086-1.186-0.086c-1.185,0-2.097,0.201-2.725,0.584c-0.628,0.4-0.957,0.955-0.957,1.697c0,0.541,0.215,0.955,0.643,1.27
	c0.428,0.299,1.014,0.455,1.77,0.455c0.714,0,1.384-0.113,2.026-0.314C189.02,171.392,189.634,171.079,190.232,170.649
	L190.232,170.649z M194,165.491v5.758h0.242c0.557,0,0.983,0.143,1.286,0.441c0.3,0.299,0.441,0.713,0.441,1.268
	c0,0.6-0.157,1.027-0.458,1.299c-0.313,0.256-0.813,0.398-1.512,0.398h-1.47c-0.514,0-0.899-0.1-1.155-0.301
	c-0.258-0.199-0.458-0.555-0.628-1.066c-0.858,0.568-1.771,0.996-2.741,1.295c-0.956,0.299-1.926,0.457-2.912,0.457
	c-1.684,0-2.996-0.414-3.938-1.24c-0.956-0.842-1.427-1.967-1.427-3.406c0-1.555,0.613-2.75,1.854-3.62
	c1.229-0.854,2.955-1.282,5.182-1.282c0.57,0,1.142,0.027,1.713,0.086c0.585,0.041,1.169,0.127,1.755,0.242v-0.301
	c0-0.927-0.215-1.639-0.67-2.123c-0.458-0.485-1.129-0.728-2-0.728c-0.699,0-1.569,0.258-2.64,0.757
	c-1.056,0.514-1.812,0.77-2.256,0.77c-0.526,0-0.94-0.143-1.24-0.412c-0.3-0.271-0.456-0.657-0.456-1.142
	c0-0.842,0.612-1.512,1.842-1.996c1.227-0.497,2.896-0.739,5.009-0.739c2.211,0,3.795,0.428,4.737,1.267
	C193.515,162.027,194,163.468,194,165.491L194,165.491z M200.451,164.578c-0.7,0-1.2-0.128-1.484-0.397
	c-0.3-0.271-0.456-0.713-0.456-1.327c0-0.598,0.143-1.025,0.44-1.283c0.287-0.27,0.8-0.398,1.5-0.398h1.47v-4.26
	c0-0.357,0.172-0.67,0.528-0.912c0.357-0.257,0.8-0.385,1.356-0.385c0.7,0,1.184,0.143,1.483,0.441
	c0.315,0.285,0.457,0.783,0.457,1.497v3.618h4.738c0.712,0,1.213,0.129,1.526,0.398c0.3,0.258,0.442,0.686,0.442,1.283
	c0,0.614-0.157,1.056-0.456,1.327c-0.3,0.27-0.813,0.397-1.513,0.397h-4.738v3.978c0,1.111,0.171,1.867,0.513,2.281
	c0.357,0.426,0.957,0.639,1.799,0.639c0.813,0,1.756-0.242,2.854-0.697c1.099-0.471,1.841-0.697,2.213-0.697
	c0.427,0,0.797,0.156,1.098,0.498c0.313,0.342,0.457,0.756,0.457,1.281c0,0.742-0.728,1.441-2.184,2.111
	c-1.456,0.654-3.097,0.996-4.909,0.996c-1.056,0-1.999-0.143-2.813-0.441c-0.798-0.285-1.44-0.699-1.896-1.238
	c-0.359-0.4-0.602-0.9-0.744-1.482c-0.142-0.572-0.214-1.541-0.214-2.908v-0.342v-3.978H200.451z M228.553,170.649v-2.395
	c-0.527-0.113-1-0.199-1.428-0.256c-0.413-0.057-0.813-0.086-1.186-0.086c-1.183,0-2.099,0.201-2.727,0.584
	c-0.627,0.4-0.954,0.955-0.954,1.697c0,0.541,0.214,0.955,0.643,1.27c0.427,0.299,1.012,0.455,1.77,0.455
	c0.714,0,1.397-0.113,2.025-0.314C227.339,171.392,227.952,171.079,228.553,170.649L228.553,170.649z M232.32,165.491v5.758h0.242
	c0.557,0,0.984,0.143,1.285,0.441c0.299,0.299,0.442,0.713,0.442,1.268c0,0.6-0.157,1.027-0.458,1.299
	c-0.299,0.256-0.813,0.398-1.512,0.398h-1.455c-0.528,0-0.915-0.1-1.172-0.301c-0.256-0.199-0.455-0.555-0.627-1.066
	c-0.857,0.568-1.77,0.996-2.727,1.295c-0.971,0.299-1.941,0.457-2.926,0.457c-1.684,0-2.997-0.414-3.938-1.24
	c-0.958-0.842-1.429-1.967-1.429-3.406c0-1.555,0.614-2.75,1.855-3.62c1.227-0.854,2.954-1.282,5.194-1.282
	c0.557,0,1.129,0.027,1.713,0.086c0.571,0.041,1.157,0.127,1.742,0.242v-0.301c0-0.927-0.215-1.639-0.672-2.123
	c-0.455-0.485-1.112-0.728-1.997-0.728c-0.7,0-1.571,0.258-2.627,0.757c-1.069,0.514-1.826,0.77-2.269,0.77
	c-0.527,0-0.942-0.143-1.242-0.412c-0.3-0.271-0.456-0.657-0.456-1.142c0-0.842,0.613-1.512,1.84-1.996
	c1.241-0.497,2.913-0.739,5.025-0.739c2.197,0,3.78,0.428,4.724,1.267C231.834,162.027,232.32,163.468,232.32,165.491
	L232.32,165.491z"/>
<path fill="#CDB03F" d="M93.103,140.799l-1.099,3.235c-0.357,1.069-0.827,1.882-1.414,2.451c-0.599,0.556-1.297,0.841-2.083,0.841
	c-1.013,0-1.855-0.327-2.499-0.998c-0.653-0.669-0.983-1.51-0.983-2.521c0-0.398,0.029-0.784,0.086-1.14
	c0.072-0.343,0.143-0.67,0.27-0.97l8.336-22.602c0.599-1.625,1.355-2.822,2.27-3.59c0.899-0.756,2.012-1.141,3.325-1.141
	c1.256,0,2.327,0.37,3.255,1.096c0.913,0.728,1.612,1.783,2.111,3.15l8.121,22.973c0.172,0.499,0.284,0.926,0.372,1.311
	c0.084,0.369,0.112,0.713,0.112,1.012c0,1.012-0.342,1.839-1.014,2.467c-0.67,0.641-1.541,0.953-2.582,0.953
	c-0.956,0-1.742-0.285-2.355-0.869c-0.629-0.599-1.112-1.482-1.484-2.693l-0.899-2.965H93.103z M95.171,134.088h7.664l-3.695-11.871
	L95.171,134.088z M130.965,143.849c-0.783,1.126-1.712,1.952-2.782,2.509c-1.071,0.542-2.298,0.826-3.682,0.826
	c-2.869,0-5.297-1.183-7.293-3.549c-1.985-2.351-2.982-5.286-2.982-8.791c0-3.535,1.084-6.498,3.224-8.922
	c2.141-2.408,4.754-3.619,7.836-3.619c1.198,0,2.27,0.199,3.196,0.612c0.928,0.413,1.756,1.055,2.483,1.909
	c0.371-0.697,0.855-1.254,1.413-1.652c0.571-0.414,1.143-0.613,1.728-0.613c1.212,0,2.113,0.428,2.696,1.268
	c0.572,0.842,0.871,2.139,0.871,3.877v14.266c0,2.621-0.129,4.674-0.385,6.141c-0.258,1.469-0.699,2.694-1.299,3.664
	c-1.027,1.738-2.469,3.063-4.297,3.961c-1.826,0.896-3.994,1.354-6.507,1.354c-3.054,0-5.566-0.485-7.493-1.469
	c-1.94-0.983-2.91-2.223-2.91-3.72c0-0.897,0.285-1.639,0.87-2.223c0.57-0.584,1.312-0.883,2.184-0.883
	c0.428,0,1.456,0.313,3.068,0.954c1.625,0.627,3.14,0.94,4.552,0.94c1.757,0,3.126-0.513,4.097-1.567
	c0.97-1.026,1.455-2.509,1.455-4.403c0-0.086-0.015-0.229-0.028-0.428C130.965,144.106,130.965,143.963,130.965,143.849
	L130.965,143.849z M121.589,134.844c0,1.781,0.429,3.22,1.299,4.303c0.855,1.111,1.97,1.652,3.34,1.652
	c1.369,0,2.482-0.555,3.367-1.652c0.872-1.111,1.313-2.551,1.313-4.303c0-1.711-0.441-3.107-1.313-4.19
	c-0.885-1.069-1.998-1.61-3.367-1.61c-1.37,0-2.484,0.541-3.34,1.61C122.018,131.736,121.589,133.133,121.589,134.844
	L121.589,134.844z M142.556,141.969v-14.266c0-1.738,0.283-3.021,0.869-3.877c0.57-0.84,1.456-1.253,2.669-1.253
	c0.713,0,1.355,0.185,1.912,0.556s1.041,0.94,1.47,1.711c0.742-0.799,1.514-1.397,2.341-1.797c0.828-0.413,1.642-0.612,2.482-0.612
	c0.986,0,1.827,0.342,2.541,1.04s1.071,1.524,1.071,2.48c0,1.424-1.313,2.607-3.927,3.562c-0.94,0.343-1.625,0.614-2.11,0.841
	c-0.885,0.428-1.484,0.898-1.771,1.411c-0.301,0.513-0.442,1.468-0.442,2.821v7.383c0,1.738-0.299,3.035-0.885,3.89
	c-0.585,0.841-1.484,1.269-2.683,1.269c-1.213,0-2.099-0.428-2.669-1.269C142.839,145.004,142.556,143.707,142.556,141.969
	L142.556,141.969z M159.336,116.588c0-1.127,0.401-2.094,1.215-2.893c0.814-0.813,1.769-1.212,2.896-1.212
	c1.114,0,2.07,0.399,2.869,1.212c0.785,0.799,1.185,1.766,1.185,2.893c0,1.141-0.386,2.109-1.185,2.907
	c-0.771,0.784-1.741,1.183-2.869,1.183c-1.155,0-2.126-0.398-2.925-1.183C159.737,118.697,159.336,117.729,159.336,116.588
	L159.336,116.588z M166.959,141.969c0,1.752-0.285,3.063-0.855,3.904c-0.571,0.842-1.456,1.254-2.656,1.254
	c-1.198,0-2.082-0.428-2.667-1.269c-0.6-0.854-0.886-2.151-0.886-3.89v-14.266c0-1.738,0.286-3.021,0.87-3.877
	c0.585-0.84,1.47-1.253,2.683-1.253c1.2,0,2.085,0.413,2.656,1.253c0.57,0.855,0.855,2.139,0.855,3.877V141.969z M178.006,134.771
	c0,1.81,0.427,3.278,1.298,4.375c0.855,1.111,1.983,1.668,3.383,1.668c1.398,0,2.526-0.557,3.382-1.682
	c0.87-1.111,1.299-2.565,1.299-4.361c0-1.752-0.44-3.178-1.326-4.275c-0.887-1.111-1.999-1.667-3.354-1.667
	c-1.384,0-2.498,0.556-3.383,1.652C178.433,131.58,178.006,133.006,178.006,134.771L178.006,134.771z M170.655,134.857
	c0-3.706,1.129-6.727,3.396-9.121c2.256-2.365,5.152-3.563,8.635-3.563c3.51,0,6.379,1.184,8.634,3.563
	c2.241,2.365,3.354,5.402,3.354,9.121c0,3.705-1.113,6.74-3.354,9.119c-2.255,2.381-5.124,3.578-8.634,3.578
	c-3.482,0-6.379-1.197-8.635-3.592C171.784,141.584,170.655,138.548,170.655,134.857L170.655,134.857z M199.627,129.398h-0.257
	c-1.256,0-2.227-0.27-2.939-0.826c-0.714-0.541-1.07-1.283-1.07-2.223c0-0.969,0.356-1.725,1.07-2.237
	c0.713-0.528,1.783-0.841,3.196-0.927v-3.092c0-1.754,0.3-3.051,0.884-3.905c0.587-0.841,1.471-1.268,2.685-1.268
	c1.184,0,2.069,0.427,2.641,1.268c0.584,0.854,0.87,2.151,0.87,3.905v3.092h0.628c1.411,0,2.498,0.271,3.282,0.842
	c0.785,0.555,1.185,1.324,1.185,2.309c0,1.025-0.386,1.781-1.142,2.294c-0.758,0.513-1.885,0.769-3.383,0.769h-0.57v12.57
	c0,1.752-0.286,3.063-0.856,3.904c-0.571,0.842-1.456,1.254-2.654,1.254c-1.214,0-2.098-0.428-2.685-1.269
	c-0.584-0.854-0.884-2.151-0.884-3.89V129.398z M228.528,144.676c-0.715,0.869-1.584,1.539-2.611,2.01
	c-1.015,0.456-2.127,0.684-3.326,0.684c-3.041,0-5.608-1.182-7.678-3.576c-2.084-2.395-3.112-5.373-3.112-8.949
	c0-3.535,1.07-6.498,3.211-8.922c2.142-2.408,4.753-3.619,7.835-3.619c1.199,0,2.271,0.199,3.211,0.612
	c0.928,0.413,1.756,1.055,2.471,1.909c0.414-0.74,0.898-1.311,1.483-1.695c0.57-0.385,1.198-0.57,1.897-0.57
	c1.185,0,2.084,0.428,2.655,1.255c0.57,0.841,0.856,2.138,0.856,3.89v14.266c0,1.738-0.299,3.035-0.885,3.89
	c-0.571,0.841-1.442,1.269-2.627,1.269c-0.783,0-1.455-0.199-1.996-0.584C229.37,146.145,228.913,145.518,228.528,144.676
	L228.528,144.676z M219.15,134.758c0,1.752,0.429,3.148,1.284,4.203c0.843,1.069,1.954,1.596,3.313,1.596
	c1.34,0,2.439-0.54,3.281-1.609c0.856-1.082,1.285-2.465,1.285-4.189c0-1.668-0.429-3.035-1.285-4.091
	c-0.869-1.054-1.955-1.581-3.281-1.581c-1.342,0-2.44,0.527-3.313,1.581C219.579,131.707,219.15,133.076,219.15,134.758
	L219.15,134.758z"/>
<g>
	<path fill="#CDB03D" d="M91.432,191.212l2.186,0.693c-0.335,1.217-0.893,2.121-1.671,2.713c-0.779,0.592-1.768,0.887-2.966,0.887
		c-1.481,0-2.699-0.506-3.653-1.518c-0.954-1.014-1.432-2.396-1.432-4.154c0-1.857,0.479-3.299,1.438-4.326
		c0.96-1.029,2.221-1.543,3.784-1.543c1.365,0,2.474,0.404,3.326,1.211c0.508,0.477,0.889,1.162,1.143,2.055l-2.23,0.533
		c-0.133-0.578-0.408-1.035-0.826-1.369c-0.419-0.336-0.928-0.504-1.526-0.504c-0.827,0-1.499,0.297-2.014,0.891
		c-0.516,0.596-0.772,1.557-0.772,2.887c0,1.41,0.254,2.416,0.761,3.014c0.508,0.6,1.167,0.898,1.979,0.898
		c0.599,0,1.114-0.189,1.545-0.57C90.935,192.628,91.244,192.028,91.432,191.212z"/>
	<path fill="#CDB03D" d="M95.04,191.159c0-0.711,0.176-1.398,0.525-2.064c0.351-0.664,0.847-1.172,1.488-1.521
		c0.642-0.352,1.359-0.525,2.15-0.525c1.224,0,2.226,0.396,3.007,1.191c0.782,0.795,1.173,1.797,1.173,3.01
		c0,1.225-0.395,2.238-1.184,3.043c-0.789,0.803-1.783,1.205-2.98,1.205c-0.741,0-1.448-0.166-2.12-0.502
		c-0.673-0.334-1.184-0.826-1.534-1.473C95.216,192.876,95.04,192.087,95.04,191.159z M97.232,191.272
		c0,0.803,0.19,1.416,0.571,1.842c0.381,0.428,0.85,0.641,1.408,0.641s1.026-0.213,1.404-0.641c0.378-0.426,0.567-1.045,0.567-1.857
		c0-0.791-0.189-1.4-0.567-1.826s-0.846-0.641-1.404-0.641s-1.027,0.215-1.408,0.641S97.232,190.472,97.232,191.272z"/>
	<path fill="#CDB03D" d="M112.412,195.315h-2.139v-4.127c0-0.873-0.046-1.438-0.138-1.693c-0.091-0.256-0.239-0.455-0.445-0.598
		c-0.205-0.143-0.452-0.213-0.742-0.213c-0.37,0-0.703,0.102-0.997,0.305s-0.496,0.471-0.605,0.807
		c-0.108,0.334-0.163,0.955-0.163,1.857v3.662h-2.14v-8.086h1.987v1.188c0.705-0.912,1.594-1.369,2.664-1.369
		c0.473,0,0.903,0.084,1.294,0.254c0.392,0.172,0.687,0.389,0.888,0.652c0.2,0.264,0.34,0.563,0.418,0.898
		c0.079,0.334,0.118,0.814,0.118,1.438V195.315z"/>
	<path fill="#CDB03D" d="M121.936,195.315h-2.139v-4.127c0-0.873-0.046-1.438-0.138-1.693c-0.091-0.256-0.239-0.455-0.445-0.598
		c-0.205-0.143-0.452-0.213-0.742-0.213c-0.37,0-0.703,0.102-0.997,0.305s-0.496,0.471-0.605,0.807
		c-0.108,0.334-0.163,0.955-0.163,1.857v3.662h-2.14v-8.086h1.987v1.188c0.705-0.912,1.594-1.369,2.664-1.369
		c0.473,0,0.903,0.084,1.294,0.254c0.392,0.172,0.687,0.389,0.888,0.652c0.2,0.264,0.34,0.563,0.418,0.898
		c0.079,0.334,0.118,0.814,0.118,1.438V195.315z"/>
	<path fill="#CDB03D" d="M128.787,192.741l2.132,0.359c-0.274,0.781-0.707,1.375-1.298,1.785c-0.592,0.408-1.331,0.611-2.22,0.611
		c-1.405,0-2.446-0.459-3.121-1.377c-0.532-0.736-0.799-1.664-0.799-2.787c0-1.34,0.35-2.389,1.05-3.146
		c0.701-0.76,1.586-1.139,2.657-1.139c1.203,0,2.151,0.396,2.847,1.191s1.028,2.012,0.998,3.65h-5.359
		c0.015,0.635,0.188,1.127,0.518,1.48s0.741,0.529,1.233,0.529c0.335,0,0.616-0.092,0.845-0.275
		C128.498,193.442,128.67,193.147,128.787,192.741z M128.909,190.579c-0.016-0.619-0.176-1.09-0.479-1.412
		c-0.305-0.322-0.676-0.482-1.111-0.482c-0.468,0-0.854,0.17-1.157,0.51c-0.305,0.34-0.455,0.803-0.449,1.385H128.909z"/>
	<path fill="#CDB03D" d="M139.825,189.62l-2.108,0.381c-0.071-0.42-0.232-0.738-0.483-0.951s-0.577-0.32-0.979-0.32
		c-0.532,0-0.958,0.186-1.274,0.553c-0.317,0.367-0.477,0.982-0.477,1.846c0,0.959,0.161,1.637,0.483,2.033
		c0.322,0.395,0.755,0.594,1.299,0.594c0.405,0,0.738-0.115,0.997-0.348c0.259-0.23,0.441-0.627,0.548-1.191l2.101,0.359
		c-0.218,0.963-0.637,1.691-1.256,2.184s-1.449,0.738-2.489,0.738c-1.183,0-2.125-0.373-2.828-1.119s-1.054-1.777-1.054-3.098
		c0-1.334,0.353-2.373,1.058-3.117s1.66-1.115,2.862-1.115c0.984,0,1.768,0.211,2.349,0.635S139.571,188.753,139.825,189.62z"/>
	<path fill="#CDB03D" d="M145.154,187.229v1.707h-1.461v3.258c0,0.66,0.014,1.043,0.041,1.152c0.028,0.109,0.092,0.199,0.19,0.271
		c0.1,0.07,0.22,0.105,0.362,0.105c0.197,0,0.484-0.068,0.859-0.205l0.184,1.66c-0.498,0.213-1.062,0.318-1.69,0.318
		c-0.386,0-0.733-0.064-1.043-0.193s-0.537-0.297-0.682-0.502c-0.145-0.207-0.244-0.484-0.301-0.834
		c-0.045-0.248-0.068-0.752-0.068-1.508v-3.523h-0.981v-1.707h0.981v-1.605l2.147-1.248v2.854H145.154z"/>
	<path fill="#CDB03D" d="M146.639,186.134v-1.979h2.139v1.979H146.639z M146.639,195.315v-8.086h2.139v8.086H146.639z"/>
	<path fill="#CDB03D" d="M158.323,195.315h-2.139v-4.127c0-0.873-0.046-1.438-0.138-1.693c-0.091-0.256-0.239-0.455-0.445-0.598
		c-0.205-0.143-0.452-0.213-0.742-0.213c-0.37,0-0.703,0.102-0.997,0.305s-0.496,0.471-0.605,0.807
		c-0.108,0.334-0.163,0.955-0.163,1.857v3.662h-2.14v-8.086h1.987v1.188c0.705-0.912,1.594-1.369,2.664-1.369
		c0.473,0,0.903,0.084,1.294,0.254c0.392,0.172,0.687,0.389,0.888,0.652c0.2,0.264,0.34,0.563,0.418,0.898
		c0.079,0.334,0.118,0.814,0.118,1.438V195.315z"/>
	<path fill="#CDB03D" d="M160.295,195.849l2.444,0.297c0.04,0.283,0.134,0.479,0.281,0.586c0.203,0.152,0.522,0.229,0.959,0.229
		c0.559,0,0.978-0.084,1.256-0.252c0.188-0.111,0.33-0.291,0.427-0.541c0.065-0.178,0.099-0.504,0.099-0.982v-1.18
		c-0.64,0.873-1.446,1.311-2.421,1.311c-1.086,0-1.946-0.459-2.58-1.379c-0.498-0.725-0.746-1.629-0.746-2.709
		c0-1.355,0.326-2.391,0.978-3.107c0.652-0.715,1.463-1.072,2.433-1.072c1,0,1.824,0.439,2.475,1.316v-1.135h2.002v7.256
		c0,0.953-0.079,1.666-0.236,2.139s-0.378,0.842-0.662,1.111s-0.664,0.48-1.139,0.633s-1.074,0.229-1.8,0.229
		c-1.37,0-2.342-0.236-2.916-0.705c-0.573-0.469-0.86-1.064-0.86-1.785C160.287,196.036,160.29,195.95,160.295,195.849z
		 M162.206,191.104c0,0.859,0.166,1.486,0.498,1.885c0.333,0.398,0.742,0.598,1.229,0.598c0.523,0,0.965-0.205,1.325-0.613
		s0.54-1.014,0.54-1.814c0-0.838-0.173-1.459-0.518-1.865s-0.781-0.609-1.31-0.609c-0.513,0-0.935,0.199-1.268,0.598
		C162.372,189.681,162.206,190.288,162.206,191.104z"/>
	<path fill="#CDB03D" d="M174.379,195.315v-11.16h7.65v1.887h-5.397v2.643h4.659v1.889h-4.659v4.742H174.379z"/>
	<path fill="#CDB03D" d="M185.471,189.696l-1.941-0.35c0.219-0.781,0.594-1.359,1.127-1.736c0.532-0.375,1.324-0.563,2.375-0.563
		c0.954,0,1.664,0.113,2.132,0.338c0.467,0.227,0.795,0.514,0.985,0.861s0.285,0.986,0.285,1.914l-0.022,2.496
		c0,0.711,0.034,1.236,0.103,1.572c0.068,0.338,0.197,0.699,0.385,1.086h-2.116c-0.056-0.143-0.125-0.354-0.206-0.633
		c-0.035-0.127-0.061-0.211-0.076-0.25c-0.365,0.355-0.756,0.621-1.172,0.799s-0.86,0.266-1.332,0.266
		c-0.833,0-1.488-0.225-1.968-0.678c-0.479-0.451-0.72-1.021-0.72-1.713c0-0.455,0.109-0.863,0.327-1.221
		c0.219-0.357,0.524-0.633,0.918-0.822c0.393-0.191,0.96-0.357,1.701-0.498c1-0.188,1.692-0.363,2.078-0.525v-0.213
		c0-0.412-0.102-0.705-0.305-0.881c-0.203-0.174-0.586-0.262-1.149-0.262c-0.381,0-0.678,0.074-0.891,0.225
		S185.603,189.321,185.471,189.696z M188.333,191.433c-0.274,0.092-0.708,0.201-1.302,0.328s-0.982,0.25-1.165,0.373
		c-0.279,0.197-0.418,0.447-0.418,0.752c0,0.301,0.111,0.559,0.335,0.777c0.223,0.219,0.507,0.328,0.853,0.328
		c0.385,0,0.753-0.127,1.104-0.381c0.259-0.193,0.429-0.43,0.51-0.709c0.056-0.182,0.084-0.529,0.084-1.043V191.433z"/>
	<path fill="#CDB03D" d="M194.59,195.315h-2.14v-8.086h1.987v1.15c0.34-0.543,0.646-0.9,0.917-1.074
		c0.271-0.172,0.58-0.258,0.925-0.258c0.487,0,0.957,0.135,1.409,0.402l-0.663,1.865c-0.36-0.232-0.695-0.35-1.005-0.35
		c-0.299,0-0.553,0.082-0.761,0.248c-0.208,0.164-0.372,0.463-0.491,0.895s-0.179,1.334-0.179,2.709V195.315z"/>
	<path fill="#CDB03D" d="M198.449,187.229h1.972v1.105c0.705-0.857,1.546-1.287,2.52-1.287c0.519,0,0.967,0.105,1.348,0.32
		c0.381,0.213,0.693,0.535,0.937,0.967c0.355-0.432,0.738-0.754,1.149-0.967c0.411-0.215,0.85-0.32,1.317-0.32
		c0.594,0,1.096,0.121,1.507,0.361s0.718,0.596,0.921,1.063c0.147,0.346,0.221,0.902,0.221,1.674v5.17h-2.139v-4.621
		c0-0.803-0.073-1.32-0.221-1.553c-0.198-0.305-0.503-0.457-0.914-0.457c-0.299,0-0.581,0.092-0.845,0.273
		c-0.264,0.184-0.454,0.451-0.57,0.803c-0.117,0.354-0.176,0.91-0.176,1.672v3.883h-2.139v-4.432c0-0.785-0.038-1.293-0.114-1.521
		s-0.194-0.398-0.354-0.51c-0.159-0.111-0.376-0.168-0.65-0.168c-0.33,0-0.627,0.088-0.891,0.266s-0.453,0.434-0.567,0.77
		c-0.114,0.334-0.171,0.891-0.171,1.668v3.928h-2.14V187.229z"/>
	<path fill="#CDB03D" d="M217.153,192.741l2.132,0.359c-0.274,0.781-0.707,1.375-1.298,1.785c-0.592,0.408-1.331,0.611-2.22,0.611
		c-1.405,0-2.446-0.459-3.121-1.377c-0.532-0.736-0.799-1.664-0.799-2.787c0-1.34,0.35-2.389,1.05-3.146
		c0.701-0.76,1.586-1.139,2.657-1.139c1.203,0,2.151,0.396,2.847,1.191s1.028,2.012,0.998,3.65h-5.359
		c0.015,0.635,0.188,1.127,0.518,1.48s0.741,0.529,1.233,0.529c0.335,0,0.616-0.092,0.845-0.275
		C216.864,193.442,217.036,193.147,217.153,192.741z M217.275,190.579c-0.016-0.619-0.176-1.09-0.479-1.412
		c-0.305-0.322-0.676-0.482-1.111-0.482c-0.468,0-0.854,0.17-1.157,0.51c-0.305,0.34-0.455,0.803-0.449,1.385H217.275z"/>
	<path fill="#CDB03D" d="M223.19,195.315h-2.14v-8.086h1.987v1.15c0.34-0.543,0.646-0.9,0.917-1.074
		c0.271-0.172,0.58-0.258,0.925-0.258c0.487,0,0.957,0.135,1.409,0.402l-0.663,1.865c-0.36-0.232-0.695-0.35-1.005-0.35
		c-0.299,0-0.553,0.082-0.761,0.248c-0.208,0.164-0.372,0.463-0.491,0.895s-0.179,1.334-0.179,2.709V195.315z"/>
	<path fill="#CDB03D" d="M226.456,193.009l2.146-0.328c0.092,0.416,0.277,0.732,0.556,0.947c0.279,0.217,0.67,0.324,1.173,0.324
		c0.553,0,0.97-0.102,1.248-0.305c0.188-0.143,0.282-0.332,0.282-0.57c0-0.162-0.051-0.297-0.152-0.404
		c-0.106-0.102-0.346-0.195-0.716-0.281c-1.726-0.381-2.819-0.729-3.281-1.043c-0.639-0.436-0.959-1.043-0.959-1.818
		c0-0.701,0.276-1.289,0.83-1.768c0.553-0.477,1.411-0.715,2.573-0.715c1.106,0,1.928,0.18,2.466,0.541
		c0.538,0.359,0.909,0.893,1.111,1.598l-2.017,0.373c-0.087-0.314-0.25-0.555-0.491-0.723s-0.585-0.252-1.031-0.252
		c-0.563,0-0.967,0.08-1.211,0.236c-0.162,0.111-0.243,0.256-0.243,0.434c0,0.152,0.07,0.281,0.213,0.389
		c0.192,0.143,0.859,0.342,1.998,0.602c1.14,0.258,1.936,0.576,2.387,0.951c0.446,0.381,0.67,0.912,0.67,1.592
		c0,0.74-0.31,1.377-0.929,1.91s-1.535,0.799-2.748,0.799c-1.102,0-1.973-0.223-2.615-0.67
		C227.074,194.382,226.654,193.774,226.456,193.009z"/>
</g>
</svg>
