<?xml version="1.0" encoding="utf-8"?>
<!-- Generator: Adobe Illustrator 23.0.1, SVG Export Plug-In . SVG Version: 6.00 Build 0)  -->
<svg version="1.1" id="Layer_1" xmlns="http://www.w3.org/2000/svg" xmlns:xlink="http://www.w3.org/1999/xlink" x="0px" y="0px"
	 viewBox="0 0 109.6 48.4" style="enable-background:new 0 0 109.6 48.4;" xml:space="preserve">
<path d="M59.2,13.1c10.5,0,15.6,8.3,15.6,15.4c0,7.1-5.1,15.4-15.6,15.4c-10.5,0-15.6-8.3-15.6-15.4C43.7,21.4,48.7,13.1,59.2,13.1
	 M59.2,35.9c3.7,0,6.9-3.1,6.9-7.3c0-4.2-3.2-7.3-6.9-7.3c-3.8,0-6.9,3.1-6.9,7.3C52.3,32.8,55.5,35.9,59.2,35.9 M79.7,4.4h8.8v38.7
	h-8.8V4.4z M99,31.8c-3.2,0-5.8,2.6-5.8,5.8c0,3.2,2.6,5.8,5.8,5.8c3.2,0,5.8-2.6,5.8-5.8C104.8,34.4,102.2,31.8,99,31.8 M27.8,4.4
	H20L4.8,43.2h10.3l2-5.6h13.5l1.9,5.6H43L27.8,4.4z M19.9,29.7l4.1-13.5L28,29.7L19.9,29.7L19.9,29.7z"/>
</svg>
