<?xml version="1.0" encoding="utf-8"?>
<!-- Generator: Adobe Illustrator 23.0.1, SVG Export Plug-In . SVG Version: 6.00 Build 0)  -->
<svg version="1.1" id="Layer_1" xmlns="http://www.w3.org/2000/svg" xmlns:xlink="http://www.w3.org/1999/xlink" x="0px" y="0px"
	 viewBox="0 0 112.1 129.9" style="enable-background:new 0 0 112.1 129.9;" xml:space="preserve">
<style type="text/css">
	.st0{fill:none;stroke:#0066FF;stroke-width:0.75;stroke-miterlimit:10;}
	.st1{fill:none;stroke:#FF25F3;stroke-width:0.75;stroke-linecap:round;stroke-linejoin:round;stroke-miterlimit:10;}
	.st2{fill:none;stroke:#29B99F;stroke-width:0.75;stroke-miterlimit:10;}
	
		.st3{fill-rule:evenodd;clip-rule:evenodd;fill:none;stroke:#BF549F;stroke-width:0.75;stroke-linecap:round;stroke-linejoin:round;stroke-miterlimit:10;}
	.st4{fill:none;stroke:#4068B1;stroke-width:0.75;stroke-miterlimit:10;}
	.st5{fill:none;stroke:#00C1A3;stroke-width:0.75;stroke-miterlimit:10;}
	
		.st6{fill-rule:evenodd;clip-rule:evenodd;fill:none;stroke:#FF25F3;stroke-width:0.75;stroke-linecap:round;stroke-linejoin:round;stroke-miterlimit:10;}
	.st7{fill:none;stroke:#0066FF;stroke-width:0.75;stroke-linejoin:round;stroke-miterlimit:10;}
	.st8{opacity:0.5;}
	.st9{fill:#FFFFFF;stroke:#0066FF;stroke-width:0.75;stroke-miterlimit:10;}
	.st10{opacity:0.5;fill:none;stroke:#0066FF;stroke-width:0.75;stroke-miterlimit:10;}
	.st11{opacity:0.3;fill:none;stroke:#0066FF;stroke-width:0.75;stroke-miterlimit:10;}
	.st12{fill-rule:evenodd;clip-rule:evenodd;fill:#FFFFFF;stroke:#0066FF;stroke-width:0.75;stroke-miterlimit:10;}
	.st13{fill:none;stroke:#0066FF;stroke-width:0.75;stroke-linecap:round;stroke-miterlimit:10;}
</style>
<path class="st0" d="M55.8,26.8c-5.4,0-12,4.9-9.6,4.9c2.6,0,5.5-1.5,9-1.5c3.5,0,9.1,2.4,10.1,2.1C66.4,31.9,62.4,26.8,55.8,26.8z"
	/>
<path class="st0" d="M47.4,29.5c0,0-0.6-2.9-0.5-5.4c0.2-3.6,2.7-6.6,9.5-6.6s9,5.4,8.9,6.9c-0.2,1.6-1,5.6-1,5.6"/>
<path class="st0" d="M73.9,70l6.7-4.7c0,0-5.1-10.3-5.8-12.7c-0.7-2.4-3.3-3.4-3.3-3.4l-8.7-2.1"/>
<path class="st0" d="M47.4,46.3l-9.2,1.6c0,0-2.2,0.4-3.5,2.4c-1.3,2-6.5,14.3-6.5,14.3l7.2,3.2"/>
<path class="st1" d="M62.7,75v4.7c0,0.6-0.5,1-1,1H48.4c-0.6,0-1-0.5-1-1V59.6c0-0.6,0.5-1,1-1h13.3c0.6,0,1,0.5,1,1v4.2"/>
<circle class="st0" cx="51.5" cy="62.5" r="1.1"/>
<polyline class="st0" points="50,43 50,47.8 54.6,54.8 60.3,47.9 60.6,42.3 "/>
<path class="st0" d="M58.2,53l4,2.6c0,0,0.7-8.7,0.6-9.6s-2-4.1-2-4.1"/>
<polyline class="st0" points="49.5,42.3 47.7,45.6 45.9,55.9 50.3,52.2 "/>
<path class="st0" d="M47.7,31.5l0.3,2.3c-0.4-0.6-0.8-0.9-1.2-0.8c-0.6,0.2-0.9,1.5-0.5,3c0.4,1.5,1.2,2.6,1.8,2.4
	c0.1,0,0.2-0.1,0.3-0.2l0.2,1.9c0,0,0.9,5.4,6.7,5.4c2.8,0,5.7-3.3,6.2-5.2c0.2-0.7,0.3-1.3,0.5-2c0.1,0.1,0.2,0.2,0.3,0.2
	c0.6,0.2,1.5-0.8,2.1-2.2c0.5-1.5,0.4-2.8-0.2-3c-0.3-0.1-0.6,0-0.9,0.4c0.1-0.6,0.3-1.1,0.4-1.7"/>
<path class="st7" d="M78.8,66.5l3.8,6.7c0,0,0.1,2.2,0,3.5c-0.1,1.3-5.3,2.6-6.5,2.6s-10-3.5-10-3.5S65,76.6,64,76.4
	c-1.4-0.4-3.4-3.9-3.4-3.9l-4.3-0.9l-0.3-1h4.2l-4.3-1h-1.1l-0.4-1c0,0-0.5-0.1-1-0.1c-0.5,0,0-1.2,0-1.2l4.8-1.4l5.1,0.1l-2.8-0.6
	c0,0-3.3-0.1-4.3-0.1s-0.6-1.2-0.6-1.2l5.4-0.9l4.5,1.1L68,70l10.7,0.7"/>
<path class="st0" d="M71.4,70.2c0.6-6.6,1.2-13,1.2-13"/>
<path class="st0" d="M38.1,77.1l0.1,8.6c0,0,0.6,2.8,2.4,3.1s10.3,0.7,13.1,0.7c2.8-0.1,12.9-0.7,14.1-1.5c1.2-0.8,2.2-2.6,2.2-3.1
	c0-0.2,0.3-3.3,0.7-7.4"/>
<line class="st0" x1="37.8" y1="57.9" x2="37.9" y2="67.5"/>
<path class="st0" d="M47.4,63.2l-4,3.9c0,0-9.1,0.5-10.7,1c-1.6,0.5-3.5,2.7-3.5,2.7"/>
<path class="st0" d="M29.6,65.2l-3.2,6.8c0,0-1.6,3.2,0,5c1.6,1.8,5.9,1.6,5.9,1.6s6.7-1.1,10.1-3.4c3.4-2.4,3.8-2.3,3.8-2.3
	l1.2-0.7"/>
<path class="st0" d="M39.1,109.4c0,0,0.2-11.1,0.5-14.6s1-6.3,1-6.3"/>
<path class="st0" d="M66.8,88.5c0,0,1.7,2.4,2.1,5.5c0.1,1.2,1.4,10.6,1.4,10.6"/>
<g>
	<ellipse class="st0" cx="14.7" cy="91.4" rx="1.9" ry="7.3"/>
	<line class="st0" x1="14.8" y1="98.5" x2="14.8" y2="121.2"/>
	<path class="st0" d="M14.7,118.5c0,0-0.1-0.3-0.2-0.9c-0.7-2.6-2.9-10.3-3.5-11.4c-0.7-1.4-8.3-2.8-8.3-2.8s5,2.6,6,3.5
		c1,0.9,6.1,12.5,6.1,12.5"/>
	<path class="st0" d="M14.9,114.7c0,0,0.1-0.3,0.1-0.9c0.4-2.6,1.8-10.3,2.1-11.4c0.4-1.4,4.9-2.8,4.9-2.8s-3,2.6-3.6,3.5
		c-0.6,0.9-3.7,12.5-3.7,12.5"/>
</g>
<g>
	<ellipse class="st0" cx="45.9" cy="97.5" rx="1.8" ry="6.6"/>
	<line class="st0" x1="46" y1="103.9" x2="46" y2="124.5"/>
	<path class="st0" d="M45.9,122.1c0,0-0.1-0.3-0.2-0.8C45,119,43,112,42.5,111c-0.6-1.3-7.5-2.6-7.5-2.6s4.5,2.4,5.5,3.2
		c0.9,0.8,5.6,11.3,5.6,11.3"/>
	<path class="st0" d="M46.1,118.6c0,0,0.1-0.3,0.1-0.8c0.4-2.4,1.6-9.3,1.9-10.4c0.4-1.3,4.5-2.6,4.5-2.6s-2.7,2.4-3.3,3.2
		c-0.6,0.8-3.3,11.3-3.3,11.3"/>
</g>
<g>
	<ellipse class="st5" cx="78.8" cy="92.7" rx="1.9" ry="7.3"/>
	<line class="st5" x1="78.9" y1="99.8" x2="78.9" y2="122.5"/>
	<path class="st5" d="M78.8,119.9c0,0-0.1-0.3-0.2-0.9c-0.7-2.6-2.9-10.3-3.5-11.4c-0.7-1.4-8.3-2.8-8.3-2.8s5,2.6,6,3.5
		c1,0.9,6.1,12.5,6.1,12.5"/>
	<path class="st5" d="M79,116c0,0,0.1-0.3,0.1-0.9c0.4-2.6,1.8-10.3,2.1-11.4c0.4-1.4,4.9-2.8,4.9-2.8s-3,2.6-3.6,3.5
		c-0.6,0.9-3.7,12.5-3.7,12.5"/>
</g>
<g>
	<ellipse class="st0" cx="101.4" cy="90.3" rx="1.9" ry="7.3"/>
	<line class="st0" x1="101.5" y1="97.4" x2="101.5" y2="120.1"/>
	<path class="st0" d="M101.4,117.5c0,0-0.1-0.3-0.2-0.9c-0.7-2.6-2.9-10.3-3.5-11.4c-0.7-1.4-8.3-2.8-8.3-2.8s5,2.6,6,3.5
		c1,0.9,6.1,12.5,6.1,12.5"/>
	<path class="st0" d="M101.6,113.7c0,0,0.1-0.3,0.1-0.9c0.4-2.6,1.8-10.3,2.1-11.4c0.4-1.4,4.9-2.8,4.9-2.8s-3,2.6-3.6,3.5
		c-0.6,0.9-3.7,12.5-3.7,12.5"/>
</g>
<g>
	<ellipse class="st0" cx="62.9" cy="96.4" rx="1.9" ry="7.3"/>
	<line class="st0" x1="63" y1="103.5" x2="63" y2="126.2"/>
	<path class="st0" d="M62.9,123.6c0,0-0.1-0.3-0.2-0.9c-0.7-2.6-2.9-10.3-3.5-11.4c-0.7-1.4-8.3-2.8-8.3-2.8s5,2.6,6,3.5
		c1,0.9,6.1,12.5,6.1,12.5"/>
	<path class="st0" d="M63.1,119.7c0,0,0.1-0.3,0.1-0.9c0.4-2.6,1.8-10.3,2.1-11.4c0.4-1.4,4.9-2.8,4.9-2.8s-3,2.6-3.6,3.5
		c-0.6,0.9-3.7,12.5-3.7,12.5"/>
</g>
<g>
	<ellipse class="st0" cx="88.3" cy="98" rx="1.9" ry="7.3"/>
	<line class="st0" x1="88.4" y1="105.1" x2="88.4" y2="127.8"/>
	<path class="st0" d="M88.3,125.2c0,0-0.1-0.3-0.2-0.9c-0.7-2.6-2.9-10.3-3.5-11.4c-0.7-1.4-8.3-2.8-8.3-2.8s5,2.6,6,3.5
		s6.1,12.5,6.1,12.5"/>
	<path class="st0" d="M88.5,121.4c0,0,0.1-0.3,0.1-0.9c0.4-2.6,1.8-10.3,2.1-11.4c0.4-1.4,4.9-2.8,4.9-2.8s-3,2.6-3.6,3.5
		s-3.7,12.5-3.7,12.5"/>
</g>
<g>
	<ellipse class="st0" cx="30.6" cy="97.9" rx="1.9" ry="7.3"/>
	<line class="st0" x1="30.7" y1="105" x2="30.7" y2="127.7"/>
	<path class="st0" d="M30.6,125.1c0,0-0.1-0.3-0.2-0.9c-0.7-2.6-2.9-10.3-3.5-11.4c-0.7-1.4-8.3-2.8-8.3-2.8s5,2.6,6,3.5
		c1,0.9,6.1,12.5,6.1,12.5"/>
	<path class="st0" d="M30.8,121.2c0,0,0.1-0.3,0.1-0.9c0.4-2.6,1.8-10.3,2.1-11.4c0.4-1.4,4.9-2.8,4.9-2.8s-3,2.6-3.6,3.5
		c-0.6,0.9-3.7,12.5-3.7,12.5"/>
</g>
<g class="st8">
	<path class="st7" d="M12.4,38.3c0-1.5,2.2-2.6,5-2.6s5,1.2,5,2.6"/>
	<ellipse class="st0" cx="8.5" cy="30.6" rx="5.9" ry="0.9"/>
	<ellipse class="st0" cx="26.6" cy="30.5" rx="5.9" ry="0.9"/>
	<polygon class="st7" points="8.6,30.8 9.6,35.3 15.4,36 15.4,34.7 10.4,34.5 	"/>
	<polygon class="st7" points="26.4,30.8 25.4,35.3 19.6,36 19.6,34.7 24.7,34.5 	"/>
	<path class="st9" d="M17.9,37.1h-0.7c-0.9,0-1.7-0.8-1.7-1.7v-0.3c0-0.9,0.8-1.7,1.7-1.7h0.7c0.9,0,1.7,0.8,1.7,1.7v0.3
		C19.5,36.4,18.8,37.1,17.9,37.1z"/>
	<circle class="st9" cx="17.5" cy="35.3" r="1"/>
</g>
<g class="st8">
	<polygon class="st0" points="75.7,10 72.9,10 71.5,12.4 72.9,14.9 75.7,14.9 77.2,12.4 	"/>
	<g>
		<rect x="62.5" y="5" transform="matrix(0.8737 0.4865 -0.4865 0.8737 11.3619 -30.3878)" class="st0" width="3.5" height="3.5"/>
		<g>
			
				<rect x="65.5" y="6.6" transform="matrix(0.8737 0.4865 -0.4865 0.8737 12.5611 -31.6443)" class="st0" width="3.5" height="3.5"/>
		</g>
		<g>
			
				<rect x="68.5" y="8.3" transform="matrix(0.8737 0.4865 -0.4865 0.8737 13.7604 -32.9007)" class="st0" width="3.5" height="3.5"/>
		</g>
	</g>
	<g>
		
			<rect x="76.7" y="13.2" transform="matrix(0.8737 0.4865 -0.4865 0.8737 17.1807 -36.2789)" class="st0" width="3.5" height="3.5"/>
		<g>
			
				<rect x="79.7" y="14.9" transform="matrix(0.8737 0.4865 -0.4865 0.8737 18.3799 -37.5353)" class="st0" width="3.5" height="3.5"/>
		</g>
		<g>
			
				<rect x="82.8" y="16.6" transform="matrix(0.8737 0.4865 -0.4865 0.8737 19.5792 -38.7918)" class="st0" width="3.5" height="3.5"/>
		</g>
	</g>
	<path class="st0" d="M72.9,14.8c-0.7-0.4-1.5-0.2-1.9,0.5l2.4,1.4C73.8,16.1,73.5,15.2,72.9,14.8z"/>
	<line class="st0" x1="72.2" y1="16.2" x2="71.3" y2="17.9"/>
</g>
<path class="st10" d="M105.1,41c-0.5,0-0.9,0.1-1.3,0.3c-0.5-0.4-1.1-0.7-1.8-0.7c-0.3,0-0.5,0-0.7,0.1c-0.5-1.1-1.5-1.8-2.8-1.8
	c-1.7,0-3.1,1.4-3.1,3.1c0,0,0,0,0,0c-0.3-0.1-0.5-0.1-0.8-0.1c-1.4,0-2.6,1.1-2.6,2.6s1.1,2.6,2.6,2.6c0.1,0,0.3,0,0.4,0
	c0.1,0,0.2,0,0.3,0h8.8c0.3,0.1,0.6,0.1,0.8,0.1c1.7,0,3.1-1.4,3.1-3.1C108.2,42.4,106.8,41,105.1,41z"/>
<path class="st11" d="M22,71.9c-4.1-5.5-7-12-8-19.2c-0.3-1.9-0.4-3.8-0.4-5.8"/>
<path class="st11" d="M95.7,54.7C94.3,62,91,68.6,86.4,74"/>
<path class="st11" d="M92,28.3c1.4,2.7,2.5,5.6,3.2,8.7"/>
<path class="st11" d="M21.6,22.5c5.1-7,12.4-12.3,20.9-15c4-1.3,8.2-1.9,12.6-1.9"/>
<path class="st13" d="M57.4,34.7c0,0,0.8-0.2,1.3-0.2c0.6,0,1.3,0.2,1.3,0.2"/>
<path class="st13" d="M51.2,34.5c0,0,0.8-0.2,1.3-0.2c0.6,0,1.3,0.2,1.3,0.2"/>
<path class="st13" d="M53.1,40.4c0,0,1.1,0.5,2.2,0.5c1.2,0,2.2-0.5,2.2-0.5"/>
</svg>
