<svg xmlns="http://www.w3.org/2000/svg" viewBox="0 0 303.61 256.95"><title>krishi logo</title><g id="Layer_2" data-name="Layer 2"><g id="Layer_1-2" data-name="Layer 1"><polygon points="166.4 5.43 174.51 0.74 182.62 5.43 182.62 14.8 174.51 19.49 166.4 14.8 166.4 5.43" style="fill:none;stroke:#ffd96d;stroke-miterlimit:10;stroke-width:1.28924519923261px"/><path d="M177.56,12.67a2,2,0,0,1-2,2h-2a2,2,0,0,1-1.44-.59,2,2,0,0,1-.6-1.44V7.57a2,2,0,0,1,.6-1.44,2,2,0,0,1,1.44-.6h2a2,2,0,0,1,2,2v5.1Zm-2-5.27a1,1,0,0,0-1-.84,1,1,0,0,0-.72.29,1,1,0,0,0-.3.72V11l2-3.64Zm0,5.27V9.2l-2,3.63a.92.92,0,0,0,1,.84,1,1,0,0,0,.72-.28A1,1,0,0,0,175.53,12.67Z" style="fill:#ffd96d"/><polygon points="183.03 54.79 191.14 50.11 199.26 54.79 199.26 64.16 191.14 68.85 183.03 64.16 183.03 54.79" style="fill:none;stroke:#ffd96d;stroke-miterlimit:10;stroke-width:1.28924519923261px"/><polygon points="194.47 63.76 194.03 63.76 188.75 59.01 188.75 63.76 187.8 63.76 187.8 55.2 188.25 55.2 193.52 59.96 193.52 55.2 194.47 55.2 194.47 63.76" style="fill:#ffd96d"/><polygon points="184.89 90.47 193.01 85.78 201.12 90.47 201.12 99.84 193.01 104.52 184.89 99.84 184.89 90.47" style="fill:none;stroke:#ffd96d;stroke-miterlimit:10;stroke-width:1.28924519923261px"/><path d="M195.5,90.78h-6.31l.82,1h2.91a2.76,2.76,0,0,1,.42.7h-3.53l.79,1.06h2.83a1.71,1.71,0,0,1-.09.3,2.62,2.62,0,0,1-1.21,1.33l-.42-.52h-1.34l3.77,4.82h1.36l-2.63-3.36a4.27,4.27,0,0,0,1.74-2.57h2.2l-.7-1.06H194.5a3.79,3.79,0,0,0-.26-.7h2Z" style="fill:#ffd96d;fill-rule:evenodd"/><polygon points="211.34 100.07 219.47 95.39 227.58 100.07 227.58 109.44 219.47 114.13 211.34 109.44 211.34 100.07" style="fill:none;stroke:#ffd96d;stroke-miterlimit:10;stroke-width:1.28924519923261px"/><path d="M219.07,107.39v-2.34a3.2,3.2,0,0,1-1.61-.94,2.41,2.41,0,0,1-.51-1.55,2.21,2.21,0,0,1,.58-1.54,2.39,2.39,0,0,1,1.54-.71v-.56h.81v.56a2.35,2.35,0,0,1,1.42.61,2.25,2.25,0,0,1,.66,1.34l-1.41.18a1.13,1.13,0,0,0-.67-.9v2.19a3.45,3.45,0,0,1,1.83.94,2.23,2.23,0,0,1,.48,1.48,2.53,2.53,0,0,1-.6,1.71,2.72,2.72,0,0,1-1.71.85v1h-.81v-1a2.51,2.51,0,0,1-1.56-.72,2.85,2.85,0,0,1-.78-1.7l1.46-.16a1.8,1.8,0,0,0,.34.77,1.39,1.39,0,0,0,.54.47Zm0-5.86a1.11,1.11,0,0,0-.53.38,1,1,0,0,0-.19.58.87.87,0,0,0,.18.56,1.39,1.39,0,0,0,.54.42v-1.94Zm.81,5.94a1.1,1.1,0,0,0,1-1.11,1,1,0,0,0-.22-.66,1.44,1.44,0,0,0-.73-.4Z" style="fill:#ffd96d"/><polygon points="167.88 116.31 176 111.63 184.11 116.31 184.11 125.68 176 130.36 167.88 125.68 167.88 116.31" style="fill:none;stroke:#ffd96d;stroke-miterlimit:10;stroke-width:1.28924519923261px"/><path d="M179.3,124.09c0,.1-.07.06-.14.25l.22.07c.1,0,.36-.27.65-.36.08.1.12.28.24.32.3.1.4-.07.26.38a.43.43,0,0,0,.23.17c.11,0,.23-.08.33-.11s.19,0,.38,0,.18-.44.25-.72c.17-.59-.16-.9-.46-1.29a9.6,9.6,0,0,0-1.36-.87c-.59-.22-1.23-.41-1.83-.61a8,8,0,0,1-3.1-1.52c-.49-.41-.77-.46-1-1-.15-.32-.3-.95-.8-1.12-.24-.09-.35-.07-.52-.13s-.29-.25-.4-.27l-.05,0a1.13,1.13,0,0,0-.55,0,1,1,0,0,0-.24-.13.77.77,0,0,0-.84.49l-.07.21a.65.65,0,0,0,0,.58l.52-.18v.11l.07,0c-.23.38-.74.48-.82.58l.22.08c.24.08.5-.12.89-.08l0,0-.76.52,0,.06,1.14-.15.1.1,0,0-.76.83c.45.14.8-.4,1.16-.28,0,0,.52.81,1.06,1-.07.34.13.33.07.51v0a1.08,1.08,0,0,1-.13.24c0,.09,0,.15.12.19a.72.72,0,0,0,.24,0c.15-.38.27-.32.57-.4l.41.48c-.06.22-.22.46,0,.53l.09,0c.26.1.23-.55.8-.35s.09.75.29.82l.05,0c.12,0,.2-.05.28-.11l.07-.21c.05,0,.15-.14.23-.11.61.2.18.68.42.76l0,0c.1,0,.11,0,.2,0,.08-.22.18-.52.4-.45a.47.47,0,0,1,.28.58l0,.14.13,0c.1,0,.1,0,.2,0s.19-.47.34-.42a.32.32,0,0,1,.25.42l-.08.22.13,0c.14,0,.33-.27.42-.38A.31.31,0,0,1,179.3,124.09Z" style="fill:#ffd96d;fill-rule:evenodd"/><polygon points="183.86 130.97 191.98 126.29 200.09 130.97 200.09 140.34 191.98 145.02 183.86 140.34 183.86 130.97" style="fill:none;stroke:#ffd96d;stroke-miterlimit:10;stroke-width:1.28924519923261px"/><path d="M191.21,139.15h-2.34a2.34,2.34,0,0,1-2.33-2.33v-2.33a2.21,2.21,0,0,1,.69-1.64,2.27,2.27,0,0,1,1.64-.69h1.57a.7.7,0,0,1,.52.25.74.74,0,0,1,.25.53v.78h-.77a.79.79,0,0,0-.23-.56.75.75,0,0,0-.56-.22,1.55,1.55,0,0,0-1.56,1.55v2.33a1.47,1.47,0,0,0,.46,1.1,1.51,1.51,0,0,0,1.1.46h1.56v.77Zm6.19,0h-1.54V138a1.51,1.51,0,0,1-.52.9,1.68,1.68,0,0,1-1,.26,1.53,1.53,0,0,1-1.1-.45,1.58,1.58,0,0,1-.45-1.1v-3.88h1.55v3.88c0,.51.13.78.39.78a1.08,1.08,0,0,0,.86-.43,1.12,1.12,0,0,0,.31-.75v-3.48h1.54Z" style="fill:#ffd96d"/><polygon points="212.1 133.49 220.21 128.8 228.33 133.49 228.33 142.86 220.21 147.54 212.1 142.86 212.1 133.49" style="fill:none;stroke:#ffd96d;stroke-miterlimit:10;stroke-width:1.28924519923261px"/><path d="M219.43,141.66h-4.64v-.77l3.1-5.43h-3.1v-.77h4.64v.77l-3.1,5.43h3.1v.77Zm6.21,0h-1.55v-3.88c0-.51-.13-.77-.39-.77a1.06,1.06,0,0,0-.87.42,1.12,1.12,0,0,0-.3.74v3.49H221v-5.43h1.54v1.16a1.62,1.62,0,0,1,.52-.9,1.75,1.75,0,0,1,1-.26,1.49,1.49,0,0,1,1.1.45,1.56,1.56,0,0,1,.45,1.1Z" style="fill:#ffd96d"/><polygon points="120.95 6.49 129.07 1.8 137.18 6.49 137.18 15.86 129.07 20.54 120.95 15.86 120.95 6.49" style="fill:none;stroke:#ffd96d;stroke-miterlimit:10;stroke-width:1.28924519923261px"/><polygon points="128.92 17.59 137.03 12.91 145.15 17.59 145.15 26.96 137.03 31.65 128.92 26.96 128.92 17.59" style="fill:none;stroke:#ffd96d;stroke-miterlimit:10;stroke-width:1.28924519923261px"/><polygon points="151.73 20.36 159.85 15.67 167.97 20.36 167.97 29.73 159.85 34.41 151.73 29.73 151.73 20.36" style="fill:none;stroke:#ffd96d;stroke-miterlimit:10;stroke-width:1.28924519923261px"/><polygon points="212.4 6.13 220.52 1.45 228.63 6.13 228.63 15.51 220.52 20.18 212.4 15.51 212.4 6.13" style="fill:none;stroke:#ffd96d;stroke-miterlimit:10;stroke-width:1.28924519923261px"/><polygon points="147.02 37.48 155.13 32.79 163.25 37.48 163.25 46.85 155.13 51.54 147.02 46.85 147.02 37.48" style="fill:none;stroke:#ffd96d;stroke-miterlimit:10;stroke-width:1.28924519923261px"/><polygon points="125.21 46.52 133.33 41.84 141.44 46.52 141.44 55.9 133.33 60.58 125.21 55.9 125.21 46.52" style="fill:none;stroke:#ffd96d;stroke-miterlimit:10;stroke-width:1.28924519923261px"/><polygon points="209.31 29.41 217.42 24.73 225.54 29.41 225.54 38.78 217.42 43.47 209.31 38.78 209.31 29.41" style="fill:none;stroke:#ffd96d;stroke-miterlimit:10;stroke-width:1.28924519923261px"/><polygon points="244.7 6.49 252.82 1.8 260.93 6.49 260.93 15.86 252.82 20.54 244.7 15.86 244.7 6.49" style="fill:none;stroke:#ffd96d;stroke-miterlimit:10;stroke-width:1.28924519923261px"/><polygon points="253.02 10.69 261.12 6 269.23 10.69 269.23 20.06 261.12 24.74 253.02 20.06 253.02 10.69" style="fill:none;stroke:#ffd96d;stroke-miterlimit:10;stroke-width:1.28924519923261px"/><polygon points="263.07 28.65 271.2 23.96 279.3 28.65 279.3 38.02 271.2 42.71 263.07 38.02 263.07 28.65" style="fill:none;stroke:#ffd96d;stroke-miterlimit:10;stroke-width:1.28924519923261px"/><polygon points="236.83 30.73 244.95 26.05 253.06 30.73 253.06 40.1 244.95 44.78 236.83 40.1 236.83 30.73" style="fill:none;stroke:#ffd96d;stroke-miterlimit:10;stroke-width:1.28924519923261px"/><polygon points="239.17 53.88 247.29 49.19 255.39 53.88 255.39 63.25 247.29 67.93 239.17 63.25 239.17 53.88" style="fill:none;stroke:#ffd96d;stroke-miterlimit:10;stroke-width:1.28924519923261px"/><polygon points="277.07 63.82 285.2 59.14 293.31 63.82 293.31 73.19 285.2 77.88 277.07 73.19 277.07 63.82" style="fill:none;stroke:#ffd96d;stroke-miterlimit:10;stroke-width:1.28924519923261px"/><polygon points="177.26 73.3 185.37 68.62 193.49 73.3 193.49 82.68 185.37 87.36 177.26 82.68 177.26 73.3" style="fill:none;stroke:#ffd96d;stroke-miterlimit:10;stroke-width:1.28924519923261px"/><polygon points="206.46 48.82 214.58 44.14 222.68 48.82 222.68 58.19 214.58 62.87 206.46 58.19 206.46 48.82" style="fill:none;stroke:#ffd96d;stroke-miterlimit:10;stroke-width:1.28924519923261px"/><polygon points="214.16 52.31 222.28 47.62 230.38 52.31 230.38 61.68 222.28 66.36 214.16 61.68 214.16 52.31" style="fill:none;stroke:#ffd96d;stroke-miterlimit:10;stroke-width:1.28924519923261px"/><polygon points="201.4 68.3 209.52 63.62 217.62 68.3 217.62 77.68 209.52 82.36 201.4 77.68 201.4 68.3" style="fill:none;stroke:#ffd96d;stroke-miterlimit:10;stroke-width:1.28924519923261px"/><polygon points="195.46 74.64 203.58 69.95 211.69 74.64 211.69 84.01 203.58 88.69 195.46 84.01 195.46 74.64" style="fill:none;stroke:#ffd96d;stroke-miterlimit:10;stroke-width:1.28924519923261px"/><polygon points="132.86 80.16 140.99 75.47 149.09 80.16 149.09 89.53 140.99 94.22 132.86 89.53 132.86 80.16" style="fill:none;stroke:#ffd96d;stroke-miterlimit:10;stroke-width:1.28924519923261px"/><polygon points="254.53 73.12 262.65 68.43 270.75 73.12 270.75 82.49 262.65 87.17 254.53 82.49 254.53 73.12" style="fill:none;stroke:#ffd96d;stroke-miterlimit:10;stroke-width:1.28924519923261px"/><polygon points="245.1 73.47 253.22 68.78 261.33 73.47 261.33 82.83 253.22 87.52 245.1 82.83 245.1 73.47" style="fill:none;stroke:#ffd96d;stroke-miterlimit:10;stroke-width:1.28924519923261px"/><polygon points="260.45 79.44 268.57 74.75 276.69 79.44 276.69 88.81 268.57 93.5 260.45 88.81 260.45 79.44" style="fill:none;stroke:#ffd96d;stroke-miterlimit:10;stroke-width:1.28924519923261px"/><polygon points="256.95 106.72 265.08 102.04 273.18 106.72 273.18 116.09 265.08 120.78 256.95 116.09 256.95 106.72" style="fill:none;stroke:#ffd96d;stroke-miterlimit:10;stroke-width:1.28924519923261px"/><polygon points="265.27 104.67 273.38 99.98 281.49 104.67 281.49 114.04 273.38 118.72 265.27 114.04 265.27 104.67" style="fill:none;stroke:#ffd96d;stroke-miterlimit:10;stroke-width:1.28924519923261px"/><polygon points="232.73 107.98 240.85 103.3 248.97 107.98 248.97 117.35 240.85 122.04 232.73 117.35 232.73 107.98" style="fill:none;stroke:#ffd96d;stroke-miterlimit:10;stroke-width:1.28924519923261px"/><polygon points="228.72 115.15 236.83 110.46 244.96 115.15 244.96 124.52 236.83 129.2 228.72 124.52 228.72 115.15" style="fill:none;stroke:#ffd96d;stroke-miterlimit:10;stroke-width:1.28924519923261px"/><polygon points="210.12 116.25 218.25 111.56 226.35 116.25 226.35 125.62 218.25 130.3 210.12 125.62 210.12 116.25" style="fill:none;stroke:#ffd96d;stroke-miterlimit:10;stroke-width:1.28924519923261px"/><polygon points="190.34 110.57 198.46 105.88 206.57 110.57 206.57 119.94 198.46 124.63 190.34 119.94 190.34 110.57" style="fill:none;stroke:#ffd96d;stroke-miterlimit:10;stroke-width:1.28924519923261px"/><polygon points="151.37 105.95 159.48 101.27 167.6 105.95 167.6 115.33 159.48 120.01 151.37 115.33 151.37 105.95" style="fill:none;stroke:#ffd96d;stroke-miterlimit:10;stroke-width:1.28924519923261px"/><polygon points="150.08 81.67 158.19 76.99 166.3 81.67 166.3 91.04 158.19 95.73 150.08 91.04 150.08 81.67" style="fill:none;stroke:#ffd96d;stroke-miterlimit:10;stroke-width:1.28924519923261px"/><polygon points="129.88 98.11 138 93.42 146.12 98.11 146.12 107.48 138 112.16 129.88 107.48 129.88 98.11" style="fill:none;stroke:#ffd96d;stroke-miterlimit:10;stroke-width:1.28924519923261px"/><polygon points="164.31 127.68 172.43 123 180.55 127.68 180.55 137.05 172.43 141.74 164.31 137.05 164.31 127.68" style="fill:none;stroke:#ffd96d;stroke-miterlimit:10;stroke-width:1.28924519923261px"/><polygon points="222.78 137.44 230.9 132.75 239 137.44 239 146.81 230.9 151.48 222.78 146.81 222.78 137.44" style="fill:none;stroke:#ffd96d;stroke-miterlimit:10;stroke-width:1.28924519923261px"/><polygon points="125.55 119.2 133.66 114.52 141.78 119.2 141.78 128.57 133.66 133.25 125.55 128.57 125.55 119.2" style="fill:none;stroke:#ffd96d;stroke-miterlimit:10;stroke-width:1.28924519923261px"/><polygon points="115.88 130.69 124 126.01 132.12 130.69 132.12 140.07 124 144.75 115.88 140.07 115.88 130.69" style="fill:none;stroke:#ffd96d;stroke-miterlimit:10;stroke-width:1.28924519923261px"/><polygon points="141.96 12.17 150.08 7.48 158.18 12.17 158.18 21.54 150.08 26.23 141.96 21.54 141.96 12.17" style="fill:none;stroke:#ffd96d;stroke-miterlimit:10;stroke-width:1.28924519923261px"/><path d="M153.12,19.41a1.91,1.91,0,0,1-.59,1.43,2,2,0,0,1-1.44.6h-2a2,2,0,0,1-2-2v-5.1a2,2,0,0,1,2-2h2a2,2,0,0,1,1.44.6,1.92,1.92,0,0,1,.59,1.44v5.1Zm-2-5.27a1,1,0,0,0-1.72-.55,1,1,0,0,0-.3.72v3.47l2-3.64Zm0,5.27V15.94l-2,3.62a.94.94,0,0,0,1,.86,1,1,0,0,0,.72-.3A1,1,0,0,0,151.09,19.41Z" style="fill:#ffd96d"/><polygon points="224.45 14.88 232.57 10.2 240.67 14.88 240.67 24.25 232.57 28.93 224.45 24.25 224.45 14.88" style="fill:none;stroke:#ffd96d;stroke-miterlimit:10;stroke-width:1.28924519923261px"/><path d="M235.61,22.11a2,2,0,0,1-2,2h-2a1.94,1.94,0,0,1-1.44-.59,2,2,0,0,1-.6-1.44V17a2,2,0,0,1,.6-1.43,2,2,0,0,1,1.44-.6h2a1.94,1.94,0,0,1,1.43.6,1.92,1.92,0,0,1,.6,1.43v5.1Zm-2.05-5.27a1,1,0,0,0-1-.84,1,1,0,0,0-.73.3,1,1,0,0,0-.3.71v3.47l2-3.64Zm0,5.27V18.65l-2,3.62a.92.92,0,0,0,1,.85,1,1,0,0,0,1-1Z" style="fill:#ffd96d"/><polygon points="286.54 36.51 294.65 31.82 302.77 36.51 302.77 45.88 294.65 50.57 286.54 45.88 286.54 36.51" style="fill:none;stroke:#ffd96d;stroke-miterlimit:10;stroke-width:1.28924519923261px"/><path d="M297.71,43.75a2,2,0,0,1-.6,1.43,2,2,0,0,1-1.44.6h-2a2,2,0,0,1-1.43-.59,2,2,0,0,1-.6-1.44v-5.1a2,2,0,0,1,.6-1.44,1.92,1.92,0,0,1,1.43-.59h2a2,2,0,0,1,2,2v5.1Zm-2-5.27a1,1,0,0,0-1.73-.55,1,1,0,0,0-.3.72v3.46l2-3.63Zm0,5.27V40.28l-2,3.62a.92.92,0,0,0,1,.85,1,1,0,0,0,.72-.29A1,1,0,0,0,295.67,43.75Z" style="fill:#ffd96d"/><path d="M239.15,47a2,2,0,0,1-2,2h-2a2,2,0,0,1-1.44-.6A2,2,0,0,1,233,47v-5.1a2,2,0,0,1,.6-1.43,2,2,0,0,1,1.44-.6h2a2,2,0,0,1,1.44.6,2,2,0,0,1,.59,1.43V47Zm-2-5.27a1,1,0,0,0-1-.84,1,1,0,0,0-.73.3,1,1,0,0,0-.29.71V45.4l2-3.65Zm0,5.27V43.56l-2,3.62a.93.93,0,0,0,1,.85,1,1,0,0,0,.72-.29A1,1,0,0,0,237.12,47Z" style="fill:#ffd96d"/><polygon points="227.97 39.79 236.1 35.1 244.2 39.79 244.2 49.16 236.1 53.84 227.97 49.16 227.97 39.79" style="fill:none;stroke:#ffd96d;stroke-miterlimit:10;stroke-width:1.28924519923261px"/><polygon points="192.36 30.38 200.47 25.7 208.59 30.38 208.59 39.75 200.47 44.44 192.36 39.75 192.36 30.38" style="fill:none;stroke:#ffd96d;stroke-miterlimit:10;stroke-width:1.28924519923261px"/><path d="M203.53,37.62a2,2,0,0,1-.6,1.44,2,2,0,0,1-1.44.59h-2a2,2,0,0,1-2-2v-5.1a2,2,0,0,1,.59-1.44,2,2,0,0,1,1.44-.59h2a2,2,0,0,1,1.44.59,1.94,1.94,0,0,1,.6,1.44v5.1Zm-2.05-5.28a1,1,0,0,0-1.72-.54,1,1,0,0,0-.3.72V36l2-3.65Zm0,5.28V34.15l-2,3.62a.94.94,0,0,0,1,.86,1,1,0,0,0,.72-.3A1,1,0,0,0,201.49,37.62Z" style="fill:#ffd96d"/><polygon points="166.68 39.58 174.8 34.9 182.91 39.58 182.91 48.95 174.8 53.64 166.68 48.95 166.68 39.58" style="fill:none;stroke:#ffd96d;stroke-miterlimit:10;stroke-width:1.28924519923261px"/><path d="M177.85,46.82a2.07,2.07,0,0,1-2,2h-2a2,2,0,0,1-2-2v-5.1a2,2,0,0,1,.59-1.44,2,2,0,0,1,1.44-.6h2a1.92,1.92,0,0,1,1.42.6,2,2,0,0,1,.61,1.44v5.1Zm-2.06-5.27a1,1,0,0,0-1-.84,1,1,0,0,0-.73.3.94.94,0,0,0-.3.71v3.47l2-3.64Zm0,5.27V43.35l-2,3.63a.94.94,0,0,0,1,.85,1,1,0,0,0,.72-.3A1,1,0,0,0,175.82,46.82Z" style="fill:#ffd96d"/><polygon points="137.57 33.46 145.69 28.77 153.8 33.46 153.8 42.83 145.69 47.52 137.57 42.83 137.57 33.46" style="fill:none;stroke:#ffd96d;stroke-miterlimit:10;stroke-width:1.28924519923261px"/><path d="M148.74,40.7a2,2,0,0,1-2,2h-2a2,2,0,0,1-1.43-.59,2,2,0,0,1-.6-1.44V35.59a2,2,0,0,1,2-2h2a1.94,1.94,0,0,1,1.43.6,1.92,1.92,0,0,1,.6,1.43V40.7Zm-2.05-5.27a1,1,0,0,0-1-.85,1,1,0,0,0-.72.3,1,1,0,0,0-.3.71v3.48l2-3.64Zm0,5.27V37.23l-2,3.62a.92.92,0,0,0,1,.86,1,1,0,0,0,.72-.3A.94.94,0,0,0,146.71,40.7Z" style="fill:#ffd96d"/><polygon points="150.5 55.83 158.62 51.14 166.73 55.83 166.73 65.2 158.62 69.88 150.5 65.2 150.5 55.83" style="fill:none;stroke:#ffd96d;stroke-miterlimit:10;stroke-width:1.28924519923261px"/><path d="M161.67,63.06a1.94,1.94,0,0,1-.6,1.44,2,2,0,0,1-1.43.6h-2a2,2,0,0,1-1.45-.6,2,2,0,0,1-.58-1.44V58a2,2,0,0,1,.58-1.43,2,2,0,0,1,1.45-.6h2a1.94,1.94,0,0,1,1.43.6,1.9,1.9,0,0,1,.6,1.43v5.1Zm-2-5.27a1,1,0,0,0-1-.84,1,1,0,0,0-.73.3,1,1,0,0,0-.29.71v3.47l2-3.64Zm0,5.27V59.6l-2,3.62a.93.93,0,0,0,1,.85.94.94,0,0,0,.72-.3A1,1,0,0,0,159.64,63.06Z" style="fill:#ffd96d"/><polygon points="171.28 95.06 179.38 90.38 187.5 95.06 187.5 104.43 179.38 109.12 171.28 104.43 171.28 95.06" style="fill:none;stroke:#ffd96d;stroke-miterlimit:10;stroke-width:1.28924519923261px"/><path d="M182.44,102.29a1.94,1.94,0,0,1-.6,1.44,2,2,0,0,1-1.44.6h-2a2,2,0,0,1-1.44-.59,2,2,0,0,1-.6-1.45V97.2a2,2,0,0,1,.6-1.44,2,2,0,0,1,1.44-.6h2a2,2,0,0,1,1.44.6,1.93,1.93,0,0,1,.6,1.44v5.09ZM180.39,97a1,1,0,0,0-1.72-.54,1,1,0,0,0-.3.72v3.47l2-3.65Zm0,5.27V98.83l-2,3.63a.92.92,0,0,0,1,.84,1,1,0,0,0,1-1Z" style="fill:#ffd96d"/><polygon points="142.59 94.16 150.71 89.47 158.82 94.16 158.82 103.52 150.71 108.21 142.59 103.52 142.59 94.16" style="fill:none;stroke:#ffd96d;stroke-miterlimit:10;stroke-width:1.28924519923261px"/><path d="M153.76,101.39a1.87,1.87,0,0,1-.6,1.43,2,2,0,0,1-1.43.6h-2a2,2,0,0,1-2-2v-5.1a2,2,0,0,1,2-2h2a2,2,0,0,1,1.43.59,1.9,1.9,0,0,1,.6,1.44v5.1Zm-2-5.27a1,1,0,0,0-1-.85,1,1,0,0,0-.71.3,1,1,0,0,0-.3.72v3.47l2-3.64Zm0,5.27V97.92l-2,3.63a.92.92,0,0,0,1,.85,1,1,0,0,0,.73-.3A1,1,0,0,0,151.73,101.39Z" style="fill:#ffd96d"/><polygon points="239.16 79.7 247.29 75.02 255.39 79.7 255.39 89.08 247.29 93.76 239.16 89.08 239.16 79.7" style="fill:none;stroke:#ffd96d;stroke-miterlimit:10;stroke-width:1.28924519923261px"/><path d="M250.33,86.94a1.93,1.93,0,0,1-.59,1.44,2,2,0,0,1-1.44.59h-2a2,2,0,0,1-1.45-.59,2,2,0,0,1-.6-1.44v-5.1a2,2,0,0,1,2.05-2h2a2,2,0,0,1,1.44.6,1.9,1.9,0,0,1,.59,1.43v5.1Zm-2-5.27a1,1,0,0,0-1-.84,1,1,0,0,0-.73.3,1,1,0,0,0-.29.71v3.47l2-3.64Zm0,5.27V83.48l-2,3.62a.92.92,0,0,0,1,.85,1,1,0,0,0,.72-.3A1,1,0,0,0,248.3,86.94Z" style="fill:#ffd96d"/><polygon points="250.56 97.94 258.68 93.26 266.79 97.94 266.79 107.31 258.68 111.99 250.56 107.31 250.56 97.94" style="fill:none;stroke:#ffd96d;stroke-miterlimit:10;stroke-width:1.28924519923261px"/><path d="M261.73,105.17a2,2,0,0,1-.59,1.44,2,2,0,0,1-1.44.6h-2.05a2,2,0,0,1-2-2v-5.1a2,2,0,0,1,2-2h2.05a2,2,0,0,1,1.44.6,2,2,0,0,1,.59,1.43v5.1Zm-2.05-5.27a1,1,0,0,0-1-.83,1,1,0,0,0-.73.29,1,1,0,0,0-.3.71v3.47l2-3.64Zm0,5.27v-3.46l-2,3.62a.93.93,0,0,0,1,.85,1,1,0,0,0,.72-.29A1,1,0,0,0,259.7,105.17Z" style="fill:#ffd96d"/><path d="M297.72,92.39a2,2,0,0,1-2,2h-2.05a2,2,0,0,1-2-2V87.3a2.07,2.07,0,0,1,2-2h2.05a2,2,0,0,1,2,2v5.09Zm-2.05-5.26a1,1,0,0,0-1-.84,1,1,0,0,0-1,1v3.47l2-3.64Zm0,5.26V88.93l-2,3.62a.92.92,0,0,0,1,.86,1,1,0,0,0,.72-.3A1,1,0,0,0,295.68,92.39Z" style="fill:#ffd96d"/><polygon points="286.54 85.17 294.65 80.48 302.77 85.17 302.77 94.53 294.65 99.22 286.54 94.53 286.54 85.17" style="fill:none;stroke:#ffd96d;stroke-miterlimit:10;stroke-width:1.28924519923261px"/><polygon points="142.05 135.24 150.16 130.56 158.28 135.24 158.28 144.61 150.16 149.3 142.05 144.61 142.05 135.24" style="fill:none;stroke:#ffd96d;stroke-miterlimit:10;stroke-width:1.28924519923261px"/><path d="M153.21,142.47a2,2,0,0,1-.59,1.44,2,2,0,0,1-1.44.6h-2.05a2,2,0,0,1-2-2v-5.09a2,2,0,0,1,2-2h2.05a2,2,0,0,1,2,2v5.09Zm-2.05-5.26a1,1,0,0,0-1-.84,1,1,0,0,0-.72.29,1,1,0,0,0-.31.72v3.47l2-3.64Zm0,5.26V139l-2,3.61a.91.91,0,0,0,1,.86,1,1,0,0,0,.72-.3A1,1,0,0,0,151.18,142.47Z" style="fill:#ffd96d"/><polygon points="286.42 5.96 294.53 1.27 302.64 5.96 302.64 15.33 294.53 20.01 286.42 15.33 286.42 5.96" style="fill:none;stroke:#ffd96d;stroke-miterlimit:10;stroke-width:1.28924519923261px"/><polygon points="295.33 15.23 293.3 15.23 293.3 8.09 292.28 8.09 292.28 7.08 294.31 6.06 295.33 6.06 295.33 15.23" style="fill:#ffd96d"/><polygon points="259.59 48.82 267.7 44.14 275.82 48.82 275.82 58.19 267.7 62.87 259.59 58.19 259.59 48.82" style="fill:none;stroke:#ffd96d;stroke-miterlimit:10;stroke-width:1.28924519923261px"/><polygon points="268.5 58.09 266.46 58.09 266.46 50.95 265.44 50.95 265.44 49.94 267.48 48.92 268.5 48.92 268.5 58.09" style="fill:#ffd96d"/><polygon points="196.99 9.06 205.1 4.37 213.22 9.06 213.22 18.43 205.1 23.12 196.99 18.43 196.99 9.06" style="fill:none;stroke:#ffd96d;stroke-miterlimit:10;stroke-width:1.28924519923261px"/><polygon points="205.9 18.33 203.86 18.33 203.86 11.2 202.84 11.2 202.84 10.19 204.88 9.16 205.9 9.16 205.9 18.33" style="fill:#ffd96d"/><polygon points="174.34 30.43 182.45 25.75 190.55 30.43 190.55 39.81 182.45 44.49 174.34 39.81 174.34 30.43" style="fill:none;stroke:#ffd96d;stroke-miterlimit:10;stroke-width:1.28924519923261px"/><polygon points="183.24 39.7 181.21 39.7 181.21 32.57 180.18 32.57 180.18 31.56 182.22 30.54 183.24 30.54 183.24 39.7" style="fill:#ffd96d"/><polygon points="222.12 82.12 230.23 77.44 238.35 82.12 238.35 91.49 230.23 96.19 222.12 91.49 222.12 82.12" style="fill:none;stroke:#ffd96d;stroke-miterlimit:10;stroke-width:1.28924519923261px"/><polygon points="231.03 91.39 229 91.39 229 84.26 227.97 84.26 227.97 83.25 230.01 82.22 231.03 82.22 231.03 91.39" style="fill:#ffd96d"/><polygon points="166.21 68.26 174.34 63.58 182.44 68.26 182.44 77.63 174.34 82.32 166.21 77.63 166.21 68.26" style="fill:none;stroke:#ffd96d;stroke-miterlimit:10;stroke-width:1.28924519923261px"/><polygon points="175.12 77.53 173.09 77.53 173.09 70.39 172.06 70.39 172.06 69.39 174.11 68.36 175.12 68.36 175.12 77.53" style="fill:#ffd96d"/><polygon points="153.55 75.3 161.67 70.62 169.78 75.3 169.78 84.68 161.67 89.36 153.55 84.68 153.55 75.3" style="fill:none;stroke:#ffd96d;stroke-miterlimit:10;stroke-width:1.28924519923261px"/><polygon points="162.46 84.57 160.43 84.57 160.43 77.44 159.41 77.44 159.41 76.43 161.45 75.41 162.46 75.41 162.46 84.57" style="fill:#ffd96d"/><polygon points="134.93 58.83 143.04 54.15 151.16 58.83 151.16 68.2 143.04 72.88 134.93 68.2 134.93 58.83" style="fill:none;stroke:#ffd96d;stroke-miterlimit:10;stroke-width:1.28924519923261px"/><polygon points="143.84 68.09 141.8 68.09 141.8 60.96 140.78 60.96 140.78 59.95 142.82 58.93 143.84 58.93 143.84 68.09" style="fill:#ffd96d"/><polygon points="195.92 119.13 204.03 114.45 212.14 119.13 212.14 128.5 204.03 133.19 195.92 128.5 195.92 119.13" style="fill:none;stroke:#ffd96d;stroke-miterlimit:10;stroke-width:1.28924519923261px"/><polygon points="204.82 128.4 202.79 128.4 202.79 121.27 201.76 121.27 201.76 120.26 203.81 119.23 204.82 119.23 204.82 128.4" style="fill:#ffd96d"/><polygon points="245.23 129.64 253.35 124.96 261.45 129.64 261.45 139.01 253.35 143.7 245.23 139.01 245.23 129.64" style="fill:none;stroke:#ffd96d;stroke-miterlimit:10;stroke-width:1.28924519923261px"/><polygon points="254.14 138.91 252.1 138.91 252.1 131.78 251.08 131.78 251.08 130.76 253.12 129.74 254.14 129.74 254.14 138.91" style="fill:#ffd96d"/><polygon points="282.01 123.72 290.13 119.03 298.24 123.72 298.24 133.09 290.13 137.77 282.01 133.09 282.01 123.72" style="fill:none;stroke:#ffd96d;stroke-miterlimit:10;stroke-width:1.28924519923261px"/><polygon points="290.93 132.99 288.89 132.99 288.89 125.86 287.87 125.86 287.87 124.84 289.91 123.82 290.93 123.82 290.93 132.99" style="fill:#ffd96d"/><polygon points="249.24 132.07 257.35 127.38 265.46 132.07 265.46 141.44 257.35 146.13 249.24 141.44 249.24 132.07" style="fill:none;stroke:#ffd96d;stroke-miterlimit:10;stroke-width:1.28924519923261px"/><path d="M119.2,51.56l-3.83-.11-.12.52-3.46-.37s-5.67,26-13.85,74.41-6.29,97.78-6.29,97.78l3,.65v.32l2.58.23h0l2.41.23s-.32-54.54,6.08-97.21S119.2,51.56,119.2,51.56Z" style="fill:#ffd96d;fill-rule:evenodd"/><path d="M89.33,197c-5.34-10.44-10.27-8.1-13.49-13.08s-3.31-15.55-10.58-21.46a26.39,26.39,0,0,0-2.68-1.94c-3.6-2.59-5.3-2.81-9.42-5.54a22.49,22.49,0,0,1-4.34-5.9c-5.44-9.87-11.21-2.13-16.76-.81s-29.9,36.85-29.9,36.85l.42-.3,0,0c-1,1.07-1.9,2-2.54,2.65,1.14-1.17,2.31-2.29,3.51-3.34A109.72,109.72,0,0,1,30.38,171.4c5.34-2,17.81-4.53,22.56-4.39a12.87,12.87,0,0,1,6,4.8c10.29,15.12,26.32,38.33,32.76,52,1.5,3.18,7.06,2.22,8,1.43C99.63,225.22,94.67,207.4,89.33,197Z" style="fill:#ffd96d;fill-rule:evenodd"/><path d="M140.17,76.4A3.79,3.79,0,0,0,137.1,72h0a3.91,3.91,0,0,0,.37-1.14,3.78,3.78,0,0,0-3.07-4.37,3.47,3.47,0,0,0-1.16,0c0-.09.05-.16.07-.25a3.81,3.81,0,0,0-2.38-4.19,3.9,3.9,0,0,0,1.36-7.1,3.93,3.93,0,0,0,1.44-2.48,3.8,3.8,0,0,0-3.08-4.38,3.68,3.68,0,0,0-3.55,1.57c0-.37.13-.75.22-1.14a3.94,3.94,0,0,0,2.71-2,4.12,4.12,0,0,0,.39-1.15,3.91,3.91,0,0,0,2.07-2.83,3.91,3.91,0,0,0,2.05-1.79,3.58,3.58,0,0,0,.32-.82,3.86,3.86,0,0,0,.75-7.64,4,4,0,0,0-.49,0,3.89,3.89,0,0,0,1-2.05A3.79,3.79,0,0,0,133,25.92a3.62,3.62,0,0,0-.87,0l-.09-.44a3.78,3.78,0,0,0,.2-.77,3.89,3.89,0,0,0-1-3.24l0-.23a3.84,3.84,0,0,0,2.53-3.06,3.78,3.78,0,0,0-3.08-4.38,3.61,3.61,0,0,0-2.81.77l-.12-.1a3.84,3.84,0,0,0,1.8-2.72,3.77,3.77,0,0,0-3.07-4.37,4.19,4.19,0,0,0-.5,0c0-.13.08-.27.11-.41a3.8,3.8,0,0,0-3-4.36,3.51,3.51,0,0,0-1.08-.9,3.71,3.71,0,0,0-4.66,1A3.55,3.55,0,0,0,115.7,2a3.76,3.76,0,0,0-4.25,3.23,4,4,0,0,0,.11,1.69,3.5,3.5,0,0,0-1.1-.38,3.77,3.77,0,0,0-4.25,3.24,3.83,3.83,0,0,0,2,4,3.69,3.69,0,0,0-3.11,1.53,4.39,4.39,0,0,0-.52-.13,3.78,3.78,0,0,0-4.25,3.23,4,4,0,0,0,.11,1.69,3.31,3.31,0,0,0-1.08-.38,3.76,3.76,0,0,0-4.25,3.23,3.81,3.81,0,0,0,2,4,3.84,3.84,0,0,0-.95,7.58,3.9,3.9,0,0,0,.18,4.69,4.45,4.45,0,0,0-.2.76,4.05,4.05,0,0,0,.11,1.67,3.54,3.54,0,0,0-1.08-.37,3.78,3.78,0,0,0-4.25,3.24,3.86,3.86,0,0,0,1.41,3.64c0,.13,0,.25,0,.38a3.68,3.68,0,0,0-1.89.83A3.88,3.88,0,0,0,89,56.57a3.67,3.67,0,0,0-3.09,1.54,4.42,4.42,0,0,0-.52-.14,3.77,3.77,0,0,0-4.25,3.24,4,4,0,0,0,.11,1.69,3.45,3.45,0,0,0-1.09-.38,3.76,3.76,0,0,0-4.25,3.23,3.81,3.81,0,0,0,2,4A3.85,3.85,0,0,0,77,77.34,4,4,0,0,0,76.31,79,4,4,0,0,0,77.16,82a4.46,4.46,0,0,0-.19.74,4,4,0,0,0,.11,1.69,3.42,3.42,0,0,0-1.1-.38,3.86,3.86,0,0,0-2.26,7.23,3.85,3.85,0,0,0-1,7.59,3.87,3.87,0,0,0-.65,1.62,4,4,0,0,0,.22,2,1.8,1.8,0,0,0-.22-.06,3.86,3.86,0,0,0-2.29,7.23A3.82,3.82,0,0,0,66,113a3.78,3.78,0,0,0,2.9,4.32,3.87,3.87,0,0,0-.65,1.62,3.77,3.77,0,0,0,3,4.38,3.65,3.65,0,0,0,3.17-1.09c0,.1.11.19.17.29a3.87,3.87,0,0,0-.78,1.79,3.8,3.8,0,0,0,2.9,4.34,3.88,3.88,0,0,0-.65,1.61,3.77,3.77,0,0,0,3.06,4.37,3.6,3.6,0,0,0,2.29-.41,3.59,3.59,0,0,0,1.73.89,3.88,3.88,0,0,0-.65,1.61,3.78,3.78,0,0,0,3.06,4.38,3.65,3.65,0,0,0,3-.93l.24.25a3.81,3.81,0,0,0-.68,1.67,3.77,3.77,0,0,0,2.88,4.33,3.91,3.91,0,0,0-.64,1.62,3.77,3.77,0,0,0,3.08,4.37,3.63,3.63,0,0,0,3.15-1.08,3.65,3.65,0,0,0,2.75,2.09h.06a3.69,3.69,0,0,0,3,2.66,3.74,3.74,0,0,0,4.12-2.75,3.84,3.84,0,0,0,3.17-4.58,3.76,3.76,0,0,0,4-3.24,3.93,3.93,0,0,0-.06-1.57,3.86,3.86,0,0,0,3.47-2,3.59,3.59,0,0,0,.3-.74,3.75,3.75,0,0,0,3.86-2.69,3.39,3.39,0,0,0,.11-.43.79.79,0,0,0,0-.13s0,0,0,0a4.16,4.16,0,0,0,.06-.93l.49-.47a3.44,3.44,0,0,0,.86.26,3.81,3.81,0,0,0,4.24-4.37,3.6,3.6,0,0,0,1.4.53,3.77,3.77,0,0,0,4.25-3.24,3.92,3.92,0,0,0-.47-2.52,3.9,3.9,0,0,0,2.79-3.17,3.8,3.8,0,0,0-2.62-4.24l.11-.15a3.85,3.85,0,0,0,.84-7.63h-.1a4.58,4.58,0,0,0,.14-.53,4,4,0,0,0-.22-2,3.68,3.68,0,0,0,.4-.6,2.54,2.54,0,0,0,.16-.38,3.81,3.81,0,0,0,3.22-3.23,3.86,3.86,0,0,0-1.18-3.45,3.55,3.55,0,0,0-.06-.8,3.91,3.91,0,0,0,1.9-2.78,3.79,3.79,0,0,0-3.07-4.38,3.64,3.64,0,0,0-1.19,0c0-.1-.07-.2-.11-.29a3.89,3.89,0,0,0-.34-1.36,3.87,3.87,0,0,0,1-7.22,1.14,1.14,0,0,0,.15-.16,3.49,3.49,0,0,0,1.52.63,3.77,3.77,0,0,0,4.24-3.24,3.86,3.86,0,0,0-1.08-3.35A4,4,0,0,0,140.17,76.4Zm-58.62-.54,0,.2-.36-.17C81.33,75.89,81.44,75.87,81.55,75.86ZM100.69,33l0,.2a2.21,2.21,0,0,0-.35-.16ZM77.09,97.48l-.07,0h.07Zm-1.85,7.77-.11.07a1.42,1.42,0,0,1,0-.16ZM113.47,9.33c0-.05,0-.1,0-.15l.16.08ZM102.34,22.51c0-.05,0-.1,0-.15a.8.8,0,0,0,.16.08Zm-4.2,21.58c0-.06,0-.11,0-.16l.16.09Zm-15,21.28a.76.76,0,0,0-.06-.16l.18.08ZM79,86.93c0-.05,0-.1,0-.16l.17.09Zm-5.51,28.88,0,.2-.38-.17A2.07,2.07,0,0,0,73.48,115.81Z" style="fill:#ffd96d;fill-rule:evenodd"/><polygon points="195.93 48.88 204.03 44.2 212.16 48.88 212.16 58.25 204.03 62.93 195.93 58.25 195.93 48.88" style="fill:none;stroke:#ffd96d;stroke-miterlimit:10;stroke-width:1.28924519923261px"/><path d="M206.9,52.14a1.81,1.81,0,0,1-.57,1.34A1.84,1.84,0,0,1,205,54h-1.91v3.8h-1.9V49.29H205a1.81,1.81,0,0,1,1.34.56,1.79,1.79,0,0,1,.57,1.34v1Zm-1.91,0v-1a.9.9,0,0,0-.29-.67.88.88,0,0,0-.67-.28h-.95v2.85H204a.88.88,0,0,0,.67-.28A.93.93,0,0,0,205,52.14Z" style="fill:#ffd96d"/><polygon points="219.81 60.79 227.92 56.11 236.03 60.79 236.03 70.17 227.92 74.85 219.81 70.17 219.81 60.79" style="fill:none;stroke:#ffd96d;stroke-miterlimit:10;stroke-width:1.28924519923261px"/><polygon points="231.25 69.75 229.34 69.75 226.49 66.43 226.49 69.75 224.6 69.75 224.6 61.2 226.49 61.2 226.49 64.69 229.56 61.2 231.26 61.2 227.44 65.47 231.25 69.75" style="fill:#ffd96d"/><polygon points="206.46 77.31 214.58 72.63 222.68 77.31 222.68 86.69 214.58 91.37 206.46 86.69 206.46 77.31" style="fill:none;stroke:#ffd96d;stroke-miterlimit:10;stroke-width:1.28924519923261px"/><path d="M210.32,80.81v.13l.26.08a3.81,3.81,0,0,1,1.6-.82c.61,0,.79.35,1.27.4v.13c-.79,0-1.61.35-1.61,1.07v.4c0,.73.91,1.08,1.62,1.13-.52.37-.85.3-1.34.54l-1.61-.82-.19,0v.14l.28-.07a1.92,1.92,0,0,0,1.67.93h.06a7.39,7.39,0,0,0,1.8-.74h.39c.49,0-.19.46-.19.86-.76.21.06.67-2.05.68l-.14.22.26-.16a.36.36,0,0,0,.39.2h.62c.76,0,1.41-1.38,1.71-1.93l.6-.08c-.06.27-.2.33-.2.6a1.43,1.43,0,0,0,1.14,1.06h.4a2.31,2.31,0,0,0,.47-.08V85l.16,0-.17-.38c-.67,0-1.65-.17-1.66-.74v-.32c0-.15.11-.74.32-.74h.21V83h.2c-.07.29-.14.12-.14.33v.27c0,.24.53.66.81.66h.2c.58,0,.93-.52,1.14-.94l.18.15.05-.09-.38-.13a1.58,1.58,0,0,1-1,.75,1.17,1.17,0,0,1-.67-.27,7.12,7.12,0,0,0,0-.8c-.05-.41-.22-.19-.26-.59a1.86,1.86,0,0,0,.54.13,1.66,1.66,0,0,0,.66-.21c0-.18-.07-.13-.07-.26s0-.09.07-.26a1.56,1.56,0,0,0-.67-.21,1.88,1.88,0,0,0-.53.14c0-.39.18-.2.25-.55a7.94,7.94,0,0,0,0-.85,1.28,1.28,0,0,1,.6-.27c.54,0,.93.6,1.21.81l.19-.22c-.47.11-.11-.2-.55-.51a2.13,2.13,0,0,0-.92-.35h-.08a1.15,1.15,0,0,0-.78.68v.25c0,.23.06.06.13.34h-.19v.2h-.21c-.21,0-.34-.58-.34-.72v-.34c0-.56,1-.74,1.68-.73l.11-.41h-.12v.27l-.61-.07h-.27a1.46,1.46,0,0,0-1.12,1.07c0,.27.14.33.21.61l-.6-.07c-.41-.61-.86-1.93-1.88-1.92h-.47a.38.38,0,0,0-.4.2L212.1,79l.14.18c.8,0,1.28-.07,1.68.38.12.14,1.1,1.14.59,1.15h-.4c-.14,0-1.26-.73-1.8-.73h-.07a2.13,2.13,0,0,0-1.74,1Z" style="fill:#ffd96d;fill-rule:evenodd"/><polygon points="147.81 112.81 155.93 108.12 164.04 112.81 164.04 122.18 155.93 126.87 147.81 122.18 147.81 112.81" style="fill:none;stroke:#ffd96d;stroke-miterlimit:10;stroke-width:1.28924519923261px"/><path d="M158.4,116.08s-.09-1.38-.57-1.79a2.61,2.61,0,0,0-1.77-.63,2.92,2.92,0,0,0-2,.87,1.86,1.86,0,0,0-.35,1.78,2.88,2.88,0,0,0,.45.94l-.83,0,0,.87,1.15,0a.79.79,0,0,1,.18.73,2.56,2.56,0,0,1-1.23,1.52c.16.36.44.84.44.84a5.26,5.26,0,0,1,1.25-.35,5.62,5.62,0,0,1,1.86.35,1.29,1.29,0,0,0,1.58-.49l-.55-1.14s-.34.44-.67.44a6.55,6.55,0,0,1-1.36-.27,1.7,1.7,0,0,0-.54-.06,3.15,3.15,0,0,0,.27-.6,1.15,1.15,0,0,0,0-1h1.18v-.89l-1.33,0a4.62,4.62,0,0,1-.58-1.44c0-.44.45-.77.87-.87a1.2,1.2,0,0,1,1.18.38,1.16,1.16,0,0,1,.11.73Z" style="fill:#ffd96d;fill-rule:evenodd"/><path d="M124.37,208.5a2.4,2.4,0,0,1,.79-1.21,2.06,2.06,0,0,1,1.27-.39,1.7,1.7,0,0,1,1.51.66,4.07,4.07,0,0,1,.46,2.28v3.29a2.81,2.81,0,0,1-.48,1.8,1.88,1.88,0,0,1-1.53.59,2.17,2.17,0,0,1-1.25-.37,4,4,0,0,1-1-1.29,5.06,5.06,0,0,0-2.11-2,7,7,0,0,0-3.18-.66,5.14,5.14,0,0,0-3.85,1.54,5.48,5.48,0,0,0-1.49,3.92,5.36,5.36,0,0,0,1.54,4,5.6,5.6,0,0,0,4.16,1.53,9.59,9.59,0,0,0,4.71-1.31,10.42,10.42,0,0,1,2.84-1.32,1.56,1.56,0,0,1,1.26.57,2,2,0,0,1,.5,1.43c0,1.27-1,2.39-2.87,3.37a14.58,14.58,0,0,1-6.8,1.48,11.42,11.42,0,0,1-7.88-2.72,9,9,0,0,1-3-7,9.1,9.1,0,0,1,3-7,10.72,10.72,0,0,1,7.58-2.79,13.25,13.25,0,0,1,3,.38,12.16,12.16,0,0,1,2.87,1.18Zm17.85,13h4.72a2.92,2.92,0,0,1,1.94.49,2.07,2.07,0,0,1,.57,1.67,2.12,2.12,0,0,1-.57,1.69,2.79,2.79,0,0,1-1.94.54h-11.2a2.91,2.91,0,0,1-2-.54,2.72,2.72,0,0,1,0-3.36,3.11,3.11,0,0,1,2-.49h1.53v-9.72h-.87a2.86,2.86,0,0,1-1.93-.52,2.76,2.76,0,0,1,0-3.36,2.9,2.9,0,0,1,1.93-.51h4.27a1.46,1.46,0,0,1,.85.23.75.75,0,0,1,.29.63v3a16.34,16.34,0,0,1,4.09-3.37,8.58,8.58,0,0,1,4.06-1,4.94,4.94,0,0,1,3.13.9,2.89,2.89,0,0,1,1.14,2.39,2.46,2.46,0,0,1-.79,1.91,2.82,2.82,0,0,1-2,.75,4.78,4.78,0,0,1-2.14-.66,4.72,4.72,0,0,0-1.71-.66,4.25,4.25,0,0,0-2.26.87,20.35,20.35,0,0,0-3.09,2.64Zm25.59.66a5.24,5.24,0,0,0,3.87-1.57,5.51,5.51,0,0,0,1.48-4,5.31,5.31,0,0,0-1.47-3.93,5.63,5.63,0,0,0-7.73,0,5.3,5.3,0,0,0-1.5,3.92,5.44,5.44,0,0,0,1.5,4,5.21,5.21,0,0,0,3.85,1.57Zm10.93-5.5a9,9,0,0,1-3,7,12.81,12.81,0,0,1-15.8,0,9.54,9.54,0,0,1,0-14,12.83,12.83,0,0,1,15.8,0,9,9,0,0,1,3,7Zm10.07-.29a5.5,5.5,0,0,0,1.27,3.75,4.37,4.37,0,0,0,6.54,0,5.46,5.46,0,0,0,1.29-3.75,5.36,5.36,0,0,0-1.29-3.73,4.37,4.37,0,0,0-6.54,0,5.44,5.44,0,0,0-1.27,3.73Zm2.46,13.06a2.89,2.89,0,0,1,1.93.53,2.24,2.24,0,0,1,.57,1.7,2.14,2.14,0,0,1-.57,1.67,3,3,0,0,1-1.93.49h-8.5a2.91,2.91,0,0,1-1.93-.49,2.07,2.07,0,0,1-.57-1.67,2.17,2.17,0,0,1,.57-1.7,2.84,2.84,0,0,1,1.93-.53H184V211.81h-.31a2.2,2.2,0,0,1-1.62-.55,2.24,2.24,0,0,1-.58-1.66,2.2,2.2,0,0,1,.58-1.67,3,3,0,0,1,1.93-.51H187a1.47,1.47,0,0,1,.87.21.72.72,0,0,1,.27.61v1.45a6.62,6.62,0,0,1,2.46-2.06,7.76,7.76,0,0,1,3.28-.69,9.39,9.39,0,0,1,6.81,2.62,8.89,8.89,0,0,1,2.68,6.6,9.53,9.53,0,0,1-2.63,6.89,8.72,8.72,0,0,1-6.62,2.74,9.56,9.56,0,0,1-3-.46,7.21,7.21,0,0,1-2.45-1.31v5.44Zm25.1-7.31a4.16,4.16,0,0,0,3.29-1.49,6.16,6.16,0,0,0,0-7.52,4.38,4.38,0,0,0-6.53,0,5.56,5.56,0,0,0-1.29,3.76,5.49,5.49,0,0,0,1.29,3.76,4.1,4.1,0,0,0,3.26,1.49Zm2-18a2.91,2.91,0,0,1-2-.53,2.82,2.82,0,0,1,0-3.4,2.92,2.92,0,0,1,2-.51h6.22a1.26,1.26,0,0,1,.94.27,1.59,1.59,0,0,1,.26,1v20.49h.33a1.93,1.93,0,0,1,2.17,2.16,2.19,2.19,0,0,1-.57,1.69,2.83,2.83,0,0,1-1.93.54H222.7a1.38,1.38,0,0,1-.88-.24.7.7,0,0,1-.32-.63v-1.39a6.7,6.7,0,0,1-2.54,2.06,8.44,8.44,0,0,1-3.46.69,8.91,8.91,0,0,1-6.57-2.68,9.08,9.08,0,0,1-2.64-6.67,9.66,9.66,0,0,1,2.64-6.89,8.8,8.8,0,0,1,6.57-2.79,9.4,9.4,0,0,1,3,.47,9,9,0,0,1,2.54,1.38v-5.07Zm26.91,16.59v-3.08c-.68-.15-1.29-.26-1.84-.33a10.59,10.59,0,0,0-1.53-.11,6.73,6.73,0,0,0-3.51.75,2.45,2.45,0,0,0-1.24,2.19,1.91,1.91,0,0,0,.83,1.63,3.88,3.88,0,0,0,2.28.59,8.59,8.59,0,0,0,2.61-.41,8.68,8.68,0,0,0,2.4-1.23Zm4.85-6.65v7.43h.32a2.22,2.22,0,0,1,1.65.57,2.64,2.64,0,0,1,0,3.3,3,3,0,0,1-1.95.52h-1.89a2.39,2.39,0,0,1-1.49-.39,2.89,2.89,0,0,1-.81-1.37,13.55,13.55,0,0,1-3.53,1.66,12.46,12.46,0,0,1-3.76.59,7.44,7.44,0,0,1-5.08-1.6,5.52,5.52,0,0,1-1.84-4.39,5.34,5.34,0,0,1,2.4-4.66,11.49,11.49,0,0,1,6.68-1.66c.73,0,1.47,0,2.2.11a19.67,19.67,0,0,1,2.27.32v-.39a3.86,3.86,0,0,0-.87-2.74,3.4,3.4,0,0,0-2.58-.94,8.59,8.59,0,0,0-3.4,1,8.05,8.05,0,0,1-2.91,1,2.3,2.3,0,0,1-1.6-.53,1.92,1.92,0,0,1-.58-1.47q0-1.63,2.37-2.58a17.65,17.65,0,0,1,6.46-.95c2.85,0,4.89.55,6.11,1.63s1.85,3,1.85,5.57Zm8.32-1.17a2.75,2.75,0,0,1-1.91-.52,2.2,2.2,0,0,1-.59-1.71,2.05,2.05,0,0,1,.57-1.65,2.82,2.82,0,0,1,1.93-.52h1.9V203a1.38,1.38,0,0,1,.68-1.17,2.9,2.9,0,0,1,1.75-.5,2.6,2.6,0,0,1,1.91.57,2.55,2.55,0,0,1,.59,1.93v4.66h6.11a3,3,0,0,1,2,.52,2.05,2.05,0,0,1,.57,1.65,2.23,2.23,0,0,1-.58,1.71,2.92,2.92,0,0,1-1.95.52h-6.11v5.12a4.81,4.81,0,0,0,.66,2.95,2.9,2.9,0,0,0,2.32.82,9.86,9.86,0,0,0,3.68-.9,9.22,9.22,0,0,1,2.85-.9,1.82,1.82,0,0,1,1.42.64,2.33,2.33,0,0,1,.58,1.65c0,1-.93,1.86-2.81,2.73a15.36,15.36,0,0,1-6.33,1.28,10.44,10.44,0,0,1-3.63-.57,5.7,5.7,0,0,1-2.44-1.59,4.52,4.52,0,0,1-1-1.92,17.81,17.81,0,0,1-.27-3.75v-5.56Zm36.23,7.82v-3.08c-.68-.15-1.29-.26-1.84-.33a10.3,10.3,0,0,0-1.53-.11,6.76,6.76,0,0,0-3.51.75,2.44,2.44,0,0,0-1.23,2.19,1.9,1.9,0,0,0,.82,1.63,3.9,3.9,0,0,0,2.29.59,8.38,8.38,0,0,0,5-1.64Zm4.86-6.65v7.43h.31a2.23,2.23,0,0,1,1.66.57,2.64,2.64,0,0,1,0,3.3,3,3,0,0,1-2,.52h-1.88a2.41,2.41,0,0,1-1.51-.39,2.89,2.89,0,0,1-.81-1.37,13.58,13.58,0,0,1-3.51,1.66,12.62,12.62,0,0,1-3.77.59,7.4,7.4,0,0,1-5.08-1.6,5.49,5.49,0,0,1-1.84-4.39,5.35,5.35,0,0,1,2.39-4.66,11.54,11.54,0,0,1,6.7-1.66c.71,0,1.45,0,2.2.11a19.65,19.65,0,0,1,2.25.32v-.39a3.86,3.86,0,0,0-.87-2.74,3.35,3.35,0,0,0-2.57-.94,8.47,8.47,0,0,0-3.39,1,8.27,8.27,0,0,1-2.92,1,2.29,2.29,0,0,1-1.6-.53,1.89,1.89,0,0,1-.59-1.47q0-1.63,2.37-2.58a17.88,17.88,0,0,1,6.48-.95c2.83,0,4.87.55,6.09,1.63s1.86,3,1.86,5.57Z" style="fill:#ffd96d"/><path d="M116.71,184.23h3.59q4.74,0,7.08-2.59c1.55-1.73,2.34-4.33,2.34-7.81,0-3.2-.79-5.6-2.39-7.18s-4-2.37-7.16-2.37h-3.46Zm3.9-27.29a26.6,26.6,0,0,1,5.84.59,14.66,14.66,0,0,1,4.48,1.84,15,15,0,0,1,5.38,6,18.32,18.32,0,0,1,2,8.45q0,8.16-4.53,12.9t-12.38,4.76h-7.2c-2,0-3.46-.35-4.22-1.05s-1.14-2-1.14-3.91v-24.1c0-2.09.41-3.54,1.22-4.33s2.22-1.2,4.23-1.2Zm21.72,29.33V170.85a7.49,7.49,0,0,1,.94-4.19,3.29,3.29,0,0,1,2.89-1.36,3.67,3.67,0,0,1,2.06.61,5.15,5.15,0,0,1,1.6,1.84,8.22,8.22,0,0,1,2.5-1.93,6.06,6.06,0,0,1,2.69-.66,3.79,3.79,0,0,1,2.76,1.14,3.59,3.59,0,0,1,1.16,2.66q0,2.31-4.25,3.86c-1,.37-1.77.66-2.28.9a4.29,4.29,0,0,0-1.92,1.53,6.86,6.86,0,0,0-.48,3.05v8a7.41,7.41,0,0,1-.95,4.21,3.33,3.33,0,0,1-2.89,1.38,3.28,3.28,0,0,1-2.89-1.38,7.5,7.5,0,0,1-.94-4.21Zm12.59,1.16a4.42,4.42,0,0,1,4.45-4.41,4.18,4.18,0,0,1,3.09,1.29,4.5,4.5,0,0,1,0,6.27,4.22,4.22,0,0,1-3.09,1.28,4.36,4.36,0,0,1-3.16-1.28,4.28,4.28,0,0,1-1.29-3.15Zm46.82-28.1A11.24,11.24,0,0,1,204,157.2a3.35,3.35,0,0,1,1.82-.57,3.59,3.59,0,0,1,3.54,3.57,4.11,4.11,0,0,1-.5,1.89,8.07,8.07,0,0,1-1.51,2l-8.5,8.86,10.56,11.47a9.29,9.29,0,0,1,1.48,2.09,3.93,3.93,0,0,1,.51,1.8,3.39,3.39,0,0,1-1.12,2.54,3.47,3.47,0,0,1-4.31.61,12.87,12.87,0,0,1-2.47-2.26l-11.81-13v10.2a7.19,7.19,0,0,1-1,4.21,3.9,3.9,0,0,1-5.94,0,7.43,7.43,0,0,1-1-4.21V162.11a7.5,7.5,0,0,1,1-4.23,3.89,3.89,0,0,1,5.94,0,7.26,7.26,0,0,1,1,4.23v8.54Zm11.65,26.94V170.85a7.49,7.49,0,0,1,.94-4.19,3.3,3.3,0,0,1,2.89-1.36,3.62,3.62,0,0,1,2.06.61,5.15,5.15,0,0,1,1.6,1.84,8.54,8.54,0,0,1,2.52-1.93,6,6,0,0,1,2.69-.66,3.71,3.71,0,0,1,2.74,1.14A3.55,3.55,0,0,1,230,169c0,1.54-1.42,2.83-4.23,3.86-1,.37-1.77.66-2.28.9a4.31,4.31,0,0,0-1.94,1.53,6.89,6.89,0,0,0-.47,3.05v8a7.58,7.58,0,0,1-.94,4.21,3.37,3.37,0,0,1-2.91,1.38,3.29,3.29,0,0,1-2.89-1.38,7.5,7.5,0,0,1-.94-4.21Zm18.15-27.41a4.44,4.44,0,0,1,4.45-4.45,4.23,4.23,0,0,1,3.09,1.3,4.37,4.37,0,0,1,1.27,3.15,4.24,4.24,0,0,1-1.27,3.12,4.14,4.14,0,0,1-3.09,1.28,4.29,4.29,0,0,1-3.17-1.28,4.21,4.21,0,0,1-1.28-3.12Zm8.22,27.41a7.76,7.76,0,0,1-.92,4.23,3.22,3.22,0,0,1-2.85,1.36,3.33,3.33,0,0,1-2.91-1.38,7.57,7.57,0,0,1-1-4.21V170.85a7.56,7.56,0,0,1,1-4.19A3.33,3.33,0,0,1,236,165.3a3.24,3.24,0,0,1,2.85,1.36,7.68,7.68,0,0,1,.92,4.19Zm12.87,6a13.05,13.05,0,0,1-6.81-1.64c-1.81-1.1-2.71-2.46-2.71-4.06a3.7,3.7,0,0,1,.87-2.47,2.62,2.62,0,0,1,2.06-1,9.36,9.36,0,0,1,3.57,1.12,9.43,9.43,0,0,0,3.54,1.11,2.62,2.62,0,0,0,1.56-.44,1.41,1.41,0,0,0,.59-1.13c0-.75-1.24-1.61-3.68-2.61l-.5-.18a16.74,16.74,0,0,1-5.78-3.47,6.33,6.33,0,0,1-1.53-4.38,7.48,7.48,0,0,1,2.71-5.89,10.19,10.19,0,0,1,6.9-2.36,12.25,12.25,0,0,1,6.37,1.58c1.75,1.07,2.61,2.32,2.61,3.77a3.1,3.1,0,0,1-.92,2.26,3,3,0,0,1-2.24.94,8.76,8.76,0,0,1-3-.94,9,9,0,0,0-3.21-.92,2,2,0,0,0-1.25.37,1.21,1.21,0,0,0-.48,1c0,.7,1,1.46,3,2.23,1,.37,1.71.66,2.27.93a14.1,14.1,0,0,1,4.91,3.26A6.21,6.21,0,0,1,263,183.5a7.87,7.87,0,0,1-2.92,6.25,11.1,11.1,0,0,1-7.44,2.52Zm21.51-24.69a7.42,7.42,0,0,1,2.77-1.85,10.72,10.72,0,0,1,3.82-.57c3,0,5.34.86,6.94,2.59s2.4,4.24,2.4,7.53v11a7.49,7.49,0,0,1-.95,4.21,3.73,3.73,0,0,1-5.79,0,7.32,7.32,0,0,1-1-4.21V177.6a8.15,8.15,0,0,0-1-4.56,3.58,3.58,0,0,0-3.17-1.38,3.52,3.52,0,0,0-3.09,1.42,7.86,7.86,0,0,0-1,4.43v8.76a7.41,7.41,0,0,1-.95,4.21,3.32,3.32,0,0,1-2.89,1.38,3.28,3.28,0,0,1-2.89-1.38,7.5,7.5,0,0,1-.94-4.21V160a7.53,7.53,0,0,1,.94-4.22,3.24,3.24,0,0,1,2.89-1.38,3.28,3.28,0,0,1,2.89,1.39,7.52,7.52,0,0,1,.95,4.21Zm20.64-8.72a4.44,4.44,0,0,1,4.45-4.45,4.23,4.23,0,0,1,3.09,1.3,4.39,4.39,0,0,1,1.29,3.15,4.18,4.18,0,0,1-1.29,3.12,4.13,4.13,0,0,1-3.09,1.28,4.37,4.37,0,0,1-4.45-4.4ZM303,186.27a7.58,7.58,0,0,1-.93,4.23,3.2,3.2,0,0,1-2.85,1.36,3.3,3.3,0,0,1-2.89-1.38,7.4,7.4,0,0,1-1-4.21V170.85a7.48,7.48,0,0,1,.95-4.19,3.32,3.32,0,0,1,2.9-1.36,3.22,3.22,0,0,1,2.85,1.36,7.5,7.5,0,0,1,.93,4.19Z" style="fill:#ffd96d"/><path d="M117.32,247.43l2.82.89a6.31,6.31,0,0,1-2.16,3.5,6.78,6.78,0,0,1-8.53-.82,7.48,7.48,0,0,1-1.84-5.35,7.85,7.85,0,0,1,1.85-5.58,6.35,6.35,0,0,1,4.88-2,6,6,0,0,1,4.29,1.56,5.77,5.77,0,0,1,1.47,2.65l-2.88.69a3,3,0,0,0-1.06-1.77,3.07,3.07,0,0,0-2-.65,3.27,3.27,0,0,0-2.59,1.15,5.61,5.61,0,0,0-1,3.72,6.07,6.07,0,0,0,1,3.89,3.18,3.18,0,0,0,2.55,1.16,2.9,2.9,0,0,0,2-.74A4.23,4.23,0,0,0,117.32,247.43Z" style="fill:#ffd96d"/><path d="M122,247.36a5.63,5.63,0,0,1,.68-2.66,4.68,4.68,0,0,1,1.92-2,5.7,5.7,0,0,1,2.77-.67,5.22,5.22,0,0,1,3.88,1.53,5.31,5.31,0,0,1,1.51,3.88,5.38,5.38,0,0,1-1.53,3.93,5.15,5.15,0,0,1-3.84,1.55,6,6,0,0,1-2.73-.65,4.39,4.39,0,0,1-2-1.9A6.32,6.32,0,0,1,122,247.36Zm2.83.14a3.46,3.46,0,0,0,.74,2.38,2.41,2.41,0,0,0,3.62,0,3.5,3.5,0,0,0,.73-2.4,3.41,3.41,0,0,0-.73-2.35,2.39,2.39,0,0,0-3.62,0A3.45,3.45,0,0,0,124.8,247.5Z" style="fill:#ffd96d"/><path d="M144.37,252.72h-2.76V247.4a8.73,8.73,0,0,0-.17-2.19,1.56,1.56,0,0,0-.58-.77,1.65,1.65,0,0,0-1-.27,2.22,2.22,0,0,0-1.28.39,2,2,0,0,0-.78,1,9,9,0,0,0-.21,2.39v4.73h-2.76V242.29h2.56v1.53a4.3,4.3,0,0,1,5.1-1.44,2.91,2.91,0,0,1,1.15.85,3,3,0,0,1,.54,1.15,8.74,8.74,0,0,1,.15,1.86Z" style="fill:#ffd96d"/><path d="M156.65,252.72h-2.76V247.4a8.11,8.11,0,0,0-.18-2.19,1.48,1.48,0,0,0-.57-.77,1.65,1.65,0,0,0-1-.27,2.22,2.22,0,0,0-1.28.39,2,2,0,0,0-.78,1,9,9,0,0,0-.21,2.39v4.73h-2.76V242.29h2.56v1.53a4.18,4.18,0,0,1,3.43-1.76,4.29,4.29,0,0,1,1.67.32,2.91,2.91,0,0,1,1.15.85,3,3,0,0,1,.54,1.15,8.74,8.74,0,0,1,.15,1.86Z" style="fill:#ffd96d"/><path d="M165.48,249.4l2.75.46a4.5,4.5,0,0,1-1.67,2.3,4.92,4.92,0,0,1-2.86.79,4.67,4.67,0,0,1-4-1.77,6,6,0,0,1-1-3.6,5.73,5.73,0,0,1,1.35-4.05,4.48,4.48,0,0,1,3.43-1.47,4.64,4.64,0,0,1,3.67,1.53,6.8,6.8,0,0,1,1.29,4.71h-6.91a2.78,2.78,0,0,0,.67,1.91,2.09,2.09,0,0,0,1.59.68,1.69,1.69,0,0,0,1.08-.35A2.18,2.18,0,0,0,165.48,249.4Zm.16-2.79a2.66,2.66,0,0,0-.62-1.82,1.87,1.87,0,0,0-1.43-.62,1.93,1.93,0,0,0-1.49.65,2.51,2.51,0,0,0-.58,1.79Z" style="fill:#ffd96d"/><path d="M179.71,245.37l-2.72.49a2,2,0,0,0-.62-1.22,1.84,1.84,0,0,0-1.26-.41,2,2,0,0,0-1.64.71,3.61,3.61,0,0,0-.62,2.38,4.19,4.19,0,0,0,.63,2.62,2,2,0,0,0,1.67.76,1.87,1.87,0,0,0,1.29-.44,2.73,2.73,0,0,0,.7-1.54l2.71.46a4.83,4.83,0,0,1-1.62,2.82A5,5,0,0,1,175,253a4.76,4.76,0,0,1-3.64-1.44,6.58,6.58,0,0,1,0-8,4.84,4.84,0,0,1,3.69-1.44,5,5,0,0,1,3,.82A4.48,4.48,0,0,1,179.71,245.37Z" style="fill:#ffd96d"/><path d="M186.58,242.29v2.2H184.7v4.2a12,12,0,0,0,.05,1.49.66.66,0,0,0,.25.35.79.79,0,0,0,.47.13,3.4,3.4,0,0,0,1.1-.26l.24,2.14a5.57,5.57,0,0,1-2.18.41,3.34,3.34,0,0,1-1.34-.25,1.85,1.85,0,0,1-.88-.65A2.45,2.45,0,0,1,182,251a13.18,13.18,0,0,1-.09-1.95v-4.54h-1.26v-2.2h1.26v-2.07l2.77-1.61v3.68Z" style="fill:#ffd96d"/><path d="M188.5,240.88v-2.55h2.75v2.55Zm0,11.84V242.29h2.75v10.43Z" style="fill:#ffd96d"/><path d="M203.56,252.72H200.8V247.4a8.73,8.73,0,0,0-.17-2.19,1.56,1.56,0,0,0-.58-.77,1.64,1.64,0,0,0-1-.27,2.23,2.23,0,0,0-1.29.39,2,2,0,0,0-.78,1,9,9,0,0,0-.21,2.39v4.73h-2.76V242.29h2.56v1.53a4.2,4.2,0,0,1,3.44-1.76,4.32,4.32,0,0,1,1.67.32,2.94,2.94,0,0,1,1.14.85,3,3,0,0,1,.54,1.15,8.74,8.74,0,0,1,.15,1.86Z" style="fill:#ffd96d"/><path d="M206.1,253.4l3.15.39a1.11,1.11,0,0,0,.37.75,2,2,0,0,0,1.23.3,3.16,3.16,0,0,0,1.62-.33,1.24,1.24,0,0,0,.55-.7,4,4,0,0,0,.13-1.26V251a3.73,3.73,0,0,1-3.12,1.69,3.86,3.86,0,0,1-3.33-1.78,6.05,6.05,0,0,1-1-3.49,5.76,5.76,0,0,1,1.26-4,4.08,4.08,0,0,1,3.14-1.38,3.82,3.82,0,0,1,3.19,1.69v-1.46h2.58v9.36a9,9,0,0,1-.31,2.75,3.39,3.39,0,0,1-.85,1.44,3.83,3.83,0,0,1-1.47.81,7.55,7.55,0,0,1-2.32.3,6.06,6.06,0,0,1-3.76-.91,2.85,2.85,0,0,1-1.11-2.3C206.09,253.65,206.1,253.53,206.1,253.4Zm2.47-6.11a3.76,3.76,0,0,0,.64,2.43,2,2,0,0,0,1.58.77,2.2,2.2,0,0,0,1.71-.79,3.43,3.43,0,0,0,.7-2.34,3.65,3.65,0,0,0-.67-2.41,2.12,2.12,0,0,0-1.69-.78,2,2,0,0,0-1.63.77A3.58,3.58,0,0,0,208.57,247.29Z" style="fill:#ffd96d"/><path d="M224.26,252.72V238.33h9.86v2.43h-7v3.41h6v2.43h-6v6.12Z" style="fill:#ffd96d"/><path d="M238.56,245.47l-2.5-.45a3.89,3.89,0,0,1,1.45-2.24,5.36,5.36,0,0,1,3.06-.72,6.64,6.64,0,0,1,2.75.43,2.82,2.82,0,0,1,1.27,1.11,5.62,5.62,0,0,1,.37,2.47l0,3.22a11.12,11.12,0,0,0,.13,2,6.26,6.26,0,0,0,.5,1.4h-2.73c-.07-.19-.16-.46-.27-.82a3.28,3.28,0,0,0-.09-.32,5,5,0,0,1-1.51,1,4.33,4.33,0,0,1-1.72.34,3.56,3.56,0,0,1-2.54-.87,3.1,3.1,0,0,1-.5-3.79,2.76,2.76,0,0,1,1.18-1.06,9.3,9.3,0,0,1,2.19-.64,15.94,15.94,0,0,0,2.68-.67v-.28a1.45,1.45,0,0,0-.39-1.14,2.4,2.4,0,0,0-1.48-.33,1.92,1.92,0,0,0-1.15.29A2,2,0,0,0,238.56,245.47Zm3.69,2.24a15.35,15.35,0,0,1-1.68.42,5.62,5.62,0,0,0-1.5.48,1.16,1.16,0,0,0-.54,1,1.41,1.41,0,0,0,.43,1,1.52,1.52,0,0,0,1.1.42,2.4,2.4,0,0,0,1.43-.49,1.73,1.73,0,0,0,.65-.92,5.44,5.44,0,0,0,.11-1.34Z" style="fill:#ffd96d"/><path d="M250.32,252.72h-2.76V242.29h2.56v1.48a4.42,4.42,0,0,1,1.18-1.38,2.21,2.21,0,0,1,1.2-.33,3.47,3.47,0,0,1,1.81.52l-.85,2.4a2.45,2.45,0,0,0-1.3-.45,1.56,1.56,0,0,0-1,.32,2.15,2.15,0,0,0-.63,1.15,16,16,0,0,0-.23,3.5Z" style="fill:#ffd96d"/><path d="M255.29,242.29h2.55v1.43a4.06,4.06,0,0,1,3.24-1.66,3.45,3.45,0,0,1,1.74.41,3.17,3.17,0,0,1,1.21,1.25,4.73,4.73,0,0,1,1.48-1.25,3.59,3.59,0,0,1,1.7-.41,3.79,3.79,0,0,1,1.94.46,2.86,2.86,0,0,1,1.19,1.37,6,6,0,0,1,.28,2.16v6.67h-2.75v-6a4.37,4.37,0,0,0-.29-2,1.29,1.29,0,0,0-1.18-.59,1.93,1.93,0,0,0-1.09.35,2,2,0,0,0-.73,1,7.51,7.51,0,0,0-.23,2.16v5h-2.76V247a8,8,0,0,0-.14-2,1.3,1.3,0,0,0-.46-.66,1.45,1.45,0,0,0-.84-.21,2,2,0,0,0-1.15.34,1.91,1.91,0,0,0-.73,1,7.28,7.28,0,0,0-.22,2.15v5.07h-2.76Z" style="fill:#ffd96d"/><path d="M279.41,249.4l2.75.46a4.57,4.57,0,0,1-1.68,2.3,4.87,4.87,0,0,1-2.86.79,4.67,4.67,0,0,1-4-1.77,6,6,0,0,1-1-3.6,5.73,5.73,0,0,1,1.35-4.05,4.46,4.46,0,0,1,3.43-1.47,4.64,4.64,0,0,1,3.67,1.53,6.85,6.85,0,0,1,1.28,4.71h-6.91a2.83,2.83,0,0,0,.67,1.91,2.12,2.12,0,0,0,1.59.68,1.72,1.72,0,0,0,1.09-.35A2.25,2.25,0,0,0,279.41,249.4Zm.15-2.79a2.65,2.65,0,0,0-.61-1.82,1.89,1.89,0,0,0-1.44-.62,1.93,1.93,0,0,0-1.49.65,2.61,2.61,0,0,0-.58,1.79Z" style="fill:#ffd96d"/><path d="M287.19,252.72h-2.76V242.29H287v1.48a4.42,4.42,0,0,1,1.19-1.38,2.17,2.17,0,0,1,1.19-.33,3.5,3.5,0,0,1,1.82.52l-.86,2.4a2.42,2.42,0,0,0-1.29-.45,1.57,1.57,0,0,0-1,.32,2.21,2.21,0,0,0-.63,1.15,16.71,16.71,0,0,0-.23,3.5Z" style="fill:#ffd96d"/><path d="M291.4,249.74l2.77-.42a2.07,2.07,0,0,0,.71,1.22,2.43,2.43,0,0,0,1.52.42,2.75,2.75,0,0,0,1.61-.39.89.89,0,0,0,.36-.74.73.73,0,0,0-.2-.52,2.13,2.13,0,0,0-.92-.36A14.77,14.77,0,0,1,293,247.6a2.69,2.69,0,0,1-1.24-2.34,2.9,2.9,0,0,1,1.07-2.28,5,5,0,0,1,3.32-.92,5.82,5.82,0,0,1,3.18.69,3.61,3.61,0,0,1,1.43,2.06l-2.6.49a1.62,1.62,0,0,0-.63-.94,2.35,2.35,0,0,0-1.33-.32,3,3,0,0,0-1.56.3.65.65,0,0,0-.31.56.6.6,0,0,0,.27.5,10.3,10.3,0,0,0,2.58.78,7.47,7.47,0,0,1,3.07,1.23,2.53,2.53,0,0,1,.87,2.05,3.15,3.15,0,0,1-1.2,2.46,5.29,5.29,0,0,1-3.54,1,5.84,5.84,0,0,1-3.37-.86A4,4,0,0,1,291.4,249.74Z" style="fill:#ffd96d"/></g></g></svg>