<?xml version="1.0" encoding="utf-8"?>
<!-- Generator: Adobe Illustrator 23.0.1, SVG Export Plug-In . SVG Version: 6.00 Build 0)  -->
<svg version="1.1" id="Layer_1" xmlns="http://www.w3.org/2000/svg" xmlns:xlink="http://www.w3.org/1999/xlink" x="0px" y="0px"
	 viewBox="0 0 102 78.8" style="enable-background:new 0 0 102 78.8;" xml:space="preserve">
<style type="text/css">
	.st0{fill:#4CAF50;}
	.st1{fill:#1E88E5;}
	.st2{fill:#E53935;}
	.st3{fill:#C62828;}
	.st4{fill:#FBC02D;}
</style>
<g>
	<path class="st0" d="M101,21l-11.9,6.5L77.2,38.8v38.8h16.7c3.9,0,7.1-3.2,7.1-7.1V21z"/>
	<path class="st1" d="M1,21L9.6,25l15.2,13.8v38.8H8.1c-3.9,0-7.1-3.2-7.1-7.1V21z"/>
	<polygon class="st2" points="77.2,9 51,28.7 24.8,9 22.4,22.9 24.8,38.8 51,58.5 77.2,38.8 79.6,22.9 	"/>
	<path class="st3" d="M1,11.7V21l23.8,17.9V9l-7.4-5.6c-1.8-1.3-3.9-2-6.1-2l0,0C5.6,1.4,1,6,1,11.7z"/>
	<path class="st4" d="M101,11.7V21L77.2,38.8V9l7.4-5.6c1.8-1.3,3.9-2,6.1-2l0,0C96.4,1.4,101,6,101,11.7z"/>
</g>
</svg>
