<?xml version="1.0" encoding="utf-8"?>
<!-- Generator: Adobe Illustrator 23.0.1, SVG Export Plug-In . SVG Version: 6.00 Build 0)  -->
<svg version="1.1" id="Layer_1" xmlns="http://www.w3.org/2000/svg" xmlns:xlink="http://www.w3.org/1999/xlink" x="0px" y="0px"
	 viewBox="0 0 102 95" style="enable-background:new 0 0 102 95;" xml:space="preserve">
<style type="text/css">
	.st0{fill:none;}
	.st1{fill:#0364B8;}
	.st2{fill:#0A2767;}
	.st3{fill:#28A8EA;}
	.st4{fill:#35B8F1;}
	.st5{fill:#50D9FF;}
	.st6{fill:#0078D4;}
	.st7{opacity:0.5;fill:#0A2767;enable-background:new    ;}
	.st8{fill:#1490DF;}
	.st9{opacity:0.1;enable-background:new    ;}
	.st10{opacity:0.5;enable-background:new    ;}
	.st11{fill:#FFFFFF;}
</style>
<title>Outlook_24x</title>
<g id="Outlook">
	<g id="_24">
		<rect x="1" y="-2.7" class="st0" width="100" height="100"/>
		<path class="st1" d="M88.5,1.5H34.3c-2.3,0-4.2,1.9-4.2,4.2v4.2l33.3,10.2L92.6,9.9V5.6C92.7,3.3,90.8,1.5,88.5,1.5z"/>
		<path class="st2" d="M101,47c0-0.8-0.4-1.5-1.1-1.9l0,0L64,24.6c-0.2-0.1-0.3-0.2-0.5-0.3c-1.4-0.7-3-0.7-4.4,0l0,0
			c-0.2,0.1-0.3,0.2-0.5,0.3L23,44.9l0,0c-1,0.6-1.4,2-0.8,3c0.2,0.3,0.4,0.6,0.8,0.8l0,0l35.8,20.6l0.5,0.3l0,0
			c1.4,0.7,3,0.7,4.4,0l0.5-0.3L100,48.9l0,0C100.6,48.4,101,47.7,101,47z"/>
		<polygon class="st3" points="63.5,9.8 30.2,9.8 30.2,39 63.5,72.3 92.7,72.3 92.7,39 		"/>
		<polyline class="st4" points="99.2,92.4 23,48.8 23,48.8 		"/>
		<rect x="63.5" y="9.8" class="st5" width="29.2" height="29.2"/>
		<rect x="30.2" y="39" class="st6" width="33.3" height="41.7"/>
		<path class="st7" d="M61.4,78.6L23,48.8l2-3.6l36,20.6c0.3,0.1,0.7,0.1,1,0l35.4-20.2l2.1,3.6L61.4,78.6z"/>
		<path class="st8" d="M58.7,69.3L58.7,69.3L58.7,69.3z"/>
		<path class="st8" d="M99.9,48.8L99.9,48.8L64.3,69.2l-0.7,0.3c-0.7,0.3-1.5,0.5-2.3,0.5s-1.5-0.2-2.2-0.5l11.5,16l28.6,6.8
			c1.1-0.8,1.8-2,1.8-3.4v-42C101,47.7,100.6,48.4,99.9,48.8z"/>
		<path class="st9" d="M101,89v-0.3L65.6,68.5l-1.3,0.8l-0.7,0.4c-0.7,0.3-1.4,0.5-2.2,0.5h-0.3c-0.6,0-1.2-0.2-1.8-0.5l0,0L76,84.8
			l23.2,7.5C100.3,91.6,101,90.3,101,89z"/>
		<path class="st3" d="M58.7,69.3l-28.5-17l0,0L23,48.8l0,0c-0.7-0.4-1.1-1.1-1.1-1.9V89c0,2.3,1.9,4.2,4.2,4.2h70
			c1.1,0.1,2.2-0.2,3.2-0.8L58.7,69.3z"/>
		<path class="st10" d="M57.7,80.6c3.1-0.2,5.5-2.6,5.8-5.6V27.2c0-2.7-2.2-4.9-4.9-4.9H30.2v18.6L23,45.1l0,0
			c-0.7,0.3-1.1,1-1.1,1.8l0,0l0,0v33.8L57.7,80.6L57.7,80.6z"/>
		<path id="Back_Plate" class="st6" d="M5.9,18.1h48.6c2.7,0,4.9,2.2,4.9,4.9v48.6c0,2.7-2.2,4.9-4.9,4.9H5.9
			c-2.7,0-4.9-2.2-4.9-4.9V23C1,20.3,3.2,18.1,5.9,18.1z"/>
		<path class="st11" d="M15.4,38.3c1.3-2.7,3.3-4.9,5.9-6.5c2.8-1.6,6-2.4,9.3-2.3c3-0.1,6,0.7,8.6,2.2c2.4,1.5,4.4,3.6,5.7,6.2
			c1.3,2.9,2,6,1.9,9.1c0.1,3.3-0.6,6.5-2,9.5c-1.3,2.7-3.3,4.9-5.9,6.4c-2.6,1.6-5.7,2.3-8.8,2.3c-3.1,0.1-6.1-0.7-8.8-2.3
			c-2.5-1.4-4.5-3.6-5.8-6.2c-1.4-2.8-2.1-5.9-2.1-9C13.4,44.5,14.1,41.2,15.4,38.3z M21.8,53.5c0.7,1.7,1.8,3.1,3.3,4.2
			c1.5,1.1,3.2,1.6,5,1.6c1.9,0.1,3.9-0.5,5.5-1.6c1.5-1,2.6-2.5,3.2-4.2c0.7-2,1.1-4.1,1-6.2c0-2.1-0.3-4.1-1-6
			c-0.6-1.7-1.7-3.3-3.1-4.4c-1.6-1.2-3.6-1.7-5.6-1.5c-1.9-0.1-3.7,0.5-5.3,1.5c-1.5,1.1-2.6,2.5-3.3,4.2c-0.8,2-1.1,4.1-1,6.3
			C20.6,49.4,21,51.5,21.8,53.5z"/>
	</g>
</g>
</svg>
