<?xml version="1.0" encoding="utf-8"?>
<!-- Generator: Adobe Illustrator 23.0.1, SVG Export Plug-In . SVG Version: 6.00 Build 0)  -->
<svg version="1.1" id="Layer_1" xmlns="http://www.w3.org/2000/svg" xmlns:xlink="http://www.w3.org/1999/xlink" x="0px" y="0px"
	 viewBox="0 0 102 20" style="enable-background:new 0 0 102 20;" xml:space="preserve">
<style type="text/css">
	.st0{fill:#ED0C0E;}
	.st1{fill:#0F0F10;}
</style>
<g>
	<path class="st0" d="M58,13c0-1.4,0-2.9,0-4.3c0-0.6,0.2-0.8,0.8-0.8c0.7,0,1.5,0,2.2,0c0.3,0,0.6-0.1,0.7,0.4
		c0.1,0.4,0.4,0.2,0.6,0.1c1-0.9,2.3-0.9,3.5-0.8c0.9,0,1.7,0.6,2.3,1.3c0.3,0.3,0.4,0.3,0.7,0c1-1.3,2.5-1.5,4-1.3
		c1.2,0.2,2.4,1.6,2.4,2.9c0,2.2,0,4.5,0,6.7c0,0.7-0.2,0.9-0.9,0.9c-0.7,0-1.4,0-2.1,0c-0.5,0-0.7-0.2-0.7-0.7c0-1.2,0-2.4,0-3.6
		c0-0.7-0.1-1.4-0.2-2.1c-0.1-0.7-0.6-1-1.3-1.1c-0.7,0-1.3,0.6-1.4,1.3c-0.4,1.7-0.1,3.4-0.2,5.1c0,1.1,0,1.1-1.1,1.1
		c-0.6,0-1.2,0-1.7,0c-0.7,0.1-0.8-0.2-0.9-0.9c0-1.8,0.2-3.5-0.2-5.3c-0.2-0.8-0.6-1.3-1.3-1.3c-0.8,0-1.3,0.4-1.4,1.3
		c-0.3,1.7-0.1,3.5-0.2,5.2c0,0.7-0.2,1.1-1,1c-0.6-0.1-1.3-0.1-1.9,0c-0.7,0.1-0.8-0.3-0.8-0.9C58.1,15.8,58,14.4,58,13
		C58,13,58,13,58,13z"/>
	<path class="st1" d="M30.5,17.1c-1.6,1.8-5.1,1.7-6.8-0.5c-1.7-2.2-1.7-6,0.7-8c1.5-1.3,4.2-1.7,6,0.1c0.3-0.1,0.1-0.4,0.1-0.6
		c0-1.9,0-3.9,0-5.8c0-0.5,0.2-0.7,0.7-0.7c0.8,0,1.6,0,2.4,0c0.5,0,0.6,0.2,0.6,0.6c0,5,0,10,0,15.1c0,0.6-0.2,0.8-0.8,0.7
		c-0.7,0-1.3-0.1-2,0C30.9,18.1,30.4,18,30.5,17.1z M26.4,13c0,1.2,1.1,2.3,2.1,2.4c1.1,0,2.2-1.2,2.2-2.4c0-1.2-1.2-2.5-2.2-2.4
		C27.5,10.6,26.4,11.8,26.4,13z"/>
	<path class="st0" d="M88.8,13c0,1.4,0,2.9,0,4.3c0,0.6-0.2,0.8-0.8,0.8c-0.7,0-1.5,0-2.2,0c-0.2,0-0.4,0-0.5-0.1
		c-0.5-1.1-0.9-0.1-1.4,0c-1.8,0.7-4.2,0.5-5.7-1.3c-2.1-2.6-1.6-7.2,1.7-8.7c1.4-0.6,2.9-0.7,4.2,0.2C84.6,8.3,85,9,85.3,8.1
		c0.1-0.2,3.3-0.2,3.5,0c0.2,0.2,0.1,0.5,0.1,0.7C88.8,10.2,88.8,11.6,88.8,13C88.8,13,88.8,13,88.8,13z M85.3,13
		c0-1.1-1.2-2.3-2.2-2.2c-1,0-2.1,1.3-2.1,2.3c0,1,1.2,2.2,2.2,2.2C84.3,15.1,85.3,14,85.3,13z"/>
	<path class="st1" d="M17.2,13.8c-1,0-2,0-3.1,0c-0.4,0-0.6,0-0.5,0.5c0.1,0.7,0.4,1.2,1,1.4c0.7,0.2,1.4,0.4,2-0.3
		c0.2-0.2,0.4-0.3,0.7-0.3c0.9,0,1.8,0,2.6,0c0.5,0,0.6,0.1,0.4,0.6c-0.5,1.2-1.4,2-2.6,2.3c-1.9,0.5-3.8,0.6-5.7-0.5
		c-2.5-1.5-2.8-4.8-1.9-7.1c1.2-3.4,6.7-3.7,8.9-1.7c1.3,1.3,1.8,2.8,1.7,4.6c0,0.5-0.3,0.4-0.6,0.4C19.3,13.8,18.2,13.8,17.2,13.8
		C17.2,13.8,17.2,13.8,17.2,13.8z M15.5,11.9C15.5,11.9,15.5,11.9,15.5,11.9c0.4,0,0.9,0,1.3,0c0.2,0,0.4,0,0.4-0.3
		c-0.1-0.8-0.9-1.7-1.6-1.7c-0.6-0.1-1.6,0.7-1.8,1.4c-0.1,0.4-0.1,0.7,0.5,0.6C14.7,11.9,15.1,11.9,15.5,11.9z"/>
	<path class="st1" d="M46.8,14.5c0,1,0,1.9,0,2.9c0,0.6-0.2,0.7-0.7,0.7c-0.7,0-1.5,0-2.2,0c-0.6,0-0.8-0.2-0.7-0.8
		c0-1.9,0-3.8,0-5.6c0-0.6-0.1-0.9-0.8-0.8c-0.4,0.1-0.5-0.2-0.5-0.5c0-0.4,0-0.9,0-1.3c0-0.6-0.1-1.3,0.9-1.1
		c0.4,0.1,0.4-0.2,0.4-0.5c0-0.6,0-1.2,0-1.8C43.4,3,45.8,1,48.6,1.8c0.4,0.1,0.5,0.3,0.5,0.6c0,0.5,0,0.9,0,1.4c0,1,0,1-1,0.9
		c-0.6-0.1-1,0.2-1.1,0.7c-0.1,0.5-0.2,1-0.2,1.5c-0.1,0.9,0.3,1.1,1,1c0.2,0,0.5,0,0.7,0c0.4,0,0.5,0.2,0.5,0.5c0,0.3,0,0.7,0,1
		c0,1.5-0.1,1.6-1.6,1.5c-0.6-0.1-0.7,0.1-0.7,0.7C46.8,12.5,46.8,13.5,46.8,14.5C46.8,14.5,46.8,14.5,46.8,14.5z"/>
	<path class="st1" d="M50.7,14.3c0-1,0-1.9,0-2.9c0-0.4-0.1-0.6-0.5-0.6c-0.6,0.1-0.7-0.2-0.7-0.7c0-0.4,0-0.8,0-1.2
		c0-0.6-0.1-1.2,0.8-1.1c0.5,0.1,0.4-0.4,0.4-0.7c0-1.2,0-2.4,0.7-3.5c0.9-1.6,3.2-2.6,4.9-1.9c0.3,0.1,0.4,0.3,0.4,0.6
		c0,0.4,0,0.8,0,1.2c0,1.1,0,1.1-1.1,1c-0.5,0-0.9,0.3-1.1,0.8c0,0.2,0,0.4-0.1,0.6c-0.3,1.7-0.2,1.8,1.5,1.8c0.6,0,0.8,0.2,0.7,0.7
		c0,0.5,0,1.1,0,1.6c0,0.5-0.2,0.6-0.7,0.6c-1.6,0-1.6,0.1-1.6,1.6c0,1.6,0,3.3,0,4.9c0,0.5-0.2,0.7-0.7,0.7c-0.8,0-1.5,0-2.3,0
		c-0.6,0-0.7-0.2-0.7-0.7C50.7,16.3,50.7,15.3,50.7,14.3C50.7,14.3,50.7,14.3,50.7,14.3z"/>
	<path class="st0" d="M97.3,9.8c0-2.4,0-4.9,0-7.3c0-0.6,0.2-0.9,0.8-0.9c0.7,0.1,1.4,0,2.1,0c0.6,0,0.8,0.2,0.8,0.8
		c0,4.9,0,9.9,0,14.8c0,0.6-0.2,0.8-0.8,0.8c-0.6,0-1.2,0-1.8,0c-0.8,0.1-1.1-0.2-1-1C97.4,14.6,97.3,12.2,97.3,9.8
		C97.3,9.8,97.3,9.8,97.3,9.8z"/>
	<path class="st1" d="M4.8,9.3c0.9-1,2-1.4,3.3-1.4c0.4,0,0.6,0.1,0.6,0.6c0,0.6,0,1.2,0,1.8c0,1,0,1-1,0.8
		c-1.4-0.4-2.6,0.5-2.9,1.8c-0.3,1.5-0.1,3-0.2,4.4c0,0.5-0.2,0.8-0.7,0.7c-0.8,0-1.5,0-2.3,0c-0.5,0-0.7-0.2-0.6-0.7
		c0-2.9,0-5.9,0-8.8c0-0.5,0.1-0.6,0.6-0.6c0.7,0,1.5,0,2.2,0c0.6,0,0.9,0.1,0.8,0.8C4.6,8.9,4.6,9.1,4.8,9.3z"/>
	<path class="st1" d="M40.3,13c0,1.5,0,2.9,0,4.4c0,0.5-0.1,0.7-0.6,0.7c-0.8,0-1.7,0-2.5,0c-0.4,0-0.5-0.1-0.5-0.5
		c0-3.1,0-6.1,0-9.2c0-0.4,0.2-0.5,0.5-0.5c0.9,0,1.7,0,2.6,0c0.5,0,0.6,0.2,0.6,0.6C40.3,10,40.3,11.5,40.3,13z"/>
	<path class="st0" d="M91.2,12.8c0-1.4,0-2.8,0-4.2c0-0.5,0.1-0.7,0.7-0.7c0.7,0,1.5,0,2.2,0c0.5,0,0.7,0.2,0.7,0.7
		c0,2.9,0,5.8,0,8.8c0,0.6-0.2,0.7-0.8,0.7c-0.7,0-1.4,0-2.1,0c-0.6,0-0.8-0.2-0.8-0.8C91.3,15.8,91.2,14.3,91.2,12.8
		C91.2,12.8,91.2,12.8,91.2,12.8z"/>
	<path class="st0" d="M93.1,2.2c1.3,0,2,0.7,2,1.9c0,1.3-0.8,2-2.1,2c-1.1,0-1.9-0.7-1.9-1.8C91.2,2.8,91.8,2.2,93.1,2.2z"/>
	<path class="st1" d="M40.5,4.1c0,1.1-0.8,1.9-1.8,1.9c-1.2,0-2-0.7-2-1.8c0-1.4,0.6-2,2-2C39.8,2.2,40.5,2.9,40.5,4.1z"/>
</g>
</svg>
