<?xml version="1.0" encoding="utf-8"?>
<!-- Generator: Adobe Illustrator 23.0.1, SVG Export Plug-In . SVG Version: 6.00 Build 0)  -->
<svg version="1.1" id="Layer_1" xmlns="http://www.w3.org/2000/svg" xmlns:xlink="http://www.w3.org/1999/xlink" x="0px" y="0px"
	 viewBox="0 0 102 102" style="enable-background:new 0 0 102 102;" xml:space="preserve">
<style type="text/css">
	.st0{fill:#5C6BC0;}
	.st1{fill:#FFFFFF;}
</style>
<g>
	<path class="st0" d="M101,87.1c0,7.7-6.2,13.9-13.9,13.9H14.9C7.2,101,1,94.8,1,87.1V14.9C1,7.2,7.2,1,14.9,1h72.2
		C94.8,1,101,7.2,101,14.9V87.1z"/>
	<path class="st1" d="M78.8,20.4H23.2c-1.5,0-2.8,1.2-2.8,2.8v33.3c0,1.5,1.2,2.8,2.8,2.8h55.6c1.5,0,2.8-1.2,2.8-2.8V23.2
		C81.6,21.7,80.3,20.4,78.8,20.4z M76,31.6L51,42.7L26,31.6V26h50V31.6z"/>
	<g transform="matrix(.63072 0 0 .63072 -72.063 127.866)">
		<path class="st1" d="M139.4-82.5h6.6l3.9,9.9l3.9-9.9h6.5l-9.7,23.4h-6.5l2.7-6.2L139.4-82.5z"/>
		<path class="st1" d="M167-82.9c-5,0-8.1,4.5-8.1,8.9c0,5,3.5,9,8,9c3.4,0,4.7-2.1,4.7-2.1v1.6h5.8v-17h-5.8v1.5
			C171.6-80.9,170.2-82.9,167-82.9z M168.2-77.4c2.3,0,3.5,1.8,3.5,3.5c0,1.8-1.3,3.5-3.5,3.5c-1.8,0-3.5-1.5-3.5-3.4
			C164.7-75.8,166.1-77.4,168.2-77.4z"/>
		<path class="st1" d="M179.4-65.4V-90h6v9.1c0,0,1.4-2,4.4-2c3.7,0,5.8,2.7,5.8,6.7v10.8h-6v-9.3c0-1.3-0.6-2.6-2.1-2.6
			c-1.5,0-2.2,1.3-2.2,2.6v9.3H179.4z"/>
		<path class="st1" d="M206-82.9c-5.7,0-9.1,4.3-9.1,9c0,5.3,4.1,8.9,9.1,8.9c4.9,0,9.1-3.4,9.1-8.8C215.1-79.6,210.7-82.9,206-82.9
			z M206.1-77.3c2,0,3.4,1.7,3.4,3.5c0,1.5-1.3,3.4-3.4,3.4c-1.9,0-3.4-1.5-3.4-3.4C202.7-75.7,203.9-77.3,206.1-77.3z"/>
		<path class="st1" d="M225.2-82.9c-5.7,0-9.1,4.3-9.1,9c0,5.3,4.1,8.9,9.1,8.9c4.9,0,9.1-3.4,9.1-8.8
			C234.3-79.6,229.9-82.9,225.2-82.9z M225.2-77.3c2,0,3.4,1.7,3.4,3.5c0,1.5-1.3,3.4-3.4,3.4c-1.9,0-3.4-1.5-3.4-3.4
			C221.9-75.7,223.1-77.3,225.2-77.3z"/>
		<circle class="st1" cx="239.1" cy="-69.1" r="4"/>
		<path class="st1" d="M244.4-74.6h-7.2l6.4-15.4h7.2L244.4-74.6z"/>
	</g>
</g>
<image style="overflow:visible;" width="892" height="271" xlink:href="C:\Users\Admin\Downloads\Rediff.png"  transform="matrix(0.24 0 0 0.24 -1.5 765)">
</image>
</svg>
