<svg id="Layer_1" data-name="Layer 1" xmlns="http://www.w3.org/2000/svg" xmlns:xlink="http://www.w3.org/1999/xlink" viewBox="0 0 900 350"><defs><clipPath id="clip-path"><polygon points="3.16 349 896.84 349 896.84 2.12 3.16 2.12 3.16 349 3.16 349" style="fill:none;clip-rule:evenodd"/></clipPath><clipPath id="clip-path-2"><polygon points="71.95 307.03 861.17 307.03 861.17 20.76 71.95 20.76 71.95 307.03 71.95 307.03" style="fill:none;clip-rule:evenodd"/></clipPath><clipPath id="clip-path-13"><rect x="3.16" y="2.12" width="893.68" height="346.88" style="fill:none"/></clipPath></defs><title>ground-truth-risk-report</title><polygon points="3.29 2.25 896.84 2.25 896.84 349.13 3.29 349.13 3.29 2.25 3.29 2.25" style="fill:#eaeaea;fill-rule:evenodd"/><polygon points="72.08 20.89 860.37 20.89 860.37 306.22 72.08 306.22 72.08 20.89 72.08 20.89" style="fill:#fff;fill-rule:evenodd"/><path d="M72.08,234.89H860.37M72.08,163.56H860.37M72.08,92.22H860.37M72.08,20.89H860.37" style="fill:none;stroke:#d9d9d9;stroke-linejoin:round;stroke-width:0.804511027149837px"/><g style="clip-path:url(#clip-path)"><path d="M72.08,20.89V306.22M334.89,20.89V306.22M597.69,20.89V306.22M860.37,20.89V306.22" style="fill:none;stroke:#d9d9d9;stroke-linejoin:round;stroke-width:0.804511027149837px"/></g><g style="clip-path:url(#clip-path-2)"><polygon points="152.93 135 254.03 135 254.03 306.22 152.93 306.22 152.93 135 152.93 135" style="fill:#5e9fff;fill-rule:evenodd"/><polygon points="152.93 135 254.03 135 254.03 306.22 152.93 306.22 152.93 135 152.93 135" style="fill:none;stroke:#7f7f7f;stroke-linejoin:round;stroke-width:0.804511027149837px"/><polygon points="415.74 120.78 516.84 120.78 516.84 306.22 415.74 306.22 415.74 120.78 415.74 120.78" style="fill:#5e9fff;fill-rule:evenodd"/><polygon points="415.74 120.78 516.84 120.78 516.84 306.22 415.74 306.22 415.74 120.78 415.74 120.78" style="fill:none;stroke:#7f7f7f;stroke-linejoin:round;stroke-width:0.804511027149837px"/><polygon points="678.55 92.22 779.51 92.22 779.51 306.22 678.55 306.22 678.55 92.22 678.55 92.22" style="fill:#5e9fff;fill-rule:evenodd"/><polygon points="678.55 92.22 779.51 92.22 779.51 306.22 678.55 306.22 678.55 92.22 678.55 92.22" style="fill:none;stroke:#7f7f7f;stroke-linejoin:round;stroke-width:0.804511027149837px"/></g><g style="clip-path:url(#clip-path)"><line x1="72.08" y1="306.22" x2="860.37" y2="306.22" style="fill:none;stroke:#d9d9d9;stroke-linejoin:round;stroke-width:0.804511027149837px"/></g><g style="clip-path:url(#clip-path)"><path d="M72.08,306.22v3.09m262.81-3.09v3.09m262.8-3.09v3.09m262.68-3.09v3.09" style="fill:none;stroke:#d9d9d9;stroke-linejoin:round;stroke-width:0.804511027149837px"/></g><g style="clip-path:url(#clip-path-2)"><polyline points="203.48 85.52 466.29 85.52 728.96 85.52" style="fill:none;stroke:#06f;stroke-linecap:round;stroke-linejoin:round;stroke-width:1.34082361698151px;stroke-dasharray:5.018052577972412,5.018052577972412"/></g><g style="clip-path:url(#clip-path)"><path d="M206.27,85.51a2.82,2.82,0,1,1-2.82-2.81,2.82,2.82,0,0,1,2.82,2.81Z" style="fill:#06f"/><path d="M206.27,85.51a2.82,2.82,0,1,1-2.82-2.81,2.82,2.82,0,0,1,2.82,2.81Z" style="fill:none;stroke:#2935e8;stroke-linejoin:round;stroke-width:0.804511093750665px"/><path d="M469.08,85.51a2.82,2.82,0,1,1-2.82-2.81,2.82,2.82,0,0,1,2.82,2.81Z" style="fill:#06f"/><path d="M469.08,85.51a2.82,2.82,0,1,1-2.82-2.81,2.82,2.82,0,0,1,2.82,2.81Z" style="fill:none;stroke:#2935e8;stroke-linejoin:round;stroke-width:0.804511093750665px"/><path d="M731.75,85.51a2.82,2.82,0,1,1-2.82-2.81,2.82,2.82,0,0,1,2.82,2.81Z" style="fill:#06f"/><path d="M731.75,85.51a2.82,2.82,0,1,1-2.82-2.81,2.82,2.82,0,0,1,2.82,2.81Z" style="fill:none;stroke:#2935e8;stroke-linejoin:round;stroke-width:0.804511093750665px"/></g><g style="clip-path:url(#clip-path-2)"><polyline points="203.48 148.41 466.29 148.41 728.96 148.41" style="fill:none;stroke:#ff25f3;stroke-linecap:round;stroke-linejoin:round;stroke-width:1.34082361698151px;stroke-dasharray:5.018052577972412,5.018052577972412"/></g><g style="clip-path:url(#clip-path)"><path d="M206.27,148.4a2.82,2.82,0,1,1-2.82-2.82,2.82,2.82,0,0,1,2.82,2.82Z" style="fill:#ff25f3"/><path d="M206.27,148.4a2.82,2.82,0,1,1-2.82-2.82,2.82,2.82,0,0,1,2.82,2.82Z" style="fill:none;stroke:#d9d9d9;stroke-linejoin:round;stroke-width:0.804511093750665px"/><path d="M469.08,148.4a2.82,2.82,0,1,1-2.82-2.82,2.82,2.82,0,0,1,2.82,2.82Z" style="fill:#ff25f3"/><path d="M469.08,148.4a2.82,2.82,0,1,1-2.82-2.82,2.82,2.82,0,0,1,2.82,2.82Z" style="fill:none;stroke:#d9d9d9;stroke-linejoin:round;stroke-width:0.804511093750665px"/><path d="M731.75,148.4a2.82,2.82,0,1,1-2.82-2.82,2.82,2.82,0,0,1,2.82,2.82Z" style="fill:#ff25f3"/><path d="M731.75,148.4a2.82,2.82,0,1,1-2.82-2.82,2.82,2.82,0,0,1,2.82,2.82Z" style="fill:none;stroke:#d9d9d9;stroke-linejoin:round;stroke-width:0.804511093750665px"/></g><g style="clip-path:url(#clip-path-2)"><polyline points="203.48 106.44 466.29 106.44 728.96 106.44" style="fill:none;stroke:#7f7f7f;stroke-linecap:round;stroke-linejoin:round;stroke-width:1.34085168971612px"/></g><g style="clip-path:url(#clip-path)"><path d="M206.27,106.43a2.82,2.82,0,1,1-2.82-2.81,2.82,2.82,0,0,1,2.82,2.81Z" style="fill:#7f7f7f"/><path d="M206.27,106.43a2.82,2.82,0,1,1-2.82-2.81,2.82,2.82,0,0,1,2.82,2.81Z" style="fill:none;stroke:#7f7f7f;stroke-linejoin:round;stroke-width:0.804511093750665px"/><path d="M469.08,106.43a2.82,2.82,0,1,1-2.82-2.81,2.82,2.82,0,0,1,2.82,2.81Z" style="fill:#7f7f7f"/><path d="M469.08,106.43a2.82,2.82,0,1,1-2.82-2.81,2.82,2.82,0,0,1,2.82,2.81Z" style="fill:none;stroke:#7f7f7f;stroke-linejoin:round;stroke-width:0.804511093750665px"/><path d="M731.75,106.43a2.82,2.82,0,1,1-2.82-2.81,2.82,2.82,0,0,1,2.82,2.81Z" style="fill:#7f7f7f"/><path d="M731.75,106.43a2.82,2.82,0,1,1-2.82-2.81,2.82,2.82,0,0,1,2.82,2.81Z" style="fill:none;stroke:#7f7f7f;stroke-linejoin:round;stroke-width:0.804511093750665px"/></g><g style="clip-path:url(#clip-path-2)"><polyline points="203.48 135 466.29 135 728.96 135" style="fill:none;stroke:#00a188;stroke-linecap:round;stroke-linejoin:round;stroke-width:1.34085168971612px"/></g><g style="clip-path:url(#clip-path)"><path d="M206.27,135a2.82,2.82,0,1,1-2.82-2.81,2.82,2.82,0,0,1,2.82,2.81Z" style="fill:#00a188"/><path d="M206.27,135a2.82,2.82,0,1,1-2.82-2.81,2.82,2.82,0,0,1,2.82,2.81Z" style="fill:none;stroke:#d9d9d9;stroke-linejoin:round;stroke-width:0.804511093750665px"/><path d="M469.08,135a2.82,2.82,0,1,1-2.82-2.81,2.82,2.82,0,0,1,2.82,2.81Z" style="fill:#00a188"/><path d="M469.08,135a2.82,2.82,0,1,1-2.82-2.81,2.82,2.82,0,0,1,2.82,2.81Z" style="fill:none;stroke:#d9d9d9;stroke-linejoin:round;stroke-width:0.804511093750665px"/><path d="M731.75,135a2.82,2.82,0,1,1-2.82-2.81,2.82,2.82,0,0,1,2.82,2.81Z" style="fill:#00a188"/><path d="M731.75,135a2.82,2.82,0,1,1-2.82-2.81,2.82,2.82,0,0,1,2.82,2.81Z" style="fill:none;stroke:#d9d9d9;stroke-linejoin:round;stroke-width:0.804511093750665px"/></g><g style="clip-path:url(#clip-path-13)"><text transform="translate(57.83 309.43)" style="font-size:10.056389808654785px;font-family:ArialMT, Arial">0</text></g><g style="clip-path:url(#clip-path-13)"><text transform="translate(43.85 238.09)" style="font-size:10.056389808654785px;font-family:ArialMT, Arial"><tspan style="letter-spacing:0.0030103683405297106em">0</tspan><tspan x="5.62" y="0" style="letter-spacing:0.0020392817790685137em">.</tspan><tspan x="8.44" y="0" style="letter-spacing:-0.009031105021589133em">2</tspan><tspan x="13.94" y="0">5</tspan></text></g><g style="clip-path:url(#clip-path-13)"><text transform="translate(49.44 166.75)" style="font-size:10.056389808654785px;font-family:ArialMT, Arial"><tspan style="letter-spacing:0.0030103683405297106em">0</tspan><tspan x="5.62" y="0" style="letter-spacing:0.0020392817790685137em">.</tspan><tspan x="8.44" y="0">5</tspan></text></g><g style="clip-path:url(#clip-path-13)"><text transform="translate(43.85 95.42)" style="font-size:10.056389808654785px;font-family:ArialMT, Arial"><tspan style="letter-spacing:0.0030103683405297106em">0</tspan><tspan x="5.62" y="0" style="letter-spacing:0.0020392817790685137em">.</tspan><tspan x="8.44" y="0" style="letter-spacing:-0.009031105021589133em">7</tspan><tspan x="13.94" y="0">5</tspan></text></g><g style="clip-path:url(#clip-path-13)"><text transform="translate(57.83 24.09)" style="font-size:10.056389808654785px;font-family:ArialMT, Arial">1</text></g><g style="clip-path:url(#clip-path-13)"><text transform="translate(194.8 321.41)" style="font-size:10.056389808654785px;font-family:ArialMT, Arial">Jul</text></g><g style="clip-path:url(#clip-path-13)"><text transform="translate(455.58 321.41)" style="font-size:10.056389808654785px;font-family:ArialMT, Arial">Aug</text></g><g style="clip-path:url(#clip-path-13)"><text transform="translate(722.38 321.41)" style="font-size:10.056389808654785px;font-family:ArialMT, Arial">Sep</text></g><g style="clip-path:url(#clip-path-13)"><text transform="translate(24.17 211.32) rotate(-90)" style="font-size:11.129070281982422px;font-family:Arial-BoldMT, Arial;font-weight:700"><tspan style="letter-spacing:0.00500168128061139em">Q</tspan><tspan x="8.71" y="0" style="letter-spacing:0.0030712078038841865em">u</tspan><tspan x="15.54" y="0" style="letter-spacing:-0.0010529855327602925em">a</tspan><tspan x="21.72" y="0" style="letter-spacing:0.0030712078038841865em">n</tspan><tspan x="28.55" y="0" style="letter-spacing:0.003948695747851097em">t</tspan><tspan x="32.3" y="0" style="letter-spacing:0.00008774879439669105em">i</tspan><tspan x="35.4" y="0" style="letter-spacing:0.003948695747851097em">t</tspan><tspan x="39.15" y="0" style="letter-spacing:-0.012986821570710275em">y</tspan><tspan x="45.19" y="0" style="letter-spacing:0.011056348093983072em"> </tspan><tspan x="48.41" y="0" style="letter-spacing:0.003948695747851097em">(</tspan><tspan x="52.16" y="0" style="letter-spacing:0.022024947393569454em">M</tspan><tspan x="61.67" y="0" style="letter-spacing:0.01500504384183417em">T</tspan><tspan x="68.64" y="0">)</tspan></text></g><g style="clip-path:url(#clip-path-13)"><text transform="translate(423.09 344.8)" style="font-size:11.129070281982422px;font-family:Arial-BoldMT, Arial;font-weight:700"><tspan style="letter-spacing:0.01500504384183417em">T</tspan><tspan x="6.96" y="0">i</tspan><tspan x="10.06" y="0" style="letter-spacing:0.0020182222711238942em">m</tspan><tspan x="19.97" y="0" style="letter-spacing:-0.0009652367383636016em">e</tspan><tspan x="26.15" y="0"> </tspan><tspan x="29.25" y="0" style="letter-spacing:-0.003948695747851097em">P</tspan><tspan x="36.62" y="0" style="letter-spacing:-0.0010529855327602925em">e</tspan><tspan x="42.8" y="0" style="letter-spacing:-0.002983459009487496em">r</tspan><tspan x="47.1" y="0">i</tspan><tspan x="50.19" y="0" style="letter-spacing:0.0030712078038841865em">o</tspan><tspan x="57.02" y="0">d</tspan></text></g><polygon points="3.29 2.25 896.84 2.25 896.84 349.13 3.29 349.13 3.29 2.25 3.29 2.25" style="fill:none;stroke:#d9d9d9;stroke-linejoin:round;stroke-width:0.804511093750665px"/></svg>