<svg id="Layer_1" data-name="Layer 1" xmlns="http://www.w3.org/2000/svg" xmlns:xlink="http://www.w3.org/1999/xlink" viewBox="0 0 900 350"><defs><clipPath id="clip-path"><polygon points="2.78 349.92 897.08 349.92 897.08 0.08 2.78 0.08 2.78 349.92 2.78 349.92" style="fill:none;clip-rule:evenodd"/></clipPath><clipPath id="clip-path-6"><polygon points="71.38 289.77 886.04 289.77 886.04 15.08 71.38 15.08 71.38 289.77 71.38 289.77" style="fill:none;clip-rule:evenodd"/></clipPath><clipPath id="clip-path-10"><rect x="2.78" y="0.08" width="894.3" height="349.84" style="fill:none"/></clipPath></defs><title>ndvi-risk-report</title><polygon points="2.78 0.08 897.22 0.08 897.22 349.92 2.78 349.92 2.78 0.08 2.78 0.08" style="fill:#eaeaea;fill-rule:evenodd"/><polygon points="71.52 15.08 885.22 15.08 885.22 288.95 71.52 288.95 71.52 15.08 71.52 15.08" style="fill:#fff;fill-rule:evenodd"/><path d="M71.52,220.49h813.7M71.52,152h813.7M71.52,83.55h813.7M71.52,15.08h813.7" style="fill:none;stroke:#d9d9d9;stroke-linejoin:round;stroke-width:0.818335755406601px"/><g style="clip-path:url(#clip-path)"><path d="M105.48,15.08V289M173.27,15.08V289M241.05,15.08V289M308.84,15.08V289M376.62,15.08V289M444.41,15.08V289M512.33,15.08V289M580.12,15.08V289M647.9,15.08V289M715.69,15.08V289M783.47,15.08V289M851.39,15.08V289" style="fill:none;stroke:#f2f2f2;stroke-linejoin:round;stroke-width:0.818335755406601px"/></g><g style="clip-path:url(#clip-path)"><path d="M71.52,15.08V289M139.31,15.08V289M207.09,15.08V289M275,15.08V289M342.8,15.08V289M410.58,15.08V289M478.37,15.08V289M546.15,15.08V289M613.94,15.08V289M681.86,15.08V289M749.65,15.08V289M817.43,15.08V289M885.22,15.08V289" style="fill:none;stroke:#d9d9d9;stroke-linejoin:round;stroke-width:0.818335755406601px"/></g><g style="clip-path:url(#clip-path)"><line x1="71.52" y1="288.95" x2="885.22" y2="288.95" style="fill:none;stroke:#d9d9d9;stroke-linejoin:round;stroke-width:1.3638929030959px"/></g><g style="clip-path:url(#clip-path)"><path d="M71.52,289v18.42M342.8,289v18.42M613.94,289v18.42M885.22,289v18.42" style="fill:none;stroke:#d9d9d9;stroke-linejoin:round;stroke-width:1.3638929030959px"/></g><g style="clip-path:url(#clip-path)"><path d="M71.52,307.37v18.41M342.8,307.37v18.41m271.14-18.41v18.41m271.28-18.41v18.41" style="fill:none;stroke:#d9d9d9;stroke-linejoin:round;stroke-width:1.3638929030959px"/></g><g style="clip-path:url(#clip-path-6)"><polyline points="105.48 193.07 173.27 157.47 241.05 124.6 308.84 108.24 376.62 97.33 444.41 91.87 512.33 102.78 580.12 124.6 647.9 152.02 715.69 165.79 783.47 179.43 851.39 195.8" style="fill:none;stroke:#ff25f3;stroke-linecap:round;stroke-linejoin:round;stroke-width:2.4550071984745px"/></g><g style="clip-path:url(#clip-path)"><polygon points="102.64 190.27 108.37 190.27 108.37 196 102.64 196 102.64 190.27 102.64 190.27" style="fill:#ff25f3;fill-rule:evenodd"/><polygon points="102.64 190.27 108.37 190.27 108.37 196 102.64 196 102.64 190.27 102.64 190.27" style="fill:none;stroke:#d9d9d9;stroke-linejoin:round;stroke-width:0.818335823151898px"/><polygon points="170.43 154.67 176.15 154.67 176.15 160.4 170.43 160.4 170.43 154.67 170.43 154.67" style="fill:#ff25f3;fill-rule:evenodd"/><polygon points="170.43 154.67 176.15 154.67 176.15 160.4 170.43 160.4 170.43 154.67 170.43 154.67" style="fill:none;stroke:#d9d9d9;stroke-linejoin:round;stroke-width:0.818335823151898px"/><polygon points="238.21 121.8 243.94 121.8 243.94 127.53 238.21 127.53 238.21 121.8 238.21 121.8" style="fill:#ff25f3;fill-rule:evenodd"/><polygon points="238.21 121.8 243.94 121.8 243.94 127.53 238.21 127.53 238.21 121.8 238.21 121.8" style="fill:none;stroke:#d9d9d9;stroke-linejoin:round;stroke-width:0.818335823151898px"/><polygon points="306 105.44 311.73 105.44 311.73 111.16 306 111.16 306 105.44 306 105.44" style="fill:#ff25f3;fill-rule:evenodd"/><polygon points="306 105.44 311.73 105.44 311.73 111.16 306 111.16 306 105.44 306 105.44" style="fill:none;stroke:#d9d9d9;stroke-linejoin:round;stroke-width:0.818335823151898px"/><polygon points="373.78 94.52 379.51 94.52 379.51 100.25 373.78 100.25 373.78 94.52 373.78 94.52" style="fill:#ff25f3;fill-rule:evenodd"/><polygon points="373.78 94.52 379.51 94.52 379.51 100.25 373.78 100.25 373.78 94.52 373.78 94.52" style="fill:none;stroke:#d9d9d9;stroke-linejoin:round;stroke-width:0.818335823151898px"/><polygon points="441.57 89.07 447.3 89.07 447.3 94.8 441.57 94.8 441.57 89.07 441.57 89.07" style="fill:#ff25f3;fill-rule:evenodd"/><polygon points="441.57 89.07 447.3 89.07 447.3 94.8 441.57 94.8 441.57 89.07 441.57 89.07" style="fill:none;stroke:#d9d9d9;stroke-linejoin:round;stroke-width:0.818335823151898px"/><polygon points="509.49 99.98 515.22 99.98 515.22 105.71 509.49 105.71 509.49 99.98 509.49 99.98" style="fill:#ff25f3;fill-rule:evenodd"/><polygon points="509.49 99.98 515.22 99.98 515.22 105.71 509.49 105.71 509.49 99.98 509.49 99.98" style="fill:none;stroke:#d9d9d9;stroke-linejoin:round;stroke-width:0.818335823151898px"/><polygon points="577.27 121.8 583 121.8 583 127.53 577.27 127.53 577.27 121.8 577.27 121.8" style="fill:#ff25f3;fill-rule:evenodd"/><polygon points="577.27 121.8 583 121.8 583 127.53 577.27 127.53 577.27 121.8 577.27 121.8" style="fill:none;stroke:#d9d9d9;stroke-linejoin:round;stroke-width:0.818335823151898px"/><polygon points="645.06 149.22 650.79 149.22 650.79 154.94 645.06 154.94 645.06 149.22 645.06 149.22" style="fill:#ff25f3;fill-rule:evenodd"/><polygon points="645.06 149.22 650.79 149.22 650.79 154.94 645.06 154.94 645.06 149.22 645.06 149.22" style="fill:none;stroke:#d9d9d9;stroke-linejoin:round;stroke-width:0.818335823151898px"/><polygon points="712.85 162.99 718.57 162.99 718.57 168.72 712.85 168.72 712.85 162.99 712.85 162.99" style="fill:#ff25f3;fill-rule:evenodd"/><polygon points="712.85 162.99 718.57 162.99 718.57 168.72 712.85 168.72 712.85 162.99 712.85 162.99" style="fill:none;stroke:#d9d9d9;stroke-linejoin:round;stroke-width:0.818335823151898px"/><polygon points="780.63 176.63 786.36 176.63 786.36 182.36 780.63 182.36 780.63 176.63 780.63 176.63" style="fill:#ff25f3;fill-rule:evenodd"/><polygon points="780.63 176.63 786.36 176.63 786.36 182.36 780.63 182.36 780.63 176.63 780.63 176.63" style="fill:none;stroke:#d9d9d9;stroke-linejoin:round;stroke-width:0.818335823151898px"/><polygon points="848.55 193 854.28 193 854.28 198.72 848.55 198.72 848.55 193 848.55 193" style="fill:#ff25f3;fill-rule:evenodd"/><polygon points="848.55 193 854.28 193 854.28 198.72 848.55 198.72 848.55 193 848.55 193" style="fill:none;stroke:#d9d9d9;stroke-linejoin:round;stroke-width:0.818335823151898px"/></g><g style="clip-path:url(#clip-path-6)"><polyline points="105.48 195.8 173.27 173.98 241.05 141.11 308.84 124.6 376.62 113.69 444.41 108.24 512.33 119.15 580.12 141.11 647.9 168.52 715.69 182.16 783.47 195.8 851.39 212.3" style="fill:none;stroke:#06f;stroke-linecap:round;stroke-linejoin:round;stroke-width:2.4550071984745px"/></g><g style="clip-path:url(#clip-path)"><path d="M108.37,195.86A2.87,2.87,0,1,1,105.5,193a2.87,2.87,0,0,1,2.87,2.86Z" style="fill:#06f"/><path d="M108.37,195.86A2.87,2.87,0,1,1,105.5,193a2.87,2.87,0,0,1,2.87,2.86Z" style="fill:none;stroke:#6b77e8;stroke-linejoin:round;stroke-width:0.818335823151898px"/><path d="M176.15,174a2.86,2.86,0,1,1-2.86-2.87,2.86,2.86,0,0,1,2.86,2.87Z" style="fill:#06f"/><path d="M176.15,174a2.86,2.86,0,1,1-2.86-2.87,2.86,2.86,0,0,1,2.86,2.87Z" style="fill:none;stroke:#6b77e8;stroke-linejoin:round;stroke-width:0.818335823151898px"/><path d="M243.94,141.17a2.87,2.87,0,1,1-2.86-2.87,2.86,2.86,0,0,1,2.86,2.87Z" style="fill:#06f"/><path d="M243.94,141.17a2.87,2.87,0,1,1-2.86-2.87,2.86,2.86,0,0,1,2.86,2.87Z" style="fill:none;stroke:#6b77e8;stroke-linejoin:round;stroke-width:0.818335823151898px"/><path d="M311.73,124.67a2.87,2.87,0,1,1-2.87-2.87,2.87,2.87,0,0,1,2.87,2.87Z" style="fill:#06f"/><path d="M311.73,124.67a2.87,2.87,0,1,1-2.87-2.87,2.87,2.87,0,0,1,2.87,2.87Z" style="fill:none;stroke:#6b77e8;stroke-linejoin:round;stroke-width:0.818335823151898px"/><path d="M379.51,113.75a2.87,2.87,0,1,1-2.86-2.86,2.86,2.86,0,0,1,2.86,2.86Z" style="fill:#06f"/><path d="M379.51,113.75a2.87,2.87,0,1,1-2.86-2.86,2.86,2.86,0,0,1,2.86,2.86Z" style="fill:none;stroke:#6b77e8;stroke-linejoin:round;stroke-width:0.818335823151898px"/><path d="M447.3,108.3a2.87,2.87,0,1,1-2.87-2.86,2.87,2.87,0,0,1,2.87,2.86Z" style="fill:#06f"/><path d="M447.3,108.3a2.87,2.87,0,1,1-2.87-2.86,2.87,2.87,0,0,1,2.87,2.86Z" style="fill:none;stroke:#6b77e8;stroke-linejoin:round;stroke-width:0.818335823151898px"/><path d="M515.22,119.21a2.87,2.87,0,1,1-2.87-2.86,2.86,2.86,0,0,1,2.87,2.86Z" style="fill:#06f"/><path d="M515.22,119.21a2.87,2.87,0,1,1-2.87-2.86,2.86,2.86,0,0,1,2.87,2.86Z" style="fill:none;stroke:#6b77e8;stroke-linejoin:round;stroke-width:0.818335823151898px"/><path d="M583,141.17a2.86,2.86,0,1,1-2.86-2.87,2.86,2.86,0,0,1,2.86,2.87Z" style="fill:#06f"/><path d="M583,141.17a2.86,2.86,0,1,1-2.86-2.87,2.86,2.86,0,0,1,2.86,2.87Z" style="fill:none;stroke:#6b77e8;stroke-linejoin:round;stroke-width:0.818335823151898px"/><path d="M650.79,168.58a2.87,2.87,0,1,1-2.87-2.86,2.86,2.86,0,0,1,2.87,2.86Z" style="fill:#06f"/><path d="M650.79,168.58a2.87,2.87,0,1,1-2.87-2.86,2.86,2.86,0,0,1,2.87,2.86Z" style="fill:none;stroke:#6b77e8;stroke-linejoin:round;stroke-width:0.818335823151898px"/><path d="M718.57,182.22a2.86,2.86,0,1,1-2.86-2.86,2.87,2.87,0,0,1,2.86,2.86Z" style="fill:#06f"/><path d="M718.57,182.22a2.86,2.86,0,1,1-2.86-2.86,2.87,2.87,0,0,1,2.86,2.86Z" style="fill:none;stroke:#6b77e8;stroke-linejoin:round;stroke-width:0.818335823151898px"/><path d="M786.36,195.86A2.87,2.87,0,1,1,783.5,193a2.87,2.87,0,0,1,2.86,2.86Z" style="fill:#06f"/><path d="M786.36,195.86A2.87,2.87,0,1,1,783.5,193a2.87,2.87,0,0,1,2.86,2.86Z" style="fill:none;stroke:#6b77e8;stroke-linejoin:round;stroke-width:0.818335823151898px"/><path d="M854.28,212.36a2.87,2.87,0,1,1-2.86-2.86,2.86,2.86,0,0,1,2.86,2.86Z" style="fill:#06f"/><path d="M854.28,212.36a2.87,2.87,0,1,1-2.86-2.86,2.86,2.86,0,0,1,2.86,2.86Z" style="fill:none;stroke:#6b77e8;stroke-linejoin:round;stroke-width:0.818335823151898px"/></g><g style="clip-path:url(#clip-path-10)"><text transform="translate(42.81 292.19)" style="font-size:10.22920036315918px;font-family:ArialMT, Arial"><tspan style="letter-spacing:0.002959511635829408em">0</tspan><tspan x="5.72" y="0" style="letter-spacing:0.002004830462981212em">.</tspan><tspan x="8.58" y="0" style="letter-spacing:-0.009069471142057865em">0</tspan><tspan x="14.18" y="0">0</tspan></text></g><g style="clip-path:url(#clip-path-10)"><text transform="translate(42.81 223.75)" style="font-size:10.22920036315918px;font-family:ArialMT, Arial"><tspan style="letter-spacing:0.002959511635829408em">0</tspan><tspan x="5.72" y="0" style="letter-spacing:0.002004830462981212em">.</tspan><tspan x="8.58" y="0" style="letter-spacing:-0.009069471142057865em">2</tspan><tspan x="14.18" y="0">5</tspan></text></g><g style="clip-path:url(#clip-path-10)"><text transform="translate(42.81 155.3)" style="font-size:10.22920036315918px;font-family:ArialMT, Arial"><tspan style="letter-spacing:0.002959511635829408em">0</tspan><tspan x="5.72" y="0" style="letter-spacing:0.002004830462981212em">.</tspan><tspan x="8.58" y="0" style="letter-spacing:-0.009069471142057865em">5</tspan><tspan x="14.18" y="0">0</tspan></text></g><g style="clip-path:url(#clip-path-10)"><text transform="translate(42.81 86.85)" style="font-size:10.22920036315918px;font-family:ArialMT, Arial"><tspan style="letter-spacing:0.002959511635829408em">0</tspan><tspan x="5.72" y="0" style="letter-spacing:0.002004830462981212em">.</tspan><tspan x="8.58" y="0" style="letter-spacing:-0.009069471142057865em">7</tspan><tspan x="14.18" y="0">5</tspan></text></g><g style="clip-path:url(#clip-path-10)"><text transform="translate(42.81 18.4)" style="font-size:10.22920036315918px;font-family:ArialMT, Arial"><tspan style="letter-spacing:0.002959511635829408em">1</tspan><tspan x="5.72" y="0" style="letter-spacing:0.002004830462981212em">.</tspan><tspan x="8.58" y="0" style="letter-spacing:-0.009069471142057865em">0</tspan><tspan x="14.18" y="0">0</tspan></text></g><g style="clip-path:url(#clip-path-10)"><text transform="translate(102.57 304.38)" style="font-size:10.22920036315918px;font-family:ArialMT, Arial">1</text></g><g style="clip-path:url(#clip-path-10)"><text transform="translate(170.38 304.38)" style="font-size:10.22920036315918px;font-family:ArialMT, Arial">2</text></g><g style="clip-path:url(#clip-path-10)"><text transform="translate(238.2 304.38)" style="font-size:10.22920036315918px;font-family:ArialMT, Arial">3</text></g><g style="clip-path:url(#clip-path-10)"><text transform="translate(306 304.38)" style="font-size:10.22920036315918px;font-family:ArialMT, Arial">4</text></g><g style="clip-path:url(#clip-path-10)"><text transform="translate(373.81 304.38)" style="font-size:10.22920036315918px;font-family:ArialMT, Arial">1</text></g><g style="clip-path:url(#clip-path-10)"><text transform="translate(441.63 304.38)" style="font-size:10.22920036315918px;font-family:ArialMT, Arial">2</text></g><g style="clip-path:url(#clip-path-10)"><text transform="translate(509.44 304.38)" style="font-size:10.22920036315918px;font-family:ArialMT, Arial">3</text></g><g style="clip-path:url(#clip-path-10)"><text transform="translate(577.25 304.38)" style="font-size:10.22920036315918px;font-family:ArialMT, Arial">4</text></g><g style="clip-path:url(#clip-path-10)"><text transform="translate(645.06 304.38)" style="font-size:10.22920036315918px;font-family:ArialMT, Arial">1</text></g><g style="clip-path:url(#clip-path-10)"><text transform="translate(712.87 304.38)" style="font-size:10.22920036315918px;font-family:ArialMT, Arial">2</text></g><g style="clip-path:url(#clip-path-10)"><text transform="translate(780.68 304.38)" style="font-size:10.22920036315918px;font-family:ArialMT, Arial">3</text></g><g style="clip-path:url(#clip-path-10)"><text transform="translate(848.49 304.38)" style="font-size:10.22920036315918px;font-family:ArialMT, Arial">4</text></g><g style="clip-path:url(#clip-path-10)"><text transform="translate(200.6 322.83)" style="font-size:10.22920036315918px;font-family:ArialMT, Arial;letter-spacing:0.006014491388943636em">J<tspan x="5.18" y="0" style="letter-spacing:-0.009069471142057865em">u</tspan><tspan x="10.77" y="0" style="letter-spacing:0.00009546811728481962em">l</tspan></text></g><g style="clip-path:url(#clip-path-10)"><text transform="translate(469.28 322.83)" style="font-size:10.22920036315918px;font-family:ArialMT, Arial">A<tspan x="6.82" y="0" style="letter-spacing:0.0028640435185445885em">u</tspan><tspan x="12.54" y="0">g</tspan></text></g><g style="clip-path:url(#clip-path-10)"><text transform="translate(740.52 322.83)" style="font-size:10.22920036315918px;font-family:ArialMT, Arial">S<tspan x="6.82" y="0" style="letter-spacing:0.0028640435185445885em">e</tspan><tspan x="12.54" y="0">p</tspan></text></g><g style="clip-path:url(#clip-path-10)"><text transform="translate(27.09 187.76) rotate(-90)" style="font-size:11.32030963897705px;font-family:Arial-BoldMT, Arial;font-weight:700">ND<tspan x="16.35" y="0" style="letter-spacing:-0.004054521383581834em">V</tspan><tspan x="23.86" y="0">I</tspan><tspan x="27" y="0" style="letter-spacing:0.010955834376912615em"> </tspan><tspan x="30.27" y="0"> </tspan><tspan x="33.42" y="0" style="letter-spacing:-0.004054521383581834em">V</tspan><tspan x="40.92" y="0" style="letter-spacing:-0.0010351969489996171em">a</tspan><tspan x="47.21" y="0">l</tspan><tspan x="50.35" y="0" style="letter-spacing:0.0029330580221655815em">u</tspan><tspan x="57.3" y="0">e</tspan></text></g><g style="clip-path:url(#clip-path-10)"><text transform="translate(434.1 343.06)" style="font-size:11.32030963897705px;font-family:Arial-BoldMT, Arial;font-weight:700"><tspan style="letter-spacing:0.0069875794057474155em">W</tspan><tspan x="10.76" y="0" style="letter-spacing:-0.0009489305365829823em">ee</tspan><tspan x="23.33" y="0">k</tspan></text></g><polygon points="2.78 0.08 897.22 0.08 897.22 349.92 2.78 349.92 2.78 0.08 2.78 0.08" style="fill:none;stroke:#d9d9d9;stroke-linejoin:round;stroke-width:0.818335823151898px"/></svg>