<svg id="Layer_1" data-name="Layer 1" xmlns="http://www.w3.org/2000/svg" xmlns:xlink="http://www.w3.org/1999/xlink" viewBox="0 0 900 350"><defs><clipPath id="clip-path"><polygon points="3.13 349.1 895.17 349.1 895.17 0.9 3.13 0.9 3.13 349.1 3.13 349.1" style="fill:none;clip-rule:evenodd"/></clipPath><clipPath id="clip-path-3"><polygon points="82.77 304.89 816.48 304.89 816.48 42.04 82.77 42.04 82.77 304.89 82.77 304.89" style="fill:none;clip-rule:evenodd"/></clipPath><clipPath id="clip-path-12"><rect x="3.13" y="0.9" width="892.04" height="348.19" style="fill:none"/></clipPath></defs><title>price-volatility</title><polygon points="3.27 0.9 895.3 0.9 895.3 349.1 3.27 349.1 3.27 0.9 3.27 0.9" style="fill:#f2f2f2;fill-rule:evenodd"/><polygon points="82.77 42.17 815.66 42.17 815.66 304.09 82.77 304.09 82.77 42.17 82.77 42.17" style="fill:#fff;fill-rule:evenodd"/><path d="M82.77,42.17V304.09M113.32,42.17V304.09M143.87,42.17V304.09M174.42,42.17V304.09M205,42.17V304.09M235.52,42.17V304.09M266.06,42.17V304.09M296.48,42.17V304.09M327,42.17V304.09M357.57,42.17V304.09M388.12,42.17V304.09M418.67,42.17V304.09M449.22,42.17V304.09M479.77,42.17V304.09M510.31,42.17V304.09M540.86,42.17V304.09M571.41,42.17V304.09M601.82,42.17V304.09M632.37,42.17V304.09M662.92,42.17V304.09M693.47,42.17V304.09M724,42.17V304.09M754.56,42.17V304.09M785.11,42.17V304.09M815.66,42.17V304.09" style="fill:none;stroke:#b7b7b7;stroke-linecap:round;stroke-linejoin:round;stroke-width:0.809764909830904px"/><g style="clip-path:url(#clip-path)"><path d="M82.77,245.19H815.66M82.77,186.29H815.66m-732.89-59H815.66M82.77,68.35H815.66" style="fill:none;stroke:#d9d9d9;stroke-linejoin:round;stroke-width:0.809764909830904px"/></g><g style="clip-path:url(#clip-path)"><polygon points="82.77 42.17 815.66 42.17 815.66 304.09 82.77 304.09 82.77 42.17 82.77 42.17" style="fill:none;stroke:#fff;stroke-linejoin:round;stroke-width:0.809764909830904px"/></g><g style="clip-path:url(#clip-path-3)"><polygon points="92.32 303.95 105 303.95 105 304.09 92.32 304.09 92.32 303.95 92.32 303.95" style="fill:#00c1a3;fill-rule:evenodd"/><polygon points="92.32 303.95 105 303.95 105 304.09 92.32 304.09 92.32 303.95 92.32 303.95" style="fill:none;stroke:#00c1a3;stroke-linejoin:round;stroke-width:0.809764909830904px"/><polygon points="153.42 300.61 166.1 300.61 166.1 304.09 153.42 304.09 153.42 300.61 153.42 300.61" style="fill:#00c1a3;fill-rule:evenodd"/><polygon points="153.42 300.61 166.1 300.61 166.1 304.09 153.42 304.09 153.42 300.61 153.42 300.61" style="fill:none;stroke:#00c1a3;stroke-linejoin:round;stroke-width:0.809764909830904px"/><polygon points="214.51 302.62 227.2 302.62 227.2 304.09 214.51 304.09 214.51 302.62 214.51 302.62" style="fill:#00c1a3;fill-rule:evenodd"/><polygon points="214.51 302.62 227.2 302.62 227.2 304.09 214.51 304.09 214.51 302.62 214.51 302.62" style="fill:none;stroke:#00c1a3;stroke-linejoin:round;stroke-width:0.809764909830904px"/><polygon points="275.61 303.82 288.29 303.82 288.29 304.09 275.61 304.09 275.61 303.82 275.61 303.82" style="fill:#00c1a3;fill-rule:evenodd"/><polygon points="275.61 303.82 288.29 303.82 288.29 304.09 275.61 304.09 275.61 303.82 275.61 303.82" style="fill:none;stroke:#00c1a3;stroke-linejoin:round;stroke-width:0.809764909830904px"/><polygon points="336.57 303.95 349.39 303.95 349.39 304.09 336.57 304.09 336.57 303.95 336.57 303.95" style="fill:#00c1a3;fill-rule:evenodd"/><polygon points="336.57 303.95 349.39 303.95 349.39 304.09 336.57 304.09 336.57 303.95 336.57 303.95" style="fill:none;stroke:#00c1a3;stroke-linejoin:round;stroke-width:0.809764909830904px"/><polygon points="397.67 303.95 410.35 303.95 410.35 304.09 397.67 304.09 397.67 303.95 397.67 303.95" style="fill:#00c1a3;fill-rule:evenodd"/><polygon points="397.67 303.95 410.35 303.95 410.35 304.09 397.67 304.09 397.67 303.95 397.67 303.95" style="fill:none;stroke:#00c1a3;stroke-linejoin:round;stroke-width:0.809764909830904px"/><polygon points="458.76 303.95 471.45 303.95 471.45 304.09 458.76 304.09 458.76 303.95 458.76 303.95" style="fill:#00c1a3;fill-rule:evenodd"/><polygon points="458.76 303.95 471.45 303.95 471.45 304.09 458.76 304.09 458.76 303.95 458.76 303.95" style="fill:none;stroke:#00c1a3;stroke-linejoin:round;stroke-width:0.809764909830904px"/><polygon points="519.86 303.55 532.54 303.55 532.54 304.09 519.86 304.09 519.86 303.55 519.86 303.55" style="fill:#00c1a3;fill-rule:evenodd"/><polygon points="519.86 303.55 532.54 303.55 532.54 304.09 519.86 304.09 519.86 303.55 519.86 303.55" style="fill:none;stroke:#00c1a3;stroke-linejoin:round;stroke-width:0.809764909830904px"/><polygon points="580.96 303.95 593.64 303.95 593.64 304.09 580.96 304.09 580.96 303.95 580.96 303.95" style="fill:#00c1a3;fill-rule:evenodd"/><polygon points="580.96 303.95 593.64 303.95 593.64 304.09 580.96 304.09 580.96 303.95 580.96 303.95" style="fill:none;stroke:#00c1a3;stroke-linejoin:round;stroke-width:0.809764909830904px"/><polygon points="641.92 303.95 654.74 303.95 654.74 304.09 641.92 304.09 641.92 303.95 641.92 303.95" style="fill:#00c1a3;fill-rule:evenodd"/><polygon points="641.92 303.95 654.74 303.95 654.74 304.09 641.92 304.09 641.92 303.95 641.92 303.95" style="fill:none;stroke:#00c1a3;stroke-linejoin:round;stroke-width:0.809764909830904px"/><polygon points="703.01 303.82 715.7 303.82 715.7 304.09 703.01 304.09 703.01 303.82 703.01 303.82" style="fill:#00c1a3;fill-rule:evenodd"/><polygon points="703.01 303.82 715.7 303.82 715.7 304.09 703.01 304.09 703.01 303.82 703.01 303.82" style="fill:none;stroke:#00c1a3;stroke-linejoin:round;stroke-width:0.809764909830904px"/><polygon points="764.11 303.82 776.79 303.82 776.79 304.09 764.11 304.09 764.11 303.82 764.11 303.82" style="fill:#00c1a3;fill-rule:evenodd"/><polygon points="764.11 303.82 776.79 303.82 776.79 304.09 764.11 304.09 764.11 303.82 764.11 303.82" style="fill:none;stroke:#00c1a3;stroke-linejoin:round;stroke-width:0.809764909830904px"/></g><g style="clip-path:url(#clip-path-3)"><polygon points="106.91 175.73 119.73 175.73 119.73 304.09 106.91 304.09 106.91 175.73 106.91 175.73" style="fill:#2935e8;fill-rule:evenodd"/><polygon points="106.91 175.73 119.73 175.73 119.73 304.09 106.91 304.09 106.91 175.73 106.91 175.73" style="fill:none;stroke:#2935e8;stroke-linejoin:round;stroke-width:0.809764909830904px"/><polygon points="168.01 135.53 180.69 135.53 180.69 304.09 168.01 304.09 168.01 135.53 168.01 135.53" style="fill:#2935e8;fill-rule:evenodd"/><polygon points="168.01 135.53 180.69 135.53 180.69 304.09 168.01 304.09 168.01 135.53 168.01 135.53" style="fill:none;stroke:#2935e8;stroke-linejoin:round;stroke-width:0.809764909830904px"/><polygon points="229.11 247.59 241.79 247.59 241.79 304.09 229.11 304.09 229.11 247.59 229.11 247.59" style="fill:#2935e8;fill-rule:evenodd"/><polygon points="229.11 247.59 241.79 247.59 241.79 304.09 229.11 304.09 229.11 247.59 229.11 247.59" style="fill:none;stroke:#2935e8;stroke-linejoin:round;stroke-width:0.809764909830904px"/><polygon points="290.2 243.05 302.89 243.05 302.89 304.09 290.2 304.09 290.2 243.05 290.2 243.05" style="fill:#2935e8;fill-rule:evenodd"/><polygon points="290.2 243.05 302.89 243.05 302.89 304.09 290.2 304.09 290.2 243.05 290.2 243.05" style="fill:none;stroke:#2935e8;stroke-linejoin:round;stroke-width:0.809764909830904px"/><polygon points="351.3 260.81 363.98 260.81 363.98 304.09 351.3 304.09 351.3 260.81 351.3 260.81" style="fill:#2935e8;fill-rule:evenodd"/><polygon points="351.3 260.81 363.98 260.81 363.98 304.09 351.3 304.09 351.3 260.81 351.3 260.81" style="fill:none;stroke:#2935e8;stroke-linejoin:round;stroke-width:0.809764909830904px"/><polygon points="412.26 237.97 425.08 237.97 425.08 304.09 412.26 304.09 412.26 237.97 412.26 237.97" style="fill:#2935e8;fill-rule:evenodd"/><polygon points="412.26 237.97 425.08 237.97 425.08 304.09 412.26 304.09 412.26 237.97 412.26 237.97" style="fill:none;stroke:#2935e8;stroke-linejoin:round;stroke-width:0.809764909830904px"/><polygon points="473.36 261.88 486.18 261.88 486.18 304.09 473.36 304.09 473.36 261.88 473.36 261.88" style="fill:#2935e8;fill-rule:evenodd"/><polygon points="473.36 261.88 486.18 261.88 486.18 304.09 473.36 304.09 473.36 261.88 473.36 261.88" style="fill:none;stroke:#2935e8;stroke-linejoin:round;stroke-width:0.809764909830904px"/><polygon points="534.45 256 547.14 256 547.14 304.09 534.45 304.09 534.45 256 534.45 256" style="fill:#2935e8;fill-rule:evenodd"/><polygon points="534.45 256 547.14 256 547.14 304.09 534.45 304.09 534.45 256 534.45 256" style="fill:none;stroke:#2935e8;stroke-linejoin:round;stroke-width:0.809764909830904px"/><polygon points="595.55 253.33 608.23 253.33 608.23 304.09 595.55 304.09 595.55 253.33 595.55 253.33" style="fill:#2935e8;fill-rule:evenodd"/><polygon points="595.55 253.33 608.23 253.33 608.23 304.09 595.55 304.09 595.55 253.33 595.55 253.33" style="fill:none;stroke:#2935e8;stroke-linejoin:round;stroke-width:0.809764909830904px"/><polygon points="656.65 273.23 669.33 273.23 669.33 304.09 656.65 304.09 656.65 273.23 656.65 273.23" style="fill:#2935e8;fill-rule:evenodd"/><polygon points="656.65 273.23 669.33 273.23 669.33 304.09 656.65 304.09 656.65 273.23 656.65 273.23" style="fill:none;stroke:#2935e8;stroke-linejoin:round;stroke-width:0.809764909830904px"/><polygon points="717.61 284.59 730.42 284.59 730.42 304.09 717.61 304.09 717.61 284.59 717.61 284.59" style="fill:#2935e8;fill-rule:evenodd"/><polygon points="717.61 284.59 730.42 284.59 730.42 304.09 717.61 304.09 717.61 284.59 717.61 284.59" style="fill:none;stroke:#2935e8;stroke-linejoin:round;stroke-width:0.809764909830904px"/><polygon points="778.7 281.65 791.52 281.65 791.52 304.09 778.7 304.09 778.7 281.65 778.7 281.65" style="fill:#2935e8;fill-rule:evenodd"/><polygon points="778.7 281.65 791.52 281.65 791.52 304.09 778.7 304.09 778.7 281.65 778.7 281.65" style="fill:none;stroke:#2935e8;stroke-linejoin:round;stroke-width:0.809764909830904px"/></g><g style="clip-path:url(#clip-path-3)"><polygon points="121.64 229.69 134.32 229.69 134.32 304.09 121.64 304.09 121.64 229.69 121.64 229.69" style="fill:#ff25f3;fill-rule:evenodd"/><polygon points="121.64 229.69 134.32 229.69 134.32 304.09 121.64 304.09 121.64 229.69 121.64 229.69" style="fill:none;stroke:#ff25f3;stroke-linejoin:round;stroke-width:0.809764909830904px"/><polygon points="182.6 181.75 195.42 181.75 195.42 304.09 182.6 304.09 182.6 181.75 182.6 181.75" style="fill:#ff25f3;fill-rule:evenodd"/><polygon points="182.6 181.75 195.42 181.75 195.42 304.09 182.6 304.09 182.6 181.75 182.6 181.75" style="fill:none;stroke:#ff25f3;stroke-linejoin:round;stroke-width:0.809764909830904px"/><polygon points="243.7 256.94 256.52 256.94 256.52 304.09 243.7 304.09 243.7 256.94 243.7 256.94" style="fill:#ff25f3;fill-rule:evenodd"/><polygon points="243.7 256.94 256.52 256.94 256.52 304.09 243.7 304.09 243.7 256.94 243.7 256.94" style="fill:none;stroke:#ff25f3;stroke-linejoin:round;stroke-width:0.809764909830904px"/><polygon points="304.8 253.73 317.48 253.73 317.48 304.09 304.8 304.09 304.8 253.73 304.8 253.73" style="fill:#ff25f3;fill-rule:evenodd"/><polygon points="304.8 253.73 317.48 253.73 317.48 304.09 304.8 304.09 304.8 253.73 304.8 253.73" style="fill:none;stroke:#ff25f3;stroke-linejoin:round;stroke-width:0.809764909830904px"/><polygon points="365.89 269.36 378.57 269.36 378.57 304.09 365.89 304.09 365.89 269.36 365.89 269.36" style="fill:#ff25f3;fill-rule:evenodd"/><polygon points="365.89 269.36 378.57 269.36 378.57 304.09 365.89 304.09 365.89 269.36 365.89 269.36" style="fill:none;stroke:#ff25f3;stroke-linejoin:round;stroke-width:0.809764909830904px"/><polygon points="426.99 252.26 439.67 252.26 439.67 304.09 426.99 304.09 426.99 252.26 426.99 252.26" style="fill:#ff25f3;fill-rule:evenodd"/><polygon points="426.99 252.26 439.67 252.26 439.67 304.09 426.99 304.09 426.99 252.26 426.99 252.26" style="fill:none;stroke:#ff25f3;stroke-linejoin:round;stroke-width:0.809764909830904px"/><polygon points="487.95 282.58 500.77 282.58 500.77 304.09 487.95 304.09 487.95 282.58 487.95 282.58" style="fill:#ff25f3;fill-rule:evenodd"/><polygon points="487.95 282.58 500.77 282.58 500.77 304.09 487.95 304.09 487.95 282.58 487.95 282.58" style="fill:none;stroke:#ff25f3;stroke-linejoin:round;stroke-width:0.809764909830904px"/><polygon points="549.04 272.97 561.86 272.97 561.86 304.09 549.04 304.09 549.04 272.97 549.04 272.97" style="fill:#ff25f3;fill-rule:evenodd"/><polygon points="549.04 272.97 561.86 272.97 561.86 304.09 549.04 304.09 549.04 272.97 549.04 272.97" style="fill:none;stroke:#ff25f3;stroke-linejoin:round;stroke-width:0.809764909830904px"/><polygon points="610.14 282.31 622.82 282.31 622.82 304.09 610.14 304.09 610.14 282.31 610.14 282.31" style="fill:#ff25f3;fill-rule:evenodd"/><polygon points="610.14 282.31 622.82 282.31 622.82 304.09 610.14 304.09 610.14 282.31 610.14 282.31" style="fill:none;stroke:#ff25f3;stroke-linejoin:round;stroke-width:0.809764909830904px"/><polygon points="671.24 288.06 683.92 288.06 683.92 304.09 671.24 304.09 671.24 288.06 671.24 288.06" style="fill:#ff25f3;fill-rule:evenodd"/><polygon points="671.24 288.06 683.92 288.06 683.92 304.09 671.24 304.09 671.24 288.06 671.24 288.06" style="fill:none;stroke:#ff25f3;stroke-linejoin:round;stroke-width:0.809764909830904px"/><polygon points="732.34 289.26 745.02 289.26 745.02 304.09 732.34 304.09 732.34 289.26 732.34 289.26" style="fill:#ff25f3;fill-rule:evenodd"/><polygon points="732.34 289.26 745.02 289.26 745.02 304.09 732.34 304.09 732.34 289.26 732.34 289.26" style="fill:none;stroke:#ff25f3;stroke-linejoin:round;stroke-width:0.809764909830904px"/><polygon points="793.43 285.79 806.11 285.79 806.11 304.09 793.43 304.09 793.43 285.79 793.43 285.79" style="fill:#ff25f3;fill-rule:evenodd"/><polygon points="793.43 285.79 806.11 285.79 806.11 304.09 793.43 304.09 793.43 285.79 793.43 285.79" style="fill:none;stroke:#ff25f3;stroke-linejoin:round;stroke-width:0.809764909830904px"/></g><g style="clip-path:url(#clip-path)"><line x1="82.77" y1="304.09" x2="82.77" y2="42.17" style="fill:none;stroke:#868686;stroke-linejoin:round;stroke-width:0.809764909830904px"/></g><g style="clip-path:url(#clip-path)"><path d="M79.77,304.09h3m-3-58.9h3m-3-58.9h3m-3-59h3m-3-58.9h3" style="fill:none;stroke:#868686;stroke-linejoin:round;stroke-width:0.809764909830904px"/></g><g style="clip-path:url(#clip-path)"><line x1="82.77" y1="304.09" x2="815.66" y2="304.09" style="fill:none;stroke:#868686;stroke-linejoin:round;stroke-width:0.809764909830904px"/></g><g style="clip-path:url(#clip-path-3)"><polyline points="113.32 127.52 174.42 96.93 235.52 109.49 296.48 98.4 357.57 140.34 418.67 139.54 479.77 137.8 540.86 136.6 601.82 122.18 662.92 123.78 724.02 128.85 785.11 131.93" style="fill:none;stroke:#00c1a3;stroke-linecap:round;stroke-linejoin:round;stroke-width:2.42929466245695px"/></g><g style="clip-path:url(#clip-path-3)"><polyline points="113.32 119.51 174.42 94.13 235.52 95.2 296.48 91.19 357.57 97.87 418.67 106.95 479.77 110.82 540.86 102.01 601.82 104.41 662.92 115.5 724.02 123.65 785.11 123.78" style="fill:none;stroke:#2935e8;stroke-linecap:round;stroke-linejoin:round;stroke-width:2.42929466245695px"/></g><g style="clip-path:url(#clip-path-3)"><polyline points="113.32 119.51 174.42 91.72 235.52 92.53 296.48 87.18 357.57 96.93 418.67 105.22 479.77 112.43 540.86 100.41 601.82 102.68 662.92 110.16 724.02 118.3 785.11 117.77" style="fill:none;stroke:#ff25f3;stroke-linecap:round;stroke-linejoin:round;stroke-width:2.42929466245695px"/></g><g style="clip-path:url(#clip-path-12)"><text transform="translate(62.63 307.32) scale(1.02 1)" style="font-size:10.017000198364258px;font-family:ArialMT, Arial"><tspan style="letter-spacing:0.00200501497080382em"> </tspan><tspan x="2.8" y="0">0</tspan></text></g><g style="clip-path:url(#clip-path-12)"><text transform="translate(37.03 248.37) scale(1.02 1)" style="font-size:10.017000198364258px;font-family:ArialMT, Arial"><tspan style="letter-spacing:0.00200501497080382em"> </tspan><tspan x="2.8" y="0" style="letter-spacing:0.0029597840045199253em">1</tspan><tspan x="8.4" y="0" style="letter-spacing:-0.008974828916931387em">8</tspan><tspan x="13.88" y="0" style="letter-spacing:0.00200501497080382em">,</tspan><tspan x="16.69" y="0" style="letter-spacing:0.0029597840045199253em">00</tspan><tspan x="27.89" y="0">0</tspan></text></g><g style="clip-path:url(#clip-path-12)"><text transform="translate(37.03 189.44) scale(1.02 1)" style="font-size:10.017000198364258px;font-family:ArialMT, Arial"><tspan style="letter-spacing:0.00200501497080382em"> </tspan><tspan x="2.8" y="0" style="letter-spacing:0.0029597840045199253em">3</tspan><tspan x="8.4" y="0" style="letter-spacing:-0.008974828916931387em">6</tspan><tspan x="13.88" y="0" style="letter-spacing:0.00200501497080382em">,</tspan><tspan x="16.69" y="0" style="letter-spacing:0.0029597840045199253em">00</tspan><tspan x="27.89" y="0">0</tspan></text></g><g style="clip-path:url(#clip-path-12)"><text transform="translate(37.03 130.49) scale(1.02 1)" style="font-size:10.017000198364258px;font-family:ArialMT, Arial"><tspan style="letter-spacing:0.00200501497080382em"> </tspan><tspan x="2.8" y="0" style="letter-spacing:0.0029597840045199253em">5</tspan><tspan x="8.4" y="0" style="letter-spacing:-0.008974828916931387em">4</tspan><tspan x="13.88" y="0" style="letter-spacing:0.00200501497080382em">,</tspan><tspan x="16.69" y="0" style="letter-spacing:0.0029597840045199253em">00</tspan><tspan x="27.89" y="0">0</tspan></text></g><g style="clip-path:url(#clip-path-12)"><text transform="translate(37.03 71.55) scale(1.02 1)" style="font-size:10.017000198364258px;font-family:ArialMT, Arial"><tspan style="letter-spacing:0.00200501497080382em"> </tspan><tspan x="2.8" y="0" style="letter-spacing:0.0029597840045199253em">7</tspan><tspan x="8.4" y="0" style="letter-spacing:-0.008974828916931387em">2</tspan><tspan x="13.88" y="0" style="letter-spacing:0.00200501497080382em">,</tspan><tspan x="16.69" y="0" style="letter-spacing:0.0029597840045199253em">00</tspan><tspan x="27.89" y="0">0</tspan></text></g><g style="clip-path:url(#clip-path-12)"><text transform="translate(105.08 319.25) scale(1.02 1)" style="font-size:10.017000198364258px;font-family:ArialMT, Arial"><tspan style="letter-spacing:0.00601504491241146em">J</tspan><tspan x="5.07" y="0" style="letter-spacing:-0.009070305820302996em">a</tspan><tspan x="10.55" y="0">n</tspan></text></g><g style="clip-path:url(#clip-path-12)"><text transform="translate(165.58 319.25) scale(1.02 1)" style="font-size:10.017000198364258px;font-family:ArialMT, Arial"><tspan style="letter-spacing:0.00200501497080382em">F</tspan><tspan x="6.14" y="0" style="letter-spacing:0.0029597840045199253em">e</tspan><tspan x="11.74" y="0">b</tspan></text></g><g style="clip-path:url(#clip-path-12)"><text transform="translate(226.66 319.25) scale(1.02 1)" style="font-size:10.017000198364258px;font-family:ArialMT, Arial"><tspan style="letter-spacing:-0.00601504491241146em">M</tspan><tspan x="8.28" y="0" style="letter-spacing:0.0029597840045199253em">a</tspan><tspan x="13.88" y="0">r</tspan></text></g><g style="clip-path:url(#clip-path-12)"><text transform="translate(288.58 319.25) scale(1.02 1)" style="font-size:10.017000198364258px;font-family:ArialMT, Arial">A<tspan x="6.68" y="0" style="letter-spacing:0.0029597840045199253em">p</tspan><tspan x="12.28" y="0">r</tspan></text></g><g style="clip-path:url(#clip-path-12)"><text transform="translate(347.94 319.25) scale(1.02 1)" style="font-size:10.017000198364258px;font-family:ArialMT, Arial"><tspan style="letter-spacing:-0.00601504491241146em">M</tspan><tspan x="8.28" y="0" style="letter-spacing:0.0029597840045199253em">a</tspan><tspan x="13.88" y="0">y</tspan></text></g><g style="clip-path:url(#clip-path-12)"><text transform="translate(410.43 319.25) scale(1.02 1)" style="font-size:10.017000198364258px;font-family:ArialMT, Arial"><tspan style="letter-spacing:0.00601504491241146em">J</tspan><tspan x="5.07" y="0" style="letter-spacing:-0.009070305820302996em">u</tspan><tspan x="10.55" y="0">n</tspan></text></g><g style="clip-path:url(#clip-path-12)"><text transform="translate(473.2 319.25) scale(1.02 1)" style="font-size:10.017000198364258px;font-family:ArialMT, Arial"><tspan style="letter-spacing:0.00601504491241146em">J</tspan><tspan x="5.07" y="0" style="letter-spacing:-0.009070305820302996em">u</tspan><tspan x="10.55" y="0">l</tspan></text></g><g style="clip-path:url(#clip-path-12)"><text transform="translate(531.71 319.25) scale(1.02 1)" style="font-size:10.017000198364258px;font-family:ArialMT, Arial">A<tspan x="6.68" y="0" style="letter-spacing:0.0029597840045199253em">u</tspan><tspan x="12.28" y="0">g</tspan></text></g><g style="clip-path:url(#clip-path-12)"><text transform="translate(592.78 319.25) scale(1.02 1)" style="font-size:10.017000198364258px;font-family:ArialMT, Arial">S<tspan x="6.68" y="0" style="letter-spacing:0.0029597840045199253em">e</tspan><tspan x="12.28" y="0">p</tspan></text></g><g style="clip-path:url(#clip-path-12)"><text transform="translate(655 319.25) scale(1.02 1)" style="font-size:10.017000198364258px;font-family:ArialMT, Arial"><tspan style="letter-spacing:-0.00401002994160764em">O</tspan><tspan x="7.75" y="0" style="letter-spacing:0.00601504491241146em">c</tspan><tspan x="12.82" y="0">t</tspan></text></g><g style="clip-path:url(#clip-path-12)"><text transform="translate(714.93 319.25) scale(1.02 1)" style="font-size:10.017000198364258px;font-family:ArialMT, Arial"><tspan style="letter-spacing:-0.00200501497080382em">N</tspan><tspan x="7.21" y="0" style="letter-spacing:0.0029597840045199253em">o</tspan><tspan x="12.81" y="0">v</tspan></text></g><g style="clip-path:url(#clip-path-12)"><text transform="translate(776 319.25) scale(1.02 1)" style="font-size:10.017000198364258px;font-family:ArialMT, Arial"><tspan style="letter-spacing:-0.00200501497080382em">D</tspan><tspan x="7.21" y="0" style="letter-spacing:0.0029597840045199253em">e</tspan><tspan x="12.81" y="0">c</tspan></text></g><g style="clip-path:url(#clip-path-12)"><text transform="translate(824.42 307.32) scale(1.02 1)" style="font-size:10.017000198364258px;font-family:ArialMT, Arial"><tspan style="letter-spacing:0.00200501497080382em"> </tspan><tspan x="2.8" y="0">0</tspan></text></g><g style="clip-path:url(#clip-path-12)"><text transform="translate(824.42 248.37) scale(1.02 1)" style="font-size:10.017000198364258px;font-family:ArialMT, Arial"><tspan style="letter-spacing:0.00200501497080382em"> </tspan><tspan x="2.8" y="0" style="letter-spacing:0.0029597840045199253em">1</tspan><tspan x="8.4" y="0" style="letter-spacing:-0.008974828916931387em">8</tspan><tspan x="13.88" y="0" style="letter-spacing:0.00200501497080382em">,</tspan><tspan x="16.69" y="0" style="letter-spacing:0.0029597840045199253em">00</tspan><tspan x="27.89" y="0">0</tspan></text></g><g style="clip-path:url(#clip-path-12)"><text transform="translate(824.42 189.44) scale(1.02 1)" style="font-size:10.017000198364258px;font-family:ArialMT, Arial"><tspan style="letter-spacing:0.00200501497080382em"> </tspan><tspan x="2.8" y="0" style="letter-spacing:0.0029597840045199253em">3</tspan><tspan x="8.4" y="0" style="letter-spacing:-0.008974828916931387em">6</tspan><tspan x="13.88" y="0" style="letter-spacing:0.00200501497080382em">,</tspan><tspan x="16.69" y="0" style="letter-spacing:0.0029597840045199253em">00</tspan><tspan x="27.89" y="0">0</tspan></text></g><g style="clip-path:url(#clip-path-12)"><text transform="translate(824.42 130.49) scale(1.02 1)" style="font-size:10.017000198364258px;font-family:ArialMT, Arial"><tspan style="letter-spacing:0.00200501497080382em"> </tspan><tspan x="2.8" y="0" style="letter-spacing:0.0029597840045199253em">5</tspan><tspan x="8.4" y="0" style="letter-spacing:-0.008974828916931387em">4</tspan><tspan x="13.88" y="0" style="letter-spacing:0.00200501497080382em">,</tspan><tspan x="16.69" y="0" style="letter-spacing:0.0029597840045199253em">00</tspan><tspan x="27.89" y="0">0</tspan></text></g><g style="clip-path:url(#clip-path-12)"><text transform="translate(824.42 71.55) scale(1.02 1)" style="font-size:10.017000198364258px;font-family:ArialMT, Arial"><tspan style="letter-spacing:0.00200501497080382em"> </tspan><tspan x="2.8" y="0" style="letter-spacing:0.0029597840045199253em">7</tspan><tspan x="8.4" y="0" style="letter-spacing:-0.008974828916931387em">2</tspan><tspan x="13.88" y="0" style="letter-spacing:0.00200501497080382em">,</tspan><tspan x="16.69" y="0" style="letter-spacing:0.0029597840045199253em">00</tspan><tspan x="27.89" y="0">0</tspan></text></g><g style="clip-path:url(#clip-path-12)"><text transform="translate(433.94 339.45) scale(1.02 1)" style="font-size:10.017000198364258px;font-family:Arial-BoldMT, Arial;font-weight:700"><tspan style="letter-spacing:0.00601504491241146em">M</tspan><tspan x="8.4" y="0" style="letter-spacing:0.0019095380674322097em">on</tspan><tspan x="20.68" y="0">t</tspan><tspan x="24.02" y="0" style="letter-spacing:0.0019095380674322097em">h</tspan><tspan x="30.16" y="0"> </tspan></text></g><g style="clip-path:url(#clip-path-12)"><text transform="translate(25.23 226.48) rotate(-90) scale(0.98 1)" style="font-size:10.228219985961914px;font-family:Arial-BoldMT, Arial;font-weight:700"><tspan style="letter-spacing:0.006044407809024001em">M</tspan><tspan x="8.58" y="0" style="letter-spacing:0.0030222039045120007em">a</tspan><tspan x="14.3" y="0" style="letter-spacing:-0.002047299419185549em">r</tspan><tspan x="18.26" y="0" style="letter-spacing:0.0029247134559793556em">ke</tspan><tspan x="29.7" y="0" style="letter-spacing:-0.00009749044853264517em">t</tspan><tspan x="33.1" y="0" style="letter-spacing:-0.011016420684188904em"> </tspan><tspan x="35.83" y="0">P</tspan><tspan x="42.66" y="0" style="letter-spacing:-0.002047299419185549em">r</tspan><tspan x="46.62" y="0" style="letter-spacing:0.002047299419185549em">i</tspan><tspan x="49.48" y="0" style="letter-spacing:0.0029247134559793556em">ce</tspan><tspan x="60.92" y="0" style="letter-spacing:-0.011016420684188904em"> </tspan><tspan x="63.65" y="0" style="letter-spacing:-0.00009749044853264517em">(</tspan><tspan x="67.05" y="0" style="letter-spacing:-0.002047299419185549em">R</tspan><tspan x="74.42" y="0" style="letter-spacing:0.0030222039045120007em">s</tspan><tspan x="80.14" y="0" style="letter-spacing:0.0019498089706529037em">./</tspan><tspan x="85.86" y="0" style="letter-spacing:0.006044407809024001em">M</tspan><tspan x="94.44" y="0" style="letter-spacing:0.0019498089706529037em">T</tspan><tspan x="100.71" y="0">)</tspan></text></g><g style="clip-path:url(#clip-path-12)"><text transform="translate(883.48 217.73) rotate(-90) scale(0.98 1)" style="font-size:10.228219985961914px;font-family:Arial-BoldMT, Arial;font-weight:700"><tspan style="letter-spacing:0.006044407809024001em">M</tspan><tspan x="8.58" y="0" style="letter-spacing:0.0030222039045120007em">a</tspan><tspan x="14.3" y="0" style="letter-spacing:-0.002047299419185549em">r</tspan><tspan x="18.26" y="0" style="letter-spacing:0.0029247134559793556em">ke</tspan><tspan x="29.7" y="0" style="letter-spacing:-0.00009749044853264517em">t</tspan><tspan x="33.1" y="0" style="letter-spacing:-0.011016420684188904em"> </tspan><tspan x="35.83" y="0" style="letter-spacing:-0.01501352907402736em">A</tspan><tspan x="43.07" y="0" style="letter-spacing:-0.002047299419185549em">rr</tspan><tspan x="50.99" y="0" style="letter-spacing:0.0019498089706529037em">i</tspan><tspan x="53.85" y="0" style="letter-spacing:-0.009066611713536002em">v</tspan><tspan x="59.45" y="0" style="letter-spacing:0.0030222039045120007em">a</tspan><tspan x="65.16" y="0" style="letter-spacing:0.0019498089706529037em">l</tspan><tspan x="68.03" y="0" style="letter-spacing:0.01501352907402736em"> </tspan><tspan x="71.02" y="0">(</tspan><tspan x="74.43" y="0" style="letter-spacing:0.005946917360491357em">M</tspan><tspan x="83.01" y="0" style="letter-spacing:0.0019498089706529037em">T</tspan><tspan x="89.28" y="0">)</tspan></text></g><g style="clip-path:url(#clip-path)"><polygon points="29.86 22.68 51.68 22.68 51.68 27.75 29.86 27.75 29.86 22.68 29.86 22.68" style="fill:#00c1a3;fill-rule:evenodd"/><polygon points="29.86 22.68 51.68 22.68 51.68 27.75 29.86 27.75 29.86 22.68 29.86 22.68" style="fill:none;stroke:#00c1a3;stroke-linejoin:round;stroke-width:0.809764909830904px"/></g><g style="clip-path:url(#clip-path-12)"><text transform="translate(54.04 28.42) scale(1.02 1)" style="font-size:10.017000198364258px;font-family:ArialMT, Arial"><tspan style="letter-spacing:-0.00601504491241146em">M</tspan><tspan x="8.28" y="0" style="letter-spacing:0.012984858858539028em">P</tspan><tspan x="15.1" y="0" style="letter-spacing:-0.010979843887735204em"> </tspan><tspan x="17.77" y="0" style="letter-spacing:-0.0000954769033716105em">(</tspan><tspan x="21.1" y="0" style="letter-spacing:-0.00200501497080382em">R</tspan><tspan x="28.32" y="0">-</tspan><tspan x="31.65" y="0" style="letter-spacing:0.003055260907891536em">8</tspan><tspan x="37.26" y="0" style="letter-spacing:-0.0000954769033716105em">)</tspan><tspan x="40.59" y="0" style="letter-spacing:0.00200501497080382em"> </tspan><tspan x="43.39" y="0">Arr</tspan><tspan x="56.75" y="0" style="letter-spacing:0.00401002994160764em">i</tspan><tspan x="59.01" y="0" style="letter-spacing:-0.00601504491241146em">v</tspan><tspan x="63.96" y="0" style="letter-spacing:0.0029597840045199253em">a</tspan><tspan x="69.56" y="0">l</tspan></text></g><g style="clip-path:url(#clip-path)"><polygon points="151.37 22.68 173.19 22.68 173.19 27.75 151.37 27.75 151.37 22.68 151.37 22.68" style="fill:#2935e8;fill-rule:evenodd"/><polygon points="151.37 22.68 173.19 22.68 173.19 27.75 151.37 27.75 151.37 22.68 151.37 22.68" style="fill:none;stroke:#2935e8;stroke-linejoin:round;stroke-width:0.809764909830904px"/></g><g style="clip-path:url(#clip-path-12)"><text transform="translate(175.5 28.42) scale(1.02 1)" style="font-size:10.017000198364258px;font-family:ArialMT, Arial"><tspan style="letter-spacing:-0.00601504491241146em">M</tspan><tspan x="8.28" y="0" style="letter-spacing:0.010979843887735204em">H</tspan><tspan x="15.63" y="0" style="letter-spacing:-0.010979843887735204em"> </tspan><tspan x="18.3" y="0" style="letter-spacing:-0.0000954769033716105em">(</tspan><tspan x="21.64" y="0" style="letter-spacing:0.010979843887735204em">R</tspan><tspan x="28.98" y="0">-</tspan><tspan x="32.32" y="0" style="letter-spacing:-0.008974828916931387em">3</tspan><tspan x="37.8" y="0" style="letter-spacing:0.0029597840045199253em">01</tspan><tspan x="49" y="0" style="letter-spacing:0.00200501497080382em">,</tspan><tspan x="51.8" y="0" style="letter-spacing:-0.011075320791106817em"> </tspan><tspan x="54.48" y="0" style="letter-spacing:0.010979843887735204em">R</tspan><tspan x="61.82" y="0" style="letter-spacing:-0.012984858858539028em">-</tspan><tspan x="65.03" y="0" style="letter-spacing:0.0029597840045199253em">300</tspan><tspan x="81.83" y="0">)</tspan><tspan x="85.16" y="0" style="letter-spacing:-0.010979843887735204em"> </tspan><tspan x="87.84" y="0">Arr</tspan><tspan x="101.19" y="0" style="letter-spacing:0.00401002994160764em">i</tspan><tspan x="103.45" y="0" style="letter-spacing:0.00601504491241146em">v</tspan><tspan x="108.52" y="0" style="letter-spacing:-0.008974828916931387em">a</tspan><tspan x="114" y="0" style="letter-spacing:-0.0000954769033716105em">l</tspan></text></g><g style="clip-path:url(#clip-path)"><polygon points="318.3 22.68 340.12 22.68 340.12 27.75 318.3 27.75 318.3 22.68 318.3 22.68" style="fill:#ff25f3;fill-rule:evenodd"/><polygon points="318.3 22.68 340.12 22.68 340.12 27.75 318.3 27.75 318.3 22.68 318.3 22.68" style="fill:none;stroke:#ff25f3;stroke-linejoin:round;stroke-width:0.809764909830904px"/></g><g style="clip-path:url(#clip-path-12)"><text transform="translate(342.45 28.42) scale(1.02 1)" style="font-size:10.017000198364258px;font-family:ArialMT, Arial"><tspan style="letter-spacing:-0.00601504491241146em">M</tspan><tspan x="8.28" y="0" style="letter-spacing:0.010979843887735204em">H</tspan><tspan x="15.63" y="0" style="letter-spacing:-0.010979843887735204em">,</tspan><tspan x="18.3" y="0" style="letter-spacing:0.0019095380674322097em"> </tspan><tspan x="21.1" y="0" style="letter-spacing:0.00601504491241146em">M</tspan><tspan x="29.51" y="0">P</tspan><tspan x="36.19" y="0" style="letter-spacing:0.00200501497080382em"> </tspan><tspan x="38.99" y="0">(</tspan><tspan x="42.33" y="0" style="letter-spacing:-0.002100491874175431em">R</tspan><tspan x="49.54" y="0">-</tspan><tspan x="52.88" y="0" style="letter-spacing:-0.008974828916931387em">3</tspan><tspan x="58.36" y="0" style="letter-spacing:0.0029597840045199253em">03</tspan><tspan x="69.56" y="0">)</tspan><tspan x="72.9" y="0" style="letter-spacing:0.0019095380674322097em"> </tspan><tspan x="75.7" y="0">Arr</tspan><tspan x="89.05" y="0" style="letter-spacing:-0.00802005988321528em">i</tspan><tspan x="91.2" y="0" style="letter-spacing:0.00601504491241146em">v</tspan><tspan x="96.27" y="0" style="letter-spacing:-0.008974828916931387em">a</tspan><tspan x="101.75" y="0">l</tspan></text></g><g style="clip-path:url(#clip-path)"><line x1="472.81" y1="25.21" x2="494.63" y2="25.21" style="fill:none;stroke:#00c1a3;stroke-linecap:round;stroke-linejoin:round;stroke-width:2.42929466245695px"/></g><g style="clip-path:url(#clip-path-12)"><text transform="translate(496.87 28.42) scale(1.02 1)" style="font-size:10.017000198364258px;font-family:ArialMT, Arial"><tspan style="letter-spacing:-0.00601504491241146em">M</tspan><tspan x="8.28" y="0" style="letter-spacing:0.012984858858539028em">P</tspan><tspan x="15.1" y="0" style="letter-spacing:-0.010979843887735204em"> </tspan><tspan x="17.77" y="0" style="letter-spacing:-0.0000954769033716105em">(</tspan><tspan x="21.1" y="0" style="letter-spacing:-0.00200501497080382em">R</tspan><tspan x="28.32" y="0">-</tspan><tspan x="31.65" y="0" style="letter-spacing:0.003055260907891536em">8</tspan><tspan x="37.26" y="0" style="letter-spacing:-0.0000954769033716105em">)</tspan><tspan x="40.59" y="0" style="letter-spacing:0.00200501497080382em"> </tspan><tspan x="43.39" y="0">Pr</tspan><tspan x="53.41" y="0" style="letter-spacing:0.00401002994160764em">i</tspan><tspan x="55.68" y="0" style="letter-spacing:-0.00601504491241146em">c</tspan><tspan x="60.62" y="0">e</tspan></text></g><g style="clip-path:url(#clip-path)"><line x1="588.59" y1="25.21" x2="610.41" y2="25.21" style="fill:none;stroke:#2935e8;stroke-linecap:round;stroke-linejoin:round;stroke-width:2.42929466245695px"/></g><g style="clip-path:url(#clip-path-12)"><text transform="translate(612.66 28.42) scale(1.02 1)" style="font-size:10.017000198364258px;font-family:ArialMT, Arial"><tspan style="letter-spacing:-0.00601504491241146em">M</tspan><tspan x="8.28" y="0" style="letter-spacing:0.010979843887735204em">H</tspan><tspan x="15.63" y="0" style="letter-spacing:-0.010979843887735204em"> </tspan><tspan x="18.3" y="0" style="letter-spacing:-0.0000954769033716105em">(</tspan><tspan x="21.64" y="0" style="letter-spacing:0.010979843887735204em">R</tspan><tspan x="28.98" y="0">-</tspan><tspan x="32.32" y="0" style="letter-spacing:-0.008974828916931387em">3</tspan><tspan x="37.8" y="0" style="letter-spacing:0.0029597840045199253em">01</tspan><tspan x="49" y="0" style="letter-spacing:0.00200501497080382em">,</tspan><tspan x="51.8" y="0" style="letter-spacing:-0.011075320791106817em"> </tspan><tspan x="54.48" y="0" style="letter-spacing:0.010979843887735204em">R</tspan><tspan x="61.82" y="0" style="letter-spacing:-0.012984858858539028em">-</tspan><tspan x="65.03" y="0" style="letter-spacing:0.0029597840045199253em">300</tspan><tspan x="81.83" y="0">)</tspan><tspan x="85.16" y="0" style="letter-spacing:-0.010979843887735204em"> </tspan><tspan x="87.84" y="0">Pr</tspan><tspan x="97.85" y="0" style="letter-spacing:0.00391455303823603em">i</tspan><tspan x="100.12" y="0" style="letter-spacing:0.00601504491241146em">c</tspan><tspan x="105.19" y="0">e</tspan></text></g><g style="clip-path:url(#clip-path)"><line x1="749.79" y1="25.21" x2="771.61" y2="25.21" style="fill:none;stroke:#ff25f3;stroke-linecap:round;stroke-linejoin:round;stroke-width:2.42929466245695px"/></g><g style="clip-path:url(#clip-path-12)"><text transform="translate(773.92 28.42) scale(1.02 1)" style="font-size:10.017000198364258px;font-family:ArialMT, Arial"><tspan style="letter-spacing:-0.00601504491241146em">M</tspan><tspan x="8.28" y="0" style="letter-spacing:0.010979843887735204em">H</tspan><tspan x="15.63" y="0" style="letter-spacing:-0.010979843887735204em">,</tspan><tspan x="18.3" y="0" style="letter-spacing:0.0019095380674322097em"> </tspan><tspan x="21.1" y="0" style="letter-spacing:0.00601504491241146em">M</tspan><tspan x="29.51" y="0">P</tspan><tspan x="36.19" y="0" style="letter-spacing:0.00200501497080382em"> </tspan><tspan x="38.99" y="0">(</tspan><tspan x="42.33" y="0" style="letter-spacing:-0.002100491874175431em">R</tspan><tspan x="49.54" y="0">-</tspan><tspan x="52.88" y="0" style="letter-spacing:-0.008974828916931387em">3</tspan><tspan x="58.36" y="0" style="letter-spacing:0.0029597840045199253em">03</tspan><tspan x="69.56" y="0">)</tspan><tspan x="72.9" y="0" style="letter-spacing:0.0019095380674322097em"> </tspan><tspan x="75.7" y="0">Pr</tspan><tspan x="85.72" y="0" style="letter-spacing:-0.00802005988321528em">i</tspan><tspan x="87.86" y="0" style="letter-spacing:0.00601504491241146em">c</tspan><tspan x="92.93" y="0">e</tspan></text></g><polygon points="3.27 0.9 895.3 0.9 895.3 349.1 3.27 349.1 3.27 0.9 3.27 0.9" style="fill:none;stroke:#d9d9d9;stroke-linejoin:round;stroke-width:0.809764976866671px"/></svg>