<svg id="Layer_1" data-name="Layer 1" xmlns="http://www.w3.org/2000/svg" xmlns:xlink="http://www.w3.org/1999/xlink" viewBox="0 0 900 350"><defs><clipPath id="clip-path"><polygon points="1.89 95.68 900 95.68 900 255.6 1.89 255.6 1.89 95.68 1.89 95.68" style="fill:none;clip-rule:evenodd"/></clipPath><clipPath id="clip-path-2"><polygon points="1.89 95.68 135.13 95.68 135.13 148.13 1.89 148.13 1.89 95.68 1.89 95.68" style="fill:none;clip-rule:evenodd"/></clipPath><clipPath id="clip-path-3"><polygon points="1.89 95.68 900 95.68 900 148.13 1.89 148.13 1.89 95.68 1.89 95.68" style="fill:none;clip-rule:evenodd"/></clipPath><clipPath id="clip-path-5"><polygon points="1.89 231.29 898.72 231.29 898.72 254.32 1.89 254.32 1.89 231.29 1.89 231.29" style="fill:none;clip-rule:evenodd"/></clipPath><clipPath id="clip-path-6"><polygon points="428.52 149.41 780.85 149.41 780.85 189.07 428.52 189.07 428.52 149.41 428.52 149.41" style="fill:none;clip-rule:evenodd"/></clipPath><clipPath id="clip-path-7"><polygon points="428.52 190.35 780.85 190.35 780.85 230.01 428.52 230.01 428.52 190.35 428.52 190.35" style="fill:none;clip-rule:evenodd"/></clipPath><clipPath id="clip-path-8"><polygon points="0.61 94.4 900 94.4 900 255.6 0.61 255.6 0.61 94.4 0.61 94.4" style="fill:none;clip-rule:evenodd"/></clipPath></defs><title>seasonal-calendar</title><g style="clip-path:url(#clip-path)"><polyline points="0.61 94.4 0.61 149.41 900 149.41 900 94.4 0.61 94.4" style="fill:#d9d9d9;fill-rule:evenodd"/><polyline points="898.72 94.4 898.72 149.41 953.81 149.41 953.81 94.4 898.72 94.4" style="fill:#fff;fill-rule:evenodd"/><polyline points="0.61 148.13 0.61 231.29 310.65 231.29 310.65 148.13 0.61 148.13" style="fill:#f2f2f2;fill-rule:evenodd"/><polyline points="368.31 148.13 368.31 231.29 428.52 231.29 428.52 148.13 368.31 148.13" style="fill:#5e9fff;fill-rule:evenodd"/><polyline points="427.24 148.13 427.24 231.29 782.13 231.29 782.13 148.13 427.24 148.13" style="fill:#06f;fill-rule:evenodd"/><polyline points="780.85 148.13 780.85 231.29 841.07 231.29 841.07 148.13 780.85 148.13" style="fill:#0044ab;fill-rule:evenodd"/><polyline points="898.72 148.13 898.72 231.29 953.81 231.29 953.81 148.13 898.72 148.13" style="fill:#fff;fill-rule:evenodd"/><polyline points="0.61 230.01 0.61 279.9 953.81 279.9 953.81 230.01 0.61 230.01" style="fill:#fff;fill-rule:evenodd"/></g><g style="clip-path:url(#clip-path-2)"><text transform="translate(14.71 117.42)" style="font-size:16.630870819091797px;font-family:Arial-BoldMT, Arial;font-weight:700"><tspan style="letter-spacing:-0.029023379374947075em">A</tspan><tspan x="11.53" y="0" style="letter-spacing:0.003987050095952327em">g</tspan><tspan x="21.75" y="0" style="letter-spacing:-0.003987050095952327em">r</tspan><tspan x="28.16" y="0" style="letter-spacing:0.004045683185598683em">o</tspan><tspan x="38.38" y="0" style="letter-spacing:-0.025036329278994757em">-</tspan><tspan x="43.51" y="0" style="letter-spacing:-0.017003595997443742em">c</tspan><tspan x="52.47" y="0" style="letter-spacing:0.029023379374947075em">li</tspan><tspan x="62.68" y="0" style="letter-spacing:0.033010429470899404em">m</tspan><tspan x="78.02" y="0" style="letter-spacing:0.05898488818423588em">a</tspan><tspan x="88.25" y="0" style="letter-spacing:-0.024977696189348395em">t</tspan><tspan x="93.37" y="0" style="letter-spacing:0.029023379374947075em">i</tspan><tspan x="98.47" y="0" style="letter-spacing:-0.017003595997443742em">c</tspan><tspan x="107.44" y="0"> </tspan></text><text transform="translate(49.29 139.18)" style="font-size:16.630870819091797px;font-family:Arial-BoldMT, Arial;font-weight:700"><tspan style="letter-spacing:0.03799424209083982em">z</tspan><tspan x="8.95" y="0" style="letter-spacing:0.003987050095952327em">on</tspan><tspan x="29.4" y="0">e</tspan></text></g><g style="clip-path:url(#clip-path-3)"><text transform="translate(194.07 127.66)" style="font-size:16.630870819091797px;font-family:Arial-BoldMT, Arial;font-weight:700"><tspan style="letter-spacing:-0.029023379374947075em">R</tspan><tspan x="11.53" y="0" style="letter-spacing:0.05904352127388225em">e</tspan><tspan x="21.76" y="0" style="letter-spacing:0.003987050095952327em">g</tspan><tspan x="31.98" y="0" style="letter-spacing:0.029023379374947075em">i</tspan><tspan x="37.09" y="0" style="letter-spacing:0.003987050095952327em">o</tspan><tspan x="47.31" y="0">n</tspan></text><text transform="translate(322.19 127.66)" style="font-size:16.630870819091797px;font-family:Arial-BoldMT, Arial;font-weight:700;letter-spacing:0.013016545901491419em">M<tspan x="14.07" y="0" style="letter-spacing:0.05898488818423588em">a</tspan><tspan x="24.3" y="0" style="letter-spacing:0.00005863308964635774em">y</tspan></text><text transform="translate(383.68 127.66)" style="font-size:16.630870819091797px;font-family:Arial-BoldMT, Arial;font-weight:700"><tspan style="letter-spacing:-0.017003595997443742em">J</tspan><tspan x="8.97" y="0" style="letter-spacing:0.004045683185598683em">u</tspan><tspan x="19.19" y="0">n</tspan></text><text transform="translate(445.19 127.66)" style="font-size:16.630870819091797px;font-family:Arial-BoldMT, Arial;font-weight:700"><tspan style="letter-spacing:-0.017003595997443742em">J</tspan><tspan x="8.97" y="0" style="letter-spacing:0.004045683185598683em">u</tspan><tspan x="19.19" y="0">l</tspan></text><text transform="translate(500.27 127.66)" style="font-size:16.630870819091797px;font-family:Arial-BoldMT, Arial;font-weight:700"><tspan style="letter-spacing:-0.029023379374947075em">A</tspan><tspan x="11.53" y="0" style="letter-spacing:0.003987050095952327em">u</tspan><tspan x="21.75" y="0">g</tspan></text><text transform="translate(559.2 127.66)" style="font-size:16.630870819091797px;font-family:Arial-BoldMT, Arial;font-weight:700"><tspan style="letter-spacing:0.024977696189348395em">S</tspan><tspan x="11.51" y="0" style="letter-spacing:0.05904352127388225em">e</tspan><tspan x="21.74" y="0">p</tspan></text><text transform="translate(620.71 127.66)" style="font-size:16.630870819091797px;font-family:Arial-BoldMT, Arial;font-weight:700"><tspan style="letter-spacing:-0.007974100191904653em">O</tspan><tspan x="12.8" y="0" style="letter-spacing:-0.017003595997443742em">c</tspan><tspan x="21.77" y="0">t</tspan></text><text transform="translate(677.08 127.66)" style="font-size:16.630870819091797px;font-family:Arial-BoldMT, Arial;font-weight:700;letter-spacing:-0.029023379374947075em">N<tspan x="11.53" y="0" style="letter-spacing:0.003987050095952327em">o</tspan><tspan x="21.75" y="0" style="letter-spacing:0.00005863308964635774em">v</tspan></text><text transform="translate(736.01 127.66)" style="font-size:16.630870819091797px;font-family:Arial-BoldMT, Arial;font-weight:700"><tspan style="letter-spacing:-0.029023379374947075em">D</tspan><tspan x="11.53" y="0" style="letter-spacing:0.05904352127388225em">e</tspan><tspan x="21.76" y="0">c</tspan></text><text transform="translate(796.23 127.66)" style="font-size:16.630870819091797px;font-family:Arial-BoldMT, Arial;font-weight:700"><tspan style="letter-spacing:-0.017003595997443742em">J</tspan><tspan x="8.97" y="0" style="letter-spacing:0.05904352127388225em">a</tspan><tspan x="19.2" y="0">n</tspan></text><text transform="translate(853.88 127.66)" style="font-size:16.630870819091797px;font-family:Arial-BoldMT, Arial;font-weight:700"><tspan style="letter-spacing:0.003987050095952327em">F</tspan><tspan x="10.23" y="0" style="letter-spacing:0.05904352127388225em">e</tspan><tspan x="20.46" y="0">b</tspan></text></g><g style="clip-path:url(#clip-path)"><text transform="translate(51.86 174.99)" style="font-size:16.630870819091797px;font-family:Arial-BoldMT, Arial;font-weight:700"><tspan style="letter-spacing:-0.029023379374947075em">C</tspan><tspan x="11.53" y="0" style="letter-spacing:0.024977696189348395em">P</tspan><tspan x="23.04" y="0">H</tspan></text><text transform="translate(150.51 174.99)" style="font-size:16.630870819091797px;font-family:Arial-BoldMT, Arial;font-weight:700;letter-spacing:-0.029023379374947075em">R<tspan x="11.53" y="0" style="letter-spacing:-0.025036329278994757em">-</tspan><tspan x="16.65" y="0" style="letter-spacing:0.00005863308964635774em">8</tspan></text><text transform="translate(49.29 215.93)" style="font-size:16.630870819091797px;font-family:Arial-BoldMT, Arial;font-weight:700;letter-spacing:0.05599460061227164em">W<tspan x="16.63" y="0" style="letter-spacing:0.024977696189348395em">P</tspan><tspan x="28.14" y="0" style="letter-spacing:-0.00005863308964635774em">H</tspan></text><text transform="translate(150.51 215.93)" style="font-size:16.630870819091797px;font-family:Arial-BoldMT, Arial;font-weight:700"><tspan style="letter-spacing:-0.029023379374947075em">R</tspan><tspan x="11.53" y="0" style="letter-spacing:-0.025036329278994757em">-</tspan><tspan x="16.65" y="0" style="letter-spacing:-0.016944962907797387em">300</tspan><tspan x="43.55" y="0" style="letter-spacing:0.029023379374947075em">, </tspan><tspan x="53.76" y="0" style="letter-spacing:-0.029023379374947075em">R</tspan><tspan x="65.28" y="0" style="letter-spacing:-0.025036329278994757em">-</tspan><tspan x="70.41" y="0" style="letter-spacing:-0.017003595997443742em">301</tspan><tspan x="97.31" y="0" style="letter-spacing:0.029023379374947075em">, </tspan><tspan x="107.51" y="0" style="letter-spacing:-0.029023379374947075em">R</tspan><tspan x="119.04" y="0" style="letter-spacing:-0.025036329278994757em">-</tspan><tspan x="124.16" y="0" style="letter-spacing:-0.016944962907797387em">30</tspan><tspan x="142.1" y="0">3</tspan></text></g><g style="clip-path:url(#clip-path-5)"><text transform="translate(4.45 246.65)" style="font-size:14.072270393371582px;font-family:ArialMT, Arial;letter-spacing:-0.08502333996460308em">N<tspan x="8.97" y="0" style="letter-spacing:-0.009978289286799384em">o</tspan><tspan x="16.65" y="0" style="letter-spacing:-0.004989144643399692em">t</tspan><tspan x="20.49" y="0" style="letter-spacing:-0.009978289286799384em">e</tspan><tspan x="28.18" y="0" style="letter-spacing:-0.004989144643399692em">:</tspan><tspan x="32.02" y="0" style="letter-spacing:0.0000692936756027735em"> </tspan></text><text transform="translate(40.31 246.65)" style="font-size:14.072270393371582px;font-family:Arial-BoldMT, Arial;font-weight:700"><tspan style="letter-spacing:0.004989144643399692em">C</tspan><tspan x="10.23" y="0" style="letter-spacing:-0.03000416153600093em">P</tspan><tspan x="19.2" y="0" style="letter-spacing:-0.08502333996460308em">H</tspan><tspan x="28.16" y="0"> </tspan></text><text transform="translate(72.34 246.65)" style="font-size:14.072270393371582px;font-family:ArialMT, Arial"><tspan style="letter-spacing:0.002078810268083205em">C</tspan><tspan x="10.19" y="0" style="letter-spacing:-0.006305724479852388em">e</tspan><tspan x="17.93" y="0" style="letter-spacing:-0.01586825171303513em">n</tspan><tspan x="25.53" y="0" style="letter-spacing:-0.0015937545388637904em">t</tspan><tspan x="29.42" y="0" style="letter-spacing:-0.0036725648069469955em">r</tspan><tspan x="34.05" y="0" style="letter-spacing:-0.007899479018716179em">a</tspan><tspan x="41.77" y="0">l </tspan><tspan x="48.8" y="0" style="letter-spacing:-0.013304385715732513em">P</tspan><tspan x="58" y="0" style="letter-spacing:-0.008384534747935593em">l</tspan><tspan x="61.01" y="0" style="letter-spacing:-0.013789441444951927em">a</tspan><tspan x="68.64" y="0" style="letter-spacing:-0.014205203498568566em">t</tspan><tspan x="72.35" y="0" style="letter-spacing:-0.006305724479852388em">e</tspan><tspan x="80.09" y="0" style="letter-spacing:-0.012611448959704777em">a</tspan><tspan x="87.74" y="0">u </tspan><tspan x="99.48" y="0" style="letter-spacing:-0.008384534747935593em">a</tspan><tspan x="107.19" y="0" style="letter-spacing:-0.0058899624262357475em">n</tspan><tspan x="114.93" y="0">d </tspan><tspan x="126.66" y="0" style="letter-spacing:-0.0033953901045359015em">H</tspan><tspan x="136.78" y="0" style="letter-spacing:-0.007275835938291217em">i</tspan><tspan x="139.8" y="0" style="letter-spacing:-0.008800296801552235em">l</tspan><tspan x="142.81" y="0" style="letter-spacing:-0.006998661235880123em">l</tspan><tspan x="145.83" y="0" style="letter-spacing:-0.01108698809644376em">s</tspan><tspan x="152.71" y="0">, </tspan></text><text transform="translate(230.38 246.65)" style="font-size:14.072270393371582px;font-family:Arial-BoldMT, Arial;font-weight:700"><tspan style="letter-spacing:-0.03402319472096178em">W</tspan><tspan x="12.8" y="0" style="letter-spacing:-0.03000416153600093em">P</tspan><tspan x="21.77" y="0">H</tspan></text><text transform="translate(261.12 246.65)" style="font-size:14.072270393371582px;font-family:ArialMT, Arial"> <tspan x="3.91" y="0" style="letter-spacing:-0.02965769315798706em">W</tspan><tspan x="16.77" y="0" style="letter-spacing:-0.0033260964289331283em">e</tspan><tspan x="24.55" y="0" style="letter-spacing:-0.01129486912325208em">s</tspan><tspan x="31.43" y="0" style="letter-spacing:-0.014205203498568566em">t</tspan><tspan x="35.14" y="0" style="letter-spacing:-0.0057513750750302em">e</tspan><tspan x="42.89" y="0" style="letter-spacing:0.008245947396730045em">r</tspan><tspan x="47.69" y="0">n </tspan><tspan x="59.42" y="0" style="letter-spacing:-0.013373679391335285em">P</tspan><tspan x="68.62" y="0" style="letter-spacing:-0.008384534747935593em">l</tspan><tspan x="71.63" y="0" style="letter-spacing:-0.013789441444951927em">at</tspan><tspan x="82.97" y="0" style="letter-spacing:-0.006305724479852388em">e</tspan><tspan x="90.71" y="0" style="letter-spacing:-0.012611448959704777em">a</tspan><tspan x="98.36" y="0">u </tspan><tspan x="110.1" y="0" style="letter-spacing:-0.008384534747935593em">a</tspan><tspan x="117.8" y="0" style="letter-spacing:-0.0058899624262357475em">n</tspan><tspan x="125.55" y="0">d </tspan><tspan x="137.28" y="0" style="letter-spacing:-0.0034646837801386755em">H</tspan><tspan x="147.4" y="0" style="letter-spacing:-0.007275835938291217em">i</tspan><tspan x="150.42" y="0" style="letter-spacing:-0.008800296801552235em">l</tspan><tspan x="153.42" y="0" style="letter-spacing:-0.006929367560277351em">l</tspan><tspan x="156.45" y="0" style="letter-spacing:-0.0000692936756027735em">s</tspan></text></g><g style="clip-path:url(#clip-path-6)"><text transform="translate(580.98 174.99)" style="font-size:16.630870819091797px;fill:#fff;font-family:Arial-BoldMT, Arial;font-weight:700;letter-spacing:-0.029023379374947075em">K<tspan x="11.53" y="0" style="letter-spacing:0.003987050095952327em">h</tspan><tspan x="21.75" y="0" style="letter-spacing:0.05904352127388225em">a</tspan><tspan x="31.98" y="0" style="letter-spacing:-0.003987050095952327em">r</tspan><tspan x="38.39" y="0" style="letter-spacing:0.029023379374947075em">i</tspan><tspan x="43.49" y="0" style="letter-spacing:-0.00005863308964635774em">f</tspan></text></g><g style="clip-path:url(#clip-path-7)"><text transform="translate(580.98 215.93)" style="font-size:16.630870819091797px;fill:#fff;font-family:Arial-BoldMT, Arial;font-weight:700;letter-spacing:-0.029023379374947075em">K<tspan x="11.53" y="0" style="letter-spacing:0.003987050095952327em">h</tspan><tspan x="21.75" y="0" style="letter-spacing:0.05904352127388225em">a</tspan><tspan x="31.98" y="0" style="letter-spacing:-0.003987050095952327em">r</tspan><tspan x="38.39" y="0" style="letter-spacing:0.029023379374947075em">i</tspan><tspan x="43.49" y="0" style="letter-spacing:-0.00005863308964635774em">f</tspan></text></g><g style="clip-path:url(#clip-path-8)"><polyline points="1.89 94.4 1.89 95.68 900 95.68 900 94.4 1.89 94.4" style="fill:#bfbfbf;fill-rule:evenodd"/><polyline points="1.89 148.13 1.89 149.41 900 149.41 900 148.13 1.89 148.13" style="fill:#bfbfbf;fill-rule:evenodd"/><polyline points="0.61 94.4 0.61 190.35 1.89 190.35 1.89 94.4 0.61 94.4" style="fill:#bfbfbf;fill-rule:evenodd"/><polyline points="1.89 189.07 1.89 190.35 135.13 190.35 135.13 189.07 1.89 189.07" style="fill:#d9d9d9;fill-rule:evenodd"/><polyline points="136.41 189.07 136.41 190.35 309.37 190.35 309.37 189.07 136.41 189.07" style="fill:#d9d9d9;fill-rule:evenodd"/><polyline points="310.65 189.07 310.65 190.35 368.31 190.35 368.31 189.07 310.65 189.07" style="fill:#d9d9d9;fill-rule:evenodd"/><polyline points="369.59 189.07 369.59 190.35 427.24 190.35 427.24 189.07 369.59 189.07" style="fill:#d9d9d9;fill-rule:evenodd"/><polyline points="428.52 189.07 428.52 190.35 780.85 190.35 780.85 189.07 428.52 189.07" style="fill:#d9d9d9;fill-rule:evenodd"/><polyline points="782.13 189.07 782.13 190.35 839.78 190.35 839.78 189.07 782.13 189.07" style="fill:#d9d9d9;fill-rule:evenodd"/><polyline points="841.07 189.07 841.07 190.35 898.72 190.35 898.72 189.07 841.07 189.07" style="fill:#d9d9d9;fill-rule:evenodd"/><polyline points="0.61 190.35 0.61 230.01 1.89 230.01 1.89 190.35 0.61 190.35" style="fill:#d9d9d9;fill-rule:evenodd"/><polyline points="0.61 230.01 0.61 231.29 369.59 231.29 369.59 230.01 0.61 230.01" style="fill:#bfbfbf;fill-rule:evenodd"/><polyline points="369.59 230.01 369.59 231.29 427.24 231.29 427.24 230.01 369.59 230.01" style="fill:#d9d9d9;fill-rule:evenodd"/><polyline points="428.52 230.01 428.52 231.29 780.85 231.29 780.85 230.01 428.52 230.01" style="fill:#d9d9d9;fill-rule:evenodd"/><polyline points="782.13 230.01 782.13 231.29 839.78 231.29 839.78 230.01 782.13 230.01" style="fill:#d9d9d9;fill-rule:evenodd"/><polyline points="841.07 230.01 841.07 231.29 900 231.29 900 230.01 841.07 230.01" style="fill:#bfbfbf;fill-rule:evenodd"/><polyline points="898.72 95.68 898.72 231.29 900 231.29 900 95.68 898.72 95.68" style="fill:#bfbfbf;fill-rule:evenodd"/><polyline points="0.61 231.29 0.61 255.6 1.89 255.6 1.89 231.29 0.61 231.29" style="fill:#fff;fill-rule:evenodd"/><polyline points="135.13 95.68 135.13 231.29 136.41 231.29 136.41 95.68 135.13 95.68" style="fill:#bfbfbf;fill-rule:evenodd"/><polyline points="309.37 95.68 309.37 231.29 310.65 231.29 310.65 95.68 309.37 95.68" style="fill:#bfbfbf;fill-rule:evenodd"/><polyline points="368.31 95.68 368.31 231.29 369.59 231.29 369.59 95.68 368.31 95.68" style="fill:#bfbfbf;fill-rule:evenodd"/><polyline points="427.24 95.68 427.24 231.29 428.52 231.29 428.52 95.68 427.24 95.68" style="fill:#bfbfbf;fill-rule:evenodd"/><polyline points="486.18 95.68 486.18 149.41 487.46 149.41 487.46 95.68 486.18 95.68" style="fill:#bfbfbf;fill-rule:evenodd"/><polyline points="545.11 95.68 545.11 149.41 546.39 149.41 546.39 95.68 545.11 95.68" style="fill:#bfbfbf;fill-rule:evenodd"/><polyline points="604.05 95.68 604.05 149.41 605.33 149.41 605.33 95.68 604.05 95.68" style="fill:#bfbfbf;fill-rule:evenodd"/><polyline points="662.98 95.68 662.98 149.41 664.26 149.41 664.26 95.68 662.98 95.68" style="fill:#bfbfbf;fill-rule:evenodd"/><polyline points="721.91 95.68 721.91 149.41 723.2 149.41 723.2 95.68 721.91 95.68" style="fill:#bfbfbf;fill-rule:evenodd"/><polyline points="780.85 95.68 780.85 231.29 782.13 231.29 782.13 95.68 780.85 95.68" style="fill:#bfbfbf;fill-rule:evenodd"/><polyline points="839.78 95.68 839.78 231.29 841.07 231.29 841.07 95.68 839.78 95.68" style="fill:#bfbfbf;fill-rule:evenodd"/><polyline points="1.89 254.32 1.89 255.6 900 255.6 900 254.32 1.89 254.32" style="fill:#fff;fill-rule:evenodd"/><polyline points="898.72 231.29 898.72 255.6 900 255.6 900 231.29 898.72 231.29" style="fill:#fff;fill-rule:evenodd"/></g></svg>