<svg id="Layer_1" data-name="Layer 1" xmlns="http://www.w3.org/2000/svg" xmlns:xlink="http://www.w3.org/1999/xlink" viewBox="0 0 900 350"><defs><clipPath id="clip-path"><polygon points="4.88 349.44 895.12 349.44 895.12 0.42 4.88 0.42 4.88 349.44 4.88 349.44" style="fill:none;clip-rule:evenodd"/></clipPath><clipPath id="clip-path-2"><polygon points="74.64 306.98 881 306.98 881 18.16 74.64 18.16 74.64 306.98 74.64 306.98" style="fill:none;clip-rule:evenodd"/></clipPath><clipPath id="clip-path-6"><rect x="4.89" y="0.42" width="890.23" height="349.02" style="fill:none"/></clipPath><clipPath id="clip-path-15"><rect x="286.04" y="127.02" width="182.37" height="18.01" style="fill:none"/></clipPath></defs><title>yar</title><polygon points="5.02 0.42 895.12 0.42 895.12 349.58 5.02 349.58 5.02 0.42 5.02 0.42" style="fill:#eaeaea;fill-rule:evenodd"/><polygon points="74.77 18.3 880.33 18.3 880.33 306.17 74.77 306.17 74.77 18.3 74.77 18.3" style="fill:#fff;fill-rule:evenodd"/><path d="M74.77,306.17H880.33M74.77,191H880.33M74.77,133.47H880.33M74.77,75.82H880.33M74.77,18.3H880.33" style="fill:none;stroke:#d9d9d9;stroke-linejoin:round;stroke-width:0.806367009736526px"/><g style="clip-path:url(#clip-path)"><path d="M74.77,18.3V306.17M276.09,18.3V306.17M477.55,18.3V306.17M678.87,18.3V306.17M880.33,18.3V306.17" style="fill:none;stroke:#d9d9d9;stroke-linejoin:round;stroke-width:0.806367009736526px"/></g><g style="clip-path:url(#clip-path-2)"><path d="M135.11,248.65h80.64v23H135.11v-23Zm201.46,0h80.5V263h-80.5V248.65Zm201.32,0h80.64v16.26H537.89V248.65Zm201.46,0h80.5V270h-80.5V248.65Z" style="fill:#ff25f3"/></g><g style="clip-path:url(#clip-path-2)"><path d="M135.11,64.26h80.64V248.65H135.11V64.26Zm201.46,94.48h80.5v89.91h-80.5V158.74Zm201.32,23.79h80.64v66.12H537.89V182.53ZM739.35,144.9h80.5V248.65h-80.5V144.9Z" style="fill:#5e9fff"/></g><g style="clip-path:url(#clip-path-2)"><path d="M135.11,41.28h80.64v23H135.11v-23ZM336.57,144.36h80.5v14.38h-80.5V144.36Zm201.32,21.9h80.64v16.27H537.89V166.26Zm201.46-42.73h80.5V144.9h-80.5V123.53Z" style="fill:#0044ab"/></g><g style="clip-path:url(#clip-path)"><line x1="74.77" y1="248.65" x2="880.33" y2="248.65" style="fill:none;stroke:#d9d9d9;stroke-linejoin:round;stroke-width:0.806367009736526px"/></g><g style="clip-path:url(#clip-path-6)"><text transform="translate(165.02 285.41)" style="font-size:9.004429817199707px;font-family:Arial-BoldMT, Arial;font-weight:700">-</text></g><g style="clip-path:url(#clip-path-6)"><text transform="translate(167.99 285.41)" style="font-size:9.004429817199707px;font-family:Arial-BoldMT, Arial;font-weight:700;letter-spacing:-0.003036699775011812em">13<tspan x="9.96" y="0" style="letter-spacing:-0.000108453563393279em">%</tspan></text></g><g style="clip-path:url(#clip-path-6)"><text transform="translate(365.21 279.37)" style="font-size:10.07958984375px;font-family:Arial-BoldMT, Arial;font-weight:700">-</text></g><g style="clip-path:url(#clip-path-6)"><text transform="translate(368.57 279.37)" style="font-size:10.07958984375px;font-family:Arial-BoldMT, Arial;font-weight:700"><tspan style="letter-spacing:0.00300343942256455em">16</tspan><tspan x="11.27" y="0">%</tspan></text></g><g style="clip-path:url(#clip-path-6)"><text transform="translate(564.72 281.68)" style="font-size:10.07958984375px;font-family:Arial-BoldMT, Arial;font-weight:700">-</text></g><g style="clip-path:url(#clip-path-6)"><text transform="translate(568.08 281.68)" style="font-size:10.07958984375px;font-family:Arial-BoldMT, Arial;font-weight:700"><tspan style="letter-spacing:0.00300343942256455em">25</tspan><tspan x="11.27" y="0">%</tspan></text></g><g style="clip-path:url(#clip-path-6)"><text transform="translate(766.11 281.58)" style="font-size:10.07958984375px;font-family:Arial-BoldMT, Arial;font-weight:700">-</text></g><g style="clip-path:url(#clip-path-6)"><text transform="translate(769.47 281.58)" style="font-size:10.07958984375px;font-family:Arial-BoldMT, Arial;font-weight:700"><tspan style="letter-spacing:0.00300343942256455em">21</tspan><tspan x="11.27" y="0">%</tspan></text></g><g style="clip-path:url(#clip-path-6)"><text transform="translate(160.04 35.36)" style="font-size:10.07958984375px;font-family:Arial-BoldMT, Arial;font-weight:700"><tspan style="letter-spacing:0.0019377028532674514em">+</tspan><tspan x="5.91" y="0" style="letter-spacing:0.0031003245652279224em">13</tspan><tspan x="17.18" y="0">%</tspan></text></g><g style="clip-path:url(#clip-path-15)"><text transform="translate(364.24 139.63)" style="font-size:10.07958984375px;font-family:Arial-BoldMT, Arial;font-weight:700"><tspan style="letter-spacing:0.0019377028532674514em">+</tspan><tspan x="5.91" y="0" style="letter-spacing:0.0031003245652279224em">16</tspan><tspan x="17.18" y="0">%</tspan></text></g><g style="clip-path:url(#clip-path-6)"><text transform="translate(565.25 159.41)" style="font-size:10.07958984375px;font-family:Arial-BoldMT, Arial;font-weight:700"><tspan style="letter-spacing:0.0019377028532674514em">+</tspan><tspan x="5.91" y="0" style="letter-spacing:0.0031003245652279224em">25</tspan><tspan x="17.18" y="0">%</tspan></text></g><g style="clip-path:url(#clip-path-6)"><text transform="translate(768.51 119.22)" style="font-size:10.07958984375px;font-family:Arial-BoldMT, Arial;font-weight:700"><tspan style="letter-spacing:0.0019377028532674514em">+</tspan><tspan x="5.91" y="0" style="letter-spacing:0.0031003245652279224em">21</tspan><tspan x="17.18" y="0">%</tspan></text></g><g style="clip-path:url(#clip-path-6)"><text transform="translate(43.08 309.44)" style="font-size:10.07958984375px;font-family:ArialMT, Arial">-<tspan x="3.36" y="0" style="letter-spacing:0.00300343942256455em">0</tspan><tspan x="8.99" y="0" style="letter-spacing:0.002034587995930824em">.</tspan><tspan x="11.81" y="0" style="letter-spacing:-0.00901031826769365em">2</tspan><tspan x="17.33" y="0">0</tspan></text></g><g style="clip-path:url(#clip-path-6)"><text transform="translate(46.44 251.84)" style="font-size:10.07958984375px;font-family:ArialMT, Arial"><tspan style="letter-spacing:0.00300343942256455em">0</tspan><tspan x="5.64" y="0" style="letter-spacing:0.002034587995930824em">.</tspan><tspan x="8.46" y="0" style="letter-spacing:-0.00901031826769365em">0</tspan><tspan x="13.97" y="0">0</tspan></text></g><g style="clip-path:url(#clip-path-6)"><text transform="translate(46.44 194.24)" style="font-size:10.07958984375px;font-family:ArialMT, Arial"><tspan style="letter-spacing:0.00300343942256455em">0</tspan><tspan x="5.64" y="0" style="letter-spacing:0.002034587995930824em">.</tspan><tspan x="8.46" y="0" style="letter-spacing:-0.00901031826769365em">2</tspan><tspan x="13.97" y="0">0</tspan></text></g><g style="clip-path:url(#clip-path-6)"><text transform="translate(46.44 136.63)" style="font-size:10.07958984375px;font-family:ArialMT, Arial"><tspan style="letter-spacing:0.00300343942256455em">0</tspan><tspan x="5.64" y="0" style="letter-spacing:0.002034587995930824em">.</tspan><tspan x="8.46" y="0" style="letter-spacing:-0.00901031826769365em">4</tspan><tspan x="13.97" y="0">0</tspan></text></g><g style="clip-path:url(#clip-path-6)"><text transform="translate(46.44 79.04)" style="font-size:10.07958984375px;font-family:ArialMT, Arial"><tspan style="letter-spacing:0.00300343942256455em">0</tspan><tspan x="5.64" y="0" style="letter-spacing:0.002034587995930824em">.</tspan><tspan x="8.46" y="0" style="letter-spacing:-0.00901031826769365em">6</tspan><tspan x="13.97" y="0">0</tspan></text></g><g style="clip-path:url(#clip-path-6)"><text transform="translate(46.44 21.45)" style="font-size:10.07958984375px;font-family:ArialMT, Arial"><tspan style="letter-spacing:0.00300343942256455em">0</tspan><tspan x="5.64" y="0" style="letter-spacing:0.002034587995930824em">.</tspan><tspan x="8.46" y="0" style="letter-spacing:-0.00901031826769365em">8</tspan><tspan x="13.97" y="0">0</tspan></text></g><g style="clip-path:url(#clip-path-6)"><text transform="translate(167.3 321.44)" style="font-size:10.07958984375px;font-family:ArialMT, Arial"><tspan style="letter-spacing:-0.002034587995930824em">R</tspan><tspan x="7.26" y="0">-8</tspan></text></g><g style="clip-path:url(#clip-path-6)"><text transform="translate(363.08 321.44)" style="font-size:10.07958984375px;font-family:ArialMT, Arial"><tspan style="letter-spacing:-0.002034587995930824em">R</tspan><tspan x="7.26" y="0">-</tspan><tspan x="10.62" y="0" style="letter-spacing:0.0031003245652279224em">30</tspan><tspan x="21.89" y="0">0</tspan></text></g><g style="clip-path:url(#clip-path-6)"><text transform="translate(564.47 321.44)" style="font-size:10.07958984375px;font-family:ArialMT, Arial"><tspan style="letter-spacing:-0.002034587995930824em">R</tspan><tspan x="7.26" y="0">-</tspan><tspan x="10.62" y="0" style="letter-spacing:0.0031003245652279224em">30</tspan><tspan x="21.89" y="0">1</tspan></text></g><g style="clip-path:url(#clip-path-6)"><text transform="translate(765.86 321.44)" style="font-size:10.07958984375px;font-family:ArialMT, Arial"><tspan style="letter-spacing:-0.002034587995930824em">R</tspan><tspan x="7.26" y="0">-</tspan><tspan x="10.62" y="0" style="letter-spacing:0.0031003245652279224em">30</tspan><tspan x="21.89" y="0">3</tspan></text></g><g style="clip-path:url(#clip-path-6)"><text transform="translate(26.32 233.13) rotate(-90)" style="font-size:11.154740333557129px;font-family:Arial-BoldMT, Arial;font-weight:700"><tspan style="letter-spacing:0.004990171069472965em">Q</tspan><tspan x="8.73" y="0" style="letter-spacing:0.00297659326951019em">u</tspan><tspan x="15.58" y="0" style="letter-spacing:-0.0009630154695474144em">a</tspan><tspan x="21.77" y="0" style="letter-spacing:0.00297659326951019em">n</tspan><tspan x="28.62" y="0" style="letter-spacing:0.004027155599925551em">t</tspan><tspan x="32.38" y="0" style="letter-spacing:-0.00008754686086794676em">i</tspan><tspan x="35.48" y="0" style="letter-spacing:0.004027155599925551em">t</tspan><tspan x="39.24" y="0" style="letter-spacing:-0.013044482269324068em">y</tspan><tspan x="45.3" y="0" style="letter-spacing:0.010943357608493345em"> </tspan><tspan x="48.52" y="0">&amp; </tspan><tspan x="59.67" y="0" style="letter-spacing:0.007003748869435741em">Y</tspan><tspan x="67.19" y="0" style="letter-spacing:-0.0010505623304153612em">a</tspan><tspan x="73.38" y="0">R</tspan><tspan x="81.44" y="0" style="letter-spacing:0.010943357608493345em"> </tspan><tspan x="84.66" y="0" style="letter-spacing:0.004027155599925551em">(</tspan><tspan x="88.42" y="0" style="letter-spacing:0.021974262077854637em">M</tspan><tspan x="97.96" y="0" style="letter-spacing:0.015058060069286843em">T</tspan><tspan x="104.94" y="0" style="letter-spacing:-0.00008754686086794676em">)</tspan></text></g><g style="clip-path:url(#clip-path-6)"><text transform="translate(429.03 340.4)" style="font-size:11.154740333557129px;font-family:Arial-BoldMT, Arial;font-weight:700">R<tspan x="8.06" y="0" style="letter-spacing:-0.0010505623304153612em">e</tspan><tspan x="14.25" y="0" style="letter-spacing:0.003064140130378136em">g</tspan><tspan x="21.1" y="0" style="letter-spacing:-0.00008754686086794676em">i</tspan><tspan x="24.19" y="0" style="letter-spacing:0.003064140130378136em">on</tspan><tspan x="37.89" y="0">s</tspan></text></g><polygon points="5.02 0.42 895.12 0.42 895.12 349.58 5.02 349.58 5.02 0.42 5.02 0.42" style="fill:none;stroke:#d9d9d9;stroke-linejoin:round;stroke-width:0.806367076491px"/></svg>