<?xml version="1.0" encoding="utf-8"?>
<!-- Generator: Adobe Illustrator 16.0.0, SVG Export Plug-In . SVG Version: 6.00 Build 0)  -->
<!DOCTYPE svg PUBLIC "-//W3C//DTD SVG 1.1//EN" "http://www.w3.org/Graphics/SVG/1.1/DTD/svg11.dtd">
<svg version="1.1" id="Layer_1" xmlns="http://www.w3.org/2000/svg" xmlns:xlink="http://www.w3.org/1999/xlink" x="0px" y="0px"
	 width="841.89px" height="595.28px" viewBox="0 0 841.89 595.28" enable-background="new 0 0 841.89 595.28" xml:space="preserve">
<path fill="#2381B7" d="M86.445,256.328c0.764-2.268,1.873-3.939,3.289-5.013c1.419-1.079,3.175-1.62,5.275-1.62
	c2.921,0,5.02,0.907,6.268,2.694c1.248,1.814,1.873,4.99,1.873,9.531v13.609c0,3.43-0.655,5.953-1.986,7.513
	c-1.333,1.587-3.433,2.384-6.326,2.384c-1.983,0-3.712-0.509-5.159-1.504c-1.418-0.991-2.893-2.75-4.397-5.3
	c-2.21-3.772-5.131-6.555-8.733-8.365c-3.601-1.787-7.997-2.694-13.216-2.694c-6.464,0-11.767,2.125-15.908,6.407
	c-4.11,4.254-6.182,9.642-6.182,16.192c0,6.92,2.127,12.475,6.409,16.674c4.254,4.227,9.982,6.323,17.185,6.323
	c6.55,0,13.045-1.814,19.54-5.444c6.464-3.629,10.406-5.443,11.795-5.443c2.099,0,3.858,0.764,5.219,2.324
	c1.389,1.56,2.1,3.545,2.1,5.984c0,5.218-3.972,9.869-11.941,13.952c-7.938,4.111-17.327,6.152-28.186,6.152
	c-13.415,0-24.303-3.769-32.697-11.286c-8.395-7.54-12.591-17.242-12.591-29.093c0-11.572,4.141-21.187,12.45-28.899
	c8.307-7.685,18.801-11.54,31.42-11.54c4.368,0,8.592,0.537,12.619,1.587C78.617,252.504,82.559,254.12,86.445,256.328
	L86.445,256.328z M160.459,310.409h19.625c3.77,0,6.437,0.681,7.997,2.069c1.587,1.394,2.381,3.689,2.381,6.92
	c0,3.26-0.794,5.615-2.381,7.06c-1.56,1.449-4.227,2.157-7.997,2.157h-46.48c-3.771,0-6.465-0.708-8.11-2.157
	c-1.615-1.444-2.439-3.8-2.439-7.06c0-3.23,0.794-5.526,2.412-6.92c1.615-1.389,4.31-2.069,8.138-2.069h6.323v-40.356h-3.574
	c-3.768,0-6.434-0.704-8.022-2.125c-1.59-1.417-2.354-3.74-2.354-7.004c0-3.231,0.764-5.532,2.324-6.948
	c1.532-1.417,4.224-2.125,8.052-2.125h17.697c1.502,0,2.664,0.311,3.488,0.963c0.852,0.625,1.248,1.505,1.248,2.611v12.304
	c6.099-6.55,11.739-11.175,16.958-13.924c5.189-2.75,10.804-4.11,16.845-4.11c5.444,0,9.728,1.217,12.932,3.685
	c3.175,2.472,4.763,5.787,4.763,9.929c0,3.231-1.102,5.87-3.292,7.939c-2.18,2.069-4.985,3.12-8.42,3.12
	c-2.439,0-5.36-0.908-8.791-2.75c-3.433-1.819-5.814-2.722-7.147-2.722c-2.608,0-5.729,1.19-9.385,3.597
	c-3.659,2.412-7.911,6.069-12.79,11.003V310.409L160.459,310.409z M266.605,313.159c6.49,0,11.822-2.185,15.961-6.518
	c4.171-4.343,6.24-9.842,6.24-16.479c0-6.666-2.042-12.082-6.152-16.276c-4.083-4.227-9.443-6.323-16.049-6.323
	c-6.467,0-11.8,2.125-15.998,6.351c-4.166,4.222-6.268,9.642-6.268,16.248c0,6.638,2.102,12.137,6.328,16.479
	C254.861,310.975,260.194,313.159,266.605,313.159L266.605,313.159z M311.892,290.333c0,11.823-4.171,21.525-12.536,29.065
	c-8.365,7.518-19.285,11.286-32.75,11.286c-13.387,0-24.307-3.769-32.728-11.341c-8.425-7.546-12.619-17.243-12.619-29.011
	c0-11.799,4.194-21.469,12.619-29.01c8.42-7.518,19.34-11.286,32.728-11.286c13.466,0,24.386,3.768,32.75,11.286
	C307.721,268.864,311.892,278.534,311.892,290.333L311.892,290.333z M353.604,289.144c0,6.323,1.759,11.479,5.305,15.54
	c3.546,4.055,8.054,6.068,13.554,6.068c5.472,0,10.013-2.046,13.582-6.102c3.578-4.082,5.36-9.244,5.36-15.507
	c0-6.323-1.782-11.489-5.328-15.544c-3.546-4.055-8.083-6.069-13.614-6.069c-5.5,0-10.008,2.014-13.554,6.069
	S353.604,282.82,353.604,289.144L353.604,289.144z M363.811,343.392c3.773,0,6.444,0.708,8.027,2.157
	c1.56,1.443,2.356,3.795,2.356,7.055c0,3.23-0.796,5.531-2.356,6.925c-1.583,1.384-4.254,2.064-8.027,2.064h-35.218
	c-3.772,0-6.439-0.681-7.999-2.064c-1.587-1.394-2.379-3.694-2.379-6.925c0-3.26,0.792-5.611,2.379-7.055
	c1.56-1.449,4.227-2.157,7.999-2.157h4.907v-73.338h-1.333c-2.921,0-5.162-0.764-6.721-2.324c-1.56-1.56-2.324-3.828-2.324-6.805
	c0-3.231,0.792-5.532,2.352-6.948c1.587-1.417,4.254-2.125,8.027-2.125h12.79c1.615,0,2.805,0.283,3.573,0.88
	c0.764,0.564,1.162,1.417,1.162,2.522v5.985c2.833-3.772,6.235-6.61,10.263-8.54c4-1.898,8.541-2.861,13.586-2.861
	c11.341,0,20.757,3.629,28.159,10.888c7.43,7.263,11.142,16.392,11.142,27.423c0,11.512-3.629,21.039-10.888,28.612
	c-7.258,7.573-16.391,11.346-27.422,11.346c-4.42,0-8.591-0.625-12.447-1.875c-3.889-1.245-7.263-3.06-10.152-5.444v22.604H363.811
	L363.811,343.392z M467.913,312.987c5.56,0,10.097-2.036,13.643-6.151c3.546-4.083,5.305-9.333,5.305-15.679
	c0-6.272-1.787-11.434-5.36-15.512c-3.574-4.055-8.082-6.101-13.587-6.101c-5.415,0-9.925,2.046-13.498,6.101
	c-3.569,4.079-5.355,9.24-5.355,15.512c0,6.346,1.786,11.596,5.328,15.679C457.934,310.951,462.441,312.987,467.913,312.987
	L467.913,312.987z M476.14,238.293c-3.829,0-6.522-0.736-8.138-2.208c-1.621-1.444-2.412-3.801-2.412-7.004
	c0-3.264,0.791-5.62,2.412-7.064c1.615-1.444,4.309-2.157,8.138-2.157h25.834c1.898,0,3.176,0.398,3.856,1.167
	c0.708,0.764,1.046,2.208,1.046,4.31v85.072h1.421c2.977,0,5.218,0.769,6.722,2.296c1.505,1.505,2.24,3.745,2.24,6.693
	c0,3.26-0.796,5.615-2.355,7.06c-1.588,1.449-4.25,2.157-8.027,2.157h-12.702c-1.615,0-2.833-0.311-3.685-0.967
	c-0.88-0.621-1.306-1.5-1.306-2.606v-5.814c-2.805,3.772-6.323,6.61-10.549,8.536c-4.199,1.958-8.962,2.921-14.29,2.921
	c-10.864,0-19.938-3.685-27.256-11.087c-7.314-7.401-10.971-16.618-10.971-27.705c0-11.346,3.656-20.9,11.003-28.612
	c7.342-7.745,16.419-11.601,27.224-11.601c4.305,0,8.448,0.652,12.336,1.986c3.912,1.333,7.43,3.231,10.518,5.67v-21.043H476.14
	L476.14,238.293z M587.699,307.174V294.36c-2.837-0.597-5.36-1.051-7.629-1.361c-2.268-0.315-4.397-0.458-6.323-0.458
	c-6.351,0-11.229,1.056-14.604,3.152c-3.374,2.125-5.073,5.134-5.073,9.073c0,2.865,1.13,5.134,3.402,6.776
	c2.269,1.616,5.411,2.439,9.471,2.439c3.829,0,7.43-0.568,10.832-1.675C581.177,311.205,584.496,309.502,587.699,307.174
	L587.699,307.174z M607.808,279.584v30.825h1.329c2.981,0,5.277,0.796,6.864,2.384c1.561,1.556,2.352,3.824,2.352,6.75
	c0,3.23-0.823,5.526-2.435,6.947c-1.647,1.417-4.342,2.125-8.11,2.125h-7.8c-2.782,0-4.851-0.541-6.212-1.588
	c-1.361-1.051-2.467-2.948-3.347-5.726c-4.592,3.032-9.471,5.355-14.633,6.976c-5.134,1.615-10.351,2.407-15.595,2.407
	c-8.99,0-15.994-2.213-21.071-6.634c-5.078-4.453-7.602-10.521-7.602-18.206c0-8.309,3.291-14.775,9.901-19.372
	c6.578-4.592,15.822-6.888,27.733-6.888c3.031,0,6.096,0.139,9.16,0.426c3.088,0.254,6.208,0.708,9.355,1.333v-1.588
	c0-4.995-1.189-8.791-3.602-11.374c-2.411-2.606-5.985-3.912-10.692-3.912c-3.713,0-8.393,1.361-14.063,4.055
	c-5.698,2.722-9.726,4.083-12.109,4.083c-2.81,0-5.018-0.736-6.634-2.213c-1.62-1.444-2.411-3.485-2.411-6.096
	c0-4.481,3.291-8.022,9.841-10.666c6.578-2.634,15.512-3.939,26.798-3.939c11.795,0,20.247,2.268,25.325,6.805
	C605.253,261.036,607.808,268.725,607.808,279.584L607.808,279.584z M642.346,274.706c-3.745,0-6.439-0.708-7.999-2.153
	c-1.588-1.444-2.38-3.8-2.38-7.063c0-3.231,0.764-5.527,2.324-6.916c1.56-1.394,4.254-2.074,8.055-2.074h7.827v-22.826
	c0-1.931,0.936-3.574,2.833-4.935c1.875-1.361,4.282-2.042,7.23-2.042c3.718,0,6.356,0.796,7.972,2.352
	c1.615,1.588,2.411,4.254,2.411,8.027V256.5h25.321c3.828,0,6.522,0.68,8.138,2.074c1.62,1.389,2.412,3.685,2.412,6.916
	c0,3.263-0.819,5.619-2.439,7.063c-1.644,1.444-4.338,2.153-8.11,2.153h-25.321v21.271c0,5.925,0.936,10.008,2.778,12.249
	c1.874,2.24,5.045,3.379,9.582,3.379c4.342,0,9.415-1.25,15.289-3.749c5.87-2.491,9.81-3.741,11.795-3.741
	c2.329,0,4.282,0.908,5.897,2.694c1.616,1.815,2.412,4.083,2.412,6.86c0,4.004-3.884,7.744-11.684,11.29
	c-7.768,3.542-16.503,5.328-26.201,5.328c-5.702,0-10.721-0.764-15.035-2.323c-4.31-1.561-7.707-3.772-10.207-6.639
	c-1.842-2.18-3.143-4.791-3.911-7.91c-0.769-3.088-1.162-8.31-1.162-15.624v-1.814v-21.271H642.346L642.346,274.706z
	 M792.558,307.174V294.36c-2.837-0.597-5.36-1.051-7.628-1.361c-2.269-0.315-4.394-0.458-6.323-0.458
	c-6.352,0-11.23,1.056-14.604,3.152c-3.375,2.125-5.078,5.134-5.078,9.073c0,2.865,1.139,5.134,3.406,6.776
	c2.269,1.616,5.412,2.439,9.472,2.439c3.828,0,7.425-0.568,10.832-1.675C786.036,311.205,789.354,309.502,792.558,307.174
	L792.558,307.174z M812.662,279.584v30.825h1.333c2.977,0,5.277,0.796,6.865,2.384c1.56,1.556,2.352,3.824,2.352,6.75
	c0,3.23-0.824,5.526-2.436,6.947c-1.647,1.417-4.342,2.125-8.114,2.125h-7.795c-2.782,0-4.852-0.541-6.213-1.588
	c-1.36-1.051-2.467-2.948-3.347-5.726c-4.592,3.032-9.471,5.355-14.632,6.976c-5.134,1.615-10.351,2.407-15.596,2.407
	c-8.989,0-15.998-2.213-21.071-6.634c-5.078-4.453-7.602-10.521-7.602-18.206c0-8.309,3.292-14.775,9.897-19.372
	c6.582-4.592,15.822-6.888,27.737-6.888c3.032,0,6.097,0.139,9.156,0.426c3.092,0.254,6.212,0.708,9.359,1.333v-1.588
	c0-4.995-1.193-8.791-3.601-11.374c-2.412-2.606-5.985-3.912-10.693-3.912c-3.713,0-8.393,1.361-14.063,4.055
	c-5.703,2.722-9.729,4.083-12.109,4.083c-2.805,0-5.018-0.736-6.638-2.213c-1.616-1.444-2.407-3.485-2.407-6.096
	c0-4.481,3.291-8.022,9.841-10.666c6.578-2.634,15.513-3.939,26.798-3.939c11.795,0,20.248,2.268,25.321,6.805
	C810.111,261.036,812.662,268.725,812.662,279.584z"/>
</svg>
