<svg id="Layer_1" data-name="Layer 1" xmlns="http://www.w3.org/2000/svg" xmlns:xlink="http://www.w3.org/1999/xlink" viewBox="0 0 900 350"><defs><clipPath id="clip-path"><polygon points="1.04 350.38 898.83 350.38 898.83 -0.38 1.04 -0.38 1.04 350.38 1.04 350.38" style="fill:none;clip-rule:evenodd"/></clipPath><clipPath id="clip-path-2"><polygon points="68.94 308.59 871.17 308.59 871.17 17.28 68.94 17.28 68.94 308.59 68.94 308.59" style="fill:none;clip-rule:evenodd"/></clipPath><clipPath id="clip-path-5"><polygon points="68.94 308.59 871.17 308.59 871.17 17.28 68.94 17.28 68.94 308.59 68.94 308.59" style="fill:none;clip-rule:evenodd"/></clipPath><clipPath id="clip-path-13"><rect x="1.04" y="-0.38" width="897.79" height="350.76" style="fill:none"/></clipPath></defs><title>ground-truth-risk-report</title><polygon points="1.17 -0.38 898.96 -0.38 898.96 348.82 1.17 348.82 1.17 -0.38 1.17 -0.38" style="fill:#eaeaea;fill-rule:evenodd"/><polygon points="68.94 17.41 870.35 17.41 870.35 307.78 68.94 307.78 68.94 17.41 68.94 17.41" style="fill:#fff;fill-rule:evenodd"/><path d="M68.94,235.12H870.35M68.94,162.6H870.35M68.94,89.94H870.35M68.94,17.41H870.35" style="fill:none;stroke:#d9d9d9;stroke-linejoin:round;stroke-width:0.815091376758161px"/><g style="clip-path:url(#clip-path)"><path d="M68.94,17.41V307.78M336.17,17.41V307.78M603.26,17.41V307.78M870.35,17.41V307.78" style="fill:none;stroke:#d9d9d9;stroke-linejoin:round;stroke-width:0.815091376758161px"/></g><g style="clip-path:url(#clip-path-2)"><polygon points="151.22 102.07 253.89 102.07 253.89 307.78 151.22 307.78 151.22 102.07 151.22 102.07" style="fill:#5e9fff;fill-rule:evenodd"/><polygon points="151.22 102.07 253.89 102.07 253.89 307.78 151.22 307.78 151.22 102.07 151.22 102.07" style="fill:none;stroke:#7f7f7f;stroke-linejoin:round;stroke-width:0.815091376758161px"/><polygon points="418.31 89.94 521.12 89.94 521.12 307.78 418.31 307.78 418.31 89.94 418.31 89.94" style="fill:#5e9fff;fill-rule:evenodd"/><polygon points="418.31 89.94 521.12 89.94 521.12 307.78 418.31 307.78 418.31 89.94 418.31 89.94" style="fill:none;stroke:#7f7f7f;stroke-linejoin:round;stroke-width:0.815091376758161px"/><polygon points="685.4 65.81 788.21 65.81 788.21 307.78 685.4 307.78 685.4 65.81 685.4 65.81" style="fill:#5e9fff;fill-rule:evenodd"/><polygon points="685.4 65.81 788.21 65.81 788.21 307.78 685.4 307.78 685.4 65.81 685.4 65.81" style="fill:none;stroke:#7f7f7f;stroke-linejoin:round;stroke-width:0.815091376758161px"/></g><g style="clip-path:url(#clip-path)"><line x1="68.94" y1="307.78" x2="870.35" y2="307.78" style="fill:none;stroke:#d9d9d9;stroke-linejoin:round;stroke-width:0.815091376758161px"/></g><g style="clip-path:url(#clip-path)"><path d="M68.94,307.78v3.1m267.23-3.1v3.1m267.09-3.1v3.1m267.09-3.1v3.1" style="fill:none;stroke:#d9d9d9;stroke-linejoin:round;stroke-width:0.815091376758161px"/></g><g style="clip-path:url(#clip-path-5)"><polyline points="202.55 71.33 469.64 71.33 736.87 71.33" style="fill:none;stroke:#3d699c;stroke-linecap:round;stroke-linejoin:round;stroke-width:1.35848574039146px;stroke-dasharray:4.994431495666504,4.994431495666504"/></g><g style="clip-path:url(#clip-path)"><path d="M205.42,71.38a2.88,2.88,0,1,1-2.87-2.83,2.85,2.85,0,0,1,2.87,2.83Z" style="fill:#2935e8"/><path d="M205.42,71.38a2.88,2.88,0,1,1-2.87-2.83,2.85,2.85,0,0,1,2.87,2.83Z" style="fill:none;stroke:#2935e8;stroke-linejoin:round;stroke-width:0.815091444234875px"/><path d="M472.52,71.38a2.88,2.88,0,1,1-2.88-2.83,2.86,2.86,0,0,1,2.88,2.83Z" style="fill:#2935e8"/><path d="M472.52,71.38a2.88,2.88,0,1,1-2.88-2.83,2.86,2.86,0,0,1,2.88,2.83Z" style="fill:none;stroke:#2935e8;stroke-linejoin:round;stroke-width:0.815091444234875px"/><path d="M739.75,71.38a2.88,2.88,0,1,1-2.88-2.83,2.86,2.86,0,0,1,2.88,2.83Z" style="fill:#2935e8"/><path d="M739.75,71.38a2.88,2.88,0,1,1-2.88-2.83,2.86,2.86,0,0,1,2.88,2.83Z" style="fill:none;stroke:#2935e8;stroke-linejoin:round;stroke-width:0.815091444234875px"/></g><g style="clip-path:url(#clip-path-5)"><polyline points="202.55 137.39 469.64 137.39 736.87 137.39" style="fill:none;stroke:#ff25f3;stroke-linecap:round;stroke-linejoin:round;stroke-width:1.35848574039146px;stroke-dasharray:4.994431495666504,4.994431495666504"/></g><g style="clip-path:url(#clip-path)"><path d="M205.42,137.43a2.88,2.88,0,1,1-2.87-2.83,2.85,2.85,0,0,1,2.87,2.83Z" style="fill:#ff25f3"/><path d="M205.42,137.43a2.88,2.88,0,1,1-2.87-2.83,2.85,2.85,0,0,1,2.87,2.83Z" style="fill:none;stroke:#ffd3fd;stroke-linejoin:round;stroke-width:0.815091444234875px"/><path d="M472.52,137.43a2.88,2.88,0,1,1-2.88-2.83,2.86,2.86,0,0,1,2.88,2.83Z" style="fill:#ff25f3"/><path d="M472.52,137.43a2.88,2.88,0,1,1-2.88-2.83,2.86,2.86,0,0,1,2.88,2.83Z" style="fill:none;stroke:#ffd3fd;stroke-linejoin:round;stroke-width:0.815091444234875px"/><path d="M739.75,137.43a2.88,2.88,0,1,1-2.88-2.83,2.86,2.86,0,0,1,2.88,2.83Z" style="fill:#ff25f3"/><path d="M739.75,137.43a2.88,2.88,0,1,1-2.88-2.83,2.86,2.86,0,0,1,2.88,2.83Z" style="fill:none;stroke:#ffd3fd;stroke-linejoin:round;stroke-width:0.815091444234875px"/></g><g style="clip-path:url(#clip-path-2)"><polyline points="202.55 94.79 469.64 94.79 736.87 94.79" style="fill:none;stroke:#7f7f7f;stroke-linecap:round;stroke-linejoin:round;stroke-width:1.35848560543803px"/></g><g style="clip-path:url(#clip-path)"><path d="M205.42,94.83A2.88,2.88,0,1,1,202.55,92a2.84,2.84,0,0,1,2.87,2.83Z" style="fill:#7f7f7f"/><path d="M205.42,94.83A2.88,2.88,0,1,1,202.55,92a2.84,2.84,0,0,1,2.87,2.83Z" style="fill:none;stroke:#7f7f7f;stroke-linejoin:round;stroke-width:0.815091444234875px"/><path d="M472.52,94.83A2.88,2.88,0,1,1,469.64,92a2.85,2.85,0,0,1,2.88,2.83Z" style="fill:#7f7f7f"/><path d="M472.52,94.83A2.88,2.88,0,1,1,469.64,92a2.85,2.85,0,0,1,2.88,2.83Z" style="fill:none;stroke:#7f7f7f;stroke-linejoin:round;stroke-width:0.815091444234875px"/><path d="M739.75,94.83A2.88,2.88,0,1,1,736.87,92a2.85,2.85,0,0,1,2.88,2.83Z" style="fill:#7f7f7f"/><path d="M739.75,94.83A2.88,2.88,0,1,1,736.87,92a2.85,2.85,0,0,1,2.88,2.83Z" style="fill:none;stroke:#7f7f7f;stroke-linejoin:round;stroke-width:0.815091444234875px"/></g><g style="clip-path:url(#clip-path-2)"><polyline points="202.55 102.07 469.64 102.07 736.87 102.07" style="fill:none;stroke:#00c1a3;stroke-linecap:round;stroke-linejoin:round;stroke-width:1.35848560543803px"/></g><g style="clip-path:url(#clip-path)"><path d="M205.42,102.11a2.88,2.88,0,1,1-2.87-2.83,2.84,2.84,0,0,1,2.87,2.83Z" style="fill:#00c1a3"/><path d="M205.42,102.11a2.88,2.88,0,1,1-2.87-2.83,2.84,2.84,0,0,1,2.87,2.83Z" style="fill:none;stroke:#c0fff5;stroke-linejoin:round;stroke-width:0.815091444234875px"/><path d="M472.52,102.11a2.88,2.88,0,1,1-2.88-2.83,2.85,2.85,0,0,1,2.88,2.83Z" style="fill:#00c1a3"/><path d="M472.52,102.11a2.88,2.88,0,1,1-2.88-2.83,2.85,2.85,0,0,1,2.88,2.83Z" style="fill:none;stroke:#c0fff5;stroke-linejoin:round;stroke-width:0.815091444234875px"/><path d="M739.75,102.11a2.88,2.88,0,1,1-2.88-2.83,2.85,2.85,0,0,1,2.88,2.83Z" style="fill:#00c1a3"/><path d="M739.75,102.11a2.88,2.88,0,1,1-2.88-2.83,2.85,2.85,0,0,1,2.88,2.83Z" style="fill:none;stroke:#c0fff5;stroke-linejoin:round;stroke-width:0.815091444234875px"/></g><g style="clip-path:url(#clip-path-13)"><text transform="translate(40.18 311.02) scale(1.02 1)" style="font-size:10.110380172729492px;font-family:ArialMT, Arial"><tspan style="letter-spacing:0.00304358545302431em">0</tspan><tspan x="5.65" y="0" style="letter-spacing:0.001997352953547204em">.</tspan><tspan x="8.48" y="0" style="letter-spacing:-0.00894053226825891em">0</tspan><tspan x="14.01" y="0">0</tspan></text></g><g style="clip-path:url(#clip-path-13)"><text transform="translate(40.18 238.41) scale(1.02 1)" style="font-size:10.110380172729492px;font-family:ArialMT, Arial"><tspan style="letter-spacing:0.00304358545302431em">0</tspan><tspan x="5.65" y="0" style="letter-spacing:0.001997352953547204em">.</tspan><tspan x="8.48" y="0" style="letter-spacing:-0.00894053226825891em">3</tspan><tspan x="14.01" y="0">0</tspan></text></g><g style="clip-path:url(#clip-path-13)"><text transform="translate(40.18 165.81) scale(1.02 1)" style="font-size:10.110380172729492px;font-family:ArialMT, Arial"><tspan style="letter-spacing:0.00304358545302431em">0</tspan><tspan x="5.65" y="0" style="letter-spacing:0.001997352953547204em">.</tspan><tspan x="8.48" y="0" style="letter-spacing:-0.00894053226825891em">6</tspan><tspan x="14.01" y="0">0</tspan></text></g><g style="clip-path:url(#clip-path-13)"><text transform="translate(40.18 93.2) scale(1.02 1)" style="font-size:10.110380172729492px;font-family:ArialMT, Arial"><tspan style="letter-spacing:0.00304358545302431em">0</tspan><tspan x="5.65" y="0" style="letter-spacing:0.001997352953547204em">.</tspan><tspan x="8.48" y="0" style="letter-spacing:-0.00894053226825891em">9</tspan><tspan x="14.01" y="0">0</tspan></text></g><g style="clip-path:url(#clip-path-13)"><text transform="translate(40.18 20.6) scale(1.02 1)" style="font-size:10.110380172729492px;font-family:ArialMT, Arial"><tspan style="letter-spacing:0.00304358545302431em">1</tspan><tspan x="5.65" y="0" style="letter-spacing:0.001997352953547204em">.</tspan><tspan x="8.48" y="0" style="letter-spacing:-0.00894053226825891em">2</tspan><tspan x="14.01" y="0">0</tspan></text></g><g style="clip-path:url(#clip-path-13)"><text transform="translate(192.3 323.07) scale(1.02 1)" style="font-size:10.110380172729492px;font-family:ArialMT, Arial">Jan</text></g><g style="clip-path:url(#clip-path-13)"><text transform="translate(459.44 323.07) scale(1.02 1)" style="font-size:10.110380172729492px;font-family:ArialMT, Arial">Feb</text></g><g style="clip-path:url(#clip-path-13)"><text transform="translate(728.57 323.07) scale(1.02 1)" style="font-size:10.110380172729492px;font-family:ArialMT, Arial">Mar</text></g><g style="clip-path:url(#clip-path-13)"><text transform="translate(22.34 218.09) rotate(-90) scale(0.98 1)" style="font-size:11.362709999084473px;font-family:Arial-BoldMT, Arial;font-weight:700"><tspan style="letter-spacing:0.004974953823570482em">Q</tspan><tspan x="8.89" y="0" style="letter-spacing:0.0029675163158139712em">u</tspan><tspan x="15.87" y="0" style="letter-spacing:-0.0009600788080574613em">a</tspan><tspan x="22.18" y="0" style="letter-spacing:0.0029675163158139712em">n</tspan><tspan x="29.15" y="0" style="letter-spacing:0.004014875015513019em">t</tspan><tspan x="32.98" y="0">i</tspan><tspan x="36.14" y="0" style="letter-spacing:0.004014875015513019em">t</tspan><tspan x="39.97" y="0" style="letter-spacing:-0.012917423962954935em">y</tspan><tspan x="46.14" y="0" style="letter-spacing:0.01099726634684001em"> </tspan><tspan x="49.42" y="0" style="letter-spacing:0.004014875015513019em">(</tspan><tspan x="53.25" y="0" style="letter-spacing:0.02199453269368002em">M</tspan><tspan x="62.97" y="0" style="letter-spacing:0.015012141362353031em">T</tspan><tspan x="70.08" y="0">)</tspan></text></g><g style="clip-path:url(#clip-path-13)"><text transform="translate(416.39 345.63) scale(1.02 1)" style="font-size:11.188819885253906px;font-family:Arial-BoldMT, Arial;font-weight:700"><tspan style="letter-spacing:0.015040309513264391em">T</tspan><tspan x="7" y="0">i</tspan><tspan x="10.11" y="0" style="letter-spacing:0.0019767263931718916em">m</tspan><tspan x="20.08" y="0" style="letter-spacing:-0.0010313355094809869em">e</tspan><tspan x="26.29" y="0"> </tspan><tspan x="29.4" y="0" style="letter-spacing:-0.004039397412133865em">P</tspan><tspan x="36.82" y="0" style="letter-spacing:-0.0010313355094809869em">e</tspan><tspan x="43.03" y="0" style="letter-spacing:-0.003008061902652878em">r</tspan><tspan x="47.35" y="0">i</tspan><tspan x="50.46" y="0" style="letter-spacing:0.003008061902652878em">o</tspan><tspan x="57.33" y="0" style="letter-spacing:0.00008594462579008225em">d</tspan></text></g><polygon points="1.17 -0.38 898.96 -0.38 898.96 350.38 1.17 350.38 1.17 -0.38 1.17 -0.38" style="fill:none;stroke:#d9d9d9;stroke-linejoin:round;stroke-width:0.815091444234875px"/></svg>