<svg id="Layer_1" data-name="Layer 1" xmlns="http://www.w3.org/2000/svg" xmlns:xlink="http://www.w3.org/1999/xlink" viewBox="0 0 900 350"><defs><clipPath id="clip-path"><polygon points="-0.75 350.11 900.75 350.11 900.75 -0.11 -0.75 -0.11 -0.75 350.11 -0.75 350.11" style="fill:none;clip-rule:evenodd"/></clipPath><clipPath id="clip-path-6"><polygon points="66.28 294.95 889.55 294.95 889.55 14.86 66.28 14.86 66.28 294.95 66.28 294.95" style="fill:none;clip-rule:evenodd"/></clipPath><clipPath id="clip-path-10"><rect x="-0.75" y="-0.11" width="901.49" height="350.21" style="fill:none"/></clipPath></defs><title>ndvi-risk-report</title><polygon points="-0.61 0.03 900.75 0.03 900.75 350.11 -0.61 350.11 -0.61 0.03 -0.61 0.03" style="fill:#eaeaea;fill-rule:evenodd"/><polygon points="66.28 15 888.75 15 888.75 294.14 66.28 294.14 66.28 15 66.28 15" style="fill:#fff;fill-rule:evenodd"/><path d="M66.28,224.42H888.74M66.28,154.57H888.74M66.28,84.72H888.74M66.28,15H888.74" style="fill:none;stroke:#d9d9d9;stroke-linejoin:round;stroke-width:0.809118569829259px"/><g style="clip-path:url(#clip-path)"><path d="M100.53,15V294.14M169.17,15V294.14M237.67,15V294.14M306.18,15V294.14M374.68,15V294.14M443.32,15V294.14M511.83,15V294.14M580.34,15V294.14M648.84,15V294.14M717.48,15V294.14M786,15V294.14M854.49,15V294.14" style="fill:none;stroke:#f2f2f2;stroke-linejoin:round;stroke-width:0.809118569829259px"/></g><g style="clip-path:url(#clip-path)"><path d="M66.28,15V294.14M134.78,15V294.14M203.42,15V294.14M271.93,15V294.14M340.43,15V294.14M408.94,15V294.14M477.58,15V294.14M546.08,15V294.14M614.59,15V294.14M683.09,15V294.14M751.73,15V294.14M820.24,15V294.14M888.74,15V294.14" style="fill:none;stroke:#d9d9d9;stroke-linejoin:round;stroke-width:0.809118569829259px"/></g><g style="clip-path:url(#clip-path)"><line x1="66.28" y1="294.14" x2="888.74" y2="294.14" style="fill:none;stroke:#d9d9d9;stroke-linejoin:round;stroke-width:1.34853092738801px"/></g><g style="clip-path:url(#clip-path)"><path d="M66.28,294.14v18.34m274.15-18.34v18.34m274.16-18.34v18.34m274.15-18.34v18.34" style="fill:none;stroke:#d9d9d9;stroke-linejoin:round;stroke-width:1.34853092738801px"/></g><g style="clip-path:url(#clip-path)"><path d="M66.28,312.48v18.21m274.15-18.21v18.21m274.16-18.21v18.21m274.15-18.21v18.21" style="fill:none;stroke:#d9d9d9;stroke-linejoin:round;stroke-width:1.34853092738801px"/></g><g style="clip-path:url(#clip-path-6)"><polyline points="100.53 196.51 169.17 168.59 237.67 149.04 306.18 132.18 374.69 123.82 443.32 104.27 511.83 84.72 580.34 95.91 648.84 115.46 717.48 132.18 785.99 146.21 854.49 179.65" style="fill:none;stroke:#ff25f3;stroke-linecap:round;stroke-linejoin:round;stroke-width:2.42735564250552px"/></g><g style="clip-path:url(#clip-path)"><polygon points="97.64 193.62 103.31 193.62 103.31 199.28 97.64 199.28 97.64 193.62 97.64 193.62" style="fill:#ff25f3;fill-rule:evenodd"/><polygon points="97.64 193.62 103.31 193.62 103.31 199.28 97.64 199.28 97.64 193.62 97.64 193.62" style="fill:none;stroke:#ffd3fd;stroke-linejoin:round;stroke-width:0.809118636811519px"/><polygon points="166.28 165.7 171.95 165.7 171.95 171.37 166.28 171.37 166.28 165.7 166.28 165.7" style="fill:#ff25f3;fill-rule:evenodd"/><polygon points="166.28 165.7 171.95 165.7 171.95 171.37 166.28 171.37 166.28 165.7 166.28 165.7" style="fill:none;stroke:#ffd3fd;stroke-linejoin:round;stroke-width:0.809118636811519px"/><polygon points="234.79 146.15 240.45 146.15 240.45 151.81 234.79 151.81 234.79 146.15 234.79 146.15" style="fill:#ff25f3;fill-rule:evenodd"/><polygon points="234.79 146.15 240.45 146.15 240.45 151.81 234.79 151.81 234.79 146.15 234.79 146.15" style="fill:none;stroke:#ffd3fd;stroke-linejoin:round;stroke-width:0.809118636811519px"/><polygon points="303.29 129.29 308.96 129.29 308.96 134.96 303.29 134.96 303.29 129.29 303.29 129.29" style="fill:#ff25f3;fill-rule:evenodd"/><polygon points="303.29 129.29 308.96 129.29 308.96 134.96 303.29 134.96 303.29 129.29 303.29 129.29" style="fill:none;stroke:#ffd3fd;stroke-linejoin:round;stroke-width:0.809118636811519px"/><polygon points="371.8 120.93 377.46 120.93 377.46 126.59 371.8 126.59 371.8 120.93 371.8 120.93" style="fill:#ff25f3;fill-rule:evenodd"/><polygon points="371.8 120.93 377.46 120.93 377.46 126.59 371.8 126.59 371.8 120.93 371.8 120.93" style="fill:none;stroke:#ffd3fd;stroke-linejoin:round;stroke-width:0.809118636811519px"/><polygon points="440.44 101.38 446.1 101.38 446.1 107.04 440.44 107.04 440.44 101.38 440.44 101.38" style="fill:#ff25f3;fill-rule:evenodd"/><polygon points="440.44 101.38 446.1 101.38 446.1 107.04 440.44 107.04 440.44 101.38 440.44 101.38" style="fill:none;stroke:#ffd3fd;stroke-linejoin:round;stroke-width:0.809118636811519px"/><polygon points="508.94 81.82 514.61 81.82 514.61 87.49 508.94 87.49 508.94 81.82 508.94 81.82" style="fill:#ff25f3;fill-rule:evenodd"/><polygon points="508.94 81.82 514.61 81.82 514.61 87.49 508.94 87.49 508.94 81.82 508.94 81.82" style="fill:none;stroke:#ffd3fd;stroke-linejoin:round;stroke-width:0.809118636811519px"/><polygon points="577.45 93.02 583.11 93.02 583.11 98.68 577.45 98.68 577.45 93.02 577.45 93.02" style="fill:#ff25f3;fill-rule:evenodd"/><polygon points="577.45 93.02 583.11 93.02 583.11 98.68 577.45 98.68 577.45 93.02 577.45 93.02" style="fill:none;stroke:#ffd3fd;stroke-linejoin:round;stroke-width:0.809118636811519px"/><polygon points="645.95 112.57 651.62 112.57 651.62 118.23 645.95 118.23 645.95 112.57 645.95 112.57" style="fill:#ff25f3;fill-rule:evenodd"/><polygon points="645.95 112.57 651.62 112.57 651.62 118.23 645.95 118.23 645.95 112.57 645.95 112.57" style="fill:none;stroke:#ffd3fd;stroke-linejoin:round;stroke-width:0.809118636811519px"/><polygon points="714.59 129.29 720.26 129.29 720.26 134.96 714.59 134.96 714.59 129.29 714.59 129.29" style="fill:#ff25f3;fill-rule:evenodd"/><polygon points="714.59 129.29 720.26 129.29 720.26 134.96 714.59 134.96 714.59 129.29 714.59 129.29" style="fill:none;stroke:#ffd3fd;stroke-linejoin:round;stroke-width:0.809118636811519px"/><polygon points="783.1 143.32 788.76 143.32 788.76 148.98 783.1 148.98 783.1 143.32 783.1 143.32" style="fill:#ff25f3;fill-rule:evenodd"/><polygon points="783.1 143.32 788.76 143.32 788.76 148.98 783.1 148.98 783.1 143.32 783.1 143.32" style="fill:none;stroke:#ffd3fd;stroke-linejoin:round;stroke-width:0.809118636811519px"/><polygon points="851.61 176.76 857.27 176.76 857.27 182.42 851.61 182.42 851.61 176.76 851.61 176.76" style="fill:#ff25f3;fill-rule:evenodd"/><polygon points="851.61 176.76 857.27 176.76 857.27 182.42 851.61 182.42 851.61 176.76 851.61 176.76" style="fill:none;stroke:#ffd3fd;stroke-linejoin:round;stroke-width:0.809118636811519px"/></g><g style="clip-path:url(#clip-path-6)"><polyline points="100.53 210.4 169.17 182.48 237.67 162.93 306.18 146.21 374.69 137.85 443.32 118.29 511.83 98.74 580.34 109.93 648.84 129.49 717.48 146.21 785.99 160.1 854.49 193.68" style="fill:none;stroke:#06f;stroke-linecap:round;stroke-linejoin:round;stroke-width:2.42735564250552px"/></g><g style="clip-path:url(#clip-path)"><path d="M103.31,210.34a2.84,2.84,0,1,1-2.84-2.83,2.84,2.84,0,0,1,2.84,2.83Z" style="fill:#06f"/><path d="M103.31,210.34a2.84,2.84,0,1,1-2.84-2.83,2.84,2.84,0,0,1,2.84,2.83Z" style="fill:none;stroke:#6b77e8;stroke-linejoin:round;stroke-width:0.809118636811519px"/><path d="M172,182.42a2.84,2.84,0,1,1-2.84-2.83,2.84,2.84,0,0,1,2.84,2.83Z" style="fill:#06f"/><path d="M172,182.42a2.84,2.84,0,1,1-2.84-2.83,2.84,2.84,0,0,1,2.84,2.83Z" style="fill:none;stroke:#6b77e8;stroke-linejoin:round;stroke-width:0.809118636811519px"/><path d="M240.45,162.87a2.83,2.83,0,1,1-2.83-2.83,2.83,2.83,0,0,1,2.83,2.83Z" style="fill:#06f"/><path d="M240.45,162.87a2.83,2.83,0,1,1-2.83-2.83,2.83,2.83,0,0,1,2.83,2.83Z" style="fill:none;stroke:#6b77e8;stroke-linejoin:round;stroke-width:0.809118636811519px"/><path d="M309,146.15a2.84,2.84,0,1,1-2.84-2.83,2.84,2.84,0,0,1,2.84,2.83Z" style="fill:#06f"/><path d="M309,146.15a2.84,2.84,0,1,1-2.84-2.83,2.84,2.84,0,0,1,2.84,2.83Z" style="fill:none;stroke:#6b77e8;stroke-linejoin:round;stroke-width:0.809118636811519px"/><path d="M377.46,137.79a2.83,2.83,0,1,1-2.83-2.84,2.83,2.83,0,0,1,2.83,2.84Z" style="fill:#06f"/><path d="M377.46,137.79a2.83,2.83,0,1,1-2.83-2.84,2.83,2.83,0,0,1,2.83,2.84Z" style="fill:none;stroke:#6b77e8;stroke-linejoin:round;stroke-width:0.809118636811519px"/><path d="M446.1,118.23a2.83,2.83,0,1,1-2.83-2.83,2.84,2.84,0,0,1,2.83,2.83Z" style="fill:#06f"/><path d="M446.1,118.23a2.83,2.83,0,1,1-2.83-2.83,2.84,2.84,0,0,1,2.83,2.83Z" style="fill:none;stroke:#6b77e8;stroke-linejoin:round;stroke-width:0.809118636811519px"/><path d="M514.61,98.68a2.84,2.84,0,1,1-2.83-2.83,2.83,2.83,0,0,1,2.83,2.83Z" style="fill:#06f"/><path d="M514.61,98.68a2.84,2.84,0,1,1-2.83-2.83,2.83,2.83,0,0,1,2.83,2.83Z" style="fill:none;stroke:#6b77e8;stroke-linejoin:round;stroke-width:0.809118636811519px"/><path d="M583.11,109.87a2.83,2.83,0,1,1-2.83-2.83,2.83,2.83,0,0,1,2.83,2.83Z" style="fill:#06f"/><path d="M583.11,109.87a2.83,2.83,0,1,1-2.83-2.83,2.83,2.83,0,0,1,2.83,2.83Z" style="fill:none;stroke:#6b77e8;stroke-linejoin:round;stroke-width:0.809118636811519px"/><path d="M651.62,129.43a2.84,2.84,0,1,1-2.83-2.84,2.83,2.83,0,0,1,2.83,2.84Z" style="fill:#06f"/><path d="M651.62,129.43a2.84,2.84,0,1,1-2.83-2.84,2.83,2.83,0,0,1,2.83,2.84Z" style="fill:none;stroke:#6b77e8;stroke-linejoin:round;stroke-width:0.809118636811519px"/><path d="M720.26,146.15a2.84,2.84,0,1,1-2.83-2.83,2.83,2.83,0,0,1,2.83,2.83Z" style="fill:#06f"/><path d="M720.26,146.15a2.84,2.84,0,1,1-2.83-2.83,2.83,2.83,0,0,1,2.83,2.83Z" style="fill:none;stroke:#6b77e8;stroke-linejoin:round;stroke-width:0.809118636811519px"/><path d="M788.76,160a2.83,2.83,0,1,1-2.83-2.83,2.83,2.83,0,0,1,2.83,2.83Z" style="fill:#06f"/><path d="M788.76,160a2.83,2.83,0,1,1-2.83-2.83,2.83,2.83,0,0,1,2.83,2.83Z" style="fill:none;stroke:#6b77e8;stroke-linejoin:round;stroke-width:0.809118636811519px"/><path d="M857.27,193.62a2.83,2.83,0,1,1-2.83-2.84,2.83,2.83,0,0,1,2.83,2.84Z" style="fill:#06f"/><path d="M857.27,193.62a2.83,2.83,0,1,1-2.83-2.84,2.83,2.83,0,0,1,2.83,2.84Z" style="fill:none;stroke:#6b77e8;stroke-linejoin:round;stroke-width:0.809118636811519px"/></g><g style="clip-path:url(#clip-path-10)"><text transform="translate(37.91 297.4)" style="font-size:10.113980293273926px;font-family:ArialMT, Arial"><tspan style="letter-spacing:0.002993226862438388em">0</tspan><tspan x="5.66" y="0" style="letter-spacing:0.002027669810038908em">.</tspan><tspan x="8.49" y="0" style="letter-spacing:-0.008979680587315164em">0</tspan><tspan x="14.02" y="0">0</tspan></text></g><g style="clip-path:url(#clip-path-10)"><text transform="translate(37.91 227.6)" style="font-size:10.113980293273926px;font-family:ArialMT, Arial"><tspan style="letter-spacing:0.002993226862438388em">0</tspan><tspan x="5.66" y="0" style="letter-spacing:0.002027669810038908em">.</tspan><tspan x="8.49" y="0" style="letter-spacing:-0.008979680587315164em">2</tspan><tspan x="14.02" y="0">5</tspan></text></g><g style="clip-path:url(#clip-path-10)"><text transform="translate(37.91 157.8)" style="font-size:10.113980293273926px;font-family:ArialMT, Arial"><tspan style="letter-spacing:0.002993226862438388em">0</tspan><tspan x="5.66" y="0" style="letter-spacing:0.002027669810038908em">.</tspan><tspan x="8.49" y="0" style="letter-spacing:-0.008979680587315164em">5</tspan><tspan x="14.02" y="0">0</tspan></text></g><g style="clip-path:url(#clip-path-10)"><text transform="translate(37.91 88)" style="font-size:10.113980293273926px;font-family:ArialMT, Arial"><tspan style="letter-spacing:0.002993226862438388em">0</tspan><tspan x="5.66" y="0" style="letter-spacing:0.002027669810038908em">.</tspan><tspan x="8.49" y="0" style="letter-spacing:-0.008979680587315164em">7</tspan><tspan x="14.02" y="0">5</tspan></text></g><g style="clip-path:url(#clip-path-10)"><text transform="translate(37.91 18.21)" style="font-size:10.113980293273926px;font-family:ArialMT, Arial"><tspan style="letter-spacing:0.002993226862438388em">1</tspan><tspan x="5.66" y="0" style="letter-spacing:0.002027669810038908em">.</tspan><tspan x="8.49" y="0" style="letter-spacing:-0.008979680587315164em">0</tspan><tspan x="14.02" y="0">0</tspan></text></g><g style="clip-path:url(#clip-path-10)"><text transform="translate(97.75 309.45)" style="font-size:10.113980293273926px;font-family:ArialMT, Arial">1</text></g><g style="clip-path:url(#clip-path-10)"><text transform="translate(166.29 309.45)" style="font-size:10.113980293273926px;font-family:ArialMT, Arial">2</text></g><g style="clip-path:url(#clip-path-10)"><text transform="translate(234.83 309.45)" style="font-size:10.113980293273926px;font-family:ArialMT, Arial">3</text></g><g style="clip-path:url(#clip-path-10)"><text transform="translate(303.38 309.45)" style="font-size:10.113980293273926px;font-family:ArialMT, Arial">4</text></g><g style="clip-path:url(#clip-path-10)"><text transform="translate(371.91 309.45)" style="font-size:10.113980293273926px;font-family:ArialMT, Arial">1</text></g><g style="clip-path:url(#clip-path-10)"><text transform="translate(440.45 309.45)" style="font-size:10.113980293273926px;font-family:ArialMT, Arial">2</text></g><g style="clip-path:url(#clip-path-10)"><text transform="translate(508.99 309.45)" style="font-size:10.113980293273926px;font-family:ArialMT, Arial">3</text></g><g style="clip-path:url(#clip-path-10)"><text transform="translate(577.53 309.45)" style="font-size:10.113980293273926px;font-family:ArialMT, Arial">4</text></g><g style="clip-path:url(#clip-path-10)"><text transform="translate(646.07 309.45)" style="font-size:10.113980293273926px;font-family:ArialMT, Arial">1</text></g><g style="clip-path:url(#clip-path-10)"><text transform="translate(714.61 309.45)" style="font-size:10.113980293273926px;font-family:ArialMT, Arial">2</text></g><g style="clip-path:url(#clip-path-10)"><text transform="translate(783.15 309.45)" style="font-size:10.113980293273926px;font-family:ArialMT, Arial">3</text></g><g style="clip-path:url(#clip-path-10)"><text transform="translate(851.68 309.45)" style="font-size:10.113980293273926px;font-family:ArialMT, Arial">4</text></g><g style="clip-path:url(#clip-path-10)"><text transform="translate(195.22 327.68)" style="font-size:10.113980293273926px;font-family:ArialMT, Arial"><tspan style="letter-spacing:0.005986453724876776em">J</tspan><tspan x="5.12" y="0" style="letter-spacing:-0.008979680587315164em">a</tspan><tspan x="10.65" y="0">n</tspan></text></g><g style="clip-path:url(#clip-path-10)"><text transform="translate(468.82 327.68)" style="font-size:10.113980293273926px;font-family:ArialMT, Arial"><tspan style="letter-spacing:0.002027669810038908em">F</tspan><tspan x="6.2" y="0" style="letter-spacing:0.002993226862438388em">e</tspan><tspan x="11.85" y="0">b</tspan></text></g><g style="clip-path:url(#clip-path-10)"><text transform="translate(742.98 327.68)" style="font-size:10.113980293273926px;font-family:ArialMT, Arial"><tspan style="letter-spacing:-0.005986453724876776em">M</tspan><tspan x="8.36" y="0" style="letter-spacing:0.002993226862438388em">a</tspan><tspan x="14.02" y="0">r</tspan></text></g><g style="clip-path:url(#clip-path-10)"><text transform="translate(20.13 199.22) rotate(-90)" style="font-size:11.19281005859375px;font-family:Arial-BoldMT, Arial;font-weight:700">ND<tspan x="16.17" y="0" style="letter-spacing:-0.004013458172240611em">V</tspan><tspan x="23.59" y="0">I</tspan><tspan x="26.7" y="0" style="letter-spacing:0.011080634519012122em"> </tspan><tspan x="29.93" y="0"> </tspan><tspan x="33.04" y="0" style="letter-spacing:-0.004013458172240611em">V</tspan><tspan x="40.46" y="0" style="letter-spacing:-0.0009597399977097113em">a</tspan><tspan x="46.67" y="0">l</tspan><tspan x="49.78" y="0" style="letter-spacing:0.0030537181745308997em">u</tspan><tspan x="56.65" y="0">e</tspan></text></g><g style="clip-path:url(#clip-path-10)"><text transform="translate(431.94 339.71)" style="font-size:11.19281005859375px;font-family:Arial-BoldMT, Arial;font-weight:700"><tspan style="letter-spacing:0.006979927256070628em">W</tspan><tspan x="10.64" y="0" style="letter-spacing:-0.0009597399977097113em">ee</tspan><tspan x="23.07" y="0">k</tspan></text></g><polygon points="-0.61 0.03 900.75 0.03 900.75 350.11 -0.61 350.11 -0.61 0.03 -0.61 0.03" style="fill:none;stroke:#d9d9d9;stroke-linejoin:round;stroke-width:0.809118636811519px"/></svg>