<svg id="Layer_1" data-name="Layer 1" xmlns="http://www.w3.org/2000/svg" xmlns:xlink="http://www.w3.org/1999/xlink" viewBox="0 0 900 350"><defs><clipPath id="clip-path"><polygon points="9.32 350.3 890.67 350.3 890.67 0.66 9.32 0.66 9.32 350.3 9.32 350.3" style="fill:none;clip-rule:evenodd"/></clipPath><clipPath id="clip-path-3"><polygon points="89.29 315.96 810.04 315.96 810.04 41.72 89.29 41.72 89.29 315.96 89.29 315.96" style="fill:none;clip-rule:evenodd"/></clipPath><clipPath id="clip-path-12"><rect x="9.32" y="0.66" width="881.35" height="349.64" style="fill:none"/></clipPath></defs><title>price-volatility</title><polygon points="9.32 0.66 890.67 0.66 890.67 350.3 9.32 350.3 9.32 0.66 9.32 0.66" style="fill:#f2f2f2;fill-rule:evenodd"/><polygon points="89.29 41.85 809.24 41.85 809.24 315.15 89.29 315.15 89.29 41.85 89.29 41.85" style="fill:#fff;fill-rule:evenodd"/><path d="M89.29,41.85v273.3m30.05-273.3v273.3m29.92-273.3v273.3m30.06-273.3v273.3m29.92-273.3v273.3m30-273.3v273.3m30-273.3v273.3m29.92-273.3v273.3m30.06-273.3v273.3m29.92-273.3v273.3m30.05-273.3v273.3m30-273.3v273.3m29.92-273.3v273.3m30.06-273.3v273.3m29.92-273.3v273.3m30-273.3v273.3m30.05-273.3v273.3m29.92-273.3v273.3m30.06-273.3v273.3m29.92-273.3v273.3m30-273.3v273.3m30.05-273.3v273.3m29.92-273.3v273.3m30.06-273.3v273.3m29.92-273.3v273.3" style="fill:none;stroke:#b7b7b7;stroke-linecap:round;stroke-linejoin:round;stroke-width:0.80500839836609px"/><g style="clip-path:url(#clip-path)"><path d="M89.29,256.39h720M89.29,197.62h720M89.29,138.86h720M89.29,80.09h720" style="fill:none;stroke:#d9d9d9;stroke-linejoin:round;stroke-width:0.80500839836609px"/></g><g style="clip-path:url(#clip-path)"><polygon points="89.29 41.85 809.24 41.85 809.24 315.15 89.29 315.15 89.29 41.85 89.29 41.85" style="fill:none;stroke:#fff;stroke-linejoin:round;stroke-width:0.80500839836609px"/></g><g style="clip-path:url(#clip-path-3)"><path d="M98.41,312.2h12.21v2.95H98.41V312.2Zm60-45.35h12.2v48.3h-12.2v-48.3Zm60.1-181.13H230.7V315.15H218.49V85.72Zm60,181.53h12.21v47.9H278.47v-47.9Zm60,40.12h12.21v7.78H338.44v-7.78Zm60-27.91h12.21v35.69H398.41V279.46Zm60,6.44h12.2v29.25h-12.2V285.9Zm60.1,15h12.08v14.22H518.49V300.93Zm60-3.35h12.21v17.57H578.47V297.58Zm60,10.46h12.21v7.11H638.44V308Zm60,2.42h12.21v4.69H698.41v-4.69Zm60,2.41h12.2v2.28h-12.2v-2.28Z" style="fill:#2935e8"/></g><g style="clip-path:url(#clip-path-3)"><polygon points="113.17 315.15 125.38 315.15 125.38 315.42 113.17 315.42 113.17 315.15 113.17 315.15" style="fill:#ff25f3;fill-rule:evenodd"/><polygon points="113.17 315.15 125.38 315.15 125.38 315.42 113.17 315.42 113.17 315.15 113.17 315.15" style="fill:none;stroke:#ff25f3;stroke-linejoin:round;stroke-width:0.80500839836609px"/><polygon points="173.14 314.35 185.35 314.35 185.35 315.15 173.14 315.15 173.14 314.35 173.14 314.35" style="fill:#ff25f3;fill-rule:evenodd"/><polygon points="173.14 314.35 185.35 314.35 185.35 315.15 173.14 315.15 173.14 314.35 173.14 314.35" style="fill:none;stroke:#ff25f3;stroke-linejoin:round;stroke-width:0.80500839836609px"/><polygon points="233.25 287.65 245.33 287.65 245.33 315.15 233.25 315.15 233.25 287.65 233.25 287.65" style="fill:#ff25f3;fill-rule:evenodd"/><polygon points="233.25 287.65 245.33 287.65 245.33 315.15 233.25 315.15 233.25 287.65 233.25 287.65" style="fill:none;stroke:#ff25f3;stroke-linejoin:round;stroke-width:0.80500839836609px"/><polygon points="293.23 296.9 305.43 296.9 305.43 315.15 293.23 315.15 293.23 296.9 293.23 296.9" style="fill:#ff25f3;fill-rule:evenodd"/><polygon points="293.23 296.9 305.43 296.9 305.43 315.15 293.23 315.15 293.23 296.9 293.23 296.9" style="fill:none;stroke:#ff25f3;stroke-linejoin:round;stroke-width:0.80500839836609px"/><polygon points="353.2 306.7 365.41 306.7 365.41 315.15 353.2 315.15 353.2 306.7 353.2 306.7" style="fill:#ff25f3;fill-rule:evenodd"/><polygon points="353.2 306.7 365.41 306.7 365.41 315.15 353.2 315.15 353.2 306.7 353.2 306.7" style="fill:none;stroke:#ff25f3;stroke-linejoin:round;stroke-width:0.80500839836609px"/><polygon points="413.17 308.71 425.38 308.71 425.38 315.15 413.17 315.15 413.17 308.71 413.17 308.71" style="fill:#ff25f3;fill-rule:evenodd"/><polygon points="413.17 308.71 425.38 308.71 425.38 315.15 413.17 315.15 413.17 308.71 413.17 308.71" style="fill:none;stroke:#ff25f3;stroke-linejoin:round;stroke-width:0.80500839836609px"/><polygon points="473.14 311.8 485.35 311.8 485.35 315.15 473.14 315.15 473.14 311.8 473.14 311.8" style="fill:#ff25f3;fill-rule:evenodd"/><polygon points="473.14 311.8 485.35 311.8 485.35 315.15 473.14 315.15 473.14 311.8 473.14 311.8" style="fill:none;stroke:#ff25f3;stroke-linejoin:round;stroke-width:0.80500839836609px"/><polygon points="533.25 308.71 545.33 308.71 545.33 315.15 533.25 315.15 533.25 308.71 533.25 308.71" style="fill:#ff25f3;fill-rule:evenodd"/><polygon points="533.25 308.71 545.33 308.71 545.33 315.15 533.25 315.15 533.25 308.71 533.25 308.71" style="fill:none;stroke:#ff25f3;stroke-linejoin:round;stroke-width:0.80500839836609px"/><polygon points="593.22 310.46 605.43 310.46 605.43 315.15 593.22 315.15 593.22 310.46 593.22 310.46" style="fill:#ff25f3;fill-rule:evenodd"/><polygon points="593.22 310.46 605.43 310.46 605.43 315.15 593.22 315.15 593.22 310.46 593.22 310.46" style="fill:none;stroke:#ff25f3;stroke-linejoin:round;stroke-width:0.80500839836609px"/><polygon points="653.2 313.94 665.41 313.94 665.41 315.15 653.2 315.15 653.2 313.94 653.2 313.94" style="fill:#ff25f3;fill-rule:evenodd"/><polygon points="653.2 313.94 665.41 313.94 665.41 315.15 653.2 315.15 653.2 313.94 653.2 313.94" style="fill:none;stroke:#ff25f3;stroke-linejoin:round;stroke-width:0.80500839836609px"/><polygon points="713.17 313.81 725.38 313.81 725.38 315.15 713.17 315.15 713.17 313.81 713.17 313.81" style="fill:#ff25f3;fill-rule:evenodd"/><polygon points="713.17 313.81 725.38 313.81 725.38 315.15 713.17 315.15 713.17 313.81 713.17 313.81" style="fill:none;stroke:#ff25f3;stroke-linejoin:round;stroke-width:0.80500839836609px"/><polygon points="773.14 315.15 785.35 315.15 785.35 315.29 773.14 315.29 773.14 315.15 773.14 315.15" style="fill:#ff25f3;fill-rule:evenodd"/><polygon points="773.14 315.15 785.35 315.15 785.35 315.29 773.14 315.29 773.14 315.15 773.14 315.15" style="fill:none;stroke:#ff25f3;stroke-linejoin:round;stroke-width:0.80500839836609px"/></g><g style="clip-path:url(#clip-path-3)"><polygon points="127.93 314.48 140.14 314.48 140.14 315.15 127.93 315.15 127.93 314.48 127.93 314.48" style="fill:#00c1a3;fill-rule:evenodd"/><polygon points="127.93 314.48 140.14 314.48 140.14 315.15 127.93 315.15 127.93 314.48 127.93 314.48" style="fill:none;stroke:#00c1a3;stroke-linejoin:round;stroke-width:0.80500839836609px"/><polygon points="187.9 311.13 200.11 311.13 200.11 315.15 187.9 315.15 187.9 311.13 187.9 311.13" style="fill:#00c1a3;fill-rule:evenodd"/><polygon points="187.9 311.13 200.11 311.13 200.11 315.15 187.9 315.15 187.9 311.13 187.9 311.13" style="fill:none;stroke:#00c1a3;stroke-linejoin:round;stroke-width:0.80500839836609px"/><polygon points="248.01 296.37 260.08 296.37 260.08 315.15 248.01 315.15 248.01 296.37 248.01 296.37" style="fill:#00c1a3;fill-rule:evenodd"/><polygon points="248.01 296.37 260.08 296.37 260.08 315.15 248.01 315.15 248.01 296.37 248.01 296.37" style="fill:none;stroke:#00c1a3;stroke-linejoin:round;stroke-width:0.80500839836609px"/><polygon points="307.98 310.59 320.19 310.59 320.19 315.15 307.98 315.15 307.98 310.59 307.98 310.59" style="fill:#00c1a3;fill-rule:evenodd"/><polygon points="307.98 310.59 320.19 310.59 320.19 315.15 307.98 315.15 307.98 310.59 307.98 310.59" style="fill:none;stroke:#00c1a3;stroke-linejoin:round;stroke-width:0.80500839836609px"/><polygon points="367.96 315.15 380.17 315.15 380.17 315.42 367.96 315.42 367.96 315.15 367.96 315.15" style="fill:#00c1a3;fill-rule:evenodd"/><polygon points="367.96 315.15 380.17 315.15 380.17 315.42 367.96 315.42 367.96 315.15 367.96 315.15" style="fill:none;stroke:#00c1a3;stroke-linejoin:round;stroke-width:0.80500839836609px"/><polygon points="427.93 313.94 440.14 313.94 440.14 315.15 427.93 315.15 427.93 313.94 427.93 313.94" style="fill:#00c1a3;fill-rule:evenodd"/><polygon points="427.93 313.94 440.14 313.94 440.14 315.15 427.93 315.15 427.93 313.94 427.93 313.94" style="fill:none;stroke:#00c1a3;stroke-linejoin:round;stroke-width:0.80500839836609px"/><polygon points="487.9 314.48 500.11 314.48 500.11 315.15 487.9 315.15 487.9 314.48 487.9 314.48" style="fill:#00c1a3;fill-rule:evenodd"/><polygon points="487.9 314.48 500.11 314.48 500.11 315.15 487.9 315.15 487.9 314.48 487.9 314.48" style="fill:none;stroke:#00c1a3;stroke-linejoin:round;stroke-width:0.80500839836609px"/><polygon points="548.01 315.15 560.09 315.15 560.09 315.56 548.01 315.56 548.01 315.15 548.01 315.15" style="fill:#00c1a3;fill-rule:evenodd"/><polygon points="548.01 315.15 560.09 315.15 560.09 315.56 548.01 315.56 548.01 315.15 548.01 315.15" style="fill:none;stroke:#00c1a3;stroke-linejoin:round;stroke-width:0.80500839836609px"/><polygon points="607.98 315.15 620.19 315.15 620.19 315.42 607.98 315.42 607.98 315.15 607.98 315.15" style="fill:#00c1a3;fill-rule:evenodd"/><polygon points="607.98 315.15 620.19 315.15 620.19 315.42 607.98 315.42 607.98 315.15 607.98 315.15" style="fill:none;stroke:#00c1a3;stroke-linejoin:round;stroke-width:0.80500839836609px"/><polygon points="667.96 315.15 680.16 315.15 680.16 315.42 667.96 315.42 667.96 315.15 667.96 315.15" style="fill:#00c1a3;fill-rule:evenodd"/><polygon points="667.96 315.15 680.16 315.15 680.16 315.42 667.96 315.42 667.96 315.15 667.96 315.15" style="fill:none;stroke:#00c1a3;stroke-linejoin:round;stroke-width:0.80500839836609px"/><polygon points="727.93 315.15 740.14 315.15 740.14 315.56 727.93 315.56 727.93 315.15 727.93 315.15" style="fill:#00c1a3;fill-rule:evenodd"/><polygon points="727.93 315.15 740.14 315.15 740.14 315.56 727.93 315.56 727.93 315.15 727.93 315.15" style="fill:none;stroke:#00c1a3;stroke-linejoin:round;stroke-width:0.80500839836609px"/><polygon points="787.9 315.15 800.11 315.15 800.11 315.29 787.9 315.29 787.9 315.15 787.9 315.15" style="fill:#00c1a3;fill-rule:evenodd"/><polygon points="787.9 315.15 800.11 315.15 800.11 315.29 787.9 315.29 787.9 315.15 787.9 315.15" style="fill:none;stroke:#00c1a3;stroke-linejoin:round;stroke-width:0.80500839836609px"/></g><g style="clip-path:url(#clip-path)"><line x1="89.29" y1="315.15" x2="89.29" y2="41.85" style="fill:none;stroke:#868686;stroke-linejoin:round;stroke-width:0.80500839836609px"/></g><g style="clip-path:url(#clip-path)"><path d="M86.61,315.15h2.68m-2.68-57.56h2.68M86.61,200h2.68m-2.68-57.56h2.68M86.61,85.05h2.68" style="fill:none;stroke:#868686;stroke-linejoin:round;stroke-width:0.80500839836609px"/></g><g style="clip-path:url(#clip-path)"><line x1="89.29" y1="315.15" x2="809.24" y2="315.15" style="fill:none;stroke:#868686;stroke-linejoin:round;stroke-width:0.80500839836609px"/></g><g style="clip-path:url(#clip-path-3)"><polyline points="119.34 174.81 179.32 180.98 239.29 184.2 299.26 169.31 359.24 154.96 419.34 157.1 479.32 145.56 539.29 133.22 599.26 116.58 659.24 121.95 719.34 117.66 779.32 126.51" style="fill:none;stroke:#2935e8;stroke-linecap:round;stroke-linejoin:round;stroke-width:2.41502512845627px"/></g><g style="clip-path:url(#clip-path-3)"><polyline points="119.34 163.27 179.32 175.89 239.29 183.94 299.26 150.8 359.24 132.68 419.34 141.41 479.32 133.76 539.29 120.47 599.26 98.2 659.24 102.63 719.34 107.06 779.32 118.73" style="fill:none;stroke:#ff25f3;stroke-linecap:round;stroke-linejoin:round;stroke-width:2.41502512845627px"/></g><g style="clip-path:url(#clip-path-3)"><polyline points="119.34 173.47 179.32 180.72 239.29 188.9 299.26 165.82 359.24 144.36 419.34 151.33 479.32 152 539.29 138.72 599.26 129.19 659.24 119.8 719.34 115.11 779.32 122.49" style="fill:none;stroke:#00c1a3;stroke-linecap:round;stroke-linejoin:round;stroke-width:2.41502512845627px"/></g><g style="clip-path:url(#clip-path-12)"><text transform="translate(54.24 318)" style="font-size:8.989259719848633px;font-family:ArialMT, Arial;letter-spacing:0.004997283024408647em"> <tspan x="2.54" y="0" style="letter-spacing:-0.0029331878621529014em">5</tspan><tspan x="7.51" y="0" style="letter-spacing:-0.008908200173945849em">,</tspan><tspan x="9.93" y="0" style="letter-spacing:-0.0029331878621529014em">00</tspan><tspan x="19.88" y="0" style="letter-spacing:0.0001086365874871445em">0</tspan></text></g><g style="clip-path:url(#clip-path-12)"><text transform="translate(49.27 260.44)" style="font-size:8.989259719848633px;font-family:ArialMT, Arial"><tspan style="letter-spacing:0.004997283024408647em"> </tspan><tspan x="2.54" y="0" style="letter-spacing:-0.0029331878621529014em">25</tspan><tspan x="12.49" y="0" style="letter-spacing:-0.008908200173945849em">,</tspan><tspan x="14.9" y="0" style="letter-spacing:-0.0030418244496400464em">00</tspan><tspan x="24.85" y="0">0</tspan></text></g><g style="clip-path:url(#clip-path-12)"><text transform="translate(49.27 202.89)" style="font-size:8.989259719848633px;font-family:ArialMT, Arial"><tspan style="letter-spacing:0.004997283024408647em"> </tspan><tspan x="2.54" y="0" style="letter-spacing:-0.0029331878621529014em">45</tspan><tspan x="12.49" y="0" style="letter-spacing:-0.008908200173945849em">,</tspan><tspan x="14.9" y="0" style="letter-spacing:-0.0030418244496400464em">00</tspan><tspan x="24.85" y="0">0</tspan></text></g><g style="clip-path:url(#clip-path-12)"><text transform="translate(49.27 145.34)" style="font-size:8.989259719848633px;font-family:ArialMT, Arial"><tspan style="letter-spacing:0.004997283024408647em"> </tspan><tspan x="2.54" y="0" style="letter-spacing:-0.0029331878621529014em">65</tspan><tspan x="12.49" y="0" style="letter-spacing:-0.008908200173945849em">,</tspan><tspan x="14.9" y="0" style="letter-spacing:-0.0030418244496400464em">00</tspan><tspan x="24.85" y="0">0</tspan></text></g><g style="clip-path:url(#clip-path-12)"><text transform="translate(49.27 87.79)" style="font-size:8.989259719848633px;font-family:ArialMT, Arial"><tspan style="letter-spacing:0.004997283024408647em"> </tspan><tspan x="2.54" y="0" style="letter-spacing:-0.0029331878621529014em">85</tspan><tspan x="12.49" y="0" style="letter-spacing:-0.008908200173945849em">,</tspan><tspan x="14.9" y="0" style="letter-spacing:-0.0030418244496400464em">00</tspan><tspan x="24.85" y="0">0</tspan></text></g><g style="clip-path:url(#clip-path-12)"><text transform="translate(111.19 330.4)" style="font-size:10.062600135803223px;font-family:ArialMT, Arial;letter-spacing:0.006017020867655395em">J<tspan x="5.09" y="0" style="letter-spacing:-0.009025531301483092em">a</tspan><tspan x="10.6" y="0" style="letter-spacing:-0.0000970487236718612em">n</tspan></text></g><g style="clip-path:url(#clip-path-12)"><text transform="translate(170.63 330.4)" style="font-size:10.062600135803223px;font-family:ArialMT, Arial"><tspan style="letter-spacing:0.0020380231971090855em">F</tspan><tspan x="6.17" y="0" style="letter-spacing:0.0029114617101558367em">e</tspan><tspan x="11.79" y="0">b</tspan></text></g><g style="clip-path:url(#clip-path-12)"><text transform="translate(230.63 330.4)" style="font-size:10.062600135803223px;font-family:ArialMT, Arial"><tspan style="letter-spacing:-0.005919972143983533em">M</tspan><tspan x="8.32" y="0" style="letter-spacing:0.0029114617101558367em">a</tspan><tspan x="13.95" y="0">r</tspan></text></g><g style="clip-path:url(#clip-path-12)"><text transform="translate(291.47 330.4)" style="font-size:10.062600135803223px;font-family:ArialMT, Arial">A<tspan x="6.71" y="0" style="letter-spacing:0.0029114617101558367em">p</tspan><tspan x="12.34" y="0" style="letter-spacing:0.0000970487236718612em">r</tspan></text></g><g style="clip-path:url(#clip-path-12)"><text transform="translate(349.78 330.4)" style="font-size:10.062600135803223px;font-family:ArialMT, Arial"><tspan style="letter-spacing:-0.005919972143983533em">M</tspan><tspan x="8.32" y="0" style="letter-spacing:0.0029114617101558367em">a</tspan><tspan x="13.95" y="0">y</tspan></text></g><g style="clip-path:url(#clip-path-12)"><text transform="translate(411.17 330.4)" style="font-size:10.062600135803223px;font-family:ArialMT, Arial;letter-spacing:0.006017020867655395em">J<tspan x="5.09" y="0" style="letter-spacing:-0.009025531301483092em">u</tspan><tspan x="10.6" y="0" style="letter-spacing:-0.0000970487236718612em">n</tspan></text></g><g style="clip-path:url(#clip-path-12)"><text transform="translate(472.86 330.4)" style="font-size:10.062600135803223px;font-family:ArialMT, Arial"><tspan style="letter-spacing:0.006017020867655395em">J</tspan><tspan x="5.09" y="0" style="letter-spacing:-0.009025531301483092em">u</tspan><tspan x="10.6" y="0">l</tspan></text></g><g style="clip-path:url(#clip-path-12)"><text transform="translate(530.33 330.4)" style="font-size:10.062600135803223px;font-family:ArialMT, Arial">A<tspan x="6.71" y="0" style="letter-spacing:0.0029114617101558367em">u</tspan><tspan x="12.34" y="0">g</tspan></text></g><g style="clip-path:url(#clip-path-12)"><text transform="translate(590.32 330.4)" style="font-size:10.062600135803223px;font-family:ArialMT, Arial">S<tspan x="6.71" y="0" style="letter-spacing:0.0029114617101558367em">e</tspan><tspan x="12.34" y="0">p</tspan></text></g><g style="clip-path:url(#clip-path-12)"><text transform="translate(651.46 330.4)" style="font-size:10.062600135803223px;font-family:ArialMT, Arial;letter-spacing:-0.003978997670546309em">O<tspan x="7.79" y="0" style="letter-spacing:0.006017020867655395em">c</tspan><tspan x="12.88" y="0" style="letter-spacing:-0.0000970487236718612em">t</tspan></text></g><g style="clip-path:url(#clip-path-12)"><text transform="translate(710.33 330.4)" style="font-size:10.062600135803223px;font-family:ArialMT, Arial"><tspan style="letter-spacing:-0.0019409744734372241em">N</tspan><tspan x="7.25" y="0" style="letter-spacing:0.0029114617101558367em">o</tspan><tspan x="12.87" y="0">v</tspan></text></g><g style="clip-path:url(#clip-path-12)"><text transform="translate(770.33 330.4)" style="font-size:10.062600135803223px;font-family:ArialMT, Arial"><tspan style="letter-spacing:-0.0019409744734372241em">D</tspan><tspan x="7.25" y="0" style="letter-spacing:0.0029114617101558367em">e</tspan><tspan x="12.87" y="0">c</tspan></text></g><g style="clip-path:url(#clip-path-12)"><text transform="translate(816.98 318)" style="font-size:8.989259719848633px;font-family:ArialMT, Arial;letter-spacing:0.004997283024408647em"> <tspan x="2.54" y="0" style="letter-spacing:-0.0029331878621529014em">1</tspan><tspan x="7.51" y="0" style="letter-spacing:-0.008908200173945849em">,</tspan><tspan x="9.93" y="0" style="letter-spacing:-0.0029331878621529014em">00</tspan><tspan x="19.88" y="0" style="letter-spacing:0.0001086365874871445em">0</tspan></text></g><g style="clip-path:url(#clip-path-12)"><text transform="translate(816.98 259.21)" style="font-size:8.989259719848633px;font-family:ArialMT, Arial"><tspan style="letter-spacing:0.004997283024408647em"> </tspan><tspan x="2.54" y="0" style="letter-spacing:-0.0029331878621529014em">61</tspan><tspan x="12.49" y="0" style="letter-spacing:-0.008908200173945849em">,</tspan><tspan x="14.9" y="0" style="letter-spacing:-0.0030418244496400464em">00</tspan><tspan x="24.85" y="0">0</tspan></text></g><g style="clip-path:url(#clip-path-12)"><text transform="translate(816.98 200.41)" style="font-size:8.989259719848633px;font-family:ArialMT, Arial;letter-spacing:0.004997283024408647em"> <tspan x="2.54" y="0" style="letter-spacing:-0.0029331878621529014em">1</tspan><tspan x="7.51" y="0" style="letter-spacing:-0.008908200173945849em">,</tspan><tspan x="9.93" y="0" style="letter-spacing:-0.0029331878621529014em">21</tspan><tspan x="19.88" y="0" style="letter-spacing:0.005105919611895791em">,</tspan><tspan x="22.42" y="0" style="letter-spacing:-0.0029331878621529014em">00</tspan><tspan x="32.36" y="0" style="letter-spacing:0.0001086365874871445em">0</tspan></text></g><g style="clip-path:url(#clip-path-12)"><text transform="translate(816.98 141.62)" style="font-size:8.989259719848633px;font-family:ArialMT, Arial;letter-spacing:0.004997283024408647em"> <tspan x="2.54" y="0" style="letter-spacing:-0.0029331878621529014em">1</tspan><tspan x="7.51" y="0" style="letter-spacing:-0.008908200173945849em">,</tspan><tspan x="9.93" y="0" style="letter-spacing:-0.0029331878621529014em">81</tspan><tspan x="19.88" y="0" style="letter-spacing:0.005105919611895791em">,</tspan><tspan x="22.42" y="0" style="letter-spacing:-0.0029331878621529014em">00</tspan><tspan x="32.36" y="0" style="letter-spacing:0.0001086365874871445em">0</tspan></text></g><g style="clip-path:url(#clip-path-12)"><text transform="translate(816.98 82.84)" style="font-size:8.989259719848633px;font-family:ArialMT, Arial;letter-spacing:0.004997283024408647em"> <tspan x="2.54" y="0" style="letter-spacing:-0.0029331878621529014em">2</tspan><tspan x="7.51" y="0" style="letter-spacing:-0.008908200173945849em">,</tspan><tspan x="9.93" y="0" style="letter-spacing:-0.0029331878621529014em">41</tspan><tspan x="19.88" y="0" style="letter-spacing:0.005105919611895791em">,</tspan><tspan x="22.42" y="0" style="letter-spacing:-0.0029331878621529014em">00</tspan><tspan x="32.36" y="0" style="letter-spacing:0.0001086365874871445em">0</tspan></text></g><g style="clip-path:url(#clip-path-12)"><text transform="translate(433.66 346.39)" style="font-size:10.062600135803223px;font-family:Arial-BoldMT, Arial;font-weight:700"><tspan style="letter-spacing:0.006017020867655395em">M</tspan><tspan x="8.44" y="0" style="letter-spacing:0.0020380231971090855em">on</tspan><tspan x="20.78" y="0">t</tspan><tspan x="24.13" y="0" style="letter-spacing:0.0020380231971090855em">h</tspan><tspan x="30.29" y="0"> </tspan></text></g><g style="clip-path:url(#clip-path-12)"><text transform="translate(31.79 219.97) rotate(-90)" style="font-size:8.989259719848633px;font-family:Arial-BoldMT, Arial;font-weight:700"><tspan style="letter-spacing:0.01694730764799454em">M</tspan><tspan x="7.64" y="0" style="letter-spacing:-0.0029331878621529014em">a</tspan><tspan x="12.61" y="0" style="letter-spacing:-0.0009777292873843005em">r</tspan><tspan x="16.1" y="0" style="letter-spacing:-0.0029331878621529014em">ke</tspan><tspan x="26.05" y="0" style="letter-spacing:-0.004019553737024346em">t</tspan><tspan x="29" y="0" style="letter-spacing:-0.02390004924717179em"> </tspan><tspan x="31.29" y="0" style="letter-spacing:0.003910917149537202em">P</tspan><tspan x="37.32" y="0" style="letter-spacing:-0.0009777292873843005em">r</tspan><tspan x="40.81" y="0" style="letter-spacing:0.005105919611895791em">i</tspan><tspan x="43.35" y="0" style="letter-spacing:-0.0030418244496400464em">ce</tspan><tspan x="53.29" y="0" style="letter-spacing:-0.008908200173945849em"> </tspan><tspan x="55.71" y="0" style="letter-spacing:-0.004019553737024346em">(</tspan><tspan x="58.67" y="0" style="letter-spacing:-0.004997283024408647em">R</tspan><tspan x="65.12" y="0" style="letter-spacing:-0.0030418244496400464em">s</tspan><tspan x="70.09" y="0" style="letter-spacing:0.005105919611895791em">./</tspan><tspan x="75.17" y="0" style="letter-spacing:0.017055944235481686em">M</tspan><tspan x="82.81" y="0" style="letter-spacing:-0.01303639049845734em">T</tspan><tspan x="88.19" y="0">)</tspan></text></g><g style="clip-path:url(#clip-path-12)"><text transform="translate(875.8 206.16) rotate(-90)" style="font-size:8.989259719848633px;font-family:Arial-BoldMT, Arial;font-weight:700"><tspan style="letter-spacing:0.01694730764799454em">M</tspan><tspan x="7.64" y="0" style="letter-spacing:-0.0029331878621529014em">a</tspan><tspan x="12.61" y="0" style="letter-spacing:-0.0009777292873843005em">r</tspan><tspan x="16.1" y="0" style="letter-spacing:-0.0029331878621529014em">ke</tspan><tspan x="26.05" y="0" style="letter-spacing:-0.004019553737024346em">t</tspan><tspan x="29" y="0" style="letter-spacing:-0.02390004924717179em"> </tspan><tspan x="31.29" y="0" style="letter-spacing:-0.050081466831573614em">A</tspan><tspan x="37.33" y="0" style="letter-spacing:-0.0009777292873843005em">rr</tspan><tspan x="44.31" y="0" style="letter-spacing:0.004997283024408647em">i</tspan><tspan x="46.85" y="0" style="letter-spacing:-0.0029331878621529014em">va</tspan><tspan x="56.79" y="0" style="letter-spacing:0.004997283024408647em">l</tspan><tspan x="59.34" y="0" style="letter-spacing:0.03508961775834767em"> </tspan><tspan x="62.15" y="0" style="letter-spacing:-0.003910917149537202em">(</tspan><tspan x="65.11" y="0" style="letter-spacing:0.01694730764799454em">M</tspan><tspan x="72.75" y="0" style="letter-spacing:-0.01303639049845734em">T</tspan><tspan x="78.12" y="0">)</tspan></text></g><g style="clip-path:url(#clip-path)"><polygon points="93.18 19.71 114.65 19.71 114.65 24.81 93.18 24.81 93.18 19.71 93.18 19.71" style="fill:#2935e8;fill-rule:evenodd"/></g><g style="clip-path:url(#clip-path-12)"><text transform="translate(116.91 25.43)" style="font-size:10.062600135803223px;font-family:ArialMT, Arial"><tspan style="letter-spacing:-0.003978997670546309em">G</tspan><tspan x="7.79" y="0" style="letter-spacing:0.010966505774920317em">U</tspan><tspan x="15.16" y="0" style="letter-spacing:-0.005919972143983533em">J</tspan><tspan x="20.14" y="0" style="letter-spacing:0.0019409744734372241em"> </tspan><tspan x="22.95" y="0">(</tspan><tspan x="26.3" y="0" style="letter-spacing:-0.0019409744734372241em">R</tspan><tspan x="33.55" y="0">-</tspan><tspan x="36.9" y="0" style="letter-spacing:0.0030085104338276976em">2</tspan><tspan x="42.53" y="0" style="letter-spacing:-0.011063554498592178em">,</tspan><tspan x="45.21" y="0" style="letter-spacing:0.0020380231971090855em"> </tspan><tspan x="48.03" y="0" style="letter-spacing:-0.0020380231971090855em">R</tspan><tspan x="55.27" y="0" style="letter-spacing:0.0000970487236718612em">-</tspan><tspan x="58.63" y="0" style="letter-spacing:0.0029114617101558367em">6</tspan><tspan x="64.25" y="0" style="letter-spacing:0.0000970487236718612em">)</tspan><tspan x="67.6" y="0" style="letter-spacing:0.0019409744734372241em"> </tspan><tspan x="70.42" y="0">Arr</tspan><tspan x="83.83" y="0" style="letter-spacing:0.004076046394218171em">i</tspan><tspan x="86.11" y="0" style="letter-spacing:-0.006017020867655395em">v</tspan><tspan x="91.08" y="0" style="letter-spacing:0.0030085104338276976em">a</tspan><tspan x="96.71" y="0">l</tspan></text></g><g style="clip-path:url(#clip-path)"><polygon points="230.17 19.71 251.63 19.71 251.63 24.81 230.17 24.81 230.17 19.71 230.17 19.71" style="fill:#ff25f3;fill-rule:evenodd"/><polygon points="230.17 19.71 251.63 19.71 251.63 24.81 230.17 24.81 230.17 19.71 230.17 19.71" style="fill:none;stroke:#ff25f3;stroke-linejoin:round;stroke-width:0.80500839836609px"/></g><g style="clip-path:url(#clip-path-12)"><text transform="translate(253.91 25.43)" style="font-size:10.062600135803223px;font-family:ArialMT, Arial"><tspan style="letter-spacing:-0.005919972143983533em">M</tspan><tspan x="8.32" y="0" style="letter-spacing:0.01290748024835754em">P</tspan><tspan x="15.16" y="0" style="letter-spacing:-0.010966505774920317em"> </tspan><tspan x="17.85" y="0">(</tspan><tspan x="21.2" y="0" style="letter-spacing:-0.0019409744734372241em">R</tspan><tspan x="28.45" y="0">-</tspan><tspan x="31.8" y="0" style="letter-spacing:0.0030085104338276976em">11</tspan><tspan x="43.05" y="0" style="letter-spacing:0.0000970487236718612em">)</tspan><tspan x="46.4" y="0" style="letter-spacing:0.0019409744734372241em"> </tspan><tspan x="49.22" y="0">Arr</tspan><tspan x="62.63" y="0" style="letter-spacing:-0.007957995341092618em">i</tspan><tspan x="64.79" y="0" style="letter-spacing:0.006017020867655395em">v</tspan><tspan x="69.88" y="0" style="letter-spacing:-0.009025531301483092em">a</tspan><tspan x="75.38" y="0">l</tspan></text></g><g style="clip-path:url(#clip-path)"><polygon points="345.95 19.71 367.42 19.71 367.42 24.81 345.95 24.81 345.95 19.71 345.95 19.71" style="fill:#00c1a3;fill-rule:evenodd"/><polygon points="345.95 19.71 367.42 19.71 367.42 24.81 345.95 24.81 345.95 19.71 345.95 19.71" style="fill:none;stroke:#00c1a3;stroke-linejoin:round;stroke-width:0.80500839836609px"/></g><g style="clip-path:url(#clip-path-12)"><text transform="translate(369.68 25.43)" style="font-size:10.062600135803223px;font-family:ArialMT, Arial"><tspan style="letter-spacing:-0.0019409744734372241em">U</tspan><tspan x="7.25" y="0" style="letter-spacing:-0.0000970487236718612em">P</tspan><tspan x="13.96" y="0" style="letter-spacing:0.0020380231971090855em"> </tspan><tspan x="16.77" y="0">(</tspan><tspan x="20.13" y="0" style="letter-spacing:-0.0019409744734372241em">R</tspan><tspan x="27.37" y="0">-</tspan><tspan x="30.72" y="0" style="letter-spacing:0.0030085104338276976em">4</tspan><tspan x="36.35" y="0" style="letter-spacing:0.0019409744734372241em">, </tspan><tspan x="41.98" y="0" style="letter-spacing:-0.0020380231971090855em">R</tspan><tspan x="49.23" y="0" style="letter-spacing:0.0000970487236718612em">-</tspan><tspan x="52.58" y="0" style="letter-spacing:-0.009025531301483092em">5</tspan><tspan x="58.08" y="0">)</tspan><tspan x="61.44" y="0" style="letter-spacing:0.0019409744734372241em"> </tspan><tspan x="64.25" y="0">Arr</tspan><tspan x="77.67" y="0" style="letter-spacing:0.003978997670546309em">i</tspan><tspan x="79.94" y="0" style="letter-spacing:-0.006017020867655395em">v</tspan><tspan x="84.91" y="0" style="letter-spacing:0.0030085104338276976em">a</tspan><tspan x="90.54" y="0">l</tspan></text></g><g style="clip-path:url(#clip-path)"><line x1="476.77" y1="22.26" x2="498.23" y2="22.26" style="fill:none;stroke:#2935e8;stroke-linecap:round;stroke-linejoin:round;stroke-width:2.41502512845627px"/></g><g style="clip-path:url(#clip-path-12)"><text transform="translate(500.55 25.43)" style="font-size:10.062600135803223px;font-family:ArialMT, Arial"><tspan style="letter-spacing:-0.003978997670546309em">G</tspan><tspan x="7.79" y="0" style="letter-spacing:0.010966505774920317em">U</tspan><tspan x="15.16" y="0" style="letter-spacing:-0.005919972143983533em">J</tspan><tspan x="20.14" y="0" style="letter-spacing:0.0019409744734372241em"> </tspan><tspan x="22.95" y="0">(</tspan><tspan x="26.3" y="0" style="letter-spacing:-0.0019409744734372241em">R</tspan><tspan x="33.55" y="0">-</tspan><tspan x="36.9" y="0" style="letter-spacing:0.0030085104338276976em">2</tspan><tspan x="42.53" y="0" style="letter-spacing:-0.011063554498592178em">,</tspan><tspan x="45.21" y="0" style="letter-spacing:0.0020380231971090855em"> </tspan><tspan x="48.03" y="0" style="letter-spacing:-0.0020380231971090855em">R</tspan><tspan x="55.27" y="0" style="letter-spacing:0.0000970487236718612em">-</tspan><tspan x="58.63" y="0" style="letter-spacing:0.0029114617101558367em">6</tspan><tspan x="64.25" y="0" style="letter-spacing:0.0000970487236718612em">)</tspan><tspan x="67.6" y="0" style="letter-spacing:0.0019409744734372241em"> </tspan><tspan x="70.42" y="0">Pr</tspan><tspan x="80.48" y="0" style="letter-spacing:0.004076046394218171em">i</tspan><tspan x="82.76" y="0" style="letter-spacing:-0.006017020867655395em">c</tspan><tspan x="87.73" y="0" style="letter-spacing:-0.0000970487236718612em">e</tspan></text></g><g style="clip-path:url(#clip-path)"><line x1="608.25" y1="22.26" x2="629.72" y2="22.26" style="fill:none;stroke:#ff25f3;stroke-linecap:round;stroke-linejoin:round;stroke-width:2.41502512845627px"/></g><g style="clip-path:url(#clip-path-12)"><text transform="translate(631.97 25.43)" style="font-size:10.062600135803223px;font-family:ArialMT, Arial"><tspan style="letter-spacing:-0.005919972143983533em">M</tspan><tspan x="8.32" y="0" style="letter-spacing:0.01290748024835754em">P</tspan><tspan x="15.16" y="0" style="letter-spacing:-0.010966505774920317em"> </tspan><tspan x="17.85" y="0">(</tspan><tspan x="21.2" y="0" style="letter-spacing:-0.0019409744734372241em">R</tspan><tspan x="28.45" y="0">-</tspan><tspan x="31.8" y="0" style="letter-spacing:0.0030085104338276976em">11</tspan><tspan x="43.05" y="0" style="letter-spacing:0.0000970487236718612em">)</tspan><tspan x="46.4" y="0" style="letter-spacing:0.0019409744734372241em"> </tspan><tspan x="49.22" y="0">Pr</tspan><tspan x="59.28" y="0" style="letter-spacing:-0.007957995341092618em">i</tspan><tspan x="61.44" y="0" style="letter-spacing:0.006017020867655395em">c</tspan><tspan x="66.53" y="0" style="letter-spacing:-0.0000970487236718612em">e</tspan></text></g><g style="clip-path:url(#clip-path)"><line x1="718.4" y1="22.26" x2="739.87" y2="22.26" style="fill:none;stroke:#00c1a3;stroke-linecap:round;stroke-linejoin:round;stroke-width:2.41502512845627px"/></g><g style="clip-path:url(#clip-path-12)"><text transform="translate(742.15 25.43)" style="font-size:10.062600135803223px;font-family:ArialMT, Arial"><tspan style="letter-spacing:-0.0019409744734372241em">U</tspan><tspan x="7.25" y="0" style="letter-spacing:-0.0000970487236718612em">P</tspan><tspan x="13.96" y="0" style="letter-spacing:0.0020380231971090855em"> </tspan><tspan x="16.77" y="0">(</tspan><tspan x="20.13" y="0" style="letter-spacing:-0.0019409744734372241em">R</tspan><tspan x="27.37" y="0">-</tspan><tspan x="30.72" y="0" style="letter-spacing:0.0030085104338276976em">4</tspan><tspan x="36.35" y="0" style="letter-spacing:0.0019409744734372241em">, </tspan><tspan x="41.98" y="0" style="letter-spacing:-0.0020380231971090855em">R</tspan><tspan x="49.23" y="0" style="letter-spacing:0.0000970487236718612em">-</tspan><tspan x="52.58" y="0" style="letter-spacing:-0.009025531301483092em">5</tspan><tspan x="58.08" y="0">)</tspan><tspan x="61.44" y="0" style="letter-spacing:0.0019409744734372241em"> </tspan><tspan x="64.25" y="0">Pr</tspan><tspan x="74.31" y="0" style="letter-spacing:0.004076046394218171em">i</tspan><tspan x="76.59" y="0" style="letter-spacing:-0.006017020867655395em">c</tspan><tspan x="81.56" y="0">e</tspan></text></g><polygon points="9.32 0.66 890.67 0.66 890.67 350.3 9.32 350.3 9.32 0.66 9.32 0.66" style="fill:none;stroke:#d9d9d9;stroke-linejoin:round;stroke-width:0.805008465008092px"/></svg>