<svg id="Layer_1" data-name="Layer 1" xmlns="http://www.w3.org/2000/svg" xmlns:xlink="http://www.w3.org/1999/xlink" viewBox="0 0 900 350"><defs><clipPath id="clip-path"><polygon points="1.87 89.77 899.38 89.77 899.38 261.49 1.87 261.49 1.87 89.77 1.87 89.77" style="fill:none;clip-rule:evenodd"/></clipPath><clipPath id="clip-path-2"><polygon points="1.87 89.77 899.38 89.77 899.38 141.16 1.87 141.16 1.87 89.77 1.87 89.77" style="fill:none;clip-rule:evenodd"/></clipPath><clipPath id="clip-path-4"><polygon points="1.87 232.66 898.13 232.66 898.13 260.23 1.87 260.23 1.87 232.66 1.87 232.66" style="fill:none;clip-rule:evenodd"/></clipPath><clipPath id="clip-path-5"><polygon points="455.02 172.49 750.01 172.49 750.01 201.32 455.02 201.32 455.02 172.49 455.02 172.49" style="fill:none;clip-rule:evenodd"/></clipPath><clipPath id="clip-path-6"><polygon points="529.08 142.41 750.01 142.41 750.01 171.24 529.08 171.24 529.08 142.41 529.08 142.41" style="fill:none;clip-rule:evenodd"/></clipPath><clipPath id="clip-path-7"><polygon points="455.02 202.57 675.95 202.57 675.95 231.4 455.02 231.4 455.02 202.57 455.02 202.57" style="fill:none;clip-rule:evenodd"/></clipPath><clipPath id="clip-path-8"><polygon points="0.62 88.52 899.38 88.52 899.38 261.49 0.62 261.49 0.62 88.52 0.62 88.52" style="fill:none;clip-rule:evenodd"/></clipPath></defs><title>seasonal-calendar</title><g style="clip-path:url(#clip-path)"><polyline points="0.62 88.52 0.62 142.41 899.38 142.41 899.38 88.52 0.62 88.52" style="fill:#d9d9d9;fill-rule:evenodd"/><polyline points="0.62 141.16 0.62 172.49 306.9 172.49 306.9 141.16 0.62 141.16" style="fill:#f2f2f2;fill-rule:evenodd"/><polyline points="305.64 141.16 305.64 172.49 455.02 172.49 455.02 141.16 305.64 141.16" style="fill:#fff;fill-rule:evenodd"/><polyline points="453.77 141.16 453.77 172.49 529.08 172.49 529.08 141.16 453.77 141.16" style="fill:#5e9fff;fill-rule:evenodd"/><polyline points="527.83 141.16 527.83 172.49 751.26 172.49 751.26 141.16 527.83 141.16" style="fill:#06f;fill-rule:evenodd"/><polyline points="750.01 141.16 750.01 172.49 825.32 172.49 825.32 141.16 750.01 141.16" style="fill:#0044ab;fill-rule:evenodd"/><polyline points="0.62 171.24 0.62 202.57 306.9 202.57 306.9 171.24 0.62 171.24" style="fill:#f2f2f2;fill-rule:evenodd"/><polyline points="379.7 171.24 379.7 202.57 455.02 202.57 455.02 171.24 379.7 171.24" style="fill:#5e9fff;fill-rule:evenodd"/><polyline points="453.77 171.24 453.77 202.57 751.26 202.57 751.26 171.24 453.77 171.24" style="fill:#06f;fill-rule:evenodd"/><polyline points="750.01 171.24 750.01 202.57 825.32 202.57 825.32 171.24 750.01 171.24" style="fill:#0044ab;fill-rule:evenodd"/><polyline points="0.62 201.32 0.62 232.66 306.9 232.66 306.9 201.32 0.62 201.32" style="fill:#f2f2f2;fill-rule:evenodd"/><polyline points="379.7 201.32 379.7 232.66 455.02 232.66 455.02 201.32 379.7 201.32" style="fill:#5e9fff;fill-rule:evenodd"/><polyline points="453.77 201.32 453.77 232.66 677.2 232.66 677.2 201.32 453.77 201.32" style="fill:#06f;fill-rule:evenodd"/><polyline points="675.95 201.32 675.95 232.66 751.26 232.66 751.26 201.32 675.95 201.32" style="fill:#0044ab;fill-rule:evenodd"/></g><g style="clip-path:url(#clip-path-2)"><text transform="translate(14.43 121.11)" style="font-size:16.294300079345703px;font-family:Arial-BoldMT, Arial;font-weight:700;letter-spacing:-0.028964592408637458em">A<tspan x="11.29" y="0" style="letter-spacing:0.00400956134582378em">g</tspan><tspan x="21.31" y="0" style="letter-spacing:-0.00400956134582378em">r</tspan><tspan x="27.59" y="0" style="letter-spacing:0.00400956134582378em">o</tspan><tspan x="37.61" y="0" style="letter-spacing:-0.025014875262005076em">-</tspan><tspan x="42.63" y="0" style="letter-spacing:-0.016995752570357518em">c</tspan><tspan x="51.41" y="0" style="letter-spacing:0.028964592408637458em">li</tspan><tspan x="61.41" y="0" style="letter-spacing:0.03303399795365263em">m</tspan><tspan x="76.44" y="0" style="letter-spacing:0.059006380402720104em">a</tspan><tspan x="86.46" y="0" style="letter-spacing:-0.025014875262005076em">t</tspan><tspan x="91.48" y="0" style="letter-spacing:0.028964592408637458em">i</tspan><tspan x="96.48" y="0" style="letter-spacing:-0.016995752570357518em">c</tspan><tspan x="105.26" y="0" style="letter-spacing:0.028964592408637458em"> </tspan><tspan x="110.26" y="0" style="letter-spacing:0.038001066486538816em">z</tspan><tspan x="119.03" y="0" style="letter-spacing:0.00400956134582378em">on</tspan><tspan x="139.07" y="0" style="letter-spacing:0.0000598441991913997em">e</tspan></text><text transform="translate(214.02 121.11)" style="font-size:16.294300079345703px;font-family:Arial-BoldMT, Arial;font-weight:700"><tspan style="letter-spacing:-0.028964592408637458em">R</tspan><tspan x="11.29" y="0" style="letter-spacing:0.059006380402720104em">e</tspan><tspan x="21.32" y="0" style="letter-spacing:0.00400956134582378em">g</tspan><tspan x="31.34" y="0" style="letter-spacing:0.028964592408637458em">i</tspan><tspan x="36.34" y="0" style="letter-spacing:0.00400956134582378em">o</tspan><tspan x="46.35" y="0">n</tspan></text><text transform="translate(326.99 121.11)" style="font-size:16.294300079345703px;font-family:Arial-BoldMT, Arial;font-weight:700"><tspan style="letter-spacing:-0.028964592408637458em">A</tspan><tspan x="11.29" y="0" style="letter-spacing:0.00400956134582378em">u</tspan><tspan x="21.31" y="0">g</tspan></text><text transform="translate(402.31 121.11)" style="font-size:16.294300079345703px;font-family:Arial-BoldMT, Arial;font-weight:700;letter-spacing:0.025014875262005076em">S<tspan x="11.28" y="0" style="letter-spacing:0.059006380402720104em">e</tspan><tspan x="21.3" y="0" style="letter-spacing:0.0000598441991913997em">p</tspan></text><text transform="translate(478.88 121.11)" style="font-size:16.294300079345703px;font-family:Arial-BoldMT, Arial;font-weight:700"><tspan style="letter-spacing:-0.00801912269164756em">O</tspan><tspan x="12.54" y="0" style="letter-spacing:-0.016995752570357518em">c</tspan><tspan x="21.33" y="0">t</tspan></text><text transform="translate(550.42 121.11)" style="font-size:16.294300079345703px;font-family:Arial-BoldMT, Arial;font-weight:700"><tspan style="letter-spacing:-0.028964592408637458em">N</tspan><tspan x="11.29" y="0" style="letter-spacing:0.00400956134582378em">o</tspan><tspan x="21.31" y="0">v</tspan></text><text transform="translate(624.48 121.11)" style="font-size:16.294300079345703px;font-family:Arial-BoldMT, Arial;font-weight:700"><tspan style="letter-spacing:-0.028964592408637458em">D</tspan><tspan x="11.29" y="0" style="letter-spacing:0.059006380402720104em">e</tspan><tspan x="21.32" y="0">c</tspan></text><text transform="translate(699.81 121.11)" style="font-size:16.294300079345703px;font-family:Arial-BoldMT, Arial;font-weight:700;letter-spacing:-0.016995752570357518em">J<tspan x="8.78" y="0" style="letter-spacing:0.059006380402720104em">a</tspan><tspan x="18.81" y="0" style="letter-spacing:0.0000598441991913997em">n</tspan></text><text transform="translate(772.61 121.11)" style="font-size:16.294300079345703px;font-family:Arial-BoldMT, Arial;font-weight:700"><tspan style="letter-spacing:0.00400956134582378em">F</tspan><tspan x="10.02" y="0" style="letter-spacing:0.059006380402720104em">e</tspan><tspan x="20.04" y="0">b</tspan></text><text transform="translate(846.67 121.11)" style="font-size:16.294300079345703px;font-family:Arial-BoldMT, Arial;font-weight:700"><tspan style="letter-spacing:0.012986191224533735em">M</tspan><tspan x="13.79" y="0" style="letter-spacing:0.059006380402720104em">a</tspan><tspan x="23.81" y="0">r</tspan></text></g><g style="clip-path:url(#clip-path)"><text transform="translate(72.17 162.47)" style="font-size:16.294300079345703px;font-family:Arial-BoldMT, Arial;font-weight:700;letter-spacing:-0.00801912269164756em">G<tspan x="12.54" y="0" style="letter-spacing:0.025014875262005076em">P</tspan><tspan x="23.82" y="0" style="letter-spacing:0.0000598441991913997em">H</tspan></text><text transform="translate(192.68 162.47)" style="font-size:16.294300079345703px;font-family:Arial-BoldMT, Arial;font-weight:700"><tspan style="letter-spacing:-0.028964592408637458em">R</tspan><tspan x="11.29" y="0" style="letter-spacing:-0.025014875262005076em">-</tspan><tspan x="16.31" y="0" style="letter-spacing:-0.016995752570357518em">2</tspan><tspan x="25.1" y="0" style="letter-spacing:0.028964592408637458em">, </tspan><tspan x="35.1" y="0" style="letter-spacing:-0.028964592408637458em">R</tspan><tspan x="46.39" y="0" style="letter-spacing:-0.025014875262005076em">-</tspan><tspan x="51.41" y="0">6</tspan></text><text transform="translate(73.43 192.55)" style="font-size:16.294300079345703px;font-family:Arial-BoldMT, Arial;font-weight:700;letter-spacing:-0.028964592408637458em">C<tspan x="11.29" y="0" style="letter-spacing:0.025014875262005076em">P</tspan><tspan x="22.57" y="0" style="letter-spacing:0.0000598441991913997em">H</tspan></text><text transform="translate(192.68 192.55)" style="font-size:16.294300079345703px;font-family:Arial-BoldMT, Arial;font-weight:700"><tspan style="letter-spacing:-0.028964592408637458em">R</tspan><tspan x="11.29" y="0" style="letter-spacing:-0.025014875262005076em">-</tspan><tspan x="16.31" y="0" style="letter-spacing:-0.016995752570357518em">1</tspan><tspan x="25.1" y="0">1</tspan></text><text transform="translate(72.17 222.64)" style="font-size:16.294300079345703px;font-family:Arial-BoldMT, Arial;font-weight:700"><tspan style="letter-spacing:-0.028964592408637458em">U</tspan><tspan x="11.29" y="0" style="letter-spacing:-0.00801912269164756em">G</tspan><tspan x="23.84" y="0">P</tspan></text><text transform="translate(192.68 222.64)" style="font-size:16.294300079345703px;font-family:Arial-BoldMT, Arial;font-weight:700"><tspan style="letter-spacing:-0.028964592408637458em">R</tspan><tspan x="11.29" y="0" style="letter-spacing:-0.025014875262005076em">-</tspan><tspan x="16.31" y="0" style="letter-spacing:-0.016995752570357518em">4</tspan><tspan x="25.1" y="0" style="letter-spacing:0.028964592408637458em">, </tspan><tspan x="35.1" y="0" style="letter-spacing:-0.028964592408637458em">R</tspan><tspan x="46.39" y="0" style="letter-spacing:-0.025014875262005076em">-</tspan><tspan x="51.41" y="0">5</tspan></text></g><g style="clip-path:url(#clip-path-4)"><text transform="translate(4.38 250.2)" style="font-size:13.787489891052246px;font-family:ArialMT, Arial;letter-spacing:0.0019095732709963475em">N<tspan x="9.98" y="0" style="letter-spacing:-0.01343773783293726em">o</tspan><tspan x="17.47" y="0" style="letter-spacing:-0.014003537320639884em">t</tspan><tspan x="21.1" y="0" style="letter-spacing:-0.03324071990252902em">e</tspan><tspan x="28.31" y="0" style="letter-spacing:0.00007072493596282768em">: </tspan></text><text transform="translate(42.23 250.2)" style="font-size:13.787489891052246px;font-family:Arial-BoldMT, Arial;font-weight:700"><tspan style="letter-spacing:0.0014852236552193815em">G</tspan><tspan x="10.74" y="0" style="letter-spacing:-0.018176308542446715em">P</tspan><tspan x="19.69" y="0">H</tspan></text><text transform="translate(72.56 250.2)" style="font-size:13.787489891052246px;font-family:ArialMT, Arial"> <tspan x="3.83" y="0" style="letter-spacing:0.0016973984631078645em">G</tspan><tspan x="14.58" y="0" style="letter-spacing:-0.00891134193131629em">u</tspan><tspan x="22.12" y="0" style="letter-spacing:-0.006648143980505803em">j</tspan><tspan x="25.09" y="0" style="letter-spacing:-0.007779742955911046em">a</tspan><tspan x="32.66" y="0" style="letter-spacing:-0.0034655218621785573em">r</tspan><tspan x="37.2" y="0" style="letter-spacing:-0.013508462768900088em">a</tspan><tspan x="44.68" y="0">t </tspan><tspan x="52.34" y="0" style="letter-spacing:-0.013154838089085949em">P</tspan><tspan x="61.36" y="0" style="letter-spacing:-0.008133367635725185em">l</tspan><tspan x="64.31" y="0" style="letter-spacing:-0.009264966611130427em">a</tspan><tspan x="71.85" y="0" style="letter-spacing:-0.008062642699762358em">i</tspan><tspan x="74.8" y="0" style="letter-spacing:-0.00891134193131629em">n</tspan><tspan x="82.35" y="0" style="letter-spacing:-0.00007072493596282768em">s </tspan><tspan x="93.07" y="0" style="letter-spacing:-0.00827481750765084em">a</tspan><tspan x="100.62" y="0" style="letter-spacing:-0.0057287198129890434em">n</tspan><tspan x="108.21" y="0">d </tspan><tspan x="119.71" y="0" style="letter-spacing:-0.003182622118327246em">H</tspan><tspan x="129.63" y="0" style="letter-spacing:-0.007001768660319942em">i</tspan><tspan x="132.59" y="0" style="letter-spacing:-0.008557717251502152em">l</tspan><tspan x="135.54" y="0" style="letter-spacing:-0.006789593852431458em">l</tspan><tspan x="138.51" y="0" style="letter-spacing:-0.010891640138275465em">s</tspan><tspan x="145.25" y="0">, </tspan></text><text transform="translate(234.22 250.2)" style="font-size:13.787489891052246px;font-family:Arial-BoldMT, Arial;font-weight:700"><tspan style="letter-spacing:0.005021470453360766em">C</tspan><tspan x="10.03" y="0" style="letter-spacing:-0.030058097784201772em">P</tspan><tspan x="18.81" y="0">H</tspan></text><text transform="translate(264.55 250.2)" style="font-size:13.787489891052246px;font-family:ArialMT, Arial"> <tspan x="3.83" y="0" style="letter-spacing:0.0023339228867733136em">C</tspan><tspan x="13.82" y="0" style="letter-spacing:-0.006153069428766009em">e</tspan><tspan x="21.4" y="0" style="letter-spacing:-0.015700935783747746em">n</tspan><tspan x="28.85" y="0" style="letter-spacing:-0.0014144987192565538em">t</tspan><tspan x="32.67" y="0" style="letter-spacing:-0.0034655218621785573em">r</tspan><tspan x="37.21" y="0" style="letter-spacing:-0.007709018019948218em">a</tspan><tspan x="44.77" y="0">l </tspan><tspan x="51.66" y="0" style="letter-spacing:-0.013154838089085949em">P</tspan><tspan x="60.68" y="0" style="letter-spacing:-0.008133367635725185em">l</tspan><tspan x="63.63" y="0" style="letter-spacing:-0.013579187704862916em">at</tspan><tspan x="74.75" y="0" style="letter-spacing:-0.006153069428766009em">e</tspan><tspan x="82.33" y="0" style="letter-spacing:-0.012447588729457674em">a</tspan><tspan x="89.83" y="0">u </tspan><tspan x="101.33" y="0" style="letter-spacing:-0.008204092571688013em">a</tspan><tspan x="108.88" y="0" style="letter-spacing:-0.0057287198129890434em">n</tspan><tspan x="116.47" y="0" style="letter-spacing:-0.00007072493596282768em">d </tspan><tspan x="127.97" y="0" style="letter-spacing:-0.003253347054290074em">H</tspan><tspan x="137.88" y="0" style="letter-spacing:-0.006931043724357115em">i</tspan><tspan x="140.85" y="0" style="letter-spacing:-0.008628442187464978em">l</tspan><tspan x="143.79" y="0" style="letter-spacing:-0.00671886891646863em">l</tspan><tspan x="146.77" y="0" style="letter-spacing:-0.010962365074238293em">s</tspan><tspan x="153.51" y="0">,</tspan></text><text transform="translate(432.68 250.2)" style="font-size:13.787489891052246px;font-family:Arial-BoldMT, Arial;font-weight:700"> <tspan x="3.83" y="0" style="letter-spacing:-0.0104672905224985em">U</tspan><tspan x="13.64" y="0" style="letter-spacing:0.0014852236552193815em">G</tspan><tspan x="24.39" y="0">P</tspan></text><text transform="translate(466.78 250.2)" style="font-size:13.787489891052246px;font-family:ArialMT, Arial"> <tspan x="3.83" y="0" style="letter-spacing:-0.0055872699410633875em">U</tspan><tspan x="13.71" y="0" style="letter-spacing:-0.005092195389323594em">p</tspan><tspan x="21.31" y="0" style="letter-spacing:-0.00367769667006704em">p</tspan><tspan x="28.93" y="0" style="letter-spacing:-0.0055872699410633875em">e</tspan><tspan x="36.52" y="0">r </tspan><tspan x="44.94" y="0" style="letter-spacing:0.0012730488473308985em">G</tspan><tspan x="55.68" y="0" style="letter-spacing:-0.008204092571688013em">a</tspan><tspan x="63.24" y="0" style="letter-spacing:-0.006365244236654492em">n</tspan><tspan x="70.82" y="0" style="letter-spacing:-0.004102046285844006em">g</tspan><tspan x="78.43" y="0" style="letter-spacing:-0.01598383552759906em">e</tspan><tspan x="85.88" y="0" style="letter-spacing:-0.0023339228867733136em">t</tspan><tspan x="89.67" y="0" style="letter-spacing:-0.005162920325286422em">i</tspan><tspan x="92.67" y="0" style="letter-spacing:-0.00007072493596282768em">c </tspan><tspan x="103.39" y="0" style="letter-spacing:-0.013154838089085949em">P</tspan><tspan x="112.41" y="0" style="letter-spacing:-0.008204092571688013em">l</tspan><tspan x="115.36" y="0" style="letter-spacing:-0.0091942416751676em">a</tspan><tspan x="122.9" y="0" style="letter-spacing:-0.008062642699762358em">i</tspan><tspan x="125.85" y="0" style="letter-spacing:-0.00891134193131629em">n</tspan><tspan x="133.39" y="0" style="letter-spacing:-0.00007072493596282768em">s </tspan><tspan x="144.12" y="0" style="letter-spacing:-0.01874210803014934em">R</tspan><tspan x="153.82" y="0" style="letter-spacing:-0.0026875475665874525em">e</tspan><tspan x="161.45" y="0" style="letter-spacing:-0.008133367635725185em">g</tspan><tspan x="169" y="0" style="letter-spacing:-0.00212174807888483em">i</tspan><tspan x="172.04" y="0" style="letter-spacing:-0.00367769667006704em">o</tspan><tspan x="179.66" y="0">n</tspan></text></g><g style="clip-path:url(#clip-path-5)"><text transform="translate(584.31 192.55)" style="font-size:16.294300079345703px;fill:#fff;font-family:Arial-BoldMT, Arial;font-weight:700"><tspan style="letter-spacing:-0.028964592408637458em">R</tspan><tspan x="11.29" y="0" style="letter-spacing:0.059006380402720104em">a</tspan><tspan x="21.32" y="0" style="letter-spacing:0.00400956134582378em">b</tspan><tspan x="31.34" y="0">i</tspan></text></g><g style="clip-path:url(#clip-path-6)"><text transform="translate(621.98 162.47)" style="font-size:16.294300079345703px;fill:#fff;font-family:Arial-BoldMT, Arial;font-weight:700"><tspan style="letter-spacing:-0.028964592408637458em">R</tspan><tspan x="11.29" y="0" style="letter-spacing:0.059006380402720104em">a</tspan><tspan x="21.32" y="0" style="letter-spacing:0.00400956134582378em">b</tspan><tspan x="31.34" y="0">i</tspan></text></g><g style="clip-path:url(#clip-path-7)"><text transform="translate(547.91 222.64)" style="font-size:16.294300079345703px;fill:#fff;font-family:Arial-BoldMT, Arial;font-weight:700"><tspan style="letter-spacing:-0.028964592408637458em">R</tspan><tspan x="11.29" y="0" style="letter-spacing:0.059006380402720104em">a</tspan><tspan x="21.32" y="0" style="letter-spacing:0.00400956134582378em">b</tspan><tspan x="31.34" y="0">i</tspan></text></g><g style="clip-path:url(#clip-path-8)"><polyline points="1.87 88.52 1.87 89.77 899.38 89.77 899.38 88.52 1.87 88.52" style="fill:#bfbfbf;fill-rule:evenodd"/><polyline points="1.87 141.16 1.87 142.41 899.38 142.41 899.38 141.16 1.87 141.16" style="fill:#bfbfbf;fill-rule:evenodd"/><polyline points="379.7 89.77 379.7 142.41 380.96 142.41 380.96 89.77 379.7 89.77" style="fill:#bfbfbf;fill-rule:evenodd"/><polyline points="675.95 89.77 675.95 142.41 677.2 142.41 677.2 89.77 675.95 89.77" style="fill:#bfbfbf;fill-rule:evenodd"/><polyline points="1.87 201.32 1.87 202.57 899.38 202.57 899.38 201.32 1.87 201.32" style="fill:#bfbfbf;fill-rule:evenodd"/><polyline points="0.62 88.52 0.62 232.66 1.87 232.66 1.87 88.52 0.62 88.52" style="fill:#bfbfbf;fill-rule:evenodd"/><polyline points="1.87 231.4 1.87 232.66 899.38 232.66 899.38 231.4 1.87 231.4" style="fill:#bfbfbf;fill-rule:evenodd"/><polyline points="898.13 89.77 898.13 232.66 899.38 232.66 899.38 89.77 898.13 89.77" style="fill:#bfbfbf;fill-rule:evenodd"/><polyline points="0.62 232.66 0.62 261.49 1.87 261.49 1.87 232.66 0.62 232.66" style="fill:#fff;fill-rule:evenodd"/><polyline points="1.87 260.23 1.87 261.49 899.38 261.49 899.38 260.23 1.87 260.23" style="fill:#fff;fill-rule:evenodd"/><polyline points="898.13 232.66 898.13 261.49 899.38 261.49 899.38 232.66 898.13 232.66" style="fill:#fff;fill-rule:evenodd"/><polyline points="0.62 261.49 0.62 262.74 1.87 262.74 1.87 261.49 0.62 261.49" style="fill:#d4d4d4;fill-rule:evenodd"/><polyline points="177.61 89.77 177.61 232.66 178.86 232.66 178.86 89.77 177.61 89.77" style="fill:#bfbfbf;fill-rule:evenodd"/><polyline points="305.64 89.77 305.64 232.66 306.9 232.66 306.9 89.77 305.64 89.77" style="fill:#bfbfbf;fill-rule:evenodd"/><polyline points="379.7 172.49 379.7 232.66 380.96 232.66 380.96 172.49 379.7 172.49" style="fill:#bfbfbf;fill-rule:evenodd"/><polyline points="453.77 89.77 453.77 232.66 455.02 232.66 455.02 89.77 453.77 89.77" style="fill:#bfbfbf;fill-rule:evenodd"/><polyline points="527.83 89.77 527.83 172.49 529.08 172.49 529.08 89.77 527.83 89.77" style="fill:#bfbfbf;fill-rule:evenodd"/><polyline points="601.89 89.77 601.89 142.41 603.14 142.41 603.14 89.77 601.89 89.77" style="fill:#bfbfbf;fill-rule:evenodd"/><polyline points="675.95 202.57 675.95 232.66 677.2 232.66 677.2 202.57 675.95 202.57" style="fill:#bfbfbf;fill-rule:evenodd"/><polyline points="750.01 89.77 750.01 232.66 751.26 232.66 751.26 89.77 750.01 89.77" style="fill:#bfbfbf;fill-rule:evenodd"/><polyline points="824.07 89.77 824.07 202.57 825.32 202.57 825.32 89.77 824.07 89.77" style="fill:#bfbfbf;fill-rule:evenodd"/><polyline points="898.13 261.49 898.13 262.74 899.38 262.74 899.38 261.49 898.13 261.49" style="fill:#d4d4d4;fill-rule:evenodd"/><polyline points="899.38 88.52 899.38 89.77 900.64 89.77 900.64 88.52 899.38 88.52" style="fill:#d4d4d4;fill-rule:evenodd"/><polyline points="899.38 141.16 899.38 142.41 900.64 142.41 900.64 141.16 899.38 141.16" style="fill:#d4d4d4;fill-rule:evenodd"/><polyline points="1.87 171.24 1.87 172.49 900.64 172.49 900.64 171.24 1.87 171.24" style="fill:#bfbfbf;fill-rule:evenodd"/><polyline points="899.38 201.32 899.38 202.57 900.64 202.57 900.64 201.32 899.38 201.32" style="fill:#fff;fill-rule:evenodd"/><polyline points="899.38 231.4 899.38 232.66 900.64 232.66 900.64 231.4 899.38 231.4" style="fill:#fff;fill-rule:evenodd"/><polyline points="899.38 260.23 899.38 261.49 900.64 261.49 900.64 260.23 899.38 260.23" style="fill:#d4d4d4;fill-rule:evenodd"/></g></svg>