<svg id="Layer_1" data-name="Layer 1" xmlns="http://www.w3.org/2000/svg" xmlns:xlink="http://www.w3.org/1999/xlink" viewBox="0 0 900 350"><defs><clipPath id="clip-path"><polygon points="8.81 348.61 891.06 348.61 891.06 0 8.81 0 8.81 348.61 8.81 348.61" style="fill:none;clip-rule:evenodd"/></clipPath><clipPath id="clip-path-2"><polygon points="70.4 311.17 875.89 311.17 875.89 19.99 70.4 19.99 70.4 311.17 70.4 311.17" style="fill:none;clip-rule:evenodd"/></clipPath><clipPath id="clip-path-7"><rect x="8.81" width="882.25" height="348.6" style="fill:none"/></clipPath><clipPath id="clip-path-18"><rect x="201.36" y="80.64" width="224.08" height="19.46" style="fill:none"/></clipPath><clipPath id="clip-path-21"><rect x="682.54" y="61.72" width="208.52" height="25.63" style="fill:none"/></clipPath></defs><title>yar</title><polygon points="8.81 0 891.19 0 891.19 348.74 8.81 348.74 8.81 0 8.81 0" style="fill:#eaeaea;fill-rule:evenodd"/><polygon points="70.4 19.99 875.09 19.99 875.09 310.36 70.4 310.36 70.4 19.99 70.4 19.99" style="fill:#fff;fill-rule:evenodd"/><path d="M70.4,310.36H875.09M70.4,186H875.09M70.4,123.72H875.09M70.4,61.46H875.09" style="fill:none;stroke:#d9d9d9;stroke-linejoin:round;stroke-width:0.805091909083409px"/><g style="clip-path:url(#clip-path)"><path d="M70.4,20V310.36M231.42,20V310.36M392.3,20V310.36M553.19,20V310.36M714.2,20V310.36M875.09,20V310.36" style="fill:none;stroke:#d9d9d9;stroke-linejoin:round;stroke-width:0.805091909083409px"/></g><g style="clip-path:url(#clip-path-2)"><path d="M118.7,248.1h64.41v4.16H118.7V248.1Zm160.89,0H344v6.31H279.59V248.1Zm161,0h64.27v6.31H440.61V248.1Zm160.88,0H665.9v4.16H601.49V248.1Zm160.89,0h64.4v10.33h-64.4V248.1Z" style="fill:#ff25f3"/></g><g style="clip-path:url(#clip-path-2)"><path d="M118.7,96.34h64.41V248.1H118.7V96.34ZM279.59,111H344V248.1H279.59V111Zm161-3.22h64.27V248.1H440.61V107.75Zm160.88,2.15H665.9V248.1H601.49V109.9Zm160.89-14h64.4V248.1h-64.4V95.94Z" style="fill:#5e9fff"/></g><g style="clip-path:url(#clip-path-2)"><path d="M118.7,92.72h64.41v3.62H118.7V92.72ZM279.59,104.8H344V111H279.59V104.8Zm161-2.28h64.27v5.23H440.61v-5.23Zm160.88,2.28H665.9v5.1H601.49v-5.1ZM762.38,85.07h64.4V95.94h-64.4V85.07Z" style="fill:#04f"/></g><g style="clip-path:url(#clip-path)"><line x1="70.4" y1="248.1" x2="875.09" y2="248.1" style="fill:none;stroke:#d9d9d9;stroke-linejoin:round;stroke-width:0.805091909083409px"/></g><g style="clip-path:url(#clip-path)"><path d="M70.4,248.1v3.09m161-3.09v3.09M392.3,248.1v3.09m160.89-3.09v3.09m161-3.09v3.09m160.89-3.09v3.09" style="fill:none;stroke:#d9d9d9;stroke-linejoin:round;stroke-width:0.805091909083409px"/></g><g style="clip-path:url(#clip-path-7)"><text transform="translate(138.15 264.49)" style="font-size:10.063650131225586px;font-family:ArialMT, Arial">-</text></g><g style="clip-path:url(#clip-path-7)"><text transform="translate(141.51 264.49)" style="font-size:10.063650131225586px;font-family:ArialMT, Arial"><tspan style="letter-spacing:0.0030081965395505257em">2</tspan><tspan x="5.63" y="0" style="letter-spacing:0.002037810559050356em">.</tspan><tspan x="8.44" y="0" style="letter-spacing:0.0030081965395505257em">38</tspan><tspan x="19.7" y="0">%</tspan></text></g><g style="clip-path:url(#clip-path-7)"><text transform="translate(298.6 267.83)" style="font-size:10.063650131225586px;font-family:ArialMT, Arial">-</text></g><g style="clip-path:url(#clip-path-7)"><text transform="translate(301.95 267.83)" style="font-size:10.063650131225586px;font-family:ArialMT, Arial"><tspan style="letter-spacing:0.0030081965395505257em">4</tspan><tspan x="5.63" y="0" style="letter-spacing:0.002037810559050356em">.</tspan><tspan x="8.44" y="0" style="letter-spacing:0.0030081965395505257em">5</tspan><tspan x="14.07" y="0">%</tspan></text></g><g style="clip-path:url(#clip-path-7)"><text transform="translate(456.71 267.85)" style="font-size:10.063650131225586px;font-family:ArialMT, Arial">-</text></g><g style="clip-path:url(#clip-path-7)"><text transform="translate(460.07 267.85)" style="font-size:10.063650131225586px;font-family:ArialMT, Arial"><tspan style="letter-spacing:0.0030081965395505257em">3</tspan><tspan x="5.63" y="0" style="letter-spacing:0.002037810559050356em">.</tspan><tspan x="8.44" y="0" style="letter-spacing:0.0030081965395505257em">79</tspan><tspan x="19.7" y="0">%</tspan></text></g><g style="clip-path:url(#clip-path-7)"><text transform="translate(623.77 266.46)" style="font-size:10.063650131225586px;font-family:ArialMT, Arial">-</text></g><g style="clip-path:url(#clip-path-7)"><text transform="translate(627.12 266.46)" style="font-size:10.063650131225586px;font-family:ArialMT, Arial"><tspan style="letter-spacing:0.0030081965395505257em">3</tspan><tspan x="5.63" y="0" style="letter-spacing:0.002037810559050356em">.</tspan><tspan x="8.44" y="0" style="letter-spacing:0.0030081965395505257em">7</tspan><tspan x="14.07" y="0">%</tspan></text></g><g style="clip-path:url(#clip-path-7)"><text transform="translate(781.4 270.63)" style="font-size:10.063650131225586px;font-family:ArialMT, Arial">-</text></g><g style="clip-path:url(#clip-path-7)"><text transform="translate(784.75 270.63)" style="font-size:10.063650131225586px;font-family:ArialMT, Arial"><tspan style="letter-spacing:0.0030081965395505257em">7</tspan><tspan x="5.63" y="0" style="letter-spacing:0.002037810559050356em">.</tspan><tspan x="8.44" y="0" style="letter-spacing:0.0030081965395505257em">1</tspan><tspan x="14.07" y="0">%</tspan></text></g><g style="clip-path:url(#clip-path-7)"><text transform="translate(131.89 82.41)" style="font-size:11.137100219726562px;font-family:ArialMT, Arial"><tspan style="letter-spacing:-0.004998075028669057em">+</tspan><tspan x="6.45" y="0" style="letter-spacing:-0.0010522263218250647em">2</tspan><tspan x="12.63" y="0">.</tspan><tspan x="15.73" y="0" style="letter-spacing:-0.0010522263218250647em">38</tspan><tspan x="28.09" y="0">%</tspan></text></g><g style="clip-path:url(#clip-path-18)"><text transform="translate(297.46 94.38)" style="font-size:11.137100219726562px;font-family:ArialMT, Arial"><tspan style="letter-spacing:-0.004998075028669057em">+</tspan><tspan x="6.45" y="0" style="letter-spacing:-0.0010522263218250647em">4</tspan><tspan x="12.63" y="0">.</tspan><tspan x="15.73" y="0" style="letter-spacing:-0.0010522263218250647em">5</tspan><tspan x="21.91" y="0">%</tspan></text></g><g style="clip-path:url(#clip-path-7)"><text transform="translate(453.75 93.31)" style="font-size:11.137100219726562px;font-family:ArialMT, Arial"><tspan style="letter-spacing:-0.004998075028669057em">+</tspan><tspan x="6.45" y="0" style="letter-spacing:-0.0010522263218250647em">3</tspan><tspan x="12.63" y="0" style="letter-spacing:0.00008768552681875538em">.</tspan><tspan x="15.73" y="0" style="letter-spacing:-0.0010522263218250647em">79</tspan><tspan x="28.09" y="0">%</tspan></text></g><g style="clip-path:url(#clip-path-7)"><text transform="translate(617.78 97.57)" style="font-size:11.137100219726562px;font-family:ArialMT, Arial"><tspan style="letter-spacing:-0.004998075028669057em">+</tspan><tspan x="6.45" y="0" style="letter-spacing:-0.0010522263218250647em">3</tspan><tspan x="12.63" y="0" style="letter-spacing:0.00008768552681875538em">.</tspan><tspan x="15.73" y="0" style="letter-spacing:-0.0010522263218250647em">7</tspan><tspan x="21.91" y="0">%</tspan></text></g><g style="clip-path:url(#clip-path-21)"><text transform="translate(778.7 78.56)" style="font-size:11.137100219726562px;font-family:ArialMT, Arial"><tspan style="letter-spacing:-0.004998075028669057em">+</tspan><tspan x="6.45" y="0" style="letter-spacing:-0.0010522263218250647em">7</tspan><tspan x="12.63" y="0">.</tspan><tspan x="15.73" y="0" style="letter-spacing:-0.0010522263218250647em">1</tspan><tspan x="21.91" y="0">%</tspan></text></g><g style="clip-path:url(#clip-path-7)"><text transform="translate(38.83 313.55)" style="font-size:10.063650131225586px;font-family:ArialMT, Arial">-<tspan x="3.35" y="0" style="letter-spacing:0.0030081965395505257em">0</tspan><tspan x="8.98" y="0" style="letter-spacing:0.002037810559050356em">.</tspan><tspan x="11.79" y="0" style="letter-spacing:-0.009024589618651577em">3</tspan><tspan x="17.3" y="0">0</tspan></text></g><g style="clip-path:url(#clip-path-7)"><text transform="translate(42.18 251.34)" style="font-size:10.063650131225586px;font-family:ArialMT, Arial;letter-spacing:0.0030081965395505257em">0<tspan x="5.63" y="0" style="letter-spacing:0.002037810559050356em">.</tspan><tspan x="8.44" y="0" style="letter-spacing:-0.009024589618651577em">0</tspan><tspan x="13.95" y="0" style="letter-spacing:0.00009703859805001695em">0</tspan></text></g><g style="clip-path:url(#clip-path-7)"><text transform="translate(42.18 189.12)" style="font-size:10.063650131225586px;font-family:ArialMT, Arial;letter-spacing:0.0030081965395505257em">0<tspan x="5.63" y="0" style="letter-spacing:0.002037810559050356em">.</tspan><tspan x="8.44" y="0" style="letter-spacing:-0.009024589618651577em">3</tspan><tspan x="13.95" y="0" style="letter-spacing:0.00009703859805001695em">0</tspan></text></g><g style="clip-path:url(#clip-path-7)"><text transform="translate(42.18 126.91)" style="font-size:10.063650131225586px;font-family:ArialMT, Arial;letter-spacing:0.0030081965395505257em">0<tspan x="5.63" y="0" style="letter-spacing:0.002037810559050356em">.</tspan><tspan x="8.44" y="0" style="letter-spacing:-0.009024589618651577em">6</tspan><tspan x="13.95" y="0" style="letter-spacing:0.00009703859805001695em">0</tspan></text></g><g style="clip-path:url(#clip-path-7)"><text transform="translate(42.18 64.71)" style="font-size:10.063650131225586px;font-family:ArialMT, Arial;letter-spacing:0.0030081965395505257em">0<tspan x="5.63" y="0" style="letter-spacing:0.002037810559050356em">.</tspan><tspan x="8.44" y="0" style="letter-spacing:-0.009024589618651577em">9</tspan><tspan x="13.95" y="0" style="letter-spacing:0.00009703859805001695em">0</tspan></text></g><g style="clip-path:url(#clip-path-7)"><text transform="translate(142.78 325.53)" style="font-size:10.063650131225586px;font-family:ArialMT, Arial"><tspan style="letter-spacing:-0.002037810559050356em">R</tspan><tspan x="7.25" y="0">-2</tspan></text></g><g style="clip-path:url(#clip-path-7)"><text transform="translate(303.71 325.53)" style="font-size:10.063650131225586px;font-family:ArialMT, Arial"><tspan style="letter-spacing:-0.002037810559050356em">R</tspan><tspan x="7.25" y="0">-4</tspan></text></g><g style="clip-path:url(#clip-path-7)"><text transform="translate(464.64 325.53)" style="font-size:10.063650131225586px;font-family:ArialMT, Arial"><tspan style="letter-spacing:-0.002037810559050356em">R</tspan><tspan x="7.25" y="0">-5</tspan></text></g><g style="clip-path:url(#clip-path-7)"><text transform="translate(625.58 325.53)" style="font-size:10.063650131225586px;font-family:ArialMT, Arial"><tspan style="letter-spacing:-0.002037810559050356em">R</tspan><tspan x="7.25" y="0">-6</tspan></text></g><g style="clip-path:url(#clip-path-7)"><text transform="translate(783.71 325.53)" style="font-size:10.063650131225586px;font-family:ArialMT, Arial"><tspan style="letter-spacing:-0.002037810559050356em">R</tspan><tspan x="7.25" y="0">-</tspan><tspan x="10.6" y="0" style="letter-spacing:0.0030081965395505257em">1</tspan><tspan x="16.23" y="0" style="letter-spacing:0.00009703859805001695em">1</tspan></text></g><g style="clip-path:url(#clip-path-7)"><text transform="translate(26.63 227.07) rotate(-90)" style="font-size:10.063650131225586px;font-family:Arial-BoldMT, Arial;font-weight:700"><tspan style="letter-spacing:-0.004075621118100712em">Q</tspan><tspan x="7.79" y="0" style="letter-spacing:0.002037810559050356em">u</tspan><tspan x="13.96" y="0" style="letter-spacing:0.0030081965395505257em">a</tspan><tspan x="19.58" y="0" style="letter-spacing:0.001940771961000339em">n</tspan><tspan x="25.75" y="0">t</tspan><tspan x="29.1" y="0" style="letter-spacing:0.002037810559050356em">i</tspan><tspan x="31.92" y="0">t</tspan><tspan x="35.27" y="0" style="letter-spacing:-0.04900449201525856em">y</tspan><tspan x="40.37" y="0" style="letter-spacing:0.042017712955657344em"> </tspan><tspan x="43.59" y="0" style="letter-spacing:-0.002037810559050356em">&amp;</tspan><tspan x="50.84" y="0" style="letter-spacing:0.002037810559050356em"> </tspan><tspan x="53.65" y="0">Y</tspan><tspan x="60.37" y="0" style="letter-spacing:0.0030081965395505257em">a</tspan><tspan x="65.99" y="0" style="letter-spacing:-0.001940771961000339em">R</tspan><tspan x="73.24" y="0" style="letter-spacing:0.002037810559050356em"> </tspan><tspan x="76.06" y="0" style="letter-spacing:-0.00009703859805001695em">(</tspan><tspan x="79.41" y="0" style="letter-spacing:0.006016393079101051em">M</tspan><tspan x="87.85" y="0" style="letter-spacing:0.002037810559050356em">T</tspan><tspan x="94.02" y="0">)</tspan></text></g><g style="clip-path:url(#clip-path-7)"><text transform="translate(428.64 344.65)" style="font-size:11.137100219726562px;font-family:Arial-BoldMT, Arial;font-weight:700">R<tspan x="8.04" y="0" style="letter-spacing:-0.0010522263218250647em">e</tspan><tspan x="14.23" y="0" style="letter-spacing:0.0030689934386564383em">g</tspan><tspan x="21.06" y="0">i</tspan><tspan x="24.16" y="0" style="letter-spacing:0.002981307911837683em">on</tspan><tspan x="37.83" y="0">s</tspan></text></g><polygon points="8.81 0 891.19 0 891.19 348.74 8.81 348.74 8.81 0 8.81 0" style="fill:none;stroke:#d9d9d9;stroke-linejoin:round;stroke-width:0.805091975732324px"/></svg>