<svg id="Layer_1" data-name="Layer 1" xmlns="http://www.w3.org/2000/svg" xmlns:xlink="http://www.w3.org/1999/xlink" viewBox="0 0 900 350"><defs><clipPath id="clip-path"><polygon points="0 349.64 899.08 349.64 899.08 0 0 0 0 349.64 0 349.64" style="fill:none;clip-rule:evenodd"/></clipPath><clipPath id="clip-path-2"><polygon points="72.81 306.63 872.27 306.63 872.27 17.69 72.81 17.69 72.81 306.63 72.81 306.63" style="fill:none;clip-rule:evenodd"/></clipPath><clipPath id="clip-path-13"><rect width="899.08" height="349.64" style="fill:none"/></clipPath></defs><title>ground-truth-risk-report</title><polygon points="0.14 0 899.22 0 899.22 349.64 0.14 349.64 0.14 0 0.14 0" style="fill:#eaeaea;fill-rule:evenodd"/><polygon points="72.95 17.69 871.45 17.69 871.45 305.82 72.95 305.82 72.95 17.69 72.95 17.69" style="fill:#fff;fill-rule:evenodd"/><path d="M73,233.82h798.5M73,161.82h798.5M73,89.69h798.5M73,17.69h798.5" style="fill:none;stroke:#d9d9d9;stroke-linejoin:round;stroke-width:0.816604207171814px"/><g style="clip-path:url(#clip-path)"><path d="M73,17.69V305.82M339.16,17.69V305.82M605.38,17.69V305.82M871.45,17.69V305.82" style="fill:none;stroke:#d9d9d9;stroke-linejoin:round;stroke-width:0.816604207171814px"/></g><g style="clip-path:url(#clip-path-2)"><polygon points="154.75 89.69 257.23 89.69 257.23 305.82 154.75 305.82 154.75 89.69 154.75 89.69" style="fill:#5e9fff;fill-rule:evenodd"/><polygon points="154.75 89.69 257.23 89.69 257.23 305.82 154.75 305.82 154.75 89.69 154.75 89.69" style="fill:none;stroke:#7f7f7f;stroke-linejoin:round;stroke-width:0.816604207171814px"/><polygon points="420.96 87.65 523.44 87.65 523.44 305.82 420.96 305.82 420.96 87.65 420.96 87.65" style="fill:#5e9fff;fill-rule:evenodd"/><polygon points="420.96 87.65 523.44 87.65 523.44 305.82 420.96 305.82 420.96 87.65 420.96 87.65" style="fill:none;stroke:#7f7f7f;stroke-linejoin:round;stroke-width:0.816604207171814px"/><polygon points="687.17 85.47 789.66 85.47 789.66 305.82 687.17 305.82 687.17 85.47 687.17 85.47" style="fill:#5e9fff;fill-rule:evenodd"/><polygon points="687.17 85.47 789.66 85.47 789.66 305.82 687.17 305.82 687.17 85.47 687.17 85.47" style="fill:none;stroke:#7f7f7f;stroke-linejoin:round;stroke-width:0.816604207171814px"/></g><g style="clip-path:url(#clip-path)"><line x1="72.95" y1="305.82" x2="871.45" y2="305.82" style="fill:none;stroke:#d9d9d9;stroke-linejoin:round;stroke-width:0.816604207171814px"/></g><g style="clip-path:url(#clip-path)"><path d="M73,305.82V309m266.21-3.13V309m266.22-3.13V309m266.07-3.13V309" style="fill:none;stroke:#d9d9d9;stroke-linejoin:round;stroke-width:0.816604207171814px"/></g><g style="clip-path:url(#clip-path-2)"><polyline points="206.06 59.34 472.27 59.34 738.48 59.34" style="fill:none;stroke:#06f;stroke-miterlimit:10;stroke-width:1.36100712462294px;stroke-dasharray:5,5"/></g><g style="clip-path:url(#clip-path)"><path d="M208.85,59.41A2.86,2.86,0,1,1,206,56.55a2.86,2.86,0,0,1,2.86,2.86Z" style="fill:#06f"/><path d="M208.85,59.41A2.86,2.86,0,1,1,206,56.55a2.86,2.86,0,0,1,2.86,2.86Z" style="fill:none;stroke:#2935e8;stroke-linejoin:round;stroke-width:0.816604274773766px"/><path d="M475.06,59.41a2.86,2.86,0,1,1-2.86-2.86,2.86,2.86,0,0,1,2.86,2.86Z" style="fill:#06f"/><path d="M475.06,59.41a2.86,2.86,0,1,1-2.86-2.86,2.86,2.86,0,0,1,2.86,2.86Z" style="fill:none;stroke:#2935e8;stroke-linejoin:round;stroke-width:0.816604274773766px"/><path d="M741.27,59.41a2.86,2.86,0,1,1-2.86-2.86,2.86,2.86,0,0,1,2.86,2.86Z" style="fill:#06f"/><path d="M741.27,59.41a2.86,2.86,0,1,1-2.86-2.86,2.86,2.86,0,0,1,2.86,2.86Z" style="fill:none;stroke:#2935e8;stroke-linejoin:round;stroke-width:0.816604274773766px"/></g><g style="clip-path:url(#clip-path-2)"><polyline points="206.06 128.89 472.27 128.89 738.48 128.89" style="fill:none;stroke:#ff25f3;stroke-miterlimit:10;stroke-width:1.36100712462294px;stroke-dasharray:5,5"/></g><g style="clip-path:url(#clip-path)"><path d="M208.85,129A2.86,2.86,0,1,1,206,126.1a2.86,2.86,0,0,1,2.86,2.86Z" style="fill:#ff25f3"/><path d="M475.06,129a2.86,2.86,0,1,1-2.86-2.86,2.86,2.86,0,0,1,2.86,2.86Z" style="fill:#ff25f3"/><path d="M741.27,129a2.86,2.86,0,1,1-2.86-2.86,2.86,2.86,0,0,1,2.86,2.86Z" style="fill:#ff25f3"/></g><g style="clip-path:url(#clip-path-2)"><polyline points="206.06 82.61 472.27 82.61 738.48 82.61" style="fill:none;stroke:#7f7f7f;stroke-linecap:round;stroke-linejoin:round;stroke-width:1.36100698941904px"/></g><g style="clip-path:url(#clip-path)"><path d="M208.85,82.68A2.86,2.86,0,1,1,206,79.82a2.86,2.86,0,0,1,2.86,2.86Z" style="fill:#7f7f7f"/><path d="M208.85,82.68A2.86,2.86,0,1,1,206,79.82a2.86,2.86,0,0,1,2.86,2.86Z" style="fill:none;stroke:#7f7f7f;stroke-linejoin:round;stroke-width:0.816604274773766px"/><path d="M475.06,82.68a2.86,2.86,0,1,1-2.86-2.86,2.86,2.86,0,0,1,2.86,2.86Z" style="fill:#7f7f7f"/><path d="M475.06,82.68a2.86,2.86,0,1,1-2.86-2.86,2.86,2.86,0,0,1,2.86,2.86Z" style="fill:none;stroke:#7f7f7f;stroke-linejoin:round;stroke-width:0.816604274773766px"/><path d="M741.27,82.68a2.86,2.86,0,1,1-2.86-2.86,2.86,2.86,0,0,1,2.86,2.86Z" style="fill:#7f7f7f"/><path d="M741.27,82.68a2.86,2.86,0,1,1-2.86-2.86,2.86,2.86,0,0,1,2.86,2.86Z" style="fill:none;stroke:#7f7f7f;stroke-linejoin:round;stroke-width:0.816604274773766px"/></g><g style="clip-path:url(#clip-path-2)"><polyline points="206.06 89.69 472.27 89.69 738.48 89.69" style="fill:none;stroke:#00c1a3;stroke-linecap:round;stroke-linejoin:round;stroke-width:1.36100698941904px"/></g><g style="clip-path:url(#clip-path)"><path d="M208.85,89.76A2.86,2.86,0,1,1,206,86.9a2.86,2.86,0,0,1,2.86,2.86Z" style="fill:#00c1a3"/><path d="M208.85,89.76A2.86,2.86,0,1,1,206,86.9a2.86,2.86,0,0,1,2.86,2.86Z" style="fill:none;stroke:#00b050;stroke-linejoin:round;stroke-width:0.816604274773766px"/><path d="M475.06,89.76a2.86,2.86,0,1,1-2.86-2.86,2.86,2.86,0,0,1,2.86,2.86Z" style="fill:#00c1a3"/><path d="M475.06,89.76a2.86,2.86,0,1,1-2.86-2.86,2.86,2.86,0,0,1,2.86,2.86Z" style="fill:none;stroke:#00b050;stroke-linejoin:round;stroke-width:0.816604274773766px"/><path d="M741.27,89.76a2.86,2.86,0,1,1-2.86-2.86,2.86,2.86,0,0,1,2.86,2.86Z" style="fill:#00c1a3"/><path d="M741.27,89.76a2.86,2.86,0,1,1-2.86-2.86,2.86,2.86,0,0,1,2.86,2.86Z" style="fill:none;stroke:#00b050;stroke-linejoin:round;stroke-width:0.816604274773766px"/></g><g style="clip-path:url(#clip-path-13)"><text transform="translate(44.26 309.09)" style="font-size:10.207550048828125px;font-family:ArialMT, Arial"><tspan style="letter-spacing:0.0030614593953019755em">4</tspan><tspan x="5.71" y="0" style="letter-spacing:0.0019134121220637345em">.</tspan><tspan x="8.56" y="0" style="letter-spacing:-0.008897366367596365em">0</tspan><tspan x="14.15" y="0">0</tspan></text></g><g style="clip-path:url(#clip-path-13)"><text transform="translate(44.26 237.06)" style="font-size:10.207550048828125px;font-family:ArialMT, Arial"><tspan style="letter-spacing:0.0030614593953019755em">5</tspan><tspan x="5.71" y="0" style="letter-spacing:0.0019134121220637345em">.</tspan><tspan x="8.56" y="0" style="letter-spacing:-0.008897366367596365em">0</tspan><tspan x="14.15" y="0">0</tspan></text></g><g style="clip-path:url(#clip-path-13)"><text transform="translate(44.26 165.04)" style="font-size:10.207550048828125px;font-family:ArialMT, Arial"><tspan style="letter-spacing:0.0030614593953019755em">6</tspan><tspan x="5.71" y="0" style="letter-spacing:0.0019134121220637345em">.</tspan><tspan x="8.56" y="0" style="letter-spacing:-0.008897366367596365em">0</tspan><tspan x="14.15" y="0">0</tspan></text></g><g style="clip-path:url(#clip-path-13)"><text transform="translate(44.26 93)" style="font-size:10.207550048828125px;font-family:ArialMT, Arial"><tspan style="letter-spacing:0.0030614593953019755em">7</tspan><tspan x="5.71" y="0" style="letter-spacing:0.0019134121220637345em">.</tspan><tspan x="8.56" y="0" style="letter-spacing:-0.008897366367596365em">0</tspan><tspan x="14.15" y="0">0</tspan></text></g><g style="clip-path:url(#clip-path-13)"><text transform="translate(44.26 20.98)" style="font-size:10.207550048828125px;font-family:ArialMT, Arial"><tspan style="letter-spacing:0.0030614593953019755em">8</tspan><tspan x="5.71" y="0" style="letter-spacing:0.0019134121220637345em">.</tspan><tspan x="8.56" y="0" style="letter-spacing:-0.008897366367596365em">0</tspan><tspan x="14.15" y="0">0</tspan></text></g><g style="clip-path:url(#clip-path-13)"><text transform="translate(193.9 321.26)" style="font-size:10.207550048828125px;font-family:ArialMT, Arial">Aug</text></g><g style="clip-path:url(#clip-path-13)"><text transform="translate(459.11 321.26)" style="font-size:10.207550048828125px;font-family:ArialMT, Arial">Sep</text></g><g style="clip-path:url(#clip-path-13)"><text transform="translate(731.31 321.26)" style="font-size:10.207550048828125px;font-family:ArialMT, Arial">Oct</text></g><g style="clip-path:url(#clip-path-13)"><text transform="translate(32.59 157.26) rotate(-90)" style="font-size:11.29636001586914px;font-family:Arial-BoldMT, Arial;font-weight:700"><tspan style="letter-spacing:0.004927610524257642em">Q</tspan><tspan x="8.84" y="0" style="letter-spacing:0.0030257257605090784em">u</tspan><tspan x="15.78" y="0" style="letter-spacing:-0.0009509423818742817em">a</tspan><tspan x="22.05" y="0" style="letter-spacing:0.0029392764530659617em">n</tspan><tspan x="28.98" y="0" style="letter-spacing:0.004063117449826478em">t</tspan><tspan x="32.79" y="0" style="letter-spacing:-0.00008644930744311652em">i</tspan><tspan x="35.93" y="0" style="letter-spacing:0.004063117449826478em">t</tspan><tspan x="39.74" y="0" style="letter-spacing:-0.012967396116467479em">y</tspan><tspan x="45.87" y="0" style="letter-spacing:0.010979062045275798em"> </tspan><tspan x="49.13" y="0" style="letter-spacing:0.00397666814238336em">(</tspan><tspan x="52.94" y="0" style="letter-spacing:0.021958124090551596em">M</tspan><tspan x="62.6" y="0" style="letter-spacing:0.015042179495102274em">T</tspan><tspan x="69.67" y="0">)</tspan></text></g><g style="clip-path:url(#clip-path-13)"><text transform="translate(412.18 336.86)" style="font-size:11.29636001586914px;font-family:Arial-BoldMT, Arial;font-weight:700"><tspan style="letter-spacing:0.01495573018765916em">T</tspan><tspan x="7.07" y="0">i</tspan><tspan x="10.21" y="0" style="letter-spacing:0.0020747833786347964em">m</tspan><tspan x="20.28" y="0" style="letter-spacing:-0.0010373916893173982em">e</tspan><tspan x="26.55" y="0"> </tspan><tspan x="29.68" y="0" style="letter-spacing:-0.00397666814238336em">P</tspan><tspan x="37.17" y="0" style="letter-spacing:-0.0009509423818742817em">e</tspan><tspan x="43.45" y="0" style="letter-spacing:-0.0030257257605090784em">r</tspan><tspan x="47.81" y="0">i</tspan><tspan x="50.95" y="0" style="letter-spacing:0.0029392764530659617em">o</tspan><tspan x="57.88" y="0">d</tspan></text></g><polygon points="0.14 0 899.22 0 899.22 349.64 0.14 349.64 0.14 0 0.14 0" style="fill:none;stroke:#d9d9d9;stroke-linejoin:round;stroke-width:0.816604274773766px"/></svg>