<svg id="Layer_1" data-name="Layer 1" xmlns="http://www.w3.org/2000/svg" xmlns:xlink="http://www.w3.org/1999/xlink" viewBox="0 0 900 350"><defs><clipPath id="clip-path"><polygon points="0 346.31 899.22 346.31 899.22 0 0 0 0 346.31 0 346.31" style="fill:none;clip-rule:evenodd"/></clipPath><clipPath id="clip-path-6"><polygon points="61.28 281.49 888.05 281.49 888.05 14.84 61.28 14.84 61.28 281.49 61.28 281.49" style="fill:none;clip-rule:evenodd"/></clipPath><clipPath id="clip-path-10"><rect width="899.22" height="346.31" style="fill:none"/></clipPath></defs><title>ndvi-risk-report</title><polygon points="0 0 899.22 0 899.22 346.45 0 346.45 0 0 0 0" style="fill:#eaeaea;fill-rule:evenodd"/><polygon points="61.28 14.84 887.23 14.84 887.23 280.67 61.28 280.67 61.28 14.84 61.28 14.84" style="fill:#fff;fill-rule:evenodd"/><path d="M61.28,214.22h826M61.28,147.76h826M61.28,81.3h826M61.28,14.84h826" style="fill:none;stroke:#d9d9d9;stroke-linejoin:round;stroke-width:0.817098913995479px"/><g style="clip-path:url(#clip-path)"><path d="M95.74,14.84V280.67M164.65,14.84V280.67M233.42,14.84V280.67M302.19,14.84V280.67M371.1,14.84V280.67M439.87,14.84V280.67M508.64,14.84V280.67M577.55,14.84V280.67M646.33,14.84V280.67m68.9-265.83V280.67M784,14.84V280.67M852.78,14.84V280.67" style="fill:none;stroke:#f2f2f2;stroke-linejoin:round;stroke-width:0.817098913995479px"/></g><g style="clip-path:url(#clip-path)"><path d="M61.28,14.84V280.67M130.19,14.84V280.67M199,14.84V280.67M267.87,14.84V280.67M336.64,14.84V280.67M405.42,14.84V280.67M474.33,14.84V280.67M543.1,14.84V280.67M612,14.84V280.67M680.78,14.84V280.67M749.55,14.84V280.67M818.46,14.84V280.67M887.23,14.84V280.67" style="fill:none;stroke:#d9d9d9;stroke-linejoin:round;stroke-width:0.817098913995479px"/></g><g style="clip-path:url(#clip-path)"><line x1="61.28" y1="280.67" x2="887.23" y2="280.67" style="fill:none;stroke:#d9d9d9;stroke-linejoin:round;stroke-width:1.36183150077816px"/></g><g style="clip-path:url(#clip-path)"><path d="M61.28,280.67v18.39m275.36-18.39v18.39M612,280.67v18.39m275.22-18.39v18.39" style="fill:none;stroke:#d9d9d9;stroke-linejoin:round;stroke-width:1.36183150077816px"/></g><g style="clip-path:url(#clip-path)"><path d="M61.28,299.06v18.52m275.36-18.52v18.52M612,299.06v18.52m275.22-18.52v18.52" style="fill:none;stroke:#d9d9d9;stroke-linejoin:round;stroke-width:1.36183150077816px"/></g><g style="clip-path:url(#clip-path-6)"><polyline points="95.74 161.1 164.65 126.51 233.42 94.65 302.19 78.71 371.1 68.09 439.87 54.75 508.64 73.4 577.55 86.61 646.33 115.89 715.23 134.55 784.01 147.76 852.78 163.69" style="fill:none;stroke:#ff25f3;stroke-linecap:round;stroke-linejoin:round;stroke-width:2.45129667434353px"/></g><g style="clip-path:url(#clip-path)"><polygon points="92.89 158.28 98.61 158.28 98.61 164 92.89 164 92.89 158.28 92.89 158.28" style="fill:#ff25f3;fill-rule:evenodd"/><polygon points="92.89 158.28 98.61 158.28 98.61 164 92.89 164 92.89 158.28 92.89 158.28" style="fill:none;stroke:#d9d9d9;stroke-linejoin:round;stroke-width:0.817098981638385px"/><polygon points="161.8 123.69 167.52 123.69 167.52 129.41 161.8 129.41 161.8 123.69 161.8 123.69" style="fill:#ff25f3;fill-rule:evenodd"/><polygon points="161.8 123.69 167.52 123.69 167.52 129.41 161.8 129.41 161.8 123.69 161.8 123.69" style="fill:none;stroke:#d9d9d9;stroke-linejoin:round;stroke-width:0.817098981638385px"/><polygon points="230.57 91.82 236.29 91.82 236.29 97.54 230.57 97.54 230.57 91.82 230.57 91.82" style="fill:#ff25f3;fill-rule:evenodd"/><polygon points="230.57 91.82 236.29 91.82 236.29 97.54 230.57 97.54 230.57 91.82 230.57 91.82" style="fill:none;stroke:#d9d9d9;stroke-linejoin:round;stroke-width:0.817098981638385px"/><polygon points="299.35 75.89 305.07 75.89 305.07 81.61 299.35 81.61 299.35 75.89 299.35 75.89" style="fill:#ff25f3;fill-rule:evenodd"/><polygon points="299.35 75.89 305.07 75.89 305.07 81.61 299.35 81.61 299.35 75.89 299.35 75.89" style="fill:none;stroke:#d9d9d9;stroke-linejoin:round;stroke-width:0.817098981638385px"/><polygon points="368.26 65.27 373.98 65.27 373.98 70.98 368.26 70.98 368.26 65.27 368.26 65.27" style="fill:#ff25f3;fill-rule:evenodd"/><polygon points="368.26 65.27 373.98 65.27 373.98 70.98 368.26 70.98 368.26 65.27 368.26 65.27" style="fill:none;stroke:#d9d9d9;stroke-linejoin:round;stroke-width:0.817098981638385px"/><polygon points="437.03 51.92 442.75 51.92 442.75 57.64 437.03 57.64 437.03 51.92 437.03 51.92" style="fill:#ff25f3;fill-rule:evenodd"/><polygon points="437.03 51.92 442.75 51.92 442.75 57.64 437.03 57.64 437.03 51.92 437.03 51.92" style="fill:none;stroke:#d9d9d9;stroke-linejoin:round;stroke-width:0.817098981638385px"/><polygon points="505.8 70.58 511.52 70.58 511.52 76.3 505.8 76.3 505.8 70.58 505.8 70.58" style="fill:#ff25f3;fill-rule:evenodd"/><polygon points="505.8 70.58 511.52 70.58 511.52 76.3 505.8 76.3 505.8 70.58 505.8 70.58" style="fill:none;stroke:#d9d9d9;stroke-linejoin:round;stroke-width:0.817098981638385px"/><polygon points="574.71 83.79 580.43 83.79 580.43 89.51 574.71 89.51 574.71 83.79 574.71 83.79" style="fill:#ff25f3;fill-rule:evenodd"/><polygon points="574.71 83.79 580.43 83.79 580.43 89.51 574.71 89.51 574.71 83.79 574.71 83.79" style="fill:none;stroke:#d9d9d9;stroke-linejoin:round;stroke-width:0.817098981638385px"/><polygon points="643.48 113.07 649.2 113.07 649.2 118.79 643.48 118.79 643.48 113.07 643.48 113.07" style="fill:#ff25f3;fill-rule:evenodd"/><polygon points="643.48 113.07 649.2 113.07 649.2 118.79 643.48 118.79 643.48 113.07 643.48 113.07" style="fill:none;stroke:#d9d9d9;stroke-linejoin:round;stroke-width:0.817098981638385px"/><polygon points="712.39 131.72 718.11 131.72 718.11 137.44 712.39 137.44 712.39 131.72 712.39 131.72" style="fill:#ff25f3;fill-rule:evenodd"/><polygon points="712.39 131.72 718.11 131.72 718.11 137.44 712.39 137.44 712.39 131.72 712.39 131.72" style="fill:none;stroke:#d9d9d9;stroke-linejoin:round;stroke-width:0.817098981638385px"/><polygon points="781.16 144.93 786.88 144.93 786.88 150.65 781.16 150.65 781.16 144.93 781.16 144.93" style="fill:#ff25f3;fill-rule:evenodd"/><polygon points="781.16 144.93 786.88 144.93 786.88 150.65 781.16 150.65 781.16 144.93 781.16 144.93" style="fill:none;stroke:#d9d9d9;stroke-linejoin:round;stroke-width:0.817098981638385px"/><polygon points="849.94 160.87 855.66 160.87 855.66 166.59 849.94 166.59 849.94 160.87 849.94 160.87" style="fill:#ff25f3;fill-rule:evenodd"/><polygon points="849.94 160.87 855.66 160.87 855.66 166.59 849.94 166.59 849.94 160.87 849.94 160.87" style="fill:none;stroke:#d9d9d9;stroke-linejoin:round;stroke-width:0.817098981638385px"/></g><g style="clip-path:url(#clip-path-6)"><polyline points="95.74 174.31 164.65 142.45 233.42 110.58 302.19 94.65 371.1 84.03 439.87 68.09 508.64 84.03 577.55 94.65 646.33 121.2 715.23 142.45 784.01 155.79 852.78 174.31" style="fill:none;stroke:#06f;stroke-linecap:round;stroke-linejoin:round;stroke-width:2.45129667434353px"/></g><g style="clip-path:url(#clip-path)"><path d="M98.61,174.35a2.86,2.86,0,1,1-2.86-2.86,2.86,2.86,0,0,1,2.86,2.86Z" style="fill:#06f"/><path d="M98.61,174.35a2.86,2.86,0,1,1-2.86-2.86,2.86,2.86,0,0,1,2.86,2.86Z" style="fill:none;stroke:#6b77e8;stroke-linejoin:round;stroke-width:0.817098981638385px"/><path d="M167.52,142.48a2.86,2.86,0,1,1-2.86-2.86,2.86,2.86,0,0,1,2.86,2.86Z" style="fill:#06f"/><path d="M167.52,142.48a2.86,2.86,0,1,1-2.86-2.86,2.86,2.86,0,0,1,2.86,2.86Z" style="fill:none;stroke:#6b77e8;stroke-linejoin:round;stroke-width:0.817098981638385px"/><path d="M236.29,110.61a2.86,2.86,0,1,1-2.86-2.86,2.86,2.86,0,0,1,2.86,2.86Z" style="fill:#06f"/><path d="M236.29,110.61a2.86,2.86,0,1,1-2.86-2.86,2.86,2.86,0,0,1,2.86,2.86Z" style="fill:none;stroke:#6b77e8;stroke-linejoin:round;stroke-width:0.817098981638385px"/><path d="M305.07,94.68a2.86,2.86,0,1,1-2.86-2.86,2.86,2.86,0,0,1,2.86,2.86Z" style="fill:#06f"/><path d="M305.07,94.68a2.86,2.86,0,1,1-2.86-2.86,2.86,2.86,0,0,1,2.86,2.86Z" style="fill:none;stroke:#6b77e8;stroke-linejoin:round;stroke-width:0.817098981638385px"/><path d="M374,84.06a2.86,2.86,0,1,1-2.86-2.86A2.86,2.86,0,0,1,374,84.06Z" style="fill:#06f"/><path d="M374,84.06a2.86,2.86,0,1,1-2.86-2.86A2.86,2.86,0,0,1,374,84.06Z" style="fill:none;stroke:#6b77e8;stroke-linejoin:round;stroke-width:0.817098981638385px"/><path d="M442.75,68.13a2.86,2.86,0,1,1-2.86-2.86,2.87,2.87,0,0,1,2.86,2.86Z" style="fill:#06f"/><path d="M442.75,68.13a2.86,2.86,0,1,1-2.86-2.86,2.87,2.87,0,0,1,2.86,2.86Z" style="fill:none;stroke:#6b77e8;stroke-linejoin:round;stroke-width:0.817098981638385px"/><path d="M511.52,84.06a2.86,2.86,0,1,1-2.86-2.86,2.86,2.86,0,0,1,2.86,2.86Z" style="fill:#06f"/><path d="M511.52,84.06a2.86,2.86,0,1,1-2.86-2.86,2.86,2.86,0,0,1,2.86,2.86Z" style="fill:none;stroke:#6b77e8;stroke-linejoin:round;stroke-width:0.817098981638385px"/><path d="M580.43,94.68a2.86,2.86,0,1,1-2.86-2.86,2.86,2.86,0,0,1,2.86,2.86Z" style="fill:#06f"/><path d="M580.43,94.68a2.86,2.86,0,1,1-2.86-2.86,2.86,2.86,0,0,1,2.86,2.86Z" style="fill:none;stroke:#6b77e8;stroke-linejoin:round;stroke-width:0.817098981638385px"/><path d="M649.2,121.24a2.86,2.86,0,1,1-2.86-2.86,2.86,2.86,0,0,1,2.86,2.86Z" style="fill:#06f"/><path d="M649.2,121.24a2.86,2.86,0,1,1-2.86-2.86,2.86,2.86,0,0,1,2.86,2.86Z" style="fill:none;stroke:#6b77e8;stroke-linejoin:round;stroke-width:0.817098981638385px"/><path d="M718.11,142.48a2.86,2.86,0,1,1-2.86-2.86,2.86,2.86,0,0,1,2.86,2.86Z" style="fill:#06f"/><path d="M718.11,142.48a2.86,2.86,0,1,1-2.86-2.86,2.86,2.86,0,0,1,2.86,2.86Z" style="fill:none;stroke:#6b77e8;stroke-linejoin:round;stroke-width:0.817098981638385px"/><path d="M786.88,155.83A2.86,2.86,0,1,1,784,153a2.86,2.86,0,0,1,2.86,2.86Z" style="fill:#06f"/><path d="M786.88,155.83A2.86,2.86,0,1,1,784,153a2.86,2.86,0,0,1,2.86,2.86Z" style="fill:none;stroke:#6b77e8;stroke-linejoin:round;stroke-width:0.817098981638385px"/><path d="M855.66,174.35a2.86,2.86,0,1,1-2.86-2.86,2.86,2.86,0,0,1,2.86,2.86Z" style="fill:#06f"/><path d="M855.66,174.35a2.86,2.86,0,1,1-2.86-2.86,2.86,2.86,0,0,1,2.86,2.86Z" style="fill:none;stroke:#6b77e8;stroke-linejoin:round;stroke-width:0.817098981638385px"/></g><g style="clip-path:url(#clip-path-10)"><text transform="translate(32.68 283.93)" style="font-size:10.213740348815918px;font-family:ArialMT, Arial"><tspan style="letter-spacing:0.0029639912966369472em">0</tspan><tspan x="5.71" y="0" style="letter-spacing:0.0020078650719153514em">.</tspan><tspan x="8.57" y="0" style="letter-spacing:-0.009083199134855162em">0</tspan><tspan x="14.16" y="0">0</tspan></text></g><g style="clip-path:url(#clip-path-10)"><text transform="translate(32.68 217.48)" style="font-size:10.213740348815918px;font-family:ArialMT, Arial"><tspan style="letter-spacing:0.0029639912966369472em">0</tspan><tspan x="5.71" y="0" style="letter-spacing:0.0020078650719153514em">.</tspan><tspan x="8.57" y="0" style="letter-spacing:-0.009083199134855162em">2</tspan><tspan x="14.16" y="0">5</tspan></text></g><g style="clip-path:url(#clip-path-10)"><text transform="translate(32.68 151.04)" style="font-size:10.213740348815918px;font-family:ArialMT, Arial"><tspan style="letter-spacing:0.0029639912966369472em">0</tspan><tspan x="5.71" y="0" style="letter-spacing:0.0020078650719153514em">.</tspan><tspan x="8.57" y="0" style="letter-spacing:-0.009083199134855162em">5</tspan><tspan x="14.16" y="0">0</tspan></text></g><g style="clip-path:url(#clip-path-10)"><text transform="translate(32.68 84.59)" style="font-size:10.213740348815918px;font-family:ArialMT, Arial"><tspan style="letter-spacing:0.0029639912966369472em">0</tspan><tspan x="5.71" y="0" style="letter-spacing:0.0020078650719153514em">.</tspan><tspan x="8.57" y="0" style="letter-spacing:-0.009083199134855162em">7</tspan><tspan x="14.16" y="0">5</tspan></text></g><g style="clip-path:url(#clip-path-10)"><text transform="translate(32.68 18.15)" style="font-size:10.213740348815918px;font-family:ArialMT, Arial"><tspan style="letter-spacing:0.0029639912966369472em">1</tspan><tspan x="5.71" y="0" style="letter-spacing:0.0020078650719153514em">.</tspan><tspan x="8.57" y="0" style="letter-spacing:-0.009083199134855162em">0</tspan><tspan x="14.16" y="0">0</tspan></text></g><g style="clip-path:url(#clip-path-10)"><text transform="translate(92.91 296.11)" style="font-size:10.213740348815918px;font-family:ArialMT, Arial">1</text></g><g style="clip-path:url(#clip-path-10)"><text transform="translate(161.74 296.11)" style="font-size:10.213740348815918px;font-family:ArialMT, Arial">2</text></g><g style="clip-path:url(#clip-path-10)"><text transform="translate(230.57 296.11)" style="font-size:10.213740348815918px;font-family:ArialMT, Arial">3</text></g><g style="clip-path:url(#clip-path-10)"><text transform="translate(299.39 296.11)" style="font-size:10.213740348815918px;font-family:ArialMT, Arial">4</text></g><g style="clip-path:url(#clip-path-10)"><text transform="translate(368.22 296.11)" style="font-size:10.213740348815918px;font-family:ArialMT, Arial">1</text></g><g style="clip-path:url(#clip-path-10)"><text transform="translate(437.04 296.11)" style="font-size:10.213740348815918px;font-family:ArialMT, Arial">2</text></g><g style="clip-path:url(#clip-path-10)"><text transform="translate(505.87 296.11)" style="font-size:10.213740348815918px;font-family:ArialMT, Arial">3</text></g><g style="clip-path:url(#clip-path-10)"><text transform="translate(574.7 296.11)" style="font-size:10.213740348815918px;font-family:ArialMT, Arial">4</text></g><g style="clip-path:url(#clip-path-10)"><text transform="translate(643.52 296.11)" style="font-size:10.213740348815918px;font-family:ArialMT, Arial">1</text></g><g style="clip-path:url(#clip-path-10)"><text transform="translate(712.34 296.11)" style="font-size:10.213740348815918px;font-family:ArialMT, Arial">2</text></g><g style="clip-path:url(#clip-path-10)"><text transform="translate(781.17 296.11)" style="font-size:10.213740348815918px;font-family:ArialMT, Arial">3</text></g><g style="clip-path:url(#clip-path-10)"><text transform="translate(850 296.11)" style="font-size:10.213740348815918px;font-family:ArialMT, Arial">4</text></g><g style="clip-path:url(#clip-path-10)"><text transform="translate(189.91 314.52)" style="font-size:10.213740348815918px;font-family:ArialMT, Arial">A<tspan x="6.81" y="0" style="letter-spacing:0.0029639912966369472em">u</tspan><tspan x="12.52" y="0">g</tspan></text></g><g style="clip-path:url(#clip-path-10)"><text transform="translate(465.21 314.52)" style="font-size:10.213740348815918px;font-family:ArialMT, Arial">S<tspan x="6.81" y="0" style="letter-spacing:0.0029639912966369472em">e</tspan><tspan x="12.52" y="0">p</tspan></text></g><g style="clip-path:url(#clip-path-10)"><text transform="translate(741.65 314.52)" style="font-size:10.213740348815918px;font-family:ArialMT, Arial;letter-spacing:-0.004015730143830703em">O<tspan x="7.9" y="0" style="letter-spacing:0.006119207838218214em">c</tspan><tspan x="13.07" y="0" style="letter-spacing:-0.0000956126224721596em">t</tspan></text></g><g style="clip-path:url(#clip-path-10)"><text transform="translate(24.33 151.81) rotate(-90)" style="font-size:11.303199768066406px;font-family:Arial-BoldMT, Arial;font-weight:700">ND<tspan x="16.33" y="0" style="letter-spacing:-0.003974261795046077em">V</tspan><tspan x="23.82" y="0">I</tspan><tspan x="26.96" y="0" style="letter-spacing:0.010972418434148952em"> </tspan><tspan x="30.22" y="0"> </tspan><tspan x="33.37" y="0" style="letter-spacing:-0.003974261795046077em">V</tspan><tspan x="40.86" y="0" style="letter-spacing:-0.0010367639465337594em">a</tspan><tspan x="47.13" y="0">l</tspan><tspan x="50.27" y="0" style="letter-spacing:0.003023894844056798em">u</tspan><tspan x="57.21" y="0">e</tspan></text></g><g style="clip-path:url(#clip-path-10)"><text transform="translate(430.03 333.99)" style="font-size:11.303199768066406px;font-family:Arial-BoldMT, Arial;font-weight:700"><tspan style="letter-spacing:0.006998156639102875em">W</tspan><tspan x="10.75" y="0" style="letter-spacing:-0.0010367639465337594em">ee</tspan><tspan x="23.3" y="0">k</tspan></text></g><polygon points="0 0 899.22 0 899.22 346.45 0 346.45 0 0 0 0" style="fill:none;stroke:#d9d9d9;stroke-linejoin:round;stroke-width:0.817098981638385px"/></svg>