<svg id="Layer_1" data-name="Layer 1" xmlns="http://www.w3.org/2000/svg" xmlns:xlink="http://www.w3.org/1999/xlink" viewBox="0 0 900 350"><defs><clipPath id="clip-path"><polygon points="0 349.76 900.78 349.76 900.78 0 0 0 0 349.76 0 349.76" style="fill:none;clip-rule:evenodd"/></clipPath><clipPath id="clip-path-3"><polygon points="97.13 306.06 887.49 306.06 887.49 23.56 97.13 23.56 97.13 306.06 97.13 306.06" style="fill:none;clip-rule:evenodd"/></clipPath><clipPath id="clip-path-5"><rect width="900.78" height="349.76" style="fill:none"/></clipPath></defs><title>price-volatility</title><polygon points="0.14 0.14 900.78 0.14 900.78 349.9 0.14 349.9 0.14 0.14 0.14 0.14" style="fill:#eaeaea;fill-rule:evenodd"/><polygon points="97.13 23.56 886.81 23.56 886.81 305.38 97.13 305.38 97.13 23.56 97.13 23.56" style="fill:#fff;fill-rule:evenodd"/><path d="M97.13,238.24H886.81M97.13,171.11H886.81m-789.68-67H886.81M97.13,37H886.81" style="fill:none;stroke:#d9d9d9;stroke-linejoin:round;stroke-width:0.822006927137342px"/><g style="clip-path:url(#clip-path)"><path d="M97.13,23.56V305.38M163,23.56V305.38M228.79,23.56V305.38M294.55,23.56V305.38M360.31,23.56V305.38m65.9-281.82V305.38M492,23.56V305.38M557.73,23.56V305.38m65.9-281.82V305.38M689.39,23.56V305.38M755.15,23.56V305.38M820.91,23.56V305.38m65.9-281.82V305.38" style="fill:none;stroke:#d9d9d9;stroke-linejoin:round;stroke-width:0.822006927137342px"/></g><g style="clip-path:url(#clip-path)"><line x1="97.13" y1="305.38" x2="886.81" y2="305.38" style="fill:none;stroke:#d9d9d9;stroke-linejoin:round;stroke-width:0.822006927137342px"/></g><g style="clip-path:url(#clip-path-3)"><polyline points="130.15 184.54 195.91 188.65 261.67 189.34 327.43 190.57 393.33 190.84 459.09 170.98 524.85 153.03 590.61 138.65 656.51 117 722.27 124.94 788.03 112.61 853.79 97.13" style="fill:none;stroke:#ff25f3;stroke-linecap:round;stroke-linejoin:round;stroke-width:2.46602071336281px"/></g><g style="clip-path:url(#clip-path-3)"><polyline points="130.15 177.83 195.91 181.12 261.67 178.1 327.43 176.87 393.33 176.59 459.09 203.17 524.85 213.45 590.61 217.83 656.51 223.45 722.27 223.18 788.03 175.22 853.79 127.27" style="fill:none;stroke:#06f;stroke-linecap:round;stroke-linejoin:round;stroke-width:2.46602071336281px"/></g><g style="clip-path:url(#clip-path-5)"><text transform="translate(56.93 308.6)" style="font-size:10.275090217590332px;font-family:ArialMT, Arial"><tspan style="letter-spacing:0.0019958766361867913em"> </tspan><tspan x="2.88" y="0" style="letter-spacing:0.003041335826570349em">1</tspan><tspan x="8.62" y="0" style="letter-spacing:-0.011024842371317515em">,</tspan><tspan x="11.36" y="0" style="letter-spacing:0.002946294081990026em">00</tspan><tspan x="22.85" y="0">0</tspan></text></g><g style="clip-path:url(#clip-path-5)"><text transform="translate(51.21 241.53)" style="font-size:10.275090217590332px;font-family:ArialMT, Arial"><tspan style="letter-spacing:0.0019958766361867913em"> </tspan><tspan x="2.88" y="0" style="letter-spacing:0.003041335826570349em">4</tspan><tspan x="8.62" y="0" style="letter-spacing:-0.009124007479711047em">6</tspan><tspan x="14.24" y="0" style="letter-spacing:0.002090918380767115em">,</tspan><tspan x="17.12" y="0" style="letter-spacing:0.002946294081990026em">00</tspan><tspan x="28.61" y="0">0</tspan></text></g><g style="clip-path:url(#clip-path-5)"><text transform="translate(51.21 174.45)" style="font-size:10.275090217590332px;font-family:ArialMT, Arial"><tspan style="letter-spacing:0.0019958766361867913em"> </tspan><tspan x="2.88" y="0" style="letter-spacing:0.003041335826570349em">9</tspan><tspan x="8.62" y="0" style="letter-spacing:-0.009124007479711047em">1</tspan><tspan x="14.24" y="0" style="letter-spacing:0.002090918380767115em">,</tspan><tspan x="17.12" y="0" style="letter-spacing:0.002946294081990026em">00</tspan><tspan x="28.61" y="0">0</tspan></text></g><g style="clip-path:url(#clip-path-5)"><text transform="translate(42.65 107.35)" style="font-size:10.275090217590332px;font-family:ArialMT, Arial"><tspan style="letter-spacing:0.0019958766361867913em"> </tspan><tspan x="2.88" y="0" style="letter-spacing:0.003041335826570349em">1</tspan><tspan x="8.62" y="0" style="letter-spacing:-0.011024842371317515em">,</tspan><tspan x="11.36" y="0" style="letter-spacing:0.002946294081990026em">36</tspan><tspan x="22.85" y="0" style="letter-spacing:0.002090918380767115em">,</tspan><tspan x="25.73" y="0" style="letter-spacing:-0.009028965735130724em">0</tspan><tspan x="31.35" y="0" style="letter-spacing:0.002946294081990026em">0</tspan><tspan x="37.1" y="0">0</tspan></text></g><g style="clip-path:url(#clip-path-5)"><text transform="translate(42.65 40.27)" style="font-size:10.275090217590332px;font-family:ArialMT, Arial"><tspan style="letter-spacing:0.0019958766361867913em"> </tspan><tspan x="2.88" y="0" style="letter-spacing:0.003041335826570349em">1</tspan><tspan x="8.62" y="0" style="letter-spacing:-0.011024842371317515em">,</tspan><tspan x="11.36" y="0" style="letter-spacing:0.002946294081990026em">81</tspan><tspan x="22.85" y="0" style="letter-spacing:0.002090918380767115em">,</tspan><tspan x="25.73" y="0" style="letter-spacing:-0.009028965735130724em">0</tspan><tspan x="31.35" y="0" style="letter-spacing:0.002946294081990026em">0</tspan><tspan x="37.1" y="0">0</tspan></text></g><g style="clip-path:url(#clip-path-5)"><text transform="translate(121.8 320.85)" style="font-size:10.275090217590332px;font-family:ArialMT, Arial"><tspan style="letter-spacing:0.005987629908560375em">J</tspan><tspan x="5.2" y="0" style="letter-spacing:-0.009028965735130724em">a</tspan><tspan x="10.82" y="0">n</tspan></text></g><g style="clip-path:url(#clip-path-5)"><text transform="translate(187.03 320.85)" style="font-size:10.275090217590332px;font-family:ArialMT, Arial"><tspan style="letter-spacing:0.0019958766361867913em">F</tspan><tspan x="6.3" y="0" style="letter-spacing:0.002946294081990026em">e</tspan><tspan x="12.04" y="0">b</tspan></text></g><g style="clip-path:url(#clip-path-5)"><text transform="translate(252.84 320.85)" style="font-size:10.275090217590332px;font-family:ArialMT, Arial"><tspan style="letter-spacing:-0.005987629908560375em">M</tspan><tspan x="8.5" y="0" style="letter-spacing:0.002946294081990026em">a</tspan><tspan x="14.24" y="0">r</tspan></text></g><g style="clip-path:url(#clip-path-5)"><text transform="translate(319.47 320.85)" style="font-size:10.275090217590332px;font-family:ArialMT, Arial">A<tspan x="6.85" y="0" style="letter-spacing:0.002946294081990026em">p</tspan><tspan x="12.6" y="0">r</tspan></text></g><g style="clip-path:url(#clip-path-5)"><text transform="translate(383.57 320.85)" style="font-size:10.275090217590332px;font-family:ArialMT, Arial"><tspan style="letter-spacing:-0.005987629908560375em">M</tspan><tspan x="8.5" y="0" style="letter-spacing:0.002946294081990026em">a</tspan><tspan x="14.24" y="0">y</tspan></text></g><g style="clip-path:url(#clip-path-5)"><text transform="translate(450.78 320.85)" style="font-size:10.275090217590332px;font-family:ArialMT, Arial"><tspan style="letter-spacing:0.005987629908560375em">J</tspan><tspan x="5.2" y="0" style="letter-spacing:-0.009028965735130724em">u</tspan><tspan x="10.82" y="0">n</tspan></text></g><g style="clip-path:url(#clip-path-5)"><text transform="translate(518.29 320.85)" style="font-size:10.275090217590332px;font-family:ArialMT, Arial"><tspan style="letter-spacing:0.005987629908560375em">J</tspan><tspan x="5.2" y="0" style="letter-spacing:-0.009028965735130724em">u</tspan><tspan x="10.82" y="0">l</tspan></text></g><g style="clip-path:url(#clip-path-5)"><text transform="translate(581.51 320.85)" style="font-size:10.275090217590332px;font-family:ArialMT, Arial">A<tspan x="6.85" y="0" style="letter-spacing:0.002946294081990026em">u</tspan><tspan x="12.6" y="0">g</tspan></text></g><g style="clip-path:url(#clip-path-5)"><text transform="translate(647.31 320.85)" style="font-size:10.275090217590332px;font-family:ArialMT, Arial">S<tspan x="6.85" y="0" style="letter-spacing:0.002946294081990026em">e</tspan><tspan x="12.6" y="0">p</tspan></text></g><g style="clip-path:url(#clip-path-5)"><text transform="translate(714.26 320.85)" style="font-size:10.275090217590332px;font-family:ArialMT, Arial"><tspan style="letter-spacing:-0.003991753272373583em">O</tspan><tspan x="7.95" y="0" style="letter-spacing:0.005987629908560375em">c</tspan><tspan x="13.15" y="0">t</tspan></text></g><g style="clip-path:url(#clip-path-5)"><text transform="translate(778.91 320.85)" style="font-size:10.275090217590332px;font-family:ArialMT, Arial;letter-spacing:-0.0019958766361867913em">N<tspan x="7.4" y="0" style="letter-spacing:0.003041335826570349em">o</tspan><tspan x="13.15" y="0" style="letter-spacing:-0.00009504174458032341em">v</tspan></text></g><g style="clip-path:url(#clip-path-5)"><text transform="translate(844.71 320.85)" style="font-size:10.275090217590332px;font-family:ArialMT, Arial;letter-spacing:-0.0019958766361867913em">D<tspan x="7.4" y="0" style="letter-spacing:0.003041335826570349em">e</tspan><tspan x="13.15" y="0" style="letter-spacing:-0.00009504174458032341em">c</tspan></text></g><g style="clip-path:url(#clip-path-5)"><text transform="translate(23.68 231.19) rotate(-90)" style="font-size:11.371100425720215px;font-family:Arial-BoldMT, Arial;font-weight:700"><tspan style="letter-spacing:0.021985559061155305em">M</tspan><tspan x="9.72" y="0" style="letter-spacing:-0.001030573080991655em">a</tspan><tspan x="16.04" y="0" style="letter-spacing:-0.0030058381528923267em">r</tspan><tspan x="20.43" y="0" style="letter-spacing:-0.000944691990909017em">ke</tspan><tspan x="33.05" y="0" style="letter-spacing:0.003950530143801344em">t</tspan><tspan x="36.88" y="0"> </tspan><tspan x="40.04" y="0" style="letter-spacing:-0.003950530143801344em">P</tspan><tspan x="47.58" y="0" style="letter-spacing:-0.0030058381528923267em">r</tspan><tspan x="51.97" y="0">i</tspan><tspan x="55.13" y="0" style="letter-spacing:-0.001030573080991655em">ce</tspan><tspan x="67.76" y="0" style="letter-spacing:0.02293025105206432em"> </tspan><tspan x="71.18" y="0" style="letter-spacing:0.004036411233883982em">(</tspan><tspan x="75.01" y="0">R</tspan><tspan x="83.22" y="0" style="letter-spacing:-0.001030573080991655em">s</tspan><tspan x="89.54" y="0">./</tspan><tspan x="95.85" y="0" style="letter-spacing:0.021985559061155305em">M</tspan><tspan x="105.58" y="0" style="letter-spacing:0.014943309674378995em">T</tspan><tspan x="112.69" y="0" style="letter-spacing:-0.00008588109008263791em">)</tspan></text></g><g style="clip-path:url(#clip-path-5)"><text transform="translate(449.16 343.4)" style="font-size:11.371100425720215px;font-family:Arial-BoldMT, Arial;font-weight:700"><tspan style="letter-spacing:0.021985559061155305em">M</tspan><tspan x="9.72" y="0" style="letter-spacing:0.002919957062809689em">on</tspan><tspan x="23.68" y="0" style="letter-spacing:0.003950530143801344em">t</tspan><tspan x="27.51" y="0" style="letter-spacing:0.002919957062809689em">h</tspan><tspan x="34.49" y="0" style="letter-spacing:-0.000944691990909017em">s</tspan><tspan x="40.81" y="0"> </tspan></text></g><g style="clip-path:url(#clip-path)"><line x1="349.9" y1="15.34" x2="371.82" y2="15.34" style="fill:none;stroke:#ff25f3;stroke-linecap:round;stroke-linejoin:round;stroke-width:2.46602071336281px"/></g><g style="clip-path:url(#clip-path-5)"><text transform="translate(374.11 18.19)" style="font-size:9.17908000946045px;font-family:Arial-BoldMT, Arial;font-weight:700"><tspan style="letter-spacing:-0.00500033091036298em">A</tspan><tspan x="6.58" y="0" style="letter-spacing:0.004042820736038154em">P</tspan><tspan x="12.74" y="0" style="letter-spacing:-0.00893676162703171em"> </tspan><tspan x="15.21" y="0" style="letter-spacing:-0.004042820736038154em">(</tspan><tspan x="18.23" y="0" style="letter-spacing:-0.00500033091036298em">R</tspan><tspan x="24.81" y="0" style="letter-spacing:0.01000066182072596em">-</tspan><tspan x="27.96" y="0" style="letter-spacing:-0.002978920542343903em">1</tspan><tspan x="33.04" y="0">)</tspan></text></g><g style="clip-path:url(#clip-path)"><line x1="459.09" y1="15.34" x2="481.01" y2="15.34" style="fill:none;stroke:#06f;stroke-linecap:round;stroke-linejoin:round;stroke-width:2.46602071336281px"/></g><g style="clip-path:url(#clip-path-5)"><text transform="translate(483.32 18.19)" style="font-size:9.17908000946045px;font-family:Arial-BoldMT, Arial;font-weight:700"><tspan style="letter-spacing:0.000957510174324826em">T</tspan><tspan x="5.62" y="0" style="letter-spacing:-0.01000066182072596em">E</tspan><tspan x="11.65" y="0" style="letter-spacing:0.0010639001936942512em">L</tspan><tspan x="17.26" y="0" style="letter-spacing:-0.00893676162703171em"> </tspan><tspan x="19.73" y="0" style="letter-spacing:0.01000066182072596em">(</tspan><tspan x="22.88" y="0" style="letter-spacing:-0.00500033091036298em">R</tspan><tspan x="29.46" y="0" style="letter-spacing:-0.004042820736038154em">-</tspan><tspan x="32.48" y="0" style="letter-spacing:-0.002872530522974478em">21</tspan><tspan x="42.64" y="0">)</tspan></text></g><polygon points="0.14 0.14 900.78 0.14 900.78 349.9 0.14 349.9 0.14 0.14 0.14 0.14" style="fill:none;stroke:#d9d9d9;stroke-linejoin:round;stroke-width:0.822006995186555px"/></svg>