<svg id="Layer_1" data-name="Layer 1" xmlns="http://www.w3.org/2000/svg" xmlns:xlink="http://www.w3.org/1999/xlink" viewBox="0 0 900 350"><defs><clipPath id="clip-path"><polygon points="2.85 2.85 895.57 2.85 895.57 333.84 2.85 333.84 2.85 2.85 2.85 2.85" style="fill:none;clip-rule:evenodd"/></clipPath><clipPath id="clip-path-2"><polygon points="2.85 2.85 895.57 2.85 895.57 95.97 2.85 95.97 2.85 2.85 2.85 2.85" style="fill:none;clip-rule:evenodd"/></clipPath><clipPath id="clip-path-4"><polygon points="2.85 312.68 894.72 312.68 894.72 333 2.85 333 2.85 312.68 2.85 312.68" style="fill:none;clip-rule:evenodd"/></clipPath><clipPath id="clip-path-5"><polygon points="264.81 96.81 421.65 96.81 421.65 167.92 264.81 167.92 264.81 96.81 264.81 96.81" style="fill:none;clip-rule:evenodd"/></clipPath><clipPath id="clip-path-6"><polygon points="264.81 168.77 421.65 168.77 421.65 239.88 264.81 239.88 264.81 168.77 264.81 168.77" style="fill:none;clip-rule:evenodd"/></clipPath><clipPath id="clip-path-7"><polygon points="737.88 240.72 842.15 240.72 842.15 311.83 737.88 311.83 737.88 240.72 737.88 240.72" style="fill:none;clip-rule:evenodd"/></clipPath><clipPath id="clip-path-8"><polygon points="2.85 168.77 117.3 168.77 117.3 311.83 2.85 311.83 2.85 168.77 2.85 168.77" style="fill:none;clip-rule:evenodd"/></clipPath><clipPath id="clip-path-9"><polygon points="118.15 168.77 211.4 168.77 211.4 311.83 118.15 311.83 118.15 168.77 118.15 168.77" style="fill:none;clip-rule:evenodd"/></clipPath><clipPath id="clip-path-10"><polygon points="2 2 895.57 2 895.57 333.84 2 333.84 2 2 2 2" style="fill:none;clip-rule:evenodd"/></clipPath></defs><title>seasonal-calendar</title><g style="clip-path:url(#clip-path)"><polyline points="2 2 2 96.81 895.57 96.81 895.57 2 2 2" style="fill:#d9d9d9;fill-rule:evenodd"/><polyline points="894.72 2 894.72 96.81 928.63 96.81 928.63 2 894.72 2" style="fill:#fff;fill-rule:evenodd"/><polyline points="2 95.97 2 240.72 212.25 240.72 212.25 95.97 2 95.97" style="fill:#f2f2f2;fill-rule:evenodd"/><polyline points="211.4 95.97 211.4 240.72 264.81 240.72 264.81 95.97 211.4 95.97" style="fill:#5e9fff;fill-rule:evenodd"/><polyline points="263.97 95.97 263.97 240.72 422.5 240.72 422.5 95.97 263.97 95.97" style="fill:#06f;fill-rule:evenodd"/><polyline points="421.65 95.97 421.65 240.72 475.06 240.72 475.06 95.97 421.65 95.97" style="fill:#0044ab;fill-rule:evenodd"/><polyline points="474.22 95.97 474.22 240.72 928.63 240.72 928.63 95.97 474.22 95.97" style="fill:#fff;fill-rule:evenodd"/><polyline points="2 239.88 2 312.68 212.25 312.68 212.25 239.88 2 239.88" style="fill:#f2f2f2;fill-rule:evenodd"/><polyline points="211.4 239.88 211.4 312.68 685.32 312.68 685.32 239.88 211.4 239.88" style="fill:#fff;fill-rule:evenodd"/><polyline points="684.47 239.88 684.47 312.68 737.88 312.68 737.88 239.88 684.47 239.88" style="fill:#5e9fff;fill-rule:evenodd"/><polyline points="737.03 239.88 737.03 312.68 843 312.68 843 239.88 737.03 239.88" style="fill:#06f;fill-rule:evenodd"/><polyline points="842.15 239.88 842.15 312.68 895.57 312.68 895.57 239.88 842.15 239.88" style="fill:#0044ab;fill-rule:evenodd"/><polyline points="894.72 239.88 894.72 312.68 928.63 312.68 928.63 239.88 894.72 239.88" style="fill:#fff;fill-rule:evenodd"/><polyline points="2 311.83 2 350.77 928.63 350.77 928.63 311.83 2 311.83" style="fill:#fff;fill-rule:evenodd"/></g><g style="clip-path:url(#clip-path-2)"><text transform="translate(9.63 53.64)" style="font-size:11.004940032958984px;font-family:Arial-BoldMT, Arial;font-weight:700;letter-spacing:-0.02897462622285562em">A<tspan x="7.63" y="0" style="letter-spacing:0.003987333883879214em">g</tspan><tspan x="14.39" y="0" style="letter-spacing:-0.003987333883879214em">r</tspan><tspan x="18.63" y="0" style="letter-spacing:0.003987333883879214em">o</tspan><tspan x="25.4" y="0" style="letter-spacing:-0.02498729233897641em">-</tspan><tspan x="28.79" y="0" style="letter-spacing:-0.017101231990859736em">c</tspan><tspan x="34.72" y="0" style="letter-spacing:0.02897462622285562em">li</tspan><tspan x="41.48" y="0" style="letter-spacing:0.032961960106734835em">m</tspan><tspan x="51.62" y="0" style="letter-spacing:0.05901254148141236em">a</tspan><tspan x="58.39" y="0" style="letter-spacing:-0.02498729233897641em">t</tspan><tspan x="61.78" y="0" style="letter-spacing:0.02897462622285562em">i</tspan><tspan x="65.16" y="0" style="letter-spacing:-0.017101231990859736em">c</tspan><tspan x="71.09" y="0" style="letter-spacing:0.02897462622285562em"> </tspan><tspan x="74.47" y="0" style="letter-spacing:0.03801258302631517em">z</tspan><tspan x="80.39" y="0" style="letter-spacing:0.003987333883879214em">on</tspan><tspan x="93.92" y="0" style="letter-spacing:-0.0000886074196417603em">e</tspan></text><text transform="translate(146.13 53.64)" style="font-size:11.004940032958984px;font-family:Arial-BoldMT, Arial;font-weight:700"><tspan style="letter-spacing:-0.02897462622285562em">R</tspan><tspan x="7.63" y="0" style="letter-spacing:0.05892393406177061em">e</tspan><tspan x="14.4" y="0" style="letter-spacing:0.003987333883879214em">g</tspan><tspan x="21.16" y="0" style="letter-spacing:0.02897462622285562em">i</tspan><tspan x="24.54" y="0" style="letter-spacing:0.003987333883879214em">o</tspan><tspan x="31.31" y="0">n</tspan></text><text transform="translate(228.36 53.64)" style="font-size:11.004940032958984px;font-family:Arial-BoldMT, Arial;font-weight:700;letter-spacing:-0.01701262457121798em">J<tspan x="5.93" y="0" style="letter-spacing:0.003987333883879214em">u</tspan><tspan x="12.7" y="0" style="letter-spacing:-0.0000886074196417603em">n</tspan></text><text transform="translate(282.62 53.64)" style="font-size:11.004940032958984px;font-family:Arial-BoldMT, Arial;font-weight:700;letter-spacing:-0.01701262457121798em">J<tspan x="5.93" y="0" style="letter-spacing:0.003987333883879214em">u</tspan><tspan x="12.7" y="0" style="letter-spacing:-0.0000886074196417603em">l</tspan></text><text transform="translate(332.64 53.64)" style="font-size:11.004940032958984px;font-family:Arial-BoldMT, Arial;font-weight:700"><tspan style="letter-spacing:-0.02897462622285562em">A</tspan><tspan x="7.63" y="0" style="letter-spacing:0.003987333883879214em">u</tspan><tspan x="14.39" y="0">g</tspan></text><text transform="translate(385.2 53.64)" style="font-size:11.004940032958984px;font-family:Arial-BoldMT, Arial;font-weight:700"><tspan style="letter-spacing:0.025075899758618167em">S</tspan><tspan x="7.62" y="0" style="letter-spacing:0.05892393406177061em">e</tspan><tspan x="14.38" y="0">p</tspan></text><text transform="translate(439.46 53.64)" style="font-size:11.004940032958984px;font-family:Arial-BoldMT, Arial;font-weight:700"><tspan style="letter-spacing:-0.007974667767758428em">O</tspan><tspan x="8.47" y="0" style="letter-spacing:-0.01701262457121798em">c</tspan><tspan x="14.41" y="0">t</tspan></text><text transform="translate(491.17 53.64)" style="font-size:11.004940032958984px;font-family:Arial-BoldMT, Arial;font-weight:700;letter-spacing:-0.02897462622285562em">N<tspan x="7.63" y="0" style="letter-spacing:0.003987333883879214em">o</tspan><tspan x="14.39" y="0" style="letter-spacing:-0.0000886074196417603em">v</tspan></text><text transform="translate(543.74 53.64)" style="font-size:11.004940032958984px;font-family:Arial-BoldMT, Arial;font-weight:700"><tspan style="letter-spacing:-0.02897462622285562em">D</tspan><tspan x="7.63" y="0" style="letter-spacing:0.05892393406177061em">e</tspan><tspan x="14.4" y="0">c</tspan></text><text transform="translate(596.3 53.64)" style="font-size:11.004940032958984px;font-family:Arial-BoldMT, Arial;font-weight:700"><tspan style="letter-spacing:-0.01701262457121798em">J</tspan><tspan x="5.93" y="0" style="letter-spacing:0.05892393406177061em">a</tspan><tspan x="12.7" y="0">n</tspan></text><text transform="translate(648.86 53.64)" style="font-size:11.004940032958984px;font-family:Arial-BoldMT, Arial;font-weight:700"><tspan style="letter-spacing:0.003987333883879214em">F</tspan><tspan x="6.77" y="0" style="letter-spacing:0.05892393406177061em">e</tspan><tspan x="13.54" y="0">b</tspan></text><text transform="translate(701.43 53.64)" style="font-size:11.004940032958984px;font-family:Arial-BoldMT, Arial;font-weight:700"><tspan style="letter-spacing:0.013025290687338766em">M</tspan><tspan x="9.31" y="0" style="letter-spacing:0.05892393406177061em">a</tspan><tspan x="16.08" y="0">r</tspan></text><text transform="translate(754.84 53.64)" style="font-size:11.004940032958984px;font-family:Arial-BoldMT, Arial;font-weight:700"><tspan style="letter-spacing:-0.02897462622285562em">A</tspan><tspan x="7.63" y="0" style="letter-spacing:0.003987333883879214em">p</tspan><tspan x="14.39" y="0">r</tspan></text><text transform="translate(805.7 53.64)" style="font-size:11.004940032958984px;font-family:Arial-BoldMT, Arial;font-weight:700"><tspan style="letter-spacing:0.013025290687338766em">M</tspan><tspan x="9.31" y="0" style="letter-spacing:0.05892393406177061em">a</tspan><tspan x="16.08" y="0">y</tspan></text><text transform="translate(859.11 53.64)" style="font-size:11.004940032958984px;font-family:Arial-BoldMT, Arial;font-weight:700;letter-spacing:-0.01701262457121798em">J<tspan x="5.93" y="0" style="letter-spacing:0.003987333883879214em">u</tspan><tspan x="12.7" y="0" style="letter-spacing:-0.0000886074196417603em">n</tspan></text></g><g style="clip-path:url(#clip-path)"><text transform="translate(46.94 136.6)" style="font-size:11.004940032958984px;font-family:Arial-BoldMT, Arial;font-weight:700"><tspan style="letter-spacing:0.02897462622285562em"> </tspan><tspan x="3.38" y="0" style="letter-spacing:-0.007974667767758428em">G</tspan><tspan x="11.85" y="0" style="letter-spacing:0.025075899758618167em">P</tspan><tspan x="19.46" y="0">H</tspan></text><text transform="translate(127.48 136.6)" style="font-size:11.004940032958984px;font-family:Arial-BoldMT, Arial;font-weight:700;letter-spacing:-0.02897462622285562em">R<tspan x="7.63" y="0" style="letter-spacing:-0.02498729233897641em">-</tspan><tspan x="11.02" y="0" style="letter-spacing:-0.01701262457121798em">1</tspan><tspan x="16.95" y="0" style="letter-spacing:-0.0000886074196417603em">1</tspan></text></g><g style="clip-path:url(#clip-path-4)"><text transform="translate(4.54 329.6)" style="font-size:10.15839958190918px;font-family:Arial-BoldMT, Arial;font-weight:700"><tspan style="letter-spacing:-0.05500309149136522em">N</tspan><tspan x="6.78" y="0" style="letter-spacing:-0.026973592860512437em">o</tspan><tspan x="12.71" y="0" style="letter-spacing:0.00009599143366730406em">t</tspan><tspan x="16.09" y="0" style="letter-spacing:0.026973592860512437em">e</tspan><tspan x="22.02" y="0">:</tspan></text><text transform="translate(29.13 329.6)" style="font-size:10.15839958190918px;font-family:ArialMT, Arial"> </text><text transform="translate(31.67 329.6)" style="font-size:10.15839958190918px;font-family:Arial-BoldMT, Arial;font-weight:700"><tspan style="letter-spacing:-0.11096609731940349em">G</tspan><tspan x="6.77" y="0">PH</tspan></text><text transform="translate(52.02 329.6)" style="font-size:10.15839958190918px;font-family:ArialMT, Arial"><tspan xml:space="preserve" style="letter-spacing:-0.026973592860512437em"> G</tspan><tspan x="10.18" y="0" style="letter-spacing:0.026973592860512437em">uja</tspan><tspan x="24.55" y="0">r</tspan><tspan x="27.94" y="0" style="letter-spacing:0.026973592860512437em">a</tspan><tspan x="33.86" y="0" style="letter-spacing:-0.026973592860512437em">t </tspan><tspan x="38.96" y="0">P</tspan><tspan x="45.73" y="0" style="letter-spacing:0.027069584294179744em">lain</tspan><tspan x="62.64" y="0" style="letter-spacing:0.0829365986885507em">s</tspan><tspan x="68.56" y="0" style="letter-spacing:-0.026973592860512437em"> </tspan><tspan x="71.11" y="0" style="letter-spacing:0.027069584294179744em">and</tspan><tspan x="88.89" y="0" style="letter-spacing:-0.026973592860512437em"> </tspan><tspan x="91.43" y="0" style="letter-spacing:0.026973592860512437em">Hill</tspan><tspan x="106.64" y="0" style="letter-spacing:0.08303259012221802em">s</tspan><tspan x="112.56" y="0" style="letter-spacing:-0.026973592860512437em">,</tspan><tspan x="115.11" y="0"> </tspan></text><text transform="translate(169.86 329.6)" style="font-size:10.15839958190918px;font-family:Arial-BoldMT, Arial;font-weight:700"><tspan style="letter-spacing:0.05596300582803827em">W</tspan><tspan x="10.16" y="0" style="letter-spacing:-0.05500309149136522em">DR</tspan><tspan x="23.71" y="0"> </tspan></text><text transform="translate(196.14 329.6)" style="font-size:10.15839958190918px;font-family:ArialMT, Arial"><tspan style="letter-spacing:-0.027069584294179744em">W</tspan><tspan x="9.31" y="0" style="letter-spacing:0.026973592860512437em">e</tspan><tspan x="15.24" y="0" style="letter-spacing:0.08303259012221802em">s</tspan><tspan x="21.16" y="0" style="letter-spacing:-0.026973592860512437em">t</tspan><tspan x="23.71" y="0" style="letter-spacing:0.026973592860512437em">e</tspan><tspan x="29.63" y="0">r</tspan><tspan x="33.01" y="0" style="letter-spacing:0.026973592860512437em">n</tspan><tspan x="38.94" y="0" style="letter-spacing:-0.026973592860512437em"> </tspan><tspan x="41.49" y="0" style="letter-spacing:0.027069584294179744em">D</tspan><tspan x="49.1" y="0">r</tspan><tspan x="52.48" y="0" style="letter-spacing:-0.08303259012221802em">y</tspan><tspan x="56.72" y="0" style="letter-spacing:-0.026973592860512437em"> </tspan><tspan x="59.26" y="0" style="letter-spacing:0.027069584294179744em">Regio</tspan><tspan x="87.18" y="0">n</tspan></text></g><g style="clip-path:url(#clip-path-5)"><text transform="translate(327.55 135.75)" style="font-size:11.004940032958984px;fill:#fff;font-family:Arial-BoldMT, Arial;font-weight:700"><tspan style="letter-spacing:-0.02897462622285562em">K</tspan><tspan x="7.63" y="0" style="letter-spacing:0.003987333883879214em">h</tspan><tspan x="14.39" y="0" style="letter-spacing:0.05892393406177061em">a</tspan><tspan x="21.16" y="0" style="letter-spacing:-0.003987333883879214em">r</tspan><tspan x="25.4" y="0" style="letter-spacing:0.02897462622285562em">i</tspan><tspan x="28.78" y="0">f</tspan></text></g><g style="clip-path:url(#clip-path-6)"><text transform="translate(327.55 207.71)" style="font-size:11.004940032958984px;fill:#fff;font-family:Arial-BoldMT, Arial;font-weight:700"><tspan style="letter-spacing:-0.02897462622285562em">K</tspan><tspan x="7.63" y="0" style="letter-spacing:0.003987333883879214em">h</tspan><tspan x="14.39" y="0" style="letter-spacing:0.05892393406177061em">a</tspan><tspan x="21.16" y="0" style="letter-spacing:-0.003987333883879214em">r</tspan><tspan x="25.4" y="0" style="letter-spacing:0.02897462622285562em">i</tspan><tspan x="28.78" y="0">f</tspan></text></g><g style="clip-path:url(#clip-path-7)"><text transform="translate(767.56 279.66)" style="font-size:11.004940032958984px;fill:#fff;font-family:Arial-BoldMT, Arial;font-weight:700"><tspan style="letter-spacing:0.025075899758618167em">S</tspan><tspan x="7.62" y="0" style="letter-spacing:0.003987333883879214em">u</tspan><tspan x="14.38" y="0" style="letter-spacing:0.032961960106734835em">mm</tspan><tspan x="34.68" y="0" style="letter-spacing:0.05892393406177061em">e</tspan><tspan x="41.45" y="0">r</tspan></text></g><g style="clip-path:url(#clip-path-8)"><text transform="translate(46.94 244.11)" style="font-size:11.004940032958984px;font-family:Arial-BoldMT, Arial;font-weight:700"><tspan style="letter-spacing:0.05599988921359251em">W</tspan><tspan x="11" y="0" style="letter-spacing:-0.02897462622285562em">D</tspan><tspan x="18.63" y="0">R</tspan></text></g><g style="clip-path:url(#clip-path-9)"><text transform="translate(127.48 244.11)" style="font-size:11.004940032958984px;font-family:Arial-BoldMT, Arial;font-weight:700;letter-spacing:-0.02897462622285562em">R<tspan x="7.63" y="0" style="letter-spacing:-0.02498729233897641em">-</tspan><tspan x="11.02" y="0" style="letter-spacing:-0.01701262457121798em">2</tspan><tspan x="16.95" y="0" style="letter-spacing:-0.0000886074196417603em">5</tspan></text></g><g style="clip-path:url(#clip-path-10)"><polyline points="2.85 2 2.85 2.85 895.57 2.85 895.57 2 2.85 2" style="fill:#bfbfbf;fill-rule:evenodd"/><polyline points="263.97 2.85 263.97 96.81 264.81 96.81 264.81 2.85 263.97 2.85" style="fill:#bfbfbf;fill-rule:evenodd"/><polyline points="421.65 2.85 421.65 96.81 422.5 96.81 422.5 2.85 421.65 2.85" style="fill:#bfbfbf;fill-rule:evenodd"/><polyline points="474.22 2.85 474.22 96.81 475.06 96.81 475.06 2.85 474.22 2.85" style="fill:#bfbfbf;fill-rule:evenodd"/><polyline points="2.85 95.97 2.85 96.81 895.57 96.81 895.57 95.97 2.85 95.97" style="fill:#bfbfbf;fill-rule:evenodd"/><polyline points="2.85 167.92 2.85 168.77 895.57 168.77 895.57 167.92 2.85 167.92" style="fill:#bfbfbf;fill-rule:evenodd"/><polyline points="684.47 2.85 684.47 96.81 685.32 96.81 685.32 2.85 684.47 2.85" style="fill:#bfbfbf;fill-rule:evenodd"/><polyline points="737.03 2.85 737.03 96.81 737.88 96.81 737.88 2.85 737.03 2.85" style="fill:#bfbfbf;fill-rule:evenodd"/><polyline points="842.15 2.85 842.15 96.81 843 96.81 843 2.85 842.15 2.85" style="fill:#bfbfbf;fill-rule:evenodd"/><polyline points="212.25 239.88 212.25 240.72 895.57 240.72 895.57 239.88 212.25 239.88" style="fill:#bfbfbf;fill-rule:evenodd"/><polyline points="2 2 2 312.68 2.85 312.68 2.85 2 2 2" style="fill:#bfbfbf;fill-rule:evenodd"/><polyline points="2.85 311.83 2.85 312.68 895.57 312.68 895.57 311.83 2.85 311.83" style="fill:#bfbfbf;fill-rule:evenodd"/><polyline points="894.72 2.85 894.72 312.68 895.57 312.68 895.57 2.85 894.72 2.85" style="fill:#bfbfbf;fill-rule:evenodd"/><polyline points="117.3 2 117.3 312.68 118.15 312.68 118.15 2 117.3 2" style="fill:#bfbfbf;fill-rule:evenodd"/><polyline points="211.4 2.85 211.4 312.68 212.25 312.68 212.25 2.85 211.4 2.85" style="fill:#bfbfbf;fill-rule:evenodd"/><polyline points="316.53 2.85 316.53 96.81 317.38 96.81 317.38 2.85 316.53 2.85" style="fill:#bfbfbf;fill-rule:evenodd"/><polyline points="369.09 2.85 369.09 96.81 369.94 96.81 369.94 2.85 369.09 2.85" style="fill:#bfbfbf;fill-rule:evenodd"/><polyline points="526.78 2.85 526.78 96.81 527.63 96.81 527.63 2.85 526.78 2.85" style="fill:#bfbfbf;fill-rule:evenodd"/><polyline points="579.34 2.85 579.34 96.81 580.19 96.81 580.19 2.85 579.34 2.85" style="fill:#bfbfbf;fill-rule:evenodd"/><polyline points="631.9 2.85 631.9 96.81 632.75 96.81 632.75 2.85 631.9 2.85" style="fill:#bfbfbf;fill-rule:evenodd"/><polyline points="789.59 2.85 789.59 96.81 790.44 96.81 790.44 2.85 789.59 2.85" style="fill:#bfbfbf;fill-rule:evenodd"/><polyline points="2 333 2 333.84 895.57 333.84 895.57 333 2 333" style="fill:#fff;fill-rule:evenodd"/><polyline points="894.72 312.68 894.72 333.84 895.57 333.84 895.57 312.68 894.72 312.68" style="fill:#fff;fill-rule:evenodd"/></g></svg>