<svg id="Layer_1" data-name="Layer 1" xmlns="http://www.w3.org/2000/svg" xmlns:xlink="http://www.w3.org/1999/xlink" viewBox="0 0 900 350"><defs><clipPath id="clip-path"><polygon points="0 349.49 900.78 349.49 900.78 0 0 0 0 349.49 0 349.49" style="fill:none;clip-rule:evenodd"/></clipPath><clipPath id="clip-path-2"><polygon points="79.87 320.04 883.38 320.04 883.38 17.81 79.87 17.81 79.87 320.04 79.87 320.04" style="fill:none;clip-rule:evenodd"/></clipPath><clipPath id="clip-path-6"><rect width="900.78" height="349.49" style="fill:none"/></clipPath><clipPath id="clip-path-11"><rect x="586.78" y="69.32" width="185.91" height="18.5" style="fill:none"/></clipPath></defs><title>yar</title><polygon points="0 0.14 900.78 0.14 900.78 349.63 0 349.63 0 0.14 0 0.14" style="fill:#eaeaea;fill-rule:evenodd"/><polygon points="80.01 17.95 882.56 17.95 882.56 319.21 80.01 319.21 80.01 17.95 80.01 17.95" style="fill:#fff;fill-rule:evenodd"/><path d="M80,319.21H882.56M80,168.65H882.56M80,93.3H882.56M80,18H882.56" style="fill:none;stroke:#d9d9d9;stroke-linejoin:round;stroke-width:0.822006923865617px"/><g style="clip-path:url(#clip-path)"><path d="M80,18V319.21M481.29,18V319.21M882.56,18V319.21" style="fill:none;stroke:#d9d9d9;stroke-linejoin:round;stroke-width:0.822006923865617px"/></g><g style="clip-path:url(#clip-path-2)"><path d="M236.05,243.86h89.19v12.2H236.05v-12.2Zm401.28,0h89.19V260.3H637.33V243.86Z" style="fill:#ff25f3"/></g><g style="clip-path:url(#clip-path-2)"><path d="M236.05,110.29h89.19V243.86H236.05V110.29Zm401.28,6.3h89.19V243.86H637.33V116.59Z" style="fill:#5e9fff"/></g><g style="clip-path:url(#clip-path-2)"><path d="M236.05,98.23h89.19v12.06H236.05V98.23Zm401.28,1.92h89.19v16.44H637.33V100.15Z" style="fill:#0044ab"/></g><g style="clip-path:url(#clip-path)"><line x1="80.01" y1="243.86" x2="882.56" y2="243.86" style="fill:none;stroke:#d9d9d9;stroke-linejoin:round;stroke-width:0.822006923865617px"/></g><g style="clip-path:url(#clip-path-6)"><text transform="translate(272.2 284.8)" style="font-size:10.275090217590332px;font-family:Arial-BoldMT, Arial;font-weight:700">-</text></g><g style="clip-path:url(#clip-path-6)"><text transform="translate(275.62 284.8)" style="font-size:10.275090217590332px;font-family:Arial-BoldMT, Arial;font-weight:700;letter-spacing:0.002946294081990026em">9<tspan x="5.75" y="0" style="letter-spacing:0.00009504174458032341em">%</tspan></text></g><g style="clip-path:url(#clip-path-6)"><text transform="translate(671.95 284.47)" style="font-size:10.275090217590332px;font-family:Arial-BoldMT, Arial;font-weight:700">-</text></g><g style="clip-path:url(#clip-path-6)"><text transform="translate(675.36 284.47)" style="font-size:10.275090217590332px;font-family:Arial-BoldMT, Arial;font-weight:700;letter-spacing:0.002946294081990026em">13<tspan x="11.49" y="0" style="letter-spacing:0.00009504174458032341em">%</tspan></text></g><g style="clip-path:url(#clip-path-6)"><text transform="translate(268.95 79.39)" style="font-size:10.275090217590332px;font-family:Arial-BoldMT, Arial;font-weight:700"><tspan style="letter-spacing:0.002090918380767115em">+</tspan><tspan x="6.02" y="0" style="letter-spacing:0.002946294081990026em">9</tspan><tspan x="11.77" y="0">%</tspan></text></g><g style="clip-path:url(#clip-path-11)"><text transform="translate(666.24 82.23)" style="font-size:10.275090217590332px;font-family:ArialMT, Arial"><tspan style="letter-spacing:0.0019958766361867913em">+</tspan><tspan x="6.02" y="0" style="letter-spacing:0.002946294081990026em">13</tspan><tspan x="17.51" y="0">%</tspan></text></g><g style="clip-path:url(#clip-path-6)"><text transform="translate(44.89 322.52)" style="font-size:10.275090217590332px;font-family:Arial-BoldMT, Arial;font-weight:700">-<tspan x="3.42" y="0" style="letter-spacing:0.002946294081990026em">0</tspan><tspan x="9.17" y="0" style="letter-spacing:0.0019958766361867913em">.</tspan><tspan x="12.04" y="0" style="letter-spacing:-0.009028965735130724em">1</tspan><tspan x="17.66" y="0">5</tspan></text></g><g style="clip-path:url(#clip-path-6)"><text transform="translate(48.31 247.19)" style="font-size:10.275090217590332px;font-family:Arial-BoldMT, Arial;font-weight:700"><tspan style="letter-spacing:0.002946294081990026em">0</tspan><tspan x="5.75" y="0" style="letter-spacing:0.002090918380767115em">.</tspan><tspan x="8.62" y="0" style="letter-spacing:-0.009124007479711047em">0</tspan><tspan x="14.24" y="0">0</tspan></text></g><g style="clip-path:url(#clip-path-6)"><text transform="translate(48.31 171.86)" style="font-size:10.275090217590332px;font-family:Arial-BoldMT, Arial;font-weight:700"><tspan style="letter-spacing:0.002946294081990026em">0</tspan><tspan x="5.75" y="0" style="letter-spacing:0.002090918380767115em">.</tspan><tspan x="8.62" y="0" style="letter-spacing:-0.009124007479711047em">1</tspan><tspan x="14.24" y="0">5</tspan></text></g><g style="clip-path:url(#clip-path-6)"><text transform="translate(48.31 96.52)" style="font-size:10.275090217590332px;font-family:Arial-BoldMT, Arial;font-weight:700"><tspan style="letter-spacing:0.002946294081990026em">0</tspan><tspan x="5.75" y="0" style="letter-spacing:0.002090918380767115em">.</tspan><tspan x="8.62" y="0" style="letter-spacing:-0.009124007479711047em">3</tspan><tspan x="14.24" y="0">0</tspan></text></g><g style="clip-path:url(#clip-path-6)"><text transform="translate(48.31 21.21)" style="font-size:10.275090217590332px;font-family:Arial-BoldMT, Arial;font-weight:700"><tspan style="letter-spacing:0.002946294081990026em">0</tspan><tspan x="5.75" y="0" style="letter-spacing:0.002090918380767115em">.</tspan><tspan x="8.62" y="0" style="letter-spacing:-0.009124007479711047em">4</tspan><tspan x="14.24" y="0">5</tspan></text></g><g style="clip-path:url(#clip-path-6)"><text transform="translate(269.51 334.76)" style="font-size:10.275090217590332px;font-family:Arial-BoldMT, Arial;font-weight:700"><tspan style="letter-spacing:-0.0019958766361867913em">R</tspan><tspan x="7.4" y="0">-</tspan><tspan x="10.82" y="0" style="letter-spacing:0.002946294081990026em">1</tspan><tspan x="16.57" y="0">1</tspan></text></g><g style="clip-path:url(#clip-path-6)"><text transform="translate(670.79 334.76)" style="font-size:10.275090217590332px;font-family:Arial-BoldMT, Arial;font-weight:700"><tspan style="letter-spacing:-0.0019958766361867913em">R</tspan><tspan x="7.4" y="0">-</tspan><tspan x="10.82" y="0" style="letter-spacing:0.002946294081990026em">2</tspan><tspan x="16.57" y="0">5</tspan></text></g><g style="clip-path:url(#clip-path-6)"><text transform="translate(24.09 227.05) rotate(-90)" style="font-size:11.371100425720215px;font-family:Arial-BoldMT, Arial;font-weight:700"><tspan style="letter-spacing:0.004981103224792998em">Q</tspan><tspan x="8.9" y="0" style="letter-spacing:0.0030058381528923267em">u</tspan><tspan x="15.88" y="0" style="letter-spacing:-0.001030573080991655em">a</tspan><tspan x="22.19" y="0" style="letter-spacing:0.0030058381528923267em">n</tspan><tspan x="29.17" y="0" style="letter-spacing:0.003950530143801344em">t</tspan><tspan x="33.01" y="0">i</tspan><tspan x="36.17" y="0" style="letter-spacing:0.003950530143801344em">t</tspan><tspan x="40" y="0" style="letter-spacing:-0.013053925692560961em">y</tspan><tspan x="46.17" y="0" style="letter-spacing:0.010992779530577652em"> </tspan><tspan x="49.46" y="0">&amp; </tspan><tspan x="60.83" y="0" style="letter-spacing:0.0070422493867763085em">Y</tspan><tspan x="68.49" y="0" style="letter-spacing:-0.000944691990909017em">a</tspan><tspan x="74.81" y="0" style="letter-spacing:-0.00008588109008263791em">R</tspan><tspan x="83.02" y="0" style="letter-spacing:0.01107866062066029em"> </tspan><tspan x="86.3" y="0" style="letter-spacing:0.003950530143801344em">(</tspan><tspan x="90.13" y="0" style="letter-spacing:0.021899677971072666em">M</tspan><tspan x="99.86" y="0" style="letter-spacing:0.015029190764461634em">T</tspan><tspan x="106.97" y="0" style="letter-spacing:-0.00008588109008263791em">)</tspan></text></g><g style="clip-path:url(#clip-path-6)"><text transform="translate(426.99 338.4)" style="font-size:11.371100425720215px;font-family:Arial-BoldMT, Arial;font-weight:700">R<tspan x="8.21" y="0" style="letter-spacing:-0.001030573080991655em">e</tspan><tspan x="14.52" y="0" style="letter-spacing:0.0030058381528923267em">g</tspan><tspan x="21.5" y="0">i</tspan><tspan x="24.66" y="0" style="letter-spacing:0.002919957062809689em">on</tspan><tspan x="38.62" y="0">s</tspan></text></g><polygon points="0 0.14 900.78 0.14 900.78 349.63 0 349.63 0 0.14 0 0.14" style="fill:none;stroke:#d9d9d9;stroke-linejoin:round;stroke-width:0.822006991914829px"/></svg>