<svg id="Layer_1" data-name="Layer 1" xmlns="http://www.w3.org/2000/svg" xmlns:xlink="http://www.w3.org/1999/xlink" viewBox="0 0 900 350"><defs><clipPath id="clip-path"><polygon points="1.62 347.85 872.03 347.85 872.03 2.73 1.62 2.73 1.62 347.85 1.62 347.85" style="fill:none;clip-rule:evenodd"/></clipPath><clipPath id="clip-path-2"><polygon points="117.16 288.56 819 288.56 819 20.21 117.16 20.21 117.16 288.56 117.16 288.56" style="fill:none;clip-rule:evenodd"/></clipPath><clipPath id="clip-path-13"><rect x="1.62" y="2.73" width="870.41" height="345.12" style="fill:none"/></clipPath></defs><title>ground-truth-risk-report</title><polygon points="1.81 2.92 900.39 2.92 900.39 347.85 1.81 347.85 1.81 2.92 1.81 2.92" style="fill:#eaeaea;fill-rule:evenodd"/><polygon points="117.35 20.21 817.86 20.21 817.86 287.42 117.35 287.42 117.35 20.21 117.35 20.21" style="fill:#fff;fill-rule:evenodd"/><path d="M117.35,207.22H817.86m-700.51-80H817.86M117.35,47H817.86" style="fill:none;stroke:#d9d9d9;stroke-linejoin:round;stroke-width:0.719999969005585px"/><g style="clip-path:url(#clip-path)"><path d="M117.35,20.21V287.42M350.92,20.21V287.42M584.3,20.21V287.42M817.86,20.21V287.42" style="fill:none;stroke:#d9d9d9;stroke-linejoin:round;stroke-width:0.719999969005585px"/></g><g style="clip-path:url(#clip-path-2)"><polygon points="189.19 121.89 278.89 121.89 278.89 287.42 189.19 287.42 189.19 121.89 189.19 121.89" style="fill:#5e9fff;fill-rule:evenodd"/><polygon points="189.19 121.89 278.89 121.89 278.89 287.42 189.19 287.42 189.19 121.89 189.19 121.89" style="fill:none;stroke:#7f7f7f;stroke-linejoin:round;stroke-width:0.719999969005585px"/><polygon points="422.76 116.38 512.46 116.38 512.46 287.42 422.76 287.42 422.76 116.38 422.76 116.38" style="fill:#5e9fff;fill-rule:evenodd"/><polygon points="422.76 116.38 512.46 116.38 512.46 287.42 422.76 287.42 422.76 116.38 422.76 116.38" style="fill:none;stroke:#7f7f7f;stroke-linejoin:round;stroke-width:0.719999969005585px"/><polygon points="656.13 111.06 746.03 111.06 746.03 287.42 656.13 287.42 656.13 111.06 656.13 111.06" style="fill:#5e9fff;fill-rule:evenodd"/><polygon points="656.13 111.06 746.03 111.06 746.03 287.42 656.13 287.42 656.13 111.06 656.13 111.06" style="fill:none;stroke:#7f7f7f;stroke-linejoin:round;stroke-width:0.719999969005585px"/></g><g style="clip-path:url(#clip-path)"><line x1="117.35" y1="287.42" x2="817.86" y2="287.42" style="fill:none;stroke:#d9d9d9;stroke-linejoin:round;stroke-width:0.719999969005585px"/></g><g style="clip-path:url(#clip-path)"><path d="M117.35,287.42v4.37m233.57-4.37v4.37m233.38-4.37v4.37m233.56-4.37v4.37" style="fill:none;stroke:#d9d9d9;stroke-linejoin:round;stroke-width:0.719999969005585px"/></g><g style="clip-path:url(#clip-path-2)"><polyline points="234.04 79.89 467.61 79.89 701.18 79.89" style="fill:none;stroke:#3d699c;stroke-linecap:round;stroke-linejoin:round;stroke-width:1.20000004768372px;stroke-dasharray:5,5"/></g><g style="clip-path:url(#clip-path)"><path d="M238,79.79a4,4,0,1,1-4-4,4,4,0,0,1,4,4Z" style="fill:#2935e8"/><path d="M238,79.79a4,4,0,1,1-4-4,4,4,0,0,1,4,4Z" style="fill:none;stroke:#2935e8;stroke-linejoin:round;stroke-width:0.72000002861023px"/><path d="M471.58,79.79a4,4,0,1,1-4-4,4,4,0,0,1,4,4Z" style="fill:#2935e8"/><path d="M471.58,79.79a4,4,0,1,1-4-4,4,4,0,0,1,4,4Z" style="fill:none;stroke:#2935e8;stroke-linejoin:round;stroke-width:0.72000002861023px"/><path d="M705.14,79.79a4,4,0,1,1-4-4,4,4,0,0,1,4,4Z" style="fill:#2935e8"/><path d="M705.14,79.79a4,4,0,1,1-4-4,4,4,0,0,1,4,4Z" style="fill:none;stroke:#2935e8;stroke-linejoin:round;stroke-width:0.72000002861023px"/></g><g style="clip-path:url(#clip-path-2)"><polyline points="234.04 141.65 467.61 141.65 701.18 141.65" style="fill:none;stroke:#ff25f3;stroke-linecap:round;stroke-linejoin:round;stroke-width:1.20000004768372px;stroke-dasharray:5,5"/></g><g style="clip-path:url(#clip-path)"><path d="M238,141.56a4,4,0,1,1-4-4,4,4,0,0,1,4,4Z" style="fill:#ff25f3"/><path d="M238,141.56a4,4,0,1,1-4-4,4,4,0,0,1,4,4Z" style="fill:none;stroke:#ffd3fd;stroke-linejoin:round;stroke-width:0.72000002861023px"/><path d="M471.58,141.56a4,4,0,1,1-4-4,4,4,0,0,1,4,4Z" style="fill:#ff25f3"/><path d="M471.58,141.56a4,4,0,1,1-4-4,4,4,0,0,1,4,4Z" style="fill:none;stroke:#ffd3fd;stroke-linejoin:round;stroke-width:0.72000002861023px"/><path d="M705.14,141.56a4,4,0,1,1-4-4,4,4,0,0,1,4,4Z" style="fill:#ff25f3"/><path d="M705.14,141.56a4,4,0,1,1-4-4,4,4,0,0,1,4,4Z" style="fill:none;stroke:#ffd3fd;stroke-linejoin:round;stroke-width:0.72000002861023px"/></g><g style="clip-path:url(#clip-path-2)"><polyline points="234.04 100.41 467.61 100.41 701.18 100.41" style="fill:none;stroke:#7f7f7f;stroke-linecap:round;stroke-linejoin:round;stroke-width:1.19999992847443px"/></g><g style="clip-path:url(#clip-path)"><path d="M238,100.32a4,4,0,1,1-4-4,4,4,0,0,1,4,4Z" style="fill:#7f7f7f"/><path d="M238,100.32a4,4,0,1,1-4-4,4,4,0,0,1,4,4Z" style="fill:none;stroke:#7f7f7f;stroke-linejoin:round;stroke-width:0.72000002861023px"/><path d="M471.58,100.32a4,4,0,1,1-4-4,4,4,0,0,1,4,4Z" style="fill:#7f7f7f"/><path d="M471.58,100.32a4,4,0,1,1-4-4,4,4,0,0,1,4,4Z" style="fill:none;stroke:#7f7f7f;stroke-linejoin:round;stroke-width:0.72000002861023px"/><path d="M705.14,100.32a4,4,0,1,1-4-4,4,4,0,0,1,4,4Z" style="fill:#7f7f7f"/><path d="M705.14,100.32a4,4,0,1,1-4-4,4,4,0,0,1,4,4Z" style="fill:none;stroke:#7f7f7f;stroke-linejoin:round;stroke-width:0.72000002861023px"/></g><g style="clip-path:url(#clip-path-2)"><polyline points="234.04 127.21 467.61 127.21 701.18 127.21" style="fill:none;stroke:#00c1a3;stroke-linecap:round;stroke-linejoin:round;stroke-width:1.19999992847443px"/></g><g style="clip-path:url(#clip-path)"><path d="M238,127.12a4,4,0,1,1-4-4,4,4,0,0,1,4,4Z" style="fill:#00c1a3"/><path d="M238,127.12a4,4,0,1,1-4-4,4,4,0,0,1,4,4Z" style="fill:none;stroke:#c0fff5;stroke-linejoin:round;stroke-width:0.72000002861023px"/><path d="M471.58,127.12a4,4,0,1,1-4-4,4,4,0,0,1,4,4Z" style="fill:#00c1a3"/><path d="M471.58,127.12a4,4,0,1,1-4-4,4,4,0,0,1,4,4Z" style="fill:none;stroke:#c0fff5;stroke-linejoin:round;stroke-width:0.72000002861023px"/><path d="M705.14,127.12a4,4,0,1,1-4-4,4,4,0,0,1,4,4Z" style="fill:#00c1a3"/><path d="M705.14,127.12a4,4,0,1,1-4-4,4,4,0,0,1,4,4Z" style="fill:none;stroke:#c0fff5;stroke-linejoin:round;stroke-width:0.72000002861023px"/></g><g style="clip-path:url(#clip-path-13)"><text transform="translate(77.29 292.03)" style="font-size:14.253459930419922px;font-family:ArialMT, Arial;letter-spacing:0.0030146189212834932em">0<tspan x="7.97" y="0" style="letter-spacing:0.0019869079253913933em">.</tspan><tspan x="11.96" y="0" style="letter-spacing:-0.008975342697457674em">0</tspan><tspan x="19.76" y="0" style="letter-spacing:0.00006851406639280666em">0</tspan></text></g><g style="clip-path:url(#clip-path-13)"><text transform="translate(77.29 211.85)" style="font-size:14.253459930419922px;font-family:ArialMT, Arial;letter-spacing:0.0030146189212834932em">0<tspan x="7.97" y="0" style="letter-spacing:0.0019869079253913933em">.</tspan><tspan x="11.96" y="0" style="letter-spacing:-0.008975342697457674em">1</tspan><tspan x="19.76" y="0" style="letter-spacing:0.00006851406639280666em">5</tspan></text></g><g style="clip-path:url(#clip-path-13)"><text transform="translate(77.29 131.69)" style="font-size:14.253459930419922px;font-family:ArialMT, Arial;letter-spacing:0.0030146189212834932em">0<tspan x="7.97" y="0" style="letter-spacing:0.0019869079253913933em">.</tspan><tspan x="11.96" y="0" style="letter-spacing:-0.008975342697457674em">3</tspan><tspan x="19.76" y="0" style="letter-spacing:0.00006851406639280666em">0</tspan></text></g><g style="clip-path:url(#clip-path-13)"><text transform="translate(77.29 51.51)" style="font-size:14.253459930419922px;font-family:ArialMT, Arial;letter-spacing:0.0030146189212834932em">0<tspan x="7.97" y="0" style="letter-spacing:0.0019869079253913933em">.</tspan><tspan x="11.96" y="0" style="letter-spacing:-0.008975342697457674em">4</tspan><tspan x="19.76" y="0" style="letter-spacing:0.00006851406639280666em">5</tspan></text></g><g style="clip-path:url(#clip-path-13)"><text transform="translate(218.62 308.99)" style="font-size:14.253459930419922px;font-family:ArialMT, Arial">Dec</text></g><g style="clip-path:url(#clip-path-13)"><text transform="translate(455.15 308.99)" style="font-size:14.253459930419922px;font-family:ArialMT, Arial">Jan</text></g><g style="clip-path:url(#clip-path-13)"><text transform="translate(684.69 308.99)" style="font-size:14.253459930419922px;font-family:ArialMT, Arial">Feb</text></g><g style="clip-path:url(#clip-path-13)"><text transform="translate(28.54 234.37) rotate(-90)" style="font-size:15.77383041381836px;font-family:Arial-BoldMT, Arial;font-weight:700"><tspan style="letter-spacing:0.005014733924786246em">Q</tspan><tspan x="12.35" y="0" style="letter-spacing:0.002971694177651109em">u</tspan><tspan x="22.03" y="0" style="letter-spacing:-0.000990564725883703em">a</tspan><tspan x="30.79" y="0" style="letter-spacing:0.002971694177651109em">n</tspan><tspan x="40.47" y="0" style="letter-spacing:0.003962258903534812em">t</tspan><tspan x="45.79" y="0">i</tspan><tspan x="50.17" y="0" style="letter-spacing:0.003962258903534812em">t</tspan><tspan x="55.48" y="0" style="letter-spacing:-0.013001162027223602em">y</tspan><tspan x="64.05" y="0" style="letter-spacing:0.011020032575456196em"> </tspan><tspan x="68.61" y="0" style="letter-spacing:0.003962258903534812em">(</tspan><tspan x="73.92" y="0" style="letter-spacing:0.02204006515091239em">M</tspan><tspan x="87.41" y="0" style="letter-spacing:0.014982291478991007em">T</tspan><tspan x="97.28" y="0" style="letter-spacing:-0.00006191029536773143em">)</tspan></text></g><g style="clip-path:url(#clip-path-13)"><text transform="translate(377.39 336.5)" style="font-size:15.77383041381836px;font-family:Arial-BoldMT, Arial;font-weight:700"><tspan style="letter-spacing:0.014982291478991007em">T</tspan><tspan x="9.87" y="0" style="letter-spacing:-0.00006191029536773143em">i</tspan><tspan x="14.25" y="0" style="letter-spacing:0.002043039747135137em">m</tspan><tspan x="28.31" y="0" style="letter-spacing:-0.000990564725883703em">e</tspan><tspan x="37.07" y="0"> </tspan><tspan x="41.45" y="0" style="letter-spacing:-0.004086079494270274em">P</tspan><tspan x="51.91" y="0" style="letter-spacing:-0.000990564725883703em">e</tspan><tspan x="60.67" y="0" style="letter-spacing:-0.002971694177651109em">r</tspan><tspan x="66.76" y="0" style="letter-spacing:-0.00006191029536773143em">i</tspan><tspan x="71.14" y="0" style="letter-spacing:0.002971694177651109em">o</tspan><tspan x="80.82" y="0">d</tspan></text></g><polygon points="1.81 2.92 900.39 2.92 900.39 347.85 1.81 347.85 1.81 2.92 1.81 2.92" style="fill:none;stroke:#d9d9d9;stroke-linejoin:round;stroke-width:0.72000002861023px"/></svg>