<svg id="Layer_1" data-name="Layer 1" xmlns="http://www.w3.org/2000/svg" xmlns:xlink="http://www.w3.org/1999/xlink" viewBox="0 0 900 350"><defs><clipPath id="clip-path"><polygon points="-0.33 350.17 898.04 350.17 898.04 1.51 -0.33 1.51 -0.33 350.17 -0.33 350.17" style="fill:none;clip-rule:evenodd"/></clipPath><clipPath id="clip-path-6"><polygon points="96.11 284.18 886.86 284.18 886.86 16.46 96.11 16.46 96.11 284.18 96.11 284.18" style="fill:none;clip-rule:evenodd"/></clipPath><clipPath id="clip-path-10"><rect x="-0.33" y="1.51" width="898.37" height="348.66" style="fill:none"/></clipPath></defs><title>ndvi-risk-report</title><polygon points="-0.33 1.51 898.04 1.51 898.04 350.3 -0.33 350.3 -0.33 1.51 -0.33 1.51" style="fill:#eaeaea;fill-rule:evenodd"/><polygon points="96.11 16.59 886.18 16.59 886.18 283.51 96.11 283.51 96.11 16.59 96.11 16.59" style="fill:#fff;fill-rule:evenodd"/><path d="M96.11,216.71H886.18M96.11,150.05H886.18M96.11,83.26H886.18M96.11,16.59H886.18" style="fill:none;stroke:#d9d9d9;stroke-linejoin:round;stroke-width:0.719999969005585px"/><g style="clip-path:url(#clip-path)"><path d="M129.12,16.59V283.51M194.87,16.59V283.51M260.75,16.59V283.51M326.5,16.59V283.51M392.38,16.59V283.51M458.27,16.59V283.51M524,16.59V283.51M589.9,16.59V283.51M655.65,16.59V283.51M721.53,16.59V283.51M787.42,16.59V283.51M853.17,16.59V283.51" style="fill:none;stroke:#f2f2f2;stroke-linejoin:round;stroke-width:0.719999969005585px"/></g><g style="clip-path:url(#clip-path)"><path d="M96.11,16.59V283.51M162,16.59V283.51M227.88,16.59V283.51M293.63,16.59V283.51M359.51,16.59V283.51M425.26,16.59V283.51M491.14,16.59V283.51M557,16.59V283.51M622.78,16.59V283.51M688.66,16.59V283.51M754.41,16.59V283.51M820.29,16.59V283.51M886.18,16.59V283.51" style="fill:none;stroke:#d9d9d9;stroke-linejoin:round;stroke-width:0.719999969005585px"/></g><g style="clip-path:url(#clip-path)"><line x1="96.11" y1="283.51" x2="886.18" y2="283.51" style="fill:none;stroke:#d9d9d9;stroke-linejoin:round;stroke-width:1.19999992847443px"/></g><g style="clip-path:url(#clip-path)"><path d="M96.11,283.51v18.18m263.4-18.18v18.18m263.27-18.18v18.18m263.4-18.18v18.18" style="fill:none;stroke:#d9d9d9;stroke-linejoin:round;stroke-width:1.19999992847443px"/></g><g style="clip-path:url(#clip-path)"><path d="M96.11,301.69v18.18m263.4-18.18v18.18m263.27-18.18v18.18m263.4-18.18v18.18" style="fill:none;stroke:#d9d9d9;stroke-linejoin:round;stroke-width:1.19999992847443px"/></g><g style="clip-path:url(#clip-path-6)"><polyline points="129.12 216.71 194.87 197.99 260.75 187.35 326.5 152.61 392.38 128.64 458.27 107.23 524.02 99.28 589.9 93.89 655.65 88.64 721.53 107.23 787.42 158 853.17 187.35" style="fill:none;stroke:#ff25f3;stroke-linecap:round;stroke-linejoin:round;stroke-width:2.15999984741211px"/></g><g style="clip-path:url(#clip-path)"><polygon points="126.32 213.95 132.05 213.95 132.05 219.61 126.32 219.61 126.32 213.95 126.32 213.95" style="fill:#ff25f3;fill-rule:evenodd"/><polygon points="126.32 213.95 132.05 213.95 132.05 219.61 126.32 219.61 126.32 213.95 126.32 213.95" style="fill:none;stroke:#ffd3fd;stroke-linejoin:round;stroke-width:0.72000002861023px"/><polygon points="192.07 195.23 197.8 195.23 197.8 200.89 192.07 200.89 192.07 195.23 192.07 195.23" style="fill:#ff25f3;fill-rule:evenodd"/><polygon points="192.07 195.23 197.8 195.23 197.8 200.89 192.07 200.89 192.07 195.23 192.07 195.23" style="fill:none;stroke:#ffd3fd;stroke-linejoin:round;stroke-width:0.72000002861023px"/><polygon points="257.96 184.59 263.69 184.59 263.69 190.25 257.96 190.25 257.96 184.59 257.96 184.59" style="fill:#ff25f3;fill-rule:evenodd"/><polygon points="257.96 184.59 263.69 184.59 263.69 190.25 257.96 190.25 257.96 184.59 257.96 184.59" style="fill:none;stroke:#ffd3fd;stroke-linejoin:round;stroke-width:0.72000002861023px"/><polygon points="323.7 149.85 329.43 149.85 329.43 155.5 323.7 155.5 323.7 149.85 323.7 149.85" style="fill:#ff25f3;fill-rule:evenodd"/><polygon points="323.7 149.85 329.43 149.85 329.43 155.5 323.7 155.5 323.7 149.85 323.7 149.85" style="fill:none;stroke:#ffd3fd;stroke-linejoin:round;stroke-width:0.72000002861023px"/><polygon points="389.59 125.88 395.32 125.88 395.32 131.53 389.59 131.53 389.59 125.88 389.59 125.88" style="fill:#ff25f3;fill-rule:evenodd"/><polygon points="389.59 125.88 395.32 125.88 395.32 131.53 389.59 131.53 389.59 125.88 389.59 125.88" style="fill:none;stroke:#ffd3fd;stroke-linejoin:round;stroke-width:0.72000002861023px"/><polygon points="455.47 104.47 461.2 104.47 461.2 110.12 455.47 110.12 455.47 104.47 455.47 104.47" style="fill:#ff25f3;fill-rule:evenodd"/><polygon points="455.47 104.47 461.2 104.47 461.2 110.12 455.47 110.12 455.47 104.47 455.47 104.47" style="fill:none;stroke:#ffd3fd;stroke-linejoin:round;stroke-width:0.72000002861023px"/><polygon points="521.22 96.52 526.95 96.52 526.95 102.18 521.22 102.18 521.22 96.52 521.22 96.52" style="fill:#ff25f3;fill-rule:evenodd"/><polygon points="521.22 96.52 526.95 96.52 526.95 102.18 521.22 102.18 521.22 96.52 521.22 96.52" style="fill:none;stroke:#ffd3fd;stroke-linejoin:round;stroke-width:0.72000002861023px"/><polygon points="587.11 91.13 592.83 91.13 592.83 96.79 587.11 96.79 587.11 91.13 587.11 91.13" style="fill:#ff25f3;fill-rule:evenodd"/><polygon points="587.11 91.13 592.83 91.13 592.83 96.79 587.11 96.79 587.11 91.13 587.11 91.13" style="fill:none;stroke:#ffd3fd;stroke-linejoin:round;stroke-width:0.72000002861023px"/><polygon points="652.85 85.88 658.58 85.88 658.58 91.54 652.85 91.54 652.85 85.88 652.85 85.88" style="fill:#ff25f3;fill-rule:evenodd"/><polygon points="652.85 85.88 658.58 85.88 658.58 91.54 652.85 91.54 652.85 85.88 652.85 85.88" style="fill:none;stroke:#ffd3fd;stroke-linejoin:round;stroke-width:0.72000002861023px"/><polygon points="718.74 104.47 724.47 104.47 724.47 110.12 718.74 110.12 718.74 104.47 718.74 104.47" style="fill:#ff25f3;fill-rule:evenodd"/><polygon points="718.74 104.47 724.47 104.47 724.47 110.12 718.74 110.12 718.74 104.47 718.74 104.47" style="fill:none;stroke:#ffd3fd;stroke-linejoin:round;stroke-width:0.72000002861023px"/><polygon points="784.62 155.24 790.35 155.24 790.35 160.89 784.62 160.89 784.62 155.24 784.62 155.24" style="fill:#ff25f3;fill-rule:evenodd"/><polygon points="784.62 155.24 790.35 155.24 790.35 160.89 784.62 160.89 784.62 155.24 784.62 155.24" style="fill:none;stroke:#ffd3fd;stroke-linejoin:round;stroke-width:0.72000002861023px"/><polygon points="850.37 184.59 856.1 184.59 856.1 190.25 850.37 190.25 850.37 184.59 850.37 184.59" style="fill:#ff25f3;fill-rule:evenodd"/><polygon points="850.37 184.59 856.1 184.59 856.1 190.25 850.37 190.25 850.37 184.59 850.37 184.59" style="fill:none;stroke:#ffd3fd;stroke-linejoin:round;stroke-width:0.72000002861023px"/></g><g style="clip-path:url(#clip-path-6)"><polyline points="129.12 224.66 194.87 206.07 260.75 195.3 326.5 160.69 392.38 136.58 458.27 115.31 524.02 107.23 589.9 101.97 655.65 96.59 721.53 115.31 787.42 165.94 853.17 195.3" style="fill:none;stroke:#06f;stroke-linecap:round;stroke-linejoin:round;stroke-width:2.15999984741211px"/></g><g style="clip-path:url(#clip-path)"><path d="M132.05,224.73a2.87,2.87,0,1,1-2.86-2.83,2.84,2.84,0,0,1,2.86,2.83Z" style="fill:#06f"/><path d="M132.05,224.73a2.87,2.87,0,1,1-2.86-2.83,2.84,2.84,0,0,1,2.86,2.83Z" style="fill:none;stroke:#6b77e8;stroke-linejoin:round;stroke-width:0.72000002861023px"/><path d="M197.8,206.14a2.87,2.87,0,1,1-2.86-2.83,2.85,2.85,0,0,1,2.86,2.83Z" style="fill:#06f"/><path d="M197.8,206.14a2.87,2.87,0,1,1-2.86-2.83,2.85,2.85,0,0,1,2.86,2.83Z" style="fill:none;stroke:#6b77e8;stroke-linejoin:round;stroke-width:0.72000002861023px"/><path d="M263.68,195.37a2.86,2.86,0,1,1-2.86-2.83,2.85,2.85,0,0,1,2.86,2.83Z" style="fill:#06f"/><path d="M263.68,195.37a2.86,2.86,0,1,1-2.86-2.83,2.85,2.85,0,0,1,2.86,2.83Z" style="fill:none;stroke:#6b77e8;stroke-linejoin:round;stroke-width:0.72000002861023px"/><path d="M329.43,160.76a2.87,2.87,0,1,1-2.86-2.83,2.85,2.85,0,0,1,2.86,2.83Z" style="fill:#06f"/><path d="M329.43,160.76a2.87,2.87,0,1,1-2.86-2.83,2.85,2.85,0,0,1,2.86,2.83Z" style="fill:none;stroke:#6b77e8;stroke-linejoin:round;stroke-width:0.72000002861023px"/><path d="M395.32,136.65a2.87,2.87,0,1,1-2.87-2.83,2.86,2.86,0,0,1,2.87,2.83Z" style="fill:#06f"/><path d="M395.32,136.65a2.87,2.87,0,1,1-2.87-2.83,2.86,2.86,0,0,1,2.87,2.83Z" style="fill:none;stroke:#6b77e8;stroke-linejoin:round;stroke-width:0.72000002861023px"/><path d="M461.2,115.37a2.87,2.87,0,1,1-2.86-2.82,2.84,2.84,0,0,1,2.86,2.82Z" style="fill:#06f"/><path d="M461.2,115.37a2.87,2.87,0,1,1-2.86-2.82,2.84,2.84,0,0,1,2.86,2.82Z" style="fill:none;stroke:#6b77e8;stroke-linejoin:round;stroke-width:0.72000002861023px"/><path d="M527,107.29a2.87,2.87,0,1,1-2.87-2.82,2.84,2.84,0,0,1,2.87,2.82Z" style="fill:#06f"/><path d="M527,107.29a2.87,2.87,0,1,1-2.87-2.82,2.84,2.84,0,0,1,2.87,2.82Z" style="fill:none;stroke:#6b77e8;stroke-linejoin:round;stroke-width:0.72000002861023px"/><path d="M592.83,102A2.87,2.87,0,1,1,590,99.21a2.85,2.85,0,0,1,2.86,2.83Z" style="fill:#06f"/><path d="M592.83,102A2.87,2.87,0,1,1,590,99.21a2.85,2.85,0,0,1,2.86,2.83Z" style="fill:none;stroke:#6b77e8;stroke-linejoin:round;stroke-width:0.72000002861023px"/><path d="M658.58,96.65a2.87,2.87,0,1,1-2.86-2.82,2.84,2.84,0,0,1,2.86,2.82Z" style="fill:#06f"/><path d="M658.58,96.65a2.87,2.87,0,1,1-2.86-2.82,2.84,2.84,0,0,1,2.86,2.82Z" style="fill:none;stroke:#6b77e8;stroke-linejoin:round;stroke-width:0.72000002861023px"/><path d="M724.47,115.37a2.87,2.87,0,1,1-2.87-2.82,2.85,2.85,0,0,1,2.87,2.82Z" style="fill:#06f"/><path d="M724.47,115.37a2.87,2.87,0,1,1-2.87-2.82,2.85,2.85,0,0,1,2.87,2.82Z" style="fill:none;stroke:#6b77e8;stroke-linejoin:round;stroke-width:0.72000002861023px"/><path d="M790.35,166a2.87,2.87,0,1,1-2.86-2.83,2.85,2.85,0,0,1,2.86,2.83Z" style="fill:#06f"/><path d="M790.35,166a2.87,2.87,0,1,1-2.86-2.83,2.85,2.85,0,0,1,2.86,2.83Z" style="fill:none;stroke:#6b77e8;stroke-linejoin:round;stroke-width:0.72000002861023px"/><path d="M856.1,195.37a2.87,2.87,0,1,1-2.87-2.83,2.85,2.85,0,0,1,2.87,2.83Z" style="fill:#06f"/><path d="M856.1,195.37a2.87,2.87,0,1,1-2.87-2.83,2.85,2.85,0,0,1,2.87,2.83Z" style="fill:none;stroke:#6b77e8;stroke-linejoin:round;stroke-width:0.72000002861023px"/></g><g style="clip-path:url(#clip-path-10)"><text transform="translate(67.45 286.67) scale(1.01 1)" style="font-size:10.100190162658691px;font-family:ArialMT, Arial"><tspan style="letter-spacing:0.0030545968682603205em">0</tspan><tspan x="5.65" y="0" style="letter-spacing:0.0019091230426627004em">.</tspan><tspan x="8.47" y="0" style="letter-spacing:-0.008972878300514691em">0</tspan><tspan x="14" y="0">0</tspan></text></g><g style="clip-path:url(#clip-path-10)"><text transform="translate(67.45 219.94) scale(1.01 1)" style="font-size:10.100190162658691px;font-family:ArialMT, Arial"><tspan style="letter-spacing:0.0030545968682603205em">0</tspan><tspan x="5.65" y="0" style="letter-spacing:0.0019091230426627004em">.</tspan><tspan x="8.47" y="0" style="letter-spacing:-0.008972878300514691em">2</tspan><tspan x="14" y="0">5</tspan></text></g><g style="clip-path:url(#clip-path-10)"><text transform="translate(67.45 153.22) scale(1.01 1)" style="font-size:10.100190162658691px;font-family:ArialMT, Arial"><tspan style="letter-spacing:0.0030545968682603205em">0</tspan><tspan x="5.65" y="0" style="letter-spacing:0.0019091230426627004em">.</tspan><tspan x="8.47" y="0" style="letter-spacing:-0.008972878300514691em">5</tspan><tspan x="14" y="0">0</tspan></text></g><g style="clip-path:url(#clip-path-10)"><text transform="translate(67.45 86.48) scale(1.01 1)" style="font-size:10.100190162658691px;font-family:ArialMT, Arial"><tspan style="letter-spacing:0.0030545968682603205em">0</tspan><tspan x="5.65" y="0" style="letter-spacing:0.0019091230426627004em">.</tspan><tspan x="8.47" y="0" style="letter-spacing:-0.008972878300514691em">7</tspan><tspan x="14" y="0">5</tspan></text></g><g style="clip-path:url(#clip-path-10)"><text transform="translate(67.45 19.75) scale(1.01 1)" style="font-size:10.100190162658691px;font-family:ArialMT, Arial"><tspan style="letter-spacing:0.0030545968682603205em">1</tspan><tspan x="5.65" y="0" style="letter-spacing:0.0019091230426627004em">.</tspan><tspan x="8.47" y="0" style="letter-spacing:-0.008972878300514691em">0</tspan><tspan x="14" y="0">0</tspan></text></g><g style="clip-path:url(#clip-path-10)"><text transform="translate(126.23 298.69) scale(1.01 1)" style="font-size:10.100190162658691px;font-family:ArialMT, Arial">1</text></g><g style="clip-path:url(#clip-path-10)"><text transform="translate(192.05 298.69) scale(1.01 1)" style="font-size:10.100190162658691px;font-family:ArialMT, Arial">2</text></g><g style="clip-path:url(#clip-path-10)"><text transform="translate(257.88 298.69) scale(1.01 1)" style="font-size:10.100190162658691px;font-family:ArialMT, Arial">3</text></g><g style="clip-path:url(#clip-path-10)"><text transform="translate(323.72 298.69) scale(1.01 1)" style="font-size:10.100190162658691px;font-family:ArialMT, Arial">4</text></g><g style="clip-path:url(#clip-path-10)"><text transform="translate(389.54 298.69) scale(1.01 1)" style="font-size:10.100190162658691px;font-family:ArialMT, Arial">1</text></g><g style="clip-path:url(#clip-path-10)"><text transform="translate(455.37 298.69) scale(1.01 1)" style="font-size:10.100190162658691px;font-family:ArialMT, Arial">2</text></g><g style="clip-path:url(#clip-path-10)"><text transform="translate(521.2 298.69) scale(1.01 1)" style="font-size:10.100190162658691px;font-family:ArialMT, Arial">3</text></g><g style="clip-path:url(#clip-path-10)"><text transform="translate(587.03 298.69) scale(1.01 1)" style="font-size:10.100190162658691px;font-family:ArialMT, Arial">4</text></g><g style="clip-path:url(#clip-path-10)"><text transform="translate(652.86 298.69) scale(1.01 1)" style="font-size:10.100190162658691px;font-family:ArialMT, Arial">1</text></g><g style="clip-path:url(#clip-path-10)"><text transform="translate(718.69 298.69) scale(1.01 1)" style="font-size:10.100190162658691px;font-family:ArialMT, Arial">2</text></g><g style="clip-path:url(#clip-path-10)"><text transform="translate(784.52 298.69) scale(1.01 1)" style="font-size:10.100190162658691px;font-family:ArialMT, Arial">3</text></g><g style="clip-path:url(#clip-path-10)"><text transform="translate(850.36 298.69) scale(1.01 1)" style="font-size:10.100190162658691px;font-family:ArialMT, Arial">4</text></g><g style="clip-path:url(#clip-path-10)"><text transform="translate(218.71 316.91) scale(1.01 1)" style="font-size:10.100190162658691px;font-family:ArialMT, Arial"><tspan style="letter-spacing:-0.0020045791947958355em">D</tspan><tspan x="7.27" y="0" style="letter-spacing:0.0030545968682603205em">e</tspan><tspan x="12.92" y="0">c</tspan></text></g><g style="clip-path:url(#clip-path-10)"><text transform="translate(482.88 316.91) scale(1.01 1)" style="font-size:10.100190162658691px;font-family:ArialMT, Arial"><tspan style="letter-spacing:0.006013737584387507em">J</tspan><tspan x="5.11" y="0" style="letter-spacing:-0.008972878300514691em">a</tspan><tspan x="10.64" y="0">n</tspan></text></g><g style="clip-path:url(#clip-path-10)"><text transform="translate(745.64 316.91) scale(1.01 1)" style="font-size:10.100190162658691px;font-family:ArialMT, Arial"><tspan style="letter-spacing:0.0020045791947958355em">F</tspan><tspan x="6.19" y="0" style="letter-spacing:0.0030545968682603205em">e</tspan><tspan x="11.84" y="0">b</tspan></text></g><g style="clip-path:url(#clip-path-10)"><text transform="translate(24.07 153.17) rotate(-90) scale(0.99 1)" style="font-size:11.32174015045166px;font-family:Arial-BoldMT, Arial;font-weight:700">ND<tspan x="16.35" y="0" style="letter-spacing:-0.004018955131393745em">V</tspan><tspan x="23.86" y="0">I</tspan><tspan x="27" y="0" style="letter-spacing:0.011008442316426345em"> </tspan><tspan x="30.27" y="0"> </tspan><tspan x="33.42" y="0" style="letter-spacing:-0.004018955131393745em">V</tspan><tspan x="40.93" y="0" style="letter-spacing:-0.00104842307775489em">a</tspan><tspan x="47.21" y="0">l</tspan><tspan x="50.36" y="0" style="letter-spacing:0.002970532053638855em">u</tspan><tspan x="57.31" y="0">e</tspan></text></g><g style="clip-path:url(#clip-path-10)"><text transform="translate(433.95 336.99) scale(1.01 1)" style="font-size:11.177550315856934px;font-family:Arial-BoldMT, Arial;font-weight:700"><tspan style="letter-spacing:0.0070729517150598465em">W</tspan><tspan x="10.63" y="0" style="letter-spacing:-0.0010350661046429044em">ee</tspan><tspan x="23.04" y="0">k</tspan></text></g><polygon points="-0.33 1.51 898.04 1.51 898.04 350.3 -0.33 350.3 -0.33 1.51 -0.33 1.51" style="fill:none;stroke:#d9d9d9;stroke-linejoin:round;stroke-width:0.72000002861023px"/></svg>