<svg id="Layer_1" data-name="Layer 1" xmlns="http://www.w3.org/2000/svg" xmlns:xlink="http://www.w3.org/1999/xlink" viewBox="0 0 900 350"><defs><clipPath id="clip-path"><polygon points="-0.04 349.13 898.04 349.13 898.04 0.04 -0.04 0.04 -0.04 349.13 -0.04 349.13" style="fill:none;clip-rule:evenodd"/></clipPath><clipPath id="clip-path-3"><polygon points="84.43 309.39 798.63 309.39 798.63 37.1 84.43 37.1 84.43 309.39 84.43 309.39" style="fill:none;clip-rule:evenodd"/></clipPath><clipPath id="clip-path-8"><rect x="-0.04" y="0.04" width="898.09" height="349.09" style="fill:none"/></clipPath></defs><title>price-volatility</title><polygon points="0.09 0.17 898.04 0.17 898.04 349.13 0.09 349.13 0.09 0.17 0.09 0.17" style="fill:#f2f2f2;fill-rule:evenodd"/><polygon points="84.43 37.23 797.95 37.23 797.95 308.58 84.43 308.58 84.43 37.23 84.43 37.23" style="fill:#fff;fill-rule:evenodd"/><path d="M84.43,37.23V308.58M114.17,37.23V308.58M143.91,37.23V308.58M173.65,37.23V308.58M203.4,37.23V308.58M233.14,37.23V308.58M262.88,37.23V308.58M292.62,37.23V308.58M322.36,37.23V308.58M352,37.23V308.58M381.71,37.23V308.58M411.45,37.23V308.58M441.19,37.23V308.58M470.93,37.23V308.58M500.68,37.23V308.58M530.42,37.23V308.58M560.16,37.23V308.58m29.6-271.35V308.58M619.51,37.23V308.58M649.25,37.23V308.58M679,37.23V308.58M708.73,37.23V308.58M738.47,37.23V308.58M768.21,37.23V308.58M798,37.23V308.58" style="fill:none;stroke:#b7b7b7;stroke-linecap:round;stroke-linejoin:round;stroke-width:0.719999969005585px"/><g style="clip-path:url(#clip-path)"><path d="M84.43,244.67H798M84.43,180.9H798M84.43,117H798M84.43,53.08H798" style="fill:none;stroke:#d9d9d9;stroke-linejoin:round;stroke-width:0.719999969005585px"/></g><g style="clip-path:url(#clip-path)"><polygon points="84.43 37.23 797.95 37.23 797.95 308.58 84.43 308.58 84.43 37.23 84.43 37.23" style="fill:none;stroke:#fff;stroke-linejoin:round;stroke-width:0.719999969005585px"/></g><g style="clip-path:url(#clip-path-3)"><path d="M102.36,300.8h23.76v7.78H102.36V300.8Zm59.48-5.24h23.77v13H161.84v-13Zm59.35-99.36H245V308.58H221.19V196.2Zm59.48,83.92h23.77v28.46H280.67V280.12Zm59.48,28.46h23.77v3.22H340.15v-3.22Zm59.49-32.76H423.4v32.76H399.64V275.82ZM459,290.32h23.9v18.26H459V290.32Zm59.49,2.82h23.76v15.44H518.47V293.14ZM578,303.35h23.76v5.23H578v-5.23Zm59.48-12H661.2v17.18H637.43V291.4Zm59.35-3.23h23.9v20.41h-23.9V288.17Zm59.48,7.12H780v13.29H756.26V295.29Z" style="fill:#2935e8"/></g><g style="clip-path:url(#clip-path)"><line x1="84.43" y1="308.58" x2="84.43" y2="37.23" style="fill:none;stroke:#868686;stroke-linejoin:round;stroke-width:0.719999969005585px"/></g><g style="clip-path:url(#clip-path)"><path d="M81.44,308.58h3m-3-63.91h3m-3-63.77h3m-3-63.91h3m-3-63.91h3" style="fill:none;stroke:#868686;stroke-linejoin:round;stroke-width:0.719999969005585px"/></g><g style="clip-path:url(#clip-path)"><line x1="84.43" y1="308.58" x2="797.95" y2="308.58" style="fill:none;stroke:#868686;stroke-linejoin:round;stroke-width:0.719999969005585px"/></g><g style="clip-path:url(#clip-path-3)"><polyline points="114.17 139.94 173.65 140.75 233.14 130.68 292.62 132.43 351.97 139.68 411.45 139.27 470.93 137.39 530.42 130.68 589.76 124.5 649.25 132.29 708.73 108.12 768.21 101.41" style="fill:none;stroke:#2935e8;stroke-linecap:round;stroke-linejoin:round;stroke-width:2.15999984741211px"/></g><g style="clip-path:url(#clip-path-8)"><text transform="translate(38.92 311.79) scale(1.01 1)" style="font-size:10.069890022277832px;font-family:ArialMT, Arial;letter-spacing:0.002013433647294414em"> <tspan x="2.82" y="0" style="letter-spacing:0.002972211574577468em">1</tspan><tspan x="8.45" y="0" style="letter-spacing:-0.009108390309189016em">0</tspan><tspan x="13.96" y="0">,</tspan><tspan x="16.78" y="0" style="letter-spacing:0.002972211574577468em">00</tspan><tspan x="28.04" y="0" style="letter-spacing:-0.00009587779272830543em">0</tspan></text></g><g style="clip-path:url(#clip-path-8)"><text transform="translate(38.92 247.93) scale(1.01 1)" style="font-size:10.069890022277832px;font-family:ArialMT, Arial;letter-spacing:0.002013433647294414em"> <tspan x="2.82" y="0" style="letter-spacing:0.002972211574577468em">5</tspan><tspan x="8.45" y="0" style="letter-spacing:-0.009108390309189016em">0</tspan><tspan x="13.96" y="0">,</tspan><tspan x="16.78" y="0" style="letter-spacing:0.002972211574577468em">00</tspan><tspan x="28.04" y="0" style="letter-spacing:-0.00009587779272830543em">0</tspan></text></g><g style="clip-path:url(#clip-path-8)"><text transform="translate(38.92 184.07) scale(1.01 1)" style="font-size:10.069890022277832px;font-family:ArialMT, Arial;letter-spacing:0.002013433647294414em"> <tspan x="2.82" y="0" style="letter-spacing:0.002972211574577468em">9</tspan><tspan x="8.45" y="0" style="letter-spacing:-0.009108390309189016em">0</tspan><tspan x="13.96" y="0">,</tspan><tspan x="16.78" y="0" style="letter-spacing:0.002972211574577468em">00</tspan><tspan x="28.04" y="0" style="letter-spacing:-0.00009587779272830543em">0</tspan></text></g><g style="clip-path:url(#clip-path-8)"><text transform="translate(30.43 120.21) scale(1.01 1)" style="font-size:10.069890022277832px;font-family:ArialMT, Arial;letter-spacing:0.002013433647294414em"> <tspan x="2.82" y="0" style="letter-spacing:0.002972211574577468em">1</tspan><tspan x="8.45" y="0" style="letter-spacing:-0.011025946163755126em">,</tspan><tspan x="11.14" y="0" style="letter-spacing:0.002876333781849163em">30</tspan><tspan x="22.4" y="0">,</tspan><tspan x="25.21" y="0" style="letter-spacing:-0.00901251251646071em">0</tspan><tspan x="30.72" y="0" style="letter-spacing:0.002972211574577468em">0</tspan><tspan x="36.36" y="0" style="letter-spacing:-0.00009587779272830543em">0</tspan></text></g><g style="clip-path:url(#clip-path-8)"><text transform="translate(30.43 56.34) scale(1.01 1)" style="font-size:10.069890022277832px;font-family:ArialMT, Arial;letter-spacing:0.002013433647294414em"> <tspan x="2.82" y="0" style="letter-spacing:0.002972211574577468em">1</tspan><tspan x="8.45" y="0" style="letter-spacing:-0.011025946163755126em">,</tspan><tspan x="11.14" y="0" style="letter-spacing:0.002876333781849163em">70</tspan><tspan x="22.4" y="0">,</tspan><tspan x="25.21" y="0" style="letter-spacing:-0.00901251251646071em">0</tspan><tspan x="30.72" y="0" style="letter-spacing:0.002972211574577468em">0</tspan><tspan x="36.36" y="0" style="letter-spacing:-0.00009587779272830543em">0</tspan></text></g><g style="clip-path:url(#clip-path-8)"><text transform="translate(106 323.79) scale(1.01 1)" style="font-size:10.069890022277832px;font-family:ArialMT, Arial"><tspan style="letter-spacing:0.006040300941883242em">J</tspan><tspan x="5.1" y="0" style="letter-spacing:-0.009108390309189016em">a</tspan><tspan x="10.6" y="0">n</tspan></text></g><g style="clip-path:url(#clip-path-8)"><text transform="translate(164.89 323.79) scale(1.01 1)" style="font-size:10.069890022277832px;font-family:ArialMT, Arial;letter-spacing:0.002013433647294414em">F<tspan x="6.17" y="0" style="letter-spacing:0.002972211574577468em">e</tspan><tspan x="11.8" y="0" style="letter-spacing:-0.00009587779272830543em">b</tspan></text></g><g style="clip-path:url(#clip-path-8)"><text transform="translate(224.35 323.79) scale(1.01 1)" style="font-size:10.069890022277832px;font-family:ArialMT, Arial"><tspan style="letter-spacing:-0.005944423149154936em">M</tspan><tspan x="8.33" y="0" style="letter-spacing:0.002972211574577468em">a</tspan><tspan x="13.96" y="0">r</tspan></text></g><g style="clip-path:url(#clip-path-8)"><text transform="translate(284.65 323.79) scale(1.01 1)" style="font-size:10.069890022277832px;font-family:ArialMT, Arial">A<tspan x="6.72" y="0" style="letter-spacing:0.002972211574577468em">p</tspan><tspan x="12.35" y="0">r</tspan></text></g><g style="clip-path:url(#clip-path-8)"><text transform="translate(342.4 323.79) scale(1.01 1)" style="font-size:10.069890022277832px;font-family:ArialMT, Arial"><tspan style="letter-spacing:-0.005944423149154936em">M</tspan><tspan x="8.33" y="0" style="letter-spacing:0.002972211574577468em">a</tspan><tspan x="13.96" y="0">y</tspan></text></g><g style="clip-path:url(#clip-path-8)"><text transform="translate(403.27 323.79) scale(1.01 1)" style="font-size:10.069890022277832px;font-family:ArialMT, Arial"><tspan style="letter-spacing:0.006040300941883242em">J</tspan><tspan x="5.1" y="0" style="letter-spacing:-0.009108390309189016em">u</tspan><tspan x="10.6" y="0">n</tspan></text></g><g style="clip-path:url(#clip-path-8)"><text transform="translate(464.41 323.79) scale(1.01 1)" style="font-size:10.069890022277832px;font-family:ArialMT, Arial"><tspan style="letter-spacing:0.006040300941883242em">J</tspan><tspan x="5.1" y="0" style="letter-spacing:-0.009108390309189016em">u</tspan><tspan x="10.6" y="0">l</tspan></text></g><g style="clip-path:url(#clip-path-8)"><text transform="translate(521.32 323.79) scale(1.01 1)" style="font-size:10.069890022277832px;font-family:ArialMT, Arial">A<tspan x="6.72" y="0" style="letter-spacing:0.002972211574577468em">u</tspan><tspan x="12.35" y="0" style="letter-spacing:-0.00009587779272830543em">g</tspan></text></g><g style="clip-path:url(#clip-path-8)"><text transform="translate(580.77 323.79) scale(1.01 1)" style="font-size:10.069890022277832px;font-family:ArialMT, Arial">S<tspan x="6.72" y="0" style="letter-spacing:0.002972211574577468em">e</tspan><tspan x="12.35" y="0" style="letter-spacing:-0.00009587779272830543em">p</tspan></text></g><g style="clip-path:url(#clip-path-8)"><text transform="translate(641.36 323.79) scale(1.01 1)" style="font-size:10.069890022277832px;font-family:ArialMT, Arial;letter-spacing:-0.004026867294588828em">O<tspan x="7.79" y="0" style="letter-spacing:0.006040300941883242em">c</tspan><tspan x="12.89" y="0" style="letter-spacing:-0.00009587779272830543em">t</tspan></text></g><g style="clip-path:url(#clip-path-8)"><text transform="translate(699.68 323.79) scale(1.01 1)" style="font-size:10.069890022277832px;font-family:ArialMT, Arial"><tspan style="letter-spacing:-0.002013433647294414em">N</tspan><tspan x="7.25" y="0" style="letter-spacing:0.002972211574577468em">o</tspan><tspan x="12.88" y="0">v</tspan></text></g><g style="clip-path:url(#clip-path-8)"><text transform="translate(759.13 323.79) scale(1.01 1)" style="font-size:10.069890022277832px;font-family:ArialMT, Arial"><tspan style="letter-spacing:-0.002013433647294414em">D</tspan><tspan x="7.25" y="0" style="letter-spacing:0.002972211574577468em">e</tspan><tspan x="12.88" y="0">c</tspan></text></g><g style="clip-path:url(#clip-path-8)"><text transform="translate(806.67 311.79) scale(1.01 1)" style="font-size:10.069890022277832px;font-family:ArialMT, Arial"><tspan style="letter-spacing:0.002013433647294414em"> </tspan><tspan x="2.82" y="0" style="letter-spacing:0.002972211574577468em">5</tspan><tspan x="8.45" y="0" style="letter-spacing:-0.011025946163755126em">,</tspan><tspan x="11.14" y="0" style="letter-spacing:0.002876333781849163em">00</tspan><tspan x="22.4" y="0">0</tspan></text></g><g style="clip-path:url(#clip-path-8)"><text transform="translate(806.67 247.93) scale(1.01 1)" style="font-size:10.069890022277832px;font-family:ArialMT, Arial;letter-spacing:0.002013433647294414em"> <tspan x="2.82" y="0" style="letter-spacing:0.002972211574577468em">2</tspan><tspan x="8.45" y="0" style="letter-spacing:-0.009108390309189016em">5</tspan><tspan x="13.96" y="0">,</tspan><tspan x="16.78" y="0" style="letter-spacing:0.002972211574577468em">00</tspan><tspan x="28.04" y="0" style="letter-spacing:-0.00009587779272830543em">0</tspan></text></g><g style="clip-path:url(#clip-path-8)"><text transform="translate(806.67 184.07) scale(1.01 1)" style="font-size:10.069890022277832px;font-family:ArialMT, Arial;letter-spacing:0.002013433647294414em"> <tspan x="2.82" y="0" style="letter-spacing:0.002972211574577468em">4</tspan><tspan x="8.45" y="0" style="letter-spacing:-0.009108390309189016em">5</tspan><tspan x="13.96" y="0">,</tspan><tspan x="16.78" y="0" style="letter-spacing:0.002972211574577468em">00</tspan><tspan x="28.04" y="0" style="letter-spacing:-0.00009587779272830543em">0</tspan></text></g><g style="clip-path:url(#clip-path-8)"><text transform="translate(806.67 120.21) scale(1.01 1)" style="font-size:10.069890022277832px;font-family:ArialMT, Arial;letter-spacing:0.002013433647294414em"> <tspan x="2.82" y="0" style="letter-spacing:0.002972211574577468em">6</tspan><tspan x="8.45" y="0" style="letter-spacing:-0.009108390309189016em">5</tspan><tspan x="13.96" y="0">,</tspan><tspan x="16.78" y="0" style="letter-spacing:0.002972211574577468em">00</tspan><tspan x="28.04" y="0" style="letter-spacing:-0.00009587779272830543em">0</tspan></text></g><g style="clip-path:url(#clip-path-8)"><text transform="translate(806.67 56.34) scale(1.01 1)" style="font-size:10.069890022277832px;font-family:ArialMT, Arial;letter-spacing:0.002013433647294414em"> <tspan x="2.82" y="0" style="letter-spacing:0.002972211574577468em">8</tspan><tspan x="8.45" y="0" style="letter-spacing:-0.009108390309189016em">5</tspan><tspan x="13.96" y="0">,</tspan><tspan x="16.78" y="0" style="letter-spacing:0.002972211574577468em">00</tspan><tspan x="28.04" y="0" style="letter-spacing:-0.00009587779272830543em">0</tspan></text></g><g style="clip-path:url(#clip-path-8)"><text transform="translate(24.17 227.11) rotate(-90) scale(0.99 1)" style="font-size:10.185449600219727px;font-family:Arial-BoldMT, Arial;font-weight:700"><tspan style="letter-spacing:0.00591571331477948em">M</tspan><tspan x="8.55" y="0" style="letter-spacing:0.003006346110789572em">a</tspan><tspan x="14.24" y="0" style="letter-spacing:-0.0020365570427929355em">r</tspan><tspan x="18.18" y="0" style="letter-spacing:0.003006346110789572em">ke</tspan><tspan x="29.57" y="0">t</tspan><tspan x="32.97" y="0" style="letter-spacing:-0.011055595375161651em"> </tspan><tspan x="35.68" y="0">P</tspan><tspan x="42.48" y="0" style="letter-spacing:-0.0020365570427929355em">r</tspan><tspan x="46.42" y="0" style="letter-spacing:0.0019395781359932722em">i</tspan><tspan x="49.27" y="0" style="letter-spacing:0.003006346110789572em">ce</tspan><tspan x="60.66" y="0" style="letter-spacing:-0.011055595375161651em"> </tspan><tspan x="63.38" y="0">(</tspan><tspan x="66.77" y="0" style="letter-spacing:-0.0020365570427929355em">R</tspan><tspan x="74.11" y="0" style="letter-spacing:0.003006346110789572em">s</tspan><tspan x="79.8" y="0" style="letter-spacing:0.0019395781359932722em">./</tspan><tspan x="85.5" y="0" style="letter-spacing:0.00591571331477948em">M</tspan><tspan x="94.05" y="0" style="letter-spacing:0.0019395781359932722em">T</tspan><tspan x="100.29" y="0">)</tspan></text></g><g style="clip-path:url(#clip-path-8)"><text transform="translate(430.9 343.7) scale(1.01 1)" style="font-size:10.069890022277832px;font-family:Arial-BoldMT, Arial;font-weight:700"><tspan style="letter-spacing:0.006040300941883242em">M</tspan><tspan x="8.45" y="0" style="letter-spacing:0.002013433647294414em">on</tspan><tspan x="20.79" y="0">t</tspan><tspan x="24.14" y="0" style="letter-spacing:0.002013433647294414em">h</tspan><tspan x="30.32" y="0" style="letter-spacing:0.002972211574577468em">s</tspan><tspan x="35.95" y="0" style="letter-spacing:-0.00009587779272830543em"> </tspan></text></g><g style="clip-path:url(#clip-path-8)"><text transform="translate(879.17 213.68) rotate(-90) scale(0.99 1)" style="font-size:10.185449600219727px;font-family:Arial-BoldMT, Arial;font-weight:700"><tspan style="letter-spacing:0.00591571331477948em">M</tspan><tspan x="8.55" y="0" style="letter-spacing:0.003006346110789572em">a</tspan><tspan x="14.24" y="0" style="letter-spacing:-0.0020365570427929355em">r</tspan><tspan x="18.18" y="0" style="letter-spacing:0.003006346110789572em">ke</tspan><tspan x="29.57" y="0">t</tspan><tspan x="32.97" y="0" style="letter-spacing:-0.011055595375161651em"> </tspan><tspan x="35.68" y="0" style="letter-spacing:-0.01503173055394786em">A</tspan><tspan x="42.89" y="0" style="letter-spacing:-0.0020365570427929355em">rr</tspan><tspan x="50.77" y="0" style="letter-spacing:0.0020365570427929355em">i</tspan><tspan x="53.62" y="0" style="letter-spacing:-0.009019038332368716em">v</tspan><tspan x="59.2" y="0" style="letter-spacing:0.003006346110789572em">a</tspan><tspan x="64.89" y="0" style="letter-spacing:0.0019395781359932722em">l</tspan><tspan x="67.74" y="0" style="letter-spacing:0.01503173055394786em"> </tspan><tspan x="70.73" y="0" style="letter-spacing:-0.0000969789067996636em">(</tspan><tspan x="74.12" y="0" style="letter-spacing:0.006012692221579144em">M</tspan><tspan x="82.66" y="0" style="letter-spacing:0.0019395781359932722em">T</tspan><tspan x="88.9" y="0">)</tspan></text></g><g style="clip-path:url(#clip-path)"><polygon points="250.66 17.9 272.38 17.9 272.38 22.87 250.66 22.87 250.66 17.9 250.66 17.9" style="fill:#2935e8;fill-rule:evenodd"/></g><g style="clip-path:url(#clip-path-8)"><text transform="translate(274.72 23.61) scale(1.01 1)" style="font-size:10.069890022277832px;font-family:ArialMT, Arial"><tspan style="letter-spacing:-0.004026867294588828em">G</tspan><tspan x="7.79" y="0" style="letter-spacing:0.011025946163755126em">U</tspan><tspan x="15.18" y="0" style="letter-spacing:-0.006040300941883242em">J</tspan><tspan x="20.15" y="0" style="letter-spacing:0.002013433647294414em"> </tspan><tspan x="22.97" y="0">(</tspan><tspan x="26.32" y="0" style="letter-spacing:-0.002013433647294414em">R</tspan><tspan x="33.57" y="0" style="letter-spacing:0.00009587779272830543em">-</tspan><tspan x="36.93" y="0" style="letter-spacing:0.002972211574577468em">2</tspan><tspan x="42.56" y="0" style="letter-spacing:-0.011025946163755126em">,</tspan><tspan x="45.24" y="0" style="letter-spacing:0.0019175558545661087em"> </tspan><tspan x="48.06" y="0" style="letter-spacing:-0.0019175558545661087em">R</tspan><tspan x="55.31" y="0">-</tspan><tspan x="58.67" y="0" style="letter-spacing:0.002972211574577468em">6</tspan><tspan x="64.3" y="0">)</tspan><tspan x="67.65" y="0" style="letter-spacing:0.002013433647294414em"> </tspan><tspan x="70.47" y="0" style="letter-spacing:-0.00009587779272830543em">Arr</tspan><tspan x="83.89" y="0" style="letter-spacing:0.004026867294588828em">i</tspan><tspan x="86.17" y="0" style="letter-spacing:-0.006040300941883242em">v</tspan><tspan x="91.14" y="0" style="letter-spacing:0.002972211574577468em">a</tspan><tspan x="96.77" y="0">l</tspan></text></g><g style="clip-path:url(#clip-path)"><line x1="521.73" y1="20.45" x2="543.45" y2="20.45" style="fill:none;stroke:#2935e8;stroke-linecap:round;stroke-linejoin:round;stroke-width:2.15999984741211px"/></g><g style="clip-path:url(#clip-path-8)"><text transform="translate(545.71 23.61) scale(1.01 1)" style="font-size:10.069890022277832px;font-family:ArialMT, Arial"><tspan style="letter-spacing:-0.004026867294588828em">G</tspan><tspan x="7.79" y="0" style="letter-spacing:0.011025946163755126em">U</tspan><tspan x="15.18" y="0" style="letter-spacing:-0.006040300941883242em">J</tspan><tspan x="20.15" y="0" style="letter-spacing:0.002013433647294414em"> </tspan><tspan x="22.97" y="0">(</tspan><tspan x="26.32" y="0" style="letter-spacing:-0.002013433647294414em">R</tspan><tspan x="33.57" y="0" style="letter-spacing:0.00009587779272830543em">-</tspan><tspan x="36.93" y="0" style="letter-spacing:0.002972211574577468em">2</tspan><tspan x="42.56" y="0" style="letter-spacing:-0.011025946163755126em">,</tspan><tspan x="45.24" y="0" style="letter-spacing:0.0019175558545661087em"> </tspan><tspan x="48.06" y="0" style="letter-spacing:-0.0019175558545661087em">R</tspan><tspan x="55.31" y="0">-</tspan><tspan x="58.67" y="0" style="letter-spacing:0.002972211574577468em">6</tspan><tspan x="64.3" y="0">)</tspan><tspan x="67.65" y="0" style="letter-spacing:0.002013433647294414em"> </tspan><tspan x="70.47" y="0" style="letter-spacing:-0.00009587779272830543em">Pr</tspan><tspan x="80.54" y="0" style="letter-spacing:0.003930989501860523em">i</tspan><tspan x="82.82" y="0" style="letter-spacing:-0.005944423149154936em">c</tspan><tspan x="87.79" y="0" style="letter-spacing:-0.00009587779272830543em">e</tspan></text></g><polygon points="0.09 0.17 898.04 0.17 898.04 349.13 0.09 349.13 0.09 0.17 0.09 0.17" style="fill:none;stroke:#d9d9d9;stroke-linejoin:round;stroke-width:0.72000002861023px"/></svg>