<svg id="Layer_1" data-name="Layer 1" xmlns="http://www.w3.org/2000/svg" xmlns:xlink="http://www.w3.org/1999/xlink" viewBox="0 0 900 350"><defs><clipPath id="clip-path"><polygon points="2.72 84.49 898.97 84.49 898.97 267.2 2.72 267.2 2.72 84.49 2.72 84.49" style="fill:none;clip-rule:evenodd"/></clipPath><clipPath id="clip-path-2"><polygon points="2.72 84.49 898.97 84.49 898.97 153.85 2.72 153.85 2.72 84.49 2.72 84.49" style="fill:none;clip-rule:evenodd"/></clipPath><clipPath id="clip-path-4"><polygon points="2.72 216.45 897.28 216.45 897.28 265.51 2.72 265.51 2.72 216.45 2.72 216.45" style="fill:none;clip-rule:evenodd"/></clipPath><clipPath id="clip-path-5"><polygon points="546.57 155.54 721.08 155.54 721.08 214.76 546.57 214.76 546.57 155.54 546.57 155.54" style="fill:none;clip-rule:evenodd"/></clipPath><clipPath id="clip-path-6"><polygon points="1.03 82.8 898.97 82.8 898.97 267.2 1.03 267.2 1.03 82.8 1.03 82.8" style="fill:none;clip-rule:evenodd"/></clipPath></defs><title>seasonal-calendar</title><g style="clip-path:url(#clip-path)"><polyline points="1.03 82.8 1.03 155.54 898.97 155.54 898.97 82.8 1.03 82.8" style="fill:#d9d9d9;fill-rule:evenodd"/><polyline points="1.03 153.85 1.03 216.45 370.37 216.45 370.37 153.85 1.03 153.85" style="fill:#f2f2f2;fill-rule:evenodd"/><polyline points="456.78 153.85 456.78 216.45 546.57 216.45 546.57 153.85 456.78 153.85" style="fill:#5e9fff;fill-rule:evenodd"/><polyline points="544.88 153.85 544.88 216.45 722.77 216.45 722.77 153.85 544.88 153.85" style="fill:#06f;fill-rule:evenodd"/><polyline points="721.08 153.85 721.08 216.45 810.87 216.45 810.87 153.85 721.08 153.85" style="fill:#0044ab;fill-rule:evenodd"/></g><g style="clip-path:url(#clip-path-2)"><text transform="translate(11.2 126.78)" style="font-size:21.992469787597656px;font-family:Arial-BoldMT, Arial;font-weight:700"><tspan style="letter-spacing:-0.028997563906146263em">A</tspan><tspan x="15.24" y="0" style="letter-spacing:0.003990490445799945em">g</tspan><tspan x="28.77" y="0" style="letter-spacing:-0.003990490445799945em">r</tspan><tspan x="37.24" y="0" style="letter-spacing:0.003990490445799945em">o</tspan><tspan x="50.76" y="0" style="letter-spacing:-0.025007073460346318em">-</tspan><tspan x="57.53" y="0" style="letter-spacing:-0.017026092568746428em">c</tspan><tspan x="69.39" y="0" style="letter-spacing:0.029041902688877377em">li</tspan><tspan x="82.89" y="0" style="letter-spacing:0.032988054351946204em">m</tspan><tspan x="103.17" y="0" style="letter-spacing:0.05901491981510806em">a</tspan><tspan x="116.7" y="0" style="letter-spacing:-0.02505141224307743em">t</tspan><tspan x="123.47" y="0" style="letter-spacing:0.029041902688877377em">i</tspan><tspan x="130.22" y="0" style="letter-spacing:-0.017026092568746428em">c</tspan><tspan x="142.07" y="0" style="letter-spacing:0.029041902688877377em"> </tspan><tspan x="148.82" y="0" style="letter-spacing:0.03795399801783059em">z</tspan><tspan x="160.65" y="0" style="letter-spacing:0.003990490445799945em">on</tspan><tspan x="187.7" y="0">e</tspan></text><text transform="translate(258.55 126.78)" style="font-size:21.992469787597656px;font-family:Arial-BoldMT, Arial;font-weight:700"><tspan style="letter-spacing:-0.028997563906146263em">R</tspan><tspan x="15.24" y="0" style="letter-spacing:0.05901491981510806em">e</tspan><tspan x="28.77" y="0" style="letter-spacing:0.003990490445799945em">g</tspan><tspan x="42.29" y="0" style="letter-spacing:0.028997563906146263em">i</tspan><tspan x="49.04" y="0" style="letter-spacing:0.003990490445799945em">o</tspan><tspan x="62.56" y="0">n</tspan></text><text transform="translate(395.79 126.78)" style="font-size:21.992469787597656px;font-family:Arial-BoldMT, Arial;font-weight:700"><tspan style="letter-spacing:-0.008025319674331em">O</tspan><tspan x="16.93" y="0" style="letter-spacing:-0.01698175378601532em">c</tspan><tspan x="28.79" y="0">t</tspan></text><text transform="translate(482.19 126.78)" style="font-size:21.992469787597656px;font-family:Arial-BoldMT, Arial;font-weight:700;letter-spacing:-0.028997563906146263em">N<tspan x="15.24" y="0" style="letter-spacing:0.003990490445799945em">o</tspan><tspan x="28.77" y="0" style="letter-spacing:0.00004433878273111049em">v</tspan></text><text transform="translate(570.3 126.78)" style="font-size:21.992469787597656px;font-family:Arial-BoldMT, Arial;font-weight:700;letter-spacing:-0.029041902688877377em">D<tspan x="15.24" y="0" style="letter-spacing:0.05901491981510806em">e</tspan><tspan x="28.77" y="0" style="letter-spacing:0.00004433878273111049em">c</tspan></text><text transform="translate(658.4 126.78)" style="font-size:21.992469787597656px;font-family:Arial-BoldMT, Arial;font-weight:700;letter-spacing:-0.01698175378601532em">J<tspan x="11.86" y="0" style="letter-spacing:0.05901491981510806em">a</tspan><tspan x="25.39" y="0" style="letter-spacing:-0.00004433878273111049em">n</tspan></text><text transform="translate(746.49 126.78)" style="font-size:21.992469787597656px;font-family:Arial-BoldMT, Arial;font-weight:700;letter-spacing:0.003990490445799945em">F<tspan x="13.52" y="0" style="letter-spacing:0.05901491981510806em">e</tspan><tspan x="27.05" y="0" style="letter-spacing:-0.00004433878273111049em">b</tspan></text><text transform="translate(834.59 126.78)" style="font-size:21.992469787597656px;font-family:Arial-BoldMT, Arial;font-weight:700"><tspan style="letter-spacing:0.013035602122946487em">M</tspan><tspan x="18.61" y="0" style="letter-spacing:0.05897058103237696em">a</tspan><tspan x="32.13" y="0">r</tspan></text></g><g style="clip-path:url(#clip-path)"><text transform="translate(89.13 192.74)" style="font-size:21.992469787597656px;font-family:Arial-BoldMT, Arial;font-weight:700;letter-spacing:-0.008025319674331em">G<tspan x="16.93" y="0" style="letter-spacing:0.025007073460346318em">P</tspan><tspan x="32.15" y="0" style="letter-spacing:0.00004433878273111049em">H</tspan></text><text transform="translate(243.31 192.74)" style="font-size:21.992469787597656px;font-family:Arial-BoldMT, Arial;font-weight:700;letter-spacing:-0.028997563906146263em">R<tspan x="15.24" y="0" style="letter-spacing:-0.025007073460346318em">-</tspan><tspan x="22.02" y="0" style="letter-spacing:-0.01698175378601532em">2</tspan><tspan x="33.88" y="0" style="letter-spacing:0.028997563906146263em">, </tspan><tspan x="47.37" y="0">R</tspan><tspan x="62.62" y="0" style="letter-spacing:-0.02505141224307743em">-</tspan><tspan x="69.39" y="0" style="letter-spacing:0.00004433878273111049em">6</tspan></text></g><g style="clip-path:url(#clip-path-4)"><text transform="translate(6.11 246.91)" style="font-size:18.608989715576172px;font-family:ArialMT, Arial"><tspan style="letter-spacing:-0.0849935215752489em">N</tspan><tspan x="11.86" y="0" style="letter-spacing:-0.010060885414579402em">o</tspan><tspan x="22.02" y="0" style="letter-spacing:-0.004978042262422101em">t</tspan><tspan x="27.1" y="0" style="letter-spacing:-0.0100084849697118em">e</tspan><tspan x="37.26" y="0" style="letter-spacing:-0.005030442707289701em">:</tspan><tspan x="42.34" y="0"> </tspan></text><text transform="translate(53.54 246.91)" style="font-size:18.608989715576172px;font-family:Arial-BoldMT, Arial;font-weight:700"><tspan style="letter-spacing:-0.04999002440369141em">G</tspan><tspan x="13.54" y="0" style="letter-spacing:-0.030025454909135406em">P</tspan><tspan x="25.4" y="0">H</tspan></text><text transform="translate(90.83 246.91)" style="font-size:18.608989715576172px;font-family:ArialMT, Arial;letter-spacing:-0.004978042262422101em"> <tspan x="5.08" y="0" style="letter-spacing:-0.05004242484855901em">G</tspan><tspan x="18.62" y="0" style="letter-spacing:-0.009956084524844202em">u</tspan><tspan x="28.78" y="0" style="letter-spacing:-0.0399815394339796em">j</tspan><tspan x="32.18" y="0" style="letter-spacing:-0.010060885414579402em">a</tspan><tspan x="42.34" y="0" style="letter-spacing:0.030025454909135406em">r</tspan><tspan x="49.09" y="0" style="letter-spacing:-0.0100084849697118em">a</tspan><tspan x="59.26" y="0">t </tspan><tspan x="69.41" y="0" style="letter-spacing:-0.12104502764415843em">P</tspan><tspan x="79.57" y="0" style="letter-spacing:-0.0399815394339796em">l</tspan><tspan x="82.96" y="0" style="letter-spacing:-0.009956084524844202em">a</tspan><tspan x="93.12" y="0" style="letter-spacing:-0.0400339398788472em">i</tspan><tspan x="96.51" y="0" style="letter-spacing:-0.0100084849697118em">n</tspan><tspan x="106.68" y="0" style="letter-spacing:0.044959581696401706em">s</tspan><tspan x="116.82" y="0"> </tspan><tspan x="121.9" y="0" style="letter-spacing:-0.0100084849697118em">and</tspan><tspan x="152.39" y="0"> </tspan><tspan x="157.46" y="0" style="letter-spacing:-0.08504592202011652em">H</tspan><tspan x="169.32" y="0" style="letter-spacing:-0.0399815394339796em">ill</tspan><tspan x="179.49" y="0" style="letter-spacing:-0.000052400444867601056em">s</tspan></text></g><g style="clip-path:url(#clip-path-5)"><text transform="translate(605.87 192.74)" style="font-size:21.992469787597656px;fill:#fff;font-family:Arial-BoldMT, Arial;font-weight:700"><tspan style="letter-spacing:0.028997563906146263em"> </tspan><tspan x="6.75" y="0" style="letter-spacing:-0.028953225123415156em">R</tspan><tspan x="21.99" y="0" style="letter-spacing:0.05901491981510806em">a</tspan><tspan x="35.52" y="0" style="letter-spacing:0.003946151663068834em">b</tspan><tspan x="49.04" y="0">i</tspan></text></g><g style="clip-path:url(#clip-path-6)"><polyline points="2.72 82.8 2.72 84.49 898.97 84.49 898.97 82.8 2.72 82.8" style="fill:#bfbfbf;fill-rule:evenodd"/><polyline points="2.72 153.85 2.72 155.54 898.97 155.54 898.97 153.85 2.72 153.85" style="fill:#bfbfbf;fill-rule:evenodd"/><polyline points="1.03 82.8 1.03 216.45 2.72 216.45 2.72 82.8 1.03 82.8" style="fill:#bfbfbf;fill-rule:evenodd"/><polyline points="2.72 214.76 2.72 216.45 898.97 216.45 898.97 214.76 2.72 214.76" style="fill:#bfbfbf;fill-rule:evenodd"/><polyline points="897.28 84.49 897.28 216.45 898.97 216.45 898.97 84.49 897.28 84.49" style="fill:#bfbfbf;fill-rule:evenodd"/><polyline points="222.97 84.49 222.97 216.45 224.67 216.45 224.67 84.49 222.97 84.49" style="fill:#bfbfbf;fill-rule:evenodd"/><polyline points="368.68 84.49 368.68 216.45 370.37 216.45 370.37 84.49 368.68 84.49" style="fill:#bfbfbf;fill-rule:evenodd"/><polyline points="456.78 84.49 456.78 216.45 458.47 216.45 458.47 84.49 456.78 84.49" style="fill:#bfbfbf;fill-rule:evenodd"/><polyline points="544.88 84.49 544.88 216.45 546.57 216.45 546.57 84.49 544.88 84.49" style="fill:#bfbfbf;fill-rule:evenodd"/><polyline points="632.98 84.49 632.98 155.54 634.67 155.54 634.67 84.49 632.98 84.49" style="fill:#bfbfbf;fill-rule:evenodd"/><polyline points="721.08 84.49 721.08 216.45 722.77 216.45 722.77 84.49 721.08 84.49" style="fill:#bfbfbf;fill-rule:evenodd"/><polyline points="809.18 84.49 809.18 216.45 810.87 216.45 810.87 84.49 809.18 84.49" style="fill:#bfbfbf;fill-rule:evenodd"/><polyline points="1.03 216.45 1.03 268.89 2.72 268.89 2.72 216.45 1.03 216.45" style="fill:#fff;fill-rule:evenodd"/><polyline points="222.97 267.2 222.97 268.89 224.67 268.89 224.67 267.2 222.97 267.2" style="fill:#fff;fill-rule:evenodd"/><polyline points="368.68 267.2 368.68 268.89 370.37 268.89 370.37 267.2 368.68 267.2" style="fill:#fff;fill-rule:evenodd"/><polyline points="456.78 267.2 456.78 268.89 458.47 268.89 458.47 267.2 456.78 267.2" style="fill:#fff;fill-rule:evenodd"/><polyline points="544.88 267.2 544.88 268.89 546.57 268.89 546.57 267.2 544.88 267.2" style="fill:#fff;fill-rule:evenodd"/><polyline points="632.98 267.2 632.98 268.89 634.67 268.89 634.67 267.2 632.98 267.2" style="fill:#fff;fill-rule:evenodd"/><polyline points="721.08 267.2 721.08 268.89 722.77 268.89 722.77 267.2 721.08 267.2" style="fill:#fff;fill-rule:evenodd"/><polyline points="809.18 267.2 809.18 268.89 810.87 268.89 810.87 267.2 809.18 267.2" style="fill:#fff;fill-rule:evenodd"/><polyline points="897.28 216.45 897.28 268.89 898.97 268.89 898.97 216.45 897.28 216.45" style="fill:#fff;fill-rule:evenodd"/><polyline points="898.97 82.8 898.97 84.49 900.66 84.49 900.66 82.8 898.97 82.8" style="fill:#d4d4d4;fill-rule:evenodd"/><polyline points="898.97 153.85 898.97 155.54 900.66 155.54 900.66 153.85 898.97 153.85" style="fill:#d4d4d4;fill-rule:evenodd"/><polyline points="898.97 214.76 898.97 216.45 900.66 216.45 900.66 214.76 898.97 214.76" style="fill:#d4d4d4;fill-rule:evenodd"/><polyline points="1.03 265.51 1.03 267.2 900.66 267.2 900.66 265.51 1.03 265.51" style="fill:#fff;fill-rule:evenodd"/></g></svg>