<svg id="Layer_1" data-name="Layer 1" xmlns="http://www.w3.org/2000/svg" xmlns:xlink="http://www.w3.org/1999/xlink" viewBox="0 0 900 350"><defs><clipPath id="clip-path"><polygon points="1.73 347.82 898.04 347.82 898.04 1.31 1.73 1.31 1.73 347.82 1.73 347.82" style="fill:none;clip-rule:evenodd"/></clipPath><clipPath id="clip-path-2"><polygon points="106.52 300.95 887.31 300.95 887.31 22.75 106.52 22.75 106.52 300.95 106.52 300.95" style="fill:none;clip-rule:evenodd"/></clipPath><clipPath id="clip-path-7"><rect x="1.73" y="1.31" width="896.31" height="346.51" style="fill:none"/></clipPath><clipPath id="clip-path-12"><rect x="535.58" y="88.27" width="315.03" height="19.18" style="fill:none"/></clipPath></defs><title>yar</title><polygon points="1.87 1.31 898.04 1.31 898.04 347.96 1.87 347.96 1.87 1.31 1.87 1.31" style="fill:#eaeaea;fill-rule:evenodd"/><polygon points="106.52 22.89 886.49 22.89 886.49 300.15 106.52 300.15 106.52 22.89 106.52 22.89" style="fill:#fff;fill-rule:evenodd"/><path d="M106.52,300.15h780m-780-92.42h780m-780-92.42h780m-780-92.43h780" style="fill:none;stroke:#d9d9d9;stroke-linejoin:round;stroke-width:0.719999969005585px"/><g style="clip-path:url(#clip-path)"><path d="M106.52,22.88V300.15M496.57,22.88V300.15M886.49,22.88V300.15" style="fill:none;stroke:#d9d9d9;stroke-linejoin:round;stroke-width:0.719999969005585px"/></g><g style="clip-path:url(#clip-path-2)"><path d="M223.53,253.94h156v4.66h-156v-4.66Zm389.92,0h156v18.51h-156V253.94Z" style="fill:#ff25f3"/></g><g style="clip-path:url(#clip-path-2)"><path d="M223.53,69.1h156V253.94h-156V69.1Zm389.92,55.39h156V253.94h-156V124.49Z" style="fill:#5e9fff"/></g><g style="clip-path:url(#clip-path-2)"><path d="M223.53,64.43h156V69.1h-156V64.43ZM613.45,106h156v18.51h-156V106Z" style="fill:#04f"/></g><g style="clip-path:url(#clip-path)"><line x1="106.52" y1="253.94" x2="886.49" y2="253.94" style="fill:none;stroke:#d9d9d9;stroke-linejoin:round;stroke-width:0.719999969005585px"/></g><g style="clip-path:url(#clip-path)"><path d="M106.52,253.94V257m390.05-3.06V257m389.92-3.06V257" style="fill:none;stroke:#d9d9d9;stroke-linejoin:round;stroke-width:0.719999969005585px"/></g><g style="clip-path:url(#clip-path-7)"><text transform="translate(283.67 273.84) scale(1.02 1)" style="font-size:9.987859725952148px;font-family:ArialMT, Arial">-</text></g><g style="clip-path:url(#clip-path-7)"><text transform="translate(287.07 273.84) scale(1.02 1)" style="font-size:9.987859725952148px;font-family:ArialMT, Arial;letter-spacing:0.0029699901604041627em">1<tspan x="5.58" y="0" style="letter-spacing:0.002011928818338303em">.</tspan><tspan x="8.38" y="0">77</tspan><tspan x="19.55" y="0" style="letter-spacing:-0.00009580613420658588em">%</tspan></text></g><g style="clip-path:url(#clip-path-7)"><text transform="translate(675.77 285.7) scale(1.02 1)" style="font-size:9.987859725952148px;font-family:ArialMT, Arial">-</text></g><g style="clip-path:url(#clip-path-7)"><text transform="translate(679.16 285.7) scale(1.02 1)" style="font-size:9.987859725952148px;font-family:ArialMT, Arial"><tspan style="letter-spacing:0.0029699901604041627em">14</tspan><tspan x="11.17" y="0" style="letter-spacing:0.0019161226841317176em">.</tspan><tspan x="13.96" y="0" style="letter-spacing:0.003065796294610748em">85</tspan><tspan x="25.13" y="0">%</tspan></text></g><g style="clip-path:url(#clip-path-7)"><text transform="translate(282.33 54.7) scale(1.02 1)" style="font-size:11.053230285644531px;font-family:ArialMT, Arial"><tspan style="letter-spacing:-0.005021165384916161em">+</tspan><tspan x="6.4" y="0" style="letter-spacing:-0.0009522899867944442em">1</tspan><tspan x="12.54" y="0">.</tspan><tspan x="15.61" y="0" style="letter-spacing:-0.0010388618037757574em">77</tspan><tspan x="27.88" y="0">%</tspan></text></g><g style="clip-path:url(#clip-path-12)"><text transform="translate(670.75 98.85) scale(1.02 1)" style="font-size:11.053230285644531px;font-family:ArialMT, Arial"><tspan style="letter-spacing:-0.005021165384916161em">+</tspan><tspan x="6.4" y="0" style="letter-spacing:-0.0009522899867944442em">14</tspan><tspan x="18.67" y="0">.</tspan><tspan x="21.74" y="0" style="letter-spacing:-0.0009522899867944442em">85</tspan><tspan x="34.02" y="0" style="letter-spacing:-0.00008657181698131311em">%</tspan></text></g><g style="clip-path:url(#clip-path-7)"><text transform="translate(80.25 303.36) scale(1.02 1)" style="font-size:9.987859725952148px;font-family:ArialMT, Arial">-<tspan x="3.33" y="0" style="letter-spacing:0.0029699901604041627em">0</tspan><tspan x="8.91" y="0" style="letter-spacing:0.002011928818338303em">.</tspan><tspan x="11.71" y="0">1</tspan></text></g><g style="clip-path:url(#clip-path-7)"><text transform="translate(83.65 210.92) scale(1.02 1)" style="font-size:9.987859725952148px;font-family:ArialMT, Arial"><tspan style="letter-spacing:0.0029699901604041627em">0</tspan><tspan x="5.58" y="0" style="letter-spacing:0.002011928818338303em">.</tspan><tspan x="8.38" y="0">1</tspan></text></g><g style="clip-path:url(#clip-path-7)"><text transform="translate(83.65 118.48) scale(1.02 1)" style="font-size:9.987859725952148px;font-family:ArialMT, Arial"><tspan style="letter-spacing:0.0029699901604041627em">0</tspan><tspan x="5.58" y="0" style="letter-spacing:0.002011928818338303em">.</tspan><tspan x="8.38" y="0">3</tspan></text></g><g style="clip-path:url(#clip-path-7)"><text transform="translate(83.65 26.04) scale(1.02 1)" style="font-size:9.987859725952148px;font-family:ArialMT, Arial"><tspan style="letter-spacing:0.0029699901604041627em">0</tspan><tspan x="5.58" y="0" style="letter-spacing:0.002011928818338303em">.</tspan><tspan x="8.38" y="0">5</tspan></text></g><g style="clip-path:url(#clip-path-7)"><text transform="translate(293.35 315.25) scale(1.02 1)" style="font-size:9.987859725952148px;font-family:ArialMT, Arial"><tspan style="letter-spacing:-0.002011928818338303em">R</tspan><tspan x="7.19" y="0">-2</tspan></text></g><g style="clip-path:url(#clip-path-7)"><text transform="translate(683.3 315.25) scale(1.02 1)" style="font-size:9.987859725952148px;font-family:ArialMT, Arial"><tspan style="letter-spacing:-0.002011928818338303em">R</tspan><tspan x="7.19" y="0">-6</tspan></text></g><g style="clip-path:url(#clip-path-7)"><text transform="translate(34.8 207.08) rotate(-90) scale(0.98 1)" style="font-size:11.280360221862793px;font-family:Arial-BoldMT, Arial;font-weight:700"><tspan style="letter-spacing:0.005035974080470638em">Q</tspan><tspan x="8.83" y="0" style="letter-spacing:0.002915563941325106em">u</tspan><tspan x="15.75" y="0" style="letter-spacing:-0.0009718546471083688em">a</tspan><tspan x="22.02" y="0" style="letter-spacing:0.003003914363789503em">n</tspan><tspan x="28.94" y="0" style="letter-spacing:0.003975769010897872em">t</tspan><tspan x="32.74" y="0">i</tspan><tspan x="35.88" y="0" style="letter-spacing:0.003975769010897872em">t</tspan><tspan x="39.68" y="0" style="letter-spacing:-0.01298751210226638em">y</tspan><tspan x="45.81" y="0" style="letter-spacing:0.010955452385585247em"> </tspan><tspan x="49.06" y="0">&amp; </tspan><tspan x="60.34" y="0" style="letter-spacing:0.006979683374687376em">Y</tspan><tspan x="67.95" y="0" style="letter-spacing:-0.0009718546471083688em">a</tspan><tspan x="74.21" y="0">R</tspan><tspan x="82.36" y="0" style="letter-spacing:0.010955452385585247em"> </tspan><tspan x="85.61" y="0" style="letter-spacing:0.003975769010897872em">(</tspan><tspan x="89.42" y="0" style="letter-spacing:0.02208760561609929em">M</tspan><tspan x="99.06" y="0" style="letter-spacing:0.014931221396483119em">T</tspan><tspan x="106.12" y="0">)</tspan></text></g><g style="clip-path:url(#clip-path-7)"><text transform="translate(419.21 335.91) scale(1.02 1)" style="font-size:11.053230285644531px;font-family:Arial-BoldMT, Arial;font-weight:700">R<tspan x="7.98" y="0" style="letter-spacing:-0.0010388618037757574em">e</tspan><tspan x="14.12" y="0" style="letter-spacing:0.003030013594345959em">g</tspan><tspan x="20.9" y="0">i</tspan><tspan x="23.97" y="0" style="letter-spacing:0.003030013594345959em">on</tspan><tspan x="37.54" y="0">s</tspan></text></g><polygon points="1.87 1.31 898.04 1.31 898.04 347.96 1.87 347.96 1.87 1.31 1.87 1.31" style="fill:none;stroke:#d9d9d9;stroke-linejoin:round;stroke-width:0.72000002861023px"/></svg>