<svg id="Layer_1" data-name="Layer 1" xmlns="http://www.w3.org/2000/svg" xmlns:xlink="http://www.w3.org/1999/xlink" viewBox="0 0 900 350"><defs><clipPath id="clip-path"><polygon points="3 341.31 894.39 341.31 894.39 3 3 3 3 341.31 3 341.31" style="fill:none;clip-rule:evenodd"/></clipPath><clipPath id="clip-path-2"><polygon points="73.82 297.89 873.63 297.89 873.63 20.12 73.82 20.12 73.82 297.89 73.82 297.89" style="fill:none;clip-rule:evenodd"/></clipPath><clipPath id="clip-path-13"><rect x="3" y="3" width="891.39" height="338.3" style="fill:none"/></clipPath></defs><title>ground-truth-risk-report</title><polygon points="3 3.14 894.52 3.14 894.52 341.44 3 341.44 3 3.14 3 3.14" style="fill:#eaeaea;fill-rule:evenodd"/><polygon points="73.82 20.12 872.81 20.12 872.81 297.2 73.82 297.2 73.82 20.12 73.82 20.12" style="fill:#fff;fill-rule:evenodd"/><path d="M73.82,227.9h799m-799-69.31h799m-799-69.16h799m-799-69.31h799" style="fill:none;stroke:#d9d9d9;stroke-linejoin:round;stroke-width:0.817912753368925px"/><g style="clip-path:url(#clip-path)"><path d="M73.82,20.12V297.2M340.15,20.12V297.2M606.48,20.12V297.2M872.81,20.12V297.2" style="fill:none;stroke:#d9d9d9;stroke-linejoin:round;stroke-width:0.817912753368925px"/></g><g style="clip-path:url(#clip-path-2)"><polygon points="155.77 103.26 258.2 103.26 258.2 297.2 155.77 297.2 155.77 103.26 155.77 103.26" style="fill:#5e9fff;fill-rule:evenodd"/><polygon points="155.77 103.26 258.2 103.26 258.2 297.2 155.77 297.2 155.77 103.26 155.77 103.26" style="fill:none;stroke:#7f7f7f;stroke-linejoin:round;stroke-width:0.817912753368925px"/><polygon points="422.1 100.52 524.53 100.52 524.53 297.2 422.1 297.2 422.1 100.52 422.1 100.52" style="fill:#5e9fff;fill-rule:evenodd"/><polygon points="422.1 100.52 524.53 100.52 524.53 297.2 422.1 297.2 422.1 100.52 422.1 100.52" style="fill:none;stroke:#7f7f7f;stroke-linejoin:round;stroke-width:0.817912753368925px"/><polygon points="688.43 97.78 790.87 97.78 790.87 297.2 688.43 297.2 688.43 97.78 688.43 97.78" style="fill:#5e9fff;fill-rule:evenodd"/><polygon points="688.43 97.78 790.87 97.78 790.87 297.2 688.43 297.2 688.43 97.78 688.43 97.78" style="fill:none;stroke:#7f7f7f;stroke-linejoin:round;stroke-width:0.817912753368925px"/></g><g style="clip-path:url(#clip-path)"><line x1="73.82" y1="297.2" x2="872.81" y2="297.2" style="fill:none;stroke:#d9d9d9;stroke-linejoin:round;stroke-width:0.817912753368925px"/></g><g style="clip-path:url(#clip-path)"><path d="M73.82,297.2v3m266.33-3v3m266.33-3v3m266.33-3v3" style="fill:none;stroke:#d9d9d9;stroke-linejoin:round;stroke-width:0.817912753368925px"/></g><g style="clip-path:url(#clip-path-2)"><polyline points="207.06 39.84 473.39 39.84 739.72 39.84" style="fill:none;stroke:#06f;stroke-miterlimit:10;stroke-width:1.363px;stroke-dasharray:5,5"/></g><g style="clip-path:url(#clip-path)"><path d="M209.94,39.81a2.85,2.85,0,1,1-2.85-2.88,2.87,2.87,0,0,1,2.85,2.88Z" style="fill:#2935e8"/><path d="M209.94,39.81a2.85,2.85,0,1,1-2.85-2.88,2.87,2.87,0,0,1,2.85,2.88Z" style="fill:none;stroke:#2935e8;stroke-linejoin:round;stroke-width:0.817912821079205px"/><path d="M476.27,39.81a2.85,2.85,0,1,1-2.85-2.88,2.87,2.87,0,0,1,2.85,2.88Z" style="fill:#2935e8"/><path d="M476.27,39.81a2.85,2.85,0,1,1-2.85-2.88,2.87,2.87,0,0,1,2.85,2.88Z" style="fill:none;stroke:#2935e8;stroke-linejoin:round;stroke-width:0.817912821079205px"/><path d="M742.6,39.81a2.85,2.85,0,1,1-2.85-2.88,2.87,2.87,0,0,1,2.85,2.88Z" style="fill:#2935e8"/><path d="M742.6,39.81a2.85,2.85,0,1,1-2.85-2.88,2.87,2.87,0,0,1,2.85,2.88Z" style="fill:none;stroke:#2935e8;stroke-linejoin:round;stroke-width:0.817912821079205px"/></g><g style="clip-path:url(#clip-path-2)"><polyline points="207.06 188.59 473.39 188.59 739.72 188.59" style="fill:none;stroke:#ff25f3;stroke-miterlimit:10;stroke-width:1.363px;stroke-dasharray:5,5"/></g><g style="clip-path:url(#clip-path)"><path d="M209.94,188.55a2.85,2.85,0,1,1-2.85-2.87,2.87,2.87,0,0,1,2.85,2.87Z" style="fill:#ff25f3"/><path d="M209.94,188.55a2.85,2.85,0,1,1-2.85-2.87,2.87,2.87,0,0,1,2.85,2.87Z" style="fill:none;stroke:#ffd3fd;stroke-linejoin:round;stroke-width:0.817912821079205px"/><path d="M476.27,188.55a2.85,2.85,0,1,1-2.85-2.87,2.87,2.87,0,0,1,2.85,2.87Z" style="fill:#ff25f3"/><path d="M476.27,188.55a2.85,2.85,0,1,1-2.85-2.87,2.87,2.87,0,0,1,2.85,2.87Z" style="fill:none;stroke:#ffd3fd;stroke-linejoin:round;stroke-width:0.817912821079205px"/><path d="M742.6,188.55a2.85,2.85,0,1,1-2.85-2.87,2.87,2.87,0,0,1,2.85,2.87Z" style="fill:#ff25f3"/><path d="M742.6,188.55a2.85,2.85,0,1,1-2.85-2.87,2.87,2.87,0,0,1,2.85,2.87Z" style="fill:none;stroke:#ffd3fd;stroke-linejoin:round;stroke-width:0.817912821079205px"/></g><g style="clip-path:url(#clip-path-2)"><polyline points="207.06 89.42 473.39 89.42 739.72 89.42" style="fill:none;stroke:#7f7f7f;stroke-linecap:round;stroke-linejoin:round;stroke-width:1.36318789971145px"/></g><g style="clip-path:url(#clip-path)"><path d="M209.94,89.39a2.85,2.85,0,1,1-2.85-2.88,2.87,2.87,0,0,1,2.85,2.88Z" style="fill:#7f7f7f"/><path d="M209.94,89.39a2.85,2.85,0,1,1-2.85-2.88,2.87,2.87,0,0,1,2.85,2.88Z" style="fill:none;stroke:#7f7f7f;stroke-linejoin:round;stroke-width:0.817912821079205px"/><path d="M476.27,89.39a2.85,2.85,0,1,1-2.85-2.88,2.87,2.87,0,0,1,2.85,2.88Z" style="fill:#7f7f7f"/><path d="M476.27,89.39a2.85,2.85,0,1,1-2.85-2.88,2.87,2.87,0,0,1,2.85,2.88Z" style="fill:none;stroke:#7f7f7f;stroke-linejoin:round;stroke-width:0.817912821079205px"/><path d="M742.6,89.39a2.85,2.85,0,1,1-2.85-2.88,2.87,2.87,0,0,1,2.85,2.88Z" style="fill:#7f7f7f"/><path d="M742.6,89.39a2.85,2.85,0,1,1-2.85-2.88,2.87,2.87,0,0,1,2.85,2.88Z" style="fill:none;stroke:#7f7f7f;stroke-linejoin:round;stroke-width:0.817912821079205px"/></g><g style="clip-path:url(#clip-path-2)"><polyline points="207.06 103.26 473.39 103.26 739.72 103.26" style="fill:none;stroke:#00c1a3;stroke-linecap:round;stroke-linejoin:round;stroke-width:1.36318789971145px"/></g><g style="clip-path:url(#clip-path)"><path d="M209.94,103.22a2.85,2.85,0,1,1-2.85-2.87,2.87,2.87,0,0,1,2.85,2.87Z" style="fill:#00c1a3"/><path d="M209.94,103.22a2.85,2.85,0,1,1-2.85-2.87,2.87,2.87,0,0,1,2.85,2.87Z" style="fill:none;stroke:#c0fff5;stroke-linejoin:round;stroke-width:0.817912821079205px"/><path d="M476.27,103.22a2.85,2.85,0,1,1-2.85-2.87,2.87,2.87,0,0,1,2.85,2.87Z" style="fill:#00c1a3"/><path d="M476.27,103.22a2.85,2.85,0,1,1-2.85-2.87,2.87,2.87,0,0,1,2.85,2.87Z" style="fill:none;stroke:#c0fff5;stroke-linejoin:round;stroke-width:0.817912821079205px"/><path d="M742.6,103.22a2.85,2.85,0,1,1-2.85-2.87,2.87,2.87,0,0,1,2.85,2.87Z" style="fill:#00c1a3"/><path d="M742.6,103.22a2.85,2.85,0,1,1-2.85-2.87,2.87,2.87,0,0,1,2.85,2.87Z" style="fill:none;stroke:#c0fff5;stroke-linejoin:round;stroke-width:0.817912821079205px"/></g><g style="clip-path:url(#clip-path-13)"><text transform="translate(45.3 300.41) scale(0.99 1)" style="font-size:10.27241039276123px;font-family:ArialMT, Arial"><tspan style="letter-spacing:0.0029750879614079714em">4</tspan><tspan x="5.74" y="0" style="letter-spacing:0.0020153821674054em">.</tspan><tspan x="8.62" y="0" style="letter-spacing:-0.009021234463624172em">5</tspan><tspan x="14.24" y="0">0</tspan></text></g><g style="clip-path:url(#clip-path-13)"><text transform="translate(45.3 231.17) scale(0.99 1)" style="font-size:10.27241039276123px;font-family:ArialMT, Arial"><tspan style="letter-spacing:0.0029750879614079714em">5</tspan><tspan x="5.74" y="0" style="letter-spacing:0.0020153821674054em">.</tspan><tspan x="8.62" y="0" style="letter-spacing:-0.009021234463624172em">0</tspan><tspan x="14.24" y="0">0</tspan></text></g><g style="clip-path:url(#clip-path-13)"><text transform="translate(45.3 161.93) scale(0.99 1)" style="font-size:10.27241039276123px;font-family:ArialMT, Arial"><tspan style="letter-spacing:0.0029750879614079714em">5</tspan><tspan x="5.74" y="0" style="letter-spacing:0.0020153821674054em">.</tspan><tspan x="8.62" y="0" style="letter-spacing:-0.009021234463624172em">5</tspan><tspan x="14.24" y="0">0</tspan></text></g><g style="clip-path:url(#clip-path-13)"><text transform="translate(45.3 92.7) scale(0.99 1)" style="font-size:10.27241039276123px;font-family:ArialMT, Arial"><tspan style="letter-spacing:0.0029750879614079714em">6</tspan><tspan x="5.74" y="0" style="letter-spacing:0.0020153821674054em">.</tspan><tspan x="8.62" y="0" style="letter-spacing:-0.009021234463624172em">0</tspan><tspan x="14.24" y="0">0</tspan></text></g><g style="clip-path:url(#clip-path-13)"><text transform="translate(45.3 23.46) scale(0.99 1)" style="font-size:10.27241039276123px;font-family:ArialMT, Arial"><tspan style="letter-spacing:0.0029750879614079714em">6</tspan><tspan x="5.74" y="0" style="letter-spacing:0.0020153821674054em">.</tspan><tspan x="8.62" y="0" style="letter-spacing:-0.009021234463624172em">5</tspan><tspan x="14.24" y="0">0</tspan></text></g><g style="clip-path:url(#clip-path-13)"><text transform="translate(195 312.64) scale(0.99 1)" style="font-size:10.27241039276123px;font-family:ArialMT, Arial">Aug</text></g><g style="clip-path:url(#clip-path-13)"><text transform="translate(460.34 312.64) scale(0.99 1)" style="font-size:10.27241039276123px;font-family:ArialMT, Arial">Sep</text></g><g style="clip-path:url(#clip-path-13)"><text transform="translate(731.67 312.64) scale(0.99 1)" style="font-size:10.27241039276123px;font-family:ArialMT, Arial">Oct</text></g><g style="clip-path:url(#clip-path-13)"><text transform="translate(21.78 215.18) rotate(-90) scale(1.01 1)" style="font-size:11.261039733886719px;font-family:Arial-BoldMT, Arial;font-weight:700"><tspan style="letter-spacing:0.004982403585298861em">Q</tspan><tspan x="8.82" y="0" style="letter-spacing:0.0030066228531975886em">u</tspan><tspan x="15.73" y="0" style="letter-spacing:-0.0010308421210963163em">a</tspan><tspan x="21.98" y="0" style="letter-spacing:0.0030066228531975886em">n</tspan><tspan x="28.89" y="0" style="letter-spacing:0.003951561464202546em">t</tspan><tspan x="32.69" y="0">i</tspan><tspan x="35.82" y="0" style="letter-spacing:0.003951561464202546em">t</tspan><tspan x="39.61" y="0" style="letter-spacing:-0.012971430023795312em">y</tspan><tspan x="45.73" y="0" style="letter-spacing:0.01099564929169404em"> </tspan><tspan x="48.98" y="0" style="letter-spacing:0.003951561464202546em">(</tspan><tspan x="52.77" y="0" style="letter-spacing:0.022077202093479444em">M</tspan><tspan x="62.4" y="0" style="letter-spacing:0.014947210755896584em">T</tspan><tspan x="69.45" y="0" style="letter-spacing:-0.00008590351009135969em">)</tspan></text></g><g style="clip-path:url(#clip-path-13)"><text transform="translate(417.52 335.27) scale(0.99 1)" style="font-size:11.36812973022461px;font-family:Arial-BoldMT, Arial;font-weight:700"><tspan style="letter-spacing:0.015002635588106536em">T</tspan><tspan x="7.11" y="0">i</tspan><tspan x="10.27" y="0" style="letter-spacing:0.00199457004928584em">m</tspan><tspan x="20.4" y="0" style="letter-spacing:-0.0010406452431056556em">e</tspan><tspan x="26.71" y="0"> </tspan><tspan x="29.87" y="0" style="letter-spacing:-0.00398914009857168em">P</tspan><tspan x="37.41" y="0" style="letter-spacing:-0.0009539248061801842em">e</tspan><tspan x="43.72" y="0" style="letter-spacing:-0.0030352152923914955em">r</tspan><tspan x="48.11" y="0">i</tspan><tspan x="51.27" y="0" style="letter-spacing:0.0029484948554660243em">o</tspan><tspan x="58.25" y="0">d</tspan></text></g><polygon points="3 3.14 894.52 3.14 894.52 341.44 3 341.44 3 3.14 3 3.14" style="fill:none;stroke:#d9d9d9;stroke-linejoin:round;stroke-width:0.817912821079205px"/></svg>