<svg id="Layer_1" data-name="Layer 1" xmlns="http://www.w3.org/2000/svg" xmlns:xlink="http://www.w3.org/1999/xlink" viewBox="0 0 900 350"><defs><clipPath id="clip-path"><polygon points="3 344.87 897.78 344.87 897.78 3 3 3 3 344.87 3 344.87" style="fill:none;clip-rule:evenodd"/></clipPath><clipPath id="clip-path-6"><polygon points="62.51 281.58 886.7 281.58 886.7 17.58 62.51 17.58 62.51 281.58 62.51 281.58" style="fill:none;clip-rule:evenodd"/></clipPath><clipPath id="clip-path-10"><rect x="3" y="3" width="894.78" height="341.87" style="fill:none"/></clipPath></defs><title>ndvi-risk-report</title><polygon points="3 3 897.91 3 897.91 345 3 345 3 3 3 3" style="fill:#eaeaea;fill-rule:evenodd"/><polygon points="62.51 17.72 885.88 17.72 885.88 280.89 62.51 280.89 62.51 17.72 62.51 17.72" style="fill:#fff;fill-rule:evenodd"/><path d="M62.51,215H885.88M62.51,149.24H885.88M62.51,83.48H885.88M62.51,17.72H885.88" style="fill:none;stroke:#d9d9d9;stroke-linejoin:round;stroke-width:0.823099529912122px"/><g style="clip-path:url(#clip-path)"><path d="M96.84,17.72V280.89M165.51,17.72V280.89M234.05,17.72V280.89M302.72,17.72V280.89M371.39,17.72V280.89M439.92,17.72V280.89M508.59,17.72V280.89M577.13,17.72V280.89M645.8,17.72V280.89M714.33,17.72V280.89M783,17.72V280.89M851.68,17.72V280.89" style="fill:none;stroke:#f2f2f2;stroke-linejoin:round;stroke-width:0.823099529912122px"/></g><g style="clip-path:url(#clip-path)"><path d="M62.51,17.72V280.89M131.18,17.72V280.89M199.85,17.72V280.89M268.38,17.72V280.89M337.05,17.72V280.89M405.59,17.72V280.89M474.26,17.72V280.89M542.79,17.72V280.89M611.46,17.72V280.89M680.14,17.72V280.89M748.67,17.72V280.89M817.34,17.72V280.89M885.88,17.72V280.89" style="fill:none;stroke:#d9d9d9;stroke-linejoin:round;stroke-width:0.823099529912122px"/></g><g style="clip-path:url(#clip-path)"><line x1="62.51" y1="280.89" x2="885.88" y2="280.89" style="fill:none;stroke:#d9d9d9;stroke-linejoin:round;stroke-width:1.37183252714032px"/></g><g style="clip-path:url(#clip-path)"><path d="M62.51,280.89v18.58m274.54-18.58v18.58m274.41-18.58v18.58m274.42-18.58v18.58" style="fill:none;stroke:#d9d9d9;stroke-linejoin:round;stroke-width:1.37183252714032px"/></g><g style="clip-path:url(#clip-path)"><path d="M62.51,299.47V318m274.54-18.57V318m274.41-18.57V318m274.42-18.57V318" style="fill:none;stroke:#d9d9d9;stroke-linejoin:round;stroke-width:1.37183252714032px"/></g><g style="clip-path:url(#clip-path-6)"><polyline points="96.84 162.44 165.51 128.19 234.05 96.68 302.72 80.86 371.39 70.27 439.92 65.04 508.59 75.64 577.13 96.68 645.8 122.96 714.33 136.17 783 149.24 851.68 165.06" style="fill:none;stroke:#ff25f3;stroke-linecap:round;stroke-linejoin:round;stroke-width:2.4692985215967px"/></g><g style="clip-path:url(#clip-path)"><polygon points="93.97 159.6 99.71 159.6 99.71 165.38 93.97 165.38 93.97 159.6 93.97 159.6" style="fill:#ff25f3;fill-rule:evenodd"/><polygon points="162.64 125.34 168.38 125.34 168.38 131.12 162.64 131.12 162.64 125.34 162.64 125.34" style="fill:#ff25f3;fill-rule:evenodd"/><polygon points="231.17 93.84 236.92 93.84 236.92 99.62 231.17 99.62 231.17 93.84 231.17 93.84" style="fill:#ff25f3;fill-rule:evenodd"/><polygon points="299.85 78.02 305.59 78.02 305.59 83.8 299.85 83.8 299.85 78.02 299.85 78.02" style="fill:#ff25f3;fill-rule:evenodd"/><polygon points="368.52 67.43 374.26 67.43 374.26 73.2 368.52 73.2 368.52 67.43 368.52 67.43" style="fill:#ff25f3;fill-rule:evenodd"/><polygon points="437.05 62.2 442.8 62.2 442.8 67.98 437.05 67.98 437.05 62.2 437.05 62.2" style="fill:#ff25f3;fill-rule:evenodd"/><polygon points="505.72 72.79 511.47 72.79 511.47 78.57 505.72 78.57 505.72 72.79 505.72 72.79" style="fill:#ff25f3;fill-rule:evenodd"/><polygon points="574.26 93.84 580 93.84 580 99.62 574.26 99.62 574.26 93.84 574.26 93.84" style="fill:#ff25f3;fill-rule:evenodd"/><polygon points="642.93 120.12 648.67 120.12 648.67 125.89 642.93 125.89 642.93 120.12 642.93 120.12" style="fill:#ff25f3;fill-rule:evenodd"/><polygon points="711.46 133.32 717.21 133.32 717.21 139.1 711.46 139.1 711.46 133.32 711.46 133.32" style="fill:#ff25f3;fill-rule:evenodd"/><polygon points="780.13 146.39 785.88 146.39 785.88 152.17 780.13 152.17 780.13 146.39 780.13 146.39" style="fill:#ff25f3;fill-rule:evenodd"/><polygon points="848.8 162.22 854.55 162.22 854.55 167.99 848.8 167.99 848.8 162.22 848.8 162.22" style="fill:#ff25f3;fill-rule:evenodd"/></g><g style="clip-path:url(#clip-path-6)"><polyline points="96.84 175.65 165.51 144.01 234.05 112.37 302.72 96.68 371.39 86.09 439.92 75.64 508.59 86.09 577.13 96.68 645.8 128.19 714.33 144.01 783 157.22 851.68 175.65" style="fill:none;stroke:#06f;stroke-linecap:round;stroke-linejoin:round;stroke-width:2.4692985215967px"/></g><g style="clip-path:url(#clip-path)"><path d="M99.71,175.7a2.87,2.87,0,1,1-2.87-2.89,2.88,2.88,0,0,1,2.87,2.89Z" style="fill:#06f"/><path d="M168.39,144.05a2.88,2.88,0,1,1-2.88-2.88,2.88,2.88,0,0,1,2.88,2.88Z" style="fill:#06f"/><path d="M236.92,112.41a2.88,2.88,0,1,1-2.87-2.89,2.88,2.88,0,0,1,2.87,2.89Z" style="fill:#06f"/><path d="M305.59,96.73a2.87,2.87,0,1,1-2.87-2.89,2.88,2.88,0,0,1,2.87,2.89Z" style="fill:#06f"/><path d="M374.26,86.14a2.87,2.87,0,1,1-2.87-2.89,2.88,2.88,0,0,1,2.87,2.89Z" style="fill:#06f"/><path d="M442.8,75.68a2.88,2.88,0,1,1-2.88-2.89,2.88,2.88,0,0,1,2.88,2.89Z" style="fill:#06f"/><path d="M511.47,86.14a2.88,2.88,0,1,1-2.88-2.89,2.89,2.89,0,0,1,2.88,2.89Z" style="fill:#06f"/><path d="M580,96.73a2.87,2.87,0,1,1-2.87-2.89A2.87,2.87,0,0,1,580,96.73Z" style="fill:#06f"/><path d="M648.67,128.23a2.87,2.87,0,1,1-2.87-2.88,2.87,2.87,0,0,1,2.87,2.88Z" style="fill:#06f"/><path d="M717.21,144.05a2.88,2.88,0,1,1-2.88-2.88,2.88,2.88,0,0,1,2.88,2.88Z" style="fill:#06f"/><path d="M785.88,157.26a2.88,2.88,0,1,1-2.87-2.89,2.88,2.88,0,0,1,2.87,2.89Z" style="fill:#06f"/><path d="M854.55,175.7a2.88,2.88,0,1,1-2.87-2.89,2.89,2.89,0,0,1,2.87,2.89Z" style="fill:#06f"/></g><g style="clip-path:url(#clip-path-10)"><text transform="translate(33.77 284.13) scale(0.99 1)" style="font-size:10.317950248718262px;font-family:ArialMT, Arial;letter-spacing:0.0029507269457121127em">0<tspan x="5.77" y="0" style="letter-spacing:0.0019988795438694953em">.</tspan><tspan x="8.66" y="0" style="letter-spacing:-0.008947365577320596em">0</tspan><tspan x="14.3" y="0" style="letter-spacing:-0.00009518474018426168em">0</tspan></text></g><g style="clip-path:url(#clip-path-10)"><text transform="translate(33.77 218.35) scale(0.99 1)" style="font-size:10.317950248718262px;font-family:ArialMT, Arial;letter-spacing:0.0029507269457121127em">0<tspan x="5.77" y="0" style="letter-spacing:0.0019988795438694953em">.</tspan><tspan x="8.66" y="0" style="letter-spacing:-0.008947365577320596em">2</tspan><tspan x="14.3" y="0" style="letter-spacing:-0.00009518474018426168em">5</tspan></text></g><g style="clip-path:url(#clip-path-10)"><text transform="translate(33.77 152.56) scale(0.99 1)" style="font-size:10.317950248718262px;font-family:ArialMT, Arial;letter-spacing:0.0029507269457121127em">0<tspan x="5.77" y="0" style="letter-spacing:0.0019988795438694953em">.</tspan><tspan x="8.66" y="0" style="letter-spacing:-0.008947365577320596em">5</tspan><tspan x="14.3" y="0" style="letter-spacing:-0.00009518474018426168em">0</tspan></text></g><g style="clip-path:url(#clip-path-10)"><text transform="translate(33.77 86.78) scale(0.99 1)" style="font-size:10.317950248718262px;font-family:ArialMT, Arial;letter-spacing:0.0029507269457121127em">0<tspan x="5.77" y="0" style="letter-spacing:0.0019988795438694953em">.</tspan><tspan x="8.66" y="0" style="letter-spacing:-0.008947365577320596em">7</tspan><tspan x="14.3" y="0" style="letter-spacing:-0.00009518474018426168em">5</tspan></text></g><g style="clip-path:url(#clip-path-10)"><text transform="translate(33.77 21) scale(0.99 1)" style="font-size:10.317950248718262px;font-family:ArialMT, Arial;letter-spacing:0.0029507269457121127em">1<tspan x="5.77" y="0" style="letter-spacing:0.0019988795438694953em">.</tspan><tspan x="8.66" y="0" style="letter-spacing:-0.008947365577320596em">0</tspan><tspan x="14.3" y="0" style="letter-spacing:-0.00009518474018426168em">0</tspan></text></g><g style="clip-path:url(#clip-path-10)"><text transform="translate(94.02 296.41) scale(0.99 1)" style="font-size:10.317950248718262px;font-family:ArialMT, Arial">1</text></g><g style="clip-path:url(#clip-path-10)"><text transform="translate(162.62 296.41) scale(0.99 1)" style="font-size:10.317950248718262px;font-family:ArialMT, Arial">2</text></g><g style="clip-path:url(#clip-path-10)"><text transform="translate(231.24 296.41) scale(0.99 1)" style="font-size:10.317950248718262px;font-family:ArialMT, Arial">3</text></g><g style="clip-path:url(#clip-path-10)"><text transform="translate(299.85 296.41) scale(0.99 1)" style="font-size:10.317950248718262px;font-family:ArialMT, Arial">4</text></g><g style="clip-path:url(#clip-path-10)"><text transform="translate(368.46 296.41) scale(0.99 1)" style="font-size:10.317950248718262px;font-family:ArialMT, Arial">1</text></g><g style="clip-path:url(#clip-path-10)"><text transform="translate(437.08 296.41) scale(0.99 1)" style="font-size:10.317950248718262px;font-family:ArialMT, Arial">2</text></g><g style="clip-path:url(#clip-path-10)"><text transform="translate(505.69 296.41) scale(0.99 1)" style="font-size:10.317950248718262px;font-family:ArialMT, Arial">3</text></g><g style="clip-path:url(#clip-path-10)"><text transform="translate(574.31 296.41) scale(0.99 1)" style="font-size:10.317950248718262px;font-family:ArialMT, Arial">4</text></g><g style="clip-path:url(#clip-path-10)"><text transform="translate(642.92 296.41) scale(0.99 1)" style="font-size:10.317950248718262px;font-family:ArialMT, Arial">1</text></g><g style="clip-path:url(#clip-path-10)"><text transform="translate(711.54 296.41) scale(0.99 1)" style="font-size:10.317950248718262px;font-family:ArialMT, Arial">2</text></g><g style="clip-path:url(#clip-path-10)"><text transform="translate(780.15 296.41) scale(0.99 1)" style="font-size:10.317950248718262px;font-family:ArialMT, Arial">3</text></g><g style="clip-path:url(#clip-path-10)"><text transform="translate(848.76 296.41) scale(0.99 1)" style="font-size:10.317950248718262px;font-family:ArialMT, Arial">4</text></g><g style="clip-path:url(#clip-path-10)"><text transform="translate(190.66 315.01) scale(0.99 1)" style="font-size:10.317950248718262px;font-family:ArialMT, Arial">A<tspan x="6.88" y="0" style="letter-spacing:0.0030459116858963737em">u</tspan><tspan x="12.65" y="0">g</tspan></text></g><g style="clip-path:url(#clip-path-10)"><text transform="translate(465.11 315.01) scale(0.99 1)" style="font-size:10.317950248718262px;font-family:ArialMT, Arial">S<tspan x="6.88" y="0" style="letter-spacing:0.0030459116858963737em">e</tspan><tspan x="12.65" y="0">p</tspan></text></g><g style="clip-path:url(#clip-path-10)"><text transform="translate(740.71 315.01) scale(0.99 1)" style="font-size:10.317950248718262px;font-family:ArialMT, Arial"><tspan style="letter-spacing:-0.003997759087738991em">O</tspan><tspan x="7.98" y="0" style="letter-spacing:0.005996638631608486em">c</tspan><tspan x="13.21" y="0">t</tspan></text></g><g style="clip-path:url(#clip-path-10)"><text transform="translate(17.05 207.1) rotate(-90) scale(1.01 1)" style="font-size:11.353989601135254px;font-family:Arial-BoldMT, Arial;font-weight:700">ND<tspan x="16.4" y="0" style="letter-spacing:-0.004019662690924101em">V</tspan><tspan x="23.93" y="0">I</tspan><tspan x="27.08" y="0" style="letter-spacing:0.010947166477410317em"> </tspan><tspan x="30.36" y="0" style="letter-spacing:-0.0000855247381047681em"> </tspan><tspan x="33.51" y="0" style="letter-spacing:-0.004019662690924101em">V</tspan><tspan x="41.04" y="0" style="letter-spacing:-0.0010262968572572174em">a</tspan><tspan x="47.35" y="0">l</tspan><tspan x="50.5" y="0" style="letter-spacing:0.0029933658336668834em">u</tspan><tspan x="57.47" y="0">e</tspan></text></g><g style="clip-path:url(#clip-path-10)"><text transform="translate(433.48 335.91) scale(0.99 1)" style="font-size:11.418529510498047px;font-family:Arial-BoldMT, Arial;font-weight:700"><tspan style="letter-spacing:0.0069668361791412016em">W</tspan><tspan x="10.86" y="0" style="letter-spacing:-0.000946113555192015em">ee</tspan><tspan x="23.54" y="0">k</tspan></text></g><polygon points="3 3 897.91 3 897.91 345 3 345 3 3 3 3" style="fill:none;stroke:#d9d9d9;stroke-linejoin:round;stroke-width:0.823099598051785px"/></svg>