<svg id="Layer_1" data-name="Layer 1" xmlns="http://www.w3.org/2000/svg" xmlns:xlink="http://www.w3.org/1999/xlink" viewBox="0 0 900 350"><defs><clipPath id="clip-path"><polygon points="2.91 345.6 895.73 345.6 895.73 3.7 2.91 3.7 2.91 345.6 2.91 345.6" style="fill:none;clip-rule:evenodd"/></clipPath><clipPath id="clip-path-3"><polygon points="79.33 296.93 883.84 296.93 883.84 37.33 79.33 37.33 79.33 296.93 79.33 296.93" style="fill:none;clip-rule:evenodd"/></clipPath><clipPath id="clip-path-6"><rect x="2.91" y="3.7" width="892.82" height="341.9" style="fill:none"/></clipPath></defs><title>price-volatility</title><polygon points="3.05 3.7 895.87 3.7 895.87 345.73 3.05 345.73 3.05 3.7 3.05 3.7" style="fill:#eaeaea;fill-rule:evenodd"/><polygon points="79.47 37.46 883.02 37.46 883.02 296.11 79.47 296.11 79.47 37.46 79.47 37.46" style="fill:#fff;fill-rule:evenodd"/><path d="M79.47,234.45H883M79.47,172.94H883M79.47,111.28H883M79.47,49.77H883" style="fill:none;stroke:#d9d9d9;stroke-linejoin:round;stroke-width:0.820229482622968px"/><g style="clip-path:url(#clip-path)"><path d="M79.47,37.46V296.11m67-258.65V296.11m67-258.65V296.11M280.29,37.46V296.11m67-258.65V296.11m67-258.65V296.11m67-258.65V296.11m67-258.65V296.11m67-258.65V296.11m67-258.65V296.11M749.05,37.46V296.11M816,37.46V296.11M883,37.46V296.11" style="fill:none;stroke:#d9d9d9;stroke-linejoin:round;stroke-width:0.820229482622968px"/></g><g style="clip-path:url(#clip-path)"><line x1="79.47" y1="296.11" x2="883.02" y2="296.11" style="fill:none;stroke:#d9d9d9;stroke-linejoin:round;stroke-width:0.820229482622968px"/></g><g style="clip-path:url(#clip-path-3)"><polyline points="112.96 131.24 179.95 158.04 246.79 103.49 313.78 84.9 380.76 76.42 447.75 87.36 514.74 88.32 581.72 85.72 648.71 115.93 715.56 117.3 782.54 111.28 849.53 122.36" style="fill:none;stroke:#2935e8;stroke-linecap:round;stroke-linejoin:round;stroke-width:2.46068837996684px"/></g><g style="clip-path:url(#clip-path-3)"><polyline points="112.96 207.93 179.95 209.57 246.79 215.72 313.78 216 380.76 211.21 447.75 209.44 514.74 213.26 581.72 210.8 648.71 207.25 715.56 199.46 782.54 207.11 849.53 208.75" style="fill:none;stroke:#ff25f3;stroke-linecap:round;stroke-linejoin:round;stroke-width:2.46068837996684px"/></g><g style="clip-path:url(#clip-path-3)"><polyline points="112.96 180.59 179.95 177.86 246.79 179.77 313.78 160.09 380.76 158.31 447.75 155.57 514.74 164.73 581.72 169.25 648.71 166.51 715.56 154.75 782.54 120.58 849.53 124.54" style="fill:none;stroke:#8f9dec;stroke-linecap:round;stroke-linejoin:round;stroke-width:2.46068837996684px"/></g><g style="clip-path:url(#clip-path-6)"><text transform="translate(33.57 299.38)" style="font-size:10.252869606018066px;font-family:ArialMT, Arial"><tspan style="letter-spacing:0.00200020221538394em"> </tspan><tspan x="2.87" y="0" style="letter-spacing:0.0029526794608048636em">1</tspan><tspan x="8.6" y="0" style="letter-spacing:-0.008953286106956684em">1</tspan><tspan x="14.21" y="0" style="letter-spacing:0.00200020221538394em">,</tspan><tspan x="17.08" y="0" style="letter-spacing:0.0029526794608048636em">00</tspan><tspan x="28.55" y="0">0</tspan></text></g><g style="clip-path:url(#clip-path-6)"><text transform="translate(33.57 237.79)" style="font-size:10.252869606018066px;font-family:ArialMT, Arial"><tspan style="letter-spacing:0.00200020221538394em"> </tspan><tspan x="2.87" y="0" style="letter-spacing:0.0029526794608048636em">3</tspan><tspan x="8.6" y="0" style="letter-spacing:-0.008953286106956684em">1</tspan><tspan x="14.21" y="0" style="letter-spacing:0.00200020221538394em">,</tspan><tspan x="17.08" y="0" style="letter-spacing:0.0029526794608048636em">00</tspan><tspan x="28.55" y="0">0</tspan></text></g><g style="clip-path:url(#clip-path-6)"><text transform="translate(33.57 176.2)" style="font-size:10.252869606018066px;font-family:ArialMT, Arial"><tspan style="letter-spacing:0.00200020221538394em"> </tspan><tspan x="2.87" y="0" style="letter-spacing:0.0029526794608048636em">5</tspan><tspan x="8.6" y="0" style="letter-spacing:-0.008953286106956684em">1</tspan><tspan x="14.21" y="0" style="letter-spacing:0.00200020221538394em">,</tspan><tspan x="17.08" y="0" style="letter-spacing:0.0029526794608048636em">00</tspan><tspan x="28.55" y="0">0</tspan></text></g><g style="clip-path:url(#clip-path-6)"><text transform="translate(33.57 114.61)" style="font-size:10.252869606018066px;font-family:ArialMT, Arial"><tspan style="letter-spacing:0.00200020221538394em"> </tspan><tspan x="2.87" y="0" style="letter-spacing:0.0029526794608048636em">7</tspan><tspan x="8.6" y="0" style="letter-spacing:-0.008953286106956684em">1</tspan><tspan x="14.21" y="0" style="letter-spacing:0.00200020221538394em">,</tspan><tspan x="17.08" y="0" style="letter-spacing:0.0029526794608048636em">00</tspan><tspan x="28.55" y="0">0</tspan></text></g><g style="clip-path:url(#clip-path-6)"><text transform="translate(33.57 53.02)" style="font-size:10.252869606018066px;font-family:ArialMT, Arial"><tspan style="letter-spacing:0.00200020221538394em"> </tspan><tspan x="2.87" y="0" style="letter-spacing:0.0029526794608048636em">9</tspan><tspan x="8.6" y="0" style="letter-spacing:-0.008953286106956684em">1</tspan><tspan x="14.21" y="0" style="letter-spacing:0.00200020221538394em">,</tspan><tspan x="17.08" y="0" style="letter-spacing:0.0029526794608048636em">00</tspan><tspan x="28.55" y="0">0</tspan></text></g><g style="clip-path:url(#clip-path-6)"><text transform="translate(104.66 311.59)" style="font-size:10.252869606018066px;font-family:ArialMT, Arial"><tspan style="letter-spacing:0.00600060664615182em">J</tspan><tspan x="5.19" y="0" style="letter-spacing:-0.008953286106956684em">a</tspan><tspan x="10.8" y="0">n</tspan></text></g><g style="clip-path:url(#clip-path-6)"><text transform="translate(171.06 311.59)" style="font-size:10.252869606018066px;font-family:ArialMT, Arial"><tspan style="letter-spacing:0.00200020221538394em">F</tspan><tspan x="6.28" y="0" style="letter-spacing:0.0030479271853469563em">e</tspan><tspan x="12.02" y="0">b</tspan></text></g><g style="clip-path:url(#clip-path-6)"><text transform="translate(238.03 311.59)" style="font-size:10.252869606018066px;font-family:ArialMT, Arial"><tspan style="letter-spacing:-0.00600060664615182em">M</tspan><tspan x="8.48" y="0" style="letter-spacing:0.0029526794608048636em">a</tspan><tspan x="14.21" y="0">r</tspan></text></g><g style="clip-path:url(#clip-path-6)"><text transform="translate(305.84 311.59)" style="font-size:10.252869606018066px;font-family:ArialMT, Arial">A<tspan x="6.84" y="0" style="letter-spacing:0.0029526794608048636em">p</tspan><tspan x="12.57" y="0">r</tspan></text></g><g style="clip-path:url(#clip-path-6)"><text transform="translate(371.11 311.59)" style="font-size:10.252869606018066px;font-family:ArialMT, Arial;letter-spacing:-0.00600060664615182em">M<tspan x="8.48" y="0" style="letter-spacing:0.0029526794608048636em">a</tspan><tspan x="14.21" y="0" style="letter-spacing:0.00009524772454209238em">y</tspan></text></g><g style="clip-path:url(#clip-path-6)"><text transform="translate(439.5 311.59)" style="font-size:10.252869606018066px;font-family:ArialMT, Arial"><tspan style="letter-spacing:0.00600060664615182em">J</tspan><tspan x="5.19" y="0" style="letter-spacing:-0.008953286106956684em">u</tspan><tspan x="10.8" y="0">n</tspan></text></g><g style="clip-path:url(#clip-path-6)"><text transform="translate(508.17 311.59)" style="font-size:10.252869606018066px;font-family:ArialMT, Arial;letter-spacing:0.00600060664615182em">J<tspan x="5.19" y="0" style="letter-spacing:-0.008953286106956684em">u</tspan><tspan x="10.8" y="0" style="letter-spacing:-0.00009524772454209238em">l</tspan></text></g><g style="clip-path:url(#clip-path-6)"><text transform="translate(572.56 311.59)" style="font-size:10.252869606018066px;font-family:ArialMT, Arial">A<tspan x="6.84" y="0" style="letter-spacing:0.0029526794608048636em">u</tspan><tspan x="12.57" y="0">g</tspan></text></g><g style="clip-path:url(#clip-path-6)"><text transform="translate(639.53 311.59)" style="font-size:10.252869606018066px;font-family:ArialMT, Arial">S<tspan x="6.84" y="0" style="letter-spacing:0.0029526794608048636em">e</tspan><tspan x="12.57" y="0">p</tspan></text></g><g style="clip-path:url(#clip-path-6)"><text transform="translate(707.65 311.59)" style="font-size:10.252869606018066px;font-family:ArialMT, Arial"><tspan style="letter-spacing:-0.00400040443076788em">O</tspan><tspan x="7.93" y="0" style="letter-spacing:0.006095854370693913em">c</tspan><tspan x="13.12" y="0">t</tspan></text></g><g style="clip-path:url(#clip-path-6)"><text transform="translate(773.46 311.59)" style="font-size:10.252869606018066px;font-family:ArialMT, Arial;letter-spacing:-0.00200020221538394em">N<tspan x="7.38" y="0" style="letter-spacing:0.0029526794608048636em">o</tspan><tspan x="13.12" y="0" style="letter-spacing:0.00009524772454209238em">v</tspan></text></g><g style="clip-path:url(#clip-path-6)"><text transform="translate(840.44 311.59)" style="font-size:10.252869606018066px;font-family:ArialMT, Arial;letter-spacing:-0.00200020221538394em">D<tspan x="7.38" y="0" style="letter-spacing:0.0029526794608048636em">e</tspan><tspan x="13.12" y="0" style="letter-spacing:0.00009524772454209238em">c</tspan></text></g><g style="clip-path:url(#clip-path-6)"><text transform="translate(21.09 222.11) rotate(-90)" style="font-size:11.34650993347168px;font-family:Arial-BoldMT, Arial;font-weight:700"><tspan style="letter-spacing:0.021947139601525608em">M</tspan><tspan x="9.7" y="0" style="letter-spacing:-0.001032806569483558em">a</tspan><tspan x="16" y="0" style="letter-spacing:-0.0030123524943270444em">r</tspan><tspan x="20.38" y="0" style="letter-spacing:-0.001032806569483558em">ke</tspan><tspan x="32.98" y="0" style="letter-spacing:0.003959091849686972em">t</tspan><tspan x="36.8" y="0"> </tspan><tspan x="39.96" y="0" style="letter-spacing:-0.004045159063810602em">P</tspan><tspan x="47.48" y="0" style="letter-spacing:-0.0030123524943270444em">r</tspan><tspan x="51.86" y="0">i</tspan><tspan x="55.01" y="0" style="letter-spacing:-0.001032806569483558em">ce</tspan><tspan x="67.61" y="0" style="letter-spacing:0.022979946171009166em"> </tspan><tspan x="71.02" y="0" style="letter-spacing:0.004045159063810602em">(</tspan><tspan x="74.85" y="0" style="letter-spacing:-0.00008606721412362984em">R</tspan><tspan x="83.04" y="0" style="letter-spacing:-0.0009467393553599283em">s</tspan><tspan x="89.34" y="0">./</tspan><tspan x="95.65" y="0" style="letter-spacing:0.021947139601525608em">M</tspan><tspan x="105.35" y="0" style="letter-spacing:0.014975695257511593em">T</tspan><tspan x="112.45" y="0" style="letter-spacing:0.00008606721412362984em">)</tspan></text></g><g style="clip-path:url(#clip-path-6)"><text transform="translate(436.17 336.95)" style="font-size:11.34650993347168px;font-family:Arial-BoldMT, Arial;font-weight:700"><tspan style="letter-spacing:0.021947139601525608em">M</tspan><tspan x="9.7" y="0" style="letter-spacing:0.0030123524943270444em">on</tspan><tspan x="23.63" y="0" style="letter-spacing:0.004045159063810602em">t</tspan><tspan x="27.46" y="0" style="letter-spacing:0.0030123524943270444em">h</tspan><tspan x="34.42" y="0" style="letter-spacing:-0.001032806569483558em">s</tspan><tspan x="40.72" y="0"> </tspan></text></g><g style="clip-path:url(#clip-path)"><line x1="202.64" y1="18.19" x2="224.51" y2="18.19" style="fill:none;stroke:#2935e8;stroke-linecap:round;stroke-linejoin:round;stroke-width:2.46068837996684px"/></g><g style="clip-path:url(#clip-path-6)"><text transform="translate(226.77 21.11)" style="font-size:9.15923023223877px;font-family:ArialMT, Arial;letter-spacing:-0.01002233513869891em">A<tspan x="6.02" y="0" style="letter-spacing:0.003944961703530422em">P</tspan><tspan x="12.16" y="0" style="letter-spacing:-0.008956129272879877em"> </tspan><tspan x="14.63" y="0" style="letter-spacing:0.01002233513869891em">(</tspan><tspan x="17.77" y="0" style="letter-spacing:-0.005011167569349455em">R</tspan><tspan x="24.34" y="0" style="letter-spacing:-0.003944961703530422em">-</tspan><tspan x="27.35" y="0" style="letter-spacing:-0.0029853764242932924em">1</tspan><tspan x="32.42" y="0" style="letter-spacing:0.005011167569349455em">,</tspan><tspan x="35.01" y="0" style="letter-spacing:-0.00906274985946178em"> </tspan><tspan x="37.47" y="0" style="letter-spacing:-0.005011167569349455em">R</tspan><tspan x="44.04" y="0" style="letter-spacing:0.01002233513869891em">-</tspan><tspan x="47.18" y="0" style="letter-spacing:-0.0029853764242932924em">18</tspan><tspan x="57.31" y="0" style="letter-spacing:0.0001066205865819033em">)</tspan></text></g><g style="clip-path:url(#clip-path)"><line x1="437.09" y1="18.19" x2="458.96" y2="18.19" style="fill:none;stroke:#ff25f3;stroke-linecap:round;stroke-linejoin:round;stroke-width:2.46068837996684px"/></g><g style="clip-path:url(#clip-path-6)"><text transform="translate(461.22 21.11)" style="font-size:9.15923023223877px;font-family:ArialMT, Arial"><tspan style="letter-spacing:0.0020257911450561627em">M</tspan><tspan x="7.65" y="0" style="letter-spacing:-0.01002233513869891em">P</tspan><tspan x="13.67" y="0" style="letter-spacing:0.0049045469827675514em">,</tspan><tspan x="16.26" y="0" style="letter-spacing:-0.0049045469827675514em">U</tspan><tspan x="22.83" y="0" style="letter-spacing:-0.01002233513869891em">P</tspan><tspan x="28.84" y="0" style="letter-spacing:0.0049045469827675514em"> </tspan><tspan x="31.43" y="0" style="letter-spacing:-0.003944961703530422em">(</tspan><tspan x="34.45" y="0" style="letter-spacing:-0.005011167569349455em">R</tspan><tspan x="41.01" y="0" style="letter-spacing:-0.003944961703530422em">-</tspan><tspan x="44.03" y="0" style="letter-spacing:-0.0029853764242932924em">7</tspan><tspan x="49.09" y="0">)</tspan></text></g><g style="clip-path:url(#clip-path)"><line x1="663.33" y1="18.19" x2="685.21" y2="18.19" style="fill:none;stroke:#8f9dec;stroke-linecap:round;stroke-linejoin:round;stroke-width:2.46068837996684px"/></g><g style="clip-path:url(#clip-path-6)"><text transform="translate(687.57 21.11)" style="font-size:9.15923023223877px;font-family:ArialMT, Arial;letter-spacing:0.0009595852792371297em">T<tspan x="5.6" y="0" style="letter-spacing:-0.0049045469827675514em">N</tspan><tspan x="12.17" y="0" style="letter-spacing:-0.00906274985946178em"> </tspan><tspan x="14.63" y="0" style="letter-spacing:0.01002233513869891em">(</tspan><tspan x="17.78" y="0" style="letter-spacing:-0.0049045469827675514em">R</tspan><tspan x="24.35" y="0" style="letter-spacing:-0.004051582290112325em">-</tspan><tspan x="27.36" y="0" style="letter-spacing:-0.0029853764242932924em">20</tspan><tspan x="37.49" y="0" style="letter-spacing:0.0001066205865819033em">)</tspan></text></g><polygon points="3.05 3.7 895.87 3.7 895.87 345.73 3.05 345.73 3.05 3.7 3.05 3.7" style="fill:none;stroke:#d9d9d9;stroke-linejoin:round;stroke-width:0.820229550525036px"/></svg>