<svg id="Layer_1" data-name="Layer 1" xmlns="http://www.w3.org/2000/svg" xmlns:xlink="http://www.w3.org/1999/xlink" viewBox="0 0 900 350"><defs><clipPath id="clip-path"><polygon points="2.85 2.85 890.93 2.85 890.93 348.74 2.85 348.74 2.85 2.85 2.85 2.85" style="fill:none;clip-rule:evenodd"/></clipPath><clipPath id="clip-path-2"><polygon points="2.85 2.85 890.93 2.85 890.93 57.95 2.85 57.95 2.85 2.85 2.85 2.85" style="fill:none;clip-rule:evenodd"/></clipPath><clipPath id="clip-path-3"><polygon points="2.85 58.8 890.93 58.8 890.93 108.82 2.85 108.82 2.85 58.8 2.85 58.8" style="fill:none;clip-rule:evenodd"/></clipPath><clipPath id="clip-path-5"><polygon points="2.85 313.13 890.08 313.13 890.08 347.89 2.85 347.89 2.85 313.13 2.85 313.13" style="fill:none;clip-rule:evenodd"/></clipPath><clipPath id="clip-path-6"><polygon points="2.85 109.67 131.9 109.67 131.9 210.55 2.85 210.55 2.85 109.67 2.85 109.67" style="fill:none;clip-rule:evenodd"/></clipPath><clipPath id="clip-path-7"><polygon points="2.85 211.4 131.9 211.4 131.9 312.29 2.85 312.29 2.85 211.4 2.85 211.4" style="fill:none;clip-rule:evenodd"/></clipPath><clipPath id="clip-path-8"><polygon points="132.75 109.67 227.84 109.67 227.84 210.55 132.75 210.55 132.75 109.67 132.75 109.67" style="fill:none;clip-rule:evenodd"/></clipPath><clipPath id="clip-path-9"><polygon points="132.75 211.4 227.84 211.4 227.84 312.29 132.75 312.29 132.75 211.4 132.75 211.4" style="fill:none;clip-rule:evenodd"/></clipPath><clipPath id="clip-path-10"><polygon points="725.37 160.53 834.89 160.53 834.89 210.55 725.37 210.55 725.37 160.53 725.37 160.53" style="fill:none;clip-rule:evenodd"/></clipPath><clipPath id="clip-path-11"><polygon points="2 2 890.93 2 890.93 348.74 2 348.74 2 2 2 2" style="fill:none;clip-rule:evenodd"/></clipPath></defs><title>seasonal-calendar</title><g style="clip-path:url(#clip-path)"><polyline points="2 2 2 58.8 890.93 58.8 890.93 2 2 2" style="fill:#d9d9d9;fill-rule:evenodd"/><polyline points="890.08 2 890.08 58.8 918.95 58.8 918.95 2 890.08 2" style="fill:#fff;fill-rule:evenodd"/><polyline points="2 57.95 2 109.67 228.69 109.67 228.69 57.95 2 57.95" style="fill:#f2f2f2;fill-rule:evenodd"/><polyline points="393.4 57.95 393.4 109.67 449.44 109.67 449.44 57.95 393.4 57.95" style="fill:#5e9fff;fill-rule:evenodd"/><polyline points="448.59 57.95 448.59 109.67 504.62 109.67 504.62 57.95 448.59 57.95" style="fill:#06f;fill-rule:evenodd"/><polyline points="503.77 57.95 503.77 109.67 559.81 109.67 559.81 57.95 503.77 57.95" style="fill:#0044ab;fill-rule:evenodd"/><polyline points="890.08 57.95 890.08 109.67 918.95 109.67 918.95 57.95 890.08 57.95" style="fill:#fff;fill-rule:evenodd"/><polyline points="2 108.82 2 160.53 228.69 160.53 228.69 108.82 2 108.82" style="fill:#f2f2f2;fill-rule:evenodd"/><polyline points="283.03 108.82 283.03 160.53 339.06 160.53 339.06 108.82 283.03 108.82" style="fill:#5e9fff;fill-rule:evenodd"/><polyline points="338.21 108.82 338.21 160.53 394.25 160.53 394.25 108.82 338.21 108.82" style="fill:#06f;fill-rule:evenodd"/><polyline points="393.4 108.82 393.4 160.53 449.44 160.53 449.44 108.82 393.4 108.82" style="fill:#0044ab;fill-rule:evenodd"/><polyline points="890.08 108.82 890.08 160.53 918.95 160.53 918.95 108.82 890.08 108.82" style="fill:#fff;fill-rule:evenodd"/><polyline points="2 159.69 2 211.4 228.69 211.4 228.69 159.69 2 159.69" style="fill:#f2f2f2;fill-rule:evenodd"/><polyline points="669.33 159.69 669.33 211.4 725.37 211.4 725.37 159.69 669.33 159.69" style="fill:#5e9fff;fill-rule:evenodd"/><polyline points="724.52 159.69 724.52 211.4 835.74 211.4 835.74 159.69 724.52 159.69" style="fill:#06f;fill-rule:evenodd"/><polyline points="834.89 159.69 834.89 211.4 890.93 211.4 890.93 159.69 834.89 159.69" style="fill:#0044ab;fill-rule:evenodd"/><polyline points="890.08 159.69 890.08 211.4 918.95 211.4 918.95 159.69 890.08 159.69" style="fill:#fff;fill-rule:evenodd"/><polyline points="2 210.55 2 262.27 228.69 262.27 228.69 210.55 2 210.55" style="fill:#f2f2f2;fill-rule:evenodd"/><polyline points="227.84 210.55 227.84 262.27 283.88 262.27 283.88 210.55 227.84 210.55" style="fill:#5e9fff;fill-rule:evenodd"/><polyline points="283.03 210.55 283.03 262.27 339.06 262.27 339.06 210.55 283.03 210.55" style="fill:#06f;fill-rule:evenodd"/><polyline points="338.21 210.55 338.21 262.27 394.25 262.27 394.25 210.55 338.21 210.55" style="fill:#0044ab;fill-rule:evenodd"/><polyline points="890.08 210.55 890.08 262.27 918.95 262.27 918.95 210.55 890.08 210.55" style="fill:#fff;fill-rule:evenodd"/><polyline points="2 261.42 2 313.13 228.69 313.13 228.69 261.42 2 261.42" style="fill:#f2f2f2;fill-rule:evenodd"/><polyline points="448.59 261.42 448.59 313.13 504.62 313.13 504.62 261.42 448.59 261.42" style="fill:#5e9fff;fill-rule:evenodd"/><polyline points="503.77 261.42 503.77 313.13 559.81 313.13 559.81 261.42 503.77 261.42" style="fill:#06f;fill-rule:evenodd"/><polyline points="558.96 261.42 558.96 313.13 615 313.13 615 261.42 558.96 261.42" style="fill:#0044ab;fill-rule:evenodd"/><polyline points="890.08 261.42 890.08 313.13 918.95 313.13 918.95 261.42 890.08 261.42" style="fill:#fff;fill-rule:evenodd"/><polyline points="2 312.29 2 348.74 918.95 348.74 918.95 312.29 2 312.29" style="fill:#fff;fill-rule:evenodd"/></g><g style="clip-path:url(#clip-path-2)"><text transform="translate(12.19 35.07)" style="font-size:12.71660041809082px;font-family:Arial-BoldMT, Arial;font-weight:700"><tspan style="letter-spacing:-0.12199918361425638em">A</tspan><tspan x="7.63" y="0" style="letter-spacing:-0.01004518733718893em">g</tspan><tspan x="15.27" y="0" style="letter-spacing:0.01004518733718893em">r</tspan><tspan x="20.35" y="0" style="letter-spacing:-0.01004518733718893em">o</tspan><tspan x="27.99" y="0">-</tspan><tspan x="32.22" y="0" style="letter-spacing:-0.022007395158574222em">c</tspan><tspan x="39.02" y="0" style="letter-spacing:-0.010965357169603182em">li</tspan><tspan x="45.8" y="0" style="letter-spacing:-0.08902643128607898em">m</tspan><tspan x="55.98" y="0" style="letter-spacing:-0.022007395158574222em">a</tspan><tspan x="62.77" y="0" style="letter-spacing:-0.00007668081936785441em">t</tspan><tspan x="67.01" y="0" style="letter-spacing:-0.010965357169603182em">i</tspan><tspan x="70.4" y="0" style="letter-spacing:-0.022007395158574222em">c</tspan><tspan x="77.19" y="0" style="letter-spacing:-0.010965357169603182em"> </tspan><tspan x="80.58" y="0" style="letter-spacing:0.0329727523281774em">z</tspan><tspan x="87.36" y="0" style="letter-spacing:-0.01004518733718893em">on</tspan><tspan x="102.64" y="0">e</tspan></text><text transform="translate(158.22 35.07)" style="font-size:12.71660041809082px;font-family:Arial-BoldMT, Arial;font-weight:700"><tspan style="letter-spacing:0.010965357169603182em">R</tspan><tspan x="9.32" y="0" style="letter-spacing:0.04301793966536633em">e</tspan><tspan x="16.94" y="0" style="letter-spacing:-0.01004518733718893em">g</tspan><tspan x="24.58" y="0" style="letter-spacing:-0.010965357169603182em">i</tspan><tspan x="27.98" y="0" style="letter-spacing:-0.009968506517821074em">o</tspan><tspan x="35.62" y="0">n</tspan></text><text transform="translate(244.83 35.07)" style="font-size:12.71660041809082px;font-family:Arial-BoldMT, Arial;font-weight:700"><tspan style="letter-spacing:-0.022007395158574222em">J</tspan><tspan x="6.79" y="0" style="letter-spacing:-0.01004518733718893em">u</tspan><tspan x="14.43" y="0">n</tspan></text><text transform="translate(301.71 35.07)" style="font-size:12.71660041809082px;font-family:Arial-BoldMT, Arial;font-weight:700;letter-spacing:-0.022007395158574222em">J<tspan x="6.79" y="0" style="letter-spacing:-0.01004518733718893em">u</tspan><tspan x="14.43" y="0" style="letter-spacing:0.00007668081936785441em">l</tspan></text><text transform="translate(354.34 35.07)" style="font-size:12.71660041809082px;font-family:Arial-BoldMT, Arial;font-weight:700"><tspan style="letter-spacing:-0.12199918361425638em">A</tspan><tspan x="7.63" y="0" style="letter-spacing:-0.01004518733718893em">u</tspan><tspan x="15.27" y="0">g</tspan></text><text transform="translate(409.54 35.07)" style="font-size:12.71660041809082px;font-family:Arial-BoldMT, Arial;font-weight:700">S<tspan x="8.48" y="0" style="letter-spacing:0.04301793966536633em">e</tspan><tspan x="16.1" y="0">p</tspan></text><text transform="translate(465.57 35.07)" style="font-size:12.71660041809082px;font-family:Arial-BoldMT, Arial;font-weight:700;letter-spacing:0.022007395158574222em">O<tspan x="10.17" y="0" style="letter-spacing:-0.022007395158574222em">c</tspan><tspan x="16.96" y="0" style="letter-spacing:-0.00007668081936785441em">t</tspan></text><text transform="translate(519.06 35.07)" style="font-size:12.71660041809082px;font-family:Arial-BoldMT, Arial;font-weight:700"><tspan style="letter-spacing:0.010965357169603182em">N</tspan><tspan x="9.32" y="0" style="letter-spacing:-0.009968506517821074em">o</tspan><tspan x="16.96" y="0">v</tspan></text><text transform="translate(575.09 35.07)" style="font-size:12.71660041809082px;font-family:Arial-BoldMT, Arial;font-weight:700"><tspan style="letter-spacing:0.010965357169603182em">D</tspan><tspan x="9.32" y="0" style="letter-spacing:0.04301793966536633em">e</tspan><tspan x="16.94" y="0">c</tspan></text><text transform="translate(631.13 35.07)" style="font-size:12.71660041809082px;font-family:Arial-BoldMT, Arial;font-weight:700"><tspan style="letter-spacing:-0.022007395158574222em">Ja</tspan><tspan x="13.59" y="0">n</tspan></text><text transform="translate(685.47 35.07)" style="font-size:12.71660041809082px;font-family:Arial-BoldMT, Arial;font-weight:700"><tspan style="letter-spacing:-0.009968506517821074em">F</tspan><tspan x="7.64" y="0" style="letter-spacing:0.042941258845998476em">e</tspan><tspan x="15.26" y="0">b</tspan></text><text transform="translate(740.65 35.07)" style="font-size:12.71660041809082px;font-family:Arial-BoldMT, Arial;font-weight:700"><tspan style="letter-spacing:0.03304943314754525em">M</tspan><tspan x="11.01" y="0" style="letter-spacing:-0.022007395158574222em">a</tspan><tspan x="17.81" y="0">r</tspan></text><text transform="translate(797.54 35.07)" style="font-size:12.71660041809082px;font-family:Arial-BoldMT, Arial;font-weight:700"><tspan style="letter-spacing:-0.12199918361425638em">A</tspan><tspan x="7.63" y="0" style="letter-spacing:-0.01004518733718893em">p</tspan><tspan x="15.27" y="0">r</tspan></text><text transform="translate(851.03 35.07)" style="font-size:12.71660041809082px;font-family:Arial-BoldMT, Arial;font-weight:700;letter-spacing:0.03304943314754525em">M<tspan x="11.01" y="0" style="letter-spacing:-0.022007395158574222em">a</tspan><tspan x="17.81" y="0" style="letter-spacing:-0.00007668081936785441em">y</tspan></text></g><g style="clip-path:url(#clip-path-3)"><text transform="translate(49.54 88.49)" style="font-size:12.71660041809082px;font-family:Arial-BoldMT, Arial;font-weight:700">E<tspan x="8.48" y="0" style="letter-spacing:0.011042037988971038em">C</tspan><tspan x="17.81" y="0">PH</tspan></text><text transform="translate(142.09 88.49)" style="font-size:12.71660041809082px;font-family:Arial-BoldMT, Arial;font-weight:700"><tspan style="letter-spacing:0.010965357169603182em">R</tspan><tspan x="9.32" y="0">-</tspan><tspan x="13.56" y="0" style="letter-spacing:-0.022007395158574222em">1</tspan><tspan x="20.35" y="0" style="letter-spacing:-0.010965357169603182em">, </tspan><tspan x="27.14" y="0" style="letter-spacing:0.010965357169603182em">R</tspan><tspan x="36.46" y="0">-</tspan><tspan x="40.7" y="0" style="letter-spacing:-0.022084075977942076em">1</tspan><tspan x="47.49" y="0">8</tspan></text><text transform="translate(463.02 88.49)" style="font-size:12.71660041809082px;fill:#f2f2f2;font-family:Arial-BoldMT, Arial;font-weight:700"><tspan style="letter-spacing:0.010965357169603182em">R</tspan><tspan x="9.32" y="0" style="letter-spacing:-0.022007395158574222em">a</tspan><tspan x="16.12" y="0" style="letter-spacing:-0.009968506517821074em">b</tspan><tspan x="23.76" y="0">i</tspan></text></g><g style="clip-path:url(#clip-path)"><text transform="translate(348.41 139.35)" style="font-size:12.71660041809082px;fill:#f2f2f2;font-family:Arial-BoldMT, Arial;font-weight:700"><tspan style="letter-spacing:0.010965357169603182em">K</tspan><tspan x="9.32" y="0" style="letter-spacing:-0.009968506517821074em">h</tspan><tspan x="16.96" y="0" style="letter-spacing:-0.022007395158574222em">a</tspan><tspan x="23.76" y="0" style="letter-spacing:0.009968506517821074em">r</tspan><tspan x="28.83" y="0" style="letter-spacing:-0.010965357169603182em">i</tspan><tspan x="32.23" y="0">f</tspan></text><text transform="translate(293.22 241.09)" style="font-size:12.71660041809082px;fill:#f2f2f2;font-family:Arial-BoldMT, Arial;font-weight:700"><tspan style="letter-spacing:0.010965357169603182em">K</tspan><tspan x="9.32" y="0" style="letter-spacing:-0.009968506517821074em">h</tspan><tspan x="16.96" y="0" style="letter-spacing:-0.022007395158574222em">a</tspan><tspan x="23.76" y="0" style="letter-spacing:0.009968506517821074em">r</tspan><tspan x="28.83" y="0" style="letter-spacing:-0.010965357169603182em">i</tspan><tspan x="32.23" y="0">f</tspan></text><text transform="translate(518.21 291.95)" style="font-size:12.71660041809082px;fill:#f2f2f2;font-family:Arial-BoldMT, Arial;font-weight:700"><tspan style="letter-spacing:0.010965357169603182em">R</tspan><tspan x="9.32" y="0" style="letter-spacing:-0.022007395158574222em">a</tspan><tspan x="16.12" y="0" style="letter-spacing:-0.009968506517821074em">b</tspan><tspan x="23.76" y="0">i</tspan></text></g><g style="clip-path:url(#clip-path-5)"><text transform="translate(4.55 333.48)" style="font-size:10.173279762268066px;font-family:Arial-BoldMT, Arial;font-weight:700"><tspan style="letter-spacing:-0.055018490990996205em">N</tspan><tspan x="6.79" y="0" style="letter-spacing:-0.026934139317891872em">o</tspan><tspan x="12.73" y="0">t</tspan><tspan x="16.11" y="0" style="letter-spacing:0.02702999034749291em">e</tspan><tspan x="22.05" y="0">:</tspan></text><text transform="translate(29.17 333.48)" style="font-size:10.173279762268066px;font-family:ArialMT, Arial"> </text><text transform="translate(31.72 333.48)" style="font-size:10.173279762268066px;font-family:Arial-BoldMT, Arial;font-weight:700"><tspan style="letter-spacing:-0.0830069916344995em">E</tspan><tspan x="5.94" y="0" style="letter-spacing:-0.055018490990996205em">C</tspan><tspan x="12.73" y="0">P</tspan><tspan x="19.51" y="0" style="letter-spacing:-0.055018490990996205em">H</tspan><tspan x="26.3" y="0"> </tspan></text><text transform="translate(60.58 333.48)" style="font-size:10.173279762268066px;font-family:ArialMT, Arial">E<tspan x="6.79" y="0" style="letter-spacing:0.02702999034749291em">a</tspan><tspan x="12.72" y="0" style="letter-spacing:0.0830069916344995em">s</tspan><tspan x="18.65" y="0" style="letter-spacing:-0.02702999034749291em">t</tspan><tspan x="21.2" y="0" style="letter-spacing:0.02702999034749291em">e</tspan><tspan x="27.13" y="0">r</tspan><tspan x="30.52" y="0" style="letter-spacing:0.02702999034749291em">n</tspan><tspan x="36.45" y="0" style="letter-spacing:-0.02702999034749291em"> </tspan><tspan x="39.01" y="0" style="letter-spacing:0.02702999034749291em">Coa</tspan><tspan x="58.49" y="0" style="letter-spacing:0.0830069916344995em">s</tspan><tspan x="64.42" y="0" style="letter-spacing:-0.02702999034749291em">t</tspan><tspan x="66.98" y="0" style="letter-spacing:0.02702999034749291em">al</tspan><tspan x="75.44" y="0" style="letter-spacing:-0.02702999034749291em"> </tspan><tspan x="77.99" y="0">P</tspan><tspan x="84.78" y="0" style="letter-spacing:0.026934139317891872em">lain</tspan><tspan x="101.71" y="0" style="letter-spacing:0.0830069916344995em">s</tspan><tspan x="107.65" y="0" style="letter-spacing:-0.02702999034749291em"> </tspan><tspan x="110.2" y="0">&amp;</tspan><tspan x="116.98" y="0" style="letter-spacing:-0.02702999034749291em"> </tspan><tspan x="119.54" y="0" style="letter-spacing:0.026934139317891872em">Hill</tspan><tspan x="134.76" y="0" style="letter-spacing:0.0830069916344995em">s</tspan><tspan x="140.69" y="0" style="letter-spacing:-0.02702999034749291em">,</tspan><tspan x="143.24" y="0"> </tspan></text><text transform="translate(206.62 333.48)" style="font-size:10.173279762268066px;font-family:Arial-BoldMT, Arial;font-weight:700"><tspan style="letter-spacing:-0.055018490990996205em">C</tspan><tspan x="6.79" y="0">P</tspan><tspan x="13.57" y="0" style="letter-spacing:-0.05492263996139516em">H</tspan><tspan x="20.36" y="0" style="letter-spacing:-0.00009585102960103868em"> </tspan></text><text transform="translate(229.54 333.48)" style="font-size:10.173279762268066px;font-family:ArialMT, Arial"><tspan style="letter-spacing:0.02702999034749291em">Cen</tspan><tspan x="19.49" y="0" style="letter-spacing:-0.02702999034749291em">t</tspan><tspan x="22.04" y="0">r</tspan><tspan x="25.43" y="0" style="letter-spacing:0.02702999034749291em">al</tspan><tspan x="33.89" y="0" style="letter-spacing:-0.02702999034749291em"> </tspan><tspan x="36.45" y="0">P</tspan><tspan x="43.23" y="0" style="letter-spacing:0.026934139317891872em">la</tspan><tspan x="51.7" y="0" style="letter-spacing:-0.02702999034749291em">t</tspan><tspan x="54.25" y="0" style="letter-spacing:0.02702999034749291em">eau</tspan><tspan x="72.05" y="0" style="letter-spacing:-0.02702999034749291em"> </tspan><tspan x="74.6" y="0" style="letter-spacing:0.02702999034749291em">and</tspan><tspan x="92.4" y="0" style="letter-spacing:-0.02702999034749291em"> </tspan><tspan x="94.95" y="0" style="letter-spacing:0.02702999034749291em">Hill</tspan><tspan x="110.17" y="0" style="letter-spacing:0.08310284266410053em">s</tspan><tspan x="116.11" y="0" style="letter-spacing:-0.027125841377093944em">,</tspan><tspan x="118.66" y="0"> </tspan></text><text transform="translate(350.95 333.48)" style="font-size:10.173279762268066px;font-family:Arial-BoldMT, Arial;font-weight:700">SPH</text><text transform="translate(371.32 333.48)" style="font-size:10.173279762268066px;font-family:ArialMT, Arial"><tspan style="letter-spacing:-0.02702999034749291em"> </tspan><tspan x="2.55" y="0">S</tspan><tspan x="9.34" y="0" style="letter-spacing:0.026934139317891872em">ou</tspan><tspan x="21.2" y="0" style="letter-spacing:-0.02702999034749291em">t</tspan><tspan x="23.75" y="0" style="letter-spacing:0.02702999034749291em">he</tspan><tspan x="35.62" y="0">r</tspan><tspan x="39.01" y="0" style="letter-spacing:0.02702999034749291em">n</tspan><tspan x="44.94" y="0" style="letter-spacing:-0.02702999034749291em"> </tspan><tspan x="47.49" y="0">P</tspan><tspan x="54.28" y="0" style="letter-spacing:0.026934139317891872em">la</tspan><tspan x="62.74" y="0" style="letter-spacing:-0.02702999034749291em">t</tspan><tspan x="65.3" y="0" style="letter-spacing:0.02702999034749291em">eau</tspan><tspan x="83.09" y="0" style="letter-spacing:-0.02702999034749291em"> </tspan><tspan x="85.65" y="0" style="letter-spacing:0.02702999034749291em">and</tspan><tspan x="103.44" y="0" style="letter-spacing:-0.02702999034749291em"> </tspan><tspan x="106" y="0" style="letter-spacing:0.02702999034749291em">Hill</tspan><tspan x="121.22" y="0" style="letter-spacing:0.00009585102960103868em">s</tspan></text></g><g style="clip-path:url(#clip-path-6)"><text transform="translate(53.79 163.94)" style="font-size:12.71660041809082px;font-family:Arial-BoldMT, Arial;font-weight:700;letter-spacing:0.010965357169603182em">C<tspan x="9.32" y="0" style="letter-spacing:0.00007668081936785441em">PH</tspan></text></g><g style="clip-path:url(#clip-path-7)"><text transform="translate(53.79 265.67)" style="font-size:12.71660041809082px;font-family:Arial-BoldMT, Arial;font-weight:700">SPH</text></g><g style="clip-path:url(#clip-path-8)"><text transform="translate(142.09 163.94)" style="font-size:12.71660041809082px;font-family:Arial-BoldMT, Arial;font-weight:700"><tspan style="letter-spacing:0.010965357169603182em">R</tspan><tspan x="9.32" y="0">-7</tspan></text></g><g style="clip-path:url(#clip-path-9)"><text transform="translate(142.09 265.67)" style="font-size:12.71660041809082px;font-family:Arial-BoldMT, Arial;font-weight:700"><tspan style="letter-spacing:0.010965357169603182em">R</tspan><tspan x="9.32" y="0">-</tspan><tspan x="13.56" y="0" style="letter-spacing:-0.022007395158574222em">2</tspan><tspan x="20.35" y="0">0</tspan></text></g><g style="clip-path:url(#clip-path-10)"><text transform="translate(755.94 189.37)" style="font-size:12.71660041809082px;fill:#f2f2f2;font-family:Arial-BoldMT, Arial;font-weight:700">S<tspan x="8.48" y="0" style="letter-spacing:-0.009968506517821074em">u</tspan><tspan x="16.12" y="0" style="letter-spacing:-0.08902643128607898em">mm</tspan><tspan x="36.47" y="0" style="letter-spacing:0.042941258845998476em">e</tspan><tspan x="44.09" y="0">r</tspan></text></g><g style="clip-path:url(#clip-path-11)"><polyline points="2.85 2 2.85 2.85 890.93 2.85 890.93 2 2.85 2" style="fill:#bfbfbf;fill-rule:evenodd"/><polyline points="393.4 2.85 393.4 58.8 394.25 58.8 394.25 2.85 393.4 2.85" style="fill:#bfbfbf;fill-rule:evenodd"/><polyline points="448.59 2.85 448.59 58.8 449.44 58.8 449.44 2.85 448.59 2.85" style="fill:#bfbfbf;fill-rule:evenodd"/><polyline points="503.77 2.85 503.77 58.8 504.62 58.8 504.62 2.85 503.77 2.85" style="fill:#bfbfbf;fill-rule:evenodd"/><polyline points="558.96 2.85 558.96 58.8 559.81 58.8 559.81 2.85 558.96 2.85" style="fill:#bfbfbf;fill-rule:evenodd"/><polyline points="2.85 57.95 2.85 58.8 890.93 58.8 890.93 57.95 2.85 57.95" style="fill:#bfbfbf;fill-rule:evenodd"/><polyline points="283.03 2.85 283.03 58.8 283.88 58.8 283.88 2.85 283.03 2.85" style="fill:#bfbfbf;fill-rule:evenodd"/><polyline points="338.21 2.85 338.21 58.8 339.06 58.8 339.06 2.85 338.21 2.85" style="fill:#bfbfbf;fill-rule:evenodd"/><polyline points="2.85 108.82 2.85 109.67 890.93 109.67 890.93 108.82 2.85 108.82" style="fill:#bfbfbf;fill-rule:evenodd"/><polyline points="669.33 2.85 669.33 58.8 670.18 58.8 670.18 2.85 669.33 2.85" style="fill:#bfbfbf;fill-rule:evenodd"/><polyline points="724.52 2.85 724.52 58.8 725.37 58.8 725.37 2.85 724.52 2.85" style="fill:#bfbfbf;fill-rule:evenodd"/><polyline points="834.89 2.85 834.89 58.8 835.74 58.8 835.74 2.85 834.89 2.85" style="fill:#bfbfbf;fill-rule:evenodd"/><polyline points="228.69 159.69 228.69 160.53 890.93 160.53 890.93 159.69 228.69 159.69" style="fill:#bfbfbf;fill-rule:evenodd"/><polyline points="2.85 210.55 2.85 211.4 890.93 211.4 890.93 210.55 2.85 210.55" style="fill:#bfbfbf;fill-rule:evenodd"/><polyline points="614.15 2.85 614.15 58.8 615 58.8 615 2.85 614.15 2.85" style="fill:#bfbfbf;fill-rule:evenodd"/><polyline points="228.69 261.42 228.69 262.27 890.93 262.27 890.93 261.42 228.69 261.42" style="fill:#bfbfbf;fill-rule:evenodd"/><polyline points="2 2 2 313.13 2.85 313.13 2.85 2 2 2" style="fill:#bfbfbf;fill-rule:evenodd"/><polyline points="2.85 312.29 2.85 313.13 890.93 313.13 890.93 312.29 2.85 312.29" style="fill:#bfbfbf;fill-rule:evenodd"/><polyline points="890.08 2.85 890.08 313.13 890.93 313.13 890.93 2.85 890.08 2.85" style="fill:#bfbfbf;fill-rule:evenodd"/><polyline points="131.9 2.85 131.9 313.13 132.75 313.13 132.75 2.85 131.9 2.85" style="fill:#bfbfbf;fill-rule:evenodd"/><polyline points="227.84 2.85 227.84 313.13 228.69 313.13 228.69 2.85 227.84 2.85" style="fill:#bfbfbf;fill-rule:evenodd"/><polyline points="448.59 262.27 448.59 313.13 449.44 313.13 449.44 262.27 448.59 262.27" style="fill:#bfbfbf;fill-rule:evenodd"/><polyline points="779.71 2.85 779.71 58.8 780.56 58.8 780.56 2.85 779.71 2.85" style="fill:#bfbfbf;fill-rule:evenodd"/><polyline points="2 348.74 2 349.59 2.85 349.59 2.85 348.74 2 348.74" style="fill:#d4d4d4;fill-rule:evenodd"/><polyline points="131.9 348.74 131.9 349.59 132.75 349.59 132.75 348.74 131.9 348.74" style="fill:#d4d4d4;fill-rule:evenodd"/><polyline points="227.84 348.74 227.84 349.59 228.69 349.59 228.69 348.74 227.84 348.74" style="fill:#d4d4d4;fill-rule:evenodd"/><polyline points="283.03 348.74 283.03 349.59 283.88 349.59 283.88 348.74 283.03 348.74" style="fill:#d4d4d4;fill-rule:evenodd"/><polyline points="338.21 348.74 338.21 349.59 339.06 349.59 339.06 348.74 338.21 348.74" style="fill:#d4d4d4;fill-rule:evenodd"/><polyline points="393.4 348.74 393.4 349.59 394.25 349.59 394.25 348.74 393.4 348.74" style="fill:#d4d4d4;fill-rule:evenodd"/><polyline points="448.59 348.74 448.59 349.59 449.44 349.59 449.44 348.74 448.59 348.74" style="fill:#d4d4d4;fill-rule:evenodd"/><polyline points="503.77 348.74 503.77 349.59 504.62 349.59 504.62 348.74 503.77 348.74" style="fill:#d4d4d4;fill-rule:evenodd"/><polyline points="558.96 348.74 558.96 349.59 559.81 349.59 559.81 348.74 558.96 348.74" style="fill:#d4d4d4;fill-rule:evenodd"/><polyline points="614.15 348.74 614.15 349.59 615 349.59 615 348.74 614.15 348.74" style="fill:#d4d4d4;fill-rule:evenodd"/><polyline points="669.33 348.74 669.33 349.59 670.18 349.59 670.18 348.74 669.33 348.74" style="fill:#d4d4d4;fill-rule:evenodd"/><polyline points="724.52 348.74 724.52 349.59 725.37 349.59 725.37 348.74 724.52 348.74" style="fill:#d4d4d4;fill-rule:evenodd"/><polyline points="779.71 348.74 779.71 349.59 780.56 349.59 780.56 348.74 779.71 348.74" style="fill:#d4d4d4;fill-rule:evenodd"/><polyline points="834.89 348.74 834.89 349.59 835.74 349.59 835.74 348.74 834.89 348.74" style="fill:#d4d4d4;fill-rule:evenodd"/><polyline points="890.08 348.74 890.08 349.59 890.93 349.59 890.93 348.74 890.08 348.74" style="fill:#d4d4d4;fill-rule:evenodd"/><polyline points="890.93 210.55 890.93 211.4 891.78 211.4 891.78 210.55 890.93 210.55" style="fill:#fff;fill-rule:evenodd"/></g></svg>