<svg id="Layer_1" data-name="Layer 1" xmlns="http://www.w3.org/2000/svg" xmlns:xlink="http://www.w3.org/1999/xlink" viewBox="0 0 900 350"><defs><clipPath id="clip-path"><polygon points="2.3 347.56 897.97 347.56 897.97 2.74 2.3 2.74 2.3 347.56 2.3 347.56" style="fill:none;clip-rule:evenodd"/></clipPath><clipPath id="clip-path-2"><polygon points="67.28 304.9 883.92 304.9 883.92 20.29 67.28 20.29 67.28 304.9 67.28 304.9" style="fill:none;clip-rule:evenodd"/></clipPath><clipPath id="clip-path-6"><rect x="2.3" y="2.74" width="895.66" height="344.82" style="fill:none"/></clipPath><clipPath id="clip-path-15"><rect x="271.03" y="183.12" width="207.6" height="19.44" style="fill:none"/></clipPath></defs><title>yar</title><polygon points="2.44 2.87 897.97 2.87 897.97 347.7 2.44 347.7 2.44 2.87 2.44 2.87" style="fill:#eaeaea;fill-rule:evenodd"/><polygon points="67.28 20.43 883.1 20.43 883.1 304.22 67.28 304.22 67.28 20.43 67.28 20.43" style="fill:#fff;fill-rule:evenodd"/><path d="M67.28,304.22H883.1m-815.82-71H883.1M67.28,162.32H883.1m-815.82-71H883.1M67.28,20.43H883.1" style="fill:none;stroke:#d9d9d9;stroke-linejoin:round;stroke-width:0.817998894022584px"/><g style="clip-path:url(#clip-path)"><path d="M67.28,20.43V304.22m204-283.79V304.22M475.19,20.43V304.22m204-283.79V304.22M883.1,20.43V304.22" style="fill:none;stroke:#d9d9d9;stroke-linejoin:round;stroke-width:0.817998894022584px"/></g><g style="clip-path:url(#clip-path-2)"><path d="M128.54,268.71H210v7h-81.5v-7Zm203.89,0h81.64v7H332.43v-7Zm204,0H618v7h-81.5v-7Zm203.89,0H822v3.51H740.34v-3.51Z" style="fill:#ff25f3"/></g><g style="clip-path:url(#clip-path-2)"><path d="M128.54,85.1H210V268.71h-81.5V85.1ZM332.43,213.49h81.64v55.22H332.43V213.49Zm204-128.39H618V268.71h-81.5V85.1Zm203.89,41.45H822V268.71H740.34V126.55Z" style="fill:#5e9fff"/></g><g style="clip-path:url(#clip-path-2)"><path d="M128.54,77H210v8.1h-81.5V77ZM332.43,206.88h81.64v6.61H332.43v-6.61ZM536.45,77H618v8.1h-81.5V77Zm203.89,46.58H822v3H740.34v-3Z" style="fill:#04f"/></g><g style="clip-path:url(#clip-path)"><line x1="67.28" y1="268.71" x2="883.1" y2="268.71" style="fill:none;stroke:#d9d9d9;stroke-linejoin:round;stroke-width:0.817998894022584px"/></g><g style="clip-path:url(#clip-path-6)"><text transform="translate(159.02 293.64) scale(1.02 1)" style="font-size:11.20602035522461px;font-family:ArialMT, Arial">-</text></g><g style="clip-path:url(#clip-path-6)"><text transform="translate(162.87 293.64) scale(1.02 1)" style="font-size:11.20602035522461px;font-family:ArialMT, Arial;letter-spacing:-0.0009401257332163384em">4<tspan x="6.22" y="0" style="letter-spacing:-0.00008546597574693984em">%</tspan></text></g><g style="clip-path:url(#clip-path-6)"><text transform="translate(359.8 289.14) scale(1.02 1)" style="font-size:11.20602035522461px;font-family:ArialMT, Arial">-</text></g><g style="clip-path:url(#clip-path-6)"><text transform="translate(363.66 289.14) scale(1.02 1)" style="font-size:11.20602035522461px;font-family:ArialMT, Arial"><tspan style="letter-spacing:-0.0009401257332163384em">12</tspan><tspan x="12.44" y="0">%</tspan></text></g><g style="clip-path:url(#clip-path-6)"><text transform="translate(566.91 294.8) scale(1.02 1)" style="font-size:11.20602035522461px;font-family:ArialMT, Arial">-</text></g><g style="clip-path:url(#clip-path-6)"><text transform="translate(570.77 294.8) scale(1.02 1)" style="font-size:11.20602035522461px;font-family:ArialMT, Arial;letter-spacing:-0.0009401257332163384em">4<tspan x="6.22" y="0" style="letter-spacing:-0.00008546597574693984em">%</tspan></text></g><g style="clip-path:url(#clip-path-6)"><text transform="translate(770.86 292.67) scale(1.02 1)" style="font-size:11.20602035522461px;font-family:ArialMT, Arial">-</text></g><g style="clip-path:url(#clip-path-6)"><text transform="translate(774.71 292.67) scale(1.02 1)" style="font-size:11.20602035522461px;font-family:ArialMT, Arial;letter-spacing:-0.0009401257332163384em">2<tspan x="6.22" y="0" style="letter-spacing:-0.00008546597574693984em">%</tspan></text></g><g style="clip-path:url(#clip-path-6)"><text transform="translate(157.64 63.46) scale(1.02 1)" style="font-size:11.20602035522461px;font-family:ArialMT, Arial"><tspan style="letter-spacing:-0.005042492569069451em">+</tspan><tspan x="6.49" y="0" style="letter-spacing:-0.0009401257332163384em">4</tspan><tspan x="12.71" y="0">%</tspan></text></g><g style="clip-path:url(#clip-path-15)"><text transform="translate(360.12 196.92) scale(1.02 1)" style="font-size:11.20602035522461px;font-family:ArialMT, Arial;letter-spacing:-0.005042492569069451em">+<tspan x="6.49" y="0" style="letter-spacing:-0.0009401257332163384em">12</tspan><tspan x="18.93" y="0" style="letter-spacing:-0.00008546597574693984em">%</tspan></text></g><g style="clip-path:url(#clip-path-6)"><text transform="translate(565.54 60.37) scale(1.02 1)" style="font-size:11.20602035522461px;font-family:ArialMT, Arial"><tspan style="letter-spacing:-0.005042492569069451em">+</tspan><tspan x="6.49" y="0" style="letter-spacing:-0.0009401257332163384em">4</tspan><tspan x="12.71" y="0">%</tspan></text></g><g style="clip-path:url(#clip-path-6)"><text transform="translate(769.49 112.11) scale(1.02 1)" style="font-size:11.20602035522461px;font-family:ArialMT, Arial"><tspan style="letter-spacing:-0.005042492569069451em">+</tspan><tspan x="6.49" y="0" style="letter-spacing:-0.0009401257332163384em">2</tspan><tspan x="12.71" y="0">%</tspan></text></g><g style="clip-path:url(#clip-path-6)"><text transform="translate(40.64 307.39) scale(1.02 1)" style="font-size:10.125920295715332px;font-family:Arial-BoldMT, Arial;font-weight:700">-<tspan x="3.37" y="0" style="letter-spacing:0.003026635599506647em">0</tspan><tspan x="9.03" y="0" style="letter-spacing:0.0019862296121762376em">.</tspan><tspan x="11.87" y="0">1</tspan></text></g><g style="clip-path:url(#clip-path-6)"><text transform="translate(44.07 236.45) scale(1.02 1)" style="font-size:10.125920295715332px;font-family:Arial-BoldMT, Arial;font-weight:700"><tspan style="letter-spacing:0.003026635599506647em">0</tspan><tspan x="5.66" y="0" style="letter-spacing:0.0019862296121762376em">.</tspan><tspan x="8.5" y="0">1</tspan></text></g><g style="clip-path:url(#clip-path-6)"><text transform="translate(44.07 165.52) scale(1.02 1)" style="font-size:10.125920295715332px;font-family:Arial-BoldMT, Arial;font-weight:700"><tspan style="letter-spacing:0.003026635599506647em">0</tspan><tspan x="5.66" y="0" style="letter-spacing:0.0019862296121762376em">.</tspan><tspan x="8.5" y="0">3</tspan></text></g><g style="clip-path:url(#clip-path-6)"><text transform="translate(44.07 94.58) scale(1.02 1)" style="font-size:10.125920295715332px;font-family:Arial-BoldMT, Arial;font-weight:700"><tspan style="letter-spacing:0.003026635599506647em">0</tspan><tspan x="5.66" y="0" style="letter-spacing:0.0019862296121762376em">.</tspan><tspan x="8.5" y="0">5</tspan></text></g><g style="clip-path:url(#clip-path-6)"><text transform="translate(44.07 23.65) scale(1.02 1)" style="font-size:10.125920295715332px;font-family:Arial-BoldMT, Arial;font-weight:700"><tspan style="letter-spacing:0.003026635599506647em">0</tspan><tspan x="5.66" y="0" style="letter-spacing:0.0019862296121762376em">.</tspan><tspan x="8.5" y="0">7</tspan></text></g><g style="clip-path:url(#clip-path-6)"><text transform="translate(160.97 319.45) scale(1.02 1)" style="font-size:10.125920295715332px;font-family:Arial-BoldMT, Arial;font-weight:700"><tspan style="letter-spacing:-0.0019862296121762376em">R</tspan><tspan x="7.29" y="0">-1</tspan></text></g><g style="clip-path:url(#clip-path-6)"><text transform="translate(364.91 319.45) scale(1.02 1)" style="font-size:10.125920295715332px;font-family:Arial-BoldMT, Arial;font-weight:700"><tspan style="letter-spacing:-0.0019862296121762376em">R</tspan><tspan x="7.29" y="0">-7</tspan></text></g><g style="clip-path:url(#clip-path-6)"><text transform="translate(565.99 319.45) scale(1.02 1)" style="font-size:10.125920295715332px;font-family:Arial-BoldMT, Arial;font-weight:700"><tspan style="letter-spacing:-0.0019862296121762376em">R</tspan><tspan x="7.29" y="0">-</tspan><tspan x="10.66" y="0" style="letter-spacing:0.003026635599506647em">1</tspan><tspan x="16.33" y="0">8</tspan></text></g><g style="clip-path:url(#clip-path-6)"><text transform="translate(769.94 319.45) scale(1.02 1)" style="font-size:10.125920295715332px;font-family:Arial-BoldMT, Arial;font-weight:700"><tspan style="letter-spacing:-0.0019862296121762376em">R</tspan><tspan x="7.29" y="0">-</tspan><tspan x="10.66" y="0" style="letter-spacing:0.003026635599506647em">2</tspan><tspan x="16.33" y="0">0</tspan></text></g><g style="clip-path:url(#clip-path-6)"><text transform="translate(18.33 231.1) rotate(-90) scale(0.98 1)" style="font-size:11.426360130310059px;font-family:Arial-BoldMT, Arial;font-weight:700"><tspan style="letter-spacing:0.0049673180309647985em">Q</tspan><tspan x="8.94" y="0" style="letter-spacing:0.0030501075628731216em">u</tspan><tspan x="15.96" y="0" style="letter-spacing:-0.0010457511644136417em">a</tspan><tspan x="22.3" y="0" style="letter-spacing:0.0030501075628731216em">n</tspan><tspan x="29.32" y="0" style="letter-spacing:0.00400871279691896em">t</tspan><tspan x="33.17" y="0">i</tspan><tspan x="36.34" y="0" style="letter-spacing:0.00400871279691896em">t</tspan><tspan x="40.19" y="0" style="letter-spacing:-0.012984743624802718em">y</tspan><tspan x="46.4" y="0" style="letter-spacing:0.010980387226343237em"> </tspan><tspan x="49.7" y="0">&amp; </tspan><tspan x="61.12" y="0" style="letter-spacing:0.006971674429424278em">Y</tspan><tspan x="68.83" y="0" style="letter-spacing:-0.0009586052340458383em">a</tspan><tspan x="75.17" y="0">R</tspan><tspan x="83.42" y="0" style="letter-spacing:0.010980387226343237em"> </tspan><tspan x="86.72" y="0" style="letter-spacing:0.00400871279691896em">(</tspan><tspan x="90.57" y="0" style="letter-spacing:0.021960774452686474em">M</tspan><tspan x="100.34" y="0" style="letter-spacing:0.015076245953630002em">T</tspan><tspan x="107.49" y="0">)</tspan></text></g><g style="clip-path:url(#clip-path-6)"><text transform="translate(428.47 342.21) scale(1.02 1)" style="font-size:11.20602035522461px;font-family:Arial-BoldMT, Arial;font-weight:700">R<tspan x="8.09" y="0" style="letter-spacing:-0.0010255917089632782em">e</tspan><tspan x="14.31" y="0" style="letter-spacing:0.0030767751268898345em">g</tspan><tspan x="21.19" y="0" style="letter-spacing:-0.00008546597574693984em">i</tspan><tspan x="24.31" y="0" style="letter-spacing:0.0030767751268898345em">on</tspan><tspan x="38.06" y="0">s</tspan></text></g><polygon points="2.44 2.87 897.97 2.87 897.97 347.7 2.44 347.7 2.44 2.87 2.44 2.87" style="fill:none;stroke:#d9d9d9;stroke-linejoin:round;stroke-width:0.817998961739994px"/></svg>