<svg id="Layer_1" data-name="Layer 1" xmlns="http://www.w3.org/2000/svg" xmlns:xlink="http://www.w3.org/1999/xlink" viewBox="0 0 900 350"><defs><clipPath id="clip-path"><polygon points="2 347.96 897.42 347.96 897.42 1 2 1 2 347.96 2 347.96" style="fill:none;clip-rule:evenodd"/></clipPath><clipPath id="clip-path-2"><polygon points="77.72 305.45 842.54 305.45 842.54 18.6 77.72 18.6 77.72 305.45 77.72 305.45" style="fill:none;clip-rule:evenodd"/></clipPath><clipPath id="clip-path-13"><rect x="2" y="1" width="895.42" height="346.96" style="fill:none"/></clipPath></defs><title>ground-truth-risk-report</title><polygon points="2 1.14 897.42 1.14 897.42 347.96 2 347.96 2 1.14 2 1.14" style="fill:#eaeaea;fill-rule:evenodd"/><polygon points="77.72 18.6 841.72 18.6 841.72 304.64 77.72 304.64 77.72 18.6 77.72 18.6" style="fill:#fff;fill-rule:evenodd"/><path d="M77.72,233.16h764m-764-71.47h764m-764-71.62h764M77.72,18.6h764" style="fill:none;stroke:#d9d9d9;stroke-linejoin:round;stroke-width:0.814666465597488px"/><g style="clip-path:url(#clip-path)"><path d="M77.72,18.6v286m254.67-286v286m254.66-286v286m254.67-286v286" style="fill:none;stroke:#d9d9d9;stroke-linejoin:round;stroke-width:0.814666465597488px"/></g><g style="clip-path:url(#clip-path-2)"><polygon points="156.16 75.86 254.08 75.86 254.08 304.64 156.16 304.64 156.16 75.86 156.16 75.86" style="fill:#5e9fff;fill-rule:evenodd"/><polygon points="156.16 75.86 254.08 75.86 254.08 304.64 156.16 304.64 156.16 75.86 156.16 75.86" style="fill:none;stroke:#7f7f7f;stroke-linejoin:round;stroke-width:0.814666465597488px"/><polygon points="410.83 73.02 508.75 73.02 508.75 304.64 410.83 304.64 410.83 73.02 410.83 73.02" style="fill:#5e9fff;fill-rule:evenodd"/><polygon points="410.83 73.02 508.75 73.02 508.75 304.64 410.83 304.64 410.83 73.02 410.83 73.02" style="fill:none;stroke:#7f7f7f;stroke-linejoin:round;stroke-width:0.814666465597488px"/><polygon points="665.36 71.12 763.41 71.12 763.41 304.64 665.36 304.64 665.36 71.12 665.36 71.12" style="fill:#5e9fff;fill-rule:evenodd"/><polygon points="665.36 71.12 763.41 71.12 763.41 304.64 665.36 304.64 665.36 71.12 665.36 71.12" style="fill:none;stroke:#7f7f7f;stroke-linejoin:round;stroke-width:0.814666465597488px"/></g><g style="clip-path:url(#clip-path)"><line x1="77.72" y1="304.64" x2="841.72" y2="304.64" style="fill:none;stroke:#d9d9d9;stroke-linejoin:round;stroke-width:0.814666465597488px"/></g><g style="clip-path:url(#clip-path)"><path d="M77.72,304.64v3.11m254.67-3.11v3.11m254.66-3.11v3.11m254.67-3.11v3.11" style="fill:none;stroke:#d9d9d9;stroke-linejoin:round;stroke-width:0.814666465597488px"/></g><g style="clip-path:url(#clip-path-2)"><polyline points="205.05 51.49 459.72 51.49 714.39 51.49" style="fill:none;stroke:#06f;stroke-linecap:round;stroke-linejoin:round;stroke-width:1.35817184239962px;stroke-dasharray:5.030266284942627,5.030266284942627"/></g><g style="clip-path:url(#clip-path)"><path d="M208,51.46a2.86,2.86,0,1,1-2.86-2.84A2.85,2.85,0,0,1,208,51.46Z" style="fill:#2935e8"/><path d="M208,51.46a2.86,2.86,0,1,1-2.86-2.84A2.85,2.85,0,0,1,208,51.46Z" style="fill:none;stroke:#2935e8;stroke-linejoin:round;stroke-width:0.814666533039026px"/><path d="M462.65,51.46a2.86,2.86,0,1,1-2.86-2.84,2.85,2.85,0,0,1,2.86,2.84Z" style="fill:#2935e8"/><path d="M462.65,51.46a2.86,2.86,0,1,1-2.86-2.84,2.85,2.85,0,0,1,2.86,2.84Z" style="fill:none;stroke:#2935e8;stroke-linejoin:round;stroke-width:0.814666533039026px"/><path d="M717.31,51.46a2.86,2.86,0,1,1-2.86-2.84,2.85,2.85,0,0,1,2.86,2.84Z" style="fill:#2935e8"/><path d="M717.31,51.46a2.86,2.86,0,1,1-2.86-2.84,2.85,2.85,0,0,1,2.86,2.84Z" style="fill:none;stroke:#2935e8;stroke-linejoin:round;stroke-width:0.814666533039026px"/></g><g style="clip-path:url(#clip-path-2)"><polyline points="205.05 95.89 459.72 95.89 714.39 95.89" style="fill:none;stroke:#ff25f3;stroke-linecap:round;stroke-linejoin:round;stroke-width:1.35817184239962px;stroke-dasharray:5.030266284942627,5.030266284942627"/></g><g style="clip-path:url(#clip-path)"><path d="M208,95.86A2.86,2.86,0,1,1,205.12,93,2.85,2.85,0,0,1,208,95.86Z" style="fill:#ff25f3"/><path d="M208,95.86A2.86,2.86,0,1,1,205.12,93,2.85,2.85,0,0,1,208,95.86Z" style="fill:none;stroke:#d9d9d9;stroke-linejoin:round;stroke-width:0.814666533039026px"/><path d="M462.65,95.86A2.86,2.86,0,1,1,459.79,93a2.85,2.85,0,0,1,2.86,2.84Z" style="fill:#ff25f3"/><path d="M462.65,95.86A2.86,2.86,0,1,1,459.79,93a2.85,2.85,0,0,1,2.86,2.84Z" style="fill:none;stroke:#d9d9d9;stroke-linejoin:round;stroke-width:0.814666533039026px"/><path d="M717.31,95.86A2.86,2.86,0,1,1,714.45,93a2.85,2.85,0,0,1,2.86,2.84Z" style="fill:#ff25f3"/><path d="M717.31,95.86A2.86,2.86,0,1,1,714.45,93a2.85,2.85,0,0,1,2.86,2.84Z" style="fill:none;stroke:#d9d9d9;stroke-linejoin:round;stroke-width:0.814666533039026px"/></g><g style="clip-path:url(#clip-path-2)"><polyline points="205.05 66.25 459.72 66.25 714.39 66.25" style="fill:none;stroke:#7f7f7f;stroke-linecap:round;stroke-linejoin:round;stroke-width:1.35777742018197px"/></g><g style="clip-path:url(#clip-path)"><path d="M208,66.22a2.86,2.86,0,1,1-2.86-2.85A2.85,2.85,0,0,1,208,66.22Z" style="fill:#7f7f7f"/><path d="M208,66.22a2.86,2.86,0,1,1-2.86-2.85A2.85,2.85,0,0,1,208,66.22Z" style="fill:none;stroke:#7f7f7f;stroke-linejoin:round;stroke-width:0.814666533039026px"/><path d="M462.65,66.22a2.86,2.86,0,1,1-2.86-2.85,2.85,2.85,0,0,1,2.86,2.85Z" style="fill:#7f7f7f"/><path d="M462.65,66.22a2.86,2.86,0,1,1-2.86-2.85,2.85,2.85,0,0,1,2.86,2.85Z" style="fill:none;stroke:#7f7f7f;stroke-linejoin:round;stroke-width:0.814666533039026px"/><path d="M717.31,66.22a2.86,2.86,0,1,1-2.86-2.85,2.85,2.85,0,0,1,2.86,2.85Z" style="fill:#7f7f7f"/><path d="M717.31,66.22a2.86,2.86,0,1,1-2.86-2.85,2.85,2.85,0,0,1,2.86,2.85Z" style="fill:none;stroke:#7f7f7f;stroke-linejoin:round;stroke-width:0.814666533039026px"/></g><g style="clip-path:url(#clip-path-2)"><polyline points="205.05 75.86 459.72 75.86 714.39 75.86" style="fill:none;stroke:#00c1a3;stroke-linecap:round;stroke-linejoin:round;stroke-width:1.35777742018197px"/></g><g style="clip-path:url(#clip-path)"><path d="M208,75.83A2.86,2.86,0,1,1,205.12,73,2.85,2.85,0,0,1,208,75.83Z" style="fill:#00c1a3"/><path d="M208,75.83A2.86,2.86,0,1,1,205.12,73,2.85,2.85,0,0,1,208,75.83Z" style="fill:none;stroke:#d9d9d9;stroke-linejoin:round;stroke-width:0.814666533039026px"/><path d="M462.65,75.83A2.86,2.86,0,1,1,459.79,73a2.85,2.85,0,0,1,2.86,2.85Z" style="fill:#00c1a3"/><path d="M462.65,75.83A2.86,2.86,0,1,1,459.79,73a2.85,2.85,0,0,1,2.86,2.85Z" style="fill:none;stroke:#d9d9d9;stroke-linejoin:round;stroke-width:0.814666533039026px"/><path d="M717.31,75.83A2.86,2.86,0,1,1,714.45,73a2.85,2.85,0,0,1,2.86,2.85Z" style="fill:#00c1a3"/><path d="M717.31,75.83A2.86,2.86,0,1,1,714.45,73a2.85,2.85,0,0,1,2.86,2.85Z" style="fill:none;stroke:#d9d9d9;stroke-linejoin:round;stroke-width:0.814666533039026px"/></g><g style="clip-path:url(#clip-path-13)"><text transform="translate(49.12 307.91) scale(1.01 1)" style="font-size:10.152850151062012px;font-family:ArialMT, Arial"><tspan style="letter-spacing:0.00296392471208193em">2</tspan><tspan x="5.68" y="0" style="letter-spacing:0.002007819966249049em">.</tspan><tspan x="8.52" y="0" style="letter-spacing:-0.00898738461082908em">5</tspan><tspan x="14.07" y="0">0</tspan></text></g><g style="clip-path:url(#clip-path-13)"><text transform="translate(49.12 236.39) scale(1.01 1)" style="font-size:10.152850151062012px;font-family:ArialMT, Arial"><tspan style="letter-spacing:0.00296392471208193em">3</tspan><tspan x="5.68" y="0" style="letter-spacing:0.002007819966249049em">.</tspan><tspan x="8.52" y="0" style="letter-spacing:-0.00898738461082908em">2</tspan><tspan x="14.07" y="0">5</tspan></text></g><g style="clip-path:url(#clip-path-13)"><text transform="translate(49.12 164.87) scale(1.01 1)" style="font-size:10.152850151062012px;font-family:ArialMT, Arial"><tspan style="letter-spacing:0.00296392471208193em">4</tspan><tspan x="5.68" y="0" style="letter-spacing:0.002007819966249049em">.</tspan><tspan x="8.52" y="0" style="letter-spacing:-0.00898738461082908em">0</tspan><tspan x="14.07" y="0">0</tspan></text></g><g style="clip-path:url(#clip-path-13)"><text transform="translate(49.12 93.37) scale(1.01 1)" style="font-size:10.152850151062012px;font-family:ArialMT, Arial"><tspan style="letter-spacing:0.00296392471208193em">4</tspan><tspan x="5.68" y="0" style="letter-spacing:0.002007819966249049em">.</tspan><tspan x="8.52" y="0" style="letter-spacing:-0.00898738461082908em">7</tspan><tspan x="14.07" y="0">5</tspan></text></g><g style="clip-path:url(#clip-path-13)"><text transform="translate(49.12 21.86) scale(1.01 1)" style="font-size:10.152850151062012px;font-family:ArialMT, Arial"><tspan style="letter-spacing:0.00296392471208193em">5</tspan><tspan x="5.68" y="0" style="letter-spacing:0.002007819966249049em">.</tspan><tspan x="8.52" y="0" style="letter-spacing:-0.00898738461082908em">5</tspan><tspan x="14.07" y="0">0</tspan></text></g><g style="clip-path:url(#clip-path-13)"><text transform="translate(190.99 320) scale(1.01 1)" style="font-size:10.152850151062012px;font-family:ArialMT, Arial">Aug</text></g><g style="clip-path:url(#clip-path-13)"><text transform="translate(447.63 320) scale(1.01 1)" style="font-size:10.152850151062012px;font-family:ArialMT, Arial">Sep</text></g><g style="clip-path:url(#clip-path-13)"><text transform="translate(707.26 320) scale(1.01 1)" style="font-size:10.152850151062012px;font-family:ArialMT, Arial">Oct</text></g><g style="clip-path:url(#clip-path-13)"><text transform="translate(29.97 214.72) rotate(-90) scale(0.99 1)" style="font-size:11.303389549255371px;font-family:Arial-BoldMT, Arial;font-weight:700"><tspan style="letter-spacing:0.005041087082558918em">Q</tspan><tspan x="8.85" y="0" style="letter-spacing:0.002955120013913848em">u</tspan><tspan x="15.79" y="0" style="letter-spacing:-0.0009560682397956568em">a</tspan><tspan x="22.06" y="0" style="letter-spacing:0.002955120013913848em">n</tspan><tspan x="29" y="0" style="letter-spacing:0.00408501884276326em">t</tspan><tspan x="32.81" y="0" style="letter-spacing:-0.00008691529452687789em">i</tspan><tspan x="35.95" y="0" style="letter-spacing:0.00408501884276326em">t</tspan><tspan x="39.76" y="0" style="letter-spacing:-0.013037294179031685em">y</tspan><tspan x="45.9" y="0" style="letter-spacing:0.010951327110386615em"> </tspan><tspan x="49.16" y="0" style="letter-spacing:0.003998103548236383em">(</tspan><tspan x="52.97" y="0" style="letter-spacing:0.022076484809826984em">M</tspan><tspan x="62.64" y="0" style="letter-spacing:0.014949430658622998em">T</tspan><tspan x="69.71" y="0">)</tspan></text></g><g style="clip-path:url(#clip-path-13)"><text transform="translate(416.12 341.1) scale(1.01 1)" style="font-size:11.235810279846191px;font-family:Arial-BoldMT, Arial;font-weight:700"><tspan style="letter-spacing:0.015032745365232735em">T</tspan><tspan x="7.03" y="0">i</tspan><tspan x="10.15" y="0" style="letter-spacing:0.001987087031036511em">m</tspan><tspan x="20.17" y="0" style="letter-spacing:-0.0010367410596712231em">e</tspan><tspan x="26.4" y="0"> </tspan><tspan x="29.53" y="0" style="letter-spacing:-0.003974174062073022em">P</tspan><tspan x="36.97" y="0" style="letter-spacing:-0.0009503459713652879em">e</tspan><tspan x="43.21" y="0" style="letter-spacing:-0.0029374330024017985em">r</tspan><tspan x="47.55" y="0" style="letter-spacing:-0.00008639508830593524em">i</tspan><tspan x="50.67" y="0" style="letter-spacing:0.0030238280907077335em">o</tspan><tspan x="57.57" y="0" style="letter-spacing:0.00008639508830593524em">d</tspan></text></g><polygon points="2 1.14 897.42 1.14 897.42 347.96 2 347.96 2 1.14 2 1.14" style="fill:none;stroke:#d9d9d9;stroke-linejoin:round;stroke-width:0.814666533039026px"/></svg>