<svg id="Layer_1" data-name="Layer 1" xmlns="http://www.w3.org/2000/svg" xmlns:xlink="http://www.w3.org/1999/xlink" viewBox="0 0 900 350"><defs><clipPath id="clip-path"><polygon points="2 348.31 898.43 348.31 898.43 2 2 2 2 348.31 2 348.31" style="fill:none;clip-rule:evenodd"/></clipPath><clipPath id="clip-path-6"><polygon points="63.09 283.49 887.3 283.49 887.3 16.84 63.09 16.84 63.09 283.49 63.09 283.49" style="fill:none;clip-rule:evenodd"/></clipPath><clipPath id="clip-path-10"><rect x="2" y="2" width="896.43" height="346.31" style="fill:none"/></clipPath></defs><title>ndvi-risk-report</title><polygon points="2 2 898.43 2 898.43 348.45 2 348.45 2 2 2 2" style="fill:#eaeaea;fill-rule:evenodd"/><polygon points="63.09 16.84 886.49 16.84 886.49 282.67 63.09 282.67 63.09 16.84 63.09 16.84" style="fill:#fff;fill-rule:evenodd"/><path d="M63.09,216.22h823.4M63.09,149.76h823.4M63.09,83.3h823.4M63.09,16.84h823.4" style="fill:none;stroke:#d9d9d9;stroke-linejoin:round;stroke-width:0.815833710305679px"/><g style="clip-path:url(#clip-path)"><path d="M97.44,16.84V282.67m68.7-265.83V282.67M234.7,16.84V282.67M303.26,16.84V282.67M372,16.84V282.67M440.51,16.84V282.67M509.07,16.84V282.67m68.7-265.83V282.67M646.33,16.84V282.67M715,16.84V282.67M783.58,16.84V282.67M852.14,16.84V282.67" style="fill:none;stroke:#f2f2f2;stroke-linejoin:round;stroke-width:0.815833710305679px"/></g><g style="clip-path:url(#clip-path)"><path d="M63.09,16.84V282.67m68.7-265.83V282.67M200.35,16.84V282.67M269,16.84V282.67M337.6,16.84V282.67M406.16,16.84V282.67m68.7-265.83V282.67M543.42,16.84V282.67M612.11,16.84V282.67M680.67,16.84V282.67M749.23,16.84V282.67m68.7-265.83V282.67M886.49,16.84V282.67" style="fill:none;stroke:#d9d9d9;stroke-linejoin:round;stroke-width:0.815833710305679px"/></g><g style="clip-path:url(#clip-path)"><line x1="63.09" y1="282.67" x2="886.49" y2="282.67" style="fill:none;stroke:#d9d9d9;stroke-linejoin:round;stroke-width:1.35972282799674px"/></g><g style="clip-path:url(#clip-path)"><path d="M63.09,282.67v18.39M337.6,282.67v18.39m274.51-18.39v18.39m274.38-18.39v18.39" style="fill:none;stroke:#d9d9d9;stroke-linejoin:round;stroke-width:1.35972282799674px"/></g><g style="clip-path:url(#clip-path)"><path d="M63.09,301.06v18.52M337.6,301.06v18.52m274.51-18.52v18.52m274.38-18.52v18.52" style="fill:none;stroke:#d9d9d9;stroke-linejoin:round;stroke-width:1.35972282799674px"/></g><g style="clip-path:url(#clip-path-6)"><polyline points="97.44 163.1 166.14 128.51 234.7 96.65 303.25 80.71 371.95 70.09 440.51 56.75 509.07 75.4 577.77 88.61 646.33 117.89 715.02 136.55 783.58 149.76 852.14 165.69" style="fill:none;stroke:#ff25f3;stroke-linecap:round;stroke-linejoin:round;stroke-width:2.44750106337887px"/></g><g style="clip-path:url(#clip-path)"><polygon points="94.61 160.28 100.31 160.28 100.31 166 94.61 166 94.61 160.28 94.61 160.28" style="fill:#ff25f3;fill-rule:evenodd"/><polygon points="94.61 160.28 100.31 160.28 100.31 166 94.61 166 94.61 160.28 94.61 160.28" style="fill:none;stroke:#d9d9d9;stroke-linejoin:round;stroke-width:0.815833777843846px"/><polygon points="163.3 125.69 169 125.69 169 131.41 163.3 131.41 163.3 125.69 163.3 125.69" style="fill:#ff25f3;fill-rule:evenodd"/><polygon points="163.3 125.69 169 125.69 169 131.41 163.3 131.41 163.3 125.69 163.3 125.69" style="fill:none;stroke:#d9d9d9;stroke-linejoin:round;stroke-width:0.815833777843846px"/><polygon points="231.86 93.82 237.56 93.82 237.56 99.54 231.86 99.54 231.86 93.82 231.86 93.82" style="fill:#ff25f3;fill-rule:evenodd"/><polygon points="231.86 93.82 237.56 93.82 237.56 99.54 231.86 99.54 231.86 93.82 231.86 93.82" style="fill:none;stroke:#d9d9d9;stroke-linejoin:round;stroke-width:0.815833777843846px"/><polygon points="300.42 77.89 306.12 77.89 306.12 83.61 300.42 83.61 300.42 77.89 300.42 77.89" style="fill:#ff25f3;fill-rule:evenodd"/><polygon points="300.42 77.89 306.12 77.89 306.12 83.61 300.42 83.61 300.42 77.89 300.42 77.89" style="fill:none;stroke:#d9d9d9;stroke-linejoin:round;stroke-width:0.815833777843846px"/><polygon points="369.12 67.27 374.82 67.27 374.82 72.98 369.12 72.98 369.12 67.27 369.12 67.27" style="fill:#ff25f3;fill-rule:evenodd"/><polygon points="369.12 67.27 374.82 67.27 374.82 72.98 369.12 72.98 369.12 67.27 369.12 67.27" style="fill:none;stroke:#d9d9d9;stroke-linejoin:round;stroke-width:0.815833777843846px"/><polygon points="437.68 53.92 443.38 53.92 443.38 59.64 437.68 59.64 437.68 53.92 437.68 53.92" style="fill:#ff25f3;fill-rule:evenodd"/><polygon points="437.68 53.92 443.38 53.92 443.38 59.64 437.68 59.64 437.68 53.92 437.68 53.92" style="fill:none;stroke:#d9d9d9;stroke-linejoin:round;stroke-width:0.815833777843846px"/><polygon points="506.24 72.58 511.94 72.58 511.94 78.3 506.24 78.3 506.24 72.58 506.24 72.58" style="fill:#ff25f3;fill-rule:evenodd"/><polygon points="506.24 72.58 511.94 72.58 511.94 78.3 506.24 78.3 506.24 72.58 506.24 72.58" style="fill:none;stroke:#d9d9d9;stroke-linejoin:round;stroke-width:0.815833777843846px"/><polygon points="574.93 85.79 580.63 85.79 580.63 91.51 574.93 91.51 574.93 85.79 574.93 85.79" style="fill:#ff25f3;fill-rule:evenodd"/><polygon points="574.93 85.79 580.63 85.79 580.63 91.51 574.93 91.51 574.93 85.79 574.93 85.79" style="fill:none;stroke:#d9d9d9;stroke-linejoin:round;stroke-width:0.815833777843846px"/><polygon points="643.49 115.07 649.19 115.07 649.19 120.79 643.49 120.79 643.49 115.07 643.49 115.07" style="fill:#ff25f3;fill-rule:evenodd"/><polygon points="643.49 115.07 649.19 115.07 649.19 120.79 643.49 120.79 643.49 115.07 643.49 115.07" style="fill:none;stroke:#d9d9d9;stroke-linejoin:round;stroke-width:0.815833777843846px"/><polygon points="712.19 133.72 717.89 133.72 717.89 139.44 712.19 139.44 712.19 133.72 712.19 133.72" style="fill:#ff25f3;fill-rule:evenodd"/><polygon points="712.19 133.72 717.89 133.72 717.89 139.44 712.19 139.44 712.19 133.72 712.19 133.72" style="fill:none;stroke:#d9d9d9;stroke-linejoin:round;stroke-width:0.815833777843846px"/><polygon points="780.75 146.93 786.45 146.93 786.45 152.65 780.75 152.65 780.75 146.93 780.75 146.93" style="fill:#ff25f3;fill-rule:evenodd"/><polygon points="780.75 146.93 786.45 146.93 786.45 152.65 780.75 152.65 780.75 146.93 780.75 146.93" style="fill:none;stroke:#d9d9d9;stroke-linejoin:round;stroke-width:0.815833777843846px"/><polygon points="849.31 162.87 855.01 162.87 855.01 168.59 849.31 168.59 849.31 162.87 849.31 162.87" style="fill:#ff25f3;fill-rule:evenodd"/><polygon points="849.31 162.87 855.01 162.87 855.01 168.59 849.31 168.59 849.31 162.87 849.31 162.87" style="fill:none;stroke:#d9d9d9;stroke-linejoin:round;stroke-width:0.815833777843846px"/></g><g style="clip-path:url(#clip-path-6)"><polyline points="97.44 176.31 166.14 144.45 234.7 112.58 303.25 96.65 371.95 86.03 440.51 70.09 509.07 86.03 577.77 96.65 646.33 123.2 715.02 144.45 783.58 157.79 852.14 176.31" style="fill:none;stroke:#06f;stroke-linecap:round;stroke-linejoin:round;stroke-width:2.44750106337887px"/></g><g style="clip-path:url(#clip-path)"><path d="M100.31,176.35a2.85,2.85,0,1,1-2.85-2.86,2.86,2.86,0,0,1,2.85,2.86Z" style="fill:#06f"/><path d="M100.31,176.35a2.85,2.85,0,1,1-2.85-2.86,2.86,2.86,0,0,1,2.85,2.86Z" style="fill:none;stroke:#6b77e8;stroke-linejoin:round;stroke-width:0.815833777843846px"/><path d="M169,144.48a2.85,2.85,0,1,1-2.85-2.86,2.85,2.85,0,0,1,2.85,2.86Z" style="fill:#06f"/><path d="M169,144.48a2.85,2.85,0,1,1-2.85-2.86,2.85,2.85,0,0,1,2.85,2.86Z" style="fill:none;stroke:#6b77e8;stroke-linejoin:round;stroke-width:0.815833777843846px"/><path d="M237.56,112.61a2.85,2.85,0,1,1-2.85-2.86,2.85,2.85,0,0,1,2.85,2.86Z" style="fill:#06f"/><path d="M237.56,112.61a2.85,2.85,0,1,1-2.85-2.86,2.85,2.85,0,0,1,2.85,2.86Z" style="fill:none;stroke:#6b77e8;stroke-linejoin:round;stroke-width:0.815833777843846px"/><path d="M306.12,96.68a2.85,2.85,0,1,1-2.85-2.86,2.85,2.85,0,0,1,2.85,2.86Z" style="fill:#06f"/><path d="M306.12,96.68a2.85,2.85,0,1,1-2.85-2.86,2.85,2.85,0,0,1,2.85,2.86Z" style="fill:none;stroke:#6b77e8;stroke-linejoin:round;stroke-width:0.815833777843846px"/><path d="M374.82,86.06A2.85,2.85,0,1,1,372,83.2a2.86,2.86,0,0,1,2.85,2.86Z" style="fill:#06f"/><path d="M374.82,86.06A2.85,2.85,0,1,1,372,83.2a2.86,2.86,0,0,1,2.85,2.86Z" style="fill:none;stroke:#6b77e8;stroke-linejoin:round;stroke-width:0.815833777843846px"/><path d="M443.38,70.13a2.85,2.85,0,1,1-2.85-2.86,2.86,2.86,0,0,1,2.85,2.86Z" style="fill:#06f"/><path d="M443.38,70.13a2.85,2.85,0,1,1-2.85-2.86,2.86,2.86,0,0,1,2.85,2.86Z" style="fill:none;stroke:#6b77e8;stroke-linejoin:round;stroke-width:0.815833777843846px"/><path d="M511.94,86.06a2.85,2.85,0,1,1-2.85-2.86,2.86,2.86,0,0,1,2.85,2.86Z" style="fill:#06f"/><path d="M511.94,86.06a2.85,2.85,0,1,1-2.85-2.86,2.86,2.86,0,0,1,2.85,2.86Z" style="fill:none;stroke:#6b77e8;stroke-linejoin:round;stroke-width:0.815833777843846px"/><path d="M580.63,96.68a2.85,2.85,0,1,1-2.85-2.86,2.85,2.85,0,0,1,2.85,2.86Z" style="fill:#06f"/><path d="M580.63,96.68a2.85,2.85,0,1,1-2.85-2.86,2.85,2.85,0,0,1,2.85,2.86Z" style="fill:none;stroke:#6b77e8;stroke-linejoin:round;stroke-width:0.815833777843846px"/><path d="M649.19,123.24a2.85,2.85,0,1,1-2.85-2.86,2.85,2.85,0,0,1,2.85,2.86Z" style="fill:#06f"/><path d="M649.19,123.24a2.85,2.85,0,1,1-2.85-2.86,2.85,2.85,0,0,1,2.85,2.86Z" style="fill:none;stroke:#6b77e8;stroke-linejoin:round;stroke-width:0.815833777843846px"/><path d="M717.89,144.48a2.85,2.85,0,1,1-2.85-2.86,2.86,2.86,0,0,1,2.85,2.86Z" style="fill:#06f"/><path d="M717.89,144.48a2.85,2.85,0,1,1-2.85-2.86,2.86,2.86,0,0,1,2.85,2.86Z" style="fill:none;stroke:#6b77e8;stroke-linejoin:round;stroke-width:0.815833777843846px"/><path d="M786.45,157.83A2.85,2.85,0,1,1,783.6,155a2.86,2.86,0,0,1,2.85,2.86Z" style="fill:#06f"/><path d="M786.45,157.83A2.85,2.85,0,1,1,783.6,155a2.86,2.86,0,0,1,2.85,2.86Z" style="fill:none;stroke:#6b77e8;stroke-linejoin:round;stroke-width:0.815833777843846px"/><path d="M855,176.35a2.85,2.85,0,1,1-2.85-2.86,2.86,2.86,0,0,1,2.85,2.86Z" style="fill:#06f"/><path d="M855,176.35a2.85,2.85,0,1,1-2.85-2.86,2.86,2.86,0,0,1,2.85,2.86Z" style="fill:none;stroke:#6b77e8;stroke-linejoin:round;stroke-width:0.815833777843846px"/></g><g style="clip-path:url(#clip-path-10)"><text transform="translate(34.58 285.93)" style="font-size:10.213740348815918px;font-family:ArialMT, Arial;letter-spacing:0.002973178489509301em">0<tspan x="5.71" y="0" style="letter-spacing:0.00201408865418372em">.</tspan><tspan x="8.57" y="0" style="letter-spacing:-0.009015444452060461em">0</tspan><tspan x="14.16" y="0" style="letter-spacing:-0.00009590898353255811em">0</tspan></text></g><g style="clip-path:url(#clip-path-10)"><text transform="translate(34.58 219.48)" style="font-size:10.213740348815918px;font-family:ArialMT, Arial;letter-spacing:0.002973178489509301em">0<tspan x="5.71" y="0" style="letter-spacing:0.00201408865418372em">.</tspan><tspan x="8.57" y="0" style="letter-spacing:-0.009015444452060461em">2</tspan><tspan x="14.16" y="0" style="letter-spacing:-0.00009590898353255811em">5</tspan></text></g><g style="clip-path:url(#clip-path-10)"><text transform="translate(34.58 153.04)" style="font-size:10.213740348815918px;font-family:ArialMT, Arial;letter-spacing:0.002973178489509301em">0<tspan x="5.71" y="0" style="letter-spacing:0.00201408865418372em">.</tspan><tspan x="8.57" y="0" style="letter-spacing:-0.009015444452060461em">5</tspan><tspan x="14.16" y="0" style="letter-spacing:-0.00009590898353255811em">0</tspan></text></g><g style="clip-path:url(#clip-path-10)"><text transform="translate(34.58 86.59)" style="font-size:10.213740348815918px;font-family:ArialMT, Arial;letter-spacing:0.002973178489509301em">0<tspan x="5.71" y="0" style="letter-spacing:0.00201408865418372em">.</tspan><tspan x="8.57" y="0" style="letter-spacing:-0.009015444452060461em">7</tspan><tspan x="14.16" y="0" style="letter-spacing:-0.00009590898353255811em">5</tspan></text></g><g style="clip-path:url(#clip-path-10)"><text transform="translate(34.58 20.15)" style="font-size:10.213740348815918px;font-family:ArialMT, Arial;letter-spacing:0.002973178489509301em">1<tspan x="5.71" y="0" style="letter-spacing:0.00201408865418372em">.</tspan><tspan x="8.57" y="0" style="letter-spacing:-0.009015444452060461em">0</tspan><tspan x="14.16" y="0" style="letter-spacing:-0.00009590898353255811em">0</tspan></text></g><g style="clip-path:url(#clip-path-10)"><text transform="translate(94.63 298.11)" style="font-size:10.213740348815918px;font-family:ArialMT, Arial">1</text></g><g style="clip-path:url(#clip-path-10)"><text transform="translate(163.24 298.11)" style="font-size:10.213740348815918px;font-family:ArialMT, Arial">2</text></g><g style="clip-path:url(#clip-path-10)"><text transform="translate(231.86 298.11)" style="font-size:10.213740348815918px;font-family:ArialMT, Arial">3</text></g><g style="clip-path:url(#clip-path-10)"><text transform="translate(300.46 298.11)" style="font-size:10.213740348815918px;font-family:ArialMT, Arial">4</text></g><g style="clip-path:url(#clip-path-10)"><text transform="translate(369.08 298.11)" style="font-size:10.213740348815918px;font-family:ArialMT, Arial">1</text></g><g style="clip-path:url(#clip-path-10)"><text transform="translate(437.69 298.11)" style="font-size:10.213740348815918px;font-family:ArialMT, Arial">2</text></g><g style="clip-path:url(#clip-path-10)"><text transform="translate(506.3 298.11)" style="font-size:10.213740348815918px;font-family:ArialMT, Arial">3</text></g><g style="clip-path:url(#clip-path-10)"><text transform="translate(574.92 298.11)" style="font-size:10.213740348815918px;font-family:ArialMT, Arial">4</text></g><g style="clip-path:url(#clip-path-10)"><text transform="translate(643.53 298.11)" style="font-size:10.213740348815918px;font-family:ArialMT, Arial">1</text></g><g style="clip-path:url(#clip-path-10)"><text transform="translate(712.14 298.11)" style="font-size:10.213740348815918px;font-family:ArialMT, Arial">2</text></g><g style="clip-path:url(#clip-path-10)"><text transform="translate(780.75 298.11)" style="font-size:10.213740348815918px;font-family:ArialMT, Arial">3</text></g><g style="clip-path:url(#clip-path-10)"><text transform="translate(849.37 298.11)" style="font-size:10.213740348815918px;font-family:ArialMT, Arial">4</text></g><g style="clip-path:url(#clip-path-10)"><text transform="translate(191.32 316.52)" style="font-size:10.213740348815918px;font-family:ArialMT, Arial">A<tspan x="6.81" y="0" style="letter-spacing:0.002973178489509301em">u</tspan><tspan x="12.52" y="0">g</tspan></text></g><g style="clip-path:url(#clip-path-10)"><text transform="translate(465.77 316.52)" style="font-size:10.213740348815918px;font-family:ArialMT, Arial">S<tspan x="6.81" y="0" style="letter-spacing:0.002973178489509301em">e</tspan><tspan x="12.52" y="0">p</tspan></text></g><g style="clip-path:url(#clip-path-10)"><text transform="translate(741.36 316.52)" style="font-size:10.213740348815918px;font-family:ArialMT, Arial"><tspan style="letter-spacing:-0.00402817730836744em">O</tspan><tspan x="7.9" y="0" style="letter-spacing:0.00604226596255116em">c</tspan><tspan x="13.07" y="0">t</tspan></text></g><g style="clip-path:url(#clip-path-10)"><text transform="translate(26.26 153.81) rotate(-90)" style="font-size:11.268219947814941px;font-family:Arial-BoldMT, Arial;font-weight:700">ND<tspan x="16.27" y="0" style="letter-spacing:-0.00397427864227648em">V</tspan><tspan x="23.75" y="0">I</tspan><tspan x="26.88" y="0" style="letter-spacing:0.010972464947154629em"> </tspan><tspan x="30.13" y="0"> </tspan><tspan x="33.26" y="0" style="letter-spacing:-0.004060676004065098em">V</tspan><tspan x="40.73" y="0" style="letter-spacing:-0.0009503709796748102em">a</tspan><tspan x="46.99" y="0">l</tspan><tspan x="50.12" y="0" style="letter-spacing:0.00293751030081305em">u</tspan><tspan x="57.04" y="0" style="letter-spacing:0.0000863973617886191em">e</tspan></text></g><g style="clip-path:url(#clip-path-10)"><text transform="translate(430.7 335.99)" style="font-size:11.303199768066406px;font-family:Arial-BoldMT, Arial;font-weight:700"><tspan style="letter-spacing:0.00701984813828755em">W</tspan><tspan x="10.75" y="0" style="letter-spacing:-0.001039977501968526em">ee</tspan><tspan x="23.3" y="0">k</tspan></text></g><polygon points="2 2 898.43 2 898.43 348.45 2 348.45 2 2 2 2" style="fill:none;stroke:#d9d9d9;stroke-linejoin:round;stroke-width:0.815833777843846px"/></svg>