<svg id="Layer_1" data-name="Layer 1" xmlns="http://www.w3.org/2000/svg" xmlns:xlink="http://www.w3.org/1999/xlink" viewBox="0 0 900 350"><defs><clipPath id="clip-path"><polygon points="2 347.56 895.99 347.56 895.99 2 2 2 2 347.56 2 347.56" style="fill:none;clip-rule:evenodd"/></clipPath><clipPath id="clip-path-3"><polygon points="98.4 304.38 882.8 304.38 882.8 25.28 98.4 25.28 98.4 304.38 98.4 304.38" style="fill:none;clip-rule:evenodd"/></clipPath><clipPath id="clip-path-5"><rect x="2" y="2" width="893.99" height="345.56" style="fill:none"/></clipPath></defs><title>price-volatility</title><polygon points="2.14 2.13 895.99 2.13 895.99 347.69 2.14 347.69 2.14 2.13 2.14 2.13" style="fill:#eaeaea;fill-rule:evenodd"/><polygon points="98.4 25.28 882.12 25.28 882.12 303.7 98.4 303.7 98.4 25.28 98.4 25.28" style="fill:#fff;fill-rule:evenodd"/><path d="M98.4,237.38H882.12M98.4,171.06H882.12M98.4,104.87H882.12M98.4,38.55H882.12" style="fill:none;stroke:#d9d9d9;stroke-linejoin:round;stroke-width:0.813963476437039px"/><g style="clip-path:url(#clip-path)"><path d="M98.4,25.28V303.71M163.8,25.28V303.71M229.07,25.28V303.71M294.33,25.28V303.71M359.59,25.28V303.71M425,25.28V303.71M490.26,25.28V303.71M555.52,25.28V303.71m65.4-278.43V303.71M686.19,25.28V303.71M751.45,25.28V303.71M816.72,25.28V303.71m65.4-278.43V303.71" style="fill:none;stroke:#d9d9d9;stroke-linejoin:round;stroke-width:0.813963476437039px"/></g><g style="clip-path:url(#clip-path)"><line x1="98.4" y1="303.71" x2="882.12" y2="303.71" style="fill:none;stroke:#d9d9d9;stroke-linejoin:round;stroke-width:0.813963476437039px"/></g><g style="clip-path:url(#clip-path-3)"><polyline points="131.17 184.32 196.43 188.38 261.7 189.06 326.96 190.28 392.36 190.55 457.63 170.92 522.89 153.19 588.15 138.98 653.56 117.59 718.82 125.44 784.08 113.26 849.35 97.97" style="fill:none;stroke:#ff25f3;stroke-linecap:round;stroke-linejoin:round;stroke-width:2.44189036192777px"/></g><g style="clip-path:url(#clip-path-3)"><polyline points="131.17 177.69 196.43 180.94 261.7 177.96 326.96 176.74 392.36 176.47 457.63 202.73 522.89 212.88 588.15 217.21 653.56 222.76 718.82 222.49 784.08 175.12 849.35 127.74" style="fill:none;stroke:#06f;stroke-linecap:round;stroke-linejoin:round;stroke-width:2.44189036192777px"/></g><g style="clip-path:url(#clip-path-5)"><text transform="translate(58.5 306.89)" style="font-size:10.151590347290039px;font-family:ArialMT, Arial;letter-spacing:0.0020110476592395047em"> <tspan x="2.84" y="0" style="letter-spacing:0.0029686894017345073em">1</tspan><tspan x="8.52" y="0" style="letter-spacing:-0.011012880038692528em">,</tspan><tspan x="11.23" y="0" style="letter-spacing:0.0029686894017345073em">00</tspan><tspan x="22.58" y="0" style="letter-spacing:-0.00009576417424950023em">0</tspan></text></g><g style="clip-path:url(#clip-path-5)"><text transform="translate(52.83 240.62)" style="font-size:10.151590347290039px;font-family:ArialMT, Arial"><tspan style="letter-spacing:0.0020110476592395047em"> </tspan><tspan x="2.84" y="0" style="letter-spacing:0.0029686894017345073em">4</tspan><tspan x="8.52" y="0" style="letter-spacing:-0.009097596553702523em">6</tspan><tspan x="14.07" y="0" style="letter-spacing:0.0021068118334890053em">,</tspan><tspan x="16.91" y="0" style="letter-spacing:0.002872925227485007em">00</tspan><tspan x="28.26" y="0">0</tspan></text></g><g style="clip-path:url(#clip-path-5)"><text transform="translate(52.83 174.35)" style="font-size:10.151590347290039px;font-family:ArialMT, Arial"><tspan style="letter-spacing:0.0020110476592395047em"> </tspan><tspan x="2.84" y="0" style="letter-spacing:0.0029686894017345073em">9</tspan><tspan x="8.52" y="0" style="letter-spacing:-0.009097596553702523em">1</tspan><tspan x="14.07" y="0" style="letter-spacing:0.0021068118334890053em">,</tspan><tspan x="16.91" y="0" style="letter-spacing:0.002872925227485007em">00</tspan><tspan x="28.26" y="0">0</tspan></text></g><g style="clip-path:url(#clip-path-5)"><text transform="translate(44.33 108.06)" style="font-size:10.151590347290039px;font-family:ArialMT, Arial"><tspan style="letter-spacing:0.0020110476592395047em"> </tspan><tspan x="2.84" y="0" style="letter-spacing:0.0029686894017345073em">1</tspan><tspan x="8.52" y="0" style="letter-spacing:-0.011012880038692528em">,</tspan><tspan x="11.23" y="0" style="letter-spacing:0.0029686894017345073em">36</tspan><tspan x="22.58" y="0" style="letter-spacing:0.0020110476592395047em">,</tspan><tspan x="25.42" y="0" style="letter-spacing:-0.009001832379453024em">0</tspan><tspan x="30.97" y="0" style="letter-spacing:0.002872925227485007em">0</tspan><tspan x="36.65" y="0">0</tspan></text></g><g style="clip-path:url(#clip-path-5)"><text transform="translate(44.33 41.79)" style="font-size:10.151590347290039px;font-family:ArialMT, Arial"><tspan style="letter-spacing:0.0020110476592395047em"> </tspan><tspan x="2.84" y="0" style="letter-spacing:0.0029686894017345073em">1</tspan><tspan x="8.52" y="0" style="letter-spacing:-0.011012880038692528em">,</tspan><tspan x="11.23" y="0" style="letter-spacing:0.0029686894017345073em">81</tspan><tspan x="22.58" y="0" style="letter-spacing:0.0020110476592395047em">,</tspan><tspan x="25.42" y="0" style="letter-spacing:-0.009001832379453024em">0</tspan><tspan x="30.97" y="0" style="letter-spacing:0.002872925227485007em">0</tspan><tspan x="36.65" y="0">0</tspan></text></g><g style="clip-path:url(#clip-path-5)"><text transform="translate(122.89 318.99)" style="font-size:10.151590347290039px;font-family:ArialMT, Arial"><tspan style="letter-spacing:0.0060331429777185155em">J</tspan><tspan x="5.14" y="0" style="letter-spacing:-0.009097596553702523em">a</tspan><tspan x="10.69" y="0">n</tspan></text></g><g style="clip-path:url(#clip-path-5)"><text transform="translate(187.62 318.99)" style="font-size:10.151590347290039px;font-family:ArialMT, Arial"><tspan style="letter-spacing:0.0019152834849900046em">F</tspan><tspan x="6.22" y="0" style="letter-spacing:0.0029686894017345073em">e</tspan><tspan x="11.9" y="0">b</tspan></text></g><g style="clip-path:url(#clip-path-5)"><text transform="translate(252.93 318.99)" style="font-size:10.151590347290039px;font-family:ArialMT, Arial"><tspan style="letter-spacing:-0.0060331429777185155em">M</tspan><tspan x="8.4" y="0" style="letter-spacing:0.0029686894017345073em">a</tspan><tspan x="14.07" y="0">r</tspan></text></g><g style="clip-path:url(#clip-path-5)"><text transform="translate(319.06 318.99)" style="font-size:10.151590347290039px;font-family:ArialMT, Arial">A<tspan x="6.77" y="0" style="letter-spacing:0.0029686894017345073em">p</tspan><tspan x="12.45" y="0">r</tspan></text></g><g style="clip-path:url(#clip-path-5)"><text transform="translate(382.67 318.99)" style="font-size:10.151590347290039px;font-family:ArialMT, Arial"><tspan style="letter-spacing:-0.0060331429777185155em">M</tspan><tspan x="8.4" y="0" style="letter-spacing:0.0029686894017345073em">a</tspan><tspan x="14.07" y="0">y</tspan></text></g><g style="clip-path:url(#clip-path-5)"><text transform="translate(449.38 318.99)" style="font-size:10.151590347290039px;font-family:ArialMT, Arial"><tspan style="letter-spacing:0.0060331429777185155em">J</tspan><tspan x="5.14" y="0" style="letter-spacing:-0.009097596553702523em">u</tspan><tspan x="10.69" y="0">n</tspan></text></g><g style="clip-path:url(#clip-path-5)"><text transform="translate(516.38 318.99)" style="font-size:10.151590347290039px;font-family:ArialMT, Arial"><tspan style="letter-spacing:0.0060331429777185155em">J</tspan><tspan x="5.14" y="0" style="letter-spacing:-0.009097596553702523em">u</tspan><tspan x="10.69" y="0">l</tspan></text></g><g style="clip-path:url(#clip-path-5)"><text transform="translate(579.13 318.99)" style="font-size:10.151590347290039px;font-family:ArialMT, Arial">A<tspan x="6.77" y="0" style="letter-spacing:0.0029686894017345073em">u</tspan><tspan x="12.45" y="0" style="letter-spacing:-0.00009576417424950023em">g</tspan></text></g><g style="clip-path:url(#clip-path-5)"><text transform="translate(644.43 318.99)" style="font-size:10.151590347290039px;font-family:ArialMT, Arial">S<tspan x="6.77" y="0" style="letter-spacing:0.0029686894017345073em">e</tspan><tspan x="12.45" y="0" style="letter-spacing:-0.00009576417424950023em">p</tspan></text></g><g style="clip-path:url(#clip-path-5)"><text transform="translate(710.87 318.99)" style="font-size:10.151590347290039px;font-family:ArialMT, Arial;letter-spacing:-0.00392633114422951em">O<tspan x="7.86" y="0" style="letter-spacing:0.0059373788034690145em">c</tspan><tspan x="12.99" y="0" style="letter-spacing:0.00009576417424950023em">t</tspan></text></g><g style="clip-path:url(#clip-path-5)"><text transform="translate(775.03 318.99)" style="font-size:10.151590347290039px;font-family:ArialMT, Arial"><tspan style="letter-spacing:-0.0020110476592395047em">N</tspan><tspan x="7.31" y="0" style="letter-spacing:0.0029686894017345073em">o</tspan><tspan x="12.99" y="0">v</tspan></text></g><g style="clip-path:url(#clip-path-5)"><text transform="translate(840.33 318.99)" style="font-size:10.151590347290039px;font-family:ArialMT, Arial"><tspan style="letter-spacing:-0.0020110476592395047em">D</tspan><tspan x="7.31" y="0" style="letter-spacing:0.0029686894017345073em">e</tspan><tspan x="12.99" y="0">c</tspan></text></g><g style="clip-path:url(#clip-path-5)"><text transform="translate(25.5 230.41) rotate(-90)" style="font-size:11.285289764404297px;font-family:Arial-BoldMT, Arial;font-weight:700"><tspan style="letter-spacing:0.021992314718065772em">M</tspan><tspan x="9.65" y="0" style="letter-spacing:-0.0010431137415683371em">a</tspan><tspan x="15.91" y="0" style="letter-spacing:-0.0029554889344436215em">r</tspan><tspan x="20.27" y="0" style="letter-spacing:-0.0010431137415683371em">ke</tspan><tspan x="32.8" y="0" style="letter-spacing:0.003998602676011959em">t</tspan><tspan x="36.61" y="0"> </tspan><tspan x="39.74" y="0" style="letter-spacing:-0.003998602676011959em">P</tspan><tspan x="47.22" y="0" style="letter-spacing:-0.0030424150795743156em">r</tspan><tspan x="51.58" y="0" style="letter-spacing:0.00008692614513069475em">i</tspan><tspan x="54.72" y="0" style="letter-spacing:-0.0010431137415683371em">ce</tspan><tspan x="67.25" y="0" style="letter-spacing:0.022948502314503415em"> </tspan><tspan x="70.64" y="0" style="letter-spacing:0.003998602676011959em">(</tspan><tspan x="74.44" y="0">R</tspan><tspan x="82.59" y="0" style="letter-spacing:-0.0009561875964376422em">s</tspan><tspan x="88.86" y="0">./</tspan><tspan x="95.13" y="0" style="letter-spacing:0.021992314718065772em">M</tspan><tspan x="104.78" y="0" style="letter-spacing:0.015038223107610191em">T</tspan><tspan x="111.84" y="0" style="letter-spacing:-0.00008692614513069475em">)</tspan></text></g><g style="clip-path:url(#clip-path-5)"><text transform="translate(459.08 341.27)" style="font-size:11.234430313110352px;font-family:Arial-BoldMT, Arial;font-weight:700"><tspan style="letter-spacing:0.022066135367558366em">M</tspan><tspan x="9.61" y="0" style="letter-spacing:0.002942151382341115em">on</tspan><tspan x="23.4" y="0" style="letter-spacing:0.003980557752579156em">t</tspan><tspan x="27.18" y="0" style="letter-spacing:0.003028685246527619em">h</tspan><tspan x="34.08" y="0" style="letter-spacing:-0.001038406370238041em">s</tspan><tspan x="40.32" y="0"> </tspan></text></g><g style="clip-path:url(#clip-path)"><line x1="349.26" y1="17.16" x2="371.02" y2="17.16" style="fill:none;stroke:#ff25f3;stroke-linecap:round;stroke-linejoin:round;stroke-width:2.44189036192777px"/></g><g style="clip-path:url(#clip-path-5)"><text transform="translate(373.29 19.97)" style="font-size:9.06875991821289px;font-family:Arial-BoldMT, Arial;font-weight:700;letter-spacing:-0.00503833575457505em">A<tspan x="6.5" y="0" style="letter-spacing:0.003966349423814401em">P</tspan><tspan x="12.59" y="0" style="letter-spacing:-0.009004685178389453em"> </tspan><tspan x="15.03" y="0" style="letter-spacing:-0.003966349423814401em">(</tspan><tspan x="18.01" y="0">R</tspan><tspan x="24.51" y="0" style="letter-spacing:0.0100766715091501em">-</tspan><tspan x="27.62" y="0" style="letter-spacing:-0.0030015617261298167em">1</tspan><tspan x="32.64" y="0" style="letter-spacing:0.0001071986330760649em">)</tspan></text></g><g style="clip-path:url(#clip-path)"><line x1="457.63" y1="17.16" x2="479.38" y2="17.16" style="fill:none;stroke:#06f;stroke-linecap:round;stroke-linejoin:round;stroke-width:2.44189036192777px"/></g><g style="clip-path:url(#clip-path-5)"><text transform="translate(481.68 19.97)" style="font-size:9.06875991821289px;font-family:Arial-BoldMT, Arial;font-weight:700"><tspan style="letter-spacing:0.001071986330760649em">T</tspan><tspan x="5.55" y="0" style="letter-spacing:-0.0100766715091501em">E</tspan><tspan x="11.51" y="0" style="letter-spacing:0.001071986330760649em">L</tspan><tspan x="17.06" y="0" style="letter-spacing:-0.009004685178389453em"> </tspan><tspan x="19.49" y="0" style="letter-spacing:0.009969472876074036em">(</tspan><tspan x="22.6" y="0" style="letter-spacing:-0.00503833575457505em">R</tspan><tspan x="29.11" y="0" style="letter-spacing:-0.0038591507907383368em">-</tspan><tspan x="32.09" y="0" style="letter-spacing:-0.0030015617261298167em">21</tspan><tspan x="42.12" y="0">)</tspan></text></g><polygon points="2.14 2.13 895.99 2.13 895.99 347.7 2.14 347.7 2.14 2.13 2.14 2.13" style="fill:none;stroke:#d9d9d9;stroke-linejoin:round;stroke-width:0.813963543820381px"/></svg>