<svg id="Layer_1" data-name="Layer 1" xmlns="http://www.w3.org/2000/svg" xmlns:xlink="http://www.w3.org/1999/xlink" viewBox="0 0 900 350"><defs><clipPath id="clip-path"><polygon points="1.86 1.85 898.67 1.85 898.67 342.79 1.86 342.79 1.86 1.85 1.86 1.85" style="fill:none;clip-rule:evenodd"/></clipPath><clipPath id="clip-path-2"><polygon points="1.86 1.85 90.85 1.85 90.85 65.09 1.86 65.09 1.86 1.85 1.86 1.85" style="fill:none;clip-rule:evenodd"/></clipPath><clipPath id="clip-path-4"><polygon points="1.86 1.85 898.67 1.85 898.67 65.09 1.86 65.09 1.86 1.85 1.86 1.85" style="fill:none;clip-rule:evenodd"/></clipPath><clipPath id="clip-path-6"><polygon points="359.56 65.94 478.5 65.94 478.5 106.95 359.56 106.95 359.56 65.94 359.56 65.94" style="fill:none;clip-rule:evenodd"/></clipPath><clipPath id="clip-path-7"><polygon points="599.16 107.81 718.11 107.81 718.11 148.82 599.16 148.82 599.16 107.81 599.16 107.81" style="fill:none;clip-rule:evenodd"/></clipPath><clipPath id="clip-path-8"><polygon points="1.86 65.94 90.85 65.94 90.85 148.82 1.86 148.82 1.86 65.94 1.86 65.94" style="fill:none;clip-rule:evenodd"/></clipPath><clipPath id="clip-path-9"><polygon points="1.86 149.68 90.85 149.68 90.85 232.56 1.86 232.56 1.86 149.68 1.86 149.68" style="fill:none;clip-rule:evenodd"/></clipPath><clipPath id="clip-path-10"><polygon points="1.86 233.42 90.85 233.42 90.85 316.3 1.86 316.3 1.86 233.42 1.86 233.42" style="fill:none;clip-rule:evenodd"/></clipPath><clipPath id="clip-path-11"><polygon points="91.71 65.94 178.99 65.94 178.99 148.82 91.71 148.82 91.71 65.94 91.71 65.94" style="fill:none;clip-rule:evenodd"/></clipPath><clipPath id="clip-path-12"><polygon points="91.71 149.68 178.99 149.68 178.99 232.56 91.71 232.56 91.71 149.68 91.71 149.68" style="fill:none;clip-rule:evenodd"/></clipPath><clipPath id="clip-path-13"><polygon points="1.86 317.16 897.82 317.16 897.82 341.94 1.86 341.94 1.86 317.16 1.86 317.16" style="fill:none;clip-rule:evenodd"/></clipPath><clipPath id="clip-path-14"><polygon points="359.56 275.29 478.5 275.29 478.5 316.3 359.56 316.3 359.56 275.29 359.56 275.29" style="fill:none;clip-rule:evenodd"/></clipPath><clipPath id="clip-path-15"><polygon points="299.65 149.68 478.5 149.68 478.5 190.69 299.65 190.69 299.65 149.68 299.65 149.68" style="fill:none;clip-rule:evenodd"/></clipPath><clipPath id="clip-path-16"><polygon points="718.97 191.55 837.92 191.55 837.92 232.56 718.97 232.56 718.97 191.55 718.97 191.55" style="fill:none;clip-rule:evenodd"/></clipPath><clipPath id="clip-path-17"><polygon points="299.65 233.42 478.5 233.42 478.5 274.43 299.65 274.43 299.65 233.42 299.65 233.42" style="fill:none;clip-rule:evenodd"/></clipPath><clipPath id="clip-path-18"><polygon points="1 1 898.67 1 898.67 342.79 1 342.79 1 1 1 1" style="fill:none;clip-rule:evenodd"/></clipPath></defs><title>seasonal-calendar</title><g style="clip-path:url(#clip-path)"><polyline points="1 1 1 65.94 898.67 65.94 898.67 1 1 1" style="fill:#d9d9d9;fill-rule:evenodd"/><polyline points="897.82 1 897.82 65.94 917.5 65.94 917.5 1 897.82 1" style="fill:#fff;fill-rule:evenodd"/><polyline points="1 65.09 1 107.81 179.85 107.81 179.85 65.09 1 65.09" style="fill:#f2f2f2;fill-rule:evenodd"/><polyline points="178.99 65.09 178.99 107.81 299.65 107.81 299.65 65.09 178.99 65.09" style="fill:#fff;fill-rule:evenodd"/><polyline points="298.8 65.09 298.8 107.81 359.56 107.81 359.56 65.09 298.8 65.09" style="fill:#5e9fff;fill-rule:evenodd"/><polyline points="358.7 65.09 358.7 107.81 479.36 107.81 479.36 65.09 358.7 65.09" style="fill:#06f;fill-rule:evenodd"/><polyline points="478.5 65.09 478.5 107.81 539.26 107.81 539.26 65.09 478.5 65.09" style="fill:#0044ab;fill-rule:evenodd"/><polyline points="538.41 65.09 538.41 107.81 917.5 107.81 917.5 65.09 538.41 65.09" style="fill:#fff;fill-rule:evenodd"/><polyline points="1 106.95 1 149.68 179.85 149.68 179.85 106.95 1 106.95" style="fill:#f2f2f2;fill-rule:evenodd"/><polyline points="178.99 106.95 178.99 149.68 539.26 149.68 539.26 106.95 178.99 106.95" style="fill:#fff;fill-rule:evenodd"/><polyline points="538.41 106.95 538.41 149.68 599.16 149.68 599.16 106.95 538.41 106.95" style="fill:#5e9fff;fill-rule:evenodd"/><polyline points="598.31 106.95 598.31 149.68 718.97 149.68 718.97 106.95 598.31 106.95" style="fill:#06f;fill-rule:evenodd"/><polyline points="718.11 106.95 718.11 149.68 778.87 149.68 778.87 106.95 718.11 106.95" style="fill:#0044ab;fill-rule:evenodd"/><polyline points="778.01 106.95 778.01 149.68 917.5 149.68 917.5 106.95 778.01 106.95" style="fill:#fff;fill-rule:evenodd"/><polyline points="1 148.82 1 191.55 179.85 191.55 179.85 148.82 1 148.82" style="fill:#f2f2f2;fill-rule:evenodd"/><polyline points="178.99 148.82 178.99 191.55 239.75 191.55 239.75 148.82 178.99 148.82" style="fill:#fff;fill-rule:evenodd"/><polyline points="238.9 148.82 238.9 191.55 299.65 191.55 299.65 148.82 238.9 148.82" style="fill:#5e9fff;fill-rule:evenodd"/><polyline points="298.8 148.82 298.8 191.55 479.36 191.55 479.36 148.82 298.8 148.82" style="fill:#06f;fill-rule:evenodd"/><polyline points="478.5 148.82 478.5 191.55 539.26 191.55 539.26 148.82 478.5 148.82" style="fill:#0044ab;fill-rule:evenodd"/><polyline points="538.41 148.82 538.41 191.55 917.5 191.55 917.5 148.82 538.41 148.82" style="fill:#fff;fill-rule:evenodd"/><polyline points="1 190.69 1 233.42 179.85 233.42 179.85 190.69 1 190.69" style="fill:#f2f2f2;fill-rule:evenodd"/><polyline points="178.99 190.69 178.99 233.42 659.07 233.42 659.07 190.69 178.99 190.69" style="fill:#fff;fill-rule:evenodd"/><polyline points="658.21 190.69 658.21 233.42 718.97 233.42 718.97 190.69 658.21 190.69" style="fill:#5e9fff;fill-rule:evenodd"/><polyline points="718.11 190.69 718.11 233.42 838.77 233.42 838.77 190.69 718.11 190.69" style="fill:#06f;fill-rule:evenodd"/><polyline points="837.92 190.69 837.92 233.42 898.67 233.42 898.67 190.69 837.92 190.69" style="fill:#0044ab;fill-rule:evenodd"/><polyline points="897.82 190.69 897.82 233.42 917.5 233.42 917.5 190.69 897.82 190.69" style="fill:#fff;fill-rule:evenodd"/><polyline points="1 232.56 1 275.29 179.85 275.29 179.85 232.56 1 232.56" style="fill:#f2f2f2;fill-rule:evenodd"/><polyline points="178.99 232.56 178.99 275.29 239.75 275.29 239.75 232.56 178.99 232.56" style="fill:#fff;fill-rule:evenodd"/><polyline points="238.9 232.56 238.9 275.29 299.65 275.29 299.65 232.56 238.9 232.56" style="fill:#5e9fff;fill-rule:evenodd"/><polyline points="298.8 232.56 298.8 275.29 479.36 275.29 479.36 232.56 298.8 232.56" style="fill:#06f;fill-rule:evenodd"/><polyline points="478.5 232.56 478.5 275.29 539.26 275.29 539.26 232.56 478.5 232.56" style="fill:#0044ab;fill-rule:evenodd"/><polyline points="538.41 232.56 538.41 275.29 917.5 275.29 917.5 232.56 538.41 232.56" style="fill:#fff;fill-rule:evenodd"/><polyline points="1 274.43 1 317.16 179.85 317.16 179.85 274.43 1 274.43" style="fill:#f2f2f2;fill-rule:evenodd"/><polyline points="178.99 274.43 178.99 317.16 299.65 317.16 299.65 274.43 178.99 274.43" style="fill:#fff;fill-rule:evenodd"/><polyline points="298.8 274.43 298.8 317.16 359.56 317.16 359.56 274.43 298.8 274.43" style="fill:#5e9fff;fill-rule:evenodd"/><polyline points="358.7 274.43 358.7 317.16 479.36 317.16 479.36 274.43 358.7 274.43" style="fill:#06f;fill-rule:evenodd"/><polyline points="478.5 274.43 478.5 317.16 539.26 317.16 539.26 274.43 478.5 274.43" style="fill:#0044ab;fill-rule:evenodd"/><polyline points="538.41 274.43 538.41 317.16 917.5 317.16 917.5 274.43 538.41 274.43" style="fill:#fff;fill-rule:evenodd"/><polyline points="1 316.3 1 359.03 917.5 359.03 917.5 316.3 1 316.3" style="fill:#fff;fill-rule:evenodd"/></g><g style="clip-path:url(#clip-path-2)"><text transform="translate(10.42 30.05)" style="font-size:11.108229637145996px;font-family:Arial-BoldMT, Arial;font-weight:700;letter-spacing:-0.02905634038561208em">A<tspan x="7.7" y="0" style="letter-spacing:0.004038041262048808em">g</tspan><tspan x="14.53" y="0" style="letter-spacing:-0.003950257756352095em">r</tspan><tspan x="18.81" y="0" style="letter-spacing:0.004038041262048808em">o</tspan><tspan x="25.64" y="0" style="letter-spacing:-0.025018299123563268em">-</tspan><tspan x="29.06" y="0" style="letter-spacing:-0.016942216599465654em">c</tspan><tspan x="35.05" y="0" style="letter-spacing:0.028968556879915362em">li</tspan><tspan x="41.86" y="0" style="letter-spacing:0.033006598141964175em">m</tspan><tspan x="52.11" y="0" style="letter-spacing:0.059078299333888em">a</tspan><tspan x="58.94" y="0" style="letter-spacing:-0.025018299123563268em">t</tspan><tspan x="62.36" y="0" style="letter-spacing:0.02905634038561208em">i</tspan><tspan x="65.77" y="0" style="letter-spacing:-0.016942216599465654em">c</tspan><tspan x="71.76" y="0" style="letter-spacing:-0.00008778350569671323em"> </tspan></text><text transform="translate(33.52 44.57)" style="font-size:11.108229637145996px;font-family:Arial-BoldMT, Arial;font-weight:700"><tspan style="letter-spacing:0.03801025796667683em">z</tspan><tspan x="5.98" y="0" style="letter-spacing:0.004038041262048808em">on</tspan><tspan x="19.64" y="0">e</tspan></text></g><g style="clip-path:url(#clip-path)"><text transform="translate(116.53 37.75)" style="font-size:11.108229637145996px;font-family:Arial-BoldMT, Arial;font-weight:700;letter-spacing:-0.02905634038561208em">R<tspan x="7.7" y="0" style="letter-spacing:0.059078299333888em">e</tspan><tspan x="14.53" y="0" style="letter-spacing:0.004038041262048808em">g</tspan><tspan x="21.36" y="0" style="letter-spacing:0.028968556879915362em">i</tspan><tspan x="24.77" y="0" style="letter-spacing:0.004038041262048808em">o</tspan><tspan x="31.6" y="0" style="letter-spacing:0.00008778350569671323em">n</tspan></text><text transform="translate(198.68 37.75)" style="font-size:11.108229637145996px;font-family:Arial-BoldMT, Arial;font-weight:700"><tspan style="letter-spacing:0.012991958843113558em">M</tspan><tspan x="9.4" y="0" style="letter-spacing:0.059078299333888em">a</tspan><tspan x="16.23" y="0">y</tspan></text><text transform="translate(259.44 37.75)" style="font-size:11.108229637145996px;font-family:Arial-BoldMT, Arial;font-weight:700"><tspan style="letter-spacing:-0.016942216599465654em">J</tspan><tspan x="5.99" y="0" style="letter-spacing:0.004038041262048808em">u</tspan><tspan x="12.82" y="0">n</tspan></text><text transform="translate(321.05 37.75)" style="font-size:11.108229637145996px;font-family:Arial-BoldMT, Arial;font-weight:700"><tspan style="letter-spacing:-0.016942216599465654em">J</tspan><tspan x="5.99" y="0" style="letter-spacing:0.004038041262048808em">u</tspan><tspan x="12.82" y="0">l</tspan></text><text transform="translate(378.38 37.75)" style="font-size:11.108229637145996px;font-family:Arial-BoldMT, Arial;font-weight:700;letter-spacing:-0.02905634038561208em">A<tspan x="7.7" y="0" style="letter-spacing:0.004038041262048808em">u</tspan><tspan x="14.53" y="0" style="letter-spacing:0.00008778350569671323em">g</tspan></text><text transform="translate(438.29 37.75)" style="font-size:11.108229637145996px;font-family:Arial-BoldMT, Arial;font-weight:700"><tspan style="letter-spacing:0.025018299123563268em">S</tspan><tspan x="7.69" y="0" style="letter-spacing:0.059078299333888em">e</tspan><tspan x="14.52" y="0">p</tspan></text><text transform="translate(499.9 37.75)" style="font-size:11.108229637145996px;font-family:Arial-BoldMT, Arial;font-weight:700;letter-spacing:-0.007988299018400903em">O<tspan x="8.55" y="0" style="letter-spacing:-0.01703000010516236em">c</tspan><tspan x="14.54" y="0" style="letter-spacing:0.00008778350569671323em">t</tspan></text><text transform="translate(558.95 37.75)" style="font-size:11.108229637145996px;font-family:Arial-BoldMT, Arial;font-weight:700;letter-spacing:-0.02905634038561208em">N<tspan x="7.7" y="0" style="letter-spacing:0.004038041262048808em">o</tspan><tspan x="14.53" y="0" style="letter-spacing:0.00008778350569671323em">v</tspan></text></g><g style="clip-path:url(#clip-path-4)"><text transform="translate(618 37.75)" style="font-size:11.108229637145996px;font-family:Arial-BoldMT, Arial;font-weight:700"><tspan style="letter-spacing:-0.02905634038561208em">D</tspan><tspan x="7.7" y="0" style="letter-spacing:0.059078299333888em">e</tspan><tspan x="14.53" y="0">c</tspan></text><text transform="translate(678.75 37.75)" style="font-size:11.108229637145996px;font-family:Arial-BoldMT, Arial;font-weight:700;letter-spacing:-0.016942216599465654em">J<tspan x="5.99" y="0" style="letter-spacing:0.058990515828191294em">a</tspan><tspan x="12.82" y="0" style="letter-spacing:0.00008778350569671323em">n</tspan></text><text transform="translate(738.66 37.75)" style="font-size:11.108229637145996px;font-family:Arial-BoldMT, Arial;font-weight:700"><tspan style="letter-spacing:0.004038041262048808em">F</tspan><tspan x="6.83" y="0" style="letter-spacing:0.059078299333888em">e</tspan><tspan x="13.66" y="0">b</tspan></text><text transform="translate(798.55 37.75)" style="font-size:11.108229637145996px;font-family:Arial-BoldMT, Arial;font-weight:700"><tspan style="letter-spacing:0.012991958843113558em">M</tspan><tspan x="9.4" y="0" style="letter-spacing:0.059078299333888em">a</tspan><tspan x="16.23" y="0">r</tspan></text><text transform="translate(859.31 37.75)" style="font-size:11.108229637145996px;font-family:Arial-BoldMT, Arial;font-weight:700;letter-spacing:-0.02905634038561208em">A<tspan x="7.7" y="0" style="letter-spacing:0.004038041262048808em">p</tspan><tspan x="14.53" y="0" style="letter-spacing:0.00008778350569671323em">r</tspan></text></g><g style="clip-path:url(#clip-path)"><text transform="translate(101.13 258.2)" style="font-size:11.108229637145996px;font-family:Arial-BoldMT, Arial;font-weight:700"><tspan style="letter-spacing:-0.02905634038561208em">R</tspan><tspan x="7.7" y="0" style="letter-spacing:-0.025018299123563268em">-</tspan><tspan x="11.12" y="0" style="letter-spacing:-0.016942216599465654em">1</tspan><tspan x="17.11" y="0">5</tspan></text><text transform="translate(101.13 300.06)" style="font-size:11.108229637145996px;font-family:Arial-BoldMT, Arial;font-weight:700;letter-spacing:-0.02905634038561208em">R<tspan x="7.7" y="0" style="letter-spacing:-0.025018299123563268em">-</tspan><tspan x="11.12" y="0" style="letter-spacing:0.00008778350569671323em">7</tspan></text></g><g style="clip-path:url(#clip-path-6)"><text transform="translate(403.2 89.87)" style="font-size:11.108229637145996px;fill:#fff;font-family:Arial-BoldMT, Arial;font-weight:700;letter-spacing:-0.02905634038561208em">K<tspan x="7.7" y="0" style="letter-spacing:0.004038041262048808em">h</tspan><tspan x="14.53" y="0" style="letter-spacing:0.059078299333888em">a</tspan><tspan x="21.36" y="0" style="letter-spacing:-0.003950257756352095em">r</tspan><tspan x="25.64" y="0" style="letter-spacing:0.028968556879915362em">i</tspan><tspan x="29.05" y="0" style="letter-spacing:-0.00008778350569671323em">f</tspan></text></g><g style="clip-path:url(#clip-path-7)"><text transform="translate(646.23 131.74)" style="font-size:11.108229637145996px;fill:#fff;font-family:Arial-BoldMT, Arial;font-weight:700"><tspan style="letter-spacing:-0.02905634038561208em">R</tspan><tspan x="7.7" y="0" style="letter-spacing:0.059078299333888em">a</tspan><tspan x="14.53" y="0" style="letter-spacing:0.004038041262048808em">b</tspan><tspan x="21.36" y="0">i</tspan></text></g><g style="clip-path:url(#clip-path-8)"><text transform="translate(35.24 111.23)" style="font-size:11.108229637145996px;font-family:Arial-BoldMT, Arial;font-weight:700"><tspan style="letter-spacing:0.025018299123563268em">SP</tspan><tspan x="15.37" y="0">H</tspan></text></g><g style="clip-path:url(#clip-path-9)"><text transform="translate(34.38 194.97)" style="font-size:11.108229637145996px;font-family:Arial-BoldMT, Arial;font-weight:700;letter-spacing:-0.007988299018400903em">G<tspan x="8.55" y="0" style="letter-spacing:0.025018299123563268em">P</tspan><tspan x="16.24" y="0" style="letter-spacing:-0.00008778350569671323em">H</tspan></text></g><g style="clip-path:url(#clip-path-10)"><text transform="translate(35.24 278.7)" style="font-size:11.108229637145996px;font-family:Arial-BoldMT, Arial;font-weight:700"><tspan style="letter-spacing:-0.02905634038561208em">C</tspan><tspan x="7.7" y="0" style="letter-spacing:0.025018299123563268em">P</tspan><tspan x="15.39" y="0">H</tspan></text></g><g style="clip-path:url(#clip-path-11)"><text transform="translate(101.13 111.23)" style="font-size:11.108229637145996px;font-family:Arial-BoldMT, Arial;font-weight:700"><tspan style="letter-spacing:-0.02905634038561208em">R</tspan><tspan x="7.7" y="0" style="letter-spacing:-0.025018299123563268em">-</tspan><tspan x="11.12" y="0" style="letter-spacing:-0.016942216599465654em">2</tspan><tspan x="17.11" y="0">0</tspan></text></g><g style="clip-path:url(#clip-path-12)"><text transform="translate(101.13 194.97)" style="font-size:11.108229637145996px;font-family:Arial-BoldMT, Arial;font-weight:700;letter-spacing:-0.02905634038561208em">R<tspan x="7.7" y="0" style="letter-spacing:-0.025018299123563268em">-</tspan><tspan x="11.12" y="0" style="letter-spacing:-0.016942216599465654em">2</tspan><tspan x="17.11" y="0" style="letter-spacing:0.028968556879915362em">, </tspan><tspan x="23.93" y="0" style="letter-spacing:-0.028968556879915362em">R</tspan><tspan x="31.63" y="0" style="letter-spacing:-0.025018299123563268em">-</tspan><tspan x="35.05" y="0" style="letter-spacing:-0.01703000010516236em">1</tspan><tspan x="41.04" y="0" style="letter-spacing:0.00008778350569671323em">1</tspan></text></g><g style="clip-path:url(#clip-path-13)"><text transform="translate(3.57 332.53)" style="font-size:9.399279594421387px;font-family:Arial-BoldMT, Arial;font-weight:700"><tspan style="letter-spacing:-0.08496637759698747em">N</tspan><tspan x="5.99" y="0" style="letter-spacing:0.02500231624038337em">o</tspan><tspan x="11.97" y="0" style="letter-spacing:0.029982030678302046em">t</tspan><tspan x="15.38" y="0" style="letter-spacing:0.07998666315906879em">e</tspan><tspan x="21.36" y="0">:</tspan></text><text transform="translate(27.53 332.53)" style="font-size:9.399279594421387px;font-family:ArialMT, Arial"> </text><text transform="translate(30.1 332.53)" style="font-size:9.399279594421387px;font-family:Arial-BoldMT, Arial;font-weight:700"><tspan style="letter-spacing:-0.029982030678302046em">SP</tspan><tspan x="11.97" y="0">H</tspan></text><text transform="translate(48.07 332.53)" style="font-size:9.399279594421387px;font-family:ArialMT, Arial"><tspan style="letter-spacing:-0.004979714437918678em"> </tspan><tspan x="2.56" y="0" style="letter-spacing:-0.029982030678302046em">S</tspan><tspan x="8.55" y="0" style="letter-spacing:-0.010063172926627329em">ou</tspan><tspan x="18.82" y="0" style="letter-spacing:-0.004979714437918678em">t</tspan><tspan x="21.38" y="0" style="letter-spacing:-0.010063172926627329em">he</tspan><tspan x="31.65" y="0" style="letter-spacing:0.029982030678302046em">r</tspan><tspan x="35.06" y="0" style="letter-spacing:-0.009959428875837357em">n</tspan><tspan x="40.2" y="0" style="letter-spacing:-0.004979714437918678em"> </tspan><tspan x="42.76" y="0" style="letter-spacing:-0.12096556322110791em">P</tspan><tspan x="47.89" y="0" style="letter-spacing:-0.04004520360492938em">l</tspan><tspan x="49.6" y="0" style="letter-spacing:-0.010063172926627329em">a</tspan><tspan x="54.74" y="0" style="letter-spacing:-0.004979714437918678em">t</tspan><tspan x="57.3" y="0" style="letter-spacing:-0.010063172926627329em">eau</tspan><tspan x="72.7" y="0" style="letter-spacing:-0.004979714437918678em"> </tspan><tspan x="75.27" y="0" style="letter-spacing:-0.029982030678302046em">&amp;</tspan><tspan x="81.25" y="0" style="letter-spacing:-0.004979714437918678em"> </tspan><tspan x="83.82" y="0" style="letter-spacing:-0.08496637759698747em">H</tspan><tspan x="89.81" y="0" style="letter-spacing:-0.040148947655719344em">ill</tspan><tspan x="94.94" y="0" style="letter-spacing:0.04502491804284805em">s</tspan><tspan x="100.07" y="0" style="letter-spacing:-0.004979714437918678em">, </tspan><tspan x="105.19" y="0">G</tspan></text><text transform="translate(160.17 332.53)" style="font-size:9.399279594421387px;font-family:Arial-BoldMT, Arial;font-weight:700"><tspan style="letter-spacing:-0.029982030678302046em">P</tspan><tspan x="5.99" y="0">H</tspan></text><text transform="translate(172.14 332.53)" style="font-size:9.399279594421387px;font-family:ArialMT, Arial"><tspan style="letter-spacing:-0.004979714437918678em"> </tspan><tspan x="2.56" y="0" style="letter-spacing:-0.050108376531556705em">G</tspan><tspan x="9.41" y="0" style="letter-spacing:-0.009959428875837357em">u</tspan><tspan x="14.54" y="0" style="letter-spacing:-0.04004520360492938em">j</tspan><tspan x="16.25" y="0" style="letter-spacing:-0.010063172926627329em">a</tspan><tspan x="21.38" y="0" style="letter-spacing:0.029982030678302046em">r</tspan><tspan x="24.8" y="0" style="letter-spacing:-0.009959428875837357em">a</tspan><tspan x="29.93" y="0" style="letter-spacing:-0.004979714437918678em">t </tspan><tspan x="35.06" y="0" style="letter-spacing:-0.12096556322110791em">P</tspan><tspan x="40.19" y="0" style="letter-spacing:-0.03994145955413941em">l</tspan><tspan x="41.9" y="0" style="letter-spacing:-0.009959428875837357em">a</tspan><tspan x="47.04" y="0" style="letter-spacing:-0.03994145955413941em">i</tspan><tspan x="48.75" y="0" style="letter-spacing:-0.010063172926627329em">n</tspan><tspan x="53.88" y="0" style="letter-spacing:0.04492117399205809em">s</tspan><tspan x="59" y="0" style="letter-spacing:-0.004979714437918678em"> </tspan><tspan x="61.57" y="0" style="letter-spacing:-0.029982030678302046em">&amp;</tspan><tspan x="67.56" y="0" style="letter-spacing:-0.004979714437918678em"> </tspan><tspan x="70.12" y="0" style="letter-spacing:-0.08496637759698747em">H</tspan><tspan x="76.11" y="0" style="letter-spacing:-0.03994145955413941em">ill</tspan><tspan x="81.25" y="0" style="letter-spacing:0.04492117399205809em">s</tspan><tspan x="86.37" y="0" style="letter-spacing:-0.004979714437918678em">,</tspan><tspan x="88.93" y="0"> </tspan></text><text transform="translate(263.72 332.53)" style="font-size:9.399279594421387px;font-family:Arial-BoldMT, Arial;font-weight:700"><tspan style="letter-spacing:0.004979714437918678em">C</tspan><tspan x="6.83" y="0" style="letter-spacing:-0.029982030678302046em">P</tspan><tspan x="12.82" y="0" style="letter-spacing:-0.08496637759698747em">H</tspan><tspan x="18.81" y="0"> </tspan></text><text transform="translate(285.11 332.53)" style="font-size:9.399279594421387px;font-family:ArialMT, Arial;letter-spacing:-0.08496637759698747em">C<tspan x="5.99" y="0" style="letter-spacing:-0.010063172926627329em">en</tspan><tspan x="16.26" y="0" style="letter-spacing:-0.005083458488708652em">t</tspan><tspan x="18.82" y="0" style="letter-spacing:0.029982030678302046em">r</tspan><tspan x="22.23" y="0" style="letter-spacing:-0.009959428875837357em">a</tspan><tspan x="27.37" y="0" style="letter-spacing:-0.03994145955413941em">l</tspan><tspan x="29.08" y="0" style="letter-spacing:-0.004979714437918678em"> </tspan><tspan x="31.64" y="0" style="letter-spacing:-0.12096556322110791em">P</tspan><tspan x="36.77" y="0" style="letter-spacing:-0.04004520360492938em">l</tspan><tspan x="38.49" y="0" style="letter-spacing:-0.009959428875837357em">a</tspan><tspan x="43.62" y="0" style="letter-spacing:-0.004979714437918678em">t</tspan><tspan x="46.18" y="0" style="letter-spacing:-0.010063172926627329em">eau</tspan><tspan x="61.58" y="0" style="letter-spacing:-0.004979714437918678em"> </tspan><tspan x="64.15" y="0" style="letter-spacing:-0.010063172926627329em">and</tspan><tspan x="79.55" y="0" style="letter-spacing:-0.004979714437918678em"> </tspan><tspan x="82.11" y="0">H</tspan><tspan x="88.1" y="0" style="letter-spacing:-0.04004520360492938em">ill</tspan><tspan x="93.24" y="0" style="letter-spacing:-0.00010374405078997248em">s</tspan></text></g><g style="clip-path:url(#clip-path-14)"><text transform="translate(403.2 299.22)" style="font-size:11.108229637145996px;fill:#fff;font-family:Arial-BoldMT, Arial;font-weight:700;letter-spacing:-0.02905634038561208em">K<tspan x="7.7" y="0" style="letter-spacing:0.004038041262048808em">h</tspan><tspan x="14.53" y="0" style="letter-spacing:0.059078299333888em">a</tspan><tspan x="21.36" y="0" style="letter-spacing:-0.003950257756352095em">r</tspan><tspan x="25.64" y="0" style="letter-spacing:0.028968556879915362em">i</tspan><tspan x="29.05" y="0" style="letter-spacing:-0.00008778350569671323em">f</tspan></text></g><g style="clip-path:url(#clip-path-15)"><text transform="translate(373.25 173.61)" style="font-size:11.108229637145996px;fill:#fff;font-family:Arial-BoldMT, Arial;font-weight:700"><tspan style="letter-spacing:-0.02905634038561208em">K</tspan><tspan x="7.7" y="0" style="letter-spacing:0.004038041262048808em">h</tspan><tspan x="14.53" y="0" style="letter-spacing:0.059078299333888em">a</tspan><tspan x="21.36" y="0" style="letter-spacing:-0.003950257756352095em">r</tspan><tspan x="25.64" y="0" style="letter-spacing:0.028968556879915362em">i</tspan><tspan x="29.05" y="0">f</tspan></text></g><g style="clip-path:url(#clip-path-16)"><text transform="translate(755.77 215.47)" style="font-size:11.108229637145996px;fill:#fff;font-family:Arial-BoldMT, Arial;font-weight:700;letter-spacing:0.025018299123563268em">S<tspan x="7.69" y="0" style="letter-spacing:0.004038041262048808em">u</tspan><tspan x="14.52" y="0" style="letter-spacing:0.033006598141964175em">mm</tspan><tspan x="35" y="0" style="letter-spacing:0.058990515828191294em">e</tspan><tspan x="41.84" y="0" style="letter-spacing:0.00008778350569671323em">r</tspan></text></g><g style="clip-path:url(#clip-path-17)"><text transform="translate(373.25 257.35)" style="font-size:11.108229637145996px;fill:#fff;font-family:Arial-BoldMT, Arial;font-weight:700"><tspan style="letter-spacing:-0.02905634038561208em">K</tspan><tspan x="7.7" y="0" style="letter-spacing:0.004038041262048808em">h</tspan><tspan x="14.53" y="0" style="letter-spacing:0.059078299333888em">a</tspan><tspan x="21.36" y="0" style="letter-spacing:-0.003950257756352095em">r</tspan><tspan x="25.64" y="0" style="letter-spacing:0.028968556879915362em">i</tspan><tspan x="29.05" y="0">f</tspan></text></g><g style="clip-path:url(#clip-path-18)"><polyline points="1.86 1 1.86 1.85 898.67 1.85 898.67 1 1.86 1" style="fill:#bfbfbf;fill-rule:evenodd"/><polyline points="298.8 1.85 298.8 65.94 299.65 65.94 299.65 1.85 298.8 1.85" style="fill:#bfbfbf;fill-rule:evenodd"/><polyline points="358.7 1.85 358.7 65.94 359.56 65.94 359.56 1.85 358.7 1.85" style="fill:#bfbfbf;fill-rule:evenodd"/><polyline points="478.5 1.85 478.5 65.94 479.36 65.94 479.36 1.85 478.5 1.85" style="fill:#bfbfbf;fill-rule:evenodd"/><polyline points="538.41 1.85 538.41 65.94 539.26 65.94 539.26 1.85 538.41 1.85" style="fill:#bfbfbf;fill-rule:evenodd"/><polyline points="1.86 65.09 1.86 65.94 898.67 65.94 898.67 65.09 1.86 65.09" style="fill:#bfbfbf;fill-rule:evenodd"/><polyline points="598.31 1.85 598.31 65.94 599.16 65.94 599.16 1.85 598.31 1.85" style="fill:#bfbfbf;fill-rule:evenodd"/><polyline points="718.11 1.85 718.11 65.94 718.97 65.94 718.97 1.85 718.11 1.85" style="fill:#bfbfbf;fill-rule:evenodd"/><polyline points="778.01 1.85 778.01 65.94 778.87 65.94 778.87 1.85 778.01 1.85" style="fill:#bfbfbf;fill-rule:evenodd"/><polyline points="179.85 106.95 179.85 107.81 898.67 107.81 898.67 106.95 179.85 106.95" style="fill:#bfbfbf;fill-rule:evenodd"/><polyline points="238.9 1.85 238.9 65.94 239.75 65.94 239.75 1.85 238.9 1.85" style="fill:#bfbfbf;fill-rule:evenodd"/><polyline points="1.86 148.82 1.86 149.68 898.67 149.68 898.67 148.82 1.86 148.82" style="fill:#bfbfbf;fill-rule:evenodd"/><polyline points="658.21 1.85 658.21 65.94 659.07 65.94 659.07 1.85 658.21 1.85" style="fill:#bfbfbf;fill-rule:evenodd"/><polyline points="837.92 1.85 837.92 65.94 838.77 65.94 838.77 1.85 837.92 1.85" style="fill:#bfbfbf;fill-rule:evenodd"/><polyline points="179.85 190.69 179.85 191.55 898.67 191.55 898.67 190.69 179.85 190.69" style="fill:#bfbfbf;fill-rule:evenodd"/><polyline points="1.86 232.56 1.86 233.42 898.67 233.42 898.67 232.56 1.86 232.56" style="fill:#bfbfbf;fill-rule:evenodd"/><polyline points="91.71 274.43 91.71 275.29 898.67 275.29 898.67 274.43 91.71 274.43" style="fill:#bfbfbf;fill-rule:evenodd"/><polyline points="1 1 1 317.16 1.86 317.16 1.86 1 1 1" style="fill:#bfbfbf;fill-rule:evenodd"/><polyline points="1.86 316.3 1.86 317.16 898.67 317.16 898.67 316.3 1.86 316.3" style="fill:#bfbfbf;fill-rule:evenodd"/><polyline points="897.82 1.85 897.82 317.16 898.67 317.16 898.67 1.85 897.82 1.85" style="fill:#bfbfbf;fill-rule:evenodd"/><polyline points="1 317.16 1 342.79 1.86 342.79 1.86 317.16 1 317.16" style="fill:#fff;fill-rule:evenodd"/><polyline points="90.85 1.85 90.85 317.16 91.71 317.16 91.71 1.85 90.85 1.85" style="fill:#bfbfbf;fill-rule:evenodd"/><polyline points="178.99 1.85 178.99 317.16 179.85 317.16 179.85 1.85 178.99 1.85" style="fill:#bfbfbf;fill-rule:evenodd"/><polyline points="418.6 1.85 418.6 65.94 419.46 65.94 419.46 1.85 418.6 1.85" style="fill:#bfbfbf;fill-rule:evenodd"/><polyline points="1.86 341.94 1.86 342.79 898.67 342.79 898.67 341.94 1.86 341.94" style="fill:#fff;fill-rule:evenodd"/><polyline points="897.82 317.16 897.82 342.79 898.67 342.79 898.67 317.16 897.82 317.16" style="fill:#fff;fill-rule:evenodd"/></g></svg>