<svg id="Layer_1" data-name="Layer 1" xmlns="http://www.w3.org/2000/svg" xmlns:xlink="http://www.w3.org/1999/xlink" viewBox="0 0 900 350"><defs><clipPath id="clip-path"><polygon points="2 348.22 898.22 348.22 898.22 3 2 3 2 348.22 2 348.22" style="fill:none;clip-rule:evenodd"/></clipPath><clipPath id="clip-path-2"><polygon points="67.14 303.92 884.04 303.92 884.04 20.56 67.14 20.56 67.14 303.92 67.14 303.92" style="fill:none;clip-rule:evenodd"/></clipPath><clipPath id="clip-path-6"><rect x="2" y="3" width="896.22" height="345.22" style="fill:none"/></clipPath><clipPath id="clip-path-16"><rect x="56.65" y="66.34" width="184.94" height="18.23" style="fill:none"/></clipPath><clipPath id="clip-path-17"><rect x="219.1" y="137.52" width="184.94" height="18.23" style="fill:none"/></clipPath><clipPath id="clip-path-18"><rect x="384.42" y="62.16" width="184.94" height="18.23" style="fill:none"/></clipPath><clipPath id="clip-path-19"><rect x="547.55" y="85.66" width="184.94" height="18.23" style="fill:none"/></clipPath><clipPath id="clip-path-20"><rect x="730.72" y="32.17" width="145.14" height="18.23" style="fill:none"/></clipPath></defs><title>yar</title><polygon points="2.14 3 898.22 3 898.22 348.22 2.14 348.22 2.14 3 2.14 3" style="fill:#eaeaea;fill-rule:evenodd"/><polygon points="67.28 20.56 883.23 20.56 883.23 303.24 67.28 303.24 67.28 20.56 67.28 20.56" style="fill:#fff;fill-rule:evenodd"/><path d="M67.28,303.24h816M67.28,162h816M67.28,91.2h816M67.28,20.56h816" style="fill:none;stroke:#d9d9d9;stroke-linejoin:round;stroke-width:0.814034761183658px"/><g style="clip-path:url(#clip-path)"><path d="M67.28,20.56V303.24M230.42,20.56V303.24M393.69,20.56V303.24M556.82,20.56V303.24M720.09,20.56V303.24M883.23,20.56V303.24" style="fill:none;stroke:#bfbfbf;stroke-linejoin:round;stroke-width:1.08537970404129px"/></g><g style="clip-path:url(#clip-path-2)"><path d="M116.21,232.6h65.28v12.84H116.21V232.6Zm163.13,0h65.28v7.3H279.34v-7.3Zm163.27,0h65.28v12.84H442.61V232.6Zm163.27,0h65.29v15.54H605.88V232.6Zm163.14,0H834.3v10.13H769V232.6Z" style="fill:#ff25f3"/></g><g style="clip-path:url(#clip-path-2)"><path d="M116.21,105h65.28V232.6H116.21V105Zm163.13,68.34h65.28V232.6H279.34V173.31ZM442.61,105h65.28V232.6H442.61V105Zm163.27,23.64h65.29v104H605.88v-104ZM769,68.91H834.3V232.6H769V68.91Z" style="fill:#5e9fff"/></g><g style="clip-path:url(#clip-path-2)"><path d="M116.21,92h65.28v13H116.21V92Zm163.13,74h65.28v7.29H279.34V166ZM442.61,92h65.28v13H442.61V92Zm163.27,21.07h65.29v15.53H605.88V113.08ZM769,58.65H834.3V68.91H769V58.65Z" style="fill:#0044ab"/></g><g style="clip-path:url(#clip-path)"><line x1="67.28" y1="232.6" x2="883.23" y2="232.6" style="fill:none;stroke:#d9d9d9;stroke-linejoin:round;stroke-width:0.814034761183658px"/></g><g style="clip-path:url(#clip-path-6)"><text transform="translate(137.15 265.77) scale(1.01 1)" style="font-size:10.129610061645508px;font-family:Arial-BoldMT, Arial;font-weight:700">-</text></g><g style="clip-path:url(#clip-path-6)"><text transform="translate(140.57 265.77) scale(1.01 1)" style="font-size:10.129610061645508px;font-family:Arial-BoldMT, Arial;font-weight:700"><tspan style="letter-spacing:0.003057285403053178em">10</tspan><tspan x="11.33" y="0">%</tspan></text></g><g style="clip-path:url(#clip-path-6)"><text transform="translate(304.49 261.5) scale(1.01 1)" style="font-size:10.129610061645508px;font-family:Arial-BoldMT, Arial;font-weight:700">-</text></g><g style="clip-path:url(#clip-path-6)"><text transform="translate(307.89 261.5) scale(1.01 1)" style="font-size:10.129610061645508px;font-family:Arial-BoldMT, Arial;font-weight:700"><tspan style="letter-spacing:0.003057285403053178em">12</tspan><tspan x="11.33" y="0">%</tspan></text></g><g style="clip-path:url(#clip-path-6)"><text transform="translate(464.95 271.46) scale(1.01 1)" style="font-size:10.129610061645508px;font-family:Arial-BoldMT, Arial;font-weight:700">-</text></g><g style="clip-path:url(#clip-path-6)"><text transform="translate(468.36 271.46) scale(1.01 1)" style="font-size:10.129610061645508px;font-family:Arial-BoldMT, Arial;font-weight:700"><tspan style="letter-spacing:0.003057285403053178em">10</tspan><tspan x="11.33" y="0">%</tspan></text></g><g style="clip-path:url(#clip-path-6)"><text transform="translate(629.53 264.71) scale(1.01 1)" style="font-size:10.129610061645508px;font-family:Arial-BoldMT, Arial;font-weight:700">-</text></g><g style="clip-path:url(#clip-path-6)"><text transform="translate(632.94 264.71) scale(1.01 1)" style="font-size:10.129610061645508px;font-family:Arial-BoldMT, Arial;font-weight:700"><tspan style="letter-spacing:0.003057285403053178em">15</tspan><tspan x="11.33" y="0">%</tspan></text></g><g style="clip-path:url(#clip-path-6)"><text transform="translate(794.25 272.27) scale(1.01 1)" style="font-size:10.129610061645508px;font-family:Arial-BoldMT, Arial;font-weight:700">-</text></g><g style="clip-path:url(#clip-path-6)"><text transform="translate(797.64 272.27) scale(1.01 1)" style="font-size:10.129610061645508px;font-family:Arial-BoldMT, Arial;font-weight:700;letter-spacing:0.003057285403053178em">6<tspan x="5.66" y="0" style="letter-spacing:-0.00009554016884541181em">%</tspan></text></g><g style="clip-path:url(#clip-path-16)"><text transform="translate(135.95 79.07) scale(1.01 1)" style="font-size:10.129610061645508px;font-family:Arial-BoldMT, Arial;font-weight:700"><tspan style="letter-spacing:0.002006343545753648em">+</tspan><tspan x="5.94" y="0" style="letter-spacing:0.003057285403053178em">10</tspan><tspan x="17.26" y="0">%</tspan></text></g><g style="clip-path:url(#clip-path-17)"><text transform="translate(298.49 150.3) scale(1.01 1)" style="font-size:10.129610061645508px;font-family:Arial-BoldMT, Arial;font-weight:700"><tspan style="letter-spacing:0.002006343545753648em">+</tspan><tspan x="5.94" y="0" style="letter-spacing:0.003057285403053178em">12</tspan><tspan x="17.26" y="0">%</tspan></text></g><g style="clip-path:url(#clip-path-18)"><text transform="translate(463.75 74.89) scale(1.01 1)" style="font-size:10.129610061645508px;font-family:Arial-BoldMT, Arial;font-weight:700"><tspan style="letter-spacing:0.002006343545753648em">+</tspan><tspan x="5.94" y="0" style="letter-spacing:0.003057285403053178em">10</tspan><tspan x="17.26" y="0">%</tspan></text></g><g style="clip-path:url(#clip-path-19)"><text transform="translate(626.96 98.42) scale(1.01 1)" style="font-size:10.129610061645508px;font-family:Arial-BoldMT, Arial;font-weight:700"><tspan style="letter-spacing:0.002006343545753648em">+</tspan><tspan x="5.94" y="0" style="letter-spacing:0.003057285403053178em">15</tspan><tspan x="17.26" y="0">%</tspan></text></g><g style="clip-path:url(#clip-path-20)"><text transform="translate(793.04 44.95) scale(1.01 1)" style="font-size:10.129610061645508px;font-family:Arial-BoldMT, Arial;font-weight:700"><tspan style="letter-spacing:0.002006343545753648em">+</tspan><tspan x="5.94" y="0" style="letter-spacing:0.003057285403053178em">6</tspan><tspan x="11.6" y="0">%</tspan></text></g><g style="clip-path:url(#clip-path-6)"><text transform="translate(35.14 306.42) scale(1.01 1)" style="font-size:10.129610061645508px;font-family:Arial-BoldMT, Arial;font-weight:700">-<tspan x="3.37" y="0" style="letter-spacing:0.002961745234207766em">0</tspan><tspan x="9.04" y="0" style="letter-spacing:0.002006343545753648em">.</tspan><tspan x="11.87" y="0" style="letter-spacing:-0.00898077587146871em">5</tspan><tspan x="17.41" y="0">0</tspan></text></g><g style="clip-path:url(#clip-path-6)"><text transform="translate(38.55 235.78) scale(1.01 1)" style="font-size:10.129610061645508px;font-family:Arial-BoldMT, Arial;font-weight:700;letter-spacing:0.003057285403053178em">0<tspan x="5.66" y="0" style="letter-spacing:0.0019108033769082364em">.</tspan><tspan x="8.5" y="0" style="letter-spacing:-0.00898077587146871em">0</tspan><tspan x="14.04" y="0" style="letter-spacing:0.00009554016884541181em">0</tspan></text></g><g style="clip-path:url(#clip-path-6)"><text transform="translate(38.55 165.15) scale(1.01 1)" style="font-size:10.129610061645508px;font-family:Arial-BoldMT, Arial;font-weight:700;letter-spacing:0.003057285403053178em">0<tspan x="5.66" y="0" style="letter-spacing:0.0019108033769082364em">.</tspan><tspan x="8.5" y="0" style="letter-spacing:-0.00898077587146871em">5</tspan><tspan x="14.04" y="0" style="letter-spacing:0.00009554016884541181em">0</tspan></text></g><g style="clip-path:url(#clip-path-6)"><text transform="translate(38.55 94.49) scale(1.01 1)" style="font-size:10.129610061645508px;font-family:Arial-BoldMT, Arial;font-weight:700;letter-spacing:0.003057285403053178em">1<tspan x="5.66" y="0" style="letter-spacing:0.0019108033769082364em">.</tspan><tspan x="8.5" y="0" style="letter-spacing:-0.00898077587146871em">0</tspan><tspan x="14.04" y="0" style="letter-spacing:0.00009554016884541181em">0</tspan></text></g><g style="clip-path:url(#clip-path-6)"><text transform="translate(38.55 23.85) scale(1.01 1)" style="font-size:10.129610061645508px;font-family:Arial-BoldMT, Arial;font-weight:700;letter-spacing:0.003057285403053178em">1<tspan x="5.66" y="0" style="letter-spacing:0.0019108033769082364em">.</tspan><tspan x="8.5" y="0" style="letter-spacing:-0.00898077587146871em">5</tspan><tspan x="14.04" y="0" style="letter-spacing:0.00009554016884541181em">0</tspan></text></g><g style="clip-path:url(#clip-path-6)"><text transform="translate(140.61 318.5) scale(1.01 1)" style="font-size:10.129610061645508px;font-family:Arial-BoldMT, Arial;font-weight:700;letter-spacing:-0.002006343545753648em">R<tspan x="7.3" y="0" style="letter-spacing:-0.00009554016884541181em">-2</tspan></text></g><g style="clip-path:url(#clip-path-6)"><text transform="translate(303.81 318.5) scale(1.01 1)" style="font-size:10.129610061645508px;font-family:Arial-BoldMT, Arial;font-weight:700;letter-spacing:-0.002006343545753648em">R<tspan x="7.3" y="0" style="letter-spacing:-0.00009554016884541181em">-7</tspan></text></g><g style="clip-path:url(#clip-path-6)"><text transform="translate(464.18 318.5) scale(1.01 1)" style="font-size:10.129610061645508px;font-family:Arial-BoldMT, Arial;font-weight:700"><tspan style="letter-spacing:-0.002006343545753648em">R</tspan><tspan x="7.3" y="0" style="letter-spacing:-0.00009554016884541181em">-</tspan><tspan x="10.67" y="0" style="letter-spacing:0.003057285403053178em">1</tspan><tspan x="16.33" y="0">1</tspan></text></g><g style="clip-path:url(#clip-path-6)"><text transform="translate(627.39 318.5) scale(1.01 1)" style="font-size:10.129610061645508px;font-family:Arial-BoldMT, Arial;font-weight:700"><tspan style="letter-spacing:-0.002006343545753648em">R</tspan><tspan x="7.3" y="0" style="letter-spacing:-0.00009554016884541181em">-</tspan><tspan x="10.67" y="0" style="letter-spacing:0.003057285403053178em">1</tspan><tspan x="16.33" y="0">5</tspan></text></g><g style="clip-path:url(#clip-path-6)"><text transform="translate(790.6 318.5) scale(1.01 1)" style="font-size:10.129610061645508px;font-family:Arial-BoldMT, Arial;font-weight:700"><tspan style="letter-spacing:-0.002006343545753648em">R</tspan><tspan x="7.3" y="0" style="letter-spacing:-0.00009554016884541181em">-</tspan><tspan x="10.67" y="0" style="letter-spacing:0.003057285403053178em">2</tspan><tspan x="16.33" y="0">0</tspan></text></g><g style="clip-path:url(#clip-path-6)"><text transform="translate(20.65 183.38) rotate(-90) scale(0.99 1)" style="font-size:11.311750411987305px;font-family:Arial-BoldMT, Arial;font-weight:700"><tspan style="letter-spacing:0.004965546390397638em">Q</tspan><tspan x="8.85" y="0" style="letter-spacing:0.0030490197134020584em">u</tspan><tspan x="15.8" y="0" style="letter-spacing:-0.0010453781874521341em">a</tspan><tspan x="22.08" y="0" style="letter-spacing:0.002961904864447714em">n</tspan><tspan x="29.02" y="0" style="letter-spacing:0.004007283051899849em">t</tspan><tspan x="32.83" y="0">i</tspan><tspan x="35.98" y="0" style="letter-spacing:0.004007283051899849em">t</tspan><tspan x="39.79" y="0" style="letter-spacing:-0.012980112494197333em">y</tspan><tspan x="45.93" y="0" style="letter-spacing:0.010976470968247408em"> </tspan><tspan x="49.2" y="0">&amp; </tspan><tspan x="60.51" y="0" style="letter-spacing:0.0070563027653019065em">Y</tspan><tspan x="68.14" y="0" style="letter-spacing:-0.0009582633384977897em">a</tspan><tspan x="74.42" y="0">R</tspan><tspan x="82.59" y="0" style="letter-spacing:0.010976470968247408em"> </tspan><tspan x="85.85" y="0" style="letter-spacing:0.004007283051899849em">(</tspan><tspan x="89.66" y="0" style="letter-spacing:0.021952941936494816em">M</tspan><tspan x="99.34" y="0" style="letter-spacing:0.014983754020147259em">T</tspan><tspan x="106.41" y="0">)</tspan></text></g><g style="clip-path:url(#clip-path-6)"><text transform="translate(424.1 339.78) scale(1.01 1)" style="font-size:11.210100173950195px;font-family:Arial-BoldMT, Arial;font-weight:700">R<tspan x="8.1" y="0" style="letter-spacing:-0.0009496463944759244em">e</tspan><tspan x="14.32" y="0" style="letter-spacing:0.002935270673834676em">g</tspan><tspan x="21.2" y="0">i</tspan><tspan x="24.31" y="0" style="letter-spacing:0.002935270673834676em">on</tspan><tspan x="38.08" y="0">s</tspan></text></g><polygon points="2.14 3 898.22 3 898.22 348.22 2.14 348.22 2.14 3 2.14 3" style="fill:none;stroke:#d9d9d9;stroke-linejoin:round;stroke-width:0.8140348285729px"/></svg>