<svg id="Layer_1" data-name="Layer 1" xmlns="http://www.w3.org/2000/svg" xmlns:xlink="http://www.w3.org/1999/xlink" viewBox="0 0 900 350"><defs><clipPath id="clip-path"><polygon points="0 348.68 899.86 348.68 899.86 0 0 0 0 348.68 0 348.68" style="fill:none;clip-rule:evenodd"/></clipPath><clipPath id="clip-path-2"><polygon points="51.14 307.11 878.12 307.11 878.12 17.64 51.14 17.64 51.14 307.11 51.14 307.11" style="fill:none;clip-rule:evenodd"/></clipPath><clipPath id="clip-path-5"><polygon points="51.14 307.11 878.12 307.11 878.12 17.64 51.14 17.64 51.14 307.11 51.14 307.11" style="fill:none;clip-rule:evenodd"/></clipPath><clipPath id="clip-path-13"><rect width="899.86" height="348.68" style="fill:none"/></clipPath></defs><title>ground-truth-risk-report</title><polygon points="0 0.14 900 0.14 900 348.68 0 348.68 0 0.14 0 0.14" style="fill:#f2f2f2;fill-rule:evenodd"/><polygon points="51.28 17.64 877.3 17.64 877.3 306.43 51.28 306.43 51.28 17.64 51.28 17.64" style="fill:#fff;fill-rule:evenodd"/><path d="M51.28,234.23h826M51.28,162h826m-826-72.19h826m-826-72.2h826" style="fill:none;stroke:#d9d9d9;stroke-linejoin:round;stroke-width:0.82041927742002px"/><g style="clip-path:url(#clip-path)"><path d="M51.28,17.64V306.43M326.53,17.64V306.43M601.91,17.64V306.43M877.3,17.64V306.43" style="fill:none;stroke:#d9d9d9;stroke-linejoin:round;stroke-width:0.82041927742002px"/></g><g style="clip-path:url(#clip-path-2)"><polygon points="135.92 77.8 241.89 77.8 241.89 306.43 135.92 306.43 135.92 77.8 135.92 77.8" style="fill:#5e9fff;fill-rule:evenodd"/><polygon points="135.92 77.8 241.89 77.8 241.89 306.43 135.92 306.43 135.92 77.8 135.92 77.8" style="fill:none;stroke:#7f7f7f;stroke-linejoin:round;stroke-width:0.82041927742002px"/><polygon points="411.3 87.51 517.27 87.51 517.27 306.43 411.3 306.43 411.3 87.51 411.3 87.51" style="fill:#5e9fff;fill-rule:evenodd"/><polygon points="411.3 87.51 517.27 87.51 517.27 306.43 411.3 306.43 411.3 87.51 411.3 87.51" style="fill:none;stroke:#7f7f7f;stroke-linejoin:round;stroke-width:0.82041927742002px"/><polygon points="686.69 82.59 792.66 82.59 792.66 306.43 686.69 306.43 686.69 82.59 686.69 82.59" style="fill:#5e9fff;fill-rule:evenodd"/><polygon points="686.69 82.59 792.66 82.59 792.66 306.43 686.69 306.43 686.69 82.59 686.69 82.59" style="fill:none;stroke:#7f7f7f;stroke-linejoin:round;stroke-width:0.82041927742002px"/></g><g style="clip-path:url(#clip-path)"><line x1="51.28" y1="306.43" x2="877.3" y2="306.43" style="fill:none;stroke:#d9d9d9;stroke-linejoin:round;stroke-width:0.82041927742002px"/></g><g style="clip-path:url(#clip-path)"><path d="M51.28,306.43v3m275.25-3v3m275.38-3v3m275.39-3v3" style="fill:none;stroke:#d9d9d9;stroke-linejoin:round;stroke-width:0.82041927742002px"/></g><g style="clip-path:url(#clip-path-5)"><polyline points="188.97 53.74 464.22 53.74 739.61 53.74" style="fill:none;stroke:#06f;stroke-miterlimit:10;stroke-width:1.367px;stroke-dasharray:5,5"/></g><g style="clip-path:url(#clip-path)"><path d="M191.91,53.67A2.87,2.87,0,1,1,189,50.8a2.87,2.87,0,0,1,2.87,2.87Z" style="fill:#2935e8"/><path d="M191.91,53.67A2.87,2.87,0,1,1,189,50.8a2.87,2.87,0,0,1,2.87,2.87Z" style="fill:none;stroke:#2935e8;stroke-linejoin:round;stroke-width:0.8204193453378px"/><path d="M467.16,53.67a2.87,2.87,0,1,1-2.87-2.87,2.87,2.87,0,0,1,2.87,2.87Z" style="fill:#2935e8"/><path d="M467.16,53.67a2.87,2.87,0,1,1-2.87-2.87,2.87,2.87,0,0,1,2.87,2.87Z" style="fill:none;stroke:#2935e8;stroke-linejoin:round;stroke-width:0.8204193453378px"/><path d="M742.55,53.67a2.88,2.88,0,1,1-2.87-2.87,2.87,2.87,0,0,1,2.87,2.87Z" style="fill:#2935e8"/><path d="M742.55,53.67a2.88,2.88,0,1,1-2.87-2.87,2.87,2.87,0,0,1,2.87,2.87Z" style="fill:none;stroke:#2935e8;stroke-linejoin:round;stroke-width:0.8204193453378px"/></g><g style="clip-path:url(#clip-path-5)"><polyline points="188.97 101.87 464.22 101.87 739.61 101.87" style="fill:none;stroke:#ff25f3;stroke-miterlimit:10;stroke-width:1.367px;stroke-dasharray:5,5"/></g><g style="clip-path:url(#clip-path)"><path d="M191.91,101.8A2.87,2.87,0,1,1,189,98.93a2.87,2.87,0,0,1,2.87,2.87Z" style="fill:#ff25f3"/><path d="M467.16,101.8a2.87,2.87,0,1,1-2.87-2.87,2.87,2.87,0,0,1,2.87,2.87Z" style="fill:#ff25f3"/><path d="M742.55,101.8a2.88,2.88,0,1,1-2.87-2.87,2.87,2.87,0,0,1,2.87,2.87Z" style="fill:#ff25f3"/></g><g style="clip-path:url(#clip-path-2)"><polyline points="188.97 65.77 464.22 65.77 739.61 65.77" style="fill:none;stroke:#7f7f7f;stroke-linecap:round;stroke-linejoin:round;stroke-width:1.36736543972744px"/></g><g style="clip-path:url(#clip-path)"><path d="M191.91,65.7A2.87,2.87,0,1,1,189,62.83a2.87,2.87,0,0,1,2.87,2.87Z" style="fill:#7f7f7f"/><path d="M191.91,65.7A2.87,2.87,0,1,1,189,62.83a2.87,2.87,0,0,1,2.87,2.87Z" style="fill:none;stroke:#7f7f7f;stroke-linejoin:round;stroke-width:0.8204193453378px"/><path d="M467.16,65.7a2.87,2.87,0,1,1-2.87-2.87,2.87,2.87,0,0,1,2.87,2.87Z" style="fill:#7f7f7f"/><path d="M467.16,65.7a2.87,2.87,0,1,1-2.87-2.87,2.87,2.87,0,0,1,2.87,2.87Z" style="fill:none;stroke:#7f7f7f;stroke-linejoin:round;stroke-width:0.8204193453378px"/><path d="M742.55,65.7a2.88,2.88,0,1,1-2.87-2.87,2.87,2.87,0,0,1,2.87,2.87Z" style="fill:#7f7f7f"/><path d="M742.55,65.7a2.88,2.88,0,1,1-2.87-2.87,2.87,2.87,0,0,1,2.87,2.87Z" style="fill:none;stroke:#7f7f7f;stroke-linejoin:round;stroke-width:0.8204193453378px"/></g><g style="clip-path:url(#clip-path-2)"><polyline points="188.97 77.8 464.22 77.8 739.61 77.8" style="fill:none;stroke:#00c1a3;stroke-linecap:round;stroke-linejoin:round;stroke-width:1.36736543972744px"/></g><g style="clip-path:url(#clip-path)"><path d="M191.91,77.73A2.87,2.87,0,1,1,189,74.86a2.88,2.88,0,0,1,2.87,2.87Z" style="fill:#00b050"/><path d="M191.91,77.73A2.87,2.87,0,1,1,189,74.86a2.88,2.88,0,0,1,2.87,2.87Z" style="fill:none;stroke:#7f7f7f;stroke-linejoin:round;stroke-width:0.8204193453378px"/><path d="M467.16,77.73a2.87,2.87,0,1,1-2.87-2.87,2.88,2.88,0,0,1,2.87,2.87Z" style="fill:#00b050"/><path d="M467.16,77.73a2.87,2.87,0,1,1-2.87-2.87,2.88,2.88,0,0,1,2.87,2.87Z" style="fill:none;stroke:#7f7f7f;stroke-linejoin:round;stroke-width:0.8204193453378px"/><path d="M742.55,77.73a2.88,2.88,0,1,1-2.87-2.87,2.88,2.88,0,0,1,2.87,2.87Z" style="fill:#00b050"/><path d="M742.55,77.73a2.88,2.88,0,1,1-2.87-2.87,2.88,2.88,0,0,1,2.87,2.87Z" style="fill:none;stroke:#7f7f7f;stroke-linejoin:round;stroke-width:0.8204193453378px"/></g><g style="clip-path:url(#clip-path-13)"><text transform="translate(36.7 309.64)" style="font-size:10.255240440368652px;font-family:ArialMT, Arial">0</text></g><g style="clip-path:url(#clip-path-13)"><text transform="translate(36.7 237.47)" style="font-size:10.255240440368652px;font-family:ArialMT, Arial">3</text></g><g style="clip-path:url(#clip-path-13)"><text transform="translate(36.7 165.3)" style="font-size:10.255240440368652px;font-family:ArialMT, Arial">6</text></g><g style="clip-path:url(#clip-path-13)"><text transform="translate(36.7 93.13)" style="font-size:10.255240440368652px;font-family:ArialMT, Arial">9</text></g><g style="clip-path:url(#clip-path-13)"><text transform="translate(30.99 20.95)" style="font-size:10.255240440368652px;font-family:ArialMT, Arial"><tspan style="letter-spacing:0.0030472225572584074em">1</tspan><tspan x="5.73" y="0">2</tspan></text></g><g style="clip-path:url(#clip-path-13)"><text transform="translate(173.67 321.85)" style="font-size:10.255240440368652px;font-family:ArialMT, Arial">Aug</text></g><g style="clip-path:url(#clip-path-13)"><text transform="translate(452.04 321.85)" style="font-size:10.255240440368652px;font-family:ArialMT, Arial">Sep</text></g><g style="clip-path:url(#clip-path-13)"><text transform="translate(729.42 321.85)" style="font-size:10.255240440368652px;font-family:ArialMT, Arial">Oct</text></g><g style="clip-path:url(#clip-path-13)"><text transform="translate(19.71 212.04) rotate(-90)" style="font-size:11.349129676818848px;font-family:Arial-BoldMT, Arial;font-weight:700"><tspan style="letter-spacing:0.004990746128814728em">Q</tspan><tspan x="8.88" y="0" style="letter-spacing:0.0029256097996500125em">u</tspan><tspan x="15.85" y="0" style="letter-spacing:-0.0009465208175338276em">a</tspan><tspan x="22.15" y="0" style="letter-spacing:0.0030116571466985423em">n</tspan><tspan x="29.12" y="0" style="letter-spacing:0.0039581779642323695em">t</tspan><tspan x="32.94" y="0">i</tspan><tspan x="36.1" y="0" style="letter-spacing:0.0040442253112809em">t</tspan><tspan x="39.92" y="0" style="letter-spacing:-0.012993149404327997em">y</tspan><tspan x="46.08" y="0" style="letter-spacing:0.011014060422211812em"> </tspan><tspan x="49.36" y="0" style="letter-spacing:0.0039581779642323695em">(</tspan><tspan x="53.19" y="0" style="letter-spacing:0.022028120844423623em">M</tspan><tspan x="62.89" y="0" style="letter-spacing:0.014972238386444181em">T</tspan><tspan x="69.99" y="0">)</tspan></text></g><g style="clip-path:url(#clip-path-13)"><text transform="translate(414.12 338.3)" style="font-size:11.349129676818848px;font-family:Arial-BoldMT, Arial;font-weight:700"><tspan style="letter-spacing:0.014972238386444181em">T</tspan><tspan x="7.1" y="0">i</tspan><tspan x="10.26" y="0" style="letter-spacing:0.0020651363291647146em">m</tspan><tspan x="20.37" y="0" style="letter-spacing:-0.0010325681645823573em">e</tspan><tspan x="26.67" y="0"> </tspan><tspan x="29.82" y="0" style="letter-spacing:-0.0039581779642323695em">P</tspan><tspan x="37.35" y="0" style="letter-spacing:-0.0009465208175338276em">e</tspan><tspan x="43.65" y="0" style="letter-spacing:-0.0030116571466985423em">r</tspan><tspan x="48.03" y="0" style="letter-spacing:-0.00008604734704852978em">i</tspan><tspan x="51.18" y="0" style="letter-spacing:0.0030116571466985423em">o</tspan><tspan x="58.15" y="0">d</tspan></text></g><polygon points="0 0.14 900 0.14 900 348.68 0 348.68 0 0.14 0 0.14" style="fill:none;stroke:#d9d9d9;stroke-linejoin:round;stroke-width:0.8204193453378px"/></svg>