<svg id="Layer_1" data-name="Layer 1" xmlns="http://www.w3.org/2000/svg" xmlns:xlink="http://www.w3.org/1999/xlink" viewBox="0 0 900 350"><defs><clipPath id="clip-path"><polygon points="0 348.7 900 348.7 900 0 0 0 0 348.7 0 348.7" style="fill:none;clip-rule:evenodd"/></clipPath><clipPath id="clip-path-6"><polygon points="61.26 294.68 888.81 294.68 888.81 15.01 61.26 15.01 61.26 294.68 61.26 294.68" style="fill:none;clip-rule:evenodd"/></clipPath><clipPath id="clip-path-10"><rect width="900" height="348.7" style="fill:none"/></clipPath></defs><title>ndvi-risk-report</title><polygon points="0 0.14 900 0.14 900 348.84 0 348.84 0 0.14 0 0.14" style="fill:#f2f2f2;fill-rule:evenodd"/><polygon points="61.39 15.01 888 15.01 888 293.86 61.39 293.86 61.39 15.01 61.39 15.01" style="fill:#fff;fill-rule:evenodd"/><path d="M61.39,224.15H888M61.39,154.43H888M61.39,84.72H888M61.39,15H888" style="fill:none;stroke:#d9d9d9;stroke-linejoin:round;stroke-width:0.818553852878001px"/><g style="clip-path:url(#clip-path)"><path d="M95.77,15V293.86M164.67,15V293.86M233.56,15V293.86M302.46,15V293.86M371.35,15V293.86M440.25,15V293.86M509.14,15V293.86M578,15V293.86M646.93,15V293.86M715.83,15V293.86M784.72,15V293.86M853.62,15V293.86" style="fill:none;stroke:#f2f2f2;stroke-linejoin:round;stroke-width:0.818553852878001px"/></g><g style="clip-path:url(#clip-path)"><path d="M61.39,15V293.86M130.29,15V293.86M199.18,15V293.86M268.08,15V293.86M337,15V293.86M405.73,15V293.86M474.62,15V293.86M543.52,15V293.86M612.41,15V293.86M681.31,15V293.86M750.2,15V293.86M819.1,15V293.86M888,15V293.86" style="fill:none;stroke:#d9d9d9;stroke-linejoin:round;stroke-width:0.818553852878001px"/></g><g style="clip-path:url(#clip-path)"><line x1="61.39" y1="293.86" x2="887.99" y2="293.86" style="fill:none;stroke:#d9d9d9;stroke-linejoin:round;stroke-width:1.36425639887555px"/></g><g style="clip-path:url(#clip-path)"><path d="M61.39,293.86v18.42M337,293.86v18.42m275.44-18.42v18.42M888,293.86v18.42" style="fill:none;stroke:#d9d9d9;stroke-linejoin:round;stroke-width:1.36425639887555px"/></g><g style="clip-path:url(#clip-path)"><path d="M61.39,312.28V330.7M337,312.28V330.7m275.44-18.42V330.7M888,312.28V330.7" style="fill:none;stroke:#d9d9d9;stroke-linejoin:round;stroke-width:1.36425639887555px"/></g><g style="clip-path:url(#clip-path-6)"><polyline points="95.77 168.35 164.67 132.2 233.56 98.64 302.46 81.99 371.35 70.81 440.25 65.21 509.14 76.4 578.03 98.64 646.93 126.6 715.83 140.52 784.72 154.43 853.62 171.21" style="fill:none;stroke:#ff25f3;stroke-linecap:round;stroke-linejoin:round;stroke-width:2.45566149087065px"/></g><g style="clip-path:url(#clip-path)"><polygon points="92.92 165.45 98.65 165.45 98.65 171.18 92.92 171.18 92.92 165.45 92.92 165.45" style="fill:#ff25f3;fill-rule:evenodd"/><polygon points="161.82 129.3 167.55 129.3 167.55 135.03 161.82 135.03 161.82 129.3 161.82 129.3" style="fill:#ff25f3;fill-rule:evenodd"/><polygon points="230.71 95.74 236.44 95.74 236.44 101.47 230.71 101.47 230.71 95.74 230.71 95.74" style="fill:#ff25f3;fill-rule:evenodd"/><polygon points="299.61 79.09 305.34 79.09 305.34 84.82 299.61 84.82 299.61 79.09 299.61 79.09" style="fill:#ff25f3;fill-rule:evenodd"/><polygon points="368.5 67.91 374.23 67.91 374.23 73.64 368.5 73.64 368.5 67.91 368.5 67.91" style="fill:#ff25f3;fill-rule:evenodd"/><polygon points="437.4 62.31 443.13 62.31 443.13 68.04 437.4 68.04 437.4 62.31 437.4 62.31" style="fill:#ff25f3;fill-rule:evenodd"/><polygon points="506.29 73.5 512.02 73.5 512.02 79.23 506.29 79.23 506.29 73.5 506.29 73.5" style="fill:#ff25f3;fill-rule:evenodd"/><polygon points="575.19 95.74 580.92 95.74 580.92 101.47 575.19 101.47 575.19 95.74 575.19 95.74" style="fill:#ff25f3;fill-rule:evenodd"/><polygon points="644.08 123.7 649.81 123.7 649.81 129.43 644.08 129.43 644.08 123.7 644.08 123.7" style="fill:#ff25f3;fill-rule:evenodd"/><polygon points="712.98 137.62 718.71 137.62 718.71 143.35 712.98 143.35 712.98 137.62 712.98 137.62" style="fill:#ff25f3;fill-rule:evenodd"/><polygon points="781.87 151.53 787.6 151.53 787.6 157.26 781.87 157.26 781.87 151.53 781.87 151.53" style="fill:#ff25f3;fill-rule:evenodd"/><polygon points="850.77 168.31 856.5 168.31 856.5 174.04 850.77 174.04 850.77 168.31 850.77 168.31" style="fill:#ff25f3;fill-rule:evenodd"/></g><g style="clip-path:url(#clip-path-6)"><polyline points="95.77 182.26 164.67 148.84 233.56 115.42 302.46 98.64 371.35 87.58 440.25 76.4 509.14 87.58 578.03 98.64 646.93 132.2 715.83 148.84 784.72 162.76 853.62 182.26" style="fill:none;stroke:#6b77e8;stroke-linecap:round;stroke-linejoin:round;stroke-width:2.45566149087065px"/></g><g style="clip-path:url(#clip-path)"><path d="M98.65,182.23a2.87,2.87,0,1,1-2.86-2.86,2.87,2.87,0,0,1,2.86,2.86Z" style="fill:#6b77e8"/><path d="M98.65,182.23a2.87,2.87,0,1,1-2.86-2.86,2.87,2.87,0,0,1,2.86,2.86Z" style="fill:none;stroke:#6b77e8;stroke-linejoin:round;stroke-width:0.818553920641354px"/><path d="M167.55,148.81a2.87,2.87,0,1,1-2.87-2.87,2.86,2.86,0,0,1,2.87,2.87Z" style="fill:#6b77e8"/><path d="M167.55,148.81a2.87,2.87,0,1,1-2.87-2.87,2.86,2.86,0,0,1,2.87,2.87Z" style="fill:none;stroke:#6b77e8;stroke-linejoin:round;stroke-width:0.818553920641354px"/><path d="M236.44,115.38a2.87,2.87,0,1,1-2.86-2.86,2.87,2.87,0,0,1,2.86,2.86Z" style="fill:#6b77e8"/><path d="M236.44,115.38a2.87,2.87,0,1,1-2.86-2.86,2.87,2.87,0,0,1,2.86,2.86Z" style="fill:none;stroke:#6b77e8;stroke-linejoin:round;stroke-width:0.818553920641354px"/><path d="M305.34,98.6a2.87,2.87,0,1,1-2.87-2.86,2.88,2.88,0,0,1,2.87,2.86Z" style="fill:#6b77e8"/><path d="M305.34,98.6a2.87,2.87,0,1,1-2.87-2.86,2.88,2.88,0,0,1,2.87,2.86Z" style="fill:none;stroke:#6b77e8;stroke-linejoin:round;stroke-width:0.818553920641354px"/><path d="M374.23,87.55a2.87,2.87,0,1,1-2.86-2.86,2.87,2.87,0,0,1,2.86,2.86Z" style="fill:#6b77e8"/><path d="M374.23,87.55a2.87,2.87,0,1,1-2.86-2.86,2.87,2.87,0,0,1,2.86,2.86Z" style="fill:none;stroke:#6b77e8;stroke-linejoin:round;stroke-width:0.818553920641354px"/><path d="M443.13,76.36a2.87,2.87,0,1,1-2.87-2.86,2.87,2.87,0,0,1,2.87,2.86Z" style="fill:#6b77e8"/><path d="M443.13,76.36a2.87,2.87,0,1,1-2.87-2.86,2.87,2.87,0,0,1,2.87,2.86Z" style="fill:none;stroke:#6b77e8;stroke-linejoin:round;stroke-width:0.818553920641354px"/><path d="M512,87.55a2.87,2.87,0,1,1-2.86-2.86A2.87,2.87,0,0,1,512,87.55Z" style="fill:#6b77e8"/><path d="M512,87.55a2.87,2.87,0,1,1-2.86-2.86A2.87,2.87,0,0,1,512,87.55Z" style="fill:none;stroke:#6b77e8;stroke-linejoin:round;stroke-width:0.818553920641354px"/><path d="M580.92,98.6a2.87,2.87,0,1,1-2.87-2.86,2.88,2.88,0,0,1,2.87,2.86Z" style="fill:#6b77e8"/><path d="M580.92,98.6a2.87,2.87,0,1,1-2.87-2.86,2.88,2.88,0,0,1,2.87,2.86Z" style="fill:none;stroke:#6b77e8;stroke-linejoin:round;stroke-width:0.818553920641354px"/><path d="M649.81,132.16A2.87,2.87,0,1,1,647,129.3a2.87,2.87,0,0,1,2.86,2.86Z" style="fill:#6b77e8"/><path d="M649.81,132.16A2.87,2.87,0,1,1,647,129.3a2.87,2.87,0,0,1,2.86,2.86Z" style="fill:none;stroke:#6b77e8;stroke-linejoin:round;stroke-width:0.818553920641354px"/><path d="M718.71,148.81a2.87,2.87,0,1,1-2.87-2.87,2.87,2.87,0,0,1,2.87,2.87Z" style="fill:#6b77e8"/><path d="M718.71,148.81a2.87,2.87,0,1,1-2.87-2.87,2.87,2.87,0,0,1,2.87,2.87Z" style="fill:none;stroke:#6b77e8;stroke-linejoin:round;stroke-width:0.818553920641354px"/><path d="M787.6,162.72a2.87,2.87,0,1,1-2.86-2.86,2.87,2.87,0,0,1,2.86,2.86Z" style="fill:#6b77e8"/><path d="M787.6,162.72a2.87,2.87,0,1,1-2.86-2.86,2.87,2.87,0,0,1,2.86,2.86Z" style="fill:none;stroke:#6b77e8;stroke-linejoin:round;stroke-width:0.818553920641354px"/><path d="M856.5,182.23a2.87,2.87,0,1,1-2.87-2.86,2.88,2.88,0,0,1,2.87,2.86Z" style="fill:#6b77e8"/><path d="M856.5,182.23a2.87,2.87,0,1,1-2.87-2.86,2.88,2.88,0,0,1,2.87,2.86Z" style="fill:none;stroke:#6b77e8;stroke-linejoin:round;stroke-width:0.818553920641354px"/></g><g style="clip-path:url(#clip-path-10)"><text transform="translate(32.65 297.09)" style="font-size:10.23192024230957px;font-family:ArialMT, Arial"><tspan style="letter-spacing:0.0029587249297368073em">0</tspan><tspan x="5.72" y="0" style="letter-spacing:0.0020042975330475145em">.</tspan><tspan x="8.58" y="0" style="letter-spacing:-0.008971617528879351em">0</tspan><tspan x="14.18" y="0">0</tspan></text></g><g style="clip-path:url(#clip-path-10)"><text transform="translate(32.65 227.4)" style="font-size:10.23192024230957px;font-family:ArialMT, Arial"><tspan style="letter-spacing:0.0029587249297368073em">0</tspan><tspan x="5.72" y="0" style="letter-spacing:0.0020042975330475145em">.</tspan><tspan x="8.58" y="0" style="letter-spacing:-0.008971617528879351em">2</tspan><tspan x="14.18" y="0">5</tspan></text></g><g style="clip-path:url(#clip-path-10)"><text transform="translate(32.65 157.7)" style="font-size:10.23192024230957px;font-family:ArialMT, Arial"><tspan style="letter-spacing:0.0029587249297368073em">0</tspan><tspan x="5.72" y="0" style="letter-spacing:0.0020042975330475145em">.</tspan><tspan x="8.58" y="0" style="letter-spacing:-0.008971617528879351em">5</tspan><tspan x="14.18" y="0">0</tspan></text></g><g style="clip-path:url(#clip-path-10)"><text transform="translate(32.65 88.01)" style="font-size:10.23192024230957px;font-family:ArialMT, Arial"><tspan style="letter-spacing:0.0029587249297368073em">0</tspan><tspan x="5.72" y="0" style="letter-spacing:0.0020042975330475145em">.</tspan><tspan x="8.58" y="0" style="letter-spacing:-0.008971617528879351em">7</tspan><tspan x="14.18" y="0">5</tspan></text></g><g style="clip-path:url(#clip-path-10)"><text transform="translate(32.65 18.32)" style="font-size:10.23192024230957px;font-family:ArialMT, Arial"><tspan style="letter-spacing:0.0029587249297368073em">1</tspan><tspan x="5.72" y="0" style="letter-spacing:0.0020042975330475145em">.</tspan><tspan x="8.58" y="0" style="letter-spacing:-0.008971617528879351em">0</tspan><tspan x="14.18" y="0">0</tspan></text></g><g style="clip-path:url(#clip-path-10)"><text transform="translate(92.95 309.28)" style="font-size:10.23192024230957px;font-family:ArialMT, Arial">1</text></g><g style="clip-path:url(#clip-path-10)"><text transform="translate(161.84 309.28)" style="font-size:10.23192024230957px;font-family:ArialMT, Arial">2</text></g><g style="clip-path:url(#clip-path-10)"><text transform="translate(230.73 309.28)" style="font-size:10.23192024230957px;font-family:ArialMT, Arial">3</text></g><g style="clip-path:url(#clip-path-10)"><text transform="translate(299.62 309.28)" style="font-size:10.23192024230957px;font-family:ArialMT, Arial">4</text></g><g style="clip-path:url(#clip-path-10)"><text transform="translate(368.5 309.28)" style="font-size:10.23192024230957px;font-family:ArialMT, Arial">1</text></g><g style="clip-path:url(#clip-path-10)"><text transform="translate(437.38 309.28)" style="font-size:10.23192024230957px;font-family:ArialMT, Arial">2</text></g><g style="clip-path:url(#clip-path-10)"><text transform="translate(506.27 309.28)" style="font-size:10.23192024230957px;font-family:ArialMT, Arial">3</text></g><g style="clip-path:url(#clip-path-10)"><text transform="translate(575.16 309.28)" style="font-size:10.23192024230957px;font-family:ArialMT, Arial">4</text></g><g style="clip-path:url(#clip-path-10)"><text transform="translate(644.05 309.28)" style="font-size:10.23192024230957px;font-family:ArialMT, Arial">1</text></g><g style="clip-path:url(#clip-path-10)"><text transform="translate(712.93 309.28)" style="font-size:10.23192024230957px;font-family:ArialMT, Arial">2</text></g><g style="clip-path:url(#clip-path-10)"><text transform="translate(781.81 309.28)" style="font-size:10.23192024230957px;font-family:ArialMT, Arial">3</text></g><g style="clip-path:url(#clip-path-10)"><text transform="translate(850.69 309.28)" style="font-size:10.23192024230957px;font-family:ArialMT, Arial">4</text></g><g style="clip-path:url(#clip-path-10)"><text transform="translate(190.03 327.73)" style="font-size:10.23192024230957px;font-family:ArialMT, Arial">A<tspan x="6.82" y="0" style="letter-spacing:0.0030541676694057366em">u</tspan><tspan x="12.55" y="0">g</tspan></text></g><g style="clip-path:url(#clip-path-10)"><text transform="translate(465.57 327.73)" style="font-size:10.23192024230957px;font-family:ArialMT, Arial">S<tspan x="6.82" y="0" style="letter-spacing:0.0030541676694057366em">e</tspan><tspan x="12.55" y="0">p</tspan></text></g><g style="clip-path:url(#clip-path-10)"><text transform="translate(742.26 327.73)" style="font-size:10.23192024230957px;font-family:ArialMT, Arial"><tspan style="letter-spacing:-0.004008595066095029em">O</tspan><tspan x="7.92" y="0" style="letter-spacing:0.005917449859473615em">c</tspan><tspan x="13.09" y="0">t</tspan></text></g><g style="clip-path:url(#clip-path-10)"><text transform="translate(17.55 209.41) rotate(-90)" style="font-size:11.32332992553711px;font-family:Arial-BoldMT, Arial;font-weight:700">ND<tspan x="16.35" y="0" style="letter-spacing:-0.0039671965133409445em">V</tspan><tspan x="23.86" y="0">I</tspan><tspan x="27.01" y="0" style="letter-spacing:0.011039155515383498em"> </tspan><tspan x="30.28" y="0" style="letter-spacing:0.00008624340246393358em"> </tspan><tspan x="33.42" y="0" style="letter-spacing:-0.004053439915804878em">V</tspan><tspan x="40.93" y="0" style="letter-spacing:-0.001034920829567203em">a</tspan><tspan x="47.22" y="0" style="letter-spacing:0.00008624340246393358em">l</tspan><tspan x="50.36" y="0" style="letter-spacing:0.002932275683773742em">u</tspan><tspan x="57.31" y="0">e</tspan></text></g><g style="clip-path:url(#clip-path-10)"><text transform="translate(429.22 339.52)" style="font-size:11.32332992553711px;font-family:Arial-BoldMT, Arial;font-weight:700"><tspan style="letter-spacing:0.00698571559957862em">W</tspan><tspan x="10.77" y="0" style="letter-spacing:-0.001034920829567203em">ee</tspan><tspan x="23.34" y="0">k</tspan></text></g><polygon points="0 0.14 900 0.14 900 348.84 0 348.84 0 0.14 0 0.14" style="fill:none;stroke:#d9d9d9;stroke-linejoin:round;stroke-width:0.818553920641354px"/></svg>