<svg id="Layer_1" data-name="Layer 1" xmlns="http://www.w3.org/2000/svg" xmlns:xlink="http://www.w3.org/1999/xlink" viewBox="0 0 900 350"><defs><clipPath id="clip-path"><polygon points="0 350.53 900 350.53 900 0 0 0 0 350.53 0 350.53" style="fill:none;clip-rule:evenodd"/></clipPath><clipPath id="clip-path-3"><polygon points="78.94 309.9 886.73 309.9 886.73 23.81 78.94 23.81 78.94 309.9 78.94 309.9" style="fill:none;clip-rule:evenodd"/></clipPath><clipPath id="clip-path-6"><rect width="900" height="350.53" style="fill:none"/></clipPath></defs><title>price-volatility</title><polygon points="0 0 900 0 900 350.67 0 350.67 0 0 0 0" style="fill:#eaeaea;fill-rule:evenodd"/><polygon points="79.08 23.81 885.91 23.81 885.91 309.08 79.08 309.08 79.08 23.81 79.08 23.81" style="fill:#fff;fill-rule:evenodd"/><path d="M79.08,252H885.91M79.08,195H885.91M79.08,137.91H885.91m-806.83-57H885.91m-806.83-57H885.91" style="fill:none;stroke:#d9d9d9;stroke-linejoin:round;stroke-width:0.820918192117912px"/><g style="clip-path:url(#clip-path)"><path d="M79.08,23.81V309.08M146.26,23.81V309.08M213.58,23.81V309.08M280.75,23.81V309.08M348.07,23.81V309.08M415.25,23.81V309.08M482.56,23.81V309.08M549.74,23.81V309.08M617.06,23.81V309.08M684.24,23.81V309.08M751.55,23.81V309.08M818.73,23.81V309.08M885.91,23.81V309.08" style="fill:none;stroke:#d9d9d9;stroke-linejoin:round;stroke-width:0.820918192117912px"/></g><g style="clip-path:url(#clip-path)"><line x1="79.08" y1="309.08" x2="885.91" y2="309.08" style="fill:none;stroke:#d9d9d9;stroke-linejoin:round;stroke-width:0.820918192117912px"/></g><g style="clip-path:url(#clip-path-3)"><polyline points="112.74 121.22 179.92 105.35 247.1 105.08 314.41 101.66 381.59 98.1 448.9 94.68 516.08 96.73 583.4 93.17 650.58 207.56 717.89 213.85 785.07 185.94 852.39 167.33" style="fill:none;stroke:#2935e8;stroke-linecap:round;stroke-linejoin:round;stroke-width:2.46275450839465px"/></g><g style="clip-path:url(#clip-path-3)"><polyline points="112.74 77.3 179.92 101.25 247.1 123.82 314.41 145.03 381.59 165 448.9 183.75 516.08 201.4 583.4 206.6 650.58 200.44 717.89 173.62 785.07 154.2 852.39 108.77" style="fill:none;stroke:#ff25f3;stroke-linejoin:round;stroke-width:2.18911522428715px"/></g><g style="clip-path:url(#clip-path-3)"><polyline points="112.74 123.96 179.92 121.91 247.1 116.3 314.41 103.03 381.59 104.53 448.9 79.08 516.08 78.53 583.4 79.36 650.58 78.67 717.89 151.19 785.07 206.46 852.39 199.48" style="fill:none;stroke:#00c1a3;stroke-linejoin:round;stroke-width:2.18911522428715px"/></g><g style="clip-path:url(#clip-path-6)"><text transform="translate(41.69 312.31)" style="font-size:10.261480331420898px;font-family:ArialMT, Arial"><tspan style="letter-spacing:0.002950201776180578em">1</tspan><tspan x="5.74" y="0" style="letter-spacing:-0.008945773127773365em">5</tspan><tspan x="11.35" y="0" style="letter-spacing:0.002950201776180578em">00</tspan><tspan x="22.83" y="0">0</tspan></text></g><g style="clip-path:url(#clip-path-6)"><text transform="translate(41.69 255.28)" style="font-size:10.261480331420898px;font-family:ArialMT, Arial"><tspan style="letter-spacing:0.002950201776180578em">2</tspan><tspan x="5.74" y="0" style="letter-spacing:-0.008945773127773365em">0</tspan><tspan x="11.35" y="0" style="letter-spacing:0.002950201776180578em">00</tspan><tspan x="22.83" y="0">0</tspan></text></g><g style="clip-path:url(#clip-path-6)"><text transform="translate(41.69 198.24)" style="font-size:10.261480331420898px;font-family:ArialMT, Arial"><tspan style="letter-spacing:0.002950201776180578em">2</tspan><tspan x="5.74" y="0" style="letter-spacing:-0.008945773127773365em">5</tspan><tspan x="11.35" y="0" style="letter-spacing:0.002950201776180578em">00</tspan><tspan x="22.83" y="0">0</tspan></text></g><g style="clip-path:url(#clip-path-6)"><text transform="translate(41.69 141.2)" style="font-size:10.261480331420898px;font-family:ArialMT, Arial"><tspan style="letter-spacing:0.002950201776180578em">3</tspan><tspan x="5.74" y="0" style="letter-spacing:-0.008945773127773365em">0</tspan><tspan x="11.35" y="0" style="letter-spacing:0.002950201776180578em">00</tspan><tspan x="22.83" y="0">0</tspan></text></g><g style="clip-path:url(#clip-path-6)"><text transform="translate(41.69 84.16)" style="font-size:10.261480331420898px;font-family:ArialMT, Arial"><tspan style="letter-spacing:0.002950201776180578em">3</tspan><tspan x="5.74" y="0" style="letter-spacing:-0.008945773127773365em">5</tspan><tspan x="11.35" y="0" style="letter-spacing:0.002950201776180578em">00</tspan><tspan x="22.83" y="0">0</tspan></text></g><g style="clip-path:url(#clip-path-6)"><text transform="translate(41.69 27.12)" style="font-size:10.261480331420898px;font-family:ArialMT, Arial"><tspan style="letter-spacing:0.002950201776180578em">4</tspan><tspan x="5.74" y="0" style="letter-spacing:-0.008945773127773365em">0</tspan><tspan x="11.35" y="0" style="letter-spacing:0.002950201776180578em">00</tspan><tspan x="22.83" y="0">0</tspan></text></g><g style="clip-path:url(#clip-path-6)"><text transform="translate(104.4 324.55)" style="font-size:10.261480331420898px;font-family:ArialMT, Arial"><tspan style="letter-spacing:0.005995571351592788em">J</tspan><tspan x="5.19" y="0" style="letter-spacing:-0.009040940927004996em">a</tspan><tspan x="10.81" y="0">n</tspan></text></g><g style="clip-path:url(#clip-path-6)"><text transform="translate(171.07 324.55)" style="font-size:10.261480331420898px;font-family:ArialMT, Arial"><tspan style="letter-spacing:0.0019985237838642624em">F</tspan><tspan x="6.29" y="0" style="letter-spacing:0.002950201776180578em">e</tspan><tspan x="12.03" y="0">b</tspan></text></g><g style="clip-path:url(#clip-path-6)"><text transform="translate(238.33 324.55)" style="font-size:10.261480331420898px;font-family:ArialMT, Arial;letter-spacing:-0.005995571351592788em">M<tspan x="8.49" y="0" style="letter-spacing:0.002950201776180578em">a</tspan><tspan x="14.22" y="0" style="letter-spacing:0.00009516779923163155em">r</tspan></text></g><g style="clip-path:url(#clip-path-6)"><text transform="translate(306.42 324.55)" style="font-size:10.261480331420898px;font-family:ArialMT, Arial">A<tspan x="6.84" y="0" style="letter-spacing:0.002950201776180578em">p</tspan><tspan x="12.58" y="0">r</tspan></text></g><g style="clip-path:url(#clip-path-6)"><text transform="translate(371.96 324.55)" style="font-size:10.261480331420898px;font-family:ArialMT, Arial"><tspan style="letter-spacing:-0.005995571351592788em">M</tspan><tspan x="8.49" y="0" style="letter-spacing:0.002950201776180578em">a</tspan><tspan x="14.22" y="0">y</tspan></text></g><g style="clip-path:url(#clip-path-6)"><text transform="translate(440.62 324.55)" style="font-size:10.261480331420898px;font-family:ArialMT, Arial"><tspan style="letter-spacing:0.005995571351592788em">J</tspan><tspan x="5.19" y="0" style="letter-spacing:-0.009040940927004996em">u</tspan><tspan x="10.81" y="0">n</tspan></text></g><g style="clip-path:url(#clip-path-6)"><text transform="translate(509.58 324.55)" style="font-size:10.261480331420898px;font-family:ArialMT, Arial;letter-spacing:0.005995571351592788em">J<tspan x="5.19" y="0" style="letter-spacing:-0.009040940927004996em">u</tspan><tspan x="10.81" y="0" style="letter-spacing:0.00009516779923163155em">l</tspan></text></g><g style="clip-path:url(#clip-path-6)"><text transform="translate(574.25 324.55)" style="font-size:10.261480331420898px;font-family:ArialMT, Arial">A<tspan x="6.84" y="0" style="letter-spacing:0.002950201776180578em">u</tspan><tspan x="12.58" y="0">g</tspan></text></g><g style="clip-path:url(#clip-path-6)"><text transform="translate(641.49 324.55)" style="font-size:10.261480331420898px;font-family:ArialMT, Arial">S<tspan x="6.84" y="0" style="letter-spacing:0.002950201776180578em">e</tspan><tspan x="12.58" y="0">p</tspan></text></g><g style="clip-path:url(#clip-path-6)"><text transform="translate(709.88 324.55)" style="font-size:10.261480331420898px;font-family:ArialMT, Arial;letter-spacing:-0.003997047567728525em">O<tspan x="7.94" y="0" style="letter-spacing:0.005995571351592788em">c</tspan><tspan x="13.13" y="0" style="letter-spacing:0.00009516779923163155em">t</tspan></text></g><g style="clip-path:url(#clip-path-6)"><text transform="translate(775.98 324.55)" style="font-size:10.261480331420898px;font-family:ArialMT, Arial"><tspan style="letter-spacing:-0.0019985237838642624em">N</tspan><tspan x="7.39" y="0" style="letter-spacing:0.0030453695754122097em">o</tspan><tspan x="13.13" y="0">v</tspan></text></g><g style="clip-path:url(#clip-path-6)"><text transform="translate(843.23 324.55)" style="font-size:10.261480331420898px;font-family:ArialMT, Arial"><tspan style="letter-spacing:-0.0019985237838642624em">D</tspan><tspan x="7.39" y="0" style="letter-spacing:0.0030453695754122097em">e</tspan><tspan x="13.13" y="0">c</tspan></text></g><g style="clip-path:url(#clip-path-6)"><text transform="translate(18.2 227.31) rotate(-90)" style="font-size:11.356040000915527px;font-family:Arial-BoldMT, Arial;font-weight:700"><tspan style="letter-spacing:0.022014716395842647em">M</tspan><tspan x="9.71" y="0" style="letter-spacing:-0.001031939831055124em">a</tspan><tspan x="16.01" y="0" style="letter-spacing:-0.0029238295213228514em">r</tspan><tspan x="20.4" y="0" style="letter-spacing:-0.001031939831055124em">ke</tspan><tspan x="33.01" y="0" style="letter-spacing:0.004041764338299236em">t</tspan><tspan x="36.83" y="0"> </tspan><tspan x="39.99" y="0" style="letter-spacing:-0.004041764338299236em">P</tspan><tspan x="47.52" y="0" style="letter-spacing:-0.0029238295213228514em">r</tspan><tspan x="51.9" y="0" style="letter-spacing:-0.00008599498592126034em">i</tspan><tspan x="55.06" y="0" style="letter-spacing:-0.0009459448451338637em">ce</tspan><tspan x="67.67" y="0" style="letter-spacing:0.02296066124097651em"> </tspan><tspan x="71.08" y="0" style="letter-spacing:0.004041764338299236em">(</tspan><tspan x="74.91" y="0">R</tspan><tspan x="83.11" y="0" style="letter-spacing:-0.001031939831055124em">s</tspan><tspan x="89.42" y="0">./</tspan><tspan x="95.73" y="0" style="letter-spacing:0.021928721409921387em">M</tspan><tspan x="105.44" y="0" style="letter-spacing:0.015049122536220559em">T</tspan><tspan x="112.54" y="0">)</tspan></text></g><g style="clip-path:url(#clip-path-6)"><text transform="translate(423.29 341.85)" style="font-size:11.356040000915527px;font-family:Arial-BoldMT, Arial;font-weight:700"><tspan style="letter-spacing:0.022014716395842647em">M</tspan><tspan x="9.71" y="0" style="letter-spacing:0.0030098245072441117em">on</tspan><tspan x="23.65" y="0" style="letter-spacing:0.004041764338299236em">t</tspan><tspan x="27.48" y="0" style="letter-spacing:0.0030098245072441117em">h</tspan><tspan x="34.45" y="0" style="letter-spacing:-0.001031939831055124em">s</tspan><tspan x="40.75" y="0"> </tspan></text></g><g style="clip-path:url(#clip-path)"><line x1="250.24" y1="13.13" x2="272.13" y2="13.13" style="fill:none;stroke:#2935e8;stroke-linecap:round;stroke-linejoin:round;stroke-width:2.46275450839465px"/></g><g style="clip-path:url(#clip-path-6)"><text transform="translate(274.46 16.45)" style="font-size:10.261480331420898px;font-family:ArialMT, Arial">P<tspan x="6.84" y="0" style="letter-spacing:0.002950201776180578em">u</tspan><tspan x="12.58" y="0" style="letter-spacing:-0.009040940927004996em">n</tspan><tspan x="18.2" y="0" style="letter-spacing:0.0040922153669601564em">j</tspan><tspan x="20.52" y="0" style="letter-spacing:0.002950201776180578em">ab</tspan><tspan x="31.99" y="0" style="letter-spacing:-0.010944296911637627em"> </tspan><tspan x="34.73" y="0">(</tspan><tspan x="38.15" y="0" style="letter-spacing:0.01103946471086926em">R</tspan><tspan x="45.67" y="0" style="letter-spacing:-0.013037988494733522em">-</tspan><tspan x="48.96" y="0" style="letter-spacing:0.0030453695754122097em">10</tspan><tspan x="60.43" y="0">)</tspan></text></g><g style="clip-path:url(#clip-path)"><line x1="361.89" y1="13.13" x2="383.78" y2="13.13" style="fill:none;stroke:#ff25f3;stroke-linejoin:round;stroke-width:2.18911522428715px"/></g><g style="clip-path:url(#clip-path-6)"><text transform="translate(386.03 16.45)" style="font-size:10.261480331420898px;font-family:ArialMT, Arial"><tspan style="letter-spacing:-0.0019985237838642624em">H</tspan><tspan x="7.39" y="0" style="letter-spacing:0.0030453695754122097em">a</tspan><tspan x="13.13" y="0">r</tspan><tspan x="16.54" y="0" style="letter-spacing:-0.005995571351592788em">y</tspan><tspan x="21.61" y="0" style="letter-spacing:0.002950201776180578em">an</tspan><tspan x="33.09" y="0" style="letter-spacing:-0.009040940927004996em">a</tspan><tspan x="38.7" y="0" style="letter-spacing:0.0019985237838642624em"> </tspan><tspan x="41.58" y="0">(</tspan><tspan x="44.99" y="0" style="letter-spacing:-0.0019033559846326309em">R</tspan><tspan x="52.38" y="0">-</tspan><tspan x="55.8" y="0" style="letter-spacing:0.002950201776180578em">1</tspan><tspan x="61.54" y="0" style="letter-spacing:0.002093691583095894em">, </tspan><tspan x="67.28" y="0" style="letter-spacing:-0.0019033559846326309em">R</tspan><tspan x="74.67" y="0">-</tspan><tspan x="78.09" y="0" style="letter-spacing:0.002950201776180578em">2</tspan><tspan x="83.83" y="0">)</tspan></text></g><g style="clip-path:url(#clip-path)"><line x1="496.79" y1="13.13" x2="518.68" y2="13.13" style="fill:none;stroke:#00c1a3;stroke-linejoin:round;stroke-width:2.18911522428715px"/></g><g style="clip-path:url(#clip-path-6)"><text transform="translate(520.94 16.45)" style="font-size:10.261480331420898px;font-family:ArialMT, Arial"><tspan style="letter-spacing:-0.0019985237838642624em">U</tspan><tspan x="7.39" y="0" style="letter-spacing:0.002093691583095894em">tt</tspan><tspan x="13.13" y="0" style="letter-spacing:0.0030453695754122097em">a</tspan><tspan x="18.87" y="0">r</tspan><tspan x="22.29" y="0" style="letter-spacing:-0.010944296911637627em"> </tspan><tspan x="25.03" y="0" style="letter-spacing:-0.00009516779923163155em">Pr</tspan><tspan x="35.29" y="0" style="letter-spacing:0.0030453695754122097em">ad</tspan><tspan x="46.76" y="0" style="letter-spacing:-0.009040940927004996em">e</tspan><tspan x="52.38" y="0" style="letter-spacing:0.005995571351592788em">s</tspan><tspan x="57.57" y="0" style="letter-spacing:0.0030453695754122097em">h</tspan><tspan x="63.31" y="0" style="letter-spacing:0.0019985237838642624em"> </tspan><tspan x="66.18" y="0" style="letter-spacing:-0.01294282069550189em">(</tspan><tspan x="69.46" y="0" style="letter-spacing:0.01103946471086926em">R</tspan><tspan x="76.99" y="0">-</tspan><tspan x="80.4" y="0" style="letter-spacing:-0.009040940927004996em">9</tspan><tspan x="86.02" y="0" style="letter-spacing:0.002093691583095894em">, </tspan><tspan x="91.76" y="0" style="letter-spacing:-0.0019985237838642624em">R</tspan><tspan x="99.15" y="0">-</tspan><tspan x="102.57" y="0" style="letter-spacing:0.0030453695754122097em">10</tspan><tspan x="114.04" y="0" style="letter-spacing:-0.010944296911637627em">,</tspan><tspan x="116.78" y="0" style="letter-spacing:0.0019985237838642624em"> </tspan><tspan x="119.65" y="0" style="letter-spacing:-0.0019033559846326309em">R</tspan><tspan x="127.04" y="0">-</tspan><tspan x="130.46" y="0" style="letter-spacing:0.002950201776180578em">17</tspan><tspan x="141.94" y="0" style="letter-spacing:0.0019985237838642624em">,</tspan><tspan x="144.81" y="0" style="letter-spacing:-0.010944296911637627em"> </tspan><tspan x="147.54" y="0" style="letter-spacing:0.01103946471086926em">R</tspan><tspan x="155.07" y="0">-</tspan><tspan x="158.49" y="0" style="letter-spacing:-0.009040940927004996em">2</tspan><tspan x="164.1" y="0" style="letter-spacing:0.0030453695754122097em">2</tspan><tspan x="169.84" y="0">)</tspan></text></g><polygon points="0 0 900 0 900 350.67 0 350.67 0 0 0 0" style="fill:none;stroke:#d9d9d9;stroke-linejoin:round;stroke-width:0.820918260076994px"/></svg>