<svg id="Layer_1" data-name="Layer 1" xmlns="http://www.w3.org/2000/svg" xmlns:xlink="http://www.w3.org/1999/xlink" viewBox="0 0 900 350"><defs><clipPath id="clip-path"><polygon points="2.85 2.85 897.89 2.85 897.89 347.44 2.85 347.44 2.85 2.85 2.85 2.85" style="fill:none;clip-rule:evenodd"/></clipPath><clipPath id="clip-path-2"><polygon points="2.85 2.85 90.4 2.85 90.4 78.39 2.85 78.39 2.85 2.85 2.85 2.85" style="fill:none;clip-rule:evenodd"/></clipPath><clipPath id="clip-path-4"><polygon points="2.85 323.67 897.04 323.67 897.04 346.59 2.85 346.59 2.85 323.67 2.85 323.67" style="fill:none;clip-rule:evenodd"/></clipPath><clipPath id="clip-path-5"><polygon points="321.6 79.23 704.94 79.23 704.94 159.87 321.6 159.87 321.6 79.23 321.6 79.23" style="fill:none;clip-rule:evenodd"/></clipPath><clipPath id="clip-path-6"><polygon points="2.85 79.23 90.4 79.23 90.4 241.34 2.85 241.34 2.85 79.23 2.85 79.23" style="fill:none;clip-rule:evenodd"/></clipPath><clipPath id="clip-path-7"><polygon points="417.64 242.19 800.99 242.19 800.99 322.82 417.64 322.82 417.64 242.19 417.64 242.19" style="fill:none;clip-rule:evenodd"/></clipPath><clipPath id="clip-path-8"><polygon points="321.6 160.71 800.99 160.71 800.99 241.34 321.6 241.34 321.6 160.71 321.6 160.71" style="fill:none;clip-rule:evenodd"/></clipPath><clipPath id="clip-path-9"><polygon points="2 2 897.89 2 897.89 347.44 2 347.44 2 2 2 2" style="fill:none;clip-rule:evenodd"/></clipPath></defs><title>seasonal-calendar</title><g style="clip-path:url(#clip-path)"><polyline points="2 2 2 79.23 897.89 79.23 897.89 2 2 2" style="fill:#d9d9d9;fill-rule:evenodd"/><polyline points="897.04 2 897.04 79.23 916.59 79.23 916.59 2 897.04 2" style="fill:#fff;fill-rule:evenodd"/><polyline points="2 78.39 2 160.71 225.55 160.71 225.55 78.39 2 78.39" style="fill:#f2f2f2;fill-rule:evenodd"/><polyline points="224.7 78.39 224.7 160.71 321.6 160.71 321.6 78.39 224.7 78.39" style="fill:#5e9fff;fill-rule:evenodd"/><polyline points="320.75 78.39 320.75 160.71 705.79 160.71 705.79 78.39 320.75 78.39" style="fill:#06f;fill-rule:evenodd"/><polyline points="704.94 78.39 704.94 160.71 801.84 160.71 801.84 78.39 704.94 78.39" style="fill:#0044ab;fill-rule:evenodd"/><polyline points="800.99 78.39 800.99 160.71 916.59 160.71 916.59 78.39 800.99 78.39" style="fill:#fff;fill-rule:evenodd"/><polyline points="2 159.87 2 242.19 225.55 242.19 225.55 159.87 2 159.87" style="fill:#f2f2f2;fill-rule:evenodd"/><polyline points="224.7 159.87 224.7 242.19 321.6 242.19 321.6 159.87 224.7 159.87" style="fill:#5e9fff;fill-rule:evenodd"/><polyline points="320.75 159.87 320.75 242.19 801.84 242.19 801.84 159.87 320.75 159.87" style="fill:#06f;fill-rule:evenodd"/><polyline points="800.99 159.87 800.99 242.19 897.89 242.19 897.89 159.87 800.99 159.87" style="fill:#0044ab;fill-rule:evenodd"/><polyline points="897.04 159.87 897.04 242.19 916.59 242.19 916.59 159.87 897.04 159.87" style="fill:#fff;fill-rule:evenodd"/><polyline points="2 241.34 2 323.67 225.55 323.67 225.55 241.34 2 241.34" style="fill:#f2f2f2;fill-rule:evenodd"/><polyline points="224.7 241.34 224.7 323.67 321.6 323.67 321.6 241.34 224.7 241.34" style="fill:#fff;fill-rule:evenodd"/><polyline points="320.75 241.34 320.75 323.67 417.64 323.67 417.64 241.34 320.75 241.34" style="fill:#5e9fff;fill-rule:evenodd"/><polyline points="416.79 241.34 416.79 323.67 801.84 323.67 801.84 241.34 416.79 241.34" style="fill:#06f;fill-rule:evenodd"/><polyline points="800.99 241.34 800.99 323.67 897.89 323.67 897.89 241.34 800.99 241.34" style="fill:#0044ab;fill-rule:evenodd"/><polyline points="897.04 241.34 897.04 323.67 916.59 323.67 916.59 241.34 897.04 241.34" style="fill:#fff;fill-rule:evenodd"/><polyline points="2 322.82 2 361.86 916.59 361.86 916.59 322.82 2 322.82" style="fill:#fff;fill-rule:evenodd"/></g><g style="clip-path:url(#clip-path-2)"><text transform="translate(9.65 37.65)" style="font-size:11.033550262451172px;font-family:Arial-BoldMT, Arial;font-weight:700;letter-spacing:-0.028987872062179336em">A<tspan x="7.65" y="0" style="letter-spacing:0.003976994642677043em">g</tspan><tspan x="14.43" y="0" style="letter-spacing:-0.003976994642677043em">r</tspan><tspan x="18.68" y="0" style="letter-spacing:0.003976994642677043em">o</tspan><tspan x="25.47" y="0" style="letter-spacing:-0.025010877419502288em">-</tspan><tspan x="28.86" y="0" style="letter-spacing:-0.02889949440345318em">C</tspan><tspan x="36.51" y="0" style="letter-spacing:0.02889949440345318em">li</tspan><tspan x="43.28" y="0" style="letter-spacing:0.03305324436358253em">m</tspan><tspan x="53.46" y="0" style="letter-spacing:0.058947898370346384em">a</tspan><tspan x="60.24" y="0" style="letter-spacing:-0.025010877419502288em">t</tspan><tspan x="63.64" y="0" style="letter-spacing:0.028987872062179336em">i</tspan><tspan x="67.03" y="0" style="letter-spacing:-0.01696851047542205em">c</tspan><tspan x="72.98" y="0" style="letter-spacing:-0.0000883776587261565em"> </tspan></text><text transform="translate(33.45 52.07)" style="font-size:11.033550262451172px;font-family:Arial-BoldMT, Arial;font-weight:700"><tspan style="letter-spacing:-0.07202779186181756em">Z</tspan><tspan x="5.95" y="0" style="letter-spacing:0.003976994642677043em">on</tspan><tspan x="19.51" y="0">e</tspan></text></g><g style="clip-path:url(#clip-path)"><text transform="translate(138.86 44.44)" style="font-size:11.033550262451172px;font-family:Arial-BoldMT, Arial;font-weight:700"><tspan style="letter-spacing:-0.028987872062179336em">R</tspan><tspan x="7.65" y="0" style="letter-spacing:0.05903627602907255em">e</tspan><tspan x="14.44" y="0" style="letter-spacing:0.003976994642677043em">g</tspan><tspan x="21.22" y="0" style="letter-spacing:0.028987872062179336em">i</tspan><tspan x="24.61" y="0" style="letter-spacing:0.0038886169839508866em">o</tspan><tspan x="31.39" y="0">n</tspan></text><text transform="translate(262.1 44.44)" style="font-size:11.033550262451172px;font-family:Arial-BoldMT, Arial;font-weight:700"><tspan style="letter-spacing:0.012991515832745007em">M</tspan><tspan x="9.33" y="0" style="letter-spacing:0.058947898370346384em">a</tspan><tspan x="16.12" y="0">y</tspan></text><text transform="translate(359.85 44.44)" style="font-size:11.033550262451172px;font-family:Arial-BoldMT, Arial;font-weight:700"><tspan style="letter-spacing:-0.01696851047542205em">J</tspan><tspan x="5.95" y="0" style="letter-spacing:0.0038886169839508866em">u</tspan><tspan x="12.73" y="0">n</tspan></text><text transform="translate(457.6 44.44)" style="font-size:11.033550262451172px;font-family:Arial-BoldMT, Arial;font-weight:700"><tspan style="letter-spacing:-0.01696851047542205em">J</tspan><tspan x="5.95" y="0" style="letter-spacing:0.0038886169839508866em">u</tspan><tspan x="12.73" y="0">l</tspan></text><text transform="translate(551.1 44.44)" style="font-size:11.033550262451172px;font-family:Arial-BoldMT, Arial;font-weight:700"><tspan style="letter-spacing:-0.028987872062179336em">A</tspan><tspan x="7.65" y="0" style="letter-spacing:0.003976994642677043em">u</tspan><tspan x="14.43" y="0">g</tspan></text><text transform="translate(647.15 44.44)" style="font-size:11.033550262451172px;font-family:Arial-BoldMT, Arial;font-weight:700"><tspan style="letter-spacing:0.025010877419502288em">S</tspan><tspan x="7.64" y="0" style="letter-spacing:0.058947898370346384em">e</tspan><tspan x="14.42" y="0">p</tspan></text><text transform="translate(744.9 44.44)" style="font-size:11.033550262451172px;font-family:Arial-BoldMT, Arial;font-weight:700"><tspan style="letter-spacing:-0.007953989285354086em">O</tspan><tspan x="8.49" y="0" style="letter-spacing:-0.017056888134148206em">c</tspan><tspan x="14.44" y="0">t</tspan></text><text transform="translate(839.24 44.44)" style="font-size:11.033550262451172px;font-family:Arial-BoldMT, Arial;font-weight:700"><tspan style="letter-spacing:-0.028987872062179336em">N</tspan><tspan x="7.65" y="0" style="letter-spacing:0.003976994642677043em">o</tspan><tspan x="14.43" y="0">v</tspan></text><text transform="translate(100.6 123.37)" style="font-size:11.033550262451172px;font-family:Arial-BoldMT, Arial;font-weight:700"><tspan style="letter-spacing:-0.028987872062179336em">R</tspan><tspan x="7.65" y="0" style="letter-spacing:-0.025010877419502288em">-</tspan><tspan x="11.05" y="0">3</tspan></text><text transform="translate(100.6 204.85)" style="font-size:11.033550262451172px;font-family:Arial-BoldMT, Arial;font-weight:700"><tspan style="letter-spacing:-0.028987872062179336em">R</tspan><tspan x="7.65" y="0" style="letter-spacing:-0.025010877419502288em">-</tspan><tspan x="11.05" y="0" style="letter-spacing:-0.01696851047542205em">4</tspan><tspan x="17" y="0" style="letter-spacing:0.028987872062179336em">, </tspan><tspan x="23.77" y="0" style="letter-spacing:-0.028987872062179336em">R</tspan><tspan x="31.41" y="0" style="letter-spacing:-0.025010877419502288em">-</tspan><tspan x="34.81" y="0">5</tspan></text><text transform="translate(35.16 286.32)" style="font-size:11.033550262451172px;font-family:Arial-BoldMT, Arial;font-weight:700"><tspan style="letter-spacing:-0.028987872062179336em">U</tspan><tspan x="7.65" y="0" style="letter-spacing:-0.007953989285354086em">G</tspan><tspan x="16.14" y="0">P</tspan></text><text transform="translate(100.6 286.32)" style="font-size:11.033550262451172px;font-family:Arial-BoldMT, Arial;font-weight:700"><tspan style="letter-spacing:-0.028987872062179336em">R</tspan><tspan x="7.65" y="0" style="letter-spacing:-0.025010877419502288em">-</tspan><tspan x="11.05" y="0" style="letter-spacing:-0.01696851047542205em">9</tspan><tspan x="17" y="0" style="letter-spacing:0.028987872062179336em">, </tspan><tspan x="23.77" y="0" style="letter-spacing:-0.028987872062179336em">R</tspan><tspan x="31.41" y="0" style="letter-spacing:-0.025010877419502288em">-</tspan><tspan x="34.81" y="0" style="letter-spacing:-0.017056888134148206em">10</tspan><tspan x="46.71" y="0" style="letter-spacing:0.028987872062179336em">, </tspan><tspan x="53.48" y="0" style="letter-spacing:-0.028987872062179336em">R</tspan><tspan x="61.13" y="0" style="letter-spacing:-0.025010877419502288em">-</tspan><tspan x="64.53" y="0" style="letter-spacing:-0.01696851047542205em">17</tspan><tspan x="76.42" y="0" style="letter-spacing:0.028987872062179336em">, </tspan><tspan x="83.2" y="0" style="letter-spacing:-0.028987872062179336em">R</tspan><tspan x="90.84" y="0" style="letter-spacing:-0.025010877419502288em">-</tspan><tspan x="94.24" y="0" style="letter-spacing:-0.01696851047542205em">2</tspan><tspan x="100.19" y="0">2</tspan></text></g><g style="clip-path:url(#clip-path-4)"><text transform="translate(4.55 338.09)" style="font-size:10.184809684753418px;font-family:ArialMT, Arial"><tspan style="letter-spacing:0.02699939049308886em">No</tspan><tspan x="13.57" y="0" style="letter-spacing:-0.02699939049308886em">t</tspan><tspan x="16.12" y="0" style="letter-spacing:0.026903647973609824em">e</tspan><tspan x="22.06" y="0" style="letter-spacing:-0.02699939049308886em">:</tspan><tspan x="24.62" y="0"> </tspan></text><text transform="translate(31.75 338.09)" style="font-size:10.184809684753418px;font-family:Arial-BoldMT, Arial;font-weight:700;letter-spacing:-0.02699939049308886em">T<tspan x="5.95" y="0" style="letter-spacing:-0.11096558007620563em">G</tspan><tspan x="12.74" y="0" style="letter-spacing:-0.00009574251947903851em">P</tspan></text><text transform="translate(51.3 338.09)" style="font-size:10.184809684753418px;font-family:ArialMT, Arial"><tspan xml:space="preserve" style="letter-spacing:-0.02699939049308886em"> T</tspan><tspan x="8.5" y="0">r</tspan><tspan x="11.89" y="0" style="letter-spacing:0.02699939049308886em">an</tspan><tspan x="23.77" y="0" style="letter-spacing:0.08300876438832638em">s</tspan><tspan x="29.71" y="0">-</tspan><tspan x="33.1" y="0" style="letter-spacing:-0.02699939049308886em">G</tspan><tspan x="40.75" y="0" style="letter-spacing:0.02699939049308886em">ange</tspan><tspan x="64.51" y="0" style="letter-spacing:-0.02699939049308886em">t</tspan><tspan x="67.06" y="0" style="letter-spacing:0.02699939049308886em">i</tspan><tspan x="69.6" y="0">c</tspan><tspan x="74.69" y="0" style="letter-spacing:-0.02699939049308886em"> </tspan><tspan x="77.24" y="0">P</tspan><tspan x="84.04" y="0" style="letter-spacing:0.02699939049308886em">lain</tspan><tspan x="100.99" y="0" style="letter-spacing:-0.02699939049308886em">,</tspan><tspan x="103.55" y="0"> </tspan></text><text transform="translate(157.55 338.09)" style="font-size:10.184809684753418px;font-family:Arial-BoldMT, Arial;font-weight:700"><tspan style="letter-spacing:-0.05505194870044714em">U</tspan><tspan x="6.79" y="0" style="letter-spacing:-0.11096558007620563em">G</tspan><tspan x="13.59" y="0">P</tspan></text><text transform="translate(177.95 338.09)" style="font-size:10.184809684753418px;font-family:ArialMT, Arial"><tspan style="letter-spacing:-0.02699939049308886em"> </tspan><tspan x="2.55" y="0" style="letter-spacing:0.02699939049308886em">Uppe</tspan><tspan x="28" y="0">r</tspan><tspan x="31.39" y="0" xml:space="preserve" style="letter-spacing:-0.02699939049308886em"> G</tspan><tspan x="41.6" y="0" style="letter-spacing:0.02699939049308886em">ange</tspan><tspan x="65.35" y="0" style="letter-spacing:-0.02699939049308886em">t</tspan><tspan x="67.91" y="0" style="letter-spacing:0.02699939049308886em">i</tspan><tspan x="70.45" y="0">c</tspan><tspan x="75.54" y="0" style="letter-spacing:-0.02699939049308886em"> </tspan><tspan x="78.09" y="0">P</tspan><tspan x="84.89" y="0" style="letter-spacing:0.02699939049308886em">lai</tspan><tspan x="95.9" y="0" style="letter-spacing:-0.00009574251947903851em">n</tspan></text></g><g style="clip-path:url(#clip-path-5)"><text transform="translate(497.55 123.37)" style="font-size:11.033550262451172px;fill:#fff;font-family:Arial-BoldMT, Arial;font-weight:700"><tspan style="letter-spacing:-0.028987872062179336em">K</tspan><tspan x="7.65" y="0" style="letter-spacing:0.003976994642677043em">h</tspan><tspan x="14.43" y="0" style="letter-spacing:0.05903627602907255em">a</tspan><tspan x="21.22" y="0" style="letter-spacing:-0.003976994642677043em">r</tspan><tspan x="25.47" y="0" style="letter-spacing:0.028987872062179336em">i</tspan><tspan x="28.85" y="0">f</tspan></text></g><g style="clip-path:url(#clip-path-6)"><text transform="translate(35.16 164.1)" style="font-size:11.033550262451172px;font-family:Arial-BoldMT, Arial;font-weight:700"><tspan style="letter-spacing:0.003976994642677043em">T</tspan><tspan x="6.78" y="0" style="letter-spacing:-0.007953989285354086em">G</tspan><tspan x="15.28" y="0">P</tspan></text></g><g style="clip-path:url(#clip-path-7)"><text transform="translate(593.59 286.32)" style="font-size:11.033550262451172px;fill:#fff;font-family:Arial-BoldMT, Arial;font-weight:700"><tspan style="letter-spacing:-0.028987872062179336em">K</tspan><tspan x="7.65" y="0" style="letter-spacing:0.003976994642677043em">h</tspan><tspan x="14.43" y="0" style="letter-spacing:0.05903627602907255em">a</tspan><tspan x="21.22" y="0" style="letter-spacing:-0.003976994642677043em">r</tspan><tspan x="25.47" y="0" style="letter-spacing:0.028987872062179336em">i</tspan><tspan x="28.85" y="0">f</tspan></text></g><g style="clip-path:url(#clip-path-8)"><text transform="translate(545.15 204.85)" style="font-size:11.033550262451172px;fill:#fff;font-family:Arial-BoldMT, Arial;font-weight:700"><tspan style="letter-spacing:-0.028987872062179336em">K</tspan><tspan x="7.65" y="0" style="letter-spacing:0.003976994642677043em">h</tspan><tspan x="14.43" y="0" style="letter-spacing:0.05903627602907255em">a</tspan><tspan x="21.22" y="0" style="letter-spacing:-0.003976994642677043em">r</tspan><tspan x="25.47" y="0" style="letter-spacing:0.028987872062179336em">i</tspan><tspan x="28.85" y="0">f</tspan></text></g><g style="clip-path:url(#clip-path-9)"><polyline points="2.85 2 2.85 2.85 897.89 2.85 897.89 2 2.85 2" style="fill:#bfbfbf;fill-rule:evenodd"/><polyline points="320.75 2.85 320.75 79.23 321.6 79.23 321.6 2.85 320.75 2.85" style="fill:#bfbfbf;fill-rule:evenodd"/><polyline points="704.94 2.85 704.94 79.23 705.79 79.23 705.79 2.85 704.94 2.85" style="fill:#bfbfbf;fill-rule:evenodd"/><polyline points="800.99 2.85 800.99 79.23 801.84 79.23 801.84 2.85 800.99 2.85" style="fill:#bfbfbf;fill-rule:evenodd"/><polyline points="2.85 78.39 2.85 79.23 897.89 79.23 897.89 78.39 2.85 78.39" style="fill:#bfbfbf;fill-rule:evenodd"/><polyline points="91.25 159.87 91.25 160.71 897.89 160.71 897.89 159.87 91.25 159.87" style="fill:#bfbfbf;fill-rule:evenodd"/><polyline points="416.79 2.85 416.79 79.23 417.64 79.23 417.64 2.85 416.79 2.85" style="fill:#bfbfbf;fill-rule:evenodd"/><polyline points="2.85 241.34 2.85 242.19 897.89 242.19 897.89 241.34 2.85 241.34" style="fill:#bfbfbf;fill-rule:evenodd"/><polyline points="2 2 2 323.67 2.85 323.67 2.85 2 2 2" style="fill:#bfbfbf;fill-rule:evenodd"/><polyline points="2.85 322.82 2.85 323.67 897.89 323.67 897.89 322.82 2.85 322.82" style="fill:#bfbfbf;fill-rule:evenodd"/><polyline points="897.04 2.85 897.04 323.67 897.89 323.67 897.89 2.85 897.04 2.85" style="fill:#bfbfbf;fill-rule:evenodd"/><polyline points="90.4 2.85 90.4 323.67 91.25 323.67 91.25 2.85 90.4 2.85" style="fill:#bfbfbf;fill-rule:evenodd"/><polyline points="224.7 2.85 224.7 323.67 225.55 323.67 225.55 2.85 224.7 2.85" style="fill:#bfbfbf;fill-rule:evenodd"/><polyline points="512.84 2.85 512.84 79.23 513.69 79.23 513.69 2.85 512.84 2.85" style="fill:#bfbfbf;fill-rule:evenodd"/><polyline points="608.89 2.85 608.89 79.23 609.74 79.23 609.74 2.85 608.89 2.85" style="fill:#bfbfbf;fill-rule:evenodd"/></g></svg>