<svg id="Layer_1" data-name="Layer 1" xmlns="http://www.w3.org/2000/svg" xmlns:xlink="http://www.w3.org/1999/xlink" viewBox="0 0 900 350"><defs><clipPath id="clip-path"><polygon points="2.99 347.96 897.52 347.96 897.52 1.83 2.99 1.83 2.99 347.96 2.99 347.96" style="fill:none;clip-rule:evenodd"/></clipPath><clipPath id="clip-path-2"><polygon points="70.33 306.84 883.56 306.84 883.56 18.35 70.33 18.35 70.33 306.84 70.33 306.84" style="fill:none;clip-rule:evenodd"/></clipPath><clipPath id="clip-path-6"><rect x="2.99" y="1.83" width="894.52" height="346.13" style="fill:none"/></clipPath></defs><title>yar</title><polygon points="3.13 1.96 897.65 1.96 897.65 347.96 3.13 347.96 3.13 1.96 3.13 1.96" style="fill:#eaeaea;fill-rule:evenodd"/><polygon points="70.33 18.35 882.75 18.35 882.75 306.17 70.33 306.17 70.33 18.35 70.33 18.35" style="fill:#fff;fill-rule:evenodd"/><path d="M70.33,306.17H882.75M70.33,162.26H882.75M70.33,90.37H882.75m-812.42-72H882.75" style="fill:none;stroke:#d9d9d9;stroke-linejoin:round;stroke-width:0.809572976631063px"/><g style="clip-path:url(#clip-path)"><path d="M70.33,18.35V306.17M186.45,18.35V306.17m116-287.82V306.17M418.55,18.35V306.17m116-287.82V306.17M650.65,18.35V306.17m116-287.82V306.17M882.75,18.35V306.17" style="fill:none;stroke:#d9d9d9;stroke-linejoin:round;stroke-width:0.809572976631063px"/></g><g style="clip-path:url(#clip-path-2)"><path d="M105.16,234.15h46.47V245.7H105.16V234.15Zm116.11,0h46.34v1.48H221.27v-1.48Zm116,0h46.48v9.4H337.25v-9.4Zm116.12,0h46.34V245.7H453.37V234.15Zm116,0h46.48v13H569.35v-13Zm116.12,0h46.34V245.7H685.47V234.15Zm116,0h46.48v14.37H801.45V234.15Z" style="fill:#ff25f3"/></g><g style="clip-path:url(#clip-path-2)"><path d="M105.16,76h46.47V234.15H105.16V76Zm116.11,3.49h46.34V234.15H221.27V79.49Zm116,3.63h46.48v151H337.25v-151Zm116.12,7.25h46.34V234.15H453.37V90.37Zm116,0h46.48V234.15H569.35V90.37ZM685.47,76h46.34V234.15H685.47V76Zm116,7.12h46.48v151H801.45v-151Z" style="fill:#5e9fff"/></g><g style="clip-path:url(#clip-path-2)"><path d="M105.16,64.58h46.47V76H105.16V64.58ZM221.27,78h46.34v1.48H221.27V78Zm116-4.16h46.48v9.27H337.25V73.85ZM453.37,79h46.34V90.37H453.37V79Zm116-1.34h46.48V90.37H569.35V77.61ZM685.47,64.44h46.34V76H685.47V64.44Zm116,4.44h46.48V83.12H801.45V68.88Z" style="fill:#0044ab"/></g><g style="clip-path:url(#clip-path)"><line x1="70.33" y1="234.15" x2="882.75" y2="234.15" style="fill:none;stroke:#d9d9d9;stroke-linejoin:round;stroke-width:0.809572976631063px"/></g><g style="clip-path:url(#clip-path-6)"><text transform="translate(116.66 264.63) scale(1.01 1)" style="font-size:11.82433032989502px;font-family:ArialMT, Arial">-</text></g><g style="clip-path:url(#clip-path-6)"><text transform="translate(120.59 264.63) scale(1.01 1)" style="font-size:11.82433032989502px;font-family:ArialMT, Arial">7%</text></g><g style="clip-path:url(#clip-path-6)"><text transform="translate(233.85 250.27) scale(1.01 1)" style="font-size:11.82433032989502px;font-family:ArialMT, Arial">-</text></g><g style="clip-path:url(#clip-path-6)"><text transform="translate(237.78 250.27) scale(1.01 1)" style="font-size:11.82433032989502px;font-family:ArialMT, Arial">1%</text></g><g style="clip-path:url(#clip-path-6)"><text transform="translate(349.9 261.27) scale(1.01 1)" style="font-size:11.82433032989502px;font-family:ArialMT, Arial">-</text></g><g style="clip-path:url(#clip-path-6)"><text transform="translate(353.83 261.27) scale(1.01 1)" style="font-size:11.82433032989502px;font-family:ArialMT, Arial">6%</text></g><g style="clip-path:url(#clip-path-6)"><text transform="translate(465.95 259.03) scale(1.01 1)" style="font-size:11.82433032989502px;font-family:ArialMT, Arial">-</text></g><g style="clip-path:url(#clip-path-6)"><text transform="translate(469.89 259.03) scale(1.01 1)" style="font-size:11.82433032989502px;font-family:ArialMT, Arial">8%</text></g><g style="clip-path:url(#clip-path-6)"><text transform="translate(579.75 260.15) scale(1.01 1)" style="font-size:11.82433032989502px;font-family:ArialMT, Arial">-</text></g><g style="clip-path:url(#clip-path-6)"><text transform="translate(583.68 260.15) scale(1.01 1)" style="font-size:11.82433032989502px;font-family:ArialMT, Arial">9%</text></g><g style="clip-path:url(#clip-path-6)"><text transform="translate(698.06 263.51) scale(1.01 1)" style="font-size:11.82433032989502px;font-family:ArialMT, Arial">-</text></g><g style="clip-path:url(#clip-path-6)"><text transform="translate(701.99 263.51) scale(1.01 1)" style="font-size:11.82433032989502px;font-family:ArialMT, Arial">7%</text></g><g style="clip-path:url(#clip-path-6)"><text transform="translate(811.85 264.63) scale(1.01 1)" style="font-size:11.82433032989502px;font-family:ArialMT, Arial">-</text></g><g style="clip-path:url(#clip-path-6)"><text transform="translate(815.79 264.63) scale(1.01 1)" style="font-size:11.82433032989502px;font-family:ArialMT, Arial">9%</text></g><g style="clip-path:url(#clip-path-6)"><text transform="translate(117.44 55.02) scale(1.01 1)" style="font-size:11.82433032989502px;font-family:ArialMT, Arial;letter-spacing:-0.0040132816095775955em">+<tspan x="6.86" y="0" style="letter-spacing:0.00008190370631791009em">7%</tspan></text></g><g style="clip-path:url(#clip-path-6)"><text transform="translate(232.36 65.62) scale(1.01 1)" style="font-size:11.82433032989502px;font-family:ArialMT, Arial;letter-spacing:-0.0040132816095775955em">+<tspan x="6.86" y="0" style="letter-spacing:0.00008190370631791009em">1%</tspan></text></g><g style="clip-path:url(#clip-path-6)"><text transform="translate(348.41 66.55) scale(1.01 1)" style="font-size:11.82433032989502px;font-family:ArialMT, Arial;letter-spacing:-0.0040132816095775955em">+<tspan x="6.86" y="0" style="letter-spacing:0.00008190370631791009em">6%</tspan></text></g><g style="clip-path:url(#clip-path-6)"><text transform="translate(464.46 70.52) scale(1.01 1)" style="font-size:11.82433032989502px;font-family:ArialMT, Arial;letter-spacing:-0.0040132816095775955em">+<tspan x="6.86" y="0" style="letter-spacing:0.00008190370631791009em">8%</tspan></text></g><g style="clip-path:url(#clip-path-6)"><text transform="translate(579.39 67.16) scale(1.01 1)" style="font-size:11.82433032989502px;font-family:ArialMT, Arial;letter-spacing:-0.0040132816095775955em">+<tspan x="6.86" y="0" style="letter-spacing:0.00008190370631791009em">9%</tspan></text></g><g style="clip-path:url(#clip-path-6)"><text transform="translate(696.57 59.12) scale(1.01 1)" style="font-size:11.82433032989502px;font-family:ArialMT, Arial;letter-spacing:-0.0040132816095775955em">+<tspan x="6.86" y="0" style="letter-spacing:0.00008190370631791009em">7%</tspan></text></g><g style="clip-path:url(#clip-path-6)"><text transform="translate(812.63 61.26) scale(1.01 1)" style="font-size:11.82433032989502px;font-family:ArialMT, Arial;letter-spacing:-0.0040132816095775955em">+<tspan x="6.86" y="0" style="letter-spacing:0.00008190370631791009em">9%</tspan></text></g><g style="clip-path:url(#clip-path-6)"><text transform="translate(33.14 309.85) scale(1.01 1)" style="font-size:11.82433032989502px;font-family:ArialMT, Arial"><tspan style="letter-spacing:-0.0030304371337626732em">-</tspan><tspan x="3.9" y="0" style="letter-spacing:0.00008190370631791009em">1</tspan><tspan x="10.48" y="0" style="letter-spacing:-0.004996126085392515em">.</tspan><tspan x="13.7" y="0">00</tspan></text></g><g style="clip-path:url(#clip-path-6)"><text transform="translate(37.09 237.91) scale(1.01 1)" style="font-size:11.82433032989502px;font-family:ArialMT, Arial">0<tspan x="6.58" y="0" style="letter-spacing:-0.004996126085392515em">.</tspan><tspan x="9.8" y="0" style="letter-spacing:0.00008190370631791009em">00</tspan></text></g><g style="clip-path:url(#clip-path-6)"><text transform="translate(37.09 165.98) scale(1.01 1)" style="font-size:11.82433032989502px;font-family:ArialMT, Arial">1<tspan x="6.58" y="0" style="letter-spacing:-0.004996126085392515em">.</tspan><tspan x="9.8" y="0" style="letter-spacing:0.00008190370631791009em">00</tspan></text></g><g style="clip-path:url(#clip-path-6)"><text transform="translate(37.09 94.05) scale(1.01 1)" style="font-size:11.82433032989502px;font-family:ArialMT, Arial">2<tspan x="6.58" y="0" style="letter-spacing:-0.004996126085392515em">.</tspan><tspan x="9.8" y="0" style="letter-spacing:0.00008190370631791009em">00</tspan></text></g><g style="clip-path:url(#clip-path-6)"><text transform="translate(37.09 22.11) scale(1.01 1)" style="font-size:11.82433032989502px;font-family:ArialMT, Arial">3<tspan x="6.58" y="0" style="letter-spacing:-0.004996126085392515em">.</tspan><tspan x="9.8" y="0" style="letter-spacing:0.00008190370631791009em">00</tspan></text></g><g style="clip-path:url(#clip-path-6)"><text transform="translate(118.84 323.85) scale(1.01 1)" style="font-size:11.82433032989502px;font-family:ArialMT, Arial;letter-spacing:-0.0059789705612074365em">R<tspan x="8.47" y="0" style="letter-spacing:-0.0030304371337626732em">-</tspan><tspan x="12.37" y="0" style="letter-spacing:0.00008190370631791009em">3</tspan></text></g><g style="clip-path:url(#clip-path-6)"><text transform="translate(234.89 323.85) scale(1.01 1)" style="font-size:11.82433032989502px;font-family:ArialMT, Arial;letter-spacing:-0.0059789705612074365em">R<tspan x="8.47" y="0" style="letter-spacing:-0.0030304371337626732em">-</tspan><tspan x="12.37" y="0" style="letter-spacing:0.00008190370631791009em">4</tspan></text></g><g style="clip-path:url(#clip-path-6)"><text transform="translate(350.94 323.85) scale(1.01 1)" style="font-size:11.82433032989502px;font-family:ArialMT, Arial;letter-spacing:-0.0059789705612074365em">R<tspan x="8.47" y="0" style="letter-spacing:-0.0030304371337626732em">-</tspan><tspan x="12.37" y="0" style="letter-spacing:0.00008190370631791009em">5</tspan></text></g><g style="clip-path:url(#clip-path-6)"><text transform="translate(467 323.85) scale(1.01 1)" style="font-size:11.82433032989502px;font-family:ArialMT, Arial;letter-spacing:-0.0059789705612074365em">R<tspan x="8.47" y="0" style="letter-spacing:-0.0030304371337626732em">-</tspan><tspan x="12.37" y="0" style="letter-spacing:0.00008190370631791009em">9</tspan></text></g><g style="clip-path:url(#clip-path-6)"><text transform="translate(579.75 323.85) scale(1.01 1)" style="font-size:11.82433032989502px;font-family:ArialMT, Arial;letter-spacing:-0.0059789705612074365em">R<tspan x="8.47" y="0" style="letter-spacing:-0.0030304371337626732em">-</tspan><tspan x="12.37" y="0" style="letter-spacing:0.00008190370631791009em">10</tspan></text></g><g style="clip-path:url(#clip-path-6)"><text transform="translate(695.81 323.85) scale(1.01 1)" style="font-size:11.82433032989502px;font-family:ArialMT, Arial;letter-spacing:-0.0059789705612074365em">R<tspan x="8.47" y="0" style="letter-spacing:-0.0030304371337626732em">-</tspan><tspan x="12.37" y="0" style="letter-spacing:0.00008190370631791009em">17</tspan></text></g><g style="clip-path:url(#clip-path-6)"><text transform="translate(811.86 323.85) scale(1.01 1)" style="font-size:11.82433032989502px;font-family:ArialMT, Arial;letter-spacing:-0.0059789705612074365em">R<tspan x="8.47" y="0" style="letter-spacing:-0.0030304371337626732em">-</tspan><tspan x="12.37" y="0" style="letter-spacing:0.00008190370631791009em">22</tspan></text></g><g style="clip-path:url(#clip-path-6)"><text transform="translate(23.78 234.56) rotate(-90) scale(0.99 1)" style="font-size:11.92335033416748px;font-family:Arial-BoldMT, Arial;font-weight:700"><tspan style="letter-spacing:-0.0050379708293131495em">Q</tspan><tspan x="9.21" y="0" style="letter-spacing:0.0020647421431611262em">u</tspan><tspan x="16.52" y="0">a</tspan><tspan x="23.15" y="0" style="letter-spacing:0.0019821524574346818em">n</tspan><tspan x="30.46" y="0" style="letter-spacing:-0.002973228686152023em">t</tspan><tspan x="34.4" y="0" style="letter-spacing:-0.0050379708293131495em">i</tspan><tspan x="37.65" y="0" style="letter-spacing:-0.002973228686152023em">t</tspan><tspan x="41.58" y="0" style="letter-spacing:-0.022051446088960834em">y</tspan><tspan x="47.95" y="0" style="letter-spacing:0.00602904705803049em"> </tspan><tspan x="51.34" y="0" style="letter-spacing:0.0050379708293131495em">&amp;</tspan><tspan x="60.01" y="0" style="letter-spacing:-0.0050379708293131495em"> </tspan><tspan x="63.26" y="0" style="letter-spacing:-0.007020123286747831em">Y</tspan><tspan x="71.13" y="0">a</tspan><tspan x="77.76" y="0" style="letter-spacing:0.0050379708293131495em">R</tspan><tspan x="86.43" y="0" style="letter-spacing:-0.016022399030930345em"> </tspan><tspan x="89.55" y="0" style="letter-spacing:-0.002973228686152023em">(</tspan><tspan x="93.49" y="0" style="letter-spacing:0.018995627717082367em">M</tspan><tspan x="103.65" y="0" style="letter-spacing:0.0019821524574346818em">T</tspan><tspan x="110.95" y="0">)</tspan></text></g><g style="clip-path:url(#clip-path-6)"><text transform="translate(427.84 338.1) scale(1.01 1)" style="font-size:11.82433032989502px;font-family:Arial-BoldMT, Arial;font-weight:700"><tspan style="letter-spacing:0.004996126085392515em">R</tspan><tspan x="8.6" y="0" style="letter-spacing:0.00008190370631791009em">e</tspan><tspan x="15.17" y="0" style="letter-spacing:0.001965688951629842em">g</tspan><tspan x="22.42" y="0" style="letter-spacing:-0.004996126085392515em">i</tspan><tspan x="25.65" y="0" style="letter-spacing:0.0020475926579477523em">on</tspan><tspan x="40.14" y="0">s</tspan></text></g><polygon points="3.13 1.96 897.65 1.96 897.65 347.96 3.13 347.96 3.13 1.96 3.13 1.96" style="fill:none;stroke:#d9d9d9;stroke-linejoin:round;stroke-width:0.80957304365094px"/></svg>