<svg id="Layer_1" data-name="Layer 1" xmlns="http://www.w3.org/2000/svg" xmlns:xlink="http://www.w3.org/1999/xlink" viewBox="0 0 900 350"><defs><clipPath id="clip-path"><polygon points="2 346.91 897.51 346.91 897.51 2.27 2 2.27 2 346.91 2 346.91" style="fill:none;clip-rule:evenodd"/></clipPath><clipPath id="clip-path-2"><polygon points="86.34 303.71 867.93 303.71 867.93 19.55 86.34 19.55 86.34 303.71 86.34 303.71" style="fill:none;clip-rule:evenodd"/></clipPath><clipPath id="clip-path-14"><rect x="2" y="2.27" width="895.51" height="344.64" style="fill:none"/></clipPath></defs><title>ground-truth-risk-report</title><polygon points="2 2.27 897.65 2.27 897.65 346.91 2 346.91 2 2.27 2 2.27" style="fill:#f2f2f2;fill-rule:evenodd"/><polygon points="86.34 19.69 867.1 19.69 867.1 302.88 86.34 302.88 86.34 19.69 86.34 19.69" style="fill:#fff;fill-rule:evenodd"/><path d="M86.34,232.08H867.1M86.34,161.28H867.1M86.34,90.49H867.1M86.34,19.69H867.1" style="fill:none;stroke:#d9d9d9;stroke-linejoin:round;stroke-width:0.832857697665602px"/><g style="clip-path:url(#clip-path)"><path d="M86.34,19.69V302.87M346.68,19.69V302.87M606.89,19.69V302.87M867.1,19.69V302.87" style="fill:none;stroke:#d9d9d9;stroke-linejoin:round;stroke-width:0.832857697665602px"/></g><g style="clip-path:url(#clip-path-2)"><polygon points="166.39 95.23 266.49 95.23 266.49 302.88 166.39 302.88 166.39 95.23 166.39 95.23" style="fill:#5e9fff;fill-rule:evenodd"/><polygon points="166.39 95.23 266.49 95.23 266.49 302.88 166.39 302.88 166.39 95.23 166.39 95.23" style="fill:none;stroke:#7f7f7f;stroke-linejoin:round;stroke-width:0.832857697665602px"/><polygon points="426.74 94.25 526.84 94.25 526.84 302.88 426.74 302.88 426.74 94.25 426.74 94.25" style="fill:#5e9fff;fill-rule:evenodd"/><polygon points="426.74 94.25 526.84 94.25 526.84 302.88 426.74 302.88 426.74 94.25 426.74 94.25" style="fill:none;stroke:#7f7f7f;stroke-linejoin:round;stroke-width:0.832857697665602px"/><polygon points="686.94 92.86 787.04 92.86 787.04 302.88 686.94 302.88 686.94 92.86 686.94 92.86" style="fill:#5e9fff;fill-rule:evenodd"/><polygon points="686.94 92.86 787.04 92.86 787.04 302.88 686.94 302.88 686.94 92.86 686.94 92.86" style="fill:none;stroke:#7f7f7f;stroke-linejoin:round;stroke-width:0.832857697665602px"/></g><g style="clip-path:url(#clip-path)"><line x1="86.34" y1="302.87" x2="867.1" y2="302.87" style="fill:none;stroke:#d9d9d9;stroke-linejoin:round;stroke-width:0.832857697665602px"/></g><g style="clip-path:url(#clip-path)"><path d="M86.34,302.87v3.21m260.34-3.21v3.21m260.21-3.21v3.21m260.21-3.21v3.21" style="fill:none;stroke:#d9d9d9;stroke-linejoin:round;stroke-width:0.832857697665602px"/></g><g style="clip-path:url(#clip-path-2)"><polyline points="216.44 53.28 476.79 53.28 736.99 53.28" style="fill:none;stroke:#06f;stroke-miterlimit:10;stroke-width:1.3880000000000001px;stroke-dasharray:5,5"/></g><g style="clip-path:url(#clip-path)"><path d="M219.41,53.29a2.91,2.91,0,1,1-2.91-2.93,2.91,2.91,0,0,1,2.91,2.93Z" style="fill:#06f"/><path d="M219.41,53.29a2.91,2.91,0,1,1-2.91-2.93,2.91,2.91,0,0,1,2.91,2.93Z" style="fill:none;stroke:#2935e8;stroke-linejoin:round;stroke-width:0.832857766613087px"/><path d="M479.75,53.29a2.91,2.91,0,1,1-2.9-2.93,2.91,2.91,0,0,1,2.9,2.93Z" style="fill:#06f"/><path d="M479.75,53.29a2.91,2.91,0,1,1-2.9-2.93,2.91,2.91,0,0,1,2.9,2.93Z" style="fill:none;stroke:#2935e8;stroke-linejoin:round;stroke-width:0.832857766613087px"/><path d="M740,53.29a2.91,2.91,0,1,1-2.91-2.93A2.91,2.91,0,0,1,740,53.29Z" style="fill:#06f"/><path d="M740,53.29a2.91,2.91,0,1,1-2.91-2.93A2.91,2.91,0,0,1,740,53.29Z" style="fill:none;stroke:#2935e8;stroke-linejoin:round;stroke-width:0.832857766613087px"/></g><g style="clip-path:url(#clip-path-2)"><polyline points="216.44 144.28 476.79 144.28 736.99 144.28" style="fill:none;stroke:#ff25f3;stroke-miterlimit:10;stroke-width:1.3880000000000001px;stroke-dasharray:5,5"/></g><g style="clip-path:url(#clip-path)"><path d="M219.41,144.29a2.91,2.91,0,1,1-2.91-2.93,2.92,2.92,0,0,1,2.91,2.93Z" style="fill:#ff25f3"/><path d="M219.41,144.29a2.91,2.91,0,1,1-2.91-2.93,2.92,2.92,0,0,1,2.91,2.93Z" style="fill:none;stroke:#d9d9d9;stroke-linejoin:round;stroke-width:0.832857766613087px"/><path d="M479.75,144.29a2.91,2.91,0,1,1-2.9-2.93,2.92,2.92,0,0,1,2.9,2.93Z" style="fill:#ff25f3"/><path d="M479.75,144.29a2.91,2.91,0,1,1-2.9-2.93,2.92,2.92,0,0,1,2.9,2.93Z" style="fill:none;stroke:#d9d9d9;stroke-linejoin:round;stroke-width:0.832857766613087px"/><path d="M740,144.29a2.91,2.91,0,1,1-2.91-2.93,2.92,2.92,0,0,1,2.91,2.93Z" style="fill:#ff25f3"/><path d="M740,144.29a2.91,2.91,0,1,1-2.91-2.93,2.92,2.92,0,0,1,2.91,2.93Z" style="fill:none;stroke:#d9d9d9;stroke-linejoin:round;stroke-width:0.832857766613087px"/></g><g style="clip-path:url(#clip-path-2)"><polyline points="216.44 90.49 476.79 90.49 736.99 90.49" style="fill:none;stroke:#7f7f7f;stroke-linecap:round;stroke-linejoin:round;stroke-width:1.38809613979351px"/></g><g style="clip-path:url(#clip-path)"><path d="M219.41,90.5a2.91,2.91,0,1,1-2.91-2.93,2.91,2.91,0,0,1,2.91,2.93Z" style="fill:#7f7f7f"/><path d="M219.41,90.5a2.91,2.91,0,1,1-2.91-2.93,2.91,2.91,0,0,1,2.91,2.93Z" style="fill:none;stroke:#7f7f7f;stroke-linejoin:round;stroke-width:0.832857766613087px"/><path d="M479.75,90.5a2.91,2.91,0,1,1-2.9-2.93,2.91,2.91,0,0,1,2.9,2.93Z" style="fill:#7f7f7f"/><path d="M479.75,90.5a2.91,2.91,0,1,1-2.9-2.93,2.91,2.91,0,0,1,2.9,2.93Z" style="fill:none;stroke:#7f7f7f;stroke-linejoin:round;stroke-width:0.832857766613087px"/><path d="M740,90.5a2.91,2.91,0,1,1-2.91-2.93A2.91,2.91,0,0,1,740,90.5Z" style="fill:#7f7f7f"/><path d="M740,90.5a2.91,2.91,0,1,1-2.91-2.93A2.91,2.91,0,0,1,740,90.5Z" style="fill:none;stroke:#7f7f7f;stroke-linejoin:round;stroke-width:0.832857766613087px"/></g><g style="clip-path:url(#clip-path-2)"><polyline points="216.44 95.23 476.79 95.23 736.99 95.23" style="fill:none;stroke:#00c1a3;stroke-linecap:round;stroke-linejoin:round;stroke-width:1.38809613979351px"/></g><g style="clip-path:url(#clip-path)"><path d="M219.41,95.24a2.91,2.91,0,1,1-2.91-2.93,2.91,2.91,0,0,1,2.91,2.93Z" style="fill:#00b050"/><path d="M219.41,95.24a2.91,2.91,0,1,1-2.91-2.93,2.91,2.91,0,0,1,2.91,2.93Z" style="fill:none;stroke:#00b050;stroke-linejoin:round;stroke-width:0.832857766613087px"/><path d="M479.75,95.24a2.91,2.91,0,1,1-2.9-2.93,2.91,2.91,0,0,1,2.9,2.93Z" style="fill:#00b050"/><path d="M479.75,95.24a2.91,2.91,0,1,1-2.9-2.93,2.91,2.91,0,0,1,2.9,2.93Z" style="fill:none;stroke:#00b050;stroke-linejoin:round;stroke-width:0.832857766613087px"/></g><g style="clip-path:url(#clip-path)"><path d="M739.9,95.09A2.91,2.91,0,1,1,737,92.16a2.91,2.91,0,0,1,2.91,2.93Z" style="fill:#00c1a3"/><path d="M739.9,95.09A2.91,2.91,0,1,1,737,92.16a2.91,2.91,0,0,1,2.91,2.93Z" style="fill:none;stroke:#d9d9d9;stroke-linejoin:round;stroke-width:0.832857766613087px"/></g><g style="clip-path:url(#clip-path-14)"><text transform="translate(57.26 306.25) scale(0.99 1)" style="font-size:10.452059745788574px;font-family:ArialMT, Arial"><tspan style="letter-spacing:0.003013618719376702em">5</tspan><tspan x="5.84" y="0" style="letter-spacing:0.002071862869571483em">.</tspan><tspan x="8.77" y="0" style="letter-spacing:-0.008946680573149582em">0</tspan><tspan x="14.49" y="0">0</tspan></text></g><g style="clip-path:url(#clip-path-14)"><text transform="translate(57.26 235.45) scale(0.99 1)" style="font-size:10.452059745788574px;font-family:ArialMT, Arial"><tspan style="letter-spacing:0.003013618719376702em">6</tspan><tspan x="5.84" y="0" style="letter-spacing:0.002071862869571483em">.</tspan><tspan x="8.77" y="0" style="letter-spacing:-0.008946680573149582em">5</tspan><tspan x="14.49" y="0">0</tspan></text></g><g style="clip-path:url(#clip-path-14)"><text transform="translate(57.26 164.63) scale(0.99 1)" style="font-size:10.452059745788574px;font-family:ArialMT, Arial"><tspan style="letter-spacing:0.003013618719376702em">8</tspan><tspan x="5.84" y="0" style="letter-spacing:0.002071862869571483em">.</tspan><tspan x="8.77" y="0" style="letter-spacing:-0.008946680573149582em">0</tspan><tspan x="14.49" y="0">0</tspan></text></g><g style="clip-path:url(#clip-path-14)"><text transform="translate(57.26 93.83) scale(0.99 1)" style="font-size:10.452059745788574px;font-family:ArialMT, Arial"><tspan style="letter-spacing:0.003013618719376702em">9</tspan><tspan x="5.84" y="0" style="letter-spacing:0.002071862869571483em">.</tspan><tspan x="8.77" y="0" style="letter-spacing:-0.008946680573149582em">5</tspan><tspan x="14.49" y="0">0</tspan></text></g><g style="clip-path:url(#clip-path-14)"><text transform="translate(51.49 23.02) scale(0.99 1)" style="font-size:10.452059745788574px;font-family:ArialMT, Arial"><tspan style="letter-spacing:0.003013618719376702em">1</tspan><tspan x="5.84" y="0" style="letter-spacing:-0.008946680573149582em">1</tspan><tspan x="11.56" y="0" style="letter-spacing:0.002071862869571483em">.</tspan><tspan x="14.49" y="0" style="letter-spacing:0.003013618719376702em">0</tspan><tspan x="20.33" y="0">0</tspan></text></g><g style="clip-path:url(#clip-path-14)"><text transform="translate(205.97 318.7) scale(0.99 1)" style="font-size:10.452059745788574px;font-family:ArialMT, Arial">Jul</text></g><g style="clip-path:url(#clip-path-14)"><text transform="translate(463.24 318.7) scale(0.99 1)" style="font-size:10.452059745788574px;font-family:ArialMT, Arial">Aug</text></g><g style="clip-path:url(#clip-path-14)"><text transform="translate(731.51 318.7) scale(0.99 1)" style="font-size:10.452059745788574px;font-family:ArialMT, Arial">Sep</text></g><g style="clip-path:url(#clip-path-14)"><text transform="translate(27.79 219.37) rotate(-90) scale(1.01 1)" style="font-size:11.475629806518555px;font-family:Arial-BoldMT, Arial;font-weight:700"><tspan style="letter-spacing:0.004981180092022283em">Q</tspan><tspan x="8.98" y="0" style="letter-spacing:0.0030393641239458004em">u</tspan><tspan x="16.03" y="0" style="letter-spacing:-0.0010131213746486em">a</tspan><tspan x="22.4" y="0" style="letter-spacing:0.0030393641239458004em">n</tspan><tspan x="29.44" y="0" style="letter-spacing:0.0040524854985944em">t</tspan><tspan x="33.31" y="0">i</tspan><tspan x="36.5" y="0" style="letter-spacing:0.003968058717373683em">t</tspan><tspan x="40.37" y="0" style="letter-spacing:-0.01291729752676965em">y</tspan><tspan x="46.6" y="0" style="letter-spacing:0.010975481558693167em"> </tspan><tspan x="49.91" y="0" style="letter-spacing:0.0040524854985944em">(</tspan><tspan x="53.78" y="0" style="letter-spacing:0.021950963117386334em">M</tspan><tspan x="63.59" y="0" style="letter-spacing:0.015027967057287565em">T</tspan><tspan x="70.77" y="0">)</tspan></text></g><g style="clip-path:url(#clip-path-14)"><text transform="translate(414.45 337.11) scale(0.99 1)" style="font-size:11.566949844360352px;font-family:Arial-BoldMT, Arial;font-weight:700"><tspan style="letter-spacing:0.01497731712454892em">T</tspan><tspan x="7.24" y="0">i</tspan><tspan x="10.45" y="0" style="letter-spacing:0.0019572630333217337em">m</tspan><tspan x="20.76" y="0" style="letter-spacing:-0.0009360823202843075em">e</tspan><tspan x="27.18" y="0"> </tspan><tspan x="30.4" y="0" style="letter-spacing:-0.003999624459396586em">P</tspan><tspan x="38.06" y="0" style="letter-spacing:-0.0010211807130374264em">e</tspan><tspan x="44.49" y="0" style="letter-spacing:-0.0029784437463591597em">r</tspan><tspan x="48.95" y="0">i</tspan><tspan x="52.17" y="0" style="letter-spacing:0.0029784437463591597em">o</tspan><tspan x="59.27" y="0">d</tspan></text></g><polygon points="2 2.27 897.65 2.27 897.65 346.91 2 346.91 2 2.27 2 2.27" style="fill:none;stroke:#d9d9d9;stroke-linejoin:round;stroke-width:0.832857766613087px"/></svg>