<svg id="Layer_1" data-name="Layer 1" xmlns="http://www.w3.org/2000/svg" xmlns:xlink="http://www.w3.org/1999/xlink" viewBox="0 0 900 350"><defs><clipPath id="clip-path"><polygon points="2 338.56 896.59 338.56 896.59 3 2 3 2 338.56 2 338.56" style="fill:none;clip-rule:evenodd"/></clipPath><clipPath id="clip-path-6"><polygon points="65.71 277.33 885.53 277.33 885.53 17.37 65.71 17.37 65.71 277.33 65.71 277.33" style="fill:none;clip-rule:evenodd"/></clipPath><clipPath id="clip-path-10"><rect x="2" y="3" width="894.59" height="335.56" style="fill:none"/></clipPath></defs><title>ndvi-risk-report</title><polygon points="2 3 896.73 3 896.73 338.7 2 338.7 2 3 2 3" style="fill:#f2f2f2;fill-rule:evenodd"/><polygon points="65.71 17.37 884.7 17.37 884.7 276.5 65.71 276.5 65.71 17.37 65.71 17.37" style="fill:#fff;fill-rule:evenodd"/><path d="M65.71,211.69h819M65.71,147h819m-819-64.82h819m-819-64.82h819" style="fill:none;stroke:#d9d9d9;stroke-linejoin:round;stroke-width:0.829218737730068px"/><g style="clip-path:url(#clip-path)"><path d="M99.85,17.37V276.5M168.12,17.37V276.5M236.39,17.37V276.5M304.66,17.37V276.5M372.94,17.37V276.5M441.07,17.37V276.5M509.34,17.37V276.5M577.62,17.37V276.5M645.89,17.37V276.5M714.16,17.37V276.5M782.29,17.37V276.5M850.57,17.37V276.5" style="fill:none;stroke:#f2f2f2;stroke-linejoin:round;stroke-width:0.829218737730068px"/></g><g style="clip-path:url(#clip-path)"><path d="M65.71,17.37V276.5M134,17.37V276.5M202.26,17.37V276.5M270.53,17.37V276.5M338.8,17.37V276.5M407.07,17.37V276.5M475.21,17.37V276.5M543.48,17.37V276.5M611.75,17.37V276.5M680,17.37V276.5M748.3,17.37V276.5M816.43,17.37V276.5M884.7,17.37V276.5" style="fill:none;stroke:#d9d9d9;stroke-linejoin:round;stroke-width:0.829218737730068px"/></g><g style="clip-path:url(#clip-path)"><line x1="65.71" y1="276.5" x2="884.7" y2="276.5" style="fill:none;stroke:#d9d9d9;stroke-linejoin:round;stroke-width:1.38203120666803px"/></g><g style="clip-path:url(#clip-path)"><path d="M65.71,276.5v18.66M338.8,276.5v18.66m273-18.66v18.66m273-18.66v18.66" style="fill:none;stroke:#d9d9d9;stroke-linejoin:round;stroke-width:1.38203120666803px"/></g><g style="clip-path:url(#clip-path)"><path d="M65.71,295.16v18.66M338.8,295.16v18.66m273-18.66v18.66m273-18.66v18.66" style="fill:none;stroke:#d9d9d9;stroke-linejoin:round;stroke-width:1.38203120666803px"/></g><g style="clip-path:url(#clip-path-6)"><polyline points="99.85 159.86 168.12 126.28 236.39 95.18 304.67 79.56 372.94 69.2 441.07 64.09 509.34 74.45 577.62 95.18 645.89 121.03 714.16 134.02 782.29 147.01 850.57 162.49" style="fill:none;stroke:#ff25f3;stroke-linecap:round;stroke-linejoin:round;stroke-width:2.48765614454397px"/></g><g style="clip-path:url(#clip-path)"><polygon points="96.95 156.96 102.76 156.96 102.76 162.76 96.95 162.76 96.95 156.96 96.95 156.96" style="fill:#ff25f3;fill-rule:evenodd"/><polygon points="96.95 156.96 102.76 156.96 102.76 162.76 96.95 162.76 96.95 156.96 96.95 156.96" style="fill:none;stroke:#ff25f3;stroke-linejoin:round;stroke-width:0.829218806376305px"/><polygon points="165.23 123.38 171.03 123.38 171.03 129.18 165.23 129.18 165.23 123.38 165.23 123.38" style="fill:#ff25f3;fill-rule:evenodd"/><polygon points="165.23 123.38 171.03 123.38 171.03 129.18 165.23 129.18 165.23 123.38 165.23 123.38" style="fill:none;stroke:#ff25f3;stroke-linejoin:round;stroke-width:0.829218806376305px"/><polygon points="233.5 92.28 239.3 92.28 239.3 98.08 233.5 98.08 233.5 92.28 233.5 92.28" style="fill:#ff25f3;fill-rule:evenodd"/><polygon points="233.5 92.28 239.3 92.28 239.3 98.08 233.5 98.08 233.5 92.28 233.5 92.28" style="fill:none;stroke:#ff25f3;stroke-linejoin:round;stroke-width:0.829218806376305px"/><polygon points="301.77 76.66 307.57 76.66 307.57 82.47 301.77 82.47 301.77 76.66 301.77 76.66" style="fill:#ff25f3;fill-rule:evenodd"/><polygon points="301.77 76.66 307.57 76.66 307.57 82.47 301.77 82.47 301.77 76.66 301.77 76.66" style="fill:none;stroke:#ff25f3;stroke-linejoin:round;stroke-width:0.829218806376305px"/><polygon points="370.04 66.3 375.85 66.3 375.85 72.1 370.04 72.1 370.04 66.3 370.04 66.3" style="fill:#ff25f3;fill-rule:evenodd"/><polygon points="370.04 66.3 375.85 66.3 375.85 72.1 370.04 72.1 370.04 66.3 370.04 66.3" style="fill:none;stroke:#ff25f3;stroke-linejoin:round;stroke-width:0.829218806376305px"/><polygon points="438.18 61.18 443.98 61.18 443.98 66.99 438.18 66.99 438.18 61.18 438.18 61.18" style="fill:#ff25f3;fill-rule:evenodd"/><polygon points="438.18 61.18 443.98 61.18 443.98 66.99 438.18 66.99 438.18 61.18 438.18 61.18" style="fill:none;stroke:#ff25f3;stroke-linejoin:round;stroke-width:0.829218806376305px"/><polygon points="506.45 71.55 512.25 71.55 512.25 77.35 506.45 77.35 506.45 71.55 506.45 71.55" style="fill:#ff25f3;fill-rule:evenodd"/><polygon points="506.45 71.55 512.25 71.55 512.25 77.35 506.45 77.35 506.45 71.55 506.45 71.55" style="fill:none;stroke:#ff25f3;stroke-linejoin:round;stroke-width:0.829218806376305px"/><polygon points="574.72 92.28 580.53 92.28 580.53 98.08 574.72 98.08 574.72 92.28 574.72 92.28" style="fill:#ff25f3;fill-rule:evenodd"/><polygon points="574.72 92.28 580.53 92.28 580.53 98.08 574.72 98.08 574.72 92.28 574.72 92.28" style="fill:none;stroke:#ff25f3;stroke-linejoin:round;stroke-width:0.829218806376305px"/><polygon points="642.99 118.12 648.8 118.12 648.8 123.93 642.99 123.93 642.99 118.12 642.99 118.12" style="fill:#ff25f3;fill-rule:evenodd"/><polygon points="642.99 118.12 648.8 118.12 648.8 123.93 642.99 123.93 642.99 118.12 642.99 118.12" style="fill:none;stroke:#ff25f3;stroke-linejoin:round;stroke-width:0.829218806376305px"/><polygon points="711.27 131.12 717.07 131.12 717.07 136.92 711.27 136.92 711.27 131.12 711.27 131.12" style="fill:#ff25f3;fill-rule:evenodd"/><polygon points="711.27 131.12 717.07 131.12 717.07 136.92 711.27 136.92 711.27 131.12 711.27 131.12" style="fill:none;stroke:#ff25f3;stroke-linejoin:round;stroke-width:0.829218806376305px"/><polygon points="779.4 144.11 785.21 144.11 785.21 149.91 779.4 149.91 779.4 144.11 779.4 144.11" style="fill:#ff25f3;fill-rule:evenodd"/><polygon points="779.4 144.11 785.21 144.11 785.21 149.91 779.4 149.91 779.4 144.11 779.4 144.11" style="fill:none;stroke:#ff25f3;stroke-linejoin:round;stroke-width:0.829218806376305px"/><polygon points="847.67 159.59 853.48 159.59 853.48 165.39 847.67 165.39 847.67 159.59 847.67 159.59" style="fill:#ff25f3;fill-rule:evenodd"/><polygon points="847.67 159.59 853.48 159.59 853.48 165.39 847.67 165.39 847.67 159.59 847.67 159.59" style="fill:none;stroke:#ff25f3;stroke-linejoin:round;stroke-width:0.829218806376305px"/></g><g style="clip-path:url(#clip-path-6)"><polyline points="99.85 172.85 168.12 141.76 236.39 110.66 304.67 95.18 372.94 84.82 441.07 74.45 509.34 84.82 577.62 95.18 645.89 126.28 714.16 141.76 782.29 154.75 850.57 172.85" style="fill:none;stroke:#06f;stroke-linecap:round;stroke-linejoin:round;stroke-width:2.48765614454397px"/></g><g style="clip-path:url(#clip-path)"><path d="M102.76,172.85a2.91,2.91,0,1,1-2.9-2.9,2.9,2.9,0,0,1,2.9,2.9Z" style="fill:#06f"/><path d="M171,141.76a2.9,2.9,0,1,1-2.9-2.91,2.9,2.9,0,0,1,2.9,2.91Z" style="fill:#06f"/><path d="M239.3,110.66a2.9,2.9,0,1,1-2.9-2.9,2.9,2.9,0,0,1,2.9,2.9Z" style="fill:#06f"/><path d="M307.58,95.18a2.91,2.91,0,1,1-2.91-2.9,2.9,2.9,0,0,1,2.91,2.9Z" style="fill:#06f"/><path d="M375.85,84.82a2.91,2.91,0,1,1-2.9-2.91,2.9,2.9,0,0,1,2.9,2.91Z" style="fill:#06f"/><path d="M444,74.45a2.9,2.9,0,1,1-2.9-2.9,2.9,2.9,0,0,1,2.9,2.9Z" style="fill:#06f"/><path d="M512.25,84.82a2.9,2.9,0,1,1-2.9-2.91,2.9,2.9,0,0,1,2.9,2.91Z" style="fill:#06f"/><path d="M580.53,95.18a2.91,2.91,0,1,1-2.91-2.9,2.9,2.9,0,0,1,2.91,2.9Z" style="fill:#06f"/><path d="M648.8,126.28a2.91,2.91,0,1,1-2.9-2.9,2.9,2.9,0,0,1,2.9,2.9Z" style="fill:#06f"/><path d="M717.07,141.76a2.9,2.9,0,1,1-2.9-2.91,2.9,2.9,0,0,1,2.9,2.91Z" style="fill:#06f"/><path d="M785.21,154.75a2.91,2.91,0,1,1-2.91-2.9,2.9,2.9,0,0,1,2.91,2.9Z" style="fill:#06f"/><path d="M853.48,172.85a2.91,2.91,0,1,1-2.9-2.9,2.9,2.9,0,0,1,2.9,2.9Z" style="fill:#06f"/></g><g style="clip-path:url(#clip-path-10)"><text transform="translate(36.69 279.81)" style="font-size:10.365229606628418px;font-family:ArialMT, Arial"><tspan style="letter-spacing:0.003014887386577145em">0</tspan><tspan x="5.8" y="0" style="letter-spacing:0.0019785198474412515em">.</tspan><tspan x="8.7" y="0" style="letter-spacing:-0.009044662159731435em">0</tspan><tspan x="14.37" y="0">0</tspan></text></g><g style="clip-path:url(#clip-path-10)"><text transform="translate(36.69 215.03)" style="font-size:10.365229606628418px;font-family:ArialMT, Arial"><tspan style="letter-spacing:0.003014887386577145em">0</tspan><tspan x="5.8" y="0" style="letter-spacing:0.0019785198474412515em">.</tspan><tspan x="8.7" y="0" style="letter-spacing:-0.009044662159731435em">2</tspan><tspan x="14.37" y="0">5</tspan></text></g><g style="clip-path:url(#clip-path-10)"><text transform="translate(36.69 150.25)" style="font-size:10.365229606628418px;font-family:ArialMT, Arial"><tspan style="letter-spacing:0.003014887386577145em">0</tspan><tspan x="5.8" y="0" style="letter-spacing:0.0019785198474412515em">.</tspan><tspan x="8.7" y="0" style="letter-spacing:-0.009044662159731435em">5</tspan><tspan x="14.37" y="0">0</tspan></text></g><g style="clip-path:url(#clip-path-10)"><text transform="translate(36.69 85.48)" style="font-size:10.365229606628418px;font-family:ArialMT, Arial"><tspan style="letter-spacing:0.003014887386577145em">0</tspan><tspan x="5.8" y="0" style="letter-spacing:0.0019785198474412515em">.</tspan><tspan x="8.7" y="0" style="letter-spacing:-0.009044662159731435em">7</tspan><tspan x="14.37" y="0">5</tspan></text></g><g style="clip-path:url(#clip-path-10)"><text transform="translate(36.69 20.69)" style="font-size:10.365229606628418px;font-family:ArialMT, Arial"><tspan style="letter-spacing:0.003014887386577145em">1</tspan><tspan x="5.8" y="0" style="letter-spacing:0.0019785198474412515em">.</tspan><tspan x="8.7" y="0" style="letter-spacing:-0.009044662159731435em">0</tspan><tspan x="14.37" y="0">0</tspan></text></g><g style="clip-path:url(#clip-path-10)"><text transform="translate(97.02 292.15)" style="font-size:10.365229606628418px;font-family:ArialMT, Arial">1</text></g><g style="clip-path:url(#clip-path-10)"><text transform="translate(165.26 292.15)" style="font-size:10.365229606628418px;font-family:ArialMT, Arial">2</text></g><g style="clip-path:url(#clip-path-10)"><text transform="translate(233.51 292.15)" style="font-size:10.365229606628418px;font-family:ArialMT, Arial">3</text></g><g style="clip-path:url(#clip-path-10)"><text transform="translate(301.75 292.15)" style="font-size:10.365229606628418px;font-family:ArialMT, Arial">4</text></g><g style="clip-path:url(#clip-path-10)"><text transform="translate(370 292.15)" style="font-size:10.365229606628418px;font-family:ArialMT, Arial">1</text></g><g style="clip-path:url(#clip-path-10)"><text transform="translate(438.25 292.15)" style="font-size:10.365229606628418px;font-family:ArialMT, Arial">2</text></g><g style="clip-path:url(#clip-path-10)"><text transform="translate(506.49 292.15)" style="font-size:10.365229606628418px;font-family:ArialMT, Arial">3</text></g><g style="clip-path:url(#clip-path-10)"><text transform="translate(574.73 292.15)" style="font-size:10.365229606628418px;font-family:ArialMT, Arial">4</text></g><g style="clip-path:url(#clip-path-10)"><text transform="translate(642.99 292.15)" style="font-size:10.365229606628418px;font-family:ArialMT, Arial">1</text></g><g style="clip-path:url(#clip-path-10)"><text transform="translate(711.22 292.15)" style="font-size:10.365229606628418px;font-family:ArialMT, Arial">2</text></g><g style="clip-path:url(#clip-path-10)"><text transform="translate(779.48 292.15)" style="font-size:10.365229606628418px;font-family:ArialMT, Arial">3</text></g><g style="clip-path:url(#clip-path-10)"><text transform="translate(847.72 292.15)" style="font-size:10.365229606628418px;font-family:ArialMT, Arial">4</text></g><g style="clip-path:url(#clip-path-10)"><text transform="translate(195.64 310.85)" style="font-size:10.365229606628418px;font-family:ArialMT, Arial"><tspan style="letter-spacing:0.00602977477315429em">J</tspan><tspan x="5.25" y="0" style="letter-spacing:-0.009044662159731435em">u</tspan><tspan x="10.92" y="0">l</tspan></text></g><g style="clip-path:url(#clip-path-10)"><text transform="translate(466.03 310.85)" style="font-size:10.365229606628418px;font-family:ArialMT, Arial">A<tspan x="6.91" y="0" style="letter-spacing:0.003014887386577145em">u</tspan><tspan x="12.71" y="0">g</tspan></text></g><g style="clip-path:url(#clip-path-10)"><text transform="translate(739.01 310.85)" style="font-size:10.365229606628418px;font-family:ArialMT, Arial">S<tspan x="6.91" y="0" style="letter-spacing:0.003014887386577145em">e</tspan><tspan x="12.71" y="0">p</tspan></text></g><g style="clip-path:url(#clip-path-10)"><text transform="translate(20.69 200.36) rotate(-90)" style="font-size:11.47085952758789px;font-family:Arial-BoldMT, Arial;font-weight:700">ND<tspan x="16.57" y="0" style="letter-spacing:-0.004001307608171154em">V</tspan><tspan x="24.17" y="0">I</tspan><tspan x="27.36" y="0" style="letter-spacing:0.011067446575792554em"> </tspan><tspan x="30.67" y="0" style="letter-spacing:0.0000851342044291735em"> </tspan><tspan x="33.86" y="0" style="letter-spacing:-0.004086441812600328em">V</tspan><tspan x="41.46" y="0" style="letter-spacing:-0.001021610453150082em">a</tspan><tspan x="47.83" y="0" style="letter-spacing:0.0000851342044291735em">l</tspan><tspan x="51.02" y="0" style="letter-spacing:0.0029796971550210723em">u</tspan><tspan x="58.06" y="0" style="letter-spacing:-0.0000851342044291735em">e</tspan></text></g><g style="clip-path:url(#clip-path-10)"><text transform="translate(433.97 328.46)" style="font-size:11.47085952758789px;font-family:Arial-BoldMT, Arial;font-weight:700;letter-spacing:0.006981004763192226em">W<tspan x="10.91" y="0" style="letter-spacing:-0.001021610453150082em">ee</tspan><tspan x="23.64" y="0" style="letter-spacing:-0.0000851342044291735em">k</tspan></text></g><polygon points="2 3 896.73 3 896.73 338.7 2 338.7 2 3 2 3" style="fill:none;stroke:#d9d9d9;stroke-linejoin:round;stroke-width:0.829218806376305px"/></svg>