<svg id="Layer_1" data-name="Layer 1" xmlns="http://www.w3.org/2000/svg" xmlns:xlink="http://www.w3.org/1999/xlink" viewBox="0 0 900 350"><defs><clipPath id="clip-path"><polygon points="2 340.91 898.96 340.91 898.96 2 2 2 2 340.91 2 340.91" style="fill:none;clip-rule:evenodd"/></clipPath><clipPath id="clip-path-3"><polygon points="86.59 287.51 885.71 287.51 885.71 30.01 86.59 30.01 86.59 287.51 86.59 287.51" style="fill:none;clip-rule:evenodd"/></clipPath><clipPath id="clip-path-6"><rect x="2" y="2" width="896.96" height="338.91" style="fill:none"/></clipPath></defs><title>price-volatility</title><polygon points="2 2 898.96 2 898.96 340.91 2 340.91 2 2 2 2" style="fill:#eaeaea;fill-rule:evenodd"/><polygon points="86.59 30.01 885.02 30.01 885.02 286.68 86.59 286.68 86.59 30.01 86.59 30.01" style="fill:#fff;fill-rule:evenodd"/><path d="M86.59,225.55H885M86.59,164.42H885m-798.43-61H885M86.59,42.29H885" style="fill:none;stroke:#d9d9d9;stroke-linejoin:round;stroke-width:0.827962844253029px"/><g style="clip-path:url(#clip-path)"><path d="M86.59,30V286.68M153.1,30V286.68M219.62,30V286.68M286.27,30V286.68M352.78,30V286.68M419.29,30V286.68M485.81,30V286.68M552.32,30V286.68M618.83,30V286.68M685.35,30V286.68M751.86,30V286.68M818.51,30V286.68M885,30V286.68" style="fill:none;stroke:#d9d9d9;stroke-linejoin:round;stroke-width:0.827962844253029px"/></g><g style="clip-path:url(#clip-path)"><line x1="86.59" y1="286.68" x2="885.02" y2="286.68" style="fill:none;stroke:#d9d9d9;stroke-linejoin:round;stroke-width:0.827962844253029px"/></g><g style="clip-path:url(#clip-path-3)"><polyline points="119.85 184.7 186.36 178.22 253.01 192.85 319.52 171.04 386.04 178.63 452.55 164.97 519.06 166.49 585.58 158.49 652.09 152.41 718.6 152.41 785.25 141.51 851.77 141.1" style="fill:none;stroke:#2935e8;stroke-linecap:round;stroke-linejoin:round;stroke-width:2.48388846421682px"/></g><g style="clip-path:url(#clip-path-3)"><polyline points="119.85 165.8 186.36 170.63 253.01 161.8 319.52 154.34 386.04 147.45 452.55 151.86 519.06 143.44 585.58 139.72 652.09 142.89 718.6 157.38 785.25 135.58 851.77 134.2" style="fill:none;stroke:#ff25f3;stroke-linecap:round;stroke-linejoin:round;stroke-width:2.48388846421682px"/></g><g style="clip-path:url(#clip-path-3)"><polyline points="119.85 160.83 186.36 163.04 253.01 163.73 319.52 160.83 386.04 151.31 452.55 159.31 519.06 157.24 585.58 154.07 652.09 153.93 718.6 144.13 785.25 132.4 851.77 121.78" style="fill:none;stroke:#00c1a3;stroke-linecap:round;stroke-linejoin:round;stroke-width:2.48388846421682px"/></g><g style="clip-path:url(#clip-path-6)"><text transform="translate(40.31 289.98)" style="font-size:10.349539756774902px;font-family:ArialMT, Arial"><tspan style="letter-spacing:0.0020758773341525774em"> </tspan><tspan x="2.9" y="0" style="letter-spacing:0.0029250998799422684em">1</tspan><tspan x="8.68" y="0" style="letter-spacing:-0.008964015761113404em">1</tspan><tspan x="14.35" y="0" style="letter-spacing:0.0020758773341525774em">,</tspan><tspan x="17.24" y="0" style="letter-spacing:0.0030194579405855675em">00</tspan><tspan x="28.82" y="0">0</tspan></text></g><g style="clip-path:url(#clip-path-6)"><text transform="translate(40.31 228.87)" style="font-size:10.349539756774902px;font-family:ArialMT, Arial"><tspan style="letter-spacing:0.0020758773341525774em"> </tspan><tspan x="2.9" y="0" style="letter-spacing:0.0029250998799422684em">3</tspan><tspan x="8.68" y="0" style="letter-spacing:-0.008964015761113404em">1</tspan><tspan x="14.35" y="0" style="letter-spacing:0.0020758773341525774em">,</tspan><tspan x="17.24" y="0" style="letter-spacing:0.0030194579405855675em">00</tspan><tspan x="28.82" y="0">0</tspan></text></g><g style="clip-path:url(#clip-path-6)"><text transform="translate(40.31 167.77)" style="font-size:10.349539756774902px;font-family:ArialMT, Arial"><tspan style="letter-spacing:0.0020758773341525774em"> </tspan><tspan x="2.9" y="0" style="letter-spacing:0.0029250998799422684em">5</tspan><tspan x="8.68" y="0" style="letter-spacing:-0.008964015761113404em">1</tspan><tspan x="14.35" y="0" style="letter-spacing:0.0020758773341525774em">,</tspan><tspan x="17.24" y="0" style="letter-spacing:0.0030194579405855675em">00</tspan><tspan x="28.82" y="0">0</tspan></text></g><g style="clip-path:url(#clip-path-6)"><text transform="translate(40.31 106.66)" style="font-size:10.349539756774902px;font-family:ArialMT, Arial"><tspan style="letter-spacing:0.0020758773341525774em"> </tspan><tspan x="2.9" y="0" style="letter-spacing:0.0029250998799422684em">7</tspan><tspan x="8.68" y="0" style="letter-spacing:-0.008964015761113404em">1</tspan><tspan x="14.35" y="0" style="letter-spacing:0.0020758773341525774em">,</tspan><tspan x="17.24" y="0" style="letter-spacing:0.0030194579405855675em">00</tspan><tspan x="28.82" y="0">0</tspan></text></g><g style="clip-path:url(#clip-path-6)"><text transform="translate(40.31 45.56)" style="font-size:10.349539756774902px;font-family:ArialMT, Arial"><tspan style="letter-spacing:0.0020758773341525774em"> </tspan><tspan x="2.9" y="0" style="letter-spacing:0.0029250998799422684em">9</tspan><tspan x="8.68" y="0" style="letter-spacing:-0.008964015761113404em">1</tspan><tspan x="14.35" y="0" style="letter-spacing:0.0020758773341525774em">,</tspan><tspan x="17.24" y="0" style="letter-spacing:0.0030194579405855675em">00</tspan><tspan x="28.82" y="0">0</tspan></text></g><g style="clip-path:url(#clip-path-6)"><text transform="translate(111.53 302.3)" style="font-size:10.349539756774902px;font-family:ArialMT, Arial"><tspan style="letter-spacing:0.006038915881171135em">J</tspan><tspan x="5.24" y="0" style="letter-spacing:-0.009058373821756702em">a</tspan><tspan x="10.9" y="0">n</tspan></text></g><g style="clip-path:url(#clip-path-6)"><text transform="translate(177.49 302.3)" style="font-size:10.349539756774902px;font-family:ArialMT, Arial"><tspan style="letter-spacing:0.0019815192735092788em">F</tspan><tspan x="6.34" y="0" style="letter-spacing:0.0030194579405855675em">e</tspan><tspan x="12.13" y="0">b</tspan></text></g><g style="clip-path:url(#clip-path-6)"><text transform="translate(244.04 302.3)" style="font-size:10.349539756774902px;font-family:ArialMT, Arial;letter-spacing:-0.005944557820527835em">M<tspan x="8.56" y="0" style="letter-spacing:0.0029250998799422684em">a</tspan><tspan x="14.35" y="0" style="letter-spacing:0.00009435806064329898em">r</tspan></text></g><g style="clip-path:url(#clip-path-6)"><text transform="translate(311.42 302.3)" style="font-size:10.349539756774902px;font-family:ArialMT, Arial">A<tspan x="6.9" y="0" style="letter-spacing:0.0030194579405855675em">p</tspan><tspan x="12.69" y="0">r</tspan></text></g><g style="clip-path:url(#clip-path-6)"><text transform="translate(376.23 302.3)" style="font-size:10.349539756774902px;font-family:ArialMT, Arial"><tspan style="letter-spacing:-0.005944557820527835em">M</tspan><tspan x="8.56" y="0" style="letter-spacing:0.0029250998799422684em">a</tspan><tspan x="14.35" y="0">y</tspan></text></g><g style="clip-path:url(#clip-path-6)"><text transform="translate(444.19 302.3)" style="font-size:10.349539756774902px;font-family:ArialMT, Arial"><tspan style="letter-spacing:0.006038915881171135em">J</tspan><tspan x="5.24" y="0" style="letter-spacing:-0.009058373821756702em">u</tspan><tspan x="10.9" y="0">n</tspan></text></g><g style="clip-path:url(#clip-path-6)"><text transform="translate(512.44 302.3)" style="font-size:10.349539756774902px;font-family:ArialMT, Arial"><tspan style="letter-spacing:0.006038915881171135em">J</tspan><tspan x="5.24" y="0" style="letter-spacing:-0.009058373821756702em">u</tspan><tspan x="10.9" y="0">l</tspan></text></g><g style="clip-path:url(#clip-path-6)"><text transform="translate(576.38 302.3)" style="font-size:10.349539756774902px;font-family:ArialMT, Arial">A<tspan x="6.9" y="0" style="letter-spacing:0.0030194579405855675em">u</tspan><tspan x="12.69" y="0">g</tspan></text></g><g style="clip-path:url(#clip-path-6)"><text transform="translate(642.92 302.3)" style="font-size:10.349539756774902px;font-family:ArialMT, Arial">S<tspan x="6.9" y="0" style="letter-spacing:0.0030194579405855675em">e</tspan><tspan x="12.69" y="0">p</tspan></text></g><g style="clip-path:url(#clip-path-6)"><text transform="translate(710.6 302.3)" style="font-size:10.349539756774902px;font-family:ArialMT, Arial"><tspan style="letter-spacing:-0.0039630385470185575em">O</tspan><tspan x="8.01" y="0" style="letter-spacing:0.006038915881171135em">c</tspan><tspan x="13.25" y="0">t</tspan></text></g><g style="clip-path:url(#clip-path-6)"><text transform="translate(775.99 302.3)" style="font-size:10.349539756774902px;font-family:ArialMT, Arial"><tspan style="letter-spacing:-0.0019815192735092788em">N</tspan><tspan x="7.45" y="0" style="letter-spacing:0.0030194579405855675em">o</tspan><tspan x="13.24" y="0">v</tspan></text></g><g style="clip-path:url(#clip-path-6)"><text transform="translate(842.51 302.3)" style="font-size:10.349539756774902px;font-family:ArialMT, Arial"><tspan style="letter-spacing:-0.0019815192735092788em">D</tspan><tspan x="7.45" y="0" style="letter-spacing:0.0030194579405855675em">e</tspan><tspan x="13.24" y="0">c</tspan></text></g><g style="clip-path:url(#clip-path-6)"><text transform="translate(22.54 228.17) rotate(-90)" style="font-size:11.453490257263184px;font-family:Arial-BoldMT, Arial;font-weight:700"><tspan style="letter-spacing:0.02199793419654109em">M</tspan><tspan x="9.79" y="0" style="letter-spacing:-0.0010231597300716787em">a</tspan><tspan x="16.15" y="0" style="letter-spacing:-0.0029842158793757295em">r</tspan><tspan x="20.57" y="0" style="letter-spacing:-0.0010231597300716787em">ke</tspan><tspan x="33.29" y="0" style="letter-spacing:0.003922112298608101em">t</tspan><tspan x="37.15" y="0"> </tspan><tspan x="40.33" y="0" style="letter-spacing:-0.004007375609447408em">P</tspan><tspan x="47.93" y="0" style="letter-spacing:-0.0029842158793757295em">r</tspan><tspan x="52.35" y="0" style="letter-spacing:-0.00008526331083930655em">i</tspan><tspan x="55.53" y="0" style="letter-spacing:-0.0010231597300716787em">ce</tspan><tspan x="68.25" y="0" style="letter-spacing:0.02302109392661277em"> </tspan><tspan x="71.69" y="0" style="letter-spacing:0.003922112298608101em">(</tspan><tspan x="75.55" y="0">R</tspan><tspan x="83.83" y="0" style="letter-spacing:-0.0010231597300716787em">s</tspan><tspan x="90.18" y="0">./</tspan><tspan x="96.55" y="0" style="letter-spacing:0.02199793419654109em">M</tspan><tspan x="106.34" y="0" style="letter-spacing:0.015006342707717953em">T</tspan><tspan x="113.51" y="0">)</tspan></text></g><g style="clip-path:url(#clip-path-6)"><text transform="translate(431.77 332.01)" style="font-size:11.453490257263184px;font-family:Arial-BoldMT, Arial;font-weight:700"><tspan style="letter-spacing:0.02199793419654109em">M</tspan><tspan x="9.79" y="0" style="letter-spacing:0.0029842158793757295em">on</tspan><tspan x="23.85" y="0" style="letter-spacing:0.003922112298608101em">t</tspan><tspan x="27.71" y="0" style="letter-spacing:0.0029842158793757295em">h</tspan><tspan x="34.74" y="0" style="letter-spacing:-0.0010231597300716787em">s</tspan><tspan x="41.1" y="0"> </tspan></text></g><g style="clip-path:url(#clip-path)"><line x1="214.79" y1="16.49" x2="236.87" y2="16.49" style="fill:none;stroke:#2935e8;stroke-linecap:round;stroke-linejoin:round;stroke-width:2.48388846421682px"/></g><g style="clip-path:url(#clip-path-6)"><text transform="translate(239.17 19.43)" style="font-size:9.245590209960938px;font-family:ArialMT, Arial"><tspan style="letter-spacing:-0.010034344524598173em">A</tspan><tspan x="6.07" y="0" style="letter-spacing:0.004013737809839269em">P</tspan><tspan x="12.28" y="0" style="letter-spacing:-0.008978097732535207em"> </tspan><tspan x="14.76" y="0" style="letter-spacing:0.009928719845391875em">(</tspan><tspan x="17.93" y="0" style="letter-spacing:-0.004964359922695938em">R</tspan><tspan x="24.57" y="0" style="letter-spacing:-0.004013737809839269em">-</tspan><tspan x="27.61" y="0" style="letter-spacing:-0.0029574910177763035em">1</tspan><tspan x="32.72" y="0">)</tspan></text></g><g style="clip-path:url(#clip-path)"><line x1="432.13" y1="16.49" x2="454.21" y2="16.49" style="fill:none;stroke:#ff25f3;stroke-linecap:round;stroke-linejoin:round;stroke-width:2.48388846421682px"/></g><g style="clip-path:url(#clip-path-6)"><text transform="translate(456.56 19.43)" style="font-size:9.245590209960938px;font-family:ArialMT, Arial"><tspan style="letter-spacing:0.0010562467920629656em">T</tspan><tspan x="5.66" y="0" style="letter-spacing:-0.010034344524598173em">E</tspan><tspan x="11.73" y="0" style="letter-spacing:-0.0029574910177763035em">L</tspan><tspan x="16.85" y="0" style="letter-spacing:0.004964359922695938em"> </tspan><tspan x="19.46" y="0" style="letter-spacing:-0.004013737809839269em">(</tspan><tspan x="22.5" y="0" style="letter-spacing:-0.004964359922695938em">R</tspan><tspan x="29.13" y="0" style="letter-spacing:-0.004013737809839269em">-</tspan><tspan x="32.17" y="0" style="letter-spacing:-0.0029574910177763035em">2</tspan><tspan x="37.29" y="0" style="letter-spacing:0.010984966637454841em">1</tspan><tspan x="42.53" y="0">)</tspan></text></g><g style="clip-path:url(#clip-path)"><line x1="659.26" y1="16.49" x2="681.34" y2="16.49" style="fill:none;stroke:#00c1a3;stroke-linecap:round;stroke-linejoin:round;stroke-width:2.48388846421682px"/></g><g style="clip-path:url(#clip-path-6)"><text transform="translate(683.68 19.43)" style="font-size:9.245590209960938px;font-family:ArialMT, Arial"><tspan style="letter-spacing:-0.004964359922695938em">R</tspan><tspan x="6.63" y="0" style="letter-spacing:0.003908113130632973em">A</tspan><tspan x="12.83" y="0" style="letter-spacing:-0.006971228827615573em">J</tspan><tspan x="17.39" y="0" style="letter-spacing:-0.008978097732535207em"> </tspan><tspan x="19.88" y="0" style="letter-spacing:0.009928719845391875em">(</tspan><tspan x="23.05" y="0" style="letter-spacing:-0.004964359922695938em">R</tspan><tspan x="29.68" y="0" style="letter-spacing:-0.004013737809839269em">-</tspan><tspan x="32.72" y="0" style="letter-spacing:-0.0029574910177763035em">25</tspan><tspan x="42.95" y="0">)</tspan></text></g><polygon points="2 2 898.96 2 898.96 340.91 2 340.91 2 2 2 2" style="fill:none;stroke:#d9d9d9;stroke-linejoin:round;stroke-width:0.827962912795298px"/></svg>