<svg id="Layer_1" data-name="Layer 1" xmlns="http://www.w3.org/2000/svg" xmlns:xlink="http://www.w3.org/1999/xlink" viewBox="0 0 900 350"><defs><clipPath id="clip-path"><polygon points="2.86 1.85 898.07 1.85 898.07 347.44 2.86 347.44 2.86 1.85 2.86 1.85" style="fill:none;clip-rule:evenodd"/></clipPath><clipPath id="clip-path-2"><polygon points="2.86 1.85 898.07 1.85 898.07 60.02 2.86 60.02 2.86 1.85 2.86 1.85" style="fill:none;clip-rule:evenodd"/></clipPath><clipPath id="clip-path-4"><polygon points="266.71 60.88 380.64 60.88 380.64 124.18 266.71 124.18 266.71 60.88 266.71 60.88" style="fill:none;clip-rule:evenodd"/></clipPath><clipPath id="clip-path-5"><polygon points="553.69 125.03 667.62 125.03 667.62 188.33 553.69 188.33 553.69 125.03 553.69 125.03" style="fill:none;clip-rule:evenodd"/></clipPath><clipPath id="clip-path-6"><polygon points="266.71 189.19 380.64 189.19 380.64 252.49 266.71 252.49 266.71 189.19 266.71 189.19" style="fill:none;clip-rule:evenodd"/></clipPath><clipPath id="clip-path-7"><polygon points="2.86 317.5 897.21 317.5 897.21 346.58 2.86 346.58 2.86 317.5 2.86 317.5" style="fill:none;clip-rule:evenodd"/></clipPath><clipPath id="clip-path-8"><polygon points="2.86 60.88 120.22 60.88 120.22 188.33 2.86 188.33 2.86 60.88 2.86 60.88" style="fill:none;clip-rule:evenodd"/></clipPath><clipPath id="clip-path-9"><polygon points="121.08 60.88 208.46 60.88 208.46 188.33 121.08 188.33 121.08 60.88 121.08 60.88" style="fill:none;clip-rule:evenodd"/></clipPath><clipPath id="clip-path-10"><polygon points="2 1 898.07 1 898.07 347.44 2 347.44 2 1 2 1" style="fill:none;clip-rule:evenodd"/></clipPath></defs><title>seasonal-calendar</title><g style="clip-path:url(#clip-path)"><polyline points="2 1 2 60.88 898.07 60.88 898.07 1 2 1" style="fill:#d9d9d9;fill-rule:evenodd"/><polyline points="897.21 1 897.21 60.88 926.34 60.88 926.34 1 897.21 1" style="fill:#fff;fill-rule:evenodd"/><polyline points="2 60.02 2 125.03 209.31 125.03 209.31 60.02 2 60.02" style="fill:#f2f2f2;fill-rule:evenodd"/><polyline points="208.46 60.02 208.46 125.03 266.71 125.03 266.71 60.02 208.46 60.02" style="fill:#5e9fff;fill-rule:evenodd"/><polyline points="265.85 60.02 265.85 125.03 381.5 125.03 381.5 60.02 265.85 60.02" style="fill:#06f;fill-rule:evenodd"/><polyline points="380.64 60.02 380.64 125.03 438.9 125.03 438.9 60.02 380.64 60.02" style="fill:#0044ab;fill-rule:evenodd"/><polyline points="438.04 60.02 438.04 125.03 926.34 125.03 926.34 60.02 438.04 60.02" style="fill:#fff;fill-rule:evenodd"/><polyline points="2 124.18 2 189.19 209.31 189.19 209.31 124.18 2 124.18" style="fill:#f2f2f2;fill-rule:evenodd"/><polyline points="495.44 124.18 495.44 189.19 553.69 189.19 553.69 124.18 495.44 124.18" style="fill:#5e9fff;fill-rule:evenodd"/><polyline points="552.83 124.18 552.83 189.19 668.48 189.19 668.48 124.18 552.83 124.18" style="fill:#06f;fill-rule:evenodd"/><polyline points="667.62 124.18 667.62 189.19 725.88 189.19 725.88 124.18 667.62 124.18" style="fill:#0044ab;fill-rule:evenodd"/><polyline points="725.02 124.18 725.02 189.19 926.34 189.19 926.34 124.18 725.02 124.18" style="fill:#fff;fill-rule:evenodd"/><polyline points="2 188.33 2 253.34 209.31 253.34 209.31 188.33 2 188.33" style="fill:#f2f2f2;fill-rule:evenodd"/><polyline points="208.46 188.33 208.46 253.34 266.71 253.34 266.71 188.33 208.46 188.33" style="fill:#5e9fff;fill-rule:evenodd"/><polyline points="265.85 188.33 265.85 253.34 381.5 253.34 381.5 188.33 265.85 188.33" style="fill:#06f;fill-rule:evenodd"/><polyline points="380.64 188.33 380.64 253.34 438.9 253.34 438.9 188.33 380.64 188.33" style="fill:#0044ab;fill-rule:evenodd"/><polyline points="438.04 188.33 438.04 253.34 926.34 253.34 926.34 188.33 438.04 188.33" style="fill:#fff;fill-rule:evenodd"/><polyline points="2 252.49 2 317.5 209.31 317.5 209.31 252.49 2 252.49" style="fill:#f2f2f2;fill-rule:evenodd"/><polyline points="265.85 252.49 265.85 317.5 324.1 317.5 324.1 252.49 265.85 252.49" style="fill:#5e9fff;fill-rule:evenodd"/><polyline points="323.25 252.49 323.25 317.5 381.5 317.5 381.5 252.49 323.25 252.49" style="fill:#06f;fill-rule:evenodd"/><polyline points="380.64 252.49 380.64 317.5 438.9 317.5 438.9 252.49 380.64 252.49" style="fill:#0044ab;fill-rule:evenodd"/><polyline points="438.04 252.49 438.04 317.5 926.34 317.5 926.34 252.49 438.04 252.49" style="fill:#fff;fill-rule:evenodd"/><polyline points="2 316.64 2 347.44 926.34 347.44 926.34 316.64 2 316.64" style="fill:#fff;fill-rule:evenodd"/></g><g style="clip-path:url(#clip-path-2)"><text transform="translate(10.57 35.21)" style="font-size:11.120129585266113px;font-family:Arial-BoldMT, Arial;font-weight:700"><tspan style="letter-spacing:-0.028937556852321942em">A</tspan><tspan x="7.71" y="0" style="letter-spacing:0.003946030479862083em">g</tspan><tspan x="14.54" y="0" style="letter-spacing:-0.003946030479862083em">r</tspan><tspan x="18.83" y="0" style="letter-spacing:0.003946030479862083em">o</tspan><tspan x="25.67" y="0" style="letter-spacing:-0.02499152637245986em">-</tspan><tspan x="29.09" y="0" style="letter-spacing:-0.017011775846516537em">c</tspan><tspan x="35.09" y="0" style="letter-spacing:0.029025246418541106em">li</tspan><tspan x="41.91" y="0" style="letter-spacing:0.032971276898403186em">m</tspan><tspan x="52.16" y="0" style="letter-spacing:0.059015078065492936em">a</tspan><tspan x="59" y="0" style="letter-spacing:-0.02499152637245986em">t</tspan><tspan x="62.43" y="0" style="letter-spacing:0.029025246418541106em">i</tspan><tspan x="65.84" y="0" style="letter-spacing:-0.017011775846516537em">c</tspan><tspan x="71.84" y="0" style="letter-spacing:0.029025246418541106em"> </tspan><tspan x="75.25" y="0" style="letter-spacing:0.038057271739114315em">z</tspan><tspan x="81.23" y="0" style="letter-spacing:0.003946030479862083em">on</tspan><tspan x="94.91" y="0">e</tspan></text><text transform="translate(145.92 35.21)" style="font-size:11.120129585266113px;font-family:Arial-BoldMT, Arial;font-weight:700"><tspan style="letter-spacing:-0.028937556852321942em">R</tspan><tspan x="7.71" y="0" style="letter-spacing:0.059015078065492936em">e</tspan><tspan x="14.55" y="0" style="letter-spacing:0.003946030479862083em">g</tspan><tspan x="21.39" y="0" style="letter-spacing:0.029025246418541106em">i</tspan><tspan x="24.8" y="0" style="letter-spacing:0.00403372004608124em">o</tspan><tspan x="31.63" y="0">n</tspan></text><text transform="translate(228.16 35.21)" style="font-size:11.120129585266113px;font-family:Arial-BoldMT, Arial;font-weight:700"><tspan style="letter-spacing:-0.017011775846516537em">J</tspan><tspan x="6" y="0" style="letter-spacing:0.00403372004608124em">u</tspan><tspan x="12.83" y="0">n</tspan></text><text transform="translate(287.28 35.21)" style="font-size:11.120129585266113px;font-family:Arial-BoldMT, Arial;font-weight:700"><tspan style="letter-spacing:-0.017011775846516537em">J</tspan><tspan x="6" y="0" style="letter-spacing:0.00403372004608124em">u</tspan><tspan x="12.83" y="0">l</tspan></text><text transform="translate(342.1 35.21)" style="font-size:11.120129585266113px;font-family:Arial-BoldMT, Arial;font-weight:700"><tspan style="letter-spacing:-0.029025246418541106em">A</tspan><tspan x="7.71" y="0" style="letter-spacing:0.003946030479862083em">u</tspan><tspan x="14.54" y="0">g</tspan></text><text transform="translate(399.49 35.21)" style="font-size:11.120129585266113px;font-family:Arial-BoldMT, Arial;font-weight:700"><tspan style="letter-spacing:0.02499152637245986em">S</tspan><tspan x="7.69" y="0" style="letter-spacing:0.059015078065492936em">e</tspan><tspan x="14.54" y="0">p</tspan></text><text transform="translate(458.61 35.21)" style="font-size:11.120129585266113px;font-family:Arial-BoldMT, Arial;font-weight:700"><tspan style="letter-spacing:-0.007979750525943324em">O</tspan><tspan x="8.56" y="0" style="letter-spacing:-0.017011775846516537em">c</tspan><tspan x="14.56" y="0">t</tspan></text><text transform="translate(514.29 35.21)" style="font-size:11.120129585266113px;font-family:Arial-BoldMT, Arial;font-weight:700;letter-spacing:-0.029025246418541106em">N<tspan x="7.71" y="0" style="letter-spacing:0.003946030479862083em">o</tspan><tspan x="14.54" y="0" style="letter-spacing:0.00008768956621915741em">v</tspan></text><text transform="translate(571.68 35.21)" style="font-size:11.120129585266113px;font-family:Arial-BoldMT, Arial;font-weight:700"><tspan style="letter-spacing:-0.029025246418541106em">D</tspan><tspan x="7.71" y="0" style="letter-spacing:0.059015078065492936em">e</tspan><tspan x="14.55" y="0">c</tspan></text><text transform="translate(629.08 35.21)" style="font-size:11.120129585266113px;font-family:Arial-BoldMT, Arial;font-weight:700;letter-spacing:-0.017011775846516537em">J<tspan x="6" y="0" style="letter-spacing:0.05910276763171209em">a</tspan><tspan x="12.84" y="0" style="letter-spacing:-0.00008768956621915741em">n</tspan></text><text transform="translate(686.48 35.21)" style="font-size:11.120129585266113px;font-family:Arial-BoldMT, Arial;font-weight:700"><tspan style="letter-spacing:0.00403372004608124em">F</tspan><tspan x="6.84" y="0" style="letter-spacing:0.059015078065492936em">e</tspan><tspan x="13.68" y="0">b</tspan></text><text transform="translate(743.87 35.21)" style="font-size:11.120129585266113px;font-family:Arial-BoldMT, Arial;font-weight:700"><tspan style="letter-spacing:0.012978055800435297em">M</tspan><tspan x="9.41" y="0" style="letter-spacing:0.059015078065492936em">a</tspan><tspan x="16.25" y="0">r</tspan></text><text transform="translate(802.12 35.21)" style="font-size:11.120129585266113px;font-family:Arial-BoldMT, Arial;font-weight:700"><tspan style="letter-spacing:-0.029025246418541106em">A</tspan><tspan x="7.71" y="0" style="letter-spacing:0.003946030479862083em">p</tspan><tspan x="14.54" y="0">r</tspan></text><text transform="translate(857.81 35.21)" style="font-size:11.120129585266113px;font-family:Arial-BoldMT, Arial;font-weight:700"><tspan style="letter-spacing:0.012978055800435297em">M</tspan><tspan x="9.41" y="0" style="letter-spacing:0.059015078065492936em">a</tspan><tspan x="16.25" y="0">y</tspan></text></g><g style="clip-path:url(#clip-path)"><text transform="translate(49.98 225.12)" style="font-size:11.120129585266113px;font-family:Arial-BoldMT, Arial;font-weight:700;letter-spacing:0.02499152637245986em">SP<tspan x="15.39" y="0" style="letter-spacing:-0.00008768956621915741em">H</tspan></text><text transform="translate(130.5 225.12)" style="font-size:11.120129585266113px;font-family:Arial-BoldMT, Arial;font-weight:700"><tspan style="letter-spacing:-0.029025246418541106em">R</tspan><tspan x="7.71" y="0" style="letter-spacing:-0.025079215938679022em">-</tspan><tspan x="11.13" y="0" style="letter-spacing:-0.01692408628029738em">2</tspan><tspan x="17.13" y="0">1</tspan></text><text transform="translate(49.12 289.27)" style="font-size:11.120129585266113px;font-family:Arial-BoldMT, Arial;font-weight:700"><tspan style="letter-spacing:0.055945943247822434em">W</tspan><tspan x="11.12" y="0" style="letter-spacing:-0.029025246418541106em">D</tspan><tspan x="18.83" y="0">Z</tspan></text><text transform="translate(130.5 289.27)" style="font-size:11.120129585266113px;font-family:Arial-BoldMT, Arial;font-weight:700"><tspan style="letter-spacing:-0.029025246418541106em">R</tspan><tspan x="7.71" y="0" style="letter-spacing:-0.025079215938679022em">-</tspan><tspan x="11.13" y="0" style="letter-spacing:-0.01692408628029738em">2</tspan><tspan x="17.13" y="0">5</tspan></text><text transform="translate(336.1 289.27)" style="font-size:11.120129585266113px;fill:#fff;font-family:Arial-BoldMT, Arial;font-weight:700;letter-spacing:-0.028937556852321942em">K<tspan x="7.71" y="0" style="letter-spacing:0.003946030479862083em">h</tspan><tspan x="14.54" y="0" style="letter-spacing:0.059015078065492936em">a</tspan><tspan x="21.39" y="0" style="letter-spacing:-0.003946030479862083em">r</tspan><tspan x="25.67" y="0" style="letter-spacing:0.029025246418541106em">i</tspan><tspan x="29.08" y="0" style="letter-spacing:-0.00008768956621915741em">f</tspan></text></g><g style="clip-path:url(#clip-path-4)"><text transform="translate(307.83 95.95)" style="font-size:11.120129585266113px;fill:#fff;font-family:Arial-BoldMT, Arial;font-weight:700;letter-spacing:-0.028937556852321942em">K<tspan x="7.71" y="0" style="letter-spacing:0.003946030479862083em">h</tspan><tspan x="14.54" y="0" style="letter-spacing:0.059015078065492936em">a</tspan><tspan x="21.39" y="0" style="letter-spacing:-0.003946030479862083em">r</tspan><tspan x="25.67" y="0" style="letter-spacing:0.029025246418541106em">i</tspan><tspan x="29.08" y="0" style="letter-spacing:-0.00008768956621915741em">f</tspan></text></g><g style="clip-path:url(#clip-path-5)"><text transform="translate(587.96 160.1)" style="font-size:11.120129585266113px;fill:#fff;font-family:Arial-BoldMT, Arial;font-weight:700"><tspan style="letter-spacing:0.02499152637245986em">S</tspan><tspan x="7.69" y="0" style="letter-spacing:0.00403372004608124em">u</tspan><tspan x="14.53" y="0" style="letter-spacing:0.032971276898403186em">mm</tspan><tspan x="35.04" y="0" style="letter-spacing:0.059015078065492936em">e</tspan><tspan x="41.88" y="0">r</tspan></text></g><g style="clip-path:url(#clip-path-6)"><text transform="translate(307.83 224.26)" style="font-size:11.120129585266113px;fill:#fff;font-family:Arial-BoldMT, Arial;font-weight:700;letter-spacing:-0.028937556852321942em">K<tspan x="7.71" y="0" style="letter-spacing:0.003946030479862083em">h</tspan><tspan x="14.54" y="0" style="letter-spacing:0.059015078065492936em">a</tspan><tspan x="21.39" y="0" style="letter-spacing:-0.003946030479862083em">r</tspan><tspan x="25.67" y="0" style="letter-spacing:0.029025246418541106em">i</tspan><tspan x="29.08" y="0" style="letter-spacing:-0.00008768956621915741em">f</tspan></text></g><g style="clip-path:url(#clip-path-7)"><text transform="translate(4.57 335.46)" style="font-size:10.264739990234375px;font-family:Arial-BoldMT, Arial;font-weight:700"><tspan style="letter-spacing:-0.055003253680515514em">N</tspan><tspan x="6.85" y="0" style="letter-spacing:-0.02697914342878481em">o</tspan><tspan x="12.84" y="0">t</tspan><tspan x="16.26" y="0" style="letter-spacing:0.027074140412688984em">e</tspan><tspan x="22.25" y="0">:</tspan></text><text transform="translate(29.42 335.46)" style="font-size:10.264739990234375px;font-family:ArialMT, Arial"> </text><text transform="translate(31.98 335.46)" style="font-size:10.264739990234375px;font-family:Arial-BoldMT, Arial;font-weight:700"><tspan style="letter-spacing:-0.08302736393224622em">E</tspan><tspan x="5.99" y="0" style="letter-spacing:-0.05490825669661134em">C</tspan><tspan x="12.84" y="0">P</tspan><tspan x="19.69" y="0" style="letter-spacing:-0.055003253680515514em">H</tspan><tspan x="26.54" y="0" style="letter-spacing:-0.00009499698390417186em"> </tspan></text><text transform="translate(61.11 335.46)" style="font-size:10.264739990234375px;font-family:ArialMT, Arial">E<tspan x="6.85" y="0" style="letter-spacing:0.027074140412688984em">a</tspan><tspan x="12.83" y="0" style="letter-spacing:0.08302736393224622em">s</tspan><tspan x="18.82" y="0" style="letter-spacing:-0.027074140412688984em">t</tspan><tspan x="21.39" y="0" style="letter-spacing:0.027074140412688984em">e</tspan><tspan x="27.38" y="0">r</tspan><tspan x="30.8" y="0" style="letter-spacing:0.027074140412688984em">n</tspan><tspan x="36.78" y="0" style="letter-spacing:-0.027074140412688984em"> </tspan><tspan x="39.36" y="0" style="letter-spacing:0.027074140412688984em">Coa</tspan><tspan x="59.02" y="0" style="letter-spacing:0.08302736393224622em">s</tspan><tspan x="65" y="0" style="letter-spacing:-0.027074140412688984em">t</tspan><tspan x="67.58" y="0" style="letter-spacing:0.027074140412688984em">al</tspan><tspan x="76.12" y="0" style="letter-spacing:-0.027074140412688984em"> </tspan><tspan x="78.7" y="0" style="letter-spacing:0.00009499698390417186em">P</tspan><tspan x="85.54" y="0" style="letter-spacing:0.026884146444880637em">lain</tspan><tspan x="102.63" y="0" style="letter-spacing:0.08302736393224622em">s</tspan><tspan x="108.61" y="0" style="letter-spacing:-0.027074140412688984em"> </tspan><tspan x="111.19" y="0">&amp;</tspan><tspan x="118.03" y="0" style="letter-spacing:-0.02697914342878481em"> </tspan><tspan x="120.61" y="0" style="letter-spacing:0.02697914342878481em">Hill</tspan><tspan x="135.97" y="0" style="letter-spacing:0.08302736393224622em">s</tspan><tspan x="141.96" y="0" style="letter-spacing:-0.027074140412688984em">,</tspan><tspan x="144.53" y="0"> </tspan></text><text transform="translate(208.46 335.46)" style="font-size:10.264739990234375px;font-family:Arial-BoldMT, Arial;font-weight:700">SP<tspan x="13.69" y="0" style="letter-spacing:-0.055003253680515514em">H</tspan><tspan x="20.54" y="0"> </tspan></text><text transform="translate(231.59 335.46)" style="font-size:10.264739990234375px;font-family:ArialMT, Arial">S<tspan x="6.85" y="0" style="letter-spacing:0.027074140412688984em">ou</tspan><tspan x="18.82" y="0" style="letter-spacing:-0.02697914342878481em">t</tspan><tspan x="21.39" y="0" style="letter-spacing:0.027074140412688984em">he</tspan><tspan x="33.36" y="0" style="letter-spacing:0.00009499698390417186em">r</tspan><tspan x="36.78" y="0" style="letter-spacing:0.02697914342878481em">n</tspan><tspan x="42.77" y="0" style="letter-spacing:-0.02697914342878481em"> </tspan><tspan x="45.34" y="0">P</tspan><tspan x="52.19" y="0" style="letter-spacing:0.02697914342878481em">la</tspan><tspan x="60.73" y="0" style="letter-spacing:-0.02697914342878481em">t</tspan><tspan x="63.31" y="0" style="letter-spacing:0.02697914342878481em">eau</tspan><tspan x="81.27" y="0" style="letter-spacing:-0.027074140412688984em"> </tspan><tspan x="83.84" y="0">&amp;</tspan><tspan x="90.69" y="0" style="letter-spacing:-0.02697914342878481em"> </tspan><tspan x="93.26" y="0" style="letter-spacing:0.02697914342878481em">Hill</tspan><tspan x="108.63" y="0" style="letter-spacing:0.08302736393224622em">s</tspan><tspan x="114.61" y="0" style="letter-spacing:-0.027074140412688984em">,</tspan><tspan x="117.18" y="0"> </tspan></text><text transform="translate(351.51 335.46)" style="font-size:10.264739990234375px;font-family:Arial-BoldMT, Arial;font-weight:700"><tspan style="letter-spacing:0.05595322351955723em">W</tspan><tspan x="10.26" y="0" style="letter-spacing:-0.055003253680515514em">D</tspan><tspan x="17.11" y="0">Z</tspan></text><text transform="translate(374.65 335.46)" style="font-size:10.264739990234375px;font-family:ArialMT, Arial"><tspan xml:space="preserve" style="letter-spacing:-0.027074140412688984em"> W</tspan><tspan x="11.99" y="0" style="letter-spacing:0.02697914342878481em">e</tspan><tspan x="17.97" y="0" style="letter-spacing:0.08302736393224622em">s</tspan><tspan x="23.96" y="0" style="letter-spacing:-0.02697914342878481em">t</tspan><tspan x="26.53" y="0" style="letter-spacing:0.02697914342878481em">e</tspan><tspan x="32.52" y="0" style="letter-spacing:0.00009499698390417186em">r</tspan><tspan x="35.94" y="0" style="letter-spacing:0.027074140412688984em">n</tspan><tspan x="41.92" y="0" style="letter-spacing:-0.027074140412688984em"> </tspan><tspan x="44.5" y="0" style="letter-spacing:0.02697914342878481em">D</tspan><tspan x="52.19" y="0" style="letter-spacing:0.00009499698390417186em">r</tspan><tspan x="55.6" y="0" style="letter-spacing:-0.08302736393224622em">y</tspan><tspan x="59.88" y="0" xml:space="preserve" style="letter-spacing:-0.02697914342878481em"> Z</tspan><tspan x="68.45" y="0" style="letter-spacing:0.02697914342878481em">on</tspan><tspan x="80.42" y="0">e</tspan></text></g><g style="clip-path:url(#clip-path-8)"><text transform="translate(46.55 128.46)" style="font-size:11.120129585266113px;font-family:Arial-BoldMT, Arial;font-weight:700;letter-spacing:-0.050947637973330455em">E<tspan x="6.85" y="0" style="letter-spacing:-0.029025246418541106em">C</tspan><tspan x="14.56" y="0" style="letter-spacing:0.025079215938679022em">P</tspan><tspan x="22.25" y="0" style="letter-spacing:-0.00008768956621915741em">H</tspan></text></g><g style="clip-path:url(#clip-path-9)"><text transform="translate(130.5 128.46)" style="font-size:11.120129585266113px;font-family:Arial-BoldMT, Arial;font-weight:700;letter-spacing:-0.029025246418541106em">R<tspan x="7.71" y="0" style="letter-spacing:-0.025079215938679022em">-</tspan><tspan x="11.13" y="0" style="letter-spacing:0.00008768956621915741em">1</tspan></text></g><g style="clip-path:url(#clip-path-10)"><polyline points="2.86 1 2.86 1.85 898.07 1.85 898.07 1 2.86 1" style="fill:#bfbfbf;fill-rule:evenodd"/><polyline points="265.85 1.85 265.85 60.88 266.71 60.88 266.71 1.85 265.85 1.85" style="fill:#bfbfbf;fill-rule:evenodd"/><polyline points="380.64 1.85 380.64 60.88 381.5 60.88 381.5 1.85 380.64 1.85" style="fill:#bfbfbf;fill-rule:evenodd"/><polyline points="438.04 1.85 438.04 60.88 438.9 60.88 438.9 1.85 438.04 1.85" style="fill:#bfbfbf;fill-rule:evenodd"/><polyline points="2.86 60.02 2.86 60.88 898.07 60.88 898.07 60.02 2.86 60.02" style="fill:#bfbfbf;fill-rule:evenodd"/><polyline points="495.44 1.85 495.44 60.88 496.29 60.88 496.29 1.85 495.44 1.85" style="fill:#bfbfbf;fill-rule:evenodd"/><polyline points="552.83 1.85 552.83 60.88 553.69 60.88 553.69 1.85 552.83 1.85" style="fill:#bfbfbf;fill-rule:evenodd"/><polyline points="667.62 1.85 667.62 60.88 668.48 60.88 668.48 1.85 667.62 1.85" style="fill:#bfbfbf;fill-rule:evenodd"/><polyline points="725.02 1.85 725.02 60.88 725.88 60.88 725.88 1.85 725.02 1.85" style="fill:#bfbfbf;fill-rule:evenodd"/><polyline points="209.31 124.18 209.31 125.03 898.07 125.03 898.07 124.18 209.31 124.18" style="fill:#bfbfbf;fill-rule:evenodd"/><polyline points="2.86 188.33 2.86 189.19 898.07 189.19 898.07 188.33 2.86 188.33" style="fill:#bfbfbf;fill-rule:evenodd"/><polyline points="323.25 1.85 323.25 60.88 324.1 60.88 324.1 1.85 323.25 1.85" style="fill:#bfbfbf;fill-rule:evenodd"/><polyline points="2.86 252.49 2.86 253.34 898.07 253.34 898.07 252.49 2.86 252.49" style="fill:#bfbfbf;fill-rule:evenodd"/><polyline points="2 1 2 317.5 2.86 317.5 2.86 1 2 1" style="fill:#bfbfbf;fill-rule:evenodd"/><polyline points="2.86 316.64 2.86 317.5 898.07 317.5 898.07 316.64 2.86 316.64" style="fill:#bfbfbf;fill-rule:evenodd"/><polyline points="897.21 1.85 897.21 317.5 898.07 317.5 898.07 1.85 897.21 1.85" style="fill:#bfbfbf;fill-rule:evenodd"/><polyline points="120.22 1.85 120.22 317.5 121.08 317.5 121.08 1.85 120.22 1.85" style="fill:#bfbfbf;fill-rule:evenodd"/><polyline points="208.46 1.85 208.46 317.5 209.31 317.5 209.31 1.85 208.46 1.85" style="fill:#bfbfbf;fill-rule:evenodd"/><polyline points="265.85 253.34 265.85 317.5 266.71 317.5 266.71 253.34 265.85 253.34" style="fill:#bfbfbf;fill-rule:evenodd"/><polyline points="610.23 1.85 610.23 60.88 611.08 60.88 611.08 1.85 610.23 1.85" style="fill:#bfbfbf;fill-rule:evenodd"/><polyline points="782.42 1.85 782.42 60.88 783.27 60.88 783.27 1.85 782.42 1.85" style="fill:#bfbfbf;fill-rule:evenodd"/><polyline points="839.81 1.85 839.81 60.88 840.67 60.88 840.67 1.85 839.81 1.85" style="fill:#bfbfbf;fill-rule:evenodd"/><polyline points="2 347.44 2 348.29 2.86 348.29 2.86 347.44 2 347.44" style="fill:#d4d4d4;fill-rule:evenodd"/><polyline points="120.22 347.44 120.22 348.29 121.08 348.29 121.08 347.44 120.22 347.44" style="fill:#d4d4d4;fill-rule:evenodd"/><polyline points="208.46 347.44 208.46 348.29 209.31 348.29 209.31 347.44 208.46 347.44" style="fill:#d4d4d4;fill-rule:evenodd"/><polyline points="265.85 347.44 265.85 348.29 266.71 348.29 266.71 347.44 265.85 347.44" style="fill:#d4d4d4;fill-rule:evenodd"/><polyline points="323.25 347.44 323.25 348.29 324.1 348.29 324.1 347.44 323.25 347.44" style="fill:#d4d4d4;fill-rule:evenodd"/><polyline points="380.64 347.44 380.64 348.29 381.5 348.29 381.5 347.44 380.64 347.44" style="fill:#d4d4d4;fill-rule:evenodd"/><polyline points="438.04 347.44 438.04 348.29 438.9 348.29 438.9 347.44 438.04 347.44" style="fill:#d4d4d4;fill-rule:evenodd"/><polyline points="495.44 347.44 495.44 348.29 496.29 348.29 496.29 347.44 495.44 347.44" style="fill:#d4d4d4;fill-rule:evenodd"/><polyline points="552.83 347.44 552.83 348.29 553.69 348.29 553.69 347.44 552.83 347.44" style="fill:#d4d4d4;fill-rule:evenodd"/><polyline points="610.23 347.44 610.23 348.29 611.08 348.29 611.08 347.44 610.23 347.44" style="fill:#d4d4d4;fill-rule:evenodd"/><polyline points="667.62 347.44 667.62 348.29 668.48 348.29 668.48 347.44 667.62 347.44" style="fill:#d4d4d4;fill-rule:evenodd"/><polyline points="725.02 347.44 725.02 348.29 725.88 348.29 725.88 347.44 725.02 347.44" style="fill:#d4d4d4;fill-rule:evenodd"/><polyline points="782.42 347.44 782.42 348.29 783.27 348.29 783.27 347.44 782.42 347.44" style="fill:#d4d4d4;fill-rule:evenodd"/><polyline points="839.81 347.44 839.81 348.29 840.67 348.29 840.67 347.44 839.81 347.44" style="fill:#d4d4d4;fill-rule:evenodd"/><polyline points="897.21 347.44 897.21 348.29 898.07 348.29 898.07 347.44 897.21 347.44" style="fill:#d4d4d4;fill-rule:evenodd"/></g></svg>