<svg id="Layer_1" data-name="Layer 1" xmlns="http://www.w3.org/2000/svg" xmlns:xlink="http://www.w3.org/1999/xlink" viewBox="0 0 900 350"><defs><clipPath id="clip-path"><polygon points="2 343.35 896.87 343.35 896.87 2 2 2 2 343.35 2 343.35" style="fill:none;clip-rule:evenodd"/></clipPath><clipPath id="clip-path-2"><polygon points="97.91 301.77 884.05 301.77 884.05 19.32 97.91 19.32 97.91 301.77 97.91 301.77" style="fill:none;clip-rule:evenodd"/></clipPath><clipPath id="clip-path-6"><rect x="2" y="2" width="894.87" height="341.35" style="fill:none"/></clipPath><clipPath id="clip-path-13"><rect x="407.82" y="100.54" width="166.32" height="17.32" style="fill:none"/></clipPath></defs><title>yar</title><polygon points="2.14 2 896.87 2 896.87 343.35 2.14 343.35 2.14 2 2.14 2" style="fill:#eaeaea;fill-rule:evenodd"/><polygon points="97.91 19.46 883.23 19.46 883.23 300.94 97.91 300.94 97.91 19.46 97.91 19.46" style="fill:#fff;fill-rule:evenodd"/><path d="M97.91,300.94H883.23M97.91,160.13H883.23M97.91,89.87H883.23M97.91,19.46H883.23" style="fill:none;stroke:#d9d9d9;stroke-linejoin:round;stroke-width:0.829163301515525px"/><g style="clip-path:url(#clip-path)"><path d="M97.91,19.46V300.94M359.73,19.46V300.94M621.55,19.46V300.94M883.23,19.46V300.94" style="fill:none;stroke:#d9d9d9;stroke-linejoin:round;stroke-width:0.829163301515525px"/></g><g style="clip-path:url(#clip-path-2)"><path d="M189.27,230.53h79.1v3.05h-79.1v-3.05Zm261.82,0h79.1v10.95h-79.1V230.53Zm261.82,0H792v12.2H712.91v-12.2Z" style="fill:#ff25f3"/></g><g style="clip-path:url(#clip-path-2)"><path d="M189.27,78h79.1V230.53h-79.1V78Zm261.82,59.18h79.1v93.4h-79.1v-93.4Zm261.82,19.81H792v73.59H712.91V156.94Z" style="fill:#5e9fff"/></g><g style="clip-path:url(#clip-path-2)"><path d="M189.27,74.9h79.1v3h-79.1v-3Zm261.82,51.28h79.1v10.95h-79.1V126.18Zm261.82,18.43H792v12.33H712.91V144.61Z" style="fill:#0044ab"/></g><g style="clip-path:url(#clip-path)"><line x1="97.91" y1="230.53" x2="883.23" y2="230.53" style="fill:none;stroke:#d9d9d9;stroke-linejoin:round;stroke-width:0.829163301515525px"/></g><g style="clip-path:url(#clip-path-6)"><text transform="translate(216.91 260.09) scale(0.99 1)" style="font-size:9.285490036010742px;font-family:Arial-BoldMT, Arial;font-weight:700">-</text></g><g style="clip-path:url(#clip-path-6)"><text transform="translate(219.94 260.09) scale(0.99 1)" style="font-size:9.285490036010742px;font-family:Arial-BoldMT, Arial;font-weight:700"><tspan style="letter-spacing:-0.0029616641171759444em">2</tspan><tspan x="5.14" y="0">%</tspan></text></g><g style="clip-path:url(#clip-path-6)"><text transform="translate(479.97 261.67) scale(0.99 1)" style="font-size:9.285490036010742px;font-family:Arial-BoldMT, Arial;font-weight:700">-</text></g><g style="clip-path:url(#clip-path-6)"><text transform="translate(483 261.67) scale(0.99 1)" style="font-size:9.285490036010742px;font-family:Arial-BoldMT, Arial;font-weight:700"><tspan style="letter-spacing:-0.0029616641171759444em">12</tspan><tspan x="10.27" y="0">%</tspan></text></g><g style="clip-path:url(#clip-path-6)"><text transform="translate(741.74 261.58) scale(0.99 1)" style="font-size:9.285490036010742px;font-family:Arial-BoldMT, Arial;font-weight:700">-</text></g><g style="clip-path:url(#clip-path-6)"><text transform="translate(744.76 261.58) scale(0.99 1)" style="font-size:9.285490036010742px;font-family:Arial-BoldMT, Arial;font-weight:700"><tspan style="letter-spacing:-0.0029616641171759444em">17</tspan><tspan x="10.27" y="0">%</tspan></text></g><g style="clip-path:url(#clip-path-6)"><text transform="translate(217.06 58.49) scale(0.99 1)" style="font-size:9.285490036010742px;font-family:Arial-BoldMT, Arial;font-weight:700"><tspan style="letter-spacing:-0.0009519634662351251em">+</tspan><tspan x="5.41" y="0" style="letter-spacing:-0.003067437835646514em">2</tspan><tspan x="10.55" y="0">%</tspan></text></g><g style="clip-path:url(#clip-path-13)"><text transform="translate(479.1 112.61) scale(0.99 1)" style="font-size:9.285490036010742px;font-family:Arial-BoldMT, Arial;font-weight:700"><tspan style="letter-spacing:-0.0009519634662351251em">+</tspan><tspan x="5.41" y="0" style="letter-spacing:-0.003067437835646514em">12</tspan><tspan x="15.69" y="0">%</tspan></text></g><g style="clip-path:url(#clip-path-6)"><text transform="translate(740.5 129.75) scale(0.99 1)" style="font-size:9.285490036010742px;font-family:Arial-BoldMT, Arial;font-weight:700"><tspan style="letter-spacing:-0.0009519634662351251em">+</tspan><tspan x="5.41" y="0" style="letter-spacing:-0.003067437835646514em">17</tspan><tspan x="15.69" y="0">%</tspan></text></g><g style="clip-path:url(#clip-path-6)"><text transform="translate(65.54 304.25) scale(0.99 1)" style="font-size:10.394209861755371px;font-family:Arial-BoldMT, Arial;font-weight:700">-<tspan x="3.46" y="0" style="letter-spacing:0.003023716694561827em">0</tspan><tspan x="9.27" y="0" style="letter-spacing:0.001984314080806199em">.</tspan><tspan x="12.18" y="0" style="letter-spacing:-0.008976658936980422em">2</tspan><tspan x="17.87" y="0" style="letter-spacing:-0.00009449114670505709em">0</tspan></text></g><g style="clip-path:url(#clip-path-6)"><text transform="translate(68.97 233.88) scale(0.99 1)" style="font-size:10.394209861755371px;font-family:Arial-BoldMT, Arial;font-weight:700"><tspan style="letter-spacing:0.00292922554785677em">0</tspan><tspan x="5.81" y="0" style="letter-spacing:0.002078805227511256em">.</tspan><tspan x="8.72" y="0" style="letter-spacing:-0.00907115008368548em">0</tspan><tspan x="14.41" y="0">0</tspan></text></g><g style="clip-path:url(#clip-path-6)"><text transform="translate(68.97 163.5) scale(0.99 1)" style="font-size:10.394209861755371px;font-family:Arial-BoldMT, Arial;font-weight:700"><tspan style="letter-spacing:0.00292922554785677em">0</tspan><tspan x="5.81" y="0" style="letter-spacing:0.002078805227511256em">.</tspan><tspan x="8.72" y="0" style="letter-spacing:-0.00907115008368548em">2</tspan><tspan x="14.41" y="0">0</tspan></text></g><g style="clip-path:url(#clip-path-6)"><text transform="translate(68.97 93.13) scale(0.99 1)" style="font-size:10.394209861755371px;font-family:Arial-BoldMT, Arial;font-weight:700"><tspan style="letter-spacing:0.00292922554785677em">0</tspan><tspan x="5.81" y="0" style="letter-spacing:0.002078805227511256em">.</tspan><tspan x="8.72" y="0" style="letter-spacing:-0.00907115008368548em">4</tspan><tspan x="14.41" y="0">0</tspan></text></g><g style="clip-path:url(#clip-path-6)"><text transform="translate(68.97 22.76) scale(0.99 1)" style="font-size:10.394209861755371px;font-family:Arial-BoldMT, Arial;font-weight:700"><tspan style="letter-spacing:0.00292922554785677em">0</tspan><tspan x="5.81" y="0" style="letter-spacing:0.002078805227511256em">.</tspan><tspan x="8.72" y="0" style="letter-spacing:-0.00907115008368548em">6</tspan><tspan x="14.41" y="0">0</tspan></text></g><g style="clip-path:url(#clip-path-6)"><text transform="translate(220.53 316.63) scale(0.99 1)" style="font-size:10.394209861755371px;font-family:Arial-BoldMT, Arial;font-weight:700"><tspan style="letter-spacing:-0.001984314080806199em">R</tspan><tspan x="7.49" y="0">-1</tspan></text></g><g style="clip-path:url(#clip-path-6)"><text transform="translate(479.43 316.63) scale(0.99 1)" style="font-size:10.394209861755371px;font-family:Arial-BoldMT, Arial;font-weight:700"><tspan style="letter-spacing:-0.001984314080806199em">R</tspan><tspan x="7.49" y="0">-</tspan><tspan x="10.95" y="0" style="letter-spacing:0.00292922554785677em">2</tspan><tspan x="16.76" y="0">1</tspan></text></g><g style="clip-path:url(#clip-path-6)"><text transform="translate(741.19 316.63) scale(0.99 1)" style="font-size:10.394209861755371px;font-family:Arial-BoldMT, Arial;font-weight:700"><tspan style="letter-spacing:-0.001984314080806199em">R</tspan><tspan x="7.49" y="0">-</tspan><tspan x="10.95" y="0" style="letter-spacing:0.00292922554785677em">2</tspan><tspan x="16.76" y="0">5</tspan></text></g><g style="clip-path:url(#clip-path-6)"><text transform="translate(35.23 174.25) rotate(-90) scale(1.01 1)" style="font-size:11.437350273132324px;font-family:Arial-BoldMT, Arial;font-weight:700"><tspan style="letter-spacing:0.005008932902614319em">Q</tspan><tspan x="8.95" y="0" style="letter-spacing:0.0029714008744322227em">u</tspan><tspan x="15.97" y="0" style="letter-spacing:-0.0010187660140910477em">a</tspan><tspan x="22.32" y="0" style="letter-spacing:0.003056298042273144em">n</tspan><tspan x="29.34" y="0" style="letter-spacing:0.003990166888523271em">t</tspan><tspan x="33.2" y="0">i</tspan><tspan x="36.38" y="0" style="letter-spacing:0.004075064056364191em">t</tspan><tspan x="40.23" y="0" style="letter-spacing:-0.01307416384750178em">y</tspan><tspan x="46.44" y="0" style="letter-spacing:0.010951734651478764em"> </tspan><tspan x="49.75" y="0" style="letter-spacing:0.00008489716784092064em">&amp; </tspan><tspan x="61.18" y="0" style="letter-spacing:0.0070464649307964144em">Y</tspan><tspan x="68.89" y="0" style="letter-spacing:-0.0010187660140910477em">a</tspan><tspan x="75.24" y="0" style="letter-spacing:0.00008489716784092064em">R</tspan><tspan x="83.5" y="0" style="letter-spacing:0.010951734651478764em"> </tspan><tspan x="86.81" y="0" style="letter-spacing:0.004075064056364191em">(</tspan><tspan x="90.66" y="0" style="letter-spacing:0.02198836647079845em">M</tspan><tspan x="100.44" y="0" style="letter-spacing:0.014941901540002033em">T</tspan><tspan x="107.6" y="0" style="letter-spacing:0.00008489716784092064em">)</tspan></text></g><g style="clip-path:url(#clip-path-6)"><text transform="translate(427.83 336.53) scale(0.99 1)" style="font-size:11.5029296875px;font-family:Arial-BoldMT, Arial;font-weight:700">R<tspan x="8.31" y="0" style="letter-spacing:-0.0010246024297593391em">e</tspan><tspan x="14.69" y="0" style="letter-spacing:0.002988423753464739em">g</tspan><tspan x="21.75" y="0">i</tspan><tspan x="24.95" y="0" style="letter-spacing:0.002988423753464739em">on</tspan><tspan x="39.07" y="0">s</tspan></text></g><polygon points="2.14 2 896.87 2 896.87 343.35 2.14 343.35 2.14 2 2.14 2" style="fill:none;stroke:#d9d9d9;stroke-linejoin:round;stroke-width:0.829163370157172px"/></svg>