<svg id="Layer_1" data-name="Layer 1" xmlns="http://www.w3.org/2000/svg" xmlns:xlink="http://www.w3.org/1999/xlink" viewBox="0 0 900 350"><defs><clipPath id="clip-path"><polygon points="1.09 0.66 899.22 0.66 899.22 298.5 1.09 298.5 1.09 0.66 1.09 0.66" style="fill:none;clip-rule:evenodd"/></clipPath><clipPath id="clip-path-2"><polygon points="1.09 0.66 899.22 0.66 899.22 26.84 1.09 26.84 1.09 0.66 1.09 0.66" style="fill:none;clip-rule:evenodd"/></clipPath><clipPath id="clip-path-3"><polygon points="1.09 27.93 899.22 27.93 899.22 54.12 1.09 54.12 1.09 27.93 1.09 27.93" style="fill:none;clip-rule:evenodd"/></clipPath><clipPath id="clip-path-4"><polygon points="1.09 55.21 899.22 55.21 899.22 97.76 1.09 97.76 1.09 55.21 1.09 55.21" style="fill:none;clip-rule:evenodd"/></clipPath><clipPath id="clip-path-5"><polygon points="1.09 260.31 898.13 260.31 898.13 297.41 1.09 297.41 1.09 260.31 1.09 260.31" style="fill:none;clip-rule:evenodd"/></clipPath><clipPath id="clip-path-6"><polygon points="1.09 98.85 146.41 98.85 146.41 178.49 1.09 178.49 1.09 98.85 1.09 98.85" style="fill:none;clip-rule:evenodd"/></clipPath><clipPath id="clip-path-7"><polygon points="1.09 179.58 146.41 179.58 146.41 259.22 1.09 259.22 1.09 179.58 1.09 179.58" style="fill:none;clip-rule:evenodd"/></clipPath><clipPath id="clip-path-8"><polygon points="335.43 179.58 757.18 179.58 757.18 218.86 335.43 218.86 335.43 179.58 335.43 179.58" style="fill:none;clip-rule:evenodd"/></clipPath><clipPath id="clip-path-9"><polygon points="476.38 219.95 757.18 219.95 757.18 259.22 476.38 259.22 476.38 219.95 476.38 219.95" style="fill:none;clip-rule:evenodd"/></clipPath><clipPath id="clip-path-10"><polygon points="335.43 98.85 757.18 98.85 757.18 138.12 335.43 138.12 335.43 98.85 335.43 98.85" style="fill:none;clip-rule:evenodd"/></clipPath><clipPath id="clip-path-11"><polygon points="335.43 139.21 898.13 139.21 898.13 178.49 335.43 178.49 335.43 139.21 335.43 139.21" style="fill:none;clip-rule:evenodd"/></clipPath><clipPath id="clip-path-12"><polygon points="147.5 0.66 334.34 0.66 334.34 26.84 147.5 26.84 147.5 0.66 147.5 0.66" style="fill:none;clip-rule:evenodd"/></clipPath><clipPath id="clip-path-13"><polygon points="335.43 0.66 522.27 0.66 522.27 26.84 335.43 26.84 335.43 0.66 335.43 0.66" style="fill:none;clip-rule:evenodd"/></clipPath><clipPath id="clip-path-14"><polygon points="523.36 0.66 710.2 0.66 710.2 26.84 523.36 26.84 523.36 0.66 523.36 0.66" style="fill:none;clip-rule:evenodd"/></clipPath><clipPath id="clip-path-15"><polygon points="711.29 0.66 898.13 0.66 898.13 26.84 711.29 26.84 711.29 0.66 711.29 0.66" style="fill:none;clip-rule:evenodd"/></clipPath><clipPath id="clip-path-16"><polygon points="241.47 55.21 334.34 55.21 334.34 97.76 241.47 97.76 241.47 55.21 241.47 55.21" style="fill:none;clip-rule:evenodd"/></clipPath><clipPath id="clip-path-17"><polygon points="335.43 55.21 475.29 55.21 475.29 97.76 335.43 97.76 335.43 55.21 335.43 55.21" style="fill:none;clip-rule:evenodd"/></clipPath><clipPath id="clip-path-18"><polygon points="476.38 55.21 616.23 55.21 616.23 97.76 476.38 97.76 476.38 55.21 476.38 55.21" style="fill:none;clip-rule:evenodd"/></clipPath><clipPath id="clip-path-19"><polygon points="617.32 55.21 757.18 55.21 757.18 97.76 617.32 97.76 617.32 55.21 617.32 55.21" style="fill:none;clip-rule:evenodd"/></clipPath><clipPath id="clip-path-20"><polygon points="758.27 55.21 898.13 55.21 898.13 97.76 758.27 97.76 758.27 55.21 758.27 55.21" style="fill:none;clip-rule:evenodd"/></clipPath><clipPath id="clip-path-21"><polygon points="0 -0.43 899.22 -0.43 899.22 298.5 0 298.5 0 -0.43 0 -0.43" style="fill:none;clip-rule:evenodd"/></clipPath></defs><title>dcc</title><g style="clip-path:url(#clip-path)"><polyline points="0 -0.43 0 98.85 899.22 98.85 899.22 -0.43 0 -0.43" style="fill:#d9d9d9;fill-rule:evenodd"/><polyline points="898.13 -0.43 898.13 98.85 948.38 98.85 948.38 -0.43 898.13 -0.43" style="fill:#fff;fill-rule:evenodd"/><polyline points="0 97.76 0 139.21 147.5 139.21 147.5 97.76 0 97.76" style="fill:#f2f2f2;fill-rule:evenodd"/><polyline points="146.41 97.76 146.41 139.21 335.43 139.21 335.43 97.76 146.41 97.76" style="fill:#fff;fill-rule:evenodd"/><polyline points="334.34 97.76 334.34 139.21 758.27 139.21 758.27 97.76 334.34 97.76" style="fill:#00a188;fill-rule:evenodd"/><polyline points="757.18 97.76 757.18 139.21 948.38 139.21 948.38 97.76 757.18 97.76" style="fill:#fff;fill-rule:evenodd"/><polyline points="0 138.12 0 179.58 147.5 179.58 147.5 138.12 0 138.12" style="fill:#f2f2f2;fill-rule:evenodd"/><polyline points="146.41 138.12 146.41 179.58 335.43 179.58 335.43 138.12 146.41 138.12" style="fill:#fff;fill-rule:evenodd"/><polyline points="334.34 138.12 334.34 179.58 899.22 179.58 899.22 138.12 334.34 138.12" style="fill:#00a188;fill-rule:evenodd"/><polyline points="898.13 138.12 898.13 179.58 948.38 179.58 948.38 138.12 898.13 138.12" style="fill:#fff;fill-rule:evenodd"/><polyline points="0 178.49 0 219.95 147.5 219.95 147.5 178.49 0 178.49" style="fill:#f2f2f2;fill-rule:evenodd"/><polyline points="146.41 178.49 146.41 219.95 335.43 219.95 335.43 178.49 146.41 178.49" style="fill:#fff;fill-rule:evenodd"/><polyline points="334.34 178.49 334.34 219.95 758.27 219.95 758.27 178.49 334.34 178.49" style="fill:#5e9fff;fill-rule:evenodd"/><polyline points="757.18 178.49 757.18 219.95 948.38 219.95 948.38 178.49 757.18 178.49" style="fill:#fff;fill-rule:evenodd"/><polyline points="0 218.86 0 260.31 147.5 260.31 147.5 218.86 0 218.86" style="fill:#f2f2f2;fill-rule:evenodd"/><polyline points="146.41 218.86 146.41 260.31 476.38 260.31 476.38 218.86 146.41 218.86" style="fill:#fff;fill-rule:evenodd"/><polyline points="475.29 218.86 475.29 260.31 758.27 260.31 758.27 218.86 475.29 218.86" style="fill:#5e9fff;fill-rule:evenodd"/><polyline points="757.18 218.86 757.18 260.31 948.38 260.31 948.38 218.86 757.18 218.86" style="fill:#fff;fill-rule:evenodd"/><polyline points="0 259.22 0 344.32 948.38 344.32 948.38 259.22 0 259.22" style="fill:#fff;fill-rule:evenodd"/></g><g style="clip-path:url(#clip-path-2)"><text transform="translate(45.89 18.11)" style="font-size:13.091959953308105px;font-family:Arial-BoldMT, Arial;font-weight:700">M<tspan x="10.91" y="0" style="letter-spacing:-0.026962594004718145em">O</tspan><tspan x="20.74" y="0" style="letter-spacing:-0.055042422567642836em">N</tspan><tspan x="29.47" y="0" style="letter-spacing:-0.026962594004718145em">T</tspan><tspan x="37.11" y="0" style="letter-spacing:-0.055042422567642836em">H</tspan><tspan x="45.85" y="0">S</tspan></text></g><g style="clip-path:url(#clip-path-3)"><text transform="translate(52.45 46.48)" style="font-size:14.18297004699707px;font-family:Arial-BoldMT, Arial;font-weight:700;letter-spacing:0.056033557087642606em">W<tspan x="14.18" y="0" style="letter-spacing:-0.05101460044052861em">EE</tspan><tspan x="31.65" y="0" style="letter-spacing:-0.00006875283078238357em">K</tspan></text><text transform="translate(166.08 46.48)" style="font-size:16.364959716796875px;font-family:Arial-BoldMT, Arial;font-weight:700">1</text><text transform="translate(213.06 46.48)" style="font-size:16.364959716796875px;font-family:Arial-BoldMT, Arial;font-weight:700">2</text><text transform="translate(260.05 46.48)" style="font-size:16.364959716796875px;font-family:Arial-BoldMT, Arial;font-weight:700">3</text><text transform="translate(307.03 46.48)" style="font-size:16.364959716796875px;font-family:Arial-BoldMT, Arial;font-weight:700">4</text><text transform="translate(354.01 46.48)" style="font-size:16.364959716796875px;font-family:Arial-BoldMT, Arial;font-weight:700">1</text><text transform="translate(400.99 46.48)" style="font-size:16.364959716796875px;font-family:Arial-BoldMT, Arial;font-weight:700">2</text><text transform="translate(447.97 46.48)" style="font-size:16.364959716796875px;font-family:Arial-BoldMT, Arial;font-weight:700">3</text><text transform="translate(494.96 46.48)" style="font-size:16.364959716796875px;font-family:Arial-BoldMT, Arial;font-weight:700">4</text><text transform="translate(541.94 46.48)" style="font-size:16.364959716796875px;font-family:Arial-BoldMT, Arial;font-weight:700">1</text><text transform="translate(588.92 46.48)" style="font-size:16.364959716796875px;font-family:Arial-BoldMT, Arial;font-weight:700">2</text><text transform="translate(635.9 46.48)" style="font-size:16.364959716796875px;font-family:Arial-BoldMT, Arial;font-weight:700">3</text><text transform="translate(682.88 46.48)" style="font-size:16.364959716796875px;font-family:Arial-BoldMT, Arial;font-weight:700">4</text><text transform="translate(729.86 46.48)" style="font-size:16.364959716796875px;font-family:Arial-BoldMT, Arial;font-weight:700">1</text><text transform="translate(776.85 46.48)" style="font-size:16.364959716796875px;font-family:Arial-BoldMT, Arial;font-weight:700">2</text><text transform="translate(823.84 46.48)" style="font-size:16.364959716796875px;font-family:Arial-BoldMT, Arial;font-weight:700">3</text><text transform="translate(870.82 46.48)" style="font-size:16.364959716796875px;font-family:Arial-BoldMT, Arial;font-weight:700">4</text></g><g style="clip-path:url(#clip-path-4)"><text transform="translate(44.8 81.4)" style="font-size:14.18297004699707px;font-family:Arial-BoldMT, Arial;font-weight:700;letter-spacing:0.025026030404787618em">S<tspan x="9.81" y="0" style="letter-spacing:0.003987664185378247em">T</tspan><tspan x="18.54" y="0" style="letter-spacing:-0.029013694590165864em">A</tspan><tspan x="28.37" y="0" style="letter-spacing:-0.007975328370756493em">G</tspan><tspan x="39.28" y="0" style="letter-spacing:-0.05101460044052861em">E</tspan><tspan x="48.02" y="0" style="letter-spacing:0.00006875283078238357em">S</tspan></text></g><g style="clip-path:url(#clip-path-5)"><text transform="translate(3.27 282.13)" style="font-size:12.000960350036621px;font-family:Arial-BoldMT, Arial;font-weight:700"><tspan style="letter-spacing:-0.08499110067077263em">N</tspan><tspan x="7.65" y="0" style="letter-spacing:0.024944806793429447em">o</tspan><tspan x="15.28" y="0" style="letter-spacing:0.030063773659833534em">t</tspan><tspan x="19.63" y="0" style="letter-spacing:0.0799533872466924em">e</tspan><tspan x="27.27" y="0">:</tspan></text><text transform="translate(33.86 282.13)" style="font-size:12.000960350036621px;font-family:ArialMT, Arial"> </text><text transform="translate(37.14 282.13)" style="font-size:12.000960350036621px;font-family:Arial-BoldMT, Arial;font-weight:700;letter-spacing:-0.08499110067077263em">B<tspan x="7.65" y="0" style="letter-spacing:-0.03404519233370338em">W</tspan><tspan x="18.57" y="0" style="letter-spacing:0.0000812534423238744em"> </tspan></text><text transform="translate(58.99 282.13)" style="font-size:12.000960350036621px;font-family:ArialMT, Arial"><tspan style="letter-spacing:-0.029982520217509658em">B</tspan><tspan x="7.64" y="0" style="letter-spacing:-0.010075426848160427em">a</tspan><tspan x="14.2" y="0" style="letter-spacing:0.045014407047426416em">c</tspan><tspan x="20.74" y="0" style="letter-spacing:-0.005037713424080214em">t</tspan><tspan x="24.01" y="0" style="letter-spacing:-0.00999417340583655em">e</tspan><tspan x="30.57" y="0" style="letter-spacing:0.030063773659833534em">r</tspan><tspan x="34.92" y="0" style="letter-spacing:-0.040057947065670084em">i</tspan><tspan x="37.11" y="0" style="letter-spacing:-0.00999417340583655em">a</tspan><tspan x="43.66" y="0" style="letter-spacing:-0.0399766936233462em">l</tspan><tspan x="45.85" y="0" style="letter-spacing:-0.004956459981756339em"> </tspan><tspan x="49.13" y="0" style="letter-spacing:-0.03404519233370338em">W</tspan><tspan x="60.04" y="0" style="letter-spacing:-0.0399766936233462em">il</tspan><tspan x="64.42" y="0" style="letter-spacing:-0.004956459981756339em">t,</tspan><tspan x="70.97" y="0"> </tspan></text><text transform="translate(133.29 282.13)" style="font-size:12.000960350036621px;font-family:Arial-BoldMT, Arial;font-weight:700;letter-spacing:-0.029982520217509658em">S<tspan x="7.64" y="0" style="letter-spacing:-0.0850723541130965em">R</tspan><tspan x="15.29" y="0" style="letter-spacing:0.0000812534423238744em"> </tspan></text><text transform="translate(151.86 282.13)" style="font-size:12.000960350036621px;font-family:ArialMT, Arial"><tspan style="letter-spacing:-0.029982520217509658em">S</tspan><tspan x="7.64" y="0" style="letter-spacing:-0.010075426848160427em">o</tspan><tspan x="14.2" y="0" style="letter-spacing:0.0850723541130965em">f</tspan><tspan x="18.55" y="0" style="letter-spacing:-0.005037713424080214em">t </tspan><tspan x="25.1" y="0" style="letter-spacing:-0.08499110067077263em">R</tspan><tspan x="32.75" y="0" style="letter-spacing:-0.010075426848160427em">o</tspan><tspan x="39.3" y="0" style="letter-spacing:-0.004956459981756339em">t,</tspan><tspan x="45.85" y="0"> </tspan></text><text transform="translate(201.04 282.13)" style="font-size:12.000960350036621px;font-family:Arial-BoldMT, Arial;font-weight:700;letter-spacing:-0.08499110067077263em">B<tspan x="7.65" y="0" style="letter-spacing:-0.030063773659833534em">S</tspan><tspan x="15.29" y="0" style="letter-spacing:0.0000812534423238744em"> </tspan></text><text transform="translate(219.61 282.13)" style="font-size:12.000960350036621px;font-family:ArialMT, Arial;letter-spacing:-0.029982520217509658em">B<tspan x="7.64" y="0" style="letter-spacing:-0.0399766936233462em">l</tspan><tspan x="9.83" y="0" style="letter-spacing:-0.010075426848160427em">a</tspan><tspan x="16.38" y="0" style="letter-spacing:0.045014407047426416em">c</tspan><tspan x="22.93" y="0" style="letter-spacing:-0.04509566048975029em">k</tspan><tspan x="28.39" y="0" style="letter-spacing:-0.004956459981756339em"> </tspan><tspan x="31.66" y="0">S</tspan><tspan x="39.31" y="0" style="letter-spacing:0.04493315360510255em">c</tspan><tspan x="45.85" y="0" style="letter-spacing:-0.00999417340583655em">u</tspan><tspan x="52.4" y="0" style="letter-spacing:0.029982520217509658em">r</tspan><tspan x="56.76" y="0" style="letter-spacing:0.0850723541130965em">f</tspan><tspan x="61.11" y="0" style="letter-spacing:-0.005037713424080214em">,</tspan><tspan x="64.38" y="0" style="letter-spacing:0.0000812534423238744em"> </tspan></text><text transform="translate(287.36 282.13)" style="font-size:12.000960350036621px;font-family:Arial-BoldMT, Arial;font-weight:700"><tspan style="letter-spacing:0.024944806793429447em">L</tspan><tspan x="7.63" y="0" style="letter-spacing:-0.08499110067077263em">B</tspan><tspan x="15.28" y="0"> </tspan></text><text transform="translate(305.93 282.13)" style="font-size:12.000960350036621px;font-family:ArialMT, Arial"><tspan style="letter-spacing:-0.00999417340583655em">La</tspan><tspan x="13.11" y="0" style="letter-spacing:-0.004956459981756339em">t</tspan><tspan x="16.38" y="0" style="letter-spacing:-0.00999417340583655em">e</tspan><tspan x="22.94" y="0" style="letter-spacing:-0.005037713424080214em"> </tspan><tspan x="26.21" y="0" style="letter-spacing:-0.029982520217509658em">B</tspan><tspan x="33.86" y="0" style="letter-spacing:-0.0399766936233462em">li</tspan><tspan x="38.23" y="0" style="letter-spacing:-0.010075426848160427em">gh</tspan><tspan x="51.34" y="0" style="letter-spacing:-0.004956459981756339em">t,</tspan><tspan x="57.89" y="0"> </tspan></text><text transform="translate(367.12 282.13)" style="font-size:12.000960350036621px;font-family:Arial-BoldMT, Arial;font-weight:700"><tspan style="letter-spacing:0.024944806793429447em">L</tspan><tspan x="7.63" y="0" style="letter-spacing:0.005037713424080214em">C</tspan><tspan x="16.36" y="0" style="letter-spacing:0.059965040435019316em">V</tspan><tspan x="25.08" y="0"> </tspan></text><text transform="translate(395.52 282.13)" style="font-size:12.000960350036621px;font-family:ArialMT, Arial"><tspan style="letter-spacing:-0.00999417340583655em">Lea</tspan><tspan x="19.66" y="0" style="letter-spacing:0.08499110067077263em">f</tspan><tspan x="24.02" y="0" style="letter-spacing:-0.004956459981756339em"> </tspan><tspan x="27.29" y="0" style="letter-spacing:-0.08499110067077263em">C</tspan><tspan x="34.94" y="0" style="letter-spacing:-0.010075426848160427em">u</tspan><tspan x="41.49" y="0" style="letter-spacing:0.030063773659833534em">r</tspan><tspan x="45.85" y="0" style="letter-spacing:-0.0399766936233462em">l</tspan><tspan x="48.04" y="0" style="letter-spacing:-0.004956459981756339em"> </tspan><tspan x="51.31" y="0" style="letter-spacing:0.059965040435019316em">V</tspan><tspan x="60.03" y="0" style="letter-spacing:-0.0399766936233462em">i</tspan><tspan x="62.22" y="0" style="letter-spacing:0.029982520217509658em">r</tspan><tspan x="66.58" y="0" style="letter-spacing:-0.00999417340583655em">u</tspan><tspan x="73.13" y="0" style="letter-spacing:0.04493315360510255em">s</tspan><tspan x="79.67" y="0" style="letter-spacing:-0.004956459981756339em">,</tspan><tspan x="82.95" y="0"> </tspan></text><text transform="translate(481.84 282.13)" style="font-size:12.000960350036621px;font-family:Arial-BoldMT, Arial;font-weight:700;letter-spacing:-0.033963938891379504em">W<tspan x="10.92" y="0" style="letter-spacing:-0.05005212047150663em">G</tspan><tspan x="19.65" y="0" style="letter-spacing:0.0000812534423238744em"> </tspan></text><text transform="translate(504.78 282.13)" style="font-size:12.000960350036621px;font-family:ArialMT, Arial;letter-spacing:-0.033963938891379504em">W<tspan x="10.92" y="0" style="letter-spacing:-0.010075426848160427em">h</tspan><tspan x="17.47" y="0" style="letter-spacing:-0.0399766936233462em">i</tspan><tspan x="19.66" y="0" style="letter-spacing:-0.004956459981756339em">t</tspan><tspan x="22.93" y="0" style="letter-spacing:-0.00999417340583655em">e</tspan><tspan x="29.49" y="0" style="letter-spacing:-0.005037713424080214em"> </tspan><tspan x="32.76" y="0" style="letter-spacing:-0.04997086702918276em">G</tspan><tspan x="41.5" y="0" style="letter-spacing:0.029982520217509658em">r</tspan><tspan x="45.85" y="0" style="letter-spacing:-0.00999417340583655em">ub</tspan><tspan x="58.96" y="0" style="letter-spacing:-0.005037713424080214em">,</tspan><tspan x="62.24" y="0" style="letter-spacing:0.0000812534423238744em"> </tspan></text><text transform="translate(570.33 282.13)" style="font-size:12.000960350036621px;font-family:Arial-BoldMT, Arial;font-weight:700"><tspan style="letter-spacing:0.004956459981756339em">A</tspan><tspan x="8.73" y="0" style="letter-spacing:-0.029982520217509658em">P</tspan><tspan x="16.37" y="0"> </tspan></text><text transform="translate(590 282.13)" style="font-size:12.000960350036621px;font-family:ArialMT, Arial"><tspan style="letter-spacing:0.059965040435019316em">A</tspan><tspan x="8.72" y="0" style="letter-spacing:-0.00999417340583655em">ph</tspan><tspan x="21.83" y="0" style="letter-spacing:-0.0399766936233462em">i</tspan><tspan x="24.02" y="0" style="letter-spacing:-0.00999417340583655em">d</tspan><tspan x="30.57" y="0" style="letter-spacing:0.04493315360510255em">s</tspan><tspan x="37.11" y="0" style="letter-spacing:-0.004956459981756339em">,</tspan><tspan x="40.39" y="0"> </tspan></text><text transform="translate(633.71 282.13)" style="font-size:12.000960350036621px;font-family:Arial-BoldMT, Arial;font-weight:700"><tspan style="letter-spacing:0.004956459981756339em">C</tspan><tspan x="8.73" y="0" style="letter-spacing:-0.033963938891379504em">W</tspan><tspan x="19.65" y="0"> </tspan></text><text transform="translate(656.65 282.13)" style="font-size:12.000960350036621px;font-family:ArialMT, Arial"><tspan style="letter-spacing:-0.08499110067077263em">C</tspan><tspan x="7.65" y="0" style="letter-spacing:-0.010075426848160427em">u</tspan><tspan x="14.2" y="0" style="letter-spacing:-0.004956459981756339em">t </tspan><tspan x="20.75" y="0" style="letter-spacing:-0.033963938891379504em">W</tspan><tspan x="31.67" y="0" style="letter-spacing:-0.010075426848160427em">o</tspan><tspan x="38.22" y="0" style="letter-spacing:0.030063773659833534em">r</tspan><tspan x="42.58" y="0" style="letter-spacing:-0.10506070092476961em">m</tspan><tspan x="51.32" y="0" style="letter-spacing:0.045014407047426416em">s</tspan><tspan x="57.86" y="0" style="letter-spacing:-0.004956459981756339em">,</tspan><tspan x="61.13" y="0"> </tspan></text><text transform="translate(721.12 282.13)" style="font-size:12.000960350036621px;font-family:Arial-BoldMT, Arial;font-weight:700"><tspan style="letter-spacing:-0.029982520217509658em">P</tspan><tspan x="7.64" y="0" style="letter-spacing:0.024944806793429447em">T</tspan><tspan x="15.28" y="0">M</tspan></text><text transform="translate(747.34 282.13)" style="font-size:12.000960350036621px;font-family:ArialMT, Arial"><tspan style="letter-spacing:-0.004956459981756339em"> </tspan><tspan x="3.27" y="0" style="letter-spacing:-0.12106762906257286em">P</tspan><tspan x="9.83" y="0" style="letter-spacing:-0.00999417340583655em">o</tspan><tspan x="16.38" y="0" style="letter-spacing:-0.004956459981756339em">t</tspan><tspan x="19.66" y="0" style="letter-spacing:-0.010075426848160427em">a</tspan><tspan x="26.21" y="0" style="letter-spacing:-0.004956459981756339em">t</tspan><tspan x="29.48" y="0" style="letter-spacing:-0.00999417340583655em">o</tspan><tspan x="36.04" y="0" style="letter-spacing:-0.005037713424080214em"> </tspan><tspan x="39.31" y="0" style="letter-spacing:-0.06500275385909952em">T</tspan><tspan x="45.86" y="0" style="letter-spacing:-0.00999417340583655em">ube</tspan><tspan x="65.53" y="0" style="letter-spacing:0.030063773659833534em">r</tspan><tspan x="69.88" y="0" style="letter-spacing:-0.005037713424080214em"> </tspan><tspan x="73.16" y="0" style="letter-spacing:-0.10497944748244575em">M</tspan><tspan x="81.89" y="0" style="letter-spacing:-0.00999417340583655em">o</tspan><tspan x="88.45" y="0" style="letter-spacing:-0.005037713424080214em">t</tspan><tspan x="91.72" y="0">h</tspan></text></g><g style="clip-path:url(#clip-path-6)"><text transform="translate(18.58 143.58)" style="font-size:14.18297004699707px;font-family:Arial-BoldMT, Arial;font-weight:700;letter-spacing:-0.029013694590165864em">B<tspan x="9.83" y="0" style="letter-spacing:0.029013694590165864em">I</tspan><tspan x="14.18" y="0" style="letter-spacing:-0.007975328370756493em">O</tspan><tspan x="25.1" y="0" style="letter-spacing:0.003987664185378247em">T</tspan><tspan x="33.82" y="0" style="letter-spacing:0.029013694590165864em">I</tspan><tspan x="38.17" y="0">C</tspan><tspan x="48.01" y="0" style="letter-spacing:0.028944941759383478em"> </tspan><tspan x="52.36" y="0" style="letter-spacing:0.025026030404787618em">S</tspan><tspan x="62.17" y="0" style="letter-spacing:0.003987664185378247em">T</tspan><tspan x="70.89" y="0">R</tspan><tspan x="80.72" y="0" style="letter-spacing:-0.05094584760974622em">E</tspan><tspan x="89.46" y="0" style="letter-spacing:0.024957277574005232em">S</tspan><tspan x="99.27" y="0" style="letter-spacing:0.00006875283078238357em">S</tspan></text></g><g style="clip-path:url(#clip-path-7)"><text transform="translate(14.21 224.31)" style="font-size:14.18297004699707px;font-family:Arial-BoldMT, Arial;font-weight:700"><tspan style="letter-spacing:-0.029013694590165864em">AB</tspan><tspan x="19.66" y="0" style="letter-spacing:0.029013694590165864em">I</tspan><tspan x="24.01" y="0" style="letter-spacing:-0.007975328370756493em">O</tspan><tspan x="34.93" y="0" style="letter-spacing:0.003987664185378247em">T</tspan><tspan x="43.65" y="0" style="letter-spacing:0.029013694590165864em">I</tspan><tspan x="48.01" y="0" style="letter-spacing:-0.029013694590165864em">C</tspan><tspan x="57.84" y="0" style="letter-spacing:0.028944941759383478em"> </tspan><tspan x="62.19" y="0" style="letter-spacing:0.025026030404787618em">S</tspan><tspan x="72" y="0" style="letter-spacing:0.003987664185378247em">T</tspan><tspan x="80.72" y="0" style="letter-spacing:-0.029013694590165864em">R</tspan><tspan x="90.55" y="0" style="letter-spacing:-0.05094584760974622em">E</tspan><tspan x="99.29" y="0" style="letter-spacing:0.025026030404787618em">S</tspan><tspan x="109.11" y="0">S</tspan></text></g><g style="clip-path:url(#clip-path-8)"><text transform="translate(463.27 203.59)" style="font-size:14.18297004699707px;fill:#fff;font-family:Arial-BoldMT, Arial;font-weight:700;letter-spacing:0.003987664185378247em">T<tspan x="8.72" y="0" style="letter-spacing:0.0589899288112851em">e</tspan><tspan x="17.44" y="0" style="letter-spacing:0.0330013587755441em">m</tspan><tspan x="30.52" y="0">p</tspan><tspan x="39.24" y="0" style="letter-spacing:0.0589899288112851em">e</tspan><tspan x="47.97" y="0" style="letter-spacing:-0.003987664185378247em">r</tspan><tspan x="53.43" y="0" style="letter-spacing:0.0589899288112851em">a</tspan><tspan x="62.16" y="0" style="letter-spacing:-0.025026030404787618em">t</tspan><tspan x="66.52" y="0">u</tspan><tspan x="75.25" y="0" style="letter-spacing:-0.003987664185378247em">r</tspan><tspan x="80.71" y="0" style="letter-spacing:0.0589899288112851em">e</tspan><tspan x="89.43" y="0" style="letter-spacing:0.029013694590165864em"> </tspan><tspan x="93.78" y="0" style="letter-spacing:0.012994285017870495em">M</tspan><tspan x="105.78" y="0" style="letter-spacing:0.029013694590165864em">i</tspan><tspan x="110.13" y="0">n</tspan><tspan x="118.86" y="0" style="letter-spacing:0.029013694590165864em"> </tspan><tspan x="123.21" y="0" style="letter-spacing:-0.010037913294228em">≤</tspan><tspan x="130.85" y="0" style="letter-spacing:0.029013694590165864em"> </tspan><tspan x="135.2" y="0" style="letter-spacing:-0.017050702034031126em">15</tspan><tspan x="150.49" y="0" style="letter-spacing:-0.014988117110559617em">°</tspan><tspan x="155.95" y="0" style="letter-spacing:-0.00006875283078238357em">C</tspan></text></g><g style="clip-path:url(#clip-path-9)"><text transform="translate(531.01 243.95)" style="font-size:14.18297004699707px;fill:#fff;font-family:Arial-BoldMT, Arial;font-weight:700;letter-spacing:0.003987664185378247em">T<tspan x="8.72" y="0" style="letter-spacing:0.0589899288112851em">e</tspan><tspan x="17.44" y="0" style="letter-spacing:0.0330013587755441em">m</tspan><tspan x="30.52" y="0" style="letter-spacing:0.003918911354595864em">p</tspan><tspan x="39.24" y="0" style="letter-spacing:0.05905868164206748em">e</tspan><tspan x="47.97" y="0" style="letter-spacing:-0.003987664185378247em">r</tspan><tspan x="53.43" y="0" style="letter-spacing:0.0589899288112851em">a</tspan><tspan x="62.16" y="0" style="letter-spacing:-0.025026030404787618em">t</tspan><tspan x="66.52" y="0">u</tspan><tspan x="75.25" y="0" style="letter-spacing:-0.003987664185378247em">r</tspan><tspan x="80.71" y="0" style="letter-spacing:0.0589899288112851em">e</tspan><tspan x="89.43" y="0" style="letter-spacing:0.029013694590165864em"> </tspan><tspan x="93.78" y="0" style="letter-spacing:0.012994285017870495em">M</tspan><tspan x="105.78" y="0" style="letter-spacing:0.0589899288112851em">ax</tspan><tspan x="123.23" y="0" style="letter-spacing:0.029013694590165864em"> </tspan><tspan x="127.58" y="0" style="letter-spacing:-0.010037913294228em">≥</tspan><tspan x="135.23" y="0" style="letter-spacing:0.029013694590165864em"> </tspan><tspan x="139.58" y="0" style="letter-spacing:-0.017050702034031126em">20</tspan><tspan x="154.87" y="0" style="letter-spacing:-0.014988117110559617em">°</tspan><tspan x="160.33" y="0" style="letter-spacing:-0.00006875283078238357em">C</tspan></text></g><g style="clip-path:url(#clip-path-10)"><text transform="translate(440.33 122.85)" style="font-size:14.18297004699707px;fill:#fff;font-family:Arial-BoldMT, Arial;font-weight:700"><tspan style="letter-spacing:-0.029013694590165864em">D</tspan><tspan x="9.83" y="0" style="letter-spacing:0.029013694590165864em">i</tspan><tspan x="14.18" y="0" style="letter-spacing:-0.09398511967951834em">s</tspan><tspan x="20.74" y="0" style="letter-spacing:0.0589899288112851em">ea</tspan><tspan x="38.19" y="0" style="letter-spacing:-0.09398511967951834em">s</tspan><tspan x="44.74" y="0" style="letter-spacing:0.05905868164206748em">e</tspan><tspan x="53.47" y="0" style="letter-spacing:0.028944941759383478em"> </tspan><tspan x="57.82" y="0" style="letter-spacing:-0.025026030404787618em">:</tspan><tspan x="62.19" y="0" style="letter-spacing:0.029013694590165864em"> </tspan><tspan x="66.54" y="0" style="letter-spacing:-0.029013694590165864em">B</tspan><tspan x="76.37" y="0" style="letter-spacing:0.056033557087642606em">W</tspan><tspan x="90.55" y="0" style="letter-spacing:0.029013694590165864em">, </tspan><tspan x="99.25" y="0" style="letter-spacing:0.025026030404787618em">S</tspan><tspan x="109.07" y="0" style="letter-spacing:-0.029013694590165864em">R</tspan><tspan x="118.9" y="0" style="letter-spacing:0.029013694590165864em">, </tspan><tspan x="127.6" y="0" style="letter-spacing:-0.029013694590165864em">B</tspan><tspan x="137.43" y="0" style="letter-spacing:0.025026030404787618em">S</tspan><tspan x="147.25" y="0" style="letter-spacing:0.029013694590165864em">, </tspan><tspan x="155.95" y="0" style="letter-spacing:0.003918911354595864em">L</tspan><tspan x="164.67" y="0" style="letter-spacing:-0.029013694590165864em">B</tspan><tspan x="174.5" y="0" style="letter-spacing:0.029013694590165864em">, </tspan><tspan x="183.21" y="0" style="letter-spacing:0.003987664185378247em">L</tspan><tspan x="191.93" y="0" style="letter-spacing:-0.029013694590165864em">C</tspan><tspan x="201.76" y="0">V</tspan></text></g><g style="clip-path:url(#clip-path-11)"><text transform="translate(512.44 163.21)" style="font-size:14.18297004699707px;fill:#fff;font-family:Arial-BoldMT, Arial;font-weight:700"><tspan style="letter-spacing:0.029013694590165864em">I</tspan><tspan x="4.35" y="0" style="letter-spacing:0.003987664185378247em">n</tspan><tspan x="13.07" y="0" style="letter-spacing:-0.09398511967951834em">s</tspan><tspan x="19.63" y="0" style="letter-spacing:0.0589899288112851em">e</tspan><tspan x="28.35" y="0" style="letter-spacing:-0.01698194920324874em">c</tspan><tspan x="36" y="0" style="letter-spacing:-0.025026030404787618em">t</tspan><tspan x="40.37" y="0" style="letter-spacing:0.028944941759383478em"> </tspan><tspan x="44.72" y="0" style="letter-spacing:0.025026030404787618em">P</tspan><tspan x="54.53" y="0" style="letter-spacing:0.05905868164206748em">e</tspan><tspan x="63.26" y="0" style="letter-spacing:-0.09398511967951834em">s</tspan><tspan x="69.81" y="0" style="letter-spacing:-0.025026030404787618em">t:</tspan><tspan x="78.55" y="0" style="letter-spacing:0.029013694590165864em"> </tspan><tspan x="82.9" y="0" style="letter-spacing:0.056033557087642606em">W</tspan><tspan x="97.08" y="0" style="letter-spacing:-0.007975328370756493em">G</tspan><tspan x="108" y="0" style="letter-spacing:0.029013694590165864em">, </tspan><tspan x="116.7" y="0" style="letter-spacing:-0.029013694590165864em">A</tspan><tspan x="126.54" y="0" style="letter-spacing:0.025026030404787618em">P</tspan><tspan x="136.35" y="0" style="letter-spacing:0.028944941759383478em">, </tspan><tspan x="145.05" y="0" style="letter-spacing:-0.029013694590165864em">C</tspan><tspan x="154.88" y="0" style="letter-spacing:0.056033557087642606em">W</tspan><tspan x="169.07" y="0" style="letter-spacing:0.029013694590165864em">, </tspan><tspan x="177.77" y="0" style="letter-spacing:0.024957277574005232em">P</tspan><tspan x="187.58" y="0" style="letter-spacing:0.003987664185378247em">T</tspan><tspan x="196.3" y="0">M</tspan></text></g><g style="clip-path:url(#clip-path-12)"><text transform="translate(229.45 18.11)" style="font-size:13.091959953308105px;font-family:Arial-BoldMT, Arial;font-weight:700"><tspan style="letter-spacing:-0.026962594004718145em">O</tspan><tspan x="9.83" y="0" style="letter-spacing:0.026962594004718145em">c</tspan><tspan x="17.46" y="0">t</tspan></text></g><g style="clip-path:url(#clip-path-13)"><text transform="translate(417.38 18.11)" style="font-size:13.091959953308105px;font-family:Arial-BoldMT, Arial;font-weight:700"><tspan style="letter-spacing:-0.055042422567642836em">N</tspan><tspan x="8.73" y="0" style="letter-spacing:-0.026962594004718145em">o</tspan><tspan x="16.38" y="0">v</tspan></text></g><g style="clip-path:url(#clip-path-14)"><text transform="translate(604.21 18.11)" style="font-size:13.091959953308105px;font-family:Arial-BoldMT, Arial;font-weight:700"><tspan style="letter-spacing:-0.055042422567642836em">D</tspan><tspan x="8.73" y="0" style="letter-spacing:0.027037076308598574em">e</tspan><tspan x="16.37" y="0">c</tspan></text></g><g style="clip-path:url(#clip-path-15)"><text transform="translate(793.24 18.11)" style="font-size:13.091959953308105px;font-family:Arial-BoldMT, Arial;font-weight:700"><tspan style="letter-spacing:0.026962594004718145em">Ja</tspan><tspan x="15.27" y="0">n</tspan></text></g><g style="clip-path:url(#clip-path-16)"><text transform="translate(253.49 81.4)" style="font-size:14.18297004699707px;font-family:Arial-BoldMT, Arial;font-weight:700;letter-spacing:0.025026030404787618em">S<tspan x="9.81" y="0" style="letter-spacing:0.003987664185378247em">p</tspan><tspan x="18.54" y="0" style="letter-spacing:-0.003987664185378247em">r</tspan><tspan x="24" y="0" style="letter-spacing:0.003987664185378247em">ou</tspan><tspan x="41.44" y="0" style="letter-spacing:-0.025026030404787618em">t</tspan><tspan x="45.81" y="0" style="letter-spacing:0.029013694590165864em">i</tspan><tspan x="50.16" y="0" style="letter-spacing:0.003987664185378247em">n</tspan><tspan x="58.88" y="0" style="letter-spacing:-0.00006875283078238357em">g</tspan></text></g><g style="clip-path:url(#clip-path-17)"><text transform="translate(368.21 81.4)" style="font-size:14.18297004699707px;font-family:Arial-BoldMT, Arial;font-weight:700"><tspan style="letter-spacing:0.025026030404787618em">V</tspan><tspan x="9.81" y="0" style="letter-spacing:0.0589899288112851em">e</tspan><tspan x="18.54" y="0" style="letter-spacing:0.003987664185378247em">g</tspan><tspan x="27.26" y="0" style="letter-spacing:0.0589899288112851em">e</tspan><tspan x="35.98" y="0" style="letter-spacing:-0.025026030404787618em">t</tspan><tspan x="40.35" y="0" style="letter-spacing:0.05905868164206748em">a</tspan><tspan x="49.08" y="0" style="letter-spacing:-0.025094783235570003em">t</tspan><tspan x="53.45" y="0" style="letter-spacing:0.029013694590165864em">i</tspan><tspan x="57.8" y="0" style="letter-spacing:-0.01698194920324874em">v</tspan><tspan x="65.44" y="0">e</tspan></text></g><g style="clip-path:url(#clip-path-18)"><text transform="translate(492.77 81.4)" style="font-size:14.18297004699707px;font-family:Arial-BoldMT, Arial;font-weight:700"><tspan style="letter-spacing:0.003987664185378247em">Tub</tspan><tspan x="26.16" y="0" style="letter-spacing:0.05905868164206748em">e</tspan><tspan x="34.89" y="0" style="letter-spacing:-0.003987664185378247em">r</tspan><tspan x="40.35" y="0" xml:space="preserve" style="letter-spacing:0.028944941759383478em"> I</tspan><tspan x="49.05" y="0" style="letter-spacing:0.003987664185378247em">n</tspan><tspan x="57.77" y="0" style="letter-spacing:0.029013694590165864em">i</tspan><tspan x="62.12" y="0" style="letter-spacing:-0.025026030404787618em">t</tspan><tspan x="66.49" y="0" style="letter-spacing:0.029013694590165864em">i</tspan><tspan x="70.84" y="0" style="letter-spacing:0.0589899288112851em">a</tspan><tspan x="79.57" y="0" style="letter-spacing:-0.025026030404787618em">t</tspan><tspan x="83.94" y="0" style="letter-spacing:0.029013694590165864em">i</tspan><tspan x="88.29" y="0" style="letter-spacing:0.003918911354595864em">o</tspan><tspan x="97.01" y="0">n</tspan></text></g><g style="clip-path:url(#clip-path-19)"><text transform="translate(667.59 71.58)" style="font-size:14.18297004699707px;font-family:Arial-BoldMT, Arial;font-weight:700"><tspan style="letter-spacing:0.003987664185378247em">Tub</tspan><tspan x="26.16" y="0" style="letter-spacing:0.05905868164206748em">e</tspan><tspan x="34.89" y="0" style="letter-spacing:-0.003987664185378247em">r</tspan><tspan x="40.35" y="0"> </tspan></text><text transform="translate(641.37 90.12)" style="font-size:14.18297004699707px;font-family:Arial-BoldMT, Arial;font-weight:700;letter-spacing:-0.029013694590165864em">D<tspan x="9.83" y="0" style="letter-spacing:0.0589899288112851em">e</tspan><tspan x="18.56" y="0" style="letter-spacing:-0.01698194920324874em">v</tspan><tspan x="26.2" y="0" style="letter-spacing:0.05905868164206748em">e</tspan><tspan x="34.93" y="0" style="letter-spacing:0.028944941759383478em">l</tspan><tspan x="39.28" y="0" style="letter-spacing:0.003987664185378247em">op</tspan><tspan x="56.72" y="0" style="letter-spacing:0.0330013587755441em">m</tspan><tspan x="69.8" y="0" style="letter-spacing:0.0589899288112851em">e</tspan><tspan x="78.52" y="0" style="letter-spacing:0.003987664185378247em">n</tspan><tspan x="87.24" y="0" style="letter-spacing:-0.00006875283078238357em">t</tspan></text></g><g style="clip-path:url(#clip-path-20)"><text transform="translate(799.79 81.4)" style="font-size:14.18297004699707px;font-family:Arial-BoldMT, Arial;font-weight:700"><tspan style="letter-spacing:0.012994285017870495em">M</tspan><tspan x="12" y="0" style="letter-spacing:0.0589899288112851em">a</tspan><tspan x="20.72" y="0" style="letter-spacing:-0.025026030404787618em">t</tspan><tspan x="25.09" y="0" style="letter-spacing:0.003987664185378247em">u</tspan><tspan x="33.81" y="0" style="letter-spacing:-0.003987664185378247em">r</tspan><tspan x="39.27" y="0" style="letter-spacing:0.029013694590165864em">i</tspan><tspan x="43.63" y="0" style="letter-spacing:-0.025026030404787618em">t</tspan><tspan x="48" y="0">y</tspan></text></g><g style="clip-path:url(#clip-path-21)"><polyline points="1.09 -0.43 1.09 0.66 899.22 0.66 899.22 -0.43 1.09 -0.43" style="fill:#bfbfbf;fill-rule:evenodd"/><polyline points="1.09 26.84 1.09 27.93 899.22 27.93 899.22 26.84 1.09 26.84" style="fill:#bfbfbf;fill-rule:evenodd"/><polyline points="1.09 54.12 1.09 55.21 899.22 55.21 899.22 54.12 1.09 54.12" style="fill:#bfbfbf;fill-rule:evenodd"/><polyline points="334.34 0.66 334.34 98.85 335.43 98.85 335.43 0.66 334.34 0.66" style="fill:#bfbfbf;fill-rule:evenodd"/><polyline points="757.18 27.93 757.18 98.85 758.27 98.85 758.27 27.93 757.18 27.93" style="fill:#bfbfbf;fill-rule:evenodd"/><polyline points="1.09 97.76 1.09 98.85 899.22 98.85 899.22 97.76 1.09 97.76" style="fill:#bfbfbf;fill-rule:evenodd"/><polyline points="147.5 138.12 147.5 139.21 898.13 139.21 898.13 138.12 147.5 138.12" style="fill:#fff;fill-rule:evenodd"/><polyline points="334.34 98.85 334.34 178.49 335.43 178.49 335.43 98.85 334.34 98.85" style="fill:#fff;fill-rule:evenodd"/><polyline points="757.18 98.85 757.18 139.21 758.27 139.21 758.27 98.85 757.18 98.85" style="fill:#fff;fill-rule:evenodd"/><polyline points="1.09 178.49 1.09 179.58 899.22 179.58 899.22 178.49 1.09 178.49" style="fill:#bfbfbf;fill-rule:evenodd"/><polyline points="475.29 27.93 475.29 98.85 476.38 98.85 476.38 27.93 475.29 27.93" style="fill:#bfbfbf;fill-rule:evenodd"/><polyline points="147.5 218.86 147.5 219.95 898.13 219.95 898.13 218.86 147.5 218.86" style="fill:#fff;fill-rule:evenodd"/><polyline points="0 -0.43 0 260.31 1.09 260.31 1.09 -0.43 0 -0.43" style="fill:#bfbfbf;fill-rule:evenodd"/><polyline points="1.09 259.22 1.09 260.31 899.22 260.31 899.22 259.22 1.09 259.22" style="fill:#bfbfbf;fill-rule:evenodd"/><polyline points="898.13 0.66 898.13 260.31 899.22 260.31 899.22 0.66 898.13 0.66" style="fill:#bfbfbf;fill-rule:evenodd"/><polyline points="0 260.31 0 298.5 1.09 298.5 1.09 260.31 0 260.31" style="fill:#fff;fill-rule:evenodd"/><polyline points="146.41 0.66 146.41 260.31 147.5 260.31 147.5 0.66 146.41 0.66" style="fill:#bfbfbf;fill-rule:evenodd"/><polyline points="193.39 27.93 193.39 55.21 194.48 55.21 194.48 27.93 193.39 27.93" style="fill:#bfbfbf;fill-rule:evenodd"/><polyline points="240.37 27.93 240.37 98.85 241.47 98.85 241.47 27.93 240.37 27.93" style="fill:#bfbfbf;fill-rule:evenodd"/><polyline points="287.36 27.93 287.36 55.21 288.45 55.21 288.45 27.93 287.36 27.93" style="fill:#bfbfbf;fill-rule:evenodd"/><polyline points="334.34 179.58 334.34 219.95 335.43 219.95 335.43 179.58 334.34 179.58" style="fill:#fff;fill-rule:evenodd"/><polyline points="381.32 27.93 381.32 55.21 382.41 55.21 382.41 27.93 381.32 27.93" style="fill:#bfbfbf;fill-rule:evenodd"/><polyline points="428.3 27.93 428.3 55.21 429.39 55.21 429.39 27.93 428.3 27.93" style="fill:#bfbfbf;fill-rule:evenodd"/><polyline points="475.29 219.95 475.29 259.22 476.38 259.22 476.38 219.95 475.29 219.95" style="fill:#fff;fill-rule:evenodd"/><polyline points="522.27 0.66 522.27 55.21 523.36 55.21 523.36 0.66 522.27 0.66" style="fill:#bfbfbf;fill-rule:evenodd"/><polyline points="569.25 27.93 569.25 55.21 570.34 55.21 570.34 27.93 569.25 27.93" style="fill:#bfbfbf;fill-rule:evenodd"/><polyline points="616.23 27.93 616.23 98.85 617.32 98.85 617.32 27.93 616.23 27.93" style="fill:#bfbfbf;fill-rule:evenodd"/><polyline points="663.21 27.93 663.21 55.21 664.31 55.21 664.31 27.93 663.21 27.93" style="fill:#bfbfbf;fill-rule:evenodd"/><polyline points="710.2 0.66 710.2 55.21 711.29 55.21 711.29 0.66 710.2 0.66" style="fill:#bfbfbf;fill-rule:evenodd"/><polyline points="757.18 179.58 757.18 259.22 758.27 259.22 758.27 179.58 757.18 179.58" style="fill:#fff;fill-rule:evenodd"/><polyline points="804.16 27.93 804.16 55.21 805.25 55.21 805.25 27.93 804.16 27.93" style="fill:#bfbfbf;fill-rule:evenodd"/><polyline points="851.14 27.93 851.14 55.21 852.24 55.21 852.24 27.93 851.14 27.93" style="fill:#bfbfbf;fill-rule:evenodd"/><polyline points="1.09 297.41 1.09 298.5 899.22 298.5 899.22 297.41 1.09 297.41" style="fill:#fff;fill-rule:evenodd"/><polyline points="898.13 260.31 898.13 298.5 899.22 298.5 899.22 260.31 898.13 260.31" style="fill:#fff;fill-rule:evenodd"/></g></svg>