<svg id="Layer_1" data-name="Layer 1" xmlns="http://www.w3.org/2000/svg" xmlns:xlink="http://www.w3.org/1999/xlink" viewBox="0 0 900 350"><defs><clipPath id="clip-path"><polygon points="0.78 348.21 899.86 348.21 899.86 2 0.78 2 0.78 348.21 0.78 348.21" style="fill:none;clip-rule:evenodd"/></clipPath><clipPath id="clip-path-2"><polygon points="61.51 307.77 879.3 307.77 879.3 19.49 61.51 19.49 61.51 307.77 61.51 307.77" style="fill:none;clip-rule:evenodd"/></clipPath><clipPath id="clip-path-13"><rect x="0.78" y="2" width="899.08" height="346.21" style="fill:none"/></clipPath></defs><title>ground-truth-risk-report</title><polygon points="0.92 2 900 2 900 348.35 0.92 348.35 0.92 2 0.92 2" style="fill:#eaeaea;fill-rule:evenodd"/><polygon points="61.51 19.49 878.47 19.49 878.47 306.95 61.51 306.95 61.51 19.49 61.51 19.49" style="fill:#fff;fill-rule:evenodd"/><path d="M61.51,235.08h817m-817-71.86h817m-817-71.87h817m-817-71.86h817" style="fill:none;stroke:#d9d9d9;stroke-linejoin:round;stroke-width:0.823936397213167px"/><g style="clip-path:url(#clip-path)"><path d="M61.51,19.49V307M333.83,19.49V307M606.15,19.49V307M878.47,19.49V307" style="fill:none;stroke:#d9d9d9;stroke-linejoin:round;stroke-width:0.823936397213167px"/></g><g style="clip-path:url(#clip-path-2)"><polygon points="145.29 77.01 250.05 77.01 250.05 306.95 145.29 306.95 145.29 77.01 145.29 77.01" style="fill:#5e9fff;fill-rule:evenodd"/><polygon points="145.29 77.01 250.05 77.01 250.05 306.95 145.29 306.95 145.29 77.01 145.29 77.01" style="fill:none;stroke:#7f7f7f;stroke-linejoin:round;stroke-width:0.823936397213167px"/><polygon points="417.61 75.09 522.37 75.09 522.37 306.95 417.61 306.95 417.61 75.09 417.61 75.09" style="fill:#5e9fff;fill-rule:evenodd"/><polygon points="417.61 75.09 522.37 75.09 522.37 306.95 417.61 306.95 417.61 75.09 417.61 75.09" style="fill:none;stroke:#7f7f7f;stroke-linejoin:round;stroke-width:0.823936397213167px"/><polygon points="689.93 72.23 794.69 72.23 794.69 306.95 689.93 306.95 689.93 72.23 689.93 72.23" style="fill:#5e9fff;fill-rule:evenodd"/><polygon points="689.93 72.23 794.69 72.23 794.69 306.95 689.93 306.95 689.93 72.23 689.93 72.23" style="fill:none;stroke:#7f7f7f;stroke-linejoin:round;stroke-width:0.823936397213167px"/></g><g style="clip-path:url(#clip-path)"><line x1="61.51" y1="306.95" x2="878.47" y2="306.95" style="fill:none;stroke:#d9d9d9;stroke-linejoin:round;stroke-width:0.823936397213167px"/></g><g style="clip-path:url(#clip-path)"><path d="M61.51,307v3.14M333.83,307v3.14M606.15,307v3.14M878.47,307v3.14" style="fill:none;stroke:#d9d9d9;stroke-linejoin:round;stroke-width:0.823936397213167px"/></g><g style="clip-path:url(#clip-path-2)"><polyline points="197.74 52.28 470.06 52.28 742.38 52.28" style="fill:none;stroke:#06f;stroke-miterlimit:10;stroke-width:1.37280242878196px;stroke-dasharray:4.970320224761963,4.970320224761963"/></g><g style="clip-path:url(#clip-path)"><path d="M200.61,52.34a2.9,2.9,0,1,1-2.9-2.87,2.88,2.88,0,0,1,2.9,2.87Z" style="fill:#06f"/><path d="M200.61,52.34a2.9,2.9,0,1,1-2.9-2.87,2.88,2.88,0,0,1,2.9,2.87Z" style="fill:none;stroke:#2935e8;stroke-linejoin:round;stroke-width:0.823936465422109px"/><path d="M472.93,52.34a2.9,2.9,0,1,1-2.9-2.87,2.88,2.88,0,0,1,2.9,2.87Z" style="fill:#06f"/><path d="M472.93,52.34a2.9,2.9,0,1,1-2.9-2.87,2.88,2.88,0,0,1,2.9,2.87Z" style="fill:none;stroke:#2935e8;stroke-linejoin:round;stroke-width:0.823936465422109px"/><path d="M745.25,52.34a2.9,2.9,0,1,1-2.9-2.87,2.88,2.88,0,0,1,2.9,2.87Z" style="fill:#06f"/><path d="M745.25,52.34a2.9,2.9,0,1,1-2.9-2.87,2.88,2.88,0,0,1,2.9,2.87Z" style="fill:none;stroke:#2935e8;stroke-linejoin:round;stroke-width:0.823936465422109px"/></g><g style="clip-path:url(#clip-path-2)"><polyline points="197.74 97.91 470.06 97.91 742.38 97.91" style="fill:none;stroke:#ff25f3;stroke-miterlimit:10;stroke-width:1.37280242878196px;stroke-dasharray:4.970320224761963,4.970320224761963"/></g><g style="clip-path:url(#clip-path)"><path d="M200.61,98a2.9,2.9,0,1,1-2.9-2.87,2.88,2.88,0,0,1,2.9,2.87Z" style="fill:#ff25f3"/><path d="M200.61,98a2.9,2.9,0,1,1-2.9-2.87,2.88,2.88,0,0,1,2.9,2.87Z" style="fill:none;stroke:#d9d9d9;stroke-linejoin:round;stroke-width:0.823936465422109px"/><path d="M472.93,98a2.9,2.9,0,1,1-2.9-2.87,2.88,2.88,0,0,1,2.9,2.87Z" style="fill:#ff25f3"/><path d="M472.93,98a2.9,2.9,0,1,1-2.9-2.87,2.88,2.88,0,0,1,2.9,2.87Z" style="fill:none;stroke:#d9d9d9;stroke-linejoin:round;stroke-width:0.823936465422109px"/><path d="M745.25,98a2.9,2.9,0,1,1-2.9-2.87,2.88,2.88,0,0,1,2.9,2.87Z" style="fill:#ff25f3"/><path d="M745.25,98a2.9,2.9,0,1,1-2.9-2.87,2.88,2.88,0,0,1,2.9,2.87Z" style="fill:none;stroke:#d9d9d9;stroke-linejoin:round;stroke-width:0.823936465422109px"/></g><g style="clip-path:url(#clip-path-2)"><polyline points="197.74 67.44 470.06 67.44 742.38 67.44" style="fill:none;stroke:#7f7f7f;stroke-linecap:round;stroke-linejoin:round;stroke-width:1.3732273059523px"/></g><g style="clip-path:url(#clip-path)"><path d="M200.61,67.51a2.9,2.9,0,1,1-2.9-2.87,2.89,2.89,0,0,1,2.9,2.87Z" style="fill:#7f7f7f"/><path d="M200.61,67.51a2.9,2.9,0,1,1-2.9-2.87,2.89,2.89,0,0,1,2.9,2.87Z" style="fill:none;stroke:#7f7f7f;stroke-linejoin:round;stroke-width:0.823936465422109px"/><path d="M472.93,67.51a2.9,2.9,0,1,1-2.9-2.87,2.89,2.89,0,0,1,2.9,2.87Z" style="fill:#7f7f7f"/><path d="M472.93,67.51a2.9,2.9,0,1,1-2.9-2.87,2.89,2.89,0,0,1,2.9,2.87Z" style="fill:none;stroke:#7f7f7f;stroke-linejoin:round;stroke-width:0.823936465422109px"/><path d="M745.25,67.51a2.9,2.9,0,1,1-2.9-2.87,2.89,2.89,0,0,1,2.9,2.87Z" style="fill:#7f7f7f"/><path d="M745.25,67.51a2.9,2.9,0,1,1-2.9-2.87,2.89,2.89,0,0,1,2.9,2.87Z" style="fill:none;stroke:#7f7f7f;stroke-linejoin:round;stroke-width:0.823936465422109px"/></g><g style="clip-path:url(#clip-path-2)"><polyline points="197.74 77.01 470.06 77.01 742.38 77.01" style="fill:none;stroke:#00c1a3;stroke-linecap:round;stroke-linejoin:round;stroke-width:1.3732273059523px"/></g><g style="clip-path:url(#clip-path)"><path d="M200.61,77.07a2.9,2.9,0,1,1-2.9-2.87,2.88,2.88,0,0,1,2.9,2.87Z" style="fill:#00c1a3"/><path d="M200.61,77.07a2.9,2.9,0,1,1-2.9-2.87,2.88,2.88,0,0,1,2.9,2.87Z" style="fill:none;stroke:#d9d9d9;stroke-linejoin:round;stroke-width:0.823936465422109px"/><path d="M472.93,77.07A2.9,2.9,0,1,1,470,74.2a2.88,2.88,0,0,1,2.9,2.87Z" style="fill:#00c1a3"/><path d="M472.93,77.07A2.9,2.9,0,1,1,470,74.2a2.88,2.88,0,0,1,2.9,2.87Z" style="fill:none;stroke:#d9d9d9;stroke-linejoin:round;stroke-width:0.823936465422109px"/><path d="M745.25,77.07a2.9,2.9,0,1,1-2.9-2.87,2.88,2.88,0,0,1,2.9,2.87Z" style="fill:#00c1a3"/><path d="M745.25,77.07a2.9,2.9,0,1,1-2.9-2.87,2.88,2.88,0,0,1,2.9,2.87Z" style="fill:none;stroke:#d9d9d9;stroke-linejoin:round;stroke-width:0.823936465422109px"/></g><g style="clip-path:url(#clip-path-13)"><text transform="translate(26.75 310.23) scale(1.01 1)" style="font-size:10.246979713439941px;font-family:ArialMT, Arial;letter-spacing:0.0030188265519144938em">1<tspan x="5.73" y="0" style="letter-spacing:-0.008962141325996155em">1</tspan><tspan x="11.34" y="0" style="letter-spacing:0.001981104924693887em">.</tspan><tspan x="14.2" y="0">0</tspan><tspan x="19.93" y="0" style="letter-spacing:0.00009433832974732793em">0</tspan></text></g><g style="clip-path:url(#clip-path-13)"><text transform="translate(26.75 238.38) scale(1.01 1)" style="font-size:10.246979713439941px;font-family:ArialMT, Arial;letter-spacing:0.0030188265519144938em">1<tspan x="5.73" y="0" style="letter-spacing:-0.008962141325996155em">1</tspan><tspan x="11.34" y="0" style="letter-spacing:0.001981104924693887em">.</tspan><tspan x="14.2" y="0">7</tspan><tspan x="19.93" y="0" style="letter-spacing:0.00009433832974732793em">5</tspan></text></g><g style="clip-path:url(#clip-path-13)"><text transform="translate(26.75 166.53) scale(1.01 1)" style="font-size:10.246979713439941px;font-family:ArialMT, Arial;letter-spacing:0.0030188265519144938em">1<tspan x="5.73" y="0" style="letter-spacing:-0.008962141325996155em">2</tspan><tspan x="11.34" y="0" style="letter-spacing:0.001981104924693887em">.</tspan><tspan x="14.2" y="0">5</tspan><tspan x="19.93" y="0" style="letter-spacing:0.00009433832974732793em">0</tspan></text></g><g style="clip-path:url(#clip-path-13)"><text transform="translate(26.75 94.67) scale(1.01 1)" style="font-size:10.246979713439941px;font-family:ArialMT, Arial;letter-spacing:0.0030188265519144938em">1<tspan x="5.73" y="0" style="letter-spacing:-0.008962141325996155em">3</tspan><tspan x="11.34" y="0" style="letter-spacing:0.001981104924693887em">.</tspan><tspan x="14.2" y="0">2</tspan><tspan x="19.93" y="0" style="letter-spacing:0.00009433832974732793em">5</tspan></text></g><g style="clip-path:url(#clip-path-13)"><text transform="translate(26.75 22.82) scale(1.01 1)" style="font-size:10.246979713439941px;font-family:ArialMT, Arial;letter-spacing:0.0030188265519144938em">1<tspan x="5.73" y="0" style="letter-spacing:-0.008962141325996155em">4</tspan><tspan x="11.34" y="0" style="letter-spacing:0.001981104924693887em">.</tspan><tspan x="14.2" y="0">0</tspan><tspan x="19.93" y="0" style="letter-spacing:0.00009433832974732793em">0</tspan></text></g><g style="clip-path:url(#clip-path-13)"><text transform="translate(185.24 322.44) scale(1.01 1)" style="font-size:10.246979713439941px;font-family:ArialMT, Arial">Nov</text></g><g style="clip-path:url(#clip-path-13)"><text transform="translate(460.55 322.44) scale(1.01 1)" style="font-size:10.246979713439941px;font-family:ArialMT, Arial">Dec</text></g><g style="clip-path:url(#clip-path-13)"><text transform="translate(734.84 322.44) scale(1.01 1)" style="font-size:10.246979713439941px;font-family:ArialMT, Arial">Jan</text></g><g style="clip-path:url(#clip-path-13)"><text transform="translate(16.33 214.58) rotate(-90) scale(0.99 1)" style="font-size:11.455880165100098px;font-family:Arial-BoldMT, Arial;font-weight:700"><tspan style="letter-spacing:0.004994787776962627em">Q</tspan><tspan x="8.97" y="0" style="letter-spacing:0.003014096072305033em">u</tspan><tspan x="16" y="0" style="letter-spacing:-0.0009472873370101531em">a</tspan><tspan x="22.36" y="0" style="letter-spacing:0.003014096072305033em">n</tspan><tspan x="29.39" y="0" style="letter-spacing:0.0039613834093151865em">t</tspan><tspan x="33.25" y="0">i</tspan><tspan x="36.44" y="0" style="letter-spacing:0.004047500439952473em">t</tspan><tspan x="40.3" y="0" style="letter-spacing:-0.013003671626230284em">y</tspan><tspan x="46.52" y="0" style="letter-spacing:0.011022979921572692em"> </tspan><tspan x="49.83" y="0" style="letter-spacing:0.0039613834093151865em">(</tspan><tspan x="53.69" y="0" style="letter-spacing:0.022045959843145384em">M</tspan><tspan x="63.48" y="0" style="letter-spacing:0.014984363330887877em">T</tspan><tspan x="70.65" y="0">)</tspan></text></g><g style="clip-path:url(#clip-path-13)"><text transform="translate(418.05 343.43) scale(1.01 1)" style="font-size:11.33998966217041px;font-family:Arial-BoldMT, Arial;font-weight:700"><tspan style="letter-spacing:0.015003205864005708em">T</tspan><tspan x="7.1" y="0">i</tspan><tspan x="10.25" y="0" style="letter-spacing:0.0019606462208643823em">m</tspan><tspan x="20.35" y="0" style="letter-spacing:-0.0010229458543640254em">e</tspan><tspan x="26.65" y="0"> </tspan><tspan x="29.8" y="0" style="letter-spacing:-0.0039212924417287645em">P</tspan><tspan x="37.32" y="0" style="letter-spacing:-0.0010229458543640254em">e</tspan><tspan x="43.61" y="0" style="letter-spacing:-0.002983592075228408em">r</tspan><tspan x="47.99" y="0">i</tspan><tspan x="51.14" y="0" style="letter-spacing:0.002983592075228408em">o</tspan><tspan x="58.1" y="0">d</tspan></text></g><polygon points="0.92 2 900 2 900 348.35 0.92 348.35 0.92 2 0.92 2" style="fill:none;stroke:#d9d9d9;stroke-linejoin:round;stroke-width:0.823936465422109px"/></svg>