<svg id="Layer_1" data-name="Layer 1" xmlns="http://www.w3.org/2000/svg" xmlns:xlink="http://www.w3.org/1999/xlink" viewBox="0 0 900 350"><defs><clipPath id="clip-path"><polygon points="1 347.43 898.69 347.43 898.69 1 1 1 1 347.43 1 347.43" style="fill:none;clip-rule:evenodd"/></clipPath><clipPath id="clip-path-6"><polygon points="59.43 290.72 887.66 290.72 887.66 15.93 59.43 15.93 59.43 290.72 59.43 290.72" style="fill:none;clip-rule:evenodd"/></clipPath><clipPath id="clip-path-10"><rect x="1" y="1" width="897.69" height="346.43" style="fill:none"/></clipPath></defs><title>ndvi-risk-report</title><polygon points="1.14 1.14 898.83 1.14 898.83 347.56 1.14 347.56 1.14 1.14 1.14 1.14" style="fill:#eaeaea;fill-rule:evenodd"/><polygon points="59.57 15.93 886.84 15.93 886.84 289.9 59.57 289.9 59.57 15.93 59.57 15.93" style="fill:#fff;fill-rule:evenodd"/><path d="M59.57,221.4H886.84M59.57,152.91H886.84M59.57,84.42H886.84M59.57,15.93H886.84" style="fill:none;stroke:#d9d9d9;stroke-linejoin:round;stroke-width:0.824370120566388px"/><g style="clip-path:url(#clip-path)"><path d="M94,15.93v274m68.91-274v274m69-274v274m68.9-274v274m68.91-274v274m68.9-274v274m69-274v274m68.91-274v274m68.9-274v274m68.91-274v274m69-274v274m68.9-274v274" style="fill:none;stroke:#f2f2f2;stroke-linejoin:round;stroke-width:0.824370120566388px"/></g><g style="clip-path:url(#clip-path)"><path d="M59.57,15.93v274m68.9-274v274m68.91-274v274m69-274v274m68.9-274v274m68.91-274v274m68.9-274v274m69-274v274m68.9-274v274M680,15.93v274m68.9-274v274m69-274v274m68.91-274v274" style="fill:none;stroke:#d9d9d9;stroke-linejoin:round;stroke-width:0.824370120566388px"/></g><g style="clip-path:url(#clip-path)"><line x1="59.57" y1="289.9" x2="886.84" y2="289.9" style="fill:none;stroke:#d9d9d9;stroke-linejoin:round;stroke-width:1.3739501781957px"/></g><g style="clip-path:url(#clip-path)"><path d="M59.57,289.9v18.63M335.32,289.9v18.63M611.08,289.9v18.63M886.84,289.9v18.63" style="fill:none;stroke:#d9d9d9;stroke-linejoin:round;stroke-width:1.3739501781957px"/></g><g style="clip-path:url(#clip-path)"><path d="M59.57,308.53V327m275.75-18.49V327m275.76-18.49V327m275.76-18.49V327" style="fill:none;stroke:#d9d9d9;stroke-linejoin:round;stroke-width:1.3739501781957px"/></g><g style="clip-path:url(#clip-path-6)"><polyline points="94.02 166.61 162.93 131 231.97 98.12 300.87 81.68 369.78 70.72 438.68 65.25 507.72 76.2 576.63 98.12 645.53 125.52 714.44 139.22 783.48 152.91 852.38 169.35" style="fill:none;stroke:#ff25f3;stroke-linecap:round;stroke-linejoin:round;stroke-width:2.47311029345432px"/></g><g style="clip-path:url(#clip-path)"><polygon points="91.1 163.7 96.89 163.7 96.89 169.45 91.1 169.45 91.1 163.7 91.1 163.7" style="fill:#ff25f3;fill-rule:evenodd"/><polygon points="91.1 163.7 96.89 163.7 96.89 169.45 91.1 169.45 91.1 163.7 91.1 163.7" style="fill:none;stroke:#ff25f3;stroke-linejoin:round;stroke-width:0.824370188811236px"/><polygon points="160.01 128.08 165.79 128.08 165.79 133.83 160.01 133.83 160.01 128.08 160.01 128.08" style="fill:#ff25f3;fill-rule:evenodd"/><polygon points="160.01 128.08 165.79 128.08 165.79 133.83 160.01 133.83 160.01 128.08 160.01 128.08" style="fill:none;stroke:#ff25f3;stroke-linejoin:round;stroke-width:0.824370188811236px"/><polygon points="229.05 95.2 234.84 95.2 234.84 100.96 229.05 100.96 229.05 95.2 229.05 95.2" style="fill:#ff25f3;fill-rule:evenodd"/><polygon points="229.05 95.2 234.84 95.2 234.84 100.96 229.05 100.96 229.05 95.2 229.05 95.2" style="fill:none;stroke:#ff25f3;stroke-linejoin:round;stroke-width:0.824370188811236px"/><polygon points="297.95 78.77 303.74 78.77 303.74 84.52 297.95 84.52 297.95 78.77 297.95 78.77" style="fill:#ff25f3;fill-rule:evenodd"/><polygon points="297.95 78.77 303.74 78.77 303.74 84.52 297.95 84.52 297.95 78.77 297.95 78.77" style="fill:none;stroke:#ff25f3;stroke-linejoin:round;stroke-width:0.824370188811236px"/><polygon points="366.86 67.81 372.65 67.81 372.65 73.56 366.86 73.56 366.86 67.81 366.86 67.81" style="fill:#ff25f3;fill-rule:evenodd"/><polygon points="366.86 67.81 372.65 67.81 372.65 73.56 366.86 73.56 366.86 67.81 366.86 67.81" style="fill:none;stroke:#ff25f3;stroke-linejoin:round;stroke-width:0.824370188811236px"/><polygon points="435.76 62.33 441.55 62.33 441.55 68.08 435.76 68.08 435.76 62.33 435.76 62.33" style="fill:#ff25f3;fill-rule:evenodd"/><polygon points="435.76 62.33 441.55 62.33 441.55 68.08 435.76 68.08 435.76 62.33 435.76 62.33" style="fill:none;stroke:#ff25f3;stroke-linejoin:round;stroke-width:0.824370188811236px"/><polygon points="504.81 73.29 510.59 73.29 510.59 79.04 504.81 79.04 504.81 73.29 504.81 73.29" style="fill:#ff25f3;fill-rule:evenodd"/><polygon points="504.81 73.29 510.59 73.29 510.59 79.04 504.81 79.04 504.81 73.29 504.81 73.29" style="fill:none;stroke:#ff25f3;stroke-linejoin:round;stroke-width:0.824370188811236px"/><polygon points="573.71 95.2 579.5 95.2 579.5 100.96 573.71 100.96 573.71 95.2 573.71 95.2" style="fill:#ff25f3;fill-rule:evenodd"/><polygon points="573.71 95.2 579.5 95.2 579.5 100.96 573.71 100.96 573.71 95.2 573.71 95.2" style="fill:none;stroke:#ff25f3;stroke-linejoin:round;stroke-width:0.824370188811236px"/><polygon points="642.61 122.6 648.4 122.6 648.4 128.35 642.61 128.35 642.61 122.6 642.61 122.6" style="fill:#ff25f3;fill-rule:evenodd"/><polygon points="642.61 122.6 648.4 122.6 648.4 128.35 642.61 128.35 642.61 122.6 642.61 122.6" style="fill:none;stroke:#ff25f3;stroke-linejoin:round;stroke-width:0.824370188811236px"/><polygon points="711.52 136.3 717.31 136.3 717.31 142.05 711.52 142.05 711.52 136.3 711.52 136.3" style="fill:#ff25f3;fill-rule:evenodd"/><polygon points="711.52 136.3 717.31 136.3 717.31 142.05 711.52 142.05 711.52 136.3 711.52 136.3" style="fill:none;stroke:#ff25f3;stroke-linejoin:round;stroke-width:0.824370188811236px"/><polygon points="780.56 150 786.35 150 786.35 155.75 780.56 155.75 780.56 150 780.56 150" style="fill:#ff25f3;fill-rule:evenodd"/><polygon points="780.56 150 786.35 150 786.35 155.75 780.56 155.75 780.56 150 780.56 150" style="fill:none;stroke:#ff25f3;stroke-linejoin:round;stroke-width:0.824370188811236px"/><polygon points="849.47 166.44 855.25 166.44 855.25 172.19 849.47 172.19 849.47 166.44 849.47 166.44" style="fill:#ff25f3;fill-rule:evenodd"/><polygon points="849.47 166.44 855.25 166.44 855.25 172.19 849.47 172.19 849.47 166.44 849.47 166.44" style="fill:none;stroke:#ff25f3;stroke-linejoin:round;stroke-width:0.824370188811236px"/></g><g style="clip-path:url(#clip-path-6)"><polyline points="94.02 180.31 162.93 147.43 231.97 114.56 300.87 98.12 369.78 87.16 438.68 76.2 507.72 87.16 576.63 98.12 645.53 131 714.44 147.43 783.48 161.13 852.38 180.31" style="fill:none;stroke:#06f;stroke-linecap:round;stroke-linejoin:round;stroke-width:2.47311029345432px"/></g><g style="clip-path:url(#clip-path)"><path d="M96.89,180.27A2.9,2.9,0,1,1,94,177.39a2.89,2.89,0,0,1,2.89,2.88Z" style="fill:#06f"/><path d="M96.89,180.27A2.9,2.9,0,1,1,94,177.39a2.89,2.89,0,0,1,2.89,2.88Z" style="fill:none;stroke:#06f;stroke-linejoin:round;stroke-width:0.824370188811236px"/><path d="M165.79,147.39a2.89,2.89,0,1,1-2.89-2.87,2.88,2.88,0,0,1,2.89,2.87Z" style="fill:#06f"/><path d="M165.79,147.39a2.89,2.89,0,1,1-2.89-2.87,2.88,2.88,0,0,1,2.89,2.87Z" style="fill:none;stroke:#06f;stroke-linejoin:round;stroke-width:0.824370188811236px"/><path d="M234.84,114.52a2.9,2.9,0,1,1-2.9-2.88,2.89,2.89,0,0,1,2.9,2.88Z" style="fill:#06f"/><path d="M234.84,114.52a2.9,2.9,0,1,1-2.9-2.88,2.89,2.89,0,0,1,2.9,2.88Z" style="fill:none;stroke:#06f;stroke-linejoin:round;stroke-width:0.824370188811236px"/><path d="M303.74,98.08a2.9,2.9,0,1,1-2.89-2.88,2.88,2.88,0,0,1,2.89,2.88Z" style="fill:#06f"/><path d="M303.74,98.08a2.9,2.9,0,1,1-2.89-2.88,2.88,2.88,0,0,1,2.89,2.88Z" style="fill:none;stroke:#06f;stroke-linejoin:round;stroke-width:0.824370188811236px"/><path d="M372.65,87.12a2.9,2.9,0,1,1-2.9-2.87,2.89,2.89,0,0,1,2.9,2.87Z" style="fill:#06f"/><path d="M372.65,87.12a2.9,2.9,0,1,1-2.9-2.87,2.89,2.89,0,0,1,2.9,2.87Z" style="fill:none;stroke:#06f;stroke-linejoin:round;stroke-width:0.824370188811236px"/><path d="M441.55,76.16a2.9,2.9,0,1,1-2.89-2.87,2.89,2.89,0,0,1,2.89,2.87Z" style="fill:#06f"/><path d="M441.55,76.16a2.9,2.9,0,1,1-2.89-2.87,2.89,2.89,0,0,1,2.89,2.87Z" style="fill:none;stroke:#06f;stroke-linejoin:round;stroke-width:0.824370188811236px"/><path d="M510.59,87.12a2.9,2.9,0,1,1-2.89-2.87,2.88,2.88,0,0,1,2.89,2.87Z" style="fill:#06f"/><path d="M510.59,87.12a2.9,2.9,0,1,1-2.89-2.87,2.88,2.88,0,0,1,2.89,2.87Z" style="fill:none;stroke:#06f;stroke-linejoin:round;stroke-width:0.824370188811236px"/><path d="M579.5,98.08a2.9,2.9,0,1,1-2.9-2.88,2.89,2.89,0,0,1,2.9,2.88Z" style="fill:#06f"/><path d="M579.5,98.08a2.9,2.9,0,1,1-2.9-2.88,2.89,2.89,0,0,1,2.9,2.88Z" style="fill:none;stroke:#06f;stroke-linejoin:round;stroke-width:0.824370188811236px"/><path d="M648.4,131a2.9,2.9,0,1,1-2.89-2.88A2.87,2.87,0,0,1,648.4,131Z" style="fill:#06f"/><path d="M648.4,131a2.9,2.9,0,1,1-2.89-2.88A2.87,2.87,0,0,1,648.4,131Z" style="fill:none;stroke:#06f;stroke-linejoin:round;stroke-width:0.824370188811236px"/><path d="M717.31,147.39a2.9,2.9,0,1,1-2.9-2.87,2.89,2.89,0,0,1,2.9,2.87Z" style="fill:#06f"/><path d="M717.31,147.39a2.9,2.9,0,1,1-2.9-2.87,2.89,2.89,0,0,1,2.9,2.87Z" style="fill:none;stroke:#06f;stroke-linejoin:round;stroke-width:0.824370188811236px"/><path d="M786.35,161.09a2.9,2.9,0,1,1-2.9-2.87,2.89,2.89,0,0,1,2.9,2.87Z" style="fill:#06f"/><path d="M786.35,161.09a2.9,2.9,0,1,1-2.9-2.87,2.89,2.89,0,0,1,2.9,2.87Z" style="fill:none;stroke:#06f;stroke-linejoin:round;stroke-width:0.824370188811236px"/><path d="M855.25,180.27a2.89,2.89,0,1,1-2.89-2.88,2.88,2.88,0,0,1,2.89,2.88Z" style="fill:#06f"/><path d="M855.25,180.27a2.89,2.89,0,1,1-2.89-2.88,2.88,2.88,0,0,1,2.89,2.88Z" style="fill:none;stroke:#06f;stroke-linejoin:round;stroke-width:0.824370188811236px"/></g><g style="clip-path:url(#clip-path-10)"><text transform="translate(30.56 293.21) scale(1.01 1)" style="font-size:10.273670196533203px;font-family:ArialMT, Arial"><tspan style="letter-spacing:0.003023494361712324em">0</tspan><tspan x="5.74" y="0" style="letter-spacing:0.0019841681748737133em">.</tspan><tspan x="8.62" y="0" style="letter-spacing:-0.008975998886333462em">0</tspan><tspan x="14.24" y="0">0</tspan></text></g><g style="clip-path:url(#clip-path-10)"><text transform="translate(30.56 224.72) scale(1.01 1)" style="font-size:10.273670196533203px;font-family:ArialMT, Arial"><tspan style="letter-spacing:0.003023494361712324em">0</tspan><tspan x="5.74" y="0" style="letter-spacing:0.0019841681748737133em">.</tspan><tspan x="8.62" y="0" style="letter-spacing:-0.008975998886333462em">2</tspan><tspan x="14.24" y="0">5</tspan></text></g><g style="clip-path:url(#clip-path-10)"><text transform="translate(30.56 156.22) scale(1.01 1)" style="font-size:10.273670196533203px;font-family:ArialMT, Arial"><tspan style="letter-spacing:0.003023494361712324em">0</tspan><tspan x="5.74" y="0" style="letter-spacing:0.0019841681748737133em">.</tspan><tspan x="8.62" y="0" style="letter-spacing:-0.008975998886333462em">5</tspan><tspan x="14.24" y="0">0</tspan></text></g><g style="clip-path:url(#clip-path-10)"><text transform="translate(30.56 87.72) scale(1.01 1)" style="font-size:10.273670196533203px;font-family:ArialMT, Arial"><tspan style="letter-spacing:0.003023494361712324em">0</tspan><tspan x="5.74" y="0" style="letter-spacing:0.0019841681748737133em">.</tspan><tspan x="8.62" y="0" style="letter-spacing:-0.008975998886333462em">7</tspan><tspan x="14.24" y="0">5</tspan></text></g><g style="clip-path:url(#clip-path-10)"><text transform="translate(30.56 19.23) scale(1.01 1)" style="font-size:10.273670196533203px;font-family:ArialMT, Arial"><tspan style="letter-spacing:0.003023494361712324em">1</tspan><tspan x="5.74" y="0" style="letter-spacing:0.0019841681748737133em">.</tspan><tspan x="8.62" y="0" style="letter-spacing:-0.008975998886333462em">0</tspan><tspan x="14.24" y="0">0</tspan></text></g><g style="clip-path:url(#clip-path-10)"><text transform="translate(91.15 305.45) scale(1.01 1)" style="font-size:10.273670196533203px;font-family:ArialMT, Arial">1</text></g><g style="clip-path:url(#clip-path-10)"><text transform="translate(160.09 305.45) scale(1.01 1)" style="font-size:10.273670196533203px;font-family:ArialMT, Arial">2</text></g><g style="clip-path:url(#clip-path-10)"><text transform="translate(229.03 305.45) scale(1.01 1)" style="font-size:10.273670196533203px;font-family:ArialMT, Arial">3</text></g><g style="clip-path:url(#clip-path-10)"><text transform="translate(297.97 305.45) scale(1.01 1)" style="font-size:10.273670196533203px;font-family:ArialMT, Arial">4</text></g><g style="clip-path:url(#clip-path-10)"><text transform="translate(366.92 305.45) scale(1.01 1)" style="font-size:10.273670196533203px;font-family:ArialMT, Arial">1</text></g><g style="clip-path:url(#clip-path-10)"><text transform="translate(435.85 305.45) scale(1.01 1)" style="font-size:10.273670196533203px;font-family:ArialMT, Arial">2</text></g><g style="clip-path:url(#clip-path-10)"><text transform="translate(504.79 305.45) scale(1.01 1)" style="font-size:10.273670196533203px;font-family:ArialMT, Arial">3</text></g><g style="clip-path:url(#clip-path-10)"><text transform="translate(573.73 305.45) scale(1.01 1)" style="font-size:10.273670196533203px;font-family:ArialMT, Arial">4</text></g><g style="clip-path:url(#clip-path-10)"><text transform="translate(642.67 305.45) scale(1.01 1)" style="font-size:10.273670196533203px;font-family:ArialMT, Arial">1</text></g><g style="clip-path:url(#clip-path-10)"><text transform="translate(711.61 305.45) scale(1.01 1)" style="font-size:10.273670196533203px;font-family:ArialMT, Arial">2</text></g><g style="clip-path:url(#clip-path-10)"><text transform="translate(780.55 305.45) scale(1.01 1)" style="font-size:10.273670196533203px;font-family:ArialMT, Arial">3</text></g><g style="clip-path:url(#clip-path-10)"><text transform="translate(849.49 305.45) scale(1.01 1)" style="font-size:10.273670196533203px;font-family:ArialMT, Arial">4</text></g><g style="clip-path:url(#clip-path-10)"><text transform="translate(188.25 323.97) scale(1.01 1)" style="font-size:10.273670196533203px;font-family:ArialMT, Arial"><tspan style="letter-spacing:-0.0019841681748737133em">N</tspan><tspan x="7.4" y="0" style="letter-spacing:0.003023494361712324em">o</tspan><tspan x="13.14" y="0">v</tspan></text></g><g style="clip-path:url(#clip-path-10)"><text transform="translate(464 323.97) scale(1.01 1)" style="font-size:10.273670196533203px;font-family:ArialMT, Arial"><tspan style="letter-spacing:-0.0019841681748737133em">D</tspan><tspan x="7.4" y="0" style="letter-spacing:0.003023494361712324em">e</tspan><tspan x="13.14" y="0">c</tspan></text></g><g style="clip-path:url(#clip-path-10)"><text transform="translate(740.62 323.97) scale(1.01 1)" style="font-size:10.273670196533203px;font-family:ArialMT, Arial;letter-spacing:0.005952504524621139em">J<tspan x="5.2" y="0" style="letter-spacing:-0.008975998886333462em">a</tspan><tspan x="10.82" y="0" style="letter-spacing:0.00009448419880351012em">n</tspan></text></g><g style="clip-path:url(#clip-path-10)"><text transform="translate(18.67 203.51) rotate(-90) scale(0.99 1)" style="font-size:11.438150405883789px;font-family:Arial-BoldMT, Arial;font-weight:700">ND<tspan x="16.52" y="0" style="letter-spacing:-0.003951078696586767em">V</tspan><tspan x="24.1" y="0">I</tspan><tspan x="27.28" y="0" style="letter-spacing:0.010994305938328395em"> </tspan><tspan x="30.59" y="0" style="letter-spacing:-0.00008589301514319059em"> </tspan><tspan x="33.76" y="0" style="letter-spacing:-0.003951078696586767em">V</tspan><tspan x="41.35" y="0" style="letter-spacing:-0.001030716181718287em">a</tspan><tspan x="47.7" y="0">l</tspan><tspan x="50.87" y="0" style="letter-spacing:0.0030062555300116706em">u</tspan><tspan x="57.9" y="0" style="letter-spacing:-0.00008589301514319059em">e</tspan></text></g><g style="clip-path:url(#clip-path-10)"><text transform="translate(435.42 338.72) scale(1.01 1)" style="font-size:11.369529724121094px;font-family:Arial-BoldMT, Arial;font-weight:700"><tspan style="letter-spacing:0.007000936776565775em">W</tspan><tspan x="10.81" y="0" style="letter-spacing:-0.0010245273331559671em">ee</tspan><tspan x="23.43" y="0">k</tspan></text></g><polygon points="1.14 1.14 898.83 1.14 898.83 347.56 1.14 347.56 1.14 1.14 1.14 1.14" style="fill:none;stroke:#d9d9d9;stroke-linejoin:round;stroke-width:0.824370188811236px"/></svg>