<svg id="Layer_1" data-name="Layer 1" xmlns="http://www.w3.org/2000/svg" xmlns:xlink="http://www.w3.org/1999/xlink" viewBox="0 0 900 350"><defs><clipPath id="clip-path"><polygon points="1 342.79 899.08 342.79 899.08 1 1 1 1 342.79 1 342.79" style="fill:none;clip-rule:evenodd"/></clipPath><clipPath id="clip-path-3"><polygon points="78.98 306.81 883.59 306.81 883.59 39.73 78.98 39.73 78.98 306.81 78.98 306.81" style="fill:none;clip-rule:evenodd"/></clipPath><clipPath id="clip-path-9"><rect x="1" y="1" width="898.08" height="341.79" style="fill:none"/></clipPath></defs><title>price-volatility</title><polygon points="1.14 1.14 899.22 1.14 899.22 342.79 1.14 342.79 1.14 1.14 1.14 1.14" style="fill:#eaeaea;fill-rule:evenodd"/><polygon points="79.12 39.73 882.91 39.73 882.91 305.99 79.12 305.99 79.12 39.73 79.12 39.73" style="fill:#fff;fill-rule:evenodd"/><path d="M79.12,252.71H882.91M79.12,199.57H882.91M79.12,146.29H882.91M79.12,93H882.91M79.12,39.72H882.91" style="fill:none;stroke:#d9d9d9;stroke-linejoin:round;stroke-width:0.823107955216212px"/><g style="clip-path:url(#clip-path)"><path d="M79.12,39.72V306M146,39.72V306M213,39.72V306M280,39.72V306m67-266.27V306M413.93,39.72V306m67-266.27V306M548,39.72V306M615,39.72V306M681.86,39.72V306m67-266.27V306m67-266.27V306m67-266.27V306" style="fill:none;stroke:#d9d9d9;stroke-linejoin:round;stroke-width:0.823107955216212px"/></g><g style="clip-path:url(#clip-path)"><line x1="79.12" y1="305.99" x2="882.91" y2="305.99" style="fill:none;stroke:#d9d9d9;stroke-linejoin:round;stroke-width:0.823107955216212px"/></g><g style="clip-path:url(#clip-path-3)"><polyline points="112.56 230.32 179.57 229.5 246.45 221.68 313.47 213.3 380.49 198.33 447.5 189.13 514.38 188.03 581.4 196.82 648.42 199.98 715.43 184.32 782.32 168.39 849.33 127.2" style="fill:none;stroke:#2935e8;stroke-linecap:round;stroke-linejoin:round;stroke-width:2.46932379750828px"/></g><g style="clip-path:url(#clip-path-3)"><polyline points="112.56 188.85 179.57 208.9 246.45 219.89 313.47 220.3 380.49 206.98 447.5 192.29 514.38 200.12 581.4 185.28 648.42 188.72 715.43 160.84 782.32 136.81 849.33 102.48" style="fill:none;stroke:#6b77e8;stroke-linecap:round;stroke-linejoin:round;stroke-width:2.46932379750828px"/></g><g style="clip-path:url(#clip-path-3)"><polyline points="112.56 216.59 179.57 216.32 246.45 211.1 313.47 206.84 380.49 188.44 447.5 177.87 514.38 178.56 581.4 183.5 648.42 187.07 715.43 176.36 782.32 162.9 849.33 127.2" style="fill:none;stroke:#95a2ef;stroke-linecap:round;stroke-linejoin:round;stroke-width:2.46932379750828px"/></g><g style="clip-path:url(#clip-path-3)"><polyline points="112.56 229.5 179.57 228.81 246.45 228.68 313.47 206.71 380.49 203.82 447.5 195.58 514.38 189.54 581.4 191.46 648.42 193.8 715.43 193.52 782.32 181.71 849.33 125.28" style="fill:none;stroke:#3d699c;stroke-linecap:round;stroke-linejoin:round;stroke-width:2.46932379750828px"/></g><g style="clip-path:url(#clip-path-3)"><polyline points="112.56 242.96 179.57 240.76 246.45 223.46 313.47 214.95 380.49 186.25 447.5 178.97 514.38 162.76 581.4 173.89 648.42 169.35 715.43 146.15 782.32 122.67 849.33 108.66" style="fill:none;stroke:#ff25f3;stroke-linecap:round;stroke-linejoin:round;stroke-width:2.46932379750828px"/></g><g style="clip-path:url(#clip-path-3)"><polyline points="112.56 202.86 179.57 203 246.45 200.53 313.47 200.39 380.49 178.56 447.5 166.75 514.38 169.08 581.4 170.32 648.42 174.16 715.43 168.26 782.32 157.41 849.33 127.2" style="fill:none;stroke:#00c1a3;stroke-linecap:round;stroke-linejoin:round;stroke-width:2.46932379750828px"/></g><g style="clip-path:url(#clip-path-9)"><text transform="translate(55.38 309.3)" style="font-size:10.299050331115723px;font-family:ArialMT, Arial"><tspan style="letter-spacing:0.001995183708892765em"> </tspan><tspan x="2.88" y="0">-</tspan></text></g><g style="clip-path:url(#clip-path-9)"><text transform="translate(38.79 256.04)" style="font-size:10.299050331115723px;font-family:ArialMT, Arial;letter-spacing:0.001995183708892765em"> <tspan x="2.88" y="0" style="letter-spacing:0.0030402799373604036em">3</tspan><tspan x="8.64" y="0" style="letter-spacing:-0.011021014772931461em">,</tspan><tspan x="11.39" y="0" style="letter-spacing:0.0029452711893178905em">50</tspan><tspan x="22.91" y="0" style="letter-spacing:-0.00009500874804251261em">0</tspan></text></g><g style="clip-path:url(#clip-path-9)"><text transform="translate(38.79 202.79)" style="font-size:10.299050331115723px;font-family:ArialMT, Arial;letter-spacing:0.001995183708892765em"> <tspan x="2.88" y="0" style="letter-spacing:0.0030402799373604036em">7</tspan><tspan x="8.64" y="0" style="letter-spacing:-0.011021014772931461em">,</tspan><tspan x="11.39" y="0" style="letter-spacing:0.0029452711893178905em">00</tspan><tspan x="22.91" y="0" style="letter-spacing:-0.00009500874804251261em">0</tspan></text></g><g style="clip-path:url(#clip-path-9)"><text transform="translate(33.07 149.53)" style="font-size:10.299050331115723px;font-family:ArialMT, Arial"><tspan style="letter-spacing:0.001995183708892765em"> </tspan><tspan x="2.88" y="0" style="letter-spacing:0.0030402799373604036em">1</tspan><tspan x="8.64" y="0" style="letter-spacing:-0.009025831064038696em">0</tspan><tspan x="14.28" y="0" style="letter-spacing:0.001995183708892765em">,</tspan><tspan x="17.16" y="0" style="letter-spacing:0.0029452711893178905em">50</tspan><tspan x="28.67" y="0">0</tspan></text></g><g style="clip-path:url(#clip-path-9)"><text transform="translate(33.07 96.28)" style="font-size:10.299050331115723px;font-family:ArialMT, Arial"><tspan style="letter-spacing:0.001995183708892765em"> </tspan><tspan x="2.88" y="0" style="letter-spacing:0.0030402799373604036em">1</tspan><tspan x="8.64" y="0" style="letter-spacing:-0.009025831064038696em">4</tspan><tspan x="14.28" y="0" style="letter-spacing:0.001995183708892765em">,</tspan><tspan x="17.16" y="0" style="letter-spacing:0.0029452711893178905em">00</tspan><tspan x="28.67" y="0">0</tspan></text></g><g style="clip-path:url(#clip-path-9)"><text transform="translate(33.07 43.03)" style="font-size:10.299050331115723px;font-family:ArialMT, Arial"><tspan style="letter-spacing:0.001995183708892765em"> </tspan><tspan x="2.88" y="0" style="letter-spacing:0.0030402799373604036em">1</tspan><tspan x="8.64" y="0" style="letter-spacing:-0.009025831064038696em">7</tspan><tspan x="14.28" y="0" style="letter-spacing:0.001995183708892765em">,</tspan><tspan x="17.16" y="0" style="letter-spacing:0.0029452711893178905em">50</tspan><tspan x="28.67" y="0">0</tspan></text></g><g style="clip-path:url(#clip-path-9)"><text transform="translate(104.27 321.56)" style="font-size:10.299050331115723px;font-family:ArialMT, Arial;letter-spacing:0.005985551126678293em">J<tspan x="5.21" y="0" style="letter-spacing:-0.009025831064038696em">a</tspan><tspan x="10.85" y="0" style="letter-spacing:-0.00009500874804251261em">n</tspan></text></g><g style="clip-path:url(#clip-path-9)"><text transform="translate(170.68 321.56)" style="font-size:10.299050331115723px;font-family:ArialMT, Arial;letter-spacing:0.001995183708892765em">F<tspan x="6.31" y="0" style="letter-spacing:0.0030402799373604036em">e</tspan><tspan x="12.07" y="0" style="letter-spacing:-0.00009500874804251261em">b</tspan></text></g><g style="clip-path:url(#clip-path-9)"><text transform="translate(237.67 321.56)" style="font-size:10.299050331115723px;font-family:ArialMT, Arial"><tspan style="letter-spacing:-0.005985551126678293em">M</tspan><tspan x="8.52" y="0" style="letter-spacing:0.0029452711893178905em">a</tspan><tspan x="14.28" y="0">r</tspan></text></g><g style="clip-path:url(#clip-path-9)"><text transform="translate(305.5 321.56)" style="font-size:10.299050331115723px;font-family:ArialMT, Arial">A<tspan x="6.87" y="0" style="letter-spacing:0.0030402799373604036em">p</tspan><tspan x="12.63" y="0">r</tspan></text></g><g style="clip-path:url(#clip-path-9)"><text transform="translate(370.78 321.56)" style="font-size:10.299050331115723px;font-family:ArialMT, Arial;letter-spacing:-0.005985551126678293em">M<tspan x="8.52" y="0" style="letter-spacing:0.0029452711893178905em">a</tspan><tspan x="14.28" y="0" style="letter-spacing:-0.00009500874804251261em">y</tspan></text></g><g style="clip-path:url(#clip-path-9)"><text transform="translate(439.18 321.56)" style="font-size:10.299050331115723px;font-family:ArialMT, Arial;letter-spacing:0.005985551126678293em">J<tspan x="5.21" y="0" style="letter-spacing:-0.009025831064038696em">u</tspan><tspan x="10.85" y="0" style="letter-spacing:-0.00009500874804251261em">n</tspan></text></g><g style="clip-path:url(#clip-path-9)"><text transform="translate(507.87 321.56)" style="font-size:10.299050331115723px;font-family:ArialMT, Arial"><tspan style="letter-spacing:0.005985551126678293em">J</tspan><tspan x="5.21" y="0" style="letter-spacing:-0.009025831064038696em">u</tspan><tspan x="10.85" y="0">l</tspan></text></g><g style="clip-path:url(#clip-path-9)"><text transform="translate(572.28 321.56)" style="font-size:10.299050331115723px;font-family:ArialMT, Arial">A<tspan x="6.87" y="0" style="letter-spacing:0.0030402799373604036em">u</tspan><tspan x="12.63" y="0" style="letter-spacing:-0.00009500874804251261em">g</tspan></text></g><g style="clip-path:url(#clip-path-9)"><text transform="translate(639.26 321.56)" style="font-size:10.299050331115723px;font-family:ArialMT, Arial">S<tspan x="6.87" y="0" style="letter-spacing:0.0030402799373604036em">e</tspan><tspan x="12.63" y="0" style="letter-spacing:-0.00009500874804251261em">p</tspan></text></g><g style="clip-path:url(#clip-path-9)"><text transform="translate(707.4 321.56)" style="font-size:10.299050331115723px;font-family:ArialMT, Arial"><tspan style="letter-spacing:-0.00399036741778553em">O</tspan><tspan x="7.97" y="0" style="letter-spacing:0.005985551126678293em">c</tspan><tspan x="13.18" y="0">t</tspan></text></g><g style="clip-path:url(#clip-path-9)"><text transform="translate(773.23 321.56)" style="font-size:10.299050331115723px;font-family:ArialMT, Arial"><tspan style="letter-spacing:-0.001995183708892765em">N</tspan><tspan x="7.42" y="0" style="letter-spacing:0.0029452711893178905em">o</tspan><tspan x="13.18" y="0">v</tspan></text></g><g style="clip-path:url(#clip-path-9)"><text transform="translate(840.21 321.56)" style="font-size:10.299050331115723px;font-family:ArialMT, Arial"><tspan style="letter-spacing:-0.001995183708892765em">D</tspan><tspan x="7.42" y="0" style="letter-spacing:0.0029452711893178905em">e</tspan><tspan x="13.18" y="0">c</tspan></text></g><g style="clip-path:url(#clip-path-9)"><text transform="translate(21.55 228.08) rotate(-90)" style="font-size:11.375040054321289px;font-family:Arial-BoldMT, Arial;font-weight:700"><tspan style="letter-spacing:0.02202019710884314em">M</tspan><tspan x="9.73" y="0" style="letter-spacing:-0.001028180409751431em">a</tspan><tspan x="16.04" y="0" style="letter-spacing:-0.0029988595284416732em">r</tspan><tspan x="20.43" y="0" style="letter-spacing:-0.001028180409751431em">ke</tspan><tspan x="33.06" y="0" style="letter-spacing:0.003941358237380485em">t</tspan><tspan x="36.9" y="0" style="letter-spacing:-0.00008568170081261922em"> </tspan><tspan x="40.06" y="0" style="letter-spacing:-0.0040270399381931036em">P</tspan><tspan x="47.6" y="0" style="letter-spacing:-0.0029988595284416732em">r</tspan><tspan x="51.99" y="0">i</tspan><tspan x="55.15" y="0" style="letter-spacing:-0.001028180409751431em">ce</tspan><tspan x="67.78" y="0" style="letter-spacing:0.02296269581778195em"> </tspan><tspan x="71.2" y="0" style="letter-spacing:0.003941358237380485em">(</tspan><tspan x="75.04" y="0">R</tspan><tspan x="83.25" y="0" style="letter-spacing:-0.001028180409751431em">s</tspan><tspan x="89.57" y="0">./</tspan><tspan x="95.89" y="0" style="letter-spacing:0.02202019710884314em">M</tspan><tspan x="105.61" y="0" style="letter-spacing:0.014994297642208365em">T</tspan><tspan x="112.73" y="0">)</tspan></text></g><g style="clip-path:url(#clip-path-9)"><text transform="translate(428.42 335.45)" style="font-size:11.39762020111084px;font-family:Arial-BoldMT, Arial;font-weight:700"><tspan style="letter-spacing:0.021977918578128725em">M</tspan><tspan x="9.74" y="0" style="letter-spacing:0.003004793555603537em">on</tspan><tspan x="23.74" y="0" style="letter-spacing:0.004035008488953322em">t</tspan><tspan x="27.58" y="0" style="letter-spacing:0.003004793555603537em">h</tspan><tspan x="34.58" y="0" style="letter-spacing:-0.0010302149333497844em">s</tspan><tspan x="40.9" y="0"> </tspan></text></g><g style="clip-path:url(#clip-path)"><line x1="67.06" y1="24.21" x2="88.99" y2="24.21" style="fill:none;stroke:#2935e8;stroke-linecap:round;stroke-linejoin:round;stroke-width:2.46932379750828px"/></g><g style="clip-path:url(#clip-path-9)"><text transform="translate(91.23 27.09)" style="font-size:9.20048999786377px;font-family:Arial-BoldMT, Arial;font-weight:700"><tspan style="letter-spacing:-0.004998591844132893em">U</tspan><tspan x="6.6" y="0" style="letter-spacing:0.004041414682490424em">P</tspan><tspan x="12.77" y="0" style="letter-spacing:-0.008933653508663042em"> </tspan><tspan x="15.25" y="0" style="letter-spacing:-0.00393506166453015em">(</tspan><tspan x="18.27" y="0" style="letter-spacing:-0.004998591844132893em">R</tspan><tspan x="24.87" y="0" style="letter-spacing:0.009997183688265786em">-</tspan><tspan x="28.03" y="0" style="letter-spacing:-0.0029778845028876812em">9</tspan><tspan x="33.12" y="0" style="letter-spacing:-0.008933653508663042em">,</tspan><tspan x="35.59" y="0" style="letter-spacing:0.004998591844132893em"> </tspan><tspan x="38.19" y="0" style="letter-spacing:-0.004892238826172619em">R</tspan><tspan x="44.79" y="0" style="letter-spacing:-0.004041414682490424em">-</tspan><tspan x="47.82" y="0" style="letter-spacing:-0.0029778845028876812em">10</tspan><tspan x="57.99" y="0" style="letter-spacing:0.005104944862093167em">,</tspan><tspan x="60.6" y="0" style="letter-spacing:-0.009040006526623318em"> </tspan><tspan x="63.07" y="0" style="letter-spacing:0.009040006526623318em">R</tspan><tspan x="69.8" y="0" style="letter-spacing:-0.00393506166453015em">-</tspan><tspan x="72.82" y="0" style="letter-spacing:-0.0029778845028876812em">17</tspan><tspan x="83" y="0" style="letter-spacing:-0.008933653508663042em">,</tspan><tspan x="85.48" y="0" style="letter-spacing:0.004998591844132893em"> </tspan><tspan x="88.08" y="0" style="letter-spacing:-0.004998591844132893em">R</tspan><tspan x="94.68" y="0" style="letter-spacing:-0.00393506166453015em">-</tspan><tspan x="97.7" y="0" style="letter-spacing:-0.0029778845028876812em">2</tspan><tspan x="102.79" y="0" style="letter-spacing:0.01106071386786853em">2</tspan><tspan x="108.01" y="0">)</tspan></text></g><g style="clip-path:url(#clip-path)"><line x1="250.15" y1="24.21" x2="272.08" y2="24.21" style="fill:none;stroke:#6b77e8;stroke-linecap:round;stroke-linejoin:round;stroke-width:2.46932379750828px"/></g><g style="clip-path:url(#clip-path-9)"><text transform="translate(274.34 27.09)" style="font-size:9.20048999786377px;font-family:Arial-BoldMT, Arial;font-weight:700"><tspan style="letter-spacing:-0.0010635301796027433em">G</tspan><tspan x="7.15" y="0" style="letter-spacing:-0.004892238826172619em">U</tspan><tspan x="13.75" y="0" style="letter-spacing:-0.0029778845028876812em">J</tspan><tspan x="18.84" y="0" style="letter-spacing:0.004998591844132893em"> </tspan><tspan x="21.44" y="0" style="letter-spacing:-0.00393506166453015em">(</tspan><tspan x="24.46" y="0" style="letter-spacing:-0.004998591844132893em">R</tspan><tspan x="31.06" y="0" style="letter-spacing:-0.004041414682490424em">-</tspan><tspan x="34.09" y="0" style="letter-spacing:-0.0029778845028876812em">2</tspan><tspan x="39.18" y="0" style="letter-spacing:0.005104944862093167em">,</tspan><tspan x="41.78" y="0" style="letter-spacing:-0.008933653508663042em"> </tspan><tspan x="44.25" y="0" style="letter-spacing:-0.004998591844132893em">R</tspan><tspan x="50.85" y="0" style="letter-spacing:0.009997183688265786em">-</tspan><tspan x="54.01" y="0" style="letter-spacing:-0.0029778845028876812em">11</tspan><tspan x="64.19" y="0" style="letter-spacing:-0.008933653508663042em">,</tspan><tspan x="66.66" y="0" style="letter-spacing:0.004998591844132893em"> </tspan><tspan x="69.26" y="0" style="letter-spacing:-0.004892238826172619em">R</tspan><tspan x="75.86" y="0" style="letter-spacing:-0.004041414682490424em">-</tspan><tspan x="78.89" y="0" style="letter-spacing:-0.0029778845028876812em">13</tspan><tspan x="89.07" y="0">)</tspan></text></g><g style="clip-path:url(#clip-path)"><line x1="414.48" y1="24.21" x2="436.4" y2="24.21" style="fill:none;stroke:#95a2ef;stroke-linecap:round;stroke-linejoin:round;stroke-width:2.46932379750828px"/></g><g style="clip-path:url(#clip-path-9)"><text transform="translate(438.65 27.09)" style="font-size:9.20048999786377px;font-family:Arial-BoldMT, Arial;font-weight:700"><tspan style="letter-spacing:-0.004998591844132893em">B</tspan><tspan x="6.6" y="0" style="letter-spacing:0.005104944862093167em">I</tspan><tspan x="9.2" y="0" style="letter-spacing:-0.004998591844132893em">H</tspan><tspan x="15.8" y="0" style="letter-spacing:-0.008933653508663042em"> </tspan><tspan x="18.27" y="0" style="letter-spacing:0.009997183688265786em">(</tspan><tspan x="21.43" y="0" style="letter-spacing:-0.004998591844132893em">R</tspan><tspan x="28.03" y="0" style="letter-spacing:-0.00393506166453015em">-</tspan><tspan x="31.05" y="0" style="letter-spacing:-0.0029778845028876812em">26</tspan><tspan x="41.23" y="0">)</tspan></text></g><g style="clip-path:url(#clip-path)"><line x1="530.97" y1="24.21" x2="552.9" y2="24.21" style="fill:none;stroke:#3d699c;stroke-linecap:round;stroke-linejoin:round;stroke-width:2.46932379750828px"/></g><g style="clip-path:url(#clip-path-9)"><text transform="translate(555.22 27.09)" style="font-size:9.20048999786377px;font-family:Arial-BoldMT, Arial;font-weight:700"><tspan style="letter-spacing:-0.009997183688265786em">P</tspan><tspan x="6.04" y="0" style="letter-spacing:0.009040006526623318em">B</tspan><tspan x="12.77" y="0" style="letter-spacing:-0.008933653508663042em"> </tspan><tspan x="15.25" y="0" style="letter-spacing:-0.00393506166453015em">(</tspan><tspan x="18.27" y="0" style="letter-spacing:-0.004998591844132893em">R</tspan><tspan x="24.87" y="0" style="letter-spacing:0.009997183688265786em">-</tspan><tspan x="28.03" y="0" style="letter-spacing:-0.0029778845028876812em">3</tspan><tspan x="33.12" y="0">)</tspan></text></g><g style="clip-path:url(#clip-path)"><line x1="639.37" y1="24.21" x2="661.3" y2="24.21" style="fill:none;stroke:#ff25f3;stroke-linecap:round;stroke-linejoin:round;stroke-width:2.46932379750828px"/></g><g style="clip-path:url(#clip-path-9)"><text transform="translate(663.67 27.09)" style="font-size:9.20048999786377px;font-family:Arial-BoldMT, Arial;font-weight:700;letter-spacing:-0.004998591844132893em">HR<tspan x="13.2" y="0" style="letter-spacing:0.004998591844132893em"> </tspan><tspan x="15.8" y="0" style="letter-spacing:-0.004041414682490424em">(</tspan><tspan x="18.83" y="0" style="letter-spacing:-0.004892238826172619em">R</tspan><tspan x="25.42" y="0" style="letter-spacing:-0.004041414682490424em">-</tspan><tspan x="28.45" y="0" style="letter-spacing:-0.0029778845028876812em">5</tspan><tspan x="33.54" y="0" style="letter-spacing:0.00010635301796027433em">)</tspan></text></g><g style="clip-path:url(#clip-path)"><line x1="748.33" y1="24.21" x2="770.25" y2="24.21" style="fill:none;stroke:#00c1a3;stroke-linecap:round;stroke-linejoin:round;stroke-width:2.46932379750828px"/></g><g style="clip-path:url(#clip-path-9)"><text transform="translate(772.62 27.09)" style="font-size:9.20048999786377px;font-family:Arial-BoldMT, Arial;font-weight:700;letter-spacing:0.002020707341245212em">M<tspan x="7.68" y="0" style="letter-spacing:-0.009890830670305512em">P</tspan><tspan x="13.73" y="0" style="letter-spacing:0.004998591844132893em"> </tspan><tspan x="16.33" y="0" style="letter-spacing:-0.00393506166453015em">(</tspan><tspan x="19.36" y="0" style="letter-spacing:-0.004998591844132893em">R</tspan><tspan x="25.95" y="0" style="letter-spacing:-0.004041414682490424em">-</tspan><tspan x="28.98" y="0" style="letter-spacing:-0.002871531484927407em">14</tspan><tspan x="39.16" y="0" style="letter-spacing:0.004998591844132893em">,</tspan><tspan x="41.76" y="0" style="letter-spacing:-0.008933653508663042em"> </tspan><tspan x="44.24" y="0" style="letter-spacing:-0.004998591844132893em">R</tspan><tspan x="50.83" y="0" style="letter-spacing:0.009997183688265786em">-</tspan><tspan x="53.99" y="0" style="letter-spacing:-0.0029778845028876812em">15</tspan><tspan x="64.17" y="0" style="letter-spacing:0.00010635301796027433em">)</tspan></text></g><polygon points="1.14 1.14 899.22 1.14 899.22 342.79 1.14 342.79 1.14 1.14 1.14 1.14" style="fill:none;stroke:#d9d9d9;stroke-linejoin:round;stroke-width:0.823108023356572px"/></svg>