<svg id="Layer_1" data-name="Layer 1" xmlns="http://www.w3.org/2000/svg" xmlns:xlink="http://www.w3.org/1999/xlink" viewBox="0 0 900 350"><defs><clipPath id="clip-path"><polygon points="1.85 1.85 898.28 1.85 898.28 349.52 1.85 349.52 1.85 1.85 1.85 1.85" style="fill:none;clip-rule:evenodd"/></clipPath><clipPath id="clip-path-2"><polygon points="1.85 1.85 97.2 1.85 97.2 45.2 1.85 45.2 1.85 1.85 1.85 1.85" style="fill:none;clip-rule:evenodd"/></clipPath><clipPath id="clip-path-4"><polygon points="1.85 1.85 898.28 1.85 898.28 45.2 1.85 45.2 1.85 1.85 1.85 1.85" style="fill:none;clip-rule:evenodd"/></clipPath><clipPath id="clip-path-6"><polygon points="1.85 316.37 897.43 316.37 897.43 348.67 1.85 348.67 1.85 316.37 1.85 316.37" style="fill:none;clip-rule:evenodd"/></clipPath><clipPath id="clip-path-7"><polygon points="1 1 898.28 1 898.28 349.52 1 349.52 1 1 1 1" style="fill:none;clip-rule:evenodd"/></clipPath></defs><title>seasonal-calendar</title><g style="clip-path:url(#clip-path)"><polyline points="1 1 1 46.05 898.28 46.05 898.28 1 1 1" style="fill:#d9d9d9;fill-rule:evenodd"/><polyline points="897.43 1 897.43 46.05 917.01 46.05 917.01 1 897.43 1" style="fill:#fff;fill-rule:evenodd"/><polyline points="1 45.2 1 91.11 234.26 91.11 234.26 45.2 1 45.2" style="fill:#f2f2f2;fill-rule:evenodd"/><polyline points="233.41 45.2 233.41 91.11 400.26 91.11 400.26 45.2 233.41 45.2" style="fill:#fff;fill-rule:evenodd"/><polyline points="399.41 45.2 399.41 91.11 455.6 91.11 455.6 45.2 399.41 45.2" style="fill:#5e9fff;fill-rule:evenodd"/><polyline points="454.75 45.2 454.75 91.11 621.61 91.11 621.61 45.2 454.75 45.2" style="fill:#06f;fill-rule:evenodd"/><polyline points="620.75 45.2 620.75 91.11 676.94 91.11 676.94 45.2 620.75 45.2" style="fill:#0044ab;fill-rule:evenodd"/><polyline points="676.09 45.2 676.09 91.11 917.01 91.11 917.01 45.2 676.09 45.2" style="fill:#fff;fill-rule:evenodd"/><polyline points="1 90.26 1 136.16 234.26 136.16 234.26 90.26 1 90.26" style="fill:#f2f2f2;fill-rule:evenodd"/><polyline points="233.41 90.26 233.41 136.16 400.26 136.16 400.26 90.26 233.41 90.26" style="fill:#fff;fill-rule:evenodd"/><polyline points="399.41 90.26 399.41 136.16 455.6 136.16 455.6 90.26 399.41 90.26" style="fill:#5e9fff;fill-rule:evenodd"/><polyline points="454.75 90.26 454.75 136.16 676.94 136.16 676.94 90.26 454.75 90.26" style="fill:#06f;fill-rule:evenodd"/><polyline points="676.09 90.26 676.09 136.16 732.27 136.16 732.27 90.26 676.09 90.26" style="fill:#0044ab;fill-rule:evenodd"/><polyline points="897.43 90.26 897.43 136.16 917.01 136.16 917.01 90.26 897.43 90.26" style="fill:#fff;fill-rule:evenodd"/><polyline points="1 135.31 1 181.21 234.26 181.21 234.26 135.31 1 135.31" style="fill:#f2f2f2;fill-rule:evenodd"/><polyline points="399.41 135.31 399.41 181.21 455.6 181.21 455.6 135.31 399.41 135.31" style="fill:#5e9fff;fill-rule:evenodd"/><polyline points="454.75 135.31 454.75 181.21 621.61 181.21 621.61 135.31 454.75 135.31" style="fill:#06f;fill-rule:evenodd"/><polyline points="620.75 135.31 620.75 181.21 676.94 181.21 676.94 135.31 620.75 135.31" style="fill:#0044ab;fill-rule:evenodd"/><polyline points="676.09 135.31 676.09 181.21 917.01 181.21 917.01 135.31 676.09 135.31" style="fill:#fff;fill-rule:evenodd"/><polyline points="1 180.36 1 226.26 234.26 226.26 234.26 180.36 1 180.36" style="fill:#f2f2f2;fill-rule:evenodd"/><polyline points="233.41 180.36 233.41 226.26 621.61 226.26 621.61 180.36 233.41 180.36" style="fill:#fff;fill-rule:evenodd"/><polyline points="620.75 180.36 620.75 226.26 676.94 226.26 676.94 180.36 620.75 180.36" style="fill:#5e9fff;fill-rule:evenodd"/><polyline points="676.09 180.36 676.09 226.26 842.95 226.26 842.95 180.36 676.09 180.36" style="fill:#06f;fill-rule:evenodd"/><polyline points="842.09 180.36 842.09 226.26 898.28 226.26 898.28 180.36 842.09 180.36" style="fill:#0044ab;fill-rule:evenodd"/><polyline points="897.43 180.36 897.43 226.26 917.01 226.26 917.01 180.36 897.43 180.36" style="fill:#fff;fill-rule:evenodd"/><polyline points="1 225.41 1 271.32 234.26 271.32 234.26 225.41 1 225.41" style="fill:#f2f2f2;fill-rule:evenodd"/><polyline points="399.41 225.41 399.41 271.32 455.6 271.32 455.6 225.41 399.41 225.41" style="fill:#5e9fff;fill-rule:evenodd"/><polyline points="454.75 225.41 454.75 271.32 732.27 271.32 732.27 225.41 454.75 225.41" style="fill:#06f;fill-rule:evenodd"/><polyline points="731.42 225.41 731.42 271.32 787.61 271.32 787.61 225.41 731.42 225.41" style="fill:#0044ab;fill-rule:evenodd"/><polyline points="786.76 225.41 786.76 271.32 917.01 271.32 917.01 225.41 786.76 225.41" style="fill:#fff;fill-rule:evenodd"/><polyline points="1 270.47 1 316.37 234.26 316.37 234.26 270.47 1 270.47" style="fill:#f2f2f2;fill-rule:evenodd"/><polyline points="233.41 270.47 233.41 316.37 289.59 316.37 289.59 270.47 233.41 270.47" style="fill:#fff;fill-rule:evenodd"/><polyline points="288.74 270.47 288.74 316.37 344.93 316.37 344.93 270.47 288.74 270.47" style="fill:#5e9fff;fill-rule:evenodd"/><polyline points="344.08 270.47 344.08 316.37 566.27 316.37 566.27 270.47 344.08 270.47" style="fill:#06f;fill-rule:evenodd"/><polyline points="565.42 270.47 565.42 316.37 621.61 316.37 621.61 270.47 565.42 270.47" style="fill:#0044ab;fill-rule:evenodd"/><polyline points="620.75 270.47 620.75 316.37 917.01 316.37 917.01 270.47 620.75 270.47" style="fill:#fff;fill-rule:evenodd"/><polyline points="1 315.52 1 365.67 917.01 365.67 917.01 315.52 1 315.52" style="fill:#fff;fill-rule:evenodd"/></g><g style="clip-path:url(#clip-path-2)"><text transform="translate(13.78 20.55)" style="font-size:11.050689697265625px;font-family:Arial-BoldMT, Arial;font-weight:700"><tspan style="letter-spacing:-0.02903115294410761em">A</tspan><tspan x="7.66" y="0" style="letter-spacing:0.0040590669769876905em">g</tspan><tspan x="14.45" y="0" style="letter-spacing:-0.003970826390531436em">r</tspan><tspan x="18.71" y="0" style="letter-spacing:0.0040590669769876905em">o</tspan><tspan x="25.51" y="0" style="letter-spacing:-0.025060326553576175em">-</tspan><tspan x="28.91" y="0" style="letter-spacing:-0.017030433186057046em">c</tspan><tspan x="34.87" y="0" style="letter-spacing:0.02903115294410761em">li</tspan><tspan x="41.65" y="0" style="letter-spacing:0.03291373874818279em">m</tspan><tspan x="51.84" y="0" style="letter-spacing:0.05903295233923402em">a</tspan><tspan x="58.64" y="0" style="letter-spacing:-0.025060326553576175em">t</tspan><tspan x="62.04" y="0" style="letter-spacing:0.028942912357651354em">i</tspan><tspan x="65.43" y="0" style="letter-spacing:-0.017030433186057046em">c</tspan><tspan x="71.39" y="0"> </tspan></text><text transform="translate(36.76 35)" style="font-size:11.050689697265625px;font-family:Arial-BoldMT, Arial;font-weight:700;letter-spacing:0.03803169276264554em">z<tspan x="5.95" y="0" style="letter-spacing:0.0040590669769876905em">on</tspan><tspan x="19.53" y="0" style="letter-spacing:-0.00008824058645625415em">e</tspan></text></g><g style="clip-path:url(#clip-path)"><text transform="translate(151.69 27.36)" style="font-size:11.050689697265625px;font-family:Arial-BoldMT, Arial;font-weight:700"><tspan style="letter-spacing:0.02497208596711992em">S</tspan><tspan x="7.65" y="0" style="letter-spacing:-0.02497208596711992em">t</tspan><tspan x="11.05" y="0" style="letter-spacing:0.05894471175277776em">a</tspan><tspan x="17.85" y="0" style="letter-spacing:-0.025060326553576175em">t</tspan><tspan x="21.25" y="0">e</tspan></text><text transform="translate(252.14 27.36)" style="font-size:11.050689697265625px;font-family:Arial-BoldMT, Arial;font-weight:700"><tspan style="letter-spacing:-0.017030433186057046em">J</tspan><tspan x="5.96" y="0" style="letter-spacing:0.0040590669769876905em">u</tspan><tspan x="12.75" y="0">n</tspan></text><text transform="translate(309.18 27.36)" style="font-size:11.050689697265625px;font-family:Arial-BoldMT, Arial;font-weight:700;letter-spacing:-0.017030433186057046em">J<tspan x="5.96" y="0" style="letter-spacing:0.0040590669769876905em">u</tspan><tspan x="12.75" y="0" style="letter-spacing:-0.00008824058645625415em">l</tspan></text><text transform="translate(361.96 27.36)" style="font-size:11.050689697265625px;font-family:Arial-BoldMT, Arial;font-weight:700;letter-spacing:-0.02903115294410761em">A<tspan x="7.66" y="0" style="letter-spacing:0.0040590669769876905em">u</tspan><tspan x="14.45" y="0" style="letter-spacing:0.00008824058645625415em">g</tspan></text><text transform="translate(417.29 27.36)" style="font-size:11.050689697265625px;font-family:Arial-BoldMT, Arial;font-weight:700;letter-spacing:0.02497208596711992em">S<tspan x="7.65" y="0" style="letter-spacing:0.05894471175277776em">e</tspan><tspan x="14.44" y="0" style="letter-spacing:0.00008824058645625415em">p</tspan></text><text transform="translate(474.33 27.36)" style="font-size:11.050689697265625px;font-family:Arial-BoldMT, Arial;font-weight:700"><tspan style="letter-spacing:-0.008029893367519126em">O</tspan><tspan x="8.51" y="0" style="letter-spacing:-0.017030433186057046em">c</tspan><tspan x="14.46" y="0">t</tspan></text><text transform="translate(527.96 27.36)" style="font-size:11.050689697265625px;font-family:Arial-BoldMT, Arial;font-weight:700"><tspan style="letter-spacing:-0.02903115294410761em">N</tspan><tspan x="7.66" y="0" style="letter-spacing:0.0040590669769876905em">o</tspan><tspan x="14.45" y="0">v</tspan></text><text transform="translate(583.3 27.36)" style="font-size:11.050689697265625px;font-family:Arial-BoldMT, Arial;font-weight:700;letter-spacing:-0.02903115294410761em">D<tspan x="7.66" y="0" style="letter-spacing:0.05903295233923402em">e</tspan><tspan x="14.46" y="0" style="letter-spacing:-0.00008824058645625415em">c</tspan></text></g><g style="clip-path:url(#clip-path-4)"><text transform="translate(638.64 27.36)" style="font-size:11.050689697265625px;font-family:Arial-BoldMT, Arial;font-weight:700;letter-spacing:-0.017030433186057046em">J<tspan x="5.96" y="0" style="letter-spacing:0.05894471175277776em">a</tspan><tspan x="12.76" y="0" style="letter-spacing:0.00008824058645625415em">n</tspan></text><text transform="translate(693.97 27.36)" style="font-size:11.050689697265625px;font-family:Arial-BoldMT, Arial;font-weight:700;letter-spacing:0.0040590669769876905em">F<tspan x="6.79" y="0" style="letter-spacing:0.05894471175277776em">e</tspan><tspan x="13.59" y="0" style="letter-spacing:0.00008824058645625415em">b</tspan></text><text transform="translate(749.31 27.36)" style="font-size:11.050689697265625px;font-family:Arial-BoldMT, Arial;font-weight:700"><tspan style="letter-spacing:0.01305960679552561em">M</tspan><tspan x="9.35" y="0" style="letter-spacing:0.05894471175277776em">a</tspan><tspan x="16.15" y="0">r</tspan></text><text transform="translate(805.49 27.36)" style="font-size:11.050689697265625px;font-family:Arial-BoldMT, Arial;font-weight:700"><tspan style="letter-spacing:-0.02903115294410761em">A</tspan><tspan x="7.66" y="0" style="letter-spacing:0.0040590669769876905em">p</tspan><tspan x="14.45" y="0">r</tspan></text><text transform="translate(859.13 27.36)" style="font-size:11.050689697265625px;font-family:Arial-BoldMT, Arial;font-weight:700;letter-spacing:0.01305960679552561em">M<tspan x="9.35" y="0" style="letter-spacing:0.05894471175277776em">a</tspan><tspan x="16.15" y="0" style="letter-spacing:-0.00008824058645625415em">y</tspan></text></g><g style="clip-path:url(#clip-path)"><text transform="translate(38.47 72.41)" style="font-size:11.050689697265625px;font-family:Arial-BoldMT, Arial;font-weight:700"><tspan style="letter-spacing:0.0040590669769876905em">T</tspan><tspan x="6.79" y="0" style="letter-spacing:-0.008029893367519126em">G</tspan><tspan x="15.3" y="0">P</tspan></text><text transform="translate(107.41 72.41)" style="font-size:11.050689697265625px;font-family:Arial-BoldMT, Arial;font-weight:700"><tspan style="letter-spacing:-0.02903115294410761em">R</tspan><tspan x="7.66" y="0" style="letter-spacing:-0.02497208596711992em">-</tspan><tspan x="11.06" y="0" style="letter-spacing:-0.017030433186057046em">3</tspan><tspan x="17.02" y="0" style="letter-spacing:0.028942912357651354em">, </tspan><tspan x="23.8" y="0" style="letter-spacing:-0.028942912357651354em">R</tspan><tspan x="31.46" y="0" style="letter-spacing:-0.025060326553576175em">-</tspan><tspan x="34.87" y="0">5</tspan></text><text transform="translate(470.93 72.41)" style="font-size:11.050689697265625px;fill:#fff;font-family:Arial-BoldMT, Arial;font-weight:700"><tspan style="letter-spacing:-0.02903115294410761em">R</tspan><tspan x="7.66" y="0" style="letter-spacing:0.05903295233923402em">a</tspan><tspan x="14.46" y="0" style="letter-spacing:0.003970826390531436em">b</tspan><tspan x="21.25" y="0">i</tspan></text><text transform="translate(37.61 117.46)" style="font-size:11.050689697265625px;font-family:Arial-BoldMT, Arial;font-weight:700;letter-spacing:-0.02903115294410761em">U<tspan x="7.66" y="0" style="letter-spacing:-0.007941652781062873em">G</tspan><tspan x="16.17" y="0" style="letter-spacing:-0.00008824058645625415em">P</tspan></text><text transform="translate(107.41 117.46)" style="font-size:11.050689697265625px;font-family:Arial-BoldMT, Arial;font-weight:700;letter-spacing:-0.02903115294410761em">R<tspan x="7.66" y="0" style="letter-spacing:-0.02497208596711992em">-</tspan><tspan x="11.06" y="0" style="letter-spacing:-0.017030433186057046em">9</tspan><tspan x="17.02" y="0" style="letter-spacing:0.028942912357651354em">, </tspan><tspan x="23.8" y="0" style="letter-spacing:-0.028942912357651354em">R</tspan><tspan x="31.46" y="0" style="letter-spacing:-0.025060326553576175em">-</tspan><tspan x="34.87" y="0" style="letter-spacing:-0.017030433186057046em">10</tspan><tspan x="46.78" y="0" style="letter-spacing:0.02903115294410761em">, </tspan><tspan x="53.56" y="0">R</tspan><tspan x="61.22" y="0" style="letter-spacing:-0.02497208596711992em">-</tspan><tspan x="64.63" y="0" style="letter-spacing:-0.017030433186057046em">1</tspan><tspan x="70.59" y="0" style="letter-spacing:-0.00008824058645625415em">7</tspan></text><text transform="translate(470.93 117.46)" style="font-size:11.050689697265625px;fill:#fff;font-family:Arial-BoldMT, Arial;font-weight:700"><tspan style="letter-spacing:-0.02903115294410761em">R</tspan><tspan x="7.66" y="0" style="letter-spacing:0.05903295233923402em">a</tspan><tspan x="14.46" y="0" style="letter-spacing:0.003970826390531436em">b</tspan><tspan x="21.25" y="0">i</tspan></text><text transform="translate(107.41 162.51)" style="font-size:11.050689697265625px;font-family:Arial-BoldMT, Arial;font-weight:700"><tspan style="letter-spacing:-0.02903115294410761em">R</tspan><tspan x="7.66" y="0" style="letter-spacing:-0.02497208596711992em">-</tspan><tspan x="11.06" y="0" style="letter-spacing:-0.017030433186057046em">2</tspan><tspan x="17.02" y="0">2</tspan></text><text transform="translate(470.93 162.51)" style="font-size:11.050689697265625px;fill:#fff;font-family:Arial-BoldMT, Arial;font-weight:700"><tspan style="letter-spacing:-0.02903115294410761em">R</tspan><tspan x="7.66" y="0" style="letter-spacing:0.05903295233923402em">a</tspan><tspan x="14.46" y="0" style="letter-spacing:0.003970826390531436em">b</tspan><tspan x="21.25" y="0">i</tspan></text><text transform="translate(37.61 207.56)" style="font-size:11.050689697265625px;font-family:Arial-BoldMT, Arial;font-weight:700"><tspan style="letter-spacing:-0.008029893367519126em">G</tspan><tspan x="8.51" y="0" style="letter-spacing:0.02497208596711992em">P</tspan><tspan x="16.15" y="0">H</tspan></text><text transform="translate(107.41 207.56)" style="font-size:11.050689697265625px;font-family:Arial-BoldMT, Arial;font-weight:700;letter-spacing:-0.02903115294410761em">R<tspan x="7.66" y="0" style="letter-spacing:-0.02497208596711992em">-</tspan><tspan x="11.06" y="0" style="letter-spacing:-0.017030433186057046em">2</tspan><tspan x="17.02" y="0" style="letter-spacing:0.028942912357651354em">, </tspan><tspan x="23.8" y="0" style="letter-spacing:-0.028942912357651354em">R</tspan><tspan x="31.46" y="0" style="letter-spacing:-0.025060326553576175em">-</tspan><tspan x="34.87" y="0" style="letter-spacing:-0.017030433186057046em">11</tspan><tspan x="46.78" y="0" style="letter-spacing:0.02903115294410761em">, </tspan><tspan x="53.56" y="0">R</tspan><tspan x="61.22" y="0" style="letter-spacing:-0.02497208596711992em">-</tspan><tspan x="64.63" y="0" style="letter-spacing:-0.017030433186057046em">1</tspan><tspan x="70.59" y="0" style="letter-spacing:-0.00008824058645625415em">3</tspan></text><text transform="translate(692.27 207.56)" style="font-size:11.050689697265625px;fill:#fff;font-family:Arial-BoldMT, Arial;font-weight:700"><tspan style="letter-spacing:-0.02903115294410761em">R</tspan><tspan x="7.66" y="0" style="letter-spacing:0.05903295233923402em">a</tspan><tspan x="14.46" y="0" style="letter-spacing:0.003970826390531436em">b</tspan><tspan x="21.25" y="0">i</tspan></text><text transform="translate(36.76 252.62)" style="font-size:11.050689697265625px;font-family:Arial-BoldMT, Arial;font-weight:700"><tspan style="letter-spacing:0.01305960679552561em">M</tspan><tspan x="9.35" y="0" style="letter-spacing:-0.008029893367519126em">G</tspan><tspan x="17.86" y="0">P</tspan></text><text transform="translate(107.41 252.62)" style="font-size:11.050689697265625px;font-family:Arial-BoldMT, Arial;font-weight:700"><tspan style="letter-spacing:-0.02903115294410761em">R</tspan><tspan x="7.66" y="0" style="letter-spacing:-0.02497208596711992em">-</tspan><tspan x="11.06" y="0" style="letter-spacing:-0.017030433186057046em">2</tspan><tspan x="17.02" y="0">6</tspan></text><text transform="translate(470.93 252.62)" style="font-size:11.050689697265625px;fill:#fff;font-family:Arial-BoldMT, Arial;font-weight:700"><tspan style="letter-spacing:-0.02903115294410761em">R</tspan><tspan x="7.66" y="0" style="letter-spacing:0.05903295233923402em">a</tspan><tspan x="14.46" y="0" style="letter-spacing:0.003970826390531436em">b</tspan><tspan x="21.25" y="0">i</tspan></text><text transform="translate(38.47 297.67)" style="font-size:11.050689697265625px;font-family:Arial-BoldMT, Arial;font-weight:700"><tspan style="letter-spacing:-0.02903115294410761em">C</tspan><tspan x="7.66" y="0" style="letter-spacing:0.025060326553576175em">P</tspan><tspan x="15.31" y="0">H</tspan></text><text transform="translate(107.41 297.67)" style="font-size:11.050689697265625px;font-family:Arial-BoldMT, Arial;font-weight:700"><tspan style="letter-spacing:-0.02903115294410761em">R</tspan><tspan x="7.66" y="0" style="letter-spacing:-0.02497208596711992em">-</tspan><tspan x="11.06" y="0" style="letter-spacing:-0.017030433186057046em">14</tspan><tspan x="22.98" y="0" style="letter-spacing:0.028942912357651354em">, </tspan><tspan x="29.76" y="0" style="letter-spacing:-0.028942912357651354em">R</tspan><tspan x="37.42" y="0" style="letter-spacing:-0.025060326553576175em">-</tspan><tspan x="40.82" y="0" style="letter-spacing:-0.017030433186057046em">1</tspan><tspan x="46.78" y="0">5</tspan></text><text transform="translate(360.26 297.67)" style="font-size:11.050689697265625px;fill:#fff;font-family:Arial-BoldMT, Arial;font-weight:700"><tspan style="letter-spacing:-0.02903115294410761em">R</tspan><tspan x="7.66" y="0" style="letter-spacing:0.05903295233923402em">a</tspan><tspan x="14.46" y="0" style="letter-spacing:0.003970826390531436em">b</tspan><tspan x="21.25" y="0">i</tspan></text></g><g style="clip-path:url(#clip-path-6)"><text transform="translate(3.56 335.92)" style="font-size:10.200639724731445px;font-family:Arial-BoldMT, Arial;font-weight:700;letter-spacing:-0.05506210931719603em">N<tspan x="6.81" y="0" style="letter-spacing:-0.02695749101987722em">o</tspan><tspan x="12.76" y="0" style="letter-spacing:-0.00009559393978679865em">t</tspan><tspan x="16.16" y="0" style="letter-spacing:0.027053084959664023em">e</tspan><tspan x="22.11" y="0" style="letter-spacing:-0.00009559393978679865em">:</tspan></text><text transform="translate(28.24 335.92)" style="font-size:10.200639724731445px;font-family:ArialMT, Arial"> </text><text transform="translate(30.8 335.92)" style="font-size:10.200639724731445px;font-family:Arial-BoldMT, Arial;font-weight:700;letter-spacing:-0.027053084959664023em">T<tspan x="5.96" y="0" style="letter-spacing:-0.11098456409247323em">G</tspan><tspan x="12.76" y="0" style="letter-spacing:0.00009559393978679865em">P</tspan></text><text transform="translate(50.37 335.92)" style="font-size:10.200639724731445px;font-family:ArialMT, Arial"><tspan xml:space="preserve" style="letter-spacing:-0.02695749101987722em"> T</tspan><tspan x="8.51" y="0">r</tspan><tspan x="11.91" y="0" style="letter-spacing:0.02695749101987722em">an</tspan><tspan x="23.81" y="0" style="letter-spacing:0.08297553973494123em">s</tspan><tspan x="29.75" y="0">-</tspan><tspan x="33.15" y="0" style="letter-spacing:-0.027053084959664023em">G</tspan><tspan x="40.81" y="0" style="letter-spacing:0.027053084959664023em">ange</tspan><tspan x="64.6" y="0" style="letter-spacing:-0.02695749101987722em">t</tspan><tspan x="67.16" y="0" style="letter-spacing:0.027053084959664023em">i</tspan><tspan x="69.71" y="0">c</tspan><tspan x="74.81" y="0" style="letter-spacing:-0.02695749101987722em"> </tspan><tspan x="77.36" y="0" style="letter-spacing:0.00009559393978679865em">P</tspan><tspan x="84.17" y="0" style="letter-spacing:0.02695749101987722em">lain</tspan><tspan x="101.15" y="0" style="letter-spacing:0.08307113367472803em">s</tspan><tspan x="107.1" y="0" style="letter-spacing:-0.02695749101987722em">,</tspan><tspan x="109.65" y="0"> </tspan></text><text transform="translate(162.76 335.92)" style="font-size:10.200639724731445px;font-family:Arial-BoldMT, Arial;font-weight:700"><tspan style="letter-spacing:-0.05506210931719603em">U</tspan><tspan x="6.81" y="0" style="letter-spacing:-0.11098456409247323em">G</tspan><tspan x="13.61" y="0">P</tspan></text><text transform="translate(183.18 335.92)" style="font-size:10.200639724731445px;font-family:ArialMT, Arial"><tspan style="letter-spacing:-0.02695749101987722em"> </tspan><tspan x="2.56" y="0" style="letter-spacing:0.02695749101987722em">Uppe</tspan><tspan x="28.05" y="0" style="letter-spacing:-0.00009559393978679865em">r</tspan><tspan x="31.44" y="0" xml:space="preserve" style="letter-spacing:-0.02695749101987722em"> G</tspan><tspan x="41.66" y="0" style="letter-spacing:0.02695749101987722em">ange</tspan><tspan x="65.45" y="0" style="letter-spacing:-0.02695749101987722em">t</tspan><tspan x="68.01" y="0" style="letter-spacing:0.02695749101987722em">i</tspan><tspan x="70.55" y="0" style="letter-spacing:0.00009559393978679865em">c</tspan><tspan x="75.66" y="0" style="letter-spacing:-0.02695749101987722em"> </tspan><tspan x="78.21" y="0">P</tspan><tspan x="85.02" y="0" style="letter-spacing:0.027053084959664023em">lain</tspan><tspan x="102" y="0" style="letter-spacing:0.08297553973494123em">s</tspan><tspan x="107.94" y="0" style="letter-spacing:-0.02695749101987722em">,</tspan><tspan x="110.5" y="0" style="letter-spacing:0.00009559393978679865em"> </tspan></text><text transform="translate(296.4 335.92)" style="font-size:10.200639724731445px;font-family:Arial-BoldMT, Arial;font-weight:700"><tspan style="letter-spacing:-0.11098456409247323em">G</tspan><tspan x="6.8" y="0">PH</tspan></text><text transform="translate(316.83 335.92)" style="font-size:10.200639724731445px;font-family:ArialMT, Arial"><tspan xml:space="preserve" style="letter-spacing:-0.02695749101987722em"> G</tspan><tspan x="10.22" y="0" style="letter-spacing:0.027053084959664023em">uja</tspan><tspan x="24.66" y="0">r</tspan><tspan x="28.05" y="0" style="letter-spacing:0.02695749101987722em">a</tspan><tspan x="34" y="0" style="letter-spacing:-0.02695749101987722em">t </tspan><tspan x="39.12" y="0" style="letter-spacing:0.00009559393978679865em">P</tspan><tspan x="45.92" y="0" style="letter-spacing:0.02695749101987722em">lain</tspan><tspan x="62.9" y="0" style="letter-spacing:0.08307113367472803em">s</tspan><tspan x="68.85" y="0" style="letter-spacing:-0.02695749101987722em"> </tspan><tspan x="71.41" y="0">&amp;</tspan><tspan x="78.21" y="0" style="letter-spacing:-0.02695749101987722em"> </tspan><tspan x="80.77" y="0" style="letter-spacing:0.02695749101987722em">Hill</tspan><tspan x="96.04" y="0" style="letter-spacing:0.08297553973494123em">s</tspan><tspan x="101.98" y="0" style="letter-spacing:-0.02695749101987722em">, </tspan><tspan x="107.1" y="0" style="letter-spacing:0.00009559393978679865em"> </tspan></text><text transform="translate(426.65 335.92)" style="font-size:10.200639724731445px;font-family:Arial-BoldMT, Arial;font-weight:700">M<tspan x="8.5" y="0" style="letter-spacing:-0.11098456409247323em">G</tspan><tspan x="15.3" y="0">P</tspan></text><text transform="translate(448.79 335.92)" style="font-size:10.200639724731445px;font-family:ArialMT, Arial"><tspan style="letter-spacing:-0.02695749101987722em"> </tspan><tspan x="2.56" y="0" style="letter-spacing:-0.08297553973494123em">M</tspan><tspan x="10.21" y="0" style="letter-spacing:0.02695749101987722em">iddle</tspan><tspan x="33.14" y="0" xml:space="preserve" style="letter-spacing:-0.02695749101987722em"> G</tspan><tspan x="43.36" y="0" style="letter-spacing:0.02695749101987722em">ange</tspan><tspan x="67.15" y="0" style="letter-spacing:-0.02695749101987722em">t</tspan><tspan x="69.71" y="0" style="letter-spacing:0.027053084959664023em">i</tspan><tspan x="72.25" y="0">c</tspan><tspan x="77.35" y="0" style="letter-spacing:-0.02695749101987722em"> </tspan><tspan x="79.91" y="0">P</tspan><tspan x="86.71" y="0" style="letter-spacing:0.027053084959664023em">lain</tspan><tspan x="103.69" y="0" style="letter-spacing:0.08307113367472803em">s</tspan><tspan x="109.64" y="0" style="letter-spacing:-0.02695749101987722em">,</tspan><tspan x="112.2" y="0"> </tspan></text><text transform="translate(563.72 335.92)" style="font-size:10.200639724731445px;font-family:Arial-BoldMT, Arial;font-weight:700;letter-spacing:-0.05506210931719603em">C<tspan x="6.81" y="0" style="letter-spacing:0.00009559393978679865em">PH</tspan></text><text transform="translate(584.15 335.92)" style="font-size:10.200639724731445px;font-family:ArialMT, Arial"><tspan style="letter-spacing:-0.02695749101987722em"> </tspan><tspan x="2.56" y="0" style="letter-spacing:0.02695749101987722em">Cen</tspan><tspan x="22.1" y="0" style="letter-spacing:-0.027053084959664023em">t</tspan><tspan x="24.66" y="0">r</tspan><tspan x="28.05" y="0" style="letter-spacing:0.02695749101987722em">al</tspan><tspan x="36.54" y="0" style="letter-spacing:-0.02695749101987722em"> </tspan><tspan x="39.1" y="0">P</tspan><tspan x="45.91" y="0" style="letter-spacing:0.027053084959664023em">la</tspan><tspan x="54.4" y="0" style="letter-spacing:-0.02695749101987722em">t</tspan><tspan x="56.95" y="0" style="letter-spacing:0.02695749101987722em">eau</tspan><tspan x="74.8" y="0" style="letter-spacing:-0.02695749101987722em"> </tspan><tspan x="77.36" y="0">&amp;</tspan><tspan x="84.16" y="0" style="letter-spacing:-0.02695749101987722em"> </tspan><tspan x="86.72" y="0" style="letter-spacing:0.02695749101987722em">Hill</tspan><tspan x="101.99" y="0">s</tspan></text></g><g style="clip-path:url(#clip-path-7)"><polyline points="1.85 1 1.85 1.85 898.28 1.85 898.28 1 1.85 1" style="fill:#bfbfbf;fill-rule:evenodd"/><polyline points="288.74 1.85 288.74 46.05 289.59 46.05 289.59 1.85 288.74 1.85" style="fill:#bfbfbf;fill-rule:evenodd"/><polyline points="344.08 1.85 344.08 46.05 344.93 46.05 344.93 1.85 344.08 1.85" style="fill:#bfbfbf;fill-rule:evenodd"/><polyline points="399.41 1.85 399.41 46.05 400.26 46.05 400.26 1.85 399.41 1.85" style="fill:#bfbfbf;fill-rule:evenodd"/><polyline points="454.75 1.85 454.75 46.05 455.6 46.05 455.6 1.85 454.75 1.85" style="fill:#bfbfbf;fill-rule:evenodd"/><polyline points="510.08 1.85 510.08 46.05 510.93 46.05 510.93 1.85 510.08 1.85" style="fill:#bfbfbf;fill-rule:evenodd"/><polyline points="565.42 1.85 565.42 46.05 566.27 46.05 566.27 1.85 565.42 1.85" style="fill:#bfbfbf;fill-rule:evenodd"/><polyline points="620.75 1.85 620.75 46.05 621.61 46.05 621.61 1.85 620.75 1.85" style="fill:#bfbfbf;fill-rule:evenodd"/><polyline points="676.09 1.85 676.09 46.05 676.94 46.05 676.94 1.85 676.09 1.85" style="fill:#bfbfbf;fill-rule:evenodd"/><polyline points="731.42 1.85 731.42 46.05 732.27 46.05 732.27 1.85 731.42 1.85" style="fill:#bfbfbf;fill-rule:evenodd"/><polyline points="786.76 1.85 786.76 46.05 787.61 46.05 787.61 1.85 786.76 1.85" style="fill:#bfbfbf;fill-rule:evenodd"/><polyline points="842.09 1.85 842.09 46.05 842.95 46.05 842.95 1.85 842.09 1.85" style="fill:#bfbfbf;fill-rule:evenodd"/><polyline points="1.85 45.2 1.85 46.05 898.28 46.05 898.28 45.2 1.85 45.2" style="fill:#bfbfbf;fill-rule:evenodd"/><polyline points="1.85 90.26 1.85 91.11 898.28 91.11 898.28 90.26 1.85 90.26" style="fill:#bfbfbf;fill-rule:evenodd"/><polyline points="98.05 135.31 98.05 136.16 898.28 136.16 898.28 135.31 98.05 135.31" style="fill:#bfbfbf;fill-rule:evenodd"/><polyline points="1.85 180.36 1.85 181.21 898.28 181.21 898.28 180.36 1.85 180.36" style="fill:#bfbfbf;fill-rule:evenodd"/><polyline points="1.85 225.41 1.85 226.26 898.28 226.26 898.28 225.41 1.85 225.41" style="fill:#bfbfbf;fill-rule:evenodd"/><polyline points="1.85 270.47 1.85 271.32 898.28 271.32 898.28 270.47 1.85 270.47" style="fill:#bfbfbf;fill-rule:evenodd"/><polyline points="1 1 1 316.37 1.85 316.37 1.85 1 1 1" style="fill:#bfbfbf;fill-rule:evenodd"/><polyline points="1.85 315.52 1.85 316.37 898.28 316.37 898.28 315.52 1.85 315.52" style="fill:#bfbfbf;fill-rule:evenodd"/><polyline points="897.43 1.85 897.43 316.37 898.28 316.37 898.28 1.85 897.43 1.85" style="fill:#bfbfbf;fill-rule:evenodd"/><polyline points="1 316.37 1 349.52 1.85 349.52 1.85 316.37 1 316.37" style="fill:#fff;fill-rule:evenodd"/><polyline points="97.2 1.85 97.2 316.37 98.05 316.37 98.05 1.85 97.2 1.85" style="fill:#bfbfbf;fill-rule:evenodd"/><polyline points="233.41 1.85 233.41 316.37 234.26 316.37 234.26 1.85 233.41 1.85" style="fill:#bfbfbf;fill-rule:evenodd"/><polyline points="1.85 348.67 1.85 349.52 898.28 349.52 898.28 348.67 1.85 348.67" style="fill:#fff;fill-rule:evenodd"/><polyline points="897.43 316.37 897.43 349.52 898.28 349.52 898.28 316.37 897.43 316.37" style="fill:#fff;fill-rule:evenodd"/><polyline points="898.28 180.36 898.28 181.21 899.13 181.21 899.13 180.36 898.28 180.36" style="fill:#fff;fill-rule:evenodd"/></g></svg>