<svg id="Layer_1" data-name="Layer 1" xmlns="http://www.w3.org/2000/svg" xmlns:xlink="http://www.w3.org/1999/xlink" viewBox="0 0 900 350"><defs><clipPath id="clip-path"><polygon points="1.78 340.65 897.91 340.65 897.91 2.17 1.78 2.17 1.78 340.65 1.78 340.65" style="fill:none;clip-rule:evenodd"/></clipPath><clipPath id="clip-path-2"><polygon points="64.13 301.85 883.79 301.85 883.79 19.37 64.13 19.37 64.13 301.85 64.13 301.85" style="fill:none;clip-rule:evenodd"/></clipPath><clipPath id="clip-path-6"><rect x="1.78" y="2.17" width="896.12" height="338.48" style="fill:none"/></clipPath><clipPath id="clip-path-30"><rect x="36.18" y="58.45" width="129.76" height="17.2" style="fill:none"/></clipPath><clipPath id="clip-path-31"><rect x="103.18" y="79.09" width="129.76" height="17.34" style="fill:none"/></clipPath><clipPath id="clip-path-32"><rect x="171.42" y="80.6" width="129.76" height="17.2" style="fill:none"/></clipPath><clipPath id="clip-path-33"><rect x="239.65" y="80.05" width="129.76" height="17.2" style="fill:none"/></clipPath><clipPath id="clip-path-34"><rect x="307.89" y="88.72" width="129.9" height="17.2" style="fill:none"/></clipPath><clipPath id="clip-path-35"><rect x="376.26" y="62.72" width="129.76" height="17.2" style="fill:none"/></clipPath><clipPath id="clip-path-36"><rect x="444.5" y="110.87" width="129.76" height="17.2" style="fill:none"/></clipPath><clipPath id="clip-path-37"><rect x="515.07" y="107.02" width="129.76" height="17.2" style="fill:none"/></clipPath><clipPath id="clip-path-38"><rect x="580.97" y="89.68" width="129.76" height="17.2" style="fill:none"/></clipPath><clipPath id="clip-path-39"><rect x="631.4" y="33.41" width="165.39" height="17.2" style="fill:none"/></clipPath><clipPath id="clip-path-40"><rect x="718.54" y="65.19" width="129.76" height="17.2" style="fill:none"/></clipPath><clipPath id="clip-path-41"><rect x="784.45" y="82.53" width="113.45" height="17.2" style="fill:none"/></clipPath></defs><title>yar</title><polygon points="1.78 2.17 898.04 2.17 898.04 340.65 1.78 340.65 1.78 2.17 1.78 2.17" style="fill:#eaeaea;fill-rule:evenodd"/><polygon points="64.13 19.51 883.11 19.51 883.11 301.17 64.13 301.17 64.13 19.51 64.13 19.51" style="fill:#fff;fill-rule:evenodd"/><path d="M64.13,301.17h819M64.13,234h819m-819-67h819m-819-67h819m-819-67.14h819" style="fill:none;stroke:#d9d9d9;stroke-linejoin:round;stroke-width:0.823845127388039px"/><g style="clip-path:url(#clip-path)"><path d="M64.13,19.51V301.17M132.36,19.51V301.17M200.6,19.51V301.17M268.84,19.51V301.17M337.08,19.51V301.17M405.31,19.51V301.17M473.55,19.51V301.17M541.79,19.51V301.17M610,19.51V301.17M678.26,19.51V301.17M746.5,19.51V301.17M814.87,19.51V301.17M883.11,19.51V301.17" style="fill:none;stroke:#d9d9d9;stroke-linejoin:round;stroke-width:0.823845127388039px"/></g><g style="clip-path:url(#clip-path-2)"><path d="M84.54,247.5H112v3.86H84.54V247.5Zm68.24,0h27.41v2.76H152.78V247.5Zm68.37,0h27.27v2.76H221.15V247.5Zm68.24,0h27.27v10.87H289.39V247.5Zm68.24,0H384.9v2.76H357.63V247.5Zm68.24,0h27.26v3.86H425.87V247.5Zm68.23,0h27.27v8.26H494.1V247.5Zm68.24,0h27.27v3.86H562.34V247.5Zm68.24,0h27.26v2.62H630.58V247.5Zm68.23,0h27.27v22.71H698.81V247.5Zm68.24,0h27.27v5.37H767.05V247.5Zm68.24,0h27.26v2.76H835.29V247.5Z" style="fill:#ff25f3"/></g><g style="clip-path:url(#clip-path-2)"><path d="M84.54,83.35H112V247.5H84.54V83.35Zm68.24,22.84h27.41V247.5H152.78V106.19Zm68.37.28h27.27v141H221.15v-141Zm68.24,2.2h27.27V247.5H289.39V108.67Zm68.24.69H384.9V247.5H357.63V109.36Zm68.24-26h27.26V247.5H425.87V83.35Zm68.23,54.49h27.27V247.5H494.1V137.84Zm68.24-4.4h27.27V247.5H562.34V133.44Zm68.24-20.09h27.26V247.5H630.58V113.35Zm68.23-43.48h27.27V247.5H698.81V69.87Zm68.24,20.91h27.27V247.5H767.05V90.78Zm68.24,17.34h27.26V247.5H835.29V108.12Z" style="fill:#5e9fff"/></g><g style="clip-path:url(#clip-path-2)"><path d="M84.54,79.5H112v3.85H84.54V79.5Zm68.24,23.94h27.41v2.75H152.78v-2.75Zm68.37.14h27.27v2.89H221.15v-2.89Zm68.24-5.78h27.27v10.87H289.39V97.8Zm68.24,8.81H384.9v2.75H357.63v-2.75ZM425.87,79.5h27.26v3.85H425.87V79.5Zm68.23,50.09h27.27v8.25H494.1v-8.25Zm68.24,0h27.27v3.85H562.34v-3.85Zm68.24-19h27.26v2.75H630.58V110.6Zm68.23-63.43h27.27v22.7H698.81V47.17Zm68.24,38.11h27.27v5.5H767.05v-5.5Zm68.24,20.09h27.26v2.75H835.29v-2.75Z" style="fill:#0044ab"/></g><g style="clip-path:url(#clip-path)"><line x1="64.13" y1="247.5" x2="883.11" y2="247.5" style="fill:none;stroke:#d9d9d9;stroke-linejoin:round;stroke-width:0.823845127388039px"/></g><g style="clip-path:url(#clip-path-6)"><text transform="translate(92.55 274.85)" style="font-size:9.218770027160645px;font-family:Arial-BoldMT, Arial;font-weight:700">-</text></g><g style="clip-path:url(#clip-path-6)"><text transform="translate(95.56 274.85)" style="font-size:9.218770027160645px;font-family:Arial-BoldMT, Arial;font-weight:700"><tspan style="letter-spacing:-0.0029784557634268357em">2</tspan><tspan x="5.1" y="0">%</tspan></text></g><g style="clip-path:url(#clip-path-6)"><text transform="translate(162.25 270.13)" style="font-size:9.218770027160645px;font-family:Arial-BoldMT, Arial;font-weight:700">-</text></g><g style="clip-path:url(#clip-path-6)"><text transform="translate(165.26 270.13)" style="font-size:9.218770027160645px;font-family:Arial-BoldMT, Arial;font-weight:700"><tspan style="letter-spacing:-0.0029784557634268357em">2</tspan><tspan x="5.1" y="0">%</tspan></text></g><g style="clip-path:url(#clip-path-6)"><text transform="translate(229.32 269.14)" style="font-size:9.218770027160645px;font-family:Arial-BoldMT, Arial;font-weight:700">-</text></g><g style="clip-path:url(#clip-path-6)"><text transform="translate(232.34 269.14)" style="font-size:9.218770027160645px;font-family:Arial-BoldMT, Arial;font-weight:700"><tspan style="letter-spacing:-0.0029784557634268357em">2</tspan><tspan x="5.1" y="0">%</tspan></text></g><g style="clip-path:url(#clip-path-6)"><text transform="translate(295.33 277.64)" style="font-size:9.218770027160645px;font-family:Arial-BoldMT, Arial;font-weight:700">-</text></g><g style="clip-path:url(#clip-path-6)"><text transform="translate(298.34 277.64)" style="font-size:9.218770027160645px;font-family:Arial-BoldMT, Arial;font-weight:700"><tspan style="letter-spacing:-0.0029784557634268357em">8</tspan><tspan x="5.1" y="0">%</tspan></text></g><g style="clip-path:url(#clip-path-6)"><text transform="translate(364.64 269.14)" style="font-size:9.218770027160645px;font-family:Arial-BoldMT, Arial;font-weight:700">-</text></g><g style="clip-path:url(#clip-path-6)"><text transform="translate(367.66 269.14)" style="font-size:9.218770027160645px;font-family:Arial-BoldMT, Arial;font-weight:700"><tspan style="letter-spacing:-0.0029784557634268357em">2</tspan><tspan x="5.1" y="0">%</tspan></text></g><g style="clip-path:url(#clip-path-6)"><text transform="translate(432.88 274.48)" style="font-size:9.218770027160645px;font-family:Arial-BoldMT, Arial;font-weight:700">-</text></g><g style="clip-path:url(#clip-path-6)"><text transform="translate(435.9 274.48)" style="font-size:9.218770027160645px;font-family:Arial-BoldMT, Arial;font-weight:700"><tspan style="letter-spacing:-0.0029784557634268357em">2</tspan><tspan x="5.1" y="0">%</tspan></text></g><g style="clip-path:url(#clip-path-6)"><text transform="translate(501.13 270.13)" style="font-size:9.218770027160645px;font-family:Arial-BoldMT, Arial;font-weight:700">-</text></g><g style="clip-path:url(#clip-path-6)"><text transform="translate(504.14 270.13)" style="font-size:9.218770027160645px;font-family:Arial-BoldMT, Arial;font-weight:700"><tspan style="letter-spacing:-0.0029784557634268357em">8</tspan><tspan x="5.1" y="0">%</tspan></text></g><g style="clip-path:url(#clip-path-6)"><text transform="translate(569.37 268.16)" style="font-size:9.218770027160645px;font-family:Arial-BoldMT, Arial;font-weight:700">-</text></g><g style="clip-path:url(#clip-path-6)"><text transform="translate(572.38 268.16)" style="font-size:9.218770027160645px;font-family:Arial-BoldMT, Arial;font-weight:700"><tspan style="letter-spacing:-0.0029784557634268357em">3</tspan><tspan x="5.1" y="0">%</tspan></text></g><g style="clip-path:url(#clip-path-6)"><text transform="translate(638.78 270.13)" style="font-size:9.218770027160645px;font-family:Arial-BoldMT, Arial;font-weight:700">-</text></g><g style="clip-path:url(#clip-path-6)"><text transform="translate(641.8 270.13)" style="font-size:9.218770027160645px;font-family:Arial-BoldMT, Arial;font-weight:700"><tspan style="letter-spacing:-0.0029784557634268357em">2</tspan><tspan x="5.1" y="0">%</tspan></text></g><g style="clip-path:url(#clip-path-6)"><text transform="translate(705.87 280.44)" style="font-size:9.218770027160645px;font-family:Arial-BoldMT, Arial;font-weight:700">-</text></g><g style="clip-path:url(#clip-path-6)"><text transform="translate(708.88 280.44)" style="font-size:9.218770027160645px;font-family:Arial-BoldMT, Arial;font-weight:700"><tspan style="letter-spacing:-0.0029784557634268357em">13</tspan><tspan x="10.2" y="0">%</tspan></text></g><g style="clip-path:url(#clip-path-6)"><text transform="translate(775.27 269.14)" style="font-size:9.218770027160645px;font-family:Arial-BoldMT, Arial;font-weight:700">-</text></g><g style="clip-path:url(#clip-path-6)"><text transform="translate(778.28 269.14)" style="font-size:9.218770027160645px;font-family:Arial-BoldMT, Arial;font-weight:700"><tspan style="letter-spacing:-0.0029784557634268357em">3</tspan><tspan x="5.1" y="0">%</tspan></text></g><g style="clip-path:url(#clip-path-6)"><text transform="translate(843.51 272.1)" style="font-size:9.218770027160645px;font-family:Arial-BoldMT, Arial;font-weight:700">-</text></g><g style="clip-path:url(#clip-path-6)"><text transform="translate(846.53 272.1)" style="font-size:9.218770027160645px;font-family:Arial-BoldMT, Arial;font-weight:700"><tspan style="letter-spacing:-0.0029784557634268357em">2</tspan><tspan x="5.1" y="0">%</tspan></text></g><g style="clip-path:url(#clip-path-30)"><text transform="translate(91.77 70.4)" style="font-size:9.218770027160645px;font-family:Arial-BoldMT, Arial;font-weight:700;letter-spacing:-0.000957360781101483em">+<tspan x="5.37" y="0" style="letter-spacing:-0.0029784557634268357em">2</tspan><tspan x="10.47" y="0" style="letter-spacing:-0.000106373420122387em">%</tspan></text></g><g style="clip-path:url(#clip-path-31)"><text transform="translate(158.85 91.17)" style="font-size:9.218770027160645px;font-family:Arial-BoldMT, Arial;font-weight:700;letter-spacing:-0.000957360781101483em">+<tspan x="5.37" y="0" style="letter-spacing:-0.0029784557634268357em">2</tspan><tspan x="10.47" y="0" style="letter-spacing:-0.000106373420122387em">%</tspan></text></g><g style="clip-path:url(#clip-path-32)"><text transform="translate(227.09 92.59)" style="font-size:9.218770027160645px;font-family:Arial-BoldMT, Arial;font-weight:700;letter-spacing:-0.000957360781101483em">+<tspan x="5.37" y="0" style="letter-spacing:-0.0029784557634268357em">2</tspan><tspan x="10.47" y="0" style="letter-spacing:-0.000106373420122387em">%</tspan></text></g><g style="clip-path:url(#clip-path-33)"><text transform="translate(295.33 92.11)" style="font-size:9.218770027160645px;font-family:Arial-BoldMT, Arial;font-weight:700;letter-spacing:-0.000957360781101483em">+<tspan x="5.37" y="0" style="letter-spacing:-0.0029784557634268357em">8</tspan><tspan x="10.47" y="0" style="letter-spacing:-0.000106373420122387em">%</tspan></text></g><g style="clip-path:url(#clip-path-34)"><text transform="translate(363.58 100.72)" style="font-size:9.218770027160645px;font-family:Arial-BoldMT, Arial;font-weight:700;letter-spacing:-0.000957360781101483em">+<tspan x="5.37" y="0" style="letter-spacing:-0.0029784557634268357em">2</tspan><tspan x="10.47" y="0" style="letter-spacing:-0.000106373420122387em">%</tspan></text></g><g style="clip-path:url(#clip-path-35)"><text transform="translate(431.82 74.67)" style="font-size:9.218770027160645px;font-family:Arial-BoldMT, Arial;font-weight:700;letter-spacing:-0.000957360781101483em">+<tspan x="5.37" y="0" style="letter-spacing:-0.0029784557634268357em">2</tspan><tspan x="10.47" y="0" style="letter-spacing:-0.000106373420122387em">%</tspan></text></g><g style="clip-path:url(#clip-path-36)"><text transform="translate(500.06 122.89)" style="font-size:9.218770027160645px;font-family:Arial-BoldMT, Arial;font-weight:700;letter-spacing:-0.000957360781101483em">+<tspan x="5.37" y="0" style="letter-spacing:-0.0029784557634268357em">8</tspan><tspan x="10.47" y="0" style="letter-spacing:-0.000106373420122387em">%</tspan></text></g><g style="clip-path:url(#clip-path-37)"><text transform="translate(570.65 119.07)" style="font-size:9.218770027160645px;font-family:Arial-BoldMT, Arial;font-weight:700;letter-spacing:-0.000957360781101483em">+<tspan x="5.37" y="0" style="letter-spacing:-0.0029784557634268357em">3</tspan><tspan x="10.47" y="0" style="letter-spacing:-0.000106373420122387em">%</tspan></text></g><g style="clip-path:url(#clip-path-38)"><text transform="translate(636.55 101.74)" style="font-size:9.218770027160645px;font-family:Arial-BoldMT, Arial;font-weight:700;letter-spacing:-0.000957360781101483em">+<tspan x="5.37" y="0" style="letter-spacing:-0.0029784557634268357em">2</tspan><tspan x="10.47" y="0" style="letter-spacing:-0.000106373420122387em">%</tspan></text></g><g style="clip-path:url(#clip-path-39)"><text transform="translate(702.23 45.38)" style="font-size:9.218770027160645px;font-family:Arial-BoldMT, Arial;font-weight:700"><tspan style="letter-spacing:-0.000957360781101483em">+</tspan><tspan x="5.37" y="0" style="letter-spacing:-0.0029784557634268357em">13</tspan><tspan x="15.57" y="0">%</tspan></text></g><g style="clip-path:url(#clip-path-40)"><text transform="translate(774.21 77.2)" style="font-size:9.218770027160645px;font-family:Arial-BoldMT, Arial;font-weight:700;letter-spacing:-0.000957360781101483em">+<tspan x="5.37" y="0" style="letter-spacing:-0.0029784557634268357em">3</tspan><tspan x="10.47" y="0" style="letter-spacing:-0.000106373420122387em">%</tspan></text></g><g style="clip-path:url(#clip-path-41)"><text transform="translate(840.11 94.53)" style="font-size:9.218770027160645px;font-family:Arial-BoldMT, Arial;font-weight:700;letter-spacing:-0.000957360781101483em">+<tspan x="5.37" y="0" style="letter-spacing:-0.0029784557634268357em">2</tspan><tspan x="10.47" y="0" style="letter-spacing:-0.000106373420122387em">%</tspan></text></g><g style="clip-path:url(#clip-path-6)"><text transform="translate(31.87 304.38)" style="font-size:10.319519996643066px;font-family:Arial-BoldMT, Arial;font-weight:700">-<tspan x="3.44" y="0" style="letter-spacing:0.0029458342074364548em">4</tspan><tspan x="9.21" y="0" style="letter-spacing:0.001995565108263405em">.</tspan><tspan x="12.09" y="0" style="letter-spacing:-0.009027556442143975em">0</tspan><tspan x="17.74" y="0">0</tspan></text></g><g style="clip-path:url(#clip-path-6)"><text transform="translate(35.29 237.34)" style="font-size:10.319519996643066px;font-family:Arial-BoldMT, Arial;font-weight:700;letter-spacing:0.0029458342074364548em">1<tspan x="5.77" y="0" style="letter-spacing:0.001995565108263405em">.</tspan><tspan x="8.66" y="0" style="letter-spacing:-0.009027556442143975em">0</tspan><tspan x="14.3" y="0" style="letter-spacing:-0.000095026909917305em">0</tspan></text></g><g style="clip-path:url(#clip-path-6)"><text transform="translate(35.29 170.28)" style="font-size:10.319519996643066px;font-family:Arial-BoldMT, Arial;font-weight:700;letter-spacing:0.0029458342074364548em">6<tspan x="5.77" y="0" style="letter-spacing:0.001995565108263405em">.</tspan><tspan x="8.66" y="0" style="letter-spacing:-0.009027556442143975em">0</tspan><tspan x="14.3" y="0" style="letter-spacing:-0.000095026909917305em">0</tspan></text></g><g style="clip-path:url(#clip-path-6)"><text transform="translate(29.58 103.23)" style="font-size:10.319519996643066px;font-family:Arial-BoldMT, Arial;font-weight:700;letter-spacing:0.0029458342074364548em">1<tspan x="5.77" y="0" style="letter-spacing:-0.009027556442143975em">1</tspan><tspan x="11.42" y="0" style="letter-spacing:0.001995565108263405em">.</tspan><tspan x="14.3" y="0">0</tspan><tspan x="20.07" y="0" style="letter-spacing:-0.000095026909917305em">0</tspan></text></g><g style="clip-path:url(#clip-path-6)"><text transform="translate(29.58 36.17)" style="font-size:10.319519996643066px;font-family:Arial-BoldMT, Arial;font-weight:700;letter-spacing:0.0029458342074364548em">1<tspan x="5.77" y="0" style="letter-spacing:-0.009027556442143975em">6</tspan><tspan x="11.42" y="0" style="letter-spacing:0.001995565108263405em">.</tspan><tspan x="14.3" y="0">0</tspan><tspan x="20.07" y="0" style="letter-spacing:-0.000095026909917305em">0</tspan></text></g><g style="clip-path:url(#clip-path-6)"><text transform="translate(89.97 316.67)" style="font-size:10.319519996643066px;font-family:Arial-BoldMT, Arial;font-weight:700"><tspan style="letter-spacing:-0.001995565108263405em">R</tspan><tspan x="7.43" y="0">-2</tspan></text></g><g style="clip-path:url(#clip-path-6)"><text transform="translate(158.21 316.67)" style="font-size:10.319519996643066px;font-family:Arial-BoldMT, Arial;font-weight:700"><tspan style="letter-spacing:-0.001995565108263405em">R</tspan><tspan x="7.43" y="0">-3</tspan></text></g><g style="clip-path:url(#clip-path-6)"><text transform="translate(226.46 316.67)" style="font-size:10.319519996643066px;font-family:Arial-BoldMT, Arial;font-weight:700"><tspan style="letter-spacing:-0.001995565108263405em">R</tspan><tspan x="7.43" y="0">-5</tspan></text></g><g style="clip-path:url(#clip-path-6)"><text transform="translate(294.7 316.67)" style="font-size:10.319519996643066px;font-family:Arial-BoldMT, Arial;font-weight:700"><tspan style="letter-spacing:-0.001995565108263405em">R</tspan><tspan x="7.43" y="0">-9</tspan></text></g><g style="clip-path:url(#clip-path-6)"><text transform="translate(360.09 316.67)" style="font-size:10.319519996643066px;font-family:Arial-BoldMT, Arial;font-weight:700"><tspan style="letter-spacing:-0.001995565108263405em">R</tspan><tspan x="7.43" y="0">-</tspan><tspan x="10.87" y="0" style="letter-spacing:0.0029458342074364548em">1</tspan><tspan x="16.64" y="0">0</tspan></text></g><g style="clip-path:url(#clip-path-6)"><text transform="translate(428.33 316.67)" style="font-size:10.319519996643066px;font-family:Arial-BoldMT, Arial;font-weight:700"><tspan style="letter-spacing:-0.001995565108263405em">R</tspan><tspan x="7.43" y="0">-</tspan><tspan x="10.87" y="0" style="letter-spacing:0.0029458342074364548em">1</tspan><tspan x="16.64" y="0">1</tspan></text></g><g style="clip-path:url(#clip-path-6)"><text transform="translate(496.58 316.67)" style="font-size:10.319519996643066px;font-family:Arial-BoldMT, Arial;font-weight:700"><tspan style="letter-spacing:-0.001995565108263405em">R</tspan><tspan x="7.43" y="0">-</tspan><tspan x="10.87" y="0" style="letter-spacing:0.0029458342074364548em">1</tspan><tspan x="16.64" y="0">3</tspan></text></g><g style="clip-path:url(#clip-path-6)"><text transform="translate(564.82 316.67)" style="font-size:10.319519996643066px;font-family:Arial-BoldMT, Arial;font-weight:700"><tspan style="letter-spacing:-0.001995565108263405em">R</tspan><tspan x="7.43" y="0">-</tspan><tspan x="10.87" y="0" style="letter-spacing:0.0029458342074364548em">1</tspan><tspan x="16.64" y="0">4</tspan></text></g><g style="clip-path:url(#clip-path-6)"><text transform="translate(633.06 316.67)" style="font-size:10.319519996643066px;font-family:Arial-BoldMT, Arial;font-weight:700"><tspan style="letter-spacing:-0.001995565108263405em">R</tspan><tspan x="7.43" y="0">-</tspan><tspan x="10.87" y="0" style="letter-spacing:0.0029458342074364548em">1</tspan><tspan x="16.64" y="0">5</tspan></text></g><g style="clip-path:url(#clip-path-6)"><text transform="translate(701.31 316.67)" style="font-size:10.319519996643066px;font-family:Arial-BoldMT, Arial;font-weight:700"><tspan style="letter-spacing:-0.001995565108263405em">R</tspan><tspan x="7.43" y="0">-</tspan><tspan x="10.87" y="0" style="letter-spacing:0.0029458342074364548em">1</tspan><tspan x="16.64" y="0">7</tspan></text></g><g style="clip-path:url(#clip-path-6)"><text transform="translate(769.55 316.67)" style="font-size:10.319519996643066px;font-family:Arial-BoldMT, Arial;font-weight:700"><tspan style="letter-spacing:-0.001995565108263405em">R</tspan><tspan x="7.43" y="0">-</tspan><tspan x="10.87" y="0" style="letter-spacing:0.0029458342074364548em">2</tspan><tspan x="16.64" y="0">2</tspan></text></g><g style="clip-path:url(#clip-path-6)"><text transform="translate(837.79 316.67)" style="font-size:10.319519996643066px;font-family:Arial-BoldMT, Arial;font-weight:700"><tspan style="letter-spacing:-0.001995565108263405em">R</tspan><tspan x="7.43" y="0">-</tspan><tspan x="10.87" y="0" style="letter-spacing:0.0029458342074364548em">2</tspan><tspan x="16.64" y="0">6</tspan></text></g><g style="clip-path:url(#clip-path-6)"><text transform="translate(18.7 215.86) rotate(-90)" style="font-size:11.372830390930176px;font-family:Arial-BoldMT, Arial;font-weight:700"><tspan style="letter-spacing:0.005045175472502182em">Q</tspan><tspan x="8.9" y="0" style="letter-spacing:0.002992900704026717em">u</tspan><tspan x="15.88" y="0" style="letter-spacing:-0.0010261373842377318em">a</tspan><tspan x="22.2" y="0" style="letter-spacing:0.0030784121527131954em">n</tspan><tspan x="29.18" y="0" style="letter-spacing:0.0040190380882644495em">t</tspan><tspan x="33.01" y="0">i</tspan><tspan x="36.17" y="0" style="letter-spacing:0.0040190380882644495em">t</tspan><tspan x="40" y="0" style="letter-spacing:-0.012997740200344601em">y</tspan><tspan x="46.18" y="0" style="letter-spacing:0.010945465431869136em"> </tspan><tspan x="49.47" y="0" style="letter-spacing:0.00008551144868647762em">&amp; </tspan><tspan x="60.84" y="0" style="letter-spacing:0.007011938792291166em">Y</tspan><tspan x="68.5" y="0" style="letter-spacing:-0.0010261373842377318em">a</tspan><tspan x="74.82" y="0">R</tspan><tspan x="83.03" y="0" style="letter-spacing:0.011030976880555616em"> </tspan><tspan x="86.32" y="0" style="letter-spacing:0.0040190380882644495em">(</tspan><tspan x="90.15" y="0" style="letter-spacing:0.022061953761111232em">M</tspan><tspan x="99.87" y="0" style="letter-spacing:0.014964503520133586em">T</tspan><tspan x="106.99" y="0" style="letter-spacing:0.00008551144868647762em">)</tspan></text></g><g style="clip-path:url(#clip-path-6)"><text transform="translate(426.8 332.84)" style="font-size:11.420269966125488px;font-family:Arial-BoldMT, Arial;font-weight:700">R<tspan x="8.25" y="0" style="letter-spacing:-0.0010304121706609956em">e</tspan><tspan x="14.59" y="0" style="letter-spacing:0.0030053688310945708em">g</tspan><tspan x="21.6" y="0">i</tspan><tspan x="24.77" y="0" style="letter-spacing:0.002919501150206154em">on</tspan><tspan x="38.79" y="0">s</tspan></text></g><polygon points="1.78 2.17 898.04 2.17 898.04 340.65 1.78 340.65 1.78 2.17 1.78 2.17" style="fill:none;stroke:#d9d9d9;stroke-linejoin:round;stroke-width:0.823845195589425px"/></svg>