<svg id="Layer_1" data-name="Layer 1" xmlns="http://www.w3.org/2000/svg" xmlns:xlink="http://www.w3.org/1999/xlink" viewBox="0 0 900 350"><defs><clipPath id="clip-path"><polygon points="2.35 349.13 899.05 349.13 899.05 1.65 2.35 1.65 2.35 349.13 2.35 349.13" style="fill:none;clip-rule:evenodd"/></clipPath><clipPath id="clip-path-2"><polygon points="87.48 297.62 844.3 297.62 844.3 19.1 87.48 19.1 87.48 297.62 87.48 297.62" style="fill:none;clip-rule:evenodd"/></clipPath><clipPath id="clip-path-13"><rect x="2.35" y="1.65" width="896.71" height="347.48" style="fill:none"/></clipPath></defs><title>ground-truth-risk-report</title><polygon points="2.35 1.65 899.22 1.65 899.22 349.13 2.35 349.13 2.35 1.65 2.35 1.65" style="fill:#eaeaea;fill-rule:evenodd"/><polygon points="87.65 19.27 843.33 19.27 843.33 296.62 87.65 296.62 87.65 19.27 87.65 19.27" style="fill:#fff;fill-rule:evenodd"/><path d="M87.65,235H843.33M87.65,173.31H843.33M87.65,111.66H843.33M87.65,50H843.33" style="fill:none;stroke:#d9d9d9;stroke-linejoin:round;stroke-width:0.985900534801995px"/><g style="clip-path:url(#clip-path)"><path d="M87.65,19.27V296.62M339.49,19.27V296.62M591.32,19.27V296.62m252-277.35V296.62" style="fill:none;stroke:#d9d9d9;stroke-linejoin:round;stroke-width:0.985900534801995px"/></g><g style="clip-path:url(#clip-path-2)"><polygon points="165.15 130.11 261.99 130.11 261.99 296.62 165.15 296.62 165.15 130.11 165.15 130.11" style="fill:#5e9fff;fill-rule:evenodd"/><polygon points="165.15 130.11 261.99 130.11 261.99 296.62 165.15 296.62 165.15 130.11 165.15 130.11" style="fill:none;stroke:#7f7f7f;stroke-linejoin:round;stroke-width:0.985900534801995px"/><polygon points="416.99 127.12 513.82 127.12 513.82 296.62 416.99 296.62 416.99 127.12 416.99 127.12" style="fill:#5e9fff;fill-rule:evenodd"/><polygon points="416.99 127.12 513.82 127.12 513.82 296.62 416.99 296.62 416.99 127.12 416.99 127.12" style="fill:none;stroke:#7f7f7f;stroke-linejoin:round;stroke-width:0.985900534801995px"/><polygon points="668.83 127.12 765.82 127.12 765.82 296.62 668.83 296.62 668.83 127.12 668.83 127.12" style="fill:#5e9fff;fill-rule:evenodd"/><polygon points="668.83 127.12 765.82 127.12 765.82 296.62 668.83 296.62 668.83 127.12 668.83 127.12" style="fill:none;stroke:#7f7f7f;stroke-linejoin:round;stroke-width:0.985900534801995px"/></g><g style="clip-path:url(#clip-path)"><line x1="87.65" y1="296.62" x2="843.33" y2="296.62" style="fill:none;stroke:#d9d9d9;stroke-linejoin:round;stroke-width:0.985900534801995px"/></g><g style="clip-path:url(#clip-path)"><path d="M87.65,296.62v3.82m251.84-3.82v3.82m251.83-3.82v3.82m252-3.82v3.82" style="fill:none;stroke:#d9d9d9;stroke-linejoin:round;stroke-width:0.985900534801995px"/></g><g style="clip-path:url(#clip-path-2)"><polyline points="213.57 67.63 465.4 67.63 717.41 67.63" style="fill:none;stroke:#3d699c;stroke-linecap:round;stroke-linejoin:round;stroke-width:1.64340671500571px;stroke-dasharray:5.056635856628418,5.056635856628418"/></g><g style="clip-path:url(#clip-path)"><path d="M217,67.63a3.42,3.42,0,1,1-3.42-3.49A3.46,3.46,0,0,1,217,67.63Z" style="fill:#2935e8"/><path d="M217,67.63a3.42,3.42,0,1,1-3.42-3.49A3.46,3.46,0,0,1,217,67.63Z" style="fill:none;stroke:#2935e8;stroke-linejoin:round;stroke-width:0.985900616419014px"/><path d="M468.86,67.63a3.41,3.41,0,1,1-3.41-3.49,3.45,3.45,0,0,1,3.41,3.49Z" style="fill:#2935e8"/><path d="M468.86,67.63a3.41,3.41,0,1,1-3.41-3.49,3.45,3.45,0,0,1,3.41,3.49Z" style="fill:none;stroke:#2935e8;stroke-linejoin:round;stroke-width:0.985900616419014px"/><path d="M720.86,67.63a3.41,3.41,0,1,1-3.41-3.49,3.45,3.45,0,0,1,3.41,3.49Z" style="fill:#2935e8"/><path d="M720.86,67.63a3.41,3.41,0,1,1-3.41-3.49,3.45,3.45,0,0,1,3.41,3.49Z" style="fill:none;stroke:#2935e8;stroke-linejoin:round;stroke-width:0.985900616419014px"/></g><g style="clip-path:url(#clip-path-2)"><polyline points="213.57 125.79 465.4 125.79 717.41 125.79" style="fill:none;stroke:#ff25f3;stroke-linecap:round;stroke-linejoin:round;stroke-width:1.64340671500571px;stroke-dasharray:5.056635856628418,5.056635856628418"/></g><g style="clip-path:url(#clip-path)"><path d="M217,125.79a3.42,3.42,0,1,1-3.42-3.49,3.45,3.45,0,0,1,3.42,3.49Z" style="fill:#ff25f3"/><path d="M217,125.79a3.42,3.42,0,1,1-3.42-3.49,3.45,3.45,0,0,1,3.42,3.49Z" style="fill:none;stroke:#ffd3fd;stroke-linejoin:round;stroke-width:0.985900616419014px"/><path d="M468.86,125.79a3.41,3.41,0,1,1-3.41-3.49,3.44,3.44,0,0,1,3.41,3.49Z" style="fill:#ff25f3"/><path d="M468.86,125.79a3.41,3.41,0,1,1-3.41-3.49,3.44,3.44,0,0,1,3.41,3.49Z" style="fill:none;stroke:#ffd3fd;stroke-linejoin:round;stroke-width:0.985900616419014px"/><path d="M720.86,125.79a3.41,3.41,0,1,1-3.41-3.49,3.44,3.44,0,0,1,3.41,3.49Z" style="fill:#ff25f3"/><path d="M720.86,125.79a3.41,3.41,0,1,1-3.41-3.49,3.44,3.44,0,0,1,3.41,3.49Z" style="fill:none;stroke:#ffd3fd;stroke-linejoin:round;stroke-width:0.985900616419014px"/></g><g style="clip-path:url(#clip-path-2)"><polyline points="213.57 87.07 465.4 87.07 717.41 87.07" style="fill:none;stroke:#7f7f7f;stroke-linecap:round;stroke-linejoin:round;stroke-width:1.64316753079765px"/></g><g style="clip-path:url(#clip-path)"><path d="M217,87.07a3.42,3.42,0,1,1-3.42-3.49A3.45,3.45,0,0,1,217,87.07Z" style="fill:#7f7f7f"/><path d="M217,87.07a3.42,3.42,0,1,1-3.42-3.49A3.45,3.45,0,0,1,217,87.07Z" style="fill:none;stroke:#7f7f7f;stroke-linejoin:round;stroke-width:0.985900616419014px"/><path d="M468.86,87.07a3.41,3.41,0,1,1-3.41-3.49,3.44,3.44,0,0,1,3.41,3.49Z" style="fill:#7f7f7f"/><path d="M468.86,87.07a3.41,3.41,0,1,1-3.41-3.49,3.44,3.44,0,0,1,3.41,3.49Z" style="fill:none;stroke:#7f7f7f;stroke-linejoin:round;stroke-width:0.985900616419014px"/><path d="M720.86,87.07a3.41,3.41,0,1,1-3.41-3.49,3.44,3.44,0,0,1,3.41,3.49Z" style="fill:#7f7f7f"/><path d="M720.86,87.07a3.41,3.41,0,1,1-3.41-3.49,3.44,3.44,0,0,1,3.41,3.49Z" style="fill:none;stroke:#7f7f7f;stroke-linejoin:round;stroke-width:0.985900616419014px"/></g><g style="clip-path:url(#clip-path-2)"><polyline points="213.57 167.16 465.4 167.16 717.41 167.16" style="fill:none;stroke:#00c1a3;stroke-linecap:round;stroke-linejoin:round;stroke-width:1.64316753079765px"/></g><g style="clip-path:url(#clip-path)"><path d="M217,167.17a3.42,3.42,0,1,1-3.42-3.49,3.46,3.46,0,0,1,3.42,3.49Z" style="fill:#00c1a3"/><path d="M217,167.17a3.42,3.42,0,1,1-3.42-3.49,3.46,3.46,0,0,1,3.42,3.49Z" style="fill:none;stroke:#c0fff5;stroke-linejoin:round;stroke-width:0.985900616419014px"/><path d="M468.86,167.17a3.41,3.41,0,1,1-3.41-3.49,3.45,3.45,0,0,1,3.41,3.49Z" style="fill:#00c1a3"/><path d="M468.86,167.17a3.41,3.41,0,1,1-3.41-3.49,3.45,3.45,0,0,1,3.41,3.49Z" style="fill:none;stroke:#c0fff5;stroke-linejoin:round;stroke-width:0.985900616419014px"/><path d="M720.86,167.17a3.41,3.41,0,1,1-3.41-3.49,3.45,3.45,0,0,1,3.41,3.49Z" style="fill:#00c1a3"/><path d="M720.86,167.17a3.41,3.41,0,1,1-3.41-3.49,3.45,3.45,0,0,1,3.41,3.49Z" style="fill:none;stroke:#c0fff5;stroke-linejoin:round;stroke-width:0.985900616419014px"/></g><g style="clip-path:url(#clip-path-13)"><text transform="translate(53.37 300.6) scale(0.98 1)" style="font-size:12.463350296020508px;font-family:ArialMT, Arial;letter-spacing:0.002965159335368656em">0<tspan x="6.97" y="0" style="letter-spacing:0.002003486037411254em">.</tspan><tspan x="10.46" y="0" style="letter-spacing:-0.008975617447602419em">0</tspan><tspan x="17.28" y="0" style="letter-spacing:-0.00008013944149645017em">0</tspan></text></g><g style="clip-path:url(#clip-path-13)"><text transform="translate(53.37 238.96) scale(0.98 1)" style="font-size:12.463350296020508px;font-family:ArialMT, Arial;letter-spacing:0.002965159335368656em">0<tspan x="6.97" y="0" style="letter-spacing:0.002003486037411254em">.</tspan><tspan x="10.46" y="0" style="letter-spacing:-0.008975617447602419em">2</tspan><tspan x="17.28" y="0" style="letter-spacing:-0.00008013944149645017em">0</tspan></text></g><g style="clip-path:url(#clip-path-13)"><text transform="translate(53.37 177.31) scale(0.98 1)" style="font-size:12.463350296020508px;font-family:ArialMT, Arial;letter-spacing:0.002965159335368656em">0<tspan x="6.97" y="0" style="letter-spacing:0.002003486037411254em">.</tspan><tspan x="10.46" y="0" style="letter-spacing:-0.008975617447602419em">4</tspan><tspan x="17.28" y="0" style="letter-spacing:-0.00008013944149645017em">0</tspan></text></g><g style="clip-path:url(#clip-path-13)"><text transform="translate(53.37 115.67) scale(0.98 1)" style="font-size:12.463350296020508px;font-family:ArialMT, Arial;letter-spacing:0.002965159335368656em">0<tspan x="6.97" y="0" style="letter-spacing:0.002003486037411254em">.</tspan><tspan x="10.46" y="0" style="letter-spacing:-0.008975617447602419em">6</tspan><tspan x="17.28" y="0" style="letter-spacing:-0.00008013944149645017em">0</tspan></text></g><g style="clip-path:url(#clip-path-13)"><text transform="translate(53.37 54.01) scale(0.98 1)" style="font-size:12.463350296020508px;font-family:ArialMT, Arial;letter-spacing:0.002965159335368656em">0<tspan x="6.97" y="0" style="letter-spacing:0.002003486037411254em">.</tspan><tspan x="10.46" y="0" style="letter-spacing:-0.008975617447602419em">8</tspan><tspan x="17.28" y="0" style="letter-spacing:-0.00008013944149645017em">0</tspan></text></g><g style="clip-path:url(#clip-path-13)"><text transform="translate(201.36 315.46) scale(0.98 1)" style="font-size:12.463350296020508px;font-family:ArialMT, Arial">Jan</text></g><g style="clip-path:url(#clip-path-13)"><text transform="translate(451.27 315.46) scale(0.98 1)" style="font-size:12.463350296020508px;font-family:ArialMT, Arial">Feb</text></g><g style="clip-path:url(#clip-path-13)"><text transform="translate(706.19 315.46) scale(0.98 1)" style="font-size:12.463350296020508px;font-family:ArialMT, Arial">Mar</text></g><g style="clip-path:url(#clip-path-13)"><text transform="translate(37.25 175.33) rotate(-90) scale(1.02 1)" style="font-size:13.485540390014648px;font-family:Arial-BoldMT, Arial;font-weight:700"><tspan style="letter-spacing:0.005026987852619293em">Q</tspan><tspan x="10.56" y="0" style="letter-spacing:0.0029737111240846523em">u</tspan><tspan x="18.83" y="0" style="letter-spacing:-0.000991237041361551em">a</tspan><tspan x="26.32" y="0" style="letter-spacing:0.003044513769896192em">n</tspan><tspan x="34.6" y="0" style="letter-spacing:0.004035750811257743em">t</tspan><tspan x="39.14" y="0">i</tspan><tspan x="42.89" y="0" style="letter-spacing:0.003964948165446204em">t</tspan><tspan x="47.44" y="0" style="letter-spacing:-0.0129568841835117em">y</tspan><tspan x="54.76" y="0" style="letter-spacing:0.010974410100788598em"> </tspan><tspan x="58.66" y="0" style="letter-spacing:0.004035750811257743em">(</tspan><tspan x="63.2" y="0" style="letter-spacing:0.022019622847388735em">M</tspan><tspan x="74.73" y="0" style="letter-spacing:0.015010160912046341em">T</tspan><tspan x="83.17" y="0">)</tspan></text></g><g style="clip-path:url(#clip-path-13)"><text transform="translate(410.75 337.92) scale(0.98 1)" style="font-size:13.792770385742188px;font-family:Arial-BoldMT, Arial;font-weight:700"><tspan style="letter-spacing:0.014989941985588893em">T</tspan><tspan x="8.63" y="0">i</tspan><tspan x="12.46" y="0" style="letter-spacing:0.001955209824207247em">m</tspan><tspan x="24.76" y="0" style="letter-spacing:-0.0009413973227664522em">e</tspan><tspan x="32.41" y="0" style="letter-spacing:-0.00007241517867434247em"> </tspan><tspan x="36.24" y="0" style="letter-spacing:-0.003982834827088837em">P</tspan><tspan x="45.39" y="0" style="letter-spacing:-0.0010138125014407947em">e</tspan><tspan x="53.05" y="0" style="letter-spacing:-0.003041437504322384em">r</tspan><tspan x="58.37" y="0">i</tspan><tspan x="62.2" y="0" style="letter-spacing:0.003041437504322384em">o</tspan><tspan x="70.67" y="0">d</tspan></text></g><polygon points="2.35 1.65 899.22 1.65 899.22 349.13 2.35 349.13 2.35 1.65 2.35 1.65" style="fill:none;stroke:#d9d9d9;stroke-linejoin:round;stroke-width:0.985900616419014px"/></svg>