<svg id="Layer_1" data-name="Layer 1" xmlns="http://www.w3.org/2000/svg" xmlns:xlink="http://www.w3.org/1999/xlink" viewBox="0 0 900 350"><defs><clipPath id="clip-path"><polygon points="0.58 347.69 899.22 347.69 899.22 2.15 0.58 2.15 0.58 347.69 0.58 347.69" style="fill:none;clip-rule:evenodd"/></clipPath><clipPath id="clip-path-6"><polygon points="72.27 284.66 888.28 284.66 888.28 17.01 72.27 17.01 72.27 284.66 72.27 284.66" style="fill:none;clip-rule:evenodd"/></clipPath><clipPath id="clip-path-10"><rect x="0.58" y="2.15" width="898.64" height="345.54" style="fill:none"/></clipPath></defs><title>ndvi-risk-report</title><polygon points="0.58 2.31 899.22 2.31 899.22 347.85 0.58 347.85 0.58 2.31 0.58 2.31" style="fill:#eaeaea;fill-rule:evenodd"/><polygon points="72.27 17.17 887.3 17.17 887.3 283.68 72.27 283.68 72.27 17.17 72.27 17.17" style="fill:#fff;fill-rule:evenodd"/><path d="M72.26,217.05h815m-815-66.63h815M72.26,83.8h815m-815-66.63h815" style="fill:none;stroke:#d9d9d9;stroke-linejoin:round;stroke-width:0.979801898739652px"/><g style="clip-path:url(#clip-path)"><path d="M106.23,17.17V283.68M174.16,17.17V283.68M242.1,17.17V283.68M310,17.17V283.68M378,17.17V283.68M445.9,17.17V283.68M513.67,17.17V283.68M581.6,17.17V283.68M649.53,17.17V283.68M717.46,17.17V283.68M785.4,17.17V283.68M853.33,17.17V283.68" style="fill:none;stroke:#f2f2f2;stroke-linejoin:round;stroke-width:0.979801898739652px"/></g><g style="clip-path:url(#clip-path)"><path d="M72.26,17.17V283.68M140.2,17.17V283.68M208.13,17.17V283.68M276.06,17.17V283.68M344,17.17V283.68M411.93,17.17V283.68M479.86,17.17V283.68M547.63,17.17V283.68M615.56,17.17V283.68M683.5,17.17V283.68M751.43,17.17V283.68M819.36,17.17V283.68M887.3,17.17V283.68" style="fill:none;stroke:#d9d9d9;stroke-linejoin:round;stroke-width:0.979801898739652px"/></g><g style="clip-path:url(#clip-path)"><line x1="72.26" y1="283.68" x2="887.3" y2="283.68" style="fill:none;stroke:#d9d9d9;stroke-linejoin:round;stroke-width:1.6330031375287px"/></g><g style="clip-path:url(#clip-path)"><path d="M72.26,283.68v22m271.74-22v22m271.56-22v22m271.74-22v22" style="fill:none;stroke:#d9d9d9;stroke-linejoin:round;stroke-width:1.6330031375287px"/></g><g style="clip-path:url(#clip-path)"><path d="M72.26,305.72v22m271.74-22v22m271.56-22v22m271.74-22v22" style="fill:none;stroke:#d9d9d9;stroke-linejoin:round;stroke-width:1.6330031375287px"/></g><g style="clip-path:url(#clip-path-6)"><polyline points="106.23 203.66 174.16 198.27 242.1 177.04 310.03 150.42 377.96 110.42 445.9 83.8 513.66 81.02 581.6 75.8 649.53 102.41 717.46 123.64 785.4 145.03 853.33 153.04" style="fill:none;stroke:#ff25f3;stroke-linecap:round;stroke-linejoin:round;stroke-width:2.93940561510681px"/></g><g style="clip-path:url(#clip-path)"><polygon points="102.82 200.2 109.68 200.2 109.68 207.06 102.82 207.06 102.82 200.2 102.82 200.2" style="fill:#ff25f3;fill-rule:evenodd"/><polygon points="102.82 200.2 109.68 200.2 109.68 207.06 102.82 207.06 102.82 200.2 102.82 200.2" style="fill:none;stroke:#ffd3fd;stroke-linejoin:round;stroke-width:0.9798019798518px"/><polygon points="170.75 194.81 177.61 194.81 177.61 201.67 170.75 201.67 170.75 194.81 170.75 194.81" style="fill:#ff25f3;fill-rule:evenodd"/><polygon points="170.75 194.81 177.61 194.81 177.61 201.67 170.75 201.67 170.75 194.81 170.75 194.81" style="fill:none;stroke:#ffd3fd;stroke-linejoin:round;stroke-width:0.9798019798518px"/><polygon points="238.69 173.58 245.54 173.58 245.54 180.44 238.69 180.44 238.69 173.58 238.69 173.58" style="fill:#ff25f3;fill-rule:evenodd"/><polygon points="238.69 173.58 245.54 173.58 245.54 180.44 238.69 180.44 238.69 173.58 238.69 173.58" style="fill:none;stroke:#ffd3fd;stroke-linejoin:round;stroke-width:0.9798019798518px"/><polygon points="306.62 146.97 313.48 146.97 313.48 153.82 306.62 153.82 306.62 146.97 306.62 146.97" style="fill:#ff25f3;fill-rule:evenodd"/><polygon points="306.62 146.97 313.48 146.97 313.48 153.82 306.62 153.82 306.62 146.97 306.62 146.97" style="fill:none;stroke:#ffd3fd;stroke-linejoin:round;stroke-width:0.9798019798518px"/><polygon points="374.55 106.96 381.41 106.96 381.41 113.82 374.55 113.82 374.55 106.96 374.55 106.96" style="fill:#ff25f3;fill-rule:evenodd"/><polygon points="374.55 106.96 381.41 106.96 381.41 113.82 374.55 113.82 374.55 106.96 374.55 106.96" style="fill:none;stroke:#ffd3fd;stroke-linejoin:round;stroke-width:0.9798019798518px"/><polygon points="442.49 80.34 449.34 80.34 449.34 87.2 442.49 87.2 442.49 80.34 442.49 80.34" style="fill:#ff25f3;fill-rule:evenodd"/><polygon points="442.49 80.34 449.34 80.34 449.34 87.2 442.49 87.2 442.49 80.34 442.49 80.34" style="fill:none;stroke:#ffd3fd;stroke-linejoin:round;stroke-width:0.9798019798518px"/><polygon points="510.25 77.56 517.11 77.56 517.11 84.42 510.25 84.42 510.25 77.56 510.25 77.56" style="fill:#ff25f3;fill-rule:evenodd"/><polygon points="510.25 77.56 517.11 77.56 517.11 84.42 510.25 84.42 510.25 77.56 510.25 77.56" style="fill:none;stroke:#ffd3fd;stroke-linejoin:round;stroke-width:0.9798019798518px"/><polygon points="578.19 72.34 585.05 72.34 585.05 79.2 578.19 79.2 578.19 72.34 578.19 72.34" style="fill:#ff25f3;fill-rule:evenodd"/><polygon points="578.19 72.34 585.05 72.34 585.05 79.2 578.19 79.2 578.19 72.34 578.19 72.34" style="fill:none;stroke:#ffd3fd;stroke-linejoin:round;stroke-width:0.9798019798518px"/><polygon points="646.12 98.96 652.98 98.96 652.98 105.81 646.12 105.81 646.12 98.96 646.12 98.96" style="fill:#ff25f3;fill-rule:evenodd"/><polygon points="646.12 98.96 652.98 98.96 652.98 105.81 646.12 105.81 646.12 98.96 646.12 98.96" style="fill:none;stroke:#ffd3fd;stroke-linejoin:round;stroke-width:0.9798019798518px"/><polygon points="714.05 120.19 720.91 120.19 720.91 127.04 714.05 127.04 714.05 120.19 714.05 120.19" style="fill:#ff25f3;fill-rule:evenodd"/><polygon points="714.05 120.19 720.91 120.19 720.91 127.04 714.05 127.04 714.05 120.19 714.05 120.19" style="fill:none;stroke:#ffd3fd;stroke-linejoin:round;stroke-width:0.9798019798518px"/><polygon points="781.99 141.58 788.85 141.58 788.85 148.44 781.99 148.44 781.99 141.58 781.99 141.58" style="fill:#ff25f3;fill-rule:evenodd"/><polygon points="781.99 141.58 788.85 141.58 788.85 148.44 781.99 148.44 781.99 141.58 781.99 141.58" style="fill:none;stroke:#ffd3fd;stroke-linejoin:round;stroke-width:0.9798019798518px"/><polygon points="849.92 149.58 856.78 149.58 856.78 156.44 849.92 156.44 849.92 149.58 849.92 149.58" style="fill:#ff25f3;fill-rule:evenodd"/><polygon points="849.92 149.58 856.78 149.58 856.78 156.44 849.92 156.44 849.92 149.58 849.92 149.58" style="fill:none;stroke:#ffd3fd;stroke-linejoin:round;stroke-width:0.9798019798518px"/></g><g style="clip-path:url(#clip-path-6)"><polyline points="106.23 214.27 174.16 209.05 242.1 187.66 310.03 161.04 377.96 113.03 445.9 89.02 513.66 94.41 581.6 86.41 649.53 113.03 717.46 134.42 785.4 155.65 853.33 163.65" style="fill:none;stroke:#06f;stroke-linecap:round;stroke-linejoin:round;stroke-width:2.93940561510681px"/></g><g style="clip-path:url(#clip-path)"><path d="M109.68,214.25a3.43,3.43,0,1,1-3.43-3.43,3.44,3.44,0,0,1,3.43,3.43Z" style="fill:#06f"/><path d="M109.68,214.25a3.43,3.43,0,1,1-3.43-3.43,3.44,3.44,0,0,1,3.43,3.43Z" style="fill:none;stroke:#6b77e8;stroke-linejoin:round;stroke-width:0.9798019798518px"/><path d="M177.61,209a3.43,3.43,0,1,1-3.43-3.43,3.43,3.43,0,0,1,3.43,3.43Z" style="fill:#06f"/><path d="M177.61,209a3.43,3.43,0,1,1-3.43-3.43,3.43,3.43,0,0,1,3.43,3.43Z" style="fill:none;stroke:#6b77e8;stroke-linejoin:round;stroke-width:0.9798019798518px"/><path d="M245.55,187.63a3.43,3.43,0,1,1-3.43-3.43,3.44,3.44,0,0,1,3.43,3.43Z" style="fill:#06f"/><path d="M245.55,187.63a3.43,3.43,0,1,1-3.43-3.43,3.44,3.44,0,0,1,3.43,3.43Z" style="fill:none;stroke:#6b77e8;stroke-linejoin:round;stroke-width:0.9798019798518px"/><path d="M313.48,161a3.43,3.43,0,1,1-3.43-3.43,3.44,3.44,0,0,1,3.43,3.43Z" style="fill:#06f"/><path d="M313.48,161a3.43,3.43,0,1,1-3.43-3.43,3.44,3.44,0,0,1,3.43,3.43Z" style="fill:none;stroke:#6b77e8;stroke-linejoin:round;stroke-width:0.9798019798518px"/><path d="M381.41,113a3.43,3.43,0,1,1-3.43-3.43,3.43,3.43,0,0,1,3.43,3.43Z" style="fill:#06f"/><path d="M381.41,113a3.43,3.43,0,1,1-3.43-3.43,3.43,3.43,0,0,1,3.43,3.43Z" style="fill:none;stroke:#6b77e8;stroke-linejoin:round;stroke-width:0.9798019798518px"/><path d="M449.34,89a3.43,3.43,0,1,1-3.43-3.42A3.42,3.42,0,0,1,449.34,89Z" style="fill:#06f"/><path d="M449.34,89a3.43,3.43,0,1,1-3.43-3.42A3.42,3.42,0,0,1,449.34,89Z" style="fill:none;stroke:#6b77e8;stroke-linejoin:round;stroke-width:0.9798019798518px"/><path d="M517.11,94.38A3.43,3.43,0,1,1,513.68,91a3.42,3.42,0,0,1,3.43,3.43Z" style="fill:#06f"/><path d="M517.11,94.38A3.43,3.43,0,1,1,513.68,91a3.42,3.42,0,0,1,3.43,3.43Z" style="fill:none;stroke:#6b77e8;stroke-linejoin:round;stroke-width:0.9798019798518px"/><path d="M585.05,86.38A3.43,3.43,0,1,1,581.62,83a3.43,3.43,0,0,1,3.43,3.43Z" style="fill:#06f"/><path d="M585.05,86.38A3.43,3.43,0,1,1,581.62,83a3.43,3.43,0,0,1,3.43,3.43Z" style="fill:none;stroke:#6b77e8;stroke-linejoin:round;stroke-width:0.9798019798518px"/><path d="M653,113a3.43,3.43,0,1,1-3.43-3.43A3.44,3.44,0,0,1,653,113Z" style="fill:#06f"/><path d="M653,113a3.43,3.43,0,1,1-3.43-3.43A3.44,3.44,0,0,1,653,113Z" style="fill:none;stroke:#6b77e8;stroke-linejoin:round;stroke-width:0.9798019798518px"/><path d="M720.91,134.39a3.43,3.43,0,1,1-3.43-3.43,3.42,3.42,0,0,1,3.43,3.43Z" style="fill:#06f"/><path d="M720.91,134.39a3.43,3.43,0,1,1-3.43-3.43,3.42,3.42,0,0,1,3.43,3.43Z" style="fill:none;stroke:#6b77e8;stroke-linejoin:round;stroke-width:0.9798019798518px"/><path d="M788.85,155.62a3.43,3.43,0,1,1-3.43-3.43,3.44,3.44,0,0,1,3.43,3.43Z" style="fill:#06f"/><path d="M788.85,155.62a3.43,3.43,0,1,1-3.43-3.43,3.44,3.44,0,0,1,3.43,3.43Z" style="fill:none;stroke:#6b77e8;stroke-linejoin:round;stroke-width:0.9798019798518px"/><path d="M856.78,163.62a3.43,3.43,0,1,1-3.43-3.43,3.43,3.43,0,0,1,3.43,3.43Z" style="fill:#06f"/><path d="M856.78,163.62a3.43,3.43,0,1,1-3.43-3.43,3.43,3.43,0,0,1,3.43,3.43Z" style="fill:none;stroke:#6b77e8;stroke-linejoin:round;stroke-width:0.9798019798518px"/></g><g style="clip-path:url(#clip-path-10)"><text transform="translate(37.93 287.54)" style="font-size:12.247520446777344px;font-family:ArialMT, Arial"><tspan style="letter-spacing:0.0030299500344793864em">0</tspan><tspan x="6.85" y="0" style="letter-spacing:0.0019933881805785435em">.</tspan><tspan x="10.28" y="0" style="letter-spacing:-0.009010114576215016em">0</tspan><tspan x="16.98" y="0">0</tspan></text></g><g style="clip-path:url(#clip-path-10)"><text transform="translate(37.93 220.92)" style="font-size:12.247520446777344px;font-family:ArialMT, Arial"><tspan style="letter-spacing:0.0030299500344793864em">0</tspan><tspan x="6.85" y="0" style="letter-spacing:0.0019933881805785435em">.</tspan><tspan x="10.28" y="0" style="letter-spacing:-0.009010114576215016em">2</tspan><tspan x="16.98" y="0">5</tspan></text></g><g style="clip-path:url(#clip-path-10)"><text transform="translate(37.93 154.27)" style="font-size:12.247520446777344px;font-family:ArialMT, Arial"><tspan style="letter-spacing:0.0030299500344793864em">0</tspan><tspan x="6.85" y="0" style="letter-spacing:0.0019933881805785435em">.</tspan><tspan x="10.28" y="0" style="letter-spacing:-0.009010114576215016em">5</tspan><tspan x="16.98" y="0">0</tspan></text></g><g style="clip-path:url(#clip-path-10)"><text transform="translate(37.93 87.63)" style="font-size:12.247520446777344px;font-family:ArialMT, Arial"><tspan style="letter-spacing:0.0030299500344793864em">0</tspan><tspan x="6.85" y="0" style="letter-spacing:0.0019933881805785435em">.</tspan><tspan x="10.28" y="0" style="letter-spacing:-0.009010114576215016em">7</tspan><tspan x="16.98" y="0">5</tspan></text></g><g style="clip-path:url(#clip-path-10)"><text transform="translate(37.93 21)" style="font-size:12.247520446777344px;font-family:ArialMT, Arial"><tspan style="letter-spacing:0.0030299500344793864em">1</tspan><tspan x="6.85" y="0" style="letter-spacing:0.0019933881805785435em">.</tspan><tspan x="10.28" y="0" style="letter-spacing:-0.009010114576215016em">0</tspan><tspan x="16.98" y="0">0</tspan></text></g><g style="clip-path:url(#clip-path-10)"><text transform="translate(102.84 302.13)" style="font-size:12.247520446777344px;font-family:ArialMT, Arial">1</text></g><g style="clip-path:url(#clip-path-10)"><text transform="translate(170.76 302.13)" style="font-size:12.247520446777344px;font-family:ArialMT, Arial">2</text></g><g style="clip-path:url(#clip-path-10)"><text transform="translate(238.67 302.13)" style="font-size:12.247520446777344px;font-family:ArialMT, Arial">3</text></g><g style="clip-path:url(#clip-path-10)"><text transform="translate(306.59 302.13)" style="font-size:12.247520446777344px;font-family:ArialMT, Arial">4</text></g><g style="clip-path:url(#clip-path-10)"><text transform="translate(374.5 302.13)" style="font-size:12.247520446777344px;font-family:ArialMT, Arial">1</text></g><g style="clip-path:url(#clip-path-10)"><text transform="translate(442.42 302.13)" style="font-size:12.247520446777344px;font-family:ArialMT, Arial">2</text></g><g style="clip-path:url(#clip-path-10)"><text transform="translate(510.33 302.13)" style="font-size:12.247520446777344px;font-family:ArialMT, Arial">3</text></g><g style="clip-path:url(#clip-path-10)"><text transform="translate(578.25 302.13)" style="font-size:12.247520446777344px;font-family:ArialMT, Arial">4</text></g><g style="clip-path:url(#clip-path-10)"><text transform="translate(646.17 302.13)" style="font-size:12.247520446777344px;font-family:ArialMT, Arial">1</text></g><g style="clip-path:url(#clip-path-10)"><text transform="translate(714.09 302.13)" style="font-size:12.247520446777344px;font-family:ArialMT, Arial">2</text></g><g style="clip-path:url(#clip-path-10)"><text transform="translate(782.01 302.13)" style="font-size:12.247520446777344px;font-family:ArialMT, Arial">3</text></g><g style="clip-path:url(#clip-path-10)"><text transform="translate(849.92 302.13)" style="font-size:12.247520446777344px;font-family:ArialMT, Arial">4</text></g><g style="clip-path:url(#clip-path-10)"><text transform="translate(198.25 324.21)" style="font-size:12.247520446777344px;font-family:ArialMT, Arial"><tspan style="letter-spacing:0.005980164541735631em">J</tspan><tspan x="6.2" y="0" style="letter-spacing:-0.009010114576215016em">a</tspan><tspan x="12.9" y="0">n</tspan></text></g><g style="clip-path:url(#clip-path-10)"><text transform="translate(469.23 324.21)" style="font-size:12.247520446777344px;font-family:ArialMT, Arial"><tspan style="letter-spacing:0.0019933881805785435em">F</tspan><tspan x="7.51" y="0" style="letter-spacing:0.0029502145072562444em">e</tspan><tspan x="14.35" y="0">b</tspan></text></g><g style="clip-path:url(#clip-path-10)"><text transform="translate(740.91 324.21)" style="font-size:12.247520446777344px;font-family:ArialMT, Arial;letter-spacing:-0.005980164541735631em">M<tspan x="10.13" y="0" style="letter-spacing:0.0029502145072562444em">a</tspan><tspan x="16.98" y="0" style="letter-spacing:0.00007973552722314174em">r</tspan></text></g><g style="clip-path:url(#clip-path-10)"><text transform="translate(27.37 167.16) rotate(-90)" style="font-size:13.553930282592773px;font-family:Arial-BoldMT, Arial;font-weight:700">ND<tspan x="19.58" y="0" style="letter-spacing:-0.003962757398050115em">V</tspan><tspan x="28.56" y="0">I</tspan><tspan x="32.33" y="0" style="letter-spacing:0.01102367058003032em"> </tspan><tspan x="36.24" y="0"> </tspan><tspan x="40.01" y="0" style="letter-spacing:-0.003962757398050115em">V</tspan><tspan x="49" y="0" style="letter-spacing:-0.0010087018831400293em">a</tspan><tspan x="56.52" y="0">l</tspan><tspan x="60.29" y="0" style="letter-spacing:0.003026105649420088em">u</tspan><tspan x="68.61" y="0" style="letter-spacing:-0.0000720501345100021em">e</tspan></text></g><g style="clip-path:url(#clip-path-10)"><text transform="translate(431.45 338.17)" style="font-size:13.553930282592773px;font-family:Arial-BoldMT, Arial;font-weight:700"><tspan style="letter-spacing:0.006988863047470203em">W</tspan><tspan x="12.89" y="0" style="letter-spacing:-0.0010087018831400293em">ee</tspan><tspan x="27.94" y="0">k</tspan></text></g><polygon points="0.58 2.31 899.22 2.31 899.22 347.85 0.58 347.85 0.58 2.31 0.58 2.31" style="fill:none;stroke:#d9d9d9;stroke-linejoin:round;stroke-width:0.9798019798518px"/></svg>