<svg id="Layer_1" data-name="Layer 1" xmlns="http://www.w3.org/2000/svg" xmlns:xlink="http://www.w3.org/1999/xlink" viewBox="0 0 900 350"><defs><clipPath id="clip-path"><polygon points="1.82 350.3 898.01 350.3 898.01 1.31 1.82 1.31 1.82 350.3 1.82 350.3" style="fill:none;clip-rule:evenodd"/></clipPath><clipPath id="clip-path-3"><polygon points="108.23 299.1 804.65 299.1 804.65 34.84 108.23 34.84 108.23 299.1 108.23 299.1" style="fill:none;clip-rule:evenodd"/></clipPath><clipPath id="clip-path-8"><rect x="1.82" y="1.31" width="896.19" height="349" style="fill:none"/></clipPath></defs><title>price-volatility</title><polygon points="1.99 1.47 898.18 1.47 898.18 350.3 1.99 350.3 1.99 1.47 1.99 1.47" style="fill:#f2f2f2;fill-rule:evenodd"/><polygon points="108.39 34.84 803.83 34.84 803.83 298.11 108.39 298.11 108.39 34.84 108.39 34.84" style="fill:#fff;fill-rule:evenodd"/><path d="M108.39,34.84V298.11M137.23,34.84V298.11m29-263.27V298.11m29-263.27V298.11m29-263.27V298.11m29-263.27V298.11m29-263.27V298.11M311.09,34.84V298.11m29-263.27V298.11m29-263.27V298.11m29-263.27V298.11m29-263.27V298.11m29-263.27V298.11M485,34.84V298.11M514,34.84V298.11M543,34.84V298.11M572,34.84V298.11M601,34.84V298.11M630,34.84V298.11M658.81,34.84V298.11m29-263.27V298.11m29-263.27V298.11m29-263.27V298.11m29-263.27V298.11m29-263.27V298.11" style="fill:none;stroke:#b7b7b7;stroke-linecap:round;stroke-linejoin:round;stroke-width:0.984305469864661px"/><g style="clip-path:url(#clip-path)"><path d="M108.39,237.83H803.83M108.39,177.54H803.83M108.39,117.26H803.83M108.39,56.8H803.83" style="fill:none;stroke:#d9d9d9;stroke-linejoin:round;stroke-width:0.984305469864661px"/></g><g style="clip-path:url(#clip-path)"><polygon points="108.39 34.84 803.83 34.84 803.83 298.11 108.39 298.11 108.39 34.84 108.39 34.84" style="fill:none;stroke:#fff;stroke-linejoin:round;stroke-width:0.984305469864661px"/></g><g style="clip-path:url(#clip-path-3)"><polygon points="125.66 271.36 148.96 271.36 148.96 298.11 125.66 298.11 125.66 271.36 125.66 271.36" style="fill:#2935e8;fill-rule:evenodd"/><polygon points="125.66 271.36 148.96 271.36 148.96 298.11 125.66 298.11 125.66 271.36 125.66 271.36" style="fill:none;stroke:#d9d9d9;stroke-linejoin:round;stroke-width:0.984305469864661px"/><polygon points="183.67 232.21 206.81 232.21 206.81 298.11 183.67 298.11 183.67 232.21 183.67 232.21" style="fill:#2935e8;fill-rule:evenodd"/><polygon points="183.67 232.21 206.81 232.21 206.81 298.11 183.67 298.11 183.67 232.21 183.67 232.21" style="fill:none;stroke:#d9d9d9;stroke-linejoin:round;stroke-width:0.984305469864661px"/><polygon points="241.68 184.81 264.81 184.81 264.81 298.11 241.68 298.11 241.68 184.81 241.68 184.81" style="fill:#2935e8;fill-rule:evenodd"/><polygon points="241.68 184.81 264.81 184.81 264.81 298.11 241.68 298.11 241.68 184.81 241.68 184.81" style="fill:none;stroke:#d9d9d9;stroke-linejoin:round;stroke-width:0.984305469864661px"/><polygon points="299.52 135.26 322.82 135.26 322.82 298.11 299.52 298.11 299.52 135.26 299.52 135.26" style="fill:#2935e8;fill-rule:evenodd"/><polygon points="299.52 135.26 322.82 135.26 322.82 298.11 299.52 298.11 299.52 135.26 299.52 135.26" style="fill:none;stroke:#d9d9d9;stroke-linejoin:round;stroke-width:0.984305469864661px"/><polygon points="357.53 243.61 380.67 243.61 380.67 298.11 357.53 298.11 357.53 243.61 357.53 243.61" style="fill:#2935e8;fill-rule:evenodd"/><polygon points="357.53 243.61 380.67 243.61 380.67 298.11 357.53 298.11 357.53 243.61 357.53 243.61" style="fill:none;stroke:#d9d9d9;stroke-linejoin:round;stroke-width:0.984305469864661px"/><polygon points="415.54 169.12 438.68 169.12 438.68 298.11 415.54 298.11 415.54 169.12 415.54 169.12" style="fill:#2935e8;fill-rule:evenodd"/><polygon points="415.54 169.12 438.68 169.12 438.68 298.11 415.54 298.11 415.54 169.12 415.54 169.12" style="fill:none;stroke:#d9d9d9;stroke-linejoin:round;stroke-width:0.984305469864661px"/><polygon points="473.38 248.23 496.68 248.23 496.68 298.11 473.38 298.11 473.38 248.23 473.38 248.23" style="fill:#2935e8;fill-rule:evenodd"/><polygon points="473.38 248.23 496.68 248.23 496.68 298.11 473.38 298.11 473.38 248.23 473.38 248.23" style="fill:none;stroke:#d9d9d9;stroke-linejoin:round;stroke-width:0.984305469864661px"/><polygon points="531.39 270.53 554.53 270.53 554.53 298.11 531.39 298.11 531.39 270.53 531.39 270.53" style="fill:#2935e8;fill-rule:evenodd"/><polygon points="531.39 270.53 554.53 270.53 554.53 298.11 531.39 298.11 531.39 270.53 531.39 270.53" style="fill:none;stroke:#d9d9d9;stroke-linejoin:round;stroke-width:0.984305469864661px"/><polygon points="589.4 287.71 612.54 287.71 612.54 298.11 589.4 298.11 589.4 287.71 589.4 287.71" style="fill:#2935e8;fill-rule:evenodd"/><polygon points="589.4 287.71 612.54 287.71 612.54 298.11 589.4 298.11 589.4 287.71 589.4 287.71" style="fill:none;stroke:#d9d9d9;stroke-linejoin:round;stroke-width:0.984305469864661px"/><polygon points="647.24 285.06 670.54 285.06 670.54 298.11 647.24 298.11 647.24 285.06 647.24 285.06" style="fill:#2935e8;fill-rule:evenodd"/><polygon points="647.24 285.06 670.54 285.06 670.54 298.11 647.24 298.11 647.24 285.06 647.24 285.06" style="fill:none;stroke:#d9d9d9;stroke-linejoin:round;stroke-width:0.984305469864661px"/><polygon points="705.25 274.99 728.39 274.99 728.39 298.11 705.25 298.11 705.25 274.99 705.25 274.99" style="fill:#2935e8;fill-rule:evenodd"/><polygon points="705.25 274.99 728.39 274.99 728.39 298.11 705.25 298.11 705.25 274.99 705.25 274.99" style="fill:none;stroke:#d9d9d9;stroke-linejoin:round;stroke-width:0.984305469864661px"/><polygon points="763.26 279.94 786.4 279.94 786.4 298.11 763.26 298.11 763.26 279.94 763.26 279.94" style="fill:#2935e8;fill-rule:evenodd"/><polygon points="763.26 279.94 786.4 279.94 786.4 298.11 763.26 298.11 763.26 279.94 763.26 279.94" style="fill:none;stroke:#d9d9d9;stroke-linejoin:round;stroke-width:0.984305469864661px"/></g><g style="clip-path:url(#clip-path)"><line x1="108.39" y1="298.11" x2="108.39" y2="34.84" style="fill:none;stroke:#868686;stroke-linejoin:round;stroke-width:0.984305469864661px"/></g><g style="clip-path:url(#clip-path)"><path d="M104.64,298.11h3.75m-3.75-60.28h3.75m-3.75-60.45h3.75m-3.75-60.29h3.75m-3.75-60.45h3.75" style="fill:none;stroke:#868686;stroke-linejoin:round;stroke-width:0.984305469864661px"/></g><g style="clip-path:url(#clip-path)"><line x1="108.39" y1="298.11" x2="803.83" y2="298.11" style="fill:none;stroke:#868686;stroke-linejoin:round;stroke-width:0.984305469864661px"/></g><g style="clip-path:url(#clip-path-3)"><polyline points="137.23 155.74 195.24 112.8 253.25 54.82 311.09 116.26 369.1 119.4 427.11 122.21 484.95 125.35 542.96 110.65 600.97 107.51 658.81 114.61 716.82 96.28 774.83 97.6" style="fill:none;stroke:#2935e8;stroke-linecap:round;stroke-linejoin:round;stroke-width:2.95291632810901px"/></g><g style="clip-path:url(#clip-path-8)"><text transform="translate(60.45 302.14) scale(0.99 1)" style="font-size:12.387439727783203px;font-family:ArialMT, Arial"><tspan style="letter-spacing:0.0019977420376673873em"> </tspan><tspan x="3.47" y="0" style="letter-spacing:0.002956658215747733em">1</tspan><tspan x="10.39" y="0" style="letter-spacing:-0.011027536047923977em">,</tspan><tspan x="13.7" y="0" style="letter-spacing:0.0030365678972544287em">00</tspan><tspan x="27.55" y="0">0</tspan></text></g><g style="clip-path:url(#clip-path-8)"><text transform="translate(53.65 241.74) scale(0.99 1)" style="font-size:12.387439727783203px;font-family:ArialMT, Arial;letter-spacing:0.0019977420376673873em"> <tspan x="3.47" y="0" style="letter-spacing:0.002956658215747733em">2</tspan><tspan x="10.39" y="0" style="letter-spacing:-0.009029794010256591em">6</tspan><tspan x="17.17" y="0">,</tspan><tspan x="20.64" y="0" style="letter-spacing:0.002956658215747733em">00</tspan><tspan x="34.49" y="0" style="letter-spacing:-0.0000799096815066955em">0</tspan></text></g><g style="clip-path:url(#clip-path-8)"><text transform="translate(53.65 181.37) scale(0.99 1)" style="font-size:12.387439727783203px;font-family:ArialMT, Arial;letter-spacing:0.0019977420376673873em"> <tspan x="3.47" y="0" style="letter-spacing:0.002956658215747733em">5</tspan><tspan x="10.39" y="0" style="letter-spacing:-0.009029794010256591em">1</tspan><tspan x="17.17" y="0">,</tspan><tspan x="20.64" y="0" style="letter-spacing:0.002956658215747733em">00</tspan><tspan x="34.49" y="0" style="letter-spacing:-0.0000799096815066955em">0</tspan></text></g><g style="clip-path:url(#clip-path-8)"><text transform="translate(53.65 120.97) scale(0.99 1)" style="font-size:12.387439727783203px;font-family:ArialMT, Arial;letter-spacing:0.0019977420376673873em"> <tspan x="3.47" y="0" style="letter-spacing:0.002956658215747733em">7</tspan><tspan x="10.39" y="0" style="letter-spacing:-0.009029794010256591em">6</tspan><tspan x="17.17" y="0">,</tspan><tspan x="20.64" y="0" style="letter-spacing:0.002956658215747733em">00</tspan><tspan x="34.49" y="0" style="letter-spacing:-0.0000799096815066955em">0</tspan></text></g><g style="clip-path:url(#clip-path-8)"><text transform="translate(43.46 60.58) scale(0.99 1)" style="font-size:12.387439727783203px;font-family:ArialMT, Arial"><tspan style="letter-spacing:0.0019977420376673873em"> </tspan><tspan x="3.47" y="0" style="letter-spacing:0.002956658215747733em">1</tspan><tspan x="10.39" y="0" style="letter-spacing:-0.011027536047923977em">,</tspan><tspan x="13.7" y="0" style="letter-spacing:0.0030365678972544287em">01</tspan><tspan x="27.55" y="0" style="letter-spacing:0.0019977420376673873em">,</tspan><tspan x="31.02" y="0" style="letter-spacing:-0.009029794010256591em">0</tspan><tspan x="37.8" y="0" style="letter-spacing:0.002956658215747733em">0</tspan><tspan x="44.72" y="0">0</tspan></text></g><g style="clip-path:url(#clip-path-8)"><text transform="translate(127.45 316.89) scale(0.99 1)" style="font-size:12.387439727783203px;font-family:ArialMT, Arial"><tspan style="letter-spacing:0.005993226113002162em">J</tspan><tspan x="6.27" y="0" style="letter-spacing:-0.009029794010256591em">a</tspan><tspan x="13.05" y="0">n</tspan></text></g><g style="clip-path:url(#clip-path-8)"><text transform="translate(184.72 316.89) scale(0.99 1)" style="font-size:12.387439727783203px;font-family:ArialMT, Arial"><tspan style="letter-spacing:0.0019977420376673873em">F</tspan><tspan x="7.59" y="0" style="letter-spacing:0.002956658215747733em">e</tspan><tspan x="14.52" y="0">b</tspan></text></g><g style="clip-path:url(#clip-path-8)"><text transform="translate(242.69 316.89) scale(0.99 1)" style="font-size:12.387439727783203px;font-family:ArialMT, Arial"><tspan style="letter-spacing:-0.005993226113002162em">M</tspan><tspan x="10.24" y="0" style="letter-spacing:0.0030365678972544287em">a</tspan><tspan x="17.17" y="0">r</tspan></text></g><g style="clip-path:url(#clip-path-8)"><text transform="translate(301.65 316.89) scale(0.99 1)" style="font-size:12.387439727783203px;font-family:ArialMT, Arial">A<tspan x="8.26" y="0" style="letter-spacing:0.002956658215747733em">p</tspan><tspan x="15.19" y="0">r</tspan></text></g><g style="clip-path:url(#clip-path-8)"><text transform="translate(357.57 316.89) scale(0.99 1)" style="font-size:12.387439727783203px;font-family:ArialMT, Arial"><tspan style="letter-spacing:-0.005993226113002162em">M</tspan><tspan x="10.24" y="0" style="letter-spacing:0.0030365678972544287em">a</tspan><tspan x="17.17" y="0">y</tspan></text></g><g style="clip-path:url(#clip-path-8)"><text transform="translate(417.22 316.89) scale(0.99 1)" style="font-size:12.387439727783203px;font-family:ArialMT, Arial"><tspan style="letter-spacing:0.005993226113002162em">J</tspan><tspan x="6.27" y="0" style="letter-spacing:-0.009029794010256591em">u</tspan><tspan x="13.05" y="0">n</tspan></text></g><g style="clip-path:url(#clip-path-8)"><text transform="translate(477.22 316.89) scale(0.99 1)" style="font-size:12.387439727783203px;font-family:ArialMT, Arial;letter-spacing:0.005993226113002162em">J<tspan x="6.27" y="0" style="letter-spacing:-0.009029794010256591em">u</tspan><tspan x="13.05" y="0" style="letter-spacing:0.0000799096815066955em">l</tspan></text></g><g style="clip-path:url(#clip-path-8)"><text transform="translate(532.1 316.89) scale(0.99 1)" style="font-size:12.387439727783203px;font-family:ArialMT, Arial">A<tspan x="8.26" y="0" style="letter-spacing:0.002956658215747733em">u</tspan><tspan x="15.19" y="0">g</tspan></text></g><g style="clip-path:url(#clip-path-8)"><text transform="translate(590.05 316.89) scale(0.99 1)" style="font-size:12.387439727783203px;font-family:ArialMT, Arial">S<tspan x="8.26" y="0" style="letter-spacing:0.002956658215747733em">e</tspan><tspan x="15.19" y="0">p</tspan></text></g><g style="clip-path:url(#clip-path-8)"><text transform="translate(649.38 316.89) scale(0.99 1)" style="font-size:12.387439727783203px;font-family:ArialMT, Arial"><tspan style="letter-spacing:-0.0039954840753347745em">O</tspan><tspan x="9.59" y="0" style="letter-spacing:0.005993226113002162em">c</tspan><tspan x="15.85" y="0">t</tspan></text></g><g style="clip-path:url(#clip-path-8)"><text transform="translate(705.97 316.89) scale(0.99 1)" style="font-size:12.387439727783203px;font-family:ArialMT, Arial"><tspan style="letter-spacing:-0.0019977420376673873em">N</tspan><tspan x="8.92" y="0" style="letter-spacing:0.0030365678972544287em">o</tspan><tspan x="15.85" y="0">v</tspan></text></g><g style="clip-path:url(#clip-path-8)"><text transform="translate(763.93 316.89) scale(0.99 1)" style="font-size:12.387439727783203px;font-family:ArialMT, Arial"><tspan style="letter-spacing:-0.0019977420376673873em">D</tspan><tspan x="8.92" y="0" style="letter-spacing:0.0030365678972544287em">e</tspan><tspan x="15.85" y="0">c</tspan></text></g><g style="clip-path:url(#clip-path-8)"><text transform="translate(814.27 302.14) scale(0.99 1)" style="font-size:12.387439727783203px;font-family:ArialMT, Arial"><tspan style="letter-spacing:0.0019977420376673873em"> </tspan><tspan x="3.47" y="0" style="letter-spacing:0.002956658215747733em">1</tspan><tspan x="10.39" y="0" style="letter-spacing:-0.011027536047923977em">,</tspan><tspan x="13.7" y="0" style="letter-spacing:0.0030365678972544287em">00</tspan><tspan x="27.55" y="0">0</tspan></text></g><g style="clip-path:url(#clip-path-8)"><text transform="translate(814.27 241.81) scale(0.99 1)" style="font-size:12.387439727783203px;font-family:ArialMT, Arial"><tspan style="letter-spacing:0.0019977420376673873em"> </tspan><tspan x="3.47" y="0" style="letter-spacing:0.002956658215747733em">6</tspan><tspan x="10.39" y="0" style="letter-spacing:-0.011027536047923977em">,</tspan><tspan x="13.7" y="0" style="letter-spacing:0.0030365678972544287em">50</tspan><tspan x="27.55" y="0">0</tspan></text></g><g style="clip-path:url(#clip-path-8)"><text transform="translate(814.27 181.46) scale(0.99 1)" style="font-size:12.387439727783203px;font-family:ArialMT, Arial;letter-spacing:0.0019977420376673873em"> <tspan x="3.47" y="0" style="letter-spacing:0.002956658215747733em">1</tspan><tspan x="10.39" y="0" style="letter-spacing:-0.009029794010256591em">2</tspan><tspan x="17.17" y="0">,</tspan><tspan x="20.64" y="0" style="letter-spacing:0.002956658215747733em">00</tspan><tspan x="34.49" y="0" style="letter-spacing:-0.0000799096815066955em">0</tspan></text></g><g style="clip-path:url(#clip-path-8)"><text transform="translate(814.27 121.12) scale(0.99 1)" style="font-size:12.387439727783203px;font-family:ArialMT, Arial;letter-spacing:0.0019977420376673873em"> <tspan x="3.47" y="0" style="letter-spacing:0.002956658215747733em">1</tspan><tspan x="10.39" y="0" style="letter-spacing:-0.009029794010256591em">7</tspan><tspan x="17.17" y="0">,</tspan><tspan x="20.64" y="0" style="letter-spacing:0.002956658215747733em">50</tspan><tspan x="34.49" y="0" style="letter-spacing:-0.0000799096815066955em">0</tspan></text></g><g style="clip-path:url(#clip-path-8)"><text transform="translate(814.27 60.79) scale(0.99 1)" style="font-size:12.387439727783203px;font-family:ArialMT, Arial;letter-spacing:0.0019977420376673873em"> <tspan x="3.47" y="0" style="letter-spacing:0.002956658215747733em">2</tspan><tspan x="10.39" y="0" style="letter-spacing:-0.009029794010256591em">3</tspan><tspan x="17.17" y="0">,</tspan><tspan x="20.64" y="0" style="letter-spacing:0.002956658215747733em">00</tspan><tspan x="34.49" y="0" style="letter-spacing:-0.0000799096815066955em">0</tspan></text></g><g style="clip-path:url(#clip-path-8)"><text transform="translate(435.86 344.29) scale(0.99 1)" style="font-size:12.387439727783203px;font-family:Arial-BoldMT, Arial;font-weight:700"><tspan style="letter-spacing:0.005993226113002162em">M</tspan><tspan x="10.39" y="0" style="letter-spacing:0.002077651719174083em">on</tspan><tspan x="25.58" y="0">t</tspan><tspan x="29.7" y="0" style="letter-spacing:0.0019977420376673873em">h</tspan><tspan x="37.29" y="0"> </tspan></text></g><g style="clip-path:url(#clip-path-8)"><text transform="translate(28.65 228.55) rotate(-90) scale(1.01 1)" style="font-size:12.220769882202148px;font-family:Arial-BoldMT, Arial;font-weight:700"><tspan style="letter-spacing:0.006070276061044455em">M</tspan><tspan x="10.25" y="0" style="letter-spacing:0.0029168858994629205em">a</tspan><tspan x="17.09" y="0" style="letter-spacing:-0.0019708688509884596em">r</tspan><tspan x="21.82" y="0" style="letter-spacing:0.0029957206535024586em">ke</tspan><tspan x="35.48" y="0">t</tspan><tspan x="39.55" y="0" style="letter-spacing:-0.010958030811495835em"> </tspan><tspan x="42.82" y="0" style="letter-spacing:-0.00007883475403953837em">P</tspan><tspan x="50.97" y="0" style="letter-spacing:-0.0019708688509884596em">r</tspan><tspan x="55.7" y="0" style="letter-spacing:0.002049703605027998em">i</tspan><tspan x="59.12" y="0" style="letter-spacing:0.0029957206535024586em">ce</tspan><tspan x="72.78" y="0" style="letter-spacing:-0.010958030811495835em"> </tspan><tspan x="76.04" y="0">(</tspan><tspan x="80.11" y="0" style="letter-spacing:-0.002049703605027998em">R</tspan><tspan x="88.92" y="0" style="letter-spacing:0.0029957206535024586em">s</tspan><tspan x="95.75" y="0" style="letter-spacing:0.002049703605027998em">./</tspan><tspan x="102.59" y="0" style="letter-spacing:0.006070276061044455em">M</tspan><tspan x="112.84" y="0" style="letter-spacing:0.0019708688509884596em">T</tspan><tspan x="120.33" y="0" style="letter-spacing:0.00007883475403953837em">)</tspan></text></g><g style="clip-path:url(#clip-path-8)"><text transform="translate(883.92 221.88) rotate(-90) scale(1.01 1)" style="font-size:12.220769882202148px;font-family:Arial-BoldMT, Arial;font-weight:700"><tspan style="letter-spacing:0.006070276061044455em">M</tspan><tspan x="10.25" y="0" style="letter-spacing:0.0029168858994629205em">a</tspan><tspan x="17.09" y="0" style="letter-spacing:-0.0019708688509884596em">r</tspan><tspan x="21.82" y="0" style="letter-spacing:0.0029957206535024586em">ke</tspan><tspan x="35.48" y="0">t</tspan><tspan x="39.55" y="0" style="letter-spacing:-0.010958030811495835em"> </tspan><tspan x="42.82" y="0" style="letter-spacing:-0.015057438021551833em">A</tspan><tspan x="51.46" y="0" style="letter-spacing:-0.0019708688509884596em">rr</tspan><tspan x="60.92" y="0" style="letter-spacing:0.0019708688509884596em">i</tspan><tspan x="64.34" y="0" style="letter-spacing:-0.008987161960507375em">v</tspan><tspan x="71.03" y="0" style="letter-spacing:0.0029957206535024586em">a</tspan><tspan x="77.86" y="0" style="letter-spacing:0.0019708688509884596em">l</tspan><tspan x="81.28" y="0" style="letter-spacing:0.015057438021551833em"> </tspan><tspan x="84.86" y="0">(</tspan><tspan x="88.93" y="0" style="letter-spacing:0.005991441307004917em">M</tspan><tspan x="99.18" y="0" style="letter-spacing:0.002049703605027998em">T</tspan><tspan x="106.67" y="0">)</tspan></text></g><g style="clip-path:url(#clip-path)"><polygon points="205.34 18.65 231.41 18.65 231.41 24.93 205.34 24.93 205.34 18.65 205.34 18.65" style="fill:#2935e8;fill-rule:evenodd"/><polygon points="205.34 18.65 231.41 18.65 231.41 24.93 205.34 24.93 205.34 18.65 205.34 18.65" style="fill:none;stroke:#d9d9d9;stroke-linejoin:round;stroke-width:0.984305469864661px"/></g><g style="clip-path:url(#clip-path-8)"><text transform="translate(234.2 25.79) scale(0.99 1)" style="font-size:12.387439727783203px;font-family:ArialMT, Arial"><tspan style="letter-spacing:-0.0039954840753347745em">G</tspan><tspan x="9.59" y="0" style="letter-spacing:0.011027536047923977em">U</tspan><tspan x="18.67" y="0" style="letter-spacing:-0.005993226113002162em">J</tspan><tspan x="24.79" y="0" style="letter-spacing:0.0019977420376673873em"> </tspan><tspan x="28.25" y="0">(</tspan><tspan x="32.38" y="0" style="letter-spacing:-0.0019977420376673873em">R</tspan><tspan x="41.3" y="0">-</tspan><tspan x="45.42" y="0" style="letter-spacing:0.0030365678972544287em">2</tspan><tspan x="52.35" y="0" style="letter-spacing:-0.011027536047923977em">,</tspan><tspan x="55.66" y="0" style="letter-spacing:0.0019977420376673873em"> </tspan><tspan x="59.12" y="0" style="letter-spacing:-0.0019977420376673873em">R</tspan><tspan x="68.04" y="0">-</tspan><tspan x="72.17" y="0" style="letter-spacing:0.0030365678972544287em">6</tspan><tspan x="79.1" y="0">)</tspan><tspan x="83.22" y="0" style="letter-spacing:0.0019977420376673873em"> </tspan><tspan x="86.69" y="0">Arr</tspan><tspan x="103.2" y="0" style="letter-spacing:0.0039954840753347745em">i</tspan><tspan x="106" y="0" style="letter-spacing:-0.005993226113002162em">v</tspan><tspan x="112.12" y="0" style="letter-spacing:0.0030365678972544287em">a</tspan><tspan x="119.05" y="0">l</tspan></text></g><g style="clip-path:url(#clip-path)"><line x1="557.3" y1="21.79" x2="583.37" y2="21.79" style="fill:none;stroke:#2935e8;stroke-linecap:round;stroke-linejoin:round;stroke-width:2.95291632810901px"/></g><g style="clip-path:url(#clip-path-8)"><text transform="translate(586.11 25.79) scale(0.99 1)" style="font-size:12.387439727783203px;font-family:ArialMT, Arial"><tspan style="letter-spacing:-0.0039954840753347745em">G</tspan><tspan x="9.59" y="0" style="letter-spacing:0.011027536047923977em">U</tspan><tspan x="18.67" y="0" style="letter-spacing:-0.005993226113002162em">J</tspan><tspan x="24.79" y="0" style="letter-spacing:0.0019977420376673873em"> </tspan><tspan x="28.25" y="0">(</tspan><tspan x="32.38" y="0" style="letter-spacing:-0.0019977420376673873em">R</tspan><tspan x="41.3" y="0">-</tspan><tspan x="45.42" y="0" style="letter-spacing:0.0030365678972544287em">2</tspan><tspan x="52.35" y="0" style="letter-spacing:-0.011027536047923977em">,</tspan><tspan x="55.66" y="0" style="letter-spacing:0.0019977420376673873em"> </tspan><tspan x="59.12" y="0" style="letter-spacing:-0.0019977420376673873em">R</tspan><tspan x="68.04" y="0">-</tspan><tspan x="72.17" y="0" style="letter-spacing:0.0030365678972544287em">6</tspan><tspan x="79.1" y="0">)</tspan><tspan x="83.22" y="0" style="letter-spacing:0.0019977420376673873em"> </tspan><tspan x="86.69" y="0">Pr</tspan><tspan x="99.07" y="0" style="letter-spacing:0.0039954840753347745em">i</tspan><tspan x="101.88" y="0" style="letter-spacing:-0.005993226113002162em">c</tspan><tspan x="108" y="0">e</tspan></text></g><polygon points="1.99 1.47 898.18 1.47 898.18 350.3 1.99 350.3 1.99 1.47 1.99 1.47" style="fill:none;stroke:#d9d9d9;stroke-linejoin:round;stroke-width:0.984305551349634px"/></svg>