<svg id="Layer_1" data-name="Layer 1" xmlns="http://www.w3.org/2000/svg" xmlns:xlink="http://www.w3.org/1999/xlink" viewBox="0 0 900 350"><defs><clipPath id="clip-path"><polygon points="0.92 96.99 898.83 96.99 898.83 254.71 0.92 254.71 0.92 96.99 0.92 96.99" style="fill:none;clip-rule:evenodd"/></clipPath><clipPath id="clip-path-2"><polygon points="0.92 96.99 898.83 96.99 898.83 159.5 0.92 159.5 0.92 96.99 0.92 96.99" style="fill:none;clip-rule:evenodd"/></clipPath><clipPath id="clip-path-4"><polygon points="0.92 224.87 897.4 224.87 897.4 253.28 0.92 253.28 0.92 224.87 0.92 224.87" style="fill:none;clip-rule:evenodd"/></clipPath><clipPath id="clip-path-5"><polygon points="506.08 160.93 766.49 160.93 766.49 223.44 506.08 223.44 506.08 160.93 506.08 160.93" style="fill:none;clip-rule:evenodd"/></clipPath><clipPath id="clip-path-6"><polygon points="-0.5 95.56 898.83 95.56 898.83 254.71 -0.5 254.71 -0.5 95.56 -0.5 95.56" style="fill:none;clip-rule:evenodd"/></clipPath></defs><title>seasonal-calendar</title><g style="clip-path:url(#clip-path)"><polyline points="-0.5 95.56 -0.5 160.93 898.83 160.93 898.83 95.56 -0.5 95.56" style="fill:#d9d9d9;fill-rule:evenodd"/><polyline points="-0.5 159.5 -0.5 224.87 309.71 224.87 309.71 159.5 -0.5 159.5" style="fill:#f2f2f2;fill-rule:evenodd"/><polyline points="439.2 159.5 439.2 224.87 506.08 224.87 506.08 159.5 439.2 159.5" style="fill:#5e9fff;fill-rule:evenodd"/><polyline points="504.66 159.5 504.66 224.87 767.91 224.87 767.91 159.5 504.66 159.5" style="fill:#06f;fill-rule:evenodd"/><polyline points="766.49 159.5 766.49 224.87 833.37 224.87 833.37 159.5 766.49 159.5" style="fill:#0044ab;fill-rule:evenodd"/></g><g style="clip-path:url(#clip-path-2)"><text transform="translate(8.05 135.34)" style="font-size:18.471540451049805px;font-family:Arial-BoldMT, Arial;font-weight:700"><tspan style="letter-spacing:-0.028981909704665923em">A</tspan><tspan x="12.8" y="0" style="letter-spacing:0.0039592772820581865em">g</tspan><tspan x="24.16" y="0" style="letter-spacing:-0.004012067645818963em">r</tspan><tspan x="31.28" y="0" style="letter-spacing:0.004012067645818963em">o</tspan><tspan x="42.63" y="0" style="letter-spacing:-0.02496984205884696em">-</tspan><tspan x="48.32" y="0" style="letter-spacing:-0.016998497130969816em">c</tspan><tspan x="58.28" y="0" style="letter-spacing:0.028981909704665923em">li</tspan><tspan x="69.62" y="0" style="letter-spacing:0.03304676771424566em">m</tspan><tspan x="86.65" y="0" style="letter-spacing:0.05896683632078659em">a</tspan><tspan x="98.01" y="0" style="letter-spacing:-0.02496984205884696em">t</tspan><tspan x="103.7" y="0" style="letter-spacing:0.028981909704665923em">i</tspan><tspan x="109.37" y="0" style="letter-spacing:-0.016998497130969816em">c</tspan><tspan x="119.33" y="0" style="letter-spacing:0.029034700068426702em"> </tspan><tspan x="125" y="0" style="letter-spacing:0.038009061907758594em">z</tspan><tspan x="134.93" y="0" style="letter-spacing:0.004012067645818963em">on</tspan><tspan x="157.65" y="0">e</tspan></text><text transform="translate(215.8 135.34)" style="font-size:18.471540451049805px;font-family:Arial-BoldMT, Arial;font-weight:700"><tspan style="letter-spacing:-0.028981909704665923em">R</tspan><tspan x="12.8" y="0" style="letter-spacing:0.05896683632078659em">e</tspan><tspan x="24.17" y="0" style="letter-spacing:0.004012067645818963em">g</tspan><tspan x="35.52" y="0" style="letter-spacing:0.028981909704665923em">i</tspan><tspan x="41.19" y="0" style="letter-spacing:0.004012067645818963em">o</tspan><tspan x="52.55" y="0">n</tspan></text><text transform="translate(323.94 135.34)" style="font-size:18.471540451049805px;font-family:Arial-BoldMT, Arial;font-weight:700"><tspan style="letter-spacing:-0.028981909704665923em">A</tspan><tspan x="12.8" y="0" style="letter-spacing:0.0039592772820581865em">u</tspan><tspan x="24.16" y="0">g</tspan></text><text transform="translate(389.41 135.34)" style="font-size:18.471540451049805px;font-family:Arial-BoldMT, Arial;font-weight:700"><tspan style="letter-spacing:0.02496984205884696em">S</tspan><tspan x="12.78" y="0" style="letter-spacing:0.05901962668454737em">e</tspan><tspan x="24.14" y="0">p</tspan></text><text transform="translate(457.7 135.34)" style="font-size:18.471540451049805px;font-family:Arial-BoldMT, Arial;font-weight:700"><tspan style="letter-spacing:-0.007971344927877148em">O</tspan><tspan x="14.22" y="0" style="letter-spacing:-0.016998497130969816em">c</tspan><tspan x="24.18" y="0">t</tspan></text><text transform="translate(521.73 135.34)" style="font-size:18.471540451049805px;font-family:Arial-BoldMT, Arial;font-weight:700;letter-spacing:-0.028981909704665923em">N<tspan x="12.8" y="0" style="letter-spacing:0.0039592772820581865em">o</tspan><tspan x="24.16" y="0" style="letter-spacing:0.000052790363760775815em">v</tspan></text><text transform="translate(587.2 135.34)" style="font-size:18.471540451049805px;font-family:Arial-BoldMT, Arial;font-weight:700"><tspan style="letter-spacing:-0.028981909704665923em">D</tspan><tspan x="12.8" y="0" style="letter-spacing:0.05896683632078659em">e</tspan><tspan x="24.17" y="0">c</tspan></text><text transform="translate(652.65 135.34)" style="font-size:18.471540451049805px;font-family:Arial-BoldMT, Arial;font-weight:700"><tspan style="letter-spacing:-0.016998497130969816em">J</tspan><tspan x="9.96" y="0" style="letter-spacing:0.05901962668454737em">a</tspan><tspan x="21.32" y="0">n</tspan></text><text transform="translate(718.11 135.34)" style="font-size:18.471540451049805px;font-family:Arial-BoldMT, Arial;font-weight:700"><tspan style="letter-spacing:0.004012067645818963em">F</tspan><tspan x="11.36" y="0" style="letter-spacing:0.05901962668454737em">e</tspan><tspan x="22.72" y="0">b</tspan></text><text transform="translate(783.57 135.34)" style="font-size:18.471540451049805px;font-family:Arial-BoldMT, Arial;font-weight:700;letter-spacing:0.012986429485150853em">M<tspan x="15.63" y="0" style="letter-spacing:0.05901962668454737em">a</tspan><tspan x="26.99" y="0" style="letter-spacing:-0.000052790363760775815em">r</tspan></text><text transform="translate(850.45 135.34)" style="font-size:18.471540451049805px;font-family:Arial-BoldMT, Arial;font-weight:700"><tspan style="letter-spacing:-0.028981909704665923em">A</tspan><tspan x="12.8" y="0" style="letter-spacing:0.0039592772820581865em">p</tspan><tspan x="24.16" y="0">r</tspan></text></g><g style="clip-path:url(#clip-path)"><text transform="translate(73.49 199.28)" style="font-size:18.471540451049805px;font-family:Arial-BoldMT, Arial;font-weight:700"><tspan style="letter-spacing:-0.007971344927877148em">G</tspan><tspan x="14.22" y="0" style="letter-spacing:0.02496984205884696em">P</tspan><tspan x="27" y="0">H</tspan></text><text transform="translate(202.99 199.28)" style="font-size:18.471540451049805px;font-family:Arial-BoldMT, Arial;font-weight:700"><tspan style="letter-spacing:-0.028981909704665923em">R</tspan><tspan x="12.8" y="0" style="letter-spacing:-0.02502263242260774em">-</tspan><tspan x="18.49" y="0" style="letter-spacing:-0.016998497130969816em">2</tspan><tspan x="28.45" y="0" style="letter-spacing:0.028981909704665923em">, </tspan><tspan x="39.79" y="0" style="letter-spacing:-0.029034700068426702em">R</tspan><tspan x="52.59" y="0" style="letter-spacing:-0.02496984205884696em">-</tspan><tspan x="58.28" y="0">6</tspan></text></g><g style="clip-path:url(#clip-path-4)"><text transform="translate(3.76 243.33)" style="font-size:15.629779815673828px;font-family:ArialMT, Arial"><tspan style="letter-spacing:-0.08497320859555704em">N</tspan><tspan x="9.96" y="0" style="letter-spacing:-0.009982168410638124em">o</tspan><tspan x="18.5" y="0" style="letter-spacing:-0.004991084205319062em">t</tspan><tspan x="22.76" y="0" style="letter-spacing:-0.009982168410638124em">e</tspan><tspan x="31.3" y="0" style="letter-spacing:-0.004991084205319062em">:</tspan><tspan x="35.56" y="0"> </tspan></text><text transform="translate(43.6 243.33)" style="font-size:15.629779815673828px;font-family:Arial-BoldMT, Arial;font-weight:700"><tspan style="letter-spacing:-0.050035619158323615em">G</tspan><tspan x="11.38" y="0" style="letter-spacing:-0.030008893784480864em">P</tspan><tspan x="21.33" y="0">H</tspan></text><text transform="translate(74.92 243.33)" style="font-size:15.629779815673828px;font-family:ArialMT, Arial"><tspan style="letter-spacing:-0.004991084205319062em"> </tspan><tspan x="4.26" y="0" style="letter-spacing:-0.050035619158323615em">G</tspan><tspan x="15.64" y="0" style="letter-spacing:-0.009982168410638124em">u</tspan><tspan x="24.18" y="0" style="letter-spacing:-0.03999106219511899em">j</tspan><tspan x="27.02" y="0" style="letter-spacing:-0.009982168410638124em">a</tspan><tspan x="35.56" y="0" style="letter-spacing:0.030008893784480864em">r</tspan><tspan x="41.23" y="0" style="letter-spacing:-0.009982168410638124em">a</tspan><tspan x="49.77" y="0" style="letter-spacing:-0.004991084205319062em">t </tspan><tspan x="58.3" y="0" style="letter-spacing:-0.12103379197898728em">P</tspan><tspan x="66.83" y="0" style="letter-spacing:-0.03999106219511899em">l</tspan><tspan x="69.68" y="0" style="letter-spacing:-0.009982168410638124em">a</tspan><tspan x="78.22" y="0" style="letter-spacing:-0.03999106219511899em">i</tspan><tspan x="81.06" y="0" style="letter-spacing:-0.009982168410638124em">n</tspan><tspan x="89.6" y="0" style="letter-spacing:0.04504453495300454em">s</tspan><tspan x="98.12" y="0" style="letter-spacing:-0.004991084205319062em"> </tspan><tspan x="102.38" y="0" style="letter-spacing:-0.009982168410638124em">and</tspan><tspan x="127.99" y="0" style="letter-spacing:-0.004991084205319062em"> </tspan><tspan x="132.25" y="0" style="letter-spacing:-0.08497320859555704em">H</tspan><tspan x="142.21" y="0" style="letter-spacing:-0.03999106219511899em">ill</tspan><tspan x="150.76" y="0">s</tspan></text></g><g style="clip-path:url(#clip-path-5)"><text transform="translate(615.65 197.86)" style="font-size:18.471540451049805px;fill:#fff;font-family:Arial-BoldMT, Arial;font-weight:700"><tspan style="letter-spacing:-0.028981909704665923em">R</tspan><tspan x="12.8" y="0" style="letter-spacing:0.05896683632078659em">a</tspan><tspan x="24.17" y="0" style="letter-spacing:0.004012067645818963em">b</tspan><tspan x="35.52" y="0">i</tspan></text></g><g style="clip-path:url(#clip-path-6)"><polyline points="0.92 95.56 0.92 96.99 898.83 96.99 898.83 95.56 0.92 95.56" style="fill:#bfbfbf;fill-rule:evenodd"/><polyline points="0.92 159.5 0.92 160.93 898.83 160.93 898.83 159.5 0.92 159.5" style="fill:#bfbfbf;fill-rule:evenodd"/><polyline points="-0.5 95.56 -0.5 224.87 0.92 224.87 0.92 95.56 -0.5 95.56" style="fill:#bfbfbf;fill-rule:evenodd"/><polyline points="0.92 223.44 0.92 224.87 898.83 224.87 898.83 223.44 0.92 223.44" style="fill:#bfbfbf;fill-rule:evenodd"/><polyline points="897.4 96.99 897.4 224.87 898.83 224.87 898.83 96.99 897.4 96.99" style="fill:#bfbfbf;fill-rule:evenodd"/><polyline points="-0.5 224.87 -0.5 256.13 0.92 256.13 0.92 224.87 -0.5 224.87" style="fill:#fff;fill-rule:evenodd"/><polyline points="185.91 96.99 185.91 224.87 187.33 224.87 187.33 96.99 185.91 96.99" style="fill:#bfbfbf;fill-rule:evenodd"/><polyline points="308.29 96.99 308.29 224.87 309.71 224.87 309.71 96.99 308.29 96.99" style="fill:#bfbfbf;fill-rule:evenodd"/><polyline points="373.74 96.99 373.74 160.93 375.17 160.93 375.17 96.99 373.74 96.99" style="fill:#bfbfbf;fill-rule:evenodd"/><polyline points="439.2 96.99 439.2 224.87 440.62 224.87 440.62 96.99 439.2 96.99" style="fill:#bfbfbf;fill-rule:evenodd"/><polyline points="504.66 96.99 504.66 224.87 506.08 224.87 506.08 96.99 504.66 96.99" style="fill:#bfbfbf;fill-rule:evenodd"/><polyline points="570.12 96.99 570.12 160.93 571.54 160.93 571.54 96.99 570.12 96.99" style="fill:#bfbfbf;fill-rule:evenodd"/><polyline points="635.57 96.99 635.57 160.93 637 160.93 637 96.99 635.57 96.99" style="fill:#bfbfbf;fill-rule:evenodd"/><polyline points="701.03 96.99 701.03 160.93 702.45 160.93 702.45 96.99 701.03 96.99" style="fill:#bfbfbf;fill-rule:evenodd"/><polyline points="766.49 96.99 766.49 224.87 767.91 224.87 767.91 96.99 766.49 96.99" style="fill:#bfbfbf;fill-rule:evenodd"/><polyline points="831.95 96.99 831.95 224.87 833.37 224.87 833.37 96.99 831.95 96.99" style="fill:#bfbfbf;fill-rule:evenodd"/><polyline points="897.4 224.87 897.4 256.13 898.83 256.13 898.83 224.87 897.4 224.87" style="fill:#fff;fill-rule:evenodd"/><polyline points="898.83 95.56 898.83 96.99 900.25 96.99 900.25 95.56 898.83 95.56" style="fill:#d4d4d4;fill-rule:evenodd"/><polyline points="898.83 159.5 898.83 160.93 900.25 160.93 900.25 159.5 898.83 159.5" style="fill:#d4d4d4;fill-rule:evenodd"/><polyline points="898.83 223.44 898.83 224.87 900.25 224.87 900.25 223.44 898.83 223.44" style="fill:#d4d4d4;fill-rule:evenodd"/><polyline points="-0.5 253.28 -0.5 254.71 900.25 254.71 900.25 253.28 -0.5 253.28" style="fill:#fff;fill-rule:evenodd"/></g></svg>