<svg id="Layer_1" data-name="Layer 1" xmlns="http://www.w3.org/2000/svg" xmlns:xlink="http://www.w3.org/1999/xlink" viewBox="0 0 900 350"><defs><clipPath id="clip-path"><polygon points="2.29 345.09 896.87 345.09 896.87 4.91 2.29 4.91 2.29 345.09 2.29 345.09" style="fill:none;clip-rule:evenodd"/></clipPath><clipPath id="clip-path-2"><polygon points="88.49 309.15 877.94 309.15 877.94 29.88 88.49 29.88 88.49 309.15 88.49 309.15" style="fill:none;clip-rule:evenodd"/></clipPath><clipPath id="clip-path-7"><rect x="2.29" y="4.91" width="894.57" height="340.18" style="fill:none"/></clipPath><clipPath id="clip-path-12"><rect x="523.14" y="47.37" width="317.28" height="22.9" style="fill:none"/></clipPath></defs><title>yar</title><polygon points="2.29 4.91 896.87 4.91 896.87 345.09 2.29 345.09 2.29 4.91 2.29 4.91" style="fill:#eaeaea;fill-rule:evenodd"/><polygon points="88.65 30.04 876.99 30.04 876.99 308.19 88.65 308.19 88.65 30.04 88.65 30.04" style="fill:#fff;fill-rule:evenodd"/><path d="M88.65,308.19H877M88.65,221.36H877m-788.34-87H877m-788.34-87H877" style="fill:none;stroke:#d9d9d9;stroke-linejoin:round;stroke-width:0.954212853362932px"/><g style="clip-path:url(#clip-path)"><path d="M88.65,30V308.19M482.74,30V308.19M877,30V308.19" style="fill:none;stroke:#d9d9d9;stroke-linejoin:round;stroke-width:0.954212853362932px"/></g><g style="clip-path:url(#clip-path-2)"><path d="M206.81,278.45H364.58v4.93H206.81v-4.93Zm394.25,0H758.67v7.48H601.06v-7.48Z" style="fill:#ff25f3"/></g><g style="clip-path:url(#clip-path-2)"><path d="M206.81,79.66H364.58V278.45H206.81V79.66Zm394.25,0H758.67V278.45H601.06V79.66Z" style="fill:#5e9fff"/></g><g style="clip-path:url(#clip-path-2)"><path d="M206.81,74.73H364.58v4.93H206.81V74.73Zm394.25-2.55H758.67v7.48H601.06V72.18Z" style="fill:#04f"/></g><g style="clip-path:url(#clip-path)"><line x1="88.65" y1="278.45" x2="876.99" y2="278.45" style="fill:none;stroke:#d9d9d9;stroke-linejoin:round;stroke-width:0.954212853362932px"/></g><g style="clip-path:url(#clip-path)"><path d="M88.65,278.45v3.66m394.09-3.66v3.66M877,278.45v3.66" style="fill:none;stroke:#d9d9d9;stroke-linejoin:round;stroke-width:0.954212853362932px"/></g><g style="clip-path:url(#clip-path-7)"><text transform="translate(265.02 298.95)" style="font-size:11.92765998840332px;font-family:ArialMT, Arial">-</text></g><g style="clip-path:url(#clip-path-7)"><text transform="translate(269 298.95)" style="font-size:11.92765998840332px;font-family:ArialMT, Arial"><tspan style="letter-spacing:0.0029474557485861183em">2</tspan><tspan x="6.67" y="0" style="letter-spacing:0.002046844269851471em">.</tspan><tspan x="10.01" y="0" style="letter-spacing:0.003029329519380177em">34</tspan><tspan x="23.35" y="0">%</tspan></text></g><g style="clip-path:url(#clip-path-7)"><text transform="translate(664.21 299.14)" style="font-size:11.92765998840332px;font-family:ArialMT, Arial">-</text></g><g style="clip-path:url(#clip-path-7)"><text transform="translate(668.18 299.14)" style="font-size:11.92765998840332px;font-family:ArialMT, Arial"><tspan style="letter-spacing:0.0029474557485861183em">3</tspan><tspan x="6.67" y="0" style="letter-spacing:0.002046844269851471em">.</tspan><tspan x="10.01" y="0" style="letter-spacing:0.003029329519380177em">76</tspan><tspan x="23.35" y="0">%</tspan></text></g><g style="clip-path:url(#clip-path-7)"><text transform="translate(263.17 66.25)" style="font-size:13.199950218200684px;font-family:ArialMT, Arial"><tspan style="letter-spacing:-0.005030795488034196em">+</tspan><tspan x="7.64" y="0" style="letter-spacing:-0.0009617697256535964em">2</tspan><tspan x="14.97" y="0">.</tspan><tspan x="18.64" y="0" style="letter-spacing:-0.0009617697256535964em">34</tspan><tspan x="33.29" y="0" style="letter-spacing:-0.00007398228658873817em">%</tspan></text></g><g style="clip-path:url(#clip-path-12)"><text transform="translate(659.14 63.65)" style="font-size:13.199950218200684px;font-family:ArialMT, Arial"><tspan style="letter-spacing:-0.005030795488034196em">+</tspan><tspan x="7.64" y="0" style="letter-spacing:-0.0009617697256535964em">3</tspan><tspan x="14.97" y="0">.</tspan><tspan x="18.64" y="0" style="letter-spacing:-0.0009617697256535964em">76</tspan><tspan x="33.29" y="0" style="letter-spacing:-0.00007398228658873817em">%</tspan></text></g><g style="clip-path:url(#clip-path-7)"><text transform="translate(51.13 312.06)" style="font-size:11.92765998840332px;font-family:ArialMT, Arial">-<tspan x="3.97" y="0" style="letter-spacing:0.003029329519380177em">0</tspan><tspan x="10.64" y="0" style="letter-spacing:0.002046844269851471em">.</tspan><tspan x="13.98" y="0" style="letter-spacing:-0.009087988558140532em">1</tspan><tspan x="20.5" y="0">2</tspan></text></g><g style="clip-path:url(#clip-path-7)"><text transform="translate(55.11 225.12)" style="font-size:11.92765998840332px;font-family:ArialMT, Arial"><tspan style="letter-spacing:0.0029474557485861183em">0</tspan><tspan x="6.67" y="0" style="letter-spacing:0.002046844269851471em">.</tspan><tspan x="10.01" y="0" style="letter-spacing:-0.009006114787346472em">2</tspan><tspan x="16.53" y="0">3</tspan></text></g><g style="clip-path:url(#clip-path-7)"><text transform="translate(55.11 138.17)" style="font-size:11.92765998840332px;font-family:ArialMT, Arial"><tspan style="letter-spacing:0.0029474557485861183em">0</tspan><tspan x="6.67" y="0" style="letter-spacing:0.002046844269851471em">.</tspan><tspan x="10.01" y="0" style="letter-spacing:-0.009006114787346472em">5</tspan><tspan x="16.53" y="0">8</tspan></text></g><g style="clip-path:url(#clip-path-7)"><text transform="translate(55.11 51.21)" style="font-size:11.92765998840332px;font-family:ArialMT, Arial"><tspan style="letter-spacing:0.0029474557485861183em">0</tspan><tspan x="6.67" y="0" style="letter-spacing:0.002046844269851471em">.</tspan><tspan x="10.01" y="0" style="letter-spacing:-0.009006114787346472em">9</tspan><tspan x="16.53" y="0">3</tspan></text></g><g style="clip-path:url(#clip-path-7)"><text transform="translate(276.07 326.28)" style="font-size:11.92765998840332px;font-family:ArialMT, Arial"><tspan style="letter-spacing:-0.001964970499057412em">R</tspan><tspan x="8.59" y="0">-2</tspan></text></g><g style="clip-path:url(#clip-path-7)"><text transform="translate(670.26 326.28)" style="font-size:11.92765998840332px;font-family:ArialMT, Arial"><tspan style="letter-spacing:-0.002046844269851471em">R</tspan><tspan x="8.59" y="0">-6</tspan></text></g><g style="clip-path:url(#clip-path-7)"><text transform="translate(27.89 234.41) rotate(-90)" style="font-size:13.199950218200684px;font-family:Arial-BoldMT, Arial;font-weight:700"><tspan style="letter-spacing:0.004956813201445457em">Q</tspan><tspan x="10.33" y="0" style="letter-spacing:0.002959291463549527em">u</tspan><tspan x="18.44" y="0" style="letter-spacing:-0.0009617697256535964em">a</tspan><tspan x="25.76" y="0" style="letter-spacing:0.002959291463549527em">n</tspan><tspan x="33.87" y="0" style="letter-spacing:0.0040690257623806em">t</tspan><tspan x="38.32" y="0">i</tspan><tspan x="41.98" y="0" style="letter-spacing:0.003995043475791862em">t</tspan><tspan x="46.43" y="0" style="letter-spacing:-0.01294690015302918em">y</tspan><tspan x="53.6" y="0" style="letter-spacing:0.011023360701721989em"> </tspan><tspan x="57.41" y="0">&amp; </tspan><tspan x="70.61" y="0" style="letter-spacing:0.006954334939341389em">Y</tspan><tspan x="79.51" y="0" style="letter-spacing:-0.0009617697256535964em">a</tspan><tspan x="86.84" y="0">R</tspan><tspan x="96.37" y="0" style="letter-spacing:0.011023360701721989em"> </tspan><tspan x="100.18" y="0" style="letter-spacing:0.003995043475791862em">(</tspan><tspan x="104.63" y="0" style="letter-spacing:0.02197273911685524em">M</tspan><tspan x="115.92" y="0" style="letter-spacing:0.01501840417751385em">T</tspan><tspan x="124.18" y="0">)</tspan></text></g><g style="clip-path:url(#clip-path-7)"><text transform="translate(420.83 338.82)" style="font-size:13.199950218200684px;font-family:Arial-BoldMT, Arial;font-weight:700">R<tspan x="9.53" y="0" style="letter-spacing:-0.0009617697256535964em">e</tspan><tspan x="16.86" y="0" style="letter-spacing:0.002959291463549527em">g</tspan><tspan x="24.96" y="0" style="letter-spacing:0.00007398228658873817em">i</tspan><tspan x="28.63" y="0" style="letter-spacing:0.002959291463549527em">on</tspan><tspan x="44.84" y="0">s</tspan></text></g><polygon points="2.29 4.91 896.87 4.91 896.87 345.09 2.29 345.09 2.29 4.91 2.29 4.91" style="fill:none;stroke:#d9d9d9;stroke-linejoin:round;stroke-width:0.954212932356711px"/></svg>