<svg id="Layer_1" data-name="Layer 1" xmlns="http://www.w3.org/2000/svg" xmlns:xlink="http://www.w3.org/1999/xlink" viewBox="0 0 900 350"><defs><clipPath id="clip-path"><polygon points="8.07 347.04 891.8 347.04 891.8 4.15 8.07 4.15 8.07 347.04 8.07 347.04" style="fill:none;clip-rule:evenodd"/></clipPath><clipPath id="clip-path-2"><polygon points="94.13 302.87 866.64 302.87 866.64 21.55 94.13 21.55 94.13 302.87 94.13 302.87" style="fill:none;clip-rule:evenodd"/></clipPath><clipPath id="clip-path-13"><rect x="8.07" y="4.15" width="883.73" height="342.89" style="fill:none"/></clipPath></defs><title>Ground-Truth</title><polygon points="8.2 4.28 891.93 4.28 891.93 347.17 8.2 347.17 8.2 4.28 8.2 4.28" style="fill:#eaeaea;fill-rule:evenodd"/><polygon points="94.26 21.55 865.83 21.55 865.83 302.07 94.26 302.07 94.26 21.55 94.26 21.55" style="fill:#fff;fill-rule:evenodd"/><path d="M94.26,231.94H865.83M94.26,161.81H865.83M94.26,91.68H865.83M94.26,21.55H865.83" style="fill:none;stroke:#d9d9d9;stroke-linejoin:round;stroke-width:0.803024337484872px"/><g style="clip-path:url(#clip-path)"><path d="M94.26,21.55V302.07M351.36,21.55V302.07M608.6,21.55V302.07M865.83,21.55V302.07" style="fill:none;stroke:#d9d9d9;stroke-linejoin:round;stroke-width:0.803024337484872px"/></g><g style="clip-path:url(#clip-path-2)"><polygon points="173.36 77.63 272.26 77.63 272.26 302.07 173.36 302.07 173.36 77.63 173.36 77.63" style="fill:#5e9fff;fill-rule:evenodd"/><polygon points="173.36 77.63 272.26 77.63 272.26 302.07 173.36 302.07 173.36 77.63 173.36 77.63" style="fill:none;stroke:#7f7f7f;stroke-linejoin:round;stroke-width:0.803024337484872px"/><polygon points="430.59 74.81 529.5 74.81 529.5 302.07 430.59 302.07 430.59 74.81 430.59 74.81" style="fill:#5e9fff;fill-rule:evenodd"/><polygon points="430.59 74.81 529.5 74.81 529.5 302.07 430.59 302.07 430.59 74.81 430.59 74.81" style="fill:none;stroke:#7f7f7f;stroke-linejoin:round;stroke-width:0.803024337484872px"/><polygon points="687.7 72 786.74 72 786.74 302.07 687.7 302.07 687.7 72 687.7 72" style="fill:#5e9fff;fill-rule:evenodd"/><polygon points="687.7 72 786.74 72 786.74 302.07 687.7 302.07 687.7 72 687.7 72" style="fill:none;stroke:#7f7f7f;stroke-linejoin:round;stroke-width:0.803024337484872px"/></g><g style="clip-path:url(#clip-path)"><line x1="94.26" y1="302.07" x2="865.83" y2="302.07" style="fill:none;stroke:#d9d9d9;stroke-linejoin:round;stroke-width:0.803024337484872px"/></g><g style="clip-path:url(#clip-path)"><path d="M94.26,302.07v3.08m257.1-3.08v3.08m257.24-3.08v3.08m257.23-3.08v3.08" style="fill:none;stroke:#d9d9d9;stroke-linejoin:round;stroke-width:0.803024337484872px"/></g><g style="clip-path:url(#clip-path-2)"><polyline points="222.88 32.79 479.98 32.79 737.22 32.79" style="fill:none;stroke:#06f;stroke-miterlimit:10;stroke-width:1.338px;stroke-dasharray:5,5"/></g><g style="clip-path:url(#clip-path)"><path d="M225.65,32.74a2.81,2.81,0,1,1-2.81-2.81,2.81,2.81,0,0,1,2.81,2.81Z" style="fill:#2935e8"/><path d="M225.65,32.74a2.81,2.81,0,1,1-2.81-2.81,2.81,2.81,0,0,1,2.81,2.81Z" style="fill:none;stroke:#2935e8;stroke-linejoin:round;stroke-width:0.803024403962626px"/><path d="M482.75,32.74a2.81,2.81,0,1,1-2.81-2.81,2.81,2.81,0,0,1,2.81,2.81Z" style="fill:#2935e8"/><path d="M482.75,32.74a2.81,2.81,0,1,1-2.81-2.81,2.81,2.81,0,0,1,2.81,2.81Z" style="fill:none;stroke:#2935e8;stroke-linejoin:round;stroke-width:0.803024403962626px"/><path d="M740,32.74a2.81,2.81,0,1,1-2.81-2.81A2.81,2.81,0,0,1,740,32.74Z" style="fill:#2935e8"/><path d="M740,32.74a2.81,2.81,0,1,1-2.81-2.81A2.81,2.81,0,0,1,740,32.74Z" style="fill:none;stroke:#2935e8;stroke-linejoin:round;stroke-width:0.803024403962626px"/></g><g style="clip-path:url(#clip-path-2)"><polyline points="222.88 125.41 479.98 125.41 737.22 125.41" style="fill:none;stroke:#ff25f3;stroke-miterlimit:10;stroke-width:1.338px;stroke-dasharray:5,5"/></g><g style="clip-path:url(#clip-path)"><path d="M225.65,125.36a2.81,2.81,0,1,1-2.81-2.81,2.81,2.81,0,0,1,2.81,2.81Z" style="fill:#ff25f3"/><path d="M482.75,125.36a2.81,2.81,0,1,1-2.81-2.81,2.81,2.81,0,0,1,2.81,2.81Z" style="fill:#ff25f3"/><path d="M740,125.36a2.81,2.81,0,1,1-2.81-2.81,2.81,2.81,0,0,1,2.81,2.81Z" style="fill:#ff25f3"/></g><g style="clip-path:url(#clip-path-2)"><polyline points="222.88 63.57 479.98 63.57 737.22 63.57" style="fill:none;stroke:#7f7f7f;stroke-linecap:round;stroke-linejoin:round;stroke-width:1.33837387364887px"/></g><g style="clip-path:url(#clip-path)"><path d="M225.65,63.52a2.81,2.81,0,1,1-2.81-2.81,2.81,2.81,0,0,1,2.81,2.81Z" style="fill:#7f7f7f"/><path d="M225.65,63.52a2.81,2.81,0,1,1-2.81-2.81,2.81,2.81,0,0,1,2.81,2.81Z" style="fill:none;stroke:#7f7f7f;stroke-linejoin:round;stroke-width:0.803024403962626px"/><path d="M482.75,63.52a2.81,2.81,0,1,1-2.81-2.81,2.81,2.81,0,0,1,2.81,2.81Z" style="fill:#7f7f7f"/><path d="M482.75,63.52a2.81,2.81,0,1,1-2.81-2.81,2.81,2.81,0,0,1,2.81,2.81Z" style="fill:none;stroke:#7f7f7f;stroke-linejoin:round;stroke-width:0.803024403962626px"/><path d="M740,63.52a2.81,2.81,0,1,1-2.81-2.81A2.81,2.81,0,0,1,740,63.52Z" style="fill:#7f7f7f"/><path d="M740,63.52a2.81,2.81,0,1,1-2.81-2.81A2.81,2.81,0,0,1,740,63.52Z" style="fill:none;stroke:#7f7f7f;stroke-linejoin:round;stroke-width:0.803024403962626px"/></g><g style="clip-path:url(#clip-path-2)"><polyline points="222.88 77.63 479.98 77.63 737.22 77.63" style="fill:none;stroke:#00c1a3;stroke-linecap:round;stroke-linejoin:round;stroke-width:1.33837387364887px"/></g><g style="clip-path:url(#clip-path)"><path d="M225.65,77.58a2.81,2.81,0,1,1-2.81-2.81,2.81,2.81,0,0,1,2.81,2.81Z" style="fill:#00c1a3"/><path d="M225.65,77.58a2.81,2.81,0,1,1-2.81-2.81,2.81,2.81,0,0,1,2.81,2.81Z" style="fill:none;stroke:#c0fff5;stroke-linejoin:round;stroke-width:0.803024403962626px"/><path d="M482.75,77.58a2.81,2.81,0,1,1-2.81-2.81,2.81,2.81,0,0,1,2.81,2.81Z" style="fill:#00c1a3"/><path d="M482.75,77.58a2.81,2.81,0,1,1-2.81-2.81,2.81,2.81,0,0,1,2.81,2.81Z" style="fill:none;stroke:#c0fff5;stroke-linejoin:round;stroke-width:0.803024403962626px"/><path d="M740,77.58a2.81,2.81,0,1,1-2.81-2.81A2.81,2.81,0,0,1,740,77.58Z" style="fill:#00c1a3"/><path d="M740,77.58a2.81,2.81,0,1,1-2.81-2.81A2.81,2.81,0,0,1,740,77.58Z" style="fill:none;stroke:#c0fff5;stroke-linejoin:round;stroke-width:0.803024403962626px"/></g><g style="clip-path:url(#clip-path-13)"><text transform="translate(60.47 305.3)" style="font-size:10.037799835205078px;font-family:ArialMT, Arial"><tspan style="letter-spacing:0.002918655032076703em">1</tspan><tspan x="5.61" y="0" style="letter-spacing:-0.009047830599437779em">4</tspan><tspan x="11.1" y="0" style="letter-spacing:0.002043058522453692em">.</tspan><tspan x="13.91" y="0" style="letter-spacing:0.002918655032076703em">5</tspan><tspan x="19.53" y="0">0</tspan></text></g><g style="clip-path:url(#clip-path-13)"><text transform="translate(60.47 235.16)" style="font-size:10.037799835205078px;font-family:ArialMT, Arial"><tspan style="letter-spacing:0.002918655032076703em">1</tspan><tspan x="5.61" y="0" style="letter-spacing:-0.009047830599437779em">5</tspan><tspan x="11.1" y="0" style="letter-spacing:0.002043058522453692em">.</tspan><tspan x="13.91" y="0" style="letter-spacing:0.002918655032076703em">0</tspan><tspan x="19.53" y="0">0</tspan></text></g><g style="clip-path:url(#clip-path-13)"><text transform="translate(60.47 165.02)" style="font-size:10.037799835205078px;font-family:ArialMT, Arial"><tspan style="letter-spacing:0.002918655032076703em">1</tspan><tspan x="5.61" y="0" style="letter-spacing:-0.009047830599437779em">5</tspan><tspan x="11.1" y="0" style="letter-spacing:0.002043058522453692em">.</tspan><tspan x="13.91" y="0" style="letter-spacing:0.002918655032076703em">5</tspan><tspan x="19.53" y="0">0</tspan></text></g><g style="clip-path:url(#clip-path-13)"><text transform="translate(60.47 94.88)" style="font-size:10.037799835205078px;font-family:ArialMT, Arial"><tspan style="letter-spacing:0.002918655032076703em">1</tspan><tspan x="5.61" y="0" style="letter-spacing:-0.009047830599437779em">6</tspan><tspan x="11.1" y="0" style="letter-spacing:0.002043058522453692em">.</tspan><tspan x="13.91" y="0" style="letter-spacing:0.002918655032076703em">0</tspan><tspan x="19.53" y="0">0</tspan></text></g><g style="clip-path:url(#clip-path-13)"><text transform="translate(60.47 24.75)" style="font-size:10.037799835205078px;font-family:ArialMT, Arial"><tspan style="letter-spacing:0.002918655032076703em">1</tspan><tspan x="5.61" y="0" style="letter-spacing:-0.009047830599437779em">6</tspan><tspan x="11.1" y="0" style="letter-spacing:0.002043058522453692em">.</tspan><tspan x="13.91" y="0" style="letter-spacing:0.002918655032076703em">5</tspan><tspan x="19.53" y="0">0</tspan></text></g><g style="clip-path:url(#clip-path-13)"><text transform="translate(212.15 317.25)" style="font-size:10.037799835205078px;font-family:ArialMT, Arial">Jul</text></g><g style="clip-path:url(#clip-path-13)"><text transform="translate(467.35 317.25)" style="font-size:10.037799835205078px;font-family:ArialMT, Arial">Aug</text></g><g style="clip-path:url(#clip-path-13)"><text transform="translate(725.55 317.25)" style="font-size:10.037799835205078px;font-family:ArialMT, Arial">Sep</text></g><g style="clip-path:url(#clip-path-13)"><text transform="translate(40.14 158.52) rotate(-90)" style="font-size:11.108499526977539px;font-family:Arial-BoldMT, Arial;font-weight:700"><tspan style="letter-spacing:0.005010943410027347em">Q</tspan><tspan x="8.7" y="0" style="letter-spacing:0.002988983788437365em">u</tspan><tspan x="15.51" y="0" style="letter-spacing:-0.0009670241668473827em">a</tspan><tspan x="21.68" y="0" style="letter-spacing:0.0030768950763325814em">n</tspan><tspan x="28.5" y="0" style="letter-spacing:0.003956007955284747em">t</tspan><tspan x="32.24" y="0" style="letter-spacing:0.00008791128789521661em">i</tspan><tspan x="35.33" y="0" style="letter-spacing:0.003956007955284747em">t</tspan><tspan x="39.07" y="0" style="letter-spacing:-0.013010870608492058em">y</tspan><tspan x="45.11" y="0" style="letter-spacing:0.011076822274797293em"> </tspan><tspan x="48.32" y="0" style="letter-spacing:0.003956007955284747em">(</tspan><tspan x="52.06" y="0" style="letter-spacing:0.021977821973804153em">M</tspan><tspan x="61.56" y="0" style="letter-spacing:0.01503283023008204em">T</tspan><tspan x="68.51" y="0">)</tspan></text></g><g style="clip-path:url(#clip-path-13)"><text transform="translate(390.98 333.65)" style="font-size:11.108499526977539px;font-family:Arial-BoldMT, Arial;font-weight:700"><tspan style="letter-spacing:0.01503283023008204em">T</tspan><tspan x="6.95" y="0">i</tspan><tspan x="10.04" y="0" style="letter-spacing:0.002021959621589982em">m</tspan><tspan x="19.94" y="0" style="letter-spacing:-0.0009670241668473827em">e</tspan><tspan x="26.1" y="0" style="letter-spacing:0.00008791128789521661em"> </tspan><tspan x="29.19" y="0" style="letter-spacing:-0.004043919243179964em">P</tspan><tspan x="36.56" y="0" style="letter-spacing:-0.0009670241668473827em">e</tspan><tspan x="42.72" y="0" style="letter-spacing:-0.002988983788437365em">r</tspan><tspan x="47.01" y="0">i</tspan><tspan x="50.1" y="0" style="letter-spacing:0.0030768950763325814em">o</tspan><tspan x="56.92" y="0">d</tspan></text></g><polygon points="8.2 4.28 891.93 4.28 891.93 347.17 8.2 347.17 8.2 4.28 8.2 4.28" style="fill:none;stroke:#d9d9d9;stroke-linejoin:round;stroke-width:0.803024403962626px"/></svg>