<svg id="Layer_1" data-name="Layer 1" xmlns="http://www.w3.org/2000/svg" xmlns:xlink="http://www.w3.org/1999/xlink" viewBox="0 0 900 350"><defs><clipPath id="clip-path"><polygon points="3.54 348.25 896.33 348.25 896.33 1.62 3.54 1.62 3.54 348.25 3.54 348.25" style="fill:none;clip-rule:evenodd"/></clipPath><clipPath id="clip-path-6"><polygon points="72.13 301.12 885.33 301.12 885.33 10.85 72.13 10.85 72.13 301.12 72.13 301.12" style="fill:none;clip-rule:evenodd"/></clipPath><clipPath id="clip-path-10"><rect x="3.54" y="1.62" width="892.79" height="346.63" style="fill:none"/></clipPath></defs><title>Multispectral</title><polygon points="3.54 1.62 896.46 1.62 896.46 348.38 3.54 348.38 3.54 1.62 3.54 1.62" style="fill:#eaeaea;fill-rule:evenodd"/><polygon points="72.27 10.85 884.51 10.85 884.51 300.3 72.27 300.3 72.27 10.85 72.27 10.85" style="fill:#fff;fill-rule:evenodd"/><path d="M72.26,227.9H884.51M72.26,155.64H884.51M72.26,83.25H884.51M72.26,10.85H884.51" style="fill:none;stroke:#d9d9d9;stroke-linejoin:round;stroke-width:0.814963042832096px"/><g style="clip-path:url(#clip-path)"><path d="M106.09,10.85V300.3M173.86,10.85V300.3M241.51,10.85V300.3M309.15,10.85V300.3M376.92,10.85V300.3M444.57,10.85V300.3M512.21,10.85V300.3M580,10.85V300.3M647.63,10.85V300.3M715.27,10.85V300.3M783.05,10.85V300.3M850.69,10.85V300.3" style="fill:none;stroke:#f2f2f2;stroke-linejoin:round;stroke-width:0.814963042832096px"/></g><g style="clip-path:url(#clip-path)"><path d="M72.26,10.85V300.3M139.91,10.85V300.3M207.68,10.85V300.3M275.33,10.85V300.3M343,10.85V300.3M410.75,10.85V300.3M478.39,10.85V300.3M546,10.85V300.3M613.81,10.85V300.3M681.45,10.85V300.3M749.23,10.85V300.3M816.87,10.85V300.3M884.51,10.85V300.3" style="fill:none;stroke:#d9d9d9;stroke-linejoin:round;stroke-width:0.814963042832096px"/></g><g style="clip-path:url(#clip-path)"><line x1="72.26" y1="300.3" x2="884.51" y2="300.3" style="fill:none;stroke:#d9d9d9;stroke-linejoin:round;stroke-width:1.3582717155648px"/></g><g style="clip-path:url(#clip-path)"><path d="M72.26,300.3v18.34M343,300.3v18.34M613.81,300.3v18.34m270.7-18.34v18.34" style="fill:none;stroke:#d9d9d9;stroke-linejoin:round;stroke-width:1.3582717155648px"/></g><g style="clip-path:url(#clip-path)"><path d="M72.26,318.64V337M343,318.64V337m270.84-18.33V337m270.7-18.33V337" style="fill:none;stroke:#d9d9d9;stroke-linejoin:round;stroke-width:1.3582717155648px"/></g><g style="clip-path:url(#clip-path-6)"><polyline points="106.09 170.04 173.86 132.42 241.5 97.65 309.15 80.26 376.93 68.72 444.57 63.01 512.21 74.56 579.99 97.65 647.63 126.58 715.27 141.11 783.05 155.64 850.69 172.89" style="fill:none;stroke:#ff25f3;stroke-linecap:round;stroke-linejoin:round;stroke-width:2.4448890610302px"/></g><g style="clip-path:url(#clip-path)"><polygon points="103.3 167.22 109 167.22 109 172.93 103.3 172.93 103.3 167.22 103.3 167.22" style="fill:#ff25f3;fill-rule:evenodd"/><polygon points="103.3 167.22 109 167.22 109 172.93 103.3 172.93 103.3 167.22 103.3 167.22" style="fill:none;stroke:#eaeaea;stroke-linejoin:round;stroke-width:0.814963110298186px"/><polygon points="171.07 129.6 176.78 129.6 176.78 135.3 171.07 135.3 171.07 129.6 171.07 129.6" style="fill:#ff25f3;fill-rule:evenodd"/><polygon points="171.07 129.6 176.78 129.6 176.78 135.3 171.07 135.3 171.07 129.6 171.07 129.6" style="fill:none;stroke:#eaeaea;stroke-linejoin:round;stroke-width:0.814963110298186px"/><polygon points="238.72 94.83 244.42 94.83 244.42 100.53 238.72 100.53 238.72 94.83 238.72 94.83" style="fill:#ff25f3;fill-rule:evenodd"/><polygon points="238.72 94.83 244.42 94.83 244.42 100.53 238.72 100.53 238.72 94.83 238.72 94.83" style="fill:none;stroke:#eaeaea;stroke-linejoin:round;stroke-width:0.814963110298186px"/><polygon points="306.36 77.44 312.06 77.44 312.06 83.15 306.36 83.15 306.36 77.44 306.36 77.44" style="fill:#ff25f3;fill-rule:evenodd"/><polygon points="306.36 77.44 312.06 77.44 312.06 83.15 306.36 83.15 306.36 77.44 306.36 77.44" style="fill:none;stroke:#eaeaea;stroke-linejoin:round;stroke-width:0.814963110298186px"/><polygon points="374.14 65.9 379.84 65.9 379.84 71.6 374.14 71.6 374.14 65.9 374.14 65.9" style="fill:#ff25f3;fill-rule:evenodd"/><polygon points="374.14 65.9 379.84 65.9 379.84 71.6 374.14 71.6 374.14 65.9 374.14 65.9" style="fill:none;stroke:#eaeaea;stroke-linejoin:round;stroke-width:0.814963110298186px"/><polygon points="441.78 60.19 447.48 60.19 447.48 65.9 441.78 65.9 441.78 60.19 441.78 60.19" style="fill:#ff25f3;fill-rule:evenodd"/><polygon points="441.78 60.19 447.48 60.19 447.48 65.9 441.78 65.9 441.78 60.19 441.78 60.19" style="fill:none;stroke:#eaeaea;stroke-linejoin:round;stroke-width:0.814963110298186px"/><polygon points="509.42 71.74 515.13 71.74 515.13 77.44 509.42 77.44 509.42 71.74 509.42 71.74" style="fill:#ff25f3;fill-rule:evenodd"/><polygon points="509.42 71.74 515.13 71.74 515.13 77.44 509.42 77.44 509.42 71.74 509.42 71.74" style="fill:none;stroke:#eaeaea;stroke-linejoin:round;stroke-width:0.814963110298186px"/><polygon points="577.2 94.83 582.9 94.83 582.9 100.53 577.2 100.53 577.2 94.83 577.2 94.83" style="fill:#ff25f3;fill-rule:evenodd"/><polygon points="577.2 94.83 582.9 94.83 582.9 100.53 577.2 100.53 577.2 94.83 577.2 94.83" style="fill:none;stroke:#eaeaea;stroke-linejoin:round;stroke-width:0.814963110298186px"/><polygon points="644.84 123.76 650.54 123.76 650.54 129.46 644.84 129.46 644.84 123.76 644.84 123.76" style="fill:#ff25f3;fill-rule:evenodd"/><polygon points="644.84 123.76 650.54 123.76 650.54 129.46 644.84 129.46 644.84 123.76 644.84 123.76" style="fill:none;stroke:#eaeaea;stroke-linejoin:round;stroke-width:0.814963110298186px"/><polygon points="712.48 138.29 718.19 138.29 718.19 144 712.48 144 712.48 138.29 712.48 138.29" style="fill:#ff25f3;fill-rule:evenodd"/><polygon points="712.48 138.29 718.19 138.29 718.19 144 712.48 144 712.48 138.29 712.48 138.29" style="fill:none;stroke:#eaeaea;stroke-linejoin:round;stroke-width:0.814963110298186px"/><polygon points="780.26 152.83 785.97 152.83 785.97 158.53 780.26 158.53 780.26 152.83 780.26 152.83" style="fill:#ff25f3;fill-rule:evenodd"/><polygon points="780.26 152.83 785.97 152.83 785.97 158.53 780.26 158.53 780.26 152.83 780.26 152.83" style="fill:none;stroke:#eaeaea;stroke-linejoin:round;stroke-width:0.814963110298186px"/><polygon points="847.9 170.08 853.61 170.08 853.61 175.78 847.9 175.78 847.9 170.08 847.9 170.08" style="fill:#ff25f3;fill-rule:evenodd"/><polygon points="847.9 170.08 853.61 170.08 853.61 175.78 847.9 175.78 847.9 170.08 847.9 170.08" style="fill:none;stroke:#eaeaea;stroke-linejoin:round;stroke-width:0.814963110298186px"/></g><g style="clip-path:url(#clip-path-6)"><polyline points="106.09 184.58 173.86 149.8 241.5 115.03 309.15 97.65 376.93 86.1 444.57 74.56 512.21 86.1 579.99 97.65 647.63 132.42 715.27 149.8 783.05 164.2 850.69 184.58" style="fill:none;stroke:#06f;stroke-linecap:round;stroke-linejoin:round;stroke-width:2.4448890610302px"/></g><g style="clip-path:url(#clip-path)"><path d="M109,184.61a2.85,2.85,0,1,1-2.85-2.85,2.85,2.85,0,0,1,2.85,2.85Z" style="fill:#06f"/><path d="M109,184.61a2.85,2.85,0,1,1-2.85-2.85,2.85,2.85,0,0,1,2.85,2.85Z" style="fill:none;stroke:#6b77e8;stroke-linejoin:round;stroke-width:0.814963110298186px"/><path d="M176.78,149.84a2.86,2.86,0,1,1-2.85-2.85,2.86,2.86,0,0,1,2.85,2.85Z" style="fill:#06f"/><path d="M176.78,149.84a2.86,2.86,0,1,1-2.85-2.85,2.86,2.86,0,0,1,2.85,2.85Z" style="fill:none;stroke:#6b77e8;stroke-linejoin:round;stroke-width:0.814963110298186px"/><path d="M244.42,115.07a2.85,2.85,0,1,1-2.85-2.86,2.86,2.86,0,0,1,2.85,2.86Z" style="fill:#06f"/><path d="M244.42,115.07a2.85,2.85,0,1,1-2.85-2.86,2.86,2.86,0,0,1,2.85,2.86Z" style="fill:none;stroke:#6b77e8;stroke-linejoin:round;stroke-width:0.814963110298186px"/><path d="M312.06,97.68a2.85,2.85,0,1,1-2.85-2.85,2.84,2.84,0,0,1,2.85,2.85Z" style="fill:#06f"/><path d="M312.06,97.68a2.85,2.85,0,1,1-2.85-2.85,2.84,2.84,0,0,1,2.85,2.85Z" style="fill:none;stroke:#6b77e8;stroke-linejoin:round;stroke-width:0.814963110298186px"/><path d="M379.84,86.13A2.85,2.85,0,1,1,377,83.28a2.86,2.86,0,0,1,2.85,2.85Z" style="fill:#06f"/><path d="M379.84,86.13A2.85,2.85,0,1,1,377,83.28a2.86,2.86,0,0,1,2.85,2.85Z" style="fill:none;stroke:#6b77e8;stroke-linejoin:round;stroke-width:0.814963110298186px"/><path d="M447.48,74.59a2.85,2.85,0,1,1-2.85-2.85,2.85,2.85,0,0,1,2.85,2.85Z" style="fill:#06f"/><path d="M447.48,74.59a2.85,2.85,0,1,1-2.85-2.85,2.85,2.85,0,0,1,2.85,2.85Z" style="fill:none;stroke:#6b77e8;stroke-linejoin:round;stroke-width:0.814963110298186px"/><path d="M515.13,86.13a2.86,2.86,0,1,1-2.86-2.85,2.86,2.86,0,0,1,2.86,2.85Z" style="fill:#06f"/><path d="M515.13,86.13a2.86,2.86,0,1,1-2.86-2.85,2.86,2.86,0,0,1,2.86,2.85Z" style="fill:none;stroke:#6b77e8;stroke-linejoin:round;stroke-width:0.814963110298186px"/><path d="M582.9,97.68a2.85,2.85,0,1,1-2.85-2.85,2.84,2.84,0,0,1,2.85,2.85Z" style="fill:#06f"/><path d="M582.9,97.68a2.85,2.85,0,1,1-2.85-2.85,2.84,2.84,0,0,1,2.85,2.85Z" style="fill:none;stroke:#6b77e8;stroke-linejoin:round;stroke-width:0.814963110298186px"/><path d="M650.54,132.45a2.85,2.85,0,1,1-2.85-2.85,2.84,2.84,0,0,1,2.85,2.85Z" style="fill:#06f"/><path d="M650.54,132.45a2.85,2.85,0,1,1-2.85-2.85,2.84,2.84,0,0,1,2.85,2.85Z" style="fill:none;stroke:#6b77e8;stroke-linejoin:round;stroke-width:0.814963110298186px"/><path d="M718.19,149.84a2.86,2.86,0,1,1-2.86-2.85,2.86,2.86,0,0,1,2.86,2.85Z" style="fill:#06f"/><path d="M718.19,149.84a2.86,2.86,0,1,1-2.86-2.85,2.86,2.86,0,0,1,2.86,2.85Z" style="fill:none;stroke:#6b77e8;stroke-linejoin:round;stroke-width:0.814963110298186px"/><path d="M786,164.24a2.85,2.85,0,1,1-2.85-2.86,2.85,2.85,0,0,1,2.85,2.86Z" style="fill:#06f"/><path d="M786,164.24a2.85,2.85,0,1,1-2.85-2.86,2.85,2.85,0,0,1,2.85,2.86Z" style="fill:none;stroke:#6b77e8;stroke-linejoin:round;stroke-width:0.814963110298186px"/><path d="M853.61,184.61a2.86,2.86,0,1,1-2.86-2.85,2.85,2.85,0,0,1,2.86,2.85Z" style="fill:#06f"/><path d="M853.61,184.61a2.86,2.86,0,1,1-2.86-2.85,2.85,2.85,0,0,1,2.86,2.85Z" style="fill:none;stroke:#6b77e8;stroke-linejoin:round;stroke-width:0.814963110298186px"/></g><g style="clip-path:url(#clip-path-10)"><text transform="translate(43.67 303.55)" style="font-size:10.187040328979492px;font-family:ArialMT, Arial;letter-spacing:0.002971759855890617em">0<tspan x="5.7" y="0" style="letter-spacing:0.0020131276443129988em">.</tspan><tspan x="8.55" y="0" style="letter-spacing:-0.009011142788829613em">0</tspan><tspan x="14.12" y="0" style="letter-spacing:-0.00009586322115776184em">0</tspan></text></g><g style="clip-path:url(#clip-path-10)"><text transform="translate(43.67 231.19)" style="font-size:10.187040328979492px;font-family:ArialMT, Arial;letter-spacing:0.002971759855890617em">0<tspan x="5.7" y="0" style="letter-spacing:0.0020131276443129988em">.</tspan><tspan x="8.55" y="0" style="letter-spacing:-0.009011142788829613em">2</tspan><tspan x="14.12" y="0" style="letter-spacing:-0.00009586322115776184em">5</tspan></text></g><g style="clip-path:url(#clip-path-10)"><text transform="translate(43.67 158.83)" style="font-size:10.187040328979492px;font-family:ArialMT, Arial;letter-spacing:0.002971759855890617em">0<tspan x="5.7" y="0" style="letter-spacing:0.0020131276443129988em">.</tspan><tspan x="8.55" y="0" style="letter-spacing:-0.009011142788829613em">5</tspan><tspan x="14.12" y="0" style="letter-spacing:-0.00009586322115776184em">0</tspan></text></g><g style="clip-path:url(#clip-path-10)"><text transform="translate(43.67 86.46)" style="font-size:10.187040328979492px;font-family:ArialMT, Arial;letter-spacing:0.002971759855890617em">0<tspan x="5.7" y="0" style="letter-spacing:0.0020131276443129988em">.</tspan><tspan x="8.55" y="0" style="letter-spacing:-0.009011142788829613em">7</tspan><tspan x="14.12" y="0" style="letter-spacing:-0.00009586322115776184em">5</tspan></text></g><g style="clip-path:url(#clip-path-10)"><text transform="translate(43.67 14.11)" style="font-size:10.187040328979492px;font-family:ArialMT, Arial;letter-spacing:0.002971759855890617em">1<tspan x="5.7" y="0" style="letter-spacing:0.0020131276443129988em">.</tspan><tspan x="8.55" y="0" style="letter-spacing:-0.009011142788829613em">0</tspan><tspan x="14.12" y="0" style="letter-spacing:-0.00009586322115776184em">0</tspan></text></g><g style="clip-path:url(#clip-path-10)"><text transform="translate(103.27 315.69)" style="font-size:10.187040328979492px;font-family:ArialMT, Arial">1</text></g><g style="clip-path:url(#clip-path-10)"><text transform="translate(170.95 315.69)" style="font-size:10.187040328979492px;font-family:ArialMT, Arial">2</text></g><g style="clip-path:url(#clip-path-10)"><text transform="translate(238.66 315.69)" style="font-size:10.187040328979492px;font-family:ArialMT, Arial">3</text></g><g style="clip-path:url(#clip-path-10)"><text transform="translate(306.34 315.69)" style="font-size:10.187040328979492px;font-family:ArialMT, Arial">4</text></g><g style="clip-path:url(#clip-path-10)"><text transform="translate(374.03 315.69)" style="font-size:10.187040328979492px;font-family:ArialMT, Arial">1</text></g><g style="clip-path:url(#clip-path-10)"><text transform="translate(441.73 315.69)" style="font-size:10.187040328979492px;font-family:ArialMT, Arial">2</text></g><g style="clip-path:url(#clip-path-10)"><text transform="translate(509.41 315.69)" style="font-size:10.187040328979492px;font-family:ArialMT, Arial">3</text></g><g style="clip-path:url(#clip-path-10)"><text transform="translate(577.1 315.69)" style="font-size:10.187040328979492px;font-family:ArialMT, Arial">4</text></g><g style="clip-path:url(#clip-path-10)"><text transform="translate(644.79 315.69)" style="font-size:10.187040328979492px;font-family:ArialMT, Arial">1</text></g><g style="clip-path:url(#clip-path-10)"><text transform="translate(712.49 315.69)" style="font-size:10.187040328979492px;font-family:ArialMT, Arial">2</text></g><g style="clip-path:url(#clip-path-10)"><text transform="translate(780.18 315.69)" style="font-size:10.187040328979492px;font-family:ArialMT, Arial">3</text></g><g style="clip-path:url(#clip-path-10)"><text transform="translate(847.87 315.69)" style="font-size:10.187040328979492px;font-family:ArialMT, Arial">4</text></g><g style="clip-path:url(#clip-path-10)"><text transform="translate(201.13 334.05)" style="font-size:10.187040328979492px;font-family:ArialMT, Arial"><tspan style="letter-spacing:0.005943519711781234em">J</tspan><tspan x="5.15" y="0" style="letter-spacing:-0.009011142788829613em">u</tspan><tspan x="10.73" y="0">l</tspan></text></g><g style="clip-path:url(#clip-path-10)"><text transform="translate(469.33 334.05)" style="font-size:10.187040328979492px;font-family:ArialMT, Arial">A<tspan x="6.79" y="0" style="letter-spacing:0.002971759855890617em">u</tspan><tspan x="12.49" y="0" style="letter-spacing:-0.00009586322115776184em">g</tspan></text></g><g style="clip-path:url(#clip-path-10)"><text transform="translate(740.1 334.05)" style="font-size:10.187040328979492px;font-family:ArialMT, Arial">S<tspan x="6.79" y="0" style="letter-spacing:0.002971759855890617em">e</tspan><tspan x="12.49" y="0" style="letter-spacing:-0.00009586322115776184em">p</tspan></text></g><g style="clip-path:url(#clip-path-10)"><text transform="translate(27.81 197.4) rotate(-90)" style="font-size:11.273659706115723px;font-family:Arial-BoldMT, Arial;font-weight:700">ND<tspan x="16.28" y="0" style="letter-spacing:-0.00407129882367312em">V</tspan><tspan x="23.76" y="0" style="letter-spacing:0.00008662337922708767em">I</tspan><tspan x="26.89" y="0" style="letter-spacing:0.011001169161840135em"> </tspan><tspan x="30.15" y="0"> </tspan><tspan x="33.28" y="0" style="letter-spacing:-0.003984675444446033em">V</tspan><tspan x="40.75" y="0" style="letter-spacing:-0.0009528571714979644em">a</tspan><tspan x="47.01" y="0">l</tspan><tspan x="50.14" y="0" style="letter-spacing:0.0030318182729480686em">u</tspan><tspan x="57.06" y="0">e</tspan></text></g><g style="clip-path:url(#clip-path-10)"><text transform="translate(429.58 336.88)" style="font-size:11.273659706115723px;font-family:Arial-BoldMT, Arial;font-weight:700;letter-spacing:0.007016493717394101em">W<tspan x="10.72" y="0" style="letter-spacing:-0.0009528571714979644em">ee</tspan><tspan x="23.24" y="0" style="letter-spacing:0.00008662337922708767em">k</tspan></text></g><polygon points="3.54 1.62 896.46 1.62 896.46 348.38 3.54 348.38 3.54 1.62 3.54 1.62" style="fill:none;stroke:#d9d9d9;stroke-linejoin:round;stroke-width:0.814963110298186px"/></svg>