<svg id="Layer_1" data-name="Layer 1" xmlns="http://www.w3.org/2000/svg" xmlns:xlink="http://www.w3.org/1999/xlink" viewBox="0 0 900 350"><defs><style>.cls-1,.cls-10,.cls-11,.cls-12,.cls-13,.cls-14,.cls-2,.cls-3,.cls-6,.cls-65,.cls-9{fill:none;}.cls-1{clip-rule:evenodd;}.cls-2,.cls-4,.cls-5{fill-rule:evenodd;}.cls-4{fill:#eaeaea;}.cls-5{fill:#fff;}.cls-6,.cls-65{stroke:#d9d9d9;}.cls-10,.cls-11,.cls-12,.cls-13,.cls-14,.cls-6,.cls-65,.cls-9{stroke-linejoin:round;}.cls-6{stroke-width:0.81px;}.cls-7{clip-path:url(#clip-path);}.cls-8{clip-path:url(#clip-path-3);}.cls-9{stroke:#2935e8;}.cls-10,.cls-11,.cls-12,.cls-13,.cls-14,.cls-9{stroke-linecap:round;stroke-width:2.43px;}.cls-10{stroke:#5964cc;}.cls-11{stroke:#7e8ad1;}.cls-12{stroke:#9264cb;}.cls-13{stroke:#e21ad7;}.cls-14{stroke:#00ab8f;}.cls-15{clip-path:url(#clip-path-9);}.cls-16,.cls-21,.cls-25,.cls-26,.cls-27,.cls-31{font-size:10.12px;font-family:ArialMT, Arial;}.cls-17,.cls-21{letter-spacing:0em;}.cls-18{letter-spacing:0em;}.cls-19{letter-spacing:-0.01em;}.cls-20{letter-spacing:0em;}.cls-22{letter-spacing:-0.01em;}.cls-23,.cls-26{letter-spacing:0em;}.cls-24{letter-spacing:0em;}.cls-25,.cls-28{letter-spacing:0.01em;}.cls-27{letter-spacing:-0.01em;}.cls-29{letter-spacing:0em;}.cls-30{letter-spacing:0.01em;}.cls-31{letter-spacing:0em;}.cls-32{letter-spacing:0em;}.cls-33{font-size:11.2px;}.cls-33,.cls-46,.cls-53,.cls-59{font-family:Arial-BoldMT, Arial;font-weight:700;}.cls-34{letter-spacing:0.02em;}.cls-35{letter-spacing:0em;}.cls-36{letter-spacing:0em;}.cls-37{letter-spacing:0em;}.cls-38{letter-spacing:0em;}.cls-39{letter-spacing:0.02em;}.cls-40{letter-spacing:0em;}.cls-41{letter-spacing:0em;}.cls-42{letter-spacing:0.02em;}.cls-43{letter-spacing:0.01em;}.cls-44{letter-spacing:0em;}.cls-45{letter-spacing:0em;}.cls-46,.cls-53,.cls-59{font-size:9.04px;}.cls-46{letter-spacing:0em;}.cls-47,.cls-59{letter-spacing:0em;}.cls-48{letter-spacing:0em;}.cls-49{letter-spacing:0em;}.cls-50{letter-spacing:0em;}.cls-51{letter-spacing:-0.01em;}.cls-52{letter-spacing:0em;}.cls-54{letter-spacing:0em;}.cls-55{letter-spacing:-0.01em;}.cls-56{letter-spacing:0.01em;}.cls-57{letter-spacing:0em;}.cls-58{letter-spacing:0em;}.cls-60{letter-spacing:0em;}.cls-61{letter-spacing:0.01em;}.cls-62{letter-spacing:0.01em;}.cls-63{letter-spacing:0em;}.cls-64{letter-spacing:0em;}.cls-65{stroke-width:0.81px;}</style><clipPath id="clip-path"><polygon class="cls-1" points="4.16 349.44 895.71 349.44 895.71 1.91 4.16 1.91 4.16 349.44 4.16 349.44"/></clipPath><clipPath id="clip-path-3"><polygon class="cls-1" points="88.64 305.57 882.62 305.57 882.62 31.07 88.64 31.07 88.64 305.57 88.64 305.57"/></clipPath><clipPath id="clip-path-9"><rect class="cls-3" x="4.16" y="1.91" width="891.55" height="347.52"/></clipPath></defs><title>GROUND THRUTH LEGENDprice-volatility</title><polygon class="cls-4" points="4.29 1.91 895.84 1.91 895.84 349.44 4.29 349.44 4.29 1.91 4.29 1.91"/><polygon class="cls-5" points="88.64 31.07 881.94 31.07 881.94 304.76 88.64 304.76 88.64 31.07 88.64 31.07"/><path class="cls-6" d="M88.64,236.34h793.3M88.64,167.91h793.3M88.64,99.49h793.3M88.64,31.06h793.3"/><g class="cls-7"><path class="cls-6" d="M88.64,31.06V304.77M154.77,31.06V304.77M220.9,31.06V304.77M287,31.06V304.77M353,31.06V304.77M419.16,31.06V304.77M485.29,31.06V304.77M551.42,31.06V304.77M617.55,31.06V304.77m66-273.71V304.77M749.68,31.06V304.77M815.81,31.06V304.77M881.94,31.06V304.77"/></g><g class="cls-7"><line class="cls-6" x1="88.64" y1="304.77" x2="881.94" y2="304.77"/></g><g class="cls-8"><polyline class="cls-9" points="121.71 169.67 187.84 149.97 253.97 152.12 320.1 146.05 386.1 142.27 452.23 171.15 518.36 166.84 584.49 156.98 650.49 173.58 716.62 177.77 782.75 162.52 848.88 155.36"/></g><g class="cls-8"><polyline class="cls-10" points="121.71 167.51 187.84 151.04 253.97 147.13 320.1 121.08 386.1 107.72 452.23 122.43 518.36 123.78 584.49 139.84 650.49 149.02 716.62 178.71 782.75 159.28 848.88 164.54"/></g><g class="cls-8"><polyline class="cls-11" points="121.71 209.48 187.84 209.08 253.97 183.03 320.1 181.68 386.1 170.07 452.23 167.91 518.36 169.26 584.49 180.33 650.49 188.56 716.62 163.33 782.75 163.6 848.88 173.72"/></g><g class="cls-8"><polyline class="cls-12" points="121.71 194.5 187.84 181.55 253.97 172.77 320.1 162.65 386.1 162.79 452.23 182.9 518.36 178.98 584.49 171.96 650.49 195.31 716.62 197.88 782.75 178.85 848.88 167.65"/></g><g class="cls-8"><polyline class="cls-13" points="121.71 211.64 187.84 191.94 253.97 193.56 320.1 183.57 386.1 178.85 452.23 186.13 518.36 190.72 584.49 182.22 650.49 178.85 716.62 199.63 782.75 198.42 848.88 185.19"/></g><g class="cls-8"><polyline class="cls-14" points="121.71 177.09 187.84 167.91 253.97 166.56 320.1 162.65 386.1 167.91 452.23 99.49 518.36 144.16 584.49 117.44 650.49 174.8 716.62 199.09 782.75 164.68 848.88 154.96"/></g><g class="cls-15"><text class="cls-16" transform="translate(49.04 308.06)"><tspan class="cls-17"> </tspan><tspan class="cls-18" x="2.83" y="0">9</tspan><tspan class="cls-19" x="8.49" y="0">,</tspan><tspan class="cls-20" x="11.19" y="0">00</tspan><tspan x="22.51" y="0">0</tspan></text></g><g class="cls-15"><text class="cls-21" transform="translate(43.42 239.62)"> <tspan class="cls-18" x="2.83" y="0">1</tspan><tspan class="cls-22" x="8.49" y="0">4</tspan><tspan class="cls-23" x="14.03" y="0">,</tspan><tspan class="cls-20" x="16.86" y="0">00</tspan><tspan class="cls-24" x="28.18" y="0">0</tspan></text></g><g class="cls-15"><text class="cls-21" transform="translate(43.42 171.19)"> <tspan class="cls-18" x="2.83" y="0">1</tspan><tspan class="cls-22" x="8.49" y="0">9</tspan><tspan class="cls-23" x="14.03" y="0">,</tspan><tspan class="cls-20" x="16.86" y="0">00</tspan><tspan class="cls-24" x="28.18" y="0">0</tspan></text></g><g class="cls-15"><text class="cls-21" transform="translate(43.42 102.76)"> <tspan class="cls-18" x="2.83" y="0">2</tspan><tspan class="cls-22" x="8.49" y="0">4</tspan><tspan class="cls-23" x="14.03" y="0">,</tspan><tspan class="cls-20" x="16.86" y="0">00</tspan><tspan class="cls-24" x="28.18" y="0">0</tspan></text></g><g class="cls-15"><text class="cls-21" transform="translate(43.42 34.32)"> <tspan class="cls-18" x="2.83" y="0">2</tspan><tspan class="cls-22" x="8.49" y="0">9</tspan><tspan class="cls-23" x="14.03" y="0">,</tspan><tspan class="cls-20" x="16.86" y="0">00</tspan><tspan class="cls-24" x="28.18" y="0">0</tspan></text></g><g class="cls-15"><text class="cls-25" transform="translate(113.59 320.1)">J<tspan class="cls-22" x="5.12" y="0">a</tspan><tspan class="cls-24" x="10.66" y="0">n</tspan></text></g><g class="cls-15"><text class="cls-26" transform="translate(179.13 320.1)">F<tspan class="cls-18" x="6.2" y="0">e</tspan><tspan class="cls-24" x="11.86" y="0">b</tspan></text></g><g class="cls-15"><text class="cls-27" transform="translate(245.23 320.1)">M<tspan class="cls-18" x="8.37" y="0">a</tspan><tspan class="cls-24" x="14.03" y="0">r</tspan></text></g><g class="cls-15"><text class="cls-16" transform="translate(312.16 320.1)">A<tspan class="cls-18" x="6.75" y="0">p</tspan><tspan x="12.41" y="0">r</tspan></text></g><g class="cls-15"><text class="cls-27" transform="translate(376.59 320.1)">M<tspan class="cls-18" x="8.37" y="0">a</tspan><tspan class="cls-24" x="14.03" y="0">y</tspan></text></g><g class="cls-15"><text class="cls-25" transform="translate(444.09 320.1)">J<tspan class="cls-22" x="5.12" y="0">u</tspan><tspan class="cls-24" x="10.66" y="0">n</tspan></text></g><g class="cls-15"><text class="cls-16" transform="translate(511.87 320.1)"><tspan class="cls-28">J</tspan><tspan class="cls-22" x="5.12" y="0">u</tspan><tspan x="10.66" y="0">l</tspan></text></g><g class="cls-15"><text class="cls-16" transform="translate(575.43 320.1)">A<tspan class="cls-18" x="6.75" y="0">u</tspan><tspan class="cls-24" x="12.41" y="0">g</tspan></text></g><g class="cls-15"><text class="cls-16" transform="translate(641.54 320.1)">S<tspan class="cls-18" x="6.75" y="0">e</tspan><tspan class="cls-24" x="12.41" y="0">p</tspan></text></g><g class="cls-15"><text class="cls-16" transform="translate(708.76 320.1)"><tspan class="cls-29">O</tspan><tspan class="cls-30" x="7.83" y="0">c</tspan><tspan x="12.95" y="0">t</tspan></text></g><g class="cls-15"><text class="cls-31" transform="translate(773.73 320.1)">N<tspan class="cls-20" x="7.29" y="0">o</tspan><tspan class="cls-32" x="12.95" y="0">v</tspan></text></g><g class="cls-15"><text class="cls-31" transform="translate(839.83 320.1)">D<tspan class="cls-20" x="7.29" y="0">e</tspan><tspan class="cls-32" x="12.95" y="0">c</tspan></text></g><g class="cls-15"><text class="cls-33" transform="translate(28.97 185.55) rotate(-90)"><tspan class="cls-34">M</tspan><tspan class="cls-35" x="9.58" y="0">a</tspan><tspan class="cls-36" x="15.8" y="0">r</tspan><tspan class="cls-35" x="20.12" y="0">ke</tspan><tspan class="cls-37" x="32.56" y="0">t</tspan><tspan x="36.33" y="0"> </tspan><tspan class="cls-38" x="39.45" y="0">P</tspan><tspan class="cls-36" x="46.87" y="0">r</tspan><tspan x="51.2" y="0">i</tspan><tspan class="cls-35" x="54.31" y="0">ce</tspan><tspan class="cls-39" x="66.75" y="0"> </tspan><tspan class="cls-40" x="70.12" y="0">(</tspan><tspan x="73.89" y="0">R</tspan><tspan class="cls-41" x="81.98" y="0">s</tspan><tspan x="88.2" y="0">./</tspan><tspan class="cls-42" x="94.43" y="0">M</tspan><tspan class="cls-43" x="104" y="0">T</tspan><tspan x="111.01" y="0">)</tspan></text></g><g class="cls-15"><text class="cls-33" transform="translate(413.48 338.06)"><tspan class="cls-34">M</tspan><tspan class="cls-44" x="9.58" y="0">on</tspan><tspan class="cls-37" x="23.33" y="0">t</tspan><tspan class="cls-45" x="27.1" y="0">h</tspan><tspan class="cls-35" x="33.98" y="0">s</tspan><tspan x="40.2" y="0"> </tspan></text></g><g class="cls-15"><text class="cls-33" transform="translate(456.54 338.06)">-</text></g><g class="cls-15"><text class="cls-33" transform="translate(463.42 338.06)"><tspan class="cls-35">201</tspan><tspan x="18.66" y="0">9</tspan></text></g><g class="cls-7"><line class="cls-9" x1="140.87" y1="18.92" x2="162.47" y2="18.92"/></g><g class="cls-15"><text class="cls-46" transform="translate(164.81 21.67)">G<tspan class="cls-47" x="7.02" y="0">U</tspan><tspan class="cls-48" x="13.51" y="0">J</tspan><tspan class="cls-49" x="18.51" y="0"> </tspan><tspan class="cls-50" x="21.07" y="0">(</tspan><tspan class="cls-51" x="24.04" y="0">R</tspan><tspan class="cls-50" x="30.53" y="0">-</tspan><tspan class="cls-48" x="33.5" y="0">21</tspan><tspan class="cls-52" x="43.51" y="0">)</tspan></text></g><g class="cls-7"><line class="cls-10" x1="264.09" y1="18.92" x2="285.68" y2="18.92"/></g><g class="cls-15"><text class="cls-53" transform="translate(288 21.67)"><tspan class="cls-54">M</tspan><tspan class="cls-51" x="7.55" y="0">AH</tspan><tspan class="cls-55" x="20.52" y="0"> </tspan><tspan class="cls-56" x="22.95" y="0">(</tspan><tspan class="cls-47" x="26.05" y="0">R</tspan><tspan class="cls-57" x="32.54" y="0">-</tspan><tspan class="cls-58" x="35.51" y="0">6</tspan><tspan x="40.51" y="0">)</tspan></text></g><g class="cls-7"><line class="cls-11" x1="384.34" y1="18.92" x2="405.94" y2="18.92"/></g><g class="cls-15"><text class="cls-59" transform="translate(408.17 21.67)">HAR<tspan class="cls-60" x="19.46" y="0"> </tspan><tspan class="cls-50" x="22.01" y="0">(</tspan><tspan class="cls-51" x="24.99" y="0">R</tspan><tspan class="cls-50" x="31.47" y="0">-</tspan><tspan class="cls-61" x="34.45" y="0">4</tspan><tspan class="cls-52" x="39.58" y="0">)</tspan></text></g><g class="cls-7"><line class="cls-12" x1="503.51" y1="18.92" x2="525.11" y2="18.92"/></g><g class="cls-15"><text class="cls-53" transform="translate(527.35 21.67)"><tspan class="cls-47">RA</tspan><tspan class="cls-58" x="12.97" y="0">J</tspan><tspan class="cls-49" x="17.97" y="0"> </tspan><tspan class="cls-57" x="20.53" y="0">(</tspan><tspan class="cls-47" x="23.5" y="0">R</tspan><tspan class="cls-57" x="29.99" y="0">-</tspan><tspan class="cls-62" x="32.96" y="0">8</tspan><tspan x="38.09" y="0">)</tspan></text></g><g class="cls-7"><line class="cls-13" x1="621.2" y1="18.92" x2="642.79" y2="18.92"/></g><g class="cls-15"><text class="cls-59" transform="translate(645.04 21.67)">U<tspan class="cls-63" x="6.49" y="0">P</tspan><tspan class="cls-55" x="12.55" y="0"> </tspan><tspan class="cls-57" x="14.98" y="0">(</tspan><tspan x="17.96" y="0">R</tspan><tspan class="cls-56" x="24.44" y="0">-</tspan><tspan class="cls-58" x="27.54" y="0">9</tspan><tspan class="cls-55" x="32.55" y="0">,</tspan><tspan class="cls-49" x="34.98" y="0"> </tspan><tspan class="cls-51" x="37.54" y="0">R</tspan><tspan class="cls-50" x="44.02" y="0">-</tspan><tspan class="cls-48" x="47" y="0">10</tspan><tspan class="cls-52" x="57" y="0">)</tspan></text></g><g class="cls-7"><line class="cls-14" x1="757.91" y1="18.92" x2="779.51" y2="18.92"/></g><g class="cls-15"><text class="cls-53" transform="translate(781.73 21.67)"><tspan class="cls-64">T</tspan><tspan class="cls-47" x="5.53" y="0">N</tspan><tspan class="cls-55" x="12.02" y="0"> </tspan><tspan class="cls-56" x="14.45" y="0">(</tspan><tspan class="cls-47" x="17.55" y="0">R</tspan><tspan class="cls-57" x="24.04" y="0">-</tspan><tspan class="cls-58" x="27.01" y="0">20</tspan><tspan x="37.01" y="0">)</tspan></text></g><polygon class="cls-65" points="4.29 1.91 895.84 1.91 895.84 349.44 4.29 349.44 4.29 1.91 4.29 1.91"/></svg>