<svg id="Layer_1" data-name="Layer 1" xmlns="http://www.w3.org/2000/svg" xmlns:xlink="http://www.w3.org/1999/xlink" viewBox="0 0 900 350"><defs><clipPath id="clip-path"><polygon points="-0.22 349.44 895.71 349.44 895.71 1.91 -0.22 1.91 -0.22 349.44 -0.22 349.44" style="fill:none;clip-rule:evenodd"/></clipPath><clipPath id="clip-path-3"><polygon points="84.68 305.57 882.55 305.57 882.55 31.07 84.68 31.07 84.68 305.57 84.68 305.57" style="fill:none;clip-rule:evenodd"/></clipPath><clipPath id="clip-path-9"><rect x="-0.22" y="1.91" width="895.93" height="347.52" style="fill:none"/></clipPath></defs><title>Price Volatility</title><polygon points="-0.08 1.91 895.84 1.91 895.84 349.44 -0.08 349.44 -0.08 1.91 -0.08 1.91" style="fill:#eaeaea;fill-rule:evenodd"/><polygon points="84.68 31.07 881.88 31.07 881.88 304.76 84.68 304.76 84.68 31.07 84.68 31.07" style="fill:#fff;fill-rule:evenodd"/><path d="M84.68,236.34H881.87M84.68,167.91H881.87M84.68,99.49H881.87M84.68,31.06H881.87" style="fill:none;stroke:#d9d9d9;stroke-linejoin:round;stroke-width:0.809766131104888px"/><g style="clip-path:url(#clip-path)"><path d="M84.68,31.06V304.77M151.14,31.06V304.77M217.59,31.06V304.77M284.05,31.06V304.77M350.37,31.06V304.77M416.82,31.06V304.77M483.28,31.06V304.77M549.73,31.06V304.77M616.19,31.06V304.77M682.51,31.06V304.77M749,31.06V304.77M815.42,31.06V304.77M881.87,31.06V304.77" style="fill:none;stroke:#d9d9d9;stroke-linejoin:round;stroke-width:0.809766131104888px"/></g><g style="clip-path:url(#clip-path)"><line x1="84.68" y1="304.77" x2="881.87" y2="304.77" style="fill:none;stroke:#d9d9d9;stroke-linejoin:round;stroke-width:0.809766131104888px"/></g><g style="clip-path:url(#clip-path-3)"><polyline points="117.91 169.67 184.37 149.97 250.82 152.12 317.28 146.05 383.6 142.27 450.05 171.15 516.51 166.84 582.96 156.98 649.28 173.58 715.74 177.77 782.19 162.52 848.65 155.36" style="fill:none;stroke:#2935e8;stroke-linecap:round;stroke-linejoin:round;stroke-width:2.4292983262788px"/></g><g style="clip-path:url(#clip-path-3)"><polyline points="117.91 167.51 184.37 151.04 250.82 147.13 317.28 121.08 383.6 107.72 450.05 122.43 516.51 123.78 582.96 139.84 649.28 149.02 715.74 178.71 782.19 159.28 848.65 164.54" style="fill:none;stroke:#5964cc;stroke-linecap:round;stroke-linejoin:round;stroke-width:2.4292983262788px"/></g><g style="clip-path:url(#clip-path-3)"><polyline points="117.91 209.48 184.37 209.08 250.82 183.03 317.28 181.68 383.6 170.07 450.05 167.91 516.51 169.26 582.96 180.33 649.28 188.56 715.74 163.33 782.19 163.6 848.65 173.72" style="fill:none;stroke:#7e8ad1;stroke-linecap:round;stroke-linejoin:round;stroke-width:2.4292983262788px"/></g><g style="clip-path:url(#clip-path-3)"><polyline points="117.91 194.5 184.37 181.55 250.82 172.77 317.28 162.65 383.6 162.79 450.05 182.9 516.51 178.98 582.96 171.96 649.28 195.31 715.74 197.88 782.19 178.85 848.65 167.65" style="fill:none;stroke:#9264cb;stroke-linecap:round;stroke-linejoin:round;stroke-width:2.4292983262788px"/></g><g style="clip-path:url(#clip-path-3)"><polyline points="117.91 211.64 184.37 191.94 250.82 193.56 317.28 183.57 383.6 178.85 450.05 186.13 516.51 190.72 582.96 182.22 649.28 178.85 715.74 199.63 782.19 198.42 848.65 185.19" style="fill:none;stroke:#e21ad7;stroke-linecap:round;stroke-linejoin:round;stroke-width:2.4292983262788px"/></g><g style="clip-path:url(#clip-path-3)"><polyline points="117.91 177.09 184.37 167.91 250.82 166.56 317.28 162.65 383.6 167.91 450.05 99.49 516.51 144.16 582.96 117.44 649.28 174.8 715.74 199.09 782.19 164.68 848.65 154.96" style="fill:none;stroke:#00ab8f;stroke-linecap:round;stroke-linejoin:round;stroke-width:2.4292983262788px"/></g><g style="clip-path:url(#clip-path-9)"><text transform="translate(44.89 308.06)" style="font-size:10.122079849243164px;font-family:ArialMT, Arial"><tspan style="letter-spacing:0.0020161681144737534em"> </tspan><tspan x="2.83" y="0" style="letter-spacing:0.002976248168985065em">9</tspan><tspan x="8.49" y="0" style="letter-spacing:-0.01104092062688008em">,</tspan><tspan x="11.19" y="0" style="letter-spacing:0.002976248168985065em">00</tspan><tspan x="22.51" y="0">0</tspan></text></g><g style="clip-path:url(#clip-path-9)"><text transform="translate(39.24 239.62)" style="font-size:10.122079849243164px;font-family:ArialMT, Arial"><tspan style="letter-spacing:0.0020161681144737534em"> </tspan><tspan x="2.83" y="0" style="letter-spacing:0.002976248168985065em">1</tspan><tspan x="8.49" y="0" style="letter-spacing:-0.009024752512406326em">4</tspan><tspan x="14.03" y="0" style="letter-spacing:0.0019201601090226225em">,</tspan><tspan x="16.86" y="0" style="letter-spacing:0.002976248168985065em">00</tspan><tspan x="28.18" y="0">0</tspan></text></g><g style="clip-path:url(#clip-path-9)"><text transform="translate(39.24 171.19)" style="font-size:10.122079849243164px;font-family:ArialMT, Arial"><tspan style="letter-spacing:0.0020161681144737534em"> </tspan><tspan x="2.83" y="0" style="letter-spacing:0.002976248168985065em">1</tspan><tspan x="8.49" y="0" style="letter-spacing:-0.009024752512406326em">9</tspan><tspan x="14.03" y="0" style="letter-spacing:0.0019201601090226225em">,</tspan><tspan x="16.86" y="0" style="letter-spacing:0.002976248168985065em">00</tspan><tspan x="28.18" y="0">0</tspan></text></g><g style="clip-path:url(#clip-path-9)"><text transform="translate(39.24 102.76)" style="font-size:10.122079849243164px;font-family:ArialMT, Arial"><tspan style="letter-spacing:0.0020161681144737534em"> </tspan><tspan x="2.83" y="0" style="letter-spacing:0.002976248168985065em">2</tspan><tspan x="8.49" y="0" style="letter-spacing:-0.009024752512406326em">4</tspan><tspan x="14.03" y="0" style="letter-spacing:0.0019201601090226225em">,</tspan><tspan x="16.86" y="0" style="letter-spacing:0.002976248168985065em">00</tspan><tspan x="28.18" y="0">0</tspan></text></g><g style="clip-path:url(#clip-path-9)"><text transform="translate(39.24 34.32)" style="font-size:10.122079849243164px;font-family:ArialMT, Arial"><tspan style="letter-spacing:0.0020161681144737534em"> </tspan><tspan x="2.83" y="0" style="letter-spacing:0.002976248168985065em">2</tspan><tspan x="8.49" y="0" style="letter-spacing:-0.009024752512406326em">9</tspan><tspan x="14.03" y="0" style="letter-spacing:0.0019201601090226225em">,</tspan><tspan x="16.86" y="0" style="letter-spacing:0.002976248168985065em">00</tspan><tspan x="28.18" y="0">0</tspan></text></g><g style="clip-path:url(#clip-path-9)"><text transform="translate(109.75 320.1)" style="font-size:10.122079849243164px;font-family:ArialMT, Arial"><tspan style="letter-spacing:0.00595249633797013em">J</tspan><tspan x="5.12" y="0" style="letter-spacing:-0.009024752512406326em">a</tspan><tspan x="10.66" y="0">n</tspan></text></g><g style="clip-path:url(#clip-path-9)"><text transform="translate(175.61 320.1)" style="font-size:10.122079849243164px;font-family:ArialMT, Arial"><tspan style="letter-spacing:0.0020161681144737534em">F</tspan><tspan x="6.2" y="0" style="letter-spacing:0.002976248168985065em">e</tspan><tspan x="11.86" y="0">b</tspan></text></g><g style="clip-path:url(#clip-path-9)"><text transform="translate(242.04 320.1)" style="font-size:10.122079849243164px;font-family:ArialMT, Arial;letter-spacing:-0.00595249633797013em">M<tspan x="8.37" y="0" style="letter-spacing:0.002976248168985065em">a</tspan><tspan x="14.03" y="0" style="letter-spacing:-0.00009600800545113114em">r</tspan></text></g><g style="clip-path:url(#clip-path-9)"><text transform="translate(309.3 320.1)" style="font-size:10.122079849243164px;font-family:ArialMT, Arial">A<tspan x="6.75" y="0" style="letter-spacing:0.002976248168985065em">p</tspan><tspan x="12.41" y="0">r</tspan></text></g><g style="clip-path:url(#clip-path-9)"><text transform="translate(374.04 320.1)" style="font-size:10.122079849243164px;font-family:ArialMT, Arial"><tspan style="letter-spacing:-0.00595249633797013em">M</tspan><tspan x="8.37" y="0" style="letter-spacing:0.002976248168985065em">a</tspan><tspan x="14.03" y="0">y</tspan></text></g><g style="clip-path:url(#clip-path-9)"><text transform="translate(441.87 320.1)" style="font-size:10.122079849243164px;font-family:ArialMT, Arial"><tspan style="letter-spacing:0.00595249633797013em">J</tspan><tspan x="5.12" y="0" style="letter-spacing:-0.009024752512406326em">u</tspan><tspan x="10.66" y="0">n</tspan></text></g><g style="clip-path:url(#clip-path-9)"><text transform="translate(509.99 320.1)" style="font-size:10.122079849243164px;font-family:ArialMT, Arial"><tspan style="letter-spacing:0.00595249633797013em">J</tspan><tspan x="5.12" y="0" style="letter-spacing:-0.009024752512406326em">u</tspan><tspan x="10.66" y="0">l</tspan></text></g><g style="clip-path:url(#clip-path-9)"><text transform="translate(573.86 320.1)" style="font-size:10.122079849243164px;font-family:ArialMT, Arial">A<tspan x="6.75" y="0" style="letter-spacing:0.002976248168985065em">u</tspan><tspan x="12.41" y="0">g</tspan></text></g><g style="clip-path:url(#clip-path-9)"><text transform="translate(640.29 320.1)" style="font-size:10.122079849243164px;font-family:ArialMT, Arial">S<tspan x="6.75" y="0" style="letter-spacing:0.002976248168985065em">e</tspan><tspan x="12.41" y="0">p</tspan></text></g><g style="clip-path:url(#clip-path-9)"><text transform="translate(707.84 320.1)" style="font-size:10.122079849243164px;font-family:ArialMT, Arial"><tspan style="letter-spacing:-0.004032336228947507em">O</tspan><tspan x="7.83" y="0" style="letter-spacing:0.00595249633797013em">c</tspan><tspan x="12.95" y="0">t</tspan></text></g><g style="clip-path:url(#clip-path-9)"><text transform="translate(773.13 320.1)" style="font-size:10.122079849243164px;font-family:ArialMT, Arial"><tspan style="letter-spacing:-0.0020161681144737534em">N</tspan><tspan x="7.29" y="0" style="letter-spacing:0.002976248168985065em">o</tspan><tspan x="12.95" y="0">v</tspan></text></g><g style="clip-path:url(#clip-path-9)"><text transform="translate(839.55 320.1)" style="font-size:10.122079849243164px;font-family:ArialMT, Arial"><tspan style="letter-spacing:-0.0020161681144737534em">D</tspan><tspan x="7.29" y="0" style="letter-spacing:0.002976248168985065em">e</tspan><tspan x="12.95" y="0">c</tspan></text></g><g style="clip-path:url(#clip-path-9)"><text transform="translate(24.72 185.55) rotate(-90)" style="font-size:11.256710052490234px;font-family:Arial-BoldMT, Arial;font-weight:700"><tspan style="letter-spacing:0.02196916893151649em">M</tspan><tspan x="9.62" y="0" style="letter-spacing:-0.0009589716597090531em">a</tspan><tspan x="15.87" y="0" style="letter-spacing:-0.0029640942209188913em">r</tspan><tspan x="20.22" y="0" style="letter-spacing:-0.0009589716597090531em">ke</tspan><tspan x="32.72" y="0" style="letter-spacing:0.003923065880627944em">t</tspan><tspan x="36.51" y="0"> </tspan><tspan x="39.64" y="0" style="letter-spacing:-0.004010245122419677em">P</tspan><tspan x="47.1" y="0" style="letter-spacing:-0.0029640942209188913em">r</tspan><tspan x="51.45" y="0">i</tspan><tspan x="54.58" y="0" style="letter-spacing:-0.0009589716597090531em">ce</tspan><tspan x="67.08" y="0" style="letter-spacing:0.022928140591225544em"> </tspan><tspan x="70.46" y="0" style="letter-spacing:0.004010245122419677em">(</tspan><tspan x="74.26" y="0">R</tspan><tspan x="82.39" y="0" style="letter-spacing:-0.0009589716597090531em">s</tspan><tspan x="88.63" y="0">./</tspan><tspan x="94.89" y="0" style="letter-spacing:0.02205634817330822em">M</tspan><tspan x="104.51" y="0" style="letter-spacing:0.014994829588177922em">T</tspan><tspan x="111.56" y="0" style="letter-spacing:-0.00008717924179173209em">)</tspan></text></g><g style="clip-path:url(#clip-path-9)"><text transform="translate(463.37 338.06)" style="font-size:11.201769828796387px;font-family:Arial-BoldMT, Arial;font-weight:700"><tspan style="letter-spacing:0.022035569458904388em">M</tspan><tspan x="9.58" y="0" style="letter-spacing:0.002949643155916335em">on</tspan><tspan x="23.33" y="0" style="letter-spacing:0.0039039394710657367em">t</tspan><tspan x="27.1" y="0" style="letter-spacing:0.003036397366384463em">h</tspan><tspan x="33.98" y="0" style="letter-spacing:-0.00104105052561753em">s</tspan><tspan x="40.2" y="0"> </tspan></text></g><g style="clip-path:url(#clip-path)"><line x1="137.17" y1="18.92" x2="158.87" y2="18.92" style="fill:none;stroke:#2935e8;stroke-linecap:round;stroke-linejoin:round;stroke-width:2.4292983262788px"/></g><g style="clip-path:url(#clip-path-9)"><text transform="translate(161.22 21.67)" style="font-size:9.042389869689941px;font-family:Arial-BoldMT, Arial;font-weight:700;letter-spacing:-0.0010747166527296007em">G<tspan x="7.02" y="0" style="letter-spacing:-0.005051168267829122em">U</tspan><tspan x="13.51" y="0" style="letter-spacing:-0.0030092066276428816em">J</tspan><tspan x="18.51" y="0" style="letter-spacing:0.005051168267829122em"> </tspan><tspan x="21.07" y="0" style="letter-spacing:-0.004083923280372482em">(</tspan><tspan x="24.04" y="0" style="letter-spacing:-0.005051168267829122em">R</tspan><tspan x="30.53" y="0" style="letter-spacing:-0.003976451615099522em">-</tspan><tspan x="33.5" y="0" style="letter-spacing:-0.0030092066276428816em">21</tspan><tspan x="43.51" y="0" style="letter-spacing:-0.00010747166527296005em">)</tspan></text></g><g style="clip-path:url(#clip-path)"><line x1="260.99" y1="18.92" x2="282.69" y2="18.92" style="fill:none;stroke:#5964cc;stroke-linecap:round;stroke-linejoin:round;stroke-width:2.4292983262788px"/></g><g style="clip-path:url(#clip-path-9)"><text transform="translate(285.02 21.67)" style="font-size:9.042389869689941px;font-family:Arial-BoldMT, Arial;font-weight:700"><tspan style="letter-spacing:0.002041961640186241em">M</tspan><tspan x="7.55" y="0" style="letter-spacing:-0.005051168267829122em">AH</tspan><tspan x="20.52" y="0" style="letter-spacing:-0.009027619882928644em"> </tspan><tspan x="22.95" y="0" style="letter-spacing:0.009994864870385286em">(</tspan><tspan x="26.05" y="0" style="letter-spacing:-0.005051168267829122em">R</tspan><tspan x="32.54" y="0" style="letter-spacing:-0.004083923280372482em">-</tspan><tspan x="35.51" y="0" style="letter-spacing:-0.0030092066276428816em">6</tspan><tspan x="40.51" y="0">)</tspan></text></g><g style="clip-path:url(#clip-path)"><line x1="381.83" y1="18.92" x2="403.53" y2="18.92" style="fill:none;stroke:#7e8ad1;stroke-linecap:round;stroke-linejoin:round;stroke-width:2.4292983262788px"/></g><g style="clip-path:url(#clip-path-9)"><text transform="translate(405.78 21.67)" style="font-size:9.042389869689941px;font-family:Arial-BoldMT, Arial;font-weight:700"><tspan style="letter-spacing:-0.005051168267829122em">HAR</tspan><tspan x="19.45" y="0" style="letter-spacing:0.005051168267829122em"> </tspan><tspan x="22.01" y="0" style="letter-spacing:-0.004083923280372482em">(</tspan><tspan x="24.99" y="0" style="letter-spacing:-0.005051168267829122em">R</tspan><tspan x="31.47" y="0" style="letter-spacing:-0.003976451615099522em">-</tspan><tspan x="34.45" y="0" style="letter-spacing:0.010962109857841925em">4</tspan><tspan x="39.58" y="0">)</tspan></text></g><g style="clip-path:url(#clip-path)"><line x1="501.59" y1="18.92" x2="523.29" y2="18.92" style="fill:none;stroke:#9264cb;stroke-linecap:round;stroke-linejoin:round;stroke-width:2.4292983262788px"/></g><g style="clip-path:url(#clip-path-9)"><text transform="translate(525.55 21.67)" style="font-size:9.042389869689941px;font-family:Arial-BoldMT, Arial;font-weight:700;letter-spacing:-0.005051168267829122em">RA<tspan x="12.97" y="0" style="letter-spacing:-0.0030092066276428816em">J</tspan><tspan x="17.97" y="0" style="letter-spacing:0.005051168267829122em"> </tspan><tspan x="20.53" y="0" style="letter-spacing:-0.004083923280372482em">(</tspan><tspan x="23.5" y="0">R</tspan><tspan x="29.99" y="0" style="letter-spacing:-0.003976451615099522em">-</tspan><tspan x="32.96" y="0" style="letter-spacing:0.010962109857841925em">8</tspan><tspan x="38.09" y="0" style="letter-spacing:-0.00010747166527296005em">)</tspan></text></g><g style="clip-path:url(#clip-path)"><line x1="619.85" y1="18.92" x2="641.55" y2="18.92" style="fill:none;stroke:#e21ad7;stroke-linecap:round;stroke-linejoin:round;stroke-width:2.4292983262788px"/></g><g style="clip-path:url(#clip-path-9)"><text transform="translate(643.81 21.67)" style="font-size:9.042389869689941px;font-family:Arial-BoldMT, Arial;font-weight:700"><tspan style="letter-spacing:-0.005051168267829122em">U</tspan><tspan x="6.48" y="0" style="letter-spacing:0.004083923280372482em">P</tspan><tspan x="12.55" y="0" style="letter-spacing:-0.009027619882928644em"> </tspan><tspan x="14.98" y="0" style="letter-spacing:-0.004083923280372482em">(</tspan><tspan x="17.96" y="0" style="letter-spacing:-0.005051168267829122em">R</tspan><tspan x="24.44" y="0" style="letter-spacing:0.009994864870385286em">-</tspan><tspan x="27.54" y="0" style="letter-spacing:-0.0030092066276428816em">9</tspan><tspan x="32.55" y="0" style="letter-spacing:-0.009027619882928644em">,</tspan><tspan x="34.98" y="0" style="letter-spacing:0.005051168267829122em"> </tspan><tspan x="37.53" y="0" style="letter-spacing:-0.005051168267829122em">R</tspan><tspan x="44.02" y="0" style="letter-spacing:-0.004083923280372482em">-</tspan><tspan x="46.99" y="0" style="letter-spacing:-0.0030092066276428816em">10</tspan><tspan x="57" y="0">)</tspan></text></g><g style="clip-path:url(#clip-path)"><line x1="757.24" y1="18.92" x2="778.94" y2="18.92" style="fill:none;stroke:#00ab8f;stroke-linecap:round;stroke-linejoin:round;stroke-width:2.4292983262788px"/></g><g style="clip-path:url(#clip-path-9)"><text transform="translate(781.17 21.67)" style="font-size:9.042389869689941px;font-family:Arial-BoldMT, Arial;font-weight:700"><tspan style="letter-spacing:0.0009672449874566405em">T</tspan><tspan x="5.53" y="0" style="letter-spacing:-0.005051168267829122em">N</tspan><tspan x="12.02" y="0" style="letter-spacing:-0.008920148217655684em"> </tspan><tspan x="14.45" y="0" style="letter-spacing:0.009887393205112324em">(</tspan><tspan x="17.55" y="0" style="letter-spacing:-0.005051168267829122em">R</tspan><tspan x="24.03" y="0" style="letter-spacing:-0.003976451615099522em">-</tspan><tspan x="27.01" y="0" style="letter-spacing:-0.0030092066276428816em">20</tspan><tspan x="37.01" y="0">)</tspan></text></g><polygon points="-0.08 1.91 895.84 1.91 895.84 349.44 -0.08 349.44 -0.08 1.91 -0.08 1.91" style="fill:none;stroke:#d9d9d9;stroke-linejoin:round;stroke-width:0.809766198140756px"/></svg>