<svg id="Layer_1" data-name="Layer 1" xmlns="http://www.w3.org/2000/svg" xmlns:xlink="http://www.w3.org/1999/xlink" viewBox="0 0 900 350"><defs><style>.cls-1,.cls-2{fill:none;}.cls-1{clip-rule:evenodd;}.cls-2,.cls-4,.cls-5,.cls-6,.cls-60,.cls-61,.cls-7,.cls-8,.cls-9{fill-rule:evenodd;}.cls-3{clip-path:url(#clip-path);}.cls-4{fill:#d9d9d9;}.cls-5{fill:#f2f2f2;}.cls-30,.cls-6{fill:#fff;}.cls-7{fill:#5e9fff;}.cls-8{fill:#06f;}.cls-9{fill:#0044ab;}.cls-10{clip-path:url(#clip-path-2);}.cls-11,.cls-21,.cls-25,.cls-27,.cls-30,.cls-35{font-size:12.62px;}.cls-11,.cls-21,.cls-25,.cls-27,.cls-30,.cls-35,.cls-46{font-family:Arial-BoldMT, Arial;font-weight:700;}.cls-12,.cls-25{letter-spacing:-0.12em;}.cls-13{letter-spacing:-0.01em;}.cls-14{letter-spacing:0.01em;}.cls-15{letter-spacing:-0.01em;}.cls-16{letter-spacing:-0.02em;}.cls-17{letter-spacing:-0.01em;}.cls-18{letter-spacing:-0.09em;}.cls-19{letter-spacing:0.03em;}.cls-20{clip-path:url(#clip-path-3);}.cls-21,.cls-28{letter-spacing:0.01em;}.cls-22{letter-spacing:0.04em;}.cls-23{letter-spacing:-0.01em;}.cls-24{letter-spacing:0em;}.cls-26{letter-spacing:0.04em;}.cls-27,.cls-32{letter-spacing:0.02em;}.cls-29{clip-path:url(#clip-path-4);}.cls-31{letter-spacing:0.05em;}.cls-33{clip-path:url(#clip-path-6);}.cls-34,.cls-35{letter-spacing:-0.08em;}.cls-36{clip-path:url(#clip-path-8);}.cls-37{letter-spacing:0.02em;}.cls-38{letter-spacing:0em;}.cls-39{clip-path:url(#clip-path-10);}.cls-40{clip-path:url(#clip-path-12);}.cls-41{clip-path:url(#clip-path-13);}.cls-42{clip-path:url(#clip-path-14);}.cls-43{clip-path:url(#clip-path-15);}.cls-44{clip-path:url(#clip-path-16);}.cls-45{clip-path:url(#clip-path-17);}.cls-46,.cls-51{font-size:10.1px;}.cls-47{letter-spacing:-0.05em;}.cls-48{letter-spacing:-0.03em;}.cls-49{letter-spacing:0em;}.cls-50{letter-spacing:0.03em;}.cls-51{font-family:ArialMT, Arial;}.cls-52{letter-spacing:-0.11em;}.cls-53{letter-spacing:-0.03em;}.cls-54{letter-spacing:0.08em;}.cls-55{letter-spacing:0.08em;}.cls-56{letter-spacing:0.06em;}.cls-57{letter-spacing:0.03em;}.cls-58{letter-spacing:-0.08em;}.cls-59{clip-path:url(#clip-path-18);}.cls-60{fill:#bfbfbf;}.cls-61{fill:#d4d4d4;}</style><clipPath id="clip-path"><polygon class="cls-1" points="8.91 1.37 891.94 1.37 891.94 348.84 8.91 348.84 8.91 1.37 8.91 1.37"/></clipPath><clipPath id="clip-path-2"><polygon class="cls-1" points="8.91 1.37 97.38 1.37 97.38 51.01 8.91 51.01 8.91 1.37 8.91 1.37"/></clipPath><clipPath id="clip-path-3"><polygon class="cls-1" points="8.91 1.37 891.94 1.37 891.94 51.01 8.91 51.01 8.91 1.37 8.91 1.37"/></clipPath><clipPath id="clip-path-4"><polygon class="cls-1" points="8.91 89.71 891.94 89.71 891.94 126.73 8.91 126.73 8.91 89.71 8.91 89.71"/></clipPath><clipPath id="clip-path-6"><polygon class="cls-1" points="8.91 127.57 891.94 127.57 891.94 164.59 8.91 164.59 8.91 127.57 8.91 127.57"/></clipPath><clipPath id="clip-path-8"><polygon class="cls-1" points="8.91 203.29 891.94 203.29 891.94 240.31 8.91 240.31 8.91 203.29 8.91 203.29"/></clipPath><clipPath id="clip-path-10"><polygon class="cls-1" points="8.91 241.15 891.94 241.15 891.94 278.17 8.91 278.17 8.91 241.15 8.91 241.15"/></clipPath><clipPath id="clip-path-12"><polygon class="cls-1" points="8.91 279.01 891.94 279.01 891.94 316.03 8.91 316.03 8.91 279.01 8.91 279.01"/></clipPath><clipPath id="clip-path-13"><polygon class="cls-1" points="477.38 51.85 614.73 51.85 614.73 88.86 477.38 88.86 477.38 51.85 477.38 51.85"/></clipPath><clipPath id="clip-path-14"><polygon class="cls-1" points="477.38 165.43 614.73 165.43 614.73 202.45 477.38 202.45 477.38 165.43 477.38 165.43"/></clipPath><clipPath id="clip-path-15"><polygon class="cls-1" points="8.91 51.85 97.38 51.85 97.38 126.73 8.91 126.73 8.91 51.85 8.91 51.85"/></clipPath><clipPath id="clip-path-16"><polygon class="cls-1" points="98.22 51.85 200.17 51.85 200.17 126.73 98.22 126.73 98.22 51.85 98.22 51.85"/></clipPath><clipPath id="clip-path-17"><polygon class="cls-1" points="8.91 316.87 891.09 316.87 891.09 348 8.91 348 8.91 316.87 8.91 316.87"/></clipPath><clipPath id="clip-path-18"><polygon class="cls-1" points="8.06 0.52 891.94 0.52 891.94 348.84 8.06 348.84 8.06 0.52 8.06 0.52"/></clipPath></defs><title>GROUND THRUTH LEGENDseasonal-calendar</title><g class="cls-3"><polyline class="cls-4" points="8.06 0.52 8.06 51.85 891.94 51.85 891.94 0.52 8.06 0.52"/><polyline class="cls-5" points="8.06 51.01 8.06 89.71 201.02 89.71 201.02 51.01 8.06 51.01"/><polyline class="cls-6" points="200.17 51.01 200.17 89.71 408.29 89.71 408.29 51.01 200.17 51.01"/><polyline class="cls-7" points="407.45 51.01 407.45 89.71 477.38 89.71 477.38 51.01 407.45 51.01"/><polyline class="cls-8" points="476.54 51.01 476.54 89.71 615.57 89.71 615.57 51.01 476.54 51.01"/><polyline class="cls-9" points="614.73 51.01 614.73 89.71 684.66 89.71 684.66 51.01 614.73 51.01"/><polyline class="cls-6" points="683.82 51.01 683.82 89.71 891.94 89.71 891.94 51.01 683.82 51.01"/><polyline class="cls-5" points="8.06 88.86 8.06 127.57 201.02 127.57 201.02 88.86 8.06 88.86"/><polyline class="cls-7" points="200.17 88.86 200.17 127.57 270.11 127.57 270.11 88.86 200.17 88.86"/><polyline class="cls-8" points="269.26 88.86 269.26 127.57 339.2 127.57 339.2 88.86 269.26 88.86"/><polyline class="cls-9" points="338.36 88.86 338.36 127.57 408.29 127.57 408.29 88.86 338.36 88.86"/><polyline class="cls-6" points="407.45 88.86 407.45 127.57 891.94 127.57 891.94 88.86 407.45 88.86"/><polyline class="cls-5" points="8.06 126.73 8.06 165.43 201.02 165.43 201.02 126.73 8.06 126.73"/><polyline class="cls-6" points="200.17 126.73 200.17 165.43 408.29 165.43 408.29 126.73 200.17 126.73"/><polyline class="cls-7" points="407.45 126.73 407.45 165.43 477.38 165.43 477.38 126.73 407.45 126.73"/><polyline class="cls-8" points="476.54 126.73 476.54 165.43 546.48 165.43 546.48 126.73 476.54 126.73"/><polyline class="cls-9" points="545.63 126.73 545.63 165.43 615.57 165.43 615.57 126.73 545.63 126.73"/><polyline class="cls-5" points="8.06 164.59 8.06 203.29 201.02 203.29 201.02 164.59 8.06 164.59"/><polyline class="cls-6" points="200.17 164.59 200.17 203.29 408.29 203.29 408.29 164.59 200.17 164.59"/><polyline class="cls-7" points="407.45 164.59 407.45 203.29 477.38 203.29 477.38 164.59 407.45 164.59"/><polyline class="cls-8" points="476.54 164.59 476.54 203.29 615.57 203.29 615.57 164.59 476.54 164.59"/><polyline class="cls-9" points="614.73 164.59 614.73 203.29 684.66 203.29 684.66 164.59 614.73 164.59"/><polyline class="cls-6" points="683.82 164.59 683.82 203.29 891.94 203.29 891.94 164.59 683.82 164.59"/><polyline class="cls-5" points="8.06 202.45 8.06 316.87 201.02 316.87 201.02 202.45 8.06 202.45"/><polyline class="cls-6" points="200.17 202.45 200.17 316.87 408.29 316.87 408.29 202.45 200.17 202.45"/><polyline class="cls-7" points="407.45 202.45 407.45 316.87 477.38 316.87 477.38 202.45 407.45 202.45"/><polyline class="cls-8" points="476.54 202.45 476.54 316.87 546.48 316.87 546.48 202.45 476.54 202.45"/><polyline class="cls-9" points="545.63 202.45 545.63 316.87 615.57 316.87 615.57 202.45 545.63 202.45"/><polyline class="cls-6" points="614.73 202.45 614.73 316.87 891.94 316.87 891.94 202.45 614.73 202.45"/><polyline class="cls-6" points="8.06 316.03 8.06 348.84 891.94 348.84 891.94 316.03 8.06 316.03"/></g><g class="cls-10"><text class="cls-11" transform="translate(14.8 22.41)"><tspan class="cls-12">A</tspan><tspan class="cls-13" x="7.57" y="0">g</tspan><tspan class="cls-14" x="15.16" y="0">r</tspan><tspan class="cls-15" x="20.19" y="0">o</tspan><tspan x="27.78" y="0">-</tspan><tspan class="cls-16" x="31.98" y="0">c</tspan><tspan class="cls-17" x="38.72" y="0">li</tspan><tspan class="cls-18" x="45.46" y="0">m</tspan><tspan class="cls-16" x="55.55" y="0">a</tspan><tspan x="62.29" y="0">t</tspan><tspan class="cls-17" x="66.5" y="0">i</tspan><tspan class="cls-16" x="69.86" y="0">c</tspan><tspan x="76.61" y="0"> </tspan></text><text class="cls-11" transform="translate(38.4 39.24)"><tspan class="cls-19">z</tspan><tspan class="cls-15" x="6.73" y="0">on</tspan><tspan x="21.89" y="0">e</tspan></text></g><g class="cls-20"><text class="cls-21" transform="translate(127.71 30.82)">R<tspan class="cls-22" x="9.25" y="0">e</tspan><tspan class="cls-15" x="16.81" y="0">g</tspan><tspan class="cls-23" x="24.4" y="0">i</tspan><tspan class="cls-15" x="27.76" y="0">o</tspan><tspan class="cls-24" x="35.35" y="0">n</tspan></text><text class="cls-11" transform="translate(223.77 30.82)"><tspan class="cls-19">M</tspan><tspan class="cls-16" x="10.93" y="0">a</tspan><tspan x="17.67" y="0">r</tspan></text><text class="cls-25" transform="translate(293.7 30.82)">A<tspan class="cls-13" x="7.57" y="0">p</tspan><tspan class="cls-24" x="15.16" y="0">r</tspan></text><text class="cls-11" transform="translate(361.11 30.82)"><tspan class="cls-19">M</tspan><tspan class="cls-16" x="10.93" y="0">a</tspan><tspan x="17.67" y="0">y</tspan></text><text class="cls-11" transform="translate(431.04 30.82)"><tspan class="cls-16">J</tspan><tspan class="cls-15" x="6.74" y="0">u</tspan><tspan x="14.32" y="0">n</tspan></text><text class="cls-11" transform="translate(502.66 30.82)"><tspan class="cls-16">J</tspan><tspan class="cls-15" x="6.74" y="0">u</tspan><tspan x="14.32" y="0">l</tspan></text><text class="cls-25" transform="translate(569.23 30.82)">A<tspan class="cls-13" x="7.57" y="0">u</tspan><tspan class="cls-24" x="15.16" y="0">g</tspan></text><text class="cls-11" transform="translate(637.48 30.82)">S<tspan class="cls-26" x="8.42" y="0">e</tspan><tspan class="cls-24" x="15.98" y="0">p</tspan></text><text class="cls-27" transform="translate(708.25 30.82)">O<tspan class="cls-16" x="10.09" y="0">c</tspan><tspan class="cls-24" x="16.84" y="0">t</tspan></text><text class="cls-11" transform="translate(775.66 30.82)"><tspan class="cls-28">N</tspan><tspan class="cls-15" x="9.25" y="0">o</tspan><tspan x="16.84" y="0">v</tspan></text><text class="cls-11" transform="translate(844.75 30.82)"><tspan class="cls-28">D</tspan><tspan class="cls-22" x="9.25" y="0">e</tspan><tspan x="16.81" y="0">c</tspan></text></g><g class="cls-29"><text class="cls-30" transform="translate(279.37 112.43)">S<tspan class="cls-15" x="8.42" y="0">u</tspan><tspan class="cls-18" x="16" y="0">mm</tspan><tspan class="cls-22" x="36.2" y="0">e</tspan><tspan x="43.76" y="0">r</tspan></text></g><g class="cls-3"><text class="cls-11" transform="translate(40.08 150.29)"><tspan class="cls-31">T</tspan><tspan class="cls-32" x="8.4" y="0">G</tspan><tspan x="18.5" y="0">P</tspan></text><text class="cls-11" transform="translate(107.49 150.29)"><tspan class="cls-28">R</tspan><tspan x="9.25" y="0">-4</tspan></text></g><g class="cls-33"><text class="cls-30" transform="translate(493.4 150.29)"><tspan class="cls-28">K</tspan><tspan class="cls-15" x="9.25" y="0">h</tspan><tspan class="cls-16" x="16.84" y="0">a</tspan><tspan class="cls-14" x="23.58" y="0">r</tspan><tspan class="cls-17" x="28.61" y="0">i</tspan><tspan x="31.98" y="0">f</tspan></text></g><g class="cls-3"><text class="cls-11" transform="translate(39.24 188.15)"><tspan class="cls-34">W</tspan><tspan x="10.94" y="0">PH</tspan></text><text class="cls-11" transform="translate(107.49 188.15)"><tspan class="cls-28">R</tspan><tspan x="9.25" y="0">-6</tspan></text><text class="cls-35" transform="translate(40.08 226.01)">W<tspan class="cls-28" x="10.94" y="0">D</tspan><tspan class="cls-24" x="20.19" y="0">Z</tspan></text><text class="cls-11" transform="translate(107.49 226.01)"><tspan class="cls-28">R</tspan><tspan x="9.25" y="0">-8</tspan></text></g><g class="cls-36"><text class="cls-30" transform="translate(493.4 226.01)"><tspan class="cls-28">K</tspan><tspan class="cls-15" x="9.25" y="0">h</tspan><tspan class="cls-16" x="16.84" y="0">a</tspan><tspan class="cls-14" x="23.58" y="0">r</tspan><tspan class="cls-17" x="28.61" y="0">i</tspan><tspan x="31.98" y="0">f</tspan></text></g><g class="cls-3"><text class="cls-21" transform="translate(39.24 263.87)">U<tspan class="cls-37" x="9.25" y="0">G</tspan><tspan class="cls-38" x="19.35" y="0">P</tspan></text><text class="cls-11" transform="translate(107.49 263.87)"><tspan class="cls-28">R</tspan><tspan x="9.25" y="0">-</tspan><tspan class="cls-16" x="13.46" y="0">9</tspan><tspan class="cls-17" x="20.2" y="0">, </tspan><tspan class="cls-28" x="26.93" y="0">R</tspan><tspan x="36.18" y="0">-</tspan><tspan class="cls-16" x="40.39" y="0">1</tspan><tspan x="47.13" y="0">0</tspan></text></g><g class="cls-39"><text class="cls-30" transform="translate(493.4 263.87)"><tspan class="cls-28">K</tspan><tspan class="cls-15" x="9.25" y="0">h</tspan><tspan class="cls-16" x="16.84" y="0">a</tspan><tspan class="cls-14" x="23.58" y="0">r</tspan><tspan class="cls-17" x="28.61" y="0">i</tspan><tspan x="31.98" y="0">f</tspan></text></g><g class="cls-3"><text class="cls-11" transform="translate(40.08 301.73)">SPH</text><text class="cls-11" transform="translate(107.49 301.73)"><tspan class="cls-28">R</tspan><tspan x="9.25" y="0">-</tspan><tspan class="cls-16" x="13.46" y="0">2</tspan><tspan class="cls-24" x="20.2" y="0">0</tspan></text></g><g class="cls-40"><text class="cls-30" transform="translate(493.4 301.73)"><tspan class="cls-28">K</tspan><tspan class="cls-15" x="9.25" y="0">h</tspan><tspan class="cls-16" x="16.84" y="0">a</tspan><tspan class="cls-14" x="23.58" y="0">r</tspan><tspan class="cls-17" x="28.61" y="0">i</tspan><tspan x="31.98" y="0">f</tspan></text></g><g class="cls-41"><text class="cls-30" transform="translate(527.94 74.57)"><tspan class="cls-28">K</tspan><tspan class="cls-15" x="9.25" y="0">h</tspan><tspan class="cls-16" x="16.84" y="0">a</tspan><tspan class="cls-14" x="23.58" y="0">r</tspan><tspan class="cls-17" x="28.61" y="0">i</tspan><tspan x="31.98" y="0">f</tspan></text></g><g class="cls-42"><text class="cls-30" transform="translate(527.94 188.15)"><tspan class="cls-28">K</tspan><tspan class="cls-15" x="9.25" y="0">h</tspan><tspan class="cls-16" x="16.84" y="0">a</tspan><tspan class="cls-14" x="23.58" y="0">r</tspan><tspan class="cls-17" x="28.61" y="0">i</tspan><tspan x="31.98" y="0">f</tspan></text></g><g class="cls-43"><text class="cls-11" transform="translate(39.24 93.09)"><tspan class="cls-32">G</tspan><tspan x="10.09" y="0">PH</tspan></text></g><g class="cls-44"><text class="cls-11" transform="translate(107.49 93.09)"><tspan class="cls-28">R</tspan><tspan x="9.25" y="0">-</tspan><tspan class="cls-16" x="13.46" y="0">2</tspan><tspan class="cls-17" x="20.2" y="0">, </tspan><tspan class="cls-28" x="26.93" y="0">R</tspan><tspan x="36.18" y="0">-</tspan><tspan class="cls-16" x="40.39" y="0">11</tspan><tspan class="cls-17" x="53.87" y="0">, </tspan><tspan class="cls-28" x="60.6" y="0">R</tspan><tspan class="cls-24" x="69.86" y="0">-</tspan><tspan class="cls-16" x="74.06" y="0">1</tspan><tspan x="80.8" y="0">3</tspan></text></g><g class="cls-45"><text class="cls-46" transform="translate(10.6 335.37)"><tspan class="cls-47">N</tspan><tspan class="cls-48" x="6.74" y="0">o</tspan><tspan class="cls-49" x="12.63" y="0">t</tspan><tspan class="cls-50" x="15.99" y="0">e</tspan><tspan x="21.88" y="0">:</tspan></text><text class="cls-51" transform="translate(35.03 335.37)"> </text><text class="cls-46" transform="translate(37.56 335.37)"><tspan class="cls-52">G</tspan><tspan x="6.73" y="0">PH</tspan></text><text class="cls-51" transform="translate(57.78 335.37)"><tspan class="cls-53" xml:space="preserve"> G</tspan><tspan class="cls-50" x="10.11" y="0">uja</tspan><tspan x="24.4" y="0">r</tspan><tspan class="cls-50" x="27.77" y="0">a</tspan><tspan class="cls-53" x="33.65" y="0">t </tspan><tspan x="38.72" y="0">P</tspan><tspan class="cls-50" x="45.45" y="0">lain</tspan><tspan class="cls-54" x="62.26" y="0">s</tspan><tspan class="cls-53" x="68.14" y="0"> </tspan><tspan class="cls-50" x="70.68" y="0">and</tspan><tspan class="cls-53" x="88.34" y="0"> </tspan><tspan class="cls-50" x="90.87" y="0">Hill</tspan><tspan class="cls-55" x="105.98" y="0">s</tspan><tspan class="cls-53" x="111.87" y="0">,</tspan><tspan class="cls-49" x="114.4" y="0"> </tspan></text><text class="cls-46" transform="translate(174.9 335.37)"><tspan class="cls-48">T</tspan><tspan class="cls-52" x="5.89" y="0">G</tspan><tspan x="12.63" y="0">P</tspan></text><text class="cls-51" transform="translate(194.28 335.37)"><tspan class="cls-53" xml:space="preserve"> T</tspan><tspan x="8.43" y="0">r</tspan><tspan class="cls-50" x="11.79" y="0">an</tspan><tspan class="cls-54" x="23.56" y="0">s</tspan><tspan class="cls-48" x="29.45" y="0" xml:space="preserve"> G</tspan><tspan class="cls-50" x="39.56" y="0">ange</tspan><tspan class="cls-53" x="63.11" y="0">t</tspan><tspan class="cls-50" x="65.65" y="0">i</tspan><tspan x="68.16" y="0">c</tspan><tspan class="cls-53" x="73.21" y="0"> </tspan><tspan x="75.74" y="0">P</tspan><tspan class="cls-50" x="82.48" y="0">lain</tspan><tspan class="cls-53" x="99.28" y="0">,</tspan><tspan x="101.81" y="0"> </tspan></text><text class="cls-46" transform="translate(298.76 335.37)"><tspan class="cls-56">W</tspan><tspan x="10.09" y="0">PH</tspan></text><text class="cls-51" transform="translate(322.35 335.37)"><tspan class="cls-53" xml:space="preserve"> W</tspan><tspan class="cls-50" x="11.79" y="0">e</tspan><tspan class="cls-54" x="17.68" y="0">s</tspan><tspan class="cls-53" x="23.56" y="0">t</tspan><tspan class="cls-50" x="26.1" y="0">e</tspan><tspan class="cls-49" x="31.98" y="0">r</tspan><tspan class="cls-50" x="35.34" y="0">n</tspan><tspan class="cls-53" x="41.23" y="0"> </tspan><tspan x="43.76" y="0">P</tspan><tspan class="cls-50" x="50.5" y="0">la</tspan><tspan class="cls-53" x="58.9" y="0">t</tspan><tspan class="cls-57" x="61.43" y="0">eau</tspan><tspan class="cls-53" x="79.1" y="0"> </tspan><tspan class="cls-50" x="81.63" y="0">and</tspan><tspan class="cls-53" x="99.29" y="0"> </tspan><tspan class="cls-50" x="101.82" y="0">Hill</tspan><tspan class="cls-55" x="116.93" y="0">s</tspan><tspan class="cls-53" x="122.82" y="0">,</tspan><tspan class="cls-49" x="125.35" y="0"> </tspan></text><text class="cls-46" transform="translate(450.42 335.37)"><tspan class="cls-56">W</tspan><tspan class="cls-47" x="10.09" y="0">D</tspan><tspan x="16.83" y="0">Z</tspan></text><text class="cls-51" transform="translate(473.17 335.37)"><tspan class="cls-53" xml:space="preserve"> W</tspan><tspan class="cls-50" x="11.79" y="0">e</tspan><tspan class="cls-54" x="17.68" y="0">s</tspan><tspan class="cls-53" x="23.56" y="0">t</tspan><tspan class="cls-50" x="26.1" y="0">e</tspan><tspan class="cls-49" x="31.98" y="0">r</tspan><tspan class="cls-50" x="35.34" y="0">n</tspan><tspan class="cls-53" x="41.23" y="0"> </tspan><tspan class="cls-50" x="43.76" y="0">D</tspan><tspan x="51.33" y="0">r</tspan><tspan class="cls-58" x="54.69" y="0">y</tspan><tspan class="cls-53" x="58.9" y="0" xml:space="preserve"> Z</tspan><tspan class="cls-50" x="67.33" y="0">one</tspan><tspan class="cls-53" x="84.99" y="0">,</tspan><tspan x="87.52" y="0"> </tspan></text><text class="cls-46" transform="translate(563.33 335.37)"><tspan class="cls-47">U</tspan><tspan class="cls-52" x="6.74" y="0">G</tspan><tspan x="13.47" y="0">P</tspan></text><text class="cls-51" transform="translate(583.55 335.37)"><tspan class="cls-53"> </tspan><tspan class="cls-50" x="2.53" y="0">Uppe</tspan><tspan x="27.76" y="0">r</tspan><tspan class="cls-53" x="31.12" y="0" xml:space="preserve"> G</tspan><tspan class="cls-57" x="41.23" y="0">ange</tspan><tspan class="cls-53" x="64.78" y="0">t</tspan><tspan class="cls-50" x="67.32" y="0">i</tspan><tspan class="cls-49" x="69.83" y="0">c</tspan><tspan class="cls-48" x="74.88" y="0"> </tspan><tspan class="cls-49" x="77.41" y="0">P</tspan><tspan class="cls-50" x="84.15" y="0">lain</tspan><tspan class="cls-53" x="100.95" y="0">,</tspan><tspan x="103.48" y="0"> </tspan></text><text class="cls-46" transform="translate(689.72 335.37)">SPH</text><text class="cls-51" transform="translate(709.94 335.37)"><tspan class="cls-53"> </tspan><tspan x="2.53" y="0">S</tspan><tspan class="cls-50" x="9.27" y="0">ou</tspan><tspan class="cls-53" x="21.04" y="0">t</tspan><tspan class="cls-50" x="23.57" y="0">he</tspan><tspan x="35.35" y="0">r</tspan><tspan class="cls-50" x="38.71" y="0">n</tspan><tspan class="cls-53" x="44.6" y="0"> </tspan><tspan class="cls-49" x="47.13" y="0">P</tspan><tspan class="cls-50" x="53.86" y="0">la</tspan><tspan class="cls-53" x="62.27" y="0">t</tspan><tspan class="cls-50" x="64.8" y="0">eau</tspan><tspan class="cls-53" x="82.46" y="0"> </tspan><tspan class="cls-50" x="85" y="0">and</tspan><tspan class="cls-53" x="102.66" y="0"> </tspan><tspan class="cls-57" x="105.19" y="0">Hill</tspan><tspan class="cls-54" x="120.3" y="0">s</tspan><tspan x="126.19" y="0"> </tspan></text></g><g class="cls-59"><polyline class="cls-60" points="8.91 0.52 8.91 1.37 891.94 1.37 891.94 0.52 8.91 0.52"/><polyline class="cls-60" points="407.45 1.37 407.45 51.85 408.29 51.85 408.29 1.37 407.45 1.37"/><polyline class="cls-60" points="476.54 1.37 476.54 51.85 477.38 51.85 477.38 1.37 476.54 1.37"/><polyline class="cls-60" points="614.73 1.37 614.73 51.85 615.57 51.85 615.57 1.37 614.73 1.37"/><polyline class="cls-60" points="683.82 1.37 683.82 51.85 684.66 51.85 684.66 1.37 683.82 1.37"/><polyline class="cls-60" points="8.91 51.01 8.91 51.85 891.94 51.85 891.94 51.01 8.91 51.01"/><polyline class="cls-60" points="269.26 1.37 269.26 51.85 270.11 51.85 270.11 1.37 269.26 1.37"/><polyline class="cls-60" points="338.36 1.37 338.36 51.85 339.2 51.85 339.2 1.37 338.36 1.37"/><polyline class="cls-60" points="201.02 88.86 201.02 89.71 891.94 89.71 891.94 88.86 201.02 88.86"/><polyline class="cls-60" points="545.63 1.37 545.63 51.85 546.48 51.85 546.48 1.37 545.63 1.37"/><polyline class="cls-60" points="8.91 126.73 8.91 127.57 891.94 127.57 891.94 126.73 8.91 126.73"/><polyline class="cls-60" points="8.91 164.59 8.91 165.43 891.94 165.43 891.94 164.59 8.91 164.59"/><polyline class="cls-60" points="8.91 202.45 8.91 203.29 891.94 203.29 891.94 202.45 8.91 202.45"/><polyline class="cls-60" points="8.91 240.31 8.91 241.15 891.94 241.15 891.94 240.31 8.91 240.31"/><polyline class="cls-60" points="8.91 278.17 8.91 279.01 891.94 279.01 891.94 278.17 8.91 278.17"/><polyline class="cls-60" points="8.06 0.52 8.06 316.87 8.91 316.87 8.91 0.52 8.06 0.52"/><polyline class="cls-60" points="8.91 316.03 8.91 316.87 891.94 316.87 891.94 316.03 8.91 316.03"/><polyline class="cls-60" points="891.09 1.37 891.09 316.87 891.94 316.87 891.94 1.37 891.09 1.37"/><polyline class="cls-6" points="8.06 316.87 8.06 348.84 8.91 348.84 8.91 316.87 8.06 316.87"/><polyline class="cls-60" points="97.38 1.37 97.38 316.87 98.22 316.87 98.22 1.37 97.38 1.37"/><polyline class="cls-60" points="200.17 1.37 200.17 316.87 201.02 316.87 201.02 1.37 200.17 1.37"/><polyline class="cls-6" points="614.73 348 614.73 348.84 684.66 348.84 684.66 348 614.73 348"/><polyline class="cls-60" points="752.91 1.37 752.91 51.85 753.75 51.85 753.75 1.37 752.91 1.37"/><polyline class="cls-60" points="822 1.37 822 51.85 822.84 51.85 822.84 1.37 822 1.37"/><polyline class="cls-61" points="8.06 348.84 8.06 349.68 8.91 349.68 8.91 348.84 8.06 348.84"/><polyline class="cls-61" points="97.38 348.84 97.38 349.68 98.22 349.68 98.22 348.84 97.38 348.84"/><polyline class="cls-61" points="200.17 348.84 200.17 349.68 201.02 349.68 201.02 348.84 200.17 348.84"/><polyline class="cls-61" points="269.26 348.84 269.26 349.68 270.11 349.68 270.11 348.84 269.26 348.84"/><polyline class="cls-61" points="338.36 348.84 338.36 349.68 339.2 349.68 339.2 348.84 338.36 348.84"/><polyline class="cls-61" points="407.45 348.84 407.45 349.68 408.29 349.68 408.29 348.84 407.45 348.84"/><polyline class="cls-61" points="476.54 348.84 476.54 349.68 477.38 349.68 477.38 348.84 476.54 348.84"/><polyline class="cls-61" points="545.63 348.84 545.63 349.68 546.48 349.68 546.48 348.84 545.63 348.84"/><polyline class="cls-61" points="614.73 348.84 614.73 349.68 615.57 349.68 615.57 348.84 614.73 348.84"/><polyline class="cls-61" points="683.82 348.84 683.82 349.68 684.66 349.68 684.66 348.84 683.82 348.84"/><polyline class="cls-61" points="752.91 348.84 752.91 349.68 753.75 349.68 753.75 348.84 752.91 348.84"/><polyline class="cls-61" points="822 348.84 822 349.68 822.84 349.68 822.84 348.84 822 348.84"/><polyline class="cls-61" points="891.09 348.84 891.09 349.68 891.94 349.68 891.94 348.84 891.09 348.84"/><polyline class="cls-61" points="891.94 0.52 891.94 1.37 892.78 1.37 892.78 0.52 891.94 0.52"/><polyline class="cls-61" points="891.94 51.01 891.94 51.85 892.78 51.85 892.78 51.01 891.94 51.01"/><polyline class="cls-61" points="891.94 88.86 891.94 89.71 892.78 89.71 892.78 88.86 891.94 88.86"/><polyline class="cls-61" points="891.94 126.73 891.94 127.57 892.78 127.57 892.78 126.73 891.94 126.73"/><polyline class="cls-61" points="891.94 164.59 891.94 165.43 892.78 165.43 892.78 164.59 891.94 164.59"/><polyline class="cls-61" points="891.94 202.45 891.94 203.29 892.78 203.29 892.78 202.45 891.94 202.45"/><polyline class="cls-61" points="891.94 240.31 891.94 241.15 892.78 241.15 892.78 240.31 891.94 240.31"/><polyline class="cls-61" points="891.94 278.17 891.94 279.01 892.78 279.01 892.78 278.17 891.94 278.17"/><polyline class="cls-61" points="891.94 316.03 891.94 316.87 892.78 316.87 892.78 316.03 891.94 316.03"/><polyline class="cls-61" points="891.94 348 891.94 348.84 892.78 348.84 892.78 348 891.94 348"/></g></svg>