<svg id="Layer_1" data-name="Layer 1" xmlns="http://www.w3.org/2000/svg" xmlns:xlink="http://www.w3.org/1999/xlink" viewBox="0 0 900 350"><defs><clipPath id="clip-path"><polygon points="8.91 1.37 891.94 1.37 891.94 348.84 8.91 348.84 8.91 1.37 8.91 1.37" style="fill:none;clip-rule:evenodd"/></clipPath><clipPath id="clip-path-2"><polygon points="8.91 1.37 97.38 1.37 97.38 51.01 8.91 51.01 8.91 1.37 8.91 1.37" style="fill:none;clip-rule:evenodd"/></clipPath><clipPath id="clip-path-3"><polygon points="8.91 1.37 891.94 1.37 891.94 51.01 8.91 51.01 8.91 1.37 8.91 1.37" style="fill:none;clip-rule:evenodd"/></clipPath><clipPath id="clip-path-4"><polygon points="8.91 89.71 891.94 89.71 891.94 126.73 8.91 126.73 8.91 89.71 8.91 89.71" style="fill:none;clip-rule:evenodd"/></clipPath><clipPath id="clip-path-6"><polygon points="8.91 127.57 891.94 127.57 891.94 164.59 8.91 164.59 8.91 127.57 8.91 127.57" style="fill:none;clip-rule:evenodd"/></clipPath><clipPath id="clip-path-8"><polygon points="8.91 203.29 891.94 203.29 891.94 240.31 8.91 240.31 8.91 203.29 8.91 203.29" style="fill:none;clip-rule:evenodd"/></clipPath><clipPath id="clip-path-10"><polygon points="8.91 241.15 891.94 241.15 891.94 278.17 8.91 278.17 8.91 241.15 8.91 241.15" style="fill:none;clip-rule:evenodd"/></clipPath><clipPath id="clip-path-12"><polygon points="8.91 279.01 891.94 279.01 891.94 316.03 8.91 316.03 8.91 279.01 8.91 279.01" style="fill:none;clip-rule:evenodd"/></clipPath><clipPath id="clip-path-13"><polygon points="477.38 51.85 614.73 51.85 614.73 88.86 477.38 88.86 477.38 51.85 477.38 51.85" style="fill:none;clip-rule:evenodd"/></clipPath><clipPath id="clip-path-14"><polygon points="477.38 165.43 614.73 165.43 614.73 202.45 477.38 202.45 477.38 165.43 477.38 165.43" style="fill:none;clip-rule:evenodd"/></clipPath><clipPath id="clip-path-15"><polygon points="8.91 51.85 97.38 51.85 97.38 126.73 8.91 126.73 8.91 51.85 8.91 51.85" style="fill:none;clip-rule:evenodd"/></clipPath><clipPath id="clip-path-16"><polygon points="98.22 51.85 200.17 51.85 200.17 126.73 98.22 126.73 98.22 51.85 98.22 51.85" style="fill:none;clip-rule:evenodd"/></clipPath><clipPath id="clip-path-17"><polygon points="8.91 316.87 891.09 316.87 891.09 348 8.91 348 8.91 316.87 8.91 316.87" style="fill:none;clip-rule:evenodd"/></clipPath><clipPath id="clip-path-18"><polygon points="8.06 0.52 891.94 0.52 891.94 348.84 8.06 348.84 8.06 0.52 8.06 0.52" style="fill:none;clip-rule:evenodd"/></clipPath></defs><title>Seasonal Calendar</title><g style="clip-path:url(#clip-path)"><polyline points="8.06 0.52 8.06 51.85 891.94 51.85 891.94 0.52 8.06 0.52" style="fill:#d9d9d9;fill-rule:evenodd"/><polyline points="8.06 51.01 8.06 89.71 201.02 89.71 201.02 51.01 8.06 51.01" style="fill:#f2f2f2;fill-rule:evenodd"/><polyline points="200.17 51.01 200.17 89.71 408.29 89.71 408.29 51.01 200.17 51.01" style="fill:#fff;fill-rule:evenodd"/><polyline points="407.45 51.01 407.45 89.71 477.38 89.71 477.38 51.01 407.45 51.01" style="fill:#5e9fff;fill-rule:evenodd"/><polyline points="476.54 51.01 476.54 89.71 615.57 89.71 615.57 51.01 476.54 51.01" style="fill:#06f;fill-rule:evenodd"/><polyline points="614.73 51.01 614.73 89.71 684.66 89.71 684.66 51.01 614.73 51.01" style="fill:#0044ab;fill-rule:evenodd"/><polyline points="683.82 51.01 683.82 89.71 891.94 89.71 891.94 51.01 683.82 51.01" style="fill:#fff;fill-rule:evenodd"/><polyline points="8.06 88.86 8.06 127.57 201.02 127.57 201.02 88.86 8.06 88.86" style="fill:#f2f2f2;fill-rule:evenodd"/><polyline points="200.17 88.86 200.17 127.57 270.11 127.57 270.11 88.86 200.17 88.86" style="fill:#5e9fff;fill-rule:evenodd"/><polyline points="269.26 88.86 269.26 127.57 339.2 127.57 339.2 88.86 269.26 88.86" style="fill:#06f;fill-rule:evenodd"/><polyline points="338.36 88.86 338.36 127.57 408.29 127.57 408.29 88.86 338.36 88.86" style="fill:#0044ab;fill-rule:evenodd"/><polyline points="407.45 88.86 407.45 127.57 891.94 127.57 891.94 88.86 407.45 88.86" style="fill:#fff;fill-rule:evenodd"/><polyline points="8.06 126.73 8.06 165.43 201.02 165.43 201.02 126.73 8.06 126.73" style="fill:#f2f2f2;fill-rule:evenodd"/><polyline points="200.17 126.73 200.17 165.43 408.29 165.43 408.29 126.73 200.17 126.73" style="fill:#fff;fill-rule:evenodd"/><polyline points="407.45 126.73 407.45 165.43 477.38 165.43 477.38 126.73 407.45 126.73" style="fill:#5e9fff;fill-rule:evenodd"/><polyline points="476.54 126.73 476.54 165.43 546.48 165.43 546.48 126.73 476.54 126.73" style="fill:#06f;fill-rule:evenodd"/><polyline points="545.63 126.73 545.63 165.43 615.57 165.43 615.57 126.73 545.63 126.73" style="fill:#0044ab;fill-rule:evenodd"/><polyline points="8.06 164.59 8.06 203.29 201.02 203.29 201.02 164.59 8.06 164.59" style="fill:#f2f2f2;fill-rule:evenodd"/><polyline points="200.17 164.59 200.17 203.29 408.29 203.29 408.29 164.59 200.17 164.59" style="fill:#fff;fill-rule:evenodd"/><polyline points="407.45 164.59 407.45 203.29 477.38 203.29 477.38 164.59 407.45 164.59" style="fill:#5e9fff;fill-rule:evenodd"/><polyline points="476.54 164.59 476.54 203.29 615.57 203.29 615.57 164.59 476.54 164.59" style="fill:#06f;fill-rule:evenodd"/><polyline points="614.73 164.59 614.73 203.29 684.66 203.29 684.66 164.59 614.73 164.59" style="fill:#0044ab;fill-rule:evenodd"/><polyline points="683.82 164.59 683.82 203.29 891.94 203.29 891.94 164.59 683.82 164.59" style="fill:#fff;fill-rule:evenodd"/><polyline points="8.06 202.45 8.06 316.87 201.02 316.87 201.02 202.45 8.06 202.45" style="fill:#f2f2f2;fill-rule:evenodd"/><polyline points="200.17 202.45 200.17 316.87 408.29 316.87 408.29 202.45 200.17 202.45" style="fill:#fff;fill-rule:evenodd"/><polyline points="407.45 202.45 407.45 316.87 477.38 316.87 477.38 202.45 407.45 202.45" style="fill:#5e9fff;fill-rule:evenodd"/><polyline points="476.54 202.45 476.54 316.87 546.48 316.87 546.48 202.45 476.54 202.45" style="fill:#06f;fill-rule:evenodd"/><polyline points="545.63 202.45 545.63 316.87 615.57 316.87 615.57 202.45 545.63 202.45" style="fill:#0044ab;fill-rule:evenodd"/><polyline points="614.73 202.45 614.73 316.87 891.94 316.87 891.94 202.45 614.73 202.45" style="fill:#fff;fill-rule:evenodd"/><polyline points="8.06 316.03 8.06 348.84 891.94 348.84 891.94 316.03 8.06 316.03" style="fill:#fff;fill-rule:evenodd"/></g><g style="clip-path:url(#clip-path-2)"><text transform="translate(14.8 22.41)" style="font-size:12.620129585266113px;font-family:Arial-BoldMT, Arial;font-weight:700"><tspan style="letter-spacing:-0.12200456634595887em">A</tspan><tspan x="7.57" y="0" style="letter-spacing:-0.009967440822437425em">g</tspan><tspan x="15.16" y="0" style="letter-spacing:0.009967440822437425em">r</tspan><tspan x="20.19" y="0" style="letter-spacing:-0.010044707805557095em">o</tspan><tspan x="27.78" y="0">-</tspan><tspan x="31.98" y="0" style="letter-spacing:-0.022021090189105936em">c</tspan><tspan x="38.72" y="0" style="letter-spacing:-0.011049178586112806em">li</tspan><tspan x="45.46" y="0" style="letter-spacing:-0.08901156455385979em">m</tspan><tspan x="55.55" y="0" style="letter-spacing:-0.022021090189105936em">a</tspan><tspan x="62.29" y="0">t</tspan><tspan x="66.5" y="0" style="letter-spacing:-0.011049178586112806em">i</tspan><tspan x="69.86" y="0" style="letter-spacing:-0.022021090189105936em">c</tspan><tspan x="76.61" y="0"> </tspan></text><text transform="translate(38.4 39.24)" style="font-size:12.620129585266113px;font-family:Arial-BoldMT, Arial;font-weight:700"><tspan style="letter-spacing:0.03299300179209908em">z</tspan><tspan x="6.73" y="0" style="letter-spacing:-0.010044707805557095em">on</tspan><tspan x="21.89" y="0">e</tspan></text></g><g style="clip-path:url(#clip-path-3)"><text transform="translate(127.71 30.82)" style="font-size:12.620129585266113px;font-family:Arial-BoldMT, Arial;font-weight:700;letter-spacing:0.011049178586112806em">R<tspan x="9.25" y="0" style="letter-spacing:0.0429604426145365em">e</tspan><tspan x="16.81" y="0" style="letter-spacing:-0.010044707805557095em">g</tspan><tspan x="24.4" y="0" style="letter-spacing:-0.010971911602993135em">i</tspan><tspan x="27.76" y="0" style="letter-spacing:-0.010044707805557095em">o</tspan><tspan x="35.35" y="0" style="letter-spacing:-0.00007726698311966997em">n</tspan></text><text transform="translate(223.77 30.82)" style="font-size:12.620129585266113px;font-family:Arial-BoldMT, Arial;font-weight:700"><tspan style="letter-spacing:0.03299300179209908em">M</tspan><tspan x="10.93" y="0" style="letter-spacing:-0.022021090189105936em">a</tspan><tspan x="17.67" y="0">r</tspan></text><text transform="translate(293.7 30.82)" style="font-size:12.620129585266113px;font-family:Arial-BoldMT, Arial;font-weight:700;letter-spacing:-0.12200456634595887em">A<tspan x="7.57" y="0" style="letter-spacing:-0.009967440822437425em">p</tspan><tspan x="15.16" y="0" style="letter-spacing:-0.00007726698311966997em">r</tspan></text><text transform="translate(361.11 30.82)" style="font-size:12.620129585266113px;font-family:Arial-BoldMT, Arial;font-weight:700"><tspan style="letter-spacing:0.03299300179209908em">M</tspan><tspan x="10.93" y="0" style="letter-spacing:-0.022021090189105936em">a</tspan><tspan x="17.67" y="0">y</tspan></text><text transform="translate(431.04 30.82)" style="font-size:12.620129585266113px;font-family:Arial-BoldMT, Arial;font-weight:700"><tspan style="letter-spacing:-0.022021090189105936em">J</tspan><tspan x="6.74" y="0" style="letter-spacing:-0.010044707805557095em">u</tspan><tspan x="14.32" y="0">n</tspan></text><text transform="translate(502.66 30.82)" style="font-size:12.620129585266113px;font-family:Arial-BoldMT, Arial;font-weight:700"><tspan style="letter-spacing:-0.022021090189105936em">J</tspan><tspan x="6.74" y="0" style="letter-spacing:-0.010044707805557095em">u</tspan><tspan x="14.32" y="0">l</tspan></text><text transform="translate(569.23 30.82)" style="font-size:12.620129585266113px;font-family:Arial-BoldMT, Arial;font-weight:700;letter-spacing:-0.12200456634595887em">A<tspan x="7.57" y="0" style="letter-spacing:-0.009967440822437425em">u</tspan><tspan x="15.16" y="0" style="letter-spacing:-0.00007726698311966997em">g</tspan></text><text transform="translate(637.48 30.82)" style="font-size:12.620129585266113px;font-family:Arial-BoldMT, Arial;font-weight:700">S<tspan x="8.42" y="0" style="letter-spacing:0.04303770959765617em">e</tspan><tspan x="15.98" y="0" style="letter-spacing:-0.00007726698311966997em">p</tspan></text><text transform="translate(708.25 30.82)" style="font-size:12.620129585266113px;font-family:Arial-BoldMT, Arial;font-weight:700;letter-spacing:0.022021090189105936em">O<tspan x="10.09" y="0" style="letter-spacing:-0.022021090189105936em">c</tspan><tspan x="16.84" y="0" style="letter-spacing:-0.00007726698311966997em">t</tspan></text><text transform="translate(775.66 30.82)" style="font-size:12.620129585266113px;font-family:Arial-BoldMT, Arial;font-weight:700"><tspan style="letter-spacing:0.011049178586112806em">N</tspan><tspan x="9.25" y="0" style="letter-spacing:-0.010044707805557095em">o</tspan><tspan x="16.84" y="0">v</tspan></text><text transform="translate(844.75 30.82)" style="font-size:12.620129585266113px;font-family:Arial-BoldMT, Arial;font-weight:700"><tspan style="letter-spacing:0.011049178586112806em">D</tspan><tspan x="9.25" y="0" style="letter-spacing:0.0429604426145365em">e</tspan><tspan x="16.81" y="0">c</tspan></text></g><g style="clip-path:url(#clip-path-4)"><text transform="translate(279.37 112.43)" style="font-size:12.620129585266113px;fill:#fff;font-family:Arial-BoldMT, Arial;font-weight:700">S<tspan x="8.42" y="0" style="letter-spacing:-0.010044707805557095em">u</tspan><tspan x="16" y="0" style="letter-spacing:-0.08901156455385979em">mm</tspan><tspan x="36.2" y="0" style="letter-spacing:0.0429604426145365em">e</tspan><tspan x="43.76" y="0">r</tspan></text></g><g style="clip-path:url(#clip-path)"><text transform="translate(40.08 150.29)" style="font-size:12.620129585266113px;font-family:Arial-BoldMT, Arial;font-weight:700"><tspan style="letter-spacing:0.05493682499808534em">T</tspan><tspan x="8.4" y="0" style="letter-spacing:0.022021090189105936em">G</tspan><tspan x="18.5" y="0">P</tspan></text><text transform="translate(107.49 150.29)" style="font-size:12.620129585266113px;font-family:Arial-BoldMT, Arial;font-weight:700"><tspan style="letter-spacing:0.011049178586112806em">R</tspan><tspan x="9.25" y="0">-4</tspan></text></g><g style="clip-path:url(#clip-path-6)"><text transform="translate(493.4 150.29)" style="font-size:12.620129585266113px;fill:#fff;font-family:Arial-BoldMT, Arial;font-weight:700"><tspan style="letter-spacing:0.011049178586112806em">K</tspan><tspan x="9.25" y="0" style="letter-spacing:-0.010044707805557095em">h</tspan><tspan x="16.84" y="0" style="letter-spacing:-0.022021090189105936em">a</tspan><tspan x="23.58" y="0" style="letter-spacing:0.009967440822437425em">r</tspan><tspan x="28.61" y="0" style="letter-spacing:-0.011049178586112806em">i</tspan><tspan x="31.98" y="0">f</tspan></text></g><g style="clip-path:url(#clip-path)"><text transform="translate(39.24 188.15)" style="font-size:12.620129585266113px;font-family:Arial-BoldMT, Arial;font-weight:700"><tspan style="letter-spacing:-0.07695791518719129em">W</tspan><tspan x="10.94" y="0">PH</tspan></text><text transform="translate(107.49 188.15)" style="font-size:12.620129585266113px;font-family:Arial-BoldMT, Arial;font-weight:700"><tspan style="letter-spacing:0.011049178586112806em">R</tspan><tspan x="9.25" y="0">-6</tspan></text><text transform="translate(40.08 226.01)" style="font-size:12.620129585266113px;font-family:Arial-BoldMT, Arial;font-weight:700;letter-spacing:-0.07695791518719129em">W<tspan x="10.94" y="0" style="letter-spacing:0.011049178586112806em">D</tspan><tspan x="20.19" y="0" style="letter-spacing:-0.00007726698311966997em">Z</tspan></text><text transform="translate(107.49 226.01)" style="font-size:12.620129585266113px;font-family:Arial-BoldMT, Arial;font-weight:700"><tspan style="letter-spacing:0.011049178586112806em">R</tspan><tspan x="9.25" y="0">-8</tspan></text></g><g style="clip-path:url(#clip-path-8)"><text transform="translate(493.4 226.01)" style="font-size:12.620129585266113px;fill:#fff;font-family:Arial-BoldMT, Arial;font-weight:700"><tspan style="letter-spacing:0.011049178586112806em">K</tspan><tspan x="9.25" y="0" style="letter-spacing:-0.010044707805557095em">h</tspan><tspan x="16.84" y="0" style="letter-spacing:-0.022021090189105936em">a</tspan><tspan x="23.58" y="0" style="letter-spacing:0.009967440822437425em">r</tspan><tspan x="28.61" y="0" style="letter-spacing:-0.011049178586112806em">i</tspan><tspan x="31.98" y="0">f</tspan></text></g><g style="clip-path:url(#clip-path)"><text transform="translate(39.24 263.87)" style="font-size:12.620129585266113px;font-family:Arial-BoldMT, Arial;font-weight:700;letter-spacing:0.011049178586112806em">U<tspan x="9.25" y="0" style="letter-spacing:0.02194382320598627em">G</tspan><tspan x="19.35" y="0" style="letter-spacing:0.00007726698311966997em">P</tspan></text><text transform="translate(107.49 263.87)" style="font-size:12.620129585266113px;font-family:Arial-BoldMT, Arial;font-weight:700"><tspan style="letter-spacing:0.011049178586112806em">R</tspan><tspan x="9.25" y="0">-</tspan><tspan x="13.46" y="0" style="letter-spacing:-0.022021090189105936em">9</tspan><tspan x="20.2" y="0" style="letter-spacing:-0.011049178586112806em">, </tspan><tspan x="26.93" y="0" style="letter-spacing:0.011049178586112806em">R</tspan><tspan x="36.18" y="0">-</tspan><tspan x="40.39" y="0" style="letter-spacing:-0.022021090189105936em">1</tspan><tspan x="47.13" y="0">0</tspan></text></g><g style="clip-path:url(#clip-path-10)"><text transform="translate(493.4 263.87)" style="font-size:12.620129585266113px;fill:#fff;font-family:Arial-BoldMT, Arial;font-weight:700"><tspan style="letter-spacing:0.011049178586112806em">K</tspan><tspan x="9.25" y="0" style="letter-spacing:-0.010044707805557095em">h</tspan><tspan x="16.84" y="0" style="letter-spacing:-0.022021090189105936em">a</tspan><tspan x="23.58" y="0" style="letter-spacing:0.009967440822437425em">r</tspan><tspan x="28.61" y="0" style="letter-spacing:-0.011049178586112806em">i</tspan><tspan x="31.98" y="0">f</tspan></text></g><g style="clip-path:url(#clip-path)"><text transform="translate(40.08 301.73)" style="font-size:12.620129585266113px;font-family:Arial-BoldMT, Arial;font-weight:700">SPH</text><text transform="translate(107.49 301.73)" style="font-size:12.620129585266113px;font-family:Arial-BoldMT, Arial;font-weight:700"><tspan style="letter-spacing:0.011049178586112806em">R</tspan><tspan x="9.25" y="0">-</tspan><tspan x="13.46" y="0" style="letter-spacing:-0.022021090189105936em">2</tspan><tspan x="20.2" y="0" style="letter-spacing:-0.00007726698311966997em">0</tspan></text></g><g style="clip-path:url(#clip-path-12)"><text transform="translate(493.4 301.73)" style="font-size:12.620129585266113px;fill:#fff;font-family:Arial-BoldMT, Arial;font-weight:700"><tspan style="letter-spacing:0.011049178586112806em">K</tspan><tspan x="9.25" y="0" style="letter-spacing:-0.010044707805557095em">h</tspan><tspan x="16.84" y="0" style="letter-spacing:-0.022021090189105936em">a</tspan><tspan x="23.58" y="0" style="letter-spacing:0.009967440822437425em">r</tspan><tspan x="28.61" y="0" style="letter-spacing:-0.011049178586112806em">i</tspan><tspan x="31.98" y="0">f</tspan></text></g><g style="clip-path:url(#clip-path-13)"><text transform="translate(527.94 74.57)" style="font-size:12.620129585266113px;fill:#fff;font-family:Arial-BoldMT, Arial;font-weight:700"><tspan style="letter-spacing:0.011049178586112806em">K</tspan><tspan x="9.25" y="0" style="letter-spacing:-0.010044707805557095em">h</tspan><tspan x="16.84" y="0" style="letter-spacing:-0.022021090189105936em">a</tspan><tspan x="23.58" y="0" style="letter-spacing:0.009967440822437425em">r</tspan><tspan x="28.61" y="0" style="letter-spacing:-0.011049178586112806em">i</tspan><tspan x="31.98" y="0">f</tspan></text></g><g style="clip-path:url(#clip-path-14)"><text transform="translate(527.94 188.15)" style="font-size:12.620129585266113px;fill:#fff;font-family:Arial-BoldMT, Arial;font-weight:700"><tspan style="letter-spacing:0.011049178586112806em">K</tspan><tspan x="9.25" y="0" style="letter-spacing:-0.010044707805557095em">h</tspan><tspan x="16.84" y="0" style="letter-spacing:-0.022021090189105936em">a</tspan><tspan x="23.58" y="0" style="letter-spacing:0.009967440822437425em">r</tspan><tspan x="28.61" y="0" style="letter-spacing:-0.011049178586112806em">i</tspan><tspan x="31.98" y="0">f</tspan></text></g><g style="clip-path:url(#clip-path-15)"><text transform="translate(39.24 93.09)" style="font-size:12.620129585266113px;font-family:Arial-BoldMT, Arial;font-weight:700"><tspan style="letter-spacing:0.022021090189105936em">G</tspan><tspan x="10.09" y="0">PH</tspan></text></g><g style="clip-path:url(#clip-path-16)"><text transform="translate(107.49 93.09)" style="font-size:12.620129585266113px;font-family:Arial-BoldMT, Arial;font-weight:700"><tspan style="letter-spacing:0.011049178586112806em">R</tspan><tspan x="9.25" y="0">-</tspan><tspan x="13.46" y="0" style="letter-spacing:-0.022021090189105936em">2</tspan><tspan x="20.2" y="0" style="letter-spacing:-0.011049178586112806em">, </tspan><tspan x="26.93" y="0" style="letter-spacing:0.011049178586112806em">R</tspan><tspan x="36.18" y="0">-</tspan><tspan x="40.39" y="0" style="letter-spacing:-0.022021090189105936em">11</tspan><tspan x="53.87" y="0" style="letter-spacing:-0.011049178586112806em">, </tspan><tspan x="60.6" y="0" style="letter-spacing:0.011049178586112806em">R</tspan><tspan x="69.86" y="0" style="letter-spacing:-0.00007726698311966997em">-</tspan><tspan x="74.06" y="0" style="letter-spacing:-0.02194382320598627em">1</tspan><tspan x="80.8" y="0" style="letter-spacing:-0.00007726698311966997em">3</tspan></text></g><g style="clip-path:url(#clip-path-17)"><text transform="translate(10.6 335.37)" style="font-size:10.096110343933105px;font-family:Arial-BoldMT, Arial;font-weight:700"><tspan style="letter-spacing:-0.05495610540592779em">N</tspan><tspan x="6.74" y="0" style="letter-spacing:-0.026946842545261605em">o</tspan><tspan x="12.63" y="0" style="letter-spacing:-0.00009658366503677995em">t</tspan><tspan x="15.99" y="0" style="letter-spacing:0.027043426210298385em">e</tspan><tspan x="21.88" y="0">:</tspan></text><text transform="translate(35.03 335.37)" style="font-size:10.096110343933105px;font-family:ArialMT, Arial"> </text><text transform="translate(37.56 335.37)" style="font-size:10.096110343933105px;font-family:Arial-BoldMT, Arial;font-weight:700"><tspan style="letter-spacing:-0.11097463112726016em">G</tspan><tspan x="6.73" y="0">PH</tspan></text><text transform="translate(57.78 335.37)" style="font-size:10.096110343933105px;font-family:ArialMT, Arial"><tspan xml:space="preserve" style="letter-spacing:-0.027043426210298385em"> G</tspan><tspan x="10.11" y="0" style="letter-spacing:0.027043426210298385em">uja</tspan><tspan x="24.4" y="0">r</tspan><tspan x="27.77" y="0" style="letter-spacing:0.027043426210298385em">a</tspan><tspan x="33.65" y="0" style="letter-spacing:-0.027043426210298385em">t </tspan><tspan x="38.72" y="0">P</tspan><tspan x="45.45" y="0" style="letter-spacing:0.027043426210298385em">lain</tspan><tspan x="62.26" y="0" style="letter-spacing:0.08296536826659398em">s</tspan><tspan x="68.14" y="0" style="letter-spacing:-0.027043426210298385em"> </tspan><tspan x="70.68" y="0" style="letter-spacing:0.027043426210298385em">and</tspan><tspan x="88.34" y="0" style="letter-spacing:-0.027043426210298385em"> </tspan><tspan x="90.87" y="0" style="letter-spacing:0.026946842545261605em">Hill</tspan><tspan x="105.98" y="0" style="letter-spacing:0.08296536826659398em">s</tspan><tspan x="111.87" y="0" style="letter-spacing:-0.027043426210298385em">,</tspan><tspan x="114.4" y="0"> </tspan></text><text transform="translate(174.9 335.37)" style="font-size:10.096110343933105px;font-family:Arial-BoldMT, Arial;font-weight:700"><tspan style="letter-spacing:-0.026946842545261605em">T</tspan><tspan x="5.89" y="0" style="letter-spacing:-0.11097463112726016em">G</tspan><tspan x="12.63" y="0">P</tspan></text><text transform="translate(194.28 335.37)" style="font-size:10.096110343933105px;font-family:ArialMT, Arial"><tspan xml:space="preserve" style="letter-spacing:-0.027043426210298385em"> T</tspan><tspan x="8.43" y="0">r</tspan><tspan x="11.79" y="0" style="letter-spacing:0.027043426210298385em">an</tspan><tspan x="23.56" y="0" style="letter-spacing:0.08306195193163075em">s</tspan><tspan x="29.45" y="0" xml:space="preserve" style="letter-spacing:-0.027043426210298385em"> G</tspan><tspan x="39.56" y="0" style="letter-spacing:0.026946842545261605em">ange</tspan><tspan x="63.11" y="0" style="letter-spacing:-0.027043426210298385em">t</tspan><tspan x="65.65" y="0" style="letter-spacing:0.027043426210298385em">i</tspan><tspan x="68.16" y="0" style="letter-spacing:-0.00009658366503677995em">c</tspan><tspan x="73.21" y="0" style="letter-spacing:-0.027043426210298385em"> </tspan><tspan x="75.74" y="0">P</tspan><tspan x="82.48" y="0" style="letter-spacing:0.027043426210298385em">lain</tspan><tspan x="99.28" y="0" style="letter-spacing:-0.027043426210298385em">,</tspan><tspan x="101.81" y="0"> </tspan></text><text transform="translate(298.76 335.37)" style="font-size:10.096110343933105px;font-family:Arial-BoldMT, Arial;font-weight:700"><tspan style="letter-spacing:0.05601852572133237em">W</tspan><tspan x="10.09" y="0">PH</tspan></text><text transform="translate(322.35 335.37)" style="font-size:10.096110343933105px;font-family:ArialMT, Arial"><tspan xml:space="preserve" style="letter-spacing:-0.027043426210298385em"> W</tspan><tspan x="11.79" y="0" style="letter-spacing:0.027043426210298385em">e</tspan><tspan x="17.68" y="0" style="letter-spacing:0.08296536826659398em">s</tspan><tspan x="23.56" y="0" style="letter-spacing:-0.027043426210298385em">t</tspan><tspan x="26.1" y="0" style="letter-spacing:0.027043426210298385em">e</tspan><tspan x="31.98" y="0">r</tspan><tspan x="35.35" y="0" style="letter-spacing:0.026946842545261605em">n</tspan><tspan x="41.23" y="0" style="letter-spacing:-0.027043426210298385em"> </tspan><tspan x="43.76" y="0">P</tspan><tspan x="50.5" y="0" style="letter-spacing:0.027043426210298385em">la</tspan><tspan x="58.9" y="0" style="letter-spacing:-0.027043426210298385em">t</tspan><tspan x="61.43" y="0" style="letter-spacing:0.027043426210298385em">eau</tspan><tspan x="79.1" y="0" style="letter-spacing:-0.027043426210298385em"> </tspan><tspan x="81.63" y="0" style="letter-spacing:0.027043426210298385em">and</tspan><tspan x="99.29" y="0" style="letter-spacing:-0.027043426210298385em"> </tspan><tspan x="101.82" y="0" style="letter-spacing:0.026946842545261605em">Hill</tspan><tspan x="116.94" y="0" style="letter-spacing:0.08296536826659398em">s</tspan><tspan x="122.82" y="0" style="letter-spacing:-0.027043426210298385em">,</tspan><tspan x="125.35" y="0"> </tspan></text><text transform="translate(450.42 335.37)" style="font-size:10.096110343933105px;font-family:Arial-BoldMT, Arial;font-weight:700"><tspan style="letter-spacing:0.05601852572133237em">W</tspan><tspan x="10.09" y="0" style="letter-spacing:-0.05495610540592779em">D</tspan><tspan x="16.83" y="0">Z</tspan></text><text transform="translate(473.17 335.37)" style="font-size:10.096110343933105px;font-family:ArialMT, Arial"><tspan xml:space="preserve" style="letter-spacing:-0.027043426210298385em"> W</tspan><tspan x="11.79" y="0" style="letter-spacing:0.027043426210298385em">e</tspan><tspan x="17.68" y="0" style="letter-spacing:0.08296536826659398em">s</tspan><tspan x="23.56" y="0" style="letter-spacing:-0.027043426210298385em">t</tspan><tspan x="26.1" y="0" style="letter-spacing:0.027043426210298385em">e</tspan><tspan x="31.98" y="0">r</tspan><tspan x="35.35" y="0" style="letter-spacing:0.026946842545261605em">n</tspan><tspan x="41.23" y="0" style="letter-spacing:-0.027043426210298385em"> </tspan><tspan x="43.76" y="0" style="letter-spacing:0.027043426210298385em">D</tspan><tspan x="51.33" y="0">r</tspan><tspan x="54.69" y="0" style="letter-spacing:-0.08306195193163075em">y</tspan><tspan x="58.9" y="0" xml:space="preserve" style="letter-spacing:-0.027043426210298385em"> Z</tspan><tspan x="67.33" y="0" style="letter-spacing:0.027043426210298385em">one</tspan><tspan x="84.99" y="0" style="letter-spacing:-0.027043426210298385em">,</tspan><tspan x="87.52" y="0" style="letter-spacing:-0.00009658366503677995em"> </tspan></text><text transform="translate(563.33 335.37)" style="font-size:10.096110343933105px;font-family:Arial-BoldMT, Arial;font-weight:700"><tspan style="letter-spacing:-0.05495610540592779em">U</tspan><tspan x="6.74" y="0" style="letter-spacing:-0.11097463112726016em">G</tspan><tspan x="13.47" y="0">P</tspan></text><text transform="translate(583.55 335.37)" style="font-size:10.096110343933105px;font-family:ArialMT, Arial"><tspan style="letter-spacing:-0.027043426210298385em"> </tspan><tspan x="2.53" y="0" style="letter-spacing:0.027043426210298385em">Uppe</tspan><tspan x="27.76" y="0">r</tspan><tspan x="31.12" y="0" xml:space="preserve" style="letter-spacing:-0.027043426210298385em"> G</tspan><tspan x="41.23" y="0" style="letter-spacing:0.027043426210298385em">ange</tspan><tspan x="64.78" y="0" style="letter-spacing:-0.027043426210298385em">t</tspan><tspan x="67.32" y="0" style="letter-spacing:0.027043426210298385em">i</tspan><tspan x="69.83" y="0">c</tspan><tspan x="74.88" y="0" style="letter-spacing:-0.027043426210298385em"> </tspan><tspan x="77.41" y="0">P</tspan><tspan x="84.15" y="0" style="letter-spacing:0.026946842545261605em">lain</tspan><tspan x="100.95" y="0" style="letter-spacing:-0.027043426210298385em">,</tspan><tspan x="103.49" y="0" style="letter-spacing:-0.00009658366503677995em"> </tspan></text><text transform="translate(689.72 335.37)" style="font-size:10.096110343933105px;font-family:Arial-BoldMT, Arial;font-weight:700">SPH</text><text transform="translate(709.94 335.37)" style="font-size:10.096110343933105px;font-family:ArialMT, Arial"><tspan style="letter-spacing:-0.027043426210298385em"> </tspan><tspan x="2.53" y="0">S</tspan><tspan x="9.27" y="0" style="letter-spacing:0.027043426210298385em">ou</tspan><tspan x="21.04" y="0" style="letter-spacing:-0.027043426210298385em">t</tspan><tspan x="23.57" y="0" style="letter-spacing:0.027043426210298385em">he</tspan><tspan x="35.35" y="0">r</tspan><tspan x="38.71" y="0" style="letter-spacing:0.027043426210298385em">n</tspan><tspan x="44.6" y="0" style="letter-spacing:-0.027043426210298385em"> </tspan><tspan x="47.13" y="0">P</tspan><tspan x="53.87" y="0" style="letter-spacing:0.026946842545261605em">la</tspan><tspan x="62.27" y="0" style="letter-spacing:-0.027043426210298385em">t</tspan><tspan x="64.8" y="0" style="letter-spacing:0.027043426210298385em">eau</tspan><tspan x="82.46" y="0" style="letter-spacing:-0.027043426210298385em"> </tspan><tspan x="85" y="0" style="letter-spacing:0.026946842545261605em">and</tspan><tspan x="102.66" y="0" style="letter-spacing:-0.027043426210298385em"> </tspan><tspan x="105.19" y="0" style="letter-spacing:0.027043426210298385em">Hill</tspan><tspan x="120.3" y="0" style="letter-spacing:0.08296536826659398em">s</tspan><tspan x="126.19" y="0"> </tspan></text></g><g style="clip-path:url(#clip-path-18)"><polyline points="8.91 0.52 8.91 1.37 891.94 1.37 891.94 0.52 8.91 0.52" style="fill:#bfbfbf;fill-rule:evenodd"/><polyline points="407.45 1.37 407.45 51.85 408.29 51.85 408.29 1.37 407.45 1.37" style="fill:#bfbfbf;fill-rule:evenodd"/><polyline points="476.54 1.37 476.54 51.85 477.38 51.85 477.38 1.37 476.54 1.37" style="fill:#bfbfbf;fill-rule:evenodd"/><polyline points="614.73 1.37 614.73 51.85 615.57 51.85 615.57 1.37 614.73 1.37" style="fill:#bfbfbf;fill-rule:evenodd"/><polyline points="683.82 1.37 683.82 51.85 684.66 51.85 684.66 1.37 683.82 1.37" style="fill:#bfbfbf;fill-rule:evenodd"/><polyline points="8.91 51.01 8.91 51.85 891.94 51.85 891.94 51.01 8.91 51.01" style="fill:#bfbfbf;fill-rule:evenodd"/><polyline points="269.26 1.37 269.26 51.85 270.11 51.85 270.11 1.37 269.26 1.37" style="fill:#bfbfbf;fill-rule:evenodd"/><polyline points="338.36 1.37 338.36 51.85 339.2 51.85 339.2 1.37 338.36 1.37" style="fill:#bfbfbf;fill-rule:evenodd"/><polyline points="201.02 88.86 201.02 89.71 891.94 89.71 891.94 88.86 201.02 88.86" style="fill:#bfbfbf;fill-rule:evenodd"/><polyline points="545.63 1.37 545.63 51.85 546.48 51.85 546.48 1.37 545.63 1.37" style="fill:#bfbfbf;fill-rule:evenodd"/><polyline points="8.91 126.73 8.91 127.57 891.94 127.57 891.94 126.73 8.91 126.73" style="fill:#bfbfbf;fill-rule:evenodd"/><polyline points="8.91 164.59 8.91 165.43 891.94 165.43 891.94 164.59 8.91 164.59" style="fill:#bfbfbf;fill-rule:evenodd"/><polyline points="8.91 202.45 8.91 203.29 891.94 203.29 891.94 202.45 8.91 202.45" style="fill:#bfbfbf;fill-rule:evenodd"/><polyline points="8.91 240.31 8.91 241.15 891.94 241.15 891.94 240.31 8.91 240.31" style="fill:#bfbfbf;fill-rule:evenodd"/><polyline points="8.91 278.17 8.91 279.01 891.94 279.01 891.94 278.17 8.91 278.17" style="fill:#bfbfbf;fill-rule:evenodd"/><polyline points="8.06 0.52 8.06 316.87 8.91 316.87 8.91 0.52 8.06 0.52" style="fill:#bfbfbf;fill-rule:evenodd"/><polyline points="8.91 316.03 8.91 316.87 891.94 316.87 891.94 316.03 8.91 316.03" style="fill:#bfbfbf;fill-rule:evenodd"/><polyline points="891.09 1.37 891.09 316.87 891.94 316.87 891.94 1.37 891.09 1.37" style="fill:#bfbfbf;fill-rule:evenodd"/><polyline points="8.06 316.87 8.06 348.84 8.91 348.84 8.91 316.87 8.06 316.87" style="fill:#fff;fill-rule:evenodd"/><polyline points="97.38 1.37 97.38 316.87 98.22 316.87 98.22 1.37 97.38 1.37" style="fill:#bfbfbf;fill-rule:evenodd"/><polyline points="200.17 1.37 200.17 316.87 201.02 316.87 201.02 1.37 200.17 1.37" style="fill:#bfbfbf;fill-rule:evenodd"/><polyline points="614.73 348 614.73 348.84 684.66 348.84 684.66 348 614.73 348" style="fill:#fff;fill-rule:evenodd"/><polyline points="752.91 1.37 752.91 51.85 753.75 51.85 753.75 1.37 752.91 1.37" style="fill:#bfbfbf;fill-rule:evenodd"/><polyline points="822 1.37 822 51.85 822.84 51.85 822.84 1.37 822 1.37" style="fill:#bfbfbf;fill-rule:evenodd"/><polyline points="8.06 348.84 8.06 349.68 8.91 349.68 8.91 348.84 8.06 348.84" style="fill:#d4d4d4;fill-rule:evenodd"/><polyline points="97.38 348.84 97.38 349.68 98.22 349.68 98.22 348.84 97.38 348.84" style="fill:#d4d4d4;fill-rule:evenodd"/><polyline points="200.17 348.84 200.17 349.68 201.02 349.68 201.02 348.84 200.17 348.84" style="fill:#d4d4d4;fill-rule:evenodd"/><polyline points="269.26 348.84 269.26 349.68 270.11 349.68 270.11 348.84 269.26 348.84" style="fill:#d4d4d4;fill-rule:evenodd"/><polyline points="338.36 348.84 338.36 349.68 339.2 349.68 339.2 348.84 338.36 348.84" style="fill:#d4d4d4;fill-rule:evenodd"/><polyline points="407.45 348.84 407.45 349.68 408.29 349.68 408.29 348.84 407.45 348.84" style="fill:#d4d4d4;fill-rule:evenodd"/><polyline points="476.54 348.84 476.54 349.68 477.38 349.68 477.38 348.84 476.54 348.84" style="fill:#d4d4d4;fill-rule:evenodd"/><polyline points="545.63 348.84 545.63 349.68 546.48 349.68 546.48 348.84 545.63 348.84" style="fill:#d4d4d4;fill-rule:evenodd"/><polyline points="614.73 348.84 614.73 349.68 615.57 349.68 615.57 348.84 614.73 348.84" style="fill:#d4d4d4;fill-rule:evenodd"/><polyline points="683.82 348.84 683.82 349.68 684.66 349.68 684.66 348.84 683.82 348.84" style="fill:#d4d4d4;fill-rule:evenodd"/><polyline points="752.91 348.84 752.91 349.68 753.75 349.68 753.75 348.84 752.91 348.84" style="fill:#d4d4d4;fill-rule:evenodd"/><polyline points="822 348.84 822 349.68 822.84 349.68 822.84 348.84 822 348.84" style="fill:#d4d4d4;fill-rule:evenodd"/><polyline points="891.09 348.84 891.09 349.68 891.94 349.68 891.94 348.84 891.09 348.84" style="fill:#d4d4d4;fill-rule:evenodd"/><polyline points="891.94 0.52 891.94 1.37 892.78 1.37 892.78 0.52 891.94 0.52" style="fill:#d4d4d4;fill-rule:evenodd"/><polyline points="891.94 51.01 891.94 51.85 892.78 51.85 892.78 51.01 891.94 51.01" style="fill:#d4d4d4;fill-rule:evenodd"/><polyline points="891.94 88.86 891.94 89.71 892.78 89.71 892.78 88.86 891.94 88.86" style="fill:#d4d4d4;fill-rule:evenodd"/><polyline points="891.94 126.73 891.94 127.57 892.78 127.57 892.78 126.73 891.94 126.73" style="fill:#d4d4d4;fill-rule:evenodd"/><polyline points="891.94 164.59 891.94 165.43 892.78 165.43 892.78 164.59 891.94 164.59" style="fill:#d4d4d4;fill-rule:evenodd"/><polyline points="891.94 202.45 891.94 203.29 892.78 203.29 892.78 202.45 891.94 202.45" style="fill:#d4d4d4;fill-rule:evenodd"/><polyline points="891.94 240.31 891.94 241.15 892.78 241.15 892.78 240.31 891.94 240.31" style="fill:#d4d4d4;fill-rule:evenodd"/><polyline points="891.94 278.17 891.94 279.01 892.78 279.01 892.78 278.17 891.94 278.17" style="fill:#d4d4d4;fill-rule:evenodd"/><polyline points="891.94 316.03 891.94 316.87 892.78 316.87 892.78 316.03 891.94 316.03" style="fill:#d4d4d4;fill-rule:evenodd"/><polyline points="891.94 348 891.94 348.84 892.78 348.84 892.78 348 891.94 348" style="fill:#d4d4d4;fill-rule:evenodd"/></g></svg>