<svg id="Layer_1" data-name="Layer 1" xmlns="http://www.w3.org/2000/svg" xmlns:xlink="http://www.w3.org/1999/xlink" viewBox="0 0 900 350"><defs><clipPath id="clip-path"><polygon points="2.06 348.6 898.08 348.6 898.08 2.91 2.06 2.91 2.06 348.6 2.06 348.6" style="fill:none;clip-rule:evenodd"/></clipPath><clipPath id="clip-path-2"><polygon points="81.19 302.22 884.08 302.22 884.08 13.76 81.19 13.76 81.19 302.22 81.19 302.22" style="fill:none;clip-rule:evenodd"/></clipPath><clipPath id="clip-path-7"><rect x="2.06" y="2.91" width="896.02" height="345.7" style="fill:none"/></clipPath><clipPath id="clip-path-35"><rect x="135.99" y="77.09" width="160.98" height="19.67" style="fill:none"/></clipPath></defs><title>YAR</title><polygon points="2.06 3.04 898.22 3.04 898.22 348.74 2.06 348.74 2.06 3.04 2.06 3.04" style="fill:#eaeaea;fill-rule:evenodd"/><polygon points="81.19 13.76 883.26 13.76 883.26 301.41 81.19 301.41 81.19 13.76 81.19 13.76" style="fill:#fff;fill-rule:evenodd"/><path d="M81.19,301.41H883.26M81.19,229.53H883.26M81.19,157.65H883.26m-802.07-72H883.26M81.19,13.76H883.26" style="fill:none;stroke:#d9d9d9;stroke-linejoin:round;stroke-width:0.813725467585693px"/><g style="clip-path:url(#clip-path)"><path d="M81.19,13.76V301.41m89.2-287.65V301.41M259.45,13.76V301.41M348.5,13.76V301.41M437.7,13.76V301.41M526.76,13.76V301.41M616,13.76V301.41M705,13.76V301.41M794.07,13.76V301.41M883.26,13.76V301.41" style="fill:none;stroke:#d9d9d9;stroke-linejoin:round;stroke-width:0.813725467585693px"/></g><g style="clip-path:url(#clip-path-2)"><path d="M108,256.52H143.6V263H108v-6.51Zm89.06,0h35.62v7.59H197v-7.59Zm89.19,0h35.62v16.81H286.23V256.52Zm89.06,0h35.62v3.79H375.29v-3.79Zm89.06,0h35.76v9.08H464.35v-9.08Zm89.19,0h35.62V259H553.54v-2.44Zm89.06,0h35.62V263H642.6v-6.51Zm89.19,0h35.63v8.13H731.79v-8.13Zm89.06,0h35.63v9.35H820.85v-9.35Z" style="fill:#ff25f3"/></g><g style="clip-path:url(#clip-path-2)"><path d="M108,49.83H143.6V256.52H108V49.83ZM197,108.15h35.62V256.52H197V108.15Zm89.19,43h35.62V256.52H286.23V151.14Zm89.06-35.4h35.62V256.52H375.29V115.74Zm89.06-45h35.76v185.8H464.35V70.72Zm89.19,27.8h35.62v158H553.54v-158ZM642.6,49.83h35.62V256.52H642.6V49.83Zm89.19,48.69h35.63v158H731.79v-158Zm89.06,2.58h35.63V256.52H820.85V101.1Z" style="fill:#5e9fff"/></g><g style="clip-path:url(#clip-path-2)"><path d="M108,43.32H143.6v6.51H108V43.32ZM197,100.55h35.62v7.6H197v-7.6Zm89.19,33.77h35.62v16.82H286.23V134.32Zm89.06-22.51h35.62v3.93H375.29v-3.93Zm89.06-50.18h35.76v9.09H464.35V61.63Zm89.19,34.45h35.62v2.44H553.54V96.08ZM642.6,43.32h35.62v6.51H642.6V43.32Zm89.19,46.93h35.63v8.27H731.79V90.25Zm89.06,1.49h35.63v9.36H820.85V91.74Z" style="fill:#0044ab"/></g><g style="clip-path:url(#clip-path)"><line x1="81.19" y1="256.52" x2="883.26" y2="256.52" style="fill:none;stroke:#d9d9d9;stroke-linejoin:round;stroke-width:0.813725467585693px"/></g><g style="clip-path:url(#clip-path)"><polygon points="112.33 267.5 139.25 267.5 139.25 283.91 112.33 283.91 112.33 267.5 112.33 267.5" style="fill:#fff;fill-rule:evenodd"/></g><g style="clip-path:url(#clip-path-7)"><text transform="translate(115.73 279.75)" style="font-size:11.256540298461914px;font-family:ArialMT, Arial">-</text></g><g style="clip-path:url(#clip-path-7)"><text transform="translate(119.54 279.75)" style="font-size:11.256540298461914px;font-family:ArialMT, Arial;letter-spacing:-0.0010384134748322206em">3<tspan x="6.25" y="0" style="letter-spacing:0.0000865344562360184em">%</tspan></text></g><g style="clip-path:url(#clip-path)"><polygon points="202.75 267.77 229.67 267.77 229.67 284.05 202.75 284.05 202.75 267.77 202.75 267.77" style="fill:#fff;fill-rule:evenodd"/></g><g style="clip-path:url(#clip-path-7)"><text transform="translate(206.17 279.99)" style="font-size:11.256540298461914px;font-family:ArialMT, Arial">-</text></g><g style="clip-path:url(#clip-path-7)"><text transform="translate(209.98 279.99)" style="font-size:11.256540298461914px;font-family:ArialMT, Arial;letter-spacing:-0.0010384134748322206em">5<tspan x="6.25" y="0" style="letter-spacing:0.0000865344562360184em">%</tspan></text></g><g style="clip-path:url(#clip-path)"><polygon points="289.9 276.86 323.08 276.86 323.08 293.27 289.9 293.27 289.9 276.86 289.9 276.86" style="fill:#fff;fill-rule:evenodd"/></g><g style="clip-path:url(#clip-path-7)"><text transform="translate(293.32 289.14)" style="font-size:11.256540298461914px;font-family:ArialMT, Arial">-</text></g><g style="clip-path:url(#clip-path-7)"><text transform="translate(297.13 289.14)" style="font-size:11.256540298461914px;font-family:ArialMT, Arial"><tspan style="letter-spacing:-0.0010384134748322206em">16</tspan><tspan x="12.5" y="0">%</tspan></text></g><g style="clip-path:url(#clip-path)"><polygon points="383.31 267.64 410.23 267.64 410.23 284.05 383.31 284.05 383.31 267.64 383.31 267.64" style="fill:#fff;fill-rule:evenodd"/></g><g style="clip-path:url(#clip-path-7)"><text transform="translate(386.66 279.91)" style="font-size:11.256540298461914px;font-family:ArialMT, Arial">-</text></g><g style="clip-path:url(#clip-path-7)"><text transform="translate(390.47 279.91)" style="font-size:11.256540298461914px;font-family:ArialMT, Arial;letter-spacing:-0.0010384134748322206em">3<tspan x="6.25" y="0" style="letter-spacing:0.0000865344562360184em">%</tspan></text></g><g style="clip-path:url(#clip-path)"><polygon points="468.7 269.54 495.76 269.54 495.76 285.95 468.7 285.95 468.7 269.54 468.7 269.54" style="fill:#fff;fill-rule:evenodd"/></g><g style="clip-path:url(#clip-path-7)"><text transform="translate(472.17 281.79)" style="font-size:11.256540298461914px;font-family:ArialMT, Arial">-</text></g><g style="clip-path:url(#clip-path-7)"><text transform="translate(475.98 281.79)" style="font-size:11.256540298461914px;font-family:ArialMT, Arial;letter-spacing:-0.0010384134748322206em">5<tspan x="6.25" y="0" style="letter-spacing:0.0000865344562360184em">%</tspan></text></g><g style="clip-path:url(#clip-path)"><polygon points="557.89 267.77 584.81 267.77 584.81 284.18 557.89 284.18 557.89 267.77 557.89 267.77" style="fill:#fff;fill-rule:evenodd"/></g><g style="clip-path:url(#clip-path-7)"><text transform="translate(561.29 280.06)" style="font-size:11.256540298461914px;font-family:ArialMT, Arial">-</text></g><g style="clip-path:url(#clip-path-7)"><text transform="translate(565.09 280.06)" style="font-size:11.256540298461914px;font-family:ArialMT, Arial;letter-spacing:-0.0010384134748322206em">2<tspan x="6.25" y="0" style="letter-spacing:0.0000865344562360184em">%</tspan></text></g><g style="clip-path:url(#clip-path)"><polygon points="646.95 264.25 673.87 264.25 673.87 280.66 646.95 280.66 646.95 264.25 646.95 264.25" style="fill:#fff;fill-rule:evenodd"/></g><g style="clip-path:url(#clip-path-7)"><text transform="translate(650.39 276.51)" style="font-size:11.256540298461914px;font-family:ArialMT, Arial">-</text></g><g style="clip-path:url(#clip-path-7)"><text transform="translate(654.2 276.51)" style="font-size:11.256540298461914px;font-family:ArialMT, Arial;letter-spacing:-0.0010384134748322206em">3<tspan x="6.25" y="0" style="letter-spacing:0.0000865344562360184em">%</tspan></text></g><g style="clip-path:url(#clip-path)"><polygon points="739.82 269.81 766.74 269.81 766.74 286.22 739.82 286.22 739.82 269.81 739.82 269.81" style="fill:#fff;fill-rule:evenodd"/></g><g style="clip-path:url(#clip-path-7)"><text transform="translate(743.24 282.13)" style="font-size:11.256540298461914px;font-family:ArialMT, Arial">-</text></g><g style="clip-path:url(#clip-path-7)"><text transform="translate(747.05 282.13)" style="font-size:11.256540298461914px;font-family:ArialMT, Arial;letter-spacing:-0.0010384134748322206em">5<tspan x="6.25" y="0" style="letter-spacing:0.0000865344562360184em">%</tspan></text></g><g style="clip-path:url(#clip-path)"><polygon points="823.98 271.3 850.9 271.3 850.9 287.57 823.98 287.57 823.98 271.3 823.98 271.3" style="fill:#fff;fill-rule:evenodd"/></g><g style="clip-path:url(#clip-path-7)"><text transform="translate(827.36 283.5)" style="font-size:11.256540298461914px;font-family:ArialMT, Arial">-</text></g><g style="clip-path:url(#clip-path-7)"><text transform="translate(831.17 283.5)" style="font-size:11.256540298461914px;font-family:ArialMT, Arial;letter-spacing:-0.0010384134748322206em">6<tspan x="6.25" y="0" style="letter-spacing:0.0000865344562360184em">%</tspan></text></g><g style="clip-path:url(#clip-path)"><polygon points="113.14 20.94 142.92 20.94 142.92 37.35 113.14 37.35 113.14 20.94 113.14 20.94" style="fill:#fff;fill-rule:evenodd"/></g><g style="clip-path:url(#clip-path-7)"><text transform="translate(116.63 33.23)" style="font-size:11.256540298461914px;font-family:ArialMT, Arial"><tspan style="letter-spacing:-0.0050189984616890665em">+</tspan><tspan x="6.52" y="0" style="letter-spacing:-0.0010384134748322206em">3</tspan><tspan x="12.77" y="0">%</tspan></text></g><g style="clip-path:url(#clip-path-35)"><text transform="translate(204.99 91.03)" style="font-size:11.256540298461914px;font-family:ArialMT, Arial"><tspan style="letter-spacing:-0.0050189984616890665em">+</tspan><tspan x="6.52" y="0" style="letter-spacing:-0.0010384134748322206em">5</tspan><tspan x="12.77" y="0">%</tspan></text></g><g style="clip-path:url(#clip-path)"><polygon points="287.18 116.01 323.35 116.01 323.35 132.42 287.18 132.42 287.18 116.01 287.18 116.01" style="fill:#fff;fill-rule:evenodd"/></g><g style="clip-path:url(#clip-path-7)"><text transform="translate(290.72 128.3)" style="font-size:11.256540298461914px;font-family:ArialMT, Arial"><tspan style="letter-spacing:-0.0050189984616890665em">+</tspan><tspan x="6.52" y="0" style="letter-spacing:-0.0010384134748322206em">16</tspan><tspan x="19.02" y="0">%</tspan></text></g><g style="clip-path:url(#clip-path)"><polygon points="378.28 88.48 408.06 88.48 408.06 104.89 378.28 104.89 378.28 88.48 378.28 88.48" style="fill:#fff;fill-rule:evenodd"/></g><g style="clip-path:url(#clip-path-7)"><text transform="translate(381.7 100.77)" style="font-size:11.256540298461914px;font-family:ArialMT, Arial"><tspan style="letter-spacing:-0.0050189984616890665em">+</tspan><tspan x="6.52" y="0" style="letter-spacing:-0.0010384134748322206em">3</tspan><tspan x="12.77" y="0">%</tspan></text></g><g style="clip-path:url(#clip-path)"><polygon points="467.34 44 497.12 44 497.12 60.41 467.34 60.41 467.34 44 467.34 44" style="fill:#fff;fill-rule:evenodd"/></g><g style="clip-path:url(#clip-path-7)"><text transform="translate(470.81 56.31)" style="font-size:11.256540298461914px;font-family:ArialMT, Arial"><tspan style="letter-spacing:-0.0050189984616890665em">+</tspan><tspan x="6.52" y="0" style="letter-spacing:-0.0010384134748322206em">5</tspan><tspan x="12.77" y="0">%</tspan></text></g><g style="clip-path:url(#clip-path)"><polygon points="555.17 70.85 584.95 70.85 584.95 87.26 555.17 87.26 555.17 70.85 555.17 70.85" style="fill:#fff;fill-rule:evenodd"/></g><g style="clip-path:url(#clip-path-7)"><text transform="translate(558.68 83.11)" style="font-size:11.256540298461914px;font-family:ArialMT, Arial"><tspan style="letter-spacing:-0.0050189984616890665em">+</tspan><tspan x="6.52" y="0" style="letter-spacing:-0.0010384134748322206em">2</tspan><tspan x="12.77" y="0">%</tspan></text></g><g style="clip-path:url(#clip-path)"><polygon points="645.73 24.06 675.5 24.06 675.5 40.47 645.73 40.47 645.73 24.06 645.73 24.06" style="fill:#fff;fill-rule:evenodd"/></g><g style="clip-path:url(#clip-path-7)"><text transform="translate(649.14 36.35)" style="font-size:11.256540298461914px;font-family:ArialMT, Arial"><tspan style="letter-spacing:-0.0050189984616890665em">+</tspan><tspan x="6.52" y="0" style="letter-spacing:-0.0010384134748322206em">3</tspan><tspan x="12.77" y="0">%</tspan></text></g><g style="clip-path:url(#clip-path)"><polygon points="734.65 73.56 764.43 73.56 764.43 89.84 734.65 89.84 734.65 73.56 734.65 73.56" style="fill:#fff;fill-rule:evenodd"/></g><g style="clip-path:url(#clip-path-7)"><text transform="translate(738.14 85.77)" style="font-size:11.256540298461914px;font-family:ArialMT, Arial"><tspan style="letter-spacing:-0.0050189984616890665em">+</tspan><tspan x="6.52" y="0" style="letter-spacing:-0.0010384134748322206em">5</tspan><tspan x="12.77" y="0">%</tspan></text></g><g style="clip-path:url(#clip-path)"><polygon points="822.48 73.16 852.26 73.16 852.26 89.57 822.48 89.57 822.48 73.16 822.48 73.16" style="fill:#fff;fill-rule:evenodd"/></g><g style="clip-path:url(#clip-path-7)"><text transform="translate(826.01 85.41)" style="font-size:11.256540298461914px;font-family:ArialMT, Arial"><tspan style="letter-spacing:-0.0050189984616890665em">+</tspan><tspan x="6.52" y="0" style="letter-spacing:-0.0010384134748322206em">6</tspan><tspan x="12.77" y="0">%</tspan></text></g><g style="clip-path:url(#clip-path-7)"><text transform="translate(49.22 304.71)" style="font-size:10.17156982421875px;font-family:Arial-BoldMT, Arial;font-weight:700">-<tspan x="3.39" y="0" style="letter-spacing:0.0030644743673903336em">0</tspan><tspan x="9.07" y="0" style="letter-spacing:0.0020110613035999063em">.</tspan><tspan x="11.92" y="0" style="letter-spacing:-0.008906128630228157em">2</tspan><tspan x="17.49" y="0">5</tspan></text></g><g style="clip-path:url(#clip-path-7)"><text transform="translate(52.62 232.77)" style="font-size:10.17156982421875px;font-family:Arial-BoldMT, Arial;font-weight:700;letter-spacing:0.0030644743673903336em">0<tspan x="5.69" y="0" style="letter-spacing:0.0020110613035999063em">.</tspan><tspan x="8.53" y="0" style="letter-spacing:-0.009001893454209103em">1</tspan><tspan x="14.1" y="0" style="letter-spacing:0.00009576482398094793em">5</tspan></text></g><g style="clip-path:url(#clip-path-7)"><text transform="translate(52.62 160.86)" style="font-size:10.17156982421875px;font-family:Arial-BoldMT, Arial;font-weight:700;letter-spacing:0.0030644743673903336em">0<tspan x="5.69" y="0" style="letter-spacing:0.0020110613035999063em">.</tspan><tspan x="8.53" y="0" style="letter-spacing:-0.009001893454209103em">5</tspan><tspan x="14.1" y="0" style="letter-spacing:0.00009576482398094793em">5</tspan></text></g><g style="clip-path:url(#clip-path-7)"><text transform="translate(52.62 88.94)" style="font-size:10.17156982421875px;font-family:Arial-BoldMT, Arial;font-weight:700;letter-spacing:0.0030644743673903336em">0<tspan x="5.69" y="0" style="letter-spacing:0.0020110613035999063em">.</tspan><tspan x="8.53" y="0" style="letter-spacing:-0.009001893454209103em">9</tspan><tspan x="14.1" y="0" style="letter-spacing:0.00009576482398094793em">5</tspan></text></g><g style="clip-path:url(#clip-path-7)"><text transform="translate(52.62 17.02)" style="font-size:10.17156982421875px;font-family:Arial-BoldMT, Arial;font-weight:700;letter-spacing:0.0030644743673903336em">1<tspan x="5.69" y="0" style="letter-spacing:0.0020110613035999063em">.</tspan><tspan x="8.53" y="0" style="letter-spacing:-0.009001893454209103em">3</tspan><tspan x="14.1" y="0" style="letter-spacing:0.00009576482398094793em">5</tspan></text></g><g style="clip-path:url(#clip-path-7)"><text transform="translate(117.58 316.82)" style="font-size:10.17156982421875px;font-family:Arial-BoldMT, Arial;font-weight:700;letter-spacing:-0.0020110613035999063em">R<tspan x="7.33" y="0" style="letter-spacing:0.00009576482398094793em">-2</tspan></text></g><g style="clip-path:url(#clip-path-7)"><text transform="translate(206.69 316.82)" style="font-size:10.17156982421875px;font-family:Arial-BoldMT, Arial;font-weight:700;letter-spacing:-0.0020110613035999063em">R<tspan x="7.33" y="0" style="letter-spacing:0.00009576482398094793em">-4</tspan></text></g><g style="clip-path:url(#clip-path-7)"><text transform="translate(295.8 316.82)" style="font-size:10.17156982421875px;font-family:Arial-BoldMT, Arial;font-weight:700;letter-spacing:-0.0020110613035999063em">R<tspan x="7.33" y="0" style="letter-spacing:0.00009576482398094793em">-6</tspan></text></g><g style="clip-path:url(#clip-path-7)"><text transform="translate(384.91 316.82)" style="font-size:10.17156982421875px;font-family:Arial-BoldMT, Arial;font-weight:700;letter-spacing:-0.0020110613035999063em">R<tspan x="7.33" y="0" style="letter-spacing:0.00009576482398094793em">-8</tspan></text></g><g style="clip-path:url(#clip-path-7)"><text transform="translate(474.01 316.82)" style="font-size:10.17156982421875px;font-family:Arial-BoldMT, Arial;font-weight:700;letter-spacing:-0.0020110613035999063em">R<tspan x="7.33" y="0" style="letter-spacing:0.00009576482398094793em">-9</tspan></text></g><g style="clip-path:url(#clip-path-7)"><text transform="translate(560.29 316.82)" style="font-size:10.17156982421875px;font-family:Arial-BoldMT, Arial;font-weight:700;letter-spacing:-0.0020110613035999063em">R<tspan x="7.33" y="0" style="letter-spacing:0.00009576482398094793em">-</tspan><tspan x="10.71" y="0" style="letter-spacing:0.0029687095434093856em">1</tspan><tspan x="16.4" y="0" style="letter-spacing:0.00009576482398094793em">0</tspan></text></g><g style="clip-path:url(#clip-path-7)"><text transform="translate(649.4 316.82)" style="font-size:10.17156982421875px;font-family:Arial-BoldMT, Arial;font-weight:700;letter-spacing:-0.0020110613035999063em">R<tspan x="7.33" y="0" style="letter-spacing:0.00009576482398094793em">-</tspan><tspan x="10.71" y="0" style="letter-spacing:0.0029687095434093856em">1</tspan><tspan x="16.4" y="0" style="letter-spacing:0.00009576482398094793em">1</tspan></text></g><g style="clip-path:url(#clip-path-7)"><text transform="translate(738.51 316.82)" style="font-size:10.17156982421875px;font-family:Arial-BoldMT, Arial;font-weight:700;letter-spacing:-0.0020110613035999063em">R<tspan x="7.33" y="0" style="letter-spacing:0.00009576482398094793em">-</tspan><tspan x="10.71" y="0" style="letter-spacing:0.0029687095434093856em">1</tspan><tspan x="16.4" y="0" style="letter-spacing:0.00009576482398094793em">3</tspan></text></g><g style="clip-path:url(#clip-path-7)"><text transform="translate(827.63 316.82)" style="font-size:10.17156982421875px;font-family:Arial-BoldMT, Arial;font-weight:700;letter-spacing:-0.0020110613035999063em">R<tspan x="7.33" y="0" style="letter-spacing:0.00009576482398094793em">-</tspan><tspan x="10.71" y="0" style="letter-spacing:0.0029687095434093856em">2</tspan><tspan x="16.4" y="0" style="letter-spacing:0.00009576482398094793em">0</tspan></text></g><g style="clip-path:url(#clip-path-7)"><text transform="translate(19.24 227.66) rotate(-90)" style="font-size:11.285249710083008px;font-family:Arial-BoldMT, Arial;font-weight:700"><tspan style="letter-spacing:0.005031776537491144em">Q</tspan><tspan x="8.83" y="0" style="letter-spacing:0.0029496621081844645em">u</tspan><tspan x="15.76" y="0" style="letter-spacing:-0.0010410572146533404em">a</tspan><tspan x="22.03" y="0" style="letter-spacing:0.0030364168760722426em">n</tspan><tspan x="28.95" y="0" style="letter-spacing:0.003990719322837804em">t</tspan><tspan x="32.76" y="0">i</tspan><tspan x="35.89" y="0" style="letter-spacing:0.003990719322837804em">t</tspan><tspan x="39.7" y="0" style="letter-spacing:-0.013013215183166756em">y</tspan><tspan x="45.83" y="0" style="letter-spacing:0.010931100753860074em"> </tspan><tspan x="49.08" y="0" style="letter-spacing:0.00008675476788777835em">&amp; </tspan><tspan x="60.37" y="0" style="letter-spacing:0.007027136198910047em">Y</tspan><tspan x="67.98" y="0" style="letter-spacing:-0.0010410572146533404em">a</tspan><tspan x="74.24" y="0" style="letter-spacing:0.00008675476788777835em">R</tspan><tspan x="82.39" y="0" style="letter-spacing:0.010931100753860074em"> </tspan><tspan x="85.65" y="0" style="letter-spacing:0.003990719322837804em">(</tspan><tspan x="89.45" y="0" style="letter-spacing:0.022035711043495703em">M</tspan><tspan x="99.1" y="0" style="letter-spacing:0.015008574844585655em">T</tspan><tspan x="106.17" y="0">)</tspan></text></g><g style="clip-path:url(#clip-path-7)"><text transform="translate(419.93 337.7)" style="font-size:11.256540298461914px;font-family:Arial-BoldMT, Arial;font-weight:700">R<tspan x="8.13" y="0" style="letter-spacing:-0.0009518790185962023em">e</tspan><tspan x="14.38" y="0" style="letter-spacing:0.0029421715120246253em">g</tspan><tspan x="21.29" y="0">i</tspan><tspan x="24.42" y="0" style="letter-spacing:0.003028705968260644em">on</tspan><tspan x="38.23" y="0">s</tspan></text></g><polygon points="2.06 3.04 898.22 3.04 898.22 348.74 2.06 348.74 2.06 3.04 2.06 3.04" style="fill:none;stroke:#d9d9d9;stroke-linejoin:round;stroke-width:0.813725534949331px"/></svg>