<?xml version="1.0" encoding="utf-8"?>
<!-- Generator: Adobe Illustrator 23.0.1, SVG Export Plug-In . SVG Version: 6.00 Build 0)  -->
<svg version="1.1" id="Layer_1" xmlns="http://www.w3.org/2000/svg" xmlns:xlink="http://www.w3.org/1999/xlink" x="0px" y="0px"
	 viewBox="0 0 103.5 57.4" style="enable-background:new 0 0 103.5 57.4;" xml:space="preserve">
<style type="text/css">
	.st0{fill:none;stroke:#0066FF;stroke-width:0.75;stroke-linejoin:round;stroke-miterlimit:10;}
	.st1{fill:#FFFFFF;stroke:#00C1A3;stroke-width:0.75;stroke-miterlimit:10;}
	.st2{fill:#FFFFFF;stroke:#0066FF;stroke-width:0.75;stroke-miterlimit:10;}
	.st3{fill:none;stroke:#00C1A3;stroke-width:0.75;stroke-miterlimit:10;}
	
		.st4{fill-rule:evenodd;clip-rule:evenodd;fill:none;stroke:#FF25F3;stroke-width:0.75;stroke-linecap:round;stroke-linejoin:round;stroke-miterlimit:10;}
	.st5{fill:none;stroke:#0066FF;stroke-width:0.75;stroke-miterlimit:10;}
	.st6{fill-rule:evenodd;clip-rule:evenodd;fill:none;stroke:#0066FF;stroke-width:0.75;stroke-miterlimit:10;}
	.st7{fill-rule:evenodd;clip-rule:evenodd;fill:none;stroke:#00C1A3;stroke-width:0.75;stroke-miterlimit:10;}
	.st8{fill:none;stroke:#FF25F3;stroke-width:0.75;stroke-linecap:round;stroke-linejoin:round;stroke-miterlimit:10;}
	.st9{fill:#FFFFFF;stroke:#FF25F3;stroke-width:0.75;stroke-linecap:round;stroke-linejoin:round;stroke-miterlimit:10;}
	.st10{fill-rule:evenodd;clip-rule:evenodd;fill:#FFFFFF;stroke:#0066FF;stroke-width:0.75;stroke-miterlimit:10;}
	
		.st11{fill-rule:evenodd;clip-rule:evenodd;fill:#FFFFFF;stroke:#FF25F3;stroke-width:0.75;stroke-linecap:round;stroke-linejoin:round;stroke-miterlimit:10;}
	.st12{fill-rule:evenodd;clip-rule:evenodd;fill:#FFFFFF;stroke:#00C1A3;stroke-width:0.75;stroke-miterlimit:10;}
	.st13{fill:none;stroke:#0066FF;stroke-width:0.75;stroke-linecap:round;stroke-linejoin:round;stroke-miterlimit:10;}
	.st14{fill:#FFFFFF;stroke:#00C1A3;stroke-width:0.75;stroke-linecap:round;stroke-linejoin:round;stroke-miterlimit:10;}
	
		.st15{fill-rule:evenodd;clip-rule:evenodd;fill:#FFFFFF;stroke:#0066FF;stroke-width:0.75;stroke-linecap:round;stroke-linejoin:round;stroke-miterlimit:10;}
	
		.st16{fill-rule:evenodd;clip-rule:evenodd;fill:none;stroke:#0066FF;stroke-width:0.75;stroke-linecap:round;stroke-linejoin:round;stroke-miterlimit:10;}
	.st17{fill:#FFFFFF;stroke:#0066FF;stroke-width:0.75;stroke-linejoin:round;stroke-miterlimit:10;}
	.st18{fill:none;stroke:#FF25F3;stroke-width:0.75;stroke-linecap:round;stroke-miterlimit:10;}
	.st19{fill:none;stroke:#00C1A3;stroke-width:0.75;stroke-miterlimit:10;stroke-dasharray:1.9953,1.9953;}
	.st20{fill:none;stroke:#FF25F3;stroke-width:0.75;stroke-linecap:round;stroke-miterlimit:10;stroke-dasharray:1.9953,1.9953;}
</style>
<g>
	<polygon class="st5" points="27.7,32.5 15.3,32.5 15.3,28.1 1.5,37.6 15.3,47.1 15.3,42.7 27.7,42.7 	"/>
	<polygon class="st5" points="100.7,30.8 88.3,30.8 88.3,26.4 74.5,35.9 88.3,45.3 88.3,41 100.7,41 	"/>
	<path class="st8" d="M78.4,18.8c-0.4,0-0.8,0-1.2,0.1C73.8,10.3,65.7,4.3,56.3,4.3C44,4.3,34,14.5,33.8,27.2
		c-1.5-0.7-3.2-1.2-5-1.2c-6.6,0-12,5.6-12,12.5S22.1,51,28.8,51c0.2,0,0.4,0,0.5,0c0.2,0,0.4,0,0.5,0h47.1c0.2,0,0.5,0,0.7,0
		c0.2,0,0.5,0,0.7,0c8.6,0,15.5-7.2,15.5-16.1C93.9,26,86.9,18.8,78.4,18.8z"/>
</g>
<g>
	<path class="st5" d="M63.5,47.5H48c-5,0-9-4.1-9-9V23c0-4.9,4-9,9-9h15.5c5,0,9,4.1,9,9v15.5C72.5,43.5,68.5,47.5,63.5,47.5z"/>
	<path class="st5" d="M63.8,45H47.6c-3.4,0-6.2-2.8-6.2-6.2V22.6c0-3.4,2.8-6.2,6.2-6.2h16.2c3.4,0,6.2,2.8,6.2,6.2v16.2
		C70,42.2,67.2,45,63.8,45z"/>
	<g>
		<rect x="44.2" y="47.5" class="st5" width="4.2" height="2.8"/>
		<polygon class="st5" points="67.3,50.3 65.9,50.3 63.2,50.3 63.2,47.5 67.3,47.5 		"/>
	</g>
	<g>
		<circle class="st3" cx="52.8" cy="30.7" r="5"/>
		<rect x="52.4" y="22.8" class="st5" width="0.8" height="2.9"/>
		<rect x="52.4" y="35.7" class="st5" width="0.8" height="2.9"/>
		
			<rect x="58.8" y="29.3" transform="matrix(-1.836970e-16 1 -1 -1.836970e-16 89.9597 -28.4859)" class="st5" width="0.8" height="2.9"/>
		
			<rect x="46" y="29.3" transform="matrix(-1.836970e-16 1 -1 -1.836970e-16 77.1131 -15.6393)" class="st5" width="0.8" height="2.9"/>
		<circle class="st5" cx="52.8" cy="30.7" r="3.7"/>
	</g>
	<path class="st8" d="M66.7,29.4c0-0.8-0.6-1.4-1.4-1.4s-1.4,0.6-1.4,1.4c0,0.6,0.4,1.1,1,1.3v2.7h0.8v-2.7
		C66.3,30.6,66.7,30.1,66.7,29.4z"/>
</g>
</svg>
