<?xml version="1.0" encoding="utf-8"?>
<!-- Generator: Adobe Illustrator 23.0.1, SVG Export Plug-In . SVG Version: 6.00 Build 0)  -->
<svg version="1.1" id="Layer_1" xmlns="http://www.w3.org/2000/svg" xmlns:xlink="http://www.w3.org/1999/xlink" x="0px" y="0px"
	 viewBox="0 0 300 125.3" style="enable-background:new 0 0 300 125.3;" xml:space="preserve">
<style type="text/css">
	.st0{fill:#5E9FFF;stroke:#A7A9AC;stroke-width:0.965;stroke-miterlimit:10;}
	.st1{fill:none;stroke:#FF25F3;stroke-width:1.2159;stroke-linecap:round;stroke-linejoin:round;stroke-dasharray:3.8599,3.8599;}
	.st2{fill:#FF25F3;stroke:#D1D3D4;stroke-width:0.965;stroke-miterlimit:10;}
	.st3{fill:none;stroke:#00A188;stroke-width:1.2159;stroke-linecap:round;stroke-linejoin:round;}
	.st4{fill:#00A188;stroke:#D1D3D4;stroke-width:0.965;stroke-miterlimit:10;}
	.st5{fill:none;stroke:#0066FF;stroke-width:1.2159;stroke-dasharray:3.8599,3.8599;}
	.st6{fill:#1C49FF;stroke:#1C497C;stroke-width:0.965;}
	.st7{fill:none;stroke:#7F7F7F;stroke-width:1.2159;stroke-linecap:round;stroke-linejoin:round;}
	.st8{fill:#7F7F7F;}
</style>
<title>GROUND THRUTH LEGENDAsset 2</title>
<rect x="2.9" y="4.2" class="st0" width="43.2" height="9.6"/>
<g>
	<line class="st1" x1="3.3" y1="34.5" x2="44.6" y2="34.5"/>
	<circle class="st2" cx="23.9" cy="34.5" r="4.2"/>
</g>
<g>
	<line class="st3" x1="3.3" y1="60.9" x2="44.6" y2="60.9"/>
	<circle class="st4" cx="23.9" cy="60.9" r="4.2"/>
</g>
<g>
	<line class="st5" x1="3.9" y1="87.4" x2="45.2" y2="87.4"/>
	<circle class="st6" cx="24.5" cy="87.4" r="4.2"/>
</g>
<g>
	<line class="st7" x1="3.9" y1="113.8" x2="45.2" y2="113.8"/>
	<circle class="st8" cx="24.5" cy="113.8" r="4.2"/>
</g>
<path d="M73.3,17.5c-0.6,0.2-1.5,0.6-2.7,0.6c-2.9,0-5.2-1.9-5.2-5.2s2.1-5.4,5.4-5.4c1.4,0,2.1,0.2,2.5,0.4L73,9
	c-0.6-0.2-1.2-0.4-2.1-0.4c-2.5,0-4.1,1.5-4.1,4.2c0,2.5,1.5,4.2,4.1,4.2c0.8,0,1.7-0.2,2.1-0.4L73.3,17.5z"/>
<path d="M81.1,15.8c0,0.8,0,1.5,0,2.1h-1.2v-1.2l0,0c-0.4,0.4-1.2,1.2-2.5,1.2c-1.2,0-2.5-0.6-2.5-3.3v-4.2h1.4v4.1
	c0,1.4,0.4,2.3,1.7,2.3c1,0,1.5-0.6,1.7-1.2c0-0.2,0.2-0.4,0.2-0.8v-4.4h1.4v5.4H81.1z"/>
<path d="M83.4,12.7c0-1,0-1.5,0-2.3h1.2v1.5l0,0c0.4-1,1.2-1.5,2.1-1.5c0.2,0,0.2,0,0.4,0v1.4c-0.2,0-0.2,0-0.4,0
	c-1,0-1.5,0.8-1.7,1.7c0,0.2,0,0.4,0,0.6v4.1h-1.5V12.7z"/>
<path d="M88.4,12.7c0-1,0-1.5,0-2.3h1.2v1.5l0,0c0.4-1,1.2-1.5,2.1-1.5c0.2,0,0.2,0,0.4,0v1.4c-0.2,0-0.2,0-0.4,0
	c-1,0-1.5,0.8-1.7,1.7c0,0.2,0,0.4,0,0.6v4.1h-1.4L88.4,12.7L88.4,12.7z"/>
<path d="M94,14.2c0,1.9,1.2,2.5,2.5,2.5c1,0,1.5-0.2,2.1-0.4l0.2,1c-0.4,0.2-1.4,0.4-2.5,0.4c-2.3,0-3.7-1.5-3.7-3.9
	s1.4-4.1,3.5-4.1c2.5,0,3.1,2.1,3.1,3.5c0,0.2,0,0.6,0,0.6H94C94,13.8,94,14.2,94,14.2z M98,13.3c0-0.8-0.4-2.1-1.9-2.1
	c-1.4,0-1.9,1.4-2.1,2.1H98z"/>
<path d="M101.1,12.3c0-0.8,0-1.4,0-1.9h1.2v1.2l0,0c0.4-0.8,1.2-1.4,2.5-1.4c1,0,2.7,0.6,2.7,3.1v4.4h-1.4v-4.2
	c0-1.2-0.4-2.1-1.7-2.1c-1,0-1.5,0.6-1.7,1.4c0,0.2,0,0.4,0,0.6v4.4h-1.4L101.1,12.3L101.1,12.3z"/>
<path d="M111.2,8.3v2.1h1.9v1h-1.9v4.1c0,1,0.2,1.5,1,1.5c0.4,0,0.6,0,0.8,0v1c-0.2,0.2-0.8,0.2-1.2,0.2c-0.6,0-1.2-0.2-1.5-0.6
	c-0.4-0.4-0.6-1.2-0.6-1.9v-4.2h-1.2v-1h1.2V8.6L111.2,8.3z"/>
<path d="M126.6,19.3c-1.4-0.4-2.7-0.8-4.1-1.2c-0.2,0-0.4-0.2-0.6-0.2c-2.5,0-4.6-1.9-4.6-5.2s2.1-5.4,4.8-5.4
	c2.9,0,4.6,2.1,4.6,5.2c0,2.7-1.2,4.4-2.9,5l0,0c1,0.2,2.1,0.6,3.1,0.6L126.6,19.3z M125.5,12.5c0-2.1-1.2-4.2-3.3-4.2
	c-2.3,0-3.5,2.1-3.3,4.4c0,2.1,1.2,4.2,3.3,4.2C124.3,16.9,125.5,15,125.5,12.5z"/>
<path d="M134.9,15.8c0,0.8,0,1.5,0,2.1h-1.2v-1.2l0,0c-0.4,0.6-1.2,1.4-2.5,1.4c-1.2,0-2.5-0.6-2.5-3.3v-4.4h1.4v4.1
	c0,1.4,0.4,2.3,1.7,2.3c1,0,1.5-0.6,1.7-1.2c0-0.2,0-0.4,0-0.6v-4.6h1.4C134.9,10.4,134.9,15.8,134.9,15.8z"/>
<path d="M141.3,17.7l-0.2-1l0,0c-0.4,0.6-1.2,1.2-2.3,1.2c-1.5,0-2.3-1.2-2.3-2.1c0-1.7,1.5-2.7,4.4-2.7v-0.2c0-0.6-0.2-1.7-1.7-1.7
	c-0.8,0-1.4,0.2-1.9,0.6l-0.4-1c0.6-0.4,1.5-0.6,2.5-0.6c2.3,0,2.9,1.5,2.9,3.1V16c0,0.6,0,1.4,0.2,1.7
	C142.4,17.7,141.3,17.7,141.3,17.7z M141.1,14c-1.5,0-3.1,0.2-3.1,1.7c0,1,0.6,1.4,1.4,1.4c1,0,1.5-0.6,1.7-1.2c0-0.2,0-0.4,0-0.4
	V14z"/>
<path d="M144.6,12.3c0-0.8,0-1.4,0-1.9h1.2v1.2l0,0c0.4-0.8,1.2-1.4,2.5-1.4c1.2,0,2.7,0.6,2.7,3.1v4.4h-1.4v-4.2
	c0-1.2-0.4-2.1-1.7-2.1c-1,0-1.5,0.6-1.7,1.4c0,0.2,0,0.4,0,0.6v4.4h-1.4v-5.4H144.6z"/>
<path d="M154.8,8.3v2.1h1.9v1h-1.9v4.1c0,1,0.2,1.5,1,1.5c0.4,0,0.6,0,0.8,0v1c-0.2,0.2-0.8,0.2-1.2,0.2c-0.6,0-1.2-0.2-1.5-0.6
	c-0.4-0.4-0.6-1.2-0.6-1.9v-4.2h-1.2v-1h1.2V8.6L154.8,8.3z"/>
<path d="M159.8,8.3c0,0.4-0.4,0.8-0.8,0.8c-0.4,0-0.8-0.4-0.8-0.8c0-0.4,0.4-0.8,0.8-0.8S159.8,7.7,159.8,8.3z M158.3,17.7v-7.3h1.4
	v7.5L158.3,17.7L158.3,17.7z"/>
<path d="M163.5,8.3v2.1h1.9v1h-1.9v4.1c0,1,0.2,1.5,1,1.5c0.4,0,0.6,0,0.8,0v1c-0.2,0.2-0.8,0.2-1.2,0.2c-0.6,0-1.2-0.2-1.5-0.6
	c-0.4-0.4-0.6-1.2-0.6-1.9v-4.2h-1.2v-1h1.2V8.6L163.5,8.3z"/>
<path d="M167.5,10.4l1.5,4.4c0.2,0.6,0.4,1.2,0.4,1.5l0,0c0.4-0.6,0.6-1.2,0.8-1.7l1.5-4.4h1.4l-2.1,5.4c-1,2.5-1.5,3.9-2.5,4.6
	c-0.6,0.6-1.4,0.8-1.7,1l-0.4-1.2c0.4-0.2,0.8-0.4,1.2-0.6c0.4-0.4,0.8-0.8,1.2-1.5c0-0.2,0.2-0.2,0.2-0.4c0-0.2,0-0.2,0-0.4
	l-2.7-6.9L167.5,10.4L167.5,10.4z"/>
<path d="M67.7,39.7L66.6,43h-1.4l3.5-10.4h1.5L73.7,43h-1.4l-1.2-3.3H67.7z M71.2,38.6l-1-3.1c-0.2-0.8-0.4-1.4-0.6-1.9l0,0
	c-0.2,0.6-0.4,1.2-0.6,1.9l-1,3.1H71.2z"/>
<path d="M75.5,32h1.4v11h-1.4V32z"/>
<path d="M79.1,32h1.4v11h-1.4V32z"/>
<path d="M89.6,39.1c0,2.7-1.9,4.1-3.7,4.1c-1.9,0-3.7-1.5-3.7-3.9c0-2.5,1.5-4.1,3.7-4.1C88,35.3,89.6,36.8,89.6,39.1z M83.6,39.1
	c0,1.5,1,2.9,2.3,2.9c1.4,0,2.3-1.2,2.3-2.9c0-1.4-0.6-2.9-2.3-2.9C84.3,36.2,83.6,37.8,83.6,39.1z"/>
<path d="M91.7,35.5l1,3.9c0.2,0.8,0.4,1.5,0.6,2.3l0,0c0.2-0.8,0.4-1.5,0.6-2.3l1.2-3.9h1.2l1.2,3.7c0.2,1,0.6,1.7,0.6,2.5l0,0
	c0.2-0.8,0.4-1.5,0.6-2.5l1.2-3.7h1.4L98.6,43h-1.2l-1.2-3.5c-0.2-0.8-0.4-1.5-0.6-2.5l0,0c-0.2,1-0.4,1.7-0.8,2.5L93.8,43h-1.2
	l-2.3-7.5H91.7z"/>
<path d="M106.5,42.8l-0.2-1l0,0c-0.4,0.6-1.2,1.2-2.3,1.2c-1.5,0-2.3-1.2-2.3-2.1c0-1.7,1.5-2.7,4.4-2.7V38c0-0.6-0.2-1.7-1.7-1.7
	c-0.8,0-1.4,0.2-1.9,0.6l-0.4-1c0.6-0.4,1.5-0.6,2.5-0.6c2.3,0,2.9,1.5,2.9,3.1v2.7c0,0.6,0,1.4,0.2,1.7H106.5z M106.3,39.1
	c-1.5,0-3.1,0.2-3.1,1.7c0,1,0.6,1.4,1.4,1.4c1,0,1.5-0.6,1.7-1.2c0-0.2,0-0.4,0-0.4L106.3,39.1z"/>
<path d="M109.8,42.8c0-0.6,0-1.4,0-1.9v-9.1h1.4v4.6l0,0c0.4-0.8,1.4-1.4,2.5-1.4c1.9,0,3.1,1.5,3.1,3.9c0,2.7-1.7,4.1-3.3,4.1
	c-1.2,0-1.9-0.4-2.5-1.4l0,0v1.2H109.8z M111.2,39.9c0,0.2,0,0.4,0,0.6c0.2,1,1,1.5,2.1,1.5c1.4,0,2.3-1.2,2.3-2.9
	c0-1.5-0.8-2.7-2.3-2.7c-1,0-1.7,0.6-2.1,1.7c0,0.2,0,0.4,0,0.6V39.9z"/>
<path d="M118.7,32h1.4v11h-1.4V32z"/>
<path d="M122.9,39.3c0,1.9,1.2,2.5,2.5,2.5c1,0,1.5-0.2,2.1-0.4l0.2,1c-0.4,0.2-1.4,0.4-2.5,0.4c-2.3,0-3.7-1.5-3.7-3.9
	c0-2.3,1.4-4.1,3.5-4.1c2.5,0,3.1,2.1,3.1,3.5c0,0.2,0,0.6,0,0.6h-5.2C122.9,38.9,122.9,39.3,122.9,39.3z M127,38.4
	c0-0.8-0.4-2.1-1.9-2.1c-1.4,0-1.9,1.4-2.1,2.1H127z"/>
<path d="M135.1,42.8l-3.5-10.2h1.5l1.5,5.2c0.4,1.4,0.8,2.7,1.2,3.9l0,0c0.4-1.2,0.8-2.5,1.2-3.9l1.7-5.2h1.4L136.5,43h-1.4V42.8z"
	/>
<path d="M144.9,42.8l-0.2-1l0,0c-0.4,0.6-1.2,1.2-2.3,1.2c-1.5,0-2.3-1.2-2.3-2.1c0-1.7,1.5-2.7,4.4-2.7V38c0-0.6-0.2-1.7-1.7-1.7
	c-0.8,0-1.4,0.2-1.9,0.6l-0.4-1c0.6-0.4,1.5-0.6,2.5-0.6c2.3,0,2.9,1.5,2.9,3.1v2.7c0,0.6,0,1.4,0.2,1.7H144.9z M144.8,39.1
	c-1.5,0-3.1,0.2-3.1,1.7c0,1,0.6,1.4,1.4,1.4c1,0,1.5-0.6,1.7-1.2c0-0.2,0-0.4,0-0.4V39.1z"/>
<path d="M148.2,37.8c0-1,0-1.5,0-2.3h1.2V37l0,0c0.4-1,1.2-1.5,2.1-1.5c0.2,0,0.2,0,0.4,0v1.4c-0.2,0-0.2,0-0.4,0
	c-1,0-1.5,0.8-1.7,1.7c0,0.2,0,0.4,0,0.6v4.1h-1.4L148.2,37.8L148.2,37.8z"/>
<path d="M155,33.3c0,0.4-0.4,0.8-0.8,0.8c-0.4,0-0.8-0.4-0.8-0.8s0.4-0.8,0.8-0.8S155,32.8,155,33.3z M153.4,42.8v-7.5h1.4v7.5
	H153.4z"/>
<path d="M161.2,42.8l-0.2-1l0,0c-0.4,0.6-1.2,1.2-2.3,1.2c-1.5,0-2.3-1.2-2.3-2.1c0-1.7,1.5-2.7,4.4-2.7V38c0-0.6-0.2-1.7-1.7-1.7
	c-0.8,0-1.4,0.2-1.9,0.6l-0.4-1c0.6-0.4,1.5-0.6,2.5-0.6c2.3,0,2.9,1.5,2.9,3.1v2.7c0,0.6,0,1.4,0.2,1.7
	C162.3,42.8,161.2,42.8,161.2,42.8z M161,39.1c-1.5,0-3.1,0.2-3.1,1.7c0,1,0.6,1.4,1.4,1.4c1,0,1.5-0.6,1.7-1.2c0-0.2,0-0.4,0-0.4
	V39.1z"/>
<path d="M164.4,37.4c0-0.8,0-1.4,0-1.9h1.2v1.2l0,0c0.4-0.8,1.2-1.4,2.5-1.4c1,0,2.7,0.6,2.7,3.1v4.4h-1.4v-4.2
	c0-1.2-0.4-2.1-1.7-2.1c-1,0-1.5,0.6-1.7,1.4c0,0.2,0,0.4,0,0.6v4.4h-1.5V37.4z"/>
<path d="M178.3,42.6c-0.4,0.2-1.2,0.4-2.1,0.4c-2.3,0-3.7-1.5-3.7-3.9c0-2.3,1.5-4.1,4.1-4.1c0.8,0,1.5,0.2,1.9,0.4l-0.4,1
	c-0.4,0-1,0-1.7,0c-1.7,0-2.7,1.4-2.7,2.9c0,1.7,1.2,2.7,2.5,2.7c0.8,0,1.4-0.2,1.7-0.4L178.3,42.6z"/>
<path d="M180.7,39.3c0,1.9,1.2,2.5,2.5,2.5c1,0,1.5-0.2,2.1-0.4l0.2,1c-0.4,0.2-1.4,0.4-2.5,0.4c-2.3,0-3.7-1.5-3.7-3.9
	c0-2.3,1.4-4.1,3.5-4.1c2.5,0,3.1,2.1,3.1,3.5c0,0.2,0,0.6,0,0.6h-5.2V39.3z M184.5,38.4c0-0.8-0.4-2.1-1.9-2.1
	c-1.4,0-1.9,1.4-2.1,2.1H184.5z"/>
<path d="M192.4,33.3c0,0.4-0.4,0.8-0.8,0.8s-0.8-0.4-0.8-0.8s0.4-0.8,0.8-0.8C192,32.6,192.4,32.8,192.4,33.3z M190.9,42.8v-7.5h1.4
	v7.5H190.9z"/>
<path d="M194.5,37.4c0-0.8,0-1.4,0-1.9h1.2v1.2l0,0c0.4-0.8,1.2-1.4,2.5-1.4c1,0,2.7,0.6,2.7,3.1v4.4h-1.4v-4.2
	c0-1.2-0.4-2.1-1.7-2.1c-1,0-1.5,0.6-1.7,1.4c0,0.2,0,0.4,0,0.6v4.4h-1.4v-5.4C194.7,37.4,194.5,37.4,194.5,37.4z"/>
<path d="M215,44.3c-1.4-0.4-2.7-0.8-4.1-1.2c-0.2,0-0.4-0.2-0.6-0.2c-2.5,0-4.6-1.9-4.6-5.2s2.1-5.4,4.8-5.4c2.9,0,4.6,2.1,4.6,5.2
	c0,2.7-1.2,4.4-2.9,5l0,0c1,0.2,2.1,0.6,3.1,0.6L215,44.3z M213.8,37.6c0-2.1-1.2-4.2-3.3-4.2c-2.3,0-3.5,2.1-3.3,4.4
	c0,2.1,1.2,4.2,3.3,4.2C212.7,42,213.8,40.1,213.8,37.6z"/>
<path d="M223.3,40.9c0,0.8,0,1.5,0,2.1h-1.2v-1.2l0,0c-0.4,0.6-1.2,1.4-2.5,1.4c-1.2,0-2.5-0.6-2.5-3.3v-4.4h1.4v4.1
	c0,1.4,0.4,2.3,1.7,2.3c1,0,1.5-0.6,1.7-1.2c0-0.2,0.2-0.4,0.2-0.8v-4.6h1.4L223.3,40.9L223.3,40.9z"/>
<path d="M229.7,42.8l-0.2-1l0,0c-0.4,0.6-1.2,1.2-2.3,1.2c-1.5,0-2.3-1.2-2.3-2.1c0-1.7,1.5-2.7,4.4-2.7V38c0-0.6-0.2-1.7-1.7-1.7
	c-0.8,0-1.4,0.2-1.9,0.6l-0.4-1c0.6-0.4,1.5-0.6,2.5-0.6c2.3,0,2.9,1.5,2.9,3.1v2.7c0,0.6,0,1.4,0.2,1.7H229.7z M229.5,39.1
	c-1.5,0-3.1,0.2-3.1,1.7c0,1,0.6,1.4,1.4,1.4c1,0,1.5-0.6,1.7-1.2c0-0.2,0-0.4,0-0.4V39.1z"/>
<path d="M233,37.4c0-0.8,0-1.4,0-1.9h1.2v1.2l0,0c0.4-0.8,1.2-1.4,2.5-1.4c1,0,2.7,0.6,2.7,3.1v4.4H238v-4.2c0-1.2-0.4-2.1-1.7-2.1
	c-1,0-1.5,0.6-1.7,1.4c0,0.2,0,0.4,0,0.6v4.4h-1.4v-5.4C233.1,37.4,233,37.4,233,37.4z"/>
<path d="M243,33.3v2.1h1.9v1H243v4.1c0,1,0.2,1.5,1,1.5c0.4,0,0.6,0,0.8,0v1c-0.2,0.2-0.8,0.2-1.2,0.2c-0.6,0-1.2-0.2-1.5-0.6
	c-0.4-0.4-0.6-1.2-0.6-1.9v-4.2h-1.2v-1h1.2v-1.7L243,33.3z"/>
<path d="M248,33.3c0,0.4-0.4,0.8-0.8,0.8c-0.4,0-0.8-0.4-0.8-0.8s0.4-0.8,0.8-0.8C247.8,32.6,248,32.8,248,33.3z M246.5,42.8v-7.5
	h1.4v7.5H246.5z"/>
<path d="M251.9,33.3v2.1h1.9v1h-1.9v4.1c0,1,0.2,1.5,1,1.5c0.4,0,0.6,0,0.8,0v1c-0.2,0.2-0.8,0.2-1.2,0.2c-0.6,0-1.2-0.2-1.5-0.6
	c-0.4-0.4-0.6-1.2-0.6-1.9v-4.2h-1v-1h1.2v-1.7L251.9,33.3z"/>
<path d="M255.9,35.5l1.5,4.4c0.2,0.6,0.4,1.2,0.4,1.5l0,0c0.2-0.4,0.4-1,0.4-1.5l1.5-4.4h1.4l-2.1,5.4c-1,2.5-1.5,3.9-2.5,4.6
	c-0.6,0.6-1.4,0.8-1.7,1l-0.4-1.2c0.4-0.2,0.8-0.4,1.2-0.6c0.4-0.4,0.8-0.8,1.2-1.5c0-0.2,0.2-0.2,0.2-0.4s0-0.2,0-0.4l-2.7-6.9
	C254.2,35.5,255.9,35.5,255.9,35.5z"/>
<path d="M268.8,32.2c-1.2,1.5-1.9,3.5-1.9,6.4c0,2.7,0.8,4.6,1.9,6.2h-1.2c-1-1.4-1.9-3.3-1.9-6.2c0-3.1,1-5,1.9-6.4H268.8z"/>
<path d="M273.5,38.2v1h-3.9v-1H273.5z"/>
<path d="M275.6,35.5l1.5,4.2c0.2,0.8,0.4,1.4,0.6,1.9l0,0c0.2-0.6,0.4-1.2,0.6-1.9l1.5-4.2h1.4l-2.9,7.5H277l-2.9-7.5H275.6z"/>
<path d="M282.9,39.3c0,1.9,1.2,2.5,2.5,2.5c1,0,1.5-0.2,2.1-0.4l0.2,1c-0.4,0.2-1.4,0.4-2.5,0.4c-2.3,0-3.7-1.5-3.7-3.9
	c0-2.3,1.4-4.1,3.5-4.1c2.5,0,3.1,2.1,3.1,3.5c0,0.2,0,0.6,0,0.6h-5.2L282.9,39.3L282.9,39.3z M287,38.4c0-0.8-0.4-2.1-1.9-2.1
	c-1.4,0-1.9,1.4-2.1,2.1H287z"/>
<path d="M289.1,44.7c1.2-1.5,1.9-3.5,1.9-6.4c0-2.7-0.8-4.8-1.9-6.2h1c1,1.4,1.9,3.3,1.9,6.4c0,3.1-1,5-1.9,6.4L289.1,44.7
	L289.1,44.7z"/>
<path d="M71.4,63.1h-4.1v3.7h4.4v1.2H66V57.7h5.8v1.2h-4.2v3.3h4.1L71.4,63.1L71.4,63.1z"/>
<path d="M73.5,66.5c0.4,0.2,1.2,0.6,1.7,0.6c1,0,1.5-0.6,1.5-1.2s-0.4-1-1.4-1.4c-1.4-0.4-1.9-1.2-1.9-2.1c0-1.2,1-2.1,2.5-2.1
	c0.8,0,1.4,0.2,1.9,0.4l-0.4,1c-0.4-0.2-0.8-0.4-1.5-0.4s-1.2,0.4-1.2,1c0,0.6,0.4,1,1.4,1.4c1.4,0.6,1.9,1.2,1.9,2.3
	c0,1.4-1,2.3-2.7,2.3c-0.8,0-1.5-0.2-2.1-0.6L73.5,66.5z"/>
<path d="M81.5,58.4v2.1h1.9v1h-1.9v4.1c0,1,0.2,1.5,1,1.5c0.4,0,0.6,0,0.8,0v1c-0.2,0.2-0.8,0.2-1.2,0.2c-0.6,0-1.2-0.2-1.5-0.6
	s-0.6-1.2-0.6-1.9v-4.2h-1.2v-1h1.2v-1.7L81.5,58.4z"/>
<path d="M86.5,58.4c0,0.4-0.4,0.8-0.8,0.8c-0.4,0-0.8-0.4-0.8-0.8s0.4-0.8,0.8-0.8S86.5,57.9,86.5,58.4z M84.9,67.9v-7.5h1.4v7.5
	H84.9z"/>
<path d="M88.4,62.5c0-0.8,0-1.4,0-1.9h1.2v1.2l0,0c0.4-0.8,1.2-1.4,2.3-1.4c1,0,1.7,0.6,2.1,1.5l0,0c0.2-0.4,0.6-0.8,0.8-1
	c0.4-0.4,1-0.6,1.7-0.6c1,0,2.5,0.6,2.5,3.3v4.4h-1.4v-4.2c0-1.4-0.6-2.3-1.5-2.3c-0.8,0-1.4,0.6-1.5,1.2c0,0.2-0.2,0.4-0.2,0.8v4.6
	H93v-4.6c0-1.2-0.6-2.1-1.5-2.1c-0.8,0-1.5,0.8-1.7,1.4c0,0.2-0.2,0.4-0.2,0.6v4.4h-1.4L88.4,62.5L88.4,62.5z"/>
<path d="M105.6,67.9l-0.2-1l0,0c-0.4,0.6-1.2,1.2-2.3,1.2c-1.5,0-2.3-1.2-2.3-2.1c0-1.7,1.5-2.7,4.4-2.7v-0.2c0-0.6-0.2-1.7-1.7-1.7
	c-0.8,0-1.4,0.2-1.9,0.6l-0.4-1c0.6-0.4,1.5-0.6,2.5-0.6c2.3,0,2.9,1.5,2.9,3.1v2.7c0,0.6,0,1.4,0.2,1.7
	C106.7,67.9,105.6,67.9,105.6,67.9z M105.4,64.2c-1.5,0-3.1,0.2-3.1,1.7c0,1,0.6,1.4,1.4,1.4c1,0,1.5-0.6,1.7-1.2c0-0.2,0-0.4,0-0.4
	L105.4,64.2z"/>
<path d="M110.4,58.4v2.1h1.9v1h-1.9v4.1c0,1,0.2,1.5,1,1.5c0.4,0,0.6,0,0.8,0v1c-0.2,0.2-0.8,0.2-1.2,0.2c-0.6,0-1.2-0.2-1.5-0.6
	s-0.6-1.2-0.6-1.9v-4.2h-1.2v-1h1.2v-1.7L110.4,58.4z"/>
<path d="M114.5,64.4c0,1.9,1.2,2.5,2.5,2.5c1,0,1.5-0.2,2.1-0.4l0.2,1c-0.4,0.2-1.4,0.4-2.5,0.4c-2.3,0-3.7-1.5-3.7-3.9
	s1.4-4.1,3.5-4.1c2.5,0,3.1,2.1,3.1,3.5c0,0.2,0,0.6,0,0.6h-5.2C114.5,64,114.5,64.4,114.5,64.4z M118.5,63.4c0-0.8-0.4-2.1-1.9-2.1
	c-1.4,0-1.9,1.4-2.1,2.1H118.5z"/>
<path d="M128,57.1v9.1c0,0.6,0,1.4,0,1.9h-1.2v-1.4l0,0c-0.4,0.8-1.4,1.5-2.5,1.5c-1.7,0-3.3-1.5-3.3-3.9c0-2.5,1.5-4.1,3.3-4.1
	c1.2,0,1.9,0.6,2.3,1.2l0,0v-4.4H128z M126.6,63.6c0-0.2,0-0.4,0-0.6c-0.2-0.8-1-1.5-1.9-1.5c-1.4,0-2.3,1.2-2.3,2.9
	c0,1.5,0.8,2.7,2.1,2.7c1,0,1.7-0.6,1.9-1.5c0-0.2,0-0.4,0-0.6L126.6,63.6L126.6,63.6z"/>
<path d="M142.1,69.4c-1.4-0.4-2.7-0.8-4.1-1.2c-0.2,0-0.4-0.2-0.6-0.2c-2.5,0-4.6-1.9-4.6-5.2s2.1-5.4,4.8-5.4
	c2.9,0,4.6,2.1,4.6,5.2c0,2.7-1.2,4.4-2.9,5l0,0c1,0.2,2.1,0.6,3.1,0.6L142.1,69.4z M140.9,62.7c0-2.1-1.2-4.2-3.3-4.2
	c-2.3,0-3.5,2.1-3.3,4.4c0,2.1,1.2,4.2,3.3,4.2C139.7,67.1,140.9,65.2,140.9,62.7z"/>
<path d="M150.4,66c0,0.8,0,1.5,0,2.1h-1.2v-1.2l0,0c-0.4,0.6-1.2,1.4-2.5,1.4c-1.2,0-2.5-0.6-2.5-3.3v-4.4h1.4v4.1
	c0,1.4,0.4,2.3,1.7,2.3c1,0,1.5-0.6,1.7-1.2c0-0.2,0.2-0.4,0.2-0.8v-4.6h1.4L150.4,66L150.4,66z"/>
<path d="M156.7,67.9v-0.8l0,0c-0.4,0.6-1.2,1.2-2.3,1.2c-1.5,0-2.3-1.2-2.3-2.1c0-1.7,1.5-2.7,4.4-2.7v-0.2c0-0.6-0.2-1.7-1.7-1.7
	c-0.8,0-1.4,0.2-1.9,0.6l-0.4-1c0.6-0.4,1.5-0.6,2.5-0.6c2.3,0,2.9,1.5,2.9,3.1v2.7c0,0.6,0,1.4,0.2,1.7h-1.4V67.9z M156.5,64.2
	c-1.5,0-3.1,0.2-3.1,1.7c0,1,0.6,1.4,1.4,1.4c1,0,1.5-0.6,1.7-1.2c0-0.2,0-0.4,0-0.4V64.2z"/>
<path d="M160.2,62.5c0-0.8,0-1.4,0-1.9h1.2v1.2l0,0c0.4-0.8,1.2-1.4,2.5-1.4c1,0,2.7,0.6,2.7,3.1v4.4h-1.4v-4.2
	c0-1.2-0.4-2.1-1.7-2.1c-1,0-1.5,0.6-1.7,1.4c0,0.2,0,0.4,0,0.6v4.4h-1.4v-5.4C160.4,62.5,160.2,62.5,160.2,62.5z"/>
<path d="M170.2,58.4v2.1h1.9v1h-1.9v4.1c0,1,0.2,1.5,1,1.5c0.4,0,0.6,0,0.8,0v1c-0.2,0.2-0.8,0.2-1.2,0.2c-0.6,0-1.2-0.2-1.5-0.6
	c-0.4-0.4-0.6-1.2-0.6-1.9v-4.2h-1.2v-1h1.2v-1.7L170.2,58.4z"/>
<path d="M175.2,58.4c0,0.4-0.4,0.8-0.8,0.8c-0.4,0-0.8-0.4-0.8-0.8s0.4-0.8,0.8-0.8S175.2,57.9,175.2,58.4z M173.7,67.9v-7.5h1.4
	v7.5H173.7z"/>
<path d="M178.9,58.4v2.1h1.9v1h-1.9v4.1c0,1,0.2,1.5,1,1.5c0.4,0,0.6,0,0.8,0v1c-0.2,0.2-0.8,0.2-1.2,0.2c-0.6,0-1.2-0.2-1.5-0.6
	c-0.4-0.4-0.6-1.2-0.6-1.9v-4.2h-1.2v-1h1.2v-1.7L178.9,58.4z"/>
<path d="M183.2,60.6l1.5,4.4c0.2,0.6,0.4,1.2,0.4,1.5l0,0c0.2-0.4,0.4-1,0.4-1.5l1.5-4.4h1.4l-2.1,5.4c-1,2.5-1.5,3.9-2.5,4.6
	c-0.6,0.6-1.4,0.8-1.7,1l-0.4-1.2c0.4-0.2,0.8-0.4,1.2-0.6c0.4-0.4,0.8-0.8,1.2-1.5c0-0.2,0.2-0.2,0.2-0.4s0-0.2,0-0.4l-2.7-6.9
	C181.4,60.6,183.2,60.6,183.2,60.6z"/>
<path d="M67.7,89.9l-1.2,3.3h-1.4l3.5-10.4h1.5l3.5,10.4h-1.4l-1.2-3.3H67.7z M71.2,88.7l-1-3.1c-0.2-0.8-0.4-1.4-0.6-1.9l0,0
	c-0.2,0.6-0.4,1.2-0.6,1.9l-1,3.1H71.2z"/>
<path d="M75.5,82.2h1.4v11h-1.4V82.2z"/>
<path d="M79.1,82.2h1.4v11h-1.4V82.2z"/>
<path d="M89.6,89.3c0,2.7-1.9,4.1-3.7,4.1c-1.9,0-3.7-1.5-3.7-3.9c0-2.5,1.5-4.1,3.7-4.1C88,85.4,89.6,87,89.6,89.3z M83.6,89.3
	c0,1.5,1,2.9,2.3,2.9c1.4,0,2.3-1.2,2.3-2.9c0-1.4-0.6-2.9-2.3-2.9C84.3,86.4,83.6,88,83.6,89.3z"/>
<path d="M91.7,85.6l1,3.9c0.2,0.8,0.4,1.5,0.6,2.3l0,0c0.2-0.8,0.4-1.5,0.6-2.3l1.2-3.9h1.2l1.2,3.7c0.2,1,0.6,1.7,0.6,2.5l0,0
	c0.2-0.8,0.4-1.5,0.6-2.5l1.2-3.7h1.4l-2.3,7.5h-1.2l-1.2-3.5c-0.2-0.8-0.4-1.5-0.6-2.5l0,0c-0.2,1-0.4,1.7-0.8,2.5l-1.2,3.5h-1.2
	l-2.3-7.5H91.7z"/>
<path d="M106.5,93l-0.2-1l0,0c-0.4,0.6-1.2,1.2-2.3,1.2c-1.5,0-2.3-1.2-2.3-2.1c0-1.7,1.5-2.7,4.4-2.7v-0.2c0-0.6-0.2-1.7-1.7-1.7
	c-0.8,0-1.4,0.2-1.9,0.6l-0.4-1c0.6-0.4,1.5-0.6,2.5-0.6c2.3,0,2.9,1.5,2.9,3.1v2.7c0,0.6,0,1.4,0.2,1.7H106.5z M106.3,89.3
	c-1.5,0-3.1,0.2-3.1,1.7c0,1,0.6,1.4,1.4,1.4c1,0,1.5-0.6,1.7-1.2c0-0.2,0-0.4,0-0.4L106.3,89.3z"/>
<path d="M109.8,93c0-0.6,0-1.4,0-1.9V82h1.4v4.6l0,0c0.4-0.8,1.4-1.4,2.5-1.4c1.9,0,3.1,1.5,3.1,3.9c0,2.7-1.7,4.1-3.3,4.1
	c-1.2,0-1.9-0.4-2.5-1.4l0,0V93C111,93,109.8,93,109.8,93z M111.2,90.1c0,0.2,0,0.4,0,0.6c0.2,1,1,1.5,2.1,1.5
	c1.4,0,2.3-1.2,2.3-2.9c0-1.5-0.8-2.7-2.3-2.7c-1,0-1.7,0.6-2.1,1.7c0,0.2,0,0.4,0,0.6V90.1z"/>
<path d="M118.7,82.2h1.4v11h-1.4V82.2z"/>
<path d="M122.9,89.5c0,1.9,1.2,2.5,2.5,2.5c1,0,1.5-0.2,2.1-0.4l0.2,1c-0.4,0.2-1.4,0.4-2.5,0.4c-2.3,0-3.7-1.5-3.7-3.9
	c0-2.3,1.4-4.1,3.5-4.1c2.5,0,3.1,2.1,3.1,3.5c0,0.2,0,0.6,0,0.6h-5.2C122.9,89.1,122.9,89.5,122.9,89.5z M127,88.5
	c0-0.8-0.4-2.1-1.9-2.1c-1.4,0-1.9,1.4-2.1,2.1H127z"/>
<path d="M135.1,93l-3.5-10.2h1.5l1.5,5.2c0.4,1.4,0.8,2.7,1.2,3.9l0,0c0.4-1.2,0.8-2.5,1.2-3.9l1.7-5.2h1.4l-3.7,10.4h-1.4V93z"/>
<path d="M144.9,93l-0.2-1l0,0c-0.4,0.6-1.2,1.2-2.3,1.2c-1.5,0-2.3-1.2-2.3-2.1c0-1.7,1.5-2.7,4.4-2.7v-0.2c0-0.6-0.2-1.7-1.7-1.7
	c-0.8,0-1.4,0.2-1.9,0.6l-0.4-1c0.6-0.4,1.5-0.6,2.5-0.6c2.3,0,2.9,1.5,2.9,3.1v2.7c0,0.6,0,1.4,0.2,1.7H144.9z M144.8,89.3
	c-1.5,0-3.1,0.2-3.1,1.7c0,1,0.6,1.4,1.4,1.4c1,0,1.5-0.6,1.7-1.2c0-0.2,0-0.4,0-0.4V89.3z"/>
<path d="M148.2,88c0-1,0-1.5,0-2.3h1.2v1.5l0,0c0.4-1,1.2-1.5,2.1-1.5c0.2,0,0.2,0,0.4,0V87c-0.2,0-0.2,0-0.4,0
	c-1,0-1.5,0.8-1.7,1.7c0,0.2,0,0.4,0,0.6v4.1h-1.4L148.2,88L148.2,88z"/>
<path d="M155,83.5c0,0.4-0.4,0.8-0.8,0.8c-0.4,0-0.8-0.4-0.8-0.8s0.4-0.8,0.8-0.8S155,82.9,155,83.5z M153.4,93v-7.5h1.4V93H153.4z"
	/>
<path d="M161.2,93l-0.2-1l0,0c-0.4,0.6-1.2,1.2-2.3,1.2c-1.5,0-2.3-1.2-2.3-2.1c0-1.7,1.5-2.7,4.4-2.7v-0.2c0-0.6-0.2-1.7-1.7-1.7
	c-0.8,0-1.4,0.2-1.9,0.6l-0.4-1c0.6-0.4,1.5-0.6,2.5-0.6c2.3,0,2.9,1.5,2.9,3.1v2.7c0,0.6,0,1.4,0.2,1.7C162.3,93,161.2,93,161.2,93
	z M161,89.3c-1.5,0-3.1,0.2-3.1,1.7c0,1,0.6,1.4,1.4,1.4c1,0,1.5-0.6,1.7-1.2c0-0.2,0-0.4,0-0.4V89.3z"/>
<path d="M164.4,87.6c0-0.8,0-1.4,0-1.9h1.2v1.2l0,0c0.4-0.8,1.2-1.4,2.5-1.4c1,0,2.7,0.6,2.7,3.1V93h-1.4v-4.2
	c0-1.2-0.4-2.1-1.7-2.1c-1,0-1.5,0.6-1.7,1.4c0,0.2,0,0.4,0,0.6V93h-1.5V87.6z"/>
<path d="M178.3,92.8c-0.4,0.2-1.2,0.4-2.1,0.4c-2.3,0-3.7-1.5-3.7-3.9c0-2.3,1.5-4.1,4.1-4.1c0.8,0,1.5,0.2,1.9,0.4l-0.4,1
	c-0.4,0-1,0-1.7,0c-1.7,0-2.7,1.4-2.7,2.9c0,1.7,1.2,2.7,2.5,2.7c0.8,0,1.4-0.2,1.7-0.4L178.3,92.8z"/>
<path d="M180.7,89.5c0,1.9,1.2,2.5,2.5,2.5c1,0,1.5-0.2,2.1-0.4l0.2,1c-0.4,0.2-1.4,0.4-2.5,0.4c-2.3,0-3.7-1.5-3.7-3.9
	c0-2.3,1.4-4.1,3.5-4.1c2.5,0,3.1,2.1,3.1,3.5c0,0.2,0,0.6,0,0.6h-5.2V89.5z M184.5,88.5c0-0.8-0.4-2.1-1.9-2.1
	c-1.4,0-1.9,1.4-2.1,2.1H184.5z"/>
<path d="M192.4,83.5c0,0.4-0.4,0.8-0.8,0.8s-0.8-0.4-0.8-0.8s0.4-0.8,0.8-0.8C192,82.7,192.4,82.9,192.4,83.5z M190.9,93v-7.5h1.4
	V93H190.9z"/>
<path d="M194.5,87.6c0-0.8,0-1.4,0-1.9h1.2v1.2l0,0c0.4-0.8,1.2-1.4,2.5-1.4c1,0,2.7,0.6,2.7,3.1V93h-1.4v-4.2
	c0-1.2-0.4-2.1-1.7-2.1c-1,0-1.5,0.6-1.7,1.4c0,0.2,0,0.4,0,0.6V93h-1.4v-5.4C194.7,87.6,194.5,87.6,194.5,87.6z"/>
<path d="M215,94.5c-1.4-0.4-2.7-0.8-4.1-1.2c-0.2,0-0.4-0.2-0.6-0.2c-2.5,0-4.6-1.9-4.6-5.2s2.1-5.4,4.8-5.4c2.9,0,4.6,2.1,4.6,5.2
	c0,2.7-1.2,4.4-2.9,5l0,0c1,0.2,2.1,0.6,3.1,0.6L215,94.5z M213.8,87.8c0-2.1-1.2-4.2-3.3-4.2c-2.3,0-3.5,2.1-3.3,4.4
	c0,2.1,1.2,4.2,3.3,4.2C212.7,92.2,213.8,90.3,213.8,87.8z"/>
<path d="M223.3,91c0,0.8,0,1.5,0,2.1h-1.2V92l0,0c-0.4,0.6-1.2,1.4-2.5,1.4c-1.2,0-2.5-0.6-2.5-3.3v-4.4h1.4v4.1
	c0,1.4,0.4,2.3,1.7,2.3c1,0,1.5-0.6,1.7-1.2c0-0.2,0.2-0.4,0.2-0.8v-4.6h1.4L223.3,91L223.3,91z"/>
<path d="M229.7,93l-0.2-1l0,0c-0.4,0.6-1.2,1.2-2.3,1.2c-1.5,0-2.3-1.2-2.3-2.1c0-1.7,1.5-2.7,4.4-2.7v-0.2c0-0.6-0.2-1.7-1.7-1.7
	c-0.8,0-1.4,0.2-1.9,0.6l-0.4-1c0.6-0.4,1.5-0.6,2.5-0.6c2.3,0,2.9,1.5,2.9,3.1v2.7c0,0.6,0,1.4,0.2,1.7H229.7z M229.5,89.3
	c-1.5,0-3.1,0.2-3.1,1.7c0,1,0.6,1.4,1.4,1.4c1,0,1.5-0.6,1.7-1.2c0-0.2,0-0.4,0-0.4V89.3z"/>
<path d="M233,87.6c0-0.8,0-1.4,0-1.9h1.2v1.2l0,0c0.4-0.8,1.2-1.4,2.5-1.4c1,0,2.7,0.6,2.7,3.1V93H238v-4.2c0-1.2-0.4-2.1-1.7-2.1
	c-1,0-1.5,0.6-1.7,1.4c0,0.2,0,0.4,0,0.6V93h-1.4v-5.4C233.1,87.6,233,87.6,233,87.6z"/>
<path d="M243,83.5v2.1h1.9v1H243v4.1c0,1,0.2,1.5,1,1.5c0.4,0,0.6,0,0.8,0v1c-0.2,0.2-0.8,0.2-1.2,0.2c-0.6,0-1.2-0.2-1.5-0.6
	c-0.4-0.4-0.6-1.2-0.6-1.9v-4.2h-1.2v-1h1.2v-1.7L243,83.5z"/>
<path d="M248,83.5c0,0.4-0.4,0.8-0.8,0.8c-0.4,0-0.8-0.4-0.8-0.8s0.4-0.8,0.8-0.8C247.8,82.7,248,82.9,248,83.5z M246.5,93v-7.5h1.4
	V93H246.5z"/>
<path d="M251.9,83.5v2.1h1.9v1h-1.9v4.1c0,1,0.2,1.5,1,1.5c0.4,0,0.6,0,0.8,0v1c-0.2,0.2-0.8,0.2-1.2,0.2c-0.6,0-1.2-0.2-1.5-0.6
	c-0.4-0.4-0.6-1.2-0.6-1.9v-4.2h-1v-1h1.2v-1.7L251.9,83.5z"/>
<path d="M255.9,85.6l1.5,4.4c0.2,0.6,0.4,1.2,0.4,1.5l0,0c0.2-0.4,0.4-1,0.4-1.5l1.5-4.4h1.4L259,91c-1,2.5-1.5,3.9-2.5,4.6
	c-0.6,0.6-1.4,0.8-1.7,1l-0.4-1.2c0.4-0.2,0.8-0.4,1.2-0.6c0.4-0.4,0.8-0.8,1.2-1.5c0-0.2,0.2-0.2,0.2-0.4c0-0.2,0-0.2,0-0.4
	l-2.7-6.9C254.2,85.6,255.9,85.6,255.9,85.6z"/>
<path d="M268.8,82.4c-1.2,1.5-1.9,3.5-1.9,6.4c0,2.7,0.8,4.6,1.9,6.2h-1.2c-1-1.4-1.9-3.3-1.9-6.2c0-3.1,1-5,1.9-6.4H268.8z"/>
<path d="M274.3,84.9v3.7h3.5v1h-3.5v3.7h-1v-3.7h-3.5v-1h3.5v-3.7H274.3z"/>
<path d="M280,85.6l1.5,4.2c0.2,0.8,0.4,1.4,0.6,1.9l0,0c0.2-0.6,0.4-1.2,0.6-1.9l1.5-4.2h1.4l-2.9,7.5h-1.4l-2.9-7.5H280z"/>
<path d="M287.6,89.5c0,1.9,1.2,2.5,2.5,2.5c1,0,1.5-0.2,2.1-0.4l0.2,1c-0.4,0.2-1.4,0.4-2.5,0.4c-2.3,0-3.7-1.5-3.7-3.9
	c0-2.3,1.4-4.1,3.5-4.1c2.5,0,3.1,2.1,3.1,3.5c0,0.2,0,0.6,0,0.6h-5.2L287.6,89.5L287.6,89.5z M291.6,88.5c0-0.8-0.4-2.1-1.9-2.1
	c-1.4,0-1.9,1.4-2.1,2.1H291.6z"/>
<path d="M293.7,94.9c1.2-1.5,1.9-3.5,1.9-6.4c0-2.7-0.8-4.8-1.9-6.2h1c1,1.4,1.9,3.3,1.9,6.4c0,3.1-1,5-1.9,6.4L293.7,94.9
	L293.7,94.9z"/>
<g>
	<path d="M66.2,117.1c0.6,0.4,1.4,0.7,2.3,0.7c1.3,0,2.1-0.7,2.1-1.7c0-0.9-0.5-1.5-1.9-2c-1.6-0.6-2.7-1.4-2.7-2.9
		c0-1.6,1.3-2.7,3.3-2.7c1,0,1.8,0.2,2.2,0.5l-0.4,1.1c-0.3-0.2-1-0.5-1.9-0.5c-1.4,0-1.9,0.8-1.9,1.5c0,0.9,0.6,1.4,2,2
		c1.7,0.7,2.6,1.5,2.6,3c0,1.6-1.2,2.9-3.5,2.9c-1,0-2-0.3-2.6-0.6L66.2,117.1z"/>
	<path d="M75.3,109.3v2.1h1.9v1h-1.9v3.9c0,0.9,0.3,1.4,1,1.4c0.3,0,0.6,0,0.8-0.1l0.1,1c-0.3,0.1-0.7,0.2-1.2,0.2
		c-0.6,0-1.1-0.2-1.4-0.6c-0.4-0.4-0.5-1-0.5-1.9v-4h-1.1v-1H74v-1.7L75.3,109.3z"/>
	<path d="M82.7,118.6l-0.1-0.9h0c-0.4,0.6-1.2,1.1-2.2,1.1c-1.5,0-2.2-1-2.2-2.1c0-1.8,1.6-2.7,4.4-2.7v-0.1c0-0.6-0.2-1.7-1.6-1.7
		c-0.7,0-1.4,0.2-1.9,0.5l-0.3-0.9c0.6-0.4,1.5-0.6,2.4-0.6c2.2,0,2.8,1.5,2.8,3v2.7c0,0.6,0,1.2,0.1,1.7H82.7z M82.5,114.9
		c-1.4,0-3.1,0.2-3.1,1.6c0,0.9,0.6,1.3,1.2,1.3c0.9,0,1.5-0.6,1.8-1.2c0-0.1,0.1-0.3,0.1-0.4V114.9z"/>
	<path d="M85.9,113.3c0-0.8,0-1.4-0.1-2H87l0.1,1.2h0c0.4-0.7,1.2-1.4,2.4-1.4c1,0,2.6,0.6,2.6,3.1v4.3h-1.3v-4.2
		c0-1.2-0.4-2.1-1.7-2.1c-0.9,0-1.5,0.6-1.8,1.4c-0.1,0.2-0.1,0.4-0.1,0.6v4.4h-1.3V113.3z"/>
	<path d="M100.5,108v8.8c0,0.6,0,1.4,0.1,1.9h-1.2l-0.1-1.3h0c-0.4,0.8-1.3,1.4-2.5,1.4c-1.8,0-3.1-1.5-3.1-3.7
		c0-2.4,1.5-3.9,3.3-3.9c1.1,0,1.9,0.5,2.2,1.1h0V108H100.5z M99.2,114.3c0-0.2,0-0.4-0.1-0.6c-0.2-0.8-0.9-1.5-1.9-1.5
		c-1.4,0-2.2,1.2-2.2,2.8c0,1.5,0.7,2.7,2.1,2.7c0.9,0,1.7-0.6,1.9-1.6c0-0.2,0.1-0.4,0.1-0.6V114.3z"/>
	<path d="M106.7,118.6l-0.1-0.9h0c-0.4,0.6-1.2,1.1-2.2,1.1c-1.5,0-2.2-1-2.2-2.1c0-1.8,1.6-2.7,4.4-2.7v-0.1c0-0.6-0.2-1.7-1.6-1.7
		c-0.7,0-1.4,0.2-1.9,0.5l-0.3-0.9c0.6-0.4,1.5-0.6,2.4-0.6c2.2,0,2.8,1.5,2.8,3v2.7c0,0.6,0,1.2,0.1,1.7H106.7z M106.5,114.9
		c-1.4,0-3.1,0.2-3.1,1.6c0,0.9,0.6,1.3,1.2,1.3c0.9,0,1.5-0.6,1.8-1.2c0-0.1,0.1-0.3,0.1-0.4V114.9z"/>
	<path d="M109.9,113.6c0-0.9,0-1.6-0.1-2.3h1.2l0,1.4h0.1c0.3-1,1.1-1.6,2-1.6c0.1,0,0.3,0,0.4,0v1.2c-0.1,0-0.3,0-0.4,0
		c-0.9,0-1.6,0.7-1.8,1.7c0,0.2-0.1,0.4-0.1,0.6v3.9h-1.3V113.6z"/>
	<path d="M120.9,108v8.8c0,0.6,0,1.4,0.1,1.9h-1.2l-0.1-1.3h0c-0.4,0.8-1.3,1.4-2.5,1.4c-1.8,0-3.1-1.5-3.1-3.7
		c0-2.4,1.5-3.9,3.3-3.9c1.1,0,1.9,0.5,2.2,1.1h0V108H120.9z M119.6,114.3c0-0.2,0-0.4-0.1-0.6c-0.2-0.8-0.9-1.5-1.9-1.5
		c-1.4,0-2.2,1.2-2.2,2.8c0,1.5,0.7,2.7,2.1,2.7c0.9,0,1.7-0.6,1.9-1.6c0-0.2,0.1-0.4,0.1-0.6V114.3z"/>
	<path d="M134.7,120.1c-1.4-0.4-2.7-0.8-3.9-1.2c-0.2-0.1-0.4-0.2-0.6-0.2c-2.4-0.1-4.5-1.9-4.5-5.1c0-3.2,2-5.3,4.7-5.3
		c2.7,0,4.5,2.1,4.5,5.1c0,2.6-1.2,4.3-2.9,4.8v0.1c1,0.3,2.1,0.5,3,0.6L134.7,120.1z M133.6,113.5c0-2-1.1-4.1-3.2-4.1
		c-2.2,0-3.3,2-3.3,4.2c0,2.1,1.2,4.1,3.2,4.1C132.4,117.7,133.6,115.9,133.6,113.5z"/>
	<path d="M142.7,116.7c0,0.8,0,1.4,0.1,2h-1.2l-0.1-1.2h0c-0.3,0.6-1.1,1.3-2.4,1.3c-1.1,0-2.5-0.6-2.5-3.2v-4.2h1.3v4
		c0,1.4,0.4,2.3,1.6,2.3c0.9,0,1.5-0.6,1.7-1.2c0.1-0.2,0.1-0.4,0.1-0.7v-4.5h1.3V116.7z"/>
	<path d="M149,118.6l-0.1-0.9h0c-0.4,0.6-1.2,1.1-2.2,1.1c-1.5,0-2.2-1-2.2-2.1c0-1.8,1.6-2.7,4.4-2.7v-0.1c0-0.6-0.2-1.7-1.6-1.7
		c-0.7,0-1.4,0.2-1.9,0.5l-0.3-0.9c0.6-0.4,1.5-0.6,2.4-0.6c2.2,0,2.8,1.5,2.8,3v2.7c0,0.6,0,1.2,0.1,1.7H149z M148.8,114.9
		c-1.4,0-3.1,0.2-3.1,1.6c0,0.9,0.6,1.3,1.2,1.3c0.9,0,1.5-0.6,1.8-1.2c0-0.1,0.1-0.3,0.1-0.4V114.9z"/>
	<path d="M152.2,113.3c0-0.8,0-1.4-0.1-2h1.2l0.1,1.2h0c0.4-0.7,1.2-1.4,2.4-1.4c1,0,2.6,0.6,2.6,3.1v4.3H157v-4.2
		c0-1.2-0.4-2.1-1.7-2.1c-0.9,0-1.5,0.6-1.8,1.4c-0.1,0.2-0.1,0.4-0.1,0.6v4.4h-1.3V113.3z"/>
	<path d="M162,109.3v2.1h1.9v1H162v3.9c0,0.9,0.3,1.4,1,1.4c0.3,0,0.6,0,0.8-0.1l0.1,1c-0.3,0.1-0.7,0.2-1.2,0.2
		c-0.6,0-1.1-0.2-1.4-0.6c-0.4-0.4-0.5-1-0.5-1.9v-4h-1.1v-1h1.1v-1.7L162,109.3z"/>
	<path d="M166.9,109.3c0,0.5-0.3,0.8-0.8,0.8c-0.5,0-0.8-0.4-0.8-0.8c0-0.5,0.3-0.8,0.8-0.8C166.5,108.5,166.9,108.9,166.9,109.3z
		 M165.4,118.6v-7.3h1.3v7.3H165.4z"/>
	<path d="M170.5,109.3v2.1h1.9v1h-1.9v3.9c0,0.9,0.3,1.4,1,1.4c0.3,0,0.6,0,0.8-0.1l0.1,1c-0.3,0.1-0.7,0.2-1.2,0.2
		c-0.6,0-1.1-0.2-1.4-0.6c-0.4-0.4-0.5-1-0.5-1.9v-4h-1.1v-1h1.1v-1.7L170.5,109.3z"/>
	<path d="M174.5,111.4l1.6,4.3c0.2,0.5,0.3,1,0.5,1.5h0c0.1-0.4,0.3-1,0.5-1.5l1.4-4.3h1.4l-2,5.2c-0.9,2.5-1.6,3.8-2.5,4.5
		c-0.6,0.6-1.3,0.8-1.6,0.9l-0.3-1.1c0.3-0.1,0.8-0.3,1.2-0.6c0.4-0.3,0.8-0.8,1.1-1.5c0.1-0.1,0.1-0.2,0.1-0.3c0-0.1,0-0.2-0.1-0.3
		l-2.7-6.7H174.5z"/>
</g>
</svg>
