<?xml version="1.0" encoding="utf-8"?>
<!-- Generator: Adobe Illustrator 23.0.1, SVG Export Plug-In . SVG Version: 6.00 Build 0)  -->
<svg version="1.1" id="Layer_1" xmlns="http://www.w3.org/2000/svg" xmlns:xlink="http://www.w3.org/1999/xlink" x="0px" y="0px"
	 viewBox="0 0 56 55.4" style="enable-background:new 0 0 56 55.4;" xml:space="preserve">
<style type="text/css">
	.st0{fill:none;stroke:#0066FF;stroke-width:0.75;stroke-linejoin:round;stroke-miterlimit:10;}
	.st1{fill:#FFFFFF;stroke:#00C1A3;stroke-width:0.75;stroke-miterlimit:10;}
	.st2{fill:#FFFFFF;stroke:#0066FF;stroke-width:0.75;stroke-miterlimit:10;}
	.st3{fill:none;stroke:#00C1A3;stroke-width:0.75;stroke-miterlimit:10;}
	
		.st4{fill-rule:evenodd;clip-rule:evenodd;fill:none;stroke:#FF25F3;stroke-width:0.75;stroke-linecap:round;stroke-linejoin:round;stroke-miterlimit:10;}
	.st5{fill:none;stroke:#0066FF;stroke-width:0.75;stroke-miterlimit:10;}
	.st6{fill-rule:evenodd;clip-rule:evenodd;fill:none;stroke:#0066FF;stroke-width:0.75;stroke-miterlimit:10;}
	.st7{fill-rule:evenodd;clip-rule:evenodd;fill:none;stroke:#00C1A3;stroke-width:0.75;stroke-miterlimit:10;}
	.st8{fill:none;stroke:#FF25F3;stroke-width:0.75;stroke-linecap:round;stroke-linejoin:round;stroke-miterlimit:10;}
	.st9{fill:#FFFFFF;stroke:#FF25F3;stroke-width:0.75;stroke-linecap:round;stroke-linejoin:round;stroke-miterlimit:10;}
	.st10{fill-rule:evenodd;clip-rule:evenodd;fill:#FFFFFF;stroke:#0066FF;stroke-width:0.75;stroke-miterlimit:10;}
	
		.st11{fill-rule:evenodd;clip-rule:evenodd;fill:#FFFFFF;stroke:#FF25F3;stroke-width:0.75;stroke-linecap:round;stroke-linejoin:round;stroke-miterlimit:10;}
	.st12{fill-rule:evenodd;clip-rule:evenodd;fill:#FFFFFF;stroke:#00C1A3;stroke-width:0.75;stroke-miterlimit:10;}
	.st13{fill:none;stroke:#0066FF;stroke-width:0.75;stroke-linecap:round;stroke-linejoin:round;stroke-miterlimit:10;}
	.st14{fill:#FFFFFF;stroke:#00C1A3;stroke-width:0.75;stroke-linecap:round;stroke-linejoin:round;stroke-miterlimit:10;}
	
		.st15{fill-rule:evenodd;clip-rule:evenodd;fill:#FFFFFF;stroke:#0066FF;stroke-width:0.75;stroke-linecap:round;stroke-linejoin:round;stroke-miterlimit:10;}
	
		.st16{fill-rule:evenodd;clip-rule:evenodd;fill:none;stroke:#0066FF;stroke-width:0.75;stroke-linecap:round;stroke-linejoin:round;stroke-miterlimit:10;}
	.st17{fill:#FFFFFF;stroke:#0066FF;stroke-width:0.75;stroke-linejoin:round;stroke-miterlimit:10;}
	.st18{fill:none;stroke:#FF25F3;stroke-width:0.75;stroke-linecap:round;stroke-miterlimit:10;}
	.st19{fill:none;stroke:#00C1A3;stroke-width:0.75;stroke-miterlimit:10;stroke-dasharray:1.9953,1.9953;}
	.st20{fill:none;stroke:#FF25F3;stroke-width:0.75;stroke-linecap:round;stroke-miterlimit:10;stroke-dasharray:1.9953,1.9953;}
	.st21{fill:#FFFFFF;stroke:#000000;stroke-miterlimit:10;}
	.st22{fill:#0066FF;}
	.st23{fill:#FF25F3;}
	.st24{fill:none;stroke:#FF25F3;stroke-width:0.75;stroke-linejoin:round;stroke-miterlimit:10;}
	.st25{fill:none;stroke:#FF25F3;stroke-width:0.75;stroke-miterlimit:10;}
	.st26{fill:none;stroke:#0066FF;stroke-width:0.75;stroke-linecap:round;stroke-miterlimit:10;}
	.st27{fill:none;stroke:#FFFFFF;stroke-width:0.75;stroke-miterlimit:10;}
	.st28{fill:none;stroke:#0000FF;stroke-width:2;stroke-miterlimit:10;}
	.st29{fill:none;stroke:#00C1A3;stroke-width:2;stroke-miterlimit:10;}
	.st30{fill:none;stroke:#FF25F3;stroke-width:2;stroke-linecap:round;stroke-linejoin:round;stroke-miterlimit:10;}
	.st31{fill:none;stroke:#FF25F3;stroke-width:0.75;stroke-linejoin:round;}
	.st32{fill:none;stroke:#FF25F3;stroke-width:0.75;stroke-linejoin:round;stroke-dasharray:1.916,1.916;}
	.st33{fill:none;stroke:#FF25F3;stroke-width:0.75;stroke-miterlimit:10;stroke-dasharray:1.916,1.916;}
	.st34{fill:none;}
	.st35{fill-rule:evenodd;clip-rule:evenodd;fill:none;stroke:#FF25F3;stroke-width:0.75;stroke-miterlimit:10;}
</style>
<g>
	<g>
		<g>
			<polygon class="st5" points="14.7,8.3 28,0.6 41.3,8.3 41.3,23.7 28,31.3 14.7,23.7 			"/>
		</g>
	</g>
	<g>
		<path class="st25" d="M19.1,22.7c-2-2.5-0.9-9.2,4-13.1c4.9-3.9,11.7-3.5,13.7-1c2,2.5,1.6,4.8-4.1,7.3c-2.2,1-5.3,3-6.8,4.9
			C23.2,24.4,20.3,24.2,19.1,22.7z"/>
		<path class="st25" d="M25.2,19.3c-0.6-0.7,0.4-2.7,2.3-4.2c1.9-1.5,4.1-1.5,4.7-0.8c0.6,0.7-1.5,1-3.4,2.5S25.8,20,25.2,19.3z"/>
	</g>
</g>
<g>
	<g>
		<g>
			<polygon class="st5" points="1.6,31.4 14.9,23.7 28.2,31.4 28.2,46.8 14.9,54.4 1.6,46.8 			"/>
		</g>
	</g>
	<g>
		<path class="st13" d="M5.9,45.8c-2-2.5-0.9-9.2,4-13.1c4.9-3.9,11.7-3.5,13.7-1c2,2.5,1.6,4.8-4.1,7.3c-2.2,1-5.3,3-6.8,4.9
			C10.1,47.5,7.1,47.3,5.9,45.8z"/>
		<path class="st13" d="M12.1,42.4c-0.6-0.7,0.4-2.7,2.3-4.2s4.1-1.5,4.7-0.8c0.6,0.7-1.5,1-3.4,2.5S12.7,43.1,12.1,42.4z"/>
	</g>
</g>
<g>
	<g>
		<g>
			<polygon class="st5" points="28,31.4 41.3,23.7 54.6,31.4 54.6,46.8 41.3,54.4 28,46.8 			"/>
		</g>
	</g>
	<g>
		<path class="st3" d="M32.4,45.8c-2-2.5-0.9-9.2,4-13.1c4.9-3.9,11.7-3.5,13.7-1c2,2.5,1.6,4.8-4.1,7.3c-2.2,1-5.3,3-6.8,4.9
			C36.5,47.5,33.6,47.3,32.4,45.8z"/>
		<path class="st3" d="M38.5,42.4c-0.6-0.7,0.4-2.7,2.3-4.2c1.9-1.5,4.1-1.5,4.7-0.8c0.6,0.7-1.5,1-3.4,2.5
			C40.3,41.5,39.1,43.1,38.5,42.4z"/>
	</g>
</g>
</svg>
