<?xml version="1.0" encoding="utf-8"?>
<!-- Generator: Adobe Illustrator 23.0.1, SVG Export Plug-In . SVG Version: 6.00 Build 0)  -->
<svg version="1.1" id="Layer_1" xmlns="http://www.w3.org/2000/svg" xmlns:xlink="http://www.w3.org/1999/xlink" x="0px" y="0px"
	 viewBox="0 0 65.9 65.7" style="enable-background:new 0 0 65.9 65.7;" xml:space="preserve">
<style type="text/css">
	.st0{fill:none;stroke:#0066FF;stroke-width:0.75;stroke-linejoin:round;stroke-miterlimit:10;}
	.st1{fill:#FFFFFF;stroke:#00C1A3;stroke-width:0.75;stroke-miterlimit:10;}
	.st2{fill:#FFFFFF;stroke:#0066FF;stroke-width:0.75;stroke-miterlimit:10;}
	.st3{fill:none;stroke:#00C1A3;stroke-width:0.75;stroke-miterlimit:10;}
	
		.st4{fill-rule:evenodd;clip-rule:evenodd;fill:none;stroke:#FF25F3;stroke-width:0.75;stroke-linecap:round;stroke-linejoin:round;stroke-miterlimit:10;}
	.st5{fill:none;stroke:#0066FF;stroke-width:0.75;stroke-miterlimit:10;}
	.st6{fill-rule:evenodd;clip-rule:evenodd;fill:none;stroke:#0066FF;stroke-width:0.75;stroke-miterlimit:10;}
	.st7{fill-rule:evenodd;clip-rule:evenodd;fill:none;stroke:#00C1A3;stroke-width:0.75;stroke-miterlimit:10;}
	.st8{fill:none;stroke:#FF25F3;stroke-width:0.75;stroke-linecap:round;stroke-linejoin:round;stroke-miterlimit:10;}
	.st9{fill:#FFFFFF;stroke:#FF25F3;stroke-width:0.75;stroke-linecap:round;stroke-linejoin:round;stroke-miterlimit:10;}
	.st10{fill-rule:evenodd;clip-rule:evenodd;fill:#FFFFFF;stroke:#0066FF;stroke-width:0.75;stroke-miterlimit:10;}
	
		.st11{fill-rule:evenodd;clip-rule:evenodd;fill:#FFFFFF;stroke:#FF25F3;stroke-width:0.75;stroke-linecap:round;stroke-linejoin:round;stroke-miterlimit:10;}
	.st12{fill-rule:evenodd;clip-rule:evenodd;fill:#FFFFFF;stroke:#00C1A3;stroke-width:0.75;stroke-miterlimit:10;}
	.st13{fill:none;stroke:#0066FF;stroke-width:0.75;stroke-linecap:round;stroke-linejoin:round;stroke-miterlimit:10;}
	.st14{fill:#FFFFFF;stroke:#00C1A3;stroke-width:0.75;stroke-linecap:round;stroke-linejoin:round;stroke-miterlimit:10;}
	
		.st15{fill-rule:evenodd;clip-rule:evenodd;fill:#FFFFFF;stroke:#0066FF;stroke-width:0.75;stroke-linecap:round;stroke-linejoin:round;stroke-miterlimit:10;}
	
		.st16{fill-rule:evenodd;clip-rule:evenodd;fill:none;stroke:#0066FF;stroke-width:0.75;stroke-linecap:round;stroke-linejoin:round;stroke-miterlimit:10;}
	.st17{fill:#FFFFFF;stroke:#0066FF;stroke-width:0.75;stroke-linejoin:round;stroke-miterlimit:10;}
	.st18{fill:none;stroke:#FF25F3;stroke-width:0.75;stroke-linecap:round;stroke-miterlimit:10;}
	.st19{fill:none;stroke:#00C1A3;stroke-width:0.75;stroke-miterlimit:10;stroke-dasharray:1.9953,1.9953;}
	.st20{fill:none;stroke:#FF25F3;stroke-width:0.75;stroke-linecap:round;stroke-miterlimit:10;stroke-dasharray:1.9953,1.9953;}
</style>
<g>
	<g>
		<path class="st18" d="M50.2,38.6c-3.2-1.5-7.1-0.9-9.7,1.7c-2.6,2.6-3.2,6.5-1.7,9.7L50.2,38.6z"/>
		<g>
			
				<rect x="4" y="50.8" transform="matrix(0.7071 -0.7071 0.7071 0.7071 -37.9165 22.8691)" class="st13" width="9.2" height="12.8"/>
			
				<rect x="10.6" y="44.3" transform="matrix(0.7071 -0.7071 0.7071 0.7071 -31.383 25.5728)" class="st13" width="9.2" height="12.8"/>
			
				<rect x="17.1" y="37.7" transform="matrix(0.7071 -0.7071 0.7071 0.7071 -24.8521 28.2832)" class="st13" width="9.2" height="12.8"/>
		</g>
		<polygon class="st13" points="43.1,30.7 40.5,40.3 30.8,42.9 23.7,35.9 26.3,26.2 36,23.6 		"/>
		<line class="st13" x1="44.5" y1="44.4" x2="47.4" y2="47.3"/>
		<g>
			
				<rect x="39.5" y="15.4" transform="matrix(0.7071 -0.7071 0.7071 0.7071 -2.4936 37.5415)" class="st13" width="9.2" height="12.8"/>
			<rect x="46" y="8.8" transform="matrix(0.7071 -0.7071 0.7071 0.7071 4.0377 40.2454)" class="st13" width="9.2" height="12.8"/>
			
				<rect x="52.5" y="2.3" transform="matrix(0.7071 -0.7071 0.7071 0.7071 10.5733 42.9561)" class="st13" width="9.2" height="12.8"/>
		</g>
		<line class="st13" x1="25.6" y1="41.1" x2="27.3" y2="39.4"/>
		<line class="st13" x1="39.6" y1="27.1" x2="41.2" y2="25.5"/>
	</g>
	<g>
		<path class="st13" d="M52.7,43.8c0,5.1-4.2,9.3-9.3,9.3"/>
		<path class="st3" d="M56.6,43.8c0,7.2-5.9,13.1-13.1,13.1"/>
		<path class="st13" d="M60.1,43.8c0,9.2-7.5,16.7-16.7,16.7"/>
	</g>
</g>
</svg>
