<?xml version="1.0" encoding="utf-8"?>
<!-- Generator: Adobe Illustrator 23.0.1, SVG Export Plug-In . SVG Version: 6.00 Build 0)  -->
<svg version="1.1" id="Layer_1" xmlns="http://www.w3.org/2000/svg" xmlns:xlink="http://www.w3.org/1999/xlink" x="0px" y="0px"
	 viewBox="0 0 436.3 20.5" style="enable-background:new 0 0 436.3 20.5;" xml:space="preserve">
<style type="text/css">
	.st0{fill:#C5FF16;}
	.st1{fill:#4AE800;}
	.st2{fill:#00A82C;}
	.st3{fill:#038324;}
	.st4{fill:#036801;}
	.st5{enable-background:new    ;}
	.st6{fill:#FFFFFF;}
</style>
<title>NDVI LEGENDAsset 9</title>
<rect class="st0" width="31.5" height="20.4"/>
<rect x="90.4" class="st1" width="31.5" height="20.4"/>
<rect x="180.8" class="st2" width="31.5" height="20.4"/>
<rect x="271.1" class="st3" width="31.5" height="20.4"/>
<rect x="361.5" class="st4" width="36.3" height="20.4"/>
<g class="st5">
	<path d="M39.6,15V5h3.8c0.7,0,1.2,0,1.5,0.1c0.5,0.1,0.9,0.2,1.2,0.5c0.3,0.2,0.6,0.6,0.8,1c0.2,0.4,0.3,0.9,0.3,1.4
		c0,0.9-0.3,1.6-0.8,2.2c-0.5,0.6-1.5,0.9-2.9,0.9h-2.6V15H39.6z M40.9,9.8h2.6c0.9,0,1.5-0.2,1.8-0.5c0.4-0.3,0.5-0.8,0.5-1.3
		c0-0.4-0.1-0.8-0.3-1.1c-0.2-0.3-0.5-0.5-0.8-0.6c-0.2-0.1-0.6-0.1-1.2-0.1h-2.6V9.8z"/>
	<path d="M48.3,11.4c0-1.3,0.4-2.3,1.1-3c0.6-0.5,1.4-0.8,2.3-0.8c1,0,1.8,0.3,2.4,1c0.6,0.7,1,1.6,1,2.7c0,0.9-0.1,1.7-0.4,2.2
		c-0.3,0.5-0.7,1-1.2,1.2c-0.5,0.3-1.1,0.4-1.8,0.4c-1,0-1.8-0.3-2.5-1C48.6,13.5,48.3,12.6,48.3,11.4z M49.5,11.4
		c0,0.9,0.2,1.6,0.6,2.1c0.4,0.5,0.9,0.7,1.5,0.7c0.6,0,1.1-0.2,1.5-0.7c0.4-0.5,0.6-1.2,0.6-2.1c0-0.9-0.2-1.6-0.6-2
		c-0.4-0.5-0.9-0.7-1.5-0.7c-0.6,0-1.1,0.2-1.5,0.7C49.7,9.8,49.5,10.5,49.5,11.4z"/>
	<path d="M56.1,11.4c0-1.3,0.4-2.3,1.1-3c0.6-0.5,1.4-0.8,2.3-0.8c1,0,1.8,0.3,2.4,1c0.6,0.7,1,1.6,1,2.7c0,0.9-0.1,1.7-0.4,2.2
		c-0.3,0.5-0.7,1-1.2,1.2c-0.5,0.3-1.1,0.4-1.8,0.4c-1,0-1.8-0.3-2.5-1C56.4,13.5,56.1,12.6,56.1,11.4z M57.3,11.4
		c0,0.9,0.2,1.6,0.6,2.1c0.4,0.5,0.9,0.7,1.5,0.7c0.6,0,1.1-0.2,1.5-0.7c0.4-0.5,0.6-1.2,0.6-2.1c0-0.9-0.2-1.6-0.6-2
		c-0.4-0.5-0.9-0.7-1.5-0.7c-0.6,0-1.1,0.2-1.5,0.7C57.5,9.8,57.3,10.5,57.3,11.4z"/>
	<path d="M64.3,15V7.8h1.1v1.1c0.3-0.5,0.5-0.9,0.8-1s0.5-0.2,0.8-0.2c0.4,0,0.8,0.1,1.3,0.4l-0.4,1.1c-0.3-0.2-0.6-0.3-0.9-0.3
		c-0.3,0-0.5,0.1-0.7,0.2c-0.2,0.2-0.4,0.4-0.5,0.7c-0.1,0.4-0.2,0.9-0.2,1.4V15H64.3z"/>
</g>
<g class="st5">
	<path d="M129.9,15V5h1.4l5.3,7.9V5h1.3v10h-1.4l-5.3-7.9V15H129.9z"/>
	<path d="M139.4,11.4c0-1.3,0.4-2.3,1.1-3c0.6-0.5,1.4-0.8,2.3-0.8c1,0,1.8,0.3,2.4,1c0.6,0.7,1,1.6,1,2.7c0,0.9-0.1,1.7-0.4,2.2
		c-0.3,0.5-0.7,1-1.2,1.2s-1.1,0.4-1.8,0.4c-1,0-1.8-0.3-2.5-1S139.4,12.6,139.4,11.4z M140.7,11.4c0,0.9,0.2,1.6,0.6,2.1
		c0.4,0.5,0.9,0.7,1.5,0.7c0.6,0,1.1-0.2,1.5-0.7s0.6-1.2,0.6-2.1c0-0.9-0.2-1.6-0.6-2c-0.4-0.5-0.9-0.7-1.5-0.7
		c-0.6,0-1.1,0.2-1.5,0.7S140.7,10.5,140.7,11.4z"/>
	<path d="M147.7,15V7.8h1.1v1.1c0.3-0.5,0.5-0.9,0.8-1s0.5-0.2,0.8-0.2c0.4,0,0.8,0.1,1.3,0.4l-0.4,1.1c-0.3-0.2-0.6-0.3-0.9-0.3
		c-0.3,0-0.5,0.1-0.7,0.2c-0.2,0.2-0.4,0.4-0.5,0.7c-0.1,0.4-0.2,0.9-0.2,1.4V15H147.7z"/>
	<path d="M152.4,15V7.8h1.1v1c0.2-0.4,0.5-0.6,0.9-0.9c0.4-0.2,0.8-0.3,1.3-0.3c0.5,0,1,0.1,1.3,0.3s0.6,0.5,0.7,0.9
		c0.6-0.8,1.3-1.3,2.2-1.3c0.7,0,1.3,0.2,1.7,0.6c0.4,0.4,0.6,1,0.6,1.8v5H161v-4.6c0-0.5,0-0.8-0.1-1.1c-0.1-0.2-0.2-0.4-0.4-0.5
		s-0.5-0.2-0.7-0.2c-0.5,0-0.9,0.2-1.3,0.5c-0.3,0.3-0.5,0.9-0.5,1.6V15h-1.2v-4.7c0-0.5-0.1-1-0.3-1.2s-0.5-0.4-1-0.4
		c-0.3,0-0.7,0.1-1,0.3s-0.5,0.4-0.6,0.8s-0.2,0.9-0.2,1.5V15H152.4z"/>
	<path d="M168.7,14.1c-0.5,0.4-0.9,0.7-1.3,0.8s-0.9,0.2-1.4,0.2c-0.8,0-1.4-0.2-1.8-0.6c-0.4-0.4-0.6-0.9-0.6-1.5
		c0-0.4,0.1-0.7,0.2-1c0.2-0.3,0.4-0.5,0.6-0.7s0.6-0.3,0.9-0.4c0.2-0.1,0.6-0.1,1.1-0.2c1-0.1,1.7-0.3,2.2-0.4c0-0.2,0-0.3,0-0.3
		c0-0.5-0.1-0.9-0.3-1.1c-0.3-0.3-0.8-0.4-1.4-0.4c-0.6,0-1,0.1-1.3,0.3c-0.3,0.2-0.5,0.6-0.6,1.1l-1.2-0.2c0.1-0.5,0.3-0.9,0.5-1.2
		c0.3-0.3,0.6-0.6,1.1-0.7c0.5-0.2,1-0.3,1.6-0.3c0.6,0,1.1,0.1,1.5,0.2s0.7,0.3,0.9,0.6c0.2,0.2,0.3,0.5,0.4,0.8
		c0,0.2,0.1,0.6,0.1,1.1V12c0,1.1,0,1.9,0.1,2.2c0.1,0.3,0.2,0.6,0.3,0.9H169C168.9,14.8,168.8,14.5,168.7,14.1z M168.6,11.4
		c-0.4,0.2-1.1,0.3-2,0.5c-0.5,0.1-0.9,0.2-1.1,0.2s-0.4,0.2-0.5,0.4c-0.1,0.2-0.2,0.4-0.2,0.6c0,0.3,0.1,0.6,0.4,0.8
		s0.6,0.3,1.1,0.3c0.5,0,0.9-0.1,1.3-0.3c0.4-0.2,0.6-0.5,0.8-0.9c0.1-0.3,0.2-0.7,0.2-1.2V11.4z"/>
	<path d="M171.8,15V5h1.2v10H171.8z"/>
</g>
<g class="st5">
	<path d="M224.6,11.1V9.9l4.2,0v3.7c-0.7,0.5-1.3,0.9-2,1.2c-0.7,0.3-1.4,0.4-2.1,0.4c-1,0-1.9-0.2-2.7-0.6c-0.8-0.4-1.4-1-1.8-1.8
		s-0.6-1.7-0.6-2.7c0-1,0.2-1.9,0.6-2.7c0.4-0.8,1-1.5,1.8-1.9s1.6-0.6,2.6-0.6c0.7,0,1.4,0.1,2,0.4c0.6,0.2,1,0.6,1.4,1
		c0.3,0.4,0.6,1,0.8,1.6l-1.2,0.3c-0.2-0.5-0.3-0.9-0.6-1.2c-0.2-0.3-0.5-0.5-1-0.7C225.6,6,225.1,6,224.6,6c-0.6,0-1.1,0.1-1.6,0.3
		c-0.4,0.2-0.8,0.4-1.1,0.7c-0.3,0.3-0.5,0.6-0.6,1c-0.3,0.6-0.4,1.3-0.4,2c0,0.9,0.2,1.6,0.5,2.2s0.8,1,1.3,1.3s1.2,0.4,1.9,0.4
		c0.6,0,1.1-0.1,1.7-0.3c0.5-0.2,1-0.5,1.2-0.7v-1.9H224.6z"/>
	<path d="M230.2,11.4c0-1.3,0.4-2.3,1.1-3c0.6-0.5,1.4-0.8,2.3-0.8c1,0,1.8,0.3,2.4,1c0.6,0.7,1,1.6,1,2.7c0,0.9-0.1,1.7-0.4,2.2
		c-0.3,0.5-0.7,1-1.2,1.2c-0.5,0.3-1.1,0.4-1.8,0.4c-1,0-1.8-0.3-2.5-1C230.5,13.5,230.2,12.6,230.2,11.4z M231.5,11.4
		c0,0.9,0.2,1.6,0.6,2.1c0.4,0.5,0.9,0.7,1.5,0.7c0.6,0,1.1-0.2,1.5-0.7c0.4-0.5,0.6-1.2,0.6-2.1c0-0.9-0.2-1.6-0.6-2
		c-0.4-0.5-0.9-0.7-1.5-0.7c-0.6,0-1.1,0.2-1.5,0.7C231.7,9.8,231.5,10.5,231.5,11.4z"/>
	<path d="M238,11.4c0-1.3,0.4-2.3,1.1-3c0.6-0.5,1.4-0.8,2.3-0.8c1,0,1.8,0.3,2.4,1c0.6,0.7,1,1.6,1,2.7c0,0.9-0.1,1.7-0.4,2.2
		c-0.3,0.5-0.7,1-1.2,1.2c-0.5,0.3-1.1,0.4-1.8,0.4c-1,0-1.8-0.3-2.5-1C238.3,13.5,238,12.6,238,11.4z M239.3,11.4
		c0,0.9,0.2,1.6,0.6,2.1c0.4,0.5,0.9,0.7,1.5,0.7c0.6,0,1.1-0.2,1.5-0.7c0.4-0.5,0.6-1.2,0.6-2.1c0-0.9-0.2-1.6-0.6-2
		c-0.4-0.5-0.9-0.7-1.5-0.7c-0.6,0-1.1,0.2-1.5,0.7C239.5,9.8,239.3,10.5,239.3,11.4z"/>
	<path d="M251,15v-0.9c-0.5,0.7-1.1,1.1-2,1.1c-0.6,0-1.1-0.2-1.6-0.5s-0.9-0.8-1.1-1.3c-0.3-0.6-0.4-1.2-0.4-2c0-0.7,0.1-1.4,0.4-2
		c0.2-0.6,0.6-1,1.1-1.4c0.5-0.3,1-0.5,1.6-0.5c0.4,0,0.8,0.1,1.2,0.3c0.3,0.2,0.6,0.4,0.8,0.7V5h1.2v10H251z M247.1,11.4
		c0,0.9,0.2,1.6,0.6,2.1c0.4,0.5,0.9,0.7,1.4,0.7c0.5,0,1-0.2,1.4-0.7c0.4-0.4,0.6-1.1,0.6-2c0-1-0.2-1.7-0.6-2.2s-0.9-0.7-1.4-0.7
		c-0.5,0-1,0.2-1.4,0.7C247.3,9.7,247.1,10.4,247.1,11.4z"/>
</g>
<g class="st5">
	<path d="M312.1,15V5h3.8c0.8,0,1.4,0.1,1.8,0.3c0.5,0.2,0.8,0.5,1.1,0.9c0.3,0.4,0.4,0.9,0.4,1.3c0,0.4-0.1,0.8-0.3,1.2
		s-0.6,0.7-1.1,0.9c0.6,0.2,1.1,0.5,1.4,0.9c0.3,0.4,0.5,0.9,0.5,1.5c0,0.5-0.1,0.9-0.3,1.3c-0.2,0.4-0.4,0.7-0.7,0.9
		s-0.7,0.4-1.1,0.5c-0.4,0.1-1,0.2-1.6,0.2H312.1z M313.4,9.2h2.2c0.6,0,1,0,1.3-0.1c0.3-0.1,0.6-0.3,0.8-0.5
		c0.2-0.2,0.3-0.5,0.3-0.9c0-0.3-0.1-0.6-0.2-0.9c-0.2-0.3-0.4-0.4-0.7-0.5c-0.3-0.1-0.8-0.1-1.5-0.1h-2V9.2z M313.4,13.8h2.5
		c0.4,0,0.7,0,0.9,0c0.3-0.1,0.6-0.1,0.8-0.3s0.4-0.3,0.5-0.6c0.1-0.2,0.2-0.5,0.2-0.8c0-0.4-0.1-0.7-0.3-1
		c-0.2-0.3-0.5-0.5-0.8-0.6c-0.3-0.1-0.8-0.2-1.5-0.2h-2.3V13.8z"/>
	<path d="M326.3,12.7l1.3,0.2c-0.2,0.7-0.6,1.3-1.1,1.7s-1.2,0.6-2.1,0.6c-1.1,0-1.9-0.3-2.5-1c-0.6-0.7-0.9-1.6-0.9-2.8
		c0-1.2,0.3-2.2,0.9-2.8s1.4-1,2.4-1c1,0,1.8,0.3,2.4,1s0.9,1.6,0.9,2.8c0,0.1,0,0.2,0,0.3h-5.4c0,0.8,0.3,1.4,0.7,1.8
		s0.9,0.6,1.5,0.6c0.5,0,0.8-0.1,1.2-0.4S326.1,13.2,326.3,12.7z M322.2,10.7h4.1c-0.1-0.6-0.2-1.1-0.5-1.4
		c-0.4-0.5-0.9-0.7-1.5-0.7c-0.6,0-1,0.2-1.4,0.6C322.5,9.5,322.3,10.1,322.2,10.7z"/>
	<path d="M331.8,13.9L332,15c-0.3,0.1-0.7,0.1-0.9,0.1c-0.4,0-0.8-0.1-1-0.2s-0.4-0.3-0.5-0.6c-0.1-0.2-0.2-0.7-0.2-1.5V8.7h-0.9v-1
		h0.9V6l1.2-0.7v2.5h1.2v1h-1.2V13c0,0.4,0,0.6,0.1,0.7c0,0.1,0.1,0.2,0.2,0.2c0.1,0.1,0.2,0.1,0.4,0.1
		C331.4,14,331.6,13.9,331.8,13.9z"/>
	<path d="M335.7,13.9l0.2,1.1c-0.3,0.1-0.7,0.1-0.9,0.1c-0.4,0-0.8-0.1-1-0.2s-0.4-0.3-0.5-0.6c-0.1-0.2-0.2-0.7-0.2-1.5V8.7h-0.9
		v-1h0.9V6l1.2-0.7v2.5h1.2v1h-1.2V13c0,0.4,0,0.6,0.1,0.7c0,0.1,0.1,0.2,0.2,0.2c0.1,0.1,0.2,0.1,0.4,0.1
		C335.3,14,335.4,13.9,335.7,13.9z"/>
	<path d="M341.8,12.7l1.3,0.2c-0.2,0.7-0.6,1.3-1.1,1.7s-1.2,0.6-2.1,0.6c-1.1,0-1.9-0.3-2.5-1c-0.6-0.7-0.9-1.6-0.9-2.8
		c0-1.2,0.3-2.2,0.9-2.8s1.4-1,2.4-1c1,0,1.8,0.3,2.4,1s0.9,1.6,0.9,2.8c0,0.1,0,0.2,0,0.3h-5.4c0,0.8,0.3,1.4,0.7,1.8
		s0.9,0.6,1.5,0.6c0.5,0,0.8-0.1,1.2-0.4S341.7,13.2,341.8,12.7z M337.8,10.7h4.1c-0.1-0.6-0.2-1.1-0.5-1.4
		c-0.4-0.5-0.9-0.7-1.5-0.7c-0.6,0-1,0.2-1.4,0.6C338.1,9.5,337.8,10.1,337.8,10.7z"/>
	<path d="M344.6,15V7.8h1.1v1.1c0.3-0.5,0.5-0.9,0.8-1c0.2-0.2,0.5-0.2,0.8-0.2c0.4,0,0.8,0.1,1.3,0.4l-0.4,1.1
		c-0.3-0.2-0.6-0.3-0.9-0.3c-0.3,0-0.5,0.1-0.7,0.2c-0.2,0.2-0.4,0.4-0.5,0.7c-0.1,0.4-0.2,0.9-0.2,1.4V15H344.6z"/>
</g>
<g class="st5">
	<path d="M405.7,15V5h3.8c0.8,0,1.4,0.1,1.8,0.3c0.5,0.2,0.8,0.5,1.1,0.9c0.3,0.4,0.4,0.9,0.4,1.3c0,0.4-0.1,0.8-0.3,1.2
		s-0.6,0.7-1.1,0.9c0.6,0.2,1.1,0.5,1.4,0.9c0.3,0.4,0.5,0.9,0.5,1.5c0,0.5-0.1,0.9-0.3,1.3c-0.2,0.4-0.4,0.7-0.7,0.9
		s-0.7,0.4-1.1,0.5c-0.4,0.1-1,0.2-1.6,0.2H405.7z M407,9.2h2.2c0.6,0,1,0,1.3-0.1c0.3-0.1,0.6-0.3,0.8-0.5c0.2-0.2,0.3-0.5,0.3-0.9
		c0-0.3-0.1-0.6-0.2-0.9c-0.2-0.3-0.4-0.4-0.7-0.5c-0.3-0.1-0.8-0.1-1.5-0.1h-2V9.2z M407,13.8h2.5c0.4,0,0.7,0,0.9,0
		c0.3-0.1,0.6-0.1,0.8-0.3s0.4-0.3,0.5-0.6c0.1-0.2,0.2-0.5,0.2-0.8c0-0.4-0.1-0.7-0.3-1c-0.2-0.3-0.5-0.5-0.8-0.6
		c-0.3-0.1-0.8-0.2-1.5-0.2H407V13.8z"/>
	<path d="M419.9,12.7l1.3,0.2c-0.2,0.7-0.6,1.3-1.1,1.7s-1.2,0.6-2.1,0.6c-1.1,0-1.9-0.3-2.5-1c-0.6-0.7-0.9-1.6-0.9-2.8
		c0-1.2,0.3-2.2,0.9-2.8s1.4-1,2.4-1c1,0,1.8,0.3,2.4,1s0.9,1.6,0.9,2.8c0,0.1,0,0.2,0,0.3h-5.4c0,0.8,0.3,1.4,0.7,1.8
		s0.9,0.6,1.5,0.6c0.5,0,0.8-0.1,1.2-0.4S419.7,13.2,419.9,12.7z M415.8,10.7h4.1c-0.1-0.6-0.2-1.1-0.5-1.4
		c-0.4-0.5-0.9-0.7-1.5-0.7c-0.6,0-1,0.2-1.4,0.6C416.1,9.5,415.9,10.1,415.8,10.7z"/>
	<path d="M422.2,12.8l1.2-0.2c0.1,0.5,0.3,0.9,0.6,1.1c0.3,0.3,0.7,0.4,1.3,0.4c0.6,0,1-0.1,1.3-0.3c0.3-0.2,0.4-0.5,0.4-0.8
		c0-0.3-0.1-0.5-0.4-0.7c-0.2-0.1-0.6-0.2-1.3-0.4c-0.9-0.2-1.5-0.4-1.9-0.6c-0.3-0.2-0.6-0.4-0.8-0.7c-0.2-0.3-0.3-0.6-0.3-1
		c0-0.3,0.1-0.6,0.2-0.9c0.1-0.3,0.3-0.5,0.6-0.7c0.2-0.1,0.5-0.3,0.8-0.4c0.3-0.1,0.7-0.1,1.1-0.1c0.6,0,1.1,0.1,1.5,0.2
		c0.4,0.2,0.7,0.4,1,0.7c0.2,0.3,0.3,0.7,0.4,1.1l-1.2,0.2c-0.1-0.4-0.2-0.7-0.5-0.9c-0.3-0.2-0.6-0.3-1.1-0.3c-0.6,0-1,0.1-1.2,0.3
		s-0.4,0.4-0.4,0.7c0,0.2,0.1,0.3,0.2,0.4c0.1,0.1,0.3,0.2,0.5,0.3c0.1,0,0.5,0.2,1.1,0.3c0.9,0.2,1.5,0.4,1.8,0.6
		c0.3,0.1,0.6,0.4,0.8,0.6s0.3,0.6,0.3,1.1c0,0.4-0.1,0.8-0.4,1.2c-0.2,0.4-0.6,0.6-1,0.8c-0.5,0.2-1,0.3-1.5,0.3
		c-0.9,0-1.7-0.2-2.2-0.6C422.6,14.2,422.3,13.6,422.2,12.8z"/>
	<path d="M432.4,13.9l0.2,1.1c-0.3,0.1-0.7,0.1-0.9,0.1c-0.4,0-0.8-0.1-1-0.2s-0.4-0.3-0.5-0.6c-0.1-0.2-0.2-0.7-0.2-1.5V8.7H429v-1
		h0.9V6l1.2-0.7v2.5h1.2v1h-1.2V13c0,0.4,0,0.6,0.1,0.7c0,0.1,0.1,0.2,0.2,0.2c0.1,0.1,0.2,0.1,0.4,0.1
		C432,14,432.1,13.9,432.4,13.9z"/>
</g>
<g class="st5">
	<path d="M4.6,9.6C4.1,9.4,3.7,9.1,3.4,8.8S3.1,8,3.1,7.5c0-0.7,0.3-1.3,0.8-1.8S5.1,5,5.9,5C6.8,5,7.5,5.2,8,5.7
		c0.5,0.5,0.8,1.1,0.8,1.9c0,0.5-0.1,0.9-0.4,1.2C8.2,9.1,7.9,9.4,7.4,9.6c0.6,0.2,1.1,0.5,1.4,1s0.5,1,0.5,1.6
		c0,0.9-0.3,1.6-0.9,2.2S6.9,15.2,6,15.2s-1.8-0.3-2.4-0.9C3,13.7,2.7,13,2.7,12.1c0-0.7,0.2-1.2,0.5-1.6C3.5,10,4,9.7,4.6,9.6z
		 M3.9,12.1c0,0.4,0.1,0.7,0.2,1s0.4,0.6,0.7,0.8c0.3,0.2,0.7,0.3,1.1,0.3c0.6,0,1.1-0.2,1.5-0.6S8,12.7,8,12.2
		c0-0.6-0.2-1.1-0.6-1.5s-0.9-0.6-1.5-0.6c-0.6,0-1.1,0.2-1.4,0.6S3.9,11.5,3.9,12.1z M4.3,7.5c0,0.5,0.2,0.9,0.5,1.2S5.5,9.1,6,9.1
		c0.5,0,0.9-0.1,1.2-0.4C7.4,8.4,7.6,8,7.6,7.6c0-0.5-0.2-0.8-0.5-1.1C6.8,6.1,6.4,6,5.9,6C5.5,6,5.1,6.1,4.8,6.4S4.3,7.1,4.3,7.5z"
		/>
	<path d="M10.5,10.1c0-1.2,0.1-2.1,0.4-2.9c0.2-0.7,0.6-1.3,1.1-1.7S13,5,13.7,5c0.5,0,1,0.1,1.4,0.3c0.4,0.2,0.7,0.5,1,0.9
		c0.3,0.4,0.5,0.9,0.6,1.5c0.2,0.6,0.2,1.4,0.2,2.4c0,1.2-0.1,2.1-0.4,2.8c-0.2,0.7-0.6,1.3-1.1,1.7c-0.5,0.4-1.1,0.6-1.8,0.6
		c-1,0-1.7-0.3-2.3-1C10.8,13.3,10.5,12,10.5,10.1z M11.7,10.1c0,1.6,0.2,2.7,0.6,3.3c0.4,0.5,0.9,0.8,1.4,0.8s1-0.3,1.4-0.8
		s0.6-1.6,0.6-3.3c0-1.6-0.2-2.7-0.6-3.3S14.3,6,13.7,6c-0.6,0-1,0.2-1.4,0.7C11.9,7.3,11.7,8.4,11.7,10.1z"/>
	<path d="M18.5,7.4c0-0.7,0.2-1.3,0.5-1.8s0.9-0.8,1.6-0.8c0.6,0,1.1,0.2,1.6,0.7c0.4,0.4,0.6,1.1,0.6,2c0,0.8-0.2,1.5-0.6,2
		c-0.4,0.5-0.9,0.7-1.5,0.7c-0.6,0-1.1-0.2-1.5-0.7S18.5,8.3,18.5,7.4z M20.6,5.7c-0.3,0-0.6,0.1-0.8,0.4s-0.3,0.8-0.3,1.5
		c0,0.6,0.1,1.1,0.3,1.4c0.2,0.3,0.5,0.4,0.8,0.4c0.3,0,0.6-0.1,0.8-0.4s0.3-0.7,0.3-1.4c0-0.6-0.1-1.1-0.3-1.4
		C21.2,5.8,20.9,5.7,20.6,5.7z M20.6,15.4l5.5-10.6h1l-5.5,10.6H20.6z M25,12.7c0-0.7,0.2-1.3,0.5-1.8c0.4-0.5,0.9-0.7,1.6-0.7
		c0.6,0,1.1,0.2,1.6,0.7c0.4,0.4,0.6,1.1,0.6,2c0,0.8-0.2,1.5-0.6,2c-0.4,0.5-0.9,0.7-1.5,0.7c-0.6,0-1.1-0.2-1.5-0.7
		C25.2,14.2,25,13.6,25,12.7z M27.1,10.9c-0.3,0-0.6,0.1-0.8,0.4S26,12.1,26,12.8c0,0.6,0.1,1.1,0.3,1.4s0.5,0.4,0.8,0.4
		c0.3,0,0.6-0.1,0.8-0.4s0.3-0.7,0.3-1.4c0-0.6-0.1-1.1-0.3-1.4C27.7,11.1,27.4,10.9,27.1,10.9z"/>
</g>
<g class="st5">
	<path d="M94.6,9.6c-0.5-0.2-0.9-0.5-1.1-0.8S93.1,8,93.1,7.5c0-0.7,0.3-1.3,0.8-1.8S95.1,5,95.9,5c0.9,0,1.6,0.3,2.1,0.8
		c0.5,0.5,0.8,1.1,0.8,1.9c0,0.5-0.1,0.9-0.4,1.2c-0.2,0.3-0.6,0.6-1.1,0.8c0.6,0.2,1.1,0.5,1.4,1s0.5,1,0.5,1.6
		c0,0.9-0.3,1.6-0.9,2.2s-1.4,0.9-2.4,0.9s-1.8-0.3-2.4-0.9c-0.6-0.6-0.9-1.3-0.9-2.2c0-0.7,0.2-1.2,0.5-1.6
		C93.5,10,94,9.7,94.6,9.6z M93.9,12.1c0,0.4,0.1,0.7,0.2,1s0.4,0.6,0.7,0.8c0.3,0.2,0.7,0.3,1.1,0.3c0.6,0,1.1-0.2,1.5-0.6
		s0.6-0.9,0.6-1.4c0-0.6-0.2-1.1-0.6-1.5s-0.9-0.6-1.5-0.6c-0.6,0-1.1,0.2-1.4,0.6S93.9,11.5,93.9,12.1z M94.3,7.5
		c0,0.5,0.2,0.9,0.5,1.2s0.7,0.5,1.2,0.5c0.5,0,0.9-0.1,1.2-0.4c0.3-0.3,0.5-0.7,0.5-1.1c0-0.5-0.2-0.8-0.5-1.1
		C96.8,6.1,96.4,6,95.9,6c-0.5,0-0.9,0.2-1.2,0.5S94.3,7.1,94.3,7.5z"/>
	<path d="M100.5,12.4l1.3-0.1c0.1,0.6,0.3,1.1,0.7,1.4c0.3,0.3,0.8,0.5,1.3,0.5c0.6,0,1.1-0.2,1.5-0.7s0.6-1,0.6-1.8
		c0-0.7-0.2-1.3-0.6-1.7s-0.9-0.6-1.5-0.6c-0.4,0-0.8,0.1-1.1,0.3c-0.3,0.2-0.6,0.4-0.8,0.7l-1.2-0.2l1-5.1h5v1.2h-4L102.1,9
		c0.6-0.4,1.2-0.6,1.9-0.6c0.9,0,1.6,0.3,2.2,0.9s0.9,1.4,0.9,2.3c0,0.9-0.3,1.7-0.8,2.4c-0.6,0.8-1.5,1.2-2.6,1.2
		c-0.9,0-1.7-0.3-2.2-0.8S100.5,13.2,100.5,12.4z"/>
	<path d="M108.5,7.4c0-0.7,0.2-1.3,0.5-1.8s0.9-0.8,1.6-0.8c0.6,0,1.1,0.2,1.6,0.7c0.4,0.4,0.6,1.1,0.6,2c0,0.8-0.2,1.5-0.6,2
		c-0.4,0.5-0.9,0.7-1.5,0.7c-0.6,0-1.1-0.2-1.5-0.7S108.5,8.3,108.5,7.4z M110.6,5.7c-0.3,0-0.6,0.1-0.8,0.4s-0.3,0.8-0.3,1.5
		c0,0.6,0.1,1.1,0.3,1.4c0.2,0.3,0.5,0.4,0.8,0.4c0.3,0,0.6-0.1,0.8-0.4s0.3-0.7,0.3-1.4c0-0.6-0.1-1.1-0.3-1.4
		C111.2,5.8,110.9,5.7,110.6,5.7z M110.6,15.4l5.5-10.6h1l-5.5,10.6H110.6z M115,12.7c0-0.7,0.2-1.3,0.5-1.8
		c0.4-0.5,0.9-0.7,1.6-0.7c0.6,0,1.1,0.2,1.6,0.7c0.4,0.4,0.6,1.1,0.6,2c0,0.8-0.2,1.5-0.6,2c-0.4,0.5-0.9,0.7-1.5,0.7
		c-0.6,0-1.1-0.2-1.5-0.7C115.2,14.2,115,13.6,115,12.7z M117.1,10.9c-0.3,0-0.6,0.1-0.8,0.4s-0.3,0.8-0.3,1.5
		c0,0.6,0.1,1.1,0.3,1.4s0.5,0.4,0.8,0.4c0.3,0,0.6-0.1,0.8-0.4s0.3-0.7,0.3-1.4c0-0.6-0.1-1.1-0.3-1.4
		C117.7,11.1,117.4,10.9,117.1,10.9z"/>
</g>
<g class="st5">
	<path class="st6" d="M184.2,12.7l1.2-0.1c0.1,0.6,0.3,1,0.6,1.2s0.6,0.4,1.1,0.4c0.4,0,0.7-0.1,1-0.3s0.5-0.4,0.7-0.7
		c0.2-0.3,0.3-0.7,0.5-1.2s0.2-1,0.2-1.5c0-0.1,0-0.1,0-0.2c-0.2,0.4-0.6,0.7-1,1c-0.4,0.2-0.9,0.4-1.4,0.4c-0.8,0-1.5-0.3-2.1-0.9
		S184,9.3,184,8.3c0-1,0.3-1.8,0.9-2.5s1.4-0.9,2.3-0.9c0.7,0,1.2,0.2,1.8,0.5s1,0.9,1.2,1.5c0.3,0.6,0.4,1.6,0.4,2.8
		c0,1.3-0.1,2.3-0.4,3.1c-0.3,0.8-0.7,1.3-1.2,1.7s-1.2,0.6-1.9,0.6c-0.8,0-1.4-0.2-1.9-0.7C184.6,14.1,184.3,13.5,184.2,12.7z
		 M189.2,8.3c0-0.7-0.2-1.3-0.6-1.7S187.8,6,187.3,6c-0.5,0-1,0.2-1.4,0.7s-0.6,1-0.6,1.7c0,0.6,0.2,1.2,0.6,1.6
		c0.4,0.4,0.9,0.6,1.4,0.6c0.6,0,1-0.2,1.4-0.6C189,9.5,189.2,9,189.2,8.3z"/>
	<path class="st6" d="M191.8,10.1c0-1.2,0.1-2.1,0.4-2.9c0.2-0.7,0.6-1.3,1.1-1.7S194.3,5,195,5c0.5,0,1,0.1,1.4,0.3
		c0.4,0.2,0.7,0.5,1,0.9c0.3,0.4,0.5,0.9,0.6,1.5c0.2,0.6,0.2,1.4,0.2,2.4c0,1.2-0.1,2.1-0.4,2.8c-0.2,0.7-0.6,1.3-1.1,1.7
		c-0.5,0.4-1.1,0.6-1.8,0.6c-1,0-1.7-0.3-2.3-1C192.1,13.3,191.8,12,191.8,10.1z M193,10.1c0,1.6,0.2,2.7,0.6,3.3
		c0.4,0.5,0.9,0.8,1.4,0.8s1-0.3,1.4-0.8s0.6-1.6,0.6-3.3c0-1.6-0.2-2.7-0.6-3.3S195.6,6,195,6c-0.6,0-1,0.2-1.4,0.7
		C193.2,7.3,193,8.4,193,10.1z"/>
	<path class="st6" d="M199.8,7.4c0-0.7,0.2-1.3,0.5-1.8s0.9-0.8,1.6-0.8c0.6,0,1.1,0.2,1.6,0.7c0.4,0.4,0.6,1.1,0.6,2
		c0,0.8-0.2,1.5-0.6,2c-0.4,0.5-0.9,0.7-1.5,0.7c-0.6,0-1.1-0.2-1.5-0.7S199.8,8.3,199.8,7.4z M201.9,5.7c-0.3,0-0.6,0.1-0.8,0.4
		s-0.3,0.8-0.3,1.5c0,0.6,0.1,1.1,0.3,1.4c0.2,0.3,0.5,0.4,0.8,0.4c0.3,0,0.6-0.1,0.8-0.4s0.3-0.7,0.3-1.4c0-0.6-0.1-1.1-0.3-1.4
		C202.5,5.8,202.2,5.7,201.9,5.7z M201.9,15.4l5.5-10.6h1l-5.5,10.6H201.9z M206.3,12.7c0-0.7,0.2-1.3,0.5-1.8
		c0.4-0.5,0.9-0.7,1.6-0.7c0.6,0,1.1,0.2,1.6,0.7c0.4,0.4,0.6,1.1,0.6,2c0,0.8-0.2,1.5-0.6,2c-0.4,0.5-0.9,0.7-1.5,0.7
		c-0.6,0-1.1-0.2-1.5-0.7C206.5,14.2,206.3,13.6,206.3,12.7z M208.4,10.9c-0.3,0-0.6,0.1-0.8,0.4s-0.3,0.8-0.3,1.5
		c0,0.6,0.1,1.1,0.3,1.4s0.5,0.4,0.8,0.4c0.3,0,0.6-0.1,0.8-0.4s0.3-0.7,0.3-1.4c0-0.6-0.1-1.1-0.3-1.4
		C209,11.1,208.7,10.9,208.4,10.9z"/>
</g>
<g class="st5">
	<path class="st6" d="M273.4,12.7l1.2-0.1c0.1,0.6,0.3,1,0.6,1.2c0.3,0.3,0.6,0.4,1.1,0.4c0.4,0,0.7-0.1,1-0.3
		c0.3-0.2,0.5-0.4,0.7-0.7c0.2-0.3,0.3-0.7,0.5-1.2s0.2-1,0.2-1.5c0-0.1,0-0.1,0-0.2c-0.2,0.4-0.6,0.7-1,1c-0.4,0.2-0.9,0.4-1.4,0.4
		c-0.8,0-1.5-0.3-2.1-0.9s-0.9-1.4-0.9-2.4c0-1,0.3-1.8,0.9-2.5c0.6-0.6,1.4-0.9,2.3-0.9c0.7,0,1.2,0.2,1.8,0.5s1,0.9,1.2,1.5
		c0.3,0.6,0.4,1.6,0.4,2.8c0,1.3-0.1,2.3-0.4,3.1c-0.3,0.8-0.7,1.3-1.2,1.7c-0.5,0.4-1.2,0.6-1.9,0.6c-0.8,0-1.4-0.2-1.9-0.7
		C273.8,14.1,273.5,13.5,273.4,12.7z M278.5,8.3c0-0.7-0.2-1.3-0.6-1.7S277.1,6,276.5,6c-0.5,0-1,0.2-1.4,0.7
		c-0.4,0.4-0.6,1-0.6,1.7c0,0.6,0.2,1.2,0.6,1.6c0.4,0.4,0.9,0.6,1.4,0.6c0.6,0,1-0.2,1.4-0.6C278.3,9.5,278.5,9,278.5,8.3z"/>
	<path class="st6" d="M281,12.4l1.3-0.1c0.1,0.6,0.3,1.1,0.7,1.4c0.3,0.3,0.8,0.5,1.3,0.5c0.6,0,1.1-0.2,1.5-0.7s0.6-1,0.6-1.8
		c0-0.7-0.2-1.3-0.6-1.7c-0.4-0.4-0.9-0.6-1.5-0.6c-0.4,0-0.8,0.1-1.1,0.3c-0.3,0.2-0.6,0.4-0.8,0.7l-1.2-0.2l1-5.1h5v1.2h-4
		L282.7,9c0.6-0.4,1.2-0.6,1.9-0.6c0.9,0,1.6,0.3,2.2,0.9s0.9,1.4,0.9,2.3c0,0.9-0.3,1.7-0.8,2.4c-0.6,0.8-1.5,1.2-2.6,1.2
		c-0.9,0-1.7-0.3-2.2-0.8C281.4,13.9,281.1,13.2,281,12.4z"/>
	<path class="st6" d="M289,7.4c0-0.7,0.2-1.3,0.5-1.8c0.4-0.5,0.9-0.8,1.6-0.8c0.6,0,1.1,0.2,1.6,0.7c0.4,0.4,0.6,1.1,0.6,2
		c0,0.8-0.2,1.5-0.6,2c-0.4,0.5-0.9,0.7-1.5,0.7c-0.6,0-1.1-0.2-1.5-0.7S289,8.3,289,7.4z M291.2,5.7c-0.3,0-0.6,0.1-0.8,0.4
		c-0.2,0.3-0.3,0.8-0.3,1.5c0,0.6,0.1,1.1,0.3,1.4c0.2,0.3,0.5,0.4,0.8,0.4c0.3,0,0.6-0.1,0.8-0.4c0.2-0.3,0.3-0.7,0.3-1.4
		c0-0.6-0.1-1.1-0.3-1.4C291.7,5.8,291.5,5.7,291.2,5.7z M291.2,15.4l5.5-10.6h1l-5.5,10.6H291.2z M295.5,12.7
		c0-0.7,0.2-1.3,0.5-1.8c0.4-0.5,0.9-0.7,1.6-0.7c0.6,0,1.1,0.2,1.6,0.7c0.4,0.4,0.6,1.1,0.6,2c0,0.8-0.2,1.5-0.6,2
		c-0.4,0.5-0.9,0.7-1.5,0.7c-0.6,0-1.1-0.2-1.5-0.7C295.7,14.2,295.5,13.6,295.5,12.7z M297.7,10.9c-0.3,0-0.6,0.1-0.8,0.4
		c-0.2,0.3-0.3,0.8-0.3,1.5c0,0.6,0.1,1.1,0.3,1.4s0.5,0.4,0.8,0.4c0.3,0,0.6-0.1,0.8-0.4c0.2-0.3,0.3-0.7,0.3-1.4
		c0-0.6-0.1-1.1-0.3-1.4C298.2,11.1,298,10.9,297.7,10.9z"/>
</g>
<g class="st5">
	<path class="st6" d="M365.9,15h-1.2V7.2c-0.3,0.3-0.7,0.6-1.2,0.8c-0.5,0.3-0.9,0.5-1.3,0.6V7.5c0.7-0.3,1.3-0.7,1.8-1.2
		c0.5-0.5,0.9-0.9,1.1-1.3h0.8V15z"/>
	<path class="st6" d="M369,10.1c0-1.2,0.1-2.1,0.4-2.9c0.2-0.7,0.6-1.3,1.1-1.7c0.5-0.4,1.1-0.6,1.8-0.6c0.5,0,1,0.1,1.4,0.3
		c0.4,0.2,0.7,0.5,1,0.9c0.3,0.4,0.5,0.9,0.6,1.5c0.2,0.6,0.2,1.4,0.2,2.4c0,1.2-0.1,2.1-0.4,2.8c-0.2,0.7-0.6,1.3-1.1,1.7
		c-0.5,0.4-1.1,0.6-1.8,0.6c-1,0-1.7-0.3-2.3-1C369.3,13.3,369,12,369,10.1z M370.3,10.1c0,1.6,0.2,2.7,0.6,3.3
		c0.4,0.5,0.9,0.8,1.4,0.8c0.6,0,1-0.3,1.4-0.8c0.4-0.5,0.6-1.6,0.6-3.3c0-1.6-0.2-2.7-0.6-3.3c-0.4-0.5-0.9-0.8-1.4-0.8
		c-0.6,0-1,0.2-1.4,0.7C370.5,7.3,370.3,8.4,370.3,10.1z"/>
	<path class="st6" d="M376.8,10.1c0-1.2,0.1-2.1,0.4-2.9c0.2-0.7,0.6-1.3,1.1-1.7c0.5-0.4,1.1-0.6,1.8-0.6c0.5,0,1,0.1,1.4,0.3
		c0.4,0.2,0.7,0.5,1,0.9c0.3,0.4,0.5,0.9,0.6,1.5c0.2,0.6,0.2,1.4,0.2,2.4c0,1.2-0.1,2.1-0.4,2.8c-0.2,0.7-0.6,1.3-1.1,1.7
		c-0.5,0.4-1.1,0.6-1.8,0.6c-1,0-1.7-0.3-2.3-1C377.1,13.3,376.8,12,376.8,10.1z M378.1,10.1c0,1.6,0.2,2.7,0.6,3.3
		c0.4,0.5,0.9,0.8,1.4,0.8c0.6,0,1-0.3,1.4-0.8c0.4-0.5,0.6-1.6,0.6-3.3c0-1.6-0.2-2.7-0.6-3.3c-0.4-0.5-0.9-0.8-1.4-0.8
		c-0.6,0-1,0.2-1.4,0.7C378.3,7.3,378.1,8.4,378.1,10.1z"/>
	<path class="st6" d="M384.8,7.4c0-0.7,0.2-1.3,0.5-1.8c0.4-0.5,0.9-0.8,1.6-0.8c0.6,0,1.1,0.2,1.6,0.7c0.4,0.4,0.6,1.1,0.6,2
		c0,0.8-0.2,1.5-0.6,2c-0.4,0.5-0.9,0.7-1.5,0.7c-0.6,0-1.1-0.2-1.5-0.7S384.8,8.3,384.8,7.4z M387,5.7c-0.3,0-0.6,0.1-0.8,0.4
		c-0.2,0.3-0.3,0.8-0.3,1.5c0,0.6,0.1,1.1,0.3,1.4c0.2,0.3,0.5,0.4,0.8,0.4c0.3,0,0.6-0.1,0.8-0.4c0.2-0.3,0.3-0.7,0.3-1.4
		c0-0.6-0.1-1.1-0.3-1.4C387.5,5.8,387.3,5.7,387,5.7z M387,15.4l5.5-10.6h1L388,15.4H387z M391.3,12.7c0-0.7,0.2-1.3,0.5-1.8
		c0.4-0.5,0.9-0.7,1.6-0.7c0.6,0,1.1,0.2,1.6,0.7c0.4,0.4,0.6,1.1,0.6,2c0,0.8-0.2,1.5-0.6,2c-0.4,0.5-0.9,0.7-1.5,0.7
		c-0.6,0-1.1-0.2-1.5-0.7C391.5,14.2,391.3,13.6,391.3,12.7z M393.5,10.9c-0.3,0-0.6,0.1-0.8,0.4c-0.2,0.3-0.3,0.8-0.3,1.5
		c0,0.6,0.1,1.1,0.3,1.4s0.5,0.4,0.8,0.4c0.3,0,0.6-0.1,0.8-0.4c0.2-0.3,0.3-0.7,0.3-1.4c0-0.6-0.1-1.1-0.3-1.4
		C394,11.1,393.8,10.9,393.5,10.9z"/>
</g>
</svg>
