<?xml version="1.0" encoding="utf-8"?>
<!-- Generator: Adobe Illustrator 23.0.1, SVG Export Plug-In . SVG Version: 6.00 Build 0)  -->
<svg version="1.1" id="Layer_1" xmlns="http://www.w3.org/2000/svg" xmlns:xlink="http://www.w3.org/1999/xlink" x="0px" y="0px"
	 viewBox="0 0 1099 39.5" style="enable-background:new 0 0 1099 39.5;" xml:space="preserve">
<style type="text/css">
	.st0{fill:none;stroke:#FF25F3;stroke-width:5;stroke-linecap:round;stroke-linejoin:round;}
	.st1{fill:#FF25F3;stroke:#B2B2B2;stroke-width:2;stroke-miterlimit:10;}
	.st2{fill:none;stroke:#0066FF;stroke-width:5;stroke-linecap:round;stroke-linejoin:round;}
	.st3{fill:#2966FF;stroke:#3D699C;stroke-width:2;stroke-miterlimit:10;}
</style>
<title>NDVI Risk2</title>
<g>
	<g id="Layer_1-2">
		<line class="st0" x1="142.2" y1="19" x2="2.5" y2="19"/>
		<rect x="58.7" y="5.3" class="st1" width="27.4" height="27.4"/>
		<line class="st2" x1="727.2" y1="20.5" x2="587.5" y2="20.5"/>
		<circle class="st3" cx="657.3" cy="20.5" r="15.7"/>
	</g>
</g>
<g>
	<path d="M166.3,2.9c1.9-0.4,4.6-0.5,7.5-0.5c4,0,6.6,0.6,8.4,2.2c1.5,1.3,2.3,3.2,2.3,5.5c0,3.6-2.4,5.9-5,6.9v0.1
		c1.9,0.8,3.1,2.7,3.8,5.2c0.9,3.4,1.5,6.5,2.2,7.7h-5.1c-0.4-0.8-1-3.1-1.8-6.4c-0.8-3.6-2-4.7-4.9-4.7h-2.6v11.2h-5L166.3,2.9
		L166.3,2.9z M171.3,15h2.9c3.3,0,5.5-1.8,5.5-4.5c0-2.9-2-4.3-5.4-4.3c-1.5,0-2.6,0.1-3.1,0.3L171.3,15L171.3,15z"/>
	<path d="M192.7,21.4c0.1,3.6,2.9,5.1,6.1,5.1c2.3,0,4-0.4,5.5-0.9l0.8,3.4c-1.7,0.6-4.1,1.3-6.9,1.3c-6.4,0-10.2-4-10.2-10
		c0-5.5,3.3-10.6,9.6-10.6c6.4,0,8.6,5.2,8.6,9.6c0,0.9-0.1,1.7-0.1,2C206,21.4,192.7,21.4,192.7,21.4z M201.4,17.8
		c0-1.8-0.8-4.9-4.1-4.9c-3.1,0-4.3,2.8-4.6,4.9H201.4z"/>
	<path d="M228.2,10.2c-0.1,1.3-0.1,2.9-0.1,5.6V27c0,4.1-0.9,7-2.9,8.9c-2,1.8-4.9,2.4-7.7,2.4c-2.6,0-5.2-0.5-6.9-1.5l1.1-3.7
		c1.3,0.8,3.3,1.5,5.7,1.5c3.2,0,5.6-1.7,5.6-6V27H223c-1.1,1.8-3.2,2.9-5.7,2.9c-4.9,0-8.4-4.1-8.4-9.6c0-6.5,4.2-10.3,8.9-10.3
		c2.9,0,4.7,1.4,5.7,3.1h0.1l0.3-2.7h4.3V10.2z M223,17.9c0-0.4,0-0.9-0.1-1.3c-0.5-1.8-1.9-3.2-4.1-3.2c-2.8,0-4.9,2.4-4.9,6.4
		c0,3.3,1.7,6.1,4.9,6.1c1.9,0,3.4-1.3,4.1-2.9c0.1-0.5,0.3-1.3,0.3-1.8v-3.3H223z"/>
	<path d="M238.4,4.5c0,1.5-1.1,2.7-2.8,2.7c-1.7,0-2.8-1.1-2.8-2.7s1.1-2.7,2.8-2.7C237.4,1.9,238.4,3,238.4,4.5z M233.2,29.8V10.2
		h5v19.7C238.2,29.8,233.2,29.8,233.2,29.8z"/>
	<path d="M262.3,19.7c0,7.3-5.1,10.5-10.1,10.5c-5.6,0-9.8-3.8-9.8-10.2c0-6.5,4.2-10.5,10.2-10.5C258.3,9.7,262.3,13.7,262.3,19.7z
		 M247.4,20c0,3.8,1.9,6.6,4.9,6.6c2.8,0,4.9-2.8,4.9-6.8c0-3.1-1.4-6.6-4.7-6.6C248.9,13.4,247.4,16.7,247.4,20z"/>
	<path d="M266.4,16c0-2.3,0-4.2-0.1-5.9h4.3l0.3,2.9h0.1c0.9-1.5,2.9-3.4,6.3-3.4c3.4,0,7,2.2,7,8.4v11.7h-5V18.7c0-2.8-1-5-3.7-5
		c-2,0-3.3,1.4-3.8,2.9c-0.1,0.4-0.3,1-0.3,1.7v11.6h-5V16H266.4z"/>
	<path d="M298,24.5c1.7,0.9,4.1,1.8,6.6,1.8c3.2,0,5-1.5,5-3.7c0-2-1.4-3.3-4.9-4.6c-4.5-1.7-7.4-4-7.4-7.9c0-4.5,3.7-7.9,9.6-7.9
		c2.9,0,5.1,0.6,6.5,1.4l-1.3,4c-1-0.5-2.9-1.3-5.4-1.3c-3.2,0-4.6,1.7-4.6,3.3c0,2,1.5,3.1,5.2,4.5c4.7,1.8,7,4.2,7,8
		c0,4.3-3.3,8.2-10.3,8.2c-2.9,0-5.9-0.8-7.4-1.7L298,24.5z"/>
	<path d="M318.8,16.7c0-2.6-0.1-4.7-0.1-6.5h4.3l0.3,3.1h0.1c1.4-2.2,3.7-3.4,6.8-3.4c4.6,0,8.3,3.8,8.3,10.1
		c0,7.1-4.5,10.6-8.9,10.6c-2.4,0-4.6-1-5.5-2.7h-0.1V38h-5V16.7H318.8z M323.8,21.5c0,0.5,0,0.9,0.1,1.4c0.5,2,2.3,3.4,4.3,3.4
		c3.2,0,5-2.7,5-6.5c0-3.4-1.7-6.3-4.9-6.3c-2,0-4,1.5-4.5,3.7c-0.1,0.4-0.3,0.9-0.3,1.3v2.9H323.8z"/>
	<path d="M346.1,21.4c0.1,3.6,2.9,5.1,6.1,5.1c2.3,0,4-0.4,5.5-0.9l0.8,3.4c-1.7,0.6-4.1,1.3-6.9,1.3c-6.4,0-10.2-4-10.2-10
		c0-5.5,3.3-10.6,9.6-10.6c6.4,0,8.6,5.2,8.6,9.6c0,0.9-0.1,1.7-0.1,2C359.4,21.4,346.1,21.4,346.1,21.4z M354.7,17.8
		c0-1.8-0.8-4.9-4.1-4.9c-3.1,0-4.3,2.8-4.6,4.9H354.7z"/>
	<path d="M377.9,29.2c-1,0.5-3.1,1-5.6,1c-6.1,0-10.2-4-10.2-10.1c0-5.9,4.1-10.5,11-10.5c1.8,0,3.7,0.4,4.9,0.9l-0.9,3.7
		c-0.8-0.4-2-0.8-3.7-0.8c-3.8,0-6.1,2.8-6,6.4c0,4.1,2.7,6.4,6,6.4c1.8,0,2.9-0.4,4-0.8L377.9,29.2z"/>
	<path d="M387.9,4.5v5.6h4.7v3.7h-4.7v8.7c0,2.4,0.6,3.7,2.6,3.7c0.9,0,1.5-0.1,1.9-0.3l0.1,3.8c-0.8,0.3-2,0.5-3.6,0.5
		c-1.8,0-3.3-0.6-4.3-1.7c-1-1.1-1.5-2.9-1.5-5.5v-9.3h-2.8v-3.7h2.8V5.7L387.9,4.5z"/>
	<path d="M396.4,16.4c0-2.7,0-4.6-0.1-6.4h4.3l0.1,3.7h0.1c1-2.8,3.3-4.2,5.4-4.2c0.5,0,0.8,0,1.1,0.1v4.7c-0.4-0.1-0.9-0.1-1.4-0.1
		c-2.4,0-4,1.5-4.5,3.7c-0.1,0.4-0.1,1-0.1,1.5v10.2h-5V16.4z"/>
	<path d="M421.6,29.8l-0.4-2.2h-0.1c-1.3,1.5-3.3,2.7-5.9,2.7c-4,0-6.3-2.9-6.3-5.9c0-5,4.5-7.5,11.7-7.4v-0.4c0-1.3-0.5-3.4-4-3.4
		c-1.9,0-4,0.6-5.4,1.4l-1-3.2c1.4-0.9,4-1.8,7.1-1.8c6.3,0,8.2,4,8.2,8.3v7.1c0,1.8,0.1,3.6,0.3,4.7H421.6z M420.9,20.2
		c-3.6-0.1-6.9,0.6-6.9,3.7c0,1.9,1.3,2.8,2.8,2.8c2,0,3.4-1.3,3.8-2.7c0.1-0.4,0.1-0.8,0.1-1.1v-2.7H420.9z"/>
	<path d="M431,1.1h5v28.7h-5V1.1z"/>
	<path d="M455,2.5v27.3h-5V2.5H455z"/>
	<path d="M460.8,16c0-2.3,0-4.2-0.1-5.9h4.3l0.3,2.9h0.1c0.9-1.5,2.9-3.4,6.3-3.4c3.4,0,7,2.2,7,8.4v11.7h-5V18.7c0-2.8-1-5-3.7-5
		c-2,0-3.3,1.4-3.8,2.9c-0.1,0.4-0.3,1-0.3,1.7v11.6h-5.1V16z"/>
	<path d="M502.1,1.1v23.2c0,2,0.1,4.2,0.1,5.5h-4.5l-0.3-3.1h-0.1c-1.1,2.2-3.6,3.6-6.4,3.6c-4.7,0-8.4-4-8.4-10.1
		c0-6.6,4.1-10.5,8.8-10.5c2.7,0,4.6,1.1,5.5,2.6h0.1V1.1H502.1z M497.1,18.3c0-0.4,0-0.9-0.1-1.3c-0.4-1.9-2-3.6-4.3-3.6
		c-3.2,0-5,2.8-5,6.5c0,3.6,1.8,6.3,5,6.3c2,0,3.8-1.4,4.3-3.6c0.1-0.4,0.1-0.9,0.1-1.4V18.3z"/>
	<path d="M510.9,21.4c0.1,3.6,2.9,5.1,6.1,5.1c2.3,0,4-0.4,5.5-0.9l0.8,3.4c-1.7,0.6-4.1,1.3-6.9,1.3c-6.4,0-10.2-4-10.2-10
		c0-5.5,3.3-10.6,9.6-10.6c6.4,0,8.6,5.2,8.6,9.6c0,0.9-0.1,1.7-0.1,2C524.2,21.4,510.9,21.4,510.9,21.4z M519.6,17.8
		c0-1.8-0.8-4.9-4.1-4.9c-3.1,0-4.3,2.8-4.6,4.9H519.6z"/>
	<path d="M531.4,10.2l2.3,3.7c0.6,1,1.3,2,1.8,3.1h0.1c0.5-1.1,1.1-2,1.7-3.1l2.2-3.7h5.4l-6.6,9.4l6.8,10.2h-5.6l-2.4-4
		c-0.6-1-1.3-2-1.8-3.2h-0.1c-0.5,1.1-1.1,2-1.8,3.2l-2.3,4h-5.5l6.9-10.1l-6.6-9.7h5.7V10.2z"/>
</g>
<g>
	<path d="M749.7,2.8h15.7v4.1h-10.7v7.5h10.1v4.1h-10.1v11.6h-5L749.7,2.8L749.7,2.8z"/>
	<path d="M774.5,4.8c0,1.5-1.1,2.7-2.8,2.7c-1.7,0-2.8-1.1-2.8-2.7s1.1-2.7,2.8-2.7C773.3,2.1,774.5,3.3,774.5,4.8z M769.1,30.1
		V10.4h5v19.7C774.1,30.1,769.1,30.1,769.1,30.1z"/>
	<path d="M783,21.7c0.1,3.6,2.9,5.1,6.1,5.1c2.3,0,4-0.4,5.5-0.9l0.6,3.4c-1.7,0.6-4.1,1.3-6.9,1.3c-6.4,0-10.2-4-10.2-10
		c0-5.5,3.3-10.6,9.6-10.6c6.4,0,8.6,5.2,8.6,9.6c0,0.9-0.1,1.7-0.1,2C796.2,21.7,783,21.7,783,21.7z M791.7,18.1
		c0-1.8-0.8-4.9-4.1-4.9c-3.1,0-4.3,2.8-4.6,4.9H791.7z"/>
	<path d="M800.4,1.4h5v28.7h-5V1.4z"/>
	<path d="M829,1.4v23.2c0,2,0.1,4.2,0.1,5.5h-4.5l-0.3-3.1h-0.1c-1.1,2.2-3.6,3.6-6.4,3.6c-4.7,0-8.4-4-8.4-10.1
		c0-6.6,4.1-10.5,8.8-10.5c2.7,0,4.6,1.1,5.5,2.6h0.1V1.4H829z M824,18.6c0-0.4,0-0.9-0.1-1.3c-0.4-1.9-2-3.6-4.3-3.6
		c-3.2,0-5,2.8-5,6.5c0,3.6,1.8,6.3,5,6.3c2,0,3.8-1.4,4.3-3.6c0.1-0.4,0.1-0.9,0.1-1.4V18.6z"/>
	<path d="M842.8,24.7c1.7,0.9,4.1,1.8,6.6,1.8c3.2,0,5-1.5,5-3.7c0-2-1.4-3.3-4.9-4.6c-4.5-1.7-7.4-4-7.4-7.9c0-4.5,3.7-7.9,9.6-7.9
		c2.9,0,5.1,0.6,6.5,1.4l-1.3,4c-1-0.5-2.9-1.3-5.4-1.3c-3.2,0-4.6,1.7-4.6,3.3c0,2,1.5,3.1,5.2,4.5c4.7,1.8,7,4.2,7,8
		c0,4.3-3.3,8.2-10.3,8.2c-2.9,0-5.9-0.8-7.4-1.7L842.8,24.7z"/>
	<path d="M863.7,16.9c0-2.6-0.1-4.7-0.1-6.5h4.3l0.3,3.1h0.1c1.4-2.2,3.7-3.4,6.8-3.4c4.6,0,8.3,3.8,8.3,10.1
		c0,7.1-4.5,10.6-8.9,10.6c-2.4,0-4.6-1-5.5-2.7h-0.1v10.2h-5V16.9H863.7z M868.7,21.8c0,0.5,0,0.9,0.1,1.4c0.5,2,2.3,3.4,4.3,3.4
		c3.2,0,5-2.7,5-6.5c0-3.4-1.7-6.3-4.9-6.3c-2,0-4,1.5-4.5,3.7c-0.1,0.4-0.3,0.9-0.3,1.3v2.9H868.7z"/>
	<path d="M890.9,21.7c0.1,3.6,2.9,5.1,6.1,5.1c2.3,0,4-0.4,5.5-0.9l0.8,3.4c-1.7,0.6-4.1,1.3-6.9,1.3c-6.4,0-10.2-4-10.2-10
		c0-5.5,3.3-10.6,9.6-10.6c6.4,0,8.6,5.2,8.6,9.6c0,0.9-0.1,1.7-0.1,2C904.1,21.7,890.9,21.7,890.9,21.7z M899.6,18.1
		c0-1.8-0.8-4.9-4.1-4.9c-3.1,0-4.3,2.8-4.6,4.9H899.6z"/>
	<path d="M922.8,29.5c-1,0.5-3.1,1-5.6,1c-6.1,0-10.2-4-10.2-10.1c0-5.9,4.1-10.5,11-10.5c1.8,0,3.7,0.4,4.9,0.9l-0.9,3.7
		c-0.8-0.4-2-0.8-3.7-0.8c-3.8,0-6.1,2.8-6,6.4c0,4.1,2.7,6.4,6,6.4c1.8,0,2.9-0.4,4-0.8L922.8,29.5z"/>
	<path d="M932.7,4.8v5.6h4.7v3.7h-4.7v8.7c0,2.4,0.6,3.7,2.6,3.7c0.9,0,1.5-0.1,1.9-0.3l0.1,3.8c-0.8,0.3-2,0.5-3.6,0.5
		c-1.8,0-3.3-0.6-4.3-1.7c-1-1.1-1.5-2.9-1.5-5.5v-9.3h-2.8v-3.7h2.8V6L932.7,4.8z"/>
	<path d="M941.3,16.7c0-2.7,0-4.6-0.1-6.4h4.3l0.1,3.7h0.1c1-2.8,3.3-4.2,5.4-4.2c0.5,0,0.8,0,1.1,0.1v4.7c-0.4-0.1-0.9-0.1-1.4-0.1
		c-2.4,0-4,1.5-4.5,3.7c-0.1,0.4-0.1,1-0.1,1.5V30h-5L941.3,16.7L941.3,16.7z"/>
	<path d="M966.4,30.1l-0.4-2.2h-0.1c-1.3,1.5-3.3,2.7-5.9,2.7c-4,0-6.3-2.9-6.3-5.9c0-5,4.5-7.5,11.7-7.4v-0.4c0-1.3-0.5-3.4-4-3.4
		c-1.9,0-4,0.6-5.4,1.4l-1-3.2c1.4-0.9,4-1.8,7.1-1.8c6.3,0,8.2,4,8.2,8.3v7.1c0,1.8,0.1,3.6,0.3,4.7H966.4z M965.7,20.5
		c-3.6-0.1-6.9,0.6-6.9,3.7c0,1.9,1.3,2.8,2.8,2.8c2,0,3.4-1.3,3.8-2.7c0.1-0.4,0.1-0.8,0.1-1.1v-2.7H965.7z"/>
	<path d="M975.9,1.4h5v28.7h-5V1.4z"/>
	<path d="M999.7,2.8v27.3h-5V2.8H999.7z"/>
	<path d="M1005.5,16.3c0-2.3,0-4.2-0.1-5.9h4.3l0.3,2.9h0.1c0.9-1.5,2.9-3.4,6.3-3.4c3.4,0,7,2.2,7,8.4v11.7h-5V19c0-2.8-1-5-3.7-5
		c-2,0-3.3,1.4-3.8,2.9c-0.1,0.4-0.3,1-0.3,1.7v11.6h-5V16.3H1005.5z"/>
	<path d="M1046.8,1.4v23.2c0,2,0.1,4.2,0.1,5.5h-4.5l-0.3-3.1h-0.1c-1.1,2.2-3.6,3.6-6.4,3.6c-4.7,0-8.4-4-8.4-10.1
		c0-6.6,4.1-10.5,8.8-10.5c2.7,0,4.6,1.1,5.5,2.6h0.1V1.4H1046.8z M1041.9,18.6c0-0.4,0-0.9-0.1-1.3c-0.4-1.9-2-3.6-4.3-3.6
		c-3.2,0-5,2.8-5,6.5c0,3.6,1.8,6.3,5,6.3c2,0,3.8-1.4,4.3-3.6c0.1-0.4,0.1-0.9,0.1-1.4V18.6z"/>
	<path d="M1055.8,21.7c0.1,3.6,2.9,5.1,6.1,5.1c2.3,0,4-0.4,5.5-0.9l0.8,3.4c-1.7,0.6-4.1,1.3-6.9,1.3c-6.4,0-10.2-4-10.2-10
		c0-5.5,3.3-10.6,9.6-10.6c6.4,0,8.6,5.2,8.6,9.6c0,0.9-0.1,1.7-0.1,2C1069.1,21.7,1055.8,21.7,1055.8,21.7z M1064.5,18.1
		c0-1.8-0.8-4.9-4.1-4.9c-3.1,0-4.3,2.8-4.6,4.9H1064.5z"/>
	<path d="M1076.1,10.4l2.3,3.7c0.6,1,1.3,2,1.8,3.1h0.1c0.5-1.1,1.1-2,1.7-3.1l2.2-3.7h5.4l-6.6,9.4l6.8,10.2h-5.6l-2.4-4
		c-0.6-1-1.3-2-1.8-3.2h0.1c-0.5,1.1-1.1,2-1.8,3.2l-2.3,4h-5.5l6.9-10.1l-6.6-9.7h5.5V10.4z"/>
</g>
</svg>
