<?xml version="1.0" encoding="utf-8"?>
<!-- Generator: Adobe Illustrator 23.0.1, SVG Export Plug-In . SVG Version: 6.00 Build 0)  -->
<svg version="1.1" id="Layer_1" xmlns="http://www.w3.org/2000/svg" xmlns:xlink="http://www.w3.org/1999/xlink" x="0px" y="0px"
	 viewBox="0 0 449.3 25.4" style="enable-background:new 0 0 449.3 25.4;" xml:space="preserve">
<style type="text/css">
	.st0{fill:#5E9FFF;}
	.st1{fill:#0066FF;}
	.st2{fill:#0044AB;}
	.st3{enable-background:new    ;}
</style>
<title>seasonal legend_final</title>
<rect class="st0" width="29.7" height="25"/>
<rect x="151.6" class="st1" width="29.7" height="25"/>
<rect x="309.9" class="st2" width="29.7" height="25"/>
<g class="st3">
	<path d="M39.7,15.2l1.9-0.2c0.1,0.8,0.3,1.4,0.6,1.9c0.3,0.5,0.8,0.9,1.5,1.2c0.7,0.3,1.5,0.4,2.3,0.4c0.8,0,1.4-0.1,2-0.3
		s1-0.5,1.3-0.9c0.3-0.4,0.4-0.8,0.4-1.3c0-0.5-0.1-0.9-0.4-1.2c-0.3-0.4-0.7-0.6-1.4-0.9c-0.4-0.2-1.3-0.4-2.7-0.7
		c-1.4-0.3-2.3-0.6-2.9-0.9c-0.7-0.4-1.3-0.8-1.6-1.4c-0.4-0.6-0.5-1.2-0.5-1.9c0-0.8,0.2-1.5,0.6-2.1c0.4-0.7,1.1-1.2,1.9-1.5
		s1.7-0.5,2.8-0.5c1.1,0,2.1,0.2,2.9,0.5c0.9,0.4,1.5,0.9,2,1.6s0.7,1.5,0.7,2.4l-1.9,0.1c-0.1-0.9-0.4-1.7-1-2.2
		c-0.6-0.5-1.5-0.7-2.6-0.7c-1.2,0-2.1,0.2-2.6,0.7c-0.6,0.4-0.8,1-0.8,1.6c0,0.5,0.2,1,0.6,1.3c0.4,0.3,1.4,0.7,3,1.1
		c1.6,0.4,2.7,0.7,3.3,1c0.9,0.4,1.5,0.9,1.9,1.5c0.4,0.6,0.6,1.3,0.6,2.1c0,0.8-0.2,1.6-0.7,2.3c-0.5,0.7-1.1,1.3-2,1.7
		c-0.9,0.4-1.8,0.6-2.9,0.6c-1.4,0-2.5-0.2-3.4-0.6c-0.9-0.4-1.6-1-2.2-1.8C40,17.1,39.8,16.2,39.7,15.2z"/>
	<path d="M53.5,14.6c0-2,0.6-3.5,1.7-4.5c0.9-0.8,2.1-1.2,3.4-1.2c1.5,0,2.7,0.5,3.7,1.5c1,1,1.4,2.3,1.4,4.1c0,1.4-0.2,2.5-0.6,3.3
		c-0.4,0.8-1,1.4-1.8,1.9c-0.8,0.4-1.7,0.7-2.6,0.7c-1.5,0-2.8-0.5-3.7-1.5C54,17.8,53.5,16.4,53.5,14.6z M55.4,14.6
		c0,1.4,0.3,2.4,0.9,3.1c0.6,0.7,1.4,1,2.3,1c0.9,0,1.7-0.3,2.3-1s0.9-1.8,0.9-3.2c0-1.3-0.3-2.4-0.9-3.1c-0.6-0.7-1.4-1-2.3-1
		c-0.9,0-1.7,0.3-2.3,1S55.4,13.2,55.4,14.6z"/>
	<path d="M67.9,20L64.5,9.1h1.9l1.7,6.3l0.6,2.3c0-0.1,0.2-0.9,0.6-2.2l1.7-6.4H73l1.6,6.3l0.5,2.1l0.6-2.1l1.9-6.3h1.8L76.1,20
		h-1.9l-1.7-6.5L72,11.6L69.8,20H67.9z"/>
	<path d="M81,7.1V5h1.8v2.1H81z M81,20V9.1h1.8V20H81z"/>
	<path d="M85.7,20V9.1h1.7v1.5c0.8-1.2,2-1.8,3.5-1.8c0.7,0,1.3,0.1,1.8,0.4c0.5,0.2,1,0.5,1.2,0.9s0.5,0.8,0.6,1.4
		c0.1,0.3,0.1,0.9,0.1,1.8V20h-1.8v-6.6c0-0.8-0.1-1.3-0.2-1.7c-0.1-0.4-0.4-0.7-0.8-0.9c-0.4-0.2-0.8-0.3-1.3-0.3
		c-0.8,0-1.5,0.3-2,0.7s-0.9,1.4-0.9,2.8V20H85.7z"/>
	<path d="M97,20.9l1.8,0.3c0.1,0.6,0.3,1,0.6,1.2c0.5,0.3,1.1,0.5,1.9,0.5c0.9,0,1.5-0.2,2-0.5s0.8-0.8,0.9-1.4
		c0.1-0.4,0.1-1.2,0.1-2.4c-0.8,1-1.8,1.4-3,1.4c-1.5,0-2.7-0.5-3.5-1.6s-1.2-2.4-1.2-3.9c0-1,0.2-2,0.6-2.9c0.4-0.9,0.9-1.6,1.6-2
		s1.6-0.7,2.5-0.7c1.3,0,2.3,0.5,3.2,1.6V9.1h1.7v9.4c0,1.7-0.2,2.9-0.5,3.6c-0.3,0.7-0.9,1.3-1.6,1.7c-0.7,0.4-1.7,0.6-2.8,0.6
		c-1.3,0-2.3-0.3-3.1-0.9C97.4,23,97,22.1,97,20.9z M98.5,14.4c0,1.4,0.3,2.5,0.9,3.1s1.3,1,2.1,1c0.8,0,1.6-0.3,2.1-1
		c0.6-0.7,0.9-1.7,0.9-3.1c0-1.3-0.3-2.3-0.9-3c-0.6-0.7-1.3-1-2.1-1c-0.8,0-1.5,0.3-2.1,1C98.8,12.1,98.5,13.1,98.5,14.4z"/>
</g>
<g class="st3">
	<path d="M192.9,20V5h3l3.6,10.6c0.3,1,0.6,1.7,0.7,2.2c0.2-0.5,0.4-1.3,0.8-2.4L204.6,5h2.7v15h-1.9V7.4L201,20h-1.8l-4.3-12.8V20
		H192.9z"/>
	<path d="M210.3,7.1V5h1.8v2.1H210.3z M210.3,20V9.1h1.8V20H210.3z"/>
	<path d="M222,20v-1.4c-0.7,1.1-1.7,1.6-3,1.6c-0.9,0-1.7-0.2-2.4-0.7c-0.7-0.5-1.3-1.1-1.7-2c-0.4-0.9-0.6-1.8-0.6-3
		c0-1.1,0.2-2.1,0.5-3c0.4-0.9,0.9-1.6,1.6-2c0.7-0.5,1.5-0.7,2.4-0.7c0.7,0,1.2,0.1,1.8,0.4c0.5,0.3,0.9,0.6,1.3,1.1V5h1.8v15H222z
		 M216.2,14.6c0,1.4,0.3,2.4,0.9,3.1s1.3,1,2.1,1c0.8,0,1.5-0.3,2.1-1c0.6-0.7,0.8-1.7,0.8-3c0-1.5-0.3-2.6-0.9-3.3s-1.3-1-2.1-1
		c-0.8,0-1.5,0.3-2.1,1C216.4,12.1,216.2,13.1,216.2,14.6z"/>
	<path d="M232,15.2l1.9-0.2c0.1,0.8,0.3,1.4,0.6,1.9c0.3,0.5,0.8,0.9,1.5,1.2c0.7,0.3,1.5,0.4,2.3,0.4c0.8,0,1.4-0.1,2-0.3
		s1-0.5,1.3-0.9c0.3-0.4,0.4-0.8,0.4-1.3c0-0.5-0.1-0.9-0.4-1.2c-0.3-0.4-0.7-0.6-1.4-0.9c-0.4-0.2-1.3-0.4-2.7-0.7
		c-1.4-0.3-2.3-0.6-2.9-0.9c-0.7-0.4-1.3-0.8-1.6-1.4c-0.4-0.6-0.5-1.2-0.5-1.9c0-0.8,0.2-1.5,0.6-2.1c0.4-0.7,1.1-1.2,1.9-1.5
		s1.7-0.5,2.8-0.5c1.1,0,2.1,0.2,2.9,0.5c0.9,0.4,1.5,0.9,2,1.6s0.7,1.5,0.7,2.4l-1.9,0.1c-0.1-0.9-0.4-1.7-1-2.2
		c-0.6-0.5-1.5-0.7-2.6-0.7c-1.2,0-2.1,0.2-2.6,0.7c-0.6,0.4-0.8,1-0.8,1.6c0,0.5,0.2,1,0.6,1.3c0.4,0.3,1.4,0.7,3,1.1
		c1.6,0.4,2.7,0.7,3.3,1c0.9,0.4,1.5,0.9,1.9,1.5c0.4,0.6,0.6,1.3,0.6,2.1c0,0.8-0.2,1.6-0.7,2.3c-0.5,0.7-1.1,1.3-2,1.7
		c-0.9,0.4-1.8,0.6-2.9,0.6c-1.4,0-2.5-0.2-3.4-0.6c-0.9-0.4-1.6-1-2.2-1.8C232.3,17.1,232,16.2,232,15.2z"/>
	<path d="M253.9,16.5l1.9,0.2c-0.3,1.1-0.9,2-1.7,2.6s-1.9,0.9-3.1,0.9c-1.6,0-2.9-0.5-3.8-1.5c-0.9-1-1.4-2.4-1.4-4.1
		c0-1.8,0.5-3.3,1.4-4.3s2.2-1.5,3.7-1.5c1.5,0,2.6,0.5,3.6,1.5s1.4,2.4,1.4,4.2c0,0.1,0,0.3,0,0.5h-8.1c0.1,1.2,0.4,2.1,1,2.7
		c0.6,0.6,1.4,1,2.3,1c0.7,0,1.3-0.2,1.7-0.5S253.6,17.3,253.9,16.5z M247.8,13.5h6.1c-0.1-0.9-0.3-1.6-0.7-2.1
		c-0.6-0.7-1.4-1.1-2.3-1.1c-0.8,0-1.6,0.3-2.1,0.9C248.2,11.8,247.9,12.6,247.8,13.5z"/>
	<path d="M265.2,18.7c-0.7,0.6-1.3,1-2,1.2c-0.6,0.2-1.3,0.4-2,0.4c-1.2,0-2.1-0.3-2.8-0.9c-0.6-0.6-1-1.3-1-2.2
		c0-0.5,0.1-1,0.4-1.5c0.2-0.4,0.6-0.8,1-1.1c0.4-0.3,0.8-0.5,1.3-0.6c0.4-0.1,0.9-0.2,1.6-0.3c1.5-0.2,2.6-0.4,3.3-0.6
		c0-0.3,0-0.4,0-0.5c0-0.8-0.2-1.3-0.5-1.6c-0.5-0.4-1.2-0.6-2.1-0.6c-0.9,0-1.5,0.2-1.9,0.5c-0.4,0.3-0.7,0.8-0.9,1.6l-1.8-0.2
		c0.2-0.8,0.4-1.4,0.8-1.9c0.4-0.5,0.9-0.8,1.6-1.1c0.7-0.3,1.5-0.4,2.5-0.4c0.9,0,1.7,0.1,2.3,0.3s1,0.5,1.3,0.8
		c0.3,0.3,0.5,0.8,0.6,1.3c0.1,0.3,0.1,0.9,0.1,1.7v2.5c0,1.7,0,2.8,0.1,3.3c0.1,0.5,0.2,0.9,0.5,1.3h-1.9
		C265.4,19.6,265.3,19.2,265.2,18.7z M265.1,14.6c-0.7,0.3-1.7,0.5-3,0.7c-0.8,0.1-1.3,0.2-1.6,0.4s-0.6,0.3-0.7,0.6
		c-0.2,0.3-0.3,0.6-0.3,0.9c0,0.5,0.2,0.9,0.6,1.2c0.4,0.3,0.9,0.5,1.6,0.5c0.7,0,1.3-0.2,1.9-0.5c0.6-0.3,1-0.7,1.2-1.3
		c0.2-0.4,0.3-1,0.3-1.8V14.6z"/>
	<path d="M269.1,16.8l1.8-0.3c0.1,0.7,0.4,1.3,0.9,1.7c0.5,0.4,1.1,0.6,2,0.6c0.8,0,1.5-0.2,1.9-0.5c0.4-0.3,0.6-0.8,0.6-1.2
		c0-0.4-0.2-0.7-0.5-1c-0.3-0.2-0.9-0.4-1.9-0.6c-1.4-0.3-2.3-0.6-2.8-0.9c-0.5-0.3-0.9-0.6-1.2-1c-0.3-0.4-0.4-0.9-0.4-1.5
		c0-0.5,0.1-0.9,0.3-1.3c0.2-0.4,0.5-0.8,0.9-1c0.3-0.2,0.7-0.4,1.2-0.5c0.5-0.1,1-0.2,1.6-0.2c0.9,0,1.6,0.1,2.3,0.4
		c0.6,0.2,1.1,0.6,1.4,1c0.3,0.4,0.5,1,0.6,1.7l-1.8,0.2c-0.1-0.6-0.3-1-0.7-1.3c-0.4-0.3-0.9-0.5-1.7-0.5c-0.8,0-1.5,0.1-1.8,0.4
		s-0.5,0.6-0.5,1c0,0.2,0.1,0.5,0.2,0.6c0.2,0.2,0.4,0.4,0.7,0.5c0.2,0.1,0.7,0.2,1.6,0.5c1.3,0.3,2.2,0.6,2.7,0.9
		c0.5,0.2,0.9,0.5,1.2,1s0.4,1,0.4,1.6c0,0.6-0.2,1.2-0.5,1.7c-0.4,0.5-0.9,1-1.6,1.3c-0.7,0.3-1.4,0.4-2.3,0.4
		c-1.4,0-2.5-0.3-3.2-0.9C269.8,18.8,269.3,17.9,269.1,16.8z"/>
	<path d="M279.6,14.6c0-2,0.6-3.5,1.7-4.5c0.9-0.8,2.1-1.2,3.4-1.2c1.5,0,2.7,0.5,3.7,1.5c1,1,1.4,2.3,1.4,4.1
		c0,1.4-0.2,2.5-0.6,3.3c-0.4,0.8-1,1.4-1.8,1.9c-0.8,0.4-1.7,0.7-2.6,0.7c-1.5,0-2.8-0.5-3.7-1.5C280.1,17.8,279.6,16.4,279.6,14.6
		z M281.5,14.6c0,1.4,0.3,2.4,0.9,3.1c0.6,0.7,1.4,1,2.3,1c0.9,0,1.7-0.3,2.3-1s0.9-1.8,0.9-3.2c0-1.3-0.3-2.4-0.9-3.1
		c-0.6-0.7-1.4-1-2.3-1c-0.9,0-1.7,0.3-2.3,1S281.5,13.2,281.5,14.6z"/>
	<path d="M292,20V9.1h1.7v1.5c0.8-1.2,2-1.8,3.5-1.8c0.7,0,1.3,0.1,1.8,0.4c0.5,0.2,1,0.5,1.2,0.9s0.5,0.8,0.6,1.4
		c0.1,0.3,0.1,0.9,0.1,1.8V20H299v-6.6c0-0.8-0.1-1.3-0.2-1.7c-0.1-0.4-0.4-0.7-0.8-0.9c-0.4-0.2-0.8-0.3-1.3-0.3
		c-0.8,0-1.5,0.3-2,0.7c-0.6,0.5-0.9,1.4-0.9,2.8V20H292z"/>
</g>
<g class="st3">
	<path d="M349.7,20V5h2v6.2h7.8V5h2v15h-2v-7.1h-7.8V20H349.7z"/>
	<path d="M371.7,18.7c-0.7,0.6-1.3,1-2,1.2c-0.6,0.2-1.3,0.4-2,0.4c-1.2,0-2.1-0.3-2.8-0.9c-0.6-0.6-1-1.3-1-2.2
		c0-0.5,0.1-1,0.4-1.5c0.2-0.4,0.6-0.8,1-1.1c0.4-0.3,0.8-0.5,1.3-0.6c0.4-0.1,0.9-0.2,1.6-0.3c1.5-0.2,2.6-0.4,3.3-0.6
		c0-0.3,0-0.4,0-0.5c0-0.8-0.2-1.3-0.5-1.6c-0.5-0.4-1.2-0.6-2.1-0.6c-0.9,0-1.5,0.2-1.9,0.5c-0.4,0.3-0.7,0.8-0.9,1.6l-1.8-0.2
		c0.2-0.8,0.4-1.4,0.8-1.9c0.4-0.5,0.9-0.8,1.6-1.1c0.7-0.3,1.5-0.4,2.5-0.4c0.9,0,1.7,0.1,2.3,0.3s1,0.5,1.3,0.8
		c0.3,0.3,0.5,0.8,0.6,1.3c0.1,0.3,0.1,0.9,0.1,1.7v2.5c0,1.7,0,2.8,0.1,3.3c0.1,0.5,0.2,0.9,0.5,1.3H372
		C371.8,19.6,371.7,19.2,371.7,18.7z M371.5,14.6c-0.7,0.3-1.7,0.5-3,0.7c-0.8,0.1-1.3,0.2-1.6,0.4s-0.6,0.3-0.7,0.6
		c-0.2,0.3-0.3,0.6-0.3,0.9c0,0.5,0.2,0.9,0.6,1.2c0.4,0.3,0.9,0.5,1.6,0.5c0.7,0,1.3-0.2,1.9-0.5c0.6-0.3,1-0.7,1.2-1.3
		c0.2-0.4,0.3-1,0.3-1.8V14.6z"/>
	<path d="M376.2,20V9.1h1.7v1.7c0.4-0.8,0.8-1.3,1.2-1.5c0.4-0.2,0.8-0.4,1.2-0.4c0.6,0,1.3,0.2,1.9,0.6l-0.6,1.7
		c-0.5-0.3-0.9-0.4-1.4-0.4c-0.4,0-0.8,0.1-1.1,0.4c-0.3,0.2-0.6,0.6-0.7,1c-0.2,0.7-0.3,1.4-0.3,2.2V20H376.2z"/>
	<path d="M386.2,20l-4.1-10.9h1.9l2.3,6.5c0.3,0.7,0.5,1.4,0.7,2.2c0.2-0.6,0.4-1.3,0.7-2.1l2.4-6.6h1.9L388,20H386.2z"/>
	<path d="M401.2,16.5l1.9,0.2c-0.3,1.1-0.9,2-1.7,2.6c-0.8,0.6-1.9,0.9-3.1,0.9c-1.6,0-2.9-0.5-3.8-1.5c-0.9-1-1.4-2.4-1.4-4.1
		c0-1.8,0.5-3.3,1.4-4.3s2.2-1.5,3.7-1.5c1.5,0,2.6,0.5,3.6,1.5c0.9,1,1.4,2.4,1.4,4.2c0,0.1,0,0.3,0,0.5H395c0.1,1.2,0.4,2.1,1,2.7
		c0.6,0.6,1.4,1,2.3,1c0.7,0,1.3-0.2,1.7-0.5S400.9,17.3,401.2,16.5z M395.1,13.5h6.1c-0.1-0.9-0.3-1.6-0.7-2.1
		c-0.6-0.7-1.3-1.1-2.3-1.1c-0.8,0-1.6,0.3-2.1,0.9C395.5,11.8,395.2,12.6,395.1,13.5z"/>
	<path d="M404.7,16.8l1.8-0.3c0.1,0.7,0.4,1.3,0.9,1.7c0.5,0.4,1.1,0.6,2,0.6c0.8,0,1.5-0.2,1.9-0.5c0.4-0.3,0.6-0.8,0.6-1.2
		c0-0.4-0.2-0.7-0.5-1c-0.3-0.2-0.9-0.4-1.9-0.6c-1.4-0.3-2.3-0.6-2.8-0.9c-0.5-0.3-0.9-0.6-1.2-1c-0.3-0.4-0.4-0.9-0.4-1.5
		c0-0.5,0.1-0.9,0.3-1.3c0.2-0.4,0.5-0.8,0.9-1c0.3-0.2,0.7-0.4,1.2-0.5c0.5-0.1,1-0.2,1.6-0.2c0.9,0,1.6,0.1,2.3,0.4s1.1,0.6,1.4,1
		c0.3,0.4,0.5,1,0.6,1.7l-1.8,0.2c-0.1-0.6-0.3-1-0.7-1.3s-0.9-0.5-1.7-0.5c-0.8,0-1.5,0.1-1.8,0.4c-0.4,0.3-0.5,0.6-0.5,1
		c0,0.2,0.1,0.5,0.2,0.6c0.2,0.2,0.4,0.4,0.7,0.5c0.2,0.1,0.7,0.2,1.6,0.5c1.3,0.3,2.2,0.6,2.7,0.9c0.5,0.2,0.9,0.5,1.2,1
		c0.3,0.4,0.4,1,0.4,1.6c0,0.6-0.2,1.2-0.5,1.7c-0.4,0.5-0.9,1-1.6,1.3c-0.7,0.3-1.4,0.4-2.3,0.4c-1.4,0-2.5-0.3-3.2-0.9
		C405.3,18.8,404.9,17.9,404.7,16.8z"/>
	<path d="M419.9,18.4l0.3,1.6c-0.5,0.1-1,0.2-1.4,0.2c-0.7,0-1.2-0.1-1.6-0.3c-0.4-0.2-0.6-0.5-0.8-0.8c-0.2-0.3-0.2-1.1-0.2-2.2
		v-6.3h-1.4V9.1h1.4V6.4l1.8-1.1v3.8h1.9v1.4h-1.9v6.4c0,0.5,0,0.9,0.1,1c0.1,0.2,0.2,0.3,0.3,0.4c0.1,0.1,0.4,0.1,0.6,0.1
		C419.3,18.4,419.6,18.4,419.9,18.4z"/>
	<path d="M421.7,7.1V5h1.8v2.1H421.7z M421.7,20V9.1h1.8V20H421.7z"/>
	<path d="M426.4,20V9.1h1.7v1.5c0.8-1.2,2-1.8,3.5-1.8c0.7,0,1.3,0.1,1.8,0.4c0.6,0.2,1,0.5,1.2,0.9s0.5,0.8,0.6,1.4
		c0.1,0.3,0.1,0.9,0.1,1.8V20h-1.8v-6.6c0-0.8-0.1-1.3-0.2-1.7c-0.1-0.4-0.4-0.7-0.8-0.9c-0.4-0.2-0.8-0.3-1.3-0.3
		c-0.8,0-1.5,0.3-2,0.7c-0.6,0.5-0.9,1.4-0.9,2.8V20H426.4z"/>
	<path d="M437.7,20.9l1.8,0.3c0.1,0.6,0.3,1,0.6,1.2c0.5,0.3,1.1,0.5,1.9,0.5c0.9,0,1.5-0.2,2-0.5s0.8-0.8,0.9-1.4
		c0.1-0.4,0.1-1.2,0.1-2.4c-0.8,1-1.8,1.4-3,1.4c-1.5,0-2.7-0.5-3.5-1.6s-1.2-2.4-1.2-3.9c0-1,0.2-2,0.6-2.9c0.4-0.9,0.9-1.6,1.6-2
		s1.6-0.7,2.5-0.7c1.3,0,2.3,0.5,3.2,1.6V9.1h1.7v9.4c0,1.7-0.2,2.9-0.5,3.6c-0.3,0.7-0.9,1.3-1.6,1.7c-0.7,0.4-1.7,0.6-2.8,0.6
		c-1.3,0-2.3-0.3-3.1-0.9C438.1,23,437.7,22.1,437.7,20.9z M439.3,14.4c0,1.4,0.3,2.5,0.9,3.1s1.3,1,2.1,1c0.8,0,1.6-0.3,2.1-1
		c0.6-0.7,0.9-1.7,0.9-3.1c0-1.3-0.3-2.3-0.9-3c-0.6-0.7-1.3-1-2.1-1c-0.8,0-1.5,0.3-2.1,1C439.6,12.1,439.3,13.1,439.3,14.4z"/>
</g>
</svg>
