<?xml version="1.0" encoding="utf-8"?>
<!-- Generator: Adobe Illustrator 23.0.1, SVG Export Plug-In . SVG Version: 6.00 Build 0)  -->
<svg version="1.1" id="Layer_1" xmlns="http://www.w3.org/2000/svg" xmlns:xlink="http://www.w3.org/1999/xlink" x="0px" y="0px"
	 viewBox="0 0 63.8 54.3" style="enable-background:new 0 0 63.8 54.3;" xml:space="preserve">
<style type="text/css">
	.st0{fill:none;stroke:#0066FF;stroke-width:0.75;stroke-linejoin:round;stroke-miterlimit:10;}
	.st1{fill:#FFFFFF;stroke:#00C1A3;stroke-width:0.75;stroke-miterlimit:10;}
	.st2{fill:#FFFFFF;stroke:#0066FF;stroke-width:0.75;stroke-miterlimit:10;}
	.st3{fill:none;stroke:#00C1A3;stroke-width:0.75;stroke-miterlimit:10;}
	
		.st4{fill-rule:evenodd;clip-rule:evenodd;fill:none;stroke:#FF25F3;stroke-width:0.75;stroke-linecap:round;stroke-linejoin:round;stroke-miterlimit:10;}
	.st5{fill:none;stroke:#0066FF;stroke-width:0.75;stroke-miterlimit:10;}
	.st6{fill-rule:evenodd;clip-rule:evenodd;fill:none;stroke:#0066FF;stroke-width:0.75;stroke-miterlimit:10;}
	.st7{fill-rule:evenodd;clip-rule:evenodd;fill:none;stroke:#00C1A3;stroke-width:0.75;stroke-miterlimit:10;}
	.st8{fill:none;stroke:#FF25F3;stroke-width:0.75;stroke-linecap:round;stroke-linejoin:round;stroke-miterlimit:10;}
	.st9{fill:#FFFFFF;stroke:#FF25F3;stroke-width:0.75;stroke-linecap:round;stroke-linejoin:round;stroke-miterlimit:10;}
	.st10{fill-rule:evenodd;clip-rule:evenodd;fill:#FFFFFF;stroke:#0066FF;stroke-width:0.75;stroke-miterlimit:10;}
	
		.st11{fill-rule:evenodd;clip-rule:evenodd;fill:#FFFFFF;stroke:#FF25F3;stroke-width:0.75;stroke-linecap:round;stroke-linejoin:round;stroke-miterlimit:10;}
	.st12{fill-rule:evenodd;clip-rule:evenodd;fill:#FFFFFF;stroke:#00C1A3;stroke-width:0.75;stroke-miterlimit:10;}
	.st13{fill:none;stroke:#0066FF;stroke-width:0.75;stroke-linecap:round;stroke-linejoin:round;stroke-miterlimit:10;}
	.st14{fill:#FFFFFF;stroke:#00C1A3;stroke-width:0.75;stroke-linecap:round;stroke-linejoin:round;stroke-miterlimit:10;}
	
		.st15{fill-rule:evenodd;clip-rule:evenodd;fill:#FFFFFF;stroke:#0066FF;stroke-width:0.75;stroke-linecap:round;stroke-linejoin:round;stroke-miterlimit:10;}
	
		.st16{fill-rule:evenodd;clip-rule:evenodd;fill:none;stroke:#0066FF;stroke-width:0.75;stroke-linecap:round;stroke-linejoin:round;stroke-miterlimit:10;}
	.st17{fill:#FFFFFF;stroke:#0066FF;stroke-width:0.75;stroke-linejoin:round;stroke-miterlimit:10;}
	.st18{fill:none;stroke:#FF25F3;stroke-width:0.75;stroke-linecap:round;stroke-miterlimit:10;}
	.st19{fill:none;stroke:#00C1A3;stroke-width:0.75;stroke-miterlimit:10;stroke-dasharray:1.9953,1.9953;}
	.st20{fill:none;stroke:#FF25F3;stroke-width:0.75;stroke-linecap:round;stroke-miterlimit:10;stroke-dasharray:1.9953,1.9953;}
</style>
<rect x="2" y="30.5" class="st5" width="12.1" height="5.3"/>
<rect x="14.1" y="30.5" class="st5" width="12.1" height="5.3"/>
<rect x="26" y="30.5" class="st5" width="12.1" height="5.3"/>
<rect x="38.1" y="30.5" class="st5" width="12.1" height="5.3"/>
<rect x="50.1" y="30.5" class="st5" width="12.1" height="5.3"/>
<rect x="26" y="40.2" class="st5" width="24.2" height="6.4"/>
<rect x="50.2" y="40.2" class="st3" width="11.9" height="6.4"/>
<rect x="14.1" y="46.7" class="st5" width="24.2" height="6.4"/>
<rect x="38.3" y="46.7" class="st3" width="11.9" height="6.4"/>
<rect x="14.1" y="40.2" class="st18" width="11.9" height="6.4"/>
<rect x="2.1" y="46.7" class="st18" width="11.9" height="6.4"/>
<path class="st6" d="M33.1,30h0.8c0.2-3.1-0.5-2,0.9-3.7c0.7-0.8,1.9-2.3,2.2-3.3c0-0.2,0.1-0.3,0-0.5c-1.1,0-2.8,1.5-3.5,2.8
	c-0.9-1.2-2.4-2.9-3.6-2.8c-0.1,1,1.7,3.2,2.2,3.8C33.6,27.9,33,26.8,33.1,30L33.1,30z"/>
<path class="st6" d="M33.5,19.8c1-1.2,3.7-3.9,3.6-5.3c-1.2-0.1-2.8,1.6-3.6,2.8c-0.7-1.2-2.5-3-3.6-2.8
	C29.9,15.9,32.5,18.6,33.5,19.8L33.5,19.8z"/>
<path class="st6" d="M33.5,15.7c1.4-1.5,3.2-3.4,3.7-5.3c-0.2,0,0,0-0.2,0c-0.3,0-0.5,0.1-0.7,0.3c-0.3,0.2-0.7,0.4-1,0.7
	c-0.9,0.7-1.1,1.1-1.7,2c-0.6-1-2.7-3.1-3.6-2.8C29.9,11.9,32.4,14.5,33.5,15.7L33.5,15.7z"/>
<path class="st6" d="M33.5,23.8c1-1.1,3.8-4,3.6-5.3c-1-0.1-2.9,1.8-3.5,2.9c-0.7-1-2.6-3.1-3.6-2.9C29.8,19.8,32.6,22.7,33.5,23.8
	L33.5,23.8z"/>
<path class="st6" d="M33.5,11.7c1.1-1.3,3.7-4.1,2.4-5.3c-0.9,1-1.6,1.9-2.4,3c-0.8-1.1-1.5-2-2.4-3C29.9,7.7,32.5,10.5,33.5,11.7
	L33.5,11.7z"/>
<path class="st6" d="M21,30.3h0.8c0.2-3.1-0.5-2,0.9-3.7c0.7-0.8,1.9-2.3,2.2-3.3c0-0.2,0.1-0.3,0-0.6c-1.1,0-2.8,1.6-3.5,2.9
	c-0.9-1.2-2.4-2.9-3.6-2.9c-0.2,1,1.7,3.2,2.2,3.8C21.4,28.2,20.8,27,21,30.3L21,30.3z"/>
<path class="st6" d="M21.4,20.1c1-1.2,3.7-3.9,3.6-5.3c-1.2-0.1-2.8,1.6-3.6,2.8c-0.7-1.2-2.5-3-3.6-2.8
	C17.7,16.1,20.3,18.9,21.4,20.1L21.4,20.1z"/>
<path class="st6" d="M21.4,24.1c1-1.1,3.8-4,3.6-5.3c-1-0.1-2.9,1.7-3.5,2.9c-0.7-1-2.6-3.1-3.6-2.9C17.6,20.1,20.4,23,21.4,24.1
	L21.4,24.1z"/>
<path class="st6" d="M9,29.9l0.8,0c0.2-3.1-0.5-2,0.9-3.6c0.7-0.8,1.9-2.3,2.2-3.3c0-0.2,0.1-0.3,0-0.6c-1.1,0-2.8,1.6-3.5,2.9
	c-0.9-1.2-2.4-2.9-3.6-2.9c-0.2,1,1.7,3.2,2.2,3.8C9.4,27.9,8.8,26.7,9,29.9L9,29.9z"/>
<path class="st6" d="M45.1,30.7h0.7c0.2-3.1-0.5-2,1-3.7c0.7-0.8,1.9-2.3,2.2-3.3c0-0.2,0.1-0.3,0.1-0.6c-1.2,0-2.8,1.6-3.6,2.9
	c-0.8-1.2-2.4-2.9-3.6-2.9c-0.1,1,1.7,3.2,2.2,3.8C45.5,28.6,44.9,27.4,45.1,30.7L45.1,30.7z"/>
<path class="st6" d="M45.5,20.4c1-1.2,3.7-3.9,3.6-5.3c-1.2-0.1-2.8,1.6-3.6,2.8c-0.8-1.2-2.5-3-3.6-2.8
	C41.7,16.5,44.4,19.2,45.5,20.4L45.5,20.4z"/>
<path class="st6" d="M45.5,16.4c1.4-1.6,3.2-3.4,3.6-5.3c-0.2,0,0,0-0.2,0c-0.3,0-0.5,0.1-0.7,0.3c-0.3,0.2-0.7,0.4-1,0.7
	c-1,0.7-1.1,1.1-1.8,2c-0.6-1-2.7-3.1-3.6-2.8C41.8,12.6,44.3,15.1,45.5,16.4L45.5,16.4z"/>
<path class="st6" d="M45.5,24.4c1-1.1,3.7-4,3.6-5.3c-1-0.1-2.9,1.7-3.6,2.9c-0.7-1-2.6-3.1-3.6-2.9C41.7,20.4,44.5,23.3,45.5,24.4
	L45.5,24.4z"/>
<path class="st6" d="M45.4,12.3c1.2-1.3,3.7-4.1,2.4-5.3c-0.9,1-1.6,1.8-2.4,3c-0.8-1.1-1.5-2-2.4-3C41.8,8.3,44.4,11.2,45.4,12.3
	L45.4,12.3z"/>
<path class="st6" d="M45.4,7.7c1.5-2.3,1.5-4.3,0-6.6C44,3.4,44,5.5,45.4,7.7L45.4,7.7z"/>
<path class="st6" d="M56.7,30.5h0.7c0.2-3.1-0.5-2,1-3.7c0.7-0.8,1.9-2.3,2.2-3.3c0-0.2,0.1-0.3,0.1-0.6c-1.2,0-2.8,1.6-3.6,2.9
	c-0.8-1.2-2.4-2.9-3.6-2.9c-0.1,1,1.7,3.2,2.2,3.8C57.1,28.4,56.5,27.2,56.7,30.5L56.7,30.5z"/>
<path class="st6" d="M57.1,20.2c1-1.2,3.7-3.9,3.6-5.3c-1.2-0.1-2.8,1.6-3.6,2.8c-0.8-1.2-2.5-3-3.6-2.8
	C53.3,16.3,56,19.1,57.1,20.2L57.1,20.2z"/>
<path class="st6" d="M57.1,16.2c1.4-1.6,3.2-3.4,3.6-5.3c-0.2,0,0,0-0.2,0c-0.3,0-0.5,0.1-0.7,0.3c-0.3,0.2-0.7,0.4-1,0.7
	c-1,0.7-1.1,1.1-1.8,2c-0.6-1-2.7-3.1-3.6-2.8C53.4,12.4,55.9,15,57.1,16.2L57.1,16.2z"/>
<path class="st6" d="M57.1,24.2c1-1.1,3.7-4,3.6-5.3c-1-0.1-2.9,1.7-3.6,2.9c-0.7-1-2.6-3.1-3.6-2.9C53.3,20.2,56.1,23.2,57.1,24.2
	L57.1,24.2z"/>
<path class="st6" d="M57,12.2c1.2-1.3,3.7-4.1,2.4-5.3c-0.9,1-1.6,1.8-2.4,3c-0.8-1.1-1.5-2-2.4-3C53.4,8.1,56,11,57,12.2L57,12.2z"
	/>
<path class="st6" d="M57,7.5c1.5-2.3,1.5-4.3,0-6.6C55.6,3.2,55.6,5.3,57,7.5L57,7.5z"/>
</svg>
