<?xml version="1.0" encoding="utf-8"?>
<!-- Generator: Adobe Illustrator 23.0.1, SVG Export Plug-In . SVG Version: 6.00 Build 0)  -->
<svg version="1.1" id="Layer_1" xmlns="http://www.w3.org/2000/svg" xmlns:xlink="http://www.w3.org/1999/xlink" x="0px" y="0px"
	 viewBox="0 0 1320 90.8" style="enable-background:new 0 0 1320 90.8;" xml:space="preserve">
<style type="text/css">
	.st0{fill:#FF25F3;}
	.st1{enable-background:new    ;}
	.st2{fill:#5E9FFF;}
	.st3{fill:#0044AB;}
</style>
<title>YAR legend</title>
<g>
	<g id="Layer_1-2">
		<rect class="st0" width="90.8" height="90.8"/>
		<g class="st1">
			<path d="M137.1,28.3c-3.1,4.2-5.4,9.7-5.4,17.4c0,7.6,2.3,13.1,5.4,17.3h-2.9c-2.7-3.5-5.6-9-5.6-17.3c0-8.4,2.9-13.9,5.6-17.4
				H137.1z"/>
			<path d="M149.8,45v2.8h-10.5V45H149.8z"/>
			<path d="M151.9,63.1c3-4.2,5.4-9.8,5.4-17.4c0-7.6-2.3-13.1-5.4-17.3h2.9c2.7,3.5,5.6,9,5.6,17.4c0,8.4-2.9,13.8-5.6,17.4H151.9z
				"/>
		</g>
		<g class="st1">
			<path d="M179.9,57.9V45.7l-9.1-16.6h4.2l4.1,7.9c1.1,2.2,2,3.9,2.9,5.9h0.1c0.8-1.9,1.8-3.8,2.9-5.9l4.1-7.9h4.2l-9.6,16.5v12.2
				H179.9z"/>
		</g>
		<g class="st1">
			<path d="M204.9,57.9l-0.3-2.6h-0.1c-1.2,1.6-3.4,3.1-6.3,3.1c-4.2,0-6.3-2.9-6.3-5.9c0-5,4.4-7.7,12.4-7.7v-0.4
				c0-1.7-0.5-4.8-4.7-4.8c-1.9,0-3.9,0.6-5.4,1.5l-0.9-2.5c1.7-1.1,4.2-1.8,6.8-1.8c6.3,0,7.9,4.3,7.9,8.4V53
				c0,1.8,0.1,3.5,0.3,4.9H204.9z M204.4,47.4c-4.1-0.1-8.7,0.6-8.7,4.7c0,2.4,1.6,3.6,3.5,3.6c2.7,0,4.4-1.7,5-3.5
				c0.1-0.4,0.2-0.8,0.2-1.2V47.4z"/>
			<path d="M214.2,29.5c1.9-0.4,4.6-0.6,7.1-0.6c4,0,6.5,0.7,8.3,2.3c1.5,1.3,2.3,3.2,2.3,5.5c0,3.8-2.4,6.3-5.4,7.3v0.1
				c2.2,0.8,3.5,2.8,4.2,5.8c0.9,4,1.6,6.8,2.2,7.9h-3.8c-0.5-0.8-1.1-3.3-1.9-6.9c-0.9-4-2.4-5.5-5.8-5.6h-3.5v12.5h-3.7V29.5z
				 M217.9,42.6h3.8c4,0,6.5-2.2,6.5-5.5c0-3.7-2.7-5.3-6.6-5.4c-1.8,0-3.1,0.2-3.7,0.3V42.6z"/>
			<path d="M254.2,28.3c-3.1,4.2-5.4,9.7-5.4,17.4c0,7.6,2.3,13.1,5.4,17.3h-2.9c-2.7-3.5-5.6-9-5.6-17.3c0-8.4,2.9-13.9,5.6-17.4
				H254.2z"/>
		</g>
		<g class="st1">
			<path d="M282.5,45.3c-0.2-4-0.5-8.8-0.4-12.4H282c-1,3.4-2.2,7-3.6,10.9l-5.1,14h-2.8L265.8,44c-1.4-4.1-2.5-7.8-3.3-11.2h-0.1
				c-0.1,3.6-0.3,8.4-0.6,12.7L261,57.9h-3.5l2-28.8h4.7l4.9,13.9c1.2,3.5,2.2,6.7,2.9,9.7h0.1c0.7-2.9,1.7-6.1,3-9.7l5.1-13.9h4.7
				l1.8,28.8h-3.6L282.5,45.3z"/>
		</g>
		<g class="st1">
			<path d="M297.6,32.3h-8.7v-3.2h21.3v3.2h-8.8v25.6h-3.8V32.3z"/>
		</g>
		<g class="st1">
			<path d="M313.5,63.1c3-4.2,5.4-9.8,5.4-17.4c0-7.6-2.3-13.1-5.4-17.3h2.9c2.7,3.5,5.6,9,5.6,17.4c0,8.4-2.9,13.8-5.6,17.4H313.5z
				"/>
		</g>
		<g class="st1">
			<path d="M649,62.1c-3.9-1-7.7-2.2-11-3.3c-0.6-0.2-1.2-0.4-1.7-0.4c-6.8-0.3-12.7-5.3-12.7-14.5c0-9.2,5.6-15.1,13.4-15.1
				c7.8,0,12.9,6.1,12.9,14.5c0,7.4-3.4,12.1-8.2,13.8v0.2c2.9,0.7,6,1.4,8.4,1.8L649,62.1z M645.9,43.4c0-5.8-3-11.7-9.1-11.7
				c-6.3,0-9.3,5.8-9.3,12c0,6.1,3.3,11.6,9.1,11.6C642.6,55.4,645.9,50,645.9,43.4z"/>
		</g>
		<g class="st1">
			<path d="M671.9,52.3c0,2.1,0,4,0.2,5.6h-3.3l-0.2-3.4h-0.1c-1,1.7-3.2,3.8-6.8,3.8c-3.2,0-7.1-1.8-7.1-9V37.3h3.8v11.4
				c0,3.9,1.2,6.6,4.6,6.6c2.5,0,4.3-1.7,4.9-3.4c0.2-0.6,0.3-1.2,0.3-1.9V37.3h3.8V52.3z"/>
			<path d="M689.6,57.9l-0.3-2.6h-0.1c-1.2,1.6-3.4,3.1-6.3,3.1c-4.2,0-6.3-2.9-6.3-5.9c0-5,4.4-7.7,12.4-7.7v-0.4
				c0-1.7-0.5-4.8-4.7-4.8c-1.9,0-3.9,0.6-5.4,1.5l-0.9-2.5c1.7-1.1,4.2-1.8,6.8-1.8c6.3,0,7.9,4.3,7.9,8.4V53
				c0,1.8,0.1,3.5,0.3,4.9H689.6z M689,47.4c-4.1-0.1-8.7,0.6-8.7,4.7c0,2.4,1.6,3.6,3.5,3.6c2.7,0,4.4-1.7,5-3.5
				c0.1-0.4,0.2-0.8,0.2-1.2V47.4z"/>
		</g>
		<g class="st1">
			<path d="M698.7,42.8c0-2.1,0-3.9-0.2-5.6h3.3l0.2,3.4h0.1c1-2,3.4-3.9,6.8-3.9c2.9,0,7.3,1.7,7.3,8.8v12.3h-3.8V46
				c0-3.3-1.2-6.1-4.8-6.1c-2.5,0-4.4,1.7-5,3.8c-0.2,0.5-0.3,1.1-0.3,1.7v12.4h-3.8V42.8z"/>
		</g>
		<g class="st1">
			<path d="M726.7,31.3v5.9h5.4v2.9h-5.4v11.1c0,2.6,0.7,4,2.8,4c1,0,1.7-0.1,2.2-0.3l0.2,2.8c-0.7,0.3-1.9,0.5-3.3,0.5
				c-1.7,0-3.2-0.6-4.1-1.6c-1.1-1.1-1.5-2.9-1.5-5.4V40.1h-3.2v-2.9h3.2v-4.9L726.7,31.3z"/>
			<path d="M740.5,31.5c0,1.3-0.9,2.3-2.4,2.3c-1.3,0-2.3-1-2.3-2.3c0-1.3,1-2.3,2.3-2.3C739.6,29.1,740.5,30.1,740.5,31.5z
				 M736.3,57.9V37.3h3.8v20.6H736.3z"/>
		</g>
		<g class="st1">
			<path d="M750.8,31.3v5.9h5.4v2.9h-5.4v11.1c0,2.6,0.7,4,2.8,4c1,0,1.7-0.1,2.2-0.3l0.2,2.8c-0.7,0.3-1.9,0.5-3.3,0.5
				c-1.7,0-3.2-0.6-4.1-1.6c-1.1-1.1-1.5-2.9-1.5-5.4V40.1H744v-2.9h3.2v-4.9L750.8,31.3z"/>
		</g>
		<g class="st1">
			<path d="M762.2,37.3l4.5,12.2c0.5,1.4,1,3,1.3,4.2h0.1c0.4-1.2,0.8-2.8,1.3-4.3l4.1-12.1h4L771.9,52c-2.7,7.1-4.5,10.7-7.1,12.9
				c-1.8,1.6-3.7,2.3-4.6,2.4l-0.9-3.2c0.9-0.3,2.2-0.9,3.3-1.8c1-0.8,2.3-2.3,3.2-4.2c0.2-0.4,0.3-0.7,0.3-0.9c0-0.2-0.1-0.5-0.3-1
				l-7.6-19H762.2z"/>
			<path d="M798.1,28.3c-3.1,4.2-5.4,9.7-5.4,17.4c0,7.6,2.3,13.1,5.4,17.3h-2.9c-2.7-3.5-5.6-9-5.6-17.3c0-8.4,2.9-13.9,5.6-17.4
				H798.1z"/>
		</g>
		<g class="st1">
			<path d="M826.4,45.3c-0.2-4-0.5-8.8-0.4-12.4h-0.1c-1,3.4-2.2,7-3.6,10.9l-5.1,14h-2.8L809.7,44c-1.4-4.1-2.5-7.8-3.3-11.2h-0.1
				c-0.1,3.6-0.3,8.4-0.6,12.7L805,57.9h-3.5l2-28.8h4.7l4.9,13.9c1.2,3.5,2.2,6.7,2.9,9.7h0.1c0.7-2.9,1.7-6.1,3-9.7l5.1-13.9h4.7
				l1.8,28.8h-3.6L826.4,45.3z"/>
		</g>
		<g class="st1">
			<path d="M841.5,32.3h-8.7v-3.2h21.3v3.2h-8.8v25.6h-3.8V32.3z"/>
			<path d="M854,59.6l11.9-30.9h2.9l-11.9,30.9H854z"/>
		</g>
		<g class="st1">
			<path d="M876.5,48.9l-3,9h-3.8l9.8-28.8h4.5l9.8,28.8h-4l-3.1-9H876.5z M886,46l-2.8-8.3c-0.6-1.9-1.1-3.6-1.5-5.2h-0.1
				c-0.4,1.7-0.9,3.5-1.5,5.2l-2.8,8.3H886z"/>
		</g>
		<g class="st1">
			<path d="M912.1,57.1c-1,0.5-3.2,1.2-5.9,1.2c-6.2,0-10.3-4.2-10.3-10.5c0-6.4,4.4-11,11.1-11c2.2,0,4.2,0.6,5.2,1.1l-0.9,2.9
				c-0.9-0.5-2.3-1-4.4-1c-4.7,0-7.3,3.5-7.3,7.8c0,4.8,3.1,7.7,7.2,7.7c2.1,0,3.5-0.6,4.6-1L912.1,57.1z"/>
			<path d="M914.2,63.1c3-4.2,5.4-9.8,5.4-17.4c0-7.6-2.3-13.1-5.4-17.3h2.9c2.7,3.5,5.6,9,5.6,17.4c0,8.4-2.9,13.8-5.6,17.4H914.2z
				"/>
		</g>
		<rect x="490" class="st2" width="90.8" height="90.8"/>
		<rect x="975.3" class="st3" width="90.8" height="90.8"/>
		<g class="st1">
			<path d="M1120,29.9c-3.1,4.2-5.4,9.7-5.4,17.4c0,7.6,2.3,13.1,5.4,17.3h-2.9c-2.7-3.5-5.6-9-5.6-17.3c0-8.4,2.9-13.9,5.6-17.4
				H1120z"/>
			<path d="M1135,36.8v10h9.6v2.6h-9.6v10.1h-2.7V49.4h-9.6v-2.6h9.6v-10H1135z"/>
			<path d="M1147.2,64.6c3-4.2,5.4-9.8,5.4-17.4c0-7.6-2.3-13.1-5.4-17.3h2.9c2.7,3.5,5.6,9,5.6,17.4c0,8.4-2.9,13.8-5.6,17.4
				H1147.2z"/>
		</g>
		<g class="st1">
			<path d="M1175.2,59.5V47.3l-9.1-16.6h4.2l4.1,7.9c1.1,2.2,2,3.9,2.9,5.9h0.1c0.8-1.9,1.8-3.8,2.9-5.9l4.1-7.9h4.2l-9.6,16.5v12.2
				H1175.2z"/>
		</g>
		<g class="st1">
			<path d="M1200.2,59.5l-0.3-2.6h-0.1c-1.2,1.6-3.4,3.1-6.3,3.1c-4.2,0-6.3-2.9-6.3-5.9c0-5,4.4-7.7,12.4-7.7v-0.4
				c0-1.7-0.5-4.8-4.7-4.8c-1.9,0-3.9,0.6-5.4,1.5l-0.9-2.5c1.7-1.1,4.2-1.8,6.8-1.8c6.3,0,7.9,4.3,7.9,8.4v7.7
				c0,1.8,0.1,3.5,0.3,4.9H1200.2z M1199.6,48.9c-4.1-0.1-8.7,0.6-8.7,4.7c0,2.4,1.6,3.6,3.5,3.6c2.7,0,4.4-1.7,5-3.5
				c0.1-0.4,0.2-0.8,0.2-1.2V48.9z"/>
			<path d="M1209.4,31.1c1.9-0.4,4.6-0.6,7.1-0.6c4,0,6.5,0.7,8.3,2.3c1.5,1.3,2.3,3.2,2.3,5.5c0,3.8-2.4,6.3-5.4,7.3v0.1
				c2.2,0.8,3.5,2.8,4.2,5.8c0.9,4,1.6,6.8,2.2,7.9h-3.8c-0.5-0.8-1.1-3.3-1.9-6.9c-0.9-4-2.4-5.5-5.8-5.6h-3.5v12.5h-3.7V31.1z
				 M1213.1,44.2h3.8c4,0,6.5-2.2,6.5-5.5c0-3.7-2.7-5.3-6.6-5.4c-1.8,0-3.1,0.2-3.7,0.3V44.2z"/>
			<path d="M1249.4,29.9c-3.1,4.2-5.4,9.7-5.4,17.4c0,7.6,2.3,13.1,5.4,17.3h-2.9c-2.7-3.5-5.6-9-5.6-17.3c0-8.4,2.9-13.9,5.6-17.4
				H1249.4z"/>
		</g>
		<g class="st1">
			<path d="M1277.7,46.9c-0.2-4-0.5-8.8-0.4-12.4h-0.1c-1,3.4-2.2,7-3.6,10.9l-5.1,14h-2.8l-4.7-13.7c-1.4-4.1-2.5-7.8-3.3-11.2
				h-0.1c-0.1,3.6-0.3,8.4-0.6,12.7l-0.8,12.3h-3.5l2-28.8h4.7l4.9,13.9c1.2,3.5,2.2,6.7,2.9,9.7h0.1c0.7-2.9,1.7-6.1,3-9.7
				l5.1-13.9h4.7l1.8,28.8h-3.6L1277.7,46.9z"/>
		</g>
		<g class="st1">
			<path d="M1292.8,33.9h-8.7v-3.2h21.3v3.2h-8.8v25.6h-3.8V33.9z"/>
		</g>
		<g class="st1">
			<path d="M1308.8,64.6c3-4.2,5.4-9.8,5.4-17.4c0-7.6-2.3-13.1-5.4-17.3h2.9c2.7,3.5,5.6,9,5.6,17.4c0,8.4-2.9,13.8-5.6,17.4
				H1308.8z"/>
		</g>
	</g>
</g>
</svg>
